<svg xmlns="http://www.w3.org/2000/svg" xmlns:xlink="http://www.w3.org/1999/xlink" width="628" height="86" viewBox="0 0 26172 3603.5"><defs><path id="s0:abrilfatface-regular:55" d="M636-700L646-449L627-449Q583-582 549-630.50Q515-679 451-679L439-679L439-21L524-21L524 0L159 0L159-21L244-21L244-679L231-679Q167-679 132-628.50Q97-578 55-449L36-449L46-700L636-700Z"/><path id="s0:abrilfatface-regular:75" d="M10-750L251-750L251-384Q267-430 300-458Q333-486 400-486Q555-486 555-319L555-18L611-18L611 0L328 0L328-18L369-18L369-343Q369-403 361-420.50Q353-438 332-438Q300-438 275.50-396Q251-354 251-294L251-18L294-18L294 0L10 0L10-18L65-18L65-732L10-732L10-750Z"/><path id="s0:abrilfatface-regular:72" d="M273 10Q144 10 79.50-56.50Q15-123 15-241.50Q15-360 87.50-423Q160-486 272-486Q499-486 490-258L208-258L208-219Q208-121 233-71Q258-21 320-21Q436-21 472-145L490-142Q471-70 421.50-30Q372 10 273 10M209-278L312-278L312-327Q312-408 302.50-437.50Q293-467 264.50-467Q236-467 222.50-435.50Q209-404 209-327L209-278Z"/><path id="s0:abrilfatface-regular:3" d=""/><path id="s0:abrilfatface-regular:40" d="M21-700L541-700L551-502L533-502Q491-603 445-640.50Q399-678 310-678L275-678L275-369L309-369Q356-369 388-404.50Q420-440 433-500L448-500L448-204L431-204Q413-279 382.50-311Q352-343 299-343L275-343L275-22L313-22Q405-22 469.50-77Q534-132 558-218L578-218L570 0L21 0L21-22L80-22L80-678L21-678L21-700Z"/><path id="s0:abrilfatface-regular:88" d="M595 0L367 0L356-73Q340-33 308.50-11.50Q277 10 215 10Q60 10 60-157L60-458L4-458L4-476L246-476L246-133Q246-73 254.50-54Q263-35 288.50-35Q314-35 334-66Q354-97 354-152L354-458L308-458L308-476L540-476L540-18L595-18L595 0Z"/><path id="s0:abrilfatface-regular:85" d="M344-448Q307-448 279-400Q251-352 251-286L251-18L322-18L322 0L10 0L10-18L65-18L65-458L10-458L10-476L251-476L251-380Q264-431 301-458.50Q338-486 385-486Q432-486 461.50-459.50Q491-433 491-384.50Q491-336 469-310Q447-284 401.50-284Q356-284 334.50-314Q313-344 329-397L365-397Q390-448 344-448Z"/><path id="s0:abrilfatface-regular:82" d="M333-197L333-282Q333-379 322.50-423.50Q312-468 274-468Q252-468 238.50-455.50Q225-443 219-414Q210-369 210-277L210-199Q210-90 216.50-68Q223-46 230-32Q241-8 273-8Q312-8 324-53Q333-85 333-197M271 10Q146 10 82-54Q18-118 18-237.50Q18-357 86.50-421.50Q155-486 279-486Q403-486 464-426.50Q525-367 525-245Q525 10 271 10Z"/><path id="s0:abrilfatface-regular:83" d="M375-269Q375-372 365-407.50Q355-443 326-443Q297-443 274-405.50Q251-368 251-305L251-122Q251-79 268-49Q285-19 318-19Q351-19 363-63Q375-107 375-217L375-269M249-476L249-397Q288-486 387-486Q473-486 520.50-424Q568-362 568-236Q568-110 516.50-50Q465 10 362 10Q314 10 290-2Q266-14 251-39L251 220L380 220L380 238L10 238L10 220L65 220L65-458L12-458L12-476L249-476Z"/><path id="s0:abrilfatface-regular:68" d="M250-235L279-235L279-312Q279-407 268.50-439.50Q258-472 228-472Q210-472 195.50-462.50Q181-453 181-436.50Q181-420 187-403L212-403Q220-382 220-352.50Q220-323 195-301.50Q170-280 132-280Q46-280 46-363Q46-486 255-486Q374-486 419.50-445.50Q465-405 465-297L465-94Q465-42 494-42Q528-42 534-145L549-144Q545-56 516-23Q487 10 421 10Q301 10 283-64Q270-26 244-8Q218 10 168 10Q20 10 20-111Q20-182 76.50-208.50Q133-235 250-235M210-112Q210-60 215.50-45Q221-30 236.50-30Q252-30 265.50-55.50Q279-81 279-126L279-219L272-219Q210-219 210-128L210-112Z"/><path id="s0:abrilfatface-regular:81" d="M12-476L253-476L253-384Q269-430 302-458Q335-486 402-486Q557-486 557-319L557-18L613-18L613 0L330 0L330-18L371-18L371-343Q371-403 363-420.50Q355-438 334-438Q302-438 277.50-396Q253-354 253-294L253-18L296-18L296 0L12 0L12-18L67-18L67-458L12-458L12-476Z"/><path id="s0:abrilfatface-regular:79" d="M6-750L251-750L251-18L307-18L307 0L10 0L10-18L65-18L65-732L6-732L6-750Z"/><path id="s0:abrilfatface-regular:74" d="M411-528L439-545Q445-576 415-576Q372-576 372-510Q372-484 379-450Q455-399 455-319.50Q455-240 400-196Q345-152 251-152Q212-152 170-160Q126-132 126-118Q126-104 190-104L292-104Q519-104 519 59Q519 147 450.50 198.50Q382 250 237 250Q-10 250-10 143Q-10 85 67 63L127 90Q119 119 119 145Q119 231 247 231Q325 231 367 202Q409 173 409 130Q409 87 383.50 72.50Q358 58 282 58L185 58Q104 58 69 31Q34 4 34-35.50Q34-75 59-101.50Q84-128 148-167Q32-200 32-319Q32-394 86-440Q140-486 248-486Q313-486 359-461Q353-488 353-510Q353-566 383-591Q413-616 450-616Q487-616 509.50-596.50Q532-577 532-543Q532-509 514-492.50Q496-476 470.50-476Q445-476 428.50-489.50Q412-503 411-528M199-341L199-287Q199-220 210.50-196Q222-172 245.50-172Q269-172 279.50-195.50Q290-219 290-292L290-341Q290-419 280-443.50Q270-468 246.50-468Q223-468 211-442.50Q199-417 199-341Z"/><path id="s0:abrilfatface-regular:86" d="M33 10L33-169L45-169Q71-82 115-47Q159-12 225-12Q327-12 327-77Q327-105 302-119Q263-141 202-153Q134-171 88-201Q33-237 33-315Q33-393 81-439.50Q129-486 209-486Q258-486 310-463Q329-455 339-455Q349-455 356-462Q363-469 373-488L384-488L384-335L372-335Q321-465 214-465Q167-465 144-448.50Q121-432 121-407Q121-392 128-383.50Q135-375 139-371Q143-367 152-362.50Q161-358 167-355.50Q173-353 185.50-349Q198-345 204-344Q272-327 302-314.50Q332-302 359-284Q414-246 414-161.50Q414-77 364-33.50Q314 10 227 10Q165 10 107-19Q95-27 88-27Q66-27 45 10L33 10Z"/><path id="s0:abrilfatface-regular:80" d="M10-476L251-476L251-384Q284-486 396.50-486Q509-486 533-378Q568-486 680-486Q827-486 827-319L827-18L883-18L883 0L606 0L606-18L641-18L641-343Q641-419 628-432Q622-438 612-438Q583-438 561-399Q539-360 539-300L539-18L575-18L575 0L318 0L318-18L353-18L353-343Q353-419 340-432Q334-438 324-438Q296-438 273.50-395.50Q251-353 251-294L251-18L287-18L287 0L10 0L10-18L65-18L65-458L10-458L10-476Z"/><path id="s0:abrilfatface-regular:69" d="M375-269Q375-372 365-407.50Q355-443 326-443Q297-443 274-407Q251-371 251-308L251-122Q251-79 268.50-49Q286-19 318.50-19Q351-19 363-63Q375-107 375-217L375-269M251-750L251-400Q289-486 381-486Q568-486 568-237Q568-110 516.50-50Q465 10 362 10Q310 10 282.50-6Q255-22 245-59L238 0L10 0L10-18L65-18L65-732L10-732L10-750L251-750Z"/><path id="s0:abrilfatface-regular:73" d="M313-756Q275-756 263-727.50Q251-699 251-636L251-476L383-476L383-458L251-458L251-18L373-18L373 0L10 0L10-18L65-18L65-458L7-458L7-476L65-476L65-480Q65-624 120-698.50Q175-773 304-773Q389-773 426-739.50Q463-706 463-662Q463-618 440-596Q417-574 379-574Q341-574 320.50-593.50Q300-613 300-638.50Q300-664 306-688L344-688Q364-756 313-756Z"/><path id="s0:abrilfatface-regular:87" d="M60-143L60-458L5-458L5-476L60-476L60-605L246-651L246-476L376-476L376-458L246-458L246-121Q246-74 255.50-52Q265-30 295-30Q325-30 347.50-60Q370-90 377-142L394-140Q386-71 350-30.50Q314 10 231 10Q148 10 104-23Q60-56 60-143Z"/><path id="s0:abrilfatface-regular:76" d="M157-545Q157-545 130.50-545Q104-545 81.50-572Q59-599 59-639Q59-679 83.50-705Q108-731 158-731Q208-731 234-707.50Q260-684 260-640.50Q260-597 235-571Q210-545 157-545M6-476L251-476L251-18L307-18L307 0L10 0L10-18L65-18L65-458L6-458L6-476Z"/><path id="s0:abrilfatface-regular:92" d="M5-458L5-476L295-476L295-458L241-458L350-126L466-458L399-458L399-476L540-476L540-458L490-458L303 81Q270 175 229 212.50Q188 250 129 250Q70 250 36 223Q2 196 2 154Q2 112 24 90Q46 68 82 68Q165 68 165 137Q165 152 159 173L124 173Q116 196 122 211Q128 226 149 226Q190 226 222 185.50Q254 145 283 62L305 0L217 0L46-458L5-458Z"/><path id="s0:abrilfatface-regular:17" d="M131.50 10Q131.50 10 109.75 10Q88 10 66.50-15.50Q45-41 45-77.50Q45-114 67.50-139Q90-164 131-164Q172-164 196-143Q220-122 220-80Q220-38 197.50-14Q175 10 131.50 10Z"/><path id="s0:abrilfatface-regular:91" d="M367-295L485-458L413-458L413-476L562-476L562-458L510-458L380-274L543-18L595-18L595 0L261 0L261-18L332-18L222-198L108-18L174-18L174 0L17 0L17-18L83-18L210-218L58-458L0-458L0-476L338-476L338-458L268-458L367-295Z"/><path id="s0:abrilfatface-regular:70" d="M290-468Q246-468 227-420Q208-372 208-261L208-209Q208-110 230-67Q252-24 311-24Q370-24 405-64Q440-104 450-155L468-153Q449-67 398-29Q346 10 255 10Q139 10 77-52.50Q15-115 15-235.50Q15-356 85.50-421Q156-486 282-486Q371-486 418-451.50Q465-417 465-365Q465-313 442.50-289Q420-265 380.50-265Q341-265 317-286Q293-307 293-348Q293-366 298-384L331-384Q338-404 338-420Q338-468 290-468Z"/><path id="s0:abrilfatface-regular:41" d="M21-700L541-700L551-492L533-492Q496-600 447.50-639Q399-678 303-678L275-678L275-353L320-353Q368-353 400-388Q432-423 444-484L459-484L459-188L442-188Q426-263 397.50-295Q369-327 320-327L275-327L275-22L399-22L399 0L21 0L21-22L80-22L80-678L21-678L21-700Z"/><path id="s0:abrilfatface-regular:15" d="M86 156L74 141Q136 88 155 58.50Q174 29 174-6.50Q174-42 143-46L95-3Q72-11 53.50-31.50Q35-52 35-84.50Q35-117 58.50-140Q82-163 123.50-163Q165-163 191-131Q217-99 217-46Q217 7 186 56Q155 105 86 156Z"/></defs><g id="line-0"><use x="0" y="912.5" xlink:href="#s0:abrilfatface-regular:55"/><use x="683" y="912.5" xlink:href="#s0:abrilfatface-regular:75"/><use x="1299" y="912.5" xlink:href="#s0:abrilfatface-regular:72"/><use x="1815" y="912.5" xlink:href="#s0:abrilfatface-regular:3"/><use x="1995" y="912.5" xlink:href="#s0:abrilfatface-regular:40"/><use x="2594" y="912.5" xlink:href="#s0:abrilfatface-regular:88"/><use x="3199" y="912.5" xlink:href="#s0:abrilfatface-regular:85"/><use x="3689" y="912.5" xlink:href="#s0:abrilfatface-regular:82"/><use x="4232" y="912.5" xlink:href="#s0:abrilfatface-regular:83"/><use x="4820" y="912.5" xlink:href="#s0:abrilfatface-regular:72"/><use x="5336" y="912.5" xlink:href="#s0:abrilfatface-regular:68"/><use x="5885" y="912.5" xlink:href="#s0:abrilfatface-regular:81"/><use x="6501" y="912.5" xlink:href="#s0:abrilfatface-regular:3"/><use x="6681" y="912.5" xlink:href="#s0:abrilfatface-regular:79"/><use x="6997" y="912.5" xlink:href="#s0:abrilfatface-regular:68"/><use x="7546" y="912.5" xlink:href="#s0:abrilfatface-regular:81"/><use x="8162" y="912.5" xlink:href="#s0:abrilfatface-regular:74"/><use x="8684" y="912.5" xlink:href="#s0:abrilfatface-regular:88"/><use x="9289" y="912.5" xlink:href="#s0:abrilfatface-regular:68"/><use x="9833" y="912.5" xlink:href="#s0:abrilfatface-regular:74"/><use x="10325" y="912.5" xlink:href="#s0:abrilfatface-regular:72"/><use x="10841" y="912.5" xlink:href="#s0:abrilfatface-regular:86"/><use x="11275" y="912.5" xlink:href="#s0:abrilfatface-regular:3"/><use x="11455" y="912.5" xlink:href="#s0:abrilfatface-regular:68"/><use x="12004" y="912.5" xlink:href="#s0:abrilfatface-regular:85"/><use x="12494" y="912.5" xlink:href="#s0:abrilfatface-regular:72"/><use x="13010" y="912.5" xlink:href="#s0:abrilfatface-regular:3"/><use x="13190" y="912.5" xlink:href="#s0:abrilfatface-regular:80"/><use x="14078" y="912.5" xlink:href="#s0:abrilfatface-regular:72"/><use x="14594" y="912.5" xlink:href="#s0:abrilfatface-regular:80"/><use x="15482" y="912.5" xlink:href="#s0:abrilfatface-regular:69"/><use x="16070" y="912.5" xlink:href="#s0:abrilfatface-regular:72"/><use x="16586" y="912.5" xlink:href="#s0:abrilfatface-regular:85"/><use x="17069" y="912.5" xlink:href="#s0:abrilfatface-regular:86"/><use x="17503" y="912.5" xlink:href="#s0:abrilfatface-regular:3"/><use x="17683" y="912.5" xlink:href="#s0:abrilfatface-regular:82"/><use x="18226" y="912.5" xlink:href="#s0:abrilfatface-regular:73"/><use x="18609" y="912.5" xlink:href="#s0:abrilfatface-regular:3"/><use x="18789" y="912.5" xlink:href="#s0:abrilfatface-regular:87"/><use x="19183" y="912.5" xlink:href="#s0:abrilfatface-regular:75"/><use x="19799" y="912.5" xlink:href="#s0:abrilfatface-regular:72"/><use x="20315" y="912.5" xlink:href="#s0:abrilfatface-regular:3"/><use x="20495" y="912.5" xlink:href="#s0:abrilfatface-regular:86"/><use x="20929" y="912.5" xlink:href="#s0:abrilfatface-regular:68"/><use x="21478" y="912.5" xlink:href="#s0:abrilfatface-regular:80"/><use x="22366" y="912.5" xlink:href="#s0:abrilfatface-regular:72"/><use x="22882" y="912.5" xlink:href="#s0:abrilfatface-regular:3"/><use x="23062" y="912.5" xlink:href="#s0:abrilfatface-regular:73"/><use x="23435" y="912.5" xlink:href="#s0:abrilfatface-regular:68"/><use x="23984" y="912.5" xlink:href="#s0:abrilfatface-regular:80"/><use x="24872" y="912.5" xlink:href="#s0:abrilfatface-regular:76"/><use x="25189" y="912.5" xlink:href="#s0:abrilfatface-regular:79"/><use x="25490" y="912.5" xlink:href="#s0:abrilfatface-regular:92"/><use x="25952" y="912.5" xlink:href="#s0:abrilfatface-regular:17"/></g><g id="line-1"><use x="5178.5" y="2112.5" xlink:href="#s0:abrilfatface-regular:55"/><use x="5861.5" y="2112.5" xlink:href="#s0:abrilfatface-regular:75"/><use x="6477.5" y="2112.5" xlink:href="#s0:abrilfatface-regular:72"/><use x="6993.5" y="2112.5" xlink:href="#s0:abrilfatface-regular:76"/><use x="7310.5" y="2112.5" xlink:href="#s0:abrilfatface-regular:85"/><use x="7805.5" y="2112.5" xlink:href="#s0:abrilfatface-regular:3"/><use x="7985.5" y="2112.5" xlink:href="#s0:abrilfatface-regular:86"/><use x="8419.5" y="2112.5" xlink:href="#s0:abrilfatface-regular:72"/><use x="8935.5" y="2112.5" xlink:href="#s0:abrilfatface-regular:83"/><use x="9523.5" y="2112.5" xlink:href="#s0:abrilfatface-regular:68"/><use x="10072.5" y="2112.5" xlink:href="#s0:abrilfatface-regular:85"/><use x="10552.5" y="2112.5" xlink:href="#s0:abrilfatface-regular:68"/><use x="11086.5" y="2112.5" xlink:href="#s0:abrilfatface-regular:87"/><use x="11480.5" y="2112.5" xlink:href="#s0:abrilfatface-regular:72"/><use x="11996.5" y="2112.5" xlink:href="#s0:abrilfatface-regular:3"/><use x="12176.5" y="2112.5" xlink:href="#s0:abrilfatface-regular:72"/><use x="12692.5" y="2112.5" xlink:href="#s0:abrilfatface-regular:91"/><use x="13287.5" y="2112.5" xlink:href="#s0:abrilfatface-regular:76"/><use x="13604.5" y="2112.5" xlink:href="#s0:abrilfatface-regular:86"/><use x="14028.5" y="2112.5" xlink:href="#s0:abrilfatface-regular:87"/><use x="14422.5" y="2112.5" xlink:href="#s0:abrilfatface-regular:72"/><use x="14938.5" y="2112.5" xlink:href="#s0:abrilfatface-regular:81"/><use x="15554.5" y="2112.5" xlink:href="#s0:abrilfatface-regular:70"/><use x="16037.5" y="2112.5" xlink:href="#s0:abrilfatface-regular:72"/><use x="16553.5" y="2112.5" xlink:href="#s0:abrilfatface-regular:3"/><use x="16733.5" y="2112.5" xlink:href="#s0:abrilfatface-regular:76"/><use x="17050.5" y="2112.5" xlink:href="#s0:abrilfatface-regular:86"/><use x="17484.5" y="2112.5" xlink:href="#s0:abrilfatface-regular:3"/><use x="17664.5" y="2112.5" xlink:href="#s0:abrilfatface-regular:68"/><use x="18213.5" y="2112.5" xlink:href="#s0:abrilfatface-regular:3"/><use x="18393.5" y="2112.5" xlink:href="#s0:abrilfatface-regular:80"/><use x="19231.5" y="2112.5" xlink:href="#s0:abrilfatface-regular:92"/><use x="19763.5" y="2112.5" xlink:href="#s0:abrilfatface-regular:87"/><use x="20157.5" y="2112.5" xlink:href="#s0:abrilfatface-regular:75"/><use x="20773.5" y="2112.5" xlink:href="#s0:abrilfatface-regular:17"/></g><g id="line-2"><use x="6478.5" y="3312.5" xlink:href="#s0:abrilfatface-regular:41"/><use x="7020.5" y="3312.5" xlink:href="#s0:abrilfatface-regular:82"/><use x="7563.5" y="3312.5" xlink:href="#s0:abrilfatface-regular:85"/><use x="8058.5" y="3312.5" xlink:href="#s0:abrilfatface-regular:3"/><use x="8238.5" y="3312.5" xlink:href="#s0:abrilfatface-regular:86"/><use x="8672.5" y="3312.5" xlink:href="#s0:abrilfatface-regular:70"/><use x="9155.5" y="3312.5" xlink:href="#s0:abrilfatface-regular:76"/><use x="9472.5" y="3312.5" xlink:href="#s0:abrilfatface-regular:72"/><use x="9988.5" y="3312.5" xlink:href="#s0:abrilfatface-regular:81"/><use x="10604.5" y="3312.5" xlink:href="#s0:abrilfatface-regular:70"/><use x="11087.5" y="3312.5" xlink:href="#s0:abrilfatface-regular:72"/><use x="11603.5" y="3312.5" xlink:href="#s0:abrilfatface-regular:15"/><use x="11865.5" y="3312.5" xlink:href="#s0:abrilfatface-regular:3"/><use x="12045.5" y="3312.5" xlink:href="#s0:abrilfatface-regular:80"/><use x="12913.5" y="3312.5" xlink:href="#s0:abrilfatface-regular:88"/><use x="13518.5" y="3312.5" xlink:href="#s0:abrilfatface-regular:86"/><use x="13952.5" y="3312.5" xlink:href="#s0:abrilfatface-regular:76"/><use x="14269.5" y="3312.5" xlink:href="#s0:abrilfatface-regular:70"/><use x="14752.5" y="3312.5" xlink:href="#s0:abrilfatface-regular:15"/><use x="15014.5" y="3312.5" xlink:href="#s0:abrilfatface-regular:3"/><use x="15194.5" y="3312.5" xlink:href="#s0:abrilfatface-regular:86"/><use x="15621.5" y="3312.5" xlink:href="#s0:abrilfatface-regular:83"/><use x="16209.5" y="3312.5" xlink:href="#s0:abrilfatface-regular:82"/><use x="16752.5" y="3312.5" xlink:href="#s0:abrilfatface-regular:85"/><use x="17247.5" y="3312.5" xlink:href="#s0:abrilfatface-regular:87"/><use x="17641.5" y="3312.5" xlink:href="#s0:abrilfatface-regular:15"/><use x="17903.5" y="3312.5" xlink:href="#s0:abrilfatface-regular:3"/><use x="18083.5" y="3312.5" xlink:href="#s0:abrilfatface-regular:72"/><use x="18599.5" y="3312.5" xlink:href="#s0:abrilfatface-regular:87"/><use x="18993.5" y="3312.5" xlink:href="#s0:abrilfatface-regular:70"/><use x="19476.5" y="3312.5" xlink:href="#s0:abrilfatface-regular:15"/></g></svg>