<svg xmlns="http://www.w3.org/2000/svg" xmlns:xlink="http://www.w3.org/1999/xlink" width="382" height="85" viewBox="0 0 32574 7246.7"><defs><path id="s0:amaticsc-regular:179" d="M338 12Q318 12 307-3Q296-18 296-40Q297-77 297-223L297-406Q297-490 292-733Q287-975 287-1061L288-1120Q289-1153 289-1253Q289-1474 284-1474L53-1474Q36-1474 23-1482Q10-1490 10-1505Q10-1521 16.50-1527Q23-1533 49-1539Q79-1544 131-1544L336-1545L561-1546Q586-1546 595-1537.50Q604-1529 604-1511Q604-1481 565-1481L474-1481L382-1480L364-1478L365-1478L366-1359L366-1200L366-368L367-199L368-48L368-42Q368-22 366.50-13.50Q365-5 359 3Q352 12 338 12Z"/><path id="s0:amaticsc-regular:303" d="M517 23Q516 2 454 2Q444-431 444-547L439-555L446-573Q446-608 439-649L407-657Q389-651 366-651Q346-651 300-662Q259-672 235-672L214-664Q214-621 211-535Q208-450 208-406L214-397Q214-340 220-226Q226-112 226-55Q226-33 217.50-17.50Q209-2 192-2Q147-2 147-125L149-313L151-500Q151-687 145-700Q155-719 155-836Q155-926 148-1076Q140-1246 140-1315Q140-1330 150.50-1342Q161-1354 175-1354Q216-1354 216-1235Q216-1132 212-983Q208-832 208-735Q208-711 365-711L372-711Q412-711 429-726Q446-741 446-778Q446-879 433-1061Q419-1255 419-1343Q419-1355 430-1364.50Q441-1374 454-1374Q455-1374 473-1369L491-1362Q491-1190 504-884Q517-576 517-406Q517-169 530 0L517 23M388-735L388-739L392-735L388-735Z"/><path id="s0:amaticsc-regular:272" d="M186 27Q148 27 145-16Q145-30 146-42Q147-54 147-68L140-76Q155-117 155-160Q155-195 150-295Q145-395 145-430Q145-546 152-738Q159-930 159-1047Q159-1097 155-1170Q151-1242 151-1292Q151-1322 164.50-1336Q178-1350 210-1350Q233-1350 243-1337Q256-1334 303-1329Q354-1323 392-1311Q430-1299 430-1280Q430-1261 392-1239Q280-1276 226-1278L216-1266Q218-1228 218-1178Q218-1114 214-1019Q210-924 210-860Q210-803 239-803L273-805Q303-807 308-807Q387-807 388-770Q388-748 377-732.50Q366-717 347-717Q313-717 300-733L233-743L224-743L214-733L214-727Q218-680 218-565L216-420L214-274Q214-194 220-111Q223-64 241-48.50Q259-33 308-33L345-35L384-37Q444-37 444-10Q444 27 355 27L186 27Z"/><path id="s0:amaticsc-regular:3" d=""/><path id="s0:amaticsc-regular:51" d="M233 12Q185 12 165 3.50Q145-5 145-33L145-71Q144-88 144-109L144-113L146-412L144-1257Q144-1357 140-1485Q140-1510 150-1526Q160-1542 177-1542L304-1542Q317-1542 326.50-1541.50Q336-1541 346-1538Q367-1531 367-1503Q367-1487 354-1476.50Q341-1466 327-1465Q318-1464 293-1464L260-1466L227-1468Q212-1468 207.50-1463.50Q203-1459 203-1444Q203-1347 204-1270L204-1096L204-840Q204-836 208-836L210-836L212-836Q281-840 323-840Q357-840 357-810Q357-791 350-783.50Q343-776 326-776L209-776Q201-776 201-766Q201-649 205-462Q209-274 209-137L209-61L296-62L383-62L401-62Q439-62 439-35Q439-3 420 4Q399 12 320 12L233 12Z"/><path id="s0:amaticsc-regular:409" d="M362 31Q329 30 291 9Q253-12 229-41Q201-77 184-248Q167-419 164-637L163-703Q159-977 155.50-1121Q152-1265 145-1319L158-1348Q205-1342 205-1235L211-692Q211-627 222-475Q233-323 233-258Q233-25 387-25Q482-25 507-454L510-496Q524-997 524-1329L522-1348L520-1366Q520-1389 555-1389Q579-1389 585-1376Q590-1361 590-1305Q590-1145 577-1096Q579-1090 579-1083Q579-1063 574-1001Q569-939 569-920Q569-909 570-900Q571-891 571-879Q568-841 566-739Q563-538 557-401Q550-224 508-100Q487-37 449.50-3Q412 31 362 31Z"/><path id="s0:amaticsc-regular:389" d="M460 25Q436-2 407.50-116.50Q379-231 355-375Q335-496 308-606Q283-709 261-709L253-709Q208-709 208-680Q208-569 226-231Q233-50 243-16L228 18L198 18L183 2Q150-884 150-1288Q150-1313 152.50-1326Q155-1339 165-1352Q176-1366 195-1366Q298-1366 361.50-1314Q425-1262 425-1167L425-1018Q425-980 400.50-916Q376-852 345-793Q318-744 318-741Q318-734 396-414Q474-94 480-78Q480-77 483-70.50Q486-64 497-43Q513-12 513 6Q513 35 490 35L460 25M220-760Q258-760 289.50-799.50Q321-839 337-899Q353-956 361.50-1009Q370-1062 370-1098Q370-1145 365.50-1176Q361-1207 349-1241Q336-1276 306.50-1294.50Q277-1313 232-1313Q221-1313 214.50-1295.50Q208-1278 208-1260Q208-1159 212-1012Q216-865 216-764L220-760Z"/><path id="s0:amaticsc-regular:352" d="M360 39Q120 39 120-715L120-786Q120-1357 268-1357Q278-1357 296-1352Q339-1337 380-1330Q421-1323 425-1322Q465-1315 503-1243Q546-1169 567.50-1050Q589-931 589-801L585-791L587-669L589-547Q589-504 588-459.50Q587-415 582-359Q576-293 566.50-242.50Q557-192 541-140Q523-84 499.50-46.50Q476-9 441 14Q406 39 360 39M352-20Q391-20 422-50Q453-80 471-134Q509-246 518-367Q526-472 526-563Q526-637 515-805Q503-966 503-1047L495-1063L499-1073Q499-1132 476-1182.50Q453-1233 413.50-1263.50Q374-1294 327-1294Q233-1294 216-1204Q208-1160 207-1116Q207-1106 206.50-1060Q206-1014 202.50-974Q199-934 194-909Q194-885 189-813Q184-741 184-717L186-636L188-555Q188-465 205-333Q217-242 234-178.50Q251-115 280-69Q311-20 352-20Z"/><path id="s0:amaticsc-regular:385" d="M177 25Q154-101 154-270Q154-319 159-461Q163-574 163-651Q150-680 150-698Q171-733 171-887Q171-1253 159-1284Q178-1335 189-1335L279-1335Q302-1335 343-1313.50Q384-1292 413-1268Q464-1222 464-1026Q464-978 463-941.50Q462-905 458-867Q454-829 445-806Q436-783 417-753Q401-727 376.50-709Q352-691 313-672Q276-654 228-639L228-395Q228-329 237-195Q245-53 245 4Q245 41 206 41L177 25M241-709Q272-709 297.50-724Q323-739 341-763Q369-801 386-887Q395-938 398-1024L398-1079Q398-1116 396-1138Q394-1160 387-1186Q379-1214 366-1231Q353-1248 329-1260Q305-1272 271-1272Q245-1272 235.50-1259.50Q226-1247 226-1217Q226-1178 231-1070Q236-960 236-922Q236-882 232-825Q228-768 228-729L241-709Z"/><path id="s0:amaticsc-regular:227" d="M551 18Q529 18 520 15.50Q511 13 507 4Q503-5 500-27L466-295Q429-305 365-305Q342-305 290-310Q238-315 219-315Q212-315 209-313Q206-311 205-306Q204-304 204-302Q204-300 203-299L199-258Q194-206 176-111Q165-59 152-25Q137 10 121 10Q108 10 94-1.50Q80-13 80-25L82-31L84-37Q118-168 146-326L169-453Q176-490 183-536L195-608L217-743Q226-800 253-922Q279-1047 289-1112L297-1187L301-1220Q306-1275 311-1303Q319-1355 324-1364L338-1363Q344-1362 352-1362Q377-1362 389-1374Q403-1374 414.50-1365Q426-1356 426-1343Q426-1285 429.50-1236.50Q433-1188 441-1118L453-1010Q478-721 567-18L567-12Q567 9 551 18M457-350Q442-565 379-1221Q273-694 268-674Q221-441 221-376Q221-366 300-358Q379-350 436-350L457-350Z"/><path id="s0:amaticsc-regular:341" d="M669 8Q654 8 646-4.50Q638-17 633-41Q629-62 624-70L626-76Q612-166 558-311Q530-387 520-418Q513-426 465-571Q281-1142 233-1188Q217-1127 217-1044L219-963L221-883L219-833L217-784Q217-751 221-707L225-641L219-641Q219-301 233-264L233-80Q241-66 241-37Q241-21 230.50-8.50Q220 4 203 4Q160 4 160-106Q160-133 164-173Q168-212 168-240Q168-339 162-535Q155-717 155-829Q155-898 162-1011Q168-1133 168-1192L168-1218Q168-1319 205-1350L211-1343L231-1348Q241-1344 250-1335Q255-1328 259-1317L262-1305L264-1294Q299-1147 411-887Q520-634 557-520Q571-477 590-394Q610-304 631.50-239.50Q653-175 682-125L686-131Q733-583 733-1247L731-1272L729-1298Q729-1341 758-1341Q777-1341 790-1322.50Q803-1304 803-1282L803-1145L792-1128Q792-1016 781-748Q770-480 755-256Q740-32 727-6Q716-4 692 3L692 4L691 3Q673 8 669 8Z"/><path id="s0:amaticsc-regular:332" d="M184 27Q155 27 150-20Q154-37 154-88Q154-277 160-647Q166-1016 166-1180Q166-1188 171-1253L176-1315Q176-1329 191-1329Q201-1329 220-1322Q225-1320 225-1321Q225-1276 224-1240Q223-1204 223-1159Q223-1035 224-936Q225-837 225-713L222-625Q219-564 219-541L221-454L223-367L217-350L219-352Q219-347 218-344Q217-341 217-336Q217-319 223-307L217-111L217-98Q217-69 219-57Q220-47 229-47Q259-47 335-44L422-41L428-41Q439-41 449-29.50Q459-18 459-6Q459 17 426 20Q356 18 256 18L260 20Q248 20 222 23Q199 27 184 27Z"/><path id="s0:amaticsc-regular:296" d="M390 14Q296 14 251-8.50Q206-31 184-95Q162-159 145-302Q120-502 120-623Q120-684 130-783L141-911L143-939Q152-1076 167-1154Q182-1232 228-1288Q274-1344 367-1354Q387-1356 399-1356Q462-1356 462-1327Q462-1314 449-1305Q436-1296 421-1296L402-1298L382-1300Q348-1300 320.50-1277.50Q293-1255 275-1213Q254-1166 240.50-1119Q227-1072 219-1012Q210-943 205.50-894.50Q201-846 199-787Q196-703 196-629Q196-529 202-479Q216-457 221-413.50Q226-370 232-284Q236-213 250-162.50Q264-112 301-80Q342-45 413-45Q441-45 463-62Q485-79 498-110Q512-146 520-178Q528-210 531-253Q536-332 536-409L536-522Q515-543 464-543L448-542Q439-541 425-541Q376-541 376-565Q376-600 425-600Q468-600 529-595Q568-590 590-582Q614-573 614-559Q614-536 603-483Q591-432 591-406Q591-342 595-249Q599-156 599-92Q493 14 390 14Z"/><path id="s0:amaticsc-regular:395" d="M171 25Q147 21 127.50 7.50Q108-6 105-25L115-41Q131-39 151-34Q175-27 189-27Q235-27 269.50-62.50Q304-98 321-156Q351-258 351-356Q351-432 327-510Q303-588 264-659L240-702Q197-780 173-828Q149-876 131-935Q105-1016 105-1098Q105-1135 114.50-1180.50Q124-1226 142-1271Q161-1319 194-1348.50Q227-1378 267-1378Q292-1378 318.50-1360Q345-1342 345-1321Q345-1305 318-1305Q311-1305 297-1311Q284-1317 275-1317Q244-1317 220-1292.50Q196-1268 183-1228Q158-1153 158-1090Q158-1050 168-1010L175-976Q176-967 187-935L197-899L212-862L248-799L264-772Q292-725 311-691Q330-657 349-616Q369-572 379-535Q389-498 397-444Q404-395 404-332Q404-229 376-148Q358-97 333.50-61.50Q309-26 271-4Q231 20 181 20L171 25M334-1311Q334-1313 332-1313L332-1311L334-1311Z"/><path id="s0:amaticsc-regular:339" d="M957 106Q916 106 916-25L916-159Q916-455 904-621Q901-660 896-697Q888-759 888-786Q888-837 892-913Q896-989 896-1040Q896-1110 888-1137Q848-1106 642-274Q639-259 638-244Q632-195 622-161Q616-140 605-127.50Q594-115 580-115Q547-115 533-131Q519-147 519-182Q519-236 466.50-467.50Q414-699 354-913Q294-1127 271-1149Q266-1036 253-812Q239-563 232.50-392.50Q226-222 226-70Q226-24 228 12Q219 39 185 39Q178 39 164 28Q150 17 150 10Q150-199 182-636Q214-1073 214-1282Q214-1289 208-1302Q202-1314 202-1321Q202-1352 257-1352Q272-1352 282.50-1344Q293-1336 297-1321Q305-1290 306-1260Q308-1234 308-1235Q318-1178 366-1071Q410-972 425-918L431-897Q432-892 448-838Q462-787 474-741.50Q486-696 492-662L519-608Q524-582 542-508Q560-437 568.50-385Q577-333 578-287Q593-309 649-502.50Q705-696 761.50-913.50Q818-1131 830-1196Q830-1195 835-1227Q838-1251 843-1268.50Q848-1286 855-1306Q870-1348 904-1348Q918-1348 936.50-1335.50Q955-1323 955-1311Q955-453 982-408L980-301L978-193Q978-66 994 4L999 20Q1002 32 1002 39Q1002 62 989 84Q976 106 957 106M888-1145L888-1149L886-1149L883-1147L888-1145Z"/><path id="s0:amaticsc-regular:257" d="M181 23Q163 23 152.50 10.50Q142-2 142-20Q140-46 140-84Q140-149 151-301Q161-438 161-516L159-608L157-698Q157-780 163-943Q169-1107 169-1188Q169-1253 167-1307L159-1317L159-1329Q159-1355 168.50-1368.50Q178-1382 202-1382Q221-1382 266.50-1370Q312-1358 349-1342.50Q386-1327 386-1315L384-1309Q421-1251 434.50-1191Q448-1131 448-1038Q448-885 415-795L417-795Q412-782 386-742Q361-706 357-698Q394-670 418.50-614Q443-558 450-507Q455-452 458-399L460-346L460-317Q460-121 338-27Q273 23 181 23M243-739Q378-739 378-1012Q378-1052 375-1100L372-1139L368-1143Q363-1204 346-1250Q335-1279 313.50-1296Q292-1313 265-1313Q220-1313 220-1044Q220-993 221-974Q222-955 222-934Q222-895 221-864Q220-832 220-791L220-766L224-753L228-739L243-739M212-57Q261-57 303.50-90Q346-123 371-175Q396-227 396-279L397-286L397-303L397-325Q397-372 394.50-407.50Q392-443 382-490Q371-544 353-580Q335-616 303-642Q269-668 226-668Q216-522 216-389L216-342Q216-283 222-248Q210-226 210-150Q210-118 211-97L212-57Z"/><path id="s0:amaticsc-regular:294" d="M150-2Q169-193 169-500Q169-627 183-913Q197-1198 197-1325Q197-1343 214-1353.50Q231-1364 253-1364Q296-1364 354.50-1357Q413-1350 455.50-1336.50Q498-1323 498-1305Q498-1270 425-1270Q387-1290 312-1290Q297-1290 287-1288Q280-1286 278-1283Q276-1280 273-1269Q271-1261 265-1247Q265-1166 255-1030Q245-893 245-815L245-743Q245-736 279-737Q382-737 382-705Q382-689 366.50-677.50Q351-666 333-666Q322-666 299-672Q277-678 265-678Q228-678 228-578L228-346Q228-298 234-200Q240-103 240-53Q240 29 191 29L150-2Z"/><path id="s0:amaticsc-regular:403" d="M282-29L280-104L278-178L280-214L282-250Q282-277 274-299Q274-465 254-808Q233-1161 232-1298Q101-1298 62-1305Q20-1313 20-1337Q29-1360 59-1360Q107-1360 237-1351Q361-1341 415-1341L459-1342L502-1343Q539-1343 539-1317Q539-1304 526-1297Q513-1290 494-1290Q468-1290 407-1294Q346-1298 319-1298Q313-1298 311-1292Q309-1282 309-1253Q309-1053 333-652Q357-252 357-51Q357-37 339-24.50Q321-12 305-12L282-29Z"/><path id="s0:amaticsc-regular:307" d="M259 0Q211 0 203-20Q193-20 186-19Q178-18 169-18Q125-18 113-39Q113-47 116-52Q119-57 128-63L140-74L199-74L207-82Q207-86 211-101Q214-118 214-125Q214-210 207-349Q199-507 199-573Q199-635 204-813Q209-990 209-1051Q209-1195 199-1288Q180-1294 138-1294L114-1292L89-1290Q50-1290 50-1325Q50-1333 68-1341.50Q86-1350 99-1350Q166-1350 254-1342Q307-1338 348-1323Q384-1310 384-1288Q384-1284 379-1272L332-1268Q316-1280 273-1280L263-1274Q269-1256 269-1165Q269-1084 266-922Q263-759 263-678Q263-593 270-454Q277-314 277-229L276-203Q275-188 275-166Q275-118 281-109L279-104Q279-84 324-84Q341-84 354-85Q367-86 384-86Q445-86 445-57Q445-39 432-27.50Q419-16 400-16Q386-16 366-20Q344-23 332-23Q318-23 294-12Q272 0 259 0Z"/><path id="s0:amaticsc-regular:438" d="M283 31Q276 31 266 23Q256 15 253 8Q273-43 273-350Q273-417 266-521L257-666L244-692L250-717Q239-746 213.50-813Q188-880 163-950L141-1011Q133-1033 106.50-1108Q80-1183 67-1230Q52-1281 50-1307L78-1329Q98-1326 138-1199Q165-1114 202-991L217-943Q255-816 271-811L279-848L275-858Q289-875 315-1004Q340-1136 367-1246Q396-1360 420-1360Q430-1360 438.50-1354Q447-1348 447-1339Q447-1308 390-1119L384-1097Q368-1042 356.50-1001Q345-960 334-910Q310-810 310-723Q320-699 320-688Q320-678 314-660Q308-641 308-629Q308-602 316-536Q324-470 324-442Q324-352 325-280Q326-208 326-117L326-108Q326 31 283 31Z"/><path id="s0:amaticsc-regular:550" d="M145 8Q127 8 113.50-7.50Q100-23 100-41Q100-61 116.50-78.50Q133-96 153-96Q171-96 186.50-78.50Q202-61 202-43Q202 8 145 8Z"/><path id="s0:amaticsc-regular:437" d="M149 6Q111 6 111-18Q111-118 168-337Q225-556 225-659Q225-694 198-834Q171-974 140-1103Q109-1232 96-1247L97-1255Q98-1258 98-1262Q98-1275 89-1291Q80-1308 80-1315Q80-1323 93-1329Q106-1335 117-1335Q133-1335 144-1311Q155-1287 159-1259L162-1212Q190-1137 214-1008Q239-874 256-817Q268-842 288.50-978Q309-1114 313-1180Q326-1345 340-1350L357-1353L373-1356L391-1331Q358-1282 358-1151Q358-1144 359-1139Q360-1133 360-1126L358-1124Q352-1060 318-900Q283-734 283-645Q283-612 336-372Q389-132 405-92Q406-90 415-75Q430-50 430-33Q430-20 421-12Q412-4 399-4Q385-4 373-10L335-165Q285-368 258-508Q235-473 213-294Q190-112 176-70Q180-63 180-45Q180-24 172.50-9Q165 6 149 6Z"/><path id="s0:amaticsc-regular:259" d="M348 33Q335 25 300 15Q261 3 233-20Q205-43 180-89Q138-169 129-323Q125-370 125-446L125-680Q125-760 126.50-805.50Q128-851 134-937Q140-1031 152.50-1094Q165-1157 191-1220Q217-1285 254-1313Q273-1327 310-1342Q342-1354 361-1364L443-1364L449-1363Q451-1362 454-1362Q463-1359 465-1359Q473-1355 474-1354Q479-1349 480-1346Q482-1338 482-1333L455-1303L369-1303Q329-1303 298-1265.50Q267-1228 249-1170Q234-1120 223.50-1050Q213-980 210-927Q207-879 207-838L203-827Q203-743 199-620Q195-497 195-414Q195-366 197.50-330Q200-294 206-248Q212-203 227-168.50Q242-134 266-100Q289-68 326-51.50Q363-35 412-35Q442-35 463-53Q494-53 494-31Q494-16 468 3.50Q442 23 416 33L348 33Z"/><path id="s0:amaticsc-regular:72" d="M228 4Q195 4 195-49L195-201L189-326Q169-659 169-819Q169-860 162.50-1026.50Q156-1193 148-1355L140-1512L140-1525Q140-1540 160-1545Q177-1549 231-1549L277-1549Q300-1548 333-1548Q349-1548 358-1534Q367-1520 367-1501Q367-1481 329-1481L282-1482L229-1483Q213-1483 208.50-1476.50Q204-1470 204-1443Q204-1421 219-1145Q234-868 234-844Q257-844 303-856Q350-868 372-868Q384-868 394-854.50Q404-841 404-827Q404-812 385.50-804Q367-796 346.50-793Q326-790 277-786Q234-782 234-762Q234-652 254-417Q273-193 273-72L267-61Q273-46 273-34Q273 4 228 4Z"/><path id="s0:amaticsc-regular:545" d="M116 179Q104 179 97 172.50Q90 166 90 156Q90 149 93 143Q125 115 149 91Q183 57 194 29Q200 13 200-6Q168-13 154.50-34.50Q141-56 141-96Q141-128 163-144Q185-160 218-160Q308-160 308-78Q308-44 285 3Q262 50 224.50 95.50Q187 141 144 170Q129 179 116 179Z"/></defs><g id="line-0"><use x="0" y="1830.5" xlink:href="#s0:amaticsc-regular:179"/><use x="654" y="1830.5" xlink:href="#s0:amaticsc-regular:303"/><use x="1324" y="1830.5" xlink:href="#s0:amaticsc-regular:272"/><use x="1848" y="1830.5" xlink:href="#s0:amaticsc-regular:3"/><use x="2198" y="1830.5" xlink:href="#s0:amaticsc-regular:51"/><use x="2707" y="1830.5" xlink:href="#s0:amaticsc-regular:409"/><use x="3457" y="1830.5" xlink:href="#s0:amaticsc-regular:389"/><use x="4050" y="1830.5" xlink:href="#s0:amaticsc-regular:352"/><use x="4759" y="1830.5" xlink:href="#s0:amaticsc-regular:385"/><use x="5298" y="1830.5" xlink:href="#s0:amaticsc-regular:272"/><use x="5822" y="1830.5" xlink:href="#s0:amaticsc-regular:227"/><use x="6464" y="1830.5" xlink:href="#s0:amaticsc-regular:341"/><use x="7407" y="1830.5" xlink:href="#s0:amaticsc-regular:3"/><use x="7757" y="1830.5" xlink:href="#s0:amaticsc-regular:332"/><use x="8266" y="1830.5" xlink:href="#s0:amaticsc-regular:227"/><use x="8908" y="1830.5" xlink:href="#s0:amaticsc-regular:341"/><use x="9851" y="1830.5" xlink:href="#s0:amaticsc-regular:296"/><use x="10545" y="1830.5" xlink:href="#s0:amaticsc-regular:409"/><use x="11295" y="1830.5" xlink:href="#s0:amaticsc-regular:227"/><use x="11937" y="1830.5" xlink:href="#s0:amaticsc-regular:296"/><use x="12631" y="1830.5" xlink:href="#s0:amaticsc-regular:272"/><use x="13155" y="1830.5" xlink:href="#s0:amaticsc-regular:395"/><use x="13659" y="1830.5" xlink:href="#s0:amaticsc-regular:3"/><use x="14009" y="1830.5" xlink:href="#s0:amaticsc-regular:227"/><use x="14651" y="1830.5" xlink:href="#s0:amaticsc-regular:389"/><use x="15244" y="1830.5" xlink:href="#s0:amaticsc-regular:272"/><use x="15768" y="1830.5" xlink:href="#s0:amaticsc-regular:3"/><use x="16118" y="1830.5" xlink:href="#s0:amaticsc-regular:339"/><use x="17280" y="1830.5" xlink:href="#s0:amaticsc-regular:272"/><use x="17804" y="1830.5" xlink:href="#s0:amaticsc-regular:339"/><use x="18966" y="1830.5" xlink:href="#s0:amaticsc-regular:257"/><use x="19546" y="1830.5" xlink:href="#s0:amaticsc-regular:272"/><use x="20070" y="1830.5" xlink:href="#s0:amaticsc-regular:389"/><use x="20663" y="1830.5" xlink:href="#s0:amaticsc-regular:395"/><use x="21167" y="1830.5" xlink:href="#s0:amaticsc-regular:3"/><use x="21517" y="1830.5" xlink:href="#s0:amaticsc-regular:352"/><use x="22226" y="1830.5" xlink:href="#s0:amaticsc-regular:294"/><use x="22784" y="1830.5" xlink:href="#s0:amaticsc-regular:3"/><use x="23134" y="1830.5" xlink:href="#s0:amaticsc-regular:403"/><use x="23743" y="1830.5" xlink:href="#s0:amaticsc-regular:303"/><use x="24413" y="1830.5" xlink:href="#s0:amaticsc-regular:272"/><use x="24937" y="1830.5" xlink:href="#s0:amaticsc-regular:3"/><use x="25287" y="1830.5" xlink:href="#s0:amaticsc-regular:395"/><use x="25791" y="1830.5" xlink:href="#s0:amaticsc-regular:227"/><use x="26433" y="1830.5" xlink:href="#s0:amaticsc-regular:339"/><use x="27595" y="1830.5" xlink:href="#s0:amaticsc-regular:272"/><use x="28119" y="1830.5" xlink:href="#s0:amaticsc-regular:3"/><use x="28469" y="1830.5" xlink:href="#s0:amaticsc-regular:294"/><use x="29027" y="1830.5" xlink:href="#s0:amaticsc-regular:227"/><use x="29669" y="1830.5" xlink:href="#s0:amaticsc-regular:339"/><use x="30831" y="1830.5" xlink:href="#s0:amaticsc-regular:307"/><use x="31316" y="1830.5" xlink:href="#s0:amaticsc-regular:332"/><use x="31825" y="1830.5" xlink:href="#s0:amaticsc-regular:438"/><use x="32372" y="1830.5" xlink:href="#s0:amaticsc-regular:550"/></g><g id="line-1"><use x="6646.5" y="4288.1" xlink:href="#s0:amaticsc-regular:179"/><use x="7300.5" y="4288.1" xlink:href="#s0:amaticsc-regular:303"/><use x="7970.5" y="4288.1" xlink:href="#s0:amaticsc-regular:272"/><use x="8494.5" y="4288.1" xlink:href="#s0:amaticsc-regular:307"/><use x="8979.5" y="4288.1" xlink:href="#s0:amaticsc-regular:389"/><use x="9572.5" y="4288.1" xlink:href="#s0:amaticsc-regular:3"/><use x="9922.5" y="4288.1" xlink:href="#s0:amaticsc-regular:395"/><use x="10426.5" y="4288.1" xlink:href="#s0:amaticsc-regular:272"/><use x="10950.5" y="4288.1" xlink:href="#s0:amaticsc-regular:385"/><use x="11489.5" y="4288.1" xlink:href="#s0:amaticsc-regular:227"/><use x="12131.5" y="4288.1" xlink:href="#s0:amaticsc-regular:389"/><use x="12724.5" y="4288.1" xlink:href="#s0:amaticsc-regular:227"/><use x="13366.5" y="4288.1" xlink:href="#s0:amaticsc-regular:403"/><use x="13975.5" y="4288.1" xlink:href="#s0:amaticsc-regular:272"/><use x="14499.5" y="4288.1" xlink:href="#s0:amaticsc-regular:3"/><use x="14849.5" y="4288.1" xlink:href="#s0:amaticsc-regular:272"/><use x="15373.5" y="4288.1" xlink:href="#s0:amaticsc-regular:437"/><use x="15883.5" y="4288.1" xlink:href="#s0:amaticsc-regular:307"/><use x="16368.5" y="4288.1" xlink:href="#s0:amaticsc-regular:395"/><use x="16872.5" y="4288.1" xlink:href="#s0:amaticsc-regular:403"/><use x="17481.5" y="4288.1" xlink:href="#s0:amaticsc-regular:272"/><use x="18005.5" y="4288.1" xlink:href="#s0:amaticsc-regular:341"/><use x="18948.5" y="4288.1" xlink:href="#s0:amaticsc-regular:259"/><use x="19532.5" y="4288.1" xlink:href="#s0:amaticsc-regular:272"/><use x="20056.5" y="4288.1" xlink:href="#s0:amaticsc-regular:3"/><use x="20406.5" y="4288.1" xlink:href="#s0:amaticsc-regular:307"/><use x="20891.5" y="4288.1" xlink:href="#s0:amaticsc-regular:395"/><use x="21395.5" y="4288.1" xlink:href="#s0:amaticsc-regular:3"/><use x="21745.5" y="4288.1" xlink:href="#s0:amaticsc-regular:227"/><use x="22387.5" y="4288.1" xlink:href="#s0:amaticsc-regular:3"/><use x="22737.5" y="4288.1" xlink:href="#s0:amaticsc-regular:339"/><use x="23899.5" y="4288.1" xlink:href="#s0:amaticsc-regular:438"/><use x="24446.5" y="4288.1" xlink:href="#s0:amaticsc-regular:403"/><use x="25055.5" y="4288.1" xlink:href="#s0:amaticsc-regular:303"/><use x="25725.5" y="4288.1" xlink:href="#s0:amaticsc-regular:550"/></g><g id="line-2"><use x="7756" y="6745.7" xlink:href="#s0:amaticsc-regular:72"/><use x="8280" y="6745.7" xlink:href="#s0:amaticsc-regular:352"/><use x="8989" y="6745.7" xlink:href="#s0:amaticsc-regular:389"/><use x="9582" y="6745.7" xlink:href="#s0:amaticsc-regular:3"/><use x="9932" y="6745.7" xlink:href="#s0:amaticsc-regular:395"/><use x="10436" y="6745.7" xlink:href="#s0:amaticsc-regular:259"/><use x="11020" y="6745.7" xlink:href="#s0:amaticsc-regular:307"/><use x="11505" y="6745.7" xlink:href="#s0:amaticsc-regular:272"/><use x="12029" y="6745.7" xlink:href="#s0:amaticsc-regular:341"/><use x="12972" y="6745.7" xlink:href="#s0:amaticsc-regular:259"/><use x="13556" y="6745.7" xlink:href="#s0:amaticsc-regular:272"/><use x="14080" y="6745.7" xlink:href="#s0:amaticsc-regular:545"/><use x="14488" y="6745.7" xlink:href="#s0:amaticsc-regular:3"/><use x="14838" y="6745.7" xlink:href="#s0:amaticsc-regular:339"/><use x="16000" y="6745.7" xlink:href="#s0:amaticsc-regular:409"/><use x="16750" y="6745.7" xlink:href="#s0:amaticsc-regular:395"/><use x="17254" y="6745.7" xlink:href="#s0:amaticsc-regular:307"/><use x="17739" y="6745.7" xlink:href="#s0:amaticsc-regular:259"/><use x="18323" y="6745.7" xlink:href="#s0:amaticsc-regular:545"/><use x="18731" y="6745.7" xlink:href="#s0:amaticsc-regular:3"/><use x="19081" y="6745.7" xlink:href="#s0:amaticsc-regular:395"/><use x="19585" y="6745.7" xlink:href="#s0:amaticsc-regular:385"/><use x="20124" y="6745.7" xlink:href="#s0:amaticsc-regular:352"/><use x="20833" y="6745.7" xlink:href="#s0:amaticsc-regular:389"/><use x="21426" y="6745.7" xlink:href="#s0:amaticsc-regular:403"/><use x="22035" y="6745.7" xlink:href="#s0:amaticsc-regular:545"/><use x="22443" y="6745.7" xlink:href="#s0:amaticsc-regular:3"/><use x="22793" y="6745.7" xlink:href="#s0:amaticsc-regular:272"/><use x="23317" y="6745.7" xlink:href="#s0:amaticsc-regular:403"/><use x="23926" y="6745.7" xlink:href="#s0:amaticsc-regular:259"/><use x="24510" y="6745.7" xlink:href="#s0:amaticsc-regular:545"/></g></svg>