<svg xmlns="http://www.w3.org/2000/svg" xmlns:xlink="http://www.w3.org/1999/xlink" width="389" height="85" viewBox="0 0 33237 7246.7"><defs><path id="s1:amaticsc-bold:179" d="M277 14Q245 14 228-16.50Q211-47 211-89Q211-136 219-253Q227-370 227-416Q227-514 213-735Q199-956 199-1054L201-1132Q202-1173 202-1233Q202-1382 183-1424L130-1418Q88-1413 72-1413Q45-1413 25-1429Q5-1445 5-1469Q5-1493 54-1511Q128-1537 296-1547Q349-1550 381-1550Q407-1550 427-1533Q447-1516 447-1492Q447-1468 429.50-1453Q412-1438 385-1438L348-1440L312-1442Q296-1442 291-1441Q305-1318 305-1189L303-1058L301-925Q301-845 310-690Q319-536 319-454Q319-392 328-270Q336-140 336-86Q336 14 277 14Z"/><path id="s1:amaticsc-bold:303" d="M486 0Q416 0 416-337L417-426Q418-435 418-455L419-548L419-556Q419-567 420-575Q422-607 422-615Q422-618 416-625Q410-631 410-634L410-636Q395-632 373-632Q351-632 307-641Q267-649 241-651L241-416Q241-361 247-248Q253-136 253-79Q253-48 237.50-26.50Q222-5 195-5Q154-5 139-80Q123-151 123-283Q123-340 126-448Q129-555 129-595Q129-615 130-630L130-659Q130-690 126-702L126-712L129-751L134-832Q134-919 127-1063Q120-1207 120-1294Q120-1318 137-1336.50Q154-1355 178-1355Q243-1355 243-1233Q243-1129 239-978Q235-826 235-722Q271-712 347-712L421-712Q426-722 426-738Q426-843 413-1029Q399-1230 399-1320Q399-1343 416.50-1358.50Q434-1374 458-1374Q474-1374 499-1363Q517-1356 518-1356Q518-1104 538-579L557-62Q557-34 536-17Q515 0 486 0Z"/><path id="s1:amaticsc-bold:272" d="M220 27Q192 27 170.50 8.50Q149-10 148-36L148-90Q148-112 147-131L145-174Q145-207 140-305Q135-402 135-436Q135-549 142-735Q149-921 149-1034Q149-1056 144-1121Q138-1178 138-1207Q138-1352 224-1352Q263-1352 322.50-1339.50Q382-1327 425.50-1306.50Q469-1286 469-1261Q469-1240 452-1223.50Q435-1207 409-1197Q315-1228 254-1236Q257-1193 257-1148Q257-1088 253-1001Q248-893 248-854L254-822L287-824Q304-825 327-825Q426-825 426-769Q426-747 407.50-730.50Q389-714 361-714Q331-714 303-718L251-718Q257-640 257-563Q257-489 253-378Q248-240 248-192Q248-77 252-77L319-80L403-82Q481-82 481-32Q481-3 455.50 12Q430 27 393 27L220 27Z"/><path id="s1:amaticsc-bold:3" d=""/><path id="s1:amaticsc-bold:51" d="M240 12Q215 12 201.50 10.50Q188 9 172 3Q138-9 138-55L138-1245Q138-1277 124-1349Q110-1421 110-1454L110-1461Q145-1517 161-1533Q186-1533 237-1542Q288-1551 313-1551Q346-1551 376.50-1531.50Q407-1512 407-1484Q407-1423 314-1423Q298-1423 285-1424Q272-1425 255-1425Q238-1425 233-1424Q233-1375 241-1255Q249-1135 249-1086Q249-1054 244-967Q239-879 239-852Q238-852 269-859Q308-870 335-870Q359-870 377-853Q395-836 395-813Q395-787 379.50-768.50Q364-750 341-750Q329-750 318-751Q306-752 290-752Q260-752 248-737L248-105L362-111Q479-111 479-57L479-50Q466-24 433.50-8.50Q401 7 371 10Q337 12 304 12L240 12Z"/><path id="s1:amaticsc-bold:409" d="M344 31Q295 31 256 9Q217-13 193-53Q168-95 152-141.50Q136-188 128-247Q114-350 114-473Q109-718 109-1013Q109-1084 104-1212L100-1306Q119-1349 144-1349Q168-1349 187-1312Q206-1275 206-1232L206-675Q206-602 221-458Q235-309 235-241Q235-91 365-91Q511-91 511-1192L511-1307L511-1325Q510-1332 510-1341Q510-1366 522-1377.50Q534-1389 566-1389Q592-1389 608-1373.50Q624-1358 627-1338Q629-1314 629-1290Q629-1250 622-1186Q615-1122 615-1084Q615-1050 611-999Q606-936 606-913Q606-903 607-896Q608-888 608-878Q608 31 344 31Z"/><path id="s1:amaticsc-bold:389" d="M483 35Q440 35 401-64Q362-159 337-282L323-351Q266-642 248-686L223-686Q223-626 222-577Q221-528 221-464Q221-193 260-37L237 18L180 18L153-12L155-149Q155-322 138-708Q120-1083 120-1268Q120-1365 188-1365Q260-1365 317.50-1339.50Q375-1314 408-1265.50Q441-1217 441-1149L441-1005Q441-976 430-937Q419-898 407-870L368-796L336-736L375-541Q403-388 430-288.50Q457-189 495-107L508-81Q519-60 524-45.50Q529-31 529-17Q529 5 516 20Q503 35 483 35M232-787Q262-803 286.50-857Q311-911 325-978.50Q339-1046 339-1098Q339-1136 336-1162.50Q333-1189 324-1221Q314-1253 290.50-1270.50Q267-1288 231-1289L228-1277Q224-1266 224-1260Q224-1158 228-1018Q232-877 232-787Z"/><path id="s1:amaticsc-bold:352" d="M365 38Q310 38 265 5Q220-28 193-87Q135-208 118-359Q101-499 101-626Q101-651 102-667Q103-683 103-704Q103-714 100-714L100-751Q100-767 102-839Q102-871 103-894Q104-949 107.50-992Q111-1035 119-1104Q125-1160 136-1203.50Q147-1247 165-1294Q180-1335 203-1356.50Q226-1378 254-1378Q336-1378 402-1348Q468-1318 512-1265Q553-1214 581.50-1140Q610-1066 622-980Q634-896 634-798L634-783L636-667L638-551Q638 38 365 38M357-47Q393-47 423.50-76.50Q454-106 472-158Q508-261 519-382Q528-490 528-564Q528-651 515-804Q501-969 501-1041L501-1077Q499-1127 477-1171.50Q455-1216 417-1242.50Q379-1269 332-1269Q262-1269 239-1190Q228-1153 224-1115.50Q220-1078 220-1027Q220-988 221-961Q222-934 222-906Q222-881 217-811Q212-741 212-717Q212-643 220-498Q228-344 260-199Q275-128 300.50-87.50Q326-47 357-47Z"/><path id="s1:amaticsc-bold:385" d="M169 14Q144-96 144-287Q144-362 148-470Q152-578 152-652Q140-679 140-702L140-709Q160-751 160-885L162-979Q163-1023 163-1080Q163-1207 147-1270Q153-1299 167.50-1320.50Q182-1342 202-1342L292-1342Q350-1342 393-1316Q436-1290 458-1244Q500-1156 500-1044Q500-963 497-915Q495-881 491-860.50Q487-840 478-807Q470-780 459.50-762.50Q449-745 429-721Q412-700 389.50-685Q367-670 334-655Q303-640 265-628L265-409Q265-353 273-215Q281-77 281-21Q281 3 260 21Q239 39 212 39L169 14M266-713Q388-730 388-1059Q388-1093 386.50-1110.50Q385-1128 380-1151Q374-1176 363.50-1191Q353-1206 333-1217Q313-1228 284-1228Q284-1231 262-1231L262-1115L264-900L266-716L266-713Z"/><path id="s1:amaticsc-bold:227" d="M528 19Q482 19 459.50 4Q437-11 437-49Q437-114 415-258L407-302L205-332Q188-273 171-142Q158-41 132-9Q115 11 90 11Q65 11 45-5Q25-21 25-44Q25-47 28-54L30-62Q167-591 235-1100Q239-1144 242-1183Q247-1259 255-1304.50Q263-1350 279-1373L348-1373Q378-1373 398-1359.50Q418-1346 418-1321Q418-1166 460-858Q501-547 501-416Q501-399 512-353Q523-307 523-290Q523-268 543-168Q562-73 562-41L562-39Q562 6 528 19M394-375Q388-405 388-451Q388-548 380-654.50Q372-761 355-922Q341-1043 333-1134Q240-620 213-408Q247-386 394-375Z"/><path id="s1:amaticsc-bold:341" d="M685 6Q659 6 647-7.50Q635-21 628-53Q621-82 616-93L617-97L617-102Q617-149 549-355Q481-561 392.50-799Q304-1037 257-1145L257-114Q257-114 265-100Q278-79 278-66Q278-40 259.50-21Q241-2 216-2Q149-2 149-127L147-478L145-829Q145-893 151-1020Q157-1148 157-1211Q157-1307 232-1362L232-1349Q240-1354 247-1354Q295-1354 367-1189Q423-1060 471.50-907Q520-754 583-531L613-426Q669-228 684-189Q725-623 725-1228Q725-1242 724-1255L722-1283Q722-1344 773-1344Q801-1344 816-1321Q831-1298 831-1264L831-1109Q829-928 819.50-680Q810-432 793.50-237.50Q777-43 757-11Q700 6 685 6Z"/><path id="s1:amaticsc-bold:332" d="M441 33Q366 9 258 9Q226 28 188 28Q165 28 147.50 7Q130-14 130-39Q130-202 143-497Q156-790 156-954L156-969Q144-1097 144-1161Q144-1355 215-1355Q236-1355 251.50-1340Q267-1325 267-1304Q267-1275 260-1226Q253-1177 253-1148Q253-1066 256-902Q259-739 259-656Q247-628 247-570L247-545Q247-478 243-383Q239-288 239-219Q239-78 308-78L346-80Q365-81 393-81Q503-81 503-21Q503 0 484.50 15Q466 30 441 33Z"/><path id="s1:amaticsc-bold:296" d="M392 16Q335 16 287-5.50Q239-27 207-61Q180-90 158.50-143.50Q137-197 124-252Q114-293 108-365.50Q102-438 101-491Q100-520 100-611L100-692Q100-810 105-887Q108-941 114-983.50Q120-1026 131-1081Q141-1131 156-1168Q171-1205 195-1243Q218-1279 247-1302.50Q276-1326 316-1340Q356-1354 402-1354Q489-1354 489-1302Q489-1279 469.50-1263Q450-1247 424-1247Q415-1247 402-1250L381-1252Q346-1252 318.50-1214.50Q291-1177 274-1112Q240-980 230-835Q222-717 222-629Q222-534 228-438Q232-378 239.50-334.50Q247-291 262-242Q276-193 296-162.50Q316-132 347-112Q379-91 417-91Q516-91 516-417L516-511Q500-519 468-519L450-519Q441-518 428-518Q357-518 357-565Q357-593 376.50-608.50Q396-624 427-624L427-623L455-623Q639-623 639-560Q639-537 628-485Q617-433 617-411Q617-385 622-303Q627-221 627-194Q627-129 595-81.50Q563-34 509.50-9Q456 16 392 16Z"/><path id="s1:amaticsc-bold:395" d="M162 28Q124 22 99 1.50Q74-19 70-51L93-86Q123-80 131-78Q159-71 178-71Q216-71 245-104Q274-137 289-190Q316-287 316-367Q316-435 292.50-508.50Q269-582 230-651L211-684Q169-756 142-809.50Q115-863 96-925Q71-1003 71-1086Q71-1179 113-1273Q134-1322 171.50-1351.50Q209-1381 256-1381Q294-1381 325.50-1357.50Q357-1334 357-1300Q357-1282 342-1271.50Q327-1261 307-1261Q285-1261 264-1273Q241-1272 222-1250Q203-1228 192-1193Q171-1126 171-1075Q171-1016 188.50-955Q206-894 235-845Q310-712 353-628Q381-572 398.50-496Q416-420 416-342Q416-218 359-105Q330-47 278-12.50Q226 22 162 23L162 28Z"/><path id="s1:amaticsc-bold:339" d="M950 107Q886 107 886-21Q886-93 887-152L887-283Q887-375 872-550Q857-726 857-806Q857-857 861-933Q865-1008 865-1059Q856-1031 796-776Q731-504 674-317Q612-114 573-114Q534-114 511-138Q488-162 488-202Q488-262 452.50-424.50Q417-587 368-770.50Q319-954 282-1065L270-834Q261-675 256.50-571Q252-467 248-347Q243-189 243-89L245-58Q246-44 246-28Q246 7 231 23.50Q216 40 178 40Q157 40 138.50 25.50Q120 11 120-9Q120-211 152-635Q183-1045 183-1261Q171-1281 171-1301Q171-1326 194.50-1338.50Q218-1351 250-1351Q277-1351 348-1158.50Q419-966 491-722.50Q563-479 584-370Q595-406 622-522Q693-827 753-1041Q792-1179 829-1262Q868-1348 898-1348Q927-1348 950-1332.50Q973-1317 973-1292Q973-1133 986-850Q999-567 999-423L997-315Q994-243 994-207L994-206Q994-188 1006-61L1010-20Q1019 3 1019 19Q1019 53 999.50 80Q980 107 950 107Z"/><path id="s1:amaticsc-bold:257" d="M184 20Q140 20 129-18Q123-35 121.50-49Q120-63 120-88Q120-167 130-306Q140-445 140-524Q140-607 145-849Q149-1041 149-1173Q149-1188 144-1228L138-1279L138-1290Q138-1336 152.50-1359.50Q167-1383 205-1383Q239-1383 280-1369.50Q321-1356 357.50-1331Q394-1306 413-1274Q474-1173 474-1028Q474-917 455-843Q436-769 391-705Q446-652 466-569.50Q486-487 486-360Q486-233 443-143Q394-40 300-1Q248 20 184 20M249-763Q357-766 357-1012Q357-1278 273-1288Q249-1236 249-1068L249-763M238-84Q304-99 340-162.50Q376-226 376-308Q376-354 374.50-384.50Q373-415 366-458Q358-508 345-543.50Q332-579 309-607Q285-636 252-643Q243-511 243-333Q243-304 240-256Q236-212 236-186Q236-183 237-181Q238-179 238-176L238-84Z"/><path id="s1:amaticsc-bold:294" d="M168 18Q135 18 95-13Q112-204 121-534Q128-858 135-975L135-1025Q143-1183 143-1303Q143-1331 166.50-1347.50Q190-1364 222-1364Q293-1364 375-1352Q428-1344 459.50-1325.50Q491-1307 491-1281Q491-1223 387-1223Q345-1243 280-1243L256-1243L256-1219Q256-1153 247-1016Q237-885 237-808L237-753L254-754L275-754Q374-754 374-700Q374-674 352.50-657Q331-640 302-640Q259-640 221-652L221-72Q221 18 168 18Z"/><path id="s1:amaticsc-bold:403" d="M239-33L237-112L235-190L238-260Q230-284 206-712.50Q182-1141 179-1255Q61-1258 26-1281Q5-1295 5-1316Q5-1334 26-1347Q47-1360 70-1360Q116-1360 209-1351Q298-1341 348-1341Q357-1341 364-1342L381-1342Q445-1342 445-1293Q445-1269 424.50-1253Q404-1237 377-1237Q356-1237 324-1244L283-1251L281-1242L279-1230Q279-1030 313-649Q347-268 347-67Q347-43 325.50-24.50Q304-6 277-6L239-33Z"/><path id="s1:amaticsc-bold:307" d="M227-3Q50-3 50-64Q50-113 112-113Q126-113 136-112L155-110Q171-110 178-120.50Q185-131 185-158Q185-208 182.50-235Q180-262 180-267Q171-361 166-442Q147-749 147-915L149-1020L151-1124Q151-1185 146-1238Q119-1229 98-1229Q50-1229 50-1278Q50-1302 80-1320.50Q110-1339 158-1348Q241-1363 303-1363Q327-1363 345-1346.50Q363-1330 363-1307Q363-1285 349.50-1268.50Q336-1252 315-1252Q303-1252 295-1253L279-1253Q258-1253 249-1244Q240-1235 240-1211Q240-1003 265-612Q273-486 281-392Q285-343 287.50-300.50Q290-258 290-203L290-124Q311-127 332-127Q417-127 417-55L417-43L366-8L312-6Q263-3 227-3Z"/><path id="s1:amaticsc-bold:438" d="M293 28Q255 28 236-17Q259-63 259-364Q259-415 248-520Q236-635 235-664L235-717Q214-768 159.50-908.50Q105-1049 73-1141Q35-1252 35-1288L35-1299L81-1333Q116-1331 155-1243Q178-1190 203.50-1108.50Q229-1027 246.50-961.50Q264-896 269-877Q278-903 301-1030Q324-1157 357-1261Q389-1362 429-1362Q448-1362 463.50-1349.50Q479-1337 479-1319Q479-1215 421-1023Q361-824 360-726L360-109Q360 28 293 28Z"/><path id="s1:amaticsc-bold:550" d="M281 32Q254 32 233 9.50Q212-13 212-41Q212-72 235-96Q258-120 289-120Q318-120 340-96.50Q362-73 362-43Q362-10 339.50 11Q317 32 281 32Z"/><path id="s1:amaticsc-bold:437" d="M142 7Q117 7 98.50-6Q80-19 80-40Q80-107 97-185Q114-263 148-389L167-461Q196-572 196-660Q196-698 170.50-827Q145-956 114.50-1077Q84-1198 69-1219L69-1241Q50-1260 50-1292Q50-1311 68.50-1322.50Q87-1334 111-1334Q133-1334 152-1298Q169-1266 183-1215.50Q197-1165 214-1087L219-1062Q230-1007 236-971L249-894Q251-908 258-945Q259-952 260-957Q261-962 262-966Q272-1021 275-1050Q283-1116 283-1158L283-1193Q282-1208 282-1225Q282-1282 301-1312.50Q320-1343 374-1357L412-1309Q397-1286 388-1254Q379-1222 378-1197Q377-1182 377-1133L377-1109Q353-1045 326-882Q299-719 299-646Q299-586 325-491Q351-396 401-244L410-216Q447-105 447-54Q447-33 430.50-18Q414-3 392-3Q375-3 358.50-22Q342-41 329-75Q300-150 284-231Q263-336 255-384L246-433Q241-403 228-280Q215-163 194-93Q195-88 195-69Q195 7 142 7Z"/><path id="s1:amaticsc-bold:259" d="M399 29Q355 29 304 15.50Q253 2 227-14Q91-102 91-495L91-550Q90-577 90-615L90-664Q90-762 92-817Q94-872 100-951Q106-1030 119-1081Q132-1132 159-1195Q184-1253 219.50-1286Q255-1319 313-1342Q367-1364 440-1364Q471-1364 487-1349.50Q503-1335 503-1312Q503-1291 490-1275Q477-1259 459-1258L363-1258Q323-1258 292-1206.50Q261-1155 247-1073Q221-921 221-827L221-817Q221-736 217-620Q212-473 212-422Q212-352 219-295Q224-257 231.50-228.50Q239-200 254-172Q268-142 288-123Q308-104 338-92Q367-79 406-79Q431-79 450-97Q476-97 494-85.50Q512-74 512-52Q512 29 399 29Z"/><path id="s1:amaticsc-bold:72" d="M231 2Q172 2 172-129Q172-268 162-585.50Q152-903 137.50-1161.50Q123-1420 110-1440Q110-1470 122.50-1492.50Q135-1515 155-1528Q172-1539 201.50-1545.50Q231-1552 255-1553Q269-1554 308-1554Q354-1554 374.50-1539Q395-1524 395-1484Q395-1463 378.50-1451.50Q362-1440 338-1440L318-1441Q306-1442 288-1442Q231-1442 231-1419Q231-1324 246-1141Q260-964 262-869Q264-870 307-880.50Q350-891 376-891Q399-891 415.50-871.50Q432-852 432-828Q432-799 406-787Q389-779 377-774.50Q365-770 347-768Q314-763 285-762L262-761Q262-656 282-428Q301-212 301-94L299-87L296-81Q300-70 300-56Q300-30 281-14Q262 2 231 2Z"/><path id="s1:amaticsc-bold:545" d="M186 202Q173 202 164.50 194.50Q156 187 156 175Q156 151 181 130Q205 103 222 48Q239-7 247-64Q254-116 274.50-150.50Q295-185 327-185Q398-185 398-77Q398-28 367 36.50Q336 101 286 151Q235 202 186 202Z"/></defs><g id="line-0"><use x="0" y="1830.5" xlink:href="#s1:amaticsc-bold:179"/><use x="537" y="1830.5" xlink:href="#s1:amaticsc-bold:303"/><use x="1214" y="1830.5" xlink:href="#s1:amaticsc-bold:272"/><use x="1795" y="1830.5" xlink:href="#s1:amaticsc-bold:3"/><use x="2170" y="1830.5" xlink:href="#s1:amaticsc-bold:51"/><use x="2739" y="1830.5" xlink:href="#s1:amaticsc-bold:409"/><use x="3478" y="1830.5" xlink:href="#s1:amaticsc-bold:389"/><use x="4082" y="1830.5" xlink:href="#s1:amaticsc-bold:352"/><use x="4820" y="1830.5" xlink:href="#s1:amaticsc-bold:385"/><use x="5395" y="1830.5" xlink:href="#s1:amaticsc-bold:272"/><use x="5976" y="1830.5" xlink:href="#s1:amaticsc-bold:227"/><use x="6588" y="1830.5" xlink:href="#s1:amaticsc-bold:341"/><use x="7569" y="1830.5" xlink:href="#s1:amaticsc-bold:3"/><use x="7944" y="1830.5" xlink:href="#s1:amaticsc-bold:332"/><use x="8492" y="1830.5" xlink:href="#s1:amaticsc-bold:227"/><use x="9104" y="1830.5" xlink:href="#s1:amaticsc-bold:341"/><use x="10085" y="1830.5" xlink:href="#s1:amaticsc-bold:296"/><use x="10794" y="1830.5" xlink:href="#s1:amaticsc-bold:409"/><use x="11533" y="1830.5" xlink:href="#s1:amaticsc-bold:227"/><use x="12145" y="1830.5" xlink:href="#s1:amaticsc-bold:296"/><use x="12854" y="1830.5" xlink:href="#s1:amaticsc-bold:272"/><use x="13435" y="1830.5" xlink:href="#s1:amaticsc-bold:395"/><use x="13941" y="1830.5" xlink:href="#s1:amaticsc-bold:3"/><use x="14316" y="1830.5" xlink:href="#s1:amaticsc-bold:227"/><use x="14928" y="1830.5" xlink:href="#s1:amaticsc-bold:389"/><use x="15532" y="1830.5" xlink:href="#s1:amaticsc-bold:272"/><use x="16113" y="1830.5" xlink:href="#s1:amaticsc-bold:3"/><use x="16488" y="1830.5" xlink:href="#s1:amaticsc-bold:339"/><use x="17637" y="1830.5" xlink:href="#s1:amaticsc-bold:272"/><use x="18218" y="1830.5" xlink:href="#s1:amaticsc-bold:339"/><use x="19367" y="1830.5" xlink:href="#s1:amaticsc-bold:257"/><use x="19953" y="1830.5" xlink:href="#s1:amaticsc-bold:272"/><use x="20534" y="1830.5" xlink:href="#s1:amaticsc-bold:389"/><use x="21138" y="1830.5" xlink:href="#s1:amaticsc-bold:395"/><use x="21644" y="1830.5" xlink:href="#s1:amaticsc-bold:3"/><use x="22019" y="1830.5" xlink:href="#s1:amaticsc-bold:352"/><use x="22757" y="1830.5" xlink:href="#s1:amaticsc-bold:294"/><use x="23263" y="1830.5" xlink:href="#s1:amaticsc-bold:3"/><use x="23638" y="1830.5" xlink:href="#s1:amaticsc-bold:403"/><use x="24163" y="1830.5" xlink:href="#s1:amaticsc-bold:303"/><use x="24840" y="1830.5" xlink:href="#s1:amaticsc-bold:272"/><use x="25421" y="1830.5" xlink:href="#s1:amaticsc-bold:3"/><use x="25796" y="1830.5" xlink:href="#s1:amaticsc-bold:395"/><use x="26302" y="1830.5" xlink:href="#s1:amaticsc-bold:227"/><use x="26914" y="1830.5" xlink:href="#s1:amaticsc-bold:339"/><use x="28063" y="1830.5" xlink:href="#s1:amaticsc-bold:272"/><use x="28644" y="1830.5" xlink:href="#s1:amaticsc-bold:3"/><use x="29019" y="1830.5" xlink:href="#s1:amaticsc-bold:294"/><use x="29525" y="1830.5" xlink:href="#s1:amaticsc-bold:227"/><use x="30137" y="1830.5" xlink:href="#s1:amaticsc-bold:339"/><use x="31286" y="1830.5" xlink:href="#s1:amaticsc-bold:307"/><use x="31748" y="1830.5" xlink:href="#s1:amaticsc-bold:332"/><use x="32296" y="1830.5" xlink:href="#s1:amaticsc-bold:438"/><use x="32875" y="1830.5" xlink:href="#s1:amaticsc-bold:550"/></g><g id="line-1"><use x="6873.5" y="4288.1" xlink:href="#s1:amaticsc-bold:179"/><use x="7410.5" y="4288.1" xlink:href="#s1:amaticsc-bold:303"/><use x="8087.5" y="4288.1" xlink:href="#s1:amaticsc-bold:272"/><use x="8668.5" y="4288.1" xlink:href="#s1:amaticsc-bold:307"/><use x="9130.5" y="4288.1" xlink:href="#s1:amaticsc-bold:389"/><use x="9734.5" y="4288.1" xlink:href="#s1:amaticsc-bold:3"/><use x="10109.5" y="4288.1" xlink:href="#s1:amaticsc-bold:395"/><use x="10615.5" y="4288.1" xlink:href="#s1:amaticsc-bold:272"/><use x="11196.5" y="4288.1" xlink:href="#s1:amaticsc-bold:385"/><use x="11771.5" y="4288.1" xlink:href="#s1:amaticsc-bold:227"/><use x="12383.5" y="4288.1" xlink:href="#s1:amaticsc-bold:389"/><use x="12987.5" y="4288.1" xlink:href="#s1:amaticsc-bold:227"/><use x="13599.5" y="4288.1" xlink:href="#s1:amaticsc-bold:403"/><use x="14124.5" y="4288.1" xlink:href="#s1:amaticsc-bold:272"/><use x="14705.5" y="4288.1" xlink:href="#s1:amaticsc-bold:3"/><use x="15080.5" y="4288.1" xlink:href="#s1:amaticsc-bold:272"/><use x="15661.5" y="4288.1" xlink:href="#s1:amaticsc-bold:437"/><use x="16158.5" y="4288.1" xlink:href="#s1:amaticsc-bold:307"/><use x="16620.5" y="4288.1" xlink:href="#s1:amaticsc-bold:395"/><use x="17126.5" y="4288.1" xlink:href="#s1:amaticsc-bold:403"/><use x="17651.5" y="4288.1" xlink:href="#s1:amaticsc-bold:272"/><use x="18232.5" y="4288.1" xlink:href="#s1:amaticsc-bold:341"/><use x="19213.5" y="4288.1" xlink:href="#s1:amaticsc-bold:259"/><use x="19785.5" y="4288.1" xlink:href="#s1:amaticsc-bold:272"/><use x="20366.5" y="4288.1" xlink:href="#s1:amaticsc-bold:3"/><use x="20741.5" y="4288.1" xlink:href="#s1:amaticsc-bold:307"/><use x="21203.5" y="4288.1" xlink:href="#s1:amaticsc-bold:395"/><use x="21709.5" y="4288.1" xlink:href="#s1:amaticsc-bold:3"/><use x="22084.5" y="4288.1" xlink:href="#s1:amaticsc-bold:227"/><use x="22696.5" y="4288.1" xlink:href="#s1:amaticsc-bold:3"/><use x="23071.5" y="4288.1" xlink:href="#s1:amaticsc-bold:339"/><use x="24220.5" y="4288.1" xlink:href="#s1:amaticsc-bold:438"/><use x="24799.5" y="4288.1" xlink:href="#s1:amaticsc-bold:403"/><use x="25324.5" y="4288.1" xlink:href="#s1:amaticsc-bold:303"/><use x="26001.5" y="4288.1" xlink:href="#s1:amaticsc-bold:550"/></g><g id="line-2"><use x="7728.5" y="6745.7" xlink:href="#s1:amaticsc-bold:72"/><use x="8270.5" y="6745.7" xlink:href="#s1:amaticsc-bold:352"/><use x="9008.5" y="6745.7" xlink:href="#s1:amaticsc-bold:389"/><use x="9612.5" y="6745.7" xlink:href="#s1:amaticsc-bold:3"/><use x="9987.5" y="6745.7" xlink:href="#s1:amaticsc-bold:395"/><use x="10493.5" y="6745.7" xlink:href="#s1:amaticsc-bold:259"/><use x="11065.5" y="6745.7" xlink:href="#s1:amaticsc-bold:307"/><use x="11527.5" y="6745.7" xlink:href="#s1:amaticsc-bold:272"/><use x="12108.5" y="6745.7" xlink:href="#s1:amaticsc-bold:341"/><use x="13089.5" y="6745.7" xlink:href="#s1:amaticsc-bold:259"/><use x="13661.5" y="6745.7" xlink:href="#s1:amaticsc-bold:272"/><use x="14242.5" y="6745.7" xlink:href="#s1:amaticsc-bold:545"/><use x="14805.5" y="6745.7" xlink:href="#s1:amaticsc-bold:3"/><use x="15180.5" y="6745.7" xlink:href="#s1:amaticsc-bold:339"/><use x="16329.5" y="6745.7" xlink:href="#s1:amaticsc-bold:409"/><use x="17068.5" y="6745.7" xlink:href="#s1:amaticsc-bold:395"/><use x="17574.5" y="6745.7" xlink:href="#s1:amaticsc-bold:307"/><use x="18036.5" y="6745.7" xlink:href="#s1:amaticsc-bold:259"/><use x="18608.5" y="6745.7" xlink:href="#s1:amaticsc-bold:545"/><use x="19171.5" y="6745.7" xlink:href="#s1:amaticsc-bold:3"/><use x="19546.5" y="6745.7" xlink:href="#s1:amaticsc-bold:395"/><use x="20052.5" y="6745.7" xlink:href="#s1:amaticsc-bold:385"/><use x="20627.5" y="6745.7" xlink:href="#s1:amaticsc-bold:352"/><use x="21365.5" y="6745.7" xlink:href="#s1:amaticsc-bold:389"/><use x="21969.5" y="6745.7" xlink:href="#s1:amaticsc-bold:403"/><use x="22494.5" y="6745.7" xlink:href="#s1:amaticsc-bold:545"/><use x="23057.5" y="6745.7" xlink:href="#s1:amaticsc-bold:3"/><use x="23432.5" y="6745.7" xlink:href="#s1:amaticsc-bold:272"/><use x="24013.5" y="6745.7" xlink:href="#s1:amaticsc-bold:403"/><use x="24538.5" y="6745.7" xlink:href="#s1:amaticsc-bold:259"/><use x="25110.5" y="6745.7" xlink:href="#s1:amaticsc-bold:545"/></g></svg>