<svg xmlns="http://www.w3.org/2000/svg" xmlns:xlink="http://www.w3.org/1999/xlink" width="558" height="89" viewBox="0 0 23247 3702.5" ><defs><path id="s2:anton-regular:158" d="M112 0L112-694L10-694L10-859L386-859L386-694L284-694L284 0L112 0Z"/><path id="s2:anton-regular:292" d="M35-864L215-864L215-660Q243-740 322-740Q396-740 434-693Q472-646 472-564L472 0L297 0L297-553Q297-577 286-592Q275-607 254-607Q236-607 225.50-591.50Q215-576 215-554L215 0L35 0L35-864Z"/><path id="s2:anton-regular:264" d="M240 8Q127 8 78-54Q29-116 29-239L29-533Q29-634 87-687Q145-740 249-740Q460-740 460-533L460-480Q460-400 458-350L204-350L204-208Q204-170 212-148.50Q220-127 246-127Q266-127 274.50-139Q283-151 284.50-166.50Q286-182 286-212L286-283L460-283L460-241Q460-113 410.50-52.50Q361 8 240 8M286-437L286-531Q286-610 247-610Q203-610 203-531L203-437L286-437Z"/><path id="s2:anton-regular:3" d=""/><path id="s2:anton-regular:44" d="M38 0L38-859L382-859L382-693L213-693L213-526L375-526L375-364L213-364L213-167L393-167L393 0L38 0Z"/><path id="s2:anton-regular:385" d="M176 8Q94 8 63.50-41Q33-90 33-187L33-732L209-732L209-222Q209-215 209-184.50Q209-154 218.50-141.50Q228-129 248-129Q275-129 282-151.50Q289-174 289-216L289-222L290-732L464-732L464 0L289 0L289-78Q271-32 247-12Q223 8 176 8Z"/><path id="s2:anton-regular:367" d="M35-732L210-732L210-651Q223-694 255.50-717.50Q288-741 336-741L336-595Q299-595 254.50-584.50Q210-574 210-560L210 0L35 0L35-732Z"/><path id="s2:anton-regular:333" d="M248 8Q29 8 29-219L29-513Q29-617 87.50-678.50Q146-740 248-740Q350-740 408.50-678.50Q467-617 467-513L467-219Q467 8 248 8M248-127Q269-127 279-142Q289-157 289-183L289-541Q289-605 248-605Q207-605 207-541L207-183Q207-157 217-142Q227-127 248-127Z"/><path id="s2:anton-regular:364" d="M35-732L213-732L213-693Q251-740 318-740Q403-740 436.50-683Q470-626 470-525L470-254Q470-168 460-113.50Q450-59 416-25.50Q382 8 313 8Q247 8 213-29L213 146L35 146L35-732M255-128Q279-128 286-150Q293-172 293-214L293-525Q293-563 286-583Q279-603 254-603Q213-603 213-527L213-206Q213-169 221.50-148.50Q230-128 255-128Z"/><path id="s2:anton-regular:225" d="M168 8Q83 8 51.50-48.50Q20-105 20-210Q20-296 42.50-342Q65-388 105-409.50Q145-431 227-457L275-473L275-475L275-548Q275-577 263.50-592.50Q252-608 236-608Q222-608 211.50-595Q201-582 201-560L201-516L31-516L31-540Q31-648 81.50-694Q132-740 246-740Q337-740 394-692.50Q451-645 451-558L451 0L277 0L277-87Q264-42 235.50-17Q207 8 168 8M237-128Q257-128 265.50-144.50Q274-161 274-185L274-389Q235-374 216.50-351Q198-328 198-287L198-193Q198-128 237-128Z"/><path id="s2:anton-regular:325" d="M35-732L210-732L210-639Q221-684 248-712Q275-740 320-740Q394-740 429.50-694.50Q465-649 465-565L465 0L293 0L293-547Q293-571 283.50-588Q274-605 254-605Q227-605 218.50-580.50Q210-556 210-515L210 0L35 0L35-732Z"/><path id="s2:anton-regular:317" d="M35 0L35-864L213-864L213 0L35 0Z"/><path id="s2:anton-regular:286" d="M232 107Q154 107 109.50 94.50Q65 82 22 47L82-54Q146-16 209-16Q250-16 271-42Q292-68 292-113L292-153Q271-78 181-78Q106-78 70.50-129Q35-180 35-265L35-540Q35-637 67.50-688.50Q100-740 181-740Q228-740 255.50-716.50Q283-693 292-650L292-732L471-732L471-124Q471-1 414 53Q357 107 232 107M251-210Q292-210 292-284L292-545Q292-567 280-587Q268-607 250-607Q227-607 219-590.50Q211-574 211-545L211-284Q211-251 219-230.50Q227-210 251-210Z"/><path id="s2:anton-regular:373" d="M236 8Q19 8 19-212L20-270L195-270L196-184Q196-158 206-144.50Q216-131 239-131Q274-131 274-188Q274-230 257.50-254Q241-278 205-305L112-377Q64-414 43-453.50Q22-493 22-565Q22-621 51.50-660.50Q81-700 130-720Q179-740 239-740Q452-740 452-528L452-514L271-514L271-542Q271-568 262.50-586.50Q254-605 234-605Q216-605 206.50-594.50Q197-584 197-566Q197-526 228-504L336-425Q394-382 425-331.50Q456-281 456-204Q456-102 398-47Q340 8 236 8Z"/><path id="s2:anton-regular:324" d="M35-732L206-732L206-647Q218-694 247-717Q276-740 329-740Q372-740 403.50-720.50Q435-701 448-667Q470-705 497-722.50Q524-740 572-740Q658-740 691.50-687.50Q725-635 725-535L723 0L547 0L547-538Q547-609 511-609Q486-609 475-584.50Q464-560 464-526L464 0L289 0L289-538Q289-569 282.50-588Q276-607 255-607Q228-607 217-580.50Q206-554 206-517L206 0L35 0L35-732Z"/><path id="s2:anton-regular:252" d="M318 8Q246 8 215-78L215 0L35 0L35-864L215-864L215-697Q257-740 313-740Q398-740 435-689.50Q472-639 472-544L472-191Q472-101 434-46.50Q396 8 318 8M259-128Q277-128 284.50-139.50Q292-151 293.50-168.50Q295-186 295-223L295-528Q295-567 288-586Q281-605 258-605Q233-605 224-586Q215-567 215-530L215-223Q215-175 223-151.50Q231-128 259-128Z"/><path id="s2:anton-regular:285" d="M51-567L20-567L21-700L51-700L51-750Q51-868 169-868Q225-868 259-854L259-746Q249-749 243-749Q229-749 225-739Q221-729 221-709L221-700L259-700L259-565L225-565L225 0L51 0L51-567Z"/><path id="s2:anton-regular:380" d="M186 8Q117 8 91-21Q65-50 65-114L65-571L16-571L16-704L65-704L65-859L235-859L235-704L285-704L285-571L235-571L235-160Q235-141 238-132Q241-123 254-123Q264-123 273-124Q282-125 285-125L285-5Q270-1 241.50 3.50Q213 8 186 8Z"/><path id="s2:anton-regular:295" d="M34-781L34-903L209-903L209-781L34-781M34 0L34-732L209-732L209 0L34 0Z"/><path id="s2:anton-regular:433" d="M21 11L105 11Q123 11 123-4Q123-11 122-15L8-732L175-732L208-375L224-193L243-375L282-732L450-732L314 38Q307 81 285.50 101.50Q264 122 218 122L21 122L21 11Z"/><path id="s2:anton-regular:487" d="M27 0L27-146L202-146L202 0L27 0Z"/><path id="s2:anton-regular:432" d="M455 0L280 0L206-206L136 0L4 0L138-393L16-733L194-733L257-555L319-733L449-733L323-371L455 0Z"/><path id="s2:anton-regular:253" d="M255 8Q135 8 82-53Q29-114 29-240L29-466Q29-561 49.50-620.50Q70-680 118.50-710Q167-740 253-740Q347-740 406-691Q465-642 465-554L465-442L287-442L287-545Q287-574 279-589.50Q271-605 248-605Q205-605 205-544L205-189Q205-164 215.50-146.50Q226-129 247-129Q268-129 278.50-146Q289-163 288-190L287-313L465-313L465-185Q465-95 406.50-43.50Q348 8 255 8Z"/><path id="s2:anton-regular:64" d="M38 0L38-859L382-859L382-692L211-692L211-555L373-555L373-390L211-390L211 0L38 0Z"/><path id="s2:anton-regular:482" d="M57 115L89 0L27 0L27-146L209-146L209-5L160 115L57 115Z"/></defs><g id="line-0"><use x="0" y="973.5" xlink:href="#s2:anton-regular:158" /><use x="396" y="973.5" xlink:href="#s2:anton-regular:292" /><use x="901" y="973.5" xlink:href="#s2:anton-regular:264" /><use x="1389" y="973.5" xlink:href="#s2:anton-regular:3" /><use x="1623" y="973.5" xlink:href="#s2:anton-regular:44" /><use x="2035" y="973.5" xlink:href="#s2:anton-regular:385" /><use x="2534" y="973.5" xlink:href="#s2:anton-regular:367" /><use x="2878" y="973.5" xlink:href="#s2:anton-regular:333" /><use x="3375" y="973.5" xlink:href="#s2:anton-regular:364" /><use x="3875" y="973.5" xlink:href="#s2:anton-regular:264" /><use x="4363" y="973.5" xlink:href="#s2:anton-regular:225" /><use x="4846" y="973.5" xlink:href="#s2:anton-regular:325" /><use x="5345" y="973.5" xlink:href="#s2:anton-regular:3" /><use x="5579" y="973.5" xlink:href="#s2:anton-regular:317" /><use x="5827" y="973.5" xlink:href="#s2:anton-regular:225" /><use x="6310" y="973.5" xlink:href="#s2:anton-regular:325" /><use x="6809" y="973.5" xlink:href="#s2:anton-regular:286" /><use x="7313" y="973.5" xlink:href="#s2:anton-regular:385" /><use x="7812" y="973.5" xlink:href="#s2:anton-regular:225" /><use x="8295" y="973.5" xlink:href="#s2:anton-regular:286" /><use x="8799" y="973.5" xlink:href="#s2:anton-regular:264" /><use x="9287" y="973.5" xlink:href="#s2:anton-regular:373" /><use x="9762" y="973.5" xlink:href="#s2:anton-regular:3" /><use x="9996" y="973.5" xlink:href="#s2:anton-regular:225" /><use x="10479" y="973.5" xlink:href="#s2:anton-regular:367" /><use x="10823" y="973.5" xlink:href="#s2:anton-regular:264" /><use x="11311" y="973.5" xlink:href="#s2:anton-regular:3" /><use x="11545" y="973.5" xlink:href="#s2:anton-regular:324" /><use x="12303" y="973.5" xlink:href="#s2:anton-regular:264" /><use x="12791" y="973.5" xlink:href="#s2:anton-regular:324" /><use x="13549" y="973.5" xlink:href="#s2:anton-regular:252" /><use x="14050" y="973.5" xlink:href="#s2:anton-regular:264" /><use x="14538" y="973.5" xlink:href="#s2:anton-regular:367" /><use x="14882" y="973.5" xlink:href="#s2:anton-regular:373" /><use x="15357" y="973.5" xlink:href="#s2:anton-regular:3" /><use x="15591" y="973.5" xlink:href="#s2:anton-regular:333" /><use x="16088" y="973.5" xlink:href="#s2:anton-regular:285" /><use x="16368" y="973.5" xlink:href="#s2:anton-regular:3" /><use x="16602" y="973.5" xlink:href="#s2:anton-regular:380" /><use x="16907" y="973.5" xlink:href="#s2:anton-regular:292" /><use x="17412" y="973.5" xlink:href="#s2:anton-regular:264" /><use x="17900" y="973.5" xlink:href="#s2:anton-regular:3" /><use x="18134" y="973.5" xlink:href="#s2:anton-regular:373" /><use x="18609" y="973.5" xlink:href="#s2:anton-regular:225" /><use x="19092" y="973.5" xlink:href="#s2:anton-regular:324" /><use x="19850" y="973.5" xlink:href="#s2:anton-regular:264" /><use x="20338" y="973.5" xlink:href="#s2:anton-regular:3" /><use x="20572" y="973.5" xlink:href="#s2:anton-regular:285" /><use x="20852" y="973.5" xlink:href="#s2:anton-regular:225" /><use x="21335" y="973.5" xlink:href="#s2:anton-regular:324" /><use x="22093" y="973.5" xlink:href="#s2:anton-regular:295" /><use x="22336" y="973.5" xlink:href="#s2:anton-regular:317" /><use x="22584" y="973.5" xlink:href="#s2:anton-regular:433" /><use x="23045" y="973.5" xlink:href="#s2:anton-regular:487" /></g><g id="line-1"><use x="4583.5" y="2173.5" xlink:href="#s2:anton-regular:158" /><use x="4979.5" y="2173.5" xlink:href="#s2:anton-regular:292" /><use x="5484.5" y="2173.5" xlink:href="#s2:anton-regular:264" /><use x="5972.5" y="2173.5" xlink:href="#s2:anton-regular:295" /><use x="6215.5" y="2173.5" xlink:href="#s2:anton-regular:367" /><use x="6559.5" y="2173.5" xlink:href="#s2:anton-regular:3" /><use x="6793.5" y="2173.5" xlink:href="#s2:anton-regular:373" /><use x="7268.5" y="2173.5" xlink:href="#s2:anton-regular:264" /><use x="7756.5" y="2173.5" xlink:href="#s2:anton-regular:364" /><use x="8256.5" y="2173.5" xlink:href="#s2:anton-regular:225" /><use x="8739.5" y="2173.5" xlink:href="#s2:anton-regular:367" /><use x="9083.5" y="2173.5" xlink:href="#s2:anton-regular:225" /><use x="9566.5" y="2173.5" xlink:href="#s2:anton-regular:380" /><use x="9871.5" y="2173.5" xlink:href="#s2:anton-regular:264" /><use x="10359.5" y="2173.5" xlink:href="#s2:anton-regular:3" /><use x="10593.5" y="2173.5" xlink:href="#s2:anton-regular:264" /><use x="11081.5" y="2173.5" xlink:href="#s2:anton-regular:432" /><use x="11540.5" y="2173.5" xlink:href="#s2:anton-regular:295" /><use x="11783.5" y="2173.5" xlink:href="#s2:anton-regular:373" /><use x="12258.5" y="2173.5" xlink:href="#s2:anton-regular:380" /><use x="12563.5" y="2173.5" xlink:href="#s2:anton-regular:264" /><use x="13051.5" y="2173.5" xlink:href="#s2:anton-regular:325" /><use x="13550.5" y="2173.5" xlink:href="#s2:anton-regular:253" /><use x="14041.5" y="2173.5" xlink:href="#s2:anton-regular:264" /><use x="14529.5" y="2173.5" xlink:href="#s2:anton-regular:3" /><use x="14763.5" y="2173.5" xlink:href="#s2:anton-regular:295" /><use x="15006.5" y="2173.5" xlink:href="#s2:anton-regular:373" /><use x="15481.5" y="2173.5" xlink:href="#s2:anton-regular:3" /><use x="15715.5" y="2173.5" xlink:href="#s2:anton-regular:225" /><use x="16198.5" y="2173.5" xlink:href="#s2:anton-regular:3" /><use x="16432.5" y="2173.5" xlink:href="#s2:anton-regular:324" /><use x="17190.5" y="2173.5" xlink:href="#s2:anton-regular:433" /><use x="17651.5" y="2173.5" xlink:href="#s2:anton-regular:380" /><use x="17956.5" y="2173.5" xlink:href="#s2:anton-regular:292" /><use x="18461.5" y="2173.5" xlink:href="#s2:anton-regular:487" /></g><g id="line-2"><use x="5554" y="3373.5" xlink:href="#s2:anton-regular:64" /><use x="5953" y="3373.5" xlink:href="#s2:anton-regular:333" /><use x="6450" y="3373.5" xlink:href="#s2:anton-regular:367" /><use x="6794" y="3373.5" xlink:href="#s2:anton-regular:3" /><use x="7028" y="3373.5" xlink:href="#s2:anton-regular:373" /><use x="7503" y="3373.5" xlink:href="#s2:anton-regular:253" /><use x="7994" y="3373.5" xlink:href="#s2:anton-regular:295" /><use x="8237" y="3373.5" xlink:href="#s2:anton-regular:264" /><use x="8725" y="3373.5" xlink:href="#s2:anton-regular:325" /><use x="9224" y="3373.5" xlink:href="#s2:anton-regular:253" /><use x="9715" y="3373.5" xlink:href="#s2:anton-regular:264" /><use x="10203" y="3373.5" xlink:href="#s2:anton-regular:482" /><use x="10439" y="3373.5" xlink:href="#s2:anton-regular:3" /><use x="10673" y="3373.5" xlink:href="#s2:anton-regular:324" /><use x="11431" y="3373.5" xlink:href="#s2:anton-regular:385" /><use x="11930" y="3373.5" xlink:href="#s2:anton-regular:373" /><use x="12405" y="3373.5" xlink:href="#s2:anton-regular:295" /><use x="12648" y="3373.5" xlink:href="#s2:anton-regular:253" /><use x="13139" y="3373.5" xlink:href="#s2:anton-regular:482" /><use x="13375" y="3373.5" xlink:href="#s2:anton-regular:3" /><use x="13609" y="3373.5" xlink:href="#s2:anton-regular:373" /><use x="14084" y="3373.5" xlink:href="#s2:anton-regular:364" /><use x="14584" y="3373.5" xlink:href="#s2:anton-regular:333" /><use x="15081" y="3373.5" xlink:href="#s2:anton-regular:367" /><use x="15425" y="3373.5" xlink:href="#s2:anton-regular:380" /><use x="15730" y="3373.5" xlink:href="#s2:anton-regular:482" /><use x="15966" y="3373.5" xlink:href="#s2:anton-regular:3" /><use x="16200" y="3373.5" xlink:href="#s2:anton-regular:264" /><use x="16688" y="3373.5" xlink:href="#s2:anton-regular:380" /><use x="16993" y="3373.5" xlink:href="#s2:anton-regular:253" /><use x="17484" y="3373.5" xlink:href="#s2:anton-regular:482" /></g></svg>