<svg xmlns="http://www.w3.org/2000/svg" xmlns:xlink="http://www.w3.org/1999/xlink" width="650" height="87" viewBox="0 0 27715 3700.6"><defs><path id="s2:architectsdaughter:55" d="M490-491L401-493Q366-493 320-486Q318-447 312-385Q291-165 291-99.50Q291-34 293-7L199 0L230-494L17-506Q9-506 4.50-519Q0-532 0-543Q0-554 9-567Q18-580 30-580Q103-577 177-570Q314-558 410-558L472-560Q545-562 617-576Q633-573 637-526Q638-516 638-510Q572-491 490-491Z"/><path id="s2:architectsdaughter:75" d="M497-14Q488 3 450.50 3Q413 3 413-24Q413-142 408-186Q399-283 370-290Q298-304 252.50-304Q207-304 177.50-276.50Q148-249 132.50-185.50Q117-122 110-7L33-7Q35-64 35-113Q35-162 33-229.50Q31-297 28-377Q23-469 23-532.50Q23-596 31-649Q41-668 60-668Q83-668 96-651.50Q109-635 110-622L105-457Q105-364 114-318Q204-378 300-378Q331-378 366-373Q441-334 464-290Q475-267 478-241Q481-215 482-182Q488-68 497-14Z"/><path id="s2:architectsdaughter:72" d="M231-70Q319-70 496-150Q507-150 514-142.50Q521-135 521-125Q481-57 368-19Q255 19 157-6Q46-35 22-131Q20-150 20-182Q20-214 36.50-266.50Q53-319 93-366Q133-413 187-440Q241-467 302-467Q360-467 432-427Q466-408 486-384Q506-360 506-335Q506-328 505-321Q503-260 446-244Q421-237 388-237L244-243Q172-243 134-212Q112-195 103-161Q128-70 231-70M409.50-379Q409.50-379 398.25-387Q387-395 363-402Q339-409 323-409Q307-409 271-398.50Q235-388 207-375Q138-343 138-308Q218-301 258-301Q369-301 408-320Q432-330 432-345Q432-363 409.50-379Z"/><path id="s2:architectsdaughter:3" d=""/><path id="s2:architectsdaughter:40" d="M353-635Q453-635 486-622L486-573Q459-569 412-568.50Q365-568 312-567Q164-564 110-552Q93-472 94-443Q95-414 96-398Q100-359 100-306Q168-306 255.50-318Q343-330 391-335.50Q439-341 490-341L490-286L107-238L113-74Q212-74 315.50-83.50Q419-93 472.50-97.50Q526-102 586-102Q586-82 574-64Q550-32 531-45Q355-26 216.50-15Q78-4 30 0L34-638Q60-630 130-630L353-635Z"/><path id="s2:architectsdaughter:88" d="M22-133Q22-149 19.50-177.50Q17-206 15-240Q13-274 13-309Q13-344 19-373Q32-438 73-438Q101-430 110.50-418Q120-406 120-388.50Q120-371 111-345Q78-258 78-188Q78-165 81-139Q97-72 191-72Q240-72 284-89Q368-120 398-162Q407-208 407-242.50Q407-277 404.50-304Q402-331 398.50-363.50Q395-396 394-435Q407-441 419.50-441Q432-441 445.50-428Q459-415 468.50-379Q478-343 481-294.50Q484-246 484.50-194Q485-142 485-93.50Q485-45 489-10Q477 1 466 1Q426 1 407-79Q394-68 363-52Q297-16 207-4Q190-2 169-2Q148-2 116.50-10Q85-18 57-47Q29-76 22-133Z"/><path id="s2:architectsdaughter:85" d="M518-365Q476-395 410-395Q348-395 295-372Q195-330 158-264Q142-234 142-200Q142-194 142-166.50Q142-139 152-92.50Q162-46 162 2Q141 3 128 7Q115 11 106 11Q97 11 90.50 3Q84-5 76-28Q75-34 72-62Q69-90 64.50-130Q60-170 54.50-217.50Q49-265 44-311Q33-411 27-458Q27-482 62-482Q83-482 95-464.50Q107-447 114-424.50Q121-402 123.50-380Q126-358 128-349Q260-467 456-467Q478-467 502-466Q508-467 517-467Q526-467 535-455Q546-441 546-421Q546-371 518-365Z"/><path id="s2:architectsdaughter:82" d="M52-190Q52-308 154-380Q235-437 349-449Q355-449 377-449Q399-449 436-436Q518-408 548-337Q560-309 560-289.50Q560-270 559-262Q559-137 464-65Q376 1 244 1Q149 1 100.50-43Q52-87 52-190M121-166Q121-104 154-82Q179-66 238-66Q297-66 342-75Q387-84 422-106Q497-154 497-255Q497-315 465-353Q430-394 373-394Q334-387 294.50-379Q255-371 220-348Q144-299 121-166Z"/><path id="s2:architectsdaughter:83" d="M123-401Q259-448 358-448Q484-448 526-382Q545-351 545-315Q545-265 513.50-212Q482-159 430-116Q309-17 136 7Q136 18 136.50 42.50Q137 67 137.50 97Q138 127 138.50 161Q139 195 140 226Q143 303 144.50 314Q146 325 146 332Q146 357 130 369.50Q114 382 88 382Q83 382 78 382L62-422Q71-435 86-434Q101-433 110-426Q119-419 123-401M415-366Q382-383 344.50-383Q307-383 270-376Q186-360 146-305Q128-279 128-241Q128-237 128-233L128-60Q334-106 420-188Q470-235 470-285Q470-338 415-366Z"/><path id="s2:architectsdaughter:68" d="M420-166Q345-48 220-20Q191-14 167.50-14Q144-14 128.50-14.50Q113-15 94-19Q75-23 59-32Q22-53 22-91Q18-109 18-131.50Q18-154 28-191Q38-228 64.50-271Q91-314 129-350Q208-426 300-448Q327-454 349.50-454Q372-454 390-451Q448-451 468-372Q481-322 483.50-232.50Q486-143 488.50-94.50Q491-46 501-6L442-6Q438-33 436-54Q434-75 432-93Q427-135 420-166M416-321Q416-379 359-379Q352-380 345-380Q272-380 191-310Q153-278 126-238Q86-181 86-136Q86-77 154-66Q244-68 326-148Q361-183 384-224Q416-279 416-321Z"/><path id="s2:architectsdaughter:81" d="M417-219Q417-338 404-394Q412-409 380-409Q346-409 292-392Q238-375 204-358Q123-319 114-282L114-10L47-10Q34-44 34-201Q34-341 39.50-407Q45-473 48-482Q74-499 90-499Q115-499 115-440Q115-417 112.50-395.50Q110-374 110-366Q272-485 361-485Q462-485 476-322Q482-265 482-164L481-85Q481-41 483 0Q473 6 467 6Q464 5 454 3Q444 1 428 0Q418-40 417-81.50Q416-123 416-158L417-219Z"/><path id="s2:architectsdaughter:79" d="M45-388Q45-388 44-415Q43-442 41-484.50Q39-527 38.50-547.50Q38-568 22-648Q31-660 39.50-671Q48-682 64-682Q99-682 118-387Q128-216 128-45Q128 1 64 1L56 0Q56-52 53-133Q50-214 48.50-274Q47-334 45-388Z"/><path id="s2:architectsdaughter:74" d="M316 428L302 427Q272 427 238 431L200 431Q140 431 106 408Q88 396 88 372L318 361Q424 358 424 247Q424 243 424 233.50Q424 224 424 192L429-130Q429-147 428-158Q266-7 116-7Q103-7 90-8Q23-8 23-67Q25-113 50-168.50Q75-224 114.50-275.50Q154-327 204-368Q281-431 353-431Q437-431 491-342Q507-104 507-4Q507 96 504 160Q501 224 490.50 277Q480 330 463 361Q446 392 423 406Q385 428 316 428M376-358Q364-362 342.50-362Q321-362 287-344Q253-326 222-297.50Q191-269 164-234Q98-148 98-97Q98-81 107-73Q114-69 124.50-69Q135-69 155-72.50Q175-76 209.50-90.50Q244-105 281-128Q318-151 348-179Q418-243 418-304Q418-341 376-358Z"/><path id="s2:architectsdaughter:86" d="M369-258Q479-258 479-202Q479-160 418-104Q327-21 173 29Q166 29 157.50 15Q149 1 144.50-6.50Q140-14 138-16Q253-54 327-108Q377-144 377-167Q377-190 318-190Q259-190 145-162Q93-164 55-199Q22-230 22-261.50Q22-293 40-319.50Q58-346 88-369Q118-392 158-411Q256-458 361-458Q392-458 421-452Q445-452 449-431Q453-410 453-362Q394-389 320-389Q228-389 168-352Q106-316 104-258Q104-230 145-230L218-238Q312-258 369-258Z"/><path id="s2:architectsdaughter:80" d="M110-16Q69 1 55.50 1Q42 1 37-2Q32-5 26-16Q26-49 28.50-99Q31-149 33-206Q35-263 35-321Q35-379 29-427Q29-459 72-459Q82-459 87.50-423Q93-387 95.50-367Q98-347 100-338Q126-385 203-412Q244-425 280-425Q316-425 343.50-416.50Q371-408 390.50-385.50Q410-363 410-326Q436-375 527-414Q610-451 676-451Q771-451 769-379L790-7Q790-2 761 0Q705 4 705-10Q704-30 704-50L709-211Q709-324 687-390Q621-385 585.50-368.50Q550-352 523-327.50Q496-303 475-262Q428-170 428-18Q422 3 389 3Q367 3 353-4.50Q339-12 342-18Q361-124 361-183Q361-230 351.50-272.50Q342-315 328-370Q184-370 134-255Q112-204 109.50-159.50Q107-115 107-83.50Q107-52 110-16Z"/><path id="s2:architectsdaughter:69" d="M33-580L30-709Q30-725 41-734Q52-743 68-743Q84-743 97-734.50Q110-726 107-711L114-279Q177-363 284-420Q373-468 440-468Q499-468 531-430Q555-400 555-350.50Q555-301 536.50-264.50Q518-228 488-194.50Q458-161 419-132Q380-103 340-80Q264-36 190-7Q184-9 170-8Q156-7 136-7Q82-7 41-20Q31-115 31-309L33-580M117-89Q117-78 137.50-78Q158-78 188-86Q218-94 260.50-113.50Q303-133 346-164Q446-235 497-331Q484-388 419-388Q360-388 286-344Q181-281 136-188Q117-151 117-113Q117-103 117-97Q117-91 117-89Z"/><path id="s2:architectsdaughter:73" d="M601-334Q606-334 606-307Q606-280 608-270L265-228L283-6L202-10Q202-100 182-216L52-166Q39-166 30-181Q14-207 14-228L166-282Q146-454 146-561.50Q146-669 164-729Q182-789 216.50-809.50Q251-830 290-830Q329-830 369.50-813Q410-796 447-770Q484-744 510-711.50Q536-679 536-648Q536-624 531-614Q491-670 434-714Q366-766 306-766Q249-766 230-685Q221-643 221-566.50Q221-490 225-426.50Q229-363 249-299Q311-299 388-310Q536-333 601-334Z"/><path id="s2:architectsdaughter:87" d="M178-96L180-256Q180-294 173-321L18-321L16-390L166-390L166-648Q169-657 178-666Q192-680 201.50-680Q211-680 218-678Q225-676 233-664Q249-598 249-465Q249-432 252-400Q284-404 316-404Q316-404 368-404Q387-404 403-406L400-334L254-338L259 7Q241 15 228 15Q178 15 178-96Z"/><path id="s2:architectsdaughter:76" d="M117-470Q130-283 139-37Q133-6 91-6Q80-6 68.50-10.50Q57-15 54-23L54-470L117-470M24-606Q24-641 65-641Q92-641 109-629Q112-618 112-607.50Q112-597 104-587Q96-577 80-577Q64-577 48-584.50Q32-592 24-606Z"/><path id="s2:architectsdaughter:92" d="M238 377Q217 424 188 424Q174 424 167.50 411.50Q161 399 167 382Q189 289 230.50 170Q272 51 286 10Q251-25 176-130Q22-346 22-367Q22-368 23-369L61-407Q140-334 267-159Q299-115 318-85Q339-127 351-157.50Q363-188 370.50-206.50Q378-225 391-256Q425-339 485-467Q494-471 504-471Q529-471 540-458Q544-453 544-446.50Q544-440 542-434L238 377Z"/><path id="s2:architectsdaughter:17" d="M46 1Q23-1 23-19Q23-41 48-60Q58-67 63.50-67Q69-67 72-66Q93-66 100.50-57.50Q108-49 108-35Q108-21 102-14Q96-7 87-4Q72 1 46 1Z"/><path id="s2:architectsdaughter:91" d="M26-30Q75-79 125-142Q175-205 186-226L102-318Q86-335 71-352Q56-369 44-382Q32-395 25-404L18-412L76-474Q121-419 142.50-390.50Q164-362 177-345Q199-317 241-276Q255-296 291-348Q351-437 387-480Q410-480 424-464Q438-448 438-434Q412-378 363-316Q345-294 330-273.50Q315-253 306-229Q367-186 452-83Q471-60 479-48Q479-41 468-27Q451-3 438 3Q419-6 398.50-29.50Q378-53 355-81Q332-109 307.50-137Q283-165 256-183Q233-157 192-108Q117-18 92 0Q73 4 38-18Q29-23 26-30Z"/><path id="s2:architectsdaughter:70" d="M431.50-105.50Q431.50-105.50 451.75-113.75Q472-122 511-136Q550-150 585.50-150Q621-150 621-128Q621-123 618.50-112.50Q616-102 591.50-87.50Q567-73 531.50-60Q496-47 454-36Q412-25 372-17Q289 0 254 0Q219 0 178.50-8Q138-16 103-34Q22-76 22-158Q22-164 22-182Q22-200 37-233.50Q52-267 82-300.50Q112-334 152-362Q236-422 328-440Q360-447 381.50-447Q403-447 417-446.50Q431-446 446-444.50Q461-443 472-437Q498-424 498-386Q498-362 464-339Q455-333 448-328Q443-351 435-367Q427-383 400-383Q282-358 197-308Q101-251 101-188Q101-181 102-173Q102-109 151-82Q188-62 246.50-62Q305-62 348-75.50Q391-89 431.50-105.50Z"/><path id="s2:architectsdaughter:41" d="M94-166Q38-174 38-192Q38-205 57-222Q76-239 95-257Q95-317 77-391.50Q59-466 51-507Q43-548 43-582Q43-616 53.50-625Q64-634 84-634Q104-634 110-628.50Q116-623 118-615Q120-607 120.50-598Q121-589 124-581Q129-562 155-562Q222-563 289-573.50Q356-584 422-595Q554-617 607.50-617Q661-617 692-614Q693-595 696-581Q699-567 699-558Q699-541 666-546Q143-527 143-468Q143-403 152-356.50Q161-310 165.50-298Q170-286 176-286Q233-286 291.50-296Q350-306 408.50-317.50Q467-329 526-339Q585-349 642-349Q643-349 643-341.50Q643-334 642-325Q639-301 642-301Q599-277 486-262Q437-255 386-249Q335-243 292-236Q193-222 177-199L166-3Q155 8 141 8L104 5Q99 5 94 5L94-166Z"/><path id="s2:architectsdaughter:15" d="M48-86Q54-99 62-101Q70-103 79-103Q88-103 96-101Q110-97 116-84Q116-82 116-78.50Q116-75 112-65.50Q108-56 99.50-40.50Q91-25 81-8.50Q71 8 61 23Q51 38 46.50 46Q42 54 35 61Q11 85-10 85Q-16 85-22 83L48-86Z"/></defs><g id="line-0"><use x="0" y="830" xlink:href="#s2:architectsdaughter:55"/><use x="638" y="830" xlink:href="#s2:architectsdaughter:75"/><use x="1145" y="830" xlink:href="#s2:architectsdaughter:72"/><use x="1699" y="830" xlink:href="#s2:architectsdaughter:3"/><use x="2109" y="830" xlink:href="#s2:architectsdaughter:40"/><use x="2715" y="830" xlink:href="#s2:architectsdaughter:88"/><use x="3235" y="830" xlink:href="#s2:architectsdaughter:85"/><use x="3800" y="830" xlink:href="#s2:architectsdaughter:82"/><use x="4376" y="830" xlink:href="#s2:architectsdaughter:83"/><use x="4946" y="830" xlink:href="#s2:architectsdaughter:72"/><use x="5500" y="830" xlink:href="#s2:architectsdaughter:68"/><use x="6021" y="830" xlink:href="#s2:architectsdaughter:81"/><use x="6533" y="830" xlink:href="#s2:architectsdaughter:3"/><use x="6943" y="830" xlink:href="#s2:architectsdaughter:79"/><use x="7104" y="830" xlink:href="#s2:architectsdaughter:68"/><use x="7625" y="830" xlink:href="#s2:architectsdaughter:81"/><use x="8137" y="830" xlink:href="#s2:architectsdaughter:74"/><use x="8665" y="830" xlink:href="#s2:architectsdaughter:88"/><use x="9185" y="830" xlink:href="#s2:architectsdaughter:68"/><use x="9706" y="830" xlink:href="#s2:architectsdaughter:74"/><use x="10234" y="830" xlink:href="#s2:architectsdaughter:72"/><use x="10788" y="830" xlink:href="#s2:architectsdaughter:86"/><use x="11302" y="830" xlink:href="#s2:architectsdaughter:3"/><use x="11712" y="830" xlink:href="#s2:architectsdaughter:68"/><use x="12233" y="830" xlink:href="#s2:architectsdaughter:85"/><use x="12798" y="830" xlink:href="#s2:architectsdaughter:72"/><use x="13352" y="830" xlink:href="#s2:architectsdaughter:3"/><use x="13762" y="830" xlink:href="#s2:architectsdaughter:80"/><use x="14559" y="830" xlink:href="#s2:architectsdaughter:72"/><use x="15113" y="830" xlink:href="#s2:architectsdaughter:80"/><use x="15910" y="830" xlink:href="#s2:architectsdaughter:69"/><use x="16485" y="830" xlink:href="#s2:architectsdaughter:72"/><use x="17039" y="830" xlink:href="#s2:architectsdaughter:85"/><use x="17604" y="830" xlink:href="#s2:architectsdaughter:86"/><use x="18118" y="830" xlink:href="#s2:architectsdaughter:3"/><use x="18528" y="830" xlink:href="#s2:architectsdaughter:82"/><use x="19104" y="830" xlink:href="#s2:architectsdaughter:73"/><use x="19712" y="830" xlink:href="#s2:architectsdaughter:3"/><use x="20122" y="830" xlink:href="#s2:architectsdaughter:87"/><use x="20536" y="830" xlink:href="#s2:architectsdaughter:75"/><use x="21043" y="830" xlink:href="#s2:architectsdaughter:72"/><use x="21597" y="830" xlink:href="#s2:architectsdaughter:3"/><use x="22007" y="830" xlink:href="#s2:architectsdaughter:86"/><use x="22521" y="830" xlink:href="#s2:architectsdaughter:68"/><use x="23042" y="830" xlink:href="#s2:architectsdaughter:80"/><use x="23839" y="830" xlink:href="#s2:architectsdaughter:72"/><use x="24393" y="830" xlink:href="#s2:architectsdaughter:3"/><use x="24803" y="830" xlink:href="#s2:architectsdaughter:73"/><use x="25411" y="830" xlink:href="#s2:architectsdaughter:68"/><use x="25932" y="830" xlink:href="#s2:architectsdaughter:80"/><use x="26729" y="830" xlink:href="#s2:architectsdaughter:76"/><use x="26884" y="830" xlink:href="#s2:architectsdaughter:79"/><use x="27045" y="830" xlink:href="#s2:architectsdaughter:92"/><use x="27607" y="830" xlink:href="#s2:architectsdaughter:17"/></g><g id="line-1"><use x="5534" y="2058.8" xlink:href="#s2:architectsdaughter:55"/><use x="6172" y="2058.8" xlink:href="#s2:architectsdaughter:75"/><use x="6679" y="2058.8" xlink:href="#s2:architectsdaughter:72"/><use x="7233" y="2058.8" xlink:href="#s2:architectsdaughter:76"/><use x="7388" y="2058.8" xlink:href="#s2:architectsdaughter:85"/><use x="7953" y="2058.8" xlink:href="#s2:architectsdaughter:3"/><use x="8363" y="2058.8" xlink:href="#s2:architectsdaughter:86"/><use x="8877" y="2058.8" xlink:href="#s2:architectsdaughter:72"/><use x="9431" y="2058.8" xlink:href="#s2:architectsdaughter:83"/><use x="10001" y="2058.8" xlink:href="#s2:architectsdaughter:68"/><use x="10522" y="2058.8" xlink:href="#s2:architectsdaughter:85"/><use x="11087" y="2058.8" xlink:href="#s2:architectsdaughter:68"/><use x="11608" y="2058.8" xlink:href="#s2:architectsdaughter:87"/><use x="12022" y="2058.8" xlink:href="#s2:architectsdaughter:72"/><use x="12576" y="2058.8" xlink:href="#s2:architectsdaughter:3"/><use x="12986" y="2058.8" xlink:href="#s2:architectsdaughter:72"/><use x="13540" y="2058.8" xlink:href="#s2:architectsdaughter:91"/><use x="14022" y="2058.8" xlink:href="#s2:architectsdaughter:76"/><use x="14177" y="2058.8" xlink:href="#s2:architectsdaughter:86"/><use x="14691" y="2058.8" xlink:href="#s2:architectsdaughter:87"/><use x="15105" y="2058.8" xlink:href="#s2:architectsdaughter:72"/><use x="15659" y="2058.8" xlink:href="#s2:architectsdaughter:81"/><use x="16171" y="2058.8" xlink:href="#s2:architectsdaughter:70"/><use x="16819" y="2058.8" xlink:href="#s2:architectsdaughter:72"/><use x="17373" y="2058.8" xlink:href="#s2:architectsdaughter:3"/><use x="17783" y="2058.8" xlink:href="#s2:architectsdaughter:76"/><use x="17938" y="2058.8" xlink:href="#s2:architectsdaughter:86"/><use x="18452" y="2058.8" xlink:href="#s2:architectsdaughter:3"/><use x="18862" y="2058.8" xlink:href="#s2:architectsdaughter:68"/><use x="19383" y="2058.8" xlink:href="#s2:architectsdaughter:3"/><use x="19793" y="2058.8" xlink:href="#s2:architectsdaughter:80"/><use x="20590" y="2058.8" xlink:href="#s2:architectsdaughter:92"/><use x="21152" y="2058.8" xlink:href="#s2:architectsdaughter:87"/><use x="21566" y="2058.8" xlink:href="#s2:architectsdaughter:75"/><use x="22073" y="2058.8" xlink:href="#s2:architectsdaughter:17"/></g><g id="line-2"><use x="6544.5" y="3287.6" xlink:href="#s2:architectsdaughter:41"/><use x="7253.5" y="3287.6" xlink:href="#s2:architectsdaughter:82"/><use x="7829.5" y="3287.6" xlink:href="#s2:architectsdaughter:85"/><use x="8394.5" y="3287.6" xlink:href="#s2:architectsdaughter:3"/><use x="8804.5" y="3287.6" xlink:href="#s2:architectsdaughter:86"/><use x="9318.5" y="3287.6" xlink:href="#s2:architectsdaughter:70"/><use x="9966.5" y="3287.6" xlink:href="#s2:architectsdaughter:76"/><use x="10121.5" y="3287.6" xlink:href="#s2:architectsdaughter:72"/><use x="10675.5" y="3287.6" xlink:href="#s2:architectsdaughter:81"/><use x="11187.5" y="3287.6" xlink:href="#s2:architectsdaughter:70"/><use x="11835.5" y="3287.6" xlink:href="#s2:architectsdaughter:72"/><use x="12389.5" y="3287.6" xlink:href="#s2:architectsdaughter:15"/><use x="12571.5" y="3287.6" xlink:href="#s2:architectsdaughter:3"/><use x="12981.5" y="3287.6" xlink:href="#s2:architectsdaughter:80"/><use x="13778.5" y="3287.6" xlink:href="#s2:architectsdaughter:88"/><use x="14298.5" y="3287.6" xlink:href="#s2:architectsdaughter:86"/><use x="14812.5" y="3287.6" xlink:href="#s2:architectsdaughter:76"/><use x="14967.5" y="3287.6" xlink:href="#s2:architectsdaughter:70"/><use x="15615.5" y="3287.6" xlink:href="#s2:architectsdaughter:15"/><use x="15797.5" y="3287.6" xlink:href="#s2:architectsdaughter:3"/><use x="16207.5" y="3287.6" xlink:href="#s2:architectsdaughter:86"/><use x="16721.5" y="3287.6" xlink:href="#s2:architectsdaughter:83"/><use x="17291.5" y="3287.6" xlink:href="#s2:architectsdaughter:82"/><use x="17867.5" y="3287.6" xlink:href="#s2:architectsdaughter:85"/><use x="18432.5" y="3287.6" xlink:href="#s2:architectsdaughter:87"/><use x="18846.5" y="3287.6" xlink:href="#s2:architectsdaughter:15"/><use x="19028.5" y="3287.6" xlink:href="#s2:architectsdaughter:3"/><use x="19438.5" y="3287.6" xlink:href="#s2:architectsdaughter:72"/><use x="19992.5" y="3287.6" xlink:href="#s2:architectsdaughter:87"/><use x="20406.5" y="3287.6" xlink:href="#s2:architectsdaughter:70"/><use x="21054.5" y="3287.6" xlink:href="#s2:architectsdaughter:15"/></g></svg>