<svg xmlns="http://www.w3.org/2000/svg" xmlns:xlink="http://www.w3.org/1999/xlink" width="623" height="82" viewBox="0 0 53139 6986.2" ><defs><path id="s6:arimo-italic:55" d="M858-1253L614 0L424 0L668-1253L184-1253L214-1409L1372-1409L1342-1253L858-1253Z"/><path id="s6:arimo-italic:75" d="M383-897Q466-1012 549.50-1056.50Q633-1101 748-1101Q896-1101 970.50-1028Q1045-955 1045-817Q1045-753 1024-653L897 0L716 0L842-645Q860-733 860-795Q860-962 681-962Q555-962 459-866Q363-770 331-606L213 0L34 0L322-1484L502-1484L427-1098Q409-998 380-897L383-897Z"/><path id="s6:arimo-italic:72" d="M256-503Q250-468 247-390Q247-257 313.50-186Q380-115 514-115Q611-115 690-163Q769-211 813-294L951-231Q878-100 765.50-40Q653 20 493 20Q292 20 180.50-91.50Q69-203 69-405Q69-606 140-765.50Q211-925 340-1013.50Q469-1102 630-1102Q835-1102 949-999Q1063-896 1063-708Q1063-603 1039-503L256-503M880-641L884-713Q884-837 819.50-903Q755-969 634-969Q500-969 408.50-883.50Q317-798 280-641L880-641Z"/><path id="s6:arimo-italic:3" d=""/><path id="s6:arimo-italic:40" d="M63 0L336-1409L1385-1409L1355-1253L497-1253L409-801L1207-801L1177-647L379-647L284-156L1183-156L1153 0L63 0Z"/><path id="s6:arimo-italic:88" d="M415-1082L289-437Q271-349 271-287Q271-120 450-120Q576-120 672-216Q768-312 800-476L918-1082L1098-1082L932-231Q912-136 893 0L723 0Q723-11 733.50-77.50Q744-144 751-185L748-185Q665-70 581.50-25.50Q498 19 383 19Q235 19 160.50-54Q86-127 86-265Q86-329 107-429L234-1082L415-1082Z"/><path id="s6:arimo-italic:85" d="M718-938Q674-951 628-951Q523-951 438.50-841Q354-731 324-564L214 0L34 0L196-830L221-968L239-1082L409-1082L374-861L378-861Q444-994 508-1048Q572-1102 656-1102Q702-1102 751-1088L718-938Z"/><path id="s6:arimo-italic:82" d="M1074-683Q1074-553 1034-412.50Q994-272 919.50-174.50Q845-77 737-28.50Q629 20 491 20Q295 20 181-98Q67-216 67-419Q71-623 141-781Q211-939 335-1020Q459-1101 642-1101Q852-1101 963-991.50Q1074-882 1074-683M888-683Q888-969 640-969Q505-969 423.50-899.50Q342-830 297-689Q252-548 252-416Q252-268 316-190.50Q380-113 502-113Q605-113 667.50-147.50Q730-182 777-255.50Q824-329 853.50-443Q883-557 888-683Z"/><path id="s6:arimo-italic:83" d="M554 20Q431 20 353.50-32Q276-84 244-178L239-178Q239-167 230.50-113Q222-59 128 425L-51 425L198-861Q221-972 233-1082L400-1082Q400-1055 393.50-999.50Q387-944 383-921L387-921Q460-1016 541-1059Q622-1102 741-1102Q898-1102 985.50-1007.50Q1073-913 1073-748Q1073-545 1011.50-354.50Q950-164 838.50-72Q727 20 554 20M689-963Q590-963 519.50-922.50Q449-882 400-800.50Q351-719 323-596.50Q295-474 295-377Q295-252 358.50-182.50Q422-113 535-113Q659-113 731-188.50Q803-264 844-428.50Q885-593 885-716Q885-839 838-901Q791-963 689-963Z"/><path id="s6:arimo-italic:68" d="M927 10Q834 10 791.50-28.50Q749-67 749-143L754-207L748-207Q665-81 576-30.50Q487 20 361 20Q221 20 133.50-64Q46-148 46-278Q46-463 178.50-558Q311-653 601-657L833-660Q852-758 852-787Q852-878 799-921.50Q746-965 652-965Q533-965 472-922.50Q411-880 384-793L206-822Q251-969 362.50-1035.50Q474-1102 662-1102Q833-1102 932.50-1022Q1032-942 1032-807Q1032-743 1013-650L939-272Q928-224 928-184Q928-111 1009-111Q1036-111 1069-118L1055-6Q989 10 927 10M809-536L610-532Q491-529 423-510.50Q355-492 317.50-463.50Q280-435 258.50-391.50Q237-348 237-286Q237-211 285.50-164Q334-117 411-117Q508-117 586-158.50Q664-200 715-267Q766-334 782-411L809-536Z"/><path id="s6:arimo-italic:81" d="M717 0L843-645Q861-733 861-795Q861-962 682-962Q556-962 460-866Q364-770 332-606L214 0L34 0L200-851Q220-946 239-1082L409-1082Q409-1071 398.50-1004.50Q388-938 381-897L384-897Q467-1012 550.50-1056.50Q634-1101 749-1101Q897-1101 971.50-1028Q1046-955 1046-817Q1046-753 1025-653L898 0L717 0Z"/><path id="s6:arimo-italic:79" d="M33 0L321-1484L501-1484L212 0L33 0Z"/><path id="s6:arimo-italic:74" d="M397 425Q58 425 4 173L167 131Q202 288 401 288Q543 288 621 214.50Q699 141 731-27L765-201L763-201Q701-112 653.50-73Q606-34 546.50-13Q487 8 410 8Q257 8 163.50-92.50Q70-193 70-359Q70-492 107.50-646Q145-800 210-902Q275-1004 368-1052.50Q461-1101 588-1101Q709-1101 792.50-1044Q876-987 900-897L902-897Q909-934 927-1003.50Q945-1073 950-1082L1121-1082L1102-1000L1072-858L911-31Q863 211 739 318Q615 425 397 425M259-373Q259-252 311.50-188.50Q364-125 466-125Q574-125 662-203.50Q750-282 798.50-419Q847-556 847-704Q847-829 783-898.50Q719-968 607-968Q517-968 457-931Q397-894 356-815Q315-736 287-604.50Q259-473 259-373Z"/><path id="s6:arimo-italic:86" d="M907-317Q907-155 783-67.50Q659 20 425 20Q251 20 148.50-38.50Q46-97 5-223L152-279Q185-191 254.50-151Q324-111 441-111Q584-111 658-159.50Q732-208 732-301Q732-363 681-404.50Q630-446 465-497Q337-539 273-579Q209-619 175-672.50Q141-726 141-797Q141-942 257-1020.50Q373-1099 584-1099Q938-1099 982-844L819-819Q797-898 736-933Q675-968 572-968Q448-968 381.50-928.50Q315-889 315-817Q315-775 336-746Q357-717 396.50-694.50Q436-672 579-627Q706-587 770.50-546Q835-505 871-449Q907-393 907-317Z"/><path id="s6:arimo-italic:80" d="M660 0L784-634Q809-759 809-808Q809-883 771-922.50Q733-962 647-962Q531-962 444.50-863Q358-764 331-604L213 0L34 0L200-851Q220-946 239-1082L409-1082Q409-1071 398.50-1004.50Q388-938 381-897L384-897Q457-1011 530.50-1056Q604-1101 706-1101Q827-1101 898-1041.50Q969-982 983-869Q1066-999 1146.50-1050Q1227-1101 1331-1101Q1466-1101 1538.50-1028Q1611-955 1611-817Q1611-753 1590-653L1463 0L1285 0L1409-634Q1434-759 1434-808Q1434-883 1396-922.50Q1358-962 1272-962Q1156-962 1070-864.50Q984-767 956-607L838 0L660 0Z"/><path id="s6:arimo-italic:69" d="M744-1102Q901-1102 988.50-1007.50Q1076-913 1076-748Q1076-545 1014.50-354.50Q953-164 841.50-72Q730 20 557 20Q434 20 357-32Q280-84 248-178L245-178Q238-141 221-72Q204-3 202 0L29 0Q34-15 48.50-82Q63-149 78-223L323-1484L503-1484L420-1061Q412-1015 386-921L390-921Q463-1016 544-1059Q625-1102 744-1102M692-963Q593-963 522.50-922.50Q452-882 403-800.50Q354-719 326-596.50Q298-474 298-377Q298-252 361.50-182.50Q425-113 538-113Q662-113 734-188.50Q806-264 847-428.50Q888-593 888-716Q888-839 841-901Q794-963 692-963Z"/><path id="s6:arimo-italic:73" d="M434-951L249 0L69 0L254-951L102-951L128-1082L280-1082L303-1204Q326-1316 363.50-1371.50Q401-1427 463-1455.50Q525-1484 622-1484Q696-1484 746-1472L720-1335L675-1341L629-1343Q566-1343 532.50-1310.50Q499-1278 479-1179L460-1082L671-1082L645-951L434-951Z"/><path id="s6:arimo-italic:87" d="M275 20Q190 20 141.50-31Q93-82 93-166Q93-221 108-296L234-951L109-951L135-1082L262-1082L367-1324L487-1324L440-1082L640-1082L614-951L414-951L289-306Q277-246 277-211Q277-123 367-123Q409-123 467-137L448-4Q349 20 275 20Z"/><path id="s6:arimo-italic:76" d="M287-1312L321-1484L501-1484L467-1312L287-1312M33 0L243-1082L423-1082L212 0L33 0Z"/><path id="s6:arimo-italic:92" d="M16 425Q-56 425-116 411L-85 277Q-40 285-8 285Q87 285 159.50 221Q232 157 302 35L329-12L112-1082L295-1082L407-484Q422-404 435-313.50Q448-223 449-196Q459-218 475-250Q491-282 928-1082L1127-1082L501 0Q390 193 322.50 270.50Q255 348 181.50 386.50Q108 425 16 425Z"/><path id="s6:arimo-italic:17" d="M80 0L123-219L318-219L275 0L80 0Z"/><path id="s6:arimo-italic:91" d="M706 0L497-444L117 0L-82 0L410-556L146-1082L335-1082L528-661L878-1082L1084-1082L615-558L896 0L706 0Z"/><path id="s6:arimo-italic:70" d="M469-122Q674-122 758-352L914-303Q793 20 465 20Q273 20 170-89Q67-198 67-395Q67-595 139.50-767Q212-939 331.50-1020.50Q451-1102 625-1102Q794-1102 892.50-1017Q991-932 1001-784L824-759Q818-856 764-908.50Q710-961 619-961Q493-961 415-893.50Q337-826 294-679Q251-532 251-389Q251-122 469-122Z"/><path id="s6:arimo-italic:41" d="M497-1253L395-729L1191-729L1160-571L364-571L254 0L63 0L336-1409L1347-1409L1317-1253L497-1253Z"/><path id="s6:arimo-italic:15" d="M160 262L37 262Q157 125 182 0L94 0L136-219L331-219L299-51Q281 44 248 119Q215 194 160 262Z"/></defs><g id="line-0"><use x="0" y="1637" xlink:href="#s6:arimo-italic:55" /><use x="1251" y="1637" xlink:href="#s6:arimo-italic:75" /><use x="2390" y="1637" xlink:href="#s6:arimo-italic:72" /><use x="3529" y="1637" xlink:href="#s6:arimo-italic:3" /><use x="4098" y="1637" xlink:href="#s6:arimo-italic:40" /><use x="5464" y="1637" xlink:href="#s6:arimo-italic:88" /><use x="6603" y="1637" xlink:href="#s6:arimo-italic:85" /><use x="7285" y="1637" xlink:href="#s6:arimo-italic:82" /><use x="8424" y="1637" xlink:href="#s6:arimo-italic:83" /><use x="9563" y="1637" xlink:href="#s6:arimo-italic:72" /><use x="10702" y="1637" xlink:href="#s6:arimo-italic:68" /><use x="11841" y="1637" xlink:href="#s6:arimo-italic:81" /><use x="12980" y="1637" xlink:href="#s6:arimo-italic:3" /><use x="13549" y="1637" xlink:href="#s6:arimo-italic:79" /><use x="14004" y="1637" xlink:href="#s6:arimo-italic:68" /><use x="15143" y="1637" xlink:href="#s6:arimo-italic:81" /><use x="16282" y="1637" xlink:href="#s6:arimo-italic:74" /><use x="17421" y="1637" xlink:href="#s6:arimo-italic:88" /><use x="18560" y="1637" xlink:href="#s6:arimo-italic:68" /><use x="19699" y="1637" xlink:href="#s6:arimo-italic:74" /><use x="20838" y="1637" xlink:href="#s6:arimo-italic:72" /><use x="21977" y="1637" xlink:href="#s6:arimo-italic:86" /><use x="23001" y="1637" xlink:href="#s6:arimo-italic:3" /><use x="23570" y="1637" xlink:href="#s6:arimo-italic:68" /><use x="24709" y="1637" xlink:href="#s6:arimo-italic:85" /><use x="25391" y="1637" xlink:href="#s6:arimo-italic:72" /><use x="26530" y="1637" xlink:href="#s6:arimo-italic:3" /><use x="27099" y="1637" xlink:href="#s6:arimo-italic:80" /><use x="28805" y="1637" xlink:href="#s6:arimo-italic:72" /><use x="29944" y="1637" xlink:href="#s6:arimo-italic:80" /><use x="31650" y="1637" xlink:href="#s6:arimo-italic:69" /><use x="32789" y="1637" xlink:href="#s6:arimo-italic:72" /><use x="33928" y="1637" xlink:href="#s6:arimo-italic:85" /><use x="34610" y="1637" xlink:href="#s6:arimo-italic:86" /><use x="35634" y="1637" xlink:href="#s6:arimo-italic:3" /><use x="36203" y="1637" xlink:href="#s6:arimo-italic:82" /><use x="37342" y="1637" xlink:href="#s6:arimo-italic:73" /><use x="37911" y="1637" xlink:href="#s6:arimo-italic:3" /><use x="38480" y="1637" xlink:href="#s6:arimo-italic:87" /><use x="39049" y="1637" xlink:href="#s6:arimo-italic:75" /><use x="40188" y="1637" xlink:href="#s6:arimo-italic:72" /><use x="41327" y="1637" xlink:href="#s6:arimo-italic:3" /><use x="41896" y="1637" xlink:href="#s6:arimo-italic:86" /><use x="42920" y="1637" xlink:href="#s6:arimo-italic:68" /><use x="44059" y="1637" xlink:href="#s6:arimo-italic:80" /><use x="45765" y="1637" xlink:href="#s6:arimo-italic:72" /><use x="46904" y="1637" xlink:href="#s6:arimo-italic:3" /><use x="47473" y="1637" xlink:href="#s6:arimo-italic:73" /><use x="48042" y="1637" xlink:href="#s6:arimo-italic:68" /><use x="49181" y="1637" xlink:href="#s6:arimo-italic:80" /><use x="50887" y="1637" xlink:href="#s6:arimo-italic:76" /><use x="51342" y="1637" xlink:href="#s6:arimo-italic:79" /><use x="51797" y="1637" xlink:href="#s6:arimo-italic:92" /><use x="52821" y="1637" xlink:href="#s6:arimo-italic:17" /></g><g id="line-1"><use x="10816" y="4094.6" xlink:href="#s6:arimo-italic:55" /><use x="12067" y="4094.6" xlink:href="#s6:arimo-italic:75" /><use x="13206" y="4094.6" xlink:href="#s6:arimo-italic:72" /><use x="14345" y="4094.6" xlink:href="#s6:arimo-italic:76" /><use x="14800" y="4094.6" xlink:href="#s6:arimo-italic:85" /><use x="15482" y="4094.6" xlink:href="#s6:arimo-italic:3" /><use x="16051" y="4094.6" xlink:href="#s6:arimo-italic:86" /><use x="17075" y="4094.6" xlink:href="#s6:arimo-italic:72" /><use x="18214" y="4094.6" xlink:href="#s6:arimo-italic:83" /><use x="19353" y="4094.6" xlink:href="#s6:arimo-italic:68" /><use x="20492" y="4094.6" xlink:href="#s6:arimo-italic:85" /><use x="21174" y="4094.6" xlink:href="#s6:arimo-italic:68" /><use x="22313" y="4094.6" xlink:href="#s6:arimo-italic:87" /><use x="22882" y="4094.6" xlink:href="#s6:arimo-italic:72" /><use x="24021" y="4094.6" xlink:href="#s6:arimo-italic:3" /><use x="24590" y="4094.6" xlink:href="#s6:arimo-italic:72" /><use x="25729" y="4094.6" xlink:href="#s6:arimo-italic:91" /><use x="26753" y="4094.6" xlink:href="#s6:arimo-italic:76" /><use x="27208" y="4094.6" xlink:href="#s6:arimo-italic:86" /><use x="28232" y="4094.6" xlink:href="#s6:arimo-italic:87" /><use x="28801" y="4094.6" xlink:href="#s6:arimo-italic:72" /><use x="29940" y="4094.6" xlink:href="#s6:arimo-italic:81" /><use x="31079" y="4094.6" xlink:href="#s6:arimo-italic:70" /><use x="32103" y="4094.6" xlink:href="#s6:arimo-italic:72" /><use x="33242" y="4094.6" xlink:href="#s6:arimo-italic:3" /><use x="33811" y="4094.6" xlink:href="#s6:arimo-italic:76" /><use x="34266" y="4094.6" xlink:href="#s6:arimo-italic:86" /><use x="35290" y="4094.6" xlink:href="#s6:arimo-italic:3" /><use x="35859" y="4094.6" xlink:href="#s6:arimo-italic:68" /><use x="36998" y="4094.6" xlink:href="#s6:arimo-italic:3" /><use x="37567" y="4094.6" xlink:href="#s6:arimo-italic:80" /><use x="39273" y="4094.6" xlink:href="#s6:arimo-italic:92" /><use x="40297" y="4094.6" xlink:href="#s6:arimo-italic:87" /><use x="40866" y="4094.6" xlink:href="#s6:arimo-italic:75" /><use x="42005" y="4094.6" xlink:href="#s6:arimo-italic:17" /></g><g id="line-2"><use x="13088" y="6552.2" xlink:href="#s6:arimo-italic:41" /><use x="14339" y="6552.2" xlink:href="#s6:arimo-italic:82" /><use x="15478" y="6552.2" xlink:href="#s6:arimo-italic:85" /><use x="16160" y="6552.2" xlink:href="#s6:arimo-italic:3" /><use x="16729" y="6552.2" xlink:href="#s6:arimo-italic:86" /><use x="17753" y="6552.2" xlink:href="#s6:arimo-italic:70" /><use x="18777" y="6552.2" xlink:href="#s6:arimo-italic:76" /><use x="19232" y="6552.2" xlink:href="#s6:arimo-italic:72" /><use x="20371" y="6552.2" xlink:href="#s6:arimo-italic:81" /><use x="21510" y="6552.2" xlink:href="#s6:arimo-italic:70" /><use x="22534" y="6552.2" xlink:href="#s6:arimo-italic:72" /><use x="23673" y="6552.2" xlink:href="#s6:arimo-italic:15" /><use x="24242" y="6552.2" xlink:href="#s6:arimo-italic:3" /><use x="24811" y="6552.2" xlink:href="#s6:arimo-italic:80" /><use x="26517" y="6552.2" xlink:href="#s6:arimo-italic:88" /><use x="27656" y="6552.2" xlink:href="#s6:arimo-italic:86" /><use x="28680" y="6552.2" xlink:href="#s6:arimo-italic:76" /><use x="29135" y="6552.2" xlink:href="#s6:arimo-italic:70" /><use x="30159" y="6552.2" xlink:href="#s6:arimo-italic:15" /><use x="30728" y="6552.2" xlink:href="#s6:arimo-italic:3" /><use x="31297" y="6552.2" xlink:href="#s6:arimo-italic:86" /><use x="32321" y="6552.2" xlink:href="#s6:arimo-italic:83" /><use x="33460" y="6552.2" xlink:href="#s6:arimo-italic:82" /><use x="34599" y="6552.2" xlink:href="#s6:arimo-italic:85" /><use x="35281" y="6552.2" xlink:href="#s6:arimo-italic:87" /><use x="35850" y="6552.2" xlink:href="#s6:arimo-italic:15" /><use x="36419" y="6552.2" xlink:href="#s6:arimo-italic:3" /><use x="36988" y="6552.2" xlink:href="#s6:arimo-italic:72" /><use x="38127" y="6552.2" xlink:href="#s6:arimo-italic:87" /><use x="38696" y="6552.2" xlink:href="#s6:arimo-italic:70" /><use x="39720" y="6552.2" xlink:href="#s6:arimo-italic:15" /></g></svg>