<svg xmlns="http://www.w3.org/2000/svg" xmlns:xlink="http://www.w3.org/1999/xlink" width="623" height="82" viewBox="0 0 53203 6986.2" ><defs><path id="s7:arimo-regular:55" d="M720-1253L720 0L530 0L530-1253L46-1253L46-1409L1204-1409L1204-1253L720-1253Z"/><path id="s7:arimo-regular:75" d="M317-897Q375-1003 456.50-1052.50Q538-1102 663-1102Q839-1102 922.50-1014.50Q1006-927 1006-721L1006 0L825 0L825-686Q825-800 804-855.50Q783-911 735-937Q687-963 602-963Q475-963 398.50-875Q322-787 322-638L322 0L142 0L142-1484L322-1484L322-1098Q322-1037 318.50-972Q315-907 314-897L317-897Z"/><path id="s7:arimo-regular:72" d="M276-503Q276-317 353-216Q430-115 578-115Q695-115 765.50-162Q836-209 861-281L1019-236Q922 20 578 20Q338 20 212.50-123Q87-266 87-548Q87-816 212.50-959Q338-1102 571-1102Q1048-1102 1048-527L1048-503L276-503M862-641Q847-812 775-890.50Q703-969 568-969Q437-969 360.50-881.50Q284-794 278-641L862-641Z"/><path id="s7:arimo-regular:3" d=""/><path id="s7:arimo-regular:40" d="M168 0L168-1409L1237-1409L1237-1253L359-1253L359-801L1177-801L1177-647L359-647L359-156L1278-156L1278 0L168 0Z"/><path id="s7:arimo-regular:88" d="M314-1082L314-396Q314-289 335-230Q356-171 402-145Q448-119 537-119Q667-119 742-208Q817-297 817-455L817-1082L997-1082L997-231Q997-42 1003 0L833 0Q832-5 831-27Q830-49 828.50-77.50Q827-106 825-185L822-185Q760-73 678.50-26.50Q597 20 476 20Q298 20 215.50-68.50Q133-157 133-361L133-1082L314-1082Z"/><path id="s7:arimo-regular:85" d="M142 0L142-830Q142-944 136-1082L306-1082Q314-898 314-861L318-861Q361-1000 417-1051Q473-1102 575-1102Q611-1102 648-1092L648-927Q612-937 552-937Q440-937 381-840.50Q322-744 322-564L322 0L142 0Z"/><path id="s7:arimo-regular:82" d="M1053-542Q1053-258 928-119Q803 20 565 20Q328 20 207-124.50Q86-269 86-542Q86-1102 571-1102Q819-1102 936-965.50Q1053-829 1053-542M864-542Q864-766 797.50-867.50Q731-969 574-969Q416-969 345.50-865.50Q275-762 275-542Q275-328 344.50-220.50Q414-113 563-113Q725-113 794.50-217Q864-321 864-542Z"/><path id="s7:arimo-regular:83" d="M1053-546Q1053 20 655 20Q405 20 319-168L314-168Q318-160 318 2L318 425L138 425L138-861Q138-1028 132-1082L306-1082Q307-1078 309-1053.50Q311-1029 313.50-978Q316-927 316-908L320-908Q368-1008 447-1054.50Q526-1101 655-1101Q855-1101 954-967Q1053-833 1053-546M864-542Q864-768 803-865Q742-962 609-962Q502-962 441.50-917Q381-872 349.50-776.50Q318-681 318-528Q318-315 386-214Q454-113 607-113Q741-113 802.50-211.50Q864-310 864-542Z"/><path id="s7:arimo-regular:68" d="M414 20Q251 20 169-66Q87-152 87-302Q87-470 197.50-560Q308-650 554-656L797-660L797-719Q797-851 741-908Q685-965 565-965Q444-965 389-924Q334-883 323-793L135-810Q181-1102 569-1102Q773-1102 876-1008.50Q979-915 979-738L979-272Q979-192 1000-151.50Q1021-111 1080-111Q1106-111 1139-118L1139-6Q1071 10 1000 10Q900 10 854.50-42.50Q809-95 803-207L797-207Q728-83 636.50-31.50Q545 20 414 20M455-115Q554-115 631-160Q708-205 752.50-283.50Q797-362 797-445L797-534L600-530Q473-528 407.50-504Q342-480 307-430Q272-380 272-299Q272-211 319.50-163Q367-115 455-115Z"/><path id="s7:arimo-regular:81" d="M825 0L825-686Q825-793 804-852Q783-911 737-937Q691-963 602-963Q472-963 397-874Q322-785 322-627L322 0L142 0L142-851Q142-1040 136-1082L306-1082Q307-1077 308-1055Q309-1033 310.50-1004.50Q312-976 314-897L317-897Q379-1009 460.50-1055.50Q542-1102 663-1102Q841-1102 923.50-1013.50Q1006-925 1006-721L1006 0L825 0Z"/><path id="s7:arimo-regular:79" d="M138 0L138-1484L318-1484L318 0L138 0Z"/><path id="s7:arimo-regular:74" d="M548 425Q371 425 266 355.50Q161 286 131 158L312 132Q330 207 391.50 247.50Q453 288 553 288Q822 288 822-27L822-201L820-201Q769-97 680-44.50Q591 8 472 8Q273 8 179.50-124Q86-256 86-539Q86-826 186.50-962.50Q287-1099 492-1099Q607-1099 691.50-1046.50Q776-994 822-897L824-897Q824-927 828-1001Q832-1075 836-1082L1007-1082Q1001-1028 1001-858L1001-31Q1001 425 548 425M822-541Q822-673 786-768.50Q750-864 684.50-914.50Q619-965 536-965Q398-965 335-865Q272-765 272-541Q272-319 331-222Q390-125 533-125Q618-125 684-175Q750-225 786-318.50Q822-412 822-541Z"/><path id="s7:arimo-regular:86" d="M950-299Q950-146 834.50-63Q719 20 511 20Q309 20 199.50-46.50Q90-113 57-254L216-285Q239-198 311-157.50Q383-117 511-117Q648-117 711.50-159Q775-201 775-285Q775-349 731-389Q687-429 589-455L460-489Q305-529 239.50-567.50Q174-606 137-661Q100-716 100-796Q100-944 205.50-1021.50Q311-1099 513-1099Q692-1099 797.50-1036Q903-973 931-834L769-814Q754-886 688.50-924.50Q623-963 513-963Q391-963 333-926Q275-889 275-814Q275-768 299-738Q323-708 370-687Q417-666 568-629Q711-593 774-562.50Q837-532 873.50-495Q910-458 930-409.50Q950-361 950-299Z"/><path id="s7:arimo-regular:80" d="M768 0L768-686Q768-843 725-903Q682-963 570-963Q455-963 388-875Q321-787 321-627L321 0L142 0L142-851Q142-1040 136-1082L306-1082Q307-1077 308-1055Q309-1033 310.50-1004.50Q312-976 314-897L317-897Q375-1012 450-1057Q525-1102 633-1102Q756-1102 827.50-1053Q899-1004 927-897L930-897Q986-1006 1065.50-1054Q1145-1102 1258-1102Q1422-1102 1496.50-1013Q1571-924 1571-721L1571 0L1393 0L1393-686Q1393-843 1350-903Q1307-963 1195-963Q1077-963 1011.50-875.50Q946-788 946-627L946 0L768 0Z"/><path id="s7:arimo-regular:69" d="M1053-546Q1053 20 655 20Q532 20 450.50-24.50Q369-69 318-168L316-168Q316-137 312-73.50Q308-10 306 0L132 0Q138-54 138-223L138-1484L318-1484L318-1061Q318-996 314-908L318-908Q368-1012 450.50-1057Q533-1102 655-1102Q860-1102 956.50-964Q1053-826 1053-546M864-540Q864-767 804-865Q744-963 609-963Q457-963 387.50-859Q318-755 318-529Q318-316 386-214.50Q454-113 607-113Q743-113 803.50-213.50Q864-314 864-540Z"/><path id="s7:arimo-regular:73" d="M361-951L361 0L181 0L181-951L29-951L29-1082L181-1082L181-1204Q181-1352 246-1417Q311-1482 445-1482Q520-1482 572-1470L572-1333Q527-1341 492-1341Q423-1341 392-1306Q361-1271 361-1179L361-1082L572-1082L572-951L361-951Z"/><path id="s7:arimo-regular:87" d="M554-8Q465 16 372 16Q156 16 156-229L156-951L31-951L31-1082L163-1082L216-1324L336-1324L336-1082L536-1082L536-951L336-951L336-268Q336-190 361.50-158.50Q387-127 450-127Q486-127 554-141L554-8Z"/><path id="s7:arimo-regular:76" d="M137-1312L137-1484L317-1484L317-1312L137-1312M137 0L137-1082L317-1082L317 0L137 0Z"/><path id="s7:arimo-regular:92" d="M191 425Q117 425 67 414L67 279Q105 285 151 285Q319 285 417 38L434-5L5-1082L197-1082L425-484Q430-470 437-450.50Q444-431 482-320Q520-209 523-196L593-393L830-1082L1020-1082L604 0Q537 173 479 257.50Q421 342 350.50 383.50Q280 425 191 425Z"/><path id="s7:arimo-regular:17" d="M187 0L187-219L382-219L382 0L187 0Z"/><path id="s7:arimo-regular:91" d="M801 0L510-444L217 0L23 0L408-556L41-1082L240-1082L510-661L778-1082L979-1082L612-558L1002 0L801 0Z"/><path id="s7:arimo-regular:70" d="M275-546Q275-330 343-226Q411-122 548-122Q644-122 708.50-174Q773-226 788-334L970-322Q949-166 837-73Q725 20 553 20Q326 20 206.50-123.50Q87-267 87-542Q87-815 207-958.50Q327-1102 551-1102Q717-1102 826.50-1016Q936-930 964-779L779-765Q765-855 708-908Q651-961 546-961Q403-961 339-866Q275-771 275-546Z"/><path id="s7:arimo-regular:41" d="M359-1253L359-729L1145-729L1145-571L359-571L359 0L168 0L168-1409L1169-1409L1169-1253L359-1253Z"/><path id="s7:arimo-regular:15" d="M385-219L385-51Q385 55 366 126Q347 197 307 262L184 262Q278 126 278 0L190 0L190-219L385-219Z"/></defs><g id="line-0"><use x="0" y="1637" xlink:href="#s7:arimo-regular:55" /><use x="1251" y="1637" xlink:href="#s7:arimo-regular:75" /><use x="2390" y="1637" xlink:href="#s7:arimo-regular:72" /><use x="3529" y="1637" xlink:href="#s7:arimo-regular:3" /><use x="4098" y="1637" xlink:href="#s7:arimo-regular:40" /><use x="5464" y="1637" xlink:href="#s7:arimo-regular:88" /><use x="6603" y="1637" xlink:href="#s7:arimo-regular:85" /><use x="7285" y="1637" xlink:href="#s7:arimo-regular:82" /><use x="8424" y="1637" xlink:href="#s7:arimo-regular:83" /><use x="9563" y="1637" xlink:href="#s7:arimo-regular:72" /><use x="10702" y="1637" xlink:href="#s7:arimo-regular:68" /><use x="11841" y="1637" xlink:href="#s7:arimo-regular:81" /><use x="12980" y="1637" xlink:href="#s7:arimo-regular:3" /><use x="13549" y="1637" xlink:href="#s7:arimo-regular:79" /><use x="14004" y="1637" xlink:href="#s7:arimo-regular:68" /><use x="15143" y="1637" xlink:href="#s7:arimo-regular:81" /><use x="16282" y="1637" xlink:href="#s7:arimo-regular:74" /><use x="17421" y="1637" xlink:href="#s7:arimo-regular:88" /><use x="18560" y="1637" xlink:href="#s7:arimo-regular:68" /><use x="19699" y="1637" xlink:href="#s7:arimo-regular:74" /><use x="20838" y="1637" xlink:href="#s7:arimo-regular:72" /><use x="21977" y="1637" xlink:href="#s7:arimo-regular:86" /><use x="23001" y="1637" xlink:href="#s7:arimo-regular:3" /><use x="23570" y="1637" xlink:href="#s7:arimo-regular:68" /><use x="24709" y="1637" xlink:href="#s7:arimo-regular:85" /><use x="25391" y="1637" xlink:href="#s7:arimo-regular:72" /><use x="26530" y="1637" xlink:href="#s7:arimo-regular:3" /><use x="27099" y="1637" xlink:href="#s7:arimo-regular:80" /><use x="28805" y="1637" xlink:href="#s7:arimo-regular:72" /><use x="29944" y="1637" xlink:href="#s7:arimo-regular:80" /><use x="31650" y="1637" xlink:href="#s7:arimo-regular:69" /><use x="32789" y="1637" xlink:href="#s7:arimo-regular:72" /><use x="33928" y="1637" xlink:href="#s7:arimo-regular:85" /><use x="34610" y="1637" xlink:href="#s7:arimo-regular:86" /><use x="35634" y="1637" xlink:href="#s7:arimo-regular:3" /><use x="36203" y="1637" xlink:href="#s7:arimo-regular:82" /><use x="37342" y="1637" xlink:href="#s7:arimo-regular:73" /><use x="37911" y="1637" xlink:href="#s7:arimo-regular:3" /><use x="38480" y="1637" xlink:href="#s7:arimo-regular:87" /><use x="39049" y="1637" xlink:href="#s7:arimo-regular:75" /><use x="40188" y="1637" xlink:href="#s7:arimo-regular:72" /><use x="41327" y="1637" xlink:href="#s7:arimo-regular:3" /><use x="41896" y="1637" xlink:href="#s7:arimo-regular:86" /><use x="42920" y="1637" xlink:href="#s7:arimo-regular:68" /><use x="44059" y="1637" xlink:href="#s7:arimo-regular:80" /><use x="45765" y="1637" xlink:href="#s7:arimo-regular:72" /><use x="46904" y="1637" xlink:href="#s7:arimo-regular:3" /><use x="47473" y="1637" xlink:href="#s7:arimo-regular:73" /><use x="48042" y="1637" xlink:href="#s7:arimo-regular:68" /><use x="49181" y="1637" xlink:href="#s7:arimo-regular:80" /><use x="50887" y="1637" xlink:href="#s7:arimo-regular:76" /><use x="51342" y="1637" xlink:href="#s7:arimo-regular:79" /><use x="51797" y="1637" xlink:href="#s7:arimo-regular:92" /><use x="52821" y="1637" xlink:href="#s7:arimo-regular:17" /></g><g id="line-1"><use x="10816" y="4094.6" xlink:href="#s7:arimo-regular:55" /><use x="12067" y="4094.6" xlink:href="#s7:arimo-regular:75" /><use x="13206" y="4094.6" xlink:href="#s7:arimo-regular:72" /><use x="14345" y="4094.6" xlink:href="#s7:arimo-regular:76" /><use x="14800" y="4094.6" xlink:href="#s7:arimo-regular:85" /><use x="15482" y="4094.6" xlink:href="#s7:arimo-regular:3" /><use x="16051" y="4094.6" xlink:href="#s7:arimo-regular:86" /><use x="17075" y="4094.6" xlink:href="#s7:arimo-regular:72" /><use x="18214" y="4094.6" xlink:href="#s7:arimo-regular:83" /><use x="19353" y="4094.6" xlink:href="#s7:arimo-regular:68" /><use x="20492" y="4094.6" xlink:href="#s7:arimo-regular:85" /><use x="21174" y="4094.6" xlink:href="#s7:arimo-regular:68" /><use x="22313" y="4094.6" xlink:href="#s7:arimo-regular:87" /><use x="22882" y="4094.6" xlink:href="#s7:arimo-regular:72" /><use x="24021" y="4094.6" xlink:href="#s7:arimo-regular:3" /><use x="24590" y="4094.6" xlink:href="#s7:arimo-regular:72" /><use x="25729" y="4094.6" xlink:href="#s7:arimo-regular:91" /><use x="26753" y="4094.6" xlink:href="#s7:arimo-regular:76" /><use x="27208" y="4094.6" xlink:href="#s7:arimo-regular:86" /><use x="28232" y="4094.6" xlink:href="#s7:arimo-regular:87" /><use x="28801" y="4094.6" xlink:href="#s7:arimo-regular:72" /><use x="29940" y="4094.6" xlink:href="#s7:arimo-regular:81" /><use x="31079" y="4094.6" xlink:href="#s7:arimo-regular:70" /><use x="32103" y="4094.6" xlink:href="#s7:arimo-regular:72" /><use x="33242" y="4094.6" xlink:href="#s7:arimo-regular:3" /><use x="33811" y="4094.6" xlink:href="#s7:arimo-regular:76" /><use x="34266" y="4094.6" xlink:href="#s7:arimo-regular:86" /><use x="35290" y="4094.6" xlink:href="#s7:arimo-regular:3" /><use x="35859" y="4094.6" xlink:href="#s7:arimo-regular:68" /><use x="36998" y="4094.6" xlink:href="#s7:arimo-regular:3" /><use x="37567" y="4094.6" xlink:href="#s7:arimo-regular:80" /><use x="39273" y="4094.6" xlink:href="#s7:arimo-regular:92" /><use x="40297" y="4094.6" xlink:href="#s7:arimo-regular:87" /><use x="40866" y="4094.6" xlink:href="#s7:arimo-regular:75" /><use x="42005" y="4094.6" xlink:href="#s7:arimo-regular:17" /></g><g id="line-2"><use x="13093" y="6552.2" xlink:href="#s7:arimo-regular:41" /><use x="14344" y="6552.2" xlink:href="#s7:arimo-regular:82" /><use x="15483" y="6552.2" xlink:href="#s7:arimo-regular:85" /><use x="16165" y="6552.2" xlink:href="#s7:arimo-regular:3" /><use x="16734" y="6552.2" xlink:href="#s7:arimo-regular:86" /><use x="17758" y="6552.2" xlink:href="#s7:arimo-regular:70" /><use x="18782" y="6552.2" xlink:href="#s7:arimo-regular:76" /><use x="19237" y="6552.2" xlink:href="#s7:arimo-regular:72" /><use x="20376" y="6552.2" xlink:href="#s7:arimo-regular:81" /><use x="21515" y="6552.2" xlink:href="#s7:arimo-regular:70" /><use x="22539" y="6552.2" xlink:href="#s7:arimo-regular:72" /><use x="23678" y="6552.2" xlink:href="#s7:arimo-regular:15" /><use x="24247" y="6552.2" xlink:href="#s7:arimo-regular:3" /><use x="24816" y="6552.2" xlink:href="#s7:arimo-regular:80" /><use x="26522" y="6552.2" xlink:href="#s7:arimo-regular:88" /><use x="27661" y="6552.2" xlink:href="#s7:arimo-regular:86" /><use x="28685" y="6552.2" xlink:href="#s7:arimo-regular:76" /><use x="29140" y="6552.2" xlink:href="#s7:arimo-regular:70" /><use x="30164" y="6552.2" xlink:href="#s7:arimo-regular:15" /><use x="30733" y="6552.2" xlink:href="#s7:arimo-regular:3" /><use x="31302" y="6552.2" xlink:href="#s7:arimo-regular:86" /><use x="32326" y="6552.2" xlink:href="#s7:arimo-regular:83" /><use x="33465" y="6552.2" xlink:href="#s7:arimo-regular:82" /><use x="34604" y="6552.2" xlink:href="#s7:arimo-regular:85" /><use x="35286" y="6552.2" xlink:href="#s7:arimo-regular:87" /><use x="35855" y="6552.2" xlink:href="#s7:arimo-regular:15" /><use x="36424" y="6552.2" xlink:href="#s7:arimo-regular:3" /><use x="36993" y="6552.2" xlink:href="#s7:arimo-regular:72" /><use x="38132" y="6552.2" xlink:href="#s7:arimo-regular:87" /><use x="38701" y="6552.2" xlink:href="#s7:arimo-regular:70" /><use x="39725" y="6552.2" xlink:href="#s7:arimo-regular:15" /></g></svg>