<svg xmlns="http://www.w3.org/2000/svg" xmlns:xlink="http://www.w3.org/1999/xlink" width="662" height="82" viewBox="0 0 56505 6986.2" ><defs><path id="s5:arimo-bolditalic:55" d="M895-1181L665 0L370 0L600-1181L145-1181L189-1409L1395-1409L1351-1181L895-1181Z"/><path id="s5:arimo-bolditalic:75" d="M601-1484L522-1079L483-897L486-897Q561-1001 651.50-1051Q742-1101 859-1101Q1011-1101 1088-1028Q1165-955 1165-817Q1165-792 1158-737.50Q1151-683 1144-653L1017 0L738 0L856-595Q882-719 882-760Q882-889 730-889Q629-889 543-807Q457-725 435-606L317 0L35 0L321-1484L601-1484Z"/><path id="s5:arimo-bolditalic:72" d="M358-476Q351-438 351-387Q351-281 397.50-224.50Q444-168 535-168Q682-168 748-337L993-263Q918-104 807-42Q696 20 516 20Q303 20 183-95.50Q63-211 63-418Q63-625 135-780.50Q207-936 339.50-1019Q472-1102 646-1102Q855-1102 968.50-994.50Q1082-887 1082-691Q1082-592 1058-476L358-476M822-663L825-719Q825-826 775.50-875Q726-924 646-924Q550-924 484.50-857.50Q419-791 391-663L822-663Z"/><path id="s5:arimo-bolditalic:3" d=""/><path id="s5:arimo-bolditalic:40" d="M36 0L309-1409L1417-1409L1373-1181L560-1181L491-827L1243-827L1199-599L447-599L375-228L1229-228L1184 0L36 0Z"/><path id="s5:arimo-bolditalic:88" d="M512-1082L394-487Q368-364 368-322Q368-193 520-193Q621-193 706.50-274Q792-355 815-476L933-1082L1215-1082L1049-231Q1033-152 1011 0L743 0Q743-9 752.50-84Q762-159 767-185L764-185Q688-78 597.50-29.50Q507 19 391 19Q239 19 162-54Q85-127 85-265Q85-290 92-345.50Q99-401 106-429L233-1082L512-1082Z"/><path id="s5:arimo-bolditalic:85" d="M844-853Q775-868 730-868Q607-868 529.50-781Q452-694 417-514L316 0L35 0L196-830Q220-950 238-1082L506-1082L484-910L476-861L480-861Q553-995 624-1048.50Q695-1102 787-1102Q834-1102 890-1088L844-853Z"/><path id="s5:arimo-bolditalic:82" d="M1185-683Q1185-476 1103.50-315Q1022-154 872.50-67Q723 20 535 20Q317 20 190-97.50Q63-215 63-419Q63-620 142.50-775Q222-930 369-1015.50Q516-1101 704-1101Q939-1101 1062-991.50Q1185-882 1185-683M891-662Q891-909 683-909Q569-909 501.50-849Q434-789 396-666.50Q358-544 358-431Q358-172 566-172Q678-172 743.50-228.50Q809-285 846.50-400Q884-515 891-662Z"/><path id="s5:arimo-bolditalic:83" d="M728-907Q602-907 526.50-819Q451-731 417-554Q400-461 400-401Q400-294 453-233.50Q506-173 601-173Q703-173 762-237Q821-301 855-443Q889-585 889-694Q889-800 850.50-853.50Q812-907 728-907M493-913Q565-1013 647.50-1057.50Q730-1102 848-1102Q1007-1102 1096-1007.50Q1185-913 1185-748Q1185-546 1123-354.50Q1061-163 948.50-71.50Q836 20 662 20Q537 20 459-32Q381-84 349-178L347-178Q340-116 315 10L235 425L-45 425L198-833L218-943L237-1082L512-1082Q512-1068 504.50-1004.50Q497-941 489-913L493-913Z"/><path id="s5:arimo-bolditalic:68" d="M892 10Q792 10 738-32Q684-74 684-143Q684-180 689-207L683-207Q599-77 517-28.50Q435 20 317 20Q177 20 93.50-63.50Q10-147 10-278Q10-463 137.50-557.50Q265-652 551-657L742-660Q763-755 763-791Q763-919 636-919Q542-919 496-882.50Q450-846 433-777L170-808Q204-952 323.50-1027Q443-1102 641-1102Q848-1102 944.50-1029Q1041-956 1041-807Q1041-770 1017-650L946-297Q938-252 938-225Q938-201 948-188Q958-175 971-169Q984-163 997-161.50Q1010-160 1017-160Q1047-160 1079-167L1065-12Q1023 4 980 7Q937 10 892 10M711-503L549-503Q432-501 364.50-455Q297-409 297-325Q297-255 336.50-215.50Q376-176 443-176Q526-176 594-240.50Q662-305 689-411L711-503Z"/><path id="s5:arimo-bolditalic:81" d="M738 0L856-595Q882-719 882-760Q882-889 730-889Q629-889 543-807Q457-725 435-606L317 0L35 0L201-851Q217-930 239-1082L507-1082Q507-1073 497.50-998Q488-923 483-897L486-897Q561-1001 651.50-1051Q742-1101 859-1101Q1011-1101 1088-1028Q1165-955 1165-817Q1165-792 1158-737.50Q1151-683 1144-653L1017 0L738 0Z"/><path id="s5:arimo-bolditalic:79" d="M35 0L323-1484L604-1484L315 0L35 0Z"/><path id="s5:arimo-bolditalic:74" d="M431 425Q232 425 125 356Q18 287-7 142L276 112Q303 239 464 239Q574 239 635 180Q696 121 730-27Q750-123 761-201L759-201Q696-112 648.50-73Q601-34 541.50-13Q482 8 405 8Q250 8 157.50-92Q65-192 65-356Q65-557 128.50-741.50Q192-926 303.50-1013.50Q415-1101 586-1101Q704-1101 789-1045Q874-989 901-893L903-893Q909-922 927.50-998Q946-1074 951-1082L1216-1082L1197-999L1167-853L1002-10Q955 223 820 324Q685 425 431 425M846-686Q846-790 794-849.50Q742-909 648-909Q572-909 522.50-877Q473-845 438.50-773.50Q404-702 381.50-585.50Q359-469 359-396Q359-197 532-197Q621-197 694-264Q767-331 806.50-446.50Q846-562 846-686Z"/><path id="s5:arimo-bolditalic:86" d="M1000-334Q1000-160 871.50-70Q743 20 497 20Q296 20 180-51Q64-122 23-271L274-307Q295-232 351-199Q407-166 517-166Q626-166 682.50-201Q739-236 739-302Q739-354 697.50-381.50Q656-409 515-439Q316-484 234.50-563.50Q153-643 153-769Q153-929 278.50-1014Q404-1099 637-1099Q843-1099 944-1028.50Q1045-958 1069-811L818-782Q801-851 752-882Q703-913 618-913Q413-913 413-793Q413-760 433-738Q453-716 490-700Q527-684 668-651Q850-610 925-534Q1000-458 1000-334Z"/><path id="s5:arimo-bolditalic:80" d="M1322-892Q1231-892 1164-815Q1097-738 1071-607L952 0L673 0L796-635Q813-726 813-771Q813-892 687-892Q599-892 530.50-816.50Q462-741 435-604L317 0L35 0L201-851Q221-946 240-1082L512-1082Q512-1071 501.50-1004.50Q491-938 484-897L487-897Q564-1013 638.50-1057Q713-1101 815-1101Q939-1101 1011-1041.50Q1083-982 1097-869Q1177-994 1259.50-1047.50Q1342-1101 1451-1101Q1589-1101 1662.50-1028Q1736-955 1736-817Q1736-753 1715-653L1587 0L1308 0L1430-627Q1448-717 1448-766L1448-771Q1445-892 1322-892Z"/><path id="s5:arimo-bolditalic:69" d="M855-1102Q1014-1102 1103-1007.50Q1192-913 1192-748L1192-734Q1192-546 1130-354.50Q1068-163 955.50-71.50Q843 20 669 20Q544 20 466-32Q388-84 356-178L354-178L326-67L306 0L35 0Q40-15 54.50-82Q69-149 84-223L330-1484L611-1484L527-1057Q499-913 495-913L499-913Q555-997 644.50-1049.50Q734-1102 855-1102M735-907Q609-907 533.50-819Q458-731 424-554Q407-461 407-401Q407-294 460-233.50Q513-173 608-173Q709-173 766-235.50Q823-298 861-447.50Q899-597 899-694Q899-799 863.50-853Q828-907 735-907Z"/><path id="s5:arimo-bolditalic:73" d="M528-892L354 0L74 0L248-892L90-892L127-1082L285-1082L307-1195Q337-1350 431.50-1417Q526-1484 698-1484Q771-1484 853-1467L817-1286Q806-1288 774-1292Q742-1296 721-1296Q654-1296 624-1264Q594-1232 581-1167L565-1082L778-1082L741-892L528-892Z"/><path id="s5:arimo-bolditalic:87" d="M376 16Q252 16 184-42.50Q116-101 116-209Q116-280 132-366L234-892L86-892L123-1082L285-1082L422-1336L598-1336L550-1082L752-1082L717-892L512-892L408-357Q397-301 397-268Q397-222 420.50-199.50Q444-177 484-177Q516-177 592-190L560-8Q479 16 376 16Z"/><path id="s5:arimo-bolditalic:76" d="M282-1277L323-1484L604-1484L563-1277L282-1277M35 0L245-1082L526-1082L315 0L35 0Z"/><path id="s5:arimo-bolditalic:92" d="M88 425Q-9 425-85 407L-47 211Q-7 220 40 220Q118 220 177.50 174Q237 128 296 24L324-24L112-1082L403-1082L474-585Q480-554 495.50-407Q511-260 509-251L526-288L665-581L924-1082L1224-1082L570 57Q463 224 395.50 292Q328 360 254.50 392.50Q181 425 88 425Z"/><path id="s5:arimo-bolditalic:17" d="M46 0L105-305L394-305L335 0L46 0Z"/><path id="s5:arimo-bolditalic:91" d="M724 0L538-383L211 0L-90 0L418-562L139-1082L431-1082L604-735L900-1082L1208-1082L725-557L1019 0L724 0Z"/><path id="s5:arimo-bolditalic:70" d="M536-173Q619-173 673-225.50Q727-278 759-381L1030-331Q923 20 520 20Q300 20 181.50-92.50Q63-205 63-405Q63-600 142-771Q221-942 352.50-1022Q484-1102 680-1102Q869-1102 982-1006.50Q1095-911 1109-741L825-718Q814-909 658-909Q551-909 490.50-835.50Q430-762 381-575Q358-460 358-407Q358-173 536-173Z"/><path id="s5:arimo-bolditalic:41" d="M560-1181L475-745L1143-745L1099-517L431-517L330 0L36 0L309-1409L1295-1409L1251-1181L560-1181Z"/><path id="s5:arimo-bolditalic:15" d="M165 317L-20 317Q58 239 109.50 156Q161 73 175 0L46 0L105-305L394-305L347-66Q324 54 281 145.50Q238 237 165 317Z"/></defs><g id="line-0"><use x="0" y="1637" xlink:href="#s5:arimo-bolditalic:55" /><use x="1251" y="1637" xlink:href="#s5:arimo-bolditalic:75" /><use x="2502" y="1637" xlink:href="#s5:arimo-bolditalic:72" /><use x="3641" y="1637" xlink:href="#s5:arimo-bolditalic:3" /><use x="4210" y="1637" xlink:href="#s5:arimo-bolditalic:40" /><use x="5576" y="1637" xlink:href="#s5:arimo-bolditalic:88" /><use x="6827" y="1637" xlink:href="#s5:arimo-bolditalic:85" /><use x="7624" y="1637" xlink:href="#s5:arimo-bolditalic:82" /><use x="8875" y="1637" xlink:href="#s5:arimo-bolditalic:83" /><use x="10126" y="1637" xlink:href="#s5:arimo-bolditalic:72" /><use x="11265" y="1637" xlink:href="#s5:arimo-bolditalic:68" /><use x="12404" y="1637" xlink:href="#s5:arimo-bolditalic:81" /><use x="13655" y="1637" xlink:href="#s5:arimo-bolditalic:3" /><use x="14224" y="1637" xlink:href="#s5:arimo-bolditalic:79" /><use x="14793" y="1637" xlink:href="#s5:arimo-bolditalic:68" /><use x="15932" y="1637" xlink:href="#s5:arimo-bolditalic:81" /><use x="17183" y="1637" xlink:href="#s5:arimo-bolditalic:74" /><use x="18434" y="1637" xlink:href="#s5:arimo-bolditalic:88" /><use x="19685" y="1637" xlink:href="#s5:arimo-bolditalic:68" /><use x="20824" y="1637" xlink:href="#s5:arimo-bolditalic:74" /><use x="22075" y="1637" xlink:href="#s5:arimo-bolditalic:72" /><use x="23214" y="1637" xlink:href="#s5:arimo-bolditalic:86" /><use x="24353" y="1637" xlink:href="#s5:arimo-bolditalic:3" /><use x="24922" y="1637" xlink:href="#s5:arimo-bolditalic:68" /><use x="26061" y="1637" xlink:href="#s5:arimo-bolditalic:85" /><use x="26858" y="1637" xlink:href="#s5:arimo-bolditalic:72" /><use x="27997" y="1637" xlink:href="#s5:arimo-bolditalic:3" /><use x="28566" y="1637" xlink:href="#s5:arimo-bolditalic:80" /><use x="30387" y="1637" xlink:href="#s5:arimo-bolditalic:72" /><use x="31526" y="1637" xlink:href="#s5:arimo-bolditalic:80" /><use x="33347" y="1637" xlink:href="#s5:arimo-bolditalic:69" /><use x="34598" y="1637" xlink:href="#s5:arimo-bolditalic:72" /><use x="35737" y="1637" xlink:href="#s5:arimo-bolditalic:85" /><use x="36534" y="1637" xlink:href="#s5:arimo-bolditalic:86" /><use x="37673" y="1637" xlink:href="#s5:arimo-bolditalic:3" /><use x="38242" y="1637" xlink:href="#s5:arimo-bolditalic:82" /><use x="39493" y="1637" xlink:href="#s5:arimo-bolditalic:73" /><use x="40175" y="1637" xlink:href="#s5:arimo-bolditalic:3" /><use x="40744" y="1637" xlink:href="#s5:arimo-bolditalic:87" /><use x="41426" y="1637" xlink:href="#s5:arimo-bolditalic:75" /><use x="42677" y="1637" xlink:href="#s5:arimo-bolditalic:72" /><use x="43816" y="1637" xlink:href="#s5:arimo-bolditalic:3" /><use x="44385" y="1637" xlink:href="#s5:arimo-bolditalic:86" /><use x="45524" y="1637" xlink:href="#s5:arimo-bolditalic:68" /><use x="46663" y="1637" xlink:href="#s5:arimo-bolditalic:80" /><use x="48484" y="1637" xlink:href="#s5:arimo-bolditalic:72" /><use x="49623" y="1637" xlink:href="#s5:arimo-bolditalic:3" /><use x="50192" y="1637" xlink:href="#s5:arimo-bolditalic:73" /><use x="50874" y="1637" xlink:href="#s5:arimo-bolditalic:68" /><use x="52013" y="1637" xlink:href="#s5:arimo-bolditalic:80" /><use x="53834" y="1637" xlink:href="#s5:arimo-bolditalic:76" /><use x="54403" y="1637" xlink:href="#s5:arimo-bolditalic:79" /><use x="54972" y="1637" xlink:href="#s5:arimo-bolditalic:92" /><use x="56111" y="1637" xlink:href="#s5:arimo-bolditalic:17" /></g><g id="line-1"><use x="11379" y="4094.6" xlink:href="#s5:arimo-bolditalic:55" /><use x="12630" y="4094.6" xlink:href="#s5:arimo-bolditalic:75" /><use x="13881" y="4094.6" xlink:href="#s5:arimo-bolditalic:72" /><use x="15020" y="4094.6" xlink:href="#s5:arimo-bolditalic:76" /><use x="15589" y="4094.6" xlink:href="#s5:arimo-bolditalic:85" /><use x="16386" y="4094.6" xlink:href="#s5:arimo-bolditalic:3" /><use x="16955" y="4094.6" xlink:href="#s5:arimo-bolditalic:86" /><use x="18094" y="4094.6" xlink:href="#s5:arimo-bolditalic:72" /><use x="19233" y="4094.6" xlink:href="#s5:arimo-bolditalic:83" /><use x="20484" y="4094.6" xlink:href="#s5:arimo-bolditalic:68" /><use x="21623" y="4094.6" xlink:href="#s5:arimo-bolditalic:85" /><use x="22420" y="4094.6" xlink:href="#s5:arimo-bolditalic:68" /><use x="23559" y="4094.6" xlink:href="#s5:arimo-bolditalic:87" /><use x="24241" y="4094.6" xlink:href="#s5:arimo-bolditalic:72" /><use x="25380" y="4094.6" xlink:href="#s5:arimo-bolditalic:3" /><use x="25949" y="4094.6" xlink:href="#s5:arimo-bolditalic:72" /><use x="27088" y="4094.6" xlink:href="#s5:arimo-bolditalic:91" /><use x="28227" y="4094.6" xlink:href="#s5:arimo-bolditalic:76" /><use x="28796" y="4094.6" xlink:href="#s5:arimo-bolditalic:86" /><use x="29935" y="4094.6" xlink:href="#s5:arimo-bolditalic:87" /><use x="30617" y="4094.6" xlink:href="#s5:arimo-bolditalic:72" /><use x="31756" y="4094.6" xlink:href="#s5:arimo-bolditalic:81" /><use x="33007" y="4094.6" xlink:href="#s5:arimo-bolditalic:70" /><use x="34146" y="4094.6" xlink:href="#s5:arimo-bolditalic:72" /><use x="35285" y="4094.6" xlink:href="#s5:arimo-bolditalic:3" /><use x="35854" y="4094.6" xlink:href="#s5:arimo-bolditalic:76" /><use x="36423" y="4094.6" xlink:href="#s5:arimo-bolditalic:86" /><use x="37562" y="4094.6" xlink:href="#s5:arimo-bolditalic:3" /><use x="38131" y="4094.6" xlink:href="#s5:arimo-bolditalic:68" /><use x="39270" y="4094.6" xlink:href="#s5:arimo-bolditalic:3" /><use x="39839" y="4094.6" xlink:href="#s5:arimo-bolditalic:80" /><use x="41660" y="4094.6" xlink:href="#s5:arimo-bolditalic:92" /><use x="42799" y="4094.6" xlink:href="#s5:arimo-bolditalic:87" /><use x="43481" y="4094.6" xlink:href="#s5:arimo-bolditalic:75" /><use x="44732" y="4094.6" xlink:href="#s5:arimo-bolditalic:17" /></g><g id="line-2"><use x="13657.5" y="6552.2" xlink:href="#s5:arimo-bolditalic:41" /><use x="14908.5" y="6552.2" xlink:href="#s5:arimo-bolditalic:82" /><use x="16159.5" y="6552.2" xlink:href="#s5:arimo-bolditalic:85" /><use x="16956.5" y="6552.2" xlink:href="#s5:arimo-bolditalic:3" /><use x="17525.5" y="6552.2" xlink:href="#s5:arimo-bolditalic:86" /><use x="18664.5" y="6552.2" xlink:href="#s5:arimo-bolditalic:70" /><use x="19803.5" y="6552.2" xlink:href="#s5:arimo-bolditalic:76" /><use x="20372.5" y="6552.2" xlink:href="#s5:arimo-bolditalic:72" /><use x="21511.5" y="6552.2" xlink:href="#s5:arimo-bolditalic:81" /><use x="22762.5" y="6552.2" xlink:href="#s5:arimo-bolditalic:70" /><use x="23901.5" y="6552.2" xlink:href="#s5:arimo-bolditalic:72" /><use x="25040.5" y="6552.2" xlink:href="#s5:arimo-bolditalic:15" /><use x="25609.5" y="6552.2" xlink:href="#s5:arimo-bolditalic:3" /><use x="26178.5" y="6552.2" xlink:href="#s5:arimo-bolditalic:80" /><use x="27999.5" y="6552.2" xlink:href="#s5:arimo-bolditalic:88" /><use x="29250.5" y="6552.2" xlink:href="#s5:arimo-bolditalic:86" /><use x="30389.5" y="6552.2" xlink:href="#s5:arimo-bolditalic:76" /><use x="30958.5" y="6552.2" xlink:href="#s5:arimo-bolditalic:70" /><use x="32097.5" y="6552.2" xlink:href="#s5:arimo-bolditalic:15" /><use x="32666.5" y="6552.2" xlink:href="#s5:arimo-bolditalic:3" /><use x="33235.5" y="6552.2" xlink:href="#s5:arimo-bolditalic:86" /><use x="34374.5" y="6552.2" xlink:href="#s5:arimo-bolditalic:83" /><use x="35625.5" y="6552.2" xlink:href="#s5:arimo-bolditalic:82" /><use x="36876.5" y="6552.2" xlink:href="#s5:arimo-bolditalic:85" /><use x="37673.5" y="6552.2" xlink:href="#s5:arimo-bolditalic:87" /><use x="38355.5" y="6552.2" xlink:href="#s5:arimo-bolditalic:15" /><use x="38924.5" y="6552.2" xlink:href="#s5:arimo-bolditalic:3" /><use x="39493.5" y="6552.2" xlink:href="#s5:arimo-bolditalic:72" /><use x="40632.5" y="6552.2" xlink:href="#s5:arimo-bolditalic:87" /><use x="41314.5" y="6552.2" xlink:href="#s5:arimo-bolditalic:70" /><use x="42453.5" y="6552.2" xlink:href="#s5:arimo-bolditalic:15" /></g></svg>