<svg xmlns="http://www.w3.org/2000/svg" xmlns:xlink="http://www.w3.org/1999/xlink" width="663" height="82" viewBox="0 0 56539 6986.2"><defs><path id="s4:arimo-bold:55" d="M773-1181L773 0L478 0L478-1181L23-1181L23-1409L1229-1409L1229-1181L773-1181Z"/><path id="s4:arimo-bold:75" d="M420-866Q477-990 563-1046Q649-1102 768-1102Q940-1102 1032-996Q1124-890 1124-686L1124 0L844 0L844-606Q844-891 651-891Q549-891 486.50-803.50Q424-716 424-579L424 0L143 0L143-1484L424-1484L424-1079Q424-970 416-866L420-866Z"/><path id="s4:arimo-bold:72" d="M586 20Q342 20 211-124.50Q80-269 80-546Q80-814 213-958Q346-1102 590-1102Q823-1102 946-947.50Q1069-793 1069-495L1069-487L375-487Q375-329 433.50-248.50Q492-168 600-168Q749-168 788-297L1053-274Q938 20 586 20M586-925Q487-925 433.50-856Q380-787 377-663L797-663Q789-794 734-859.50Q679-925 586-925Z"/><path id="s4:arimo-bold:3" d=""/><path id="s4:arimo-bold:40" d="M137 0L137-1409L1245-1409L1245-1181L432-1181L432-827L1184-827L1184-599L432-599L432-228L1286-228L1286 0L137 0Z"/><path id="s4:arimo-bold:88" d="M408-1082L408-475Q408-190 600-190Q702-190 764.50-277.50Q827-365 827-502L827-1082L1108-1082L1108-242Q1108-104 1116 0L848 0Q836-144 836-215L831-215Q775-92 688.50-36Q602 20 483 20Q311 20 219-85.50Q127-191 127-395L127-1082L408-1082Z"/><path id="s4:arimo-bold:85" d="M143 0L143-828Q143-917 140.50-976.50Q138-1036 135-1082L403-1082Q406-1064 411-972.50Q416-881 416-851L420-851Q461-965 493-1011.50Q525-1058 569-1080.50Q613-1103 679-1103Q733-1103 766-1088L766-853Q698-868 646-868Q541-868 482.50-783Q424-698 424-531L424 0L143 0Z"/><path id="s4:arimo-bold:82" d="M1171-542Q1171-279 1025-129.50Q879 20 621 20Q368 20 224-130Q80-280 80-542Q80-803 224-952.50Q368-1102 627-1102Q892-1102 1031.50-957.50Q1171-813 1171-542M877-542Q877-735 814-822Q751-909 631-909Q375-909 375-542Q375-361 437.50-266.50Q500-172 618-172Q877-172 877-542Z"/><path id="s4:arimo-bold:83" d="M1167-546Q1167-275 1058.50-127.50Q950 20 752 20Q638 20 553.50-29.50Q469-79 424-172L418-172Q424-142 424 10L424 425L143 425L143-833Q143-986 135-1082L408-1082Q413-1064 416.50-1011Q420-958 420-906L424-906Q519-1105 770-1105Q959-1105 1063-959.50Q1167-814 1167-546M874-546Q874-910 651-910Q539-910 479.50-812Q420-714 420-538Q420-363 479.50-267.50Q539-172 649-172Q874-172 874-546Z"/><path id="s4:arimo-bold:68" d="M393 20Q236 20 148-65.50Q60-151 60-306Q60-474 169.50-562Q279-650 487-652L720-656L720-711Q720-817 683-868.50Q646-920 562-920Q484-920 447.50-884.50Q411-849 402-767L109-781Q136-939 253.50-1020.50Q371-1102 574-1102Q779-1102 890-1001Q1001-900 1001-714L1001-320Q1001-229 1021.50-194.50Q1042-160 1090-160Q1122-160 1152-166L1152-14Q1127-8 1107-3Q1087 2 1067 5Q1047 8 1024.50 10Q1002 12 972 12Q866 12 815.50-40Q765-92 755-193L749-193Q631 20 393 20M720-501L576-499Q478-495 437-477.50Q396-460 374.50-424Q353-388 353-328Q353-251 388.50-213.50Q424-176 483-176Q549-176 603.50-212Q658-248 689-311.50Q720-375 720-446L720-501Z"/><path id="s4:arimo-bold:81" d="M844 0L844-607Q844-892 651-892Q549-892 486.50-804.50Q424-717 424-580L424 0L143 0L143-840Q143-927 140.50-982.50Q138-1038 135-1082L403-1082Q406-1063 411-980.50Q416-898 416-867L420-867Q477-991 563-1047Q649-1103 768-1103Q940-1103 1032-997Q1124-891 1124-687L1124 0L844 0Z"/><path id="s4:arimo-bold:79" d="M143 0L143-1484L424-1484L424 0L143 0Z"/><path id="s4:arimo-bold:74" d="M596 434Q398 434 277.50 358.50Q157 283 129 143L410 110Q425 175 474.50 212Q524 249 604 249Q721 249 775 177Q829 105 829-37L829-94L831-201L829-201Q736-2 481-2Q292-2 188-144Q84-286 84-550Q84-815 191-959Q298-1103 502-1103Q738-1103 829-908L834-908Q834-943 838.50-1003Q843-1063 848-1082L1114-1082Q1108-974 1108-832L1108-33Q1108 198 977 316Q846 434 596 434M831-556Q831-723 771.50-816.50Q712-910 602-910Q377-910 377-550Q377-197 600-197Q712-197 771.50-290.50Q831-384 831-556Z"/><path id="s4:arimo-bold:86" d="M1055-316Q1055-159 926.50-69.50Q798 20 571 20Q348 20 229.50-50.50Q111-121 72-270L319-307Q340-230 391.50-198Q443-166 571-166Q689-166 743-196Q797-226 797-290Q797-342 753.50-372.50Q710-403 606-424Q368-471 285-511.50Q202-552 158.50-616.50Q115-681 115-775Q115-930 234.50-1016.50Q354-1103 573-1103Q766-1103 883.50-1028Q1001-953 1030-811L781-785Q769-851 722-883.50Q675-916 573-916Q473-916 423-890.50Q373-865 373-805Q373-758 411.50-730.50Q450-703 541-685Q668-659 766.50-631.50Q865-604 924.50-566Q984-528 1019.50-468.50Q1055-409 1055-316Z"/><path id="s4:arimo-bold:80" d="M780 0L780-607Q780-892 616-892Q531-892 477.50-805Q424-718 424-580L424 0L143 0L143-840Q143-927 140.50-982.50Q138-1038 135-1082L403-1082Q406-1063 411-980.50Q416-898 416-867L420-867Q472-991 549.50-1047Q627-1103 735-1103Q983-1103 1036-867L1042-867Q1097-993 1174-1048Q1251-1103 1370-1103Q1528-1103 1611-995.50Q1694-888 1694-687L1694 0L1415 0L1415-607Q1415-892 1251-892Q1169-892 1116.50-812.50Q1064-733 1059-593L1059 0L780 0Z"/><path id="s4:arimo-bold:69" d="M1167-545Q1167-277 1059.50-128.50Q952 20 752 20Q637 20 553-30Q469-80 424-174L422-174Q422-139 417.50-78Q413-17 408 0L135 0Q143-93 143-247L143-1484L424-1484L424-1070L420-894L424-894Q519-1102 770-1102Q962-1102 1064.50-956.50Q1167-811 1167-545M874-545Q874-729 820-818Q766-907 653-907Q539-907 479.50-811.50Q420-716 420-536Q420-364 478.50-268Q537-172 651-172Q874-172 874-545Z"/><path id="s4:arimo-bold:73" d="M473-892L473 0L193 0L193-892L35-892L35-1082L193-1082L193-1195Q193-1342 271-1413Q349-1484 508-1484Q587-1484 686-1468L686-1287Q645-1296 604-1296Q532-1296 502.50-1267.50Q473-1239 473-1167L473-1082L686-1082L686-892L473-892Z"/><path id="s4:arimo-bold:87" d="M420 18Q296 18 229-49.50Q162-117 162-254L162-892L25-892L25-1082L176-1082L264-1336L440-1336L440-1082L645-1082L645-892L440-892L440-330Q440-251 470-213.50Q500-176 563-176Q596-176 657-190L657-16Q553 18 420 18Z"/><path id="s4:arimo-bold:76" d="M143-1277L143-1484L424-1484L424-1277L143-1277M143 0L143-1082L424-1082L424 0L143 0Z"/><path id="s4:arimo-bold:92" d="M283 425Q182 425 106 412L106 212Q159 220 203 220Q263 220 302.50 201Q342 182 373.50 138Q405 94 444-11L16-1082L313-1082L483-575Q523-466 584-241L609-336L674-571L834-1082L1128-1082L700 57Q614 265 521.50 345Q429 425 283 425Z"/><path id="s4:arimo-bold:17" d="M139 0L139-305L428-305L428 0L139 0Z"/><path id="s4:arimo-bold:91" d="M819 0L567-392L313 0L14 0L410-559L33-1082L336-1082L567-728L797-1082L1102-1082L725-562L1124 0L819 0Z"/><path id="s4:arimo-bold:70" d="M594 20Q348 20 214-126.50Q80-273 80-535Q80-803 215-952.50Q350-1102 598-1102Q789-1102 914-1006Q1039-910 1071-741L788-727Q776-810 728-859.50Q680-909 592-909Q375-909 375-546Q375-172 596-172Q676-172 730-222.50Q784-273 797-373L1079-360Q1064-249 999.50-162Q935-75 830-27.50Q725 20 594 20Z"/><path id="s4:arimo-bold:41" d="M432-1181L432-745L1153-745L1153-517L432-517L432 0L137 0L137-1409L1176-1409L1176-1181L432-1181Z"/><path id="s4:arimo-bold:15" d="M432-66Q432 54 406.50 146Q381 238 324 317L139 317Q198 246 235 161Q272 76 272 0L143 0L143-305L432-305L432-66Z"/></defs><g id="line-0"><use x="0" y="1637" xlink:href="#s4:arimo-bold:55"/><use x="1251" y="1637" xlink:href="#s4:arimo-bold:75"/><use x="2502" y="1637" xlink:href="#s4:arimo-bold:72"/><use x="3641" y="1637" xlink:href="#s4:arimo-bold:3"/><use x="4210" y="1637" xlink:href="#s4:arimo-bold:40"/><use x="5576" y="1637" xlink:href="#s4:arimo-bold:88"/><use x="6827" y="1637" xlink:href="#s4:arimo-bold:85"/><use x="7624" y="1637" xlink:href="#s4:arimo-bold:82"/><use x="8875" y="1637" xlink:href="#s4:arimo-bold:83"/><use x="10126" y="1637" xlink:href="#s4:arimo-bold:72"/><use x="11265" y="1637" xlink:href="#s4:arimo-bold:68"/><use x="12404" y="1637" xlink:href="#s4:arimo-bold:81"/><use x="13655" y="1637" xlink:href="#s4:arimo-bold:3"/><use x="14224" y="1637" xlink:href="#s4:arimo-bold:79"/><use x="14793" y="1637" xlink:href="#s4:arimo-bold:68"/><use x="15932" y="1637" xlink:href="#s4:arimo-bold:81"/><use x="17183" y="1637" xlink:href="#s4:arimo-bold:74"/><use x="18434" y="1637" xlink:href="#s4:arimo-bold:88"/><use x="19685" y="1637" xlink:href="#s4:arimo-bold:68"/><use x="20824" y="1637" xlink:href="#s4:arimo-bold:74"/><use x="22075" y="1637" xlink:href="#s4:arimo-bold:72"/><use x="23214" y="1637" xlink:href="#s4:arimo-bold:86"/><use x="24353" y="1637" xlink:href="#s4:arimo-bold:3"/><use x="24922" y="1637" xlink:href="#s4:arimo-bold:68"/><use x="26061" y="1637" xlink:href="#s4:arimo-bold:85"/><use x="26858" y="1637" xlink:href="#s4:arimo-bold:72"/><use x="27997" y="1637" xlink:href="#s4:arimo-bold:3"/><use x="28566" y="1637" xlink:href="#s4:arimo-bold:80"/><use x="30387" y="1637" xlink:href="#s4:arimo-bold:72"/><use x="31526" y="1637" xlink:href="#s4:arimo-bold:80"/><use x="33347" y="1637" xlink:href="#s4:arimo-bold:69"/><use x="34598" y="1637" xlink:href="#s4:arimo-bold:72"/><use x="35737" y="1637" xlink:href="#s4:arimo-bold:85"/><use x="36534" y="1637" xlink:href="#s4:arimo-bold:86"/><use x="37673" y="1637" xlink:href="#s4:arimo-bold:3"/><use x="38242" y="1637" xlink:href="#s4:arimo-bold:82"/><use x="39493" y="1637" xlink:href="#s4:arimo-bold:73"/><use x="40175" y="1637" xlink:href="#s4:arimo-bold:3"/><use x="40744" y="1637" xlink:href="#s4:arimo-bold:87"/><use x="41426" y="1637" xlink:href="#s4:arimo-bold:75"/><use x="42677" y="1637" xlink:href="#s4:arimo-bold:72"/><use x="43816" y="1637" xlink:href="#s4:arimo-bold:3"/><use x="44385" y="1637" xlink:href="#s4:arimo-bold:86"/><use x="45524" y="1637" xlink:href="#s4:arimo-bold:68"/><use x="46663" y="1637" xlink:href="#s4:arimo-bold:80"/><use x="48484" y="1637" xlink:href="#s4:arimo-bold:72"/><use x="49623" y="1637" xlink:href="#s4:arimo-bold:3"/><use x="50192" y="1637" xlink:href="#s4:arimo-bold:73"/><use x="50874" y="1637" xlink:href="#s4:arimo-bold:68"/><use x="52013" y="1637" xlink:href="#s4:arimo-bold:80"/><use x="53834" y="1637" xlink:href="#s4:arimo-bold:76"/><use x="54403" y="1637" xlink:href="#s4:arimo-bold:79"/><use x="54972" y="1637" xlink:href="#s4:arimo-bold:92"/><use x="56111" y="1637" xlink:href="#s4:arimo-bold:17"/></g><g id="line-1"><use x="11379" y="4094.6" xlink:href="#s4:arimo-bold:55"/><use x="12630" y="4094.6" xlink:href="#s4:arimo-bold:75"/><use x="13881" y="4094.6" xlink:href="#s4:arimo-bold:72"/><use x="15020" y="4094.6" xlink:href="#s4:arimo-bold:76"/><use x="15589" y="4094.6" xlink:href="#s4:arimo-bold:85"/><use x="16386" y="4094.6" xlink:href="#s4:arimo-bold:3"/><use x="16955" y="4094.6" xlink:href="#s4:arimo-bold:86"/><use x="18094" y="4094.6" xlink:href="#s4:arimo-bold:72"/><use x="19233" y="4094.6" xlink:href="#s4:arimo-bold:83"/><use x="20484" y="4094.6" xlink:href="#s4:arimo-bold:68"/><use x="21623" y="4094.6" xlink:href="#s4:arimo-bold:85"/><use x="22420" y="4094.6" xlink:href="#s4:arimo-bold:68"/><use x="23559" y="4094.6" xlink:href="#s4:arimo-bold:87"/><use x="24241" y="4094.6" xlink:href="#s4:arimo-bold:72"/><use x="25380" y="4094.6" xlink:href="#s4:arimo-bold:3"/><use x="25949" y="4094.6" xlink:href="#s4:arimo-bold:72"/><use x="27088" y="4094.6" xlink:href="#s4:arimo-bold:91"/><use x="28227" y="4094.6" xlink:href="#s4:arimo-bold:76"/><use x="28796" y="4094.6" xlink:href="#s4:arimo-bold:86"/><use x="29935" y="4094.6" xlink:href="#s4:arimo-bold:87"/><use x="30617" y="4094.6" xlink:href="#s4:arimo-bold:72"/><use x="31756" y="4094.6" xlink:href="#s4:arimo-bold:81"/><use x="33007" y="4094.6" xlink:href="#s4:arimo-bold:70"/><use x="34146" y="4094.6" xlink:href="#s4:arimo-bold:72"/><use x="35285" y="4094.6" xlink:href="#s4:arimo-bold:3"/><use x="35854" y="4094.6" xlink:href="#s4:arimo-bold:76"/><use x="36423" y="4094.6" xlink:href="#s4:arimo-bold:86"/><use x="37562" y="4094.6" xlink:href="#s4:arimo-bold:3"/><use x="38131" y="4094.6" xlink:href="#s4:arimo-bold:68"/><use x="39270" y="4094.6" xlink:href="#s4:arimo-bold:3"/><use x="39839" y="4094.6" xlink:href="#s4:arimo-bold:80"/><use x="41660" y="4094.6" xlink:href="#s4:arimo-bold:92"/><use x="42799" y="4094.6" xlink:href="#s4:arimo-bold:87"/><use x="43481" y="4094.6" xlink:href="#s4:arimo-bold:75"/><use x="44732" y="4094.6" xlink:href="#s4:arimo-bold:17"/></g><g id="line-2"><use x="13655.5" y="6552.2" xlink:href="#s4:arimo-bold:41"/><use x="14906.5" y="6552.2" xlink:href="#s4:arimo-bold:82"/><use x="16157.5" y="6552.2" xlink:href="#s4:arimo-bold:85"/><use x="16954.5" y="6552.2" xlink:href="#s4:arimo-bold:3"/><use x="17523.5" y="6552.2" xlink:href="#s4:arimo-bold:86"/><use x="18662.5" y="6552.2" xlink:href="#s4:arimo-bold:70"/><use x="19801.5" y="6552.2" xlink:href="#s4:arimo-bold:76"/><use x="20370.5" y="6552.2" xlink:href="#s4:arimo-bold:72"/><use x="21509.5" y="6552.2" xlink:href="#s4:arimo-bold:81"/><use x="22760.5" y="6552.2" xlink:href="#s4:arimo-bold:70"/><use x="23899.5" y="6552.2" xlink:href="#s4:arimo-bold:72"/><use x="25038.5" y="6552.2" xlink:href="#s4:arimo-bold:15"/><use x="25607.5" y="6552.2" xlink:href="#s4:arimo-bold:3"/><use x="26176.5" y="6552.2" xlink:href="#s4:arimo-bold:80"/><use x="27997.5" y="6552.2" xlink:href="#s4:arimo-bold:88"/><use x="29248.5" y="6552.2" xlink:href="#s4:arimo-bold:86"/><use x="30387.5" y="6552.2" xlink:href="#s4:arimo-bold:76"/><use x="30956.5" y="6552.2" xlink:href="#s4:arimo-bold:70"/><use x="32095.5" y="6552.2" xlink:href="#s4:arimo-bold:15"/><use x="32664.5" y="6552.2" xlink:href="#s4:arimo-bold:3"/><use x="33233.5" y="6552.2" xlink:href="#s4:arimo-bold:86"/><use x="34372.5" y="6552.2" xlink:href="#s4:arimo-bold:83"/><use x="35623.5" y="6552.2" xlink:href="#s4:arimo-bold:82"/><use x="36874.5" y="6552.2" xlink:href="#s4:arimo-bold:85"/><use x="37671.5" y="6552.2" xlink:href="#s4:arimo-bold:87"/><use x="38353.5" y="6552.2" xlink:href="#s4:arimo-bold:15"/><use x="38922.5" y="6552.2" xlink:href="#s4:arimo-bold:3"/><use x="39491.5" y="6552.2" xlink:href="#s4:arimo-bold:72"/><use x="40630.5" y="6552.2" xlink:href="#s4:arimo-bold:87"/><use x="41312.5" y="6552.2" xlink:href="#s4:arimo-bold:70"/><use x="42451.5" y="6552.2" xlink:href="#s4:arimo-bold:15"/></g></svg>