<svg xmlns="http://www.w3.org/2000/svg" xmlns:xlink="http://www.w3.org/1999/xlink" width="668" height="83" viewBox="0 0 27844 3467.5"><defs><path id="s5:bitter-regular:55" d="M435-60L435 0L130 0L130-60L230-80L230-620L100-620L75-520L10-520L10-700L555-700L555-520L490-520L465-620L335-620L335-80L435-60Z"/><path id="s5:bitter-regular:75" d="M210-770L210-468Q295-540 380-540Q465-540 505-492.50Q545-445 545-360L545-80L620-55L620 0L380 0L380-55L445-79L445-350Q445-404 425-429.50Q405-455 362-455Q341-455 321-449.50Q301-444 283-435Q265-426 251-415.50Q237-405 228-395L210-375L210-80L275-55L275 0L25 0L25-55L110-80L110-690L25-710L25-765L210-770Z"/><path id="s5:bitter-regular:72" d="M490-252L145-250Q145-168 184.50-119Q224-70 290-70Q312-70 334-74Q356-78 375.50-84Q395-90 411-97.50Q427-105 438-112L458-125L493-73Q459-46 430.50-30.50Q402-15 363.50-2.50Q325 10 280 10Q162 10 101-61.50Q40-133 40-257Q40-319 58-371Q76-423 108.50-460.50Q141-498 186-519Q231-540 285-540Q495-540 495-305L490-252M149-325L389-325Q389-386 363-424Q337-462 279-462Q222-462 188-423.50Q154-385 149-325Z"/><path id="s5:bitter-regular:3" d=""/><path id="s5:bitter-regular:40" d="M465-620L250-620L250-405L480-405L480-325L250-325L250-80L480-80L500-180L565-180L565 0L60 0L60-60L145-80L145-620L60-640L60-695L250-700L555-700L555-530L490-530L465-620Z"/><path id="s5:bitter-regular:88" d="M540-530L540-80L625-60L625-5L460 0L450-70Q408-33 355-11.50Q302 10 265 10Q185 10 145-37Q105-84 105-169L105-450L20-470L20-525L205-530L205-179Q205-126 226-100.50Q247-75 290-75Q333-75 369-95Q405-115 422-134L440-154L440-450L355-470L355-525L540-530Z"/><path id="s5:bitter-regular:85" d="M205-530L214-457Q288-540 365-540Q406-540 444-528L455-525L450-380L385-380L370-455Q284-455 225-377L225-80L325-55L325 0L40 0L40-55L125-80L125-450L40-470L40-525L205-530Z"/><path id="s5:bitter-regular:82" d="M40-257Q40-321 58.50-373.50Q77-426 111-463Q145-500 191.50-520Q238-540 294-540Q406-540 468-469Q530-398 530-272Q530-210 512-158.50Q494-107 461.50-69.50Q429-32 382.50-11Q336 10 279 10Q165 10 102.50-58Q40-126 40-257M290-460Q145-460 145-265Q145-70 285-70Q358-70 391.50-120Q425-170 425-270Q425-460 290-460Z"/><path id="s5:bitter-regular:83" d="M195-530L203-474Q273-540 355-540Q461-540 515.50-470.50Q570-401 570-273Q570-211 553.50-159Q537-107 503-69.50Q469-32 418.50-11Q368 10 300 10Q258 10 210-4L210 155L315 175L315 230L30 230L30 175L110 155L110-450L25-470L25-525L195-530M210-390L210-90Q241-70 315-70Q465-70 465-270Q465-358 433-409Q401-460 335-460Q297-460 263.50-442.50Q230-425 210-390Z"/><path id="s5:bitter-regular:68" d="M75-500Q183-540 273-540Q361-540 408-504.50Q455-469 455-385L455-80L535-60L535-5L380 0L359-70Q279 10 201 10Q123 10 84-29Q45-68 45-140Q45-295 275-295L355-295L355-375Q355-465 260-465Q206-465 171-454L159-450L145-375L80-375L75-500M355-230L285-230Q210-230 178.50-210.50Q147-191 147-150Q147-111 165.50-90.50Q184-70 219-70Q236-70 253.50-76Q271-82 287.50-91Q304-100 317-110.50Q330-121 338-130L355-150L355-230Z"/><path id="s5:bitter-regular:81" d="M205-530L214-459Q224-467 242-481Q260-495 284.50-508Q309-521 338.50-530.50Q368-540 400-540Q481-540 520.50-492.50Q560-445 560-360L560-80L635-55L635 0L395 0L395-55L460-80L460-350Q460-404 439-429.50Q418-455 375-455Q354-455 333.50-449.50Q313-444 295.50-435Q278-426 264.50-415.50Q251-405 242-395L225-375L225-80L290-55L290 0L40 0L40-55L125-80L125-450L40-470L40-525L205-530Z"/><path id="s5:bitter-regular:79" d="M212-770L212-80L312-55L312 0L25 0L25-55L110-80L110-690L25-710L25-765L212-770Z"/><path id="s5:bitter-regular:74" d="M270-160Q226-160 195-169L190-75L345-75Q443-75 494-38Q545-1 545 74Q545 155 479 202.50Q413 250 285 250Q45 250 45 105Q45 42 112-2Q128-12 150-20Q123-24 106.50-39Q90-54 90-73Q90-106 129-169L142-190Q133-193 117.50-208Q102-223 92-238Q65-280 65-345Q65-440 124.50-490Q184-540 285-540Q341-540 374-526L385-521L560-525L560-470L463-456Q490-420 490-355Q490-257 431-208.50Q372-160 270-160M320 0L210 0Q205 2 190.50 12.50Q176 23 168 32Q145 58 145 90Q145 139 183.50 157Q222 175 300 175Q450 175 450 80Q450 34 417.50 17Q385 0 320 0M280-470Q165-470 165-350Q165-295 193-262.50Q221-230 274-230Q335-230 362.50-258.50Q390-287 390-350Q390-470 280-470Z"/><path id="s5:bitter-regular:86" d="M46-160L116-160L127-74Q137-70 158.50-67.50Q180-65 201-65Q266-65 295.50-84.50Q325-104 325-144Q325-171 304.50-187Q284-203 253-214Q222-225 185.50-236Q149-247 118-264.50Q87-282 66.50-310Q46-338 46-384Q46-459 96-498.50Q146-538 229-540Q264-539 300.50-534.50Q337-530 375-518L400-510L397-375L332-375L316-453Q308-456 285-460.50Q262-465 236-465Q218-465 202-462Q186-459 173.50-452Q161-445 153.50-432Q146-419 146-400Q146-371 166.50-354.50Q187-338 218-326Q249-314 285.50-303Q322-292 353-274.50Q384-257 404.50-230Q425-203 425-159Q425-117 407-85Q389-53 358.50-31.50Q328-10 287.50 0.50Q247 11 201 11Q184 11 165.50 9.50Q147 8 129 5.50Q111 3 95.50 0Q80-3 70-6L47-12L46-160Z"/><path id="s5:bitter-regular:80" d="M205-530L214-459Q228-472 248-486.50Q268-501 292-513Q316-525 342.50-532.50Q369-540 395-540Q496-540 534-454Q552-472 576-487.50Q600-503 625.50-515Q651-527 675.50-533.50Q700-540 720-540Q875-540 875-360L875-80L950-55L950 0L710 0L710-55L775-80L775-350Q775-405 756-430Q737-455 694-455Q673-455 653.50-449.50Q634-444 617-435Q600-426 587-415.50Q574-405 566-395L550-375L550-80L615-55L615 0L385 0L385-55L450-80L450-350Q450-405 431-430Q412-455 369-455Q348-455 328.50-449.50Q309-444 292-435Q275-426 262-415.50Q249-405 241-395L225-375L225-80L290-55L290 0L40 0L40-55L125-80L125-450L40-470L40-525L205-530Z"/><path id="s5:bitter-regular:69" d="M180-770L180-482Q253-540 330-540Q436-540 488-471Q540-402 540-275Q540-213 522-160.50Q504-108 469-70Q434-32 383-11Q332 10 265 10Q214 9 173.50 5.50Q133 2 102-8L80-15L80-690L0-710L0-765L180-770M180-80Q204-70 284-70Q324-70 352.50-85Q381-100 399.50-126.50Q418-153 426.50-189.50Q435-226 435-269Q435-359 404.50-409.50Q374-460 310-460Q260-460 229.50-440.50Q199-421 180-395L180-80Z"/><path id="s5:bitter-regular:73" d="M70-515L160-525L160-585Q160-676 208-728Q256-780 345-780Q387-780 424.50-771.50Q462-763 478-754L495-745L495-620L425-620L410-700Q385-705 342-705Q260-705 260-605L260-525L392-525L389-450L260-450L260-80L357-55L357 0L75 0L75-55L160-80L160-450L70-450L70-515Z"/><path id="s5:bitter-regular:87" d="M220-671L220-525L365-525L365-450L220-450L220-129Q220-68 270-68Q302-68 348-93L375-40Q307 10 235 10Q184 10 152-23.50Q120-57 120-135L120-450L20-450L20-515L120-525L120-651L220-671Z"/><path id="s5:bitter-regular:76" d="M170-765Q235-765 235-690Q235-659 213-642Q191-625 166-625Q139-625 122-643.50Q105-662 105-695Q105-728 123.50-746.50Q142-765 170-765M225-530L225-80L300-55L300 0L40 0L40-55L125-80L125-450L40-470L40-525L225-530Z"/><path id="s5:bitter-regular:92" d="M245-530L245-470L175-460L295-110L405-455L335-470L335-525L572-530L572-470L507-460L365-64Q315 67 291 110Q216 239 95 240L31 235L40 165L90 165Q139 165 175.50 124Q212 83 249 2L70-455L10-470L10-525L245-530Z"/><path id="s5:bitter-regular:17" d="M129 10Q100 10 82.50-8.50Q65-27 65-59Q65-92 83.50-111Q102-130 131-130Q160-130 177.50-111.50Q195-93 195-60Q195-28 176.50-9Q158 10 129 10Z"/><path id="s5:bitter-regular:91" d="M243-530L243-470L208-464L285-335L405-525L550-530L550-470L465-455L340-270L468-78L560-55L560 0L316 0L316-55L356-67L274-199L150 0L5 0L5-55L93-78L220-265L92-456L15-470L15-525L243-530Z"/><path id="s5:bitter-regular:70" d="M465-365L400-365L385-450Q346-460 295-460Q223-460 184-414Q145-368 145-271Q145-174 186-122Q227-70 300-70Q321-70 341.50-74Q362-78 380.50-84.50Q399-91 414-99Q429-107 438-115L455-130L490-70L479-61Q467-51 446-38.50Q425-26 399.50-15.50Q374-5 345.50 2.50Q317 10 290 10Q168 10 104-62.50Q40-135 40-261Q40-323 58.50-374.50Q77-426 111-462.50Q145-499 193-519.50Q241-540 300-540Q320-540 341-537Q362-534 382-530Q402-526 419-520.50Q436-515 448-510L470-500L465-365Z"/><path id="s5:bitter-regular:41" d="M445-620L230-620L230-395L460-395L460-315L230-315L230-80L330-60L330 0L40 0L40-60L125-80L125-620L40-640L40-695L230-700L535-700L535-535L470-535L445-620Z"/><path id="s5:bitter-regular:15" d="M135-130Q200-130 200-56Q200 32 85 154L40 116Q93 45 93 10Q93 5 90-2.50Q87-10 81.50-21Q76-32 73-44Q70-56 70-68Q70-92 88-111Q106-130 135-130Z"/></defs><g id="line-0"><use x="0" y="802.5" xlink:href="#s5:bitter-regular:55"/><use x="565" y="802.5" xlink:href="#s5:bitter-regular:75"/><use x="1215" y="802.5" xlink:href="#s5:bitter-regular:72"/><use x="1745" y="802.5" xlink:href="#s5:bitter-regular:3"/><use x="1975" y="802.5" xlink:href="#s5:bitter-regular:40"/><use x="2600" y="802.5" xlink:href="#s5:bitter-regular:88"/><use x="3250" y="802.5" xlink:href="#s5:bitter-regular:85"/><use x="3715" y="802.5" xlink:href="#s5:bitter-regular:82"/><use x="4285" y="802.5" xlink:href="#s5:bitter-regular:83"/><use x="4900" y="802.5" xlink:href="#s5:bitter-regular:72"/><use x="5430" y="802.5" xlink:href="#s5:bitter-regular:68"/><use x="5995" y="802.5" xlink:href="#s5:bitter-regular:81"/><use x="6660" y="802.5" xlink:href="#s5:bitter-regular:3"/><use x="6890" y="802.5" xlink:href="#s5:bitter-regular:79"/><use x="7207" y="802.5" xlink:href="#s5:bitter-regular:68"/><use x="7772" y="802.5" xlink:href="#s5:bitter-regular:81"/><use x="8437" y="802.5" xlink:href="#s5:bitter-regular:74"/><use x="9022" y="802.5" xlink:href="#s5:bitter-regular:88"/><use x="9672" y="802.5" xlink:href="#s5:bitter-regular:68"/><use x="10237" y="802.5" xlink:href="#s5:bitter-regular:74"/><use x="10822" y="802.5" xlink:href="#s5:bitter-regular:72"/><use x="11352" y="802.5" xlink:href="#s5:bitter-regular:86"/><use x="11823" y="802.5" xlink:href="#s5:bitter-regular:3"/><use x="12053" y="802.5" xlink:href="#s5:bitter-regular:68"/><use x="12618" y="802.5" xlink:href="#s5:bitter-regular:85"/><use x="13083" y="802.5" xlink:href="#s5:bitter-regular:72"/><use x="13613" y="802.5" xlink:href="#s5:bitter-regular:3"/><use x="13843" y="802.5" xlink:href="#s5:bitter-regular:80"/><use x="14823" y="802.5" xlink:href="#s5:bitter-regular:72"/><use x="15353" y="802.5" xlink:href="#s5:bitter-regular:80"/><use x="16333" y="802.5" xlink:href="#s5:bitter-regular:69"/><use x="16918" y="802.5" xlink:href="#s5:bitter-regular:72"/><use x="17448" y="802.5" xlink:href="#s5:bitter-regular:85"/><use x="17913" y="802.5" xlink:href="#s5:bitter-regular:86"/><use x="18384" y="802.5" xlink:href="#s5:bitter-regular:3"/><use x="18614" y="802.5" xlink:href="#s5:bitter-regular:82"/><use x="19184" y="802.5" xlink:href="#s5:bitter-regular:73"/><use x="19624" y="802.5" xlink:href="#s5:bitter-regular:3"/><use x="19854" y="802.5" xlink:href="#s5:bitter-regular:87"/><use x="20249" y="802.5" xlink:href="#s5:bitter-regular:75"/><use x="20899" y="802.5" xlink:href="#s5:bitter-regular:72"/><use x="21429" y="802.5" xlink:href="#s5:bitter-regular:3"/><use x="21659" y="802.5" xlink:href="#s5:bitter-regular:86"/><use x="22130" y="802.5" xlink:href="#s5:bitter-regular:68"/><use x="22695" y="802.5" xlink:href="#s5:bitter-regular:80"/><use x="23675" y="802.5" xlink:href="#s5:bitter-regular:72"/><use x="24205" y="802.5" xlink:href="#s5:bitter-regular:3"/><use x="24435" y="802.5" xlink:href="#s5:bitter-regular:73"/><use x="24875" y="802.5" xlink:href="#s5:bitter-regular:68"/><use x="25440" y="802.5" xlink:href="#s5:bitter-regular:80"/><use x="26420" y="802.5" xlink:href="#s5:bitter-regular:76"/><use x="26755" y="802.5" xlink:href="#s5:bitter-regular:79"/><use x="27072" y="802.5" xlink:href="#s5:bitter-regular:92"/><use x="27649" y="802.5" xlink:href="#s5:bitter-regular:17"/></g><g id="line-1"><use x="5657" y="2002.5" xlink:href="#s5:bitter-regular:55"/><use x="6222" y="2002.5" xlink:href="#s5:bitter-regular:75"/><use x="6872" y="2002.5" xlink:href="#s5:bitter-regular:72"/><use x="7402" y="2002.5" xlink:href="#s5:bitter-regular:76"/><use x="7737" y="2002.5" xlink:href="#s5:bitter-regular:85"/><use x="8202" y="2002.5" xlink:href="#s5:bitter-regular:3"/><use x="8432" y="2002.5" xlink:href="#s5:bitter-regular:86"/><use x="8903" y="2002.5" xlink:href="#s5:bitter-regular:72"/><use x="9433" y="2002.5" xlink:href="#s5:bitter-regular:83"/><use x="10048" y="2002.5" xlink:href="#s5:bitter-regular:68"/><use x="10613" y="2002.5" xlink:href="#s5:bitter-regular:85"/><use x="11078" y="2002.5" xlink:href="#s5:bitter-regular:68"/><use x="11643" y="2002.5" xlink:href="#s5:bitter-regular:87"/><use x="12038" y="2002.5" xlink:href="#s5:bitter-regular:72"/><use x="12568" y="2002.5" xlink:href="#s5:bitter-regular:3"/><use x="12798" y="2002.5" xlink:href="#s5:bitter-regular:72"/><use x="13328" y="2002.5" xlink:href="#s5:bitter-regular:91"/><use x="13893" y="2002.5" xlink:href="#s5:bitter-regular:76"/><use x="14228" y="2002.5" xlink:href="#s5:bitter-regular:86"/><use x="14699" y="2002.5" xlink:href="#s5:bitter-regular:87"/><use x="15094" y="2002.5" xlink:href="#s5:bitter-regular:72"/><use x="15624" y="2002.5" xlink:href="#s5:bitter-regular:81"/><use x="16289" y="2002.5" xlink:href="#s5:bitter-regular:70"/><use x="16799" y="2002.5" xlink:href="#s5:bitter-regular:72"/><use x="17329" y="2002.5" xlink:href="#s5:bitter-regular:3"/><use x="17559" y="2002.5" xlink:href="#s5:bitter-regular:76"/><use x="17894" y="2002.5" xlink:href="#s5:bitter-regular:86"/><use x="18365" y="2002.5" xlink:href="#s5:bitter-regular:3"/><use x="18595" y="2002.5" xlink:href="#s5:bitter-regular:68"/><use x="19160" y="2002.5" xlink:href="#s5:bitter-regular:3"/><use x="19390" y="2002.5" xlink:href="#s5:bitter-regular:80"/><use x="20370" y="2002.5" xlink:href="#s5:bitter-regular:92"/><use x="20947" y="2002.5" xlink:href="#s5:bitter-regular:87"/><use x="21342" y="2002.5" xlink:href="#s5:bitter-regular:75"/><use x="21992" y="2002.5" xlink:href="#s5:bitter-regular:17"/></g><g id="line-2"><use x="6938" y="3202.5" xlink:href="#s5:bitter-regular:41"/><use x="7508" y="3202.5" xlink:href="#s5:bitter-regular:82"/><use x="8078" y="3202.5" xlink:href="#s5:bitter-regular:85"/><use x="8543" y="3202.5" xlink:href="#s5:bitter-regular:3"/><use x="8773" y="3202.5" xlink:href="#s5:bitter-regular:86"/><use x="9244" y="3202.5" xlink:href="#s5:bitter-regular:70"/><use x="9754" y="3202.5" xlink:href="#s5:bitter-regular:76"/><use x="10089" y="3202.5" xlink:href="#s5:bitter-regular:72"/><use x="10619" y="3202.5" xlink:href="#s5:bitter-regular:81"/><use x="11284" y="3202.5" xlink:href="#s5:bitter-regular:70"/><use x="11794" y="3202.5" xlink:href="#s5:bitter-regular:72"/><use x="12324" y="3202.5" xlink:href="#s5:bitter-regular:15"/><use x="12589" y="3202.5" xlink:href="#s5:bitter-regular:3"/><use x="12819" y="3202.5" xlink:href="#s5:bitter-regular:80"/><use x="13799" y="3202.5" xlink:href="#s5:bitter-regular:88"/><use x="14449" y="3202.5" xlink:href="#s5:bitter-regular:86"/><use x="14920" y="3202.5" xlink:href="#s5:bitter-regular:76"/><use x="15255" y="3202.5" xlink:href="#s5:bitter-regular:70"/><use x="15765" y="3202.5" xlink:href="#s5:bitter-regular:15"/><use x="16030" y="3202.5" xlink:href="#s5:bitter-regular:3"/><use x="16260" y="3202.5" xlink:href="#s5:bitter-regular:86"/><use x="16731" y="3202.5" xlink:href="#s5:bitter-regular:83"/><use x="17346" y="3202.5" xlink:href="#s5:bitter-regular:82"/><use x="17916" y="3202.5" xlink:href="#s5:bitter-regular:85"/><use x="18381" y="3202.5" xlink:href="#s5:bitter-regular:87"/><use x="18776" y="3202.5" xlink:href="#s5:bitter-regular:15"/><use x="19041" y="3202.5" xlink:href="#s5:bitter-regular:3"/><use x="19271" y="3202.5" xlink:href="#s5:bitter-regular:72"/><use x="19801" y="3202.5" xlink:href="#s5:bitter-regular:87"/><use x="20196" y="3202.5" xlink:href="#s5:bitter-regular:70"/><use x="20706" y="3202.5" xlink:href="#s5:bitter-regular:15"/></g></svg>