<svg xmlns="http://www.w3.org/2000/svg" xmlns:xlink="http://www.w3.org/1999/xlink" width="694" height="87" viewBox="0 0 28906 3625"><defs><path id="s3:bitter-bold:55" d="M140 0L140-87L222-112L222-587L127-587L102-492L10-492L10-702L590-705L590-492L497-492L472-587L377-587L377-112L460-87L460 0L140 0Z"/><path id="s3:bitter-bold:75" d="M25-767L252-775L252-482Q334-550 420-550Q495-550 535-502.50Q575-455 575-370L575-105L645-80L645 0L375 0L375-80L427-104L427-347Q427-427 361-427Q336-427 309-413.50Q282-400 267-387L252-374L252-105L305-80L305 0L25 0L25-80L105-105L105-667L25-687L25-767Z"/><path id="s3:bitter-bold:72" d="M524-240L192-237Q196-175 228.50-141Q261-107 312-107Q349-107 391-118.50Q433-130 456-142L480-154L523-74Q512-65 492-51Q472-37 412-13.50Q352 10 295 10Q168 10 101.50-60.50Q35-131 35-260Q35-393 106-471.50Q177-550 302-550Q412-550 471-487Q530-424 530-315L524-240M292-433Q251-433 225.50-405Q200-377 194-330L374-330Q374-433 292-433Z"/><path id="s3:bitter-bold:3" d=""/><path id="s3:bitter-bold:40" d="M285-587L285-420L487-420L487-310L285-310L285-117L462-117L485-200L577-200L577 0L55 0L55-87L130-112L130-587L55-617L55-700L285-705L565-705L565-512L472-512L447-587L285-587Z"/><path id="s3:bitter-bold:88" d="M89-169L89-434L16-452L16-532L237-540L237-197Q237-156 250-136.50Q263-117 293-117Q321-117 350.50-130.50Q380-144 396-158L411-172L411-434L337-452L337-532L558-540L558-105L634-85L634-7L430 0L420-70Q417-67 410.50-61.50Q404-56 385-42Q366-28 346-17.50Q326-7 297.50 1.50Q269 10 243 10Q168 10 128.50-37Q89-84 89-169Z"/><path id="s3:bitter-bold:85" d="M35-532L242-540L251-471Q259-480 273-493Q287-506 323.50-528Q360-550 390-550Q414-550 436.50-545.50Q459-541 470-536L480-532L472-342L385-342L370-427Q344-427 317-413Q290-399 276-385L262-371L262-105L357-80L357 0L35 0L35-80L115-105L115-432L35-452L35-532Z"/><path id="s3:bitter-bold:82" d="M305-550Q426-550 491.50-479.50Q557-409 557-280Q557-146 484.50-68Q412 10 290 10Q35 10 35-265Q35-399 108-474.50Q181-550 305-550M300-435Q243-435 216.50-398Q190-361 190-270Q190-184 215-144.50Q240-105 295-105Q350-105 376-144Q402-183 402-275Q402-356 377.50-395.50Q353-435 300-435Z"/><path id="s3:bitter-bold:83" d="M100-432L20-452L20-532L230-540L239-484Q247-491 260.50-502Q274-513 312.50-531.50Q351-550 387-550Q489-550 542-479.50Q595-409 595-285Q595-143 526.50-66.50Q458 10 322 10Q287 10 247 0L247 127L342 150L342 230L22 230L22 150L100 127L100-432M247-377L247-110Q272-95 325-95Q387-95 413.50-137.50Q440-180 440-267Q440-432 340-432Q311-432 288-418Q265-404 256-390L247-377Z"/><path id="s3:bitter-bold:68" d="M570-7L372 0L354-65Q345-57 330-44.50Q315-32 272.50-11Q230 10 192 10Q119 10 78-31Q37-72 37-147Q37-312 277-312L347-312L347-367Q347-442 270-442Q247-442 225-438Q203-434 192-430L182-427L167-362L77-362L70-510Q191-550 287-550Q401-550 448-505.50Q495-461 495-352L495-105L570-87L570-7M181-162Q181-102 240-102Q264-102 290.50-116.50Q317-131 332-146L347-160L347-227L290-227Q232-227 206.50-211.50Q181-196 181-162Z"/><path id="s3:bitter-bold:81" d="M35-532L242-540L249-471Q260-480 278-492.50Q296-505 344.50-526.50Q393-548 433-548Q505-548 543.50-500.50Q582-453 582-370L582-105Q595-101 619-92Q643-83 652-80L652 0L382 0L382-80L435-105L435-347Q435-382 416.50-404.50Q398-427 367-427Q339-427 312.50-412.50Q286-398 273-384L260-370L260-105L312-80L312 0L35 0L35-80L112-105L112-432L35-452L35-532Z"/><path id="s3:bitter-bold:79" d="M25-767L256-775L256-105L351-80L351 0L25 0L25-80L105-105L105-667L25-687L25-767Z"/><path id="s3:bitter-bold:74" d="M42 110Q42 72 68 42Q94 12 120 1L147-10Q140-11 130-14Q120-17 103.50-34Q87-51 87-76Q87-107 139-189Q62-240 62-345Q62-444 128.50-497Q195-550 302-550Q369-550 420-526L592-530L592-450L510-436Q510-435 515-422.50Q520-410 523.50-393Q527-376 527-357Q527-253 462-202.50Q397-152 287-152Q275-152 263.50-153Q252-154 244.50-155.50Q237-157 236-157L232-90L380-90Q476-90 528-50Q580-10 580 65Q580 151 509.50 203Q439 255 300 255Q174 255 108 222Q42 189 42 110M297-447Q212-447 212-352Q212-252 292-252Q338-252 357.50-276Q377-300 377-352Q377-447 297-447M340 20L235 20Q230 22 222 27Q214 32 200.50 49Q187 66 187 85Q187 121 216.50 133Q246 145 312 145Q380 145 410 129Q440 113 440 77Q440 45 416.50 32.50Q393 20 340 20Z"/><path id="s3:bitter-bold:86" d="M133-175L141-105Q174-95 223-95Q302-95 302-149Q302-172 275-188.50Q248-205 209-217Q170-229 131-245.50Q92-262 65-296Q38-330 38-379Q38-467 97-508.50Q156-550 244-550Q284-550 330.50-542.50Q377-535 404-528L430-520Q428-470 426-370L338-370L323-435Q297-445 257-445Q226-445 208-431.50Q190-418 190-394Q190-371 217.50-355Q245-339 283.50-327Q322-315 361-299.50Q400-284 427.50-251Q455-218 455-170Q455-85 392.50-37.50Q330 10 225 10Q183 10 137 4.50Q91-1 66-6L41-12L41-175L133-175Z"/><path id="s3:bitter-bold:80" d="M892-370L892-105L960-80L960 0L692 0L692-80L745-105L745-340Q745-382 731.50-402Q718-422 687-422Q658-422 630.50-409Q603-396 590-383L576-370L576-105L628-80L628 0L376 0L376-80L428-105L428-340Q428-383 415-402.50Q402-422 371-422Q342-422 314-409Q286-396 272-383L259-370L259-105L312-80L312 0L35 0L35-80L112-105L112-433L36-452L36-532L242-540L249-469Q259-478 276-491.50Q293-505 339-527.50Q385-550 424-550Q523-550 560-464Q575-479 595-495Q615-511 658-530.50Q701-550 741-550Q816-550 854-503Q892-456 892-370Z"/><path id="s3:bitter-bold:69" d="M-10-767L212-775L212-497Q281-550 355-550Q455-550 507.50-481Q560-412 560-285Q560-142 486-65Q412 12 270 12Q221 12 170 6.50Q119 1 92-4L65-10L65-667L-10-687L-10-767M212-387L212-113Q235-105 286-105Q405-105 405-275Q405-432 307-432Q280-432 256.50-421Q233-410 222-398L212-387Z"/><path id="s3:bitter-bold:73" d="M142-530L142-575Q142-673 197-730Q252-787 355-787Q403-787 446.50-777.50Q490-768 510-759L530-750L527-602L440-602L425-676Q400-680 367-680Q290-680 290-592L290-530L420-530L417-430L290-430L290-105L386-80L386 0L62 0L62-80L142-105L142-430L52-430L52-515L142-530Z"/><path id="s3:bitter-bold:87" d="M255 10Q172 10 141-43.50Q110-97 110-230L110-417L17-417L17-512L110-525L110-663L257-690L257-525L397-525L397-417L257-417L257-191Q257-141 268-121Q279-101 310-101Q346-101 389-124L425-52Q337 10 255 10Z"/><path id="s3:bitter-bold:76" d="M35-532L262-540L262-105L332-80L332 0L35 0L35-80L115-105L115-432L35-452L35-532M96-705Q96-746 121.50-770.50Q147-795 182-795Q266-795 266-705Q266-663 240.50-638.50Q215-614 182-614Q141-614 118.50-637.50Q96-661 96-705Z"/><path id="s3:bitter-bold:92" d="M241 1L63-439L10-455L10-535L277-540L277-455L221-445L310-165L395-442L337-455L337-535L606-540L606-455L544-442L397-32Q375 27 355.50 67.50Q336 108 304 151.50Q272 195 227 217.50Q182 240 125 240L28 232L42 125L107 125Q135 125 158.50 112.50Q182 100 198.50 76.50Q215 53 223 38Q231 23 241 1Z"/><path id="s3:bitter-bold:17" d="M65-78Q65-119 90.50-143.50Q116-168 151-168Q192-168 213.50-144.50Q235-121 235-78Q235-36 210-11.50Q185 13 149 13Q108 13 86.50-10.50Q65-34 65-78Z"/><path id="s3:bitter-bold:91" d="M405-535L572-540L572-455L510-442L395-270L508-100L582-80L582 0L310 0L310-80L341-91L288-179L180 0L10 0L10-80L85-100L195-265L74-442L20-455L20-535L279-540L279-455L249-449L301-361L405-535Z"/><path id="s3:bitter-bold:70" d="M455-160L505-75Q408 10 290 10Q167 10 98.50-62Q30-134 30-262Q30-396 102.50-473Q175-550 305-550Q343-550 387-541.50Q431-533 456-524L480-515L475-352L385-352L371-424Q342-432 302-432Q246-432 215.50-394.50Q185-357 185-282Q185-197 216.50-152Q248-107 310-107Q330-107 348-110.50Q366-114 383-121Q400-128 409.50-133Q419-138 435.50-148Q452-158 455-160Z"/><path id="s3:bitter-bold:41" d="M367-87L367 0L45 0L45-87Q70-96 120-112L120-587L45-617L45-700L275-705L555-705L555-515L462-515L437-587L275-587L275-410L482-410L482-300L275-300L275-112Q353-91 367-87Z"/><path id="s3:bitter-bold:15" d="M71-79Q71-119 95.50-143.50Q120-168 157-168Q195-168 218-144Q241-120 241-76Q241 37 103 185L40 133Q100 53 100 13Q100 1 85.50-26Q71-53 71-79Z"/></defs><g id="line-0"><use x="0" y="955" xlink:href="#s3:bitter-bold:55"/><use x="600" y="955" xlink:href="#s3:bitter-bold:75"/><use x="1267" y="955" xlink:href="#s3:bitter-bold:72"/><use x="1824" y="955" xlink:href="#s3:bitter-bold:3"/><use x="2059" y="955" xlink:href="#s3:bitter-bold:40"/><use x="2686" y="955" xlink:href="#s3:bitter-bold:88"/><use x="3341" y="955" xlink:href="#s3:bitter-bold:85"/><use x="3831" y="955" xlink:href="#s3:bitter-bold:82"/><use x="4423" y="955" xlink:href="#s3:bitter-bold:83"/><use x="5053" y="955" xlink:href="#s3:bitter-bold:72"/><use x="5610" y="955" xlink:href="#s3:bitter-bold:68"/><use x="6202" y="955" xlink:href="#s3:bitter-bold:81"/><use x="6877" y="955" xlink:href="#s3:bitter-bold:3"/><use x="7112" y="955" xlink:href="#s3:bitter-bold:79"/><use x="7470" y="955" xlink:href="#s3:bitter-bold:68"/><use x="8062" y="955" xlink:href="#s3:bitter-bold:81"/><use x="8737" y="955" xlink:href="#s3:bitter-bold:74"/><use x="9352" y="955" xlink:href="#s3:bitter-bold:88"/><use x="10007" y="955" xlink:href="#s3:bitter-bold:68"/><use x="10599" y="955" xlink:href="#s3:bitter-bold:74"/><use x="11214" y="955" xlink:href="#s3:bitter-bold:72"/><use x="11771" y="955" xlink:href="#s3:bitter-bold:86"/><use x="12262" y="955" xlink:href="#s3:bitter-bold:3"/><use x="12497" y="955" xlink:href="#s3:bitter-bold:68"/><use x="13089" y="955" xlink:href="#s3:bitter-bold:85"/><use x="13579" y="955" xlink:href="#s3:bitter-bold:72"/><use x="14136" y="955" xlink:href="#s3:bitter-bold:3"/><use x="14371" y="955" xlink:href="#s3:bitter-bold:80"/><use x="15353" y="955" xlink:href="#s3:bitter-bold:72"/><use x="15910" y="955" xlink:href="#s3:bitter-bold:80"/><use x="16892" y="955" xlink:href="#s3:bitter-bold:69"/><use x="17487" y="955" xlink:href="#s3:bitter-bold:72"/><use x="18044" y="955" xlink:href="#s3:bitter-bold:85"/><use x="18534" y="955" xlink:href="#s3:bitter-bold:86"/><use x="19025" y="955" xlink:href="#s3:bitter-bold:3"/><use x="19260" y="955" xlink:href="#s3:bitter-bold:82"/><use x="19852" y="955" xlink:href="#s3:bitter-bold:73"/><use x="20317" y="955" xlink:href="#s3:bitter-bold:3"/><use x="20552" y="955" xlink:href="#s3:bitter-bold:87"/><use x="20989" y="955" xlink:href="#s3:bitter-bold:75"/><use x="21656" y="955" xlink:href="#s3:bitter-bold:72"/><use x="22213" y="955" xlink:href="#s3:bitter-bold:3"/><use x="22448" y="955" xlink:href="#s3:bitter-bold:86"/><use x="22939" y="955" xlink:href="#s3:bitter-bold:68"/><use x="23531" y="955" xlink:href="#s3:bitter-bold:80"/><use x="24513" y="955" xlink:href="#s3:bitter-bold:72"/><use x="25070" y="955" xlink:href="#s3:bitter-bold:3"/><use x="25305" y="955" xlink:href="#s3:bitter-bold:73"/><use x="25770" y="955" xlink:href="#s3:bitter-bold:68"/><use x="26362" y="955" xlink:href="#s3:bitter-bold:80"/><use x="27344" y="955" xlink:href="#s3:bitter-bold:76"/><use x="27702" y="955" xlink:href="#s3:bitter-bold:79"/><use x="28060" y="955" xlink:href="#s3:bitter-bold:92"/><use x="28671" y="955" xlink:href="#s3:bitter-bold:17"/></g><g id="line-1"><use x="5800.5" y="2155" xlink:href="#s3:bitter-bold:55"/><use x="6400.5" y="2155" xlink:href="#s3:bitter-bold:75"/><use x="7067.5" y="2155" xlink:href="#s3:bitter-bold:72"/><use x="7624.5" y="2155" xlink:href="#s3:bitter-bold:76"/><use x="7982.5" y="2155" xlink:href="#s3:bitter-bold:85"/><use x="8472.5" y="2155" xlink:href="#s3:bitter-bold:3"/><use x="8707.5" y="2155" xlink:href="#s3:bitter-bold:86"/><use x="9198.5" y="2155" xlink:href="#s3:bitter-bold:72"/><use x="9755.5" y="2155" xlink:href="#s3:bitter-bold:83"/><use x="10385.5" y="2155" xlink:href="#s3:bitter-bold:68"/><use x="10977.5" y="2155" xlink:href="#s3:bitter-bold:85"/><use x="11467.5" y="2155" xlink:href="#s3:bitter-bold:68"/><use x="12059.5" y="2155" xlink:href="#s3:bitter-bold:87"/><use x="12496.5" y="2155" xlink:href="#s3:bitter-bold:72"/><use x="13053.5" y="2155" xlink:href="#s3:bitter-bold:3"/><use x="13288.5" y="2155" xlink:href="#s3:bitter-bold:72"/><use x="13845.5" y="2155" xlink:href="#s3:bitter-bold:91"/><use x="14437.5" y="2155" xlink:href="#s3:bitter-bold:76"/><use x="14795.5" y="2155" xlink:href="#s3:bitter-bold:86"/><use x="15286.5" y="2155" xlink:href="#s3:bitter-bold:87"/><use x="15723.5" y="2155" xlink:href="#s3:bitter-bold:72"/><use x="16280.5" y="2155" xlink:href="#s3:bitter-bold:81"/><use x="16955.5" y="2155" xlink:href="#s3:bitter-bold:70"/><use x="17470.5" y="2155" xlink:href="#s3:bitter-bold:72"/><use x="18027.5" y="2155" xlink:href="#s3:bitter-bold:3"/><use x="18262.5" y="2155" xlink:href="#s3:bitter-bold:76"/><use x="18620.5" y="2155" xlink:href="#s3:bitter-bold:86"/><use x="19111.5" y="2155" xlink:href="#s3:bitter-bold:3"/><use x="19346.5" y="2155" xlink:href="#s3:bitter-bold:68"/><use x="19938.5" y="2155" xlink:href="#s3:bitter-bold:3"/><use x="20173.5" y="2155" xlink:href="#s3:bitter-bold:80"/><use x="21155.5" y="2155" xlink:href="#s3:bitter-bold:92"/><use x="21766.5" y="2155" xlink:href="#s3:bitter-bold:87"/><use x="22203.5" y="2155" xlink:href="#s3:bitter-bold:75"/><use x="22870.5" y="2155" xlink:href="#s3:bitter-bold:17"/></g><g id="line-2"><use x="7168" y="3355" xlink:href="#s3:bitter-bold:41"/><use x="7748" y="3355" xlink:href="#s3:bitter-bold:82"/><use x="8340" y="3355" xlink:href="#s3:bitter-bold:85"/><use x="8830" y="3355" xlink:href="#s3:bitter-bold:3"/><use x="9065" y="3355" xlink:href="#s3:bitter-bold:86"/><use x="9556" y="3355" xlink:href="#s3:bitter-bold:70"/><use x="10071" y="3355" xlink:href="#s3:bitter-bold:76"/><use x="10429" y="3355" xlink:href="#s3:bitter-bold:72"/><use x="10986" y="3355" xlink:href="#s3:bitter-bold:81"/><use x="11661" y="3355" xlink:href="#s3:bitter-bold:70"/><use x="12176" y="3355" xlink:href="#s3:bitter-bold:72"/><use x="12733" y="3355" xlink:href="#s3:bitter-bold:15"/><use x="13036" y="3355" xlink:href="#s3:bitter-bold:3"/><use x="13271" y="3355" xlink:href="#s3:bitter-bold:80"/><use x="14253" y="3355" xlink:href="#s3:bitter-bold:88"/><use x="14908" y="3355" xlink:href="#s3:bitter-bold:86"/><use x="15399" y="3355" xlink:href="#s3:bitter-bold:76"/><use x="15757" y="3355" xlink:href="#s3:bitter-bold:70"/><use x="16272" y="3355" xlink:href="#s3:bitter-bold:15"/><use x="16575" y="3355" xlink:href="#s3:bitter-bold:3"/><use x="16810" y="3355" xlink:href="#s3:bitter-bold:86"/><use x="17301" y="3355" xlink:href="#s3:bitter-bold:83"/><use x="17931" y="3355" xlink:href="#s3:bitter-bold:82"/><use x="18523" y="3355" xlink:href="#s3:bitter-bold:85"/><use x="19013" y="3355" xlink:href="#s3:bitter-bold:87"/><use x="19450" y="3355" xlink:href="#s3:bitter-bold:15"/><use x="19753" y="3355" xlink:href="#s3:bitter-bold:3"/><use x="19988" y="3355" xlink:href="#s3:bitter-bold:72"/><use x="20545" y="3355" xlink:href="#s3:bitter-bold:87"/><use x="20982" y="3355" xlink:href="#s3:bitter-bold:70"/><use x="21497" y="3355" xlink:href="#s3:bitter-bold:15"/></g></svg>