<svg xmlns="http://www.w3.org/2000/svg" xmlns:xlink="http://www.w3.org/1999/xlink" width="662" height="87" viewBox="0 0 27589 3625"><defs><path id="s4:bitter-italic:55" d="M65-700L603-700L574-520L510-520L500-620L371-620L285-80L381-60L371 0L72 0L82-60L185-80L271-620L141-620L100-520L35-520L65-700Z"/><path id="s4:bitter-italic:75" d="M273-770L196-336Q204-361 231.50-403Q259-445 284.50-472Q310-499 349.50-519.50Q389-540 432-540Q541-540 541-419Q541-395 536-360L491-80L575-65L566-10L383 0L440-345Q444-375 444-389Q444-455 392-455Q356-455 321-426.50Q286-398 262-358Q214-278 192-208L183-180L150 0L55 0L165-690L81-710L90-765L273-770Z"/><path id="s4:bitter-italic:72" d="M484-410Q484-324 386.50-270.50Q289-217 133-217Q130-195 130-174Q130-70 240-70Q272-70 313-81Q354-92 379-104L404-115L434-64Q422-56 401-43.50Q380-31 321-10.50Q262 10 210 10Q128 10 79-38Q30-86 30-165Q30-323 114.50-431.50Q199-540 319-540Q395-540 439.50-504.50Q484-469 484-410M142-287Q249-287 319-319Q389-351 389-400Q389-465 314-465Q259-465 210-415Q161-365 142-287Z"/><path id="s4:bitter-italic:3" d=""/><path id="s4:bitter-italic:40" d="M103-80L189-620L107-640L116-695L302-700L603-700L576-530L520-530L510-620L289-620L254-405L482-405L470-325L242-325L203-80L430-80L467-182L533-182L502 0L5 0L15-60L103-80Z"/><path id="s4:bitter-italic:88" d="M389 0L430-194Q417-161 390.50-122.50Q364-84 338.50-57.50Q313-31 272.50-10.50Q232 10 190 10Q79 10 79-112Q79-135 84-170L130-450L45-470L54-525L237-530L182-185Q178-153 178-141Q178-75 230-75Q267-75 303-103.50Q339-132 363-172Q414-259 434-322L443-350L473-530L568-530L496-80L582-65L573-10L389 0Z"/><path id="s4:bitter-italic:85" d="M474-530L444-380L379-380L379-450Q348-450 317.50-423Q287-396 266-358Q222-278 202-217L194-190L162 0L67 0L140-450L55-470L64-525L248-530L209-356Q241-432 288-480Q310-503 346.50-521.50Q383-540 424-540Q446-540 474-530Z"/><path id="s4:bitter-italic:82" d="M220 10Q138 10 89-42Q40-94 40-180Q40-340 124-440Q208-540 340-540Q426-540 475.50-488Q525-436 525-353Q525-188 439.50-89Q354 10 220 10M240-70Q324-70 374.50-146.50Q425-223 425-341.50Q425-460 320-460Q237-460 188.50-379.50Q140-299 140-185Q140-127 166.50-98.50Q193-70 240-70Z"/><path id="s4:bitter-italic:83" d="M248-530L208-346Q223-385 266-446Q294-485 338.50-512.50Q383-540 439.50-540Q496-540 530.50-488Q565-436 565-360Q565-195 476-92.50Q387 10 263 10Q209 10 165-14L139 150L215 175L205 230L-50 230L-41 175L44 150L140-450L58-470L67-525L248-530M196-185L176-80Q218-65 268-65Q340-65 402.50-139Q465-213 465-345Q465-391 448.50-423Q432-455 397.50-455Q363-455 329.50-427Q296-399 273-360Q223-273 204-213L196-185Z"/><path id="s4:bitter-italic:68" d="M468-80L555-65L546-10L360 0L400-184Q360-104 310-54Q286-30 249.50-10Q213 10 176 10Q120 10 82.50-40Q45-90 45-165Q45-339 133.50-439.50Q222-540 343-540Q372-540 400-532.50Q428-525 442-518L455-510L485-530L540-530L468-80M413-345L433-450Q395-465 343-465Q263-465 204-392.50Q145-320 145-180Q145-129 162-102Q179-75 209.50-75Q240-75 273.50-103Q307-131 331-170Q383-255 404-317L413-345Z"/><path id="s4:bitter-italic:81" d="M397 0L453-345Q457-375 457-389Q457-455 405-455Q369-455 333.50-426.50Q298-398 274-358Q223-275 200-208L191-180L162 0L67 0L139-450L55-470L64-525L247-530L202-336Q217-369 243.50-408Q270-447 295.50-472.50Q321-498 361.50-519Q402-540 445-540Q556-540 556-417Q556-393 551-360L505-80L590-65L581-10L397 0Z"/><path id="s4:bitter-italic:79" d="M55 0L165-690L81-710L90-765L275-770L165-80L251-65L242-10L55 0Z"/><path id="s4:bitter-italic:74" d="M529-530L440 24Q423 131 362 188Q301 245 204 245Q165 245 119 234.50Q73 224 46 214L20 204L44 132Q131 163 194 163Q317 163 345 30L390-184Q349-103 299-54Q275-30 238-10Q201 10 164 10Q108 10 71.50-39.50Q35-89 35-165Q35-339 123-439.50Q211-540 331-540Q361-540 389.50-532.50Q418-525 431-518L444-510L474-530L529-530M402-345L421-450Q385-465 331-465Q252-465 193.50-392.50Q135-320 135-182Q135-129 151.50-102Q168-75 199-75Q230-75 263.50-103Q297-131 321-170Q370-252 392-317L402-345Z"/><path id="s4:bitter-italic:86" d="M109-160L110-75Q140-63 187.50-63Q235-63 265-84Q295-105 295-138Q295-171 272.50-191Q250-211 217.50-226Q185-241 152.50-259Q120-277 97.50-307.50Q75-338 75-380Q75-459 132-499.50Q189-540 277-540Q344-540 404-522L425-515L401-380L336-380L330-458Q308-467 265-467Q222-467 196-449Q170-431 170-399.50Q170-368 193-346.50Q216-325 249-309Q282-293 315.50-275Q349-257 372-228Q395-199 395-160Q395-82 333.50-36Q272 10 170 10Q95 10 40-8L20-15L44-160L109-160Z"/><path id="s4:bitter-italic:80" d="M508-173L481 0L386 0L442-345Q446-375 446-389Q446-455 394-455Q359-455 325-426.50Q291-398 268-358Q218-272 200-208L191-180L162 0L67 0L139-450L55-470L64-525L246-530L203-336Q236-418 288-472Q313-498 352-519Q391-540 434-540Q541-540 541-418Q541-393 536-356Q560-414 606-470Q633-502 671.50-521Q710-540 754-540Q864-540 864-417Q864-393 859-360L813-80L898-65L889-10L705 0L762-345Q766-375 766-388Q766-455 714-455Q678-455 643.50-426Q609-397 586-356Q539-274 517-202L508-173Z"/><path id="s4:bitter-italic:69" d="M271-770L232-530L192-346Q202-373 226.50-411.50Q251-450 275-475.50Q299-501 335.50-520.50Q372-540 411-540Q475-540 510-488Q545-436 545-360Q545-195 453-92.50Q361 10 236 10Q151 10 79-12L55-20L162-690L79-710L88-765L271-770M183-185L162-80Q201-65 246-65Q320-65 382.50-139Q445-213 445-345Q445-392 428-423.50Q411-455 376.50-455Q342-455 309.50-427Q277-399 255-360Q210-278 191-213L183-185Z"/><path id="s4:bitter-italic:73" d="M423-700L374-700Q325-700 303.50-675.50Q282-651 274-605L261-525L402-525L389-450L249-450L174 20Q139 240-31 240Q-66 240-101 230L-114 227L-97 163L-26 163Q56 163 76 40L153-450L59-450L69-515L165-525L175-585Q206-780 374-780Q436-780 494-765L514-760L488-620L423-620L423-700Z"/><path id="s4:bitter-italic:87" d="M310-90L326-36Q251 10 195 10Q94 10 94-109Q94-138 100-173L144-450L45-450L56-515L156-525L176-651L275-671L251-525L389-525L377-450L239-450L196-183Q190-144 190-118.50Q190-93 199-81.50Q208-70 224-70Q254-70 296-85L310-90Z"/><path id="s4:bitter-italic:76" d="M68 0L140-450L55-470L65-525L248-530L176-80L261-65L252-10L68 0M278-707.50Q278-707.50 278-692.25Q278-677 259.50-651Q241-625 212-625Q183-625 168-638.50Q153-652 153-682.50Q153-713 171.50-739Q190-765 219-765Q248-765 263-751.50Q278-738 278-707.50Z"/><path id="s4:bitter-italic:92" d="M575-470L519-454L341-33Q273 128 228 184Q183 240 108 240Q57 240 10 228L-5 224L15 160Q55 165 98 165Q141 165 168.50 138Q196 111 227 39L97-451L20-470L29-525L190-530L274-163L283-95L431-452L356-470L365-525L585-530L575-470Z"/><path id="s4:bitter-italic:17" d="M30-45Q30-80 50.50-105Q71-130 107-130Q162-130 162-75Q162-41 141.50-15.50Q121 10 84 10Q30 10 30-45Z"/><path id="s4:bitter-italic:91" d="M261-198L116 0L-25 0L-16-55L75-83L214-262L120-450L35-470L44-525L201-530L286-340L428-525L570-530L560-470L474-449L334-277L430-80L517-65L508-10L354 0L261-198Z"/><path id="s4:bitter-italic:70" d="M383-365L380-450Q356-460 315-460Q233-460 184-377.50Q135-295 135-182.50Q135-70 230-70Q261-70 298.50-81Q336-92 358-104L380-115L410-65Q399-57 379.50-44.50Q360-32 307-11Q254 10 210 10Q132 10 83.50-39Q35-88 35-175Q35-338 118-439Q201-540 330-540Q366-540 401-530Q436-520 453-510L470-500L448-365L383-365Z"/><path id="s4:bitter-italic:41" d="M289-620L252-395L481-395L469-315L241-315L203-80L301-60L291 0L5 0L15-60L103-80L190-620L107-640L116-695L302-700L603-700L576-530L520-530L510-620L289-620Z"/><path id="s4:bitter-italic:15" d="M41-51Q41-82 62-106Q83-130 116-130Q170-130 170-75Q170-22 118 47Q75 104 38 140L23 154L-15 116Q55 36 55 7Q55-2 48-20Q41-38 41-51Z"/></defs><g id="line-0"><use x="0" y="955" xlink:href="#s4:bitter-italic:55"/><use x="538" y="955" xlink:href="#s4:bitter-italic:75"/><use x="1163" y="955" xlink:href="#s4:bitter-italic:72"/><use x="1667" y="955" xlink:href="#s4:bitter-italic:3"/><use x="1967" y="955" xlink:href="#s4:bitter-italic:40"/><use x="2545" y="955" xlink:href="#s4:bitter-italic:88"/><use x="3177" y="955" xlink:href="#s4:bitter-italic:85"/><use x="3611" y="955" xlink:href="#s4:bitter-italic:82"/><use x="4181" y="955" xlink:href="#s4:bitter-italic:83"/><use x="4794" y="955" xlink:href="#s4:bitter-italic:72"/><use x="5298" y="955" xlink:href="#s4:bitter-italic:68"/><use x="5888" y="955" xlink:href="#s4:bitter-italic:81"/><use x="6528" y="955" xlink:href="#s4:bitter-italic:3"/><use x="6828" y="955" xlink:href="#s4:bitter-italic:79"/><use x="7148" y="955" xlink:href="#s4:bitter-italic:68"/><use x="7738" y="955" xlink:href="#s4:bitter-italic:81"/><use x="8378" y="955" xlink:href="#s4:bitter-italic:74"/><use x="8937" y="955" xlink:href="#s4:bitter-italic:88"/><use x="9569" y="955" xlink:href="#s4:bitter-italic:68"/><use x="10159" y="955" xlink:href="#s4:bitter-italic:74"/><use x="10718" y="955" xlink:href="#s4:bitter-italic:72"/><use x="11222" y="955" xlink:href="#s4:bitter-italic:86"/><use x="11687" y="955" xlink:href="#s4:bitter-italic:3"/><use x="11987" y="955" xlink:href="#s4:bitter-italic:68"/><use x="12577" y="955" xlink:href="#s4:bitter-italic:85"/><use x="13011" y="955" xlink:href="#s4:bitter-italic:72"/><use x="13515" y="955" xlink:href="#s4:bitter-italic:3"/><use x="13815" y="955" xlink:href="#s4:bitter-italic:80"/><use x="14759" y="955" xlink:href="#s4:bitter-italic:72"/><use x="15263" y="955" xlink:href="#s4:bitter-italic:80"/><use x="16207" y="955" xlink:href="#s4:bitter-italic:69"/><use x="16798" y="955" xlink:href="#s4:bitter-italic:72"/><use x="17302" y="955" xlink:href="#s4:bitter-italic:85"/><use x="17736" y="955" xlink:href="#s4:bitter-italic:86"/><use x="18201" y="955" xlink:href="#s4:bitter-italic:3"/><use x="18501" y="955" xlink:href="#s4:bitter-italic:82"/><use x="19071" y="955" xlink:href="#s4:bitter-italic:73"/><use x="19425" y="955" xlink:href="#s4:bitter-italic:3"/><use x="19725" y="955" xlink:href="#s4:bitter-italic:87"/><use x="20094" y="955" xlink:href="#s4:bitter-italic:75"/><use x="20719" y="955" xlink:href="#s4:bitter-italic:72"/><use x="21223" y="955" xlink:href="#s4:bitter-italic:3"/><use x="21523" y="955" xlink:href="#s4:bitter-italic:86"/><use x="21988" y="955" xlink:href="#s4:bitter-italic:68"/><use x="22578" y="955" xlink:href="#s4:bitter-italic:80"/><use x="23522" y="955" xlink:href="#s4:bitter-italic:72"/><use x="24026" y="955" xlink:href="#s4:bitter-italic:3"/><use x="24326" y="955" xlink:href="#s4:bitter-italic:73"/><use x="24680" y="955" xlink:href="#s4:bitter-italic:68"/><use x="25270" y="955" xlink:href="#s4:bitter-italic:80"/><use x="26214" y="955" xlink:href="#s4:bitter-italic:76"/><use x="26537" y="955" xlink:href="#s4:bitter-italic:79"/><use x="26857" y="955" xlink:href="#s4:bitter-italic:92"/><use x="27427" y="955" xlink:href="#s4:bitter-italic:17"/></g><g id="line-1"><use x="5614.5" y="2155" xlink:href="#s4:bitter-italic:55"/><use x="6152.5" y="2155" xlink:href="#s4:bitter-italic:75"/><use x="6777.5" y="2155" xlink:href="#s4:bitter-italic:72"/><use x="7281.5" y="2155" xlink:href="#s4:bitter-italic:76"/><use x="7604.5" y="2155" xlink:href="#s4:bitter-italic:85"/><use x="8038.5" y="2155" xlink:href="#s4:bitter-italic:3"/><use x="8338.5" y="2155" xlink:href="#s4:bitter-italic:86"/><use x="8803.5" y="2155" xlink:href="#s4:bitter-italic:72"/><use x="9307.5" y="2155" xlink:href="#s4:bitter-italic:83"/><use x="9920.5" y="2155" xlink:href="#s4:bitter-italic:68"/><use x="10510.5" y="2155" xlink:href="#s4:bitter-italic:85"/><use x="10944.5" y="2155" xlink:href="#s4:bitter-italic:68"/><use x="11534.5" y="2155" xlink:href="#s4:bitter-italic:87"/><use x="11903.5" y="2155" xlink:href="#s4:bitter-italic:72"/><use x="12407.5" y="2155" xlink:href="#s4:bitter-italic:3"/><use x="12707.5" y="2155" xlink:href="#s4:bitter-italic:72"/><use x="13211.5" y="2155" xlink:href="#s4:bitter-italic:91"/><use x="13756.5" y="2155" xlink:href="#s4:bitter-italic:76"/><use x="14079.5" y="2155" xlink:href="#s4:bitter-italic:86"/><use x="14544.5" y="2155" xlink:href="#s4:bitter-italic:87"/><use x="14913.5" y="2155" xlink:href="#s4:bitter-italic:72"/><use x="15417.5" y="2155" xlink:href="#s4:bitter-italic:81"/><use x="16057.5" y="2155" xlink:href="#s4:bitter-italic:70"/><use x="16522.5" y="2155" xlink:href="#s4:bitter-italic:72"/><use x="17026.5" y="2155" xlink:href="#s4:bitter-italic:3"/><use x="17326.5" y="2155" xlink:href="#s4:bitter-italic:76"/><use x="17649.5" y="2155" xlink:href="#s4:bitter-italic:86"/><use x="18114.5" y="2155" xlink:href="#s4:bitter-italic:3"/><use x="18414.5" y="2155" xlink:href="#s4:bitter-italic:68"/><use x="19004.5" y="2155" xlink:href="#s4:bitter-italic:3"/><use x="19304.5" y="2155" xlink:href="#s4:bitter-italic:80"/><use x="20248.5" y="2155" xlink:href="#s4:bitter-italic:92"/><use x="20818.5" y="2155" xlink:href="#s4:bitter-italic:87"/><use x="21187.5" y="2155" xlink:href="#s4:bitter-italic:75"/><use x="21812.5" y="2155" xlink:href="#s4:bitter-italic:17"/></g><g id="line-2"><use x="6996.5" y="3355" xlink:href="#s4:bitter-italic:41"/><use x="7544.5" y="3355" xlink:href="#s4:bitter-italic:82"/><use x="8114.5" y="3355" xlink:href="#s4:bitter-italic:85"/><use x="8548.5" y="3355" xlink:href="#s4:bitter-italic:3"/><use x="8848.5" y="3355" xlink:href="#s4:bitter-italic:86"/><use x="9313.5" y="3355" xlink:href="#s4:bitter-italic:70"/><use x="9778.5" y="3355" xlink:href="#s4:bitter-italic:76"/><use x="10101.5" y="3355" xlink:href="#s4:bitter-italic:72"/><use x="10605.5" y="3355" xlink:href="#s4:bitter-italic:81"/><use x="11245.5" y="3355" xlink:href="#s4:bitter-italic:70"/><use x="11710.5" y="3355" xlink:href="#s4:bitter-italic:72"/><use x="12214.5" y="3355" xlink:href="#s4:bitter-italic:15"/><use x="12444.5" y="3355" xlink:href="#s4:bitter-italic:3"/><use x="12744.5" y="3355" xlink:href="#s4:bitter-italic:80"/><use x="13688.5" y="3355" xlink:href="#s4:bitter-italic:88"/><use x="14320.5" y="3355" xlink:href="#s4:bitter-italic:86"/><use x="14785.5" y="3355" xlink:href="#s4:bitter-italic:76"/><use x="15108.5" y="3355" xlink:href="#s4:bitter-italic:70"/><use x="15573.5" y="3355" xlink:href="#s4:bitter-italic:15"/><use x="15803.5" y="3355" xlink:href="#s4:bitter-italic:3"/><use x="16103.5" y="3355" xlink:href="#s4:bitter-italic:86"/><use x="16568.5" y="3355" xlink:href="#s4:bitter-italic:83"/><use x="17181.5" y="3355" xlink:href="#s4:bitter-italic:82"/><use x="17751.5" y="3355" xlink:href="#s4:bitter-italic:85"/><use x="18185.5" y="3355" xlink:href="#s4:bitter-italic:87"/><use x="18554.5" y="3355" xlink:href="#s4:bitter-italic:15"/><use x="18784.5" y="3355" xlink:href="#s4:bitter-italic:3"/><use x="19084.5" y="3355" xlink:href="#s4:bitter-italic:72"/><use x="19588.5" y="3355" xlink:href="#s4:bitter-italic:87"/><use x="19957.5" y="3355" xlink:href="#s4:bitter-italic:70"/><use x="20422.5" y="3355" xlink:href="#s4:bitter-italic:15"/></g></svg>