<svg xmlns="http://www.w3.org/2000/svg" xmlns:xlink="http://www.w3.org/1999/xlink" width="579" height="84" viewBox="0 0 24141 3490"><defs><path id="s18:cabin-semibolditalic:185" d="M268-588L81-588L101-700L593-700L573-588L386-588L283 0L165 0L268-588Z"/><path id="s18:cabin-semibolditalic:311" d="M140-750L254-750L202-450Q235-480 267.50-493Q300-506 339-506Q405-506 440.50-464Q476-422 476-356Q476-315 467-260L422 0L308 0L350-246Q361-305 361-335Q361-370 343-390Q325-410 291-410Q261-410 236.50-397.50Q212-385 186-361L122 0L8 0L140-750Z"/><path id="s18:cabin-semibolditalic:280" d="M234 10Q128 10 73.50-49.50Q19-109 19-204Q19-282 54-351.50Q89-421 152-463.50Q215-506 296-506Q372-506 413-468.50Q454-431 454-367Q454-288 390.50-245Q327-202 219-202Q169-202 139-209Q141-143 174.50-114Q208-85 258-85Q334-85 408-123L397-28Q365-11 323-0.50Q281 10 234 10M202-277Q285-277 321-301Q357-325 357-359Q357-388 336.50-399Q316-410 290-410Q239-410 202-372.50Q165-335 149-283Q169-277 202-277Z"/><path id="s18:cabin-semibolditalic:3" d=""/><path id="s18:cabin-semibolditalic:47" d="M150-700L571-700L551-588L251-588L222-422L454-422L435-309L202-309L167-112L476-112L456 0L27 0L150-700Z"/><path id="s18:cabin-semibolditalic:428" d="M188 10Q113 10 74-33Q35-76 35-153Q35-181 42-219L90-497L204-497L158-230Q151-191 151-173Q151-87 227-87Q284-87 324-133L389-497L503-497L415 0L308 0L313-42Q284-17 254.50-3.50Q225 10 188 10Z"/><path id="s18:cabin-semibolditalic:399" d="M95-497L201-497L194-435Q221-467 258.50-487.50Q296-508 335-508L364-508L322-396L279-396Q251-396 224-380.50Q197-365 183-343L122 0L8 0L95-497Z"/><path id="s18:cabin-semibolditalic:361" d="M219 10Q122 10 70-50Q18-110 18-203Q18-282 55-352Q92-422 157-464Q222-506 303-506Q400-506 452-446Q504-386 504-293Q504-214 467-144Q430-74 365-32Q300 10 219 10M234-85Q278-85 313-112Q348-139 367-184.50Q386-230 386-284Q386-345 361-377.50Q336-410 287-410Q243-410 208.50-383.50Q174-357 155-311.50Q136-266 136-212Q136-151 161-118Q186-85 234-85Z"/><path id="s18:cabin-semibolditalic:396" d="M95-497L194-497L193-445Q227-475 261.50-490.50Q296-506 339-506Q421-506 467-448Q513-390 513-296Q513-209 482-139Q451-69 394.50-29.50Q338 10 264 10Q218 10 184.50-8Q151-26 131-58L79 242L-35 242L95-497M255-85Q296-85 327.50-111.50Q359-138 377-184Q395-230 395-286Q395-343 372.50-376.50Q350-410 305-410Q262-410 227.50-383.50Q193-357 173.50-310Q154-263 154-205Q154-145 179.50-115Q205-85 255-85Z"/><path id="s18:cabin-semibolditalic:238" d="M197 10Q115 10 67-46.50Q19-103 19-194Q19-274 53.50-345.50Q88-417 150.50-461.50Q213-506 293-506Q368-506 408-457L424-497L523-497L465-153Q461-132 461-115Q461-94 470.50-88.50Q480-83 509-83L482 10Q435 10 410.50 5.50Q386 1 371.50-12Q357-25 346-52Q315-23 279.50-6.50Q244 10 197 10M236-85Q283-85 315-115Q347-145 362-191Q377-237 377-287Q377-347 353.50-378.50Q330-410 284-410Q242-410 208.50-383Q175-356 156-310.50Q137-265 137-211Q137-153 161.50-119Q186-85 236-85Z"/><path id="s18:cabin-semibolditalic:350" d="M95-497L195-497L197-460Q228-483 259.50-494.50Q291-506 329-506Q404-506 441-461.50Q478-417 478-340Q478-322 468.50-261.50Q459-201 424 0L309 0Q339-172 350.50-242.50Q362-313 362-325Q362-369 344-389.50Q326-410 287-410Q227-410 186-361L122 0L8 0L95-497Z"/><path id="s18:cabin-semibolditalic:339" d="M125 10Q74 10 49-16Q24-42 24-85Q24-102 37-174L138-750L252-750L150-165Q143-127 143-117Q143-95 154-89Q165-83 193-83L166 10L125 10Z"/><path id="s18:cabin-semibolditalic:304" d="M154 250Q86 250 41 231.50Q-4 213-24.50 183.50Q-45 154-45 120Q-45 82-19.50 48.50Q6 15 55-9Q40-20 31.50-35.50Q23-51 23-68Q23-117 84-148Q60-171 48-205Q36-239 36-277Q36-337 64-389.50Q92-442 144-474Q196-506 263-506Q329-506 367-474Q385-484 413.50-491Q442-498 473-498L501-498L481-425L440-425Q428-425 411-422Q424-389 424-343Q424-284 396-231.50Q368-179 316-146.50Q264-114 197-114Q171-114 145-120Q131-110 131-97Q131-81 155.50-73.50Q180-66 243-55Q314-44 361.50-17.50Q409 9 409 74Q409 122 378 162.50Q347 203 289 226.50Q231 250 154 250M211-198Q261-198 291-238Q321-278 321-334Q321-420 248-420Q198-420 168.50-381Q139-342 139-285Q139-243 157-220.50Q175-198 211-198M163 167Q222 167 263 145.50Q304 124 304 92Q304 62 270 48.50Q236 35 177 27Q136 20 133 19Q99 30 76 51.50Q53 73 53 101Q53 131 82 149Q111 167 163 167Z"/><path id="s18:cabin-semibolditalic:407" d="M148 10Q62 10-12-29L16-129Q91-79 157-79Q197-79 217-95.50Q237-112 237-140Q237-168 219-182.50Q201-197 162-210Q104-229 74-255.50Q44-282 44-337Q44-383 67-421.50Q90-460 136-483Q182-506 248-506Q330-506 389-470L363-376Q304-422 237-422Q198-422 175-406.50Q152-391 152-361Q152-341 163-329Q174-317 190-310Q206-303 247-288Q299-269 326-239.50Q353-210 353-157Q353-114 331.50-76Q310-38 264-14Q218 10 148 10Z"/><path id="s18:cabin-semibolditalic:348" d="M95-497L188-497L188-454Q215-478 249-492Q283-506 320-506Q363-506 398-486Q433-466 450-423Q471-457 516.50-481.50Q562-506 622-506Q698-506 736.50-464Q775-422 775-347Q775-328 766-271.50Q757-215 719 0L605 0Q636-174 647.50-244.50Q659-315 659-329Q659-374 641.50-392Q624-410 589-410Q535-410 508-378.50Q481-347 473-301L421 0L307 0Q337-167 349.50-242Q362-317 362-334Q362-410 285-410Q227-410 186-362L122 0L8 0L95-497Z"/><path id="s18:cabin-semibolditalic:265" d="M266 10Q173 10 126-61L110 0L8 0L140-750L255-750L202-452Q229-479 264-492.50Q299-506 335-506Q420-506 466.50-446.50Q513-387 513-295Q513-211 482-141.50Q451-72 395-31Q339 10 266 10M253-85Q294-85 326.50-111.50Q359-138 377-184Q395-230 395-284Q395-342 372-376Q349-410 303-410Q259-410 225-383Q191-356 173-309.50Q155-263 155-207Q155-85 253-85Z"/><path id="s18:cabin-semibolditalic:303" d="M106-405L38-405L65-497L122-497L143-617Q153-677 189-713.50Q225-750 300-750Q323-750 384-742L356-647Q331-653 313-653Q290-653 279-645.50Q268-638 261.50-620Q255-602 248-563L236-497L342-497L326-405L220-405L149 0L35 0L106-405Z"/><path id="s18:cabin-semibolditalic:420" d="M158 10Q104 10 78.50-18.50Q53-47 53-91Q53-107 106-405L38-405L64-497L122-497L142-610L258-622L236-497L341-497L325-405L220-405Q193-252 182.50-189.50Q172-127 172-117Q172-94 184.50-88.50Q197-83 236-83L268-83L241 10L158 10Z"/><path id="s18:cabin-semibolditalic:316" d="M131-700L246-700L225-583L111-583L131-700M95-497L209-497L122 0L8 0L95-497Z"/><path id="s18:cabin-semibolditalic:458" d="M147-30L33-497L160-497L224-162L406-497L533-497L109 242L-6 242L147-30Z"/><path id="s18:cabin-semibolditalic:569" d="M9-127L133-127L111 0L-13 0L9-127Z"/><path id="s18:cabin-semibolditalic:457" d="M158-249L50-497L185-497L242-327L354-497L491-497L290-246L404 0L268 0L208-161L97 0L-38 0L158-249Z"/><path id="s18:cabin-semibolditalic:266" d="M214 10Q115 10 67.50-48Q20-106 20-200Q20-281 53.50-351Q87-421 152-463.50Q217-506 307-506Q386-506 435-471L407-373Q357-410 306-410Q254-410 216-383.50Q178-357 158-312.50Q138-268 138-213Q138-152 165-118.50Q192-85 249-85Q304-85 363-123L357-25Q296 10 214 10Z"/><path id="s18:cabin-semibolditalic:70" d="M150-700L556-700L536-588L248-588L219-422L441-422L421-309L199-309L145 0L27 0L150-700Z"/><path id="s18:cabin-semibolditalic:564" d="M-29 116L33 0L-13 0L10-127L133-127L113-11L29 116L-29 116Z"/></defs><g id="line-0"><use x="0" y="840" xlink:href="#s18:cabin-semibolditalic:185"/><use x="544" y="840" xlink:href="#s18:cabin-semibolditalic:311"/><use x="1072" y="840" xlink:href="#s18:cabin-semibolditalic:280"/><use x="1551" y="840" xlink:href="#s18:cabin-semibolditalic:3"/><use x="1763" y="840" xlink:href="#s18:cabin-semibolditalic:47"/><use x="2300" y="840" xlink:href="#s18:cabin-semibolditalic:428"/><use x="2827" y="840" xlink:href="#s18:cabin-semibolditalic:399"/><use x="3150" y="840" xlink:href="#s18:cabin-semibolditalic:361"/><use x="3688" y="840" xlink:href="#s18:cabin-semibolditalic:396"/><use x="4236" y="840" xlink:href="#s18:cabin-semibolditalic:280"/><use x="4715" y="840" xlink:href="#s18:cabin-semibolditalic:238"/><use x="5286" y="840" xlink:href="#s18:cabin-semibolditalic:350"/><use x="5816" y="840" xlink:href="#s18:cabin-semibolditalic:3"/><use x="6028" y="840" xlink:href="#s18:cabin-semibolditalic:339"/><use x="6283" y="840" xlink:href="#s18:cabin-semibolditalic:238"/><use x="6854" y="840" xlink:href="#s18:cabin-semibolditalic:350"/><use x="7381" y="840" xlink:href="#s18:cabin-semibolditalic:304"/><use x="7860" y="840" xlink:href="#s18:cabin-semibolditalic:428"/><use x="8387" y="840" xlink:href="#s18:cabin-semibolditalic:238"/><use x="8955" y="840" xlink:href="#s18:cabin-semibolditalic:304"/><use x="9434" y="840" xlink:href="#s18:cabin-semibolditalic:280"/><use x="9913" y="840" xlink:href="#s18:cabin-semibolditalic:407"/><use x="10321" y="840" xlink:href="#s18:cabin-semibolditalic:3"/><use x="10533" y="840" xlink:href="#s18:cabin-semibolditalic:238"/><use x="11104" y="840" xlink:href="#s18:cabin-semibolditalic:399"/><use x="11427" y="840" xlink:href="#s18:cabin-semibolditalic:280"/><use x="11906" y="840" xlink:href="#s18:cabin-semibolditalic:3"/><use x="12118" y="840" xlink:href="#s18:cabin-semibolditalic:348"/><use x="12943" y="840" xlink:href="#s18:cabin-semibolditalic:280"/><use x="13422" y="840" xlink:href="#s18:cabin-semibolditalic:348"/><use x="14247" y="840" xlink:href="#s18:cabin-semibolditalic:265"/><use x="14795" y="840" xlink:href="#s18:cabin-semibolditalic:280"/><use x="15274" y="840" xlink:href="#s18:cabin-semibolditalic:399"/><use x="15604" y="840" xlink:href="#s18:cabin-semibolditalic:407"/><use x="16012" y="840" xlink:href="#s18:cabin-semibolditalic:3"/><use x="16224" y="840" xlink:href="#s18:cabin-semibolditalic:361"/><use x="16762" y="840" xlink:href="#s18:cabin-semibolditalic:303"/><use x="17087" y="840" xlink:href="#s18:cabin-semibolditalic:3"/><use x="17299" y="840" xlink:href="#s18:cabin-semibolditalic:420"/><use x="17626" y="840" xlink:href="#s18:cabin-semibolditalic:311"/><use x="18154" y="840" xlink:href="#s18:cabin-semibolditalic:280"/><use x="18633" y="840" xlink:href="#s18:cabin-semibolditalic:3"/><use x="18845" y="840" xlink:href="#s18:cabin-semibolditalic:407"/><use x="19253" y="840" xlink:href="#s18:cabin-semibolditalic:238"/><use x="19824" y="840" xlink:href="#s18:cabin-semibolditalic:348"/><use x="20649" y="840" xlink:href="#s18:cabin-semibolditalic:280"/><use x="21128" y="840" xlink:href="#s18:cabin-semibolditalic:3"/><use x="21340" y="840" xlink:href="#s18:cabin-semibolditalic:303"/><use x="21665" y="840" xlink:href="#s18:cabin-semibolditalic:238"/><use x="22236" y="840" xlink:href="#s18:cabin-semibolditalic:348"/><use x="23061" y="840" xlink:href="#s18:cabin-semibolditalic:316"/><use x="23295" y="840" xlink:href="#s18:cabin-semibolditalic:339"/><use x="23541" y="840" xlink:href="#s18:cabin-semibolditalic:458"/><use x="24008" y="840" xlink:href="#s18:cabin-semibolditalic:569"/></g><g id="line-1"><use x="4957.5" y="2040" xlink:href="#s18:cabin-semibolditalic:185"/><use x="5501.5" y="2040" xlink:href="#s18:cabin-semibolditalic:311"/><use x="6029.5" y="2040" xlink:href="#s18:cabin-semibolditalic:280"/><use x="6508.5" y="2040" xlink:href="#s18:cabin-semibolditalic:316"/><use x="6742.5" y="2040" xlink:href="#s18:cabin-semibolditalic:399"/><use x="7072.5" y="2040" xlink:href="#s18:cabin-semibolditalic:3"/><use x="7284.5" y="2040" xlink:href="#s18:cabin-semibolditalic:407"/><use x="7692.5" y="2040" xlink:href="#s18:cabin-semibolditalic:280"/><use x="8171.5" y="2040" xlink:href="#s18:cabin-semibolditalic:396"/><use x="8719.5" y="2040" xlink:href="#s18:cabin-semibolditalic:238"/><use x="9290.5" y="2040" xlink:href="#s18:cabin-semibolditalic:399"/><use x="9620.5" y="2040" xlink:href="#s18:cabin-semibolditalic:238"/><use x="10184.5" y="2040" xlink:href="#s18:cabin-semibolditalic:420"/><use x="10511.5" y="2040" xlink:href="#s18:cabin-semibolditalic:280"/><use x="10990.5" y="2040" xlink:href="#s18:cabin-semibolditalic:3"/><use x="11202.5" y="2040" xlink:href="#s18:cabin-semibolditalic:280"/><use x="11681.5" y="2040" xlink:href="#s18:cabin-semibolditalic:457"/><use x="12149.5" y="2040" xlink:href="#s18:cabin-semibolditalic:316"/><use x="12383.5" y="2040" xlink:href="#s18:cabin-semibolditalic:407"/><use x="12791.5" y="2040" xlink:href="#s18:cabin-semibolditalic:420"/><use x="13118.5" y="2040" xlink:href="#s18:cabin-semibolditalic:280"/><use x="13597.5" y="2040" xlink:href="#s18:cabin-semibolditalic:350"/><use x="14127.5" y="2040" xlink:href="#s18:cabin-semibolditalic:266"/><use x="14553.5" y="2040" xlink:href="#s18:cabin-semibolditalic:280"/><use x="15032.5" y="2040" xlink:href="#s18:cabin-semibolditalic:3"/><use x="15244.5" y="2040" xlink:href="#s18:cabin-semibolditalic:316"/><use x="15478.5" y="2040" xlink:href="#s18:cabin-semibolditalic:407"/><use x="15886.5" y="2040" xlink:href="#s18:cabin-semibolditalic:3"/><use x="16098.5" y="2040" xlink:href="#s18:cabin-semibolditalic:238"/><use x="16669.5" y="2040" xlink:href="#s18:cabin-semibolditalic:3"/><use x="16881.5" y="2040" xlink:href="#s18:cabin-semibolditalic:348"/><use x="17691.5" y="2040" xlink:href="#s18:cabin-semibolditalic:458"/><use x="18195.5" y="2040" xlink:href="#s18:cabin-semibolditalic:420"/><use x="18522.5" y="2040" xlink:href="#s18:cabin-semibolditalic:311"/><use x="19050.5" y="2040" xlink:href="#s18:cabin-semibolditalic:569"/></g><g id="line-2"><use x="6213.5" y="3240" xlink:href="#s18:cabin-semibolditalic:70"/><use x="6693.5" y="3240" xlink:href="#s18:cabin-semibolditalic:361"/><use x="7231.5" y="3240" xlink:href="#s18:cabin-semibolditalic:399"/><use x="7561.5" y="3240" xlink:href="#s18:cabin-semibolditalic:3"/><use x="7773.5" y="3240" xlink:href="#s18:cabin-semibolditalic:407"/><use x="8181.5" y="3240" xlink:href="#s18:cabin-semibolditalic:266"/><use x="8612.5" y="3240" xlink:href="#s18:cabin-semibolditalic:316"/><use x="8846.5" y="3240" xlink:href="#s18:cabin-semibolditalic:280"/><use x="9325.5" y="3240" xlink:href="#s18:cabin-semibolditalic:350"/><use x="9855.5" y="3240" xlink:href="#s18:cabin-semibolditalic:266"/><use x="10281.5" y="3240" xlink:href="#s18:cabin-semibolditalic:280"/><use x="10760.5" y="3240" xlink:href="#s18:cabin-semibolditalic:564"/><use x="10956.5" y="3240" xlink:href="#s18:cabin-semibolditalic:3"/><use x="11168.5" y="3240" xlink:href="#s18:cabin-semibolditalic:348"/><use x="11990.5" y="3240" xlink:href="#s18:cabin-semibolditalic:428"/><use x="12517.5" y="3240" xlink:href="#s18:cabin-semibolditalic:407"/><use x="12925.5" y="3240" xlink:href="#s18:cabin-semibolditalic:316"/><use x="13159.5" y="3240" xlink:href="#s18:cabin-semibolditalic:266"/><use x="13590.5" y="3240" xlink:href="#s18:cabin-semibolditalic:564"/><use x="13786.5" y="3240" xlink:href="#s18:cabin-semibolditalic:3"/><use x="13998.5" y="3240" xlink:href="#s18:cabin-semibolditalic:407"/><use x="14406.5" y="3240" xlink:href="#s18:cabin-semibolditalic:396"/><use x="14954.5" y="3240" xlink:href="#s18:cabin-semibolditalic:361"/><use x="15492.5" y="3240" xlink:href="#s18:cabin-semibolditalic:399"/><use x="15822.5" y="3240" xlink:href="#s18:cabin-semibolditalic:420"/><use x="16149.5" y="3240" xlink:href="#s18:cabin-semibolditalic:564"/><use x="16345.5" y="3240" xlink:href="#s18:cabin-semibolditalic:3"/><use x="16557.5" y="3240" xlink:href="#s18:cabin-semibolditalic:280"/><use x="17036.5" y="3240" xlink:href="#s18:cabin-semibolditalic:420"/><use x="17363.5" y="3240" xlink:href="#s18:cabin-semibolditalic:266"/><use x="17794.5" y="3240" xlink:href="#s18:cabin-semibolditalic:564"/></g></svg>