<svg xmlns="http://www.w3.org/2000/svg" xmlns:xlink="http://www.w3.org/1999/xlink" width="583" height="84" viewBox="0 0 24272 3490"><defs><path id="s16:cabin-regular:185" d="M219-614L15-614L15-700L518-700L518-614L314-614L314 0L219 0L219-614Z"/><path id="s16:cabin-regular:312" d="M295-500Q388-500 437-439Q486-378 486-273L486 0L396 0L396-262Q396-343 366.50-381.50Q337-420 275-420Q237-420 205-402.50Q173-385 151-353L151 0L60 0L60-750L151-750L151-443Q180-471 214.50-485.50Q249-500 295-500Z"/><path id="s16:cabin-regular:280" d="M296 10Q212 10 152.50-24.50Q93-59 62-118Q31-177 31-249Q31-318 59.50-375.50Q88-433 142.50-466.50Q197-500 271-500Q365-500 423.50-445Q482-390 482-293Q482-268 478-245L123-245Q132-150 181-110Q230-70 307-70Q384-70 448-99L460-28Q375 10 296 10M389-307Q389-360 359-390Q329-420 269-420Q211-420 178-391.50Q145-363 131-307L389-307Z"/><path id="s16:cabin-regular:3" d=""/><path id="s16:cabin-regular:47" d="M80-700L507-700L507-614L175-614L175-409L439-409L439-323L175-323L175-86L516-86L516 0L80 0L80-700Z"/><path id="s16:cabin-regular:428" d="M237 10Q149 10 102.50-43.50Q56-97 56-205L56-490L146-490L146-230Q146-150 173.50-110Q201-70 260-70Q296-70 326-84Q356-98 373-126L373-490L463-490L463 0L383 0L373-54Q349-21 316.50-5.50Q284 10 237 10Z"/><path id="s16:cabin-regular:400" d="M61-490L135-490L146-409Q184-456 218.50-478Q253-500 291-500Q303-500 314-497L305-398Q292-401 275-401Q238-401 205-384.50Q172-368 157-346L157 0L61 0L61-490Z"/><path id="s16:cabin-regular:362" d="M275 10Q200 10 145-23.50Q90-57 61-115Q32-173 32-245Q32-317 61-375Q90-433 145-466.50Q200-500 275-500Q349-500 404.50-466.50Q460-433 489-375Q518-317 518-245Q518-173 489-115Q460-57 404.50-23.50Q349 10 275 10M275-70Q347-70 386.50-116Q426-162 426-245Q426-328 386.50-374Q347-420 275-420Q203-420 163.50-374Q124-328 124-245Q124-162 163.50-116Q203-70 275-70Z"/><path id="s16:cabin-regular:397" d="M310-500Q375-500 423.50-466.50Q472-433 498-375Q524-317 524-245Q524-172 499.50-114.50Q475-57 427-23.50Q379 10 310 10Q259 10 217-8Q175-26 151-60L151 242L61 242L61-490L131-490L141-422Q203-500 310-500M293-70Q358-70 395-116.50Q432-163 432-245Q432-327 395-373.50Q358-420 293-420Q229-420 187.50-375Q146-330 146-245Q146-157 187-113.50Q228-70 293-70Z"/><path id="s16:cabin-regular:238" d="M175 10Q107 10 65.50-30Q24-70 24-132Q24-225 112-265Q200-305 317-307Q317-373 291.50-396.50Q266-420 210-420Q179-420 148-410.50Q117-401 81-376L68-449Q98-472 142-486Q186-500 234-500Q297-500 334.50-478Q372-456 389.50-405Q407-354 407-265L407-165Q407-125 410.50-104.50Q414-84 426-73Q438-62 463-62L472-62L458 10L451 10Q409 10 385 2Q361-6 348.50-21Q336-36 325-62Q263 10 175 10M192-62Q228-62 261.50-80Q295-98 317-128L317-245Q209-241 162.50-216.50Q116-192 116-137Q116-99 136.50-80.50Q157-62 192-62Z"/><path id="s16:cabin-regular:351" d="M61-490L131-490L141-438Q180-473 219.50-486.50Q259-500 303-500Q503-500 503-270L503 0L413 0L413-270Q413-349 383.50-384.50Q354-420 285-420Q241-420 205-404Q169-388 151-356L151 0L61 0L61-490Z"/><path id="s16:cabin-regular:340" d="M187 10Q121 10 90.50-24Q60-58 60-108L60-750L150-750L150-160Q150-116 155.50-96Q161-76 177-69Q193-62 229-62L216 10L187 10Z"/><path id="s16:cabin-regular:305" d="M259 250Q155 250 90.50 212Q26 174 26 104Q26 27 111-11Q63-35 63-73Q63-121 121-144Q80-169 58-212Q36-255 36-309Q36-363 60.50-406.50Q85-450 130.50-475Q176-500 238-500Q304-500 358-462Q411-492 480-492L488-492L477-432L454-432Q445-432 428-430Q411-428 398-425Q419-401 430-371Q441-341 441-309Q441-253 416.50-208.50Q392-164 346-138.50Q300-113 238-113Q202-113 172-122Q149-114 149-96Q149-72 204-64L335-43Q417-30 459 4Q501 38 501 98Q501 173 436.50 211.50Q372 250 259 250M238-185Q294-185 324.50-218.50Q355-252 355-308Q355-362 324.50-395Q294-428 238-428Q182-428 152-395Q122-362 122-308Q122-252 152-218.50Q182-185 238-185M267 170Q336 170 373 152Q410 134 410 100Q410 74 387.50 58.50Q365 43 320 34L180 10Q150 24 131 44.50Q112 65 112 90Q112 131 153 150.50Q194 170 267 170Z"/><path id="s16:cabin-regular:408" d="M200 10Q142 10 98.50-3.50Q55-17 32-33L43-120Q63-102 104.50-86Q146-70 196-70Q243-70 268.50-86Q294-102 294-131Q294-165 266-182.50Q238-200 196-212Q150-224 118.50-237.50Q87-251 64.50-279Q42-307 42-353Q42-416 87-458Q132-500 226-500Q269-500 299-491.50Q329-483 359-468L348-386Q324-406 295-417.50Q266-429 228-429Q184-429 158.50-412.50Q133-396 133-363Q133-341 145-327.50Q157-314 179-305Q201-296 247-282Q304-265 345.50-234Q387-203 387-136Q387-76 344.50-33Q302 10 200 10Z"/><path id="s16:cabin-regular:349" d="M633-500Q821-500 821-289L821 0L731 0L731-288Q731-357 704-388.50Q677-420 616-420Q486-420 486-284L486 0L396 0L396-270Q396-354 366.50-387Q337-420 281-420Q237-420 203-404Q169-388 151-356L151 0L61 0L61-490L131-490L141-438Q178-471 215.50-485.50Q253-500 296-500Q408-500 454-402Q505-500 633-500Z"/><path id="s16:cabin-regular:265" d="M302-500Q368-500 418.50-465Q469-430 496-371.50Q523-313 523-245Q523-175 493.50-116.50Q464-58 413.50-24Q363 10 302 10Q257 10 215-8.50Q173-27 150-60L140 0L60 0L60-750L150-750L150-433Q177-464 217.50-482Q258-500 302-500M291-70Q354-70 392.50-120.50Q431-171 431-245Q431-321 392.50-370.50Q354-420 291-420Q229-420 187-374.50Q145-329 145-245Q145-158 186.50-114Q228-70 291-70Z"/><path id="s16:cabin-regular:304" d="M95-420L10-420L22-490L95-490L95-606Q95-673 130.50-711.50Q166-750 233-750Q277-750 311-737L297-661Q273-670 247-670Q185-670 185-600L185-490L317-490L317-420L185-420L185 0L95 0L95-420Z"/><path id="s16:cabin-regular:420" d="M230 10Q165 10 133.50-24Q102-58 102-107L102-420L18-420L26-490L102-490L102-611L192-620L192-490L321-490L321-420L192-420L192-162Q192-111 198-92Q204-73 223.50-67.50Q243-62 295-62L318-62L311 10L230 10Z"/><path id="s16:cabin-regular:317" d="M61-700L151-700L151-600L61-600L61-700M61-490L151-490L151 0L61 0L61-490Z"/><path id="s16:cabin-regular:458" d="M211-22L7-490L107-490L260-126L398-490L498-490L198 242L98 242L211-22Z"/><path id="s16:cabin-regular:569" d="M50-106L158-106L158 0L50 0L50-106Z"/><path id="s16:cabin-regular:457" d="M182-244L15-490L116-490L239-296L352-490L457-490L296-252L463 0L362 0L238-193L112 0L11 0L182-244Z"/><path id="s16:cabin-regular:266" d="M286 10Q206 10 148.50-23Q91-56 62-113.50Q33-171 33-242Q33-358 98.50-429Q164-500 293-500Q369-500 427-471L413-392Q352-420 291-420Q211-420 168-374.50Q125-329 125-246Q125-163 166.50-116Q208-69 289-69Q354-69 414-99L426-27Q404-12 365.50-1Q327 10 286 10Z"/><path id="s16:cabin-regular:70" d="M80-700L507-700L507-614L175-614L175-409L431-409L431-323L175-323L175 0L80 0L80-700Z"/><path id="s16:cabin-regular:564" d="M57 107L93 0L58 0L58-106L166-106L166-10L114 107L57 107Z"/></defs><g id="line-0"><use x="0" y="840" xlink:href="#s16:cabin-regular:185"/><use x="527" y="840" xlink:href="#s16:cabin-regular:312"/><use x="1069" y="840" xlink:href="#s16:cabin-regular:280"/><use x="1581" y="840" xlink:href="#s16:cabin-regular:3"/><use x="1806" y="840" xlink:href="#s16:cabin-regular:47"/><use x="2342" y="840" xlink:href="#s16:cabin-regular:428"/><use x="2866" y="840" xlink:href="#s16:cabin-regular:400"/><use x="3169" y="840" xlink:href="#s16:cabin-regular:362"/><use x="3719" y="840" xlink:href="#s16:cabin-regular:397"/><use x="4276" y="840" xlink:href="#s16:cabin-regular:280"/><use x="4788" y="840" xlink:href="#s16:cabin-regular:238"/><use x="5268" y="840" xlink:href="#s16:cabin-regular:351"/><use x="5827" y="840" xlink:href="#s16:cabin-regular:3"/><use x="6052" y="840" xlink:href="#s16:cabin-regular:340"/><use x="6288" y="840" xlink:href="#s16:cabin-regular:238"/><use x="6768" y="840" xlink:href="#s16:cabin-regular:351"/><use x="7327" y="840" xlink:href="#s16:cabin-regular:305"/><use x="7825" y="840" xlink:href="#s16:cabin-regular:428"/><use x="8349" y="840" xlink:href="#s16:cabin-regular:238"/><use x="8829" y="840" xlink:href="#s16:cabin-regular:305"/><use x="9327" y="840" xlink:href="#s16:cabin-regular:280"/><use x="9839" y="840" xlink:href="#s16:cabin-regular:408"/><use x="10253" y="840" xlink:href="#s16:cabin-regular:3"/><use x="10478" y="840" xlink:href="#s16:cabin-regular:238"/><use x="10958" y="840" xlink:href="#s16:cabin-regular:400"/><use x="11261" y="840" xlink:href="#s16:cabin-regular:280"/><use x="11773" y="840" xlink:href="#s16:cabin-regular:3"/><use x="11998" y="840" xlink:href="#s16:cabin-regular:349"/><use x="12875" y="840" xlink:href="#s16:cabin-regular:280"/><use x="13387" y="840" xlink:href="#s16:cabin-regular:349"/><use x="14264" y="840" xlink:href="#s16:cabin-regular:265"/><use x="14819" y="840" xlink:href="#s16:cabin-regular:280"/><use x="15331" y="840" xlink:href="#s16:cabin-regular:400"/><use x="15647" y="840" xlink:href="#s16:cabin-regular:408"/><use x="16061" y="840" xlink:href="#s16:cabin-regular:3"/><use x="16286" y="840" xlink:href="#s16:cabin-regular:362"/><use x="16836" y="840" xlink:href="#s16:cabin-regular:304"/><use x="17167" y="840" xlink:href="#s16:cabin-regular:3"/><use x="17392" y="840" xlink:href="#s16:cabin-regular:420"/><use x="17729" y="840" xlink:href="#s16:cabin-regular:312"/><use x="18271" y="840" xlink:href="#s16:cabin-regular:280"/><use x="18783" y="840" xlink:href="#s16:cabin-regular:3"/><use x="19008" y="840" xlink:href="#s16:cabin-regular:408"/><use x="19422" y="840" xlink:href="#s16:cabin-regular:238"/><use x="19902" y="840" xlink:href="#s16:cabin-regular:349"/><use x="20779" y="840" xlink:href="#s16:cabin-regular:280"/><use x="21291" y="840" xlink:href="#s16:cabin-regular:3"/><use x="21516" y="840" xlink:href="#s16:cabin-regular:304"/><use x="21842" y="840" xlink:href="#s16:cabin-regular:238"/><use x="22322" y="840" xlink:href="#s16:cabin-regular:349"/><use x="23199" y="840" xlink:href="#s16:cabin-regular:317"/><use x="23411" y="840" xlink:href="#s16:cabin-regular:340"/><use x="23640" y="840" xlink:href="#s16:cabin-regular:458"/><use x="24114" y="840" xlink:href="#s16:cabin-regular:569"/></g><g id="line-1"><use x="4985" y="2040" xlink:href="#s16:cabin-regular:185"/><use x="5512" y="2040" xlink:href="#s16:cabin-regular:312"/><use x="6054" y="2040" xlink:href="#s16:cabin-regular:280"/><use x="6566" y="2040" xlink:href="#s16:cabin-regular:317"/><use x="6778" y="2040" xlink:href="#s16:cabin-regular:400"/><use x="7094" y="2040" xlink:href="#s16:cabin-regular:3"/><use x="7319" y="2040" xlink:href="#s16:cabin-regular:408"/><use x="7733" y="2040" xlink:href="#s16:cabin-regular:280"/><use x="8245" y="2040" xlink:href="#s16:cabin-regular:397"/><use x="8802" y="2040" xlink:href="#s16:cabin-regular:238"/><use x="9282" y="2040" xlink:href="#s16:cabin-regular:400"/><use x="9591" y="2040" xlink:href="#s16:cabin-regular:238"/><use x="10061" y="2040" xlink:href="#s16:cabin-regular:420"/><use x="10394" y="2040" xlink:href="#s16:cabin-regular:280"/><use x="10906" y="2040" xlink:href="#s16:cabin-regular:3"/><use x="11131" y="2040" xlink:href="#s16:cabin-regular:280"/><use x="11638" y="2040" xlink:href="#s16:cabin-regular:457"/><use x="12112" y="2040" xlink:href="#s16:cabin-regular:317"/><use x="12324" y="2040" xlink:href="#s16:cabin-regular:408"/><use x="12738" y="2040" xlink:href="#s16:cabin-regular:420"/><use x="13071" y="2040" xlink:href="#s16:cabin-regular:280"/><use x="13583" y="2040" xlink:href="#s16:cabin-regular:351"/><use x="14142" y="2040" xlink:href="#s16:cabin-regular:266"/><use x="14589" y="2040" xlink:href="#s16:cabin-regular:280"/><use x="15101" y="2040" xlink:href="#s16:cabin-regular:3"/><use x="15326" y="2040" xlink:href="#s16:cabin-regular:317"/><use x="15538" y="2040" xlink:href="#s16:cabin-regular:408"/><use x="15952" y="2040" xlink:href="#s16:cabin-regular:3"/><use x="16177" y="2040" xlink:href="#s16:cabin-regular:238"/><use x="16657" y="2040" xlink:href="#s16:cabin-regular:3"/><use x="16882" y="2040" xlink:href="#s16:cabin-regular:349"/><use x="17745" y="2040" xlink:href="#s16:cabin-regular:458"/><use x="18250" y="2040" xlink:href="#s16:cabin-regular:420"/><use x="18587" y="2040" xlink:href="#s16:cabin-regular:312"/><use x="19129" y="2040" xlink:href="#s16:cabin-regular:569"/></g><g id="line-2"><use x="6074.5" y="3240" xlink:href="#s16:cabin-regular:70"/><use x="6553.5" y="3240" xlink:href="#s16:cabin-regular:362"/><use x="7103.5" y="3240" xlink:href="#s16:cabin-regular:400"/><use x="7419.5" y="3240" xlink:href="#s16:cabin-regular:3"/><use x="7644.5" y="3240" xlink:href="#s16:cabin-regular:408"/><use x="8058.5" y="3240" xlink:href="#s16:cabin-regular:266"/><use x="8512.5" y="3240" xlink:href="#s16:cabin-regular:317"/><use x="8724.5" y="3240" xlink:href="#s16:cabin-regular:280"/><use x="9236.5" y="3240" xlink:href="#s16:cabin-regular:351"/><use x="9795.5" y="3240" xlink:href="#s16:cabin-regular:266"/><use x="10242.5" y="3240" xlink:href="#s16:cabin-regular:280"/><use x="10754.5" y="3240" xlink:href="#s16:cabin-regular:564"/><use x="10970.5" y="3240" xlink:href="#s16:cabin-regular:3"/><use x="11195.5" y="3240" xlink:href="#s16:cabin-regular:349"/><use x="12072.5" y="3240" xlink:href="#s16:cabin-regular:428"/><use x="12596.5" y="3240" xlink:href="#s16:cabin-regular:408"/><use x="13010.5" y="3240" xlink:href="#s16:cabin-regular:317"/><use x="13222.5" y="3240" xlink:href="#s16:cabin-regular:266"/><use x="13676.5" y="3240" xlink:href="#s16:cabin-regular:564"/><use x="13892.5" y="3240" xlink:href="#s16:cabin-regular:3"/><use x="14117.5" y="3240" xlink:href="#s16:cabin-regular:408"/><use x="14531.5" y="3240" xlink:href="#s16:cabin-regular:397"/><use x="15088.5" y="3240" xlink:href="#s16:cabin-regular:362"/><use x="15638.5" y="3240" xlink:href="#s16:cabin-regular:400"/><use x="15954.5" y="3240" xlink:href="#s16:cabin-regular:420"/><use x="16291.5" y="3240" xlink:href="#s16:cabin-regular:564"/><use x="16507.5" y="3240" xlink:href="#s16:cabin-regular:3"/><use x="16732.5" y="3240" xlink:href="#s16:cabin-regular:280"/><use x="17244.5" y="3240" xlink:href="#s16:cabin-regular:420"/><use x="17577.5" y="3240" xlink:href="#s16:cabin-regular:266"/><use x="18031.5" y="3240" xlink:href="#s16:cabin-regular:564"/></g></svg>