<svg xmlns="http://www.w3.org/2000/svg" xmlns:xlink="http://www.w3.org/1999/xlink" width="595" height="84" viewBox="0 0 24781 3490"><defs><path id="s11:cabin-bold:185" d="M213-576L15-576L15-700L539-700L539-576L341-576L341 0L213 0L213-576Z"/><path id="s11:cabin-bold:312" d="M310-508Q405-508 451.50-446.50Q498-385 498-278L498 0L374 0L374-269Q374-340 351-373Q328-406 278-406Q219-406 181-363L181 0L57 0L57-750L181-750L181-468Q211-487 242-497.50Q273-508 310-508Z"/><path id="s11:cabin-bold:280" d="M299 10Q212 10 150.50-25.50Q89-61 58.50-120.50Q28-180 28-253Q28-323 57-381Q86-439 141-473.50Q196-508 272-508Q342-508 390.50-479Q439-450 463.50-401Q488-352 488-291Q488-261 480-223L157-223Q167-157 209-124.50Q251-92 310-92Q391-92 460-133L466-28Q434-11 391.50-0.50Q349 10 299 10M362-307Q362-346 340-376Q318-406 272-406Q226-406 198-379Q170-352 160-307L362-307Z"/><path id="s11:cabin-bold:3" d=""/><path id="s11:cabin-bold:47" d="M77-700L525-700L525-576L208-576L208-427L454-427L454-303L208-303L208-124L535-124L535 0L77 0L77-700Z"/><path id="s11:cabin-bold:428" d="M265 10Q154 10 103.50-54Q53-118 53-231L53-500L177-500L177-231Q177-161 200.50-127.50Q224-94 276-94Q334-94 370-136L370-500L494-500L494 0L378 0L376-30Q353-13 323-1.50Q293 10 265 10Z"/><path id="s11:cabin-bold:400" d="M58-500L174-500L177-447Q199-472 233.50-491Q268-510 306-510Q318-510 328-508L319-386Q300-391 276-391Q245-391 219-376.50Q193-362 182-341L182 0L58 0L58-500Z"/><path id="s11:cabin-bold:362" d="M285 10Q206 10 148-25Q90-60 59-119Q28-178 28-249Q28-320 59-380Q90-440 148-475Q206-510 285-510Q364-510 422-475Q480-440 511-380Q542-320 542-249Q542-178 511-119Q480-60 422-25Q364 10 285 10M285-92Q346-92 380.50-135Q415-178 415-249Q415-321 380.50-364.50Q346-408 285-408Q224-408 189.50-364.50Q155-321 155-249Q155-178 189.50-135Q224-92 285-92Z"/><path id="s11:cabin-bold:397" d="M319-508Q390-508 441-473Q492-438 518-379Q544-320 544-249Q544-178 518-119Q492-60 441-25Q390 10 319 10Q274 10 242.50 0.50Q211-9 182-30L182 242L58 242L58-500L158-500L171-454Q203-481 238-494.50Q273-508 319-508M300-92Q355-92 386-135Q417-178 417-249Q417-320 386-363Q355-406 300-406Q238-406 207-364Q176-322 176-249Q176-176 207-134Q238-92 300-92Z"/><path id="s11:cabin-bold:238" d="M166 10Q104 10 62.50-30.50Q21-71 21-140Q21-205 68-244.50Q115-284 179-300.50Q243-317 302-319Q300-363 279.50-382Q259-401 212-401Q179-401 147.50-392Q116-383 75-363L64-464Q155-508 246-508Q334-508 380.50-460Q427-412 427-307L427-172Q427-134 430.50-117.50Q434-101 442.50-96.50Q451-92 471-92L487-92L476 10L431 10Q390 10 362-5.50Q334-21 319-48Q295-21 253.50-5.50Q212 10 166 10M218-85Q237-85 261-94.50Q285-104 303-121L303-235Q243-232 197-209Q151-186 151-145Q151-114 167-99.50Q183-85 218-85Z"/><path id="s11:cabin-bold:351" d="M58-500L174-500L176-465Q239-508 310-508Q403-508 451-446Q499-384 499-279L499 0L375 0L375-269Q375-339 351.50-372.50Q328-406 276-406Q219-406 182-363L182 0L58 0L58-500Z"/><path id="s11:cabin-bold:340" d="M186 10Q122 10 90-26.50Q58-63 58-121L58-750L182-750L182-172Q182-132 186.50-115.50Q191-99 202.50-95.50Q214-92 242-92L231 10L186 10Z"/><path id="s11:cabin-bold:305" d="M256 252Q150 252 87 213.50Q24 175 24 109Q24 37 105-9Q61-36 61-80Q61-103 74.50-121Q88-139 111-150Q73-177 53.50-219Q34-261 34-311Q34-366 58-411.50Q82-457 128-483.50Q174-510 237-510Q303-510 351-478Q368-487 396.50-493.50Q425-500 458-500L490-500L482-422L437-422Q420-422 409-421Q439-375 439-311Q439-256 415.50-210.50Q392-165 346-138.50Q300-112 237-112Q214-112 184-119Q173-114 173-103Q173-90 188.50-82.50Q204-75 241-70L327-59Q499-36 499 86Q499 162 434.50 207Q370 252 256 252M237-204Q280-204 303.50-232.50Q327-261 327-311Q327-361 303.50-389.50Q280-418 237-418Q193-418 169.50-389.50Q146-361 146-311Q146-261 169.50-232.50Q193-204 237-204M261 158Q389 158 389 95Q389 67 367 53.50Q345 40 294 32L184 16Q127 39 127 86Q127 122 162 140Q197 158 261 158Z"/><path id="s11:cabin-bold:408" d="M200 10Q152 10 112.50 1Q73-8 31-27L42-133Q84-108 120.50-95.50Q157-83 196-83Q272-83 272-133Q272-160 252-174.50Q232-189 180-209Q106-236 71-270.50Q36-305 36-364Q36-429 86-469.50Q136-510 221-510Q306-510 376-471L365-365Q327-391 293.50-405Q260-419 223-419Q191-419 173.50-406Q156-393 156-369Q156-350 166.50-338Q177-326 196-316.50Q215-307 259-290Q332-262 364-228.50Q396-195 396-139Q396-68 345-29Q294 10 200 10Z"/><path id="s11:cabin-bold:349" d="M619-508Q719-508 767.50-447.50Q816-387 816-278L816 0L692 0L692-269Q692-340 670-373Q648-406 598-406Q549-406 524-372.50Q499-339 499-278L499 0L375 0L375-269Q375-340 352-373Q329-406 279-406Q220-406 182-363L182 0L58 0L58-500L164-500L168-460Q236-508 315-508Q411-508 458-439Q484-472 526-490Q568-508 619-508Z"/><path id="s11:cabin-bold:265" d="M318-508Q389-508 440-473Q491-438 517-379Q543-320 543-249Q543-178 517-119Q491-60 440-25Q389 10 318 10Q239 10 175-33L173 0L57 0L57-750L181-750L181-463Q242-508 318-508M300-92Q355-92 385.50-135Q416-178 416-249Q416-320 385.50-363Q355-406 300-406Q237-406 206-364Q175-322 175-249Q175-176 206-134Q237-92 300-92Z"/><path id="s11:cabin-bold:304" d="M88-398L17-398L28-500L88-500L88-606Q88-673 127.50-711.50Q167-750 240-750Q281-750 321-741L310-641Q293-646 271-646Q212-646 212-584L212-500L322-500L322-398L212-398L212 0L88 0L88-398Z"/><path id="s11:cabin-bold:420" d="M221 10Q155 10 121-28.50Q87-67 87-121L87-398L16-398L27-500L87-500L87-610L211-623L211-500L321-500L321-398L211-398L211-172Q211-132 215.50-116.50Q220-101 234.50-96.50Q249-92 287-92L321-92L310 10L221 10Z"/><path id="s11:cabin-bold:317" d="M58-700L182-700L182-576L58-576L58-700M58-500L182-500L182 0L58 0L58-500Z"/><path id="s11:cabin-bold:458" d="M209-33L1-500L139-500L267-178L397-500L535-500L222 242L98 242L209-33Z"/><path id="s11:cabin-bold:569" d="M46-136L176-136L176 0L46 0L46-136Z"/><path id="s11:cabin-bold:457" d="M176-250L10-500L158-500L249-355L333-500L481-500L315-250L481 0L333 0L242-145L158 0L10 0L176-250Z"/><path id="s11:cabin-bold:266" d="M290 10Q207 10 147.50-24.50Q88-59 58-118Q28-177 28-249Q28-322 58-381.50Q88-441 148-475.50Q208-510 294-510Q371-510 428-478L418-378Q364-406 306-406Q235-406 195-363Q155-320 155-249Q155-181 196-136.50Q237-92 305-92Q362-92 419-125L430-20Q403-6 366.50 2Q330 10 290 10Z"/><path id="s11:cabin-bold:70" d="M77-700L508-700L508-576L205-576L205-427L439-427L439-303L205-303L205 0L77 0L77-700Z"/><path id="s11:cabin-bold:564" d="M62 120L105 0L54 0L54-136L184-136L184-12L120 120L62 120Z"/></defs><g id="line-0"><use x="0" y="840" xlink:href="#s11:cabin-bold:185"/><use x="549" y="840" xlink:href="#s11:cabin-bold:312"/><use x="1100" y="840" xlink:href="#s11:cabin-bold:280"/><use x="1615" y="840" xlink:href="#s11:cabin-bold:3"/><use x="1840" y="840" xlink:href="#s11:cabin-bold:47"/><use x="2397" y="840" xlink:href="#s11:cabin-bold:428"/><use x="2949" y="840" xlink:href="#s11:cabin-bold:400"/><use x="3270" y="840" xlink:href="#s11:cabin-bold:362"/><use x="3840" y="840" xlink:href="#s11:cabin-bold:397"/><use x="4412" y="840" xlink:href="#s11:cabin-bold:280"/><use x="4927" y="840" xlink:href="#s11:cabin-bold:238"/><use x="5425" y="840" xlink:href="#s11:cabin-bold:351"/><use x="5977" y="840" xlink:href="#s11:cabin-bold:3"/><use x="6202" y="840" xlink:href="#s11:cabin-bold:340"/><use x="6465" y="840" xlink:href="#s11:cabin-bold:238"/><use x="6963" y="840" xlink:href="#s11:cabin-bold:351"/><use x="7515" y="840" xlink:href="#s11:cabin-bold:305"/><use x="8016" y="840" xlink:href="#s11:cabin-bold:428"/><use x="8568" y="840" xlink:href="#s11:cabin-bold:238"/><use x="9066" y="840" xlink:href="#s11:cabin-bold:305"/><use x="9563" y="840" xlink:href="#s11:cabin-bold:280"/><use x="10078" y="840" xlink:href="#s11:cabin-bold:408"/><use x="10501" y="840" xlink:href="#s11:cabin-bold:3"/><use x="10726" y="840" xlink:href="#s11:cabin-bold:238"/><use x="11224" y="840" xlink:href="#s11:cabin-bold:400"/><use x="11545" y="840" xlink:href="#s11:cabin-bold:280"/><use x="12060" y="840" xlink:href="#s11:cabin-bold:3"/><use x="12285" y="840" xlink:href="#s11:cabin-bold:349"/><use x="13154" y="840" xlink:href="#s11:cabin-bold:280"/><use x="13669" y="840" xlink:href="#s11:cabin-bold:349"/><use x="14538" y="840" xlink:href="#s11:cabin-bold:265"/><use x="15109" y="840" xlink:href="#s11:cabin-bold:280"/><use x="15624" y="840" xlink:href="#s11:cabin-bold:400"/><use x="15954" y="840" xlink:href="#s11:cabin-bold:408"/><use x="16377" y="840" xlink:href="#s11:cabin-bold:3"/><use x="16602" y="840" xlink:href="#s11:cabin-bold:362"/><use x="17166" y="840" xlink:href="#s11:cabin-bold:304"/><use x="17506" y="840" xlink:href="#s11:cabin-bold:3"/><use x="17731" y="840" xlink:href="#s11:cabin-bold:420"/><use x="18075" y="840" xlink:href="#s11:cabin-bold:312"/><use x="18626" y="840" xlink:href="#s11:cabin-bold:280"/><use x="19141" y="840" xlink:href="#s11:cabin-bold:3"/><use x="19366" y="840" xlink:href="#s11:cabin-bold:408"/><use x="19789" y="840" xlink:href="#s11:cabin-bold:238"/><use x="20287" y="840" xlink:href="#s11:cabin-bold:349"/><use x="21156" y="840" xlink:href="#s11:cabin-bold:280"/><use x="21671" y="840" xlink:href="#s11:cabin-bold:3"/><use x="21896" y="840" xlink:href="#s11:cabin-bold:304"/><use x="22232" y="840" xlink:href="#s11:cabin-bold:238"/><use x="22730" y="840" xlink:href="#s11:cabin-bold:349"/><use x="23599" y="840" xlink:href="#s11:cabin-bold:317"/><use x="23839" y="840" xlink:href="#s11:cabin-bold:340"/><use x="24097" y="840" xlink:href="#s11:cabin-bold:458"/><use x="24605" y="840" xlink:href="#s11:cabin-bold:569"/></g><g id="line-1"><use x="5063" y="2040" xlink:href="#s11:cabin-bold:185"/><use x="5612" y="2040" xlink:href="#s11:cabin-bold:312"/><use x="6163" y="2040" xlink:href="#s11:cabin-bold:280"/><use x="6678" y="2040" xlink:href="#s11:cabin-bold:317"/><use x="6918" y="2040" xlink:href="#s11:cabin-bold:400"/><use x="7248" y="2040" xlink:href="#s11:cabin-bold:3"/><use x="7473" y="2040" xlink:href="#s11:cabin-bold:408"/><use x="7896" y="2040" xlink:href="#s11:cabin-bold:280"/><use x="8411" y="2040" xlink:href="#s11:cabin-bold:397"/><use x="8983" y="2040" xlink:href="#s11:cabin-bold:238"/><use x="9481" y="2040" xlink:href="#s11:cabin-bold:400"/><use x="9805" y="2040" xlink:href="#s11:cabin-bold:238"/><use x="10295" y="2040" xlink:href="#s11:cabin-bold:420"/><use x="10639" y="2040" xlink:href="#s11:cabin-bold:280"/><use x="11154" y="2040" xlink:href="#s11:cabin-bold:3"/><use x="11379" y="2040" xlink:href="#s11:cabin-bold:280"/><use x="11890" y="2040" xlink:href="#s11:cabin-bold:457"/><use x="12381" y="2040" xlink:href="#s11:cabin-bold:317"/><use x="12621" y="2040" xlink:href="#s11:cabin-bold:408"/><use x="13044" y="2040" xlink:href="#s11:cabin-bold:420"/><use x="13388" y="2040" xlink:href="#s11:cabin-bold:280"/><use x="13903" y="2040" xlink:href="#s11:cabin-bold:351"/><use x="14455" y="2040" xlink:href="#s11:cabin-bold:266"/><use x="14906" y="2040" xlink:href="#s11:cabin-bold:280"/><use x="15421" y="2040" xlink:href="#s11:cabin-bold:3"/><use x="15646" y="2040" xlink:href="#s11:cabin-bold:317"/><use x="15886" y="2040" xlink:href="#s11:cabin-bold:408"/><use x="16309" y="2040" xlink:href="#s11:cabin-bold:3"/><use x="16534" y="2040" xlink:href="#s11:cabin-bold:238"/><use x="17032" y="2040" xlink:href="#s11:cabin-bold:3"/><use x="17257" y="2040" xlink:href="#s11:cabin-bold:349"/><use x="18110" y="2040" xlink:href="#s11:cabin-bold:458"/><use x="18647" y="2040" xlink:href="#s11:cabin-bold:420"/><use x="18991" y="2040" xlink:href="#s11:cabin-bold:312"/><use x="19542" y="2040" xlink:href="#s11:cabin-bold:569"/></g><g id="line-2"><use x="6186" y="3240" xlink:href="#s11:cabin-bold:70"/><use x="6676" y="3240" xlink:href="#s11:cabin-bold:362"/><use x="7246" y="3240" xlink:href="#s11:cabin-bold:400"/><use x="7576" y="3240" xlink:href="#s11:cabin-bold:3"/><use x="7801" y="3240" xlink:href="#s11:cabin-bold:408"/><use x="8224" y="3240" xlink:href="#s11:cabin-bold:266"/><use x="8679" y="3240" xlink:href="#s11:cabin-bold:317"/><use x="8919" y="3240" xlink:href="#s11:cabin-bold:280"/><use x="9434" y="3240" xlink:href="#s11:cabin-bold:351"/><use x="9986" y="3240" xlink:href="#s11:cabin-bold:266"/><use x="10437" y="3240" xlink:href="#s11:cabin-bold:280"/><use x="10952" y="3240" xlink:href="#s11:cabin-bold:564"/><use x="11184" y="3240" xlink:href="#s11:cabin-bold:3"/><use x="11409" y="3240" xlink:href="#s11:cabin-bold:349"/><use x="12274" y="3240" xlink:href="#s11:cabin-bold:428"/><use x="12826" y="3240" xlink:href="#s11:cabin-bold:408"/><use x="13249" y="3240" xlink:href="#s11:cabin-bold:317"/><use x="13489" y="3240" xlink:href="#s11:cabin-bold:266"/><use x="13944" y="3240" xlink:href="#s11:cabin-bold:564"/><use x="14176" y="3240" xlink:href="#s11:cabin-bold:3"/><use x="14401" y="3240" xlink:href="#s11:cabin-bold:408"/><use x="14824" y="3240" xlink:href="#s11:cabin-bold:397"/><use x="15396" y="3240" xlink:href="#s11:cabin-bold:362"/><use x="15966" y="3240" xlink:href="#s11:cabin-bold:400"/><use x="16296" y="3240" xlink:href="#s11:cabin-bold:420"/><use x="16640" y="3240" xlink:href="#s11:cabin-bold:564"/><use x="16872" y="3240" xlink:href="#s11:cabin-bold:3"/><use x="17097" y="3240" xlink:href="#s11:cabin-bold:280"/><use x="17612" y="3240" xlink:href="#s11:cabin-bold:420"/><use x="17956" y="3240" xlink:href="#s11:cabin-bold:266"/><use x="18411" y="3240" xlink:href="#s11:cabin-bold:564"/></g></svg>