<svg xmlns="http://www.w3.org/2000/svg" xmlns:xlink="http://www.w3.org/1999/xlink" width="551" height="84" viewBox="0 0 22965 3490" ><defs><path id="s13:cabin-italic:185" d="M269-614L87-614L102-700L561-700L546-614L364-614L256 0L161 0L269-614Z"/><path id="s13:cabin-italic:311" d="M142-750L234-750L178-437Q209-471 242.50-485.50Q276-500 318-500Q384-500 418-457Q452-414 452-348Q452-310 441-247L398 0L307 0L349-245Q360-309 360-336Q360-375 339-397.50Q318-420 281-420Q246-420 218-403.50Q190-387 164-356L101 0L10 0L142-750Z"/><path id="s13:cabin-italic:280" d="M221 10Q123 10 72-49Q21-108 21-202Q21-280 55-348.50Q89-417 150-458.50Q211-500 288-500Q358-500 396-466Q434-432 434-375Q434-334 412.50-296.50Q391-259 340-234.50Q289-210 206-210Q182-210 156.50-212.50Q131-215 118-218Q118-136 151.50-103Q185-70 245-70Q276-70 312.50-77.50Q349-85 380-99L376-28Q310 10 221 10M198-271Q279-271 315-299Q351-327 351-364Q351-392 331-406Q311-420 279-420Q231-420 192-385.50Q153-351 128-281Q158-271 198-271Z"/><path id="s13:cabin-italic:3" d=""/><path id="s13:cabin-italic:47" d="M151-700L542-700L527-614L232-614L196-409L428-409L413-323L181-323L139-86L442-86L427 0L28 0L151-700Z"/><path id="s13:cabin-italic:428" d="M170 10Q105 10 69.50-27.50Q34-65 34-134Q34-158 42-202L91-490L182-490L135-216Q129-181 129-162Q129-70 207-70Q237-70 264.50-84Q292-98 312-126L376-490L467-490L381 0L298 0L301-54Q245 10 170 10Z"/><path id="s13:cabin-italic:399" d="M96-490L175-490L168-409Q210-460 248.50-484Q287-508 326-508L340-508L304-409L271-409Q244-409 212.50-389.50Q181-370 165-346L104 0L10 0L96-490Z"/><path id="s13:cabin-italic:361" d="M206 10Q116 10 68.50-47.50Q21-105 21-197Q21-277 56-347Q91-417 152.50-458.50Q214-500 290-500Q380-500 427.50-442Q475-384 475-292Q475-212 440-142.50Q405-73 343.50-31.50Q282 10 206 10M219-70Q268-70 305-98.50Q342-127 362-176Q382-225 382-285Q382-420 277-420Q228-420 191-391.50Q154-363 134-314Q114-265 114-205Q114-70 219-70Z"/><path id="s13:cabin-italic:396" d="M96-490L170-490L167-420Q202-461 236.50-480.50Q271-500 315-500Q396-500 439-441.50Q482-383 482-293Q482-215 450.50-145Q419-75 362.50-32.50Q306 10 236 10Q149 10 111-62L58 242L-33 242L96-490M231-70Q276-70 311.50-100.50Q347-131 367.50-180.50Q388-230 388-287Q388-348 363.50-384Q339-420 292-420Q252-420 215.50-394Q179-368 156.50-319Q134-270 134-206Q134-136 160.50-103Q187-70 231-70Z"/><path id="s13:cabin-italic:238" d="M184 10Q110 10 65.50-43.50Q21-97 21-186Q21-265 54.50-337.50Q88-410 147.50-455Q207-500 279-500Q361-500 393-438L412-490L492-490L433-143Q429-122 429-104Q429-80 439.50-71Q450-62 476-62L451 10Q416 10 395 6Q374 2 359-13.50Q344-29 337-62Q276 10 184 10M214-70Q253-70 289.50-94.50Q326-119 348.50-166Q371-213 371-277Q371-349 343-384.50Q315-420 269-420Q226-420 191-390.50Q156-361 135.50-311.50Q115-262 115-205Q115-145 139.50-107.50Q164-70 214-70Z"/><path id="s13:cabin-italic:350" d="M96-490L173-490L170-438Q207-473 241.50-486.50Q276-500 316-500Q392-500 427-460Q462-420 462-343Q462-323 452.50-263Q443-203 407 0L316 0Q352-203 361-259.50Q370-316 370-331Q370-377 349.50-398.50Q329-420 286-420Q248-420 216.50-404Q185-388 164-356L101 0L10 0L96-490Z"/><path id="s13:cabin-italic:339" d="M120 10Q70 10 47-13.50Q24-37 24-76Q24-88 34-150L139-750L230-750L124-141Q119-110 119-102Q119-78 131-70Q143-62 175-62L151 10L120 10Z"/><path id="s13:cabin-italic:304" d="M144 250Q79 250 37 230.50Q-5 211-23.50 182Q-42 153-42 123Q-42 89-19.50 51.50Q3 14 56-8Q39-19 31-34.50Q23-50 23-62Q23-80 39-103.50Q55-127 86-143Q37-195 37-274Q37-332 64-384Q91-436 140.50-468Q190-500 255-500Q317-500 359-464Q406-492 467-492L481-492L462-432L435-432Q428-432 414.50-430Q401-428 390-425Q409-386 409-337Q409-283 381.50-231Q354-179 305-146Q256-113 193-113Q161-113 135-122Q112-106 112-89Q112-73 136-64Q160-55 232-40Q300-26 345 0Q390 26 390 81Q390 123 359.50 162Q329 201 273 225.50Q217 250 144 250M203-182Q239-182 266.50-203.50Q294-225 309-260Q324-295 324-334Q324-380 303-404Q282-428 243-428Q189-428 155.50-384.50Q122-341 122-280Q122-233 143.50-207.50Q165-182 203-182M156 180Q199 180 232 167.50Q265 155 283 135.50Q301 116 301 95Q301 66 269.50 52Q238 38 180 27Q143 20 125 14Q91 26 66 53.50Q41 81 41 110Q41 140 71.50 160Q102 180 156 180Z"/><path id="s13:cabin-italic:407" d="M138 10Q84 10 47.50-3Q11-16-10-33L15-120Q34-101 68.50-85.50Q103-70 146-70Q192-70 215-89Q238-108 238-140Q238-171 218.50-186Q199-201 165-212Q128-224 105-235.50Q82-247 66.50-270Q51-293 51-331Q51-372 71-410.50Q91-449 134-474.50Q177-500 244-500Q317-500 366-468L342-386Q325-405 298.50-417Q272-429 238-429Q196-429 169-409.50Q142-390 142-355Q142-327 160.50-314Q179-301 231-283Q276-267 304.50-241Q333-215 333-160Q333-123 317.50-84.50Q302-46 258.50-18Q215 10 138 10Z"/><path id="s13:cabin-italic:348" d="M96-490L168-490L168-438Q204-474 235.50-487Q267-500 304-500Q351-500 384.50-479Q418-458 434-402Q490-500 609-500Q751-500 751-360Q751-342 738.50-263.50Q726-185 693 0L602 0Q634-180 646-253.50Q658-327 658-340Q658-381 639-400.50Q620-420 580-420Q517-420 487-380Q457-340 447-284L397 0L306 0Q342-204 351-261Q360-318 360-334Q360-382 340.50-401Q321-420 283-420Q206-420 164-356L101 0L10 0L96-490Z"/><path id="s13:cabin-italic:265" d="M246 10Q152 10 110-62L92 0L10 0L142-750L233-750L178-437Q232-500 315-500Q395-500 438.50-441Q482-382 482-294Q482-200 449.50-131Q417-62 363-26Q309 10 246 10M241-70Q283-70 316.50-98Q350-126 369-175.50Q388-225 388-285Q388-346 363-383Q338-420 290-420Q250-420 214-393.50Q178-367 156-317.50Q134-268 134-204Q134-135 163-102.50Q192-70 241-70Z"/><path id="s13:cabin-italic:303" d="M108-420L36-420L58-490L120-490L142-614Q153-679 187-714.50Q221-750 287-750Q328-750 363-737L338-661Q315-670 289-670Q268-670 257-661Q246-652 239-628Q232-604 222-550L211-490L324-490L311-420L199-420L125 0L34 0L108-420Z"/><path id="s13:cabin-italic:420" d="M148 10Q97 10 73.50-15.50Q50-41 50-81Q50-98 107-420L35-420L55-490L119-490L141-611L233-620L210-490L321-490L308-420L197-420Q167-252 155.50-182Q144-112 144-101Q144-75 158.50-68.50Q173-62 219-62L243-62L223 10L148 10Z"/><path id="s13:cabin-italic:316" d="M133-700L224-700L207-600L116-600L133-700M96-490L187-490L101 0L10 0L96-490Z"/><path id="s13:cabin-italic:458" d="M135-22L32-490L133-490L200-126L386-490L487-490L84 242L-13 242L135-22Z"/><path id="s13:cabin-italic:569" d="M8-106L116-106L98 0L-10 0L8-106Z"/><path id="s13:cabin-italic:457" d="M157-246L52-490L156-490L222-300L351-490L458-490L255-238L375 0L271 0L195-191L67 0L-37 0L157-246Z"/><path id="s13:cabin-italic:266" d="M210 10Q114 10 68.50-47.50Q23-105 23-199Q23-279 55-348Q87-417 149.50-458.50Q212-500 299-500Q336-500 369.50-492.50Q403-485 423-471L397-390Q350-420 299-420Q211-420 163.50-361.50Q116-303 116-212Q116-143 146.50-106Q177-69 239-69Q290-69 347-99L344-22Q284 10 210 10Z"/><path id="s13:cabin-italic:70" d="M151-700L537-700L522-614L231-614L195-409L419-409L404-323L180-323L123 0L28 0L151-700Z"/><path id="s13:cabin-italic:564" d="M-30 107L25 0L-10 0L9-106L117-106L100-10L27 107L-30 107Z"/></defs><g id="line-0"><use x="0" y="840" xlink:href="#s13:cabin-italic:185" /><use x="516" y="840" xlink:href="#s13:cabin-italic:311" /><use x="1022" y="840" xlink:href="#s13:cabin-italic:280" /><use x="1480" y="840" xlink:href="#s13:cabin-italic:3" /><use x="1683" y="840" xlink:href="#s13:cabin-italic:47" /><use x="2188" y="840" xlink:href="#s13:cabin-italic:428" /><use x="2682" y="840" xlink:href="#s13:cabin-italic:399" /><use x="2981" y="840" xlink:href="#s13:cabin-italic:361" /><use x="3495" y="840" xlink:href="#s13:cabin-italic:396" /><use x="4017" y="840" xlink:href="#s13:cabin-italic:280" /><use x="4475" y="840" xlink:href="#s13:cabin-italic:238" /><use x="5015" y="840" xlink:href="#s13:cabin-italic:350" /><use x="5530" y="840" xlink:href="#s13:cabin-italic:3" /><use x="5733" y="840" xlink:href="#s13:cabin-italic:339" /><use x="5967" y="840" xlink:href="#s13:cabin-italic:238" /><use x="6507" y="840" xlink:href="#s13:cabin-italic:350" /><use x="7022" y="840" xlink:href="#s13:cabin-italic:304" /><use x="7481" y="840" xlink:href="#s13:cabin-italic:428" /><use x="7975" y="840" xlink:href="#s13:cabin-italic:238" /><use x="8515" y="840" xlink:href="#s13:cabin-italic:304" /><use x="8974" y="840" xlink:href="#s13:cabin-italic:280" /><use x="9432" y="840" xlink:href="#s13:cabin-italic:407" /><use x="9821" y="840" xlink:href="#s13:cabin-italic:3" /><use x="10024" y="840" xlink:href="#s13:cabin-italic:238" /><use x="10564" y="840" xlink:href="#s13:cabin-italic:399" /><use x="10863" y="840" xlink:href="#s13:cabin-italic:280" /><use x="11321" y="840" xlink:href="#s13:cabin-italic:3" /><use x="11524" y="840" xlink:href="#s13:cabin-italic:348" /><use x="12325" y="840" xlink:href="#s13:cabin-italic:280" /><use x="12783" y="840" xlink:href="#s13:cabin-italic:348" /><use x="13584" y="840" xlink:href="#s13:cabin-italic:265" /><use x="14104" y="840" xlink:href="#s13:cabin-italic:280" /><use x="14562" y="840" xlink:href="#s13:cabin-italic:399" /><use x="14869" y="840" xlink:href="#s13:cabin-italic:407" /><use x="15258" y="840" xlink:href="#s13:cabin-italic:3" /><use x="15461" y="840" xlink:href="#s13:cabin-italic:361" /><use x="15975" y="840" xlink:href="#s13:cabin-italic:303" /><use x="16278" y="840" xlink:href="#s13:cabin-italic:3" /><use x="16481" y="840" xlink:href="#s13:cabin-italic:420" /><use x="16784" y="840" xlink:href="#s13:cabin-italic:311" /><use x="17290" y="840" xlink:href="#s13:cabin-italic:280" /><use x="17748" y="840" xlink:href="#s13:cabin-italic:3" /><use x="17951" y="840" xlink:href="#s13:cabin-italic:407" /><use x="18340" y="840" xlink:href="#s13:cabin-italic:238" /><use x="18880" y="840" xlink:href="#s13:cabin-italic:348" /><use x="19681" y="840" xlink:href="#s13:cabin-italic:280" /><use x="20139" y="840" xlink:href="#s13:cabin-italic:3" /><use x="20342" y="840" xlink:href="#s13:cabin-italic:303" /><use x="20645" y="840" xlink:href="#s13:cabin-italic:238" /><use x="21185" y="840" xlink:href="#s13:cabin-italic:348" /><use x="21986" y="840" xlink:href="#s13:cabin-italic:316" /><use x="22200" y="840" xlink:href="#s13:cabin-italic:339" /><use x="22426" y="840" xlink:href="#s13:cabin-italic:458" /><use x="22849" y="840" xlink:href="#s13:cabin-italic:569" /></g><g id="line-1"><use x="4737" y="2040" xlink:href="#s13:cabin-italic:185" /><use x="5253" y="2040" xlink:href="#s13:cabin-italic:311" /><use x="5759" y="2040" xlink:href="#s13:cabin-italic:280" /><use x="6217" y="2040" xlink:href="#s13:cabin-italic:316" /><use x="6431" y="2040" xlink:href="#s13:cabin-italic:399" /><use x="6738" y="2040" xlink:href="#s13:cabin-italic:3" /><use x="6941" y="2040" xlink:href="#s13:cabin-italic:407" /><use x="7330" y="2040" xlink:href="#s13:cabin-italic:280" /><use x="7788" y="2040" xlink:href="#s13:cabin-italic:396" /><use x="8310" y="2040" xlink:href="#s13:cabin-italic:238" /><use x="8850" y="2040" xlink:href="#s13:cabin-italic:399" /><use x="9157" y="2040" xlink:href="#s13:cabin-italic:238" /><use x="9692" y="2040" xlink:href="#s13:cabin-italic:420" /><use x="9995" y="2040" xlink:href="#s13:cabin-italic:280" /><use x="10453" y="2040" xlink:href="#s13:cabin-italic:3" /><use x="10656" y="2040" xlink:href="#s13:cabin-italic:280" /><use x="11114" y="2040" xlink:href="#s13:cabin-italic:457" /><use x="11553" y="2040" xlink:href="#s13:cabin-italic:316" /><use x="11767" y="2040" xlink:href="#s13:cabin-italic:407" /><use x="12156" y="2040" xlink:href="#s13:cabin-italic:420" /><use x="12459" y="2040" xlink:href="#s13:cabin-italic:280" /><use x="12917" y="2040" xlink:href="#s13:cabin-italic:350" /><use x="13432" y="2040" xlink:href="#s13:cabin-italic:266" /><use x="13844" y="2040" xlink:href="#s13:cabin-italic:280" /><use x="14302" y="2040" xlink:href="#s13:cabin-italic:3" /><use x="14505" y="2040" xlink:href="#s13:cabin-italic:316" /><use x="14719" y="2040" xlink:href="#s13:cabin-italic:407" /><use x="15108" y="2040" xlink:href="#s13:cabin-italic:3" /><use x="15311" y="2040" xlink:href="#s13:cabin-italic:238" /><use x="15851" y="2040" xlink:href="#s13:cabin-italic:3" /><use x="16054" y="2040" xlink:href="#s13:cabin-italic:348" /><use x="16844" y="2040" xlink:href="#s13:cabin-italic:458" /><use x="17303" y="2040" xlink:href="#s13:cabin-italic:420" /><use x="17606" y="2040" xlink:href="#s13:cabin-italic:311" /><use x="18112" y="2040" xlink:href="#s13:cabin-italic:569" /></g><g id="line-2"><use x="5900" y="3240" xlink:href="#s13:cabin-italic:70" /><use x="6360" y="3240" xlink:href="#s13:cabin-italic:361" /><use x="6874" y="3240" xlink:href="#s13:cabin-italic:399" /><use x="7181" y="3240" xlink:href="#s13:cabin-italic:3" /><use x="7384" y="3240" xlink:href="#s13:cabin-italic:407" /><use x="7773" y="3240" xlink:href="#s13:cabin-italic:266" /><use x="8191" y="3240" xlink:href="#s13:cabin-italic:316" /><use x="8405" y="3240" xlink:href="#s13:cabin-italic:280" /><use x="8863" y="3240" xlink:href="#s13:cabin-italic:350" /><use x="9378" y="3240" xlink:href="#s13:cabin-italic:266" /><use x="9790" y="3240" xlink:href="#s13:cabin-italic:280" /><use x="10248" y="3240" xlink:href="#s13:cabin-italic:564" /><use x="10435" y="3240" xlink:href="#s13:cabin-italic:3" /><use x="10638" y="3240" xlink:href="#s13:cabin-italic:348" /><use x="11439" y="3240" xlink:href="#s13:cabin-italic:428" /><use x="11933" y="3240" xlink:href="#s13:cabin-italic:407" /><use x="12322" y="3240" xlink:href="#s13:cabin-italic:316" /><use x="12536" y="3240" xlink:href="#s13:cabin-italic:266" /><use x="12954" y="3240" xlink:href="#s13:cabin-italic:564" /><use x="13141" y="3240" xlink:href="#s13:cabin-italic:3" /><use x="13344" y="3240" xlink:href="#s13:cabin-italic:407" /><use x="13733" y="3240" xlink:href="#s13:cabin-italic:396" /><use x="14255" y="3240" xlink:href="#s13:cabin-italic:361" /><use x="14769" y="3240" xlink:href="#s13:cabin-italic:399" /><use x="15076" y="3240" xlink:href="#s13:cabin-italic:420" /><use x="15379" y="3240" xlink:href="#s13:cabin-italic:564" /><use x="15566" y="3240" xlink:href="#s13:cabin-italic:3" /><use x="15769" y="3240" xlink:href="#s13:cabin-italic:280" /><use x="16227" y="3240" xlink:href="#s13:cabin-italic:420" /><use x="16530" y="3240" xlink:href="#s13:cabin-italic:266" /><use x="16948" y="3240" xlink:href="#s13:cabin-italic:564" /></g></svg>