<svg xmlns="http://www.w3.org/2000/svg" xmlns:xlink="http://www.w3.org/1999/xlink" width="588" height="84" viewBox="0 0 24489 3490"><defs><path id="s14:cabin-medium:185" d="M216-598L15-598L15-700L527-700L527-598L325-598L325 0L216 0L216-598Z"/><path id="s14:cabin-medium:312" d="M301-503Q395-503 443-442Q491-381 491-275L491 0L387 0L387-265Q387-342 360-378Q333-414 276-414Q207-414 164-358L164 0L59 0L59-750L164-750L164-454Q193-478 225.50-490.50Q258-503 301-503Z"/><path id="s14:cabin-medium:280" d="M297 10Q212 10 151.50-25Q91-60 60.50-119Q30-178 30-251Q30-320 58.50-377.50Q87-435 141.50-469Q196-503 271-503Q369-503 427-445.50Q485-388 485-292Q485-266 479-236L137-236Q147-153 192.50-116Q238-79 308-79Q387-79 453-113L463-28Q383 10 297 10M378-307Q378-354 351-384Q324-414 270-414Q169-414 143-307L378-307Z"/><path id="s14:cabin-medium:3" d=""/><path id="s14:cabin-medium:47" d="M79-700L515-700L515-598L189-598L189-417L445-417L445-315L189-315L189-102L524-102L524 0L79 0L79-700Z"/><path id="s14:cabin-medium:428" d="M249 10Q151 10 103-48Q55-106 55-216L55-494L159-494L159-230Q159-154 184.50-117Q210-80 267-80Q300-80 327-92.50Q354-105 372-130L372-494L476-494L476 0L381 0L374-44Q326 10 249 10Z"/><path id="s14:cabin-medium:400" d="M60-494L152-494L159-425Q225-504 297-504Q308-504 320-502L311-393Q295-397 275-397Q241-397 211-381Q181-365 168-344L168 0L60 0L60-494Z"/><path id="s14:cabin-medium:362" d="M279 10Q202 10 145.50-24.50Q89-59 59.50-117.50Q30-176 30-247Q30-318 59.50-376.50Q89-435 145.50-469.50Q202-504 279-504Q355-504 411.50-469.50Q468-435 498-376.50Q528-318 528-247Q528-176 498-117.50Q468-59 411.50-24.50Q355 10 279 10M279-79Q347-79 384-124Q421-169 421-247Q421-325 384-370Q347-415 279-415Q211-415 174-370Q137-325 137-247Q137-169 174-124Q211-79 279-79Z"/><path id="s14:cabin-medium:397" d="M314-503Q381-503 430.50-469Q480-435 506-376.50Q532-318 532-247Q532-175 507-116.50Q482-58 433-24Q384 10 314 10Q217 10 164-46L164 242L60 242L60-494L142-494L154-436Q216-503 314-503M296-79Q357-79 391.50-124Q426-169 426-247Q426-324 391-369Q356-414 296-414Q233-414 196-370Q159-326 159-247Q159-165 195.50-122Q232-79 296-79Z"/><path id="s14:cabin-medium:238" d="M171 10Q106 10 64.50-30Q23-70 23-135Q23-200 68.50-239Q114-278 179-294.50Q244-311 311-312Q310-369 286.50-390.50Q263-412 211-412Q179-412 147.50-402.50Q116-393 78-370L66-455Q103-478 147.50-490.50Q192-503 239-503Q331-503 373-453Q415-403 415-283L415-168Q415-129 418.50-110Q422-91 432.50-83Q443-75 466-75L478-75L466 10L443 10Q391 10 364.50-6Q338-22 322-56Q295-25 256-7.50Q217 10 171 10M203-72Q232-72 261.50-86Q291-100 311-125L311-241Q131-235 131-140Q131-72 203-72Z"/><path id="s14:cabin-medium:351" d="M60-494L149-494L156-449Q221-503 306-503Q405-503 453-442.50Q501-382 501-274L501 0L397 0L397-270Q397-345 370-379.50Q343-414 281-414Q243-414 212.50-400Q182-386 164-359L164 0L60 0L60-494Z"/><path id="s14:cabin-medium:340" d="M187 10Q122 10 90.50-25Q59-60 59-114L59-750L164-750L164-165Q164-123 169-104.50Q174-86 188-80.50Q202-75 235-75L222 10L187 10Z"/><path id="s14:cabin-medium:305" d="M258 251Q153 251 89 212.50Q25 174 25 106Q25 32 108-10Q62-35 62-76Q62-123 117-147Q77-172 56-214.50Q35-257 35-310Q35-364 59-408Q83-452 129-478Q175-504 238-504Q304-504 355-469Q403-495 471-495L489-495L479-428L447-428Q423-428 403-423Q440-375 440-310Q440-255 416-210Q392-165 346-139Q300-113 238-113Q207-113 177-121Q159-115 159-99Q159-87 173.50-79Q188-71 220-67L332-50Q414-38 457-3Q500 32 500 93Q500 168 435.50 209.50Q371 251 258 251M238-193Q288-193 315.50-224.50Q343-256 343-309Q343-361 315.50-392.50Q288-424 238-424Q187-424 159.50-392.50Q132-361 132-309Q132-256 159.50-224.50Q187-193 238-193M264 165Q401 165 401 98Q401 71 379 56.50Q357 42 309 33L182 13Q118 40 118 88Q118 127 156.50 146Q195 165 264 165Z"/><path id="s14:cabin-medium:408" d="M200 10Q106 10 32-30L43-126Q72-105 111-90.50Q150-76 196-76Q239-76 262-90Q285-104 285-132Q285-163 260.50-179.50Q236-196 189-211Q141-227 110-242.50Q79-258 59-286Q39-314 39-358Q39-421 86.50-462.50Q134-504 224-504Q302-504 366-469L355-377Q324-400 293.50-412.50Q263-425 226-425Q187-425 165-410Q143-395 143-366Q143-345 154-332Q165-319 186-310Q207-301 252-285Q316-263 353.50-231Q391-199 391-137Q391-73 344.50-31.50Q298 10 200 10Z"/><path id="s14:cabin-medium:349" d="M627-503Q723-503 771-447Q819-391 819-284L819 0L714 0L714-280Q714-350 689-382Q664-414 608-414Q492-414 492-281L492 0L387 0L387-270Q387-348 360-381Q333-414 280-414Q203-414 164-360L164 0L60 0L60-494L145-494L153-447Q221-503 304-503Q410-503 456-418Q510-503 627-503Z"/><path id="s14:cabin-medium:265" d="M309-503Q377-503 427.50-468Q478-433 504.50-374.50Q531-316 531-247Q531-176 503-117.50Q475-59 424.50-24.50Q374 10 309 10Q264 10 226-5Q188-20 160-48L154 0L59 0L59-750L163-750L163-446Q191-473 228.50-488Q266-503 309-503M295-79Q354-79 389.50-126.50Q425-174 425-247Q425-321 390-367.50Q355-414 295-414Q233-414 195.50-370Q158-326 158-247Q158-166 195-122.50Q232-79 295-79Z"/><path id="s14:cabin-medium:304" d="M92-411L13-411L25-494L92-494L92-606Q92-673 129.50-711.50Q167-750 236-750Q277-750 315-739L303-653Q278-660 257-660Q196-660 196-593L196-494L319-494L319-411L196-411L196 0L92 0L92-411Z"/><path id="s14:cabin-medium:420" d="M226 10Q161 10 128.50-25.50Q96-61 96-113L96-411L17-411L26-494L96-494L96-611L200-621L200-494L321-494L321-411L200-411L200-166Q200-120 205.50-102.50Q211-85 228-80Q245-75 292-75L319-75L311 10L226 10Z"/><path id="s14:cabin-medium:317" d="M60-700L164-700L164-590L60-590L60-700M60-494L164-494L164 0L60 0L60-494Z"/><path id="s14:cabin-medium:458" d="M210-27L4-494L121-494L263-148L398-494L514-494L208 242L98 242L210-27Z"/><path id="s14:cabin-medium:569" d="M48-119L166-119L166 0L48 0L48-119Z"/><path id="s14:cabin-medium:457" d="M179-247L13-494L134-494L243-321L344-494L467-494L304-251L471 0L350 0L240-173L132 0L11 0L179-247Z"/><path id="s14:cabin-medium:266" d="M288 10Q206 10 148-23.50Q90-57 60.50-115Q31-173 31-245Q31-319 60-377.50Q89-436 148-470Q207-504 293-504Q370-504 427-474L415-386Q359-414 297-414Q221-414 179.50-369.50Q138-325 138-247Q138-171 179.50-125Q221-79 296-79Q359-79 416-110L428-24Q404-9 366 0.50Q328 10 288 10Z"/><path id="s14:cabin-medium:70" d="M79-700L507-700L507-598L188-598L188-417L434-417L434-315L188-315L188 0L79 0L79-700Z"/><path id="s14:cabin-medium:564" d="M59 113L98 0L56 0L56-119L174-119L174-11L117 113L59 113Z"/></defs><g id="line-0"><use x="0" y="840" xlink:href="#s14:cabin-medium:185"/><use x="536" y="840" xlink:href="#s14:cabin-medium:312"/><use x="1082" y="840" xlink:href="#s14:cabin-medium:280"/><use x="1595" y="840" xlink:href="#s14:cabin-medium:3"/><use x="1820" y="840" xlink:href="#s14:cabin-medium:47"/><use x="2365" y="840" xlink:href="#s14:cabin-medium:428"/><use x="2901" y="840" xlink:href="#s14:cabin-medium:400"/><use x="3212" y="840" xlink:href="#s14:cabin-medium:362"/><use x="3770" y="840" xlink:href="#s14:cabin-medium:397"/><use x="4333" y="840" xlink:href="#s14:cabin-medium:280"/><use x="4846" y="840" xlink:href="#s14:cabin-medium:238"/><use x="5334" y="840" xlink:href="#s14:cabin-medium:351"/><use x="5890" y="840" xlink:href="#s14:cabin-medium:3"/><use x="6115" y="840" xlink:href="#s14:cabin-medium:340"/><use x="6362" y="840" xlink:href="#s14:cabin-medium:238"/><use x="6850" y="840" xlink:href="#s14:cabin-medium:351"/><use x="7406" y="840" xlink:href="#s14:cabin-medium:305"/><use x="7905" y="840" xlink:href="#s14:cabin-medium:428"/><use x="8441" y="840" xlink:href="#s14:cabin-medium:238"/><use x="8929" y="840" xlink:href="#s14:cabin-medium:305"/><use x="9426" y="840" xlink:href="#s14:cabin-medium:280"/><use x="9939" y="840" xlink:href="#s14:cabin-medium:408"/><use x="10357" y="840" xlink:href="#s14:cabin-medium:3"/><use x="10582" y="840" xlink:href="#s14:cabin-medium:238"/><use x="11070" y="840" xlink:href="#s14:cabin-medium:400"/><use x="11381" y="840" xlink:href="#s14:cabin-medium:280"/><use x="11894" y="840" xlink:href="#s14:cabin-medium:3"/><use x="12119" y="840" xlink:href="#s14:cabin-medium:349"/><use x="12993" y="840" xlink:href="#s14:cabin-medium:280"/><use x="13506" y="840" xlink:href="#s14:cabin-medium:349"/><use x="14380" y="840" xlink:href="#s14:cabin-medium:265"/><use x="14942" y="840" xlink:href="#s14:cabin-medium:280"/><use x="15455" y="840" xlink:href="#s14:cabin-medium:400"/><use x="15777" y="840" xlink:href="#s14:cabin-medium:408"/><use x="16195" y="840" xlink:href="#s14:cabin-medium:3"/><use x="16420" y="840" xlink:href="#s14:cabin-medium:362"/><use x="16975" y="840" xlink:href="#s14:cabin-medium:304"/><use x="17310" y="840" xlink:href="#s14:cabin-medium:3"/><use x="17535" y="840" xlink:href="#s14:cabin-medium:420"/><use x="17875" y="840" xlink:href="#s14:cabin-medium:312"/><use x="18421" y="840" xlink:href="#s14:cabin-medium:280"/><use x="18934" y="840" xlink:href="#s14:cabin-medium:3"/><use x="19159" y="840" xlink:href="#s14:cabin-medium:408"/><use x="19577" y="840" xlink:href="#s14:cabin-medium:238"/><use x="20065" y="840" xlink:href="#s14:cabin-medium:349"/><use x="20939" y="840" xlink:href="#s14:cabin-medium:280"/><use x="21452" y="840" xlink:href="#s14:cabin-medium:3"/><use x="21677" y="840" xlink:href="#s14:cabin-medium:304"/><use x="22007" y="840" xlink:href="#s14:cabin-medium:238"/><use x="22495" y="840" xlink:href="#s14:cabin-medium:349"/><use x="23369" y="840" xlink:href="#s14:cabin-medium:317"/><use x="23593" y="840" xlink:href="#s14:cabin-medium:340"/><use x="23834" y="840" xlink:href="#s14:cabin-medium:458"/><use x="24323" y="840" xlink:href="#s14:cabin-medium:569"/></g><g id="line-1"><use x="5018.5" y="2040" xlink:href="#s14:cabin-medium:185"/><use x="5554.5" y="2040" xlink:href="#s14:cabin-medium:312"/><use x="6100.5" y="2040" xlink:href="#s14:cabin-medium:280"/><use x="6613.5" y="2040" xlink:href="#s14:cabin-medium:317"/><use x="6837.5" y="2040" xlink:href="#s14:cabin-medium:400"/><use x="7159.5" y="2040" xlink:href="#s14:cabin-medium:3"/><use x="7384.5" y="2040" xlink:href="#s14:cabin-medium:408"/><use x="7802.5" y="2040" xlink:href="#s14:cabin-medium:280"/><use x="8315.5" y="2040" xlink:href="#s14:cabin-medium:397"/><use x="8878.5" y="2040" xlink:href="#s14:cabin-medium:238"/><use x="9366.5" y="2040" xlink:href="#s14:cabin-medium:400"/><use x="9681.5" y="2040" xlink:href="#s14:cabin-medium:238"/><use x="10160.5" y="2040" xlink:href="#s14:cabin-medium:420"/><use x="10498.5" y="2040" xlink:href="#s14:cabin-medium:280"/><use x="11011.5" y="2040" xlink:href="#s14:cabin-medium:3"/><use x="11236.5" y="2040" xlink:href="#s14:cabin-medium:280"/><use x="11744.5" y="2040" xlink:href="#s14:cabin-medium:457"/><use x="12225.5" y="2040" xlink:href="#s14:cabin-medium:317"/><use x="12449.5" y="2040" xlink:href="#s14:cabin-medium:408"/><use x="12867.5" y="2040" xlink:href="#s14:cabin-medium:420"/><use x="13205.5" y="2040" xlink:href="#s14:cabin-medium:280"/><use x="13718.5" y="2040" xlink:href="#s14:cabin-medium:351"/><use x="14274.5" y="2040" xlink:href="#s14:cabin-medium:266"/><use x="14722.5" y="2040" xlink:href="#s14:cabin-medium:280"/><use x="15235.5" y="2040" xlink:href="#s14:cabin-medium:3"/><use x="15460.5" y="2040" xlink:href="#s14:cabin-medium:317"/><use x="15684.5" y="2040" xlink:href="#s14:cabin-medium:408"/><use x="16102.5" y="2040" xlink:href="#s14:cabin-medium:3"/><use x="16327.5" y="2040" xlink:href="#s14:cabin-medium:238"/><use x="16815.5" y="2040" xlink:href="#s14:cabin-medium:3"/><use x="17040.5" y="2040" xlink:href="#s14:cabin-medium:349"/><use x="17899.5" y="2040" xlink:href="#s14:cabin-medium:458"/><use x="18418.5" y="2040" xlink:href="#s14:cabin-medium:420"/><use x="18758.5" y="2040" xlink:href="#s14:cabin-medium:312"/><use x="19304.5" y="2040" xlink:href="#s14:cabin-medium:569"/></g><g id="line-2"><use x="6123" y="3240" xlink:href="#s14:cabin-medium:70"/><use x="6607" y="3240" xlink:href="#s14:cabin-medium:362"/><use x="7165" y="3240" xlink:href="#s14:cabin-medium:400"/><use x="7487" y="3240" xlink:href="#s14:cabin-medium:3"/><use x="7712" y="3240" xlink:href="#s14:cabin-medium:408"/><use x="8130" y="3240" xlink:href="#s14:cabin-medium:266"/><use x="8584" y="3240" xlink:href="#s14:cabin-medium:317"/><use x="8808" y="3240" xlink:href="#s14:cabin-medium:280"/><use x="9321" y="3240" xlink:href="#s14:cabin-medium:351"/><use x="9877" y="3240" xlink:href="#s14:cabin-medium:266"/><use x="10325" y="3240" xlink:href="#s14:cabin-medium:280"/><use x="10838" y="3240" xlink:href="#s14:cabin-medium:564"/><use x="11061" y="3240" xlink:href="#s14:cabin-medium:3"/><use x="11286" y="3240" xlink:href="#s14:cabin-medium:349"/><use x="12158" y="3240" xlink:href="#s14:cabin-medium:428"/><use x="12694" y="3240" xlink:href="#s14:cabin-medium:408"/><use x="13112" y="3240" xlink:href="#s14:cabin-medium:317"/><use x="13336" y="3240" xlink:href="#s14:cabin-medium:266"/><use x="13790" y="3240" xlink:href="#s14:cabin-medium:564"/><use x="14013" y="3240" xlink:href="#s14:cabin-medium:3"/><use x="14238" y="3240" xlink:href="#s14:cabin-medium:408"/><use x="14656" y="3240" xlink:href="#s14:cabin-medium:397"/><use x="15219" y="3240" xlink:href="#s14:cabin-medium:362"/><use x="15777" y="3240" xlink:href="#s14:cabin-medium:400"/><use x="16099" y="3240" xlink:href="#s14:cabin-medium:420"/><use x="16439" y="3240" xlink:href="#s14:cabin-medium:564"/><use x="16662" y="3240" xlink:href="#s14:cabin-medium:3"/><use x="16887" y="3240" xlink:href="#s14:cabin-medium:280"/><use x="17400" y="3240" xlink:href="#s14:cabin-medium:420"/><use x="17738" y="3240" xlink:href="#s14:cabin-medium:266"/><use x="18192" y="3240" xlink:href="#s14:cabin-medium:564"/></g></svg>