<svg xmlns="http://www.w3.org/2000/svg" xmlns:xlink="http://www.w3.org/1999/xlink" width="592" height="84" viewBox="0 0 24646 3490"><defs><path id="s12:cabin-bolditalic:185" d="M268-576L79-576L101-700L607-700L585-576L396-576L295 0L167 0L268-576Z"/><path id="s12:cabin-bolditalic:311" d="M139-750L263-750L212-456Q245-483 278-495.50Q311-508 348-508Q415-508 451-467Q487-426 487-359Q487-319 478-265L433 0L309 0L351-246Q361-304 361-335Q361-368 344-387Q327-406 296-406Q268-406 244.50-395.50Q221-385 195-363L131 0L7 0L139-750Z"/><path id="s12:cabin-bolditalic:280" d="M239 10Q130 10 74-50Q18-110 18-205Q18-282 53.50-352Q89-422 153.50-465Q218-508 300-508Q378-508 420.50-469Q463-430 463-363Q463-278 395.50-238.50Q328-199 224-199Q174-199 148-205Q151-147 184-119.50Q217-92 263-92Q343-92 420-133L406-28Q335 10 239 10M204-280Q288-280 323.50-302Q359-324 359-357Q359-386 338.50-396Q318-406 295-406Q243-406 206.50-367Q170-328 158-284Q174-280 204-280Z"/><path id="s12:cabin-bolditalic:3" d=""/><path id="s12:cabin-bolditalic:47" d="M149-700L583-700L561-576L259-576L233-427L466-427L444-303L211-303L179-124L491-124L469 0L26 0L149-700Z"/><path id="s12:cabin-bolditalic:428" d="M196 10Q116 10 75.50-35.50Q35-81 35-161Q35-187 42-227L89-500L213-500L168-236Q161-198 161-178Q161-135 179.50-114.50Q198-94 235-94Q289-94 329-136L394-500L518-500L430 0L313 0L318-37Q288-14 259.50-2Q231 10 196 10Z"/><path id="s12:cabin-bolditalic:399" d="M95-500L213-500L205-447Q227-470 264-489Q301-508 339-508L374-508L330-391L283-391Q255-391 229.50-377Q204-363 191-341L130 0L7 0L95-500Z"/><path id="s12:cabin-bolditalic:361" d="M224 10Q157 10 110.50-18.50Q64-47 40.50-95.50Q17-144 17-205Q17-284 54.50-353.50Q92-423 159-465.50Q226-508 309-508Q376-508 422.50-479.50Q469-451 492.50-402.50Q516-354 516-293Q516-214 478.50-144.50Q441-75 374-32.50Q307 10 224 10M241-92Q283-92 316.50-118Q350-144 369-188.50Q388-233 388-284Q388-342 363.50-374Q339-406 292-406Q250-406 216.50-380Q183-354 164-310.50Q145-267 145-215Q145-157 169.50-124.50Q194-92 241-92Z"/><path id="s12:cabin-bolditalic:396" d="M95-500L204-500L205-456Q272-508 350-508Q433-508 479.50-451Q526-394 526-297Q526-206 495.50-136.50Q465-67 408.50-28.50Q352 10 276 10Q228 10 194-8Q160-26 140-56L88 242L-36 242L95-500M266-92Q325-92 361.50-146Q398-200 398-285Q398-341 376.50-373.50Q355-406 311-406Q244-406 203.50-348Q163-290 163-204Q163-92 266-92Z"/><path id="s12:cabin-bolditalic:238" d="M203 10Q118 10 68-48Q18-106 18-198Q18-277 52.50-348.50Q87-420 151-464Q215-508 299-508Q337-508 364.50-497Q392-486 415-465L429-500L537-500L479-158Q475-135 475-120Q475-100 484-96Q493-92 524-92L496 10Q444 10 417.50 5.50Q391 1 377-10.50Q363-22 350-48Q319-21 284.50-5.50Q250 10 203 10M245-92Q319-92 349.50-154Q380-216 380-292Q380-406 290-406Q249-406 216-380Q183-354 165-310Q147-266 147-214Q147-157 171-124.50Q195-92 245-92Z"/><path id="s12:cabin-bolditalic:350" d="M95-500L204-500L209-470Q238-488 267.50-498Q297-508 334-508Q409-508 447-462Q485-416 485-339Q485-321 476-261.50Q467-202 431 0L306 0Q358-296 358-322Q358-366 341-386Q324-406 287-406Q260-406 238.50-395.50Q217-385 195-363L131 0L7 0L95-500Z"/><path id="s12:cabin-bolditalic:339" d="M127 10Q75 10 49.50-17Q24-44 24-89Q24-107 38-185L138-750L262-750L161-175Q154-136 154-123Q154-102 164.50-97Q175-92 201-92L172 10L127 10Z"/><path id="s12:cabin-bolditalic:304" d="M159 250Q56 250 5 212Q-46 174-46 119Q-46 78-20 47Q6 16 54-10Q23-34 23-71Q23-97 38-116Q53-135 83-150Q60-171 47.50-205Q35-239 35-278Q35-338 64-391Q93-444 146-476Q199-508 267-508Q333-508 371-478Q386-487 415-493.50Q444-500 476-500L510-500L489-422L442-422Q429-422 420-421Q431-390 431-346Q431-285 402.50-231.50Q374-178 321-146Q268-114 199-114Q177-114 150-119Q139-113 139-100Q139-84 163.50-77Q188-70 248-62Q320-52 368.50-25.50Q417 1 417 71Q417 122 386 162.50Q355 203 296.50 226.50Q238 250 159 250M215-205Q263-205 291.50-242.50Q320-280 320-334Q320-417 250-417Q202-417 174-379.50Q146-342 146-287Q146-205 215-205M166 162Q224 162 264.50 142Q305 122 305 90Q305 59 269.50 46Q234 33 173 26Q154 25 136 21Q58 47 58 97Q58 128 86 145Q114 162 166 162Z"/><path id="s12:cabin-bolditalic:407" d="M153 10Q68 10-13-27L16-133Q97-83 162-83Q199-83 217.50-99Q236-115 236-140Q236-167 219-181Q202-195 160-209Q101-229 71-257Q41-285 41-339Q41-413 96.50-460.50Q152-508 250-508Q334-508 399-471L372-371Q305-419 236-419Q200-419 178.50-405.50Q157-392 157-364Q157-344 168.50-331.50Q180-319 194.50-312.50Q209-306 254-290Q310-270 336-239Q362-208 362-155Q362-109 338-71.50Q314-34 266.50-12Q219 10 153 10Z"/><path id="s12:cabin-bolditalic:348" d="M95-500L197-500L197-461Q220-481 255-494.50Q290-508 327-508Q369-508 404.50-489Q440-470 457-432Q475-460 522-484Q569-508 628-508Q706-508 745.50-463Q785-418 785-341Q785-322 773-248Q761-174 731 0L607 0Q637-172 648.50-241Q660-310 660-324Q660-371 643-388.50Q626-406 593-406Q543-406 517.50-378Q492-350 485-309L431 0L308 0L328-115Q346-218 354.50-268.50Q363-319 363-334Q363-406 286-406Q259-406 237.50-395.50Q216-385 196-365L131 0L7 0L95-500Z"/><path id="s12:cabin-bolditalic:265" d="M275 10Q182 10 133-60L118 0L7 0L139-750L264-750L212-458Q239-482 273-495Q307-508 344-508Q430-508 478-448.50Q526-389 526-295Q526-216 496-146Q466-76 409-33Q352 10 275 10M258-92Q299-92 331-118Q363-144 380.50-187.50Q398-231 398-283Q398-340 376-373Q354-406 308-406Q262-406 229.50-378.50Q197-351 180.50-306Q164-261 164-209Q164-152 186-122Q208-92 258-92Z"/><path id="s12:cabin-bolditalic:303" d="M105-398L39-398L68-500L123-500L144-619Q166-750 306-750Q335-750 393-744L364-641Q337-646 324-646Q300-646 288.50-639.50Q277-633 271-617.50Q265-602 259-568L247-500L350-500L332-398L229-398L159 0L35 0L105-398Z"/><path id="s12:cabin-bolditalic:420" d="M163 10Q108 10 81-19.50Q54-49 54-95Q54-111 105-398L39-398L68-500L123-500L143-610L269-623L247-500L350-500L332-398L230-398Q184-139 184-124Q184-103 196-97.50Q208-92 244-92L279-92L249 10L163 10Z"/><path id="s12:cabin-bolditalic:316" d="M130-700L255-700L233-576L109-576L130-700M95-500L219-500L131 0L7 0L95-500Z"/><path id="s12:cabin-bolditalic:458" d="M152-33L34-500L172-500L234-178L415-500L553-500L120 242L-3 242L152-33Z"/><path id="s12:cabin-bolditalic:569" d="M10-136L140-136L116 0L-14 0L10-136Z"/><path id="s12:cabin-bolditalic:457" d="M158-250L49-500L198-500L250-339L356-500L505-500L305-250L416 0L267 0L213-148L110 0L-39 0L158-250Z"/><path id="s12:cabin-bolditalic:266" d="M216 10Q115 10 66.50-48.50Q18-107 18-201Q18-282 52.50-352Q87-422 153-465Q219-508 310-508Q391-508 440-471L411-365Q360-406 309-406Q260-406 223.50-380.50Q187-355 167-311Q147-267 147-214Q147-157 173-124.50Q199-92 254-92Q308-92 370-133L362-27Q304 10 216 10Z"/><path id="s12:cabin-bolditalic:70" d="M149-700L564-700L542-576L256-576L229-427L451-427L429-303L207-303L154 0L26 0L149-700Z"/><path id="s12:cabin-bolditalic:564" d="M-28 120L37 0L-14 0L10-136L140-136L118-12L30 120L-28 120Z"/></defs><g id="line-0"><use x="0" y="840" xlink:href="#s12:cabin-bolditalic:185"/><use x="555" y="840" xlink:href="#s12:cabin-bolditalic:311"/><use x="1093" y="840" xlink:href="#s12:cabin-bolditalic:280"/><use x="1581" y="840" xlink:href="#s12:cabin-bolditalic:3"/><use x="1797" y="840" xlink:href="#s12:cabin-bolditalic:47"/><use x="2347" y="840" xlink:href="#s12:cabin-bolditalic:428"/><use x="2888" y="840" xlink:href="#s12:cabin-bolditalic:399"/><use x="3221" y="840" xlink:href="#s12:cabin-bolditalic:361"/><use x="3770" y="840" xlink:href="#s12:cabin-bolditalic:396"/><use x="4330" y="840" xlink:href="#s12:cabin-bolditalic:280"/><use x="4818" y="840" xlink:href="#s12:cabin-bolditalic:238"/><use x="5402" y="840" xlink:href="#s12:cabin-bolditalic:350"/><use x="5938" y="840" xlink:href="#s12:cabin-bolditalic:3"/><use x="6154" y="840" xlink:href="#s12:cabin-bolditalic:339"/><use x="6418" y="840" xlink:href="#s12:cabin-bolditalic:238"/><use x="7002" y="840" xlink:href="#s12:cabin-bolditalic:350"/><use x="7534" y="840" xlink:href="#s12:cabin-bolditalic:304"/><use x="8021" y="840" xlink:href="#s12:cabin-bolditalic:428"/><use x="8562" y="840" xlink:href="#s12:cabin-bolditalic:238"/><use x="9141" y="840" xlink:href="#s12:cabin-bolditalic:304"/><use x="9628" y="840" xlink:href="#s12:cabin-bolditalic:280"/><use x="10116" y="840" xlink:href="#s12:cabin-bolditalic:407"/><use x="10532" y="840" xlink:href="#s12:cabin-bolditalic:3"/><use x="10748" y="840" xlink:href="#s12:cabin-bolditalic:238"/><use x="11332" y="840" xlink:href="#s12:cabin-bolditalic:399"/><use x="11665" y="840" xlink:href="#s12:cabin-bolditalic:280"/><use x="12153" y="840" xlink:href="#s12:cabin-bolditalic:3"/><use x="12369" y="840" xlink:href="#s12:cabin-bolditalic:348"/><use x="13205" y="840" xlink:href="#s12:cabin-bolditalic:280"/><use x="13693" y="840" xlink:href="#s12:cabin-bolditalic:348"/><use x="14529" y="840" xlink:href="#s12:cabin-bolditalic:265"/><use x="15089" y="840" xlink:href="#s12:cabin-bolditalic:280"/><use x="15577" y="840" xlink:href="#s12:cabin-bolditalic:399"/><use x="15917" y="840" xlink:href="#s12:cabin-bolditalic:407"/><use x="16333" y="840" xlink:href="#s12:cabin-bolditalic:3"/><use x="16549" y="840" xlink:href="#s12:cabin-bolditalic:361"/><use x="17098" y="840" xlink:href="#s12:cabin-bolditalic:303"/><use x="17433" y="840" xlink:href="#s12:cabin-bolditalic:3"/><use x="17649" y="840" xlink:href="#s12:cabin-bolditalic:420"/><use x="17987" y="840" xlink:href="#s12:cabin-bolditalic:311"/><use x="18525" y="840" xlink:href="#s12:cabin-bolditalic:280"/><use x="19013" y="840" xlink:href="#s12:cabin-bolditalic:3"/><use x="19229" y="840" xlink:href="#s12:cabin-bolditalic:407"/><use x="19645" y="840" xlink:href="#s12:cabin-bolditalic:238"/><use x="20229" y="840" xlink:href="#s12:cabin-bolditalic:348"/><use x="21065" y="840" xlink:href="#s12:cabin-bolditalic:280"/><use x="21553" y="840" xlink:href="#s12:cabin-bolditalic:3"/><use x="21769" y="840" xlink:href="#s12:cabin-bolditalic:303"/><use x="22104" y="840" xlink:href="#s12:cabin-bolditalic:238"/><use x="22688" y="840" xlink:href="#s12:cabin-bolditalic:348"/><use x="23524" y="840" xlink:href="#s12:cabin-bolditalic:316"/><use x="23766" y="840" xlink:href="#s12:cabin-bolditalic:339"/><use x="24021" y="840" xlink:href="#s12:cabin-bolditalic:458"/><use x="24506" y="840" xlink:href="#s12:cabin-bolditalic:569"/></g><g id="line-1"><use x="5051.5" y="2040" xlink:href="#s12:cabin-bolditalic:185"/><use x="5606.5" y="2040" xlink:href="#s12:cabin-bolditalic:311"/><use x="6144.5" y="2040" xlink:href="#s12:cabin-bolditalic:280"/><use x="6632.5" y="2040" xlink:href="#s12:cabin-bolditalic:316"/><use x="6874.5" y="2040" xlink:href="#s12:cabin-bolditalic:399"/><use x="7214.5" y="2040" xlink:href="#s12:cabin-bolditalic:3"/><use x="7430.5" y="2040" xlink:href="#s12:cabin-bolditalic:407"/><use x="7846.5" y="2040" xlink:href="#s12:cabin-bolditalic:280"/><use x="8334.5" y="2040" xlink:href="#s12:cabin-bolditalic:396"/><use x="8894.5" y="2040" xlink:href="#s12:cabin-bolditalic:238"/><use x="9478.5" y="2040" xlink:href="#s12:cabin-bolditalic:399"/><use x="9818.5" y="2040" xlink:href="#s12:cabin-bolditalic:238"/><use x="10394.5" y="2040" xlink:href="#s12:cabin-bolditalic:420"/><use x="10732.5" y="2040" xlink:href="#s12:cabin-bolditalic:280"/><use x="11220.5" y="2040" xlink:href="#s12:cabin-bolditalic:3"/><use x="11436.5" y="2040" xlink:href="#s12:cabin-bolditalic:280"/><use x="11924.5" y="2040" xlink:href="#s12:cabin-bolditalic:457"/><use x="12405.5" y="2040" xlink:href="#s12:cabin-bolditalic:316"/><use x="12647.5" y="2040" xlink:href="#s12:cabin-bolditalic:407"/><use x="13063.5" y="2040" xlink:href="#s12:cabin-bolditalic:420"/><use x="13401.5" y="2040" xlink:href="#s12:cabin-bolditalic:280"/><use x="13889.5" y="2040" xlink:href="#s12:cabin-bolditalic:350"/><use x="14425.5" y="2040" xlink:href="#s12:cabin-bolditalic:266"/><use x="14858.5" y="2040" xlink:href="#s12:cabin-bolditalic:280"/><use x="15346.5" y="2040" xlink:href="#s12:cabin-bolditalic:3"/><use x="15562.5" y="2040" xlink:href="#s12:cabin-bolditalic:316"/><use x="15804.5" y="2040" xlink:href="#s12:cabin-bolditalic:407"/><use x="16220.5" y="2040" xlink:href="#s12:cabin-bolditalic:3"/><use x="16436.5" y="2040" xlink:href="#s12:cabin-bolditalic:238"/><use x="17020.5" y="2040" xlink:href="#s12:cabin-bolditalic:3"/><use x="17236.5" y="2040" xlink:href="#s12:cabin-bolditalic:348"/><use x="18055.5" y="2040" xlink:href="#s12:cabin-bolditalic:458"/><use x="18578.5" y="2040" xlink:href="#s12:cabin-bolditalic:420"/><use x="18916.5" y="2040" xlink:href="#s12:cabin-bolditalic:311"/><use x="19454.5" y="2040" xlink:href="#s12:cabin-bolditalic:569"/></g><g id="line-2"><use x="6345.5" y="3240" xlink:href="#s12:cabin-bolditalic:70"/><use x="6834.5" y="3240" xlink:href="#s12:cabin-bolditalic:361"/><use x="7383.5" y="3240" xlink:href="#s12:cabin-bolditalic:399"/><use x="7723.5" y="3240" xlink:href="#s12:cabin-bolditalic:3"/><use x="7939.5" y="3240" xlink:href="#s12:cabin-bolditalic:407"/><use x="8355.5" y="3240" xlink:href="#s12:cabin-bolditalic:266"/><use x="8792.5" y="3240" xlink:href="#s12:cabin-bolditalic:316"/><use x="9034.5" y="3240" xlink:href="#s12:cabin-bolditalic:280"/><use x="9522.5" y="3240" xlink:href="#s12:cabin-bolditalic:350"/><use x="10058.5" y="3240" xlink:href="#s12:cabin-bolditalic:266"/><use x="10491.5" y="3240" xlink:href="#s12:cabin-bolditalic:280"/><use x="10979.5" y="3240" xlink:href="#s12:cabin-bolditalic:564"/><use x="11179.5" y="3240" xlink:href="#s12:cabin-bolditalic:3"/><use x="11395.5" y="3240" xlink:href="#s12:cabin-bolditalic:348"/><use x="12226.5" y="3240" xlink:href="#s12:cabin-bolditalic:428"/><use x="12767.5" y="3240" xlink:href="#s12:cabin-bolditalic:407"/><use x="13183.5" y="3240" xlink:href="#s12:cabin-bolditalic:316"/><use x="13425.5" y="3240" xlink:href="#s12:cabin-bolditalic:266"/><use x="13862.5" y="3240" xlink:href="#s12:cabin-bolditalic:564"/><use x="14062.5" y="3240" xlink:href="#s12:cabin-bolditalic:3"/><use x="14278.5" y="3240" xlink:href="#s12:cabin-bolditalic:407"/><use x="14694.5" y="3240" xlink:href="#s12:cabin-bolditalic:396"/><use x="15254.5" y="3240" xlink:href="#s12:cabin-bolditalic:361"/><use x="15803.5" y="3240" xlink:href="#s12:cabin-bolditalic:399"/><use x="16143.5" y="3240" xlink:href="#s12:cabin-bolditalic:420"/><use x="16481.5" y="3240" xlink:href="#s12:cabin-bolditalic:564"/><use x="16681.5" y="3240" xlink:href="#s12:cabin-bolditalic:3"/><use x="16897.5" y="3240" xlink:href="#s12:cabin-bolditalic:280"/><use x="17385.5" y="3240" xlink:href="#s12:cabin-bolditalic:420"/><use x="17723.5" y="3240" xlink:href="#s12:cabin-bolditalic:266"/><use x="18160.5" y="3240" xlink:href="#s12:cabin-bolditalic:564"/></g></svg>