<svg xmlns="http://www.w3.org/2000/svg" xmlns:xlink="http://www.w3.org/1999/xlink" width="565" height="84" viewBox="0 0 23527 3490" ><defs><path id="s15:cabin-mediumitalic:185" d="M269-601L84-601L102-700L576-700L559-601L375-601L269 0L163 0L269-601Z"/><path id="s15:cabin-mediumitalic:311" d="M141-750L244-750L189-443Q221-475 254.50-489Q288-503 328-503Q394-503 429-460.50Q464-418 464-352Q464-315 453-253L410 0L308 0L350-245Q360-307 360-336Q360-373 340.50-394Q321-415 286-415Q253-415 226.50-400.50Q200-386 174-358L111 0L9 0L141-750Z"/><path id="s15:cabin-mediumitalic:280" d="M227 10Q126 10 73-49.50Q20-109 20-203Q20-281 54.50-350Q89-419 151-461Q213-503 292-503Q365-503 404.50-467Q444-431 444-371Q444-299 385-252.50Q326-206 212-206Q165-206 128-214Q131-77 251-77Q286-77 323.50-85.50Q361-94 393-110L386-28Q319 10 227 10M200-274Q283-274 318.50-300Q354-326 354-362Q354-390 333.50-402.50Q313-415 284-415Q235-415 197-379.50Q159-344 138-282Q166-274 200-274Z"/><path id="s15:cabin-mediumitalic:3" d=""/><path id="s15:cabin-mediumitalic:47" d="M150-700L556-700L538-601L241-601L208-415L441-415L423-316L191-316L152-99L458-99L441 0L27 0L150-700Z"/><path id="s15:cabin-mediumitalic:428" d="M179 10Q108 10 71-30Q34-70 34-143Q34-166 42-210L90-493L192-493L146-223Q140-188 140-167Q140-78 216-78Q277-78 318-129L382-493L484-493L397 0L303 0L307-48Q249 10 179 10Z"/><path id="s15:cabin-mediumitalic:399" d="M96-493L188-493L180-422Q255-508 330-508L351-508L313-403L275-403Q247-403 218-385Q189-367 174-344L113 0L9 0L96-493Z"/><path id="s15:cabin-mediumitalic:361" d="M212 10Q118 10 69-48.50Q20-107 20-200Q20-279 55.50-349Q91-419 154.50-461Q218-503 296-503Q390-503 439.50-444Q489-385 489-292Q489-213 453-143.50Q417-74 354-32Q291 10 212 10M226-77Q273-77 309-105Q345-133 364.50-180.50Q384-228 384-285Q384-349 358-382Q332-415 282-415Q236-415 200-387.50Q164-360 144-312.50Q124-265 124-208Q124-144 149.50-110.50Q175-77 226-77Z"/><path id="s15:cabin-mediumitalic:396" d="M96-493L181-493L180-432Q214-467 248.50-485Q283-503 327-503Q408-503 452.50-445Q497-387 497-294Q497-212 465.50-142.50Q434-73 377.50-31.50Q321 10 249 10Q161 10 121-60L68 242L-34 242L96-493M243-77Q285-77 319-105.50Q353-134 372-182Q391-230 391-286Q391-345 367.50-380Q344-415 298-415Q256-415 221-388.50Q186-362 165-314.50Q144-267 144-205Q144-140 170-108.50Q196-77 243-77Z"/><path id="s15:cabin-mediumitalic:238" d="M190 10Q113 10 66.50-45Q20-100 20-190Q20-269 54-341.50Q88-414 149-458.50Q210-503 286-503Q365-503 400-447L418-493L507-493L448-148Q444-127 444-109Q444-87 454-79.50Q464-72 492-72L466 10Q425 10 402.50 6Q380 2 365-12.50Q350-27 341-57Q279 10 190 10M224-77Q267-77 301.50-104Q336-131 355-178Q374-225 374-282Q374-348 348-381.50Q322-415 276-415Q234-415 199.50-386.50Q165-358 145.50-310.50Q126-263 126-208Q126-149 150.50-113Q175-77 224-77Z"/><path id="s15:cabin-mediumitalic:350" d="M96-493L183-493L183-449Q216-478 249.50-490.50Q283-503 322-503Q398-503 434-461Q470-419 470-342Q470-323 460.50-263Q451-203 415 0L313 0Q343-173 354.50-243.50Q366-314 366-328Q366-373 347-394Q328-415 286-415Q216-415 174-358L111 0L9 0L96-493Z"/><path id="s15:cabin-mediumitalic:339" d="M122 10Q72 10 48-15Q24-40 24-80Q24-94 28.50-123Q33-152 35-162L139-750L241-750L136-152Q131-120 131-109Q131-86 142.50-79Q154-72 184-72L158 10L122 10Z"/><path id="s15:cabin-mediumitalic:304" d="M149 250Q82 250 39 231Q-4 212-23.50 183Q-43 154-43 122Q-43 86-19 50Q5 14 55-9Q39-20 31-35Q23-50 23-65Q23-85 39-107Q55-129 85-145Q60-171 48-205Q36-239 36-275Q36-334 63.50-386.50Q91-439 142-471Q193-503 259-503Q323-503 363-469Q382-480 410.50-487.50Q439-495 470-495L491-495L471-429L437-429Q423-429 400-424Q416-389 416-340Q416-283 388.50-230.50Q361-178 310.50-145.50Q260-113 195-113Q167-113 140-121Q121-109 121-93Q121-77 145.50-68.50Q170-60 237-47Q306-35 352.50-8.50Q399 18 399 78Q399 123 368.50 162.50Q338 202 281 226Q224 250 149 250M207-190Q259-190 291-233Q323-276 323-334Q323-378 303-401Q283-424 245-424Q193-424 161.50-382.50Q130-341 130-282Q130-238 150-214Q170-190 207-190M159 174Q200 174 233 162.50Q266 151 284 132.50Q302 114 302 93Q302 63 269.50 49.50Q237 36 178 26Q144 20 129 16Q95 28 71 52.50Q47 77 47 106Q47 136 76.50 155Q106 174 159 174Z"/><path id="s15:cabin-mediumitalic:407" d="M143 10Q55 10-11-31L15-124Q80-74 151-74Q194-74 215.50-92Q237-110 237-140Q237-170 218.50-184.50Q200-199 163-211Q126-223 102-236Q78-249 63-272.50Q48-296 48-334Q48-378 69-416.50Q90-455 135-479Q180-503 246-503Q323-503 377-469L352-381Q303-426 237-426Q197-426 172-408.50Q147-391 147-358Q147-338 157-326Q167-314 184.50-306Q202-298 239-285Q287-268 315-240Q343-212 343-158Q343-118 324.50-80Q306-42 261-16Q216 10 143 10Z"/><path id="s15:cabin-mediumitalic:348" d="M96-493L178-493L178-446Q209-476 242-489.50Q275-503 312-503Q412-503 442-412Q466-453 510.50-478Q555-503 615-503Q688-503 725-464.50Q762-426 762-354Q762-335 750-258Q738-181 706 0L604 0Q635-177 647-249Q659-321 659-335Q659-378 640.50-396.50Q622-415 584-415Q525-415 497-379Q469-343 460-292L408 0L307 0Q337-171 349-245Q361-319 361-334Q361-379 340.50-397Q320-415 284-415Q215-415 175-359L111 0L9 0L96-493Z"/><path id="s15:cabin-mediumitalic:265" d="M256 10Q162 10 118-61L101 0L9 0L141-750L243-750L189-444Q244-503 325-503Q407-503 452-443.50Q497-384 497-294Q497-205 465-136Q433-67 378-28.50Q323 10 256 10M247-77Q289-77 321.50-104.50Q354-132 372.50-179.50Q391-227 391-284Q391-344 367.50-379.50Q344-415 296-415Q254-415 219-388Q184-361 164-313.50Q144-266 144-206Q144-141 171-109Q198-77 247-77Z"/><path id="s15:cabin-mediumitalic:303" d="M107-413L37-413L61-493L121-493L143-616Q154-678 188.50-714Q223-750 293-750Q322-750 345.50-745Q369-740 373-739L347-654Q320-662 301-662Q279-662 268-653.50Q257-645 250-624Q243-603 234-556L223-493L333-493L318-413L209-413L136 0L34 0L107-413Z"/><path id="s15:cabin-mediumitalic:420" d="M153 10Q101 10 76-17Q51-44 51-86Q51-102 106-413L36-413L59-493L120-493L142-611L245-621L222-493L331-493L316-413L208-413Q180-252 168.50-185.50Q157-119 157-109Q157-85 171-78.50Q185-72 227-72L255-72L232 10L153 10Z"/><path id="s15:cabin-mediumitalic:316" d="M132-700L234-700L216-592L114-592L132-700M96-493L198-493L111 0L9 0L96-493Z"/><path id="s15:cabin-mediumitalic:458" d="M141-26L33-493L146-493L211-143L396-493L509-493L96 242L-10 242L141-26Z"/><path id="s15:cabin-mediumitalic:569" d="M9-116L124-116L104 0L-11 0L9-116Z"/><path id="s15:cabin-mediumitalic:457" d="M157-247L51-493L170-493L231-313L353-493L474-493L272-242L389 0L270 0L201-177L81 0L-38 0L157-247Z"/><path id="s15:cabin-mediumitalic:266" d="M212 10Q115 10 68-48Q21-106 21-200Q21-280 54-349.50Q87-419 150.50-461Q214-503 303-503Q342-503 374.50-494.50Q407-486 429-471L402-382Q353-415 302-415Q247-415 207-388Q167-361 146.50-315Q126-269 126-213Q126-148 155.50-112.50Q185-77 244-77Q295-77 355-110L350-24Q293 10 212 10Z"/><path id="s15:cabin-mediumitalic:70" d="M150-700L546-700L529-601L239-601L206-415L430-415L412-316L189-316L133 0L27 0L150-700Z"/><path id="s15:cabin-mediumitalic:564" d="M-29 111L29 0L-11 0L9-116L125-116L106-11L28 111L-29 111Z"/></defs><g id="line-0"><use x="0" y="840" xlink:href="#s15:cabin-mediumitalic:185" /><use x="529" y="840" xlink:href="#s15:cabin-mediumitalic:311" /><use x="1046" y="840" xlink:href="#s15:cabin-mediumitalic:280" /><use x="1514" y="840" xlink:href="#s15:cabin-mediumitalic:3" /><use x="1721" y="840" xlink:href="#s15:cabin-mediumitalic:47" /><use x="2241" y="840" xlink:href="#s15:cabin-mediumitalic:428" /><use x="2751" y="840" xlink:href="#s15:cabin-mediumitalic:399" /><use x="3061" y="840" xlink:href="#s15:cabin-mediumitalic:361" /><use x="3587" y="840" xlink:href="#s15:cabin-mediumitalic:396" /><use x="4122" y="840" xlink:href="#s15:cabin-mediumitalic:280" /><use x="4590" y="840" xlink:href="#s15:cabin-mediumitalic:238" /><use x="5145" y="840" xlink:href="#s15:cabin-mediumitalic:350" /><use x="5667" y="840" xlink:href="#s15:cabin-mediumitalic:3" /><use x="5874" y="840" xlink:href="#s15:cabin-mediumitalic:339" /><use x="6118" y="840" xlink:href="#s15:cabin-mediumitalic:238" /><use x="6673" y="840" xlink:href="#s15:cabin-mediumitalic:350" /><use x="7194" y="840" xlink:href="#s15:cabin-mediumitalic:304" /><use x="7662" y="840" xlink:href="#s15:cabin-mediumitalic:428" /><use x="8172" y="840" xlink:href="#s15:cabin-mediumitalic:238" /><use x="8725" y="840" xlink:href="#s15:cabin-mediumitalic:304" /><use x="9193" y="840" xlink:href="#s15:cabin-mediumitalic:280" /><use x="9661" y="840" xlink:href="#s15:cabin-mediumitalic:407" /><use x="10059" y="840" xlink:href="#s15:cabin-mediumitalic:3" /><use x="10266" y="840" xlink:href="#s15:cabin-mediumitalic:238" /><use x="10821" y="840" xlink:href="#s15:cabin-mediumitalic:399" /><use x="11131" y="840" xlink:href="#s15:cabin-mediumitalic:280" /><use x="11599" y="840" xlink:href="#s15:cabin-mediumitalic:3" /><use x="11806" y="840" xlink:href="#s15:cabin-mediumitalic:348" /><use x="12619" y="840" xlink:href="#s15:cabin-mediumitalic:280" /><use x="13087" y="840" xlink:href="#s15:cabin-mediumitalic:348" /><use x="13900" y="840" xlink:href="#s15:cabin-mediumitalic:265" /><use x="14433" y="840" xlink:href="#s15:cabin-mediumitalic:280" /><use x="14901" y="840" xlink:href="#s15:cabin-mediumitalic:399" /><use x="15219" y="840" xlink:href="#s15:cabin-mediumitalic:407" /><use x="15617" y="840" xlink:href="#s15:cabin-mediumitalic:3" /><use x="15824" y="840" xlink:href="#s15:cabin-mediumitalic:361" /><use x="16350" y="840" xlink:href="#s15:cabin-mediumitalic:303" /><use x="16664" y="840" xlink:href="#s15:cabin-mediumitalic:3" /><use x="16871" y="840" xlink:href="#s15:cabin-mediumitalic:420" /><use x="17186" y="840" xlink:href="#s15:cabin-mediumitalic:311" /><use x="17703" y="840" xlink:href="#s15:cabin-mediumitalic:280" /><use x="18171" y="840" xlink:href="#s15:cabin-mediumitalic:3" /><use x="18378" y="840" xlink:href="#s15:cabin-mediumitalic:407" /><use x="18776" y="840" xlink:href="#s15:cabin-mediumitalic:238" /><use x="19331" y="840" xlink:href="#s15:cabin-mediumitalic:348" /><use x="20144" y="840" xlink:href="#s15:cabin-mediumitalic:280" /><use x="20612" y="840" xlink:href="#s15:cabin-mediumitalic:3" /><use x="20819" y="840" xlink:href="#s15:cabin-mediumitalic:303" /><use x="21133" y="840" xlink:href="#s15:cabin-mediumitalic:238" /><use x="21688" y="840" xlink:href="#s15:cabin-mediumitalic:348" /><use x="22501" y="840" xlink:href="#s15:cabin-mediumitalic:316" /><use x="22724" y="840" xlink:href="#s15:cabin-mediumitalic:339" /><use x="22960" y="840" xlink:href="#s15:cabin-mediumitalic:458" /><use x="23403" y="840" xlink:href="#s15:cabin-mediumitalic:569" /></g><g id="line-1"><use x="4842.5" y="2040" xlink:href="#s15:cabin-mediumitalic:185" /><use x="5371.5" y="2040" xlink:href="#s15:cabin-mediumitalic:311" /><use x="5888.5" y="2040" xlink:href="#s15:cabin-mediumitalic:280" /><use x="6356.5" y="2040" xlink:href="#s15:cabin-mediumitalic:316" /><use x="6579.5" y="2040" xlink:href="#s15:cabin-mediumitalic:399" /><use x="6897.5" y="2040" xlink:href="#s15:cabin-mediumitalic:3" /><use x="7104.5" y="2040" xlink:href="#s15:cabin-mediumitalic:407" /><use x="7502.5" y="2040" xlink:href="#s15:cabin-mediumitalic:280" /><use x="7970.5" y="2040" xlink:href="#s15:cabin-mediumitalic:396" /><use x="8505.5" y="2040" xlink:href="#s15:cabin-mediumitalic:238" /><use x="9060.5" y="2040" xlink:href="#s15:cabin-mediumitalic:399" /><use x="9378.5" y="2040" xlink:href="#s15:cabin-mediumitalic:238" /><use x="9927.5" y="2040" xlink:href="#s15:cabin-mediumitalic:420" /><use x="10242.5" y="2040" xlink:href="#s15:cabin-mediumitalic:280" /><use x="10710.5" y="2040" xlink:href="#s15:cabin-mediumitalic:3" /><use x="10917.5" y="2040" xlink:href="#s15:cabin-mediumitalic:280" /><use x="11385.5" y="2040" xlink:href="#s15:cabin-mediumitalic:457" /><use x="11838.5" y="2040" xlink:href="#s15:cabin-mediumitalic:316" /><use x="12061.5" y="2040" xlink:href="#s15:cabin-mediumitalic:407" /><use x="12459.5" y="2040" xlink:href="#s15:cabin-mediumitalic:420" /><use x="12774.5" y="2040" xlink:href="#s15:cabin-mediumitalic:280" /><use x="13242.5" y="2040" xlink:href="#s15:cabin-mediumitalic:350" /><use x="13764.5" y="2040" xlink:href="#s15:cabin-mediumitalic:266" /><use x="14183.5" y="2040" xlink:href="#s15:cabin-mediumitalic:280" /><use x="14651.5" y="2040" xlink:href="#s15:cabin-mediumitalic:3" /><use x="14858.5" y="2040" xlink:href="#s15:cabin-mediumitalic:316" /><use x="15081.5" y="2040" xlink:href="#s15:cabin-mediumitalic:407" /><use x="15479.5" y="2040" xlink:href="#s15:cabin-mediumitalic:3" /><use x="15686.5" y="2040" xlink:href="#s15:cabin-mediumitalic:238" /><use x="16241.5" y="2040" xlink:href="#s15:cabin-mediumitalic:3" /><use x="16448.5" y="2040" xlink:href="#s15:cabin-mediumitalic:348" /><use x="17248.5" y="2040" xlink:href="#s15:cabin-mediumitalic:458" /><use x="17728.5" y="2040" xlink:href="#s15:cabin-mediumitalic:420" /><use x="18043.5" y="2040" xlink:href="#s15:cabin-mediumitalic:311" /><use x="18560.5" y="2040" xlink:href="#s15:cabin-mediumitalic:569" /></g><g id="line-2"><use x="6050" y="3240" xlink:href="#s15:cabin-mediumitalic:70" /><use x="6520" y="3240" xlink:href="#s15:cabin-mediumitalic:361" /><use x="7046" y="3240" xlink:href="#s15:cabin-mediumitalic:399" /><use x="7364" y="3240" xlink:href="#s15:cabin-mediumitalic:3" /><use x="7571" y="3240" xlink:href="#s15:cabin-mediumitalic:407" /><use x="7969" y="3240" xlink:href="#s15:cabin-mediumitalic:266" /><use x="8393" y="3240" xlink:href="#s15:cabin-mediumitalic:316" /><use x="8616" y="3240" xlink:href="#s15:cabin-mediumitalic:280" /><use x="9084" y="3240" xlink:href="#s15:cabin-mediumitalic:350" /><use x="9606" y="3240" xlink:href="#s15:cabin-mediumitalic:266" /><use x="10025" y="3240" xlink:href="#s15:cabin-mediumitalic:280" /><use x="10493" y="3240" xlink:href="#s15:cabin-mediumitalic:564" /><use x="10684" y="3240" xlink:href="#s15:cabin-mediumitalic:3" /><use x="10891" y="3240" xlink:href="#s15:cabin-mediumitalic:348" /><use x="11702" y="3240" xlink:href="#s15:cabin-mediumitalic:428" /><use x="12212" y="3240" xlink:href="#s15:cabin-mediumitalic:407" /><use x="12610" y="3240" xlink:href="#s15:cabin-mediumitalic:316" /><use x="12833" y="3240" xlink:href="#s15:cabin-mediumitalic:266" /><use x="13257" y="3240" xlink:href="#s15:cabin-mediumitalic:564" /><use x="13448" y="3240" xlink:href="#s15:cabin-mediumitalic:3" /><use x="13655" y="3240" xlink:href="#s15:cabin-mediumitalic:407" /><use x="14053" y="3240" xlink:href="#s15:cabin-mediumitalic:396" /><use x="14588" y="3240" xlink:href="#s15:cabin-mediumitalic:361" /><use x="15114" y="3240" xlink:href="#s15:cabin-mediumitalic:399" /><use x="15432" y="3240" xlink:href="#s15:cabin-mediumitalic:420" /><use x="15747" y="3240" xlink:href="#s15:cabin-mediumitalic:564" /><use x="15938" y="3240" xlink:href="#s15:cabin-mediumitalic:3" /><use x="16145" y="3240" xlink:href="#s15:cabin-mediumitalic:280" /><use x="16613" y="3240" xlink:href="#s15:cabin-mediumitalic:420" /><use x="16928" y="3240" xlink:href="#s15:cabin-mediumitalic:266" /><use x="17352" y="3240" xlink:href="#s15:cabin-mediumitalic:564" /></g></svg>