<svg xmlns="http://www.w3.org/2000/svg" xmlns:xlink="http://www.w3.org/1999/xlink" width="590" height="84" viewBox="0 0 24598 3490" ><defs><path id="s17:cabin-semibold:185" d="M215-590L15-590L15-700L531-700L531-590L331-590L331 0L215 0L215-590Z"/><path id="s17:cabin-semibold:312" d="M305-505Q399-505 446.50-443.50Q494-382 494-276L494 0L382 0L382-266Q382-341 357-376Q332-411 277-411Q211-411 170-360L170 0L58 0L58-750L170-750L170-458Q200-481 232-493Q264-505 305-505Z"/><path id="s17:cabin-semibold:280" d="M298 10Q212 10 151.50-25Q91-60 60-119.50Q29-179 29-252Q29-322 57.50-379.50Q86-437 141.50-471Q197-505 272-505Q338-505 386.50-477.50Q435-450 460.50-402Q486-354 486-292Q486-260 479-231L145-231Q154-154 198.50-119Q243-84 309-84Q390-84 456-121L464-28Q388 10 298 10M372-307Q372-351 347-381Q322-411 271-411Q174-411 149-307L372-307Z"/><path id="s17:cabin-semibold:3" d=""/><path id="s17:cabin-semibold:47" d="M78-700L518-700L518-590L196-590L196-420L449-420L449-310L196-310L196-110L528-110L528 0L78 0L78-700Z"/><path id="s17:cabin-semibold:428" d="M255 10Q152 10 103-50Q54-110 54-222L54-496L166-496L166-231Q166-157 190.50-121Q215-85 270-85Q336-85 371-132L371-496L483-496L483 0L380 0L375-39Q352-16 321-3Q290 10 255 10Z"/><path id="s17:cabin-semibold:400" d="M59-496L160-496L166-433Q193-466 228-486Q263-506 301-506Q311-506 323-504L314-390Q298-395 276-395Q243-395 214-379.50Q185-364 173-343L173 0L59 0L59-496Z"/><path id="s17:cabin-semibold:362" d="M281 10Q204 10 147-24.50Q90-59 59.50-118Q29-177 29-248Q29-319 59.50-378Q90-437 147-471.50Q204-506 281-506Q359-506 416-471.50Q473-437 503-378Q533-319 533-248Q533-177 503-118Q473-59 416-24.50Q359 10 281 10M281-84Q346-84 382.50-128Q419-172 419-248Q419-323 382.50-367.50Q346-412 281-412Q216-412 180-367.50Q144-323 144-248Q144-172 180-128Q216-84 281-84Z"/><path id="s17:cabin-semibold:397" d="M316-505Q385-505 435-471Q485-437 511-378.50Q537-320 537-248Q537-176 511.50-117Q486-58 436-24Q386 10 316 10Q268 10 233.50-2Q199-14 171-40L171 242L59 242L59-496L148-496L160-443Q192-473 229.50-489Q267-505 316-505M297-84Q356-84 389-128Q422-172 422-248Q422-323 389-367Q356-411 297-411Q234-411 199.50-368Q165-325 165-248Q165-170 199.50-127Q234-84 297-84Z"/><path id="s17:cabin-semibold:238" d="M169 10Q105 10 63.50-30.50Q22-71 22-137Q22-202 68-241Q114-280 178.50-296.50Q243-313 307-315Q306-367 284-387.50Q262-408 211-408Q179-408 147.50-398.50Q116-389 77-368L65-459Q149-505 242-505Q332-505 376-455.50Q420-406 420-292L420-169Q420-130 423.50-112.50Q427-95 436.50-88Q446-81 468-81L482-81L469 10L438 10Q390 10 363.50-6Q337-22 321-53Q295-24 255-7Q215 10 169 10M209-77Q234-77 261.50-89.50Q289-102 308-124L308-239Q231-236 184.50-212Q138-188 138-142Q138-77 209-77Z"/><path id="s17:cabin-semibold:351" d="M59-496L158-496L163-455Q226-505 307-505Q404-505 452-444Q500-383 500-276L500 0L389 0L389-269Q389-343 363.50-377Q338-411 279-411Q205-411 171-360L171 0L59 0L59-496Z"/><path id="s17:cabin-semibold:340" d="M186 10Q122 10 90.50-25.50Q59-61 59-116L59-750L170-750L170-168Q170-126 175-108.50Q180-91 193-86Q206-81 237-81L226 10L186 10Z"/><path id="s17:cabin-semibold:305" d="M257 251Q152 251 88.50 213Q25 175 25 107Q25 33 107-10Q62-36 62-77Q62-125 115-148Q76-174 55.50-216Q35-258 35-310Q35-365 59-409.50Q83-454 128.50-480Q174-506 237-506Q305-506 354-472Q373-483 402.50-490Q432-497 466-497L489-497L480-426L443-426Q424-426 405-422Q440-375 440-310Q440-255 416-210Q392-165 346-138.50Q300-112 237-112Q209-112 180-120Q164-114 164-100Q164-88 179.50-80Q195-72 228-68L330-53Q500-29 500 90Q500 166 435.50 208.50Q371 251 257 251M237-197Q285-197 311-227.50Q337-258 337-310Q337-362 311-392Q285-422 237-422Q189-422 163-391.50Q137-361 137-310Q137-258 163-227.50Q189-197 237-197M263 162Q397 162 397 97Q397 70 374.50 55.50Q352 41 303 33L183 14Q155 25 138.50 43.50Q122 62 122 87Q122 125 159 143.50Q196 162 263 162Z"/><path id="s17:cabin-semibold:408" d="M200 10Q109 10 31-29L42-128Q119-78 196-78Q237-78 258.50-91.50Q280-105 280-132Q280-162 258-177Q236-192 186-210Q113-235 75.50-267Q38-299 38-360Q38-424 86.50-465Q135-506 223-506Q305-506 370-470L359-373Q326-397 294-410Q262-423 225-423Q188-423 168-408.50Q148-394 148-367Q148-347 159-334Q170-321 190.50-312Q211-303 255-287Q322-262 357.50-229.50Q393-197 393-138Q393-71 345-30.50Q297 10 200 10Z"/><path id="s17:cabin-semibold:349" d="M624-505Q722-505 770-447.50Q818-390 818-282L818 0L706 0L706-276Q706-346 682.50-378.50Q659-411 605-411Q546-411 520-375Q494-339 494-280L494 0L383 0L383-269Q383-345 357.50-378Q332-411 280-411Q209-411 171-361L171 0L59 0L59-496L152-496L159-452Q225-505 308-505Q410-505 457-426Q483-464 525.50-484.50Q568-505 624-505Z"/><path id="s17:cabin-semibold:265" d="M312-505Q382-505 432.50-470Q483-435 509.50-376.50Q536-318 536-248Q536-177 508.50-118Q481-59 430.50-24.50Q380 10 312 10Q224 10 166-42L161 0L58 0L58-750L170-750L170-453Q232-505 312-505M297-84Q354-84 387.50-129.50Q421-175 421-248Q421-321 387.50-366Q354-411 297-411Q234-411 199-368Q164-325 164-248Q164-170 199-127Q234-84 297-84Z"/><path id="s17:cabin-semibold:304" d="M91-406L14-406L26-496L91-496L91-606Q91-673 129-711.50Q167-750 237-750Q282-750 317-740L305-648Q284-655 262-655Q202-655 202-590L202-496L320-496L320-406L202-406L202 0L91 0L91-406Z"/><path id="s17:cabin-semibold:420" d="M224 10Q159 10 125.50-27Q92-64 92-116L92-406L17-406L27-496L92-496L92-610L204-622L204-496L321-496L321-406L204-406L204-168Q204-124 209-107.50Q214-91 230.50-86Q247-81 290-81L320-81L310 10L224 10Z"/><path id="s17:cabin-semibold:317" d="M59-700L171-700L171-585L59-585L59-700M59-496L171-496L171 0L59 0L59-496Z"/><path id="s17:cabin-semibold:458" d="M210-29L3-496L127-496L264-159L397-496L522-496L213 242L98 242L210-29Z"/><path id="s17:cabin-semibold:569" d="M47-125L169-125L169 0L47 0L47-125Z"/><path id="s17:cabin-semibold:457" d="M178-248L12-496L143-496L245-334L340-496L472-496L308-251L474 0L344 0L241-162L141 0L10 0L178-248Z"/><path id="s17:cabin-semibold:266" d="M289 10Q207 10 148.50-24Q90-58 60-116Q30-174 30-246Q30-320 59.50-379Q89-438 148-472Q207-506 294-506Q369-506 428-475L416-383Q358-411 301-411Q226-411 185-367Q144-323 144-248Q144-174 185-129Q226-84 299-84Q361-84 417-116L429-23Q403-8 366 1Q329 10 289 10Z"/><path id="s17:cabin-semibold:70" d="M78-700L508-700L508-590L194-590L194-420L436-420L436-310L194-310L194 0L78 0L78-700Z"/><path id="s17:cabin-semibold:564" d="M60 115L101 0L55 0L55-125L177-125L177-11L118 115L60 115Z"/></defs><g id="line-0"><use x="0" y="840" xlink:href="#s17:cabin-semibold:185" /><use x="541" y="840" xlink:href="#s17:cabin-semibold:312" /><use x="1089" y="840" xlink:href="#s17:cabin-semibold:280" /><use x="1603" y="840" xlink:href="#s17:cabin-semibold:3" /><use x="1828" y="840" xlink:href="#s17:cabin-semibold:47" /><use x="2377" y="840" xlink:href="#s17:cabin-semibold:428" /><use x="2919" y="840" xlink:href="#s17:cabin-semibold:400" /><use x="3234" y="840" xlink:href="#s17:cabin-semibold:362" /><use x="3797" y="840" xlink:href="#s17:cabin-semibold:397" /><use x="4364" y="840" xlink:href="#s17:cabin-semibold:280" /><use x="4878" y="840" xlink:href="#s17:cabin-semibold:238" /><use x="5369" y="840" xlink:href="#s17:cabin-semibold:351" /><use x="5924" y="840" xlink:href="#s17:cabin-semibold:3" /><use x="6149" y="840" xlink:href="#s17:cabin-semibold:340" /><use x="6402" y="840" xlink:href="#s17:cabin-semibold:238" /><use x="6893" y="840" xlink:href="#s17:cabin-semibold:351" /><use x="7448" y="840" xlink:href="#s17:cabin-semibold:305" /><use x="7948" y="840" xlink:href="#s17:cabin-semibold:428" /><use x="8490" y="840" xlink:href="#s17:cabin-semibold:238" /><use x="8981" y="840" xlink:href="#s17:cabin-semibold:305" /><use x="9478" y="840" xlink:href="#s17:cabin-semibold:280" /><use x="9992" y="840" xlink:href="#s17:cabin-semibold:408" /><use x="10412" y="840" xlink:href="#s17:cabin-semibold:3" /><use x="10637" y="840" xlink:href="#s17:cabin-semibold:238" /><use x="11128" y="840" xlink:href="#s17:cabin-semibold:400" /><use x="11443" y="840" xlink:href="#s17:cabin-semibold:280" /><use x="11957" y="840" xlink:href="#s17:cabin-semibold:3" /><use x="12182" y="840" xlink:href="#s17:cabin-semibold:349" /><use x="13054" y="840" xlink:href="#s17:cabin-semibold:280" /><use x="13568" y="840" xlink:href="#s17:cabin-semibold:349" /><use x="14440" y="840" xlink:href="#s17:cabin-semibold:265" /><use x="15005" y="840" xlink:href="#s17:cabin-semibold:280" /><use x="15519" y="840" xlink:href="#s17:cabin-semibold:400" /><use x="15844" y="840" xlink:href="#s17:cabin-semibold:408" /><use x="16264" y="840" xlink:href="#s17:cabin-semibold:3" /><use x="16489" y="840" xlink:href="#s17:cabin-semibold:362" /><use x="17048" y="840" xlink:href="#s17:cabin-semibold:304" /><use x="17385" y="840" xlink:href="#s17:cabin-semibold:3" /><use x="17610" y="840" xlink:href="#s17:cabin-semibold:420" /><use x="17951" y="840" xlink:href="#s17:cabin-semibold:312" /><use x="18499" y="840" xlink:href="#s17:cabin-semibold:280" /><use x="19013" y="840" xlink:href="#s17:cabin-semibold:3" /><use x="19238" y="840" xlink:href="#s17:cabin-semibold:408" /><use x="19658" y="840" xlink:href="#s17:cabin-semibold:238" /><use x="20149" y="840" xlink:href="#s17:cabin-semibold:349" /><use x="21021" y="840" xlink:href="#s17:cabin-semibold:280" /><use x="21535" y="840" xlink:href="#s17:cabin-semibold:3" /><use x="21760" y="840" xlink:href="#s17:cabin-semibold:304" /><use x="22093" y="840" xlink:href="#s17:cabin-semibold:238" /><use x="22584" y="840" xlink:href="#s17:cabin-semibold:349" /><use x="23456" y="840" xlink:href="#s17:cabin-semibold:317" /><use x="23686" y="840" xlink:href="#s17:cabin-semibold:340" /><use x="23933" y="840" xlink:href="#s17:cabin-semibold:458" /><use x="24429" y="840" xlink:href="#s17:cabin-semibold:569" /></g><g id="line-1"><use x="5035" y="2040" xlink:href="#s17:cabin-semibold:185" /><use x="5576" y="2040" xlink:href="#s17:cabin-semibold:312" /><use x="6124" y="2040" xlink:href="#s17:cabin-semibold:280" /><use x="6638" y="2040" xlink:href="#s17:cabin-semibold:317" /><use x="6868" y="2040" xlink:href="#s17:cabin-semibold:400" /><use x="7193" y="2040" xlink:href="#s17:cabin-semibold:3" /><use x="7418" y="2040" xlink:href="#s17:cabin-semibold:408" /><use x="7838" y="2040" xlink:href="#s17:cabin-semibold:280" /><use x="8352" y="2040" xlink:href="#s17:cabin-semibold:397" /><use x="8919" y="2040" xlink:href="#s17:cabin-semibold:238" /><use x="9410" y="2040" xlink:href="#s17:cabin-semibold:400" /><use x="9729" y="2040" xlink:href="#s17:cabin-semibold:238" /><use x="10211" y="2040" xlink:href="#s17:cabin-semibold:420" /><use x="10551" y="2040" xlink:href="#s17:cabin-semibold:280" /><use x="11065" y="2040" xlink:href="#s17:cabin-semibold:3" /><use x="11290" y="2040" xlink:href="#s17:cabin-semibold:280" /><use x="11800" y="2040" xlink:href="#s17:cabin-semibold:457" /><use x="12285" y="2040" xlink:href="#s17:cabin-semibold:317" /><use x="12515" y="2040" xlink:href="#s17:cabin-semibold:408" /><use x="12935" y="2040" xlink:href="#s17:cabin-semibold:420" /><use x="13275" y="2040" xlink:href="#s17:cabin-semibold:280" /><use x="13789" y="2040" xlink:href="#s17:cabin-semibold:351" /><use x="14344" y="2040" xlink:href="#s17:cabin-semibold:266" /><use x="14793" y="2040" xlink:href="#s17:cabin-semibold:280" /><use x="15307" y="2040" xlink:href="#s17:cabin-semibold:3" /><use x="15532" y="2040" xlink:href="#s17:cabin-semibold:317" /><use x="15762" y="2040" xlink:href="#s17:cabin-semibold:408" /><use x="16182" y="2040" xlink:href="#s17:cabin-semibold:3" /><use x="16407" y="2040" xlink:href="#s17:cabin-semibold:238" /><use x="16898" y="2040" xlink:href="#s17:cabin-semibold:3" /><use x="17123" y="2040" xlink:href="#s17:cabin-semibold:349" /><use x="17980" y="2040" xlink:href="#s17:cabin-semibold:458" /><use x="18505" y="2040" xlink:href="#s17:cabin-semibold:420" /><use x="18846" y="2040" xlink:href="#s17:cabin-semibold:312" /><use x="19394" y="2040" xlink:href="#s17:cabin-semibold:569" /></g><g id="line-2"><use x="6145.5" y="3240" xlink:href="#s17:cabin-semibold:70" /><use x="6631.5" y="3240" xlink:href="#s17:cabin-semibold:362" /><use x="7194.5" y="3240" xlink:href="#s17:cabin-semibold:400" /><use x="7519.5" y="3240" xlink:href="#s17:cabin-semibold:3" /><use x="7744.5" y="3240" xlink:href="#s17:cabin-semibold:408" /><use x="8164.5" y="3240" xlink:href="#s17:cabin-semibold:266" /><use x="8619.5" y="3240" xlink:href="#s17:cabin-semibold:317" /><use x="8849.5" y="3240" xlink:href="#s17:cabin-semibold:280" /><use x="9363.5" y="3240" xlink:href="#s17:cabin-semibold:351" /><use x="9918.5" y="3240" xlink:href="#s17:cabin-semibold:266" /><use x="10367.5" y="3240" xlink:href="#s17:cabin-semibold:280" /><use x="10881.5" y="3240" xlink:href="#s17:cabin-semibold:564" /><use x="11107.5" y="3240" xlink:href="#s17:cabin-semibold:3" /><use x="11332.5" y="3240" xlink:href="#s17:cabin-semibold:349" /><use x="12201.5" y="3240" xlink:href="#s17:cabin-semibold:428" /><use x="12743.5" y="3240" xlink:href="#s17:cabin-semibold:408" /><use x="13163.5" y="3240" xlink:href="#s17:cabin-semibold:317" /><use x="13393.5" y="3240" xlink:href="#s17:cabin-semibold:266" /><use x="13848.5" y="3240" xlink:href="#s17:cabin-semibold:564" /><use x="14074.5" y="3240" xlink:href="#s17:cabin-semibold:3" /><use x="14299.5" y="3240" xlink:href="#s17:cabin-semibold:408" /><use x="14719.5" y="3240" xlink:href="#s17:cabin-semibold:397" /><use x="15286.5" y="3240" xlink:href="#s17:cabin-semibold:362" /><use x="15849.5" y="3240" xlink:href="#s17:cabin-semibold:400" /><use x="16174.5" y="3240" xlink:href="#s17:cabin-semibold:420" /><use x="16515.5" y="3240" xlink:href="#s17:cabin-semibold:564" /><use x="16741.5" y="3240" xlink:href="#s17:cabin-semibold:3" /><use x="16966.5" y="3240" xlink:href="#s17:cabin-semibold:280" /><use x="17480.5" y="3240" xlink:href="#s17:cabin-semibold:420" /><use x="17820.5" y="3240" xlink:href="#s17:cabin-semibold:266" /><use x="18275.5" y="3240" xlink:href="#s17:cabin-semibold:564" /></g></svg>