<svg xmlns="http://www.w3.org/2000/svg" xmlns:xlink="http://www.w3.org/1999/xlink" width="562" height="90" viewBox="0 0 23397 3770" ><defs><path id="s23:catamaran-light:27" d="M10-631L245-631L245 0L308 0L308-631L543-631L538-680L10-680L10-631Z"/><path id="s23:catamaran-light:41" d="M316-498Q391-498 428-454Q465-410 465-337L465-1L403-1L403-325Q403-445 309-445Q271-445 220.50-416.50Q170-388 137-346L137 0L75 0L75-696L137-706L137-412Q168-448 219.50-473Q271-498 316-498Z"/><path id="s23:catamaran-light:38" d="M458-239Q458-357 408-427.50Q358-498 255-498Q151-498 93.50-428Q36-358 35-245Q35-127 97-57Q159 13 281 13Q333 13 370.50 1.50Q408-10 451-33L430-79Q390-58 354-47.50Q318-37 278-37Q185-37 142-91.50Q99-146 98-239L458-239M100-282Q107-357 145-401.50Q183-446 252-446Q379-446 395-282L100-282Z"/><path id="s23:catamaran-light:2" d=""/><path id="s23:catamaran-light:12" d="M157-50L157-326L402-326L397-371L157-371L157-635L460-635L455-680L95-680L95 0L483 0L477-50L157-50Z"/><path id="s23:catamaran-light:54" d="M389-140Q356-98 305.50-69.50Q255-41 217-41Q123-41 123-161L123-485L61-485L61-149Q61-76 98-32Q135 12 210 12Q255 12 307-13.50Q359-39 390-75L400 0L451 0L451-486L389-486L389-140Z"/><path id="s23:catamaran-light:51" d="M127-346Q158-380 207.50-408Q257-436 300-436L283-485Q249-485 203.50-460.50Q158-436 124-408L106-485L65-485L65 0L127 0L127-346Z"/><path id="s23:catamaran-light:48" d="M492-240Q492-167 463-109.50Q434-52 380-19.50Q326 13 254 13Q186 13 136.50-20Q87-53 61-111.50Q35-170 35-245Q36-317 64-374.50Q92-432 144.50-465Q197-498 267-498Q374-498 433-429.50Q492-361 492-240M261-39Q339-39 383.50-95Q428-151 429-239Q429-332 387-389Q345-446 266-446Q188-446 143.50-390Q99-334 98-246Q98-153 140-96Q182-39 261-39Z"/><path id="s23:catamaran-light:49" d="M260-498Q365-498 423-428Q481-358 481-242Q480-169 453.50-111Q427-53 376.50-20Q326 13 256 13Q196 13 133-35L133 208L71 219L71-485L112-485L125-445Q154-470 188.50-484Q223-498 260-498M259-39Q336-39 376.50-95.50Q417-152 418-241Q418-335 379-390.50Q340-446 261-446Q221-446 190-431Q159-416 133-389L133-91Q160-67 189-53Q218-39 259-39Z"/><path id="s23:catamaran-light:34" d="M105-412Q144-430 170.50-438Q197-446 244-446Q301-446 330.50-414.50Q360-383 360-330L360-281L225-281Q148-282 100-243Q52-204 52-136Q52-70 94-28.50Q136 13 215 13Q255 13 296.50-6.50Q338-26 363-52L371 0L422 0L422-340Q422-412 373-455Q324-498 241-498Q208-498 160-486Q112-474 86-456L105-412M113-136Q113-180 142-210Q171-240 223-240L360-240L360-117Q332-83 294.50-60.50Q257-38 213-38Q163-38 138-67.50Q113-97 113-136Z"/><path id="s23:catamaran-light:47" d="M127-346Q160-388 210.50-416.50Q261-445 299-445Q393-445 393-325L393-1L455-1L455-337Q455-410 418-454Q381-498 306-498Q261-498 209-472.50Q157-447 126-411L116-485L65-485L65 0L127 0L127-346Z"/><path id="s23:catamaran-light:45" d="M75-696L75 0L137 0L137-706L75-696Z"/><path id="s23:catamaran-light:40" d="M441 62Q441 110 416 148Q391 186 344 208Q297 230 235 230Q202 230 150.50 218Q99 206 70 189L89 143Q121 158 154 167.50Q187 177 233 178Q297 178 337.50 148Q378 118 378 61L378-29Q321 13 256 13Q151 13 93-57Q35-127 35-243Q36-316 62.50-374Q89-432 139.50-465Q190-498 260-498Q321-498 386-448L400-485L441-485L441 62M255-39Q326-39 378-91L378-398Q353-421 324.50-433.50Q296-446 257-446Q180-446 139.50-389.50Q99-333 98-244Q98-150 137-94.50Q176-39 255-39Z"/><path id="s23:catamaran-light:52" d="M41-25Q67-8 112.50 2.50Q158 13 192 13Q284 13 334-23.50Q384-60 384-124Q384-217 222-274Q162-294 129.50-315.50Q97-337 96-368Q96-403 129-425.50Q162-448 213-448Q252-448 280-439Q308-430 341-414L361-458Q338-475 293-486.50Q248-498 215-498Q133-498 85-462.50Q37-427 37-364Q37-312 80.50-279Q124-246 194-223Q326-177 326-119Q326-79 291-58Q256-37 194-37Q131-37 61-71L41-25Z"/><path id="s23:catamaran-light:46" d="M594-498Q666-498 699.50-454.50Q733-411 733-337L733-1L671-1L671-325Q671-381 652.50-413Q634-445 587-445Q555-445 511-420Q467-395 434-357L435-337L435-1L373-1L373-325Q373-381 354.50-413Q336-445 289-445Q255-445 207.50-416.50Q160-388 127-346L127 0L65 0L65-485L116-485L126-411Q157-447 206-472.50Q255-498 296-498Q396-498 424-411Q455-447 504-472.50Q553-498 594-498Z"/><path id="s23:catamaran-light:35" d="M264-498Q369-498 427-428Q485-358 485-242Q484-169 457.50-111Q431-53 380.50-20Q330 13 260 13Q196 13 129-41L116 0L75 0L75-696L137-706L137-452Q196-498 264-498M263-39Q340-39 380.50-95.50Q421-152 422-241Q422-335 383-390.50Q344-446 265-446Q225-446 194-431Q163-416 137-389L137-91Q164-67 193-53Q222-39 263-39Z"/><path id="s23:catamaran-light:39" d="M90 0L152 0L152-428L261-428L240-475L152-475L152-563Q152-645 221-645Q230-645 243-642Q256-639 262-636L274-689Q240-702 208-702Q154-702 122-664Q90-626 90-563L90-475L17-475L18-428L90-428L90 0Z"/><path id="s23:catamaran-light:53" d="M152-623L89-601L89-475L17-475L18-428L89-428L89-116Q89-54 121-20.50Q153 13 207 13Q236 13 253 7.50Q270 2 273 1L261-50Q240-41 220-41Q185-41 168.50-63Q152-85 152-123L152-428L261-428L240-475L152-475L152-623Z"/><path id="s23:catamaran-light:42" d="M96-591Q115-591 129.50-604.50Q144-618 144-638Q144-658 129.50-671.50Q115-685 96-685Q75-685 62-671.50Q49-658 49-638Q49-618 62-604.50Q75-591 96-591M65-485L65 0L128 0L128-485L65-485Z"/><path id="s23:catamaran-light:58" d="M160 98Q148 129 129 143.50Q110 158 65 179L82 219Q130 209 165 181Q200 153 215 112L428-485L368-485L218-83L59-497L10-471L192 7L160 98Z"/><path id="s23:catamaran-light:254" d="M78 0Q97 0 111-14Q125-28 125-48Q125-67 111-80.50Q97-94 78-94Q58-94 44-80.50Q30-67 30-48Q30-28 44-14Q58 0 78 0Z"/><path id="s23:catamaran-light:57" d="M337 0L405 0L253-233L419-485L351-485L219-279L81-495L26-470L173-245L10 0L80 0L207-199L337 0Z"/><path id="s23:catamaran-light:36" d="M395-73Q357-54 332.50-46.50Q308-39 261-39Q182-39 140-96Q98-153 98-246Q99-334 143.50-390Q188-446 266-446Q311-446 337.50-438Q364-430 400-412L420-456Q392-474 346-486Q300-498 269-498Q199-498 146-465.50Q93-433 64-375Q35-317 35-245Q35-169 62-110.50Q89-52 140.50-19.50Q192 13 262 13Q295 13 341 1.50Q387-10 415-28L395-73Z"/><path id="s23:catamaran-light:13" d="M157-635L451-635L444-680L95-680L95 0L157 0L157-322L392-322L386-367L157-367L157-635Z"/><path id="s23:catamaran-light:253" d="M82-94Q63-94 48.50-80.50Q34-67 34-48Q34-30 46.50-16Q59-2 77-1Q76 24 61.50 42.50Q47 61 20 79L38 108Q77 89 103.50 46.50Q130 4 130-41Q130-65 116.50-79.50Q103-94 82-94Z"/></defs><g id="line-0"><use x="0" y="830" xlink:href="#s23:catamaran-light:27" /><use x="553" y="830" xlink:href="#s23:catamaran-light:41" /><use x="1079" y="830" xlink:href="#s23:catamaran-light:38" /><use x="1572" y="830" xlink:href="#s23:catamaran-light:2" /><use x="1807" y="830" xlink:href="#s23:catamaran-light:12" /><use x="2310" y="830" xlink:href="#s23:catamaran-light:54" /><use x="2826" y="830" xlink:href="#s23:catamaran-light:51" /><use x="3136" y="830" xlink:href="#s23:catamaran-light:48" /><use x="3663" y="830" xlink:href="#s23:catamaran-light:49" /><use x="4179" y="830" xlink:href="#s23:catamaran-light:38" /><use x="4672" y="830" xlink:href="#s23:catamaran-light:34" /><use x="5155" y="830" xlink:href="#s23:catamaran-light:47" /><use x="5671" y="830" xlink:href="#s23:catamaran-light:2" /><use x="5906" y="830" xlink:href="#s23:catamaran-light:45" /><use x="6118" y="830" xlink:href="#s23:catamaran-light:34" /><use x="6601" y="830" xlink:href="#s23:catamaran-light:47" /><use x="7117" y="830" xlink:href="#s23:catamaran-light:40" /><use x="7629" y="830" xlink:href="#s23:catamaran-light:54" /><use x="8145" y="830" xlink:href="#s23:catamaran-light:34" /><use x="8628" y="830" xlink:href="#s23:catamaran-light:40" /><use x="9140" y="830" xlink:href="#s23:catamaran-light:38" /><use x="9633" y="830" xlink:href="#s23:catamaran-light:52" /><use x="10052" y="830" xlink:href="#s23:catamaran-light:2" /><use x="10287" y="830" xlink:href="#s23:catamaran-light:34" /><use x="10770" y="830" xlink:href="#s23:catamaran-light:51" /><use x="11080" y="830" xlink:href="#s23:catamaran-light:38" /><use x="11573" y="830" xlink:href="#s23:catamaran-light:2" /><use x="11808" y="830" xlink:href="#s23:catamaran-light:46" /><use x="12602" y="830" xlink:href="#s23:catamaran-light:38" /><use x="13095" y="830" xlink:href="#s23:catamaran-light:46" /><use x="13889" y="830" xlink:href="#s23:catamaran-light:35" /><use x="14409" y="830" xlink:href="#s23:catamaran-light:38" /><use x="14902" y="830" xlink:href="#s23:catamaran-light:51" /><use x="15212" y="830" xlink:href="#s23:catamaran-light:52" /><use x="15631" y="830" xlink:href="#s23:catamaran-light:2" /><use x="15866" y="830" xlink:href="#s23:catamaran-light:48" /><use x="16393" y="830" xlink:href="#s23:catamaran-light:39" /><use x="16667" y="830" xlink:href="#s23:catamaran-light:2" /><use x="16902" y="830" xlink:href="#s23:catamaran-light:53" /><use x="17200" y="830" xlink:href="#s23:catamaran-light:41" /><use x="17726" y="830" xlink:href="#s23:catamaran-light:38" /><use x="18219" y="830" xlink:href="#s23:catamaran-light:2" /><use x="18454" y="830" xlink:href="#s23:catamaran-light:52" /><use x="18873" y="830" xlink:href="#s23:catamaran-light:34" /><use x="19356" y="830" xlink:href="#s23:catamaran-light:46" /><use x="20150" y="830" xlink:href="#s23:catamaran-light:38" /><use x="20643" y="830" xlink:href="#s23:catamaran-light:2" /><use x="20878" y="830" xlink:href="#s23:catamaran-light:39" /><use x="21152" y="830" xlink:href="#s23:catamaran-light:34" /><use x="21635" y="830" xlink:href="#s23:catamaran-light:46" /><use x="22429" y="830" xlink:href="#s23:catamaran-light:42" /><use x="22622" y="830" xlink:href="#s23:catamaran-light:45" /><use x="22834" y="830" xlink:href="#s23:catamaran-light:58" /><use x="23272" y="830" xlink:href="#s23:catamaran-light:254" /></g><g id="line-1"><use x="4795.5" y="2030" xlink:href="#s23:catamaran-light:27" /><use x="5348.5" y="2030" xlink:href="#s23:catamaran-light:41" /><use x="5874.5" y="2030" xlink:href="#s23:catamaran-light:38" /><use x="6367.5" y="2030" xlink:href="#s23:catamaran-light:42" /><use x="6560.5" y="2030" xlink:href="#s23:catamaran-light:51" /><use x="6870.5" y="2030" xlink:href="#s23:catamaran-light:2" /><use x="7105.5" y="2030" xlink:href="#s23:catamaran-light:52" /><use x="7524.5" y="2030" xlink:href="#s23:catamaran-light:38" /><use x="8017.5" y="2030" xlink:href="#s23:catamaran-light:49" /><use x="8533.5" y="2030" xlink:href="#s23:catamaran-light:34" /><use x="9016.5" y="2030" xlink:href="#s23:catamaran-light:51" /><use x="9326.5" y="2030" xlink:href="#s23:catamaran-light:34" /><use x="9809.5" y="2030" xlink:href="#s23:catamaran-light:53" /><use x="10107.5" y="2030" xlink:href="#s23:catamaran-light:38" /><use x="10600.5" y="2030" xlink:href="#s23:catamaran-light:2" /><use x="10835.5" y="2030" xlink:href="#s23:catamaran-light:38" /><use x="11328.5" y="2030" xlink:href="#s23:catamaran-light:57" /><use x="11757.5" y="2030" xlink:href="#s23:catamaran-light:42" /><use x="11950.5" y="2030" xlink:href="#s23:catamaran-light:52" /><use x="12369.5" y="2030" xlink:href="#s23:catamaran-light:53" /><use x="12667.5" y="2030" xlink:href="#s23:catamaran-light:38" /><use x="13160.5" y="2030" xlink:href="#s23:catamaran-light:47" /><use x="13676.5" y="2030" xlink:href="#s23:catamaran-light:36" /><use x="14127.5" y="2030" xlink:href="#s23:catamaran-light:38" /><use x="14620.5" y="2030" xlink:href="#s23:catamaran-light:2" /><use x="14855.5" y="2030" xlink:href="#s23:catamaran-light:42" /><use x="15048.5" y="2030" xlink:href="#s23:catamaran-light:52" /><use x="15467.5" y="2030" xlink:href="#s23:catamaran-light:2" /><use x="15702.5" y="2030" xlink:href="#s23:catamaran-light:34" /><use x="16185.5" y="2030" xlink:href="#s23:catamaran-light:2" /><use x="16420.5" y="2030" xlink:href="#s23:catamaran-light:46" /><use x="17214.5" y="2030" xlink:href="#s23:catamaran-light:58" /><use x="17652.5" y="2030" xlink:href="#s23:catamaran-light:53" /><use x="17950.5" y="2030" xlink:href="#s23:catamaran-light:41" /><use x="18476.5" y="2030" xlink:href="#s23:catamaran-light:254" /></g><g id="line-2"><use x="5919" y="3230" xlink:href="#s23:catamaran-light:13" /><use x="6390" y="3230" xlink:href="#s23:catamaran-light:48" /><use x="6917" y="3230" xlink:href="#s23:catamaran-light:51" /><use x="7227" y="3230" xlink:href="#s23:catamaran-light:2" /><use x="7462" y="3230" xlink:href="#s23:catamaran-light:52" /><use x="7881" y="3230" xlink:href="#s23:catamaran-light:36" /><use x="8332" y="3230" xlink:href="#s23:catamaran-light:42" /><use x="8525" y="3230" xlink:href="#s23:catamaran-light:38" /><use x="9018" y="3230" xlink:href="#s23:catamaran-light:47" /><use x="9534" y="3230" xlink:href="#s23:catamaran-light:36" /><use x="9985" y="3230" xlink:href="#s23:catamaran-light:38" /><use x="10478" y="3230" xlink:href="#s23:catamaran-light:253" /><use x="10638" y="3230" xlink:href="#s23:catamaran-light:2" /><use x="10873" y="3230" xlink:href="#s23:catamaran-light:46" /><use x="11667" y="3230" xlink:href="#s23:catamaran-light:54" /><use x="12183" y="3230" xlink:href="#s23:catamaran-light:52" /><use x="12602" y="3230" xlink:href="#s23:catamaran-light:42" /><use x="12795" y="3230" xlink:href="#s23:catamaran-light:36" /><use x="13246" y="3230" xlink:href="#s23:catamaran-light:253" /><use x="13406" y="3230" xlink:href="#s23:catamaran-light:2" /><use x="13641" y="3230" xlink:href="#s23:catamaran-light:52" /><use x="14060" y="3230" xlink:href="#s23:catamaran-light:49" /><use x="14576" y="3230" xlink:href="#s23:catamaran-light:48" /><use x="15103" y="3230" xlink:href="#s23:catamaran-light:51" /><use x="15413" y="3230" xlink:href="#s23:catamaran-light:53" /><use x="15711" y="3230" xlink:href="#s23:catamaran-light:253" /><use x="15871" y="3230" xlink:href="#s23:catamaran-light:2" /><use x="16106" y="3230" xlink:href="#s23:catamaran-light:38" /><use x="16599" y="3230" xlink:href="#s23:catamaran-light:53" /><use x="16897" y="3230" xlink:href="#s23:catamaran-light:36" /><use x="17348" y="3230" xlink:href="#s23:catamaran-light:253" /></g></svg>