<svg xmlns="http://www.w3.org/2000/svg" xmlns:xlink="http://www.w3.org/1999/xlink" width="595" height="90" viewBox="0 0 24810 3770"><defs><path id="s26:catamaran-semibold:27" d="M10-591L224-591L224 0L338 0L338-591L571-591L554-680L10-680L10-591Z"/><path id="s26:catamaran-semibold:41" d="M348-501Q509-501 509-312L509 0L397 0L397-305Q397-406 321-406Q261-406 180-339L180 0L68 0L68-695L180-706L180-440Q221-468 265-484.50Q309-501 348-501Z"/><path id="s26:catamaran-semibold:38" d="M482-246Q482-356 427-427Q372-498 265-498Q192-498 138.50-466Q85-434 56.50-376.50Q28-319 28-243Q28-125 97.50-56.50Q167 12 299 12Q397 12 478-44L444-126Q401-104 370.50-93.50Q340-83 301-83Q161-83 146-213L482-213L482-246M148-288Q155-342 184.50-372Q214-402 262-402Q309-402 337-373Q365-344 374-288L148-288Z"/><path id="s26:catamaran-semibold:2" d=""/><path id="s26:catamaran-semibold:12" d="M200-88L200-301L443-301L426-389L200-389L200-592L498-592L482-680L88-680L88 0L541 0L524-88L200-88Z"/><path id="s26:catamaran-semibold:54" d="M383-146Q302-79 241-79Q166-79 166-180L166-485L54-485L54-173Q54 16 214 16Q258 16 308-4Q358-24 400-58L420 0L496 0L496-485L383-485L383-146Z"/><path id="s26:catamaran-semibold:51" d="M170-309Q210-345 258-370Q306-395 342-395L319-485Q284-485 237.50-460Q191-435 155-405L118-485L58-485L58 0L170 0L170-309Z"/><path id="s26:catamaran-semibold:48" d="M529-243Q529-167 498-109Q467-51 410-19Q353 13 277 13Q201 13 145-19Q89-51 58.50-108.50Q28-166 28-243Q28-319 58.50-376.50Q89-434 146-466Q203-498 279-498Q355-498 411.50-466.50Q468-435 498.50-377Q529-319 529-243M277-84Q338-84 375.50-129Q413-174 413-242Q413-313 376.50-357.50Q340-402 279-402Q219-402 181.50-357Q144-312 143-243Q143-172 179.50-128Q216-84 277-84Z"/><path id="s26:catamaran-semibold:49" d="M271-498Q345-498 400-466.50Q455-435 484.50-377Q514-319 514-241Q514-166 484-108.50Q454-51 398.50-19Q343 13 269 13Q225 13 176-13L176 208L64 219L64-485L123-485L147-453Q176-475 209-486.50Q242-498 271-498M269-84Q329-84 363.50-128Q398-172 398-241Q398-313 364-357.50Q330-402 269-402Q243-402 220.50-394Q198-386 176-370L176-114Q217-84 269-84Z"/><path id="s26:catamaran-semibold:34" d="M103-363Q177-396 243-396Q329-396 331-295L225-295Q144-295 94.50-255Q45-215 45-142Q45-72 88.50-30Q132 12 216 12Q252 12 288-5Q324-22 352-49L369 0L444 0L444-324Q444-373 417-412.50Q390-452 343.50-475Q297-498 241-498Q207-498 152.50-485Q98-472 72-455L103-363M143-142Q143-175 164.50-197.50Q186-220 223-220L332-220L332-133Q307-107 276-92Q245-77 214-77Q181-77 162-96.50Q143-116 143-142Z"/><path id="s26:catamaran-semibold:47" d="M170-339Q251-406 312-406Q387-406 387-305L387 0L500 0L500-312Q500-400 462-450.50Q424-501 339-501Q295-501 245-481Q195-461 153-427L133-485L58-485L58 0L170 0L170-339Z"/><path id="s26:catamaran-semibold:45" d="M68-695L68 0L180 0L180-706L68-695Z"/><path id="s26:catamaran-semibold:40" d="M490 33Q490 124 424.50 177Q359 230 245 230Q209 230 151.50 216Q94 202 61 179L95 98Q140 119 172.50 129Q205 139 242 139Q302 139 339.50 110.50Q377 82 377 32L377-20Q351-4 323 4.50Q295 13 270 13Q196 13 141.50-19Q87-51 57.50-109Q28-167 28-244Q28-320 57.50-377.50Q87-435 142.50-466.50Q198-498 272-498Q302-498 339-484Q376-470 405-446L429-485L490-485L490 33M272-84Q302-84 327-93.50Q352-103 377-124L377-362Q353-383 328-392.50Q303-402 272-402Q212-402 177.50-358Q143-314 143-245Q143-172 177.50-128Q212-84 272-84Z"/><path id="s26:catamaran-semibold:52" d="M31-34Q61-12 109.50 0.50Q158 13 194 13Q291 13 342.50-26Q394-65 394-136Q394-237 229-296Q188-310 165-324Q142-338 141-355Q141-377 162-392Q183-407 214-407Q248-407 277.50-398.50Q307-390 342-374L377-450Q345-472 297.50-485Q250-498 216-498Q130-498 80-459.50Q30-421 30-354Q30-258 190-206Q286-175 286-131Q286-107 259-93Q232-79 194-79Q134-79 65-112L31-34Z"/><path id="s26:catamaran-semibold:46" d="M641-501Q720-501 757.50-454Q795-407 795-322L795 0L682 0L682-305Q682-355 666.50-380.50Q651-406 614-406Q585-406 553-389Q521-372 484-343L485-322L485 0L372 0L372-305Q372-355 356.50-380.50Q341-406 304-406Q251-406 170-339L170 0L58 0L58-485L133-485L153-427Q195-460 243-480.50Q291-501 331-501Q429-501 464-428Q506-461 553.50-481Q601-501 641-501Z"/><path id="s26:catamaran-semibold:35" d="M275-498Q349-498 404-466.50Q459-435 488.50-377Q518-319 518-241Q518-166 488-108.50Q458-51 402.50-19Q347 13 273 13Q246 13 212.50 1Q179-11 150-31L127 0L68 0L68-695L180-706L180-472Q229-498 275-498M273-84Q333-84 367.50-128Q402-172 402-241Q402-313 368-357.50Q334-402 273-402Q247-402 224.50-394Q202-386 180-370L180-114Q221-84 273-84Z"/><path id="s26:catamaran-semibold:39" d="M88 0L201 0L201-395L327-395L291-481L201-481L201-518Q201-558 217-581Q233-604 267-604Q285-604 317-592L348-676Q334-687 307.50-694.50Q281-702 259-702Q179-702 133.50-656.50Q88-611 88-532L88-481L14-481L14-395L88-395L88 0Z"/><path id="s26:catamaran-semibold:53" d="M192-622L80-600L80-481L13-481L13-395L80-395L80-145Q80-66 126-24Q172 18 253 18Q275 18 301.50 10.50Q328 3 343-7L312-90Q285-78 262-78Q227-78 209.50-101.50Q192-125 192-164L192-395L314-395L280-481L192-481L192-622Z"/><path id="s26:catamaran-semibold:42" d="M113-563Q141-563 160.50-582.50Q180-602 180-630Q180-657 160.50-676.50Q141-696 113-696Q86-696 67-676.50Q48-657 48-630Q48-602 66.50-582.50Q85-563 113-563M58-485L58 0L171 0L171-485L58-485Z"/><path id="s26:catamaran-semibold:58" d="M157 43Q146 73 116.50 91.50Q87 110 38 131L77 221Q139 207 190.50 168Q242 129 262 76L478-485L360-485L243-163L119-503L10-467L182-23L157 43Z"/><path id="s26:catamaran-semibold:254" d="M97 0Q125 0 144-19Q163-38 163-66Q163-94 144-113.50Q125-133 97-133Q69-133 49.50-113.50Q30-94 30-66Q30-38 49.50-19Q69 0 97 0Z"/><path id="s26:catamaran-semibold:57" d="M340 0L464 0L313-230L479-485L356-485L248-318L130-502L28-466L174-247L10 0L135 0L239-160L340 0Z"/><path id="s26:catamaran-semibold:36" d="M410-117Q374-100 344-92Q314-84 277-84Q216-84 179.50-128Q143-172 143-243Q144-312 181.50-357Q219-402 279-402Q314-402 343.50-394Q373-386 412-369L444-449Q413-471 363-484.50Q313-498 279-498Q203-498 146-466Q89-434 58.50-376.50Q28-319 28-243Q28-166 58.50-108.50Q89-51 145-19Q201 13 277 13Q312 13 362 0Q412-13 443-35L410-117Z"/><path id="s26:catamaran-semibold:13" d="M200-592L480-592L463-680L88-680L88 0L200 0L200-297L432-297L417-383L200-383L200-592Z"/><path id="s26:catamaran-semibold:253" d="M99-133Q72-133 52.50-112.50Q33-92 33-66Q33-42 50-21.50Q67-1 85 0Q80 28 65 46.50Q50 65 20 89L46 142Q98 114 133 57.50Q168 1 168-52Q168-87 148-110Q128-133 99-133Z"/></defs><g id="line-0"><use x="0" y="830" xlink:href="#s26:catamaran-semibold:27"/><use x="581" y="830" xlink:href="#s26:catamaran-semibold:41"/><use x="1144" y="830" xlink:href="#s26:catamaran-semibold:38"/><use x="1653" y="830" xlink:href="#s26:catamaran-semibold:2"/><use x="1881" y="830" xlink:href="#s26:catamaran-semibold:12"/><use x="2442" y="830" xlink:href="#s26:catamaran-semibold:54"/><use x="2995" y="830" xlink:href="#s26:catamaran-semibold:51"/><use x="3347" y="830" xlink:href="#s26:catamaran-semibold:48"/><use x="3903" y="830" xlink:href="#s26:catamaran-semibold:49"/><use x="4444" y="830" xlink:href="#s26:catamaran-semibold:38"/><use x="4953" y="830" xlink:href="#s26:catamaran-semibold:34"/><use x="5451" y="830" xlink:href="#s26:catamaran-semibold:47"/><use x="6004" y="830" xlink:href="#s26:catamaran-semibold:2"/><use x="6232" y="830" xlink:href="#s26:catamaran-semibold:45"/><use x="6479" y="830" xlink:href="#s26:catamaran-semibold:34"/><use x="6977" y="830" xlink:href="#s26:catamaran-semibold:47"/><use x="7530" y="830" xlink:href="#s26:catamaran-semibold:40"/><use x="8084" y="830" xlink:href="#s26:catamaran-semibold:54"/><use x="8637" y="830" xlink:href="#s26:catamaran-semibold:34"/><use x="9135" y="830" xlink:href="#s26:catamaran-semibold:40"/><use x="9689" y="830" xlink:href="#s26:catamaran-semibold:38"/><use x="10198" y="830" xlink:href="#s26:catamaran-semibold:52"/><use x="10619" y="830" xlink:href="#s26:catamaran-semibold:2"/><use x="10847" y="830" xlink:href="#s26:catamaran-semibold:34"/><use x="11345" y="830" xlink:href="#s26:catamaran-semibold:51"/><use x="11697" y="830" xlink:href="#s26:catamaran-semibold:38"/><use x="12206" y="830" xlink:href="#s26:catamaran-semibold:2"/><use x="12434" y="830" xlink:href="#s26:catamaran-semibold:46"/><use x="13282" y="830" xlink:href="#s26:catamaran-semibold:38"/><use x="13791" y="830" xlink:href="#s26:catamaran-semibold:46"/><use x="14639" y="830" xlink:href="#s26:catamaran-semibold:35"/><use x="15184" y="830" xlink:href="#s26:catamaran-semibold:38"/><use x="15693" y="830" xlink:href="#s26:catamaran-semibold:51"/><use x="16045" y="830" xlink:href="#s26:catamaran-semibold:52"/><use x="16466" y="830" xlink:href="#s26:catamaran-semibold:2"/><use x="16694" y="830" xlink:href="#s26:catamaran-semibold:48"/><use x="17250" y="830" xlink:href="#s26:catamaran-semibold:39"/><use x="17598" y="830" xlink:href="#s26:catamaran-semibold:2"/><use x="17826" y="830" xlink:href="#s26:catamaran-semibold:53"/><use x="18186" y="830" xlink:href="#s26:catamaran-semibold:41"/><use x="18749" y="830" xlink:href="#s26:catamaran-semibold:38"/><use x="19258" y="830" xlink:href="#s26:catamaran-semibold:2"/><use x="19486" y="830" xlink:href="#s26:catamaran-semibold:52"/><use x="19907" y="830" xlink:href="#s26:catamaran-semibold:34"/><use x="20405" y="830" xlink:href="#s26:catamaran-semibold:46"/><use x="21253" y="830" xlink:href="#s26:catamaran-semibold:38"/><use x="21762" y="830" xlink:href="#s26:catamaran-semibold:2"/><use x="21990" y="830" xlink:href="#s26:catamaran-semibold:39"/><use x="22338" y="830" xlink:href="#s26:catamaran-semibold:34"/><use x="22836" y="830" xlink:href="#s26:catamaran-semibold:46"/><use x="23684" y="830" xlink:href="#s26:catamaran-semibold:42"/><use x="23912" y="830" xlink:href="#s26:catamaran-semibold:45"/><use x="24159" y="830" xlink:href="#s26:catamaran-semibold:58"/><use x="24647" y="830" xlink:href="#s26:catamaran-semibold:254"/></g><g id="line-1"><use x="5067" y="2030" xlink:href="#s26:catamaran-semibold:27"/><use x="5648" y="2030" xlink:href="#s26:catamaran-semibold:41"/><use x="6211" y="2030" xlink:href="#s26:catamaran-semibold:38"/><use x="6720" y="2030" xlink:href="#s26:catamaran-semibold:42"/><use x="6948" y="2030" xlink:href="#s26:catamaran-semibold:51"/><use x="7300" y="2030" xlink:href="#s26:catamaran-semibold:2"/><use x="7528" y="2030" xlink:href="#s26:catamaran-semibold:52"/><use x="7949" y="2030" xlink:href="#s26:catamaran-semibold:38"/><use x="8458" y="2030" xlink:href="#s26:catamaran-semibold:49"/><use x="8999" y="2030" xlink:href="#s26:catamaran-semibold:34"/><use x="9497" y="2030" xlink:href="#s26:catamaran-semibold:51"/><use x="9849" y="2030" xlink:href="#s26:catamaran-semibold:34"/><use x="10347" y="2030" xlink:href="#s26:catamaran-semibold:53"/><use x="10707" y="2030" xlink:href="#s26:catamaran-semibold:38"/><use x="11216" y="2030" xlink:href="#s26:catamaran-semibold:2"/><use x="11444" y="2030" xlink:href="#s26:catamaran-semibold:38"/><use x="11953" y="2030" xlink:href="#s26:catamaran-semibold:57"/><use x="12442" y="2030" xlink:href="#s26:catamaran-semibold:42"/><use x="12670" y="2030" xlink:href="#s26:catamaran-semibold:52"/><use x="13091" y="2030" xlink:href="#s26:catamaran-semibold:53"/><use x="13451" y="2030" xlink:href="#s26:catamaran-semibold:38"/><use x="13960" y="2030" xlink:href="#s26:catamaran-semibold:47"/><use x="14513" y="2030" xlink:href="#s26:catamaran-semibold:36"/><use x="14981" y="2030" xlink:href="#s26:catamaran-semibold:38"/><use x="15490" y="2030" xlink:href="#s26:catamaran-semibold:2"/><use x="15718" y="2030" xlink:href="#s26:catamaran-semibold:42"/><use x="15946" y="2030" xlink:href="#s26:catamaran-semibold:52"/><use x="16367" y="2030" xlink:href="#s26:catamaran-semibold:2"/><use x="16595" y="2030" xlink:href="#s26:catamaran-semibold:34"/><use x="17093" y="2030" xlink:href="#s26:catamaran-semibold:2"/><use x="17321" y="2030" xlink:href="#s26:catamaran-semibold:46"/><use x="18169" y="2030" xlink:href="#s26:catamaran-semibold:58"/><use x="18657" y="2030" xlink:href="#s26:catamaran-semibold:53"/><use x="19017" y="2030" xlink:href="#s26:catamaran-semibold:41"/><use x="19580" y="2030" xlink:href="#s26:catamaran-semibold:254"/></g><g id="line-2"><use x="6243.5" y="3230" xlink:href="#s26:catamaran-semibold:13"/><use x="6743.5" y="3230" xlink:href="#s26:catamaran-semibold:48"/><use x="7299.5" y="3230" xlink:href="#s26:catamaran-semibold:51"/><use x="7651.5" y="3230" xlink:href="#s26:catamaran-semibold:2"/><use x="7879.5" y="3230" xlink:href="#s26:catamaran-semibold:52"/><use x="8300.5" y="3230" xlink:href="#s26:catamaran-semibold:36"/><use x="8768.5" y="3230" xlink:href="#s26:catamaran-semibold:42"/><use x="8996.5" y="3230" xlink:href="#s26:catamaran-semibold:38"/><use x="9505.5" y="3230" xlink:href="#s26:catamaran-semibold:47"/><use x="10058.5" y="3230" xlink:href="#s26:catamaran-semibold:36"/><use x="10526.5" y="3230" xlink:href="#s26:catamaran-semibold:38"/><use x="11035.5" y="3230" xlink:href="#s26:catamaran-semibold:253"/><use x="11233.5" y="3230" xlink:href="#s26:catamaran-semibold:2"/><use x="11461.5" y="3230" xlink:href="#s26:catamaran-semibold:46"/><use x="12309.5" y="3230" xlink:href="#s26:catamaran-semibold:54"/><use x="12862.5" y="3230" xlink:href="#s26:catamaran-semibold:52"/><use x="13283.5" y="3230" xlink:href="#s26:catamaran-semibold:42"/><use x="13511.5" y="3230" xlink:href="#s26:catamaran-semibold:36"/><use x="13979.5" y="3230" xlink:href="#s26:catamaran-semibold:253"/><use x="14177.5" y="3230" xlink:href="#s26:catamaran-semibold:2"/><use x="14405.5" y="3230" xlink:href="#s26:catamaran-semibold:52"/><use x="14826.5" y="3230" xlink:href="#s26:catamaran-semibold:49"/><use x="15367.5" y="3230" xlink:href="#s26:catamaran-semibold:48"/><use x="15923.5" y="3230" xlink:href="#s26:catamaran-semibold:51"/><use x="16275.5" y="3230" xlink:href="#s26:catamaran-semibold:53"/><use x="16635.5" y="3230" xlink:href="#s26:catamaran-semibold:253"/><use x="16833.5" y="3230" xlink:href="#s26:catamaran-semibold:2"/><use x="17061.5" y="3230" xlink:href="#s26:catamaran-semibold:38"/><use x="17570.5" y="3230" xlink:href="#s26:catamaran-semibold:53"/><use x="17930.5" y="3230" xlink:href="#s26:catamaran-semibold:36"/><use x="18398.5" y="3230" xlink:href="#s26:catamaran-semibold:253"/></g></svg>