<svg xmlns="http://www.w3.org/2000/svg" xmlns:xlink="http://www.w3.org/1999/xlink" width="550" height="90" viewBox="0 0 22933 3770"><defs><path id="s27:catamaran-thin:27" d="M10-641L242-641L242 0L291 0L291-641L524-641L519-680L10-680L10-641Z"/><path id="s27:catamaran-thin:41" d="M300-498Q374-498 409-454.50Q444-411 444-337L444 0L395 0L395-337Q395-393 375-425Q355-457 304-457Q225-457 129-359L129 0L80 0L80-696L129-706L129-410Q161-447 208.50-472.50Q256-498 300-498Z"/><path id="s27:catamaran-thin:38" d="M440-242Q440-315 416.50-373.50Q393-432 350-465Q307-498 252-498Q149-498 94.50-428.50Q40-359 40-245Q40-127 97.50-57Q155 13 270 13Q304 13 350.50 2.50Q397-8 425-25L405-62Q374-46 342-37Q310-28 262-28Q177-28 134.50-88Q92-148 91-242L440-242M93-279Q100-356 138.50-406.50Q177-457 245-457Q312-457 346-407.50Q380-358 388-279L93-279Z"/><path id="s27:catamaran-thin:2" d=""/><path id="s27:catamaran-thin:12" d="M149-39L149-329L394-329L389-368L149-368L149-641L452-641L447-680L100-680L100 0L475 0L469-39L149-39Z"/><path id="s27:catamaran-thin:54" d="M381-126Q285-28 206-28Q155-28 135-60Q115-92 115-148L115-485L66-485L66-148Q66-74 101-30.50Q136 13 210 13Q254 13 302-13Q350-39 382-76L392 0L430 0L430-485L381-485L381-126Z"/><path id="s27:catamaran-thin:51" d="M119-357Q150-391 199.50-419Q249-447 292-447L275-485Q241-485 195.50-460.50Q150-436 116-408L98-485L70-485L70 0L119 0L119-357Z"/><path id="s27:catamaran-thin:48" d="M483-240Q483-168 456.50-110.50Q430-53 379-20Q328 13 259 13Q154 12 97-58.50Q40-129 40-245Q40-317 66.50-374.50Q93-432 144-465Q195-498 265-498Q370-497 426.50-426.50Q483-356 483-240M259-28Q311-28 350.50-56.50Q390-85 411-133.50Q432-182 432-239Q432-300 412.50-349.50Q393-399 355-428Q317-457 264-457Q212-457 172.50-428.50Q133-400 112-351.50Q91-303 91-246Q91-185 110.50-135.50Q130-86 168-57Q206-28 259-28Z"/><path id="s27:catamaran-thin:49" d="M259-498Q363-498 415.50-428Q468-358 468-240Q468-127 412-57Q356 13 252 13Q220 13 186.50 0Q153-13 125-33L125 208L76 219L76-485L104-485L118-439Q180-498 259-498M254-28Q306-28 342.50-56.50Q379-85 398-133Q417-181 417-239Q417-334 377-395.50Q337-457 259-457Q215-457 185-440.50Q155-424 125-392L125-83Q186-28 254-28Z"/><path id="s27:catamaran-thin:34" d="M105-423Q142-441 171-449Q200-457 244-457Q301-457 330.50-425.50Q360-394 360-341L360-281L225-281Q148-281 100-242.50Q52-204 52-136Q52-70 94-28.50Q136 13 215 13Q259 13 298-5Q337-23 363-52L371 0L409 0L409-340Q409-413 365.50-455.50Q322-498 241-498Q208-498 160-486Q112-474 86-456L105-423M103-136Q103-184 134.50-214Q166-244 229-244L360-244L360-109Q335-72 299.50-50Q264-28 219-28Q166-28 134.50-59Q103-90 103-136Z"/><path id="s27:catamaran-thin:47" d="M119-359Q215-457 294-457Q345-457 365-425Q385-393 385-337L385 0L434 0L434-337Q434-411 399-454.50Q364-498 290-498Q246-498 198-472Q150-446 118-409L108-485L70-485L70 0L119 0L119-359Z"/><path id="s27:catamaran-thin:45" d="M80-696L80 0L129 0L129-706L80-696Z"/><path id="s27:catamaran-thin:40" d="M432 62Q432 137 382 183.50Q332 230 240 230Q206 230 153.50 218Q101 206 75 189L94 154Q134 172 165 180.50Q196 189 238 189Q302 189 342.50 159Q383 129 383 72L383-39Q325 13 249 13Q145 13 92.50-57Q40-127 40-245Q40-358 96-428Q152-498 256-498Q291-498 328-482Q365-466 393-444L405-485L432-485L432 62M249-28Q293-28 323-44.50Q353-61 383-93L383-402Q322-457 254-457Q202-457 165.50-428.50Q129-400 110-352Q91-304 91-246Q91-151 131-89.50Q171-28 249-28Z"/><path id="s27:catamaran-thin:52" d="M42-25Q68-8 111.50 2.50Q155 13 189 13Q366 13 366-123Q366-170 326.50-204.50Q287-239 219-266Q161-289 129-313Q97-337 97-368Q97-404 128.50-430.50Q160-457 210-457Q249-457 274-448.50Q299-440 334-423L354-458Q330-475 289.50-486.50Q249-498 217-498Q138-498 94-460.50Q50-423 50-364Q50-284 191-229Q319-179 319-119Q319-77 285-52.50Q251-28 191-28Q157-28 126.50-38Q96-48 60-66L42-25Z"/><path id="s27:catamaran-thin:46" d="M576-498Q646-498 678-455Q710-412 710-337L710 0L661 0L661-337Q661-395 644-426Q627-457 580-457Q510-457 418-367Q419-357 419-337L419 0L370 0L370-337Q370-395 353-426Q336-457 289-457Q251-457 207.50-430.50Q164-404 119-359L119 0L70 0L70-485L108-485L118-409Q149-445 198-471.50Q247-498 285-498Q383-498 410-410Q441-446 489.50-472Q538-498 576-498Z"/><path id="s27:catamaran-thin:35" d="M263-498Q367-498 419.50-428Q472-358 472-240Q472-127 416-57Q360 13 256 13Q222 13 186-2Q150-17 122-39L108 0L80 0L80-696L129-706L129-446Q187-498 263-498M258-28Q310-28 346.50-56.50Q383-85 402-133Q421-181 421-239Q421-334 381-395.50Q341-457 263-457Q219-457 189-440.50Q159-424 129-392L129-83Q190-28 258-28Z"/><path id="s27:catamaran-thin:39" d="M93 0L142 0L142-433L251-433L230-470L142-470L142-579Q142-661 211-661Q220-661 233-658Q246-655 252-652L264-689Q230-702 198-702Q146-702 119.50-665Q93-628 93-563L93-470L20-470L20-433L93-433L93 0Z"/><path id="s27:catamaran-thin:53" d="M141-623L92-601L92-470L20-470L20-433L92-433L92-116Q92-54 120-20.50Q148 13 196 13Q215 13 235 8Q259 1 262 1L250-37Q229-28 209-28Q175-28 158-55.50Q141-83 141-123L141-433L250-433L229-470L141-470L141-623Z"/><path id="s27:catamaran-thin:42" d="M94-600Q111-600 122-611Q133-622 133-638Q133-654 121.50-665Q110-676 94-676Q77-676 66.50-665Q56-654 56-638Q56-622 66.50-611Q77-600 94-600M70-485L70 0L119 0L119-485L70-485Z"/><path id="s27:catamaran-thin:58" d="M162 98Q150 130 126.50 149Q103 168 63 181L68 219Q116 209 151 181Q186 153 201 112L420-485L370-485L216-56L56-491L10-473L193 0L162 98Z"/><path id="s27:catamaran-thin:254" d="M68 0Q84 0 95.50-11Q107-22 107-38Q107-54 95.50-65Q84-76 68-76Q51-76 40.50-65Q30-54 30-38Q30-22 40.50-11Q51 0 68 0Z"/><path id="s27:catamaran-thin:57" d="M327 0L382 0L235-232L395-485L341-485L209-267L73-494L30-474L171-244L10 0L66 0L196-207L327 0Z"/><path id="s27:catamaran-thin:36" d="M388-62Q383-60 361.50-49Q340-38 315-33Q290-28 259-28Q206-28 168-57Q130-86 110.50-135.50Q91-185 91-246Q91-303 112-351.50Q133-400 172.50-428.50Q212-457 264-457Q304-457 331-448.50Q358-440 393-423L413-456Q385-474 341-486Q297-498 266-498Q196-498 145-465.50Q94-433 67-375.50Q40-318 40-245Q40-129 97-58Q154 13 259 13Q292 13 335.50 1.50Q379-10 408-28L388-62Z"/><path id="s27:catamaran-thin:13" d="M149-641L443-641L436-680L100-680L100 0L149 0L149-325L384-325L378-364L149-364L149-641Z"/><path id="s27:catamaran-thin:253" d="M83-76Q65-76 55-64.50Q45-53 45-37Q45-25 55-12Q65 1 81 1Q80 51 20 83L36 108Q77 88 99.50 50.50Q122 13 122-33Q122-49 111-62.50Q100-76 83-76Z"/></defs><g id="line-0"><use x="0" y="830" xlink:href="#s27:catamaran-thin:27"/><use x="534" y="830" xlink:href="#s27:catamaran-thin:41"/><use x="1044" y="830" xlink:href="#s27:catamaran-thin:38"/><use x="1524" y="830" xlink:href="#s27:catamaran-thin:2"/><use x="1764" y="830" xlink:href="#s27:catamaran-thin:12"/><use x="2259" y="830" xlink:href="#s27:catamaran-thin:54"/><use x="2759" y="830" xlink:href="#s27:catamaran-thin:51"/><use x="3061" y="830" xlink:href="#s27:catamaran-thin:48"/><use x="3584" y="830" xlink:href="#s27:catamaran-thin:49"/><use x="4092" y="830" xlink:href="#s27:catamaran-thin:38"/><use x="4572" y="830" xlink:href="#s27:catamaran-thin:34"/><use x="5047" y="830" xlink:href="#s27:catamaran-thin:47"/><use x="5547" y="830" xlink:href="#s27:catamaran-thin:2"/><use x="5787" y="830" xlink:href="#s27:catamaran-thin:45"/><use x="5996" y="830" xlink:href="#s27:catamaran-thin:34"/><use x="6471" y="830" xlink:href="#s27:catamaran-thin:47"/><use x="6971" y="830" xlink:href="#s27:catamaran-thin:40"/><use x="7479" y="830" xlink:href="#s27:catamaran-thin:54"/><use x="7979" y="830" xlink:href="#s27:catamaran-thin:34"/><use x="8454" y="830" xlink:href="#s27:catamaran-thin:40"/><use x="8962" y="830" xlink:href="#s27:catamaran-thin:38"/><use x="9442" y="830" xlink:href="#s27:catamaran-thin:52"/><use x="9848" y="830" xlink:href="#s27:catamaran-thin:2"/><use x="10088" y="830" xlink:href="#s27:catamaran-thin:34"/><use x="10563" y="830" xlink:href="#s27:catamaran-thin:51"/><use x="10865" y="830" xlink:href="#s27:catamaran-thin:38"/><use x="11345" y="830" xlink:href="#s27:catamaran-thin:2"/><use x="11585" y="830" xlink:href="#s27:catamaran-thin:46"/><use x="12361" y="830" xlink:href="#s27:catamaran-thin:38"/><use x="12841" y="830" xlink:href="#s27:catamaran-thin:46"/><use x="13617" y="830" xlink:href="#s27:catamaran-thin:35"/><use x="14129" y="830" xlink:href="#s27:catamaran-thin:38"/><use x="14609" y="830" xlink:href="#s27:catamaran-thin:51"/><use x="14911" y="830" xlink:href="#s27:catamaran-thin:52"/><use x="15317" y="830" xlink:href="#s27:catamaran-thin:2"/><use x="15557" y="830" xlink:href="#s27:catamaran-thin:48"/><use x="16080" y="830" xlink:href="#s27:catamaran-thin:39"/><use x="16344" y="830" xlink:href="#s27:catamaran-thin:2"/><use x="16584" y="830" xlink:href="#s27:catamaran-thin:53"/><use x="16876" y="830" xlink:href="#s27:catamaran-thin:41"/><use x="17386" y="830" xlink:href="#s27:catamaran-thin:38"/><use x="17866" y="830" xlink:href="#s27:catamaran-thin:2"/><use x="18106" y="830" xlink:href="#s27:catamaran-thin:52"/><use x="18512" y="830" xlink:href="#s27:catamaran-thin:34"/><use x="18987" y="830" xlink:href="#s27:catamaran-thin:46"/><use x="19763" y="830" xlink:href="#s27:catamaran-thin:38"/><use x="20243" y="830" xlink:href="#s27:catamaran-thin:2"/><use x="20483" y="830" xlink:href="#s27:catamaran-thin:39"/><use x="20747" y="830" xlink:href="#s27:catamaran-thin:34"/><use x="21222" y="830" xlink:href="#s27:catamaran-thin:46"/><use x="21998" y="830" xlink:href="#s27:catamaran-thin:42"/><use x="22187" y="830" xlink:href="#s27:catamaran-thin:45"/><use x="22396" y="830" xlink:href="#s27:catamaran-thin:58"/><use x="22826" y="830" xlink:href="#s27:catamaran-thin:254"/></g><g id="line-1"><use x="4717" y="2030" xlink:href="#s27:catamaran-thin:27"/><use x="5251" y="2030" xlink:href="#s27:catamaran-thin:41"/><use x="5761" y="2030" xlink:href="#s27:catamaran-thin:38"/><use x="6241" y="2030" xlink:href="#s27:catamaran-thin:42"/><use x="6430" y="2030" xlink:href="#s27:catamaran-thin:51"/><use x="6732" y="2030" xlink:href="#s27:catamaran-thin:2"/><use x="6972" y="2030" xlink:href="#s27:catamaran-thin:52"/><use x="7378" y="2030" xlink:href="#s27:catamaran-thin:38"/><use x="7858" y="2030" xlink:href="#s27:catamaran-thin:49"/><use x="8366" y="2030" xlink:href="#s27:catamaran-thin:34"/><use x="8841" y="2030" xlink:href="#s27:catamaran-thin:51"/><use x="9143" y="2030" xlink:href="#s27:catamaran-thin:34"/><use x="9618" y="2030" xlink:href="#s27:catamaran-thin:53"/><use x="9910" y="2030" xlink:href="#s27:catamaran-thin:38"/><use x="10390" y="2030" xlink:href="#s27:catamaran-thin:2"/><use x="10630" y="2030" xlink:href="#s27:catamaran-thin:38"/><use x="11110" y="2030" xlink:href="#s27:catamaran-thin:57"/><use x="11515" y="2030" xlink:href="#s27:catamaran-thin:42"/><use x="11704" y="2030" xlink:href="#s27:catamaran-thin:52"/><use x="12110" y="2030" xlink:href="#s27:catamaran-thin:53"/><use x="12402" y="2030" xlink:href="#s27:catamaran-thin:38"/><use x="12882" y="2030" xlink:href="#s27:catamaran-thin:47"/><use x="13382" y="2030" xlink:href="#s27:catamaran-thin:36"/><use x="13831" y="2030" xlink:href="#s27:catamaran-thin:38"/><use x="14311" y="2030" xlink:href="#s27:catamaran-thin:2"/><use x="14551" y="2030" xlink:href="#s27:catamaran-thin:42"/><use x="14740" y="2030" xlink:href="#s27:catamaran-thin:52"/><use x="15146" y="2030" xlink:href="#s27:catamaran-thin:2"/><use x="15386" y="2030" xlink:href="#s27:catamaran-thin:34"/><use x="15861" y="2030" xlink:href="#s27:catamaran-thin:2"/><use x="16101" y="2030" xlink:href="#s27:catamaran-thin:46"/><use x="16877" y="2030" xlink:href="#s27:catamaran-thin:58"/><use x="17307" y="2030" xlink:href="#s27:catamaran-thin:53"/><use x="17599" y="2030" xlink:href="#s27:catamaran-thin:41"/><use x="18109" y="2030" xlink:href="#s27:catamaran-thin:254"/></g><g id="line-2"><use x="5791" y="3230" xlink:href="#s27:catamaran-thin:13"/><use x="6254" y="3230" xlink:href="#s27:catamaran-thin:48"/><use x="6777" y="3230" xlink:href="#s27:catamaran-thin:51"/><use x="7079" y="3230" xlink:href="#s27:catamaran-thin:2"/><use x="7319" y="3230" xlink:href="#s27:catamaran-thin:52"/><use x="7725" y="3230" xlink:href="#s27:catamaran-thin:36"/><use x="8174" y="3230" xlink:href="#s27:catamaran-thin:42"/><use x="8363" y="3230" xlink:href="#s27:catamaran-thin:38"/><use x="8843" y="3230" xlink:href="#s27:catamaran-thin:47"/><use x="9343" y="3230" xlink:href="#s27:catamaran-thin:36"/><use x="9792" y="3230" xlink:href="#s27:catamaran-thin:38"/><use x="10272" y="3230" xlink:href="#s27:catamaran-thin:253"/><use x="10424" y="3230" xlink:href="#s27:catamaran-thin:2"/><use x="10664" y="3230" xlink:href="#s27:catamaran-thin:46"/><use x="11440" y="3230" xlink:href="#s27:catamaran-thin:54"/><use x="11940" y="3230" xlink:href="#s27:catamaran-thin:52"/><use x="12346" y="3230" xlink:href="#s27:catamaran-thin:42"/><use x="12535" y="3230" xlink:href="#s27:catamaran-thin:36"/><use x="12984" y="3230" xlink:href="#s27:catamaran-thin:253"/><use x="13136" y="3230" xlink:href="#s27:catamaran-thin:2"/><use x="13376" y="3230" xlink:href="#s27:catamaran-thin:52"/><use x="13782" y="3230" xlink:href="#s27:catamaran-thin:49"/><use x="14290" y="3230" xlink:href="#s27:catamaran-thin:48"/><use x="14813" y="3230" xlink:href="#s27:catamaran-thin:51"/><use x="15115" y="3230" xlink:href="#s27:catamaran-thin:53"/><use x="15407" y="3230" xlink:href="#s27:catamaran-thin:253"/><use x="15559" y="3230" xlink:href="#s27:catamaran-thin:2"/><use x="15799" y="3230" xlink:href="#s27:catamaran-thin:38"/><use x="16279" y="3230" xlink:href="#s27:catamaran-thin:53"/><use x="16571" y="3230" xlink:href="#s27:catamaran-thin:36"/><use x="17020" y="3230" xlink:href="#s27:catamaran-thin:253"/></g></svg>