<svg xmlns="http://www.w3.org/2000/svg" xmlns:xlink="http://www.w3.org/1999/xlink" width="586" height="90" viewBox="0 0 24396 3770"><defs><path id="s24:catamaran-medium:27" d="M10-604L231-604L231 0L328 0L328-604L562-604L549-680L10-680L10-604Z"/><path id="s24:catamaran-medium:41" d="M339-501Q418-501 456.50-452Q495-403 495-320L495 0L399 0L399-311Q399-364 381.50-391.50Q364-419 319-419Q285-419 245-397.50Q205-376 166-342L166 0L70 0L70-695L166-706L166-431Q204-463 249.50-482Q295-501 339-501Z"/><path id="s24:catamaran-medium:38" d="M474-247Q474-357 420.50-427.50Q367-498 262-498Q191-498 138.50-466Q86-434 58-376Q30-318 30-243Q30-126 98-57Q166 12 293 12Q381 12 469-41L439-111Q388-87 359.50-77.50Q331-68 293-68Q215-68 175.50-109Q136-150 130-221L474-221L474-247M132-286Q139-347 171.50-381.50Q204-416 259-416Q362-416 381-286L132-286Z"/><path id="s24:catamaran-medium:2" d=""/><path id="s24:catamaran-medium:12" d="M186-75L186-309L430-309L417-383L186-383L186-606L486-606L473-680L90-680L90 0L522 0L509-75L186-75Z"/><path id="s24:catamaran-medium:54" d="M385-143Q346-109 306-87.50Q266-66 232-66Q187-66 169.50-93.50Q152-121 152-174L152-485L56-485L56-165Q56-82 94.50-33Q133 16 212 16Q260 16 309-6.50Q358-29 397-64L414 0L481 0L481-485L385-485L385-143Z"/><path id="s24:catamaran-medium:51" d="M156-321Q194-357 242-382.50Q290-408 328-408L307-485Q272-485 225.50-460Q179-435 145-406L114-485L60-485L60 0L156 0L156-321Z"/><path id="s24:catamaran-medium:48" d="M515-242Q515-167 485-109Q455-51 399.50-19Q344 13 270 13Q197 13 142.50-19Q88-51 59-109Q30-167 30-243Q30-318 60-376Q90-434 145-466Q200-498 274-498Q347-498 401.50-466Q456-434 485.50-376Q515-318 515-242M271-69Q337-69 376.50-118Q416-167 417-241Q417-319 379-367.50Q341-416 274-416Q208-416 168.50-367Q129-318 128-244Q128-166 166-117.50Q204-69 271-69Z"/><path id="s24:catamaran-medium:49" d="M262-498Q336-498 390.50-466Q445-434 474-375.50Q503-317 503-239Q503-164 473-107Q443-50 388-18.50Q333 13 261 13Q241 13 214.50 6Q188-1 162-15L162 208L66 219L66-485L120-485L141-455Q171-475 204.50-486.50Q238-498 262-498M262-69Q329-69 367-116.50Q405-164 405-238Q405-318 367.50-367Q330-416 262-416Q203-416 162-381L162-102Q204-69 262-69Z"/><path id="s24:catamaran-medium:34" d="M103-379Q177-412 243-412Q297-412 318.50-380.50Q340-349 340-290L225-290Q144-290 95.50-250.50Q47-211 47-140Q47-71 90-29.50Q133 12 216 12Q253 12 292-5Q331-22 358-46L370 0L437 0L437-329Q437-375 411.50-414Q386-453 341-475.50Q296-498 241-498Q207-498 154.50-485.50Q102-473 76-455L103-379M133-140Q133-176 157-201Q181-226 223-226L341-226L341-128Q315-99 282-81.50Q249-64 214-64Q175-64 154-86.50Q133-109 133-140Z"/><path id="s24:catamaran-medium:47" d="M156-342Q195-376 235-397.50Q275-419 309-419Q354-419 371.50-391.50Q389-364 389-311L389 0L485 0L485-320Q485-403 446.50-452Q408-501 329-501Q281-501 232-478.50Q183-456 144-421L127-485L60-485L60 0L156 0L156-342Z"/><path id="s24:catamaran-medium:45" d="M70-695L70 0L166 0L166-706L70-695Z"/><path id="s24:catamaran-medium:40" d="M474 43Q474 97 446.50 139.50Q419 182 367 206Q315 230 242 230Q207 230 154 216.50Q101 203 70 182L99 113Q149 135 174.50 143.50Q200 152 239 152Q301 152 339 123.50Q377 95 377 42L377-21Q350-5 321 4Q292 13 271 13Q197 13 142.50-19Q88-51 59-109.50Q30-168 30-246Q30-321 60-378Q90-435 145-466.50Q200-498 272-498Q298-498 334-486Q370-474 400-451L419-485L474-485L474 43M271-69Q304-69 329-79Q354-89 377-110L377-378Q354-398 328.50-407Q303-416 271-416Q204-416 166-368.50Q128-321 128-247Q128-167 165.50-118Q203-69 271-69Z"/><path id="s24:catamaran-medium:52" d="M34-31Q62-11 110.50 1Q159 13 194 13Q289 13 340-25Q391-63 391-132Q391-230 227-289Q179-305 153.50-322Q128-339 127-359Q127-385 151.50-402.50Q176-420 214-420Q249-420 278-411.50Q307-403 342-387L372-452Q343-472 296.50-485Q250-498 216-498Q131-498 81.50-460.50Q32-423 32-357Q32-263 191-211Q299-177 299-127Q299-99 270.50-82Q242-65 194-65Q132-65 64-98L34-31Z"/><path id="s24:catamaran-medium:46" d="M634-501Q710-501 748-451.50Q786-402 786-320L786 0L690 0L690-311Q690-363 672.50-391Q655-419 614-419Q585-419 548-399.50Q511-380 474-348Q475-339 475-320L475 0L379 0L379-311Q379-363 361.50-391Q344-419 303-419Q272-419 233.50-397.50Q195-376 156-342L156 0L60 0L60-485L127-485L144-421Q182-456 230.50-478.50Q279-501 323-501Q371-501 404.50-480Q438-459 455-421Q493-456 541.50-478.50Q590-501 634-501Z"/><path id="s24:catamaran-medium:35" d="M266-498Q340-498 394.50-466Q449-434 478-375.50Q507-317 507-239Q507-164 477-107Q447-50 392-18.50Q337 13 265 13Q240 13 206.50 2.50Q173-8 143-29L124 0L70 0L70-695L166-706L166-468Q193-482 219.50-490Q246-498 266-498M266-69Q333-69 371-116.50Q409-164 409-238Q409-318 371.50-367Q334-416 266-416Q207-416 166-381L166-102Q208-69 266-69Z"/><path id="s24:catamaran-medium:39" d="M89 0L185 0L185-406L306-406L275-479L185-479L185-533Q185-572 201.50-594.50Q218-617 252-617Q271-617 300-606L324-680Q311-689 287.50-695.50Q264-702 243-702Q171-702 130-658.50Q89-615 89-542L89-479L15-479L16-406L89-406L89 0Z"/><path id="s24:catamaran-medium:53" d="M180-622L84-600L84-479L15-479L16-406L84-406L84-135Q84-62 125.50-22.50Q167 17 239 17Q259 17 282.50 10.50Q306 4 321-4L296-77Q267-66 249-66Q214-66 197-88.50Q180-111 180-150L180-406L298-406L268-479L180-479L180-622Z"/><path id="s24:catamaran-medium:42" d="M107-572Q132-572 150-589.50Q168-607 168-632Q168-657 150-674.50Q132-692 107-692Q82-692 65-674.50Q48-657 48-632Q48-607 65-589.50Q82-572 107-572M60-485L60 0L157 0L157-485L60-485Z"/><path id="s24:catamaran-medium:58" d="M159 61Q148 91 122 108.50Q96 126 48 147L80 221Q138 208 184 172.50Q230 137 248 88L463-485L364-485L236-137L101-503L10-469L187-13L159 61Z"/><path id="s24:catamaran-medium:254" d="M91 0Q116 0 133-17.50Q150-35 150-60Q150-85 133-102.50Q116-120 91-120Q65-120 47.50-102.50Q30-85 30-60Q30-35 47.50-17.50Q65 0 91 0Z"/><path id="s24:catamaran-medium:57" d="M339 0L445 0L293-232L460-485L355-485L238-306L114-502L28-468L173-247L10 0L117 0L228-174L339 0Z"/><path id="s24:catamaran-medium:36" d="M407-102Q372-85 342-77Q312-69 271-69Q204-69 166-117.50Q128-166 128-244Q129-318 168.50-367Q208-416 274-416Q312-416 340.50-408Q369-400 410-383L438-451Q408-471 358-484.50Q308-498 275-498Q201-498 145.50-466Q90-434 60-376Q30-318 30-243Q30-167 59.50-109Q89-51 143.50-19Q198 13 271 13Q305 13 355.50 0Q406-13 436-33L407-102Z"/><path id="s24:catamaran-medium:13" d="M186-606L471-606L457-680L90-680L90 0L186 0L186-305L419-305L407-378L186-378L186-606Z"/><path id="s24:catamaran-medium:253" d="M93-120Q69-120 51-102Q33-84 33-60Q33-38 48.50-19.50Q64-1 82 0Q79 27 64 45.50Q49 64 20 86L43 131Q91 106 123 54.50Q155 3 155-48Q155-80 137.50-100Q120-120 93-120Z"/></defs><g id="line-0"><use x="0" y="830" xlink:href="#s24:catamaran-medium:27"/><use x="572" y="830" xlink:href="#s24:catamaran-medium:41"/><use x="1123" y="830" xlink:href="#s24:catamaran-medium:38"/><use x="1627" y="830" xlink:href="#s24:catamaran-medium:2"/><use x="1857" y="830" xlink:href="#s24:catamaran-medium:12"/><use x="2399" y="830" xlink:href="#s24:catamaran-medium:54"/><use x="2940" y="830" xlink:href="#s24:catamaran-medium:51"/><use x="3278" y="830" xlink:href="#s24:catamaran-medium:48"/><use x="3823" y="830" xlink:href="#s24:catamaran-medium:49"/><use x="4356" y="830" xlink:href="#s24:catamaran-medium:38"/><use x="4860" y="830" xlink:href="#s24:catamaran-medium:34"/><use x="5353" y="830" xlink:href="#s24:catamaran-medium:47"/><use x="5894" y="830" xlink:href="#s24:catamaran-medium:2"/><use x="6124" y="830" xlink:href="#s24:catamaran-medium:45"/><use x="6360" y="830" xlink:href="#s24:catamaran-medium:34"/><use x="6853" y="830" xlink:href="#s24:catamaran-medium:47"/><use x="7394" y="830" xlink:href="#s24:catamaran-medium:40"/><use x="7934" y="830" xlink:href="#s24:catamaran-medium:54"/><use x="8475" y="830" xlink:href="#s24:catamaran-medium:34"/><use x="8968" y="830" xlink:href="#s24:catamaran-medium:40"/><use x="9508" y="830" xlink:href="#s24:catamaran-medium:38"/><use x="10012" y="830" xlink:href="#s24:catamaran-medium:52"/><use x="10433" y="830" xlink:href="#s24:catamaran-medium:2"/><use x="10663" y="830" xlink:href="#s24:catamaran-medium:34"/><use x="11156" y="830" xlink:href="#s24:catamaran-medium:51"/><use x="11494" y="830" xlink:href="#s24:catamaran-medium:38"/><use x="11998" y="830" xlink:href="#s24:catamaran-medium:2"/><use x="12228" y="830" xlink:href="#s24:catamaran-medium:46"/><use x="13070" y="830" xlink:href="#s24:catamaran-medium:38"/><use x="13574" y="830" xlink:href="#s24:catamaran-medium:46"/><use x="14416" y="830" xlink:href="#s24:catamaran-medium:35"/><use x="14953" y="830" xlink:href="#s24:catamaran-medium:38"/><use x="15457" y="830" xlink:href="#s24:catamaran-medium:51"/><use x="15795" y="830" xlink:href="#s24:catamaran-medium:52"/><use x="16216" y="830" xlink:href="#s24:catamaran-medium:2"/><use x="16446" y="830" xlink:href="#s24:catamaran-medium:48"/><use x="16991" y="830" xlink:href="#s24:catamaran-medium:39"/><use x="17315" y="830" xlink:href="#s24:catamaran-medium:2"/><use x="17545" y="830" xlink:href="#s24:catamaran-medium:53"/><use x="17886" y="830" xlink:href="#s24:catamaran-medium:41"/><use x="18437" y="830" xlink:href="#s24:catamaran-medium:38"/><use x="18941" y="830" xlink:href="#s24:catamaran-medium:2"/><use x="19171" y="830" xlink:href="#s24:catamaran-medium:52"/><use x="19592" y="830" xlink:href="#s24:catamaran-medium:34"/><use x="20085" y="830" xlink:href="#s24:catamaran-medium:46"/><use x="20927" y="830" xlink:href="#s24:catamaran-medium:38"/><use x="21431" y="830" xlink:href="#s24:catamaran-medium:2"/><use x="21661" y="830" xlink:href="#s24:catamaran-medium:39"/><use x="21985" y="830" xlink:href="#s24:catamaran-medium:34"/><use x="22478" y="830" xlink:href="#s24:catamaran-medium:46"/><use x="23320" y="830" xlink:href="#s24:catamaran-medium:42"/><use x="23537" y="830" xlink:href="#s24:catamaran-medium:45"/><use x="23773" y="830" xlink:href="#s24:catamaran-medium:58"/><use x="24246" y="830" xlink:href="#s24:catamaran-medium:254"/></g><g id="line-1"><use x="4991.5" y="2030" xlink:href="#s24:catamaran-medium:27"/><use x="5563.5" y="2030" xlink:href="#s24:catamaran-medium:41"/><use x="6114.5" y="2030" xlink:href="#s24:catamaran-medium:38"/><use x="6618.5" y="2030" xlink:href="#s24:catamaran-medium:42"/><use x="6835.5" y="2030" xlink:href="#s24:catamaran-medium:51"/><use x="7173.5" y="2030" xlink:href="#s24:catamaran-medium:2"/><use x="7403.5" y="2030" xlink:href="#s24:catamaran-medium:52"/><use x="7824.5" y="2030" xlink:href="#s24:catamaran-medium:38"/><use x="8328.5" y="2030" xlink:href="#s24:catamaran-medium:49"/><use x="8861.5" y="2030" xlink:href="#s24:catamaran-medium:34"/><use x="9354.5" y="2030" xlink:href="#s24:catamaran-medium:51"/><use x="9692.5" y="2030" xlink:href="#s24:catamaran-medium:34"/><use x="10185.5" y="2030" xlink:href="#s24:catamaran-medium:53"/><use x="10526.5" y="2030" xlink:href="#s24:catamaran-medium:38"/><use x="11030.5" y="2030" xlink:href="#s24:catamaran-medium:2"/><use x="11260.5" y="2030" xlink:href="#s24:catamaran-medium:38"/><use x="11764.5" y="2030" xlink:href="#s24:catamaran-medium:57"/><use x="12234.5" y="2030" xlink:href="#s24:catamaran-medium:42"/><use x="12451.5" y="2030" xlink:href="#s24:catamaran-medium:52"/><use x="12872.5" y="2030" xlink:href="#s24:catamaran-medium:53"/><use x="13213.5" y="2030" xlink:href="#s24:catamaran-medium:38"/><use x="13717.5" y="2030" xlink:href="#s24:catamaran-medium:47"/><use x="14258.5" y="2030" xlink:href="#s24:catamaran-medium:36"/><use x="14722.5" y="2030" xlink:href="#s24:catamaran-medium:38"/><use x="15226.5" y="2030" xlink:href="#s24:catamaran-medium:2"/><use x="15456.5" y="2030" xlink:href="#s24:catamaran-medium:42"/><use x="15673.5" y="2030" xlink:href="#s24:catamaran-medium:52"/><use x="16094.5" y="2030" xlink:href="#s24:catamaran-medium:2"/><use x="16324.5" y="2030" xlink:href="#s24:catamaran-medium:34"/><use x="16817.5" y="2030" xlink:href="#s24:catamaran-medium:2"/><use x="17047.5" y="2030" xlink:href="#s24:catamaran-medium:46"/><use x="17889.5" y="2030" xlink:href="#s24:catamaran-medium:58"/><use x="18362.5" y="2030" xlink:href="#s24:catamaran-medium:53"/><use x="18703.5" y="2030" xlink:href="#s24:catamaran-medium:41"/><use x="19254.5" y="2030" xlink:href="#s24:catamaran-medium:254"/></g><g id="line-2"><use x="6152.5" y="3230" xlink:href="#s24:catamaran-medium:13"/><use x="6643.5" y="3230" xlink:href="#s24:catamaran-medium:48"/><use x="7188.5" y="3230" xlink:href="#s24:catamaran-medium:51"/><use x="7526.5" y="3230" xlink:href="#s24:catamaran-medium:2"/><use x="7756.5" y="3230" xlink:href="#s24:catamaran-medium:52"/><use x="8177.5" y="3230" xlink:href="#s24:catamaran-medium:36"/><use x="8641.5" y="3230" xlink:href="#s24:catamaran-medium:42"/><use x="8858.5" y="3230" xlink:href="#s24:catamaran-medium:38"/><use x="9362.5" y="3230" xlink:href="#s24:catamaran-medium:47"/><use x="9903.5" y="3230" xlink:href="#s24:catamaran-medium:36"/><use x="10367.5" y="3230" xlink:href="#s24:catamaran-medium:38"/><use x="10871.5" y="3230" xlink:href="#s24:catamaran-medium:253"/><use x="11056.5" y="3230" xlink:href="#s24:catamaran-medium:2"/><use x="11286.5" y="3230" xlink:href="#s24:catamaran-medium:46"/><use x="12128.5" y="3230" xlink:href="#s24:catamaran-medium:54"/><use x="12669.5" y="3230" xlink:href="#s24:catamaran-medium:52"/><use x="13090.5" y="3230" xlink:href="#s24:catamaran-medium:42"/><use x="13307.5" y="3230" xlink:href="#s24:catamaran-medium:36"/><use x="13771.5" y="3230" xlink:href="#s24:catamaran-medium:253"/><use x="13956.5" y="3230" xlink:href="#s24:catamaran-medium:2"/><use x="14186.5" y="3230" xlink:href="#s24:catamaran-medium:52"/><use x="14607.5" y="3230" xlink:href="#s24:catamaran-medium:49"/><use x="15140.5" y="3230" xlink:href="#s24:catamaran-medium:48"/><use x="15685.5" y="3230" xlink:href="#s24:catamaran-medium:51"/><use x="16023.5" y="3230" xlink:href="#s24:catamaran-medium:53"/><use x="16364.5" y="3230" xlink:href="#s24:catamaran-medium:253"/><use x="16549.5" y="3230" xlink:href="#s24:catamaran-medium:2"/><use x="16779.5" y="3230" xlink:href="#s24:catamaran-medium:38"/><use x="17283.5" y="3230" xlink:href="#s24:catamaran-medium:53"/><use x="17624.5" y="3230" xlink:href="#s24:catamaran-medium:36"/><use x="18088.5" y="3230" xlink:href="#s24:catamaran-medium:253"/></g></svg>