<svg xmlns="http://www.w3.org/2000/svg" xmlns:xlink="http://www.w3.org/1999/xlink" width="606" height="90" viewBox="0 0 25251 3770" ><defs><path id="s20:catamaran-bold:27" d="M10-578L217-578L217 0L348 0L348-578L581-578L560-680L10-680L10-578Z"/><path id="s20:catamaran-bold:41" d="M358-501Q450-501 487-449Q524-397 524-304L524 0L394 0L394-298Q394-343 375.50-368Q357-393 324-393Q290-393 260-377.50Q230-362 194-336L194 0L65 0L65-695L194-706L194-448Q235-473 279-487Q323-501 358-501Z"/><path id="s20:catamaran-bold:38" d="M490-244Q490-315 466-372.50Q442-430 392-464Q342-498 269-498Q194-498 139-466.50Q84-435 54.50-377Q25-319 25-242Q25-123 96.50-55.50Q168 12 306 12Q365 12 408-3.50Q451-19 488-48L450-142Q413-121 381-110Q349-99 309-99Q240-99 206.50-126Q173-153 163-204L490-204L490-244M164-291Q172-338 199-362.50Q226-387 266-387Q306-387 331.50-363Q357-339 367-291L164-291Z"/><path id="s20:catamaran-bold:2" d=""/><path id="s20:catamaran-bold:12" d="M214-101L214-292L457-292L436-395L214-395L214-578L511-578L491-680L85-680L85 0L561 0L540-101L214-101Z"/><path id="s20:catamaran-bold:54" d="M381-149Q345-123 315-107.50Q285-92 251-92Q218-92 199.50-117Q181-142 181-187L181-485L51-485L51-181Q51-88 88-36Q125 16 217 16Q257 16 308-2Q359-20 404-52L426 0L511 0L511-485L381-485L381-149Z"/><path id="s20:catamaran-bold:51" d="M185-296Q227-333 275.50-357Q324-381 357-381L331-485Q295-485 248-460Q201-435 166-404L123-485L55-485L55 0L185 0L185-296Z"/><path id="s20:catamaran-bold:48" d="M543-244Q543-167 511-109Q479-51 420.50-19.50Q362 12 284 12Q206 12 147.50-19Q89-50 57-107.50Q25-165 25-242Q25-319 57-377Q89-435 147.50-466.50Q206-498 284-498Q362-498 420.50-467Q479-436 511-378.50Q543-321 543-244M284-99Q338-99 373.50-140Q409-181 409-244Q409-307 374-347Q339-387 284-387Q230-387 194.50-346Q159-305 159-242Q159-179 194-139Q229-99 284-99Z"/><path id="s20:catamaran-bold:49" d="M281-498Q394-498 459.50-429.50Q525-361 525-244Q525-168 495.50-110Q466-52 410-20Q354 12 277 12Q236 12 190-11L190 209L61 219L61-485L127-485L153-452Q212-498 281-498M276-99Q329-99 360-139.50Q391-180 391-244Q391-308 360.50-347.50Q330-387 276-387Q234-387 190-358L190-127Q231-99 276-99Z"/><path id="s20:catamaran-bold:34" d="M102-346Q130-359 170-368.50Q210-378 243-378Q279-378 299.50-357.50Q320-337 321-300L226-300Q142-300 92-259.50Q42-219 42-145Q42-73 86-30.50Q130 12 217 12Q284 12 345-52L367 0L452 0L452-319Q452-370 423.50-411Q395-452 347-475Q299-498 241-498Q207-498 150-484.50Q93-471 67-454L102-346M153-145Q153-173 172.50-193Q192-213 224-213L322-213L322-139Q273-91 215-91Q188-91 170.50-107Q153-123 153-145Z"/><path id="s20:catamaran-bold:47" d="M185-336Q221-362 251-377.50Q281-393 315-393Q348-393 366.50-368Q385-343 385-298L385 0L515 0L515-304Q515-397 478-449Q441-501 349-501Q309-501 258-483Q207-465 162-433L140-485L55-485L55 0L185 0L185-336Z"/><path id="s20:catamaran-bold:45" d="M65-695L65 0L194 0L194-706L65-695Z"/><path id="s20:catamaran-bold:40" d="M507 23Q507 123 437 176.50Q367 230 249 230Q212 230 149 214.50Q86 199 51 175L90 83Q135 105 172 115Q209 125 246 126Q305 125 340.50 97Q376 69 376 22L376-19Q326 12 269 12Q156 12 90.50-56.50Q25-125 25-242Q25-318 54.50-376Q84-434 140-466Q196-498 273-498Q306-498 343.50-482Q381-466 410-441L439-485L507-485L507 23M274-99Q300-99 324.50-109Q349-119 376-139L376-346Q350-368 326-377.50Q302-387 274-387Q221-387 190-346.50Q159-306 159-242Q159-178 189.50-138.50Q220-99 274-99Z"/><path id="s20:catamaran-bold:52" d="M27-38Q58-14 108-1Q158 12 195 12Q293 12 345-27.50Q397-67 397-140Q397-198 350-238Q303-278 232-304Q195-317 175.50-327.50Q156-338 156-351Q156-368 172.50-380.50Q189-393 214-393Q246-393 275.50-385Q305-377 343-360L382-447Q348-470 299-484Q250-498 216-498Q129-498 78-458.50Q27-419 27-350Q27-295 73-259Q119-223 188-200Q273-174 273-135Q273-115 248-104Q223-93 193-93Q140-93 66-126L27-38Z"/><path id="s20:catamaran-bold:46" d="M648-501Q731-501 767.50-456.50Q804-412 804-324L804 0L674 0L674-298Q674-345 659.50-369Q645-393 614-393Q584-393 559-379Q534-365 495-337L495-324L495 0L365 0L365-298Q365-345 350.50-369Q336-393 305-393Q275-393 250-379Q225-365 185-336L185 0L55 0L55-485L140-485L162-433Q207-465 255-483Q303-501 339-501Q438-501 473-435Q518-466 565-483.50Q612-501 648-501Z"/><path id="s20:catamaran-bold:35" d="M285-498Q398-498 463.50-429.50Q529-361 529-244Q529-168 499.50-110Q470-52 414-20Q358 12 281 12Q251 12 218-1Q185-14 157-34L131 0L65 0L65-695L194-706L194-476Q238-498 285-498M280-99Q333-99 364-139.50Q395-180 395-244Q395-308 364.50-347.50Q334-387 280-387Q238-387 194-358L194-127Q235-99 280-99Z"/><path id="s20:catamaran-bold:39" d="M87 0L217 0L217-384L350-384L309-484L217-484L217-503Q217-543 233-566.50Q249-590 282-590Q303-590 336-577L373-671Q357-684 328-693Q299-702 276-702Q187-702 137-654Q87-606 87-521L87-484L12-484L12-384L87-384L87 0Z"/><path id="s20:catamaran-bold:53" d="M204-622L75-599L75-484L10-484L10-384L75-384L75-155Q75-72 126-26Q177 20 268 20Q292 20 321.50 11Q351 2 366-10L328-104Q301-91 275-91Q241-91 222.50-115Q204-139 204-178L204-384L332-384L292-484L204-484L204-622Z"/><path id="s20:catamaran-bold:42" d="M119-554Q150-554 171.50-575Q193-596 193-627Q193-658 171.50-679Q150-700 119-700Q89-700 68-679Q47-658 47-627Q47-596 68-575Q89-554 119-554M55-485L55 0L185 0L185-485L55-485Z"/><path id="s20:catamaran-bold:58" d="M154 23Q143 53 110.50 73Q78 93 27 115L73 222Q140 206 197 163.50Q254 121 276 64L493-485L356-485L250-191L138-503L10-465L177-34L154 23Z"/><path id="s20:catamaran-bold:254" d="M104 0Q135 0 155.50-21Q176-42 176-73Q176-104 155.50-125Q135-146 104-146Q73-146 51.50-125Q30-104 30-73Q30-42 51.50-21Q73 0 104 0Z"/><path id="s20:catamaran-bold:57" d="M341 0L484 0L335-228L500-485L358-485L258-330L148-501L27-464L175-247L10 0L154 0L251-146L341 0Z"/><path id="s20:catamaran-bold:36" d="M451-447Q417-470 367-484Q317-498 283-498Q205-498 146.50-466.50Q88-435 56.50-377Q25-319 25-242Q25-165 56.50-107.50Q88-50 146.50-19Q205 12 283 12Q320 12 370-1Q420-14 451-38L414-132Q376-115 346-107Q316-99 284-99Q229-99 194-139Q159-179 159-242Q159-305 194.50-346Q230-387 284-387Q316-387 346-379Q376-371 414-354L451-447Z"/><path id="s20:catamaran-bold:13" d="M214-578L490-578L470-680L85-680L85 0L214 0L214-288L446-288L427-389L214-389L214-578Z"/><path id="s20:catamaran-bold:253" d="M105-146Q76-146 54.50-123Q33-100 33-72Q33-46 51.50-23Q70 0 88 0Q82 29 67 47Q52 65 20 92L49 154Q105 122 143 61Q181 0 181-56Q181-95 158.50-120.50Q136-146 105-146Z"/></defs><g id="line-0"><use x="0" y="830" xlink:href="#s20:catamaran-bold:27" /><use x="591" y="830" xlink:href="#s20:catamaran-bold:41" /><use x="1166" y="830" xlink:href="#s20:catamaran-bold:38" /><use x="1681" y="830" xlink:href="#s20:catamaran-bold:2" /><use x="1906" y="830" xlink:href="#s20:catamaran-bold:12" /><use x="2487" y="830" xlink:href="#s20:catamaran-bold:54" /><use x="3053" y="830" xlink:href="#s20:catamaran-bold:51" /><use x="3420" y="830" xlink:href="#s20:catamaran-bold:48" /><use x="3988" y="830" xlink:href="#s20:catamaran-bold:49" /><use x="4538" y="830" xlink:href="#s20:catamaran-bold:38" /><use x="5053" y="830" xlink:href="#s20:catamaran-bold:34" /><use x="5556" y="830" xlink:href="#s20:catamaran-bold:47" /><use x="6122" y="830" xlink:href="#s20:catamaran-bold:2" /><use x="6347" y="830" xlink:href="#s20:catamaran-bold:45" /><use x="6606" y="830" xlink:href="#s20:catamaran-bold:34" /><use x="7109" y="830" xlink:href="#s20:catamaran-bold:47" /><use x="7675" y="830" xlink:href="#s20:catamaran-bold:40" /><use x="8243" y="830" xlink:href="#s20:catamaran-bold:54" /><use x="8809" y="830" xlink:href="#s20:catamaran-bold:34" /><use x="9312" y="830" xlink:href="#s20:catamaran-bold:40" /><use x="9880" y="830" xlink:href="#s20:catamaran-bold:38" /><use x="10395" y="830" xlink:href="#s20:catamaran-bold:52" /><use x="10817" y="830" xlink:href="#s20:catamaran-bold:2" /><use x="11042" y="830" xlink:href="#s20:catamaran-bold:34" /><use x="11545" y="830" xlink:href="#s20:catamaran-bold:51" /><use x="11912" y="830" xlink:href="#s20:catamaran-bold:38" /><use x="12427" y="830" xlink:href="#s20:catamaran-bold:2" /><use x="12652" y="830" xlink:href="#s20:catamaran-bold:46" /><use x="13507" y="830" xlink:href="#s20:catamaran-bold:38" /><use x="14022" y="830" xlink:href="#s20:catamaran-bold:46" /><use x="14877" y="830" xlink:href="#s20:catamaran-bold:35" /><use x="15431" y="830" xlink:href="#s20:catamaran-bold:38" /><use x="15946" y="830" xlink:href="#s20:catamaran-bold:51" /><use x="16313" y="830" xlink:href="#s20:catamaran-bold:52" /><use x="16735" y="830" xlink:href="#s20:catamaran-bold:2" /><use x="16960" y="830" xlink:href="#s20:catamaran-bold:48" /><use x="17528" y="830" xlink:href="#s20:catamaran-bold:39" /><use x="17901" y="830" xlink:href="#s20:catamaran-bold:2" /><use x="18126" y="830" xlink:href="#s20:catamaran-bold:53" /><use x="18507" y="830" xlink:href="#s20:catamaran-bold:41" /><use x="19082" y="830" xlink:href="#s20:catamaran-bold:38" /><use x="19597" y="830" xlink:href="#s20:catamaran-bold:2" /><use x="19822" y="830" xlink:href="#s20:catamaran-bold:52" /><use x="20244" y="830" xlink:href="#s20:catamaran-bold:34" /><use x="20747" y="830" xlink:href="#s20:catamaran-bold:46" /><use x="21602" y="830" xlink:href="#s20:catamaran-bold:38" /><use x="22117" y="830" xlink:href="#s20:catamaran-bold:2" /><use x="22342" y="830" xlink:href="#s20:catamaran-bold:39" /><use x="22715" y="830" xlink:href="#s20:catamaran-bold:34" /><use x="23218" y="830" xlink:href="#s20:catamaran-bold:46" /><use x="24073" y="830" xlink:href="#s20:catamaran-bold:42" /><use x="24313" y="830" xlink:href="#s20:catamaran-bold:45" /><use x="24572" y="830" xlink:href="#s20:catamaran-bold:58" /><use x="25075" y="830" xlink:href="#s20:catamaran-bold:254" /></g><g id="line-1"><use x="5145.5" y="2030" xlink:href="#s20:catamaran-bold:27" /><use x="5736.5" y="2030" xlink:href="#s20:catamaran-bold:41" /><use x="6311.5" y="2030" xlink:href="#s20:catamaran-bold:38" /><use x="6826.5" y="2030" xlink:href="#s20:catamaran-bold:42" /><use x="7066.5" y="2030" xlink:href="#s20:catamaran-bold:51" /><use x="7433.5" y="2030" xlink:href="#s20:catamaran-bold:2" /><use x="7658.5" y="2030" xlink:href="#s20:catamaran-bold:52" /><use x="8080.5" y="2030" xlink:href="#s20:catamaran-bold:38" /><use x="8595.5" y="2030" xlink:href="#s20:catamaran-bold:49" /><use x="9145.5" y="2030" xlink:href="#s20:catamaran-bold:34" /><use x="9648.5" y="2030" xlink:href="#s20:catamaran-bold:51" /><use x="10015.5" y="2030" xlink:href="#s20:catamaran-bold:34" /><use x="10518.5" y="2030" xlink:href="#s20:catamaran-bold:53" /><use x="10899.5" y="2030" xlink:href="#s20:catamaran-bold:38" /><use x="11414.5" y="2030" xlink:href="#s20:catamaran-bold:2" /><use x="11639.5" y="2030" xlink:href="#s20:catamaran-bold:38" /><use x="12154.5" y="2030" xlink:href="#s20:catamaran-bold:57" /><use x="12664.5" y="2030" xlink:href="#s20:catamaran-bold:42" /><use x="12904.5" y="2030" xlink:href="#s20:catamaran-bold:52" /><use x="13326.5" y="2030" xlink:href="#s20:catamaran-bold:53" /><use x="13707.5" y="2030" xlink:href="#s20:catamaran-bold:38" /><use x="14222.5" y="2030" xlink:href="#s20:catamaran-bold:47" /><use x="14788.5" y="2030" xlink:href="#s20:catamaran-bold:36" /><use x="15260.5" y="2030" xlink:href="#s20:catamaran-bold:38" /><use x="15775.5" y="2030" xlink:href="#s20:catamaran-bold:2" /><use x="16000.5" y="2030" xlink:href="#s20:catamaran-bold:42" /><use x="16240.5" y="2030" xlink:href="#s20:catamaran-bold:52" /><use x="16662.5" y="2030" xlink:href="#s20:catamaran-bold:2" /><use x="16887.5" y="2030" xlink:href="#s20:catamaran-bold:34" /><use x="17390.5" y="2030" xlink:href="#s20:catamaran-bold:2" /><use x="17615.5" y="2030" xlink:href="#s20:catamaran-bold:46" /><use x="18470.5" y="2030" xlink:href="#s20:catamaran-bold:58" /><use x="18973.5" y="2030" xlink:href="#s20:catamaran-bold:53" /><use x="19354.5" y="2030" xlink:href="#s20:catamaran-bold:41" /><use x="19929.5" y="2030" xlink:href="#s20:catamaran-bold:254" /></g><g id="line-2"><use x="6339.5" y="3230" xlink:href="#s20:catamaran-bold:13" /><use x="6849.5" y="3230" xlink:href="#s20:catamaran-bold:48" /><use x="7417.5" y="3230" xlink:href="#s20:catamaran-bold:51" /><use x="7784.5" y="3230" xlink:href="#s20:catamaran-bold:2" /><use x="8009.5" y="3230" xlink:href="#s20:catamaran-bold:52" /><use x="8431.5" y="3230" xlink:href="#s20:catamaran-bold:36" /><use x="8903.5" y="3230" xlink:href="#s20:catamaran-bold:42" /><use x="9143.5" y="3230" xlink:href="#s20:catamaran-bold:38" /><use x="9658.5" y="3230" xlink:href="#s20:catamaran-bold:47" /><use x="10224.5" y="3230" xlink:href="#s20:catamaran-bold:36" /><use x="10696.5" y="3230" xlink:href="#s20:catamaran-bold:38" /><use x="11211.5" y="3230" xlink:href="#s20:catamaran-bold:253" /><use x="11422.5" y="3230" xlink:href="#s20:catamaran-bold:2" /><use x="11647.5" y="3230" xlink:href="#s20:catamaran-bold:46" /><use x="12502.5" y="3230" xlink:href="#s20:catamaran-bold:54" /><use x="13068.5" y="3230" xlink:href="#s20:catamaran-bold:52" /><use x="13490.5" y="3230" xlink:href="#s20:catamaran-bold:42" /><use x="13730.5" y="3230" xlink:href="#s20:catamaran-bold:36" /><use x="14202.5" y="3230" xlink:href="#s20:catamaran-bold:253" /><use x="14413.5" y="3230" xlink:href="#s20:catamaran-bold:2" /><use x="14638.5" y="3230" xlink:href="#s20:catamaran-bold:52" /><use x="15060.5" y="3230" xlink:href="#s20:catamaran-bold:49" /><use x="15610.5" y="3230" xlink:href="#s20:catamaran-bold:48" /><use x="16178.5" y="3230" xlink:href="#s20:catamaran-bold:51" /><use x="16545.5" y="3230" xlink:href="#s20:catamaran-bold:53" /><use x="16926.5" y="3230" xlink:href="#s20:catamaran-bold:253" /><use x="17137.5" y="3230" xlink:href="#s20:catamaran-bold:2" /><use x="17362.5" y="3230" xlink:href="#s20:catamaran-bold:38" /><use x="17877.5" y="3230" xlink:href="#s20:catamaran-bold:53" /><use x="18258.5" y="3230" xlink:href="#s20:catamaran-bold:36" /><use x="18730.5" y="3230" xlink:href="#s20:catamaran-bold:253" /></g></svg>