<svg xmlns="http://www.w3.org/2000/svg" xmlns:xlink="http://www.w3.org/1999/xlink" width="574" height="90" viewBox="0 0 23911 3770"><defs><path id="s25:catamaran-regular:27" d="M10-618L238-618L238 0L318 0L318-618L553-618L544-680L10-680L10-618Z"/><path id="s25:catamaran-regular:41" d="M328-500Q405-500 442.50-453.50Q480-407 480-329L480-1L401-1L401-318Q401-372 381-402Q361-432 314-432Q278-432 232.50-407Q187-382 152-344L152 0L73 0L73-696L152-706L152-423Q187-457 235.50-478.50Q284-500 328-500Z"/><path id="s25:catamaran-regular:38" d="M466-230Q466-350 415.50-424Q365-498 259-498Q189-498 137.50-465.50Q86-433 59.50-375.50Q33-318 33-244Q33-127 98-57Q163 13 287 13Q337 13 378-0.50Q419-14 460-37L435-95Q390-73 357.50-63Q325-53 286-53Q200-53 158.50-100.50Q117-148 114-230L466-230M116-284Q123-352 158.50-391.50Q194-431 256-431Q371-431 388-284L116-284Z"/><path id="s25:catamaran-regular:2" d=""/><path id="s25:catamaran-regular:12" d="M172-63L172-318L416-318L407-377L172-377L172-621L473-621L464-680L93-680L93 0L503 0L493-63L172-63Z"/><path id="s25:catamaran-regular:54" d="M387-142Q352-104 306.50-79Q261-54 225-54Q178-54 158-84Q138-114 138-168L138-485L59-485L59-157Q59-79 96.50-32.50Q134 14 211 14Q257 14 308-10Q359-34 394-70L407 0L466 0L466-486L387-486L387-142Z"/><path id="s25:catamaran-regular:51" d="M142-334Q176-369 225-395.50Q274-422 314-422L295-485Q260-485 214-460Q168-435 135-407L110-485L63-485L63 0L142 0L142-334Z"/><path id="s25:catamaran-regular:48" d="M504-241Q504-167 474.50-109.50Q445-52 390-19.50Q335 13 262 13Q192 13 140-19.50Q88-52 60.50-110.50Q33-169 33-244Q34-318 62.50-375.50Q91-433 145-465.50Q199-498 271-498Q380-498 442-428.50Q504-359 504-241M266-54Q338-54 380-106.50Q422-159 423-240Q423-326 383-378.50Q343-431 270-431Q198-431 156-378.50Q114-326 113-245Q113-160 153-107Q193-54 266-54Z"/><path id="s25:catamaran-regular:49" d="M261-498Q369-498 430.50-427.50Q492-357 492-241Q492-167 463.50-109.50Q435-52 382.50-19.50Q330 13 259 13Q206 13 148-24L148 208L69 219L69-485L116-485L133-451Q163-473 197-485.50Q231-498 261-498M261-54Q333-54 372-106Q411-158 412-240Q412-326 373.50-378.50Q335-431 262-431Q226-431 199-420Q172-409 148-386L148-97Q172-76 199-65Q226-54 261-54Z"/><path id="s25:catamaran-regular:34" d="M104-396Q140-412 170.50-420.50Q201-429 244-429Q299-429 324.50-398Q350-367 350-313L350-286L225-286Q146-286 98-247Q50-208 50-138Q50-71 92.50-29Q135 13 216 13Q254 13 294-5.50Q334-24 361-49L371 0L430 0L430-335Q430-382 406-419Q382-456 339-477Q296-498 241-498Q208-498 157.50-486Q107-474 81-456L104-396M123-138Q123-178 149.50-205.50Q176-233 223-233L351-233L351-123Q324-91 288.50-71Q253-51 214-51Q169-51 146-77Q123-103 123-138Z"/><path id="s25:catamaran-regular:47" d="M142-344Q177-382 222.50-407Q268-432 304-432Q351-432 371-402Q391-372 391-318L391-1L470-1L470-329Q470-407 432.50-453.50Q395-500 318-500Q272-500 221-476Q170-452 135-416L122-485L63-485L63 0L142 0L142-344Z"/><path id="s25:catamaran-regular:45" d="M73-696L73 0L152 0L152-706L73-696Z"/><path id="s25:catamaran-regular:40" d="M458 53Q458 104 432 144Q406 184 356 207Q306 230 239 230Q205 230 152.50 217.50Q100 205 70 186L94 128Q133 147 163.50 156Q194 165 236 165Q299 165 338.50 136Q378 107 378 52L378-25Q351-7 320.50 3Q290 13 264 13Q156 13 94.50-57.50Q33-128 33-245Q33-319 61.50-376.50Q90-434 142.50-466Q195-498 266-498Q296-498 330-485Q364-472 393-450L410-485L458-485L458 53M263-54Q299-54 326.50-65.50Q354-77 378-101L378-388Q330-431 264-431Q192-431 153-379.50Q114-328 113-246Q113-159 151.50-106.50Q190-54 263-54Z"/><path id="s25:catamaran-regular:52" d="M38-28Q65-9 112 2Q159 13 193 13Q287 13 337.50-24Q388-61 388-128Q388-222 225-282Q171-300 142-319Q113-338 112-364Q112-395 140.50-414.50Q169-434 214-434Q251-434 280-425Q309-416 342-401L367-455Q341-474 295.50-486Q250-498 216-498Q132-498 83.50-461.50Q35-425 35-361Q35-308 79-274Q123-240 193-217Q313-177 313-123Q313-89 281-70Q249-51 194-51Q131-51 63-85L38-28Z"/><path id="s25:catamaran-regular:46" d="M614-500Q688-500 724-453.50Q760-407 760-329L760-1L681-1L681-318Q681-372 663-402Q645-432 601-432Q570-432 529.50-409.50Q489-387 454-352L455-329L455-1L376-1L376-318Q376-372 358-402Q340-432 296-432Q264-432 220.50-407Q177-382 142-344L142 0L63 0L63-485L122-485L135-416Q170-452 218.50-476Q267-500 310-500Q359-500 391.50-478Q424-456 440-416Q475-452 523-476Q571-500 614-500Z"/><path id="s25:catamaran-regular:35" d="M265-498Q373-498 434.50-427.50Q496-357 496-241Q496-167 467.50-109.50Q439-52 386.50-19.50Q334 13 263 13Q233 13 199.50 0.50Q166-12 137-35L120 0L73 0L73-696L152-706L152-461Q179-479 209-488.50Q239-498 265-498M265-54Q337-54 376-106Q415-158 416-240Q416-326 377.50-378.50Q339-431 266-431Q230-431 203-420Q176-409 152-386L152-97Q176-76 203-65Q230-54 265-54Z"/><path id="s25:catamaran-regular:39" d="M90 0L169 0L169-417L284-417L258-477L169-477L169-548Q169-631 237-631Q247-631 260-628Q273-625 281-621L299-685Q286-692 266-697Q246-702 226-702Q163-702 126.50-661.50Q90-621 90-553L90-477L16-477L17-417L90-417L90 0Z"/><path id="s25:catamaran-regular:53" d="M166-623L87-601L87-477L16-477L17-417L87-417L87-126Q87-58 123.50-21.50Q160 15 223 15Q261 15 297-2L279-64Q254-54 235-54Q200-54 183-76Q166-98 166-137L166-417L280-417L254-477L166-477L166-623Z"/><path id="s25:catamaran-regular:42" d="M102-582Q124-582 140-597.50Q156-613 156-635Q156-657 140-673Q124-689 102-689Q79-689 64-673.50Q49-658 49-635Q49-612 64-597Q79-582 102-582M63-485L63 0L143 0L143-485L63-485Z"/><path id="s25:catamaran-regular:58" d="M160 80Q149 110 126.50 125.50Q104 141 57 163L81 220Q134 209 174.50 177Q215 145 232 100L446-485L366-485L227-110L80-500L10-470L190-3L160 80Z"/><path id="s25:catamaran-regular:254" d="M85 0Q107 0 122.50-16Q138-32 138-54Q138-76 122.50-91.50Q107-107 85-107Q62-107 46-91.50Q30-76 30-54Q30-31 46-15.50Q62 0 85 0Z"/><path id="s25:catamaran-regular:57" d="M338 0L425 0L273-233L440-485L353-485L229-293L98-499L27-469L173-246L10 0L99 0L218-187L338 0Z"/><path id="s25:catamaran-regular:36" d="M401-88Q366-70 338-62Q310-54 266-54Q193-54 153-107Q113-160 113-245Q114-326 156-378.50Q198-431 270-431Q312-431 338.50-423Q365-415 405-398L429-454Q400-473 352.50-485.50Q305-498 272-498Q200-498 146-465.50Q92-433 62.50-375.50Q33-318 33-244Q33-169 61-110.50Q89-52 142-19.50Q195 13 267 13Q300 13 348 0.50Q396-12 426-31L401-88Z"/><path id="s25:catamaran-regular:13" d="M172-621L461-621L451-680L93-680L93 0L172 0L172-314L406-314L397-373L172-373L172-621Z"/><path id="s25:catamaran-regular:253" d="M88-107Q66-107 50-91Q34-75 34-54Q34-34 48-18Q62-2 80-1Q78 25 63 44Q48 63 20 83L41 120Q84 98 113.50 50.50Q143 3 143-45Q143-73 127.50-90Q112-107 88-107Z"/></defs><g id="line-0"><use x="0" y="830" xlink:href="#s25:catamaran-regular:27"/><use x="563" y="830" xlink:href="#s25:catamaran-regular:41"/><use x="1102" y="830" xlink:href="#s25:catamaran-regular:38"/><use x="1601" y="830" xlink:href="#s25:catamaran-regular:2"/><use x="1834" y="830" xlink:href="#s25:catamaran-regular:12"/><use x="2357" y="830" xlink:href="#s25:catamaran-regular:54"/><use x="2886" y="830" xlink:href="#s25:catamaran-regular:51"/><use x="3210" y="830" xlink:href="#s25:catamaran-regular:48"/><use x="3746" y="830" xlink:href="#s25:catamaran-regular:49"/><use x="4271" y="830" xlink:href="#s25:catamaran-regular:38"/><use x="4770" y="830" xlink:href="#s25:catamaran-regular:34"/><use x="5258" y="830" xlink:href="#s25:catamaran-regular:47"/><use x="5787" y="830" xlink:href="#s25:catamaran-regular:2"/><use x="6020" y="830" xlink:href="#s25:catamaran-regular:45"/><use x="6244" y="830" xlink:href="#s25:catamaran-regular:34"/><use x="6732" y="830" xlink:href="#s25:catamaran-regular:47"/><use x="7261" y="830" xlink:href="#s25:catamaran-regular:40"/><use x="7787" y="830" xlink:href="#s25:catamaran-regular:54"/><use x="8316" y="830" xlink:href="#s25:catamaran-regular:34"/><use x="8804" y="830" xlink:href="#s25:catamaran-regular:40"/><use x="9330" y="830" xlink:href="#s25:catamaran-regular:38"/><use x="9829" y="830" xlink:href="#s25:catamaran-regular:52"/><use x="10249" y="830" xlink:href="#s25:catamaran-regular:2"/><use x="10482" y="830" xlink:href="#s25:catamaran-regular:34"/><use x="10970" y="830" xlink:href="#s25:catamaran-regular:51"/><use x="11294" y="830" xlink:href="#s25:catamaran-regular:38"/><use x="11793" y="830" xlink:href="#s25:catamaran-regular:2"/><use x="12026" y="830" xlink:href="#s25:catamaran-regular:46"/><use x="12844" y="830" xlink:href="#s25:catamaran-regular:38"/><use x="13343" y="830" xlink:href="#s25:catamaran-regular:46"/><use x="14161" y="830" xlink:href="#s25:catamaran-regular:35"/><use x="14690" y="830" xlink:href="#s25:catamaran-regular:38"/><use x="15189" y="830" xlink:href="#s25:catamaran-regular:51"/><use x="15513" y="830" xlink:href="#s25:catamaran-regular:52"/><use x="15933" y="830" xlink:href="#s25:catamaran-regular:2"/><use x="16166" y="830" xlink:href="#s25:catamaran-regular:48"/><use x="16702" y="830" xlink:href="#s25:catamaran-regular:39"/><use x="17001" y="830" xlink:href="#s25:catamaran-regular:2"/><use x="17234" y="830" xlink:href="#s25:catamaran-regular:53"/><use x="17554" y="830" xlink:href="#s25:catamaran-regular:41"/><use x="18093" y="830" xlink:href="#s25:catamaran-regular:38"/><use x="18592" y="830" xlink:href="#s25:catamaran-regular:2"/><use x="18825" y="830" xlink:href="#s25:catamaran-regular:52"/><use x="19245" y="830" xlink:href="#s25:catamaran-regular:34"/><use x="19733" y="830" xlink:href="#s25:catamaran-regular:46"/><use x="20551" y="830" xlink:href="#s25:catamaran-regular:38"/><use x="21050" y="830" xlink:href="#s25:catamaran-regular:2"/><use x="21283" y="830" xlink:href="#s25:catamaran-regular:39"/><use x="21582" y="830" xlink:href="#s25:catamaran-regular:34"/><use x="22070" y="830" xlink:href="#s25:catamaran-regular:46"/><use x="22888" y="830" xlink:href="#s25:catamaran-regular:42"/><use x="23093" y="830" xlink:href="#s25:catamaran-regular:45"/><use x="23317" y="830" xlink:href="#s25:catamaran-regular:58"/><use x="23773" y="830" xlink:href="#s25:catamaran-regular:254"/></g><g id="line-1"><use x="4895" y="2030" xlink:href="#s25:catamaran-regular:27"/><use x="5458" y="2030" xlink:href="#s25:catamaran-regular:41"/><use x="5997" y="2030" xlink:href="#s25:catamaran-regular:38"/><use x="6496" y="2030" xlink:href="#s25:catamaran-regular:42"/><use x="6701" y="2030" xlink:href="#s25:catamaran-regular:51"/><use x="7025" y="2030" xlink:href="#s25:catamaran-regular:2"/><use x="7258" y="2030" xlink:href="#s25:catamaran-regular:52"/><use x="7678" y="2030" xlink:href="#s25:catamaran-regular:38"/><use x="8177" y="2030" xlink:href="#s25:catamaran-regular:49"/><use x="8702" y="2030" xlink:href="#s25:catamaran-regular:34"/><use x="9190" y="2030" xlink:href="#s25:catamaran-regular:51"/><use x="9514" y="2030" xlink:href="#s25:catamaran-regular:34"/><use x="10002" y="2030" xlink:href="#s25:catamaran-regular:53"/><use x="10322" y="2030" xlink:href="#s25:catamaran-regular:38"/><use x="10821" y="2030" xlink:href="#s25:catamaran-regular:2"/><use x="11054" y="2030" xlink:href="#s25:catamaran-regular:38"/><use x="11553" y="2030" xlink:href="#s25:catamaran-regular:57"/><use x="12003" y="2030" xlink:href="#s25:catamaran-regular:42"/><use x="12208" y="2030" xlink:href="#s25:catamaran-regular:52"/><use x="12628" y="2030" xlink:href="#s25:catamaran-regular:53"/><use x="12948" y="2030" xlink:href="#s25:catamaran-regular:38"/><use x="13447" y="2030" xlink:href="#s25:catamaran-regular:47"/><use x="13976" y="2030" xlink:href="#s25:catamaran-regular:36"/><use x="14434" y="2030" xlink:href="#s25:catamaran-regular:38"/><use x="14933" y="2030" xlink:href="#s25:catamaran-regular:2"/><use x="15166" y="2030" xlink:href="#s25:catamaran-regular:42"/><use x="15371" y="2030" xlink:href="#s25:catamaran-regular:52"/><use x="15791" y="2030" xlink:href="#s25:catamaran-regular:2"/><use x="16024" y="2030" xlink:href="#s25:catamaran-regular:34"/><use x="16512" y="2030" xlink:href="#s25:catamaran-regular:2"/><use x="16745" y="2030" xlink:href="#s25:catamaran-regular:46"/><use x="17563" y="2030" xlink:href="#s25:catamaran-regular:58"/><use x="18019" y="2030" xlink:href="#s25:catamaran-regular:53"/><use x="18339" y="2030" xlink:href="#s25:catamaran-regular:41"/><use x="18878" y="2030" xlink:href="#s25:catamaran-regular:254"/></g><g id="line-2"><use x="6038" y="3230" xlink:href="#s25:catamaran-regular:13"/><use x="6519" y="3230" xlink:href="#s25:catamaran-regular:48"/><use x="7055" y="3230" xlink:href="#s25:catamaran-regular:51"/><use x="7379" y="3230" xlink:href="#s25:catamaran-regular:2"/><use x="7612" y="3230" xlink:href="#s25:catamaran-regular:52"/><use x="8032" y="3230" xlink:href="#s25:catamaran-regular:36"/><use x="8490" y="3230" xlink:href="#s25:catamaran-regular:42"/><use x="8695" y="3230" xlink:href="#s25:catamaran-regular:38"/><use x="9194" y="3230" xlink:href="#s25:catamaran-regular:47"/><use x="9723" y="3230" xlink:href="#s25:catamaran-regular:36"/><use x="10181" y="3230" xlink:href="#s25:catamaran-regular:38"/><use x="10680" y="3230" xlink:href="#s25:catamaran-regular:253"/><use x="10853" y="3230" xlink:href="#s25:catamaran-regular:2"/><use x="11086" y="3230" xlink:href="#s25:catamaran-regular:46"/><use x="11904" y="3230" xlink:href="#s25:catamaran-regular:54"/><use x="12433" y="3230" xlink:href="#s25:catamaran-regular:52"/><use x="12853" y="3230" xlink:href="#s25:catamaran-regular:42"/><use x="13058" y="3230" xlink:href="#s25:catamaran-regular:36"/><use x="13516" y="3230" xlink:href="#s25:catamaran-regular:253"/><use x="13689" y="3230" xlink:href="#s25:catamaran-regular:2"/><use x="13922" y="3230" xlink:href="#s25:catamaran-regular:52"/><use x="14342" y="3230" xlink:href="#s25:catamaran-regular:49"/><use x="14867" y="3230" xlink:href="#s25:catamaran-regular:48"/><use x="15403" y="3230" xlink:href="#s25:catamaran-regular:51"/><use x="15727" y="3230" xlink:href="#s25:catamaran-regular:53"/><use x="16047" y="3230" xlink:href="#s25:catamaran-regular:253"/><use x="16220" y="3230" xlink:href="#s25:catamaran-regular:2"/><use x="16453" y="3230" xlink:href="#s25:catamaran-regular:38"/><use x="16952" y="3230" xlink:href="#s25:catamaran-regular:53"/><use x="17272" y="3230" xlink:href="#s25:catamaran-regular:36"/><use x="17730" y="3230" xlink:href="#s25:catamaran-regular:253"/></g></svg>