<svg xmlns="http://www.w3.org/2000/svg" xmlns:xlink="http://www.w3.org/1999/xlink" width="624" height="90" viewBox="0 0 25993 3760" ><defs><path id="s21:catamaran-extrabold:27" d="M10-557L213-557L213 0L370 0L370-557L595-557L576-680L10-680L10-557Z"/><path id="s21:catamaran-extrabold:41" d="M378-501Q549-501 549-309L549 0L393 0L393-297Q393-332 377.50-352.50Q362-373 332-373Q290-373 218-331L218 0L62 0L62-695L218-706L218-454Q257-475 298.50-488Q340-501 378-501Z"/><path id="s21:catamaran-extrabold:38" d="M502-247Q502-318 476.50-375Q451-432 400-466Q349-500 275-500Q201-500 143.50-468.50Q86-437 54-378.50Q22-320 22-242Q22-123 98.50-56Q175 11 308 11Q367 11 416.50-4Q466-19 500-44L456-153Q388-115 319-115Q213-115 191-200L502-200L502-247M189-289Q193-326 215.50-348.50Q238-371 271-371Q306-371 326.50-348.50Q347-326 353-289L189-289Z"/><path id="s21:catamaran-extrabold:2" d=""/><path id="s21:catamaran-extrabold:12" d="M238-122L238-281L473-281L454-404L238-404L238-557L530-557L511-680L82-680L82 0L570 0L551-122L238-122Z"/><path id="s21:catamaran-extrabold:54" d="M379-154Q311-111 266-111Q235-111 220-131.50Q205-152 205-188L205-484L48-484L48-176Q48-87 88.50-35Q129 17 220 17Q266 17 316.50-2Q367-21 412-50L449 1L536 1L536-484L379-484L379-154Z"/><path id="s21:catamaran-extrabold:51" d="M209-290Q245-321 290.50-340.50Q336-360 371-360L340-485Q303-485 257-463.50Q211-442 176-415L132-484L52-484L52 0L209 0L209-290Z"/><path id="s21:catamaran-extrabold:48" d="M557-242Q557-164 522.50-107Q488-50 427-19.50Q366 11 288 11Q209 11 149-18.50Q89-48 55.50-105.50Q22-163 22-244Q22-322 56.50-380Q91-438 151.50-469Q212-500 290-500Q369-500 429.50-469.50Q490-439 523.50-381Q557-323 557-242M289-118Q337-118 366-152Q395-186 395-242Q395-298 366.50-334Q338-370 291-370Q242-370 213-335.50Q184-301 184-244Q184-187 212.50-152.50Q241-118 289-118Z"/><path id="s21:catamaran-extrabold:49" d="M296-500Q409-500 475.50-434Q542-368 542-247Q542-126 474.50-57.50Q407 11 290 11Q254 11 214-5L214 209L58 219L58-484L137-484L164-454Q227-500 296-500M283-114Q327-114 354-150.50Q381-187 381-246Q381-306 354-340Q327-374 279-374Q248-374 214-351L214-135Q249-114 283-114Z"/><path id="s21:catamaran-extrabold:34" d="M99-335Q127-348 164-357Q201-366 230-366Q261-366 279.50-348.50Q298-331 300-299L224-299Q137-299 87-262Q37-225 37-151Q37-76 82-32.50Q127 11 215 11Q280 11 334-51L371 0L458 0L458-309Q458-365 432.50-408.50Q407-452 360-476Q313-500 252-500Q206-500 148-486.50Q90-473 57-455L99-335M169-152Q169-175 184.50-190Q200-205 225-205L301-205L301-146Q260-108 216-108Q195-108 182-121Q169-134 169-152Z"/><path id="s21:catamaran-extrabold:47" d="M209-331Q281-373 323-373Q353-373 368-352.50Q383-332 383-297L383 0L540 0L540-309Q540-398 499.50-449.50Q459-501 369-501Q323-501 271.50-482.50Q220-464 176-434L149-485L52-485L52 0L209 0L209-331Z"/><path id="s21:catamaran-extrabold:45" d="M62-695L62 0L218 0L218-706L62-695Z"/><path id="s21:catamaran-extrabold:40" d="M515 19Q515 83 482.50 131Q450 179 390.50 204.50Q331 230 253 230Q213 230 147 215Q81 200 42 174L89 64Q170 104 244 104Q295 104 326.50 80.50Q358 57 358 18L358-9Q313 11 269 11Q156 11 89-55Q22-121 22-242Q22-363 90-431.50Q158-500 275-500Q309-500 344-486.50Q379-473 409-448L435-484L515-484L515 19M286-114Q319-114 358-142L358-349Q322-374 282-374Q238-374 211-338Q184-302 184-243Q184-183 211-148.50Q238-114 286-114Z"/><path id="s21:catamaran-extrabold:52" d="M24-42Q58-15 115-2Q172 11 212 11Q311 11 362.50-30Q414-71 414-146Q414-250 247-308Q184-330 184-346Q184-360 199-369Q214-378 237-378Q291-378 361-347L406-449Q371-475 320.50-487.50Q270-500 232-500Q138-500 84-458.50Q30-417 30-345Q30-288 77-251Q124-214 197-189Q228-179 245.50-167Q263-155 263-142Q263-127 244.50-118.50Q226-110 202-110Q176-110 138.50-119.50Q101-129 70-144L24-42Z"/><path id="s21:catamaran-extrabold:46" d="M677-501Q764-501 802-453.50Q840-406 840-318L840 0L684 0L684-297Q684-334 672.50-353.50Q661-373 630-373Q609-373 583-361.50Q557-350 525-331L525-318L525 0L369 0L369-297Q369-334 357.50-353.50Q346-373 315-373Q294-373 267.50-361.50Q241-350 209-331L209 0L52 0L52-485L149-485L176-434Q220-464 269-482.50Q318-501 361-501Q459-501 498-438Q541-466 588-483.50Q635-501 677-501Z"/><path id="s21:catamaran-extrabold:35" d="M300-500Q413-500 479.50-434Q546-368 546-247Q546-126 478.50-57.50Q411 11 294 11Q231 11 170-32L142 0L62 0L62-695L218-706L218-483Q257-500 300-500M287-114Q331-114 358-150.50Q385-187 385-246Q385-306 358-340Q331-374 283-374Q252-374 218-351L218-135Q253-114 287-114Z"/><path id="s21:catamaran-extrabold:39" d="M89 0L245 0L245-352L387-352L358-474L245-474L245-496Q245-531 261-551.50Q277-572 306-572Q337-572 368-556L413-665Q395-680 360.50-691.50Q326-703 297-703Q206-703 147.50-653Q89-603 89-515L89-474L11-474L11-352L89-352L89 0Z"/><path id="s21:catamaran-extrabold:53" d="M236-621L80-597L80-474L10-474L10-352L80-352L80-169Q80-81 139-33Q198 15 290 15Q320 15 355 4Q390-7 407-21L362-130Q331-114 300-114Q270-114 253-135Q236-156 236-190L236-352L372-352L344-474L236-474L236-621Z"/><path id="s21:catamaran-extrabold:42" d="M130-552Q166-552 191.50-577.50Q217-603 217-638Q217-674 191.50-699.50Q166-725 130-725Q95-725 69.50-699.50Q44-674 44-638Q44-603 69.50-577.50Q95-552 130-552M52-485L52 0L209 0L209-485L52-485Z"/><path id="s21:catamaran-extrabold:58" d="M167 12Q158 36 126 55Q94 74 42 96L95 220Q166 204 225.50 160.50Q285 117 308 60L523-485L363-485L264-201L158-503L10-460L181-21L167 12Z"/><path id="s21:catamaran-extrabold:254" d="M113 0Q148 0 171.50-24Q195-48 195-82Q195-117 171.50-141Q148-165 113-165Q78-165 54-141Q30-117 30-82Q30-48 54-24Q78 0 113 0Z"/><path id="s21:catamaran-extrabold:57" d="M342 0L516 0L359-230L524-485L352-485L265-349L168-500L19-461L171-244L10 0L185 0L265-125L342 0Z"/><path id="s21:catamaran-extrabold:36" d="M451-450Q416-476 369-488Q322-500 284-500Q206-500 146.50-468.50Q87-437 54.50-378.50Q22-320 22-242Q22-164 54.50-106.50Q87-49 146.50-19Q206 11 284 11Q324 11 370.50 0Q417-11 451-38L407-148Q374-132 348-125Q322-118 294-118Q247-118 215.50-152Q184-186 184-242Q184-298 215.50-334Q247-370 294-370Q323-370 348-363.50Q373-357 407-341L451-450Z"/><path id="s21:catamaran-extrabold:13" d="M238-557L514-557L496-679L82-679L82 0L238 0L238-272L467-272L449-395L238-395L238-557Z"/><path id="s21:catamaran-extrabold:253" d="M113-147Q79-147 55-121Q31-95 31-63Q31-38 46-16Q61 6 80 12Q75 32 60 48.50Q45 65 20 83L53 154Q114 126 155.50 67.50Q197 9 197-48Q197-91 172.50-119Q148-147 113-147Z"/></defs><g id="line-0"><use x="0" y="840" xlink:href="#s21:catamaran-extrabold:27" /><use x="605" y="840" xlink:href="#s21:catamaran-extrabold:41" /><use x="1203" y="840" xlink:href="#s21:catamaran-extrabold:38" /><use x="1727" y="840" xlink:href="#s21:catamaran-extrabold:2" /><use x="1949" y="840" xlink:href="#s21:catamaran-extrabold:12" /><use x="2539" y="840" xlink:href="#s21:catamaran-extrabold:54" /><use x="3127" y="840" xlink:href="#s21:catamaran-extrabold:51" /><use x="3508" y="840" xlink:href="#s21:catamaran-extrabold:48" /><use x="4087" y="840" xlink:href="#s21:catamaran-extrabold:49" /><use x="4652" y="840" xlink:href="#s21:catamaran-extrabold:38" /><use x="5176" y="840" xlink:href="#s21:catamaran-extrabold:34" /><use x="5682" y="840" xlink:href="#s21:catamaran-extrabold:47" /><use x="6270" y="840" xlink:href="#s21:catamaran-extrabold:2" /><use x="6492" y="840" xlink:href="#s21:catamaran-extrabold:45" /><use x="6773" y="840" xlink:href="#s21:catamaran-extrabold:34" /><use x="7279" y="840" xlink:href="#s21:catamaran-extrabold:47" /><use x="7867" y="840" xlink:href="#s21:catamaran-extrabold:40" /><use x="8441" y="840" xlink:href="#s21:catamaran-extrabold:54" /><use x="9029" y="840" xlink:href="#s21:catamaran-extrabold:34" /><use x="9535" y="840" xlink:href="#s21:catamaran-extrabold:40" /><use x="10109" y="840" xlink:href="#s21:catamaran-extrabold:38" /><use x="10633" y="840" xlink:href="#s21:catamaran-extrabold:52" /><use x="11070" y="840" xlink:href="#s21:catamaran-extrabold:2" /><use x="11292" y="840" xlink:href="#s21:catamaran-extrabold:34" /><use x="11798" y="840" xlink:href="#s21:catamaran-extrabold:51" /><use x="12179" y="840" xlink:href="#s21:catamaran-extrabold:38" /><use x="12703" y="840" xlink:href="#s21:catamaran-extrabold:2" /><use x="12925" y="840" xlink:href="#s21:catamaran-extrabold:46" /><use x="13814" y="840" xlink:href="#s21:catamaran-extrabold:38" /><use x="14338" y="840" xlink:href="#s21:catamaran-extrabold:46" /><use x="15227" y="840" xlink:href="#s21:catamaran-extrabold:35" /><use x="15796" y="840" xlink:href="#s21:catamaran-extrabold:38" /><use x="16320" y="840" xlink:href="#s21:catamaran-extrabold:51" /><use x="16701" y="840" xlink:href="#s21:catamaran-extrabold:52" /><use x="17138" y="840" xlink:href="#s21:catamaran-extrabold:2" /><use x="17360" y="840" xlink:href="#s21:catamaran-extrabold:48" /><use x="17939" y="840" xlink:href="#s21:catamaran-extrabold:39" /><use x="18352" y="840" xlink:href="#s21:catamaran-extrabold:2" /><use x="18574" y="840" xlink:href="#s21:catamaran-extrabold:53" /><use x="18993" y="840" xlink:href="#s21:catamaran-extrabold:41" /><use x="19591" y="840" xlink:href="#s21:catamaran-extrabold:38" /><use x="20115" y="840" xlink:href="#s21:catamaran-extrabold:2" /><use x="20337" y="840" xlink:href="#s21:catamaran-extrabold:52" /><use x="20774" y="840" xlink:href="#s21:catamaran-extrabold:34" /><use x="21280" y="840" xlink:href="#s21:catamaran-extrabold:46" /><use x="22169" y="840" xlink:href="#s21:catamaran-extrabold:38" /><use x="22693" y="840" xlink:href="#s21:catamaran-extrabold:2" /><use x="22915" y="840" xlink:href="#s21:catamaran-extrabold:39" /><use x="23328" y="840" xlink:href="#s21:catamaran-extrabold:34" /><use x="23834" y="840" xlink:href="#s21:catamaran-extrabold:46" /><use x="24723" y="840" xlink:href="#s21:catamaran-extrabold:42" /><use x="24984" y="840" xlink:href="#s21:catamaran-extrabold:45" /><use x="25265" y="840" xlink:href="#s21:catamaran-extrabold:58" /><use x="25798" y="840" xlink:href="#s21:catamaran-extrabold:254" /></g><g id="line-1"><use x="5269.5" y="2040" xlink:href="#s21:catamaran-extrabold:27" /><use x="5874.5" y="2040" xlink:href="#s21:catamaran-extrabold:41" /><use x="6472.5" y="2040" xlink:href="#s21:catamaran-extrabold:38" /><use x="6996.5" y="2040" xlink:href="#s21:catamaran-extrabold:42" /><use x="7257.5" y="2040" xlink:href="#s21:catamaran-extrabold:51" /><use x="7638.5" y="2040" xlink:href="#s21:catamaran-extrabold:2" /><use x="7860.5" y="2040" xlink:href="#s21:catamaran-extrabold:52" /><use x="8297.5" y="2040" xlink:href="#s21:catamaran-extrabold:38" /><use x="8821.5" y="2040" xlink:href="#s21:catamaran-extrabold:49" /><use x="9386.5" y="2040" xlink:href="#s21:catamaran-extrabold:34" /><use x="9892.5" y="2040" xlink:href="#s21:catamaran-extrabold:51" /><use x="10273.5" y="2040" xlink:href="#s21:catamaran-extrabold:34" /><use x="10779.5" y="2040" xlink:href="#s21:catamaran-extrabold:53" /><use x="11198.5" y="2040" xlink:href="#s21:catamaran-extrabold:38" /><use x="11722.5" y="2040" xlink:href="#s21:catamaran-extrabold:2" /><use x="11944.5" y="2040" xlink:href="#s21:catamaran-extrabold:38" /><use x="12468.5" y="2040" xlink:href="#s21:catamaran-extrabold:57" /><use x="13002.5" y="2040" xlink:href="#s21:catamaran-extrabold:42" /><use x="13263.5" y="2040" xlink:href="#s21:catamaran-extrabold:52" /><use x="13700.5" y="2040" xlink:href="#s21:catamaran-extrabold:53" /><use x="14119.5" y="2040" xlink:href="#s21:catamaran-extrabold:38" /><use x="14643.5" y="2040" xlink:href="#s21:catamaran-extrabold:47" /><use x="15231.5" y="2040" xlink:href="#s21:catamaran-extrabold:36" /><use x="15695.5" y="2040" xlink:href="#s21:catamaran-extrabold:38" /><use x="16219.5" y="2040" xlink:href="#s21:catamaran-extrabold:2" /><use x="16441.5" y="2040" xlink:href="#s21:catamaran-extrabold:42" /><use x="16702.5" y="2040" xlink:href="#s21:catamaran-extrabold:52" /><use x="17139.5" y="2040" xlink:href="#s21:catamaran-extrabold:2" /><use x="17361.5" y="2040" xlink:href="#s21:catamaran-extrabold:34" /><use x="17867.5" y="2040" xlink:href="#s21:catamaran-extrabold:2" /><use x="18089.5" y="2040" xlink:href="#s21:catamaran-extrabold:46" /><use x="18978.5" y="2040" xlink:href="#s21:catamaran-extrabold:58" /><use x="19511.5" y="2040" xlink:href="#s21:catamaran-extrabold:53" /><use x="19930.5" y="2040" xlink:href="#s21:catamaran-extrabold:41" /><use x="20528.5" y="2040" xlink:href="#s21:catamaran-extrabold:254" /></g><g id="line-2"><use x="6522" y="3240" xlink:href="#s21:catamaran-extrabold:13" /><use x="7056" y="3240" xlink:href="#s21:catamaran-extrabold:48" /><use x="7635" y="3240" xlink:href="#s21:catamaran-extrabold:51" /><use x="8016" y="3240" xlink:href="#s21:catamaran-extrabold:2" /><use x="8238" y="3240" xlink:href="#s21:catamaran-extrabold:52" /><use x="8675" y="3240" xlink:href="#s21:catamaran-extrabold:36" /><use x="9139" y="3240" xlink:href="#s21:catamaran-extrabold:42" /><use x="9400" y="3240" xlink:href="#s21:catamaran-extrabold:38" /><use x="9924" y="3240" xlink:href="#s21:catamaran-extrabold:47" /><use x="10512" y="3240" xlink:href="#s21:catamaran-extrabold:36" /><use x="10976" y="3240" xlink:href="#s21:catamaran-extrabold:38" /><use x="11500" y="3240" xlink:href="#s21:catamaran-extrabold:253" /><use x="11727" y="3240" xlink:href="#s21:catamaran-extrabold:2" /><use x="11949" y="3240" xlink:href="#s21:catamaran-extrabold:46" /><use x="12838" y="3240" xlink:href="#s21:catamaran-extrabold:54" /><use x="13426" y="3240" xlink:href="#s21:catamaran-extrabold:52" /><use x="13863" y="3240" xlink:href="#s21:catamaran-extrabold:42" /><use x="14124" y="3240" xlink:href="#s21:catamaran-extrabold:36" /><use x="14588" y="3240" xlink:href="#s21:catamaran-extrabold:253" /><use x="14815" y="3240" xlink:href="#s21:catamaran-extrabold:2" /><use x="15037" y="3240" xlink:href="#s21:catamaran-extrabold:52" /><use x="15474" y="3240" xlink:href="#s21:catamaran-extrabold:49" /><use x="16039" y="3240" xlink:href="#s21:catamaran-extrabold:48" /><use x="16618" y="3240" xlink:href="#s21:catamaran-extrabold:51" /><use x="16999" y="3240" xlink:href="#s21:catamaran-extrabold:53" /><use x="17418" y="3240" xlink:href="#s21:catamaran-extrabold:253" /><use x="17645" y="3240" xlink:href="#s21:catamaran-extrabold:2" /><use x="17867" y="3240" xlink:href="#s21:catamaran-extrabold:38" /><use x="18391" y="3240" xlink:href="#s21:catamaran-extrabold:53" /><use x="18810" y="3240" xlink:href="#s21:catamaran-extrabold:36" /><use x="19274" y="3240" xlink:href="#s21:catamaran-extrabold:253" /></g></svg>