<svg xmlns="http://www.w3.org/2000/svg" xmlns:xlink="http://www.w3.org/1999/xlink" width="556" height="90" viewBox="0 0 23151 3770"><defs><path id="s22:catamaran-extralight:27" d="M10-636L243-636L243 0L299 0L299-636L533-636L528-680L10-680L10-636Z"/><path id="s22:catamaran-extralight:41" d="M307-498Q382-498 418-454.50Q454-411 454-337L454 0L399 0L399-331Q399-451 306-451Q266-451 219-424Q172-397 133-353L133 0L78 0L78-696L133-706L133-411Q164-448 213.50-473Q263-498 307-498Z"/><path id="s22:catamaran-extralight:38" d="M448-241Q448-356 397-427Q346-498 253-498Q149-498 93.50-428Q38-358 38-245Q38-126 97-56.50Q156 13 275 13Q317 13 360.50 1.50Q404-10 437-29L417-70Q381-52 347-42Q313-32 269-32Q181-32 138-89.50Q95-147 94-241L448-241M96-280Q103-356 141.50-404Q180-452 248-452Q316-452 350-405Q384-358 391-280L96-280Z"/><path id="s22:catamaran-extralight:2" d=""/><path id="s22:catamaran-extralight:12" d="M153-44L153-328L398-328L393-369L153-369L153-638L456-638L451-680L98-680L98 0L479 0L473-44L153-44Z"/><path id="s22:catamaran-extralight:54" d="M385-132Q346-88 298.50-61Q251-34 211-34Q161-34 140-66Q119-98 119-154L119-485L64-485L64-148Q64-74 99.50-30.50Q135 13 210 13Q254 13 304-13Q354-39 386-76L396 0L440 0L440-485L385-485L385-132Z"/><path id="s22:catamaran-extralight:51" d="M123-352Q154-386 203.50-414Q253-442 296-442L279-485Q245-485 199.50-460.50Q154-436 120-408L102-485L68-485L68 0L123 0L123-352Z"/><path id="s22:catamaran-extralight:48" d="M487-240Q487-168 459.50-110.50Q432-53 380.50-20Q329 13 259 13Q154 13 96-58Q38-129 38-245Q38-317 65.50-374.50Q93-432 144.50-465Q196-498 266-498Q372-497 429.50-427.50Q487-358 487-240M260-33Q312-33 350.50-60.50Q389-88 409.50-135Q430-182 431-239Q431-332 387.50-392Q344-452 265-452Q213-452 174.50-424.50Q136-397 115.50-350Q95-303 94-246Q94-153 137.50-93Q181-33 260-33Z"/><path id="s22:catamaran-extralight:49" d="M259-498Q363-498 418.50-428Q474-358 474-241Q474-168 448.50-110.50Q423-53 373.50-20Q324 13 254 13Q221 13 188.50 0Q156-13 129-34L129 208L74 219L74-485L108-485L121-442Q182-498 259-498M256-33Q333-33 375-92Q417-151 417-240Q417-335 377.50-393.50Q338-452 260-452Q218-452 187.50-436Q157-420 129-391L129-86Q157-62 187.50-47.50Q218-33 256-33Z"/><path id="s22:catamaran-extralight:34" d="M105-418Q142-436 170.50-444Q199-452 244-452Q301-452 330.50-420.50Q360-389 360-336L360-281L225-281Q148-281 100-242.50Q52-204 52-136Q52-70 94-28.50Q136 13 215 13Q257 13 297.50-5.50Q338-24 363-52L371 0L415 0L415-340Q415-412 369-455Q323-498 241-498Q208-498 160-486Q112-474 86-456L105-418M108-136Q108-182 138.50-212Q169-242 226-242L360-242L360-113Q334-77 297-55Q260-33 216-33Q165-33 136.50-63Q108-93 108-136Z"/><path id="s22:catamaran-extralight:47" d="M123-353Q162-397 209-424Q256-451 296-451Q389-451 389-331L389 0L444 0L444-337Q444-411 408-454.50Q372-498 297-498Q253-498 203-472.50Q153-447 122-410L112-485L68-485L68 0L123 0L123-353Z"/><path id="s22:catamaran-extralight:45" d="M78-696L78 0L133 0L133-706L78-696Z"/><path id="s22:catamaran-extralight:40" d="M436 62Q436 136 383.50 183Q331 230 238 230Q205 230 152.50 218Q100 206 73 189L92 149Q128 166 160 174.50Q192 183 236 184Q300 184 340.50 154Q381 124 381 67L381-35Q323 13 252 13Q148 13 93-57Q38-127 38-244Q38-317 63.50-374.50Q89-432 138.50-465Q188-498 258-498Q322-498 390-446L403-485L436-485L436 62M252-33Q293-33 323-48.50Q353-64 381-93L381-400Q353-424 323.50-438Q294-452 255-452Q178-452 136.50-393.50Q95-335 94-245Q94-151 134-92Q174-33 252-33Z"/><path id="s22:catamaran-extralight:52" d="M42-25Q68-8 112 2.50Q156 13 190 13Q281 13 327.50-22.50Q374-58 374-123Q374-173 331.50-208.50Q289-244 220-270Q161-292 129-314.50Q97-337 97-368Q97-404 129-428.50Q161-453 211-453Q250-453 276.50-444Q303-435 337-419L357-458Q333-475 291-486.50Q249-498 216-498Q135-498 89.50-461.50Q44-425 44-364Q44-279 192-226Q322-178 322-119Q322-78 287-55Q252-32 192-32Q134-32 60-68L42-25Z"/><path id="s22:catamaran-extralight:46" d="M584-498Q655-498 688-455Q721-412 721-337L721 0L666 0L666-331Q666-388 648-419.50Q630-451 583-451Q549-451 506-426.50Q463-402 425-362Q426-354 426-337L426 0L371 0L371-331Q371-388 353.50-419.50Q336-451 289-451Q253-451 207.50-424Q162-397 123-353L123 0L68 0L68-485L112-485L122-410Q153-446 202-472Q251-498 290-498Q390-498 416-410Q447-446 496-472Q545-498 584-498Z"/><path id="s22:catamaran-extralight:35" d="M263-498Q367-498 422.50-428Q478-358 478-241Q478-168 452.50-110.50Q427-53 377.50-20Q328 13 258 13Q223 13 188.50-2Q154-17 125-40L112 0L78 0L78-696L133-706L133-449Q192-498 263-498M260-33Q337-33 379-92Q421-151 421-240Q421-335 381.50-393.50Q342-452 264-452Q222-452 191.50-436Q161-420 133-391L133-86Q161-62 191.50-47.50Q222-33 260-33Z"/><path id="s22:catamaran-extralight:39" d="M92 0L147 0L147-431L256-431L235-472L147-472L147-572Q147-654 216-654Q225-654 238-651Q251-648 257-645L269-689Q235-702 203-702Q150-702 121-664.50Q92-627 92-563L92-472L19-472L19-431L92-431L92 0Z"/><path id="s22:catamaran-extralight:53" d="M146-623L91-601L91-472L19-472L19-431L91-431L91-116Q91-54 120.50-20.50Q150 13 201 13Q220 13 240 8Q264 1 267 1L255-43Q234-34 214-34Q179-34 162.50-59Q146-84 146-123L146-431L255-431L234-472L146-472L146-623Z"/><path id="s22:catamaran-extralight:42" d="M95-596Q113-596 125.50-608Q138-620 138-638Q138-656 125.50-668Q113-680 95-680Q76-680 64.50-668Q53-656 53-638Q53-620 64.50-608Q76-596 95-596M68-485L68 0L123 0L123-485L68-485Z"/><path id="s22:catamaran-extralight:58" d="M161 98Q149 129 127.50 146Q106 163 64 180L74 219Q122 209 157 181Q192 153 207 112L424-485L369-485L217-68L57-494L10-472L193 3L161 98Z"/><path id="s22:catamaran-extralight:254" d="M73 0Q90 0 102.50-12.50Q115-25 115-43Q115-59 102.50-71.50Q90-84 73-84Q55-84 42.50-72Q30-60 30-43Q30-25 42-12.50Q54 0 73 0Z"/><path id="s22:catamaran-extralight:57" d="M332 0L393 0L243-232L406-485L346-485L214-273L77-494L28-472L172-244L10 0L72 0L201-203L332 0Z"/><path id="s22:catamaran-extralight:36" d="M391-67Q386-65 364.50-54Q343-43 317.50-38Q292-33 260-33Q181-33 137.50-93Q94-153 94-246Q95-303 115.50-350Q136-397 174.50-424.50Q213-452 265-452Q308-452 334-443.50Q360-435 396-418L416-456Q388-474 343-486Q298-498 267-498Q197-498 145-465.50Q93-433 65.50-375.50Q38-318 38-245Q38-129 96.50-58Q155 13 260 13Q293 13 337.50 1.50Q382-10 411-28L391-67Z"/><path id="s22:catamaran-extralight:13" d="M153-638L447-638L440-680L98-680L98 0L153 0L153-324L388-324L382-365L153-365L153-638Z"/><path id="s22:catamaran-extralight:253" d="M83-84Q65-84 52.50-71.50Q40-59 40-42Q40-27 51-13.50Q62 0 79 0Q78 47 20 81L37 108Q77 89 101.50 49Q126 9 126-37Q126-57 114-70.50Q102-84 83-84Z"/></defs><g id="line-0"><use x="0" y="830" xlink:href="#s22:catamaran-extralight:27"/><use x="543" y="830" xlink:href="#s22:catamaran-extralight:41"/><use x="1060" y="830" xlink:href="#s22:catamaran-extralight:38"/><use x="1546" y="830" xlink:href="#s22:catamaran-extralight:2"/><use x="1784" y="830" xlink:href="#s22:catamaran-extralight:12"/><use x="2283" y="830" xlink:href="#s22:catamaran-extralight:54"/><use x="2790" y="830" xlink:href="#s22:catamaran-extralight:51"/><use x="3096" y="830" xlink:href="#s22:catamaran-extralight:48"/><use x="3621" y="830" xlink:href="#s22:catamaran-extralight:49"/><use x="4133" y="830" xlink:href="#s22:catamaran-extralight:38"/><use x="4619" y="830" xlink:href="#s22:catamaran-extralight:34"/><use x="5098" y="830" xlink:href="#s22:catamaran-extralight:47"/><use x="5605" y="830" xlink:href="#s22:catamaran-extralight:2"/><use x="5843" y="830" xlink:href="#s22:catamaran-extralight:45"/><use x="6053" y="830" xlink:href="#s22:catamaran-extralight:34"/><use x="6532" y="830" xlink:href="#s22:catamaran-extralight:47"/><use x="7039" y="830" xlink:href="#s22:catamaran-extralight:40"/><use x="7549" y="830" xlink:href="#s22:catamaran-extralight:54"/><use x="8056" y="830" xlink:href="#s22:catamaran-extralight:34"/><use x="8535" y="830" xlink:href="#s22:catamaran-extralight:40"/><use x="9045" y="830" xlink:href="#s22:catamaran-extralight:38"/><use x="9531" y="830" xlink:href="#s22:catamaran-extralight:52"/><use x="9943" y="830" xlink:href="#s22:catamaran-extralight:2"/><use x="10181" y="830" xlink:href="#s22:catamaran-extralight:34"/><use x="10660" y="830" xlink:href="#s22:catamaran-extralight:51"/><use x="10966" y="830" xlink:href="#s22:catamaran-extralight:38"/><use x="11452" y="830" xlink:href="#s22:catamaran-extralight:2"/><use x="11690" y="830" xlink:href="#s22:catamaran-extralight:46"/><use x="12474" y="830" xlink:href="#s22:catamaran-extralight:38"/><use x="12960" y="830" xlink:href="#s22:catamaran-extralight:46"/><use x="13744" y="830" xlink:href="#s22:catamaran-extralight:35"/><use x="14260" y="830" xlink:href="#s22:catamaran-extralight:38"/><use x="14746" y="830" xlink:href="#s22:catamaran-extralight:51"/><use x="15052" y="830" xlink:href="#s22:catamaran-extralight:52"/><use x="15464" y="830" xlink:href="#s22:catamaran-extralight:2"/><use x="15702" y="830" xlink:href="#s22:catamaran-extralight:48"/><use x="16227" y="830" xlink:href="#s22:catamaran-extralight:39"/><use x="16496" y="830" xlink:href="#s22:catamaran-extralight:2"/><use x="16734" y="830" xlink:href="#s22:catamaran-extralight:53"/><use x="17029" y="830" xlink:href="#s22:catamaran-extralight:41"/><use x="17546" y="830" xlink:href="#s22:catamaran-extralight:38"/><use x="18032" y="830" xlink:href="#s22:catamaran-extralight:2"/><use x="18270" y="830" xlink:href="#s22:catamaran-extralight:52"/><use x="18682" y="830" xlink:href="#s22:catamaran-extralight:34"/><use x="19161" y="830" xlink:href="#s22:catamaran-extralight:46"/><use x="19945" y="830" xlink:href="#s22:catamaran-extralight:38"/><use x="20431" y="830" xlink:href="#s22:catamaran-extralight:2"/><use x="20669" y="830" xlink:href="#s22:catamaran-extralight:39"/><use x="20938" y="830" xlink:href="#s22:catamaran-extralight:34"/><use x="21417" y="830" xlink:href="#s22:catamaran-extralight:46"/><use x="22201" y="830" xlink:href="#s22:catamaran-extralight:42"/><use x="22392" y="830" xlink:href="#s22:catamaran-extralight:45"/><use x="22602" y="830" xlink:href="#s22:catamaran-extralight:58"/><use x="23036" y="830" xlink:href="#s22:catamaran-extralight:254"/></g><g id="line-1"><use x="4753.5" y="2030" xlink:href="#s22:catamaran-extralight:27"/><use x="5296.5" y="2030" xlink:href="#s22:catamaran-extralight:41"/><use x="5813.5" y="2030" xlink:href="#s22:catamaran-extralight:38"/><use x="6299.5" y="2030" xlink:href="#s22:catamaran-extralight:42"/><use x="6490.5" y="2030" xlink:href="#s22:catamaran-extralight:51"/><use x="6796.5" y="2030" xlink:href="#s22:catamaran-extralight:2"/><use x="7034.5" y="2030" xlink:href="#s22:catamaran-extralight:52"/><use x="7446.5" y="2030" xlink:href="#s22:catamaran-extralight:38"/><use x="7932.5" y="2030" xlink:href="#s22:catamaran-extralight:49"/><use x="8444.5" y="2030" xlink:href="#s22:catamaran-extralight:34"/><use x="8923.5" y="2030" xlink:href="#s22:catamaran-extralight:51"/><use x="9229.5" y="2030" xlink:href="#s22:catamaran-extralight:34"/><use x="9708.5" y="2030" xlink:href="#s22:catamaran-extralight:53"/><use x="10003.5" y="2030" xlink:href="#s22:catamaran-extralight:38"/><use x="10489.5" y="2030" xlink:href="#s22:catamaran-extralight:2"/><use x="10727.5" y="2030" xlink:href="#s22:catamaran-extralight:38"/><use x="11213.5" y="2030" xlink:href="#s22:catamaran-extralight:57"/><use x="11629.5" y="2030" xlink:href="#s22:catamaran-extralight:42"/><use x="11820.5" y="2030" xlink:href="#s22:catamaran-extralight:52"/><use x="12232.5" y="2030" xlink:href="#s22:catamaran-extralight:53"/><use x="12527.5" y="2030" xlink:href="#s22:catamaran-extralight:38"/><use x="13013.5" y="2030" xlink:href="#s22:catamaran-extralight:47"/><use x="13520.5" y="2030" xlink:href="#s22:catamaran-extralight:36"/><use x="13970.5" y="2030" xlink:href="#s22:catamaran-extralight:38"/><use x="14456.5" y="2030" xlink:href="#s22:catamaran-extralight:2"/><use x="14694.5" y="2030" xlink:href="#s22:catamaran-extralight:42"/><use x="14885.5" y="2030" xlink:href="#s22:catamaran-extralight:52"/><use x="15297.5" y="2030" xlink:href="#s22:catamaran-extralight:2"/><use x="15535.5" y="2030" xlink:href="#s22:catamaran-extralight:34"/><use x="16014.5" y="2030" xlink:href="#s22:catamaran-extralight:2"/><use x="16252.5" y="2030" xlink:href="#s22:catamaran-extralight:46"/><use x="17036.5" y="2030" xlink:href="#s22:catamaran-extralight:58"/><use x="17470.5" y="2030" xlink:href="#s22:catamaran-extralight:53"/><use x="17765.5" y="2030" xlink:href="#s22:catamaran-extralight:41"/><use x="18282.5" y="2030" xlink:href="#s22:catamaran-extralight:254"/></g><g id="line-2"><use x="5850" y="3230" xlink:href="#s22:catamaran-extralight:13"/><use x="6317" y="3230" xlink:href="#s22:catamaran-extralight:48"/><use x="6842" y="3230" xlink:href="#s22:catamaran-extralight:51"/><use x="7148" y="3230" xlink:href="#s22:catamaran-extralight:2"/><use x="7386" y="3230" xlink:href="#s22:catamaran-extralight:52"/><use x="7798" y="3230" xlink:href="#s22:catamaran-extralight:36"/><use x="8248" y="3230" xlink:href="#s22:catamaran-extralight:42"/><use x="8439" y="3230" xlink:href="#s22:catamaran-extralight:38"/><use x="8925" y="3230" xlink:href="#s22:catamaran-extralight:47"/><use x="9432" y="3230" xlink:href="#s22:catamaran-extralight:36"/><use x="9882" y="3230" xlink:href="#s22:catamaran-extralight:38"/><use x="10368" y="3230" xlink:href="#s22:catamaran-extralight:253"/><use x="10524" y="3230" xlink:href="#s22:catamaran-extralight:2"/><use x="10762" y="3230" xlink:href="#s22:catamaran-extralight:46"/><use x="11546" y="3230" xlink:href="#s22:catamaran-extralight:54"/><use x="12053" y="3230" xlink:href="#s22:catamaran-extralight:52"/><use x="12465" y="3230" xlink:href="#s22:catamaran-extralight:42"/><use x="12656" y="3230" xlink:href="#s22:catamaran-extralight:36"/><use x="13106" y="3230" xlink:href="#s22:catamaran-extralight:253"/><use x="13262" y="3230" xlink:href="#s22:catamaran-extralight:2"/><use x="13500" y="3230" xlink:href="#s22:catamaran-extralight:52"/><use x="13912" y="3230" xlink:href="#s22:catamaran-extralight:49"/><use x="14424" y="3230" xlink:href="#s22:catamaran-extralight:48"/><use x="14949" y="3230" xlink:href="#s22:catamaran-extralight:51"/><use x="15255" y="3230" xlink:href="#s22:catamaran-extralight:53"/><use x="15550" y="3230" xlink:href="#s22:catamaran-extralight:253"/><use x="15706" y="3230" xlink:href="#s22:catamaran-extralight:2"/><use x="15944" y="3230" xlink:href="#s22:catamaran-extralight:38"/><use x="16430" y="3230" xlink:href="#s22:catamaran-extralight:53"/><use x="16725" y="3230" xlink:href="#s22:catamaran-extralight:36"/><use x="17175" y="3230" xlink:href="#s22:catamaran-extralight:253"/></g></svg>