<svg xmlns="http://www.w3.org/2000/svg" xmlns:xlink="http://www.w3.org/1999/xlink" width="641" height="90" viewBox="0 0 26715 3750" ><defs><path id="s19:catamaran-black:27" d="M10-537L210-537L210 0L392 0L392-537L609-537L592-680L10-680L10-537Z"/><path id="s19:catamaran-black:41" d="M398-501Q486-501 530-449.50Q574-398 574-313L574 0L392 0L392-296Q392-354 340-354Q324-354 295-345.50Q266-337 242-326L242 0L60 0L60-695L242-706L242-459Q326-501 398-501Z"/><path id="s19:catamaran-black:38" d="M513-250Q513-320 486.50-377Q460-434 408-468Q356-502 281-502Q207-502 147.50-470.50Q88-439 54-380Q20-321 20-242Q20-162 57-104.50Q94-47 159.50-18Q225 11 310 11Q369 11 425.50-4Q482-19 512-41L461-164Q397-131 328-131Q283-131 255.50-148.50Q228-166 218-197L513-197L513-250M213-287Q212-314 231.50-335Q251-356 276-356Q307-356 323-334Q339-312 339-287L213-287Z"/><path id="s19:catamaran-black:2" d=""/><path id="s19:catamaran-black:12" d="M262-143L262-270L488-270L471-413L262-413L262-537L548-537L531-680L80-680L80 0L578 0L561-143L262-143Z"/><path id="s19:catamaran-black:54" d="M378-158Q354-147 325-138.50Q296-130 280-130Q252-130 240-146.50Q228-163 228-188L228-484L46-484L46-171Q46-86 90-34.50Q134 17 222 17Q314 17 420-49L472 1L560 1L560-484L378-484L378-158Z"/><path id="s19:catamaran-black:51" d="M232-285Q263-309 306-324Q349-339 385-339L348-485Q310-485 265-467Q220-449 185-425L141-484L50-484L50 0L232 0L232-285Z"/><path id="s19:catamaran-black:48" d="M570-240Q570-161 533.50-104Q497-47 433.50-18Q370 11 291 11Q169 11 94.50-54.50Q20-120 20-245Q20-324 56.50-382.50Q93-441 155.50-471.50Q218-502 295-502Q376-502 438-472Q500-442 535-383Q570-324 570-240M293-137Q336-137 359-163Q382-189 382-240Q382-290 359.50-322Q337-354 297-354Q255-354 231.50-325Q208-296 208-245Q208-195 230-166Q252-137 293-137Z"/><path id="s19:catamaran-black:49" d="M310-502Q422-502 490.50-438Q559-374 559-249Q559-122 489.50-55.50Q420 11 302 11Q268 11 238 1L238 209L56 219L56-484L147-484L175-456Q205-477 239.50-489.50Q274-502 310-502M290-129Q325-129 348-161Q371-193 371-248Q371-303 348-332.50Q325-362 282-362Q261-362 238-347L238-142Q267-129 290-129Z"/><path id="s19:catamaran-black:34" d="M96-325Q124-337 158.50-345.50Q193-354 217-354Q243-354 259.50-340Q276-326 280-298L222-298Q32-298 32-156Q32-79 78-34Q124 11 214 11Q275 11 323-50L375 0L463 0L463-300Q463-394 411-448Q359-502 262-502Q206-502 148-488.50Q90-475 48-456L96-325M184-159Q184-176 195.50-187Q207-198 225-198L281-198L281-152Q248-125 217-125Q203-125 193.50-134.50Q184-144 184-159Z"/><path id="s19:catamaran-black:47" d="M232-326Q256-337 285-345.50Q314-354 330-354Q358-354 370-337.50Q382-321 382-296L382 0L564 0L564-313Q564-398 520-449.50Q476-501 388-501Q296-501 190-435L158-485L50-485L50 0L232 0L232-326Z"/><path id="s19:catamaran-black:45" d="M60-695L60 0L242 0L242-706L60-695Z"/><path id="s19:catamaran-black:40" d="M523 16Q523 78 489.50 126.50Q456 175 395.50 202.50Q335 230 256 230Q214 230 145 215.50Q76 201 34 174L89 46Q133 68 170 75.50Q207 83 243 83Q286 83 313.50 63.50Q341 44 341 15L341-2Q304 11 269 11Q157 11 88.50-53Q20-117 20-242Q20-369 89.50-435.50Q159-502 277-502Q349-502 408-454L432-484L523-484L523 16M297-129Q319-129 341-144L341-349Q312-362 289-362Q254-362 231-330Q208-298 208-243Q208-188 231-158.50Q254-129 297-129Z"/><path id="s19:catamaran-black:52" d="M22-46Q59-17 122.50-3Q186 11 229 11Q329 11 380-31.50Q431-74 431-151Q431-211 383.50-248.50Q336-286 261-312Q238-320 224-328Q210-336 210-342Q210-352 224-358Q238-364 260-364Q286-364 317.50-356Q349-348 379-335L430-450Q393-479 341.50-490.50Q290-502 247-502Q146-502 89-459Q32-416 32-340Q32-280 80.50-243Q129-206 205-179Q226-172 239.50-163.50Q253-155 253-149Q253-139 241-133Q229-127 211-127Q185-127 143.50-137Q102-147 73-161L22-46Z"/><path id="s19:catamaran-black:46" d="M704-501Q875-501 875-313L875 0L693 0L693-296Q693-324 684.50-339Q676-354 646-354Q633-354 605-345Q577-336 554-326L554-313L554 0L372 0L372-296Q372-324 363.50-339Q355-354 325-354Q312-354 283.50-345Q255-336 232-326L232 0L50 0L50-485L158-485L190-435Q296-501 383-501Q479-501 521-441Q620-501 704-501Z"/><path id="s19:catamaran-black:35" d="M314-502Q426-502 494.50-438Q563-374 563-249Q563-122 493.50-55.50Q424 11 306 11Q239 11 183-31L152 0L60 0L60-695L242-706L242-489Q279-502 314-502M294-129Q329-129 352-161Q375-193 375-248Q375-303 352-332.50Q329-362 286-362Q264-362 242-347L242-142Q271-129 294-129Z"/><path id="s19:catamaran-black:39" d="M90 0L272 0L272-322L423-322L406-465L272-465L272-490Q272-520 287.50-537.50Q303-555 329-555Q365-555 399-536L451-660Q432-676 391.50-689.50Q351-703 317-703Q257-703 205-681Q153-659 121.50-615.50Q90-572 90-510L90-465L10-465L10-322L90-322L90 0Z"/><path id="s19:catamaran-black:53" d="M267-621L85-596L85-465L10-465L10-322L85-322L85-182Q85-120 116.50-76.50Q148-33 200-11Q252 11 312 11Q346 11 386.50-2.50Q427-16 446-32L394-156Q360-137 324-137Q298-137 282.50-154.50Q267-172 267-202L267-322L411-322L394-465L267-465L267-621Z"/><path id="s19:catamaran-black:42" d="M140-551Q181-551 210.50-580Q240-609 240-649Q240-690 210.50-719.50Q181-749 140-749Q100-749 71-719.50Q42-690 42-649Q42-609 71-580Q100-551 140-551M50-485L50 0L232 0L232-485L50-485Z"/><path id="s19:catamaran-black:58" d="M180 2Q173 21 140.50 38.50Q108 56 56 78L117 219Q191 203 253 159Q315 115 338 57L551-485L370-485L277-211L178-503L10-455L184-9L180 2Z"/><path id="s19:catamaran-black:254" d="M122 0Q160 0 186.50-26Q213-52 213-91Q213-130 186.50-156.50Q160-183 122-183Q83-183 56.50-156.50Q30-130 30-91Q30-52 56.50-26Q83 0 122 0Z"/><path id="s19:catamaran-black:57" d="M343 0L547 0L382-231L547-485L346-485L272-368L187-500L11-458L168-241L10 0L215 0L278-104L343 0Z"/><path id="s19:catamaran-black:36" d="M451-453Q389-502 285-502Q207-502 147-471Q87-440 53.50-381Q20-322 20-242Q20-122 92.50-55.50Q165 11 285 11Q389 11 451-38L400-163Q372-148 350-142.50Q328-137 303-137Q264-137 236-165Q208-193 208-242Q208-292 236.50-323Q265-354 303-354Q329-354 350-348.50Q371-343 400-328L451-453Z"/><path id="s19:catamaran-black:13" d="M262-536L538-536L521-679L80-679L80 0L262 0L262-257L488-257L471-400L262-400L262-536Z"/><path id="s19:catamaran-black:253" d="M121-147Q83-147 56-118.50Q29-90 29-55Q29-31 41-10Q53 11 72 23Q69 35 52.50 50Q36 65 20 74L56 154Q123 129 168 74Q213 19 213-40Q213-87 186.50-117Q160-147 121-147Z"/></defs><g id="line-0"><use x="0" y="850" xlink:href="#s19:catamaran-black:27" /><use x="619" y="850" xlink:href="#s19:catamaran-black:41" /><use x="1239" y="850" xlink:href="#s19:catamaran-black:38" /><use x="1772" y="850" xlink:href="#s19:catamaran-black:2" /><use x="1992" y="850" xlink:href="#s19:catamaran-black:12" /><use x="2590" y="850" xlink:href="#s19:catamaran-black:54" /><use x="3200" y="850" xlink:href="#s19:catamaran-black:51" /><use x="3595" y="850" xlink:href="#s19:catamaran-black:48" /><use x="4185" y="850" xlink:href="#s19:catamaran-black:49" /><use x="4764" y="850" xlink:href="#s19:catamaran-black:38" /><use x="5297" y="850" xlink:href="#s19:catamaran-black:34" /><use x="5806" y="850" xlink:href="#s19:catamaran-black:47" /><use x="6416" y="850" xlink:href="#s19:catamaran-black:2" /><use x="6636" y="850" xlink:href="#s19:catamaran-black:45" /><use x="6938" y="850" xlink:href="#s19:catamaran-black:34" /><use x="7447" y="850" xlink:href="#s19:catamaran-black:47" /><use x="8057" y="850" xlink:href="#s19:catamaran-black:40" /><use x="8636" y="850" xlink:href="#s19:catamaran-black:54" /><use x="9246" y="850" xlink:href="#s19:catamaran-black:34" /><use x="9755" y="850" xlink:href="#s19:catamaran-black:40" /><use x="10334" y="850" xlink:href="#s19:catamaran-black:38" /><use x="10867" y="850" xlink:href="#s19:catamaran-black:52" /><use x="11318" y="850" xlink:href="#s19:catamaran-black:2" /><use x="11538" y="850" xlink:href="#s19:catamaran-black:34" /><use x="12047" y="850" xlink:href="#s19:catamaran-black:51" /><use x="12442" y="850" xlink:href="#s19:catamaran-black:38" /><use x="12975" y="850" xlink:href="#s19:catamaran-black:2" /><use x="13195" y="850" xlink:href="#s19:catamaran-black:46" /><use x="14116" y="850" xlink:href="#s19:catamaran-black:38" /><use x="14649" y="850" xlink:href="#s19:catamaran-black:46" /><use x="15570" y="850" xlink:href="#s19:catamaran-black:35" /><use x="16153" y="850" xlink:href="#s19:catamaran-black:38" /><use x="16686" y="850" xlink:href="#s19:catamaran-black:51" /><use x="17081" y="850" xlink:href="#s19:catamaran-black:52" /><use x="17532" y="850" xlink:href="#s19:catamaran-black:2" /><use x="17752" y="850" xlink:href="#s19:catamaran-black:48" /><use x="18342" y="850" xlink:href="#s19:catamaran-black:39" /><use x="18793" y="850" xlink:href="#s19:catamaran-black:2" /><use x="19013" y="850" xlink:href="#s19:catamaran-black:53" /><use x="19469" y="850" xlink:href="#s19:catamaran-black:41" /><use x="20089" y="850" xlink:href="#s19:catamaran-black:38" /><use x="20622" y="850" xlink:href="#s19:catamaran-black:2" /><use x="20842" y="850" xlink:href="#s19:catamaran-black:52" /><use x="21293" y="850" xlink:href="#s19:catamaran-black:34" /><use x="21802" y="850" xlink:href="#s19:catamaran-black:46" /><use x="22723" y="850" xlink:href="#s19:catamaran-black:38" /><use x="23256" y="850" xlink:href="#s19:catamaran-black:2" /><use x="23476" y="850" xlink:href="#s19:catamaran-black:39" /><use x="23927" y="850" xlink:href="#s19:catamaran-black:34" /><use x="24436" y="850" xlink:href="#s19:catamaran-black:46" /><use x="25357" y="850" xlink:href="#s19:catamaran-black:42" /><use x="25639" y="850" xlink:href="#s19:catamaran-black:45" /><use x="25941" y="850" xlink:href="#s19:catamaran-black:58" /><use x="26502" y="850" xlink:href="#s19:catamaran-black:254" /></g><g id="line-1"><use x="5388" y="2050" xlink:href="#s19:catamaran-black:27" /><use x="6007" y="2050" xlink:href="#s19:catamaran-black:41" /><use x="6627" y="2050" xlink:href="#s19:catamaran-black:38" /><use x="7160" y="2050" xlink:href="#s19:catamaran-black:42" /><use x="7442" y="2050" xlink:href="#s19:catamaran-black:51" /><use x="7837" y="2050" xlink:href="#s19:catamaran-black:2" /><use x="8057" y="2050" xlink:href="#s19:catamaran-black:52" /><use x="8508" y="2050" xlink:href="#s19:catamaran-black:38" /><use x="9041" y="2050" xlink:href="#s19:catamaran-black:49" /><use x="9620" y="2050" xlink:href="#s19:catamaran-black:34" /><use x="10129" y="2050" xlink:href="#s19:catamaran-black:51" /><use x="10524" y="2050" xlink:href="#s19:catamaran-black:34" /><use x="11033" y="2050" xlink:href="#s19:catamaran-black:53" /><use x="11489" y="2050" xlink:href="#s19:catamaran-black:38" /><use x="12022" y="2050" xlink:href="#s19:catamaran-black:2" /><use x="12242" y="2050" xlink:href="#s19:catamaran-black:38" /><use x="12775" y="2050" xlink:href="#s19:catamaran-black:57" /><use x="13332" y="2050" xlink:href="#s19:catamaran-black:42" /><use x="13614" y="2050" xlink:href="#s19:catamaran-black:52" /><use x="14065" y="2050" xlink:href="#s19:catamaran-black:53" /><use x="14521" y="2050" xlink:href="#s19:catamaran-black:38" /><use x="15054" y="2050" xlink:href="#s19:catamaran-black:47" /><use x="15664" y="2050" xlink:href="#s19:catamaran-black:36" /><use x="16121" y="2050" xlink:href="#s19:catamaran-black:38" /><use x="16654" y="2050" xlink:href="#s19:catamaran-black:2" /><use x="16874" y="2050" xlink:href="#s19:catamaran-black:42" /><use x="17156" y="2050" xlink:href="#s19:catamaran-black:52" /><use x="17607" y="2050" xlink:href="#s19:catamaran-black:2" /><use x="17827" y="2050" xlink:href="#s19:catamaran-black:34" /><use x="18336" y="2050" xlink:href="#s19:catamaran-black:2" /><use x="18556" y="2050" xlink:href="#s19:catamaran-black:46" /><use x="19477" y="2050" xlink:href="#s19:catamaran-black:58" /><use x="20038" y="2050" xlink:href="#s19:catamaran-black:53" /><use x="20494" y="2050" xlink:href="#s19:catamaran-black:41" /><use x="21114" y="2050" xlink:href="#s19:catamaran-black:254" /></g><g id="line-2"><use x="6694.5" y="3250" xlink:href="#s19:catamaran-black:13" /><use x="7252.5" y="3250" xlink:href="#s19:catamaran-black:48" /><use x="7842.5" y="3250" xlink:href="#s19:catamaran-black:51" /><use x="8237.5" y="3250" xlink:href="#s19:catamaran-black:2" /><use x="8457.5" y="3250" xlink:href="#s19:catamaran-black:52" /><use x="8908.5" y="3250" xlink:href="#s19:catamaran-black:36" /><use x="9365.5" y="3250" xlink:href="#s19:catamaran-black:42" /><use x="9647.5" y="3250" xlink:href="#s19:catamaran-black:38" /><use x="10180.5" y="3250" xlink:href="#s19:catamaran-black:47" /><use x="10790.5" y="3250" xlink:href="#s19:catamaran-black:36" /><use x="11247.5" y="3250" xlink:href="#s19:catamaran-black:38" /><use x="11780.5" y="3250" xlink:href="#s19:catamaran-black:253" /><use x="12023.5" y="3250" xlink:href="#s19:catamaran-black:2" /><use x="12243.5" y="3250" xlink:href="#s19:catamaran-black:46" /><use x="13164.5" y="3250" xlink:href="#s19:catamaran-black:54" /><use x="13774.5" y="3250" xlink:href="#s19:catamaran-black:52" /><use x="14225.5" y="3250" xlink:href="#s19:catamaran-black:42" /><use x="14507.5" y="3250" xlink:href="#s19:catamaran-black:36" /><use x="14964.5" y="3250" xlink:href="#s19:catamaran-black:253" /><use x="15207.5" y="3250" xlink:href="#s19:catamaran-black:2" /><use x="15427.5" y="3250" xlink:href="#s19:catamaran-black:52" /><use x="15878.5" y="3250" xlink:href="#s19:catamaran-black:49" /><use x="16457.5" y="3250" xlink:href="#s19:catamaran-black:48" /><use x="17047.5" y="3250" xlink:href="#s19:catamaran-black:51" /><use x="17442.5" y="3250" xlink:href="#s19:catamaran-black:53" /><use x="17898.5" y="3250" xlink:href="#s19:catamaran-black:253" /><use x="18141.5" y="3250" xlink:href="#s19:catamaran-black:2" /><use x="18361.5" y="3250" xlink:href="#s19:catamaran-black:38" /><use x="18894.5" y="3250" xlink:href="#s19:catamaran-black:53" /><use x="19350.5" y="3250" xlink:href="#s19:catamaran-black:36" /><use x="19807.5" y="3250" xlink:href="#s19:catamaran-black:253" /></g></svg>