<svg xmlns="http://www.w3.org/2000/svg" xmlns:xlink="http://www.w3.org/1999/xlink" width="728" height="82" viewBox="0 0 30329 3415"><defs><path id="s8:comfortaa-regular:152" d="M604-781Q620-781 630-771Q640-761 640-745Q640-730 630-720Q620-710 604-710L366-710L366-39Q366-23 355-11.50Q344 0 327 0Q311 0 299.50-11.50Q288-23 288-39L288-710L51-710Q35-710 25-720Q15-730 15-745Q15-761 25-771Q35-781 51-781L604-781Z"/><path id="s8:comfortaa-regular:264" d="M349-553Q420-553 476.50-523Q533-493 565-435.50Q597-378 597-298L597-38Q597-22 586-11Q575 0 559 0Q542 0 531-11Q520-22 520-38L520-298Q520-387 470.50-433.50Q421-480 341-480Q292-480 252.50-461Q213-442 190-408.50Q167-375 167-334L167-38Q167-21 156.50-10.50Q146 0 129 0Q112 0 101-10.50Q90-21 90-38L90-742Q90-759 101-770Q112-781 129-781Q146-781 156.50-770Q167-759 167-742L167-474Q200-511 247-532Q294-553 349-553Z"/><path id="s8:comfortaa-regular:236" d="M323-552Q397-552 454-517.50Q511-483 542.50-422Q574-361 574-283Q574-267 564-257.50Q554-248 538-248L134-248Q142-166 198-115Q254-64 338-64Q374-64 410.50-76.50Q447-89 469-108Q482-118 496-118Q507-118 518-110Q531-98 531-83Q531-70 520-60Q487-32 436-13.50Q385 5 338 5Q258 5 195-30.50Q132-66 96.50-129.50Q61-193 61-273Q61-354 94.50-417.50Q128-481 187.50-516.50Q247-552 323-552M323-483Q247-483 197-436Q147-389 136-312L502-312Q494-389 446-436Q398-483 323-483Z"/><path id="s8:comfortaa-regular:3" d=""/><path id="s8:comfortaa-regular:42" d="M139 0Q123 0 111.50-11.50Q100-23 100-39L100-742Q100-759 111.50-770Q123-781 139-781L608-781Q625-781 636-770Q647-759 647-743Q647-727 636-716.50Q625-706 608-706L178-706L178-430L491-430Q508-430 519-419Q530-408 530-392Q530-376 518.50-365Q507-354 491-354L178-354L178-75L608-75Q625-75 636-64.50Q647-54 647-38Q647-22 636-11Q625 0 608 0L139 0Z"/><path id="s8:comfortaa-regular:355" d="M548-547Q565-547 576-536.50Q587-526 587-509L587-39Q587-22 576-11Q565 0 548 0Q531 0 520.50-11Q510-22 510-39L510-73Q477-36 430-15Q383 6 328 6Q257 6 200.50-24Q144-54 112-111.50Q80-169 80-249L80-509Q80-525 91-536Q102-547 118-547Q135-547 146-536Q157-525 157-509L157-249Q157-160 206.50-113.50Q256-67 336-67Q385-67 424.50-86Q464-105 487-138.50Q510-172 510-213L510-509Q510-526 520.50-536.50Q531-547 548-547Z"/><path id="s8:comfortaa-regular:336" d="M337-553Q379-553 403.50-542Q428-531 428-511Q428-505 427-502Q423-488 414.50-483Q406-478 391-478Q382-478 360-480Q352-481 336-481Q261-481 213.50-441Q166-401 166-337L166-38Q166-20 156-10Q146 0 128 0Q110 0 100-10Q90-20 90-38L90-509Q90-527 100-537Q110-547 128-547Q146-547 156-537Q166-527 166-509L166-465Q195-507 240-530Q285-553 337-553Z"/><path id="s8:comfortaa-regular:302" d="M339 5Q260 5 196.50-31Q133-67 97-130.50Q61-194 61-273Q61-352 97-416Q133-480 196.50-516Q260-552 339-552Q418-552 481-516Q544-480 580.50-416Q617-352 617-273Q617-194 581-130.50Q545-67 481.50-31Q418 5 339 5M339-65Q397-65 443-92Q489-119 515-166.50Q541-214 541-273Q541-333 515-380.50Q489-428 443-455Q397-482 339-482Q282-482 235.50-455Q189-428 162.50-380.50Q136-333 136-273Q136-214 162.50-166.50Q189-119 235.50-92Q282-65 339-65Z"/><path id="s8:comfortaa-regular:333" d="M368-552Q446-552 509.50-515.50Q573-479 609.50-415Q646-351 646-273Q646-195 610.50-131.50Q575-68 513.50-31.50Q452 5 376 5Q311 5 257-22.50Q203-50 168-98L168 195Q168 212 157 223Q146 234 129 234Q112 234 101.50 223Q91 212 91 195L91-29Q90-32 90-38L90-273Q90-351 126.50-415Q163-479 226.50-515.50Q290-552 368-552M368-65Q425-65 471.50-92Q518-119 544.50-166.50Q571-214 571-273Q571-332 544.50-379.50Q518-427 471.50-454.50Q425-482 368-482Q311-482 265-454.50Q219-427 192.50-379.50Q166-332 166-273Q166-256 167-248Q168-246 168-243Q178-165 233.50-115Q289-65 368-65Z"/><path id="s8:comfortaa-regular:198" d="M339-552Q417-552 480.50-515.50Q544-479 580.50-415Q617-351 617-273L617-38Q617-22 606-11Q595 0 578 0Q561 0 550-10.50Q539-21 539-38L539-98Q504-50 450-22.50Q396 5 331 5Q255 5 193.50-31.50Q132-68 96.50-131.50Q61-195 61-273Q61-351 97.50-415Q134-479 197.50-515.50Q261-552 339-552M339-65Q396-65 442-92Q488-119 514.50-166.50Q541-214 541-273Q541-332 514.50-379.50Q488-427 442-454.50Q396-482 339-482Q282-482 235.50-454.50Q189-427 162.50-379.50Q136-332 136-273Q136-214 162.50-166.50Q189-119 235.50-92Q282-65 339-65Z"/><path id="s8:comfortaa-regular:296" d="M349-553Q420-553 476.50-523Q533-493 565-435.50Q597-378 597-298L597-38Q597-22 586-11Q575 0 559 0Q542 0 531-11Q520-22 520-38L520-298Q520-387 470.50-433.50Q421-480 341-480Q292-480 252.50-461Q213-442 190-408.50Q167-375 167-334L167-38Q167-21 156.50-10.50Q146 0 129 0Q112 0 101-10.50Q90-21 90-38L90-508Q90-525 101-536Q112-547 129-547Q146-547 156.50-536Q167-525 167-508L167-474Q200-511 247-532Q294-553 349-553Z"/><path id="s8:comfortaa-regular:289" d="M208 0Q147 0 108.50-48.50Q70-97 70-173L70-743Q70-760 81-770.50Q92-781 108-781Q125-781 135.50-770.50Q146-760 146-743L146-173Q146-130 163.50-103Q181-76 208-76L233-76Q248-76 257-65.50Q266-55 266-38Q266-21 253.50-10.50Q241 0 221 0L208 0Z"/><path id="s8:comfortaa-regular:258" d="M339-552Q419-552 482-516.50Q545-481 581-417.50Q617-354 617-273L617-69Q617 11 581.50 76Q546 141 483 178.50Q420 216 341 216Q264 216 204 187Q144 158 103 106Q94 96 94 83Q94 68 108 57Q118 50 130 50Q139 50 148 54.50Q157 59 162 66Q192 104 238 125Q284 146 342 146Q398 146 443.50 118.50Q489 91 515 41.50Q541-8 541-72L541-117Q511-60 456-27.50Q401 5 331 5Q253 5 191.50-30.50Q130-66 95.50-129.50Q61-193 61-273Q61-354 97-417.50Q133-481 196.50-516.50Q260-552 339-552M339-65Q397-65 443-91.50Q489-118 515-165.50Q541-213 541-273Q541-333 515-380.50Q489-428 443-455Q397-482 339-482Q280-482 234-455Q188-428 162-380.50Q136-333 136-273Q136-213 162-165.50Q188-118 234-91.50Q280-65 339-65Z"/><path id="s8:comfortaa-regular:342" d="M281 5Q219 5 162-16Q105-37 70-75Q60-87 60-98Q60-115 76-128Q88-137 101-137Q118-137 130-123Q154-95 193.50-80Q233-65 281-65Q351-65 386-89Q421-113 422-152Q422-188 387-212Q352-236 276-248Q178-264 129.50-303.50Q81-343 81-399Q81-472 137.50-512Q194-552 279-552Q345-552 394-529.50Q443-507 473-467Q481-454 481-444Q481-427 465-417Q458-412 446-412Q425-412 411-427Q362-483 277-483Q222-483 189-460.50Q156-438 156-404Q156-368 187-346.50Q218-325 297-312Q404-294 450-253.50Q496-213 496-153Q496-107 468.50-71Q441-35 392-15Q343 5 281 5Z"/><path id="s8:comfortaa-regular:295" d="M666-553Q725-553 770.50-525Q816-497 841.50-445.50Q867-394 867-326L867-38Q867-21 856.50-10.50Q846 0 829 0Q812 0 801-10.50Q790-21 790-38L790-326Q790-397 753.50-438.50Q717-480 658-480Q595-480 556-438Q517-396 518-328L518-326L518-38Q518-21 507.50-10.50Q497 0 480 0Q463 0 452-10.50Q441-21 441-38L441-326Q441-397 404.50-438.50Q368-480 309-480Q247-480 207-439Q167-398 167-334L167-38Q167-21 156.50-10.50Q146 0 129 0Q112 0 101-10.50Q90-21 90-38L90-508Q90-525 101-536Q112-547 129-547Q146-547 156.50-536Q167-525 167-508L167-486Q195-518 233.50-535.50Q272-553 317-553Q372-553 416-528Q460-503 486-458Q515-503 561.50-528Q608-553 666-553Z"/><path id="s8:comfortaa-regular:225" d="M376-552Q452-552 513.50-515.50Q575-479 610.50-415.50Q646-352 646-274Q646-196 609.50-132Q573-68 509.50-31.50Q446 5 368 5Q290 5 226.50-31.50Q163-68 126.50-132Q90-196 90-274L90-509Q90-515 91-518L91-742Q91-759 101.50-770Q112-781 129-781Q146-781 157-770Q168-759 168-742L168-449Q203-497 257-524.50Q311-552 376-552M368-65Q425-65 471.50-92.50Q518-120 544.50-167.50Q571-215 571-274Q571-333 544.50-380.50Q518-428 471.50-455Q425-482 368-482Q289-482 233.50-432Q178-382 168-304Q168-301 167-299Q166-291 166-274Q166-215 192.50-167.50Q219-120 265-92.50Q311-65 368-65Z"/><path id="s8:comfortaa-regular:257" d="M331-711Q265-711 231.50-667Q198-623 198-550L198-527L318-527Q334-527 343.50-517.50Q353-508 353-493Q353-479 343.50-469.50Q334-460 318-460L198-460L198-39Q198-21 187.50-10.50Q177 0 158 0Q142 0 131.50-10.50Q121-21 121-39L121-460L57-460Q41-460 31.50-469.50Q22-479 22-493Q22-508 31.50-517.50Q41-527 57-527L121-527L121-546Q121-653 176-717Q231-781 331-781Q348-781 359-771Q370-761 370-746Q370-731 359-721Q348-711 331-711Z"/><path id="s8:comfortaa-regular:350" d="M331-77Q347-77 357-66Q367-55 367-38Q367-22 355-11Q343 0 325 0L304 0Q251 0 209-25.50Q167-51 143.50-94.50Q120-138 120-193L120-460L55-460Q39-460 29.50-469.50Q20-479 20-493Q20-508 29.50-517.50Q39-527 55-527L120-527L120-682Q120-699 130.50-710Q141-721 158-721Q175-721 186-710Q197-699 197-682L197-527L310-527Q326-527 335.50-517.50Q345-508 345-493Q345-479 335.50-469.50Q326-460 310-460L197-460L197-193Q197-142 227-109.50Q257-77 304-77L331-77Z"/><path id="s8:comfortaa-regular:267" d="M145 0Q128 0 117-11Q106-22 106-39L106-508Q106-525 117-536Q128-547 145-547Q162-547 172.50-536Q183-525 183-508L183-39Q183-22 172.50-11Q162 0 145 0M144-651Q121-651 105.50-667Q90-683 90-706Q90-730 106-745Q122-760 145-760Q167-760 183-745Q199-730 199-706Q199-683 183-667Q167-651 144-651Z"/><path id="s8:comfortaa-regular:383" d="M518-544Q541-535 541-515Q541-506 537-497L213 215Q204 238 184 238Q174 238 166 234Q143 225 143 204Q143 195 147 186L246-33L246-34L23-496Q19-504 19-514Q19-535 41-544Q49-548 59-548Q80-548 89-527L284-116L470-526Q480-548 500-548Q509-548 518-544Z"/><path id="s8:comfortaa-regular:690" d="M108 16Q84 16 67-1Q50-18 50-42Q50-67 67.50-84Q85-101 108-101Q132-101 149-83.50Q166-66 166-42Q166-18 149-1Q132 16 108 16Z"/><path id="s8:comfortaa-regular:382" d="M495-60Q506-46 506-33Q506-19 495.50-9.50Q485 0 472 0Q460 0 452-4Q444-8 437-18L273-227L103-12Q94 0 76 0Q60 0 50.50-10Q41-20 41-34Q41-50 51-61L224-277L60-485Q50-496 50-512Q50-527 59-537Q68-547 85-547Q102-547 114-535L275-328L434-529Q448-547 467-547Q483-547 492.50-537Q502-527 502-513Q502-498 491-484L325-278L495-60Z"/><path id="s8:comfortaa-regular:226" d="M334 5Q256 5 194-31.50Q132-68 96.50-131.50Q61-195 61-273Q61-353 95-416.50Q129-480 189-516Q249-552 324-552Q449-552 527-456Q535-447 535-435Q535-419 518-407Q509-401 499-401Q484-401 470-416Q440-449 404-465.50Q368-482 324-482Q269-482 226-455.50Q183-429 159.50-381Q136-333 136-273Q136-214 161-166.50Q186-119 231-92Q276-65 334-65Q414-65 463-108Q476-119 490-119Q502-119 512-111Q526-99 526-84Q526-71 516-62Q444 5 334 5Z"/><path id="s8:comfortaa-regular:62" d="M77 0Q61 0 49.50-11.50Q38-23 38-39L38-742Q38-759 49.50-770Q61-781 77-781L546-781Q563-781 574-770Q585-759 585-743Q585-727 574-716.50Q563-706 546-706L116-706L116-430L429-430Q446-430 457-419.50Q468-409 468-392Q468-376 457-365Q446-354 429-354L116-354L116-39Q116-23 105-11.50Q94 0 77 0Z"/><path id="s8:comfortaa-regular:683" d="M108-102Q139-102 157.50-78.50Q176-55 176-13Q176 24 162 65.50Q148 107 125.50 134.50Q103 162 81 162Q60 162 60 142Q60 133 64 124.50Q68 116 77 105Q87 90 92 79Q97 68 97 54Q97 38 91 27Q85 16 73 2Q61-12 55.50-22Q50-32 50-47Q50-72 66.50-87Q83-102 108-102Z"/></defs><g id="line-0"><use x="0" y="781" xlink:href="#s8:comfortaa-regular:152"/><use x="655" y="781" xlink:href="#s8:comfortaa-regular:264"/><use x="1332" y="781" xlink:href="#s8:comfortaa-regular:236"/><use x="1946" y="781" xlink:href="#s8:comfortaa-regular:3"/><use x="2239" y="781" xlink:href="#s8:comfortaa-regular:42"/><use x="2931" y="781" xlink:href="#s8:comfortaa-regular:355"/><use x="3608" y="781" xlink:href="#s8:comfortaa-regular:336"/><use x="4066" y="781" xlink:href="#s8:comfortaa-regular:302"/><use x="4743" y="781" xlink:href="#s8:comfortaa-regular:333"/><use x="5450" y="781" xlink:href="#s8:comfortaa-regular:236"/><use x="6064" y="781" xlink:href="#s8:comfortaa-regular:198"/><use x="6741" y="781" xlink:href="#s8:comfortaa-regular:296"/><use x="7418" y="781" xlink:href="#s8:comfortaa-regular:3"/><use x="7711" y="781" xlink:href="#s8:comfortaa-regular:289"/><use x="7993" y="781" xlink:href="#s8:comfortaa-regular:198"/><use x="8670" y="781" xlink:href="#s8:comfortaa-regular:296"/><use x="9347" y="781" xlink:href="#s8:comfortaa-regular:258"/><use x="10024" y="781" xlink:href="#s8:comfortaa-regular:355"/><use x="10701" y="781" xlink:href="#s8:comfortaa-regular:198"/><use x="11378" y="781" xlink:href="#s8:comfortaa-regular:258"/><use x="12055" y="781" xlink:href="#s8:comfortaa-regular:236"/><use x="12669" y="781" xlink:href="#s8:comfortaa-regular:342"/><use x="13208" y="781" xlink:href="#s8:comfortaa-regular:3"/><use x="13501" y="781" xlink:href="#s8:comfortaa-regular:198"/><use x="14178" y="781" xlink:href="#s8:comfortaa-regular:336"/><use x="14636" y="781" xlink:href="#s8:comfortaa-regular:236"/><use x="15250" y="781" xlink:href="#s8:comfortaa-regular:3"/><use x="15543" y="781" xlink:href="#s8:comfortaa-regular:295"/><use x="16490" y="781" xlink:href="#s8:comfortaa-regular:236"/><use x="17104" y="781" xlink:href="#s8:comfortaa-regular:295"/><use x="18051" y="781" xlink:href="#s8:comfortaa-regular:225"/><use x="18758" y="781" xlink:href="#s8:comfortaa-regular:236"/><use x="19372" y="781" xlink:href="#s8:comfortaa-regular:336"/><use x="19830" y="781" xlink:href="#s8:comfortaa-regular:342"/><use x="20369" y="781" xlink:href="#s8:comfortaa-regular:3"/><use x="20662" y="781" xlink:href="#s8:comfortaa-regular:302"/><use x="21339" y="781" xlink:href="#s8:comfortaa-regular:257"/><use x="21705" y="781" xlink:href="#s8:comfortaa-regular:3"/><use x="21998" y="781" xlink:href="#s8:comfortaa-regular:350"/><use x="22400" y="781" xlink:href="#s8:comfortaa-regular:264"/><use x="23077" y="781" xlink:href="#s8:comfortaa-regular:236"/><use x="23691" y="781" xlink:href="#s8:comfortaa-regular:3"/><use x="23984" y="781" xlink:href="#s8:comfortaa-regular:342"/><use x="24523" y="781" xlink:href="#s8:comfortaa-regular:198"/><use x="25200" y="781" xlink:href="#s8:comfortaa-regular:295"/><use x="26147" y="781" xlink:href="#s8:comfortaa-regular:236"/><use x="26761" y="781" xlink:href="#s8:comfortaa-regular:3"/><use x="27054" y="781" xlink:href="#s8:comfortaa-regular:257"/><use x="27420" y="781" xlink:href="#s8:comfortaa-regular:198"/><use x="28097" y="781" xlink:href="#s8:comfortaa-regular:295"/><use x="29044" y="781" xlink:href="#s8:comfortaa-regular:267"/><use x="29333" y="781" xlink:href="#s8:comfortaa-regular:289"/><use x="29615" y="781" xlink:href="#s8:comfortaa-regular:383"/><use x="30163" y="781" xlink:href="#s8:comfortaa-regular:690"/></g><g id="line-1"><use x="6172.5" y="1981" xlink:href="#s8:comfortaa-regular:152"/><use x="6827.5" y="1981" xlink:href="#s8:comfortaa-regular:264"/><use x="7504.5" y="1981" xlink:href="#s8:comfortaa-regular:236"/><use x="8118.5" y="1981" xlink:href="#s8:comfortaa-regular:267"/><use x="8407.5" y="1981" xlink:href="#s8:comfortaa-regular:336"/><use x="8865.5" y="1981" xlink:href="#s8:comfortaa-regular:3"/><use x="9158.5" y="1981" xlink:href="#s8:comfortaa-regular:342"/><use x="9697.5" y="1981" xlink:href="#s8:comfortaa-regular:236"/><use x="10311.5" y="1981" xlink:href="#s8:comfortaa-regular:333"/><use x="11018.5" y="1981" xlink:href="#s8:comfortaa-regular:198"/><use x="11695.5" y="1981" xlink:href="#s8:comfortaa-regular:336"/><use x="12153.5" y="1981" xlink:href="#s8:comfortaa-regular:198"/><use x="12830.5" y="1981" xlink:href="#s8:comfortaa-regular:350"/><use x="13232.5" y="1981" xlink:href="#s8:comfortaa-regular:236"/><use x="13846.5" y="1981" xlink:href="#s8:comfortaa-regular:3"/><use x="14139.5" y="1981" xlink:href="#s8:comfortaa-regular:236"/><use x="14753.5" y="1981" xlink:href="#s8:comfortaa-regular:382"/><use x="15301.5" y="1981" xlink:href="#s8:comfortaa-regular:267"/><use x="15590.5" y="1981" xlink:href="#s8:comfortaa-regular:342"/><use x="16129.5" y="1981" xlink:href="#s8:comfortaa-regular:350"/><use x="16531.5" y="1981" xlink:href="#s8:comfortaa-regular:236"/><use x="17145.5" y="1981" xlink:href="#s8:comfortaa-regular:296"/><use x="17822.5" y="1981" xlink:href="#s8:comfortaa-regular:226"/><use x="18418.5" y="1981" xlink:href="#s8:comfortaa-regular:236"/><use x="19032.5" y="1981" xlink:href="#s8:comfortaa-regular:3"/><use x="19325.5" y="1981" xlink:href="#s8:comfortaa-regular:267"/><use x="19614.5" y="1981" xlink:href="#s8:comfortaa-regular:342"/><use x="20153.5" y="1981" xlink:href="#s8:comfortaa-regular:3"/><use x="20446.5" y="1981" xlink:href="#s8:comfortaa-regular:198"/><use x="21123.5" y="1981" xlink:href="#s8:comfortaa-regular:3"/><use x="21416.5" y="1981" xlink:href="#s8:comfortaa-regular:295"/><use x="22363.5" y="1981" xlink:href="#s8:comfortaa-regular:383"/><use x="22911.5" y="1981" xlink:href="#s8:comfortaa-regular:350"/><use x="23313.5" y="1981" xlink:href="#s8:comfortaa-regular:264"/><use x="23990.5" y="1981" xlink:href="#s8:comfortaa-regular:690"/></g><g id="line-2"><use x="7587.5" y="3181" xlink:href="#s8:comfortaa-regular:62"/><use x="8212.5" y="3181" xlink:href="#s8:comfortaa-regular:302"/><use x="8889.5" y="3181" xlink:href="#s8:comfortaa-regular:336"/><use x="9347.5" y="3181" xlink:href="#s8:comfortaa-regular:3"/><use x="9640.5" y="3181" xlink:href="#s8:comfortaa-regular:342"/><use x="10179.5" y="3181" xlink:href="#s8:comfortaa-regular:226"/><use x="10775.5" y="3181" xlink:href="#s8:comfortaa-regular:267"/><use x="11064.5" y="3181" xlink:href="#s8:comfortaa-regular:236"/><use x="11678.5" y="3181" xlink:href="#s8:comfortaa-regular:296"/><use x="12355.5" y="3181" xlink:href="#s8:comfortaa-regular:226"/><use x="12951.5" y="3181" xlink:href="#s8:comfortaa-regular:236"/><use x="13565.5" y="3181" xlink:href="#s8:comfortaa-regular:683"/><use x="13791.5" y="3181" xlink:href="#s8:comfortaa-regular:3"/><use x="14084.5" y="3181" xlink:href="#s8:comfortaa-regular:295"/><use x="15031.5" y="3181" xlink:href="#s8:comfortaa-regular:355"/><use x="15708.5" y="3181" xlink:href="#s8:comfortaa-regular:342"/><use x="16247.5" y="3181" xlink:href="#s8:comfortaa-regular:267"/><use x="16536.5" y="3181" xlink:href="#s8:comfortaa-regular:226"/><use x="17132.5" y="3181" xlink:href="#s8:comfortaa-regular:683"/><use x="17358.5" y="3181" xlink:href="#s8:comfortaa-regular:3"/><use x="17651.5" y="3181" xlink:href="#s8:comfortaa-regular:342"/><use x="18190.5" y="3181" xlink:href="#s8:comfortaa-regular:333"/><use x="18897.5" y="3181" xlink:href="#s8:comfortaa-regular:302"/><use x="19574.5" y="3181" xlink:href="#s8:comfortaa-regular:336"/><use x="20032.5" y="3181" xlink:href="#s8:comfortaa-regular:350"/><use x="20434.5" y="3181" xlink:href="#s8:comfortaa-regular:683"/><use x="20660.5" y="3181" xlink:href="#s8:comfortaa-regular:3"/><use x="20953.5" y="3181" xlink:href="#s8:comfortaa-regular:236"/><use x="21567.5" y="3181" xlink:href="#s8:comfortaa-regular:350"/><use x="21969.5" y="3181" xlink:href="#s8:comfortaa-regular:226"/><use x="22565.5" y="3181" xlink:href="#s8:comfortaa-regular:683"/></g></svg>