<svg xmlns="http://www.w3.org/2000/svg" xmlns:xlink="http://www.w3.org/1999/xlink" width="733" height="82" viewBox="0 0 30526 3415"><defs><path id="s6:comfortaa-bold:152" d="M598-781Q619-781 632.50-767.50Q646-754 646-733Q646-712 632.50-698.50Q619-685 598-685L383-685L383-52Q383-30 368-15Q353 0 331 0Q309 0 294-15Q279-30 279-52L279-685L63-685Q42-685 28.50-698.50Q15-712 15-733Q15-754 28.50-767.50Q42-781 63-781L598-781Z"/><path id="s6:comfortaa-bold:264" d="M362-552Q431-552 486-522Q541-492 572-434.50Q603-377 603-296L603-50Q603-28 588.50-13.50Q574 1 552 1Q530 1 515.50-13.50Q501-28 501-50L501-296Q501-377 457.50-418.50Q414-460 342-460Q300-460 265.50-443Q231-426 211.50-397Q192-368 192-332L192-50Q192-28 178-13.50Q164 1 141 1Q119 1 104.50-13.50Q90-28 90-50L90-730Q90-753 104.50-767Q119-781 141-781Q164-781 178-767Q192-753 192-730L192-485Q224-517 268-534.50Q312-552 362-552Z"/><path id="s6:comfortaa-bold:236" d="M581-282Q581-263 568-250.50Q555-238 535-238L155-238Q166-168 218.50-125Q271-82 347-82Q377-82 409.50-93Q442-104 463-120Q477-131 496-131Q515-131 526-121Q544-106 544-87Q544-69 528-57Q494-30 443.50-13Q393 4 347 4Q265 4 200-31.50Q135-67 98.50-130Q62-193 62-273Q62-353 96.50-416.50Q131-480 192.50-515.50Q254-551 332-551Q409-551 465-517Q521-483 551-422Q581-361 581-282M332-465Q259-465 213.50-425Q168-385 156-318L489-318Q480-385 439-425Q398-465 332-465Z"/><path id="s6:comfortaa-bold:3" d=""/><path id="s6:comfortaa-bold:42" d="M152 0Q130 0 115-15Q100-30 100-52L100-729Q100-752 115-766.50Q130-781 152-781L604-781Q627-781 641-767.50Q655-754 655-732Q655-711 641-698Q627-685 604-685L204-685L204-442L491-442Q513-442 527.50-428.50Q542-415 542-394Q542-373 527.50-359.50Q513-346 491-346L204-346L204-96L604-96Q627-96 641-83Q655-70 655-49Q655-27 641-13.50Q627 0 604 0L152 0Z"/><path id="s6:comfortaa-bold:355" d="M541-548Q564-548 578-534Q592-520 592-497L592-51Q592-29 578-14.50Q564 0 541 0Q519 0 504.50-14.50Q490-29 490-51L490-62Q458-30 414-12.50Q370 5 320 5Q251 5 196-25Q141-55 110-112.50Q79-170 79-251L79-497Q79-519 93.50-533.50Q108-548 130-548Q152-548 166.50-533.50Q181-519 181-497L181-251Q181-170 224.50-128.50Q268-87 340-87Q382-87 416.50-104Q451-121 470.50-150Q490-179 490-215L490-497Q490-520 504.50-534Q519-548 541-548Z"/><path id="s6:comfortaa-bold:336" d="M358-553Q411-553 441-537Q471-521 471-497Q471-490 470-487Q461-455 430-455Q425-455 415-457Q375-464 350-464Q278-464 234-431Q190-398 190-342L190-50Q190-26 177.50-13Q165 0 140 0Q116 0 103-12.50Q90-25 90-50L90-497Q90-521 103-534Q116-547 140-547Q190-547 190-497L190-478Q220-513 264-533Q308-553 358-553Z"/><path id="s6:comfortaa-bold:302" d="M338 4Q258 4 195-31.50Q132-67 97-130Q62-193 62-273Q62-354 97-417Q132-480 195-515.50Q258-551 338-551Q417-551 479.50-515.50Q542-480 577.50-417Q613-354 613-273Q613-193 578-130Q543-67 480.50-31.50Q418 4 338 4M338-86Q389-86 429.50-110Q470-134 492.50-176.50Q515-219 515-273Q515-327 492.50-370Q470-413 429.50-437Q389-461 338-461Q287-461 246.50-437Q206-413 183-370Q160-327 160-273Q160-219 183-176.50Q206-134 246.50-110Q287-86 338-86Z"/><path id="s6:comfortaa-bold:333" d="M365-551Q442-551 505.50-514.50Q569-478 605-414.50Q641-351 641-273Q641-195 607.50-131.50Q574-68 515.50-32Q457 4 385 4Q327 4 277-20Q227-44 192-87L192 183Q192 206 178 220Q164 234 141 234Q119 234 104.50 220Q90 206 90 183L90-273Q90-351 126.50-414.50Q163-478 225.50-514.50Q288-551 365-551M365-86Q415-86 455.50-110.50Q496-135 519.50-177.50Q543-220 543-273Q543-326 519.50-369Q496-412 455.50-436.50Q415-461 365-461Q315-461 274.50-436.50Q234-412 211-369Q188-326 188-273Q188-220 211-177.50Q234-135 274.50-110.50Q315-86 365-86Z"/><path id="s6:comfortaa-bold:198" d="M338-551Q415-551 477.50-514.50Q540-478 576.50-414.50Q613-351 613-273L613-50Q613-28 598.50-13.50Q584 1 562 1Q540 1 525.50-13.50Q511-28 511-50L511-87Q476-44 426-20Q376 4 318 4Q246 4 187.50-32Q129-68 95.50-131.50Q62-195 62-273Q62-351 98-414.50Q134-478 197.50-514.50Q261-551 338-551M338-86Q388-86 428.50-110.50Q469-135 492-177.50Q515-220 515-273Q515-326 492-369Q469-412 428.50-436.50Q388-461 338-461Q288-461 247.50-436.50Q207-412 183.50-369Q160-326 160-273Q160-220 183.50-177.50Q207-135 247.50-110.50Q288-86 338-86Z"/><path id="s6:comfortaa-bold:296" d="M362-552Q431-552 486-522Q541-492 572-434.50Q603-377 603-296L603-50Q603-28 588.50-13.50Q574 1 552 1Q530 1 515.50-13.50Q501-28 501-50L501-296Q501-377 457.50-418.50Q414-460 342-460Q300-460 265.50-443Q231-426 211.50-397Q192-368 192-332L192-50Q192-28 178-13.50Q164 1 141 1Q119 1 104.50-13.50Q90-28 90-50L90-496Q90-519 104.50-533Q119-547 141-547Q164-547 178-533Q192-519 192-496L192-485Q224-517 268-534.50Q312-552 362-552Z"/><path id="s6:comfortaa-bold:289" d="M220 0Q177 0 142.50-23.50Q108-47 89-89.50Q70-132 70-185L70-731Q70-753 84-767Q98-781 120-781Q142-781 156-767Q170-753 170-731L170-185Q170-148 184-124Q198-100 220-100L245-100Q265-100 277.50-86Q290-72 290-50Q290-28 271-14Q252 0 222 0L220 0Z"/><path id="s6:comfortaa-bold:258" d="M338-551Q417-551 479.50-515.50Q542-480 577.50-417Q613-354 613-273L613-57Q613 22 578 87Q543 152 479.50 189.50Q416 227 336 227Q264 227 202 198.50Q140 170 98 117Q87 103 87 89Q87 68 108 53Q122 44 136 44Q161 44 177 65Q204 100 245 118.50Q286 137 338 137Q387 137 427 113.50Q467 90 491 44.50Q515-1 515-64L515-113Q484-58 433-27Q382 4 318 4Q244 4 185.50-31.50Q127-67 94.50-130Q62-193 62-273Q62-354 97-417Q132-480 195-515.50Q258-551 338-551M338-86Q389-86 429.50-110Q470-134 492.50-176.50Q515-219 515-273Q515-327 492.50-370Q470-413 429.50-437Q389-461 338-461Q287-461 246.50-437Q206-413 183-370Q160-327 160-273Q160-219 183-176.50Q206-134 246.50-110Q287-86 338-86Z"/><path id="s6:comfortaa-bold:342" d="M289 4Q221 4 161-17Q101-38 67-72Q54-85 54-103Q54-127 74-142Q93-156 109-156Q129-156 147-138Q166-117 204-101.50Q242-86 285-86Q342-86 373.50-105Q405-124 405-156Q405-187 374-207.50Q343-228 269-242Q77-279 77-400Q77-449 106-483Q135-517 182-534Q229-551 282-551Q347-551 398.50-530Q450-509 480-472Q493-456 493-440Q493-423 476-409Q465-401 448-401Q422-401 401-420Q376-443 348-452.50Q320-462 280-462Q234-462 204.50-446.50Q175-431 175-403Q175-383 185-369.50Q195-356 223-344.50Q251-333 304-322Q413-300 458.50-261Q504-222 504-160Q504-114 479-76.50Q454-39 405.50-17.50Q357 4 289 4Z"/><path id="s6:comfortaa-bold:295" d="M665-552Q752-552 805.50-495Q859-438 859-336L859-50Q859-28 845-13.50Q831 1 808 1Q786 1 771.50-13.50Q757-28 757-50L757-336Q757-397 726.50-428.50Q696-460 645-460Q593-460 559.50-424Q526-388 526-332L526-50Q526-28 512-13.50Q498 1 475 1Q453 1 438.50-13.50Q424-28 424-50L424-336Q424-397 393.50-428.50Q363-460 312-460Q259-460 225.50-424Q192-388 192-332L192-50Q192-28 178-13.50Q164 1 141 1Q119 1 104.50-13.50Q90-28 90-50L90-495Q90-518 104.50-532Q119-546 141-546Q163-546 177-532.50Q191-519 192-497Q218-523 254-537.50Q290-552 332-552Q383-552 423.50-531.50Q464-511 490-473Q520-510 565-531Q610-552 665-552Z"/><path id="s6:comfortaa-bold:225" d="M385-551Q457-551 515.50-515Q574-479 607.50-415.50Q641-352 641-274Q641-196 605-132.50Q569-69 505.50-32.50Q442 4 365 4Q288 4 225.50-32.50Q163-69 126.50-132.50Q90-196 90-274L90-730Q90-753 104.50-767Q119-781 141-781Q164-781 178-767Q192-753 192-730L192-460Q227-503 277-527Q327-551 385-551M365-86Q415-86 455.50-110.50Q496-135 519.50-178Q543-221 543-274Q543-327 519.50-369.50Q496-412 455.50-436.50Q415-461 365-461Q315-461 274.50-436.50Q234-412 211-369.50Q188-327 188-274Q188-221 211-178Q234-135 274.50-110.50Q315-86 365-86Z"/><path id="s6:comfortaa-bold:257" d="M326-689Q270-689 236-652Q202-615 202-554L202-527L304-527Q325-527 338-515Q351-503 351-483Q351-465 338-453Q325-441 304-441L202-441L202-51Q202-28 188-14Q174 0 149 0Q129 0 114.50-14Q100-28 100-51L100-441L57-441Q36-441 23-453Q10-465 10-483Q10-503 23-515Q36-527 57-527L100-527L100-544Q100-615 128.50-668.50Q157-722 208.50-751.50Q260-781 326-781Q348-781 362.50-768Q377-755 377-735Q377-715 362.50-702Q348-689 326-689Z"/><path id="s6:comfortaa-bold:350" d="M323-100Q341-100 353.50-86Q366-72 366-50Q366-28 349.50-14Q333 0 307 0L289 0Q240 0 199.50-25.50Q159-51 136-95Q113-139 113-194L113-441L67-441Q46-441 33-453Q20-465 20-483Q20-503 33-515Q46-527 67-527L113-527L113-671Q113-693 127-707Q141-721 163-721Q185-721 199-707Q213-693 213-671L213-527L298-527Q319-527 332-515Q345-503 345-483Q345-465 332-453Q319-441 298-441L213-441L213-194Q213-154 235-127Q257-100 289-100L323-100Z"/><path id="s6:comfortaa-bold:267" d="M151 0Q129 0 114.50-14.50Q100-29 100-51L100-496Q100-519 114.50-533Q129-547 151-547Q174-547 188-533Q202-519 202-496L202-51Q202-29 188-14.50Q174 0 151 0M151-636Q124-636 104.50-655.50Q85-675 85-702Q85-729 104.50-748.50Q124-768 151-768Q178-768 197.50-748.50Q217-729 217-702Q217-675 197.50-655.50Q178-636 151-636Z"/><path id="s6:comfortaa-bold:383" d="M508-542Q539-530 539-503Q539-493 533-479L227 209Q215 240 188 240Q178 240 164 234Q134 221 134 195Q134 183 140 171L240-54L15-481Q10-490 10-502Q10-515 18-526Q26-537 39-543Q48-547 59-547Q87-547 101-519L284-155L445-518Q458-547 484-547Q497-547 508-542Z"/><path id="s6:comfortaa-bold:690" d="M119 16Q91 16 70.50-4.50Q50-25 50-53Q50-82 70.50-102.50Q91-123 119-123Q147-123 167.50-102.50Q188-82 188-53Q188-25 168-4.50Q148 16 119 16Z"/><path id="s6:comfortaa-bold:382" d="M505-77Q519-62 519-42Q519-24 506.50-12Q494 0 474 0Q450 0 438-16L279-206L128-16Q113 0 92 0Q72 0 60.50-12Q49-24 49-42Q49-62 63-79L218-273L53-468Q38-486 38-506Q38-523 49.50-535Q61-547 82-547Q106-547 120-530L284-334L431-530Q444-547 468-547Q488-547 499.50-534.50Q511-522 511-504Q511-482 497-464L346-267L505-77Z"/><path id="s6:comfortaa-bold:226" d="M338 4Q259 4 196-32Q133-68 97.50-131.50Q62-195 62-273Q62-353 96.50-416.50Q131-480 193-515.50Q255-551 333-551Q451-551 529-461Q539-450 539-435Q539-413 517-398Q507-391 494-391Q471-391 455-409Q430-436 400.50-448.50Q371-461 333-461Q256-461 208-409.50Q160-358 160-273Q160-219 182.50-176.50Q205-134 245.50-110Q286-86 338-86Q406-86 448-121Q467-135 485-135Q499-135 511-126Q530-110 530-90Q530-75 518-63Q446 4 338 4Z"/><path id="s6:comfortaa-bold:62" d="M89 0Q67 0 52-15Q37-30 37-52L37-729Q37-752 52-766.50Q67-781 89-781L541-781Q564-781 578-767.50Q592-754 592-732Q592-711 578-698Q564-685 541-685L141-685L141-442L428-442Q450-442 464.50-428.50Q479-415 479-394Q479-373 464.50-359.50Q450-346 428-346L141-346L141-52Q141-30 126-15Q111 0 89 0Z"/><path id="s6:comfortaa-bold:683" d="M117-123Q155-123 175-97Q195-71 195-25Q195 16 176.50 63Q158 110 131 141.50Q104 173 81 173Q69 173 62.50 165.50Q56 158 56 147Q56 135 61 124.50Q66 114 77 100Q90 82 96 69.50Q102 57 102 40Q102 25 95.50 14.50Q89 4 77-8Q64-21 57-32Q50-43 50-60Q50-87 68.50-105Q87-123 117-123Z"/></defs><g id="line-0"><use x="0" y="781" xlink:href="#s6:comfortaa-bold:152"/><use x="661" y="781" xlink:href="#s6:comfortaa-bold:264"/><use x="1344" y="781" xlink:href="#s6:comfortaa-bold:236"/><use x="1965" y="781" xlink:href="#s6:comfortaa-bold:3"/><use x="2258" y="781" xlink:href="#s6:comfortaa-bold:42"/><use x="2958" y="781" xlink:href="#s6:comfortaa-bold:355"/><use x="3640" y="781" xlink:href="#s6:comfortaa-bold:336"/><use x="4126" y="781" xlink:href="#s6:comfortaa-bold:302"/><use x="4801" y="781" xlink:href="#s6:comfortaa-bold:333"/><use x="5504" y="781" xlink:href="#s6:comfortaa-bold:236"/><use x="6125" y="781" xlink:href="#s6:comfortaa-bold:198"/><use x="6800" y="781" xlink:href="#s6:comfortaa-bold:296"/><use x="7482" y="781" xlink:href="#s6:comfortaa-bold:3"/><use x="7775" y="781" xlink:href="#s6:comfortaa-bold:289"/><use x="8075" y="781" xlink:href="#s6:comfortaa-bold:198"/><use x="8750" y="781" xlink:href="#s6:comfortaa-bold:296"/><use x="9432" y="781" xlink:href="#s6:comfortaa-bold:258"/><use x="10107" y="781" xlink:href="#s6:comfortaa-bold:355"/><use x="10789" y="781" xlink:href="#s6:comfortaa-bold:198"/><use x="11464" y="781" xlink:href="#s6:comfortaa-bold:258"/><use x="12139" y="781" xlink:href="#s6:comfortaa-bold:236"/><use x="12760" y="781" xlink:href="#s6:comfortaa-bold:342"/><use x="13303" y="781" xlink:href="#s6:comfortaa-bold:3"/><use x="13596" y="781" xlink:href="#s6:comfortaa-bold:198"/><use x="14271" y="781" xlink:href="#s6:comfortaa-bold:336"/><use x="14757" y="781" xlink:href="#s6:comfortaa-bold:236"/><use x="15378" y="781" xlink:href="#s6:comfortaa-bold:3"/><use x="15671" y="781" xlink:href="#s6:comfortaa-bold:295"/><use x="16609" y="781" xlink:href="#s6:comfortaa-bold:236"/><use x="17230" y="781" xlink:href="#s6:comfortaa-bold:295"/><use x="18168" y="781" xlink:href="#s6:comfortaa-bold:225"/><use x="18871" y="781" xlink:href="#s6:comfortaa-bold:236"/><use x="19492" y="781" xlink:href="#s6:comfortaa-bold:336"/><use x="19978" y="781" xlink:href="#s6:comfortaa-bold:342"/><use x="20521" y="781" xlink:href="#s6:comfortaa-bold:3"/><use x="20814" y="781" xlink:href="#s6:comfortaa-bold:302"/><use x="21489" y="781" xlink:href="#s6:comfortaa-bold:257"/><use x="21856" y="781" xlink:href="#s6:comfortaa-bold:3"/><use x="22149" y="781" xlink:href="#s6:comfortaa-bold:350"/><use x="22550" y="781" xlink:href="#s6:comfortaa-bold:264"/><use x="23233" y="781" xlink:href="#s6:comfortaa-bold:236"/><use x="23854" y="781" xlink:href="#s6:comfortaa-bold:3"/><use x="24147" y="781" xlink:href="#s6:comfortaa-bold:342"/><use x="24690" y="781" xlink:href="#s6:comfortaa-bold:198"/><use x="25365" y="781" xlink:href="#s6:comfortaa-bold:295"/><use x="26303" y="781" xlink:href="#s6:comfortaa-bold:236"/><use x="26924" y="781" xlink:href="#s6:comfortaa-bold:3"/><use x="27217" y="781" xlink:href="#s6:comfortaa-bold:257"/><use x="27584" y="781" xlink:href="#s6:comfortaa-bold:198"/><use x="28259" y="781" xlink:href="#s6:comfortaa-bold:295"/><use x="29197" y="781" xlink:href="#s6:comfortaa-bold:267"/><use x="29499" y="781" xlink:href="#s6:comfortaa-bold:289"/><use x="29799" y="781" xlink:href="#s6:comfortaa-bold:383"/><use x="30338" y="781" xlink:href="#s6:comfortaa-bold:690"/></g><g id="line-1"><use x="6182.5" y="1981" xlink:href="#s6:comfortaa-bold:152"/><use x="6843.5" y="1981" xlink:href="#s6:comfortaa-bold:264"/><use x="7526.5" y="1981" xlink:href="#s6:comfortaa-bold:236"/><use x="8147.5" y="1981" xlink:href="#s6:comfortaa-bold:267"/><use x="8449.5" y="1981" xlink:href="#s6:comfortaa-bold:336"/><use x="8935.5" y="1981" xlink:href="#s6:comfortaa-bold:3"/><use x="9228.5" y="1981" xlink:href="#s6:comfortaa-bold:342"/><use x="9771.5" y="1981" xlink:href="#s6:comfortaa-bold:236"/><use x="10392.5" y="1981" xlink:href="#s6:comfortaa-bold:333"/><use x="11095.5" y="1981" xlink:href="#s6:comfortaa-bold:198"/><use x="11770.5" y="1981" xlink:href="#s6:comfortaa-bold:336"/><use x="12256.5" y="1981" xlink:href="#s6:comfortaa-bold:198"/><use x="12931.5" y="1981" xlink:href="#s6:comfortaa-bold:350"/><use x="13332.5" y="1981" xlink:href="#s6:comfortaa-bold:236"/><use x="13953.5" y="1981" xlink:href="#s6:comfortaa-bold:3"/><use x="14246.5" y="1981" xlink:href="#s6:comfortaa-bold:236"/><use x="14867.5" y="1981" xlink:href="#s6:comfortaa-bold:382"/><use x="15424.5" y="1981" xlink:href="#s6:comfortaa-bold:267"/><use x="15726.5" y="1981" xlink:href="#s6:comfortaa-bold:342"/><use x="16269.5" y="1981" xlink:href="#s6:comfortaa-bold:350"/><use x="16670.5" y="1981" xlink:href="#s6:comfortaa-bold:236"/><use x="17291.5" y="1981" xlink:href="#s6:comfortaa-bold:296"/><use x="17973.5" y="1981" xlink:href="#s6:comfortaa-bold:226"/><use x="18574.5" y="1981" xlink:href="#s6:comfortaa-bold:236"/><use x="19195.5" y="1981" xlink:href="#s6:comfortaa-bold:3"/><use x="19488.5" y="1981" xlink:href="#s6:comfortaa-bold:267"/><use x="19790.5" y="1981" xlink:href="#s6:comfortaa-bold:342"/><use x="20333.5" y="1981" xlink:href="#s6:comfortaa-bold:3"/><use x="20626.5" y="1981" xlink:href="#s6:comfortaa-bold:198"/><use x="21301.5" y="1981" xlink:href="#s6:comfortaa-bold:3"/><use x="21594.5" y="1981" xlink:href="#s6:comfortaa-bold:295"/><use x="22532.5" y="1981" xlink:href="#s6:comfortaa-bold:383"/><use x="23071.5" y="1981" xlink:href="#s6:comfortaa-bold:350"/><use x="23472.5" y="1981" xlink:href="#s6:comfortaa-bold:264"/><use x="24155.5" y="1981" xlink:href="#s6:comfortaa-bold:690"/></g><g id="line-2"><use x="7585" y="3181" xlink:href="#s6:comfortaa-bold:62"/><use x="8210" y="3181" xlink:href="#s6:comfortaa-bold:302"/><use x="8885" y="3181" xlink:href="#s6:comfortaa-bold:336"/><use x="9371" y="3181" xlink:href="#s6:comfortaa-bold:3"/><use x="9664" y="3181" xlink:href="#s6:comfortaa-bold:342"/><use x="10207" y="3181" xlink:href="#s6:comfortaa-bold:226"/><use x="10808" y="3181" xlink:href="#s6:comfortaa-bold:267"/><use x="11110" y="3181" xlink:href="#s6:comfortaa-bold:236"/><use x="11731" y="3181" xlink:href="#s6:comfortaa-bold:296"/><use x="12413" y="3181" xlink:href="#s6:comfortaa-bold:226"/><use x="13014" y="3181" xlink:href="#s6:comfortaa-bold:236"/><use x="13635" y="3181" xlink:href="#s6:comfortaa-bold:683"/><use x="13880" y="3181" xlink:href="#s6:comfortaa-bold:3"/><use x="14173" y="3181" xlink:href="#s6:comfortaa-bold:295"/><use x="15111" y="3181" xlink:href="#s6:comfortaa-bold:355"/><use x="15793" y="3181" xlink:href="#s6:comfortaa-bold:342"/><use x="16336" y="3181" xlink:href="#s6:comfortaa-bold:267"/><use x="16638" y="3181" xlink:href="#s6:comfortaa-bold:226"/><use x="17239" y="3181" xlink:href="#s6:comfortaa-bold:683"/><use x="17484" y="3181" xlink:href="#s6:comfortaa-bold:3"/><use x="17777" y="3181" xlink:href="#s6:comfortaa-bold:342"/><use x="18320" y="3181" xlink:href="#s6:comfortaa-bold:333"/><use x="19023" y="3181" xlink:href="#s6:comfortaa-bold:302"/><use x="19698" y="3181" xlink:href="#s6:comfortaa-bold:336"/><use x="20184" y="3181" xlink:href="#s6:comfortaa-bold:350"/><use x="20585" y="3181" xlink:href="#s6:comfortaa-bold:683"/><use x="20830" y="3181" xlink:href="#s6:comfortaa-bold:3"/><use x="21123" y="3181" xlink:href="#s6:comfortaa-bold:236"/><use x="21744" y="3181" xlink:href="#s6:comfortaa-bold:350"/><use x="22145" y="3181" xlink:href="#s6:comfortaa-bold:226"/><use x="22746" y="3181" xlink:href="#s6:comfortaa-bold:683"/></g></svg>