<svg xmlns="http://www.w3.org/2000/svg" xmlns:xlink="http://www.w3.org/1999/xlink" width="725" height="82" viewBox="0 0 30190 3415"><defs><path id="s7:comfortaa-light:152" d="M608-781Q620-781 627.50-773.50Q635-766 635-754Q635-742 627.50-734.50Q620-727 608-727L355-727L355-30Q355-17 346.50-8.50Q338 0 325 0Q312 0 303.50-8.50Q295-17 295-30L295-727L42-727Q30-727 22.50-734.50Q15-742 15-754Q15-766 22.50-773.50Q30-781 42-781L608-781Z"/><path id="s7:comfortaa-light:264" d="M340-554Q413-554 470.50-524Q528-494 560.50-436.50Q593-379 593-299L593-30Q593-17 584.50-8.50Q576 0 563 0Q550 0 541.50-8.50Q533-17 533-30L533-299Q533-394 479.50-444Q426-494 340-494Q287-494 243.50-473.50Q200-453 175-416.50Q150-380 150-336L150-30Q150-17 142-8.50Q134 0 120 0Q107 0 98.50-8.50Q90-17 90-30L90-751Q90-765 98.50-773Q107-781 120-781Q134-781 142-773Q150-765 150-751L150-465Q184-507 233-530.50Q282-554 340-554Z"/><path id="s7:comfortaa-light:236" d="M317-552Q390-552 447.50-517.50Q505-483 537-422Q569-361 569-283Q569-270 561-262.50Q553-255 540-255L121-255Q124-196 152-149.50Q180-103 227-77Q274-51 332-51Q371-51 410.50-64.50Q450-78 473-100Q483-108 494-108Q505-108 512-102Q523-93 523-81Q523-71 514-62Q482-33 430.50-14Q379 5 332 5Q253 5 191.50-30.50Q130-66 95-129.50Q60-193 60-273Q60-354 92.50-417.50Q125-481 183.50-516.50Q242-552 317-552M317-496Q239-496 185.50-444Q132-392 122-307L511-307Q504-392 451-444Q398-496 317-496Z"/><path id="s7:comfortaa-light:3" d=""/><path id="s7:comfortaa-light:42" d="M130 0Q117 0 108.50-8.50Q100-17 100-30L100-751Q100-764 108.50-772.50Q117-781 130-781L611-781Q623-781 632-772.50Q641-764 641-751Q641-739 632-730Q623-721 611-721L160-721L160-421L491-421Q504-421 512.50-412.50Q521-404 521-391Q521-378 512.50-369Q504-360 491-360L160-360L160-60L611-60Q623-60 632-51Q641-42 641-30Q641-17 632-8.50Q623 0 611 0L130 0Z"/><path id="s7:comfortaa-light:355" d="M553-547Q567-547 575-539Q583-531 583-517L583-30Q583-17 575-8.50Q567 0 553 0Q540 0 531.50-8.50Q523-17 523-30L523-82Q489-40 440-16.50Q391 7 333 7Q260 7 202.50-23Q145-53 112.50-110.50Q80-168 80-248L80-517Q80-530 88.50-538.50Q97-547 110-547Q123-547 131.50-538.50Q140-530 140-517L140-248Q140-153 193.50-103Q247-53 333-53Q386-53 429.50-73.50Q473-94 498-130.50Q523-167 523-211L523-517Q523-531 531.50-539Q540-547 553-547Z"/><path id="s7:comfortaa-light:336" d="M322-553Q398-553 398-520Q398-515 397-512Q394-501 387.50-496.50Q381-492 370-492Q361-492 346.50-494Q332-496 322-496Q272-496 233-475Q194-454 172-417Q150-380 150-334L150-30Q150-17 142-8.50Q134 0 120 0Q107 0 98.50-8.50Q90-17 90-30L90-517Q90-531 98.50-539Q107-547 120-547Q134-547 142-539Q150-531 150-517L150-455Q179-501 224-527Q269-553 322-553Z"/><path id="s7:comfortaa-light:302" d="M340 6Q261 6 197-30.50Q133-67 96.50-131Q60-195 60-273Q60-352 96.50-416Q133-480 197-516.50Q261-553 340-553Q418-553 482-516.50Q546-480 582.50-416Q619-352 619-273Q619-195 582.50-131Q546-67 482-30.50Q418 6 340 6M340-50Q402-50 452-79Q502-108 530.50-159Q559-210 559-273Q559-336 530.50-387Q502-438 452-467.50Q402-497 340-497Q278-497 228-467.50Q178-438 149-387Q120-336 120-273Q120-210 149-159Q178-108 228-79Q278-50 340-50Z"/><path id="s7:comfortaa-light:333" d="M369-553Q448-553 512-516.50Q576-480 612.50-416Q649-352 649-273Q649-195 612.50-131Q576-67 512-30.50Q448 6 369 6Q298 6 240.50-24.50Q183-55 150-108L150 204Q150 218 142 226Q134 234 120 234Q107 234 98.50 226Q90 218 90 204L90-277L90-279Q91-356 128-419Q165-482 228.50-517.50Q292-553 369-553M369-50Q431-50 481-79Q531-108 560-159Q589-210 589-273Q589-336 560-387Q531-438 481-467.50Q431-497 369-497Q307-497 257-467.50Q207-438 178.50-387Q150-336 150-273Q150-210 178.50-159Q207-108 257-79Q307-50 369-50Z"/><path id="s7:comfortaa-light:198" d="M340-553Q418-553 482-516.50Q546-480 582.50-416Q619-352 619-273L619-30Q619-17 611-8.50Q603 0 589 0Q576 0 567.50-8.50Q559-17 559-30L559-108Q526-55 468.50-24.50Q411 6 340 6Q261 6 197-30.50Q133-67 96.50-131Q60-195 60-273Q60-352 96.50-416Q133-480 197-516.50Q261-553 340-553M340-50Q402-50 452-79Q502-108 530.50-159Q559-210 559-273Q559-336 530.50-387Q502-438 452-467.50Q402-497 340-497Q278-497 228-467.50Q178-438 149-387Q120-336 120-273Q120-210 149-159Q178-108 228-79Q278-50 340-50Z"/><path id="s7:comfortaa-light:296" d="M340-554Q413-554 470.50-524Q528-494 560.50-436.50Q593-379 593-299L593-30Q593-17 584.50-8.50Q576 0 563 0Q550 0 541.50-8.50Q533-17 533-30L533-299Q533-394 479.50-444Q426-494 340-494Q287-494 243.50-473.50Q200-453 175-416.50Q150-380 150-336L150-30Q150-17 142-8.50Q134 0 120 0Q107 0 98.50-8.50Q90-17 90-30L90-517Q90-531 98.50-539Q107-547 120-547Q134-547 142-539Q150-531 150-517L150-465Q184-507 233-530.50Q282-554 340-554Z"/><path id="s7:comfortaa-light:289" d="M200 0Q143 0 106.50-46Q70-92 70-165L70-751Q70-765 78.50-773Q87-781 100-781Q114-781 122-773Q130-765 130-751L130-165Q130-119 149.50-89.50Q169-60 200-60L225-60Q236-60 243-52Q250-44 250-30Q250-17 242-8.50Q234 0 220 0L200 0Z"/><path id="s7:comfortaa-light:258" d="M340-553Q421-553 484.50-517Q548-481 583.50-417.50Q619-354 619-273L619-77Q619 3 583 68.50Q547 134 484 171.50Q421 209 344 209Q265 209 205.50 179.50Q146 150 106 99Q98 89 98 79Q98 67 108 60Q116 54 126 54Q142 54 152 67Q185 107 233.50 130Q282 153 344 153Q405 153 454 123Q503 93 531 40.50Q559-12 559-77L559-121Q530-62 472.50-28Q415 6 340 6Q259 6 195.50-29.50Q132-65 96-128.50Q60-192 60-273Q60-353 97-417Q134-481 198-517Q262-553 340-553M340-50Q403-50 453-78.50Q503-107 531-157.50Q559-208 559-273Q559-338 531-389Q503-440 453-468.50Q403-497 340-497Q276-497 226-468.50Q176-440 148-389Q120-338 120-273Q120-208 148-157.50Q176-107 226-78.50Q276-50 340-50Z"/><path id="s7:comfortaa-light:342" d="M276 6Q218 6 163-14.50Q108-35 72-77Q65-85 65-95Q65-109 78-118Q84-123 95-123Q109-123 118-112Q168-51 279-51Q358-51 395.50-79Q433-107 433-151Q433-230 280-252Q183-266 133.50-305Q84-344 84-399Q84-472 137.50-512.50Q191-553 277-553Q403-553 468-463Q474-456 474-446Q474-432 458-423Q448-419 443-419Q428-419 418-432Q367-497 275-497Q214-497 178-470.50Q142-444 142-405Q142-365 176.50-341Q211-317 292-305Q398-290 444.50-248.50Q491-207 491-148Q491-102 461.50-67Q432-32 383-13Q334 6 276 6Z"/><path id="s7:comfortaa-light:295" d="M667-554Q727-554 774-524Q821-494 847-440.50Q873-387 873-319L873-30Q873-17 865-8.50Q857 0 843 0Q830 0 821.50-8.50Q813-17 813-30L813-319Q813-396 772-445Q731-494 667-494Q597-494 554-448Q511-402 513-326L513-319L513-30Q513-17 505-8.50Q497 0 483 0Q470 0 461.50-8.50Q453-17 453-30L453-319Q453-396 412-445Q371-494 307-494Q238-494 194-450Q150-406 150-336L150-30Q150-17 142-8.50Q134 0 120 0Q107 0 98.50-8.50Q90-17 90-30L90-517Q90-531 98.50-539Q107-547 120-547Q134-547 142-539Q150-531 150-517L150-478Q178-514 219-534Q260-554 307-554Q365-554 411-525.50Q457-497 484-447Q511-497 559-525.50Q607-554 667-554Z"/><path id="s7:comfortaa-light:225" d="M369-553Q448-553 512-516.50Q576-480 612.50-416Q649-352 649-274Q649-195 612.50-131Q576-67 512-30.50Q448 6 369 6Q292 6 228.50-29.50Q165-65 128-128Q91-191 90-268L90-270L90-751Q90-765 98.50-773Q107-781 120-781Q134-781 142-773Q150-765 150-751L150-439Q183-492 240.50-522.50Q298-553 369-553M369-50Q431-50 481-79.50Q531-109 560-160Q589-211 589-274Q589-337 560-388Q531-439 481-468Q431-497 369-497Q307-497 257-468Q207-439 178.50-388Q150-337 150-274Q150-211 178.50-160Q207-109 257-79.50Q307-50 369-50Z"/><path id="s7:comfortaa-light:257" d="M335-727Q262-727 229-678.50Q196-630 196-548L196-527L328-527Q340-527 347.50-519.50Q355-512 355-500Q355-488 347.50-480.50Q340-473 328-473L196-473L196-30Q196-17 187.50-8.50Q179 0 165 0Q152 0 143.50-8.50Q135-17 135-30L135-473L57-473Q45-473 37.50-480.50Q30-488 30-500Q30-512 37.50-519.50Q45-527 57-527L135-527L135-548Q135-655 185-718Q235-781 335-781Q348-781 356.50-773.50Q365-766 365-754Q365-742 356.50-734.50Q348-727 335-727Z"/><path id="s7:comfortaa-light:350" d="M337-61Q351-61 359.50-52.50Q368-44 368-30Q368-17 359.50-8.50Q351 0 337 0L314 0Q259 0 216-25Q173-50 149-93.50Q125-137 125-192L125-473L47-473Q35-473 27.50-480.50Q20-488 20-500Q20-512 27.50-519.50Q35-527 47-527L125-527L125-690Q125-704 133.50-712.50Q142-721 155-721Q169-721 177.50-712.50Q186-704 186-690L186-527L318-527Q330-527 337.50-519.50Q345-512 345-500Q345-488 337.50-480.50Q330-473 318-473L186-473L186-192Q186-134 222-97.50Q258-61 315-61L337-61Z"/><path id="s7:comfortaa-light:267" d="M140 0Q127 0 118.50-8.50Q110-17 110-30L110-517Q110-531 118.50-539Q127-547 140-547Q154-547 162-539Q170-531 170-517L170-30Q170-17 162-8.50Q154 0 140 0M139-662Q119-662 106-675.50Q93-689 93-709Q93-731 107-743Q121-755 140-755Q159-755 172.50-743Q186-731 186-709Q186-689 172.50-675.50Q159-662 139-662Z"/><path id="s7:comfortaa-light:383" d="M525-546Q544-538 544-523Q544-519 540-509L204 219Q195 237 181 237Q175 237 167 234Q148 226 148 211Q148 207 152 197L252-19Q251-20 248-26L29-506Q25-514 25-522Q25-537 42-545Q50-549 58-549Q73-549 81-532L284-88L488-531Q497-549 511-549Q518-549 525-546Z"/><path id="s7:comfortaa-light:690" d="M101 16Q79 16 64.50 1.50Q50-13 50-35Q50-56 65-70.50Q80-85 101-85Q122-85 136.50-70.50Q151-56 151-35Q151-14 136.50 1Q122 16 101 16Z"/><path id="s7:comfortaa-light:382" d="M488-49Q497-37 497-26Q497-14 488-7Q479 0 470 0Q458 0 451.50-4Q445-8 436-19L268-242L86-9Q80 0 65 0Q52 0 43.50-9Q35-18 35-30Q35-41 42-49L228-280L64-497Q57-505 57-517Q57-529 65.50-538Q74-547 87-547Q100-547 109-538L269-325L436-529Q451-547 467-547Q480-547 487.50-539Q495-531 495-519Q495-508 487-497L310-286L488-49Z"/><path id="s7:comfortaa-light:226" d="M332 6Q255 6 193-30.50Q131-67 95.50-131Q60-195 60-273Q60-352 93-415.50Q126-479 185-515.50Q244-552 317-552Q381-552 434-527Q487-502 526-453Q533-443 533-436Q533-422 519-414Q512-408 503-408Q489-408 480-420Q416-496 317-496Q259-496 214-467.50Q169-439 144.50-388Q120-337 120-273Q120-210 147-159Q174-108 222-79Q270-50 332-50Q420-50 473-99Q482-108 494-108Q505-108 512-101Q522-92 522-79Q522-68 514-61Q479-29 432-11.50Q385 6 332 6Z"/><path id="s7:comfortaa-light:62" d="M69 0Q56 0 47.50-8.50Q39-17 39-30L39-751Q39-764 47.50-772.50Q56-781 69-781L550-781Q562-781 571-772.50Q580-764 580-751Q580-739 571-730Q562-721 550-721L99-721L99-421L430-421Q443-421 451.50-412.50Q460-404 460-391Q460-378 451.50-369Q443-360 430-360L99-360L99-30Q99-17 90.50-8.50Q82 0 69 0Z"/><path id="s7:comfortaa-light:683" d="M101-87Q128-87 145.50-64.50Q163-42 163-4Q163 32 151.50 69Q140 106 121.50 130.50Q103 155 81 155Q62 155 62 138Q62 128 76 108Q85 94 89.50 85Q94 76 94 64Q94 46 88.50 35.50Q83 25 71 8Q60-5 55-14.50Q50-24 50-38Q50-61 65-74Q80-87 101-87Z"/></defs><g id="line-0"><use x="0" y="781" xlink:href="#s7:comfortaa-light:152"/><use x="650" y="781" xlink:href="#s7:comfortaa-light:264"/><use x="1323" y="781" xlink:href="#s7:comfortaa-light:236"/><use x="1932" y="781" xlink:href="#s7:comfortaa-light:3"/><use x="2225" y="781" xlink:href="#s7:comfortaa-light:42"/><use x="2911" y="781" xlink:href="#s7:comfortaa-light:355"/><use x="3584" y="781" xlink:href="#s7:comfortaa-light:336"/><use x="4022" y="781" xlink:href="#s7:comfortaa-light:302"/><use x="4701" y="781" xlink:href="#s7:comfortaa-light:333"/><use x="5410" y="781" xlink:href="#s7:comfortaa-light:236"/><use x="6019" y="781" xlink:href="#s7:comfortaa-light:198"/><use x="6698" y="781" xlink:href="#s7:comfortaa-light:296"/><use x="7371" y="781" xlink:href="#s7:comfortaa-light:3"/><use x="7664" y="781" xlink:href="#s7:comfortaa-light:289"/><use x="7934" y="781" xlink:href="#s7:comfortaa-light:198"/><use x="8613" y="781" xlink:href="#s7:comfortaa-light:296"/><use x="9286" y="781" xlink:href="#s7:comfortaa-light:258"/><use x="9965" y="781" xlink:href="#s7:comfortaa-light:355"/><use x="10638" y="781" xlink:href="#s7:comfortaa-light:198"/><use x="11317" y="781" xlink:href="#s7:comfortaa-light:258"/><use x="11996" y="781" xlink:href="#s7:comfortaa-light:236"/><use x="12605" y="781" xlink:href="#s7:comfortaa-light:342"/><use x="13141" y="781" xlink:href="#s7:comfortaa-light:3"/><use x="13434" y="781" xlink:href="#s7:comfortaa-light:198"/><use x="14113" y="781" xlink:href="#s7:comfortaa-light:336"/><use x="14551" y="781" xlink:href="#s7:comfortaa-light:236"/><use x="15160" y="781" xlink:href="#s7:comfortaa-light:3"/><use x="15453" y="781" xlink:href="#s7:comfortaa-light:295"/><use x="16406" y="781" xlink:href="#s7:comfortaa-light:236"/><use x="17015" y="781" xlink:href="#s7:comfortaa-light:295"/><use x="17968" y="781" xlink:href="#s7:comfortaa-light:225"/><use x="18677" y="781" xlink:href="#s7:comfortaa-light:236"/><use x="19286" y="781" xlink:href="#s7:comfortaa-light:336"/><use x="19724" y="781" xlink:href="#s7:comfortaa-light:342"/><use x="20260" y="781" xlink:href="#s7:comfortaa-light:3"/><use x="20553" y="781" xlink:href="#s7:comfortaa-light:302"/><use x="21232" y="781" xlink:href="#s7:comfortaa-light:257"/><use x="21597" y="781" xlink:href="#s7:comfortaa-light:3"/><use x="21890" y="781" xlink:href="#s7:comfortaa-light:350"/><use x="22293" y="781" xlink:href="#s7:comfortaa-light:264"/><use x="22966" y="781" xlink:href="#s7:comfortaa-light:236"/><use x="23575" y="781" xlink:href="#s7:comfortaa-light:3"/><use x="23868" y="781" xlink:href="#s7:comfortaa-light:342"/><use x="24404" y="781" xlink:href="#s7:comfortaa-light:198"/><use x="25083" y="781" xlink:href="#s7:comfortaa-light:295"/><use x="26036" y="781" xlink:href="#s7:comfortaa-light:236"/><use x="26645" y="781" xlink:href="#s7:comfortaa-light:3"/><use x="26938" y="781" xlink:href="#s7:comfortaa-light:257"/><use x="27303" y="781" xlink:href="#s7:comfortaa-light:198"/><use x="27982" y="781" xlink:href="#s7:comfortaa-light:295"/><use x="28935" y="781" xlink:href="#s7:comfortaa-light:267"/><use x="29215" y="781" xlink:href="#s7:comfortaa-light:289"/><use x="29485" y="781" xlink:href="#s7:comfortaa-light:383"/><use x="30039" y="781" xlink:href="#s7:comfortaa-light:690"/></g><g id="line-1"><use x="6165" y="1981" xlink:href="#s7:comfortaa-light:152"/><use x="6815" y="1981" xlink:href="#s7:comfortaa-light:264"/><use x="7488" y="1981" xlink:href="#s7:comfortaa-light:236"/><use x="8097" y="1981" xlink:href="#s7:comfortaa-light:267"/><use x="8377" y="1981" xlink:href="#s7:comfortaa-light:336"/><use x="8815" y="1981" xlink:href="#s7:comfortaa-light:3"/><use x="9108" y="1981" xlink:href="#s7:comfortaa-light:342"/><use x="9644" y="1981" xlink:href="#s7:comfortaa-light:236"/><use x="10253" y="1981" xlink:href="#s7:comfortaa-light:333"/><use x="10962" y="1981" xlink:href="#s7:comfortaa-light:198"/><use x="11641" y="1981" xlink:href="#s7:comfortaa-light:336"/><use x="12079" y="1981" xlink:href="#s7:comfortaa-light:198"/><use x="12758" y="1981" xlink:href="#s7:comfortaa-light:350"/><use x="13161" y="1981" xlink:href="#s7:comfortaa-light:236"/><use x="13770" y="1981" xlink:href="#s7:comfortaa-light:3"/><use x="14063" y="1981" xlink:href="#s7:comfortaa-light:236"/><use x="14672" y="1981" xlink:href="#s7:comfortaa-light:382"/><use x="15214" y="1981" xlink:href="#s7:comfortaa-light:267"/><use x="15494" y="1981" xlink:href="#s7:comfortaa-light:342"/><use x="16030" y="1981" xlink:href="#s7:comfortaa-light:350"/><use x="16433" y="1981" xlink:href="#s7:comfortaa-light:236"/><use x="17042" y="1981" xlink:href="#s7:comfortaa-light:296"/><use x="17715" y="1981" xlink:href="#s7:comfortaa-light:226"/><use x="18308" y="1981" xlink:href="#s7:comfortaa-light:236"/><use x="18917" y="1981" xlink:href="#s7:comfortaa-light:3"/><use x="19210" y="1981" xlink:href="#s7:comfortaa-light:267"/><use x="19490" y="1981" xlink:href="#s7:comfortaa-light:342"/><use x="20026" y="1981" xlink:href="#s7:comfortaa-light:3"/><use x="20319" y="1981" xlink:href="#s7:comfortaa-light:198"/><use x="20998" y="1981" xlink:href="#s7:comfortaa-light:3"/><use x="21291" y="1981" xlink:href="#s7:comfortaa-light:295"/><use x="22244" y="1981" xlink:href="#s7:comfortaa-light:383"/><use x="22798" y="1981" xlink:href="#s7:comfortaa-light:350"/><use x="23201" y="1981" xlink:href="#s7:comfortaa-light:264"/><use x="23874" y="1981" xlink:href="#s7:comfortaa-light:690"/></g><g id="line-2"><use x="7588" y="3181" xlink:href="#s7:comfortaa-light:62"/><use x="8213" y="3181" xlink:href="#s7:comfortaa-light:302"/><use x="8892" y="3181" xlink:href="#s7:comfortaa-light:336"/><use x="9330" y="3181" xlink:href="#s7:comfortaa-light:3"/><use x="9623" y="3181" xlink:href="#s7:comfortaa-light:342"/><use x="10159" y="3181" xlink:href="#s7:comfortaa-light:226"/><use x="10752" y="3181" xlink:href="#s7:comfortaa-light:267"/><use x="11032" y="3181" xlink:href="#s7:comfortaa-light:236"/><use x="11641" y="3181" xlink:href="#s7:comfortaa-light:296"/><use x="12314" y="3181" xlink:href="#s7:comfortaa-light:226"/><use x="12907" y="3181" xlink:href="#s7:comfortaa-light:236"/><use x="13516" y="3181" xlink:href="#s7:comfortaa-light:683"/><use x="13729" y="3181" xlink:href="#s7:comfortaa-light:3"/><use x="14022" y="3181" xlink:href="#s7:comfortaa-light:295"/><use x="14975" y="3181" xlink:href="#s7:comfortaa-light:355"/><use x="15648" y="3181" xlink:href="#s7:comfortaa-light:342"/><use x="16184" y="3181" xlink:href="#s7:comfortaa-light:267"/><use x="16464" y="3181" xlink:href="#s7:comfortaa-light:226"/><use x="17057" y="3181" xlink:href="#s7:comfortaa-light:683"/><use x="17270" y="3181" xlink:href="#s7:comfortaa-light:3"/><use x="17563" y="3181" xlink:href="#s7:comfortaa-light:342"/><use x="18099" y="3181" xlink:href="#s7:comfortaa-light:333"/><use x="18808" y="3181" xlink:href="#s7:comfortaa-light:302"/><use x="19487" y="3181" xlink:href="#s7:comfortaa-light:336"/><use x="19925" y="3181" xlink:href="#s7:comfortaa-light:350"/><use x="20328" y="3181" xlink:href="#s7:comfortaa-light:683"/><use x="20541" y="3181" xlink:href="#s7:comfortaa-light:3"/><use x="20834" y="3181" xlink:href="#s7:comfortaa-light:236"/><use x="21443" y="3181" xlink:href="#s7:comfortaa-light:350"/><use x="21846" y="3181" xlink:href="#s7:comfortaa-light:226"/><use x="22439" y="3181" xlink:href="#s7:comfortaa-light:683"/></g></svg>