<svg xmlns="http://www.w3.org/2000/svg" xmlns:xlink="http://www.w3.org/1999/xlink" width="610" height="84" viewBox="0 0 52092 7195.2"><defs><path id="s28:courgette-regular:69" d="M1219.50-1367.50Q1219.50-1367.50 1204.75-1356.75Q1190-1346 1151.50-1335.50Q1113-1325 1048.50-1325Q984-1325 881-1334Q857-1269 832-1182L717-790Q504-86 263 0Q246 7 219.50 7Q193 7 176.50 0.50Q160-6 149-16Q127-34 127-52Q127-70 136-76L162-92Q306-186 426-592L498-836Q595-1165 679-1353Q600-1360 559-1360Q441-1360 389-1327Q338-1294 317.50-1255.50Q297-1217 296-1202Q293-1174 278-1166.50Q263-1159 241.50-1159Q220-1159 197-1174.50Q174-1190 159-1214Q127-1263 134-1324.50Q141-1386 174.50-1430.50Q208-1475 254-1503Q339-1555 433.50-1555Q528-1555 612.50-1545.50Q697-1536 781-1524Q1004-1494 1065-1494Q1126-1494 1155.50-1501Q1185-1508 1206-1522Q1227-1536 1235.50-1540.50Q1244-1545 1263-1545Q1293-1545 1289-1499.50Q1285-1454 1267-1421.50Q1249-1389 1219.50-1367.50Z"/><path id="s28:courgette-regular:89" d="M794-846Q739-846 597-678L514-576L354-367Q296-257 263-184L209-68Q188-25 172.50-7.50Q157 10 130.50 10Q104 10 79.50 0.50Q55-9 37-24Q-1-56-1-94Q-1-109 20-153L60-234Q247-619 399-1210Q455-1428 480-1602Q491-1686 562-1686Q608-1686 638-1664Q696-1621 694-1572Q692-1523 680-1462Q668-1401 649-1329.50Q630-1258 606-1179Q540-978 508-889Q410-620 387-574Q402-592 426-623Q608-862 651-908.50Q694-955 724-980Q787-1035 884-1035Q963-1035 1011-982Q1056-931 1056-870.50Q1056-810 1042.50-761.50Q1029-713 1008-663Q987-613 962-560L912-455Q842-296 842-219Q842-165 886-165Q928-165 962.50-183Q997-201 1007-201Q1028-201 1028-180Q1028-91 938-31Q876 10 825 10Q774 10 740.50-0.50Q707-11 681-35Q622-89 622-194Q622-307 696-478L804-708Q835-772 835-809Q835-846 794-846Z"/><path id="s28:courgette-regular:86" d="M76-350Q80-437 105-516.50Q130-596 172-670.50Q214-745 270.50-811.50Q327-878 393-928Q536-1035 682-1035Q853-1035 910-894Q930-846 929-780.50Q928-715 904-659.50Q880-604 837.50-558.50Q795-513 736.50-477Q678-441 609-416Q467-366 305-364Q301-350 300-322Q299-294 306-259.50Q313-225 330-198Q366-138 434-138Q550-138 660-206Q699-229 723.50-253.50Q748-278 766-278Q784-278 797.50-256.50Q811-235 811-208Q811-155 781-116Q655 10 406 10Q259 10 170-78Q70-178 76-350M660-902Q555-902 458-758Q376-634 326-464Q493-481 616-596Q729-704 729-803Q729-902 660-902Z"/><path id="s28:courgette-regular:17" d=""/><path id="s28:courgette-regular:54" d="M1043-1333Q1043-1417 943-1417Q752-1417 596-1240Q504-1136 467-1015Q449-956 449-911Q449-866 459.50-839.50Q470-813 486-796Q520-760 565-768Q614-788 651.50-788Q689-788 711.50-778.50Q734-769 748-755Q777-727 777-701Q777-650 743-648Q691-643 634-619Q577-595 519-556.50Q461-518 416-470Q313-360 313-249Q313-196 338-169Q380-122 438-122Q496-122 551.50-144.50Q607-167 652-199Q720-248 784-324Q816-362 840-362Q864-362 876.50-333.50Q889-305 889-273Q889-207 864-175.50Q839-144 801.50-112.50Q764-81 712-54Q587 10 444 10Q203 10 114-148Q82-207 82-269Q82-331 100.50-384Q119-437 148-482.50Q177-528 213-564.50Q249-601 284-628Q353-682 398-689Q285-734 246-864Q234-906 234-966Q234-1026 257-1098.50Q280-1171 322-1237.50Q364-1304 422-1362Q480-1420 550-1463Q701-1555 868-1555Q1043-1555 1129-1468Q1198-1398 1198-1289Q1198-1165 1094-1038Q1031-962 980.50-935Q930-908 901.50-905.50Q873-903 848.50-912.50Q824-922 806-938Q765-975 765-1005Q765-1042 791-1062L881-1126Q1043-1245 1043-1333Z"/><path id="s28:courgette-regular:102" d="M1005-197Q1028-197 1028-174Q1028-87 942-28Q884 10 806 10Q742 10 708-20Q647-74 647-152Q647-251 730-455Q576-247 514-178.50Q452-110 406-72Q306 10 225 10Q101 10 60-97Q48-130 48-172.50Q48-215 62.50-267.50Q77-320 100-377Q123-434 150-494L204-614Q308-845 281-888Q269-907 236-926Q224-933 224-950.50Q224-968 238.50-984Q253-1000 276-1012Q325-1035 374-1035Q423-1035 448.50-1024.50Q474-1014 490-998Q523-965 523-925Q523-885 510-835.50Q497-786 476-728Q455-670 430-608Q361-446 337-394L300-317Q269-248 269-220Q269-192 278-180.50Q287-169 310.50-169Q334-169 365-191Q396-213 433-250Q470-287 510-335.50Q550-384 588-436Q663-538 698-600Q910-975 924-992Q956-1035 989.50-1035Q1023-1035 1048-1027.50Q1073-1020 1091-1006Q1133-975 1118-944Q874-435 855-304Q850-259 850-242Q850-166 896-166Q939-166 967-181.50Q995-197 1005-197Z"/><path id="s28:courgette-regular:99" d="M75-24Q75-24 65-31.50Q55-39 43-57.50Q31-76 30-89.50Q29-103 35.50-122.50Q42-142 53-170Q257-672 257-844Q254-892 224-912L204-926Q195-933 194.50-950.50Q194-968 207-984Q220-1000 241-1012Q284-1035 329.50-1035Q375-1035 400.50-1025Q426-1015 444-998Q482-962 482.50-922Q483-882 473.50-841Q464-800 451-760.50Q438-721 425-685.50Q412-650 408-633Q400-598 402-589Q426-610 431-630L470-704Q600-938 724-1014Q760-1035 810.50-1035Q861-1035 892-999.50Q923-964 924.50-921Q926-878 918.50-849.50Q911-821 896-796Q863-740 816-740Q803-740 792-749L770-768Q737-797 706.50-797Q676-797 632.50-757Q589-717 542-654Q384-445 284-186L240-70Q223-27 210-8.50Q197 10 171.50 10Q146 10 120.50 0.50Q95-9 75-24Z"/><path id="s28:courgette-regular:96" d="M164-68Q164-68 143-88Q122-108 98-169.50Q74-231 73-315Q72-399 93.50-485Q115-571 154.50-651Q194-731 249.50-801Q305-871 372-923Q518-1035 675-1035Q881-1035 954-854Q1006-723 960-537Q918-366 806-223Q695-80 544-20Q468 10 394.50 10Q321 10 263.50-9Q206-28 164-68M355-553Q355-553 340-516Q325-479 307.50-401Q290-323 291-253.50Q292-184 312.50-144.50Q333-105 379-105Q425-105 469.50-136.50Q514-168 556-220Q598-272 635-340Q672-408 700-482Q761-643 759-768Q759-878 714-908Q696-920 663.50-920Q631-920 589-890.50Q547-861 505-811Q463-761 424-694Q385-627 355-553Z"/><path id="s28:courgette-regular:97" d="M251-95Q249-80 207.50 63Q166 206 138 290Q75 478 34 524Q1 560-46 560Q-103 560-133 504Q-142 488-142 468.50Q-142 449-112 384Q-33 219 99-266Q152-458 169-527L201-652Q232-776 237.50-820.50Q243-865 232-883.50Q221-902 207-911.50Q193-921 181-928Q169-935 171-953.50Q173-972 187.50-987.50Q202-1003 224-1014Q269-1035 314.50-1035Q360-1035 386-1024Q412-1013 429-994Q465-955 461-918Q451-841 439-786Q614-1035 802-1035Q973-1035 1031-858Q1051-796 1051-707Q1051-618 1024-528.50Q997-439 951-359Q905-279 844-211.50Q783-144 715-94Q571 10 443 10Q315 10 251-95M405.50-521.50Q405.50-521.50 387.25-486.25Q369-451 346.50-381Q324-311 324-253Q324-195 349-157.50Q374-120 423-120Q472-120 520.50-146.50Q569-173 614.50-218Q660-263 699.50-323.50Q739-384 768-452Q831-600 831-733Q831-805 812-845Q793-885 753.50-885Q714-885 671-854.50Q628-824 581-773.50Q534-723 488-657.50Q442-592 405.50-521.50Z"/><path id="s28:courgette-regular:82" d="M838-266Q838-174 903-174Q948-174 977.50-188Q1007-202 1017-202Q1038-202 1038-180Q1038-94 948-32Q853 33 754 0Q689-23 658-99Q643-138 643-170Q643-222 653-280Q560-90 422-18Q367 10 305 10Q243 10 197.50-15.50Q152-41 120-86Q55-180 61-322Q67-500 166-671Q257-831 396-932Q535-1035 656-1035Q777-1035 851-924Q920-1035 973-1035Q1030-1035 1059-1014Q1114-974 1098-944Q847-430 840-304Q838-286 838-266M283-262Q283-142 360-142Q419-142 505-242Q631-389 728-638Q759-716 780-794Q776-862 723-894Q705-905 669.50-905Q634-905 586.50-879Q539-853 494.50-808Q450-763 411.50-701.50Q373-640 344-568Q283-414 283-262Z"/><path id="s28:courgette-regular:95" d="M793-846Q762-846 705-786.50Q648-727 606-678L521-576L357-367Q299-257 266-184L212-68Q191-25 175.50-7.50Q160 10 133.50 10Q107 10 82.50 0.50Q58-9 40-24Q2-56 2-94Q2-109 24-153L62-234Q80-270 104-326L160-463Q278-758 278-844Q278-890 248-912L228-926Q218-933 218-950.50Q218-968 231.50-984Q245-1000 267-1012Q312-1035 357.50-1035Q403-1035 428-1025Q453-1015 470-998Q507-963 507-925Q507-887 497.50-848.50Q488-810 473.50-770.50Q459-731 443-693Q427-655 414-627L394-584Q386-568 390-574Q501-728 536-772L606-856Q683-946 727-975Q816-1035 867-1035Q918-1035 953-1022Q988-1009 1014-985Q1069-934 1069-855Q1069-776 1033-690Q997-604 970.50-550.50Q944-497 920-442Q845-275 845-199Q845-165 899-165Q941-165 975.50-183Q1010-201 1020-201Q1041-201 1041-180Q1041-91 950-31Q889 10 838 10Q787 10 753.50-1Q720-12 694-36Q635-89 635-184Q635-300 708-474Q761-593 783-637L817-708Q848-772 848-809Q848-846 793-846Z"/><path id="s28:courgette-regular:93" d="M121-40Q121-40 108.50-53Q96-66 80.50-106.50Q65-147 65-200.50Q65-254 89.50-344Q114-434 152-549L236-798Q415-1318 443-1602Q452-1686 525-1686Q571-1686 601-1664Q659-1620 657-1566Q655-1512 638-1434.50Q621-1357 594-1265.50Q567-1174 532-1072L394-666Q275-320 275-219Q275-165 319-165Q361-165 395.50-183Q430-201 440-201Q461-201 461-180Q461-91 370-31Q309 10 258.50 10Q208 10 177-2Q146-14 121-40Z"/><path id="s28:courgette-regular:88" d="M658-218Q506 10 321 10Q154 10 96-168Q76-229 76-318Q76-407 101.50-496.50Q127-586 171-666Q215-746 274.50-813.50Q334-881 402-930Q544-1035 684-1035Q824-1035 884-904Q896-917 906-930.50Q916-944 928-956Q954-982 973.50-982Q993-982 1014.50-975Q1036-968 1056-956Q1105-927 1093-902Q1038-783 1001-668L853-196Q678 341 409 498Q338 540 286 546.50Q234 553 211 547Q188 541 170 530Q131 505 131 485Q131 450 177.50 442Q224 434 275 404.50Q326 375 372 333Q561 158 658-218M358.50-565Q358.50-565 345.25-529Q332-493 317-417.50Q302-342 302-294Q302-246 305-221Q308-196 317-177Q337-135 376-135Q415-135 453-162.50Q491-190 533-238Q575-286 617-351Q659-416 697-491Q781-657 815-808Q810-836 781-865Q724-920 678-920Q632-920 586-891.50Q540-863 498.50-814.50Q457-766 421-701.50Q385-637 358.50-565Z"/><path id="s28:courgette-regular:100" d="M24-176Q24-207 37.50-233.50Q51-260 71-278Q113-317 159-317Q199-317 199-276Q199-172 268-131Q293-116 320-116Q347-116 366-122Q385-128 401-141Q437-170 437-210Q437-250 419-283.50Q401-317 374-354L317-434Q197-594 197-729Q197-841 292-932Q400-1035 569-1035Q717-1035 800-962Q868-903 868-827Q868-748 808-701Q754-659 700-670Q676-675 663-694.50Q650-714 658-739Q666-764 666-791Q666-818 656-841Q646-864 629-880Q594-913 555.50-913Q517-913 492-904.50Q467-896 448-880Q409-844 409-791.50Q409-739 427-701Q445-663 471.50-625Q498-587 529-548Q560-509 586-466Q649-365 649-288.50Q649-212 617-160.50Q585-109 534-72Q425 9 290 9Q161 9 86-53Q24-105 24-176Z"/><path id="s28:courgette-regular:94" d="M826-846Q768-846 614-678Q499-547 447-481L357-367Q299-257 266-184L212-68Q191-25 175.50-7.50Q160 10 133.50 10Q107 10 82.50 0.50Q58-9 40-24Q2-56 2-94Q2-109 24-153L62-234Q80-270 104-326L160-463Q278-758 278-844Q278-890 248-912L228-926Q218-933 218-950.50Q218-968 231.50-984Q245-1000 267-1012Q312-1035 357.50-1035Q403-1035 429-1025Q455-1015 474-998Q512-963 512-925Q512-887 502-848.50Q492-810 477-770.50Q462-731 445-694Q405-608 395.50-588.50Q386-569 390-574Q573-811 610-854Q687-943 730-976Q809-1035 879.50-1035Q950-1035 992-991Q1034-947 1034-875Q1034-812 1002-727Q970-642 959-608L1106-802L1188-900Q1262-983 1318-1009Q1374-1035 1409.50-1035Q1445-1035 1479.50-1022Q1514-1009 1538-985Q1589-936 1589-855Q1589-777 1553-695Q1517-613 1490-560.50Q1463-508 1438-455Q1365-296 1365-219Q1365-165 1409-165Q1451-165 1485.50-183Q1520-201 1530-201Q1551-201 1551-180Q1551-91 1460-31Q1399 10 1348.50 10Q1298 10 1267-2Q1236-14 1211-40Q1155-98 1155-185Q1155-272 1177-345Q1199-418 1229-486.50Q1259-555 1289.50-612.50Q1320-670 1336-704Q1368-774 1368-807Q1368-846 1327-846Q1273-846 1133-667Q1027-528 986-467L917-367Q859-257 828-184L777-68Q758-25 744-7.50Q730 10 705 10Q680 10 656.50 2Q633-6 616-19Q577-48 577-80.50Q577-113 598.50-169.50Q620-226 652-296L792-592Q867-757 867-801.50Q867-846 826-846M925-564Q926-564 926-565L927-567Q925-565 925-564Z"/><path id="s28:courgette-regular:83" d="M81-284Q81-342 89.50-395Q98-448 111.50-502Q125-556 142-610L254-952Q387-1368 421-1602Q432-1686 503-1686Q545-1686 574-1664Q627-1621 625.50-1572.50Q624-1524 611.50-1464.50Q599-1405 579.50-1335Q560-1265 535-1188Q468-990 435-902L378-753Q465-888 520-938Q630-1035 749-1035Q924-1035 982-852Q1001-789 1001-695Q1001-601 973.50-508.50Q946-416 899-336.50Q852-257 789.50-193Q727-129 658-84Q512 10 375 10Q237 10 158-74Q81-158 81-284M361-120Q455-120 552-204Q700-332 751-570Q768-648 768-732.50Q768-817 749-851Q730-885 690.50-885Q651-885 608-853Q565-821 518-768.50Q471-716 425-647.50Q379-579 342-506Q261-345 261-232.50Q261-120 361-120Z"/><path id="s28:courgette-regular:87" d="M-41 220Q-41 199-9.50 136.50Q22 74 59.50-23Q97-120 131-225Q165-330 200-450L278-714L174-686Q135-686 110-727Q104-738 104-753Q104-768 128-788.50Q152-809 187-827Q257-863 331-882L340-910Q367-994 391.50-1084.50Q416-1175 443.50-1261Q471-1347 506-1424.50Q541-1502 588-1560Q692-1686 849-1686Q965-1686 1033-1624Q1101-1562 1101-1456Q1101-1346 1038-1265Q985-1198 920-1198Q839-1198 810-1272Q802-1291 802-1304Q802-1326 832-1344Q887-1386 909-1456Q916-1478 916-1499Q916-1581 852-1581Q764-1581 690-1382Q668-1321 646-1248L552-929Q643-943 684.50-943Q726-943 758-933.50Q790-924 816-907Q875-868 875-811Q875-754 819-754L692-759Q588-759 500-750L418-460Q337-165 286.50-31Q236 103 188 196Q143 281 51 281Q-41 281-41 220Z"/><path id="s28:courgette-regular:101" d="M603-262Q632-262 632-223Q632-190 612-159Q585-101 504-49Q412 10 319 10Q158 10 115-134Q64-305 268-859Q153-869 143-899Q140-908 140-918.50Q140-929 149.50-943Q159-957 174-970Q209-999 245-999L324-999Q432-1252 478-1287Q500-1303 527-1303Q554-1303 572-1296Q590-1289 604-1276Q636-1246 636-1209Q636-1189 624-1163L550-1002L574-1002Q636-1002 674-1003Q674-1003 731-1004Q750-1005 778.50-1005Q807-1005 807-984Q807-852 495-852L487-852L419-676Q304-364 304-239Q304-204 320-184.50Q336-165 380-165Q424-165 460-180Q496-195 523-213.50Q550-232 569.50-247Q589-262 603-262Z"/><path id="s28:courgette-regular:90" d="M612-1269.50Q612-1269.50 601-1257.75Q590-1246 562-1231.50Q534-1217 503-1213.50Q472-1210 444.50-1223Q417-1236 397-1260Q354-1310 354-1361Q354-1412 370.50-1437.50Q387-1463 412-1479Q460-1510 502.50-1510Q545-1510 568.50-1504Q592-1498 612-1484Q661-1451 661-1403.50Q661-1356 647.50-1324.50Q634-1293 612-1269.50M407-187Q433-187 433-153Q433-108 392-60Q332 10 231 10Q115 10 72-84Q56-117 56-164Q56-211 72.50-268.50Q89-326 113.50-389.50Q138-453 167-518L220-644Q278-785 278-830Q278-875 268.50-889.50Q259-904 248-912L228-926Q218-933 218-950.50Q218-968 231.50-984Q245-1000 267-1012Q312-1035 372-1035Q519-1035 519-958Q519-868 472-752.50Q425-637 392-566L332-428Q266-276 266-209Q266-165 310-165Q353-165 375-176Q397-187 407-187Z"/><path id="s28:courgette-regular:106" d="M70-97Q58-130 58-172.50Q58-215 72.50-267.50Q87-320 110-377Q133-434 160-494L214-614Q318-845 291-888Q279-907 246-926Q234-933 234-950.50Q234-968 248.50-984Q263-1000 286-1012Q335-1035 384-1035Q433-1035 458.50-1024.50Q484-1014 500-998Q533-965 533-925Q533-885 520-835.50Q507-786 486-728Q465-670 440-608Q371-446 347-394L310-317Q279-248 279-220Q279-192 288-180.50Q297-169 320.50-169Q344-169 372.50-187Q401-205 434-235Q467-265 502.50-304.50Q538-344 572-387Q661-497 704-576Q920-974 933-992Q966-1035 999.50-1035Q1033-1035 1058-1027.50Q1083-1020 1101-1006Q1141-977 1125.50-941Q1110-905 1088-842Q898-291 841.50-155Q785-19 743 63.50Q701 146 644.50 230Q588 314 524 383Q378 539 250 550Q201 554 172 536Q122 506 122 479Q122 452 167.50 441.50Q213 431 261.50 399.50Q310 368 355 326Q487 200 560 52Q622-78 660-194L738-432Q709-397 674-350L602-254Q508-135 446-85Q328 10 235 10Q111 10 70-97Z"/><path id="s28:courgette-regular:31" d="M97.50-34Q97.50-34 86.25-45Q75-56 62-84.50Q49-113 49-150.50Q49-188 63.50-217.50Q78-247 100-265Q139-297 182.50-297Q226-297 256.50-291Q287-285 314-272Q376-240 376-180Q376-105 327-49Q281 3 231.50 8Q182 13 151 0.50Q120-12 97.50-34Z"/><path id="s28:courgette-regular:105" d="M115-22Q72 9 48.50 9Q25 9 9.50 2.50Q-6-4-19-14Q-49-39-49-59.50Q-49-80-27-97Q-27-97 34-146Q198-281 305-439Q218-683 225-845Q229-925 294-983Q354-1035 422-1035Q442-1035 448-1021Q454-1007 454-980.50Q454-954 452-924.50Q450-895 451.50-862.50Q453-830 456-792Q466-690 475-633L508-688Q622-869 774-975Q860-1035 922-1035Q978-1035 1009-1019Q1067-989 1048-958Q1045-953 1036-950L1011-938Q853-869 608-600Q557-544 519-493L554-376Q619-166 708-166Q747-166 772-178L808-194Q819-199 829-199Q850-199 850-178Q850-90 760-30Q700 10 624 10Q477 10 358-293Q232-108 115-22Z"/><path id="s28:courgette-regular:84" d="M64-345Q66-432 91.50-518.50Q117-605 159.50-682Q202-759 260.50-824Q319-889 388-936Q532-1035 691-1035Q855-1035 914-904Q935-857 933.50-797.50Q932-738 914-688.50Q896-639 869-600Q808-512 746-512Q677-512 644-550Q615-583 626-627Q629-640 644-650.50Q659-661 682-684Q747-752 750-843Q752-905 674-905Q590-905 498-811Q364-674 309-460Q261-274 327-188Q366-138 433-138Q546-138 651-218Q683-243 703-269Q723-295 740-295Q757-295 768.50-278.50Q780-262 780-236Q780-177 727-120Q591 10 400 10Q237 10 148-83Q60-175 64-345Z"/><path id="s28:courgette-regular:55" d="M957-655Q928-656 896.50-658.50Q865-661 822-662Q728-664 618-654Q593-568 535.50-442.50Q478-317 422-230Q302-44 178 0Q160 7 141.50 7Q123 7 108 0.50Q93-6 83-16Q62-35 62-58Q62-81 77-92Q219-195 369-611Q358-608 347-605Q336-602 328-599Q320-596 309.50-596Q299-596 286.50-602.50Q274-609 264-618Q242-638 242-657Q242-676 259.50-692.50Q277-709 303-724Q351-752 424-776L478-944Q573-1239 660-1353Q578-1360 539-1360Q421-1360 369-1327Q318-1294 297.50-1255.50Q277-1217 276-1202Q273-1174 258-1166.50Q243-1159 221.50-1159Q200-1159 177-1174.50Q154-1190 139-1214Q107-1263 114-1324.50Q121-1386 154.50-1430.50Q188-1475 234-1503Q319-1555 413.50-1555Q508-1555 592.50-1545.50Q677-1536 761-1524Q984-1494 1045-1494Q1106-1494 1135.50-1501Q1165-1508 1186-1522Q1207-1536 1215.50-1540.50Q1224-1545 1243-1545Q1273-1545 1269-1499.50Q1265-1454 1247-1421.50Q1229-1389 1200-1368Q1141-1325 1050-1325Q959-1325 829-1337Q796-1270 766-1161L674-831Q768-846 817.50-846Q867-846 899-836Q931-826 956-808Q1014-769 1013-712Q1012-655 957-655Z"/><path id="s28:courgette-regular:29" d="M172 229Q172 229 152 243.50Q132 258 94 274.50Q56 291 26.50 291Q-3 291-3 269Q-3 247 18 224L66 174Q158 80 158 7Q158-56 117-124Q103-148 93.50-166.50Q84-185 97-216.50Q110-248 149.50-271Q189-294 231.50-294Q274-294 302-282Q330-270 348-248Q385-205 385-140.50Q385-76 366.50-24.50Q348 27 318 73.50Q288 120 250 160Q212 200 172 229Z"/></defs><g id="line-0"><use x="0" y="1720" xlink:href="#s28:courgette-regular:69"/><use x="966" y="1720" xlink:href="#s28:courgette-regular:89"/><use x="2103" y="1720" xlink:href="#s28:courgette-regular:86"/><use x="3069" y="1720" xlink:href="#s28:courgette-regular:17"/><use x="3698" y="1720" xlink:href="#s28:courgette-regular:54"/><use x="4742" y="1720" xlink:href="#s28:courgette-regular:102"/><use x="5875" y="1720" xlink:href="#s28:courgette-regular:99"/><use x="6710" y="1720" xlink:href="#s28:courgette-regular:96"/><use x="7763" y="1720" xlink:href="#s28:courgette-regular:97"/><use x="8891" y="1720" xlink:href="#s28:courgette-regular:86"/><use x="9857" y="1720" xlink:href="#s28:courgette-regular:82"/><use x="10966" y="1720" xlink:href="#s28:courgette-regular:95"/><use x="12115" y="1720" xlink:href="#s28:courgette-regular:17"/><use x="12744" y="1720" xlink:href="#s28:courgette-regular:93"/><use x="13316" y="1720" xlink:href="#s28:courgette-regular:82"/><use x="14425" y="1720" xlink:href="#s28:courgette-regular:95"/><use x="15574" y="1720" xlink:href="#s28:courgette-regular:88"/><use x="16653" y="1720" xlink:href="#s28:courgette-regular:102"/><use x="17786" y="1720" xlink:href="#s28:courgette-regular:82"/><use x="18895" y="1720" xlink:href="#s28:courgette-regular:88"/><use x="19974" y="1720" xlink:href="#s28:courgette-regular:86"/><use x="20940" y="1720" xlink:href="#s28:courgette-regular:100"/><use x="21807" y="1720" xlink:href="#s28:courgette-regular:17"/><use x="22436" y="1720" xlink:href="#s28:courgette-regular:82"/><use x="23545" y="1720" xlink:href="#s28:courgette-regular:99"/><use x="24380" y="1720" xlink:href="#s28:courgette-regular:86"/><use x="25346" y="1720" xlink:href="#s28:courgette-regular:17"/><use x="25975" y="1720" xlink:href="#s28:courgette-regular:94"/><use x="27644" y="1720" xlink:href="#s28:courgette-regular:86"/><use x="28610" y="1720" xlink:href="#s28:courgette-regular:94"/><use x="30279" y="1720" xlink:href="#s28:courgette-regular:83"/><use x="31356" y="1720" xlink:href="#s28:courgette-regular:86"/><use x="32322" y="1720" xlink:href="#s28:courgette-regular:99"/><use x="33157" y="1720" xlink:href="#s28:courgette-regular:100"/><use x="34024" y="1720" xlink:href="#s28:courgette-regular:17"/><use x="34653" y="1720" xlink:href="#s28:courgette-regular:96"/><use x="35706" y="1720" xlink:href="#s28:courgette-regular:87"/><use x="36512" y="1720" xlink:href="#s28:courgette-regular:17"/><use x="37141" y="1720" xlink:href="#s28:courgette-regular:101"/><use x="37876" y="1720" xlink:href="#s28:courgette-regular:89"/><use x="39013" y="1720" xlink:href="#s28:courgette-regular:86"/><use x="39979" y="1720" xlink:href="#s28:courgette-regular:17"/><use x="40608" y="1720" xlink:href="#s28:courgette-regular:100"/><use x="41475" y="1720" xlink:href="#s28:courgette-regular:82"/><use x="42584" y="1720" xlink:href="#s28:courgette-regular:94"/><use x="44253" y="1720" xlink:href="#s28:courgette-regular:86"/><use x="45219" y="1720" xlink:href="#s28:courgette-regular:17"/><use x="45848" y="1720" xlink:href="#s28:courgette-regular:87"/><use x="46654" y="1720" xlink:href="#s28:courgette-regular:82"/><use x="47763" y="1720" xlink:href="#s28:courgette-regular:94"/><use x="49432" y="1720" xlink:href="#s28:courgette-regular:90"/><use x="50018" y="1720" xlink:href="#s28:courgette-regular:93"/><use x="50590" y="1720" xlink:href="#s28:courgette-regular:106"/><use x="51716" y="1720" xlink:href="#s28:courgette-regular:31"/></g><g id="line-1"><use x="10496" y="4177.6" xlink:href="#s28:courgette-regular:69"/><use x="11462" y="4177.6" xlink:href="#s28:courgette-regular:89"/><use x="12599" y="4177.6" xlink:href="#s28:courgette-regular:86"/><use x="13565" y="4177.6" xlink:href="#s28:courgette-regular:90"/><use x="14151" y="4177.6" xlink:href="#s28:courgette-regular:99"/><use x="14986" y="4177.6" xlink:href="#s28:courgette-regular:17"/><use x="15615" y="4177.6" xlink:href="#s28:courgette-regular:100"/><use x="16482" y="4177.6" xlink:href="#s28:courgette-regular:86"/><use x="17448" y="4177.6" xlink:href="#s28:courgette-regular:97"/><use x="18576" y="4177.6" xlink:href="#s28:courgette-regular:82"/><use x="19685" y="4177.6" xlink:href="#s28:courgette-regular:99"/><use x="20520" y="4177.6" xlink:href="#s28:courgette-regular:82"/><use x="21629" y="4177.6" xlink:href="#s28:courgette-regular:101"/><use x="22364" y="4177.6" xlink:href="#s28:courgette-regular:86"/><use x="23330" y="4177.6" xlink:href="#s28:courgette-regular:17"/><use x="23959" y="4177.6" xlink:href="#s28:courgette-regular:86"/><use x="24925" y="4177.6" xlink:href="#s28:courgette-regular:105"/><use x="25882" y="4177.6" xlink:href="#s28:courgette-regular:90"/><use x="26468" y="4177.6" xlink:href="#s28:courgette-regular:100"/><use x="27335" y="4177.6" xlink:href="#s28:courgette-regular:101"/><use x="28070" y="4177.6" xlink:href="#s28:courgette-regular:86"/><use x="29036" y="4177.6" xlink:href="#s28:courgette-regular:95"/><use x="30185" y="4177.6" xlink:href="#s28:courgette-regular:84"/><use x="31138" y="4177.6" xlink:href="#s28:courgette-regular:86"/><use x="32104" y="4177.6" xlink:href="#s28:courgette-regular:17"/><use x="32733" y="4177.6" xlink:href="#s28:courgette-regular:90"/><use x="33319" y="4177.6" xlink:href="#s28:courgette-regular:100"/><use x="34186" y="4177.6" xlink:href="#s28:courgette-regular:17"/><use x="34815" y="4177.6" xlink:href="#s28:courgette-regular:82"/><use x="35924" y="4177.6" xlink:href="#s28:courgette-regular:17"/><use x="36553" y="4177.6" xlink:href="#s28:courgette-regular:94"/><use x="38222" y="4177.6" xlink:href="#s28:courgette-regular:106"/><use x="39348" y="4177.6" xlink:href="#s28:courgette-regular:101"/><use x="40083" y="4177.6" xlink:href="#s28:courgette-regular:89"/><use x="41220" y="4177.6" xlink:href="#s28:courgette-regular:31"/></g><g id="line-2"><use x="12699" y="6635.2" xlink:href="#s28:courgette-regular:55"/><use x="13761" y="6635.2" xlink:href="#s28:courgette-regular:96"/><use x="14814" y="6635.2" xlink:href="#s28:courgette-regular:99"/><use x="15649" y="6635.2" xlink:href="#s28:courgette-regular:17"/><use x="16278" y="6635.2" xlink:href="#s28:courgette-regular:100"/><use x="17145" y="6635.2" xlink:href="#s28:courgette-regular:84"/><use x="18098" y="6635.2" xlink:href="#s28:courgette-regular:90"/><use x="18684" y="6635.2" xlink:href="#s28:courgette-regular:86"/><use x="19650" y="6635.2" xlink:href="#s28:courgette-regular:95"/><use x="20799" y="6635.2" xlink:href="#s28:courgette-regular:84"/><use x="21752" y="6635.2" xlink:href="#s28:courgette-regular:86"/><use x="22718" y="6635.2" xlink:href="#s28:courgette-regular:29"/><use x="23359" y="6635.2" xlink:href="#s28:courgette-regular:17"/><use x="23988" y="6635.2" xlink:href="#s28:courgette-regular:94"/><use x="25657" y="6635.2" xlink:href="#s28:courgette-regular:102"/><use x="26790" y="6635.2" xlink:href="#s28:courgette-regular:100"/><use x="27657" y="6635.2" xlink:href="#s28:courgette-regular:90"/><use x="28243" y="6635.2" xlink:href="#s28:courgette-regular:84"/><use x="29196" y="6635.2" xlink:href="#s28:courgette-regular:29"/><use x="29837" y="6635.2" xlink:href="#s28:courgette-regular:17"/><use x="30466" y="6635.2" xlink:href="#s28:courgette-regular:100"/><use x="31333" y="6635.2" xlink:href="#s28:courgette-regular:97"/><use x="32461" y="6635.2" xlink:href="#s28:courgette-regular:96"/><use x="33514" y="6635.2" xlink:href="#s28:courgette-regular:99"/><use x="34349" y="6635.2" xlink:href="#s28:courgette-regular:101"/><use x="35084" y="6635.2" xlink:href="#s28:courgette-regular:29"/><use x="35725" y="6635.2" xlink:href="#s28:courgette-regular:17"/><use x="36354" y="6635.2" xlink:href="#s28:courgette-regular:86"/><use x="37320" y="6635.2" xlink:href="#s28:courgette-regular:101"/><use x="38055" y="6635.2" xlink:href="#s28:courgette-regular:84"/><use x="39008" y="6635.2" xlink:href="#s28:courgette-regular:29"/></g></svg>