<svg xmlns="http://www.w3.org/2000/svg" xmlns:xlink="http://www.w3.org/1999/xlink" width="484" height="83" viewBox="0 0 20167 3460" ><defs><path id="s30:dancingscript-regular:158" d="M187 87Q144 87 126 68.50Q108 50 108 16Q108-10 117.50-44.50Q127-79 145-130Q187-251 244-400Q301-549 349-652Q241-650 187-646.50Q133-643 69-632Q73-679 137-699.50Q201-720 313-720Q394-720 506-708Q539-704 573-701Q607-698 635-698Q603-670 562-660.50Q521-651 464-651L393-652Q311-447 236-175L227-142Q204-58 195-16.50Q186 25 186 65Q186 80 187 87Z"/><path id="s30:dancingscript-regular:294" d="M47 38Q29 38 17.50 7Q6-24 6-66Q6-158 62.50-314Q119-470 191-592Q263-714 305-714Q321-714 329.50-694.50Q338-675 338-651Q338-604 304.50-526Q271-448 217.50-376Q164-304 108-270Q90-228 80.50-172.50Q71-117 71-73Q71-57 73-39Q113-155 163.50-226.50Q214-298 276-298Q314-298 333-271.50Q352-245 352-208Q352-186 346.50-166Q341-146 329-114Q319-87 314-71Q309-55 309-40Q309-21 317-11.50Q325-2 339-2Q373-2 419-49.50Q465-97 495-162L508-150Q475-74 423.50-25Q372 24 316 24Q283 24 265 6.50Q247-11 247-39Q247-61 262-110Q278-164 278-190Q278-215 267.50-226.50Q257-238 240-238Q203-238 175.50-194.50Q148-151 116-72Q92-14 78 12Q64 38 47 38M121-309Q164-343 206.50-407.50Q249-472 276.50-535.50Q304-599 304-625Q304-633 300-633Q289-633 254.50-583.50Q220-534 182-459Q144-384 121-309Z"/><path id="s30:dancingscript-regular:266" d="M108 44Q49 44 17.50 11.50Q-14-21-14-72Q-14-131 25-199Q64-267 123.50-313.50Q183-360 240-360Q302-360 302-299Q302-250 265-207.50Q228-165 170-138Q112-111 54-105Q50-88 50-69Q50-33 68-9Q86 15 129 15Q190 15 252-36Q314-87 353-162L365-153Q325-64 254-10Q183 44 108 44M59-124Q101-139 147-166Q193-193 225.50-229.50Q258-266 258-306Q258-318 253.50-323.50Q249-329 237-329Q206-329 169.50-298Q133-267 102.50-219Q72-171 59-124Z"/><path id="s30:dancingscript-regular:3" d=""/><path id="s30:dancingscript-regular:44" d="M180 87Q122 87 77.50 62.50Q33 38 9-3.50Q-15-45-15-95Q-15-156 20-213Q55-270 114.50-308.50Q174-347 244-354Q206-385 187-426.50Q168-468 168-512Q168-565 195-613Q222-661 269-690Q316-719 374-719Q429-719 458.50-691Q488-663 488-611Q488-575 475-540Q462-505 443-482.50Q424-460 408-460Q397-460 387-469Q377-478 371-492Q455-565 455-631Q455-662 437-679Q419-696 384-696Q317-696 279-638.50Q241-581 241-495Q241-394 299-344Q235-333 184.50-294Q134-255 106-200.50Q78-146 78-92Q78-35 109.50 9Q141 53 206 53Q257 53 310 23.50Q363-6 407-55Q451-104 478-162L492-152Q436-44 356 21.50Q276 87 180 87Z"/><path id="s30:dancingscript-regular:387" d="M75 30Q42 30 21 0.50Q0-29 0-71Q0-108 15.50-162.50Q31-217 52.50-257.50Q74-298 88-298Q94-298 105.50-292Q117-286 125-278Q104-245 81-183.50Q58-122 58-77Q58-54 65.50-32Q73-10 94-10Q129-10 170.50-74.50Q212-139 260-238L276-271Q324-262 324-245Q324-243 319.50-231.50Q315-220 311-211Q288-160 272.50-115.50Q257-71 257-40Q257 0 290 0Q312 0 342-19.50Q372-39 403-76Q434-113 457-162L470-153Q449-100 415.50-58.50Q382-17 343 6.50Q304 30 269 30Q199 30 199-44Q199-64 206-94Q174-37 142-3.50Q110 30 75 30Z"/><path id="s30:dancingscript-regular:369" d="M173 26Q139 26 119.50 8Q100-10 100-39Q100-73 129-137Q142-170 148.50-189.50Q155-209 155-226Q155-251 143.50-265.50Q132-280 118-289.50Q104-299 99-302Q77-246 52-192.50Q27-139 10-110L1-127Q49-220 82-317Q72-327 72-341Q72-359 79.50-375Q87-391 97.50-400Q108-409 114-409Q128-409 128-385Q128-381 123-367Q118-353 117-348Q117-338 125.50-329.50Q134-321 153-308Q184-286 201.50-264.50Q219-243 219-209Q219-187 212-165.50Q205-144 191-109Q169-61 169-40Q169-10 199-10Q229-10 263.50-34Q298-58 327-93.50Q356-129 369-159L382-149Q351-80 292-27Q233 26 173 26Z"/><path id="s30:dancingscript-regular:335" d="M69 32Q28 32 9 7Q-10-18-10-59Q-10-100 7-145Q24-190 51-220Q78-250 105-250Q114-250 126-245Q114-235 97-201Q80-167 67.50-128.50Q55-90 55-66Q55-9 91-9Q112-9 141-31Q170-53 198-89Q170-112 154.50-149Q139-186 139-226Q139-278 165.50-315Q192-352 237-352Q275-352 290.50-331.50Q306-311 306-275Q306-237 287.50-189.50Q269-142 239-97Q257-87 277-87Q306-87 337-104.50Q368-122 384-159L396-149Q377-105 342-84Q307-63 270-63Q243-63 222-73Q186-26 145.50 3Q105 32 69 32M216-115Q242-154 258-194.50Q274-235 274-269Q274-297 265.50-311Q257-325 244-325Q230-325 215.50-311.50Q201-298 191.50-274.50Q182-251 182-223Q182-192 190.50-163.50Q199-135 216-115Z"/><path id="s30:dancingscript-regular:366" d="M-63 280Q-71 280-78 272Q-85 264-90 254Q-95 244-94 242Q-80 194-60 136Q-38 72-23 19Q-8-34 8.50-124.50Q25-215 42-356Q43-366 46.50-369.50Q50-373 61-373Q85-373 97-359.50Q109-346 109-327Q109-299 86-192Q117-252 161.50-295.50Q206-339 259-339Q303-339 331.50-307.50Q360-276 360-225Q360-172 329-112.50Q298-53 243.50-13.50Q189 26 124 26Q99 26 82.50 20.50Q66 15 66 8Q66 5 73.50 4Q81 3 91 3Q143 3 190-30Q237-63 266-114Q295-165 295-216Q295-250 280.50-271.50Q266-293 238-293Q206-293 172.50-266.50Q139-240 112.50-202.50Q86-165 72-132Q35 26 0.50 142.50Q-34 259-51 275Q-56 280-63 280Z"/><path id="s30:dancingscript-regular:227" d="M48 47Q15 47-5.50 25.50Q-26 4-26-36Q-26-95 16.50-168Q59-241 124-292Q189-343 251-343Q290-343 316-322Q342-301 342-268Q342-245 329-235Q316-225 293-225Q298-243 298-260Q298-285 286-300.50Q274-316 249-316Q205-316 156.50-267Q108-218 75.50-150Q43-82 43-33Q43 6 70 6Q110 6 164-57.50Q218-121 280-212Q293-210 306.50-203.50Q320-197 320-187Q320-179 310.50-161.50Q301-144 299-141Q282-112 272-89.50Q262-67 262-48Q262-31 270.50-17.50Q279-4 296-4Q325-4 369-45.50Q413-87 456-162L466-152Q445-99 412-57.50Q379-16 341 7Q303 30 268 30Q233 30 214.50 9.50Q196-11 196-40Q196-53 199-69Q154-9 118.50 19Q83 47 48 47Z"/><path id="s30:dancingscript-regular:327" d="M323 20Q289 20 271 2.50Q253-15 253-44Q253-57 257.50-74.50Q262-92 267-109Q273-127 277.50-147Q282-167 282-183Q282-232 242-232Q204-232 162.50-192Q121-152 88.50-103Q56-54 15 15Q-2 15-16 9.50Q-30 4-38-7Q-38-12-25-43Q0-107 16-159.50Q32-212 33-253Q40-261 53-267.50Q66-274 79-274Q106-274 106-248Q106-233 97-195.50Q88-158 74-116Q122-190 176-241Q230-292 282-292Q319-292 337.50-265.50Q356-239 356-202Q356-180 350.50-160Q345-140 334-114Q325-92 320-76Q315-60 315-44Q315-6 345-6Q379-6 415.50-51Q452-96 485-162L496-149Q424 20 323 20Z"/><path id="s30:dancingscript-regular:319" d="M83 30Q42 30 22.50 2Q3-26 3-73Q3-163 65-317.50Q127-472 203.50-596Q280-720 314-720Q328-720 337.50-695.50Q347-671 347-646Q347-600 309.50-510.50Q272-421 211-329Q150-237 81-180Q68-122 68-79Q68-2 112-2Q149-2 187.50-49Q226-96 256-162L271-154Q185 30 83 30M90-214Q145-269 197.50-352.50Q250-436 283-512.50Q316-589 316-623Q316-639 309-639Q295-639 251.50-570.50Q208-502 162-403Q116-304 90-214Z"/><path id="s30:dancingscript-regular:288" d="M38 280Q14 280-3 265.50Q-20 251-20 222Q-20 185 9 153.50Q38 122 75.50 99.50Q113 77 175 46Q203-26 226-119Q137 9 63 9Q28 9 8-17.50Q-12-44-12-88Q-12-154 30.50-214Q73-274 135.50-310.50Q198-347 253-347Q280-347 293.50-338Q307-329 307-315Q307-307 302.50-301.50Q298-296 295-295Q285-310 255-310Q205-310 158.50-272Q112-234 83-180Q54-126 54-83Q54-59 63.50-46.50Q73-34 89-34Q116-34 156.50-71Q197-108 237-166L249-219Q253-238 265.50-254Q278-270 300-270Q309-270 321-267Q321-240 299-158.50Q277-77 244 7Q296-18 340.50-62.50Q385-107 407-162L420-152Q399-91 344.50-41Q290 9 233 36Q186 150 138 215Q90 280 38 280M35 248Q58 248 92.50 204.50Q127 161 164 73Q91 110 51 142Q11 174 11 213Q11 229 17.50 238.50Q24 248 35 248Z"/><path id="s30:dancingscript-regular:375" d="M105 51Q40 51 10 12Q-20-27-20-80Q-20-120-6-136.50Q8-153 24.50-160Q41-167 44-170Q108-240 143-315L143-327Q143-361 154.50-378Q166-395 182-395Q190-395 194-391.50Q198-388 198-382Q198-378 195-365.50Q192-353 192-338Q192-318 197.50-295.50Q203-273 215-237Q229-194 236.50-162Q244-130 244-97Q244-71 238-48Q274-54 305-80.50Q336-107 364-161L373-151Q355-99 318-69Q281-39 233-32Q218 9 184 30Q150 51 105 51M175-49Q179-75 179-96Q179-126 174-156Q169-186 159-225Q150-265 148-277Q97-193 51-147Q67-112 99.50-85Q132-58 175-49M107 16Q153 16 170-33Q130-41 97-64.50Q64-88 47-116Q25-115 25-81Q25-43 47.50-13.50Q70 16 107 16Z"/><path id="s30:dancingscript-regular:326" d="M504 31Q471 31 454 10.50Q437-10 437-42Q437-69 453-121Q458-138 462.50-155Q467-172 467-184Q467-202 458.50-211Q450-220 438-220Q415-220 388.50-187.50Q362-155 307-71Q293-49 268 3L259 22Q243 22 225.50 16.50Q208 11 208 2Q208-5 225-51Q246-113 258.50-155.50Q271-198 271-228Q271-266 246-266Q218-266 173.50-221Q129-176 86-107.50Q43-39 19 27Q4 27-15.50 20Q-35 13-35 6Q-35 3-21-41Q2-108 17.50-164Q33-220 34-261Q41-269 54-275.50Q67-282 80-282Q107-282 107-256Q107-229 81-142Q130-220 186.50-276Q243-332 292-332Q321-332 333.50-311Q346-290 346-256Q346-222 336-182Q326-142 315-115Q353-184 394-226.50Q435-269 481-269Q511-269 524.50-251Q538-233 538-205Q538-186 533-164.50Q528-143 518-112Q501-59 501-38Q501-4 531-4Q568-4 601-49.50Q634-95 665-162L677-148Q649-74 604-21.50Q559 31 504 31Z"/><path id="s30:dancingscript-regular:254" d="M93 73Q42 73 16 39.50Q-10 6-10-53Q-10-148 50-307Q110-466 185.50-590Q261-714 301-714Q316-714 324.50-694.50Q333-675 333-651Q333-604 300-526Q267-448 214-376Q161-304 105-270Q92-246 74.50-180Q57-114 57-59Q57 35 112 35Q141 35 172 11.50Q203-12 222-49Q187-67 168-102.50Q149-138 149-178Q149-225 173.50-254.50Q198-284 233-284Q262-284 279-260Q296-236 296-192Q296-126 261-56Q273-53 287-53Q334-53 362.50-83Q391-113 415-162L427-149Q401-85 364.50-60Q328-35 284-35Q267-35 252-38Q222 12 182 42.50Q142 73 93 73M116-309Q159-343 201.50-407.50Q244-472 271.50-535.50Q299-599 299-625Q299-633 295-633Q284-633 248.50-582Q213-531 175-455.50Q137-380 116-309M232-69Q255-118 255-170Q255-204 245.50-224.50Q236-245 222-245Q207-245 195.50-224Q184-203 184-173Q184-143 196-114Q208-85 232-69Z"/><path id="s30:dancingscript-regular:287" d="M-13 280Q-34 280-51 260.50Q-68 241-68 192Q-68 87 7-138.50Q82-364 182.50-542Q283-720 360-720Q379-720 386.50-708.50Q394-697 394-676Q394-621 355-551Q316-481 254-414Q192-347 127-302Q120-286 108-252Q118-250 124.50-240.50Q131-231 133-220Q141-164 149-133Q157-102 173.50-83Q190-64 220-64Q253-64 276.50-87Q300-110 331-162L346-152Q322-96 285-67Q248-38 215-38Q197-38 177.50-47Q158-56 141-71Q141 11 118 93Q95 175 59.50 227.50Q24 280-13 280M143-343Q204-399 252.50-460Q301-521 328-569.50Q355-618 355-639Q355-653 341-653Q304-653 251-566.50Q198-480 143-343M13 232Q31 232 55.50 181Q80 130 97.50 60.50Q115-9 115-60Q115-90 107.50-115Q100-140 81-177Q42-62 18 36Q-6 134-6 184Q-6 207-1 219.50Q4 232 13 232Z"/><path id="s30:dancingscript-regular:382" d="M85 46Q-4 46-4-53Q-4-96 11.50-159.50Q27-223 54-294Q30-298 18-302L18-320Q54-316 62-316Q106-430 156.50-513.50Q207-597 236-597Q244-597 250.50-591Q257-585 257-575Q257-562 244.50-537Q232-512 202-460Q197-450 171-404.50Q145-359 124-313L161-313Q244-313 304-319L304-301Q195-289 128-289L113-289Q58-163 58-71Q58-28 71-9.50Q84 9 114 9Q165 9 215-36.50Q265-82 304-162L317-152Q280-65 217-9.50Q154 46 85 46Z"/><path id="s30:dancingscript-regular:297" d="M192-432Q174-432 162.50-440.50Q151-449 151-465Q151-485 175-501Q199-517 224-517Q257-517 257-486Q257-467 236.50-449.50Q216-432 192-432M72 26Q35 26 15 2.50Q-5-21-5-58Q-5-97 17.50-166Q40-235 73.50-287Q107-339 139-339Q148-339 154.50-333Q161-327 161-317Q161-303 129-250Q96-195 76.50-151.50Q57-108 57-69Q57-34 68.50-21.50Q80-9 106-9Q184-9 260-162L269-152Q241-68 186.50-21Q132 26 72 26Z"/><path id="s30:dancingscript-regular:415" d="M43 280Q16 280-2 266Q-20 252-20 227Q-20 187 5.50 156.50Q31 126 68 103.50Q105 81 174 46Q204-31 230-137Q194-78 158-44Q122-10 84-10Q52-10 28-31Q4-52 4-91Q4-127 20-179Q36-231 57-270Q78-309 92-309Q101-309 118.50-301.50Q136-294 136-286Q116-257 93-192.50Q70-128 70-90Q70-50 106-50Q133-50 169.50-87Q206-124 239-178Q244-195 249-224Q253-243 265.50-259Q278-275 300-275Q309-275 321-272Q321-245 298.50-161Q276-77 243 8Q293-12 337-54.50Q381-97 408-162L421-152Q384-35 232 35Q188 143 139.50 211.50Q91 280 43 280M38 248Q49 248 69 229.50Q89 211 114 171Q139 131 164 70Q111 98 80.50 117.50Q50 137 30.50 162Q11 187 11 218Q11 228 18 238Q25 248 38 248Z"/><path id="s30:dancingscript-regular:486" d="M40 10Q26 10 17 3Q8-4 8-17Q8-33 27-45.50Q46-58 66-58Q92-58 92-34Q92-19 75.50-4.50Q59 10 40 10Z"/><path id="s30:dancingscript-regular:414" d="M44 59Q34 59 34 44Q34 28 77-29.50Q120-87 182-156Q175-216 167-244Q159-272 138-272Q110-272 90-246.50Q70-221 38-164L19-129L10-145L31-189Q49-230 63-254Q77-278 99.50-294.50Q122-311 154-311Q190-311 209.50-286Q229-261 237-216Q287-268 323.50-300Q360-332 373-332Q379-332 388.50-329Q398-326 398-321Q382-321 340-281Q298-241 243-177L246-137Q251-72 260-41Q269-10 297-10Q331-10 372.50-59Q414-108 438-161L448-151Q433-107 404.50-66Q376-25 341 0.50Q306 26 272 26Q232 26 213.50-10.50Q195-47 187-111Q122-33 56 52Q50 59 44 59Z"/><path id="s30:dancingscript-regular:255" d="M107 56Q57 56 26 23Q-5-10-5-72Q-5-137 28-199Q61-261 112.50-299.50Q164-338 214-338Q252-338 268.50-316.50Q285-295 285-264Q285-234 271.50-212.50Q258-191 235-191Q218-191 206-206Q221-213 232-237.50Q243-262 243-285Q243-298 238-304Q233-310 221-310Q187-310 148.50-269.50Q110-229 83.50-171Q57-113 57-65Q57-29 74-5.50Q91 18 130 18Q191 18 250.50-32Q310-82 342-163L355-153Q332-93 292-45.50Q252 2 203.50 29Q155 56 107 56Z"/><path id="s30:dancingscript-regular:64" d="M152 87Q110 84 97 65Q84 46 84 8Q84-34 104-98Q124-162 166-277Q172-291 182-319Q157-317 105-310L71-305Q75-371 202-375Q267-554 318-660Q292-662 279-662Q215-662 180.50-649Q146-636 132.50-610Q119-584 119-540Q119-499 132-461Q66-472 66-539Q66-590 102.50-630Q139-670 202-692.50Q265-715 341-715Q378-715 446-707Q456-706 486-703Q516-700 540-700Q580-700 614-710Q579-670 554-655Q529-640 501-640Q482-640 433-647Q408-652 359-657Q331-589 263-374Q311-371 353-365Q416-359 438-358Q427-342 411.50-335.50Q396-329 363.50-327Q331-325 248-323L204-174Q154-6 152 87Z"/><path id="s30:dancingscript-regular:481" d="M7 88Q-10 78-10 51Q-10 18 10-19Q30-56 51-56Q61-56 68.50-47.50Q76-39 76-28Q55-6 42 16.50Q29 39 20 59.50Q11 80 7 88Z"/></defs><g id="line-0"><use x="0" y="780" xlink:href="#s30:dancingscript-regular:158" /><use x="490" y="780" xlink:href="#s30:dancingscript-regular:294" /><use x="966" y="780" xlink:href="#s30:dancingscript-regular:266" /><use x="1299" y="780" xlink:href="#s30:dancingscript-regular:3" /><use x="1559" y="780" xlink:href="#s30:dancingscript-regular:44" /><use x="2057" y="780" xlink:href="#s30:dancingscript-regular:387" /><use x="2495" y="780" xlink:href="#s30:dancingscript-regular:369" /><use x="2843" y="780" xlink:href="#s30:dancingscript-regular:335" /><use x="3208" y="780" xlink:href="#s30:dancingscript-regular:366" /><use x="3599" y="780" xlink:href="#s30:dancingscript-regular:266" /><use x="3932" y="780" xlink:href="#s30:dancingscript-regular:227" /><use x="4368" y="780" xlink:href="#s30:dancingscript-regular:327" /><use x="4834" y="780" xlink:href="#s30:dancingscript-regular:3" /><use x="5094" y="780" xlink:href="#s30:dancingscript-regular:319" /><use x="5330" y="780" xlink:href="#s30:dancingscript-regular:227" /><use x="5766" y="780" xlink:href="#s30:dancingscript-regular:327" /><use x="6232" y="780" xlink:href="#s30:dancingscript-regular:288" /><use x="6621" y="780" xlink:href="#s30:dancingscript-regular:387" /><use x="7059" y="780" xlink:href="#s30:dancingscript-regular:227" /><use x="7495" y="780" xlink:href="#s30:dancingscript-regular:288" /><use x="7884" y="780" xlink:href="#s30:dancingscript-regular:266" /><use x="8217" y="780" xlink:href="#s30:dancingscript-regular:375" /><use x="8562" y="780" xlink:href="#s30:dancingscript-regular:3" /><use x="8822" y="780" xlink:href="#s30:dancingscript-regular:227" /><use x="9258" y="780" xlink:href="#s30:dancingscript-regular:369" /><use x="9606" y="780" xlink:href="#s30:dancingscript-regular:266" /><use x="9939" y="780" xlink:href="#s30:dancingscript-regular:3" /><use x="10199" y="780" xlink:href="#s30:dancingscript-regular:326" /><use x="10845" y="780" xlink:href="#s30:dancingscript-regular:266" /><use x="11178" y="780" xlink:href="#s30:dancingscript-regular:326" /><use x="11824" y="780" xlink:href="#s30:dancingscript-regular:254" /><use x="12218" y="780" xlink:href="#s30:dancingscript-regular:266" /><use x="12551" y="780" xlink:href="#s30:dancingscript-regular:369" /><use x="12899" y="780" xlink:href="#s30:dancingscript-regular:375" /><use x="13244" y="780" xlink:href="#s30:dancingscript-regular:3" /><use x="13504" y="780" xlink:href="#s30:dancingscript-regular:335" /><use x="13869" y="780" xlink:href="#s30:dancingscript-regular:287" /><use x="14181" y="780" xlink:href="#s30:dancingscript-regular:3" /><use x="14441" y="780" xlink:href="#s30:dancingscript-regular:382" /><use x="14726" y="780" xlink:href="#s30:dancingscript-regular:294" /><use x="15202" y="780" xlink:href="#s30:dancingscript-regular:266" /><use x="15535" y="780" xlink:href="#s30:dancingscript-regular:3" /><use x="15795" y="780" xlink:href="#s30:dancingscript-regular:375" /><use x="16140" y="780" xlink:href="#s30:dancingscript-regular:227" /><use x="16576" y="780" xlink:href="#s30:dancingscript-regular:326" /><use x="17222" y="780" xlink:href="#s30:dancingscript-regular:266" /><use x="17555" y="780" xlink:href="#s30:dancingscript-regular:3" /><use x="17815" y="780" xlink:href="#s30:dancingscript-regular:287" /><use x="18127" y="780" xlink:href="#s30:dancingscript-regular:227" /><use x="18563" y="780" xlink:href="#s30:dancingscript-regular:326" /><use x="19209" y="780" xlink:href="#s30:dancingscript-regular:297" /><use x="19450" y="780" xlink:href="#s30:dancingscript-regular:319" /><use x="19686" y="780" xlink:href="#s30:dancingscript-regular:415" /><use x="20075" y="780" xlink:href="#s30:dancingscript-regular:486" /></g><g id="line-1"><use x="4042.5" y="1980" xlink:href="#s30:dancingscript-regular:158" /><use x="4532.5" y="1980" xlink:href="#s30:dancingscript-regular:294" /><use x="5008.5" y="1980" xlink:href="#s30:dancingscript-regular:266" /><use x="5341.5" y="1980" xlink:href="#s30:dancingscript-regular:297" /><use x="5582.5" y="1980" xlink:href="#s30:dancingscript-regular:369" /><use x="5930.5" y="1980" xlink:href="#s30:dancingscript-regular:3" /><use x="6190.5" y="1980" xlink:href="#s30:dancingscript-regular:375" /><use x="6535.5" y="1980" xlink:href="#s30:dancingscript-regular:266" /><use x="6868.5" y="1980" xlink:href="#s30:dancingscript-regular:366" /><use x="7259.5" y="1980" xlink:href="#s30:dancingscript-regular:227" /><use x="7695.5" y="1980" xlink:href="#s30:dancingscript-regular:369" /><use x="8043.5" y="1980" xlink:href="#s30:dancingscript-regular:227" /><use x="8479.5" y="1980" xlink:href="#s30:dancingscript-regular:382" /><use x="8764.5" y="1980" xlink:href="#s30:dancingscript-regular:266" /><use x="9097.5" y="1980" xlink:href="#s30:dancingscript-regular:3" /><use x="9357.5" y="1980" xlink:href="#s30:dancingscript-regular:266" /><use x="9690.5" y="1980" xlink:href="#s30:dancingscript-regular:414" /><use x="10108.5" y="1980" xlink:href="#s30:dancingscript-regular:297" /><use x="10349.5" y="1980" xlink:href="#s30:dancingscript-regular:375" /><use x="10694.5" y="1980" xlink:href="#s30:dancingscript-regular:382" /><use x="10979.5" y="1980" xlink:href="#s30:dancingscript-regular:266" /><use x="11312.5" y="1980" xlink:href="#s30:dancingscript-regular:327" /><use x="11778.5" y="1980" xlink:href="#s30:dancingscript-regular:255" /><use x="12101.5" y="1980" xlink:href="#s30:dancingscript-regular:266" /><use x="12434.5" y="1980" xlink:href="#s30:dancingscript-regular:3" /><use x="12694.5" y="1980" xlink:href="#s30:dancingscript-regular:297" /><use x="12935.5" y="1980" xlink:href="#s30:dancingscript-regular:375" /><use x="13280.5" y="1980" xlink:href="#s30:dancingscript-regular:3" /><use x="13540.5" y="1980" xlink:href="#s30:dancingscript-regular:227" /><use x="13976.5" y="1980" xlink:href="#s30:dancingscript-regular:3" /><use x="14236.5" y="1980" xlink:href="#s30:dancingscript-regular:326" /><use x="14882.5" y="1980" xlink:href="#s30:dancingscript-regular:415" /><use x="15271.5" y="1980" xlink:href="#s30:dancingscript-regular:382" /><use x="15556.5" y="1980" xlink:href="#s30:dancingscript-regular:294" /><use x="16032.5" y="1980" xlink:href="#s30:dancingscript-regular:486" /></g><g id="line-2"><use x="5118" y="3180" xlink:href="#s30:dancingscript-regular:64" /><use x="5600" y="3180" xlink:href="#s30:dancingscript-regular:335" /><use x="5965" y="3180" xlink:href="#s30:dancingscript-regular:369" /><use x="6313" y="3180" xlink:href="#s30:dancingscript-regular:3" /><use x="6573" y="3180" xlink:href="#s30:dancingscript-regular:375" /><use x="6918" y="3180" xlink:href="#s30:dancingscript-regular:255" /><use x="7241" y="3180" xlink:href="#s30:dancingscript-regular:297" /><use x="7482" y="3180" xlink:href="#s30:dancingscript-regular:266" /><use x="7815" y="3180" xlink:href="#s30:dancingscript-regular:327" /><use x="8281" y="3180" xlink:href="#s30:dancingscript-regular:255" /><use x="8604" y="3180" xlink:href="#s30:dancingscript-regular:266" /><use x="8937" y="3180" xlink:href="#s30:dancingscript-regular:481" /><use x="9133" y="3180" xlink:href="#s30:dancingscript-regular:3" /><use x="9393" y="3180" xlink:href="#s30:dancingscript-regular:326" /><use x="10039" y="3180" xlink:href="#s30:dancingscript-regular:387" /><use x="10477" y="3180" xlink:href="#s30:dancingscript-regular:375" /><use x="10822" y="3180" xlink:href="#s30:dancingscript-regular:297" /><use x="11063" y="3180" xlink:href="#s30:dancingscript-regular:255" /><use x="11386" y="3180" xlink:href="#s30:dancingscript-regular:481" /><use x="11582" y="3180" xlink:href="#s30:dancingscript-regular:3" /><use x="11842" y="3180" xlink:href="#s30:dancingscript-regular:375" /><use x="12187" y="3180" xlink:href="#s30:dancingscript-regular:366" /><use x="12578" y="3180" xlink:href="#s30:dancingscript-regular:335" /><use x="12943" y="3180" xlink:href="#s30:dancingscript-regular:369" /><use x="13291" y="3180" xlink:href="#s30:dancingscript-regular:382" /><use x="13576" y="3180" xlink:href="#s30:dancingscript-regular:481" /><use x="13772" y="3180" xlink:href="#s30:dancingscript-regular:3" /><use x="14032" y="3180" xlink:href="#s30:dancingscript-regular:266" /><use x="14365" y="3180" xlink:href="#s30:dancingscript-regular:382" /><use x="14650" y="3180" xlink:href="#s30:dancingscript-regular:255" /><use x="14973" y="3180" xlink:href="#s30:dancingscript-regular:481" /></g></svg>