<svg xmlns="http://www.w3.org/2000/svg" xmlns:xlink="http://www.w3.org/1999/xlink" width="497" height="83" viewBox="0 0 20721 3460" ><defs><path id="s29:dancingscript-bold:158" d="M233 87Q137 87 135 10Q135-16 144.50-51.50Q154-87 170-137Q203-237 240.50-330.50Q278-424 333-554L369-639Q270-638 207.50-632.50Q145-627 76-615Q82-674 150-697Q218-720 341-720Q422-720 542-708Q647-698 696-698Q656-660 589.50-649.50Q523-639 430-639Q348-437 268-143Q245-58 237.50-21Q230 16 230 58Q230 72 233 87Z"/><path id="s29:dancingscript-bold:294" d="M46 38Q25 38 15 6Q5-26 5-75Q5-165 61.50-319.50Q118-474 191-594Q264-714 310-714Q330-714 341.50-692Q353-670 353-643Q353-597 319.50-520Q286-443 231.50-371.50Q177-300 119-266Q85-176 85-96L86-75Q88-78 95-97Q115-149 137-191Q159-233 197.50-269.50Q236-306 287-306Q333-306 354-276.50Q375-247 375-207Q375-184 369-164Q363-144 351-113Q349-109 343.50-94.50Q338-80 335.50-68.50Q333-57 333-48Q333-16 360-16Q382-16 412-38Q442-60 471-97Q500-134 521-177L537-160Q500-78 447.50-27Q395 24 335 24Q298 24 277.50 4.50Q257-15 257-46Q257-66 271-118Q286-167 286-191Q286-233 250-233Q214-233 189.50-195.50Q165-158 134-85Q109-23 90 7.50Q71 38 46 38M140-330Q181-367 219-426Q257-485 281-540.50Q305-596 305-620Q293-615 262-571.50Q231-528 197-462.50Q163-397 140-330Z"/><path id="s29:dancingscript-bold:266" d="M116 44Q53 44 18 10Q-17-24-17-77Q-17-135 22-202.50Q61-270 122-315.50Q183-361 242-361Q273-361 294-345.50Q315-330 315-294Q315-246 278-203.50Q241-161 182.50-134Q124-107 63-100Q61-90 61-77Q61-51 75.50-25Q90 1 138 1Q199 1 262.50-48.50Q326-98 365-172L385-156Q345-66 270.50-11Q196 44 116 44M74-137Q110-141 154.50-166Q199-191 230-227.50Q261-264 261-299Q261-310 257-314Q253-318 244-318Q215-318 180.50-290.50Q146-263 117-221Q88-179 74-137Z"/><path id="s29:dancingscript-bold:3" d=""/><path id="s29:dancingscript-bold:44" d="M209 87Q147 87 98 62Q49 37 22.50-6Q-4-49-4-101Q-4-160 29.50-215.50Q63-271 121-310Q179-349 251-359Q216-390 197.50-429Q179-468 179-510Q179-563 206.50-611.50Q234-660 283.50-689.50Q333-719 396-719Q457-719 490-689.50Q523-660 523-604Q523-567 509.50-531Q496-495 475.50-472.50Q455-450 437-450Q412-450 389-491Q477-563 477-625Q477-654 457.50-670Q438-686 405-686Q362-686 331-659.50Q300-633 284-590.50Q268-548 268-501Q268-454 285.50-411.50Q303-369 342-339Q272-328 218.50-290.50Q165-253 135.50-201.50Q106-150 106-99Q106-65 119.50-33Q133-1 162 20.50Q191 42 236 42Q289 42 342.50 12Q396-18 441-68Q486-118 513-175L540-158Q481-47 396 20Q311 87 209 87Z"/><path id="s29:dancingscript-bold:387" d="M76 30Q43 30 21-1Q-1-32-1-74Q-1-110 15-164Q31-218 52.50-258Q74-298 90-298Q97-298 111.50-290.50Q126-283 137-272Q116-241 93.50-183Q71-125 71-83Q71-64 76.50-43.50Q82-23 101-23Q138-23 189.50-105.50Q241-188 278-273Q338-263 338-239Q338-237 326-210Q305-161 290-119Q275-77 275-46Q275-11 302-11Q323-11 352.50-30.50Q382-50 413-86.50Q444-123 467-171L482-159Q460-105 425-62Q390-19 349.50 5.50Q309 30 272 30Q228 30 215.50-0.50Q203-31 203-82Q169-30 139 0Q109 30 76 30Z"/><path id="s29:dancingscript-bold:369" d="M185 26Q148 26 125 6.50Q102-13 102-46Q102-65 109.50-87.50Q117-110 132-142Q145-170 152-189.50Q159-209 159-224Q159-262 109-288Q89-238 62.50-187Q36-136 15-101L0-130Q46-212 81-311Q71-321 71-338Q71-364 87-387Q103-410 118-410Q128-410 134.50-398Q141-386 141-378Q141-374 136.50-360.50Q132-347 130-341Q131-334 138-327.50Q145-321 164-309Q199-286 218.50-264.50Q238-243 238-207Q238-185 230.50-163Q223-141 208-110Q186-66 186-47Q186-24 211-24Q241-24 276.50-48Q312-72 341.50-106.50Q371-141 385-171L409-153Q389-108 353-67Q317-26 272.50 0Q228 26 185 26Z"/><path id="s29:dancingscript-bold:335" d="M66 32Q25 32 6.50 5Q-12-22-12-62Q-12-104 5.50-149Q23-194 51-224Q79-254 108-254Q120-254 139-246Q145-292 171.50-322Q198-352 246-352Q286-352 305-329.50Q324-307 324-271Q324-236 305.50-191Q287-146 258-101Q270-95 286-95Q314-95 346-113.50Q378-132 395-170L413-157Q392-109 356.50-84Q321-59 283-59Q260-59 233-68Q196-24 152 4Q108 32 66 32M224-122Q249-159 265.50-199Q282-239 282-271Q282-315 254-315Q241-315 227-302Q213-289 204-267.50Q195-246 195-220Q195-197 203-167.50Q211-138 224-122M102-19Q120-19 146-39Q172-59 198-90Q141-140 138-237Q126-231 109-200Q92-169 80-131Q68-93 68-65Q68-19 102-19Z"/><path id="s29:dancingscript-bold:366" d="M-56 280Q-68 280-81.50 271Q-95 262-96 255Q-52 127-31.50 54.50Q-11-18 2.50-99.50Q16-181 38-350Q40-364 43.50-368.50Q47-373 62-373Q91-373 106-357.50Q121-342 121-320Q121-296 107-226Q139-275 180.50-307.50Q222-340 270-340Q319-340 351-306.50Q383-273 383-220Q383-167 351.50-107.50Q320-48 264-8Q208 32 140 32Q109 32 89.50 24Q70 16 70 6Q70-4 94-4Q154-5 202-36.50Q250-68 277-115Q304-162 304-208Q304-240 290-261Q276-282 248-282Q217-282 184-256.50Q151-231 125-195Q99-159 85-128Q68-69 41 42Q12 165-8.50 222.50Q-29 280-56 280Z"/><path id="s29:dancingscript-bold:227" d="M56 47Q21 47-2.50 24Q-26 1-26-41Q-26-99 16.50-171Q59-243 125-293Q191-343 257-343Q301-343 330.50-320.50Q360-298 360-263Q360-217 303-215Q339-204 339-185Q339-178 332-164Q325-150 316-135Q300-109 291-89.50Q282-70 282-53Q282-38 289.50-27.50Q297-17 312-17Q340-17 383.50-56Q427-95 468-173L487-154Q450-71 395-20.50Q340 30 284 30Q244 30 222.50 3.50Q201-23 201-57Q156-3 124 22Q92 47 56 47M77-4Q112-4 158.50-54.50Q205-105 264-186L284-213Q287-218 292-218L296-217Q301-233 301-254Q301-306 259-306Q215-306 167-259Q119-212 86.50-147Q54-82 54-36Q54-19 59.50-11.50Q65-4 77-4Z"/><path id="s29:dancingscript-bold:327" d="M337 20Q299 20 278 1Q257-18 257-49Q257-62 261.50-79Q266-96 271-113Q285-159 285-181Q285-201 275-210.50Q265-220 250-220Q197-220 143-153.50Q89-87 27 15Q-16 15-38-14L-29-39Q30-182 30-251Q38-260 53-267.50Q68-275 82-275Q99-275 108-267Q117-259 117-245Q117-218 100-156Q145-216 193.50-254Q242-292 289-292Q329-292 351-264.50Q373-237 373-199Q373-177 367.50-157Q362-137 351-112Q334-70 334-49Q334-34 341-27Q348-20 358-20Q391-20 429.50-65.50Q468-111 499-173L516-159Q480-76 436.50-28Q393 20 337 20Z"/><path id="s29:dancingscript-bold:319" d="M86 30Q42 30 22 1Q2-28 2-76Q2-168 64.50-322Q127-476 205-598Q283-720 320-720Q337-720 349-693.50Q361-667 362-640Q362-594 325-505.50Q288-417 225.50-326Q163-235 92-179Q81-117 81-85Q81-50 92.50-33Q104-16 124-16Q159-16 198.50-62.50Q238-109 269-175L293-162Q249-71 196-20.50Q143 30 86 30M110-241Q164-299 211.50-377Q259-455 287.50-525Q316-595 316-629Q303-629 263.50-568Q224-507 180.50-416.50Q137-326 110-241Z"/><path id="s29:dancingscript-bold:288" d="M50 280Q22 280 2 263.50Q-18 247-18 216Q-18 177 11.50 145Q41 113 80 90.50Q119 68 183 38Q208-25 223-87Q142 15 71 15Q31 15 7.50-13Q-16-41-16-87Q-16-154 28-214Q72-274 137-310.50Q202-347 261-347Q292-347 308.50-336Q325-325 325-309Q325-299 319-291Q313-283 309-282Q299-292 289-296Q279-300 264-300Q215-300 169-263.50Q123-227 94.50-175.50Q66-124 66-83Q66-63 74.50-52.50Q83-42 97-42Q124-42 163.50-77Q203-112 242-167Q253-223 268-247.50Q283-272 311-272Q324-272 340-268Q340-242 318-164Q296-86 265-2Q315-23 361.50-67.50Q408-112 428-170L446-152Q424-89 367.50-38Q311 13 252 40Q206 151 156.50 215.50Q107 280 50 280M46 234Q66 234 98 197Q130 160 164 85Q99 117 63 145.50Q27 174 27 206Q27 219 32.50 226.50Q38 234 46 234Z"/><path id="s29:dancingscript-bold:375" d="M117 51Q47 51 13.50 10.50Q-20-30-20-86Q-20-125-6-140.50Q8-156 25.50-164Q43-172 46-175Q110-241 143-312L143-322Q143-359 155.50-377Q168-395 188-395Q210-395 212-375Q212-370 209.50-360Q207-350 207-339Q207-320 213-299Q219-278 232-242Q248-198 256.50-166Q265-134 265-101Q265-84 261-60Q329-77 379-173L391-164Q371-107 335.50-72Q300-37 252-30Q236 10 200 30.50Q164 51 117 51M182-62Q185-71 185-93Q184-125 178-156Q172-187 160-236L151-272Q102-187 64-147Q81-118 112-94.50Q143-71 182-62M110 7Q130 7 147.50-3Q165-13 174-32Q135-40 102-62.50Q69-85 49-111Q35-108 35-84Q35-48 55-20.50Q75 7 110 7Z"/><path id="s29:dancingscript-bold:326" d="M523 31Q486 31 466 9Q446-13 446-47Q446-63 450.50-82.50Q455-102 461-119Q474-160 474-179Q474-209 451-209Q429-209 400-177Q371-145 322-72Q310-54 286-11L267 23Q249 23 228 16Q207 9 207-3Q207-13 228-67Q248-119 260.50-158Q273-197 273-223Q273-253 252-253Q225-253 182-210.50Q139-168 97-102.50Q55-37 32 27Q14 27-10.50 17Q-35 7-35 0L29-256Q32-267 50.50-275.50Q69-284 84-284Q99-284 108.50-275Q118-266 118-251Q118-235 104-179Q152-245 203-288.50Q254-332 299-332Q333-332 347.50-308Q362-284 362-248Q362-229 358-212.50Q354-196 345-168Q415-271 490-271Q526-271 542.50-249.50Q559-228 559-196Q559-164 539-106Q538-102 531.50-80Q525-58 525-44Q525-17 550-17Q586-17 620.50-63Q655-109 685-173L702-152Q673-77 627.50-23Q582 31 523 31Z"/><path id="s29:dancingscript-bold:254" d="M105 73Q49 73 19 38Q-11 3-11-60Q-11-154 49-311.50Q109-469 186-591.50Q263-714 307-714Q326-714 336.50-693Q347-672 348-645Q348-597 315-519.50Q282-442 228.50-371Q175-300 116-266Q102-240 86.50-180.50Q71-121 71-66Q71-22 83.50 4.50Q96 31 123 31Q149 31 179 7.50Q209-16 228-51Q192-71 172.50-106.50Q153-142 153-183Q153-231 179-261.50Q205-292 244-292Q278-292 298-266.50Q318-241 318-192Q318-131 288-66L306-65Q352-65 382-97Q412-129 435-176L450-155Q423-93 386.50-63.50Q350-34 293-34Q279-34 272-35Q241 14 199 43.50Q157 73 105 73M135-329Q176-366 214-425.50Q252-485 276-540.50Q300-596 301-620Q288-615 256-570Q224-525 190-459.50Q156-394 135-329M245-84Q263-125 263-169Q263-203 255-221Q247-239 234-239Q221-239 211.50-221Q202-203 202-178Q202-153 212.50-126.50Q223-100 245-84Z"/><path id="s29:dancingscript-bold:287" d="M-1 280Q-25 280-45.50 259Q-66 238-66 184Q-66 80 8.50-144Q83-368 184.50-544Q286-720 370-720Q412-720 412-669Q412-614 372.50-544Q333-474 270-407.50Q207-341 139-296L123-256Q133-252 139.50-242Q146-232 148-221Q158-167 166-138Q174-109 190.50-91Q207-73 236-73Q269-73 295.50-97Q322-121 353-172L375-156Q345-95 305.50-64Q266-33 231-33Q197-33 160-60Q159 21 135.50 100.50Q112 180 75 230Q38 280-1 280M168-366Q225-420 269-474Q313-528 336.50-570.50Q360-613 360-631Q360-639 352-639Q317-639 268-563.50Q219-488 168-366M27 218Q45 218 66.50 170Q88 122 103.50 55Q119-12 119-60Q119-88 112.50-110.50Q106-133 90-162Q54-54 32.50 35Q11 124 11 175Q11 218 27 218Z"/><path id="s29:dancingscript-bold:382" d="M91 46Q45 46 19 19.50Q-7-7-7-59Q-7-98 8-158.50Q23-219 48-287Q22-292 13-296L13-327Q37-324 61-322Q106-435 157.50-516Q209-597 241-597Q252-597 260.50-589Q269-581 269-568Q269-552 255-525Q241-498 209-443Q165-369 140-319Q255-319 323-326L323-293Q205-281 122-281Q70-158 70-80Q70-39 83-22Q96-5 124-5Q174-5 226.50-50.50Q279-96 318-174L332-164Q291-71 226-12.50Q161 46 91 46Z"/><path id="s29:dancingscript-bold:297" d="M198-421Q177-421 162.50-431Q148-441 148-460Q148-483 173.50-500.50Q199-518 228-518Q271-518 271-481Q271-460 248-440.50Q225-421 198-421M80 30Q38 30 15 5Q-8-20-8-59Q-8-99 14.50-167.50Q37-236 71.50-288Q106-340 141-340Q154-340 162.50-332.50Q171-325 171-311Q171-302 163-286.50Q155-271 137-242Q105-189 86.50-148.50Q68-108 68-72Q68-41 79-30Q90-19 113-19Q192-19 270-172L285-156Q250-68 196-19Q142 30 80 30Z"/><path id="s29:dancingscript-bold:415" d="M48 280Q20 280 0 263.50Q-20 247-20 215Q-20 176 9.50 144Q39 112 78 90Q117 68 179 39Q196-4 227-117Q191-66 156.50-37Q122-8 83-8Q50-8 24-28Q-2-48-2-91Q-2-125 14-177.50Q30-230 52-269.50Q74-309 90-309Q100-309 120-298.50Q140-288 144-276Q125-250 102.50-189Q80-128 80-93Q80-56 109-56Q139-56 174-91Q209-126 241-177Q243-184 247-210Q251-236 265-255.50Q279-275 305-275Q309-275 337-271Q336-246 313.50-162Q291-78 261 2Q310-18 353.50-59Q397-100 422-167L439-153Q418-84 366.50-37Q315 10 248 40Q201 151 152.50 215.50Q104 280 48 280M38 243Q59 243 93 200.50Q127 158 160 83Q102 112 60.50 147Q19 182 19 215Q19 226 23.50 234.50Q28 243 38 243Z"/><path id="s29:dancingscript-bold:486" d="M72 10Q50 10 39-1.50Q28-13 28-28Q28-45 49.50-63Q71-81 91-81Q104-81 114-73.50Q124-66 124-50Q124-41 117.50-26.50Q111-12 99.50-1Q88 10 72 10Z"/><path id="s29:dancingscript-bold:414" d="M55 59Q47 59 42 52.50Q37 46 37 39Q37 20 79.50-35Q122-90 186-158Q177-215 169-237Q161-259 141-259Q118-259 99.50-236Q81-213 52-162L25-116L8-144Q15-155 32-192Q49-231 63.50-254.50Q78-278 101.50-294.50Q125-311 159-311Q197-311 218-289.50Q239-268 251-226Q299-274 334.50-303Q370-332 384-332Q392-332 402-325Q412-318 417-306Q398-306 354.50-269Q311-232 259-175Q263-148 263-146Q268-92 279-57Q290-22 316-22Q347-22 389.50-72Q432-122 455-171L471-156Q443-83 390.50-28Q338 27 285 27Q243 27 223-6.50Q203-40 194-96Q133-27 72 50Q64 59 55 59Z"/><path id="s29:dancingscript-bold:255" d="M113 56Q59 56 26.50 22.50Q-6-11-6-76Q-6-140 26.50-201Q59-262 111-300Q163-338 216-338Q256-338 275.50-318Q295-298 295-268Q295-238 280.50-212.50Q266-187 245-187Q226-187 214-206Q226-214 236-234Q246-254 246-281Q246-298 227-298Q195-298 158-260Q121-222 96-168Q71-114 71-70Q71-38 87-16.50Q103 5 142 5Q180 5 221.50-17Q263-39 299-79.50Q335-120 356-173L376-155Q352-95 309.50-47Q267 1 215 28.50Q163 56 113 56Z"/><path id="s29:dancingscript-bold:64" d="M188 87Q138 84 120 63.50Q102 43 102 6Q102-46 128-130Q154-214 195-311Q98-302 73-298Q80-377 220-381Q281-549 329-647Q313-649 293-649Q206-649 173-622.50Q140-596 140-540Q140-516 144.50-496Q149-476 160-450Q73-464 73-537Q73-588 111-628.50Q149-669 215.50-692Q282-715 363-715Q393-715 428-712Q463-709 473-708Q532-701 568-701Q614-701 669-716Q623-665 592.50-646Q562-627 531-627Q512-627 468-634Q407-642 387-643Q369-600 344.50-527.50Q320-455 297-380Q321-378 340-376Q359-374 374-373Q444-365 484-364Q468-342 450-333Q432-324 397-321Q362-318 278-316Q261-255 237-175Q210-82 199-21Q188 40 188 87Z"/><path id="s29:dancingscript-bold:481" d="M32 88Q5 72 5 44Q5 24 14-0.50Q23-25 37.50-42Q52-59 68-59Q81-59 90.50-49Q100-39 100-26Q81-5 69.50 15Q58 35 47 57Q36 79 32 88Z"/></defs><g id="line-0"><use x="0" y="780" xlink:href="#s29:dancingscript-bold:158" /><use x="540" y="780" xlink:href="#s29:dancingscript-bold:294" /><use x="1034" y="780" xlink:href="#s29:dancingscript-bold:266" /><use x="1375" y="780" xlink:href="#s29:dancingscript-bold:3" /><use x="1635" y="780" xlink:href="#s29:dancingscript-bold:44" /><use x="2168" y="780" xlink:href="#s29:dancingscript-bold:387" /><use x="2609" y="780" xlink:href="#s29:dancingscript-bold:369" /><use x="2972" y="780" xlink:href="#s29:dancingscript-bold:335" /><use x="3344" y="780" xlink:href="#s29:dancingscript-bold:366" /><use x="3757" y="780" xlink:href="#s29:dancingscript-bold:266" /><use x="4098" y="780" xlink:href="#s29:dancingscript-bold:227" /><use x="4542" y="780" xlink:href="#s29:dancingscript-bold:327" /><use x="5015" y="780" xlink:href="#s29:dancingscript-bold:3" /><use x="5275" y="780" xlink:href="#s29:dancingscript-bold:319" /><use x="5520" y="780" xlink:href="#s29:dancingscript-bold:227" /><use x="5964" y="780" xlink:href="#s29:dancingscript-bold:327" /><use x="6437" y="780" xlink:href="#s29:dancingscript-bold:288" /><use x="6840" y="780" xlink:href="#s29:dancingscript-bold:387" /><use x="7281" y="780" xlink:href="#s29:dancingscript-bold:227" /><use x="7725" y="780" xlink:href="#s29:dancingscript-bold:288" /><use x="8128" y="780" xlink:href="#s29:dancingscript-bold:266" /><use x="8469" y="780" xlink:href="#s29:dancingscript-bold:375" /><use x="8820" y="780" xlink:href="#s29:dancingscript-bold:3" /><use x="9080" y="780" xlink:href="#s29:dancingscript-bold:227" /><use x="9524" y="780" xlink:href="#s29:dancingscript-bold:369" /><use x="9887" y="780" xlink:href="#s29:dancingscript-bold:266" /><use x="10228" y="780" xlink:href="#s29:dancingscript-bold:3" /><use x="10488" y="780" xlink:href="#s29:dancingscript-bold:326" /><use x="11148" y="780" xlink:href="#s29:dancingscript-bold:266" /><use x="11489" y="780" xlink:href="#s29:dancingscript-bold:326" /><use x="12149" y="780" xlink:href="#s29:dancingscript-bold:254" /><use x="12558" y="780" xlink:href="#s29:dancingscript-bold:266" /><use x="12899" y="780" xlink:href="#s29:dancingscript-bold:369" /><use x="13262" y="780" xlink:href="#s29:dancingscript-bold:375" /><use x="13613" y="780" xlink:href="#s29:dancingscript-bold:3" /><use x="13873" y="780" xlink:href="#s29:dancingscript-bold:335" /><use x="14245" y="780" xlink:href="#s29:dancingscript-bold:287" /><use x="14575" y="780" xlink:href="#s29:dancingscript-bold:3" /><use x="14835" y="780" xlink:href="#s29:dancingscript-bold:382" /><use x="15123" y="780" xlink:href="#s29:dancingscript-bold:294" /><use x="15617" y="780" xlink:href="#s29:dancingscript-bold:266" /><use x="15958" y="780" xlink:href="#s29:dancingscript-bold:3" /><use x="16218" y="780" xlink:href="#s29:dancingscript-bold:375" /><use x="16569" y="780" xlink:href="#s29:dancingscript-bold:227" /><use x="17013" y="780" xlink:href="#s29:dancingscript-bold:326" /><use x="17673" y="780" xlink:href="#s29:dancingscript-bold:266" /><use x="18014" y="780" xlink:href="#s29:dancingscript-bold:3" /><use x="18274" y="780" xlink:href="#s29:dancingscript-bold:287" /><use x="18604" y="780" xlink:href="#s29:dancingscript-bold:227" /><use x="19048" y="780" xlink:href="#s29:dancingscript-bold:326" /><use x="19708" y="780" xlink:href="#s29:dancingscript-bold:297" /><use x="19952" y="780" xlink:href="#s29:dancingscript-bold:319" /><use x="20197" y="780" xlink:href="#s29:dancingscript-bold:415" /><use x="20597" y="780" xlink:href="#s29:dancingscript-bold:486" /></g><g id="line-1"><use x="4153.5" y="1980" xlink:href="#s29:dancingscript-bold:158" /><use x="4693.5" y="1980" xlink:href="#s29:dancingscript-bold:294" /><use x="5187.5" y="1980" xlink:href="#s29:dancingscript-bold:266" /><use x="5528.5" y="1980" xlink:href="#s29:dancingscript-bold:297" /><use x="5772.5" y="1980" xlink:href="#s29:dancingscript-bold:369" /><use x="6135.5" y="1980" xlink:href="#s29:dancingscript-bold:3" /><use x="6395.5" y="1980" xlink:href="#s29:dancingscript-bold:375" /><use x="6746.5" y="1980" xlink:href="#s29:dancingscript-bold:266" /><use x="7087.5" y="1980" xlink:href="#s29:dancingscript-bold:366" /><use x="7500.5" y="1980" xlink:href="#s29:dancingscript-bold:227" /><use x="7944.5" y="1980" xlink:href="#s29:dancingscript-bold:369" /><use x="8307.5" y="1980" xlink:href="#s29:dancingscript-bold:227" /><use x="8751.5" y="1980" xlink:href="#s29:dancingscript-bold:382" /><use x="9039.5" y="1980" xlink:href="#s29:dancingscript-bold:266" /><use x="9380.5" y="1980" xlink:href="#s29:dancingscript-bold:3" /><use x="9640.5" y="1980" xlink:href="#s29:dancingscript-bold:266" /><use x="9981.5" y="1980" xlink:href="#s29:dancingscript-bold:414" /><use x="10411.5" y="1980" xlink:href="#s29:dancingscript-bold:297" /><use x="10655.5" y="1980" xlink:href="#s29:dancingscript-bold:375" /><use x="11006.5" y="1980" xlink:href="#s29:dancingscript-bold:382" /><use x="11294.5" y="1980" xlink:href="#s29:dancingscript-bold:266" /><use x="11635.5" y="1980" xlink:href="#s29:dancingscript-bold:327" /><use x="12108.5" y="1980" xlink:href="#s29:dancingscript-bold:255" /><use x="12441.5" y="1980" xlink:href="#s29:dancingscript-bold:266" /><use x="12782.5" y="1980" xlink:href="#s29:dancingscript-bold:3" /><use x="13042.5" y="1980" xlink:href="#s29:dancingscript-bold:297" /><use x="13286.5" y="1980" xlink:href="#s29:dancingscript-bold:375" /><use x="13637.5" y="1980" xlink:href="#s29:dancingscript-bold:3" /><use x="13897.5" y="1980" xlink:href="#s29:dancingscript-bold:227" /><use x="14341.5" y="1980" xlink:href="#s29:dancingscript-bold:3" /><use x="14601.5" y="1980" xlink:href="#s29:dancingscript-bold:326" /><use x="15261.5" y="1980" xlink:href="#s29:dancingscript-bold:415" /><use x="15661.5" y="1980" xlink:href="#s29:dancingscript-bold:382" /><use x="15949.5" y="1980" xlink:href="#s29:dancingscript-bold:294" /><use x="16443.5" y="1980" xlink:href="#s29:dancingscript-bold:486" /></g><g id="line-2"><use x="5241" y="3180" xlink:href="#s29:dancingscript-bold:64" /><use x="5763" y="3180" xlink:href="#s29:dancingscript-bold:335" /><use x="6135" y="3180" xlink:href="#s29:dancingscript-bold:369" /><use x="6498" y="3180" xlink:href="#s29:dancingscript-bold:3" /><use x="6758" y="3180" xlink:href="#s29:dancingscript-bold:375" /><use x="7109" y="3180" xlink:href="#s29:dancingscript-bold:255" /><use x="7442" y="3180" xlink:href="#s29:dancingscript-bold:297" /><use x="7686" y="3180" xlink:href="#s29:dancingscript-bold:266" /><use x="8027" y="3180" xlink:href="#s29:dancingscript-bold:327" /><use x="8500" y="3180" xlink:href="#s29:dancingscript-bold:255" /><use x="8833" y="3180" xlink:href="#s29:dancingscript-bold:266" /><use x="9174" y="3180" xlink:href="#s29:dancingscript-bold:481" /><use x="9390" y="3180" xlink:href="#s29:dancingscript-bold:3" /><use x="9650" y="3180" xlink:href="#s29:dancingscript-bold:326" /><use x="10310" y="3180" xlink:href="#s29:dancingscript-bold:387" /><use x="10751" y="3180" xlink:href="#s29:dancingscript-bold:375" /><use x="11102" y="3180" xlink:href="#s29:dancingscript-bold:297" /><use x="11346" y="3180" xlink:href="#s29:dancingscript-bold:255" /><use x="11679" y="3180" xlink:href="#s29:dancingscript-bold:481" /><use x="11895" y="3180" xlink:href="#s29:dancingscript-bold:3" /><use x="12155" y="3180" xlink:href="#s29:dancingscript-bold:375" /><use x="12506" y="3180" xlink:href="#s29:dancingscript-bold:366" /><use x="12919" y="3180" xlink:href="#s29:dancingscript-bold:335" /><use x="13291" y="3180" xlink:href="#s29:dancingscript-bold:369" /><use x="13654" y="3180" xlink:href="#s29:dancingscript-bold:382" /><use x="13942" y="3180" xlink:href="#s29:dancingscript-bold:481" /><use x="14158" y="3180" xlink:href="#s29:dancingscript-bold:3" /><use x="14418" y="3180" xlink:href="#s29:dancingscript-bold:266" /><use x="14759" y="3180" xlink:href="#s29:dancingscript-bold:382" /><use x="15047" y="3180" xlink:href="#s29:dancingscript-bold:255" /><use x="15380" y="3180" xlink:href="#s29:dancingscript-bold:481" /></g></svg>