<svg xmlns="http://www.w3.org/2000/svg" xmlns:xlink="http://www.w3.org/1999/xlink" width="575" height="85" viewBox="0 0 23976 3545.5" ><defs><path id="s32:dosis-extrabold:56" d="M8-662Q8-690 20-710.50Q32-731 55-731L487-731Q510-731 522-710.50Q534-690 534-662Q534-632 521.50-611.50Q509-591 487-591L349-591L349-48Q349-25 326-12.50Q303 0 271 0Q239 0 216-12.50Q193-25 193-48L193-591L55-591Q33-591 20.50-611.50Q8-632 8-662Z"/><path id="s32:dosis-extrabold:76" d="M46-48L46-701Q46-722 67.50-735Q89-748 123-748Q155-748 178-735Q201-722 201-701L201-406Q216-438 248.50-460Q281-482 325-482Q394-482 444.50-420Q495-358 495-272L495-48Q495-25 472-12.50Q449 0 417 0Q387 0 363.50-13Q340-26 340-48L340-272Q340-301 318.50-324Q297-347 268-347Q242-347 221.50-326.50Q201-306 201-272L201-48Q201-30 177.50-15Q154 0 123 0Q90 0 68-14.50Q46-29 46-48Z"/><path id="s32:dosis-extrabold:73" d="M27-202L27-275Q27-360 94.50-421Q162-482 257-482Q346-482 409-428.50Q472-375 472-292Q472-260 464-240Q456-220 440-212Q424-204 410.50-201.50Q397-199 375-199L182-199L182-193Q182-156 210-133.50Q238-111 284-111Q319-111 357.50-129.50Q396-148 409-148Q434-148 450-124.50Q466-101 466-80Q466-49 412.50-19.50Q359 10 280 10Q168 10 97.50-48.50Q27-107 27-202M182-286L306-286Q327-286 327-310Q327-338 305.50-354Q284-370 254-370Q225-370 203.50-354Q182-338 182-310L182-286Z"/><path id="s32:dosis-extrabold:4" d=""/><path id="s32:dosis-extrabold:41" d="M54-48L54-683Q54-706 74-718.50Q94-731 122-731L478-731Q501-731 513-711Q525-691 525-664Q525-635 512.50-615Q500-595 478-595L210-595L210-426L360-426Q382-426 394.50-408Q407-390 407-365Q407-342 395-324Q383-306 360-306L210-306L210-136L478-136Q500-136 512.50-116Q525-96 525-67Q525-40 513-20Q501 0 478 0L122 0Q94 0 74-12.50Q54-25 54-48Z"/><path id="s32:dosis-extrabold:89" d="M40-200L40-428Q40-446 63-461Q86-476 118-476Q148-476 171.50-461Q195-446 195-428L195-200Q195-171 217-148Q239-125 268-125Q297-125 318.50-148Q340-171 340-200L340-429Q340-448 363.50-462Q387-476 418-476Q451-476 473-462Q495-448 495-429L495-200Q495-116 427.50-53Q360 10 268 10Q175 10 107.50-53Q40-116 40-200Z"/><path id="s32:dosis-extrabold:86" d="M45-48L45-429Q45-450 66.50-463Q88-476 121-476Q150-476 170-463Q190-450 190-429L190-392Q206-428 239.50-455Q273-482 309-482L338-482Q360-482 376.50-462Q393-442 393-415Q393-387 376.50-367Q360-347 338-347L309-347Q266-347 233-305.50Q200-264 200-198L200-48Q200-30 176.50-15Q153 0 121 0Q89 0 67-14.50Q45-29 45-48Z"/><path id="s32:dosis-extrabold:83" d="M27-202L27-272Q27-357 94-419.50Q161-482 254-482Q346-482 414-420Q482-358 482-272L482-202Q482-118 413.50-54Q345 10 254 10Q163 10 95-54Q27-118 27-202M182-202Q182-172 203-148.50Q224-125 254-125Q284-125 305.50-148.50Q327-172 327-202L327-272Q327-301 305-324Q283-347 254-347Q225-347 203.50-324Q182-301 182-272L182-202Z"/><path id="s32:dosis-extrabold:84" d="M46 169L46-429Q46-450 67.50-463Q89-476 120-476Q151-476 171-463Q191-450 191-429L191-406Q210-438 246-460Q282-482 326-482Q401-482 453-420.50Q505-359 505-272L505-202Q505-118 452.50-54Q400 10 331 10Q289 10 252.50-13.50Q216-37 201-70L201 169Q201 187 177.50 202Q154 217 122 217Q90 217 68 202.50Q46 188 46 169M201-189Q201-173 223.50-149Q246-125 276-125Q305-125 327.50-148.50Q350-172 350-202L350-272Q350-301 327.50-324Q305-347 274-347Q245-347 223-326.50Q201-306 201-272L201-189Z"/><path id="s32:dosis-extrabold:69" d="M18-123Q18-206 78.50-240Q139-274 252-274L288-274L288-284Q288-314 270-336Q252-358 213-358Q165-358 134-341.50Q103-325 96-325Q72-325 58-348.50Q44-372 44-402Q44-435 99.50-458.50Q155-482 215-482Q330-482 386.50-426Q443-370 443-286L443-48Q443-28 421.50-14Q400 0 367 0Q338 0 318-14Q298-28 298-48L298-70Q229 10 146 10Q91 10 54.50-24Q18-58 18-123M174-145Q174-103 213-103Q238-103 263-131Q288-159 288-195L288-199L284-199Q251-199 229.50-196Q208-193 191-180.50Q174-168 174-145Z"/><path id="s32:dosis-extrabold:82" d="M45-48L45-429Q45-450 66.50-463Q88-476 122-476Q150-476 170-463Q190-450 190-429L190-406Q206-438 241.50-460Q277-482 324-482Q393-482 443.50-420Q494-358 494-272L494-48Q494-25 471-12.50Q448 0 416 0Q386 0 362.50-13Q339-26 339-48L339-272Q339-301 317.50-324Q296-347 267-347Q241-347 220.50-326.50Q200-306 200-272L200-48Q200-30 176.50-15Q153 0 122 0Q89 0 67-14.50Q45-29 45-48Z"/><path id="s32:dosis-extrabold:80" d="M54-48L54-701Q54-722 75.50-735Q97-748 131-748Q164-748 186.50-735Q209-722 209-701L209-48Q209-30 186-15Q163 0 131 0Q98 0 76-14.50Q54-29 54-48Z"/><path id="s32:dosis-extrabold:75" d="M12 72Q12 6 79-32Q43-53 43-94Q43-138 94-175Q29-223 29-302L29-317Q29-390 85.50-436Q142-482 234-482Q297-482 347-458Q364-499 377-513.50Q390-528 404-528Q430-528 446.50-512.50Q463-497 463-482Q463-466 447-452L427-436Q412-424 404-416Q442-375 442-317L442-302Q442-230 383.50-182.50Q325-135 234-135Q201-135 174-141Q170-134 170-128Q170-114 200.50-107Q231-100 274.50-94Q318-88 361.50-76.50Q405-65 435.50-32Q466 1 466 54Q466 136 400 176.50Q334 217 240 217Q146 217 79 178Q12 139 12 72M158 56Q158 85 181.50 102Q205 119 237 119Q269 119 292.50 102Q316 85 316 58Q316 41 307 30Q298 19 279.50 12.50Q261 6 243.50 2.50Q226-1 198-4Q158 17 158 56M179-303Q179-269 194-247Q209-225 236-225Q262-225 277-246.50Q292-268 292-302L292-317Q292-349 277-370.50Q262-392 235-392Q209-392 194-370.50Q179-349 179-317L179-303Z"/><path id="s32:dosis-extrabold:87" d="M21-82Q21-103 36-126.50Q51-150 72-150Q84-150 101.50-139Q119-128 145.50-116.50Q172-105 207-105Q269-105 269-138Q269-156 245-167.50Q221-179 186.50-187Q152-195 117.50-208Q83-221 59-251Q35-281 35-328Q35-392 80-437Q125-482 223-482Q290-482 341.50-461.50Q393-441 393-410Q393-390 377-363.50Q361-337 337-337Q327-337 291-352Q255-367 225-367Q197-367 182.50-357.50Q168-348 168-335Q168-320 192.50-311Q217-302 251.50-293.50Q286-285 320.50-271.50Q355-258 379.50-225.50Q404-193 404-144Q404-72 353.50-31Q303 10 211 10Q133 10 77-17.50Q21-45 21-82Z"/><path id="s32:dosis-extrabold:81" d="M45-48L45-429Q45-450 66.50-463Q88-476 122-476Q150-476 170-463Q190-450 190-429L190-406Q233-482 322-482Q362-482 393.50-454.50Q425-427 440-382Q465-431 505-456.50Q545-482 590-482Q665-482 718.50-425Q772-368 772-272L772-48Q772-30 749-15Q726 0 694 0Q664 0 640.50-15Q617-30 617-48L617-272Q617-308 597-328Q577-348 550-348Q524-348 505-328Q486-308 486-272L486-47Q486-24 463-12Q440 0 408 0Q378 0 354.50-12Q331-24 331-47L331-271Q331-306 310.50-326.50Q290-347 263-347Q237-347 218.50-327.50Q200-308 200-272L200-48Q200-30 176.50-15Q153 0 122 0Q89 0 67-14.50Q45-29 45-48Z"/><path id="s32:dosis-extrabold:70" d="M46-48L46-701Q46-722 67.50-735Q89-748 122-748Q156-748 178.50-735Q201-722 201-701L201-406Q218-438 251.50-460Q285-482 328-482Q401-482 453-420Q505-358 505-272L505-202Q505-118 452.50-54Q400 10 331 10Q285 10 246-13.50Q207-37 191-70L191-48Q191-30 170.50-15Q150 0 122 0Q90 0 68-14.50Q46-29 46-48M201-189Q201-173 225-149Q249-125 278-125Q307-125 328.50-148.50Q350-172 350-202L350-272Q350-301 328.50-324Q307-347 277-347Q248-347 224.50-326Q201-305 201-272L201-189Z"/><path id="s32:dosis-extrabold:74" d="M46-47L46-547Q46-633 97.50-690.50Q149-748 222-748L294-748Q322-748 337-728.50Q352-709 352-683Q352-656 337-637Q322-618 294-618L256-618Q201-618 201-564L201-476L314-476Q332-476 342-459.50Q352-443 352-421Q352-398 342-382Q332-366 314-366L201-366L201-47Q201-27 177.50-13.50Q154 0 122 0Q89 0 67.50-13Q46-26 46-47Z"/><path id="s32:dosis-extrabold:88" d="M43-169L43-636Q43-656 67-669.50Q91-683 120-683Q151-683 174.50-669.50Q198-656 198-636L198-476L311-476Q329-476 339-459.50Q349-443 349-421Q349-398 339-382Q329-366 311-366L198-366L198-169Q198-147 207-138.50Q216-130 239-130L282-130Q314-130 331-110.50Q348-91 348-65Q348-38 331-19Q314 0 282 0L239 0Q43 0 43-169Z"/><path id="s32:dosis-extrabold:77" d="M64-589.50Q64-589.50 52-600.25Q40-611 40-640Q40-669 64-690Q88-711 122-711Q155-711 179-690Q203-669 203-640Q203-611 179-589.50Q155-568 122-568Q88-568 64-589.50M45-48L45-429Q45-450 66.50-463Q88-476 122-476Q155-476 177.50-463Q200-450 200-429L200-48Q200-30 177-15Q154 0 122 0Q89 0 67-14.50Q45-29 45-48Z"/><path id="s32:dosis-extrabold:93" d="M1 151Q1 87 39 87Q181 87 181-41L6-389Q1-399 1-409Q1-437 37-460Q73-483 106-483Q139-483 149-458L262-187L345-458Q355-483 385-483Q416-483 454-459.50Q492-436 492-406Q492-396 488-389L346-35Q341-21 328 12L310 58Q305 73 291.50 99.50Q278 126 266.50 139Q255 152 235 170Q215 188 193 196Q171 204 140 210.50Q109 217 72 217Q37 217 19 204Q1 191 1 151Z"/><path id="s32:dosis-extrabold:18" d="M23-71Q23-103 45-125.50Q67-148 100-148Q131-148 153.50-125Q176-102 176-71Q176-40 153.50-17Q131 6 100 6Q68 6 45.50-17Q23-40 23-71Z"/><path id="s32:dosis-extrabold:92" d="M18-67Q18-80 27-93L140-243L38-379Q28-392 28-404Q28-429 65-455.50Q102-482 133-482Q156-482 166-466L246-335L327-465Q337-482 362-482Q391-482 428-455.50Q465-429 465-404Q465-393 455-379L352-242L466-93Q475-82 475-67Q475-43 439.50-16.50Q404 10 373 10Q349 10 338-6L246-144L155-6Q143 10 118 10Q92 10 55-16Q18-42 18-67Z"/><path id="s32:dosis-extrabold:71" d="M28-202L28-270Q28-365 84.50-423.50Q141-482 253-482Q325-482 373.50-457.50Q422-433 422-399Q422-374 404.50-348.50Q387-323 362-323Q354-323 325.50-335Q297-347 266-347Q183-347 183-270L183-202Q183-125 267-125Q297-125 324.50-138.50Q352-152 362-152Q391-152 409.50-128Q428-104 428-78Q428-43 377-16.50Q326 10 255 10Q141 10 84.50-48Q28-106 28-202Z"/><path id="s32:dosis-extrabold:42" d="M54-48L54-683Q54-706 74-718.50Q94-731 122-731L469-731Q492-731 504-711Q516-691 516-664Q516-635 503.50-615Q491-595 469-595L210-595L210-426L361-426Q383-426 395.50-408Q408-390 408-365Q408-342 396-324Q384-306 361-306L210-306L210-48Q210-25 187-12.50Q164 0 132 0Q100 0 77-12.50Q54-25 54-48Z"/><path id="s32:dosis-extrabold:16" d="M23-71Q23-103 45.50-125.50Q68-148 99-148Q130-148 153-125.50Q176-103 176-72Q176-56 114 88Q106 106 84 106Q66 106 50 95Q34 84 34 67Q34 59 38 51L63-3Q23-26 23-71Z"/></defs><g id="line-0"><use x="0" y="908.5" xlink:href="#s32:dosis-extrabold:56" /><use x="542" y="908.5" xlink:href="#s32:dosis-extrabold:76" /><use x="1077" y="908.5" xlink:href="#s32:dosis-extrabold:73" /><use x="1573" y="908.5" xlink:href="#s32:dosis-extrabold:4" /><use x="1773" y="908.5" xlink:href="#s32:dosis-extrabold:41" /><use x="2293" y="908.5" xlink:href="#s32:dosis-extrabold:89" /><use x="2828" y="908.5" xlink:href="#s32:dosis-extrabold:86" /><use x="3215" y="908.5" xlink:href="#s32:dosis-extrabold:83" /><use x="3724" y="908.5" xlink:href="#s32:dosis-extrabold:84" /><use x="4257" y="908.5" xlink:href="#s32:dosis-extrabold:73" /><use x="4753" y="908.5" xlink:href="#s32:dosis-extrabold:69" /><use x="5237" y="908.5" xlink:href="#s32:dosis-extrabold:82" /><use x="5771" y="908.5" xlink:href="#s32:dosis-extrabold:4" /><use x="5971" y="908.5" xlink:href="#s32:dosis-extrabold:80" /><use x="6234" y="908.5" xlink:href="#s32:dosis-extrabold:69" /><use x="6718" y="908.5" xlink:href="#s32:dosis-extrabold:82" /><use x="7252" y="908.5" xlink:href="#s32:dosis-extrabold:75" /><use x="7730" y="908.5" xlink:href="#s32:dosis-extrabold:89" /><use x="8265" y="908.5" xlink:href="#s32:dosis-extrabold:69" /><use x="8749" y="908.5" xlink:href="#s32:dosis-extrabold:75" /><use x="9223" y="908.5" xlink:href="#s32:dosis-extrabold:73" /><use x="9719" y="908.5" xlink:href="#s32:dosis-extrabold:87" /><use x="10148" y="908.5" xlink:href="#s32:dosis-extrabold:4" /><use x="10348" y="908.5" xlink:href="#s32:dosis-extrabold:69" /><use x="10832" y="908.5" xlink:href="#s32:dosis-extrabold:86" /><use x="11219" y="908.5" xlink:href="#s32:dosis-extrabold:73" /><use x="11715" y="908.5" xlink:href="#s32:dosis-extrabold:4" /><use x="11915" y="908.5" xlink:href="#s32:dosis-extrabold:81" /><use x="12728" y="908.5" xlink:href="#s32:dosis-extrabold:73" /><use x="13224" y="908.5" xlink:href="#s32:dosis-extrabold:81" /><use x="14037" y="908.5" xlink:href="#s32:dosis-extrabold:70" /><use x="14570" y="908.5" xlink:href="#s32:dosis-extrabold:73" /><use x="15066" y="908.5" xlink:href="#s32:dosis-extrabold:86" /><use x="15460" y="908.5" xlink:href="#s32:dosis-extrabold:87" /><use x="15889" y="908.5" xlink:href="#s32:dosis-extrabold:4" /><use x="16089" y="908.5" xlink:href="#s32:dosis-extrabold:83" /><use x="16598" y="908.5" xlink:href="#s32:dosis-extrabold:74" /><use x="16952" y="908.5" xlink:href="#s32:dosis-extrabold:4" /><use x="17152" y="908.5" xlink:href="#s32:dosis-extrabold:88" /><use x="17516" y="908.5" xlink:href="#s32:dosis-extrabold:76" /><use x="18051" y="908.5" xlink:href="#s32:dosis-extrabold:73" /><use x="18547" y="908.5" xlink:href="#s32:dosis-extrabold:4" /><use x="18747" y="908.5" xlink:href="#s32:dosis-extrabold:87" /><use x="19176" y="908.5" xlink:href="#s32:dosis-extrabold:69" /><use x="19660" y="908.5" xlink:href="#s32:dosis-extrabold:81" /><use x="20473" y="908.5" xlink:href="#s32:dosis-extrabold:73" /><use x="20969" y="908.5" xlink:href="#s32:dosis-extrabold:4" /><use x="21169" y="908.5" xlink:href="#s32:dosis-extrabold:74" /><use x="21523" y="908.5" xlink:href="#s32:dosis-extrabold:69" /><use x="22007" y="908.5" xlink:href="#s32:dosis-extrabold:81" /><use x="22820" y="908.5" xlink:href="#s32:dosis-extrabold:77" /><use x="23064" y="908.5" xlink:href="#s32:dosis-extrabold:80" /><use x="23327" y="908.5" xlink:href="#s32:dosis-extrabold:93" /><use x="23800" y="908.5" xlink:href="#s32:dosis-extrabold:18" /></g><g id="line-1"><use x="4785" y="2108.5" xlink:href="#s32:dosis-extrabold:56" /><use x="5327" y="2108.5" xlink:href="#s32:dosis-extrabold:76" /><use x="5862" y="2108.5" xlink:href="#s32:dosis-extrabold:73" /><use x="6358" y="2108.5" xlink:href="#s32:dosis-extrabold:77" /><use x="6602" y="2108.5" xlink:href="#s32:dosis-extrabold:86" /><use x="6996" y="2108.5" xlink:href="#s32:dosis-extrabold:4" /><use x="7196" y="2108.5" xlink:href="#s32:dosis-extrabold:87" /><use x="7625" y="2108.5" xlink:href="#s32:dosis-extrabold:73" /><use x="8121" y="2108.5" xlink:href="#s32:dosis-extrabold:84" /><use x="8654" y="2108.5" xlink:href="#s32:dosis-extrabold:69" /><use x="9138" y="2108.5" xlink:href="#s32:dosis-extrabold:86" /><use x="9532" y="2108.5" xlink:href="#s32:dosis-extrabold:69" /><use x="10016" y="2108.5" xlink:href="#s32:dosis-extrabold:88" /><use x="10375" y="2108.5" xlink:href="#s32:dosis-extrabold:73" /><use x="10871" y="2108.5" xlink:href="#s32:dosis-extrabold:4" /><use x="11071" y="2108.5" xlink:href="#s32:dosis-extrabold:73" /><use x="11567" y="2108.5" xlink:href="#s32:dosis-extrabold:92" /><use x="12060" y="2108.5" xlink:href="#s32:dosis-extrabold:77" /><use x="12304" y="2108.5" xlink:href="#s32:dosis-extrabold:87" /><use x="12733" y="2108.5" xlink:href="#s32:dosis-extrabold:88" /><use x="13092" y="2108.5" xlink:href="#s32:dosis-extrabold:73" /><use x="13588" y="2108.5" xlink:href="#s32:dosis-extrabold:82" /><use x="14122" y="2108.5" xlink:href="#s32:dosis-extrabold:71" /><use x="14560" y="2108.5" xlink:href="#s32:dosis-extrabold:73" /><use x="15056" y="2108.5" xlink:href="#s32:dosis-extrabold:4" /><use x="15256" y="2108.5" xlink:href="#s32:dosis-extrabold:77" /><use x="15500" y="2108.5" xlink:href="#s32:dosis-extrabold:87" /><use x="15929" y="2108.5" xlink:href="#s32:dosis-extrabold:4" /><use x="16129" y="2108.5" xlink:href="#s32:dosis-extrabold:69" /><use x="16613" y="2108.5" xlink:href="#s32:dosis-extrabold:4" /><use x="16813" y="2108.5" xlink:href="#s32:dosis-extrabold:81" /><use x="17620" y="2108.5" xlink:href="#s32:dosis-extrabold:93" /><use x="18116" y="2108.5" xlink:href="#s32:dosis-extrabold:88" /><use x="18480" y="2108.5" xlink:href="#s32:dosis-extrabold:76" /><use x="19015" y="2108.5" xlink:href="#s32:dosis-extrabold:18" /></g><g id="line-2"><use x="5997.5" y="3308.5" xlink:href="#s32:dosis-extrabold:42" /><use x="6434.5" y="3308.5" xlink:href="#s32:dosis-extrabold:83" /><use x="6943.5" y="3308.5" xlink:href="#s32:dosis-extrabold:86" /><use x="7337.5" y="3308.5" xlink:href="#s32:dosis-extrabold:4" /><use x="7537.5" y="3308.5" xlink:href="#s32:dosis-extrabold:87" /><use x="7966.5" y="3308.5" xlink:href="#s32:dosis-extrabold:71" /><use x="8408.5" y="3308.5" xlink:href="#s32:dosis-extrabold:77" /><use x="8652.5" y="3308.5" xlink:href="#s32:dosis-extrabold:73" /><use x="9148.5" y="3308.5" xlink:href="#s32:dosis-extrabold:82" /><use x="9682.5" y="3308.5" xlink:href="#s32:dosis-extrabold:71" /><use x="10120.5" y="3308.5" xlink:href="#s32:dosis-extrabold:73" /><use x="10616.5" y="3308.5" xlink:href="#s32:dosis-extrabold:16" /><use x="10815.5" y="3308.5" xlink:href="#s32:dosis-extrabold:4" /><use x="11015.5" y="3308.5" xlink:href="#s32:dosis-extrabold:81" /><use x="11828.5" y="3308.5" xlink:href="#s32:dosis-extrabold:89" /><use x="12363.5" y="3308.5" xlink:href="#s32:dosis-extrabold:87" /><use x="12792.5" y="3308.5" xlink:href="#s32:dosis-extrabold:77" /><use x="13036.5" y="3308.5" xlink:href="#s32:dosis-extrabold:71" /><use x="13478.5" y="3308.5" xlink:href="#s32:dosis-extrabold:16" /><use x="13677.5" y="3308.5" xlink:href="#s32:dosis-extrabold:4" /><use x="13877.5" y="3308.5" xlink:href="#s32:dosis-extrabold:87" /><use x="14306.5" y="3308.5" xlink:href="#s32:dosis-extrabold:84" /><use x="14839.5" y="3308.5" xlink:href="#s32:dosis-extrabold:83" /><use x="15348.5" y="3308.5" xlink:href="#s32:dosis-extrabold:86" /><use x="15742.5" y="3308.5" xlink:href="#s32:dosis-extrabold:88" /><use x="16106.5" y="3308.5" xlink:href="#s32:dosis-extrabold:16" /><use x="16305.5" y="3308.5" xlink:href="#s32:dosis-extrabold:4" /><use x="16505.5" y="3308.5" xlink:href="#s32:dosis-extrabold:73" /><use x="17001.5" y="3308.5" xlink:href="#s32:dosis-extrabold:88" /><use x="17360.5" y="3308.5" xlink:href="#s32:dosis-extrabold:71" /><use x="17802.5" y="3308.5" xlink:href="#s32:dosis-extrabold:16" /></g></svg>