<svg xmlns="http://www.w3.org/2000/svg" xmlns:xlink="http://www.w3.org/1999/xlink" width="536" height="85" viewBox="0 0 22317 3545.5"><defs><path id="s35:dosis-medium:56" d="M13-693Q13-708 21-719.50Q29-731 43-731L450-731Q464-731 472-719.50Q480-708 480-693Q480-677 472-665Q464-653 450-653L289-653L289-30Q289-16 276.50-8Q264 0 247 0Q230 0 217.50-8Q205-16 205-30L205-653L43-653Q29-653 21-664.50Q13-676 13-693Z"/><path id="s35:dosis-medium:76" d="M60-30L60-731Q60-744 71.50-752Q83-760 101-760Q119-760 131-752Q143-744 143-731L143-404Q160-436 193.50-458Q227-480 273-480Q344-480 396.50-423.50Q449-367 449-288L449-30Q449-16 436.50-8Q424 0 407 0Q391 0 378.50-8Q366-16 366-30L366-288Q366-333 332-369Q298-405 252-405Q209-405 176-372.50Q143-340 143-288L143-30Q143-19 130.50-9.50Q118 0 101 0Q84 0 72-9Q60-18 60-30Z"/><path id="s35:dosis-medium:73" d="M41-186L41-291Q41-368 99.50-424Q158-480 240-480Q318-480 375-427.50Q432-375 432-296Q432-267 425-249.50Q418-232 403.50-224.50Q389-217 376.50-215Q364-213 343-213L124-213L124-183Q124-128 163.50-95Q203-62 266-62Q299-62 323.50-72Q348-82 363-91.50Q378-101 387-101Q401-101 411-88.50Q421-76 421-63Q421-40 375.50-16Q330 8 263 8Q165 8 103-45.50Q41-99 41-186M124-269L309-269Q335-269 344-275.50Q353-282 353-301Q353-346 320-380Q287-414 239-414Q192-414 158-382.50Q124-351 124-305L124-269Z"/><path id="s35:dosis-medium:4" d=""/><path id="s35:dosis-medium:41" d="M71-30L71-701Q71-715 82.50-723Q94-731 109-731L465-731Q479-731 486.50-720Q494-709 494-694Q494-678 486-666.50Q478-655 465-655L155-655L155-401L311-401Q324-401 332-390.50Q340-380 340-365Q340-352 332.50-341.50Q325-331 311-331L155-331L155-76L465-76Q478-76 486-64.50Q494-53 494-37Q494-22 486.50-11Q479 0 465 0L109 0Q94 0 82.50-8Q71-16 71-30Z"/><path id="s35:dosis-medium:89" d="M55-184L55-444Q55-456 67.50-465Q80-474 97-474Q113-474 125.50-464.50Q138-455 138-444L138-184Q138-139 172-103Q206-67 253-67Q299-67 333-102.50Q367-138 367-184L367-445Q367-456 379.50-465Q392-474 409-474Q427-474 438.50-465.50Q450-457 450-445L450-184Q450-107 391.50-49.50Q333 8 253 8Q172 8 113.50-49.50Q55-107 55-184Z"/><path id="s35:dosis-medium:86" d="M59-30L59-445Q59-458 70.50-466Q82-474 100-474Q116-474 127-466Q138-458 138-445L138-398Q156-432 191-456Q226-480 269-480L303-480Q316-480 325.50-468.50Q335-457 335-442Q335-427 325.50-416Q316-405 303-405L269-405Q218-405 180-364Q142-323 142-258L142-30Q142-19 129.50-9.50Q117 0 100 0Q83 0 71-9Q59-18 59-30Z"/><path id="s35:dosis-medium:83" d="M41-186L41-288Q41-365 99.50-422.50Q158-480 238-480Q318-480 377-423Q436-366 436-288L436-186Q436-110 376.50-51Q317 8 238 8Q159 8 100-50.50Q41-109 41-186M124-186Q124-139 158-103Q192-67 238-67Q285-67 319-103.50Q353-140 353-186L353-288Q353-333 319-369Q285-405 238-405Q191-405 157.50-369Q124-333 124-288L124-186Z"/><path id="s35:dosis-medium:84" d="M60 199L60-445Q60-458 71.50-466Q83-474 100-474Q117-474 128-466Q139-458 139-445L139-404Q157-436 192-458Q227-480 273-480Q348-480 400.50-423.50Q453-367 453-288L453-186Q453-110 400-51Q347 8 277 8Q233 8 196.50-14.50Q160-37 143-70L143 199Q143 210 130.50 219.50Q118 229 101 229Q84 229 72 220Q60 211 60 199M143-159Q143-134 177.50-100.50Q212-67 256-67Q301-67 335.50-103.50Q370-140 370-186L370-288Q370-333 335.50-369Q301-405 254-405Q210-405 176.50-372.50Q143-340 143-288L143-159Z"/><path id="s35:dosis-medium:69" d="M28-125Q28-203 88-233.50Q148-264 262-264L310-264L310-285Q310-335 282.50-372Q255-409 200-409Q158-409 126-394.50Q94-380 91-380Q77-380 68.50-393.50Q60-407 60-422Q60-445 105.50-462.50Q151-480 202-480Q300-480 346.50-424.50Q393-369 393-286L393-30Q393-17 381.50-8.50Q370 0 352 0Q336 0 325-8.50Q314-17 314-30L314-70Q246 8 163 8Q103 8 65.50-26Q28-60 28-125M112-134Q112-97 133-78Q154-59 189-59Q231-59 270.50-92.50Q310-126 310-161L310-213L275-213Q246-213 225-211.50Q204-210 181.50-205.50Q159-201 144.50-192.50Q130-184 121-169.50Q112-155 112-134Z"/><path id="s35:dosis-medium:82" d="M59-30L59-445Q59-458 70.50-466Q82-474 100-474Q115-474 126.50-465.50Q138-457 138-445L138-404Q154-436 189.50-458Q225-480 272-480Q343-480 395.50-423.50Q448-367 448-288L448-30Q448-16 435.50-8Q423 0 406 0Q390 0 377.50-8Q365-16 365-30L365-288Q365-333 331-369Q297-405 251-405Q208-405 175-372.50Q142-340 142-288L142-30Q142-19 129-9.50Q116 0 100 0Q83 0 71-9Q59-18 59-30Z"/><path id="s35:dosis-medium:80" d="M68-30L68-731Q68-744 79.50-752Q91-760 109-760Q127-760 139-752Q151-744 151-731L151-30Q151-19 138.50-9.50Q126 0 109 0Q92 0 80-9Q68-18 68-30Z"/><path id="s35:dosis-medium:75" d="M22 94Q22 21 103-15Q52-34 52-82Q52-128 102-156Q45-202 45-282L45-315Q45-388 94-434Q143-480 223-480Q291-480 340-441Q370-506 408-506Q424-506 434-496.50Q444-487 444-475Q444-460 427-452Q393-443 373-410Q404-373 404-315L404-282Q404-210 353-163Q302-116 223-116Q182-116 149-131Q124-116 124-97Q124-78 147-67.50Q170-57 204-54.50Q238-52 278-45Q318-38 352-27Q386-16 409 12Q432 40 432 83Q432 154 375.50 191.50Q319 229 229 229Q139 229 80.50 192.50Q22 156 22 94M101 85Q101 124 135.50 147.50Q170 171 228 171Q284 171 317.50 147.50Q351 124 351 85Q351 69 345.50 57Q340 45 328 37Q316 29 304 23.50Q292 18 273 14.50Q254 11 241.50 9.50Q229 8 208.50 6Q188 4 180 3Q101 29 101 85M126-283Q126-235 152.50-204Q179-173 225-173Q269-173 296-203.50Q323-234 323-282L323-315Q323-361 296-392Q269-423 224-423Q178-423 152-392.50Q126-362 126-315L126-283Z"/><path id="s35:dosis-medium:87" d="M30-68Q30-81 38.50-93.50Q47-106 59-106Q67-106 82-94Q97-82 125-70.50Q153-59 191-59Q241-59 263.50-77Q286-95 286-122Q286-155 261-174.50Q236-194 200-204Q164-214 128-226Q92-238 67-266Q42-294 42-340Q42-397 82.50-438.50Q123-480 206-480Q259-480 303-463.50Q347-447 347-426Q347-414 337.50-399Q328-384 314-384Q310-384 275.50-398.50Q241-413 207-413Q161-413 138.50-391.50Q116-370 116-343Q116-315 141-299Q166-283 202.50-274Q239-265 275-252Q311-239 336-207.50Q361-176 361-126Q361-64 317-28Q273 8 194 8Q126 8 78-16.50Q30-41 30-68Z"/><path id="s35:dosis-medium:81" d="M59-30L59-445Q59-458 70.50-466Q82-474 100-474Q116-474 127-466Q138-458 138-445L138-404Q156-437 190.50-458.50Q225-480 271-480Q317-480 353.50-452.50Q390-425 408-380Q433-429 474-454.50Q515-480 560-480Q630-480 680.50-428Q731-376 731-288L731-30Q731-19 718.50-9.50Q706 0 689 0Q673 0 660.50-9.50Q648-19 648-30L648-288Q648-342 616.50-373.50Q585-405 543-405Q501-405 468.50-373Q436-341 436-291L436-29Q436-15 423.50-7.50Q411 0 394 0Q378 0 365.50-7.50Q353-15 353-29L353-290Q353-340 322.50-372.50Q292-405 249-405Q206-405 174-373Q142-341 142-288L142-30Q142-19 129.50-9.50Q117 0 100 0Q83 0 71-9Q59-18 59-30Z"/><path id="s35:dosis-medium:70" d="M60-30L60-731Q60-744 71.50-752Q83-760 101-760Q119-760 131-752Q143-744 143-731L143-404Q161-436 195-458Q229-480 274-480Q347-480 400-423.50Q453-367 453-288L453-186Q453-110 400-51Q347 8 277 8Q232 8 194-15Q156-38 139-70L139-30Q139-18 127.50-9Q116 0 101 0Q84 0 72-9Q60-18 60-30M143-159Q143-134 178-100.50Q213-67 257-67Q302-67 336-103.50Q370-140 370-186L370-288Q370-333 336-369Q302-405 256-405Q211-405 177-372.50Q143-340 143-288L143-159Z"/><path id="s35:dosis-medium:74" d="M60-29L60-573Q60-651 112.50-705.50Q165-760 237-760L272-760Q288-760 297-749Q306-738 306-723Q306-708 297-697.50Q288-687 272-687L251-687Q205-687 174.50-656Q144-625 143-580L143-474L280-474Q292-474 299-464Q306-454 306-441Q306-428 299-418.50Q292-409 280-409L143-409L143-29Q143-17 130.50-8.50Q118 0 100 0Q83 0 71.50-8Q60-16 60-29Z"/><path id="s35:dosis-medium:88" d="M57-151L57-666Q57-678 70-686.50Q83-695 98-695Q114-695 127-686.50Q140-678 140-666L140-474L266-474Q277-474 284-464Q291-454 291-441Q291-428 284-418.50Q277-409 266-409L140-409L140-151Q140-108 158.50-90.50Q177-73 223-73L254-73Q271-73 280.50-62.50Q290-52 290-37Q290-22 280-11Q270 0 254 0L223 0Q57 0 57-151Z"/><path id="s35:dosis-medium:77" d="M63.50-618.50Q63.50-618.50 55.75-625.75Q48-633 48-652Q48-671 63-685Q78-699 100-699Q121-699 136-685Q151-671 151-652Q151-633 136-618.50Q121-604 100-604Q79-604 63.50-618.50M59-30L59-445Q59-458 71-466Q83-474 100-474Q118-474 130-466Q142-458 142-445L142-30Q142-19 129.50-9.50Q117 0 100 0Q83 0 71-9Q59-18 59-30Z"/><path id="s35:dosis-medium:93" d="M12-440Q12-456 30-468Q48-480 66-480Q87-480 93-463L225-115L344-463Q351-480 370-480Q387-480 405.50-468Q424-456 424-439Q424-434 421-429L269-22L250 28Q245 42 230 76Q215 110 205 125Q195 140 177 164.50Q159 189 142 200Q125 211 101.50 220Q78 229 52 229Q13 229 13 192Q13 156 37 156Q82 156 124.50 105.50Q167 55 182-24L16-429Q12-435 12-440Z"/><path id="s35:dosis-medium:18" d="M37-46Q37-68 52-83.50Q67-99 89-99Q110-99 125-83.50Q140-68 140-46Q140-25 125-9.50Q110 6 89 6Q67 6 52-9.50Q37-25 37-46Z"/><path id="s35:dosis-medium:92" d="M24-33Q24-42 29-50L158-240L34-422Q28-430 28-438Q28-453 46-466.50Q64-480 81-480Q95-480 103-468L213-296L325-468Q332-480 347-480Q363-480 381-466Q399-452 399-438Q399-430 394-422L268-240L398-50Q403-43 403-33Q403-20 386-6Q369 8 352 8Q336 8 329-4L213-181L98-4Q90 8 75 8Q60 8 42-5.50Q24-19 24-33Z"/><path id="s35:dosis-medium:71" d="M42-186L42-286Q42-372 92.50-426Q143-480 241-480Q303-480 345.50-458Q388-436 388-411Q388-397 377.50-383.50Q367-370 353-370Q349-370 318.50-387.50Q288-405 247-405Q187-405 156-374Q125-343 125-286L125-186Q125-67 248-67Q290-67 321-85Q352-103 357-103Q373-103 383.50-90Q394-77 394-63Q394-38 350-15Q306 8 242 8Q143 8 92.50-45.50Q42-99 42-186Z"/><path id="s35:dosis-medium:42" d="M71-29L71-701Q71-715 82.50-723Q94-731 109-731L461-731Q475-731 482.50-720Q490-709 490-694Q490-677 482.50-666Q475-655 461-655L155-655L155-401L311-401Q325-401 332.50-390.50Q340-380 340-365Q340-352 332.50-341.50Q325-331 311-331L155-331L155-29Q155-15 142.50-7.50Q130 0 113 0Q96 0 83.50-7.50Q71-15 71-29Z"/><path id="s35:dosis-medium:16" d="M36-46Q36-68 50.50-83.50Q65-99 87-99Q108-99 123.50-84Q139-69 139-46Q139-28 96 75Q90 89 74 89Q63 89 54 82.50Q45 76 45 65Q45 58 47 54L68 2Q36-11 36-46Z"/></defs><g id="line-0"><use x="0" y="908.5" xlink:href="#s35:dosis-medium:56"/><use x="494" y="908.5" xlink:href="#s35:dosis-medium:76"/><use x="998" y="908.5" xlink:href="#s35:dosis-medium:73"/><use x="1463" y="908.5" xlink:href="#s35:dosis-medium:4"/><use x="1663" y="908.5" xlink:href="#s35:dosis-medium:41"/><use x="2145" y="908.5" xlink:href="#s35:dosis-medium:89"/><use x="2650" y="908.5" xlink:href="#s35:dosis-medium:86"/><use x="2979" y="908.5" xlink:href="#s35:dosis-medium:83"/><use x="3456" y="908.5" xlink:href="#s35:dosis-medium:84"/><use x="3950" y="908.5" xlink:href="#s35:dosis-medium:73"/><use x="4415" y="908.5" xlink:href="#s35:dosis-medium:69"/><use x="4863" y="908.5" xlink:href="#s35:dosis-medium:82"/><use x="5366" y="908.5" xlink:href="#s35:dosis-medium:4"/><use x="5566" y="908.5" xlink:href="#s35:dosis-medium:80"/><use x="5785" y="908.5" xlink:href="#s35:dosis-medium:69"/><use x="6233" y="908.5" xlink:href="#s35:dosis-medium:82"/><use x="6736" y="908.5" xlink:href="#s35:dosis-medium:75"/><use x="7193" y="908.5" xlink:href="#s35:dosis-medium:89"/><use x="7698" y="908.5" xlink:href="#s35:dosis-medium:69"/><use x="8146" y="908.5" xlink:href="#s35:dosis-medium:75"/><use x="8603" y="908.5" xlink:href="#s35:dosis-medium:73"/><use x="9068" y="908.5" xlink:href="#s35:dosis-medium:87"/><use x="9460" y="908.5" xlink:href="#s35:dosis-medium:4"/><use x="9660" y="908.5" xlink:href="#s35:dosis-medium:69"/><use x="10108" y="908.5" xlink:href="#s35:dosis-medium:86"/><use x="10437" y="908.5" xlink:href="#s35:dosis-medium:73"/><use x="10902" y="908.5" xlink:href="#s35:dosis-medium:4"/><use x="11102" y="908.5" xlink:href="#s35:dosis-medium:81"/><use x="11888" y="908.5" xlink:href="#s35:dosis-medium:73"/><use x="12353" y="908.5" xlink:href="#s35:dosis-medium:81"/><use x="13139" y="908.5" xlink:href="#s35:dosis-medium:70"/><use x="13633" y="908.5" xlink:href="#s35:dosis-medium:73"/><use x="14098" y="908.5" xlink:href="#s35:dosis-medium:86"/><use x="14442" y="908.5" xlink:href="#s35:dosis-medium:87"/><use x="14834" y="908.5" xlink:href="#s35:dosis-medium:4"/><use x="15034" y="908.5" xlink:href="#s35:dosis-medium:83"/><use x="15511" y="908.5" xlink:href="#s35:dosis-medium:74"/><use x="15826" y="908.5" xlink:href="#s35:dosis-medium:4"/><use x="16026" y="908.5" xlink:href="#s35:dosis-medium:88"/><use x="16336" y="908.5" xlink:href="#s35:dosis-medium:76"/><use x="16840" y="908.5" xlink:href="#s35:dosis-medium:73"/><use x="17305" y="908.5" xlink:href="#s35:dosis-medium:4"/><use x="17505" y="908.5" xlink:href="#s35:dosis-medium:87"/><use x="17897" y="908.5" xlink:href="#s35:dosis-medium:69"/><use x="18345" y="908.5" xlink:href="#s35:dosis-medium:81"/><use x="19131" y="908.5" xlink:href="#s35:dosis-medium:73"/><use x="19596" y="908.5" xlink:href="#s35:dosis-medium:4"/><use x="19796" y="908.5" xlink:href="#s35:dosis-medium:74"/><use x="20111" y="908.5" xlink:href="#s35:dosis-medium:69"/><use x="20559" y="908.5" xlink:href="#s35:dosis-medium:81"/><use x="21345" y="908.5" xlink:href="#s35:dosis-medium:77"/><use x="21546" y="908.5" xlink:href="#s35:dosis-medium:80"/><use x="21765" y="908.5" xlink:href="#s35:dosis-medium:93"/><use x="22177" y="908.5" xlink:href="#s35:dosis-medium:18"/></g><g id="line-1"><use x="4555.5" y="2108.5" xlink:href="#s35:dosis-medium:56"/><use x="5049.5" y="2108.5" xlink:href="#s35:dosis-medium:76"/><use x="5553.5" y="2108.5" xlink:href="#s35:dosis-medium:73"/><use x="6018.5" y="2108.5" xlink:href="#s35:dosis-medium:77"/><use x="6219.5" y="2108.5" xlink:href="#s35:dosis-medium:86"/><use x="6563.5" y="2108.5" xlink:href="#s35:dosis-medium:4"/><use x="6763.5" y="2108.5" xlink:href="#s35:dosis-medium:87"/><use x="7155.5" y="2108.5" xlink:href="#s35:dosis-medium:73"/><use x="7620.5" y="2108.5" xlink:href="#s35:dosis-medium:84"/><use x="8114.5" y="2108.5" xlink:href="#s35:dosis-medium:69"/><use x="8562.5" y="2108.5" xlink:href="#s35:dosis-medium:86"/><use x="8906.5" y="2108.5" xlink:href="#s35:dosis-medium:69"/><use x="9354.5" y="2108.5" xlink:href="#s35:dosis-medium:88"/><use x="9656.5" y="2108.5" xlink:href="#s35:dosis-medium:73"/><use x="10121.5" y="2108.5" xlink:href="#s35:dosis-medium:4"/><use x="10321.5" y="2108.5" xlink:href="#s35:dosis-medium:73"/><use x="10786.5" y="2108.5" xlink:href="#s35:dosis-medium:92"/><use x="11212.5" y="2108.5" xlink:href="#s35:dosis-medium:77"/><use x="11413.5" y="2108.5" xlink:href="#s35:dosis-medium:87"/><use x="11805.5" y="2108.5" xlink:href="#s35:dosis-medium:88"/><use x="12107.5" y="2108.5" xlink:href="#s35:dosis-medium:73"/><use x="12572.5" y="2108.5" xlink:href="#s35:dosis-medium:82"/><use x="13075.5" y="2108.5" xlink:href="#s35:dosis-medium:71"/><use x="13487.5" y="2108.5" xlink:href="#s35:dosis-medium:73"/><use x="13952.5" y="2108.5" xlink:href="#s35:dosis-medium:4"/><use x="14152.5" y="2108.5" xlink:href="#s35:dosis-medium:77"/><use x="14353.5" y="2108.5" xlink:href="#s35:dosis-medium:87"/><use x="14745.5" y="2108.5" xlink:href="#s35:dosis-medium:4"/><use x="14945.5" y="2108.5" xlink:href="#s35:dosis-medium:69"/><use x="15393.5" y="2108.5" xlink:href="#s35:dosis-medium:4"/><use x="15593.5" y="2108.5" xlink:href="#s35:dosis-medium:81"/><use x="16370.5" y="2108.5" xlink:href="#s35:dosis-medium:93"/><use x="16807.5" y="2108.5" xlink:href="#s35:dosis-medium:88"/><use x="17117.5" y="2108.5" xlink:href="#s35:dosis-medium:76"/><use x="17621.5" y="2108.5" xlink:href="#s35:dosis-medium:18"/></g><g id="line-2"><use x="5639.5" y="3308.5" xlink:href="#s35:dosis-medium:42"/><use x="6032.5" y="3308.5" xlink:href="#s35:dosis-medium:83"/><use x="6509.5" y="3308.5" xlink:href="#s35:dosis-medium:86"/><use x="6853.5" y="3308.5" xlink:href="#s35:dosis-medium:4"/><use x="7053.5" y="3308.5" xlink:href="#s35:dosis-medium:87"/><use x="7445.5" y="3308.5" xlink:href="#s35:dosis-medium:71"/><use x="7862.5" y="3308.5" xlink:href="#s35:dosis-medium:77"/><use x="8063.5" y="3308.5" xlink:href="#s35:dosis-medium:73"/><use x="8528.5" y="3308.5" xlink:href="#s35:dosis-medium:82"/><use x="9031.5" y="3308.5" xlink:href="#s35:dosis-medium:71"/><use x="9443.5" y="3308.5" xlink:href="#s35:dosis-medium:73"/><use x="9908.5" y="3308.5" xlink:href="#s35:dosis-medium:16"/><use x="10084.5" y="3308.5" xlink:href="#s35:dosis-medium:4"/><use x="10284.5" y="3308.5" xlink:href="#s35:dosis-medium:81"/><use x="11070.5" y="3308.5" xlink:href="#s35:dosis-medium:89"/><use x="11575.5" y="3308.5" xlink:href="#s35:dosis-medium:87"/><use x="11967.5" y="3308.5" xlink:href="#s35:dosis-medium:77"/><use x="12168.5" y="3308.5" xlink:href="#s35:dosis-medium:71"/><use x="12585.5" y="3308.5" xlink:href="#s35:dosis-medium:16"/><use x="12761.5" y="3308.5" xlink:href="#s35:dosis-medium:4"/><use x="12961.5" y="3308.5" xlink:href="#s35:dosis-medium:87"/><use x="13353.5" y="3308.5" xlink:href="#s35:dosis-medium:84"/><use x="13847.5" y="3308.5" xlink:href="#s35:dosis-medium:83"/><use x="14324.5" y="3308.5" xlink:href="#s35:dosis-medium:86"/><use x="14668.5" y="3308.5" xlink:href="#s35:dosis-medium:88"/><use x="14978.5" y="3308.5" xlink:href="#s35:dosis-medium:16"/><use x="15154.5" y="3308.5" xlink:href="#s35:dosis-medium:4"/><use x="15354.5" y="3308.5" xlink:href="#s35:dosis-medium:73"/><use x="15819.5" y="3308.5" xlink:href="#s35:dosis-medium:88"/><use x="16121.5" y="3308.5" xlink:href="#s35:dosis-medium:71"/><use x="16538.5" y="3308.5" xlink:href="#s35:dosis-medium:16"/></g></svg>