<svg xmlns="http://www.w3.org/2000/svg" xmlns:xlink="http://www.w3.org/1999/xlink" width="561" height="85" viewBox="0 0 23379 3545.5"><defs><path id="s31:dosis-bold:56" d="M12-673Q12-696 22.50-713.50Q33-731 53-731L476-731Q496-731 506.50-713.50Q517-696 517-673Q517-649 506-631.50Q495-614 476-614L330-614L330-41Q330-22 310.50-11Q291 0 265 0Q238 0 219-11Q200-22 200-41L200-614L53-614Q34-614 23-631Q12-648 12-673Z"/><path id="s31:dosis-bold:76" d="M51-41L51-712Q51-730 68.50-741Q86-752 115-752Q142-752 161-741Q180-730 180-712L180-405Q195-437 228-459Q261-481 306-481Q375-481 426.50-421Q478-361 478-278L478-41Q478-22 458.50-11Q439 0 413 0Q388 0 368.50-11Q349-22 349-41L349-278Q349-312 323-340Q297-368 262-368Q229-368 204.50-343Q180-318 180-278L180-41Q180-26 160.50-13Q141 0 115 0Q88 0 69.50-12.50Q51-25 51-41Z"/><path id="s31:dosis-bold:73" d="M32-196L32-281Q32-363 96-422Q160-481 251-481Q336-481 396.50-427.50Q457-374 457-293Q457-263 449.50-243.50Q442-224 426.50-216Q411-208 398-206Q385-204 364-204L161-204L161-189Q161-146 193-119.50Q225-93 278-93Q316-93 353-112Q390-131 401-131Q422-131 436-111.50Q450-92 450-74Q450-46 399.50-18.50Q349 9 274 9Q167 9 99.50-47.50Q32-104 32-196M161-280L307-280Q323-280 329.50-285.50Q336-291 336-307Q336-342 310.50-364Q285-386 248-386Q213-386 187-364.50Q161-343 161-308L161-280Z"/><path id="s31:dosis-bold:4" d=""/><path id="s31:dosis-bold:41" d="M60-41L60-690Q60-709 77-720Q94-731 117-731L473-731Q493-731 503.50-714Q514-697 514-675Q514-651 503-634Q492-617 473-617L190-617L190-417L342-417Q361-417 372-401.50Q383-386 383-365Q383-346 372.50-330.50Q362-315 342-315L190-315L190-114L473-114Q492-114 503-97Q514-80 514-56Q514-34 503.50-17Q493 0 473 0L117 0Q94 0 77-11Q60-22 60-41Z"/><path id="s31:dosis-bold:89" d="M45-194L45-434Q45-449 64.50-462Q84-475 110-475Q135-475 154.50-462Q174-449 174-434L174-194Q174-159 200-131.50Q226-104 262-104Q298-104 323.50-131.50Q349-159 349-194L349-435Q349-451 368.50-463Q388-475 414-475Q442-475 460-463Q478-451 478-435L478-194Q478-113 414-52Q350 9 262 9Q174 9 109.50-52Q45-113 45-194Z"/><path id="s31:dosis-bold:86" d="M50-41L50-435Q50-453 67.50-464Q85-475 113-475Q138-475 154.50-464Q171-453 171-435L171-394Q187-429 221-455Q255-481 294-481L325-481Q343-481 357.50-464Q372-447 372-425Q372-402 357.50-385Q343-368 325-368L294-368Q248-368 213.50-327Q179-286 179-220L179-41Q179-26 159-13Q139 0 113 0Q86 0 68-12.50Q50-25 50-41Z"/><path id="s31:dosis-bold:83" d="M32-196L32-278Q32-360 96-420.50Q160-481 249-481Q336-481 401-421Q466-361 466-278L466-196Q466-115 401-53Q336 9 249 9Q162 9 97-53Q32-115 32-196M161-196Q161-160 187-132Q213-104 249-104Q284-104 310.50-132Q337-160 337-196L337-278Q337-312 310.50-340Q284-368 249-368Q213-368 187-340.50Q161-313 161-278L161-196Z"/><path id="s31:dosis-bold:84" d="M51 180L51-435Q51-453 68.50-464Q86-475 112-475Q138-475 155-464Q172-453 172-435L172-405Q191-437 226.50-459Q262-481 307-481Q382-481 434-421.50Q486-362 486-278L486-196Q486-115 433-53Q380 9 311 9Q268 9 231.50-14.50Q195-38 180-70L180 180Q180 196 160.50 208.50Q141 221 114 221Q87 221 69 208.50Q51 196 51 180M180-178Q180-158 207-131Q234-104 268-104Q303-104 330-132.50Q357-161 357-196L357-278Q357-313 330-340.50Q303-368 266-368Q232-368 206-343Q180-318 180-278L180-178Z"/><path id="s31:dosis-bold:69" d="M22-124Q22-205 82-238Q142-271 255-271L296-271L296-284Q296-321 274.50-348.50Q253-376 208-376Q163-376 131-360.50Q99-345 94-345Q74-345 62-365Q50-385 50-409Q50-438 101.50-459.50Q153-481 210-481Q319-481 372-425.50Q425-370 425-286L425-41Q425-24 407-12Q389 0 362 0Q337 0 320.50-12Q304-24 304-41L304-70Q235 9 152 9Q95 9 58.50-25Q22-59 22-124M151-141Q151-114 165.50-100.50Q180-87 204-87Q236-87 266-117Q296-147 296-183L296-204L281-204Q220-204 185.50-191.50Q151-179 151-141Z"/><path id="s31:dosis-bold:82" d="M50-41L50-435Q50-453 67.50-464Q85-475 114-475Q138-475 154.50-464Q171-453 171-435L171-405Q187-437 222.50-459Q258-481 305-481Q374-481 425.50-421Q477-361 477-278L477-41Q477-22 457.50-11Q438 0 412 0Q387 0 367.50-11Q348-22 348-41L348-278Q348-313 322-340.50Q296-368 261-368Q228-368 203.50-343Q179-318 179-278L179-41Q179-26 159.50-13Q140 0 114 0Q87 0 68.50-12.50Q50-25 50-41Z"/><path id="s31:dosis-bold:80" d="M59-41L59-712Q59-730 76.50-741Q94-752 123-752Q150-752 169-741Q188-730 188-712L188-41Q188-26 168.50-13Q149 0 123 0Q96 0 77.50-12.50Q59-25 59-41Z"/><path id="s31:dosis-bold:75" d="M15 80Q15 11 88-26Q46-46 46-90Q46-134 97-168Q35-216 35-295L35-316Q35-389 89-435Q143-481 230-481Q296-481 344-452Q374-520 405-520Q428-520 442-507Q456-494 456-480Q456-464 440-452Q403-426 393-414Q428-373 428-316L428-295Q428-223 372.50-175.50Q317-128 230-128Q194-128 165-137Q153-127 153-117Q153-100 184-92Q215-84 259.50-78.50Q304-73 348-62.50Q392-52 423-20Q454 12 454 64Q454 142 391 181.50Q328 221 236 221Q143 221 79 183Q15 145 15 80M137 67Q137 100 165 119Q193 138 234 138Q275 138 302 119Q329 100 329 68Q329 54 324 43.50Q319 33 306.50 26Q294 19 284.50 14.50Q275 10 254 6.50Q233 3 223.50 2Q214 1 191-2Q137 23 137 67M160-296Q160-257 179-231.50Q198-206 232-206Q265-206 284-230.50Q303-255 303-295L303-316Q303-353 283.50-378Q264-403 231-403Q198-403 179-378.50Q160-354 160-316L160-296Z"/><path id="s31:dosis-bold:87" d="M23-77Q23-95 36-114.50Q49-134 66-134Q77-134 93.50-123Q110-112 137-100.50Q164-89 201-89Q274-89 274-132Q274-156 249.50-170Q225-184 190.50-193Q156-202 121-214.50Q86-227 61.50-256.50Q37-286 37-332Q37-393 80-437Q123-481 216-481Q278-481 326.50-462Q375-443 375-416Q375-399 361.50-376.50Q348-354 328-354Q320-354 284.50-368.50Q249-383 218-383Q184-383 166-369Q148-355 148-338Q148-321 166-310Q184-299 210.50-293Q237-287 268-276.50Q299-266 325.50-252Q352-238 370-208.50Q388-179 388-137Q388-69 339.50-30Q291 9 204 9Q129 9 76-17Q23-43 23-77Z"/><path id="s31:dosis-bold:81" d="M50-41L50-435Q50-453 67.50-464Q85-475 114-475Q138-475 154.50-464Q171-453 171-435L171-405Q214-481 303-481Q345-481 378.50-453.50Q412-426 428-381Q453-430 493.50-455.50Q534-481 579-481Q651-481 704-426Q757-371 757-278L757-41Q757-26 737.50-13Q718 0 692 0Q667 0 647.50-13Q628-26 628-41L628-278Q628-320 604-344.50Q580-369 547-369Q515-369 491.50-344.50Q468-320 468-279L468-40Q468-20 449-10Q430 0 403 0Q378 0 358.50-10.50Q339-21 339-40L339-278Q339-318 314.50-343Q290-368 257-368Q225-368 202-344Q179-320 179-278L179-41Q179-26 159.50-13Q140 0 114 0Q87 0 68.50-12.50Q50-25 50-41Z"/><path id="s31:dosis-bold:70" d="M51-41L51-712Q51-730 68.50-741Q86-752 114-752Q142-752 161-741Q180-730 180-712L180-405Q197-437 230.50-459Q264-481 308-481Q381-481 433.50-421Q486-361 486-278L486-196Q486-115 433-53Q380 9 311 9Q266 9 227-14.50Q188-38 172-70L172-41Q172-26 154.50-13Q137 0 114 0Q87 0 69-12.50Q51-25 51-41M180-178Q180-159 207.50-131.50Q235-104 270-104Q305-104 331-132.50Q357-161 357-196L357-278Q357-313 331-340.50Q305-368 269-368Q235-368 207.50-343Q180-318 180-278L180-178Z"/><path id="s31:dosis-bold:74" d="M51-40L51-556Q51-639 102.50-695.50Q154-752 227-752L286-752Q309-752 322-736Q335-720 335-698Q335-675 322-659Q309-643 286-643L254-643Q221-643 200.50-623Q180-603 180-570L180-475L302-475Q317-475 326-461Q335-447 335-428Q335-409 326-395Q317-381 302-381L180-381L180-40Q180-22 160.50-11Q141 0 114 0Q87 0 69-11Q51-22 51-40Z"/><path id="s31:dosis-bold:88" d="M49-162L49-647Q49-664 69-675.50Q89-687 113-687Q139-687 158.50-675.50Q178-664 178-647L178-475L296-475Q311-475 320-461Q329-447 329-428Q329-409 320-395Q311-381 296-381L178-381L178-162Q178-133 190.50-121Q203-109 234-109L273-109Q299-109 313.50-93Q328-77 328-55Q328-32 313.50-16Q299 0 273 0L234 0Q49 0 49-162Z"/><path id="s31:dosis-bold:77" d="M43-644Q43-670 63.50-688.50Q84-707 114-707Q143-707 163.50-688.50Q184-670 184-644Q184-619 163.50-600Q143-581 114-581Q84-581 63.50-600Q43-619 43-644M50-41L50-435Q50-453 68-464Q86-475 114-475Q142-475 160.50-464Q179-453 179-435L179-41Q179-26 159.50-13Q140 0 114 0Q87 0 68.50-12.50Q50-25 50-41Z"/><path id="s31:dosis-bold:93" d="M6 166Q6 112 39 112Q86 112 131.50 78Q177 44 182-35L10-403Q6-413 6-420Q6-444 35.50-463Q65-482 92-482Q122-482 129-460L249-161L346-460Q353-482 380-482Q406-482 437-462.50Q468-443 468-418Q468-410 465-403L319-30L302 14Q290 48 284.50 61Q279 74 265.50 101.50Q252 129 241.50 141.50Q231 154 212 172.50Q193 191 173.50 199.50Q154 208 126 214.50Q98 221 65 221Q36 221 21 210Q6 199 6 166Z"/><path id="s31:dosis-bold:18" d="M47.50-14Q47.50-14 37.75-24Q28-34 28-62Q28-90 47.50-110Q67-130 96-130Q123-130 143-110Q163-90 163-62Q163-35 143-14.50Q123 6 96 6Q67 6 47.50-14Z"/><path id="s31:dosis-bold:92" d="M21-55Q21-67 29-77L147-242L37-395Q29-406 29-416Q29-438 59-459.50Q89-481 115-481Q135-481 144-467L235-321L327-466Q337-481 357-481Q382-481 412-459.50Q442-438 442-416Q442-408 434-395L323-241L442-77Q450-69 450-55Q450-34 421-12.50Q392 9 366 9Q346 9 336-5L235-157L135-5Q125 9 103 9Q81 9 51-12.50Q21-34 21-55Z"/><path id="s31:dosis-bold:71" d="M34-196L34-276Q34-368 88-424.50Q142-481 250-481Q318-481 364-457Q410-433 410-403Q410-382 395-361Q380-340 359-340Q353-340 323.50-354Q294-368 260-368Q163-368 163-276L163-196Q163-104 261-104Q295-104 324-119Q353-134 361-134Q385-134 400.50-114Q416-94 416-73Q416-42 367.50-16.50Q319 9 251 9Q142 9 88-47Q34-103 34-196Z"/><path id="s31:dosis-bold:42" d="M60-41L60-690Q60-709 77-720Q94-731 117-731L466-731Q486-731 496-714.50Q506-698 506-675Q506-651 495.50-634Q485-617 466-617L190-617L190-417L343-417Q362-417 372.50-402Q383-387 383-365Q383-345 372.50-330Q362-315 343-315L190-315L190-41Q190-22 170.50-11Q151 0 125 0Q98 0 79-11Q60-22 60-41Z"/><path id="s31:dosis-bold:16" d="M29-62Q29-90 48.50-110Q68-130 96-130Q124-130 144-110.50Q164-91 164-63Q164-46 109 83Q101 100 82 100Q67 100 53 90.50Q39 81 39 66Q39 59 43 52L66-1Q29-21 29-62Z"/></defs><g id="line-0"><use x="0" y="908.5" xlink:href="#s31:dosis-bold:56"/><use x="528" y="908.5" xlink:href="#s31:dosis-bold:76"/><use x="1052" y="908.5" xlink:href="#s31:dosis-bold:73"/><use x="1536" y="908.5" xlink:href="#s31:dosis-bold:4"/><use x="1736" y="908.5" xlink:href="#s31:dosis-bold:41"/><use x="2243" y="908.5" xlink:href="#s31:dosis-bold:89"/><use x="2767" y="908.5" xlink:href="#s31:dosis-bold:86"/><use x="3134" y="908.5" xlink:href="#s31:dosis-bold:83"/><use x="3632" y="908.5" xlink:href="#s31:dosis-bold:84"/><use x="4151" y="908.5" xlink:href="#s31:dosis-bold:73"/><use x="4635" y="908.5" xlink:href="#s31:dosis-bold:69"/><use x="5106" y="908.5" xlink:href="#s31:dosis-bold:82"/><use x="5629" y="908.5" xlink:href="#s31:dosis-bold:4"/><use x="5829" y="908.5" xlink:href="#s31:dosis-bold:80"/><use x="6076" y="908.5" xlink:href="#s31:dosis-bold:69"/><use x="6547" y="908.5" xlink:href="#s31:dosis-bold:82"/><use x="7070" y="908.5" xlink:href="#s31:dosis-bold:75"/><use x="7540" y="908.5" xlink:href="#s31:dosis-bold:89"/><use x="8064" y="908.5" xlink:href="#s31:dosis-bold:69"/><use x="8535" y="908.5" xlink:href="#s31:dosis-bold:75"/><use x="9005" y="908.5" xlink:href="#s31:dosis-bold:73"/><use x="9489" y="908.5" xlink:href="#s31:dosis-bold:87"/><use x="9903" y="908.5" xlink:href="#s31:dosis-bold:4"/><use x="10103" y="908.5" xlink:href="#s31:dosis-bold:69"/><use x="10574" y="908.5" xlink:href="#s31:dosis-bold:86"/><use x="10941" y="908.5" xlink:href="#s31:dosis-bold:73"/><use x="11425" y="908.5" xlink:href="#s31:dosis-bold:4"/><use x="11625" y="908.5" xlink:href="#s31:dosis-bold:81"/><use x="12428" y="908.5" xlink:href="#s31:dosis-bold:73"/><use x="12912" y="908.5" xlink:href="#s31:dosis-bold:81"/><use x="13715" y="908.5" xlink:href="#s31:dosis-bold:70"/><use x="14234" y="908.5" xlink:href="#s31:dosis-bold:73"/><use x="14718" y="908.5" xlink:href="#s31:dosis-bold:86"/><use x="15095" y="908.5" xlink:href="#s31:dosis-bold:87"/><use x="15509" y="908.5" xlink:href="#s31:dosis-bold:4"/><use x="15709" y="908.5" xlink:href="#s31:dosis-bold:83"/><use x="16207" y="908.5" xlink:href="#s31:dosis-bold:74"/><use x="16547" y="908.5" xlink:href="#s31:dosis-bold:4"/><use x="16747" y="908.5" xlink:href="#s31:dosis-bold:88"/><use x="17094" y="908.5" xlink:href="#s31:dosis-bold:76"/><use x="17618" y="908.5" xlink:href="#s31:dosis-bold:73"/><use x="18102" y="908.5" xlink:href="#s31:dosis-bold:4"/><use x="18302" y="908.5" xlink:href="#s31:dosis-bold:87"/><use x="18716" y="908.5" xlink:href="#s31:dosis-bold:69"/><use x="19187" y="908.5" xlink:href="#s31:dosis-bold:81"/><use x="19990" y="908.5" xlink:href="#s31:dosis-bold:73"/><use x="20474" y="908.5" xlink:href="#s31:dosis-bold:4"/><use x="20674" y="908.5" xlink:href="#s31:dosis-bold:74"/><use x="21014" y="908.5" xlink:href="#s31:dosis-bold:69"/><use x="21485" y="908.5" xlink:href="#s31:dosis-bold:81"/><use x="22288" y="908.5" xlink:href="#s31:dosis-bold:77"/><use x="22517" y="908.5" xlink:href="#s31:dosis-bold:80"/><use x="22764" y="908.5" xlink:href="#s31:dosis-bold:93"/><use x="23216" y="908.5" xlink:href="#s31:dosis-bold:18"/></g><g id="line-1"><use x="4697.5" y="2108.5" xlink:href="#s31:dosis-bold:56"/><use x="5225.5" y="2108.5" xlink:href="#s31:dosis-bold:76"/><use x="5749.5" y="2108.5" xlink:href="#s31:dosis-bold:73"/><use x="6233.5" y="2108.5" xlink:href="#s31:dosis-bold:77"/><use x="6462.5" y="2108.5" xlink:href="#s31:dosis-bold:86"/><use x="6839.5" y="2108.5" xlink:href="#s31:dosis-bold:4"/><use x="7039.5" y="2108.5" xlink:href="#s31:dosis-bold:87"/><use x="7453.5" y="2108.5" xlink:href="#s31:dosis-bold:73"/><use x="7937.5" y="2108.5" xlink:href="#s31:dosis-bold:84"/><use x="8456.5" y="2108.5" xlink:href="#s31:dosis-bold:69"/><use x="8927.5" y="2108.5" xlink:href="#s31:dosis-bold:86"/><use x="9304.5" y="2108.5" xlink:href="#s31:dosis-bold:69"/><use x="9775.5" y="2108.5" xlink:href="#s31:dosis-bold:88"/><use x="10117.5" y="2108.5" xlink:href="#s31:dosis-bold:73"/><use x="10601.5" y="2108.5" xlink:href="#s31:dosis-bold:4"/><use x="10801.5" y="2108.5" xlink:href="#s31:dosis-bold:73"/><use x="11285.5" y="2108.5" xlink:href="#s31:dosis-bold:92"/><use x="11755.5" y="2108.5" xlink:href="#s31:dosis-bold:77"/><use x="11984.5" y="2108.5" xlink:href="#s31:dosis-bold:87"/><use x="12398.5" y="2108.5" xlink:href="#s31:dosis-bold:88"/><use x="12740.5" y="2108.5" xlink:href="#s31:dosis-bold:73"/><use x="13224.5" y="2108.5" xlink:href="#s31:dosis-bold:82"/><use x="13747.5" y="2108.5" xlink:href="#s31:dosis-bold:71"/><use x="14177.5" y="2108.5" xlink:href="#s31:dosis-bold:73"/><use x="14661.5" y="2108.5" xlink:href="#s31:dosis-bold:4"/><use x="14861.5" y="2108.5" xlink:href="#s31:dosis-bold:77"/><use x="15090.5" y="2108.5" xlink:href="#s31:dosis-bold:87"/><use x="15504.5" y="2108.5" xlink:href="#s31:dosis-bold:4"/><use x="15704.5" y="2108.5" xlink:href="#s31:dosis-bold:69"/><use x="16175.5" y="2108.5" xlink:href="#s31:dosis-bold:4"/><use x="16375.5" y="2108.5" xlink:href="#s31:dosis-bold:81"/><use x="17171.5" y="2108.5" xlink:href="#s31:dosis-bold:93"/><use x="17647.5" y="2108.5" xlink:href="#s31:dosis-bold:88"/><use x="17994.5" y="2108.5" xlink:href="#s31:dosis-bold:76"/><use x="18518.5" y="2108.5" xlink:href="#s31:dosis-bold:18"/></g><g id="line-2"><use x="5864" y="3308.5" xlink:href="#s31:dosis-bold:42"/><use x="6280" y="3308.5" xlink:href="#s31:dosis-bold:83"/><use x="6778" y="3308.5" xlink:href="#s31:dosis-bold:86"/><use x="7155" y="3308.5" xlink:href="#s31:dosis-bold:4"/><use x="7355" y="3308.5" xlink:href="#s31:dosis-bold:87"/><use x="7769" y="3308.5" xlink:href="#s31:dosis-bold:71"/><use x="8203" y="3308.5" xlink:href="#s31:dosis-bold:77"/><use x="8432" y="3308.5" xlink:href="#s31:dosis-bold:73"/><use x="8916" y="3308.5" xlink:href="#s31:dosis-bold:82"/><use x="9439" y="3308.5" xlink:href="#s31:dosis-bold:71"/><use x="9869" y="3308.5" xlink:href="#s31:dosis-bold:73"/><use x="10353" y="3308.5" xlink:href="#s31:dosis-bold:16"/><use x="10546" y="3308.5" xlink:href="#s31:dosis-bold:4"/><use x="10746" y="3308.5" xlink:href="#s31:dosis-bold:81"/><use x="11549" y="3308.5" xlink:href="#s31:dosis-bold:89"/><use x="12073" y="3308.5" xlink:href="#s31:dosis-bold:87"/><use x="12487" y="3308.5" xlink:href="#s31:dosis-bold:77"/><use x="12716" y="3308.5" xlink:href="#s31:dosis-bold:71"/><use x="13150" y="3308.5" xlink:href="#s31:dosis-bold:16"/><use x="13343" y="3308.5" xlink:href="#s31:dosis-bold:4"/><use x="13543" y="3308.5" xlink:href="#s31:dosis-bold:87"/><use x="13957" y="3308.5" xlink:href="#s31:dosis-bold:84"/><use x="14476" y="3308.5" xlink:href="#s31:dosis-bold:83"/><use x="14974" y="3308.5" xlink:href="#s31:dosis-bold:86"/><use x="15351" y="3308.5" xlink:href="#s31:dosis-bold:88"/><use x="15698" y="3308.5" xlink:href="#s31:dosis-bold:16"/><use x="15891" y="3308.5" xlink:href="#s31:dosis-bold:4"/><use x="16091" y="3308.5" xlink:href="#s31:dosis-bold:73"/><use x="16575" y="3308.5" xlink:href="#s31:dosis-bold:88"/><use x="16917" y="3308.5" xlink:href="#s31:dosis-bold:71"/><use x="17351" y="3308.5" xlink:href="#s31:dosis-bold:16"/></g></svg>