<svg xmlns="http://www.w3.org/2000/svg" xmlns:xlink="http://www.w3.org/1999/xlink" width="516" height="85" viewBox="0 0 21506 3545.5" ><defs><path id="s34:dosis-light:56" d="M21-690Q21-690 18-693.50Q15-697 15-707Q15-717 21-724Q27-731 36-731L432-731Q453-731 453-708Q453-683 432-683L260-683L260-22Q260 0 235 0Q210 0 210-22L210-683L36-683Q27-683 21-690Z"/><path id="s34:dosis-light:76" d="M66-22L66-745Q66-754 73-760Q80-766 90-766Q101-766 108-760Q115-754 115-745L115-402Q132-434 166.50-456Q201-478 248-478Q321-478 374-424Q427-370 427-295L427-22Q427 0 402 0Q378 0 378-22L378-295Q378-348 338-390Q298-432 244-432Q193-432 154-394.50Q115-357 115-295L115-22Q115-14 107.50-7Q100 0 90 0Q80 0 73-6.50Q66-13 66-22Z"/><path id="s34:dosis-light:73" d="M48-179L48-298Q48-372 102-425Q156-478 232-478Q306-478 360-426Q414-374 414-297Q414-270 407.50-253.50Q401-237 387-230Q373-223 361.50-221.50Q350-220 329-220L97-220L97-178Q97-115 142-77Q187-39 258-39Q294-39 319-49Q344-59 357-69Q370-79 377-79Q386-79 393-71Q400-63 400-55Q400-36 358.50-15Q317 6 256 6Q164 6 106-45Q48-96 48-179M97-261L310-261Q344-261 355-268Q366-275 366-297Q366-350 328-392Q290-434 232-434Q176-434 136.50-395Q97-356 97-302L97-261Z"/><path id="s34:dosis-light:4" d=""/><path id="s34:dosis-light:41" d="M79-22L79-709Q79-731 103-731L459-731Q480-731 480-708Q480-698 474-690.50Q468-683 459-683L129-683L129-389L288-389Q297-389 303-382Q309-375 309-365Q309-343 288-343L129-343L129-48L459-48Q468-48 474-40.50Q480-33 480-23Q480 0 459 0L103 0Q79 0 79-22Z"/><path id="s34:dosis-light:89" d="M61-177L61-451Q61-459 68.50-465.50Q76-472 86-472Q95-472 102.50-465.50Q110-459 110-451L110-177Q110-123 149.50-81.50Q189-40 244-40Q299-40 338.50-81.50Q378-123 378-177L378-452Q378-460 385.50-466Q393-472 403-472Q413-472 420-466Q427-460 427-452L427-177Q427-103 373-48.50Q319 6 244 6Q169 6 115-49Q61-104 61-177Z"/><path id="s34:dosis-light:86" d="M66-22L66-452Q66-472 90-472Q100-472 107-466.50Q114-461 114-452L114-401Q132-434 167.50-456Q203-478 250-478L286-478Q295-478 301.50-471.50Q308-465 308-455Q308-445 301.50-438.50Q295-432 286-432L250-432Q196-432 155.50-391.50Q115-351 115-286L115-22Q115-14 107.50-7Q100 0 90 0Q80 0 73-6.50Q66-13 66-22Z"/><path id="s34:dosis-light:83" d="M47-179L47-295Q47-369 101-423.50Q155-478 230-478Q304-478 359-424Q414-370 414-295L414-179Q414-106 358.50-50Q303 6 230 6Q157 6 102-49.50Q47-105 47-179M96-179Q96-125 135.50-82.50Q175-40 230-40Q285-40 325-82.50Q365-125 365-179L365-295Q365-348 325-390Q285-432 230-432Q175-432 135.50-390Q96-348 96-295L96-179Z"/><path id="s34:dosis-light:84" d="M66 213L66-452Q66-472 90-472Q100-472 107-466.50Q114-461 114-452L114-402Q157-478 248-478Q322-478 375-424.50Q428-371 428-295L428-179Q428-106 374.50-50Q321 6 250 6Q206 6 169-16Q132-38 115-70L115 213Q115 221 107.50 228Q100 235 90 235Q80 235 73 228.50Q66 222 66 213M115-145Q115-116 155-78Q195-40 246-40Q299-40 339-82.50Q379-125 379-179L379-295Q379-348 338.50-390Q298-432 244-432Q193-432 154-394.50Q115-357 115-295L115-145Z"/><path id="s34:dosis-light:69" d="M33-126Q33-201 92.50-230.50Q152-260 266-260L320-260L320-286Q320-346 288.50-389.50Q257-433 194-433Q156-433 123-419Q90-405 89-405Q79-405 73-414Q67-423 67-432Q67-449 108.50-463.50Q150-478 196-478Q285-478 327-423.50Q369-369 369-286L369-22Q369-13 362-6.50Q355 0 345 0Q335 0 328-6.50Q321-13 321-22L321-70Q255 6 171 6Q110 6 71.50-27.50Q33-61 33-126M82-128Q82-83 108.50-60.50Q135-38 178-38Q229-38 274.50-74.50Q320-111 320-146L320-220L271-220Q228-220 199-217Q170-214 141-205.50Q112-197 97-177.50Q82-158 82-128Z"/><path id="s34:dosis-light:82" d="M66-22L66-452Q66-472 90-472Q100-472 107-466.50Q114-461 114-452L114-402Q131-434 166-456Q201-478 248-478Q321-478 374-424Q427-370 427-295L427-22Q427 0 402 0Q378 0 378-22L378-295Q378-348 338-390Q298-432 244-432Q193-432 154-394.50Q115-357 115-295L115-22Q115-14 107.50-7Q100 0 90 0Q80 0 73-6.50Q66-13 66-22Z"/><path id="s34:dosis-light:80" d="M74-22L74-745Q74-754 81-760Q88-766 98-766Q109-766 116-760Q123-754 123-745L123-22Q123-14 115.50-7Q108 0 98 0Q88 0 81-6.50Q74-13 74-22Z"/><path id="s34:dosis-light:75" d="M28 104Q28 26 116-6Q58-25 58-76Q58-122 107-147Q54-194 54-273L54-314Q54-386 100-432Q146-478 220-478Q293-478 338-433Q352-461 372.50-478Q393-495 411-495Q424-495 430.50-488Q437-481 437-472Q437-454 419-452Q384-450 361-407Q387-372 387-314L387-273Q387-201 340-154Q293-107 219-107Q174-107 140-126Q104-108 104-82Q104-56 136.50-44.50Q169-33 215-29.50Q261-26 307-18Q353-10 385.50 18Q418 46 418 96Q418 162 366 198.50Q314 235 226 235Q138 235 83 199Q28 163 28 104M76 99Q76 142 116 168.50Q156 195 226 195Q294 195 331.50 169Q369 143 369 98Q369 76 358.50 60.50Q348 45 333 36Q318 27 294.50 21Q271 15 253.50 13.50Q236 12 210 10L174 6Q76 35 76 99M102-274Q102-219 134-183.50Q166-148 221-148Q275-148 307-183Q339-218 339-273L339-314Q339-368 307-402.50Q275-437 220-437Q165-437 133.50-402.50Q102-368 102-314L102-274Z"/><path id="s34:dosis-light:87" d="M36-62Q36-70 41.50-77.50Q47-85 54-85Q60-86 70-78L93-62Q105-54 130-46Q155-38 186-38Q242-38 269-59.50Q296-81 296-115Q296-155 270.50-178Q245-201 208.50-211.50Q172-222 135-234Q98-246 72.50-273Q47-300 47-346Q47-398 85.50-438Q124-478 199-478Q246-478 286.50-463.50Q327-449 327-433Q327-425 320-416Q313-407 305-407Q304-407 270-420.50Q236-434 200-434Q146-434 119.50-407Q93-380 93-347Q93-313 118.50-294Q144-275 181-265Q218-255 255-242.50Q292-230 317.50-199.50Q343-169 343-118Q343-60 302-27Q261 6 187 6Q123 6 79.50-16.50Q36-39 36-62Z"/><path id="s34:dosis-light:81" d="M66-22L66-452Q66-472 90-472Q100-472 107-466.50Q114-461 114-452L114-402Q157-478 248-478Q297-478 335.50-451Q374-424 394-378Q419-427 460-452.50Q501-478 546-478Q614-478 663-428.50Q712-379 712-295L712-22Q712-14 704.50-7Q697 0 687 0Q677 0 670-7Q663-14 663-22L663-295Q663-359 625.50-395.50Q588-432 540-432Q490-432 451.50-395Q413-358 413-300L413-21Q413 0 388 0Q364 0 364-21L364-299Q364-355 328.50-393.50Q293-432 242-432Q192-432 153.50-394.50Q115-357 115-295L115-22Q115-14 107.50-7Q100 0 90 0Q80 0 73-6.50Q66-13 66-22Z"/><path id="s34:dosis-light:70" d="M66-22L66-745Q66-754 73-760Q80-766 90-766Q101-766 108-760Q115-754 115-745L115-402Q133-435 167.50-456.50Q202-478 248-478Q322-478 375-424.50Q428-371 428-295L428-179Q428-106 374.50-50Q321 6 250 6Q206 6 168.50-16Q131-38 114-70L114-22Q114-14 107-7Q100 0 90 0Q80 0 73-6.50Q66-13 66-22M115-145Q115-116 155-78Q195-40 246-40Q299-40 339-82.50Q379-125 379-179L379-295Q379-348 339-390Q299-432 245-432Q194-432 154.50-394Q115-356 115-295L115-145Z"/><path id="s34:dosis-light:74" d="M66-21L66-585Q66-658 119-712Q172-766 244-766L261-766Q271-766 277.50-759Q284-752 284-742Q284-732 277.50-726Q271-720 261-720L248-720Q192-720 154-680.50Q116-641 115-587L115-472L263-472Q272-472 278-465.50Q284-459 284-451Q284-442 278-435.50Q272-429 263-429L115-429L115-21Q115-12 107.50-6Q100 0 89 0Q66 0 66-21Z"/><path id="s34:dosis-light:88" d="M64-143L64-680Q64-689 71.50-695Q79-701 88-701Q98-701 105.50-695Q113-689 113-680L113-472L246-472Q254-472 259.50-465.50Q265-459 265-450Q265-442 259-435.50Q253-429 246-429L113-429L113-143Q113-90 136-68Q159-46 216-46L241-46Q251-46 257.50-39.50Q264-33 264-23Q264-14 257.50-7Q251 0 241 0L216 0Q64 0 64-143Z"/><path id="s34:dosis-light:77" d="M52-658Q52-672 63-682.50Q74-693 90-693Q105-693 116-682.50Q127-672 127-658Q127-643 116-632Q105-621 90-621Q74-621 63-632Q52-643 52-658M66-22L66-452Q66-472 90-472Q115-472 115-452L115-22Q115-14 107.50-7Q100 0 90 0Q80 0 73-6.50Q66-13 66-22Z"/><path id="s34:dosis-light:93" d="M17-455Q17-465 26-472Q35-479 46-479Q62-479 65-466L206-81L343-466Q350-479 362-479Q372-479 381-472Q390-465 390-455Q390-450 389-447L231-16L210 40Q204 56 188 93.50Q172 131 159 149.50Q146 168 127 191.50Q108 215 86.50 225Q65 235 41 235Q18 235 18 212Q18 189 36 189Q119 189 181-16L19-447Q17-453 17-455Z"/><path id="s34:dosis-light:18" d="M53.50-6Q53.50-6 47.75-12Q42-18 42-35Q42-52 53.50-64Q65-76 83-76Q99-76 111-63.50Q123-51 123-35Q123-19 111-6.50Q99 6 83 6Q65 6 53.50-6Z"/><path id="s34:dosis-light:92" d="M25-18Q25-23 29-29L165-239L30-443Q27-448 27-453Q27-463 35.50-470.50Q44-478 55-478Q67-478 72-470L197-278L323-469Q329-478 339-478Q349-478 358-470.50Q367-463 367-453Q367-448 364-443L228-238L365-29Q369-23 369-18Q369-9 360-1.50Q351 6 341 6Q330 6 324-2L197-198L71-2Q63 6 53 6Q43 6 34-1.50Q25-9 25-18Z"/><path id="s34:dosis-light:71" d="M49-179L49-293Q49-375 96.50-426.50Q144-478 237-478Q294-478 333-457.50Q372-437 372-417Q372-408 365-400.50Q358-393 349-393Q344-393 331.50-402.50Q319-412 295-422Q271-432 238-432Q171-432 134.50-395Q98-358 98-293L98-179Q98-113 134-76.50Q170-40 239-40Q274-40 299-50Q324-60 337-70Q350-80 356-80Q365-80 371.50-72.50Q378-65 378-56Q378-35 337.50-14.50Q297 6 237 6Q145 6 97-45Q49-96 49-179Z"/><path id="s34:dosis-light:42" d="M79-21L79-709Q79-731 103-731L458-731Q468-731 473.50-724Q479-717 479-708Q479-698 473-690.50Q467-683 458-683L129-683L129-389L288-389Q297-389 303-382Q309-375 309-365Q309-343 288-343L129-343L129-21Q129 0 104 0Q79 0 79-21Z"/><path id="s34:dosis-light:16" d="M42-35Q42-52 53.50-64Q65-76 82-76Q98-76 110.50-64.50Q123-53 123-34Q123-17 88 69Q83 80 71 80Q51 80 51 64Q51 59 52 55L71 4Q42-5 42-35Z"/></defs><g id="line-0"><use x="0" y="908.5" xlink:href="#s34:dosis-light:56" /><use x="468" y="908.5" xlink:href="#s34:dosis-light:76" /><use x="956" y="908.5" xlink:href="#s34:dosis-light:73" /><use x="1407" y="908.5" xlink:href="#s34:dosis-light:4" /><use x="1607" y="908.5" xlink:href="#s34:dosis-light:41" /><use x="2069" y="908.5" xlink:href="#s34:dosis-light:89" /><use x="2557" y="908.5" xlink:href="#s34:dosis-light:86" /><use x="2854" y="908.5" xlink:href="#s34:dosis-light:83" /><use x="3315" y="908.5" xlink:href="#s34:dosis-light:84" /><use x="3790" y="908.5" xlink:href="#s34:dosis-light:73" /><use x="4241" y="908.5" xlink:href="#s34:dosis-light:69" /><use x="4672" y="908.5" xlink:href="#s34:dosis-light:82" /><use x="5160" y="908.5" xlink:href="#s34:dosis-light:4" /><use x="5360" y="908.5" xlink:href="#s34:dosis-light:80" /><use x="5557" y="908.5" xlink:href="#s34:dosis-light:69" /><use x="5988" y="908.5" xlink:href="#s34:dosis-light:82" /><use x="6476" y="908.5" xlink:href="#s34:dosis-light:75" /><use x="6924" y="908.5" xlink:href="#s34:dosis-light:89" /><use x="7412" y="908.5" xlink:href="#s34:dosis-light:69" /><use x="7843" y="908.5" xlink:href="#s34:dosis-light:75" /><use x="8291" y="908.5" xlink:href="#s34:dosis-light:73" /><use x="8742" y="908.5" xlink:href="#s34:dosis-light:87" /><use x="9121" y="908.5" xlink:href="#s34:dosis-light:4" /><use x="9321" y="908.5" xlink:href="#s34:dosis-light:69" /><use x="9752" y="908.5" xlink:href="#s34:dosis-light:86" /><use x="10049" y="908.5" xlink:href="#s34:dosis-light:73" /><use x="10500" y="908.5" xlink:href="#s34:dosis-light:4" /><use x="10700" y="908.5" xlink:href="#s34:dosis-light:81" /><use x="11474" y="908.5" xlink:href="#s34:dosis-light:73" /><use x="11925" y="908.5" xlink:href="#s34:dosis-light:81" /><use x="12699" y="908.5" xlink:href="#s34:dosis-light:70" /><use x="13174" y="908.5" xlink:href="#s34:dosis-light:73" /><use x="13625" y="908.5" xlink:href="#s34:dosis-light:86" /><use x="13939" y="908.5" xlink:href="#s34:dosis-light:87" /><use x="14318" y="908.5" xlink:href="#s34:dosis-light:4" /><use x="14518" y="908.5" xlink:href="#s34:dosis-light:83" /><use x="14979" y="908.5" xlink:href="#s34:dosis-light:74" /><use x="15275" y="908.5" xlink:href="#s34:dosis-light:4" /><use x="15475" y="908.5" xlink:href="#s34:dosis-light:88" /><use x="15759" y="908.5" xlink:href="#s34:dosis-light:76" /><use x="16247" y="908.5" xlink:href="#s34:dosis-light:73" /><use x="16698" y="908.5" xlink:href="#s34:dosis-light:4" /><use x="16898" y="908.5" xlink:href="#s34:dosis-light:87" /><use x="17277" y="908.5" xlink:href="#s34:dosis-light:69" /><use x="17708" y="908.5" xlink:href="#s34:dosis-light:81" /><use x="18482" y="908.5" xlink:href="#s34:dosis-light:73" /><use x="18933" y="908.5" xlink:href="#s34:dosis-light:4" /><use x="19133" y="908.5" xlink:href="#s34:dosis-light:74" /><use x="19421" y="908.5" xlink:href="#s34:dosis-light:69" /><use x="19852" y="908.5" xlink:href="#s34:dosis-light:81" /><use x="20626" y="908.5" xlink:href="#s34:dosis-light:77" /><use x="20807" y="908.5" xlink:href="#s34:dosis-light:80" /><use x="21004" y="908.5" xlink:href="#s34:dosis-light:93" /><use x="21383" y="908.5" xlink:href="#s34:dosis-light:18" /></g><g id="line-1"><use x="4435.5" y="2108.5" xlink:href="#s34:dosis-light:56" /><use x="4903.5" y="2108.5" xlink:href="#s34:dosis-light:76" /><use x="5391.5" y="2108.5" xlink:href="#s34:dosis-light:73" /><use x="5842.5" y="2108.5" xlink:href="#s34:dosis-light:77" /><use x="6023.5" y="2108.5" xlink:href="#s34:dosis-light:86" /><use x="6342.5" y="2108.5" xlink:href="#s34:dosis-light:4" /><use x="6542.5" y="2108.5" xlink:href="#s34:dosis-light:87" /><use x="6921.5" y="2108.5" xlink:href="#s34:dosis-light:73" /><use x="7372.5" y="2108.5" xlink:href="#s34:dosis-light:84" /><use x="7847.5" y="2108.5" xlink:href="#s34:dosis-light:69" /><use x="8278.5" y="2108.5" xlink:href="#s34:dosis-light:86" /><use x="8586.5" y="2108.5" xlink:href="#s34:dosis-light:69" /><use x="9017.5" y="2108.5" xlink:href="#s34:dosis-light:88" /><use x="9291.5" y="2108.5" xlink:href="#s34:dosis-light:73" /><use x="9742.5" y="2108.5" xlink:href="#s34:dosis-light:4" /><use x="9942.5" y="2108.5" xlink:href="#s34:dosis-light:73" /><use x="10393.5" y="2108.5" xlink:href="#s34:dosis-light:92" /><use x="10787.5" y="2108.5" xlink:href="#s34:dosis-light:77" /><use x="10968.5" y="2108.5" xlink:href="#s34:dosis-light:87" /><use x="11347.5" y="2108.5" xlink:href="#s34:dosis-light:88" /><use x="11621.5" y="2108.5" xlink:href="#s34:dosis-light:73" /><use x="12072.5" y="2108.5" xlink:href="#s34:dosis-light:82" /><use x="12560.5" y="2108.5" xlink:href="#s34:dosis-light:71" /><use x="12960.5" y="2108.5" xlink:href="#s34:dosis-light:73" /><use x="13411.5" y="2108.5" xlink:href="#s34:dosis-light:4" /><use x="13611.5" y="2108.5" xlink:href="#s34:dosis-light:77" /><use x="13792.5" y="2108.5" xlink:href="#s34:dosis-light:87" /><use x="14171.5" y="2108.5" xlink:href="#s34:dosis-light:4" /><use x="14371.5" y="2108.5" xlink:href="#s34:dosis-light:69" /><use x="14802.5" y="2108.5" xlink:href="#s34:dosis-light:4" /><use x="15002.5" y="2108.5" xlink:href="#s34:dosis-light:81" /><use x="15767.5" y="2108.5" xlink:href="#s34:dosis-light:93" /><use x="16175.5" y="2108.5" xlink:href="#s34:dosis-light:88" /><use x="16459.5" y="2108.5" xlink:href="#s34:dosis-light:76" /><use x="16947.5" y="2108.5" xlink:href="#s34:dosis-light:18" /></g><g id="line-2"><use x="5450" y="3308.5" xlink:href="#s34:dosis-light:42" /><use x="5822" y="3308.5" xlink:href="#s34:dosis-light:83" /><use x="6283" y="3308.5" xlink:href="#s34:dosis-light:86" /><use x="6602" y="3308.5" xlink:href="#s34:dosis-light:4" /><use x="6802" y="3308.5" xlink:href="#s34:dosis-light:87" /><use x="7181" y="3308.5" xlink:href="#s34:dosis-light:71" /><use x="7587" y="3308.5" xlink:href="#s34:dosis-light:77" /><use x="7768" y="3308.5" xlink:href="#s34:dosis-light:73" /><use x="8219" y="3308.5" xlink:href="#s34:dosis-light:82" /><use x="8707" y="3308.5" xlink:href="#s34:dosis-light:71" /><use x="9107" y="3308.5" xlink:href="#s34:dosis-light:73" /><use x="9558" y="3308.5" xlink:href="#s34:dosis-light:16" /><use x="9724" y="3308.5" xlink:href="#s34:dosis-light:4" /><use x="9924" y="3308.5" xlink:href="#s34:dosis-light:81" /><use x="10698" y="3308.5" xlink:href="#s34:dosis-light:89" /><use x="11186" y="3308.5" xlink:href="#s34:dosis-light:87" /><use x="11565" y="3308.5" xlink:href="#s34:dosis-light:77" /><use x="11746" y="3308.5" xlink:href="#s34:dosis-light:71" /><use x="12152" y="3308.5" xlink:href="#s34:dosis-light:16" /><use x="12318" y="3308.5" xlink:href="#s34:dosis-light:4" /><use x="12518" y="3308.5" xlink:href="#s34:dosis-light:87" /><use x="12897" y="3308.5" xlink:href="#s34:dosis-light:84" /><use x="13372" y="3308.5" xlink:href="#s34:dosis-light:83" /><use x="13833" y="3308.5" xlink:href="#s34:dosis-light:86" /><use x="14152" y="3308.5" xlink:href="#s34:dosis-light:88" /><use x="14436" y="3308.5" xlink:href="#s34:dosis-light:16" /><use x="14602" y="3308.5" xlink:href="#s34:dosis-light:4" /><use x="14802" y="3308.5" xlink:href="#s34:dosis-light:73" /><use x="15253" y="3308.5" xlink:href="#s34:dosis-light:88" /><use x="15527" y="3308.5" xlink:href="#s34:dosis-light:71" /><use x="15933" y="3308.5" xlink:href="#s34:dosis-light:16" /></g></svg>