<svg xmlns="http://www.w3.org/2000/svg" xmlns:xlink="http://www.w3.org/1999/xlink" width="548" height="85" viewBox="0 0 22849 3545.5"><defs><path id="s37:dosis-semibold:56" d="M14-683Q14-702 23-716.50Q32-731 49-731L464-731Q481-731 490-717Q499-703 499-684Q499-663 489.50-648.50Q480-634 464-634L310-634L310-35Q310-19 294-9.50Q278 0 257 0Q235 0 219.50-9.50Q204-19 204-35L204-634L49-634Q33-634 23.50-648.50Q14-663 14-683Z"/><path id="s37:dosis-semibold:76" d="M56-35L56-722Q56-737 70.50-746.50Q85-756 108-756Q130-756 145.50-746.50Q161-737 161-722L161-404Q177-436 210.50-458Q244-480 289-480Q360-480 411.50-422Q463-364 463-283L463-35Q463-19 447-9.50Q431 0 410 0Q390 0 374-9.50Q358-19 358-35L358-283Q358-323 328-355Q298-387 257-387Q219-387 190-358.50Q161-330 161-283L161-35Q161-22 145-11Q129 0 108 0Q86 0 71-11Q56-22 56-35Z"/><path id="s37:dosis-semibold:73" d="M37-191L37-286Q37-365 98-422.50Q159-480 245-480Q327-480 385.50-427.50Q444-375 444-295Q444-265 437-246.50Q430-228 415-220.50Q400-213 387-211Q374-209 353-209L142-209L142-186Q142-136 178-106.50Q214-77 272-77Q313-77 349.50-96Q386-115 394-115Q411-115 423-99Q435-83 435-68Q435-43 387-17.50Q339 8 269 8Q167 8 102-47Q37-102 37-191M142-274L308-274Q330-274 337.50-280Q345-286 345-304Q345-344 316-372Q287-400 244-400Q202-400 172-373.50Q142-347 142-306L142-274Z"/><path id="s37:dosis-semibold:4" d=""/><path id="s37:dosis-semibold:41" d="M66-35L66-696Q66-712 80-721.50Q94-731 113-731L469-731Q486-731 495-717Q504-703 504-685Q504-665 494.50-651Q485-637 469-637L172-637L172-408L326-408Q342-408 351.50-395.50Q361-383 361-365Q361-349 352-336.50Q343-324 326-324L172-324L172-94L469-94Q485-94 494.50-80Q504-66 504-46Q504-28 495-14Q486 0 469 0L113 0Q94 0 80-9.50Q66-19 66-35Z"/><path id="s37:dosis-semibold:89" d="M51-189L51-439Q51-453 67-463.50Q83-474 104-474Q125-474 140.50-463.50Q156-453 156-439L156-189Q156-149 186.50-117Q217-85 258-85Q300-85 330-116.50Q360-148 360-189L360-440Q360-454 375.50-464Q391-474 413-474Q435-474 449.50-464Q464-454 464-440L464-189Q464-110 403-51Q342 8 258 8Q174 8 112.50-51Q51-110 51-189Z"/><path id="s37:dosis-semibold:86" d="M55-35L55-440Q55-455 69.50-464.50Q84-474 106-474Q126-474 140-464.50Q154-455 154-440L154-396Q171-431 205.50-455.50Q240-480 281-480L313-480Q329-480 341-466.50Q353-453 353-434Q353-415 341-401Q329-387 313-387L281-387Q233-387 196.50-346Q160-305 160-240L160-35Q160-22 144-11Q128 0 106 0Q84 0 69.50-11Q55-22 55-35Z"/><path id="s37:dosis-semibold:83" d="M36-191L36-283Q36-362 97-421Q158-480 243-480Q326-480 388-421.50Q450-363 450-283L450-191Q450-113 387.50-52.50Q325 8 243 8Q160 8 98-52Q36-112 36-191M141-191Q141-150 171-117.50Q201-85 243-85Q284-85 314.50-117.50Q345-150 345-191L345-283Q345-323 314.50-355Q284-387 243-387Q201-387 171-355Q141-323 141-283L141-191Z"/><path id="s37:dosis-semibold:84" d="M56 190L56-440Q56-455 70.50-464.50Q85-474 106-474Q127-474 141-464.50Q155-455 155-440L155-404Q173-436 208.50-458Q244-480 289-480Q364-480 416.50-422Q469-364 469-283L469-191Q469-113 416-52.50Q363 8 293 8Q250 8 213.50-15Q177-38 161-70L161 190Q161 204 145 214.50Q129 225 107 225Q85 225 70.50 214.50Q56 204 56 190M161-168Q161-146 191.50-115.50Q222-85 262-85Q302-85 333-117.50Q364-150 364-191L364-283Q364-323 333-355Q302-387 260-387Q221-387 191-358.50Q161-330 161-283L161-168Z"/><path id="s37:dosis-semibold:69" d="M25-124Q25-204 85-235.50Q145-267 259-267L303-267L303-285Q303-329 278.50-361Q254-393 204-393Q161-393 128.50-378Q96-363 93-363Q76-363 65.50-379.50Q55-396 55-416Q55-442 103.50-461Q152-480 206-480Q309-480 358.50-424.50Q408-369 408-286L408-35Q408-21 393.50-10.50Q379 0 357 0Q337 0 323-10.50Q309-21 309-35L309-70Q242 8 158 8Q100 8 62.50-26Q25-60 25-124M131-137Q131-105 149-88.50Q167-72 196-72Q234-72 268.50-104Q303-136 303-172L303-209L278-209Q233-209 204.50-205Q176-201 153.50-184Q131-167 131-137Z"/><path id="s37:dosis-semibold:82" d="M55-35L55-440Q55-455 69.50-464.50Q84-474 107-474Q127-474 140.50-464.50Q154-455 154-440L154-404Q170-436 205.50-458Q241-480 288-480Q359-480 410.50-422Q462-364 462-283L462-35Q462-19 446.50-9.50Q431 0 409 0Q389 0 373-9.50Q357-19 357-35L357-283Q357-323 327-355Q297-387 256-387Q218-387 189-358.50Q160-330 160-283L160-35Q160-22 144-11Q128 0 107 0Q85 0 70-11Q55-22 55-35Z"/><path id="s37:dosis-semibold:80" d="M64-35L64-722Q64-737 78.50-746.50Q93-756 116-756Q138-756 153.50-746.50Q169-737 169-722L169-35Q169-22 153-11Q137 0 116 0Q94 0 79-11Q64-22 64-35Z"/><path id="s37:dosis-semibold:75" d="M19 87Q19 17 96-20Q49-40 49-86Q49-130 99-162Q40-208 40-288L40-316Q40-388 91.50-434Q143-480 226-480Q296-480 342-446Q371-513 407-513Q426-513 438-501.50Q450-490 450-477Q450-461 433-452Q401-438 383-412Q415-372 415-316L415-288Q415-216 362-169Q309-122 226-122Q187-122 157-134Q138-121 138-106Q138-86 169.50-77Q201-68 245.50-63Q290-58 334.50-48.50Q379-39 410.50-8Q442 23 442 74Q442 149 382.50 187Q323 225 232 225Q141 225 80 187.50Q19 150 19 87M118 76Q118 112 149.50 133.50Q181 155 231 155Q280 155 310 134Q340 113 340 77Q340 54 326 38.50Q312 23 284.50 15.50Q257 8 237.50 5.50Q218 3 185 1Q118 26 118 76M142-289Q142-245 165-217Q188-189 228-189Q267-189 290-216.50Q313-244 313-288L313-316Q313-358 290-385.50Q267-413 227-413Q188-413 165-385.50Q142-358 142-316L142-289Z"/><path id="s37:dosis-semibold:87" d="M27-72Q27-87 37.50-103Q48-119 63-119Q72-119 88-107.50Q104-96 131-84.50Q158-73 196-73Q281-73 281-127Q281-156 256-172.50Q231-189 195.50-198.50Q160-208 125-220Q90-232 65-261Q40-290 40-336Q40-395 82-437.50Q124-480 211-480Q268-480 314.50-462.50Q361-445 361-421Q361-407 349.50-388.50Q338-370 321-370Q315-370 280-384.50Q245-399 213-399Q173-399 152.50-381Q132-363 132-341Q132-317 157-303Q182-289 218-280Q254-271 289.50-258Q325-245 350-213Q375-181 375-131Q375-66 329-29Q283 8 199 8Q128 8 77.50-17Q27-42 27-72Z"/><path id="s37:dosis-semibold:81" d="M55-35L55-440Q55-455 69.50-464.50Q84-474 107-474Q126-474 140-464.50Q154-455 154-440L154-404Q197-480 287-480Q331-480 365.50-452.50Q400-425 418-380Q443-429 483.50-454.50Q524-480 569-480Q640-480 691.50-426.50Q743-373 743-283L743-35Q743-22 727-11Q711 0 690 0Q670 0 654-11Q638-22 638-35L638-283Q638-332 610-360Q582-388 545-388Q508-388 479.50-360Q451-332 451-285L451-34Q451-17 435.50-8.50Q420 0 398 0Q378 0 362-8.50Q346-17 346-34L346-284Q346-329 318.50-358Q291-387 253-387Q215-387 187.50-359Q160-331 160-283L160-35Q160-22 144-11Q128 0 107 0Q85 0 70-11Q55-22 55-35Z"/><path id="s37:dosis-semibold:70" d="M56-35L56-722Q56-737 70-746.50Q84-756 107-756Q130-756 145.50-746.50Q161-737 161-722L161-404Q178-436 212-458Q246-480 290-480Q364-480 416.50-422Q469-364 469-283L469-191Q469-113 416-52.50Q363 8 293 8Q248 8 210-15Q172-38 155-70L155-35Q155-22 140.50-11Q126 0 107 0Q85 0 70.50-11Q56-22 56-35M161-168Q161-146 192.50-115.50Q224-85 263-85Q304-85 334-117.50Q364-150 364-191L364-283Q364-323 333.50-355Q303-387 262-387Q223-387 192-358Q161-329 161-283L161-168Z"/><path id="s37:dosis-semibold:74" d="M56-34L56-565Q56-645 108-700.50Q160-756 233-756L279-756Q298-756 309-742.50Q320-729 320-711Q320-693 309-679.50Q298-666 279-666L253-666Q213-666 187-640Q161-614 161-575L161-474L291-474Q304-474 312-462.50Q320-451 320-435Q320-419 312-407.50Q304-396 291-396L161-396L161-34Q161-19 145-9.50Q129 0 107 0Q85 0 70.50-9.50Q56-19 56-34Z"/><path id="s37:dosis-semibold:88" d="M54-156L54-657Q54-671 70-681Q86-691 106-691Q126-691 142.50-681Q159-671 159-657L159-474L281-474Q294-474 302-462.50Q310-451 310-435Q310-419 302-407.50Q294-396 281-396L159-396L159-156Q159-120 174.50-105Q190-90 229-90L264-90Q285-90 297-77Q309-64 309-45Q309-26 297-13Q285 0 264 0L229 0Q54 0 54-156Z"/><path id="s37:dosis-semibold:77" d="M46-648Q46-671 64-687Q82-703 107-703Q132-703 150-687Q168-671 168-648Q168-626 150-609.50Q132-593 107-593Q82-593 64-609.50Q46-626 46-648M55-35L55-440Q55-455 69.50-464.50Q84-474 107-474Q130-474 145-464.50Q160-455 160-440L160-35Q160-22 144.50-11Q129 0 107 0Q85 0 70-11Q55-22 55-35Z"/><path id="s37:dosis-semibold:93" d="M59 225Q10 225 10 180Q10 135 39 135Q84 135 128 92Q172 49 182-29L14-417Q10-422 10-431Q10-450 33-465.50Q56-481 79-481Q104-481 111-462L237-137L345-462Q354-481 375-481Q396-481 420.50-465.50Q445-450 445-429Q445-420 443-417L295-26L278 19Q272 33 259.50 62Q247 91 238 106L214 143Q199 166 184 177.50Q169 189 150 201.50Q131 214 108 219.50Q85 225 59 225Z"/><path id="s37:dosis-semibold:18" d="M50-11.50Q50-11.50 41.50-20.25Q33-29 33-54Q33-79 50-96.50Q67-114 93-114Q117-114 134.50-96.50Q152-79 152-54Q152-30 134.50-12Q117 6 93 6Q67 6 50-11.50Z"/><path id="s37:dosis-semibold:92" d="M20-44Q20-54 27-63L151-241L33-409Q26-418 26-427Q26-445 49.50-462.50Q73-480 95-480Q113-480 120-468L222-308L324-467Q332-480 350-480Q370-480 394-462.50Q418-445 418-427Q418-419 411-409L292-240L417-63Q424-54 424-44Q424-27 401-9.50Q378 8 357 8Q338 8 330-4L222-169L114-4Q105 8 86 8Q67 8 43.50-9Q20-26 20-44Z"/><path id="s37:dosis-semibold:71" d="M39-191L39-281Q39-370 91-425Q143-480 246-480Q311-480 355-457.50Q399-435 399-407Q399-390 386.50-373Q374-356 357-356Q352-356 321.50-371.50Q291-387 254-387Q144-387 144-281L144-191Q144-85 255-85Q293-85 323.50-101.50Q354-118 360-118Q380-118 392.50-102Q405-86 405-68Q405-40 359-16Q313 8 247 8Q143 8 91-46.50Q39-101 39-191Z"/><path id="s37:dosis-semibold:42" d="M66-35L66-696Q66-712 80-721.50Q94-731 113-731L464-731Q481-731 489.50-717.50Q498-704 498-685Q498-665 489-651Q480-637 464-637L172-637L172-408L327-408Q343-408 352-395.50Q361-383 361-365Q361-349 352.50-336.50Q344-324 327-324L172-324L172-35Q172-18 156.50-9Q141 0 119 0Q98 0 82-9Q66-18 66-35Z"/><path id="s37:dosis-semibold:16" d="M33-54Q33-79 50-96.50Q67-114 92-114Q116-114 134-96.50Q152-79 152-54Q152-38 103 79Q96 94 79 94Q66 94 54.50 86.50Q43 79 43 66Q43 58 46 53L68 0Q33-15 33-54Z"/></defs><g id="line-0"><use x="0" y="908.5" xlink:href="#s37:dosis-semibold:56"/><use x="513" y="908.5" xlink:href="#s37:dosis-semibold:76"/><use x="1027" y="908.5" xlink:href="#s37:dosis-semibold:73"/><use x="1501" y="908.5" xlink:href="#s37:dosis-semibold:4"/><use x="1701" y="908.5" xlink:href="#s37:dosis-semibold:41"/><use x="2195" y="908.5" xlink:href="#s37:dosis-semibold:89"/><use x="2710" y="908.5" xlink:href="#s37:dosis-semibold:86"/><use x="3058" y="908.5" xlink:href="#s37:dosis-semibold:83"/><use x="3545" y="908.5" xlink:href="#s37:dosis-semibold:84"/><use x="4051" y="908.5" xlink:href="#s37:dosis-semibold:73"/><use x="4525" y="908.5" xlink:href="#s37:dosis-semibold:69"/><use x="4985" y="908.5" xlink:href="#s37:dosis-semibold:82"/><use x="5498" y="908.5" xlink:href="#s37:dosis-semibold:4"/><use x="5698" y="908.5" xlink:href="#s37:dosis-semibold:80"/><use x="5931" y="908.5" xlink:href="#s37:dosis-semibold:69"/><use x="6391" y="908.5" xlink:href="#s37:dosis-semibold:82"/><use x="6904" y="908.5" xlink:href="#s37:dosis-semibold:75"/><use x="7367" y="908.5" xlink:href="#s37:dosis-semibold:89"/><use x="7882" y="908.5" xlink:href="#s37:dosis-semibold:69"/><use x="8342" y="908.5" xlink:href="#s37:dosis-semibold:75"/><use x="8805" y="908.5" xlink:href="#s37:dosis-semibold:73"/><use x="9279" y="908.5" xlink:href="#s37:dosis-semibold:87"/><use x="9683" y="908.5" xlink:href="#s37:dosis-semibold:4"/><use x="9883" y="908.5" xlink:href="#s37:dosis-semibold:69"/><use x="10343" y="908.5" xlink:href="#s37:dosis-semibold:86"/><use x="10691" y="908.5" xlink:href="#s37:dosis-semibold:73"/><use x="11165" y="908.5" xlink:href="#s37:dosis-semibold:4"/><use x="11365" y="908.5" xlink:href="#s37:dosis-semibold:81"/><use x="12159" y="908.5" xlink:href="#s37:dosis-semibold:73"/><use x="12633" y="908.5" xlink:href="#s37:dosis-semibold:81"/><use x="13427" y="908.5" xlink:href="#s37:dosis-semibold:70"/><use x="13933" y="908.5" xlink:href="#s37:dosis-semibold:73"/><use x="14407" y="908.5" xlink:href="#s37:dosis-semibold:86"/><use x="14767" y="908.5" xlink:href="#s37:dosis-semibold:87"/><use x="15171" y="908.5" xlink:href="#s37:dosis-semibold:4"/><use x="15371" y="908.5" xlink:href="#s37:dosis-semibold:83"/><use x="15858" y="908.5" xlink:href="#s37:dosis-semibold:74"/><use x="16186" y="908.5" xlink:href="#s37:dosis-semibold:4"/><use x="16386" y="908.5" xlink:href="#s37:dosis-semibold:88"/><use x="16715" y="908.5" xlink:href="#s37:dosis-semibold:76"/><use x="17229" y="908.5" xlink:href="#s37:dosis-semibold:73"/><use x="17703" y="908.5" xlink:href="#s37:dosis-semibold:4"/><use x="17903" y="908.5" xlink:href="#s37:dosis-semibold:87"/><use x="18307" y="908.5" xlink:href="#s37:dosis-semibold:69"/><use x="18767" y="908.5" xlink:href="#s37:dosis-semibold:81"/><use x="19561" y="908.5" xlink:href="#s37:dosis-semibold:73"/><use x="20035" y="908.5" xlink:href="#s37:dosis-semibold:4"/><use x="20235" y="908.5" xlink:href="#s37:dosis-semibold:74"/><use x="20563" y="908.5" xlink:href="#s37:dosis-semibold:69"/><use x="21023" y="908.5" xlink:href="#s37:dosis-semibold:81"/><use x="21817" y="908.5" xlink:href="#s37:dosis-semibold:77"/><use x="22032" y="908.5" xlink:href="#s37:dosis-semibold:80"/><use x="22265" y="908.5" xlink:href="#s37:dosis-semibold:93"/><use x="22697" y="908.5" xlink:href="#s37:dosis-semibold:18"/></g><g id="line-1"><use x="4628" y="2108.5" xlink:href="#s37:dosis-semibold:56"/><use x="5141" y="2108.5" xlink:href="#s37:dosis-semibold:76"/><use x="5655" y="2108.5" xlink:href="#s37:dosis-semibold:73"/><use x="6129" y="2108.5" xlink:href="#s37:dosis-semibold:77"/><use x="6344" y="2108.5" xlink:href="#s37:dosis-semibold:86"/><use x="6704" y="2108.5" xlink:href="#s37:dosis-semibold:4"/><use x="6904" y="2108.5" xlink:href="#s37:dosis-semibold:87"/><use x="7308" y="2108.5" xlink:href="#s37:dosis-semibold:73"/><use x="7782" y="2108.5" xlink:href="#s37:dosis-semibold:84"/><use x="8288" y="2108.5" xlink:href="#s37:dosis-semibold:69"/><use x="8748" y="2108.5" xlink:href="#s37:dosis-semibold:86"/><use x="9108" y="2108.5" xlink:href="#s37:dosis-semibold:69"/><use x="9568" y="2108.5" xlink:href="#s37:dosis-semibold:88"/><use x="9890" y="2108.5" xlink:href="#s37:dosis-semibold:73"/><use x="10364" y="2108.5" xlink:href="#s37:dosis-semibold:4"/><use x="10564" y="2108.5" xlink:href="#s37:dosis-semibold:73"/><use x="11038" y="2108.5" xlink:href="#s37:dosis-semibold:92"/><use x="11482" y="2108.5" xlink:href="#s37:dosis-semibold:77"/><use x="11697" y="2108.5" xlink:href="#s37:dosis-semibold:87"/><use x="12101" y="2108.5" xlink:href="#s37:dosis-semibold:88"/><use x="12423" y="2108.5" xlink:href="#s37:dosis-semibold:73"/><use x="12897" y="2108.5" xlink:href="#s37:dosis-semibold:82"/><use x="13410" y="2108.5" xlink:href="#s37:dosis-semibold:71"/><use x="13831" y="2108.5" xlink:href="#s37:dosis-semibold:73"/><use x="14305" y="2108.5" xlink:href="#s37:dosis-semibold:4"/><use x="14505" y="2108.5" xlink:href="#s37:dosis-semibold:77"/><use x="14720" y="2108.5" xlink:href="#s37:dosis-semibold:87"/><use x="15124" y="2108.5" xlink:href="#s37:dosis-semibold:4"/><use x="15324" y="2108.5" xlink:href="#s37:dosis-semibold:69"/><use x="15784" y="2108.5" xlink:href="#s37:dosis-semibold:4"/><use x="15984" y="2108.5" xlink:href="#s37:dosis-semibold:81"/><use x="16769" y="2108.5" xlink:href="#s37:dosis-semibold:93"/><use x="17226" y="2108.5" xlink:href="#s37:dosis-semibold:88"/><use x="17555" y="2108.5" xlink:href="#s37:dosis-semibold:76"/><use x="18069" y="2108.5" xlink:href="#s37:dosis-semibold:18"/></g><g id="line-2"><use x="5752" y="3308.5" xlink:href="#s37:dosis-semibold:42"/><use x="6154" y="3308.5" xlink:href="#s37:dosis-semibold:83"/><use x="6641" y="3308.5" xlink:href="#s37:dosis-semibold:86"/><use x="7001" y="3308.5" xlink:href="#s37:dosis-semibold:4"/><use x="7201" y="3308.5" xlink:href="#s37:dosis-semibold:87"/><use x="7605" y="3308.5" xlink:href="#s37:dosis-semibold:71"/><use x="8031" y="3308.5" xlink:href="#s37:dosis-semibold:77"/><use x="8246" y="3308.5" xlink:href="#s37:dosis-semibold:73"/><use x="8720" y="3308.5" xlink:href="#s37:dosis-semibold:82"/><use x="9233" y="3308.5" xlink:href="#s37:dosis-semibold:71"/><use x="9654" y="3308.5" xlink:href="#s37:dosis-semibold:73"/><use x="10128" y="3308.5" xlink:href="#s37:dosis-semibold:16"/><use x="10313" y="3308.5" xlink:href="#s37:dosis-semibold:4"/><use x="10513" y="3308.5" xlink:href="#s37:dosis-semibold:81"/><use x="11307" y="3308.5" xlink:href="#s37:dosis-semibold:89"/><use x="11822" y="3308.5" xlink:href="#s37:dosis-semibold:87"/><use x="12226" y="3308.5" xlink:href="#s37:dosis-semibold:77"/><use x="12441" y="3308.5" xlink:href="#s37:dosis-semibold:71"/><use x="12867" y="3308.5" xlink:href="#s37:dosis-semibold:16"/><use x="13052" y="3308.5" xlink:href="#s37:dosis-semibold:4"/><use x="13252" y="3308.5" xlink:href="#s37:dosis-semibold:87"/><use x="13656" y="3308.5" xlink:href="#s37:dosis-semibold:84"/><use x="14162" y="3308.5" xlink:href="#s37:dosis-semibold:83"/><use x="14649" y="3308.5" xlink:href="#s37:dosis-semibold:86"/><use x="15009" y="3308.5" xlink:href="#s37:dosis-semibold:88"/><use x="15338" y="3308.5" xlink:href="#s37:dosis-semibold:16"/><use x="15523" y="3308.5" xlink:href="#s37:dosis-semibold:4"/><use x="15723" y="3308.5" xlink:href="#s37:dosis-semibold:73"/><use x="16197" y="3308.5" xlink:href="#s37:dosis-semibold:88"/><use x="16519" y="3308.5" xlink:href="#s37:dosis-semibold:71"/><use x="16945" y="3308.5" xlink:href="#s37:dosis-semibold:16"/></g></svg>