<svg xmlns="http://www.w3.org/2000/svg" xmlns:xlink="http://www.w3.org/1999/xlink" width="525" height="85" viewBox="0 0 21892 3545.5" ><defs><path id="s36:dosis-regular:56" d="M15-700Q15-712 21.50-721.50Q28-731 40-731L441-731Q453-731 459.50-722Q466-713 466-701Q466-688 459.50-678.50Q453-669 441-669L274-669L274-26Q274-14 264-7Q254 0 241 0Q227 0 217.50-7Q208-14 208-26L208-669L40-669Q29-669 22-678Q15-687 15-700Z"/><path id="s36:dosis-regular:76" d="M63-26L63-739Q63-749 72-756Q81-763 95-763Q109-763 118.50-756Q128-749 128-739L128-403Q145-435 179.50-457Q214-479 260-479Q332-479 384.50-424Q437-369 437-292L437-26Q437-14 427.50-7Q418 0 404 0Q392 0 382-7Q372-14 372-26L372-292Q372-341 335-380Q298-419 248-419Q201-419 164.50-384Q128-349 128-292L128-26Q128-16 118-8Q108 0 95 0Q82 0 72.50-8Q63-16 63-26Z"/><path id="s36:dosis-regular:73" d="M45-183L45-295Q45-370 101-424.50Q157-479 236-479Q312-479 367.50-427Q423-375 423-297Q423-269 416.50-252Q410-235 395.50-228Q381-221 369-219Q357-217 336-217L110-217L110-180Q110-121 152.50-85.50Q195-50 262-50Q296-50 321.50-60Q347-70 360.50-80Q374-90 382-90Q393-90 401.50-79.50Q410-69 410-59Q410-38 367-15.50Q324 7 260 7Q165 7 105-45.50Q45-98 45-183M110-265L310-265Q340-265 350-271.50Q360-278 360-299Q360-349 324.50-387Q289-425 235-425Q183-425 146.50-389Q110-353 110-303L110-265Z"/><path id="s36:dosis-regular:4" d=""/><path id="s36:dosis-regular:41" d="M76-26L76-706Q76-718 85-724.50Q94-731 106-731L462-731Q487-731 487-702Q487-689 480.50-679.50Q474-670 462-670L142-670L142-395L299-395Q311-395 317.50-386.50Q324-378 324-365Q324-338 299-338L142-338L142-61L462-61Q473-61 480-52Q487-43 487-30Q487 0 462 0L106 0Q94 0 85-7Q76-14 76-26Z"/><path id="s36:dosis-regular:89" d="M58-181L58-448Q58-457 67.50-465Q77-473 91-473Q103-473 113-465Q123-457 123-448L123-181Q123-131 160-92Q197-53 248-53Q299-53 336-92Q373-131 373-181L373-449Q373-459 383-466Q393-473 406-473Q419-473 428.50-466Q438-459 438-449L438-181Q438-106 381.50-49.50Q325 7 248 7Q170 7 114-49.50Q58-106 58-181Z"/><path id="s36:dosis-regular:86" d="M63-26L63-449Q63-459 72-466Q81-473 95-473Q108-473 117-466Q126-459 126-449L126-400Q144-433 179-456Q214-479 260-479L295-479Q305-479 313-470Q321-461 321-449Q321-437 313-428Q305-419 295-419L260-419Q208-419 168-378.50Q128-338 128-273L128-26Q128-16 118.50-8Q109 0 95 0Q82 0 72.50-8Q63-16 63-26Z"/><path id="s36:dosis-regular:83" d="M44-183L44-292Q44-368 100-423.50Q156-479 233-479Q310-479 367-424Q424-369 424-292L424-183Q424-108 366.50-50.50Q309 7 233 7Q158 7 101-50.50Q44-108 44-183M109-183Q109-132 145.50-92.50Q182-53 233-53Q285-53 322-92.50Q359-132 359-183L359-292Q359-341 321.50-380Q284-419 233-419Q182-419 145.50-380Q109-341 109-292L109-183Z"/><path id="s36:dosis-regular:84" d="M63 207L63-449Q63-459 72-466Q81-473 95-473Q108-473 117-466Q126-459 126-449L126-403Q144-435 179-457Q214-479 260-479Q334-479 387-424Q440-369 440-292L440-183Q440-108 386.50-50.50Q333 7 263 7Q219 7 182-15.50Q145-38 128-70L128 207Q128 216 118.50 224Q109 232 95 232Q82 232 72.50 224Q63 216 63 207M128-152Q128-125 165.50-89Q203-53 251-53Q300-53 337.50-93Q375-133 375-183L375-292Q375-341 337.50-380Q300-419 249-419Q201-419 164.50-384Q128-349 128-292L128-152Z"/><path id="s36:dosis-regular:69" d="M30-125Q30-202 89.50-232Q149-262 263-262L314-262L314-286Q314-341 285-381.50Q256-422 196-422Q156-422 123.50-407.50Q91-393 89-393Q77-393 70-404Q63-415 63-428Q63-447 106-463Q149-479 198-479Q292-479 335.50-424.50Q379-370 379-286L379-26Q379-15 370-7.50Q361 0 347 0Q334 0 325.50-7.50Q317-15 317-26L317-70Q250 7 166 7Q106 7 68-26.50Q30-60 30-125M95-131Q95-89 119-68.50Q143-48 182-48Q229-48 271.50-83Q314-118 314-153L314-217L272-217Q232-217 204.50-214Q177-211 150-203Q123-195 109-177Q95-159 95-131Z"/><path id="s36:dosis-regular:82" d="M63-26L63-449Q63-460 72-466.50Q81-473 95-473Q107-473 116-466Q125-459 125-449L125-403Q142-435 177-457Q212-479 259-479Q331-479 384-424Q437-369 437-292L437-26Q437-14 427-7Q417 0 404 0Q392 0 382-7Q372-14 372-26L372-292Q372-341 335-380Q298-419 247-419Q200-419 164-384Q128-349 128-292L128-26Q128-16 118-8Q108 0 95 0Q81 0 72-8Q63-16 63-26Z"/><path id="s36:dosis-regular:80" d="M71-26L71-739Q71-749 80-756Q89-763 103-763Q117-763 126.50-756Q136-749 136-739L136-26Q136-16 126.50-8Q117 0 103 0Q90 0 80.50-8Q71-16 71-26Z"/><path id="s36:dosis-regular:75" d="M25 99Q25 24 110-10Q55-29 55-79Q55-124 105-151Q50-197 50-277L50-315Q50-388 97.50-433.50Q145-479 222-479Q292-479 339-437Q354-466 373-483Q392-500 410-500Q424-500 432-492Q440-484 440-474Q440-456 423-452Q388-445 367-409Q395-372 395-315L395-277Q395-205 346-158Q297-111 221-111Q180-111 144-128Q113-111 113-89Q113-68 136-57Q159-46 193.50-43Q228-40 268.50-33.50Q309-27 343.50-17Q378-7 401 20Q424 47 424 90Q424 158 370 195Q316 232 228 232Q138 232 81.50 196Q25 160 25 99M88 93Q88 134 125.50 159Q163 184 227 184Q290 184 325.50 159Q361 134 361 92Q361 72 351 57Q341 42 327.50 34Q314 26 292 20Q270 14 253.50 12Q237 10 212 8L177 4Q88 32 88 93M113-278Q113-226 142.50-193Q172-160 223-160Q272-160 301.50-193Q331-226 331-277L331-315Q331-365 301.50-397.50Q272-430 222-430Q172-430 142.50-397.50Q113-365 113-315L113-278Z"/><path id="s36:dosis-regular:87" d="M33-65Q33-75 40-85Q47-95 56-95Q63-95 78-83.50Q93-72 121-60Q149-48 188-48Q241-48 266-68Q291-88 291-119Q291-155 265.50-176.50Q240-198 204-208Q168-218 131.50-230Q95-242 69.50-269.50Q44-297 44-343Q44-398 83.50-438.50Q123-479 202-479Q251-479 293.50-463.50Q336-448 336-430Q336-420 328-408Q320-396 309-396Q306-396 272-410Q238-424 203-424Q153-424 128-400Q103-376 103-346Q103-315 128.50-297Q154-279 190.50-269.50Q227-260 263.50-247.50Q300-235 325.50-203.50Q351-172 351-122Q351-62 308.50-27.50Q266 7 190 7Q124 7 78.50-16.50Q33-40 33-65Z"/><path id="s36:dosis-regular:81" d="M63-26L63-449Q63-459 72-466Q81-473 95-473Q108-473 117-466Q126-459 126-449L126-403Q144-436 178.50-457.50Q213-479 259-479Q307-479 345-451.50Q383-424 401-379Q426-428 467-453.50Q508-479 553-479Q621-479 671-428Q721-377 721-292L721-26Q721-16 711.50-8Q702 0 688 0Q675 0 665.50-8Q656-16 656-26L656-292Q656-351 621.50-385Q587-419 542-419Q496-419 460.50-384.50Q425-350 425-296L425-25Q425 0 392 0Q360 0 360-25L360-295Q360-348 326.50-383.50Q293-419 246-419Q199-419 163.50-384.50Q128-350 128-292L128-26Q128-16 118-8Q108 0 95 0Q82 0 72.50-8Q63-16 63-26Z"/><path id="s36:dosis-regular:70" d="M63-26L63-739Q63-749 72-756Q81-763 95-763Q109-763 118.50-756Q128-749 128-739L128-403Q146-436 180.50-457.50Q215-479 261-479Q335-479 387.50-424Q440-369 440-292L440-183Q440-108 386.50-50.50Q333 7 263 7Q218 7 180-15.50Q142-38 126-70L126-26Q126-16 117-8Q108 0 95 0Q82 0 72.50-8Q63-16 63-26M128-152Q128-125 165.50-89Q203-53 251-53Q301-53 338-93Q375-133 375-183L375-292Q375-341 338-380Q301-419 250-419Q202-419 165-384Q128-349 128-292L128-152Z"/><path id="s36:dosis-regular:74" d="M63-25L63-579Q63-654 116-708.50Q169-763 241-763L266-763Q278-763 286-754Q294-745 294-733Q294-721 286-712.50Q278-704 266-704L249-704Q198-704 163.50-668.50Q129-633 128-584L128-473L271-473Q281-473 287.50-465Q294-457 294-447Q294-435 287.50-427Q281-419 271-419L128-419L128-25Q128-14 118-7Q108 0 94 0Q81 0 72-7Q63-14 63-25Z"/><path id="s36:dosis-regular:88" d="M61-147L61-674Q61-684 71-691Q81-698 93-698Q106-698 116-691Q126-684 126-674L126-473L255-473Q265-473 271.50-465Q278-457 278-446Q278-435 271.50-427Q265-419 255-419L126-419L126-147Q126-98 146.50-78.50Q167-59 219-59L247-59Q260-59 268.50-50.50Q277-42 277-30Q277-18 268.50-9Q260 0 247 0L219 0Q61 0 61-147Z"/><path id="s36:dosis-regular:77" d="M63-625.50Q63-625.50 56.50-631.75Q50-638 50-655Q50-672 63-684Q76-696 95-696Q113-696 125.50-684Q138-672 138-655Q138-638 125.50-625.50Q113-613 95-613Q76-613 63-625.50M63-26L63-449Q63-459 72-466Q81-473 95-473Q109-473 118.50-466Q128-459 128-449L128-26Q128-16 118-8Q108 0 95 0Q82 0 72.50-8Q63-16 63-26Z"/><path id="s36:dosis-regular:93" d="M14-448Q14-460 27-469.50Q40-479 54-479Q73-479 77-465L214-97L343-465Q349-479 365-479Q378-479 391.50-469.50Q405-460 405-447Q405-441 403-439L248-19L230 30Q225 43 210.50 77Q196 111 186 126L160 166Q143 191 127.50 202Q112 213 90 222.50Q68 232 45 232Q15 232 15 203Q15 173 35 173Q81 173 120.50 117.50Q160 62 180-20L17-439Q14-444 14-448Z"/><path id="s36:dosis-regular:18" d="M40-40Q40-60 53-73.50Q66-87 86-87Q104-87 117.50-73Q131-59 131-40Q131-22 117.50-8Q104 6 86 6Q66 6 53-7.50Q40-21 40-40Z"/><path id="s36:dosis-regular:92" d="M25-25Q25-31 29-39L162-239L32-433Q27-443 27-446Q27-458 40.50-468.50Q54-479 67-479Q81-479 87-469L205-286L324-469Q330-479 343-479Q356-479 369.50-468.50Q383-458 383-446Q383-441 378-433L247-239L381-39Q385-33 385-25Q385-14 372.50-3.50Q360 7 346 7Q333 7 327-3L205-190L84-3Q77 7 63 7Q51 7 38-3.50Q25-14 25-25Z"/><path id="s36:dosis-regular:71" d="M46-183L46-290Q46-374 95-426.50Q144-479 239-479Q299-479 339.50-457.50Q380-436 380-414Q380-403 371-392.50Q362-382 351-382Q345-382 332.50-391Q320-400 297-409.50Q274-419 242-419Q178-419 144.50-385Q111-351 111-290L111-183Q111-121 144.50-87Q178-53 243-53Q277-53 300.50-62.50Q324-72 336.50-81.50Q349-91 356-91Q369-91 377.50-81Q386-71 386-59Q386-36 344-14.50Q302 7 240 7Q144 7 95-45Q46-97 46-183Z"/><path id="s36:dosis-regular:42" d="M76-25L76-706Q76-718 85-724.50Q94-731 106-731L460-731Q472-731 478.50-722.50Q485-714 485-702Q485-689 478.50-679.50Q472-670 460-670L142-670L142-395L300-395Q311-395 317.50-386.50Q324-378 324-365Q324-338 300-338L142-338L142-25Q142-13 132-6.50Q122 0 109 0Q76 0 76-25Z"/><path id="s36:dosis-regular:16" d="M40-40Q40-60 53-73.50Q66-87 85-87Q103-87 117-74Q131-61 131-40Q131-24 93 72Q87 84 73 84Q64 84 56.50 78.50Q49 73 49 65Q49 59 50 55L70 3Q40-9 40-40Z"/></defs><g id="line-0"><use x="0" y="908.5" xlink:href="#s36:dosis-regular:56" /><use x="481" y="908.5" xlink:href="#s36:dosis-regular:76" /><use x="977" y="908.5" xlink:href="#s36:dosis-regular:73" /><use x="1435" y="908.5" xlink:href="#s36:dosis-regular:4" /><use x="1635" y="908.5" xlink:href="#s36:dosis-regular:41" /><use x="2106" y="908.5" xlink:href="#s36:dosis-regular:89" /><use x="2602" y="908.5" xlink:href="#s36:dosis-regular:86" /><use x="2915" y="908.5" xlink:href="#s36:dosis-regular:83" /><use x="3383" y="908.5" xlink:href="#s36:dosis-regular:84" /><use x="3867" y="908.5" xlink:href="#s36:dosis-regular:73" /><use x="4325" y="908.5" xlink:href="#s36:dosis-regular:69" /><use x="4763" y="908.5" xlink:href="#s36:dosis-regular:82" /><use x="5259" y="908.5" xlink:href="#s36:dosis-regular:4" /><use x="5459" y="908.5" xlink:href="#s36:dosis-regular:80" /><use x="5666" y="908.5" xlink:href="#s36:dosis-regular:69" /><use x="6104" y="908.5" xlink:href="#s36:dosis-regular:82" /><use x="6600" y="908.5" xlink:href="#s36:dosis-regular:75" /><use x="7052" y="908.5" xlink:href="#s36:dosis-regular:89" /><use x="7548" y="908.5" xlink:href="#s36:dosis-regular:69" /><use x="7986" y="908.5" xlink:href="#s36:dosis-regular:75" /><use x="8438" y="908.5" xlink:href="#s36:dosis-regular:73" /><use x="8896" y="908.5" xlink:href="#s36:dosis-regular:87" /><use x="9281" y="908.5" xlink:href="#s36:dosis-regular:4" /><use x="9481" y="908.5" xlink:href="#s36:dosis-regular:69" /><use x="9919" y="908.5" xlink:href="#s36:dosis-regular:86" /><use x="10232" y="908.5" xlink:href="#s36:dosis-regular:73" /><use x="10690" y="908.5" xlink:href="#s36:dosis-regular:4" /><use x="10890" y="908.5" xlink:href="#s36:dosis-regular:81" /><use x="11670" y="908.5" xlink:href="#s36:dosis-regular:73" /><use x="12128" y="908.5" xlink:href="#s36:dosis-regular:81" /><use x="12908" y="908.5" xlink:href="#s36:dosis-regular:70" /><use x="13392" y="908.5" xlink:href="#s36:dosis-regular:73" /><use x="13850" y="908.5" xlink:href="#s36:dosis-regular:86" /><use x="14177" y="908.5" xlink:href="#s36:dosis-regular:87" /><use x="14562" y="908.5" xlink:href="#s36:dosis-regular:4" /><use x="14762" y="908.5" xlink:href="#s36:dosis-regular:83" /><use x="15230" y="908.5" xlink:href="#s36:dosis-regular:74" /><use x="15535" y="908.5" xlink:href="#s36:dosis-regular:4" /><use x="15735" y="908.5" xlink:href="#s36:dosis-regular:88" /><use x="16032" y="908.5" xlink:href="#s36:dosis-regular:76" /><use x="16528" y="908.5" xlink:href="#s36:dosis-regular:73" /><use x="16986" y="908.5" xlink:href="#s36:dosis-regular:4" /><use x="17186" y="908.5" xlink:href="#s36:dosis-regular:87" /><use x="17571" y="908.5" xlink:href="#s36:dosis-regular:69" /><use x="18009" y="908.5" xlink:href="#s36:dosis-regular:81" /><use x="18789" y="908.5" xlink:href="#s36:dosis-regular:73" /><use x="19247" y="908.5" xlink:href="#s36:dosis-regular:4" /><use x="19447" y="908.5" xlink:href="#s36:dosis-regular:74" /><use x="19752" y="908.5" xlink:href="#s36:dosis-regular:69" /><use x="20190" y="908.5" xlink:href="#s36:dosis-regular:81" /><use x="20970" y="908.5" xlink:href="#s36:dosis-regular:77" /><use x="21161" y="908.5" xlink:href="#s36:dosis-regular:80" /><use x="21368" y="908.5" xlink:href="#s36:dosis-regular:93" /><use x="21761" y="908.5" xlink:href="#s36:dosis-regular:18" /></g><g id="line-1"><use x="4488" y="2108.5" xlink:href="#s36:dosis-regular:56" /><use x="4969" y="2108.5" xlink:href="#s36:dosis-regular:76" /><use x="5465" y="2108.5" xlink:href="#s36:dosis-regular:73" /><use x="5923" y="2108.5" xlink:href="#s36:dosis-regular:77" /><use x="6114" y="2108.5" xlink:href="#s36:dosis-regular:86" /><use x="6445" y="2108.5" xlink:href="#s36:dosis-regular:4" /><use x="6645" y="2108.5" xlink:href="#s36:dosis-regular:87" /><use x="7030" y="2108.5" xlink:href="#s36:dosis-regular:73" /><use x="7488" y="2108.5" xlink:href="#s36:dosis-regular:84" /><use x="7972" y="2108.5" xlink:href="#s36:dosis-regular:69" /><use x="8410" y="2108.5" xlink:href="#s36:dosis-regular:86" /><use x="8741" y="2108.5" xlink:href="#s36:dosis-regular:69" /><use x="9179" y="2108.5" xlink:href="#s36:dosis-regular:88" /><use x="9467" y="2108.5" xlink:href="#s36:dosis-regular:73" /><use x="9925" y="2108.5" xlink:href="#s36:dosis-regular:4" /><use x="10125" y="2108.5" xlink:href="#s36:dosis-regular:73" /><use x="10583" y="2108.5" xlink:href="#s36:dosis-regular:92" /><use x="10993" y="2108.5" xlink:href="#s36:dosis-regular:77" /><use x="11184" y="2108.5" xlink:href="#s36:dosis-regular:87" /><use x="11569" y="2108.5" xlink:href="#s36:dosis-regular:88" /><use x="11857" y="2108.5" xlink:href="#s36:dosis-regular:73" /><use x="12315" y="2108.5" xlink:href="#s36:dosis-regular:82" /><use x="12811" y="2108.5" xlink:href="#s36:dosis-regular:71" /><use x="13217" y="2108.5" xlink:href="#s36:dosis-regular:73" /><use x="13675" y="2108.5" xlink:href="#s36:dosis-regular:4" /><use x="13875" y="2108.5" xlink:href="#s36:dosis-regular:77" /><use x="14066" y="2108.5" xlink:href="#s36:dosis-regular:87" /><use x="14451" y="2108.5" xlink:href="#s36:dosis-regular:4" /><use x="14651" y="2108.5" xlink:href="#s36:dosis-regular:69" /><use x="15089" y="2108.5" xlink:href="#s36:dosis-regular:4" /><use x="15289" y="2108.5" xlink:href="#s36:dosis-regular:81" /><use x="16060" y="2108.5" xlink:href="#s36:dosis-regular:93" /><use x="16480" y="2108.5" xlink:href="#s36:dosis-regular:88" /><use x="16777" y="2108.5" xlink:href="#s36:dosis-regular:76" /><use x="17273" y="2108.5" xlink:href="#s36:dosis-regular:18" /></g><g id="line-2"><use x="5536.5" y="3308.5" xlink:href="#s36:dosis-regular:42" /><use x="5922.5" y="3308.5" xlink:href="#s36:dosis-regular:83" /><use x="6390.5" y="3308.5" xlink:href="#s36:dosis-regular:86" /><use x="6721.5" y="3308.5" xlink:href="#s36:dosis-regular:4" /><use x="6921.5" y="3308.5" xlink:href="#s36:dosis-regular:87" /><use x="7306.5" y="3308.5" xlink:href="#s36:dosis-regular:71" /><use x="7717.5" y="3308.5" xlink:href="#s36:dosis-regular:77" /><use x="7908.5" y="3308.5" xlink:href="#s36:dosis-regular:73" /><use x="8366.5" y="3308.5" xlink:href="#s36:dosis-regular:82" /><use x="8862.5" y="3308.5" xlink:href="#s36:dosis-regular:71" /><use x="9268.5" y="3308.5" xlink:href="#s36:dosis-regular:73" /><use x="9726.5" y="3308.5" xlink:href="#s36:dosis-regular:16" /><use x="9897.5" y="3308.5" xlink:href="#s36:dosis-regular:4" /><use x="10097.5" y="3308.5" xlink:href="#s36:dosis-regular:81" /><use x="10877.5" y="3308.5" xlink:href="#s36:dosis-regular:89" /><use x="11373.5" y="3308.5" xlink:href="#s36:dosis-regular:87" /><use x="11758.5" y="3308.5" xlink:href="#s36:dosis-regular:77" /><use x="11949.5" y="3308.5" xlink:href="#s36:dosis-regular:71" /><use x="12360.5" y="3308.5" xlink:href="#s36:dosis-regular:16" /><use x="12531.5" y="3308.5" xlink:href="#s36:dosis-regular:4" /><use x="12731.5" y="3308.5" xlink:href="#s36:dosis-regular:87" /><use x="13116.5" y="3308.5" xlink:href="#s36:dosis-regular:84" /><use x="13600.5" y="3308.5" xlink:href="#s36:dosis-regular:83" /><use x="14068.5" y="3308.5" xlink:href="#s36:dosis-regular:86" /><use x="14399.5" y="3308.5" xlink:href="#s36:dosis-regular:88" /><use x="14696.5" y="3308.5" xlink:href="#s36:dosis-regular:16" /><use x="14867.5" y="3308.5" xlink:href="#s36:dosis-regular:4" /><use x="15067.5" y="3308.5" xlink:href="#s36:dosis-regular:73" /><use x="15525.5" y="3308.5" xlink:href="#s36:dosis-regular:88" /><use x="15813.5" y="3308.5" xlink:href="#s36:dosis-regular:71" /><use x="16224.5" y="3308.5" xlink:href="#s36:dosis-regular:16" /></g></svg>