<svg xmlns="http://www.w3.org/2000/svg" xmlns:xlink="http://www.w3.org/1999/xlink" width="507" height="85" viewBox="0 0 21145 3545.5"><defs><path id="s33:dosis-extralight:56" d="M19-700.50Q19-700.50 16.50-703.25Q14-706 14-713Q14-720 19-725.50Q24-731 32-731L423-731Q441-731 441-714Q441-695 423-695L246-695L246-18Q246 0 228 0Q210 0 210-18L210-695L32-695Q24-695 19-700.50Z"/><path id="s33:dosis-extralight:76" d="M69-18L69-751Q69-768 86-768Q104-768 104-751L104-402Q147-478 238-478Q312-478 365-425Q418-372 418-298L418-18Q418 0 400 0Q383 0 383-18L383-298Q383-354 340.50-398.50Q298-443 241-443Q187-443 145.50-403Q104-363 104-298L104-18Q104-11 98.50-5.50Q93 0 86 0Q79 0 74-5.50Q69-11 69-18Z"/><path id="s33:dosis-extralight:73" d="M51-176L51-301Q51-373 103.50-425.50Q156-478 229-478Q301-478 353.50-426.50Q406-375 406-298Q406-272 400-256Q394-240 380-233Q366-226 354.50-224.50Q343-223 323-223L86-223L86-176Q86-109 133-69Q180-29 255-29Q292-29 317-39.50Q342-50 354.50-60Q367-70 373-70Q380-70 385.50-64Q391-58 391-52Q391-42 375-28.50Q359-15 326-4.50Q293 6 253 6Q164 6 107.50-44.50Q51-95 51-176M86-258L311-258Q348-258 359.50-265Q371-272 371-295Q371-352 331-397.50Q291-443 229-443Q169-443 127.50-400.50Q86-358 86-301L86-258Z"/><path id="s33:dosis-extralight:4" d=""/><path id="s33:dosis-extralight:41" d="M83-18L83-713Q83-731 101-731L457-731Q474-731 474-714Q474-695 457-695L119-695L119-384L279-384Q296-384 296-365Q296-348 279-348L119-348L119-36L457-36Q474-36 474-17Q474 0 457 0L101 0Q83 0 83-18Z"/><path id="s33:dosis-extralight:89" d="M64-174L64-454Q64-461 69.50-466.50Q75-472 82-472Q89-472 94-466.50Q99-461 99-454L99-174Q99-117 141-73Q183-29 242-29Q300-29 342-73Q384-117 384-174L384-455Q384-462 389.50-467Q395-472 402-472Q409-472 414-467Q419-462 419-455L419-174Q419-102 366.50-48Q314 6 242 6Q169 6 116.50-48Q64-102 64-174Z"/><path id="s33:dosis-extralight:86" d="M68-18L68-455Q68-472 85-472Q103-472 103-455L103-402Q148-478 242-478L279-478Q286-478 291-472.50Q296-467 296-460Q296-453 291-448Q286-443 279-443L242-443Q186-443 144.50-403Q103-363 103-298L103-18Q103-11 97.50-5.50Q92 0 85 0Q78 0 73-5.50Q68-11 68-18Z"/><path id="s33:dosis-extralight:83" d="M50-176L50-298Q50-370 102.50-424Q155-478 227-478Q299-478 352-425Q405-372 405-298L405-176Q405-104 351.50-49Q298 6 227 6Q156 6 103-49Q50-104 50-176M85-176Q85-119 127-74Q169-29 227-29Q285-29 327.50-74Q370-119 370-176L370-298Q370-354 328-398.50Q286-443 227-443Q168-443 126.50-398.50Q85-354 85-298L85-176Z"/><path id="s33:dosis-extralight:84" d="M69 219L69-455Q69-472 86-472Q104-472 104-455L104-402Q147-478 238-478Q312-478 365-425Q418-372 418-298L418-176Q418-104 364.50-49Q311 6 240 6Q196 6 158.50-16Q121-38 104-70L104 219Q104 226 98.50 231.50Q93 237 86 237Q79 237 74 231.50Q69 226 69 219M104-139Q104-108 146-68.50Q188-29 242-29Q298-29 340.50-74Q383-119 383-176L383-298Q383-354 340.50-398.50Q298-443 241-443Q187-443 145.50-403Q104-363 104-298L104-139Z"/><path id="s33:dosis-extralight:69" d="M35-126Q35-201 94.50-229.50Q154-258 268-258L324-258L324-286Q324-350 291-396.50Q258-443 192-443Q165-443 141.50-436.50Q118-430 105-423Q92-416 88-416Q80-416 75-423Q70-430 70-436Q70-451 109.50-464.50Q149-478 194-478Q280-478 319.50-423.50Q359-369 359-286L359-18Q359 0 342 0Q334 0 329-5Q324-10 324-18L324-70Q258 6 174 6Q112 6 73.50-27.50Q35-61 35-126M70-126Q70-78 98.50-53.50Q127-29 173-29Q227-29 275.50-67Q324-105 324-139L324-223L269-223Q224-223 193.50-220Q163-217 132-207.50Q101-198 85.50-177.50Q70-157 70-126Z"/><path id="s33:dosis-extralight:82" d="M68-18L68-455Q68-472 85-472Q103-472 103-455L103-402Q146-478 237-478Q311-478 364-425Q417-372 417-298L417-18Q417 0 399 0Q382 0 382-18L382-298Q382-354 339.50-398.50Q297-443 240-443Q186-443 144.50-403Q103-363 103-298L103-18Q103-11 97.50-5.50Q92 0 85 0Q78 0 73-5.50Q68-11 68-18Z"/><path id="s33:dosis-extralight:80" d="M77-18L77-751Q77-768 94-768Q112-768 112-751L112-18Q112-11 106.50-5.50Q101 0 94 0Q87 0 82-5.50Q77-11 77-18Z"/><path id="s33:dosis-extralight:75" d="M32 108Q32 29 123-3Q62-20 62-74Q62-120 111-143Q59-189 59-269L59-314Q59-387 103.50-432.50Q148-478 220-478Q293-478 339-430Q353-456 374-473.50Q395-491 414-491Q435-491 435-471Q435-462 429.50-457Q424-452 417-452Q381-452 357-406Q382-371 382-314L382-269Q382-197 336.50-150Q291-103 219-103Q173-103 137-124Q97-106 97-76Q97-53 120.50-40.50Q144-28 179-25Q214-22 255-16.50Q296-11 331-2Q366 7 389.50 33.50Q413 60 413 102Q413 166 363 201.50Q313 237 226 237Q138 237 85 202Q32 167 32 108M67 105Q67 150 109.50 177.50Q152 205 226 205Q299 205 338.50 177.50Q378 150 378 103Q378 80 366.50 63.50Q355 47 339 38Q323 29 298.50 23Q274 17 254.50 15Q235 13 209 11Q183 9 172 7Q67 37 67 105M94-270Q94-212 128-175Q162-138 221-138Q278-138 312.50-175Q347-212 347-269L347-314Q347-370 313-406.50Q279-443 220-443Q162-443 128-406.50Q94-370 94-314L94-270Z"/><path id="s33:dosis-extralight:87" d="M38-59Q38-66 42.50-71Q47-76 52-76Q57-76 67-68L88-52Q100-44 125.50-36.50Q151-29 183-29Q242-29 271-52Q300-75 300-112Q300-155 274-179.50Q248-204 211-215L137-238Q100-250 74-276.50Q48-303 48-348Q48-399 86-438.50Q124-478 196-478Q240-478 279-464Q318-450 318-436Q318-430 312.50-423Q307-416 301-416Q300-416 266.50-429.50Q233-443 197-443Q139-443 111-413.50Q83-384 83-349Q83-313 109-292Q135-271 172-261Q209-251 246-239Q283-227 309-196Q335-165 335-114Q335-58 295-26Q255 6 184 6Q122 6 80-16Q38-38 38-59Z"/><path id="s33:dosis-extralight:81" d="M68-18L68-455Q68-472 85-472Q103-472 103-455L103-402Q146-478 237-478Q288-478 327.50-450.50Q367-423 387-378Q412-427 453-452.50Q494-478 539-478Q606-478 654.50-429Q703-380 703-298L703-18Q703-11 697.50-5.50Q692 0 685 0Q678 0 673-5.50Q668-11 668-18L668-298Q668-366 628.50-404.50Q589-443 538-443Q485-443 444-403.50Q403-364 403-304L403-17Q403 0 385 0Q368 0 368-17L368-303Q368-362 330.50-402.50Q293-443 239-443Q185-443 144-403Q103-363 103-298L103-18Q103-11 97.50-5.50Q92 0 85 0Q78 0 73-5.50Q68-11 68-18Z"/><path id="s33:dosis-extralight:70" d="M69-18L69-751Q69-768 86-768Q104-768 104-751L104-402Q147-478 238-478Q312-478 365-425Q418-372 418-298L418-176Q418-104 364.50-49Q311 6 240 6Q196 6 158.50-16Q121-38 104-70L104-18Q104-11 98.50-5.50Q93 0 86 0Q79 0 74-5.50Q69-11 69-18M104-139Q104-108 146-68.50Q188-29 242-29Q298-29 340.50-74Q383-119 383-176L383-298Q383-354 340.50-398.50Q298-443 241-443Q187-443 145.50-403Q104-363 104-298L104-139Z"/><path id="s33:dosis-extralight:74" d="M69-17L69-590Q69-662 122-715Q175-768 247-768L257-768Q264-768 269.50-763Q275-758 275-750Q275-733 257-733L247-733Q188-733 146.50-690Q105-647 104-590L104-472L257-472Q264-472 269.50-467Q275-462 275-455Q275-448 269.50-442.50Q264-437 257-437L104-437L104-17Q104-10 98.50-5Q93 0 85 0Q69 0 69-17Z"/><path id="s33:dosis-extralight:88" d="M66-139L66-686Q66-693 71.50-698Q77-703 83-703Q90-703 95.50-698Q101-693 101-686L101-472L236-472Q243-472 248-466.50Q253-461 253-454Q253-447 248-442Q243-437 236-437L101-437L101-139Q101-82 126-58.50Q151-35 212-35L235-35Q242-35 247-30Q252-25 252-18Q252-11 247-5.50Q242 0 235 0L212 0Q66 0 66-139Z"/><path id="s33:dosis-extralight:77" d="M62.50-637.50Q62.50-637.50 57.75-642.25Q53-647 53-660Q53-673 62.50-682Q72-691 85-691Q98-691 107-682Q116-673 116-660Q116-647 107-637.50Q98-628 85-628Q72-628 62.50-637.50M68-18L68-455Q68-462 73-467Q78-472 85-472Q103-472 103-455L103-18Q103-11 97.50-5.50Q92 0 85 0Q78 0 73-5.50Q68-11 68-18Z"/><path id="s33:dosis-extralight:93" d="M18-461Q18-468 23.50-473Q29-478 37-478Q50-478 53-467L198-67L342-467Q347-478 358-478Q376-478 376-461Q376-457 375-455L215-13L195 42Q189 58 173.50 95Q158 132 145.50 151Q133 170 115.50 193Q98 216 78 226.50Q58 237 36 237Q29 237 24 232Q19 227 19 220Q19 202 34 202Q51 202 67 194Q83 186 97 166.50Q111 147 120.50 132Q130 117 143.50 84Q157 51 162 38L180-13L20-455Q18-459 18-461Z"/><path id="s33:dosis-extralight:18" d="M55.50-4.50Q55.50-4.50 50.25-9.75Q45-15 45-30Q45-45 55-55.50Q65-66 81-66Q95-66 105.50-55.50Q116-45 116-30Q116-16 105.50-5Q95 6 81 6Q66 6 55.50-4.50Z"/><path id="s33:dosis-extralight:92" d="M27-11Q27-16 30-21L169-238L30-451Q27-456 27-460Q27-468 32.50-473Q38-478 45-478Q55-478 60-470L191-270L323-470Q328-478 337-478Q344-478 349.50-473Q355-468 355-460Q355-456 352-451L212-238L352-21Q355-16 355-11Q355-4 349.50 1Q344 6 337 6Q328 6 323-2L191-205L60-2Q54 6 45 6Q38 6 32.50 1Q27-4 27-11Z"/><path id="s33:dosis-extralight:71" d="M52-176L52-296Q52-377 98.50-427.50Q145-478 235-478Q290-478 328-457.50Q366-437 366-419Q366-412 360.50-407Q355-402 348-402Q343-402 330.50-412Q318-422 294-432.50Q270-443 235-443Q164-443 125.50-404Q87-365 87-296L87-176Q87-107 125.50-68Q164-29 236-29Q273-29 298.50-39.50Q324-50 336.50-60Q349-70 355-70Q362-70 367-65Q372-60 372-53Q372-34 332.50-14Q293 6 235 6Q145 6 98.50-44Q52-94 52-176Z"/><path id="s33:dosis-extralight:42" d="M83-17L83-713Q83-731 101-731L457-731Q474-731 474-714Q474-695 457-695L119-695L119-384L279-384Q296-384 296-365Q296-348 279-348L119-348L119-17Q119 0 101 0Q83 0 83-17Z"/><path id="s33:dosis-extralight:16" d="M45-30Q45-45 55-55.50Q65-66 80-66Q94-66 105-56.50Q116-47 116-29Q116-14 85 66Q80 77 69 77Q53 77 53 64Q53 59 54 56L72 5Q45-2 45-30Z"/></defs><g id="line-0"><use x="0" y="908.5" xlink:href="#s33:dosis-extralight:56"/><use x="455" y="908.5" xlink:href="#s33:dosis-extralight:76"/><use x="937" y="908.5" xlink:href="#s33:dosis-extralight:73"/><use x="1382" y="908.5" xlink:href="#s33:dosis-extralight:4"/><use x="1582" y="908.5" xlink:href="#s33:dosis-extralight:41"/><use x="2034" y="908.5" xlink:href="#s33:dosis-extralight:89"/><use x="2517" y="908.5" xlink:href="#s33:dosis-extralight:86"/><use x="2799" y="908.5" xlink:href="#s33:dosis-extralight:83"/><use x="3254" y="908.5" xlink:href="#s33:dosis-extralight:84"/><use x="3722" y="908.5" xlink:href="#s33:dosis-extralight:73"/><use x="4167" y="908.5" xlink:href="#s33:dosis-extralight:69"/><use x="4590" y="908.5" xlink:href="#s33:dosis-extralight:82"/><use x="5071" y="908.5" xlink:href="#s33:dosis-extralight:4"/><use x="5271" y="908.5" xlink:href="#s33:dosis-extralight:80"/><use x="5460" y="908.5" xlink:href="#s33:dosis-extralight:69"/><use x="5883" y="908.5" xlink:href="#s33:dosis-extralight:82"/><use x="6364" y="908.5" xlink:href="#s33:dosis-extralight:75"/><use x="6810" y="908.5" xlink:href="#s33:dosis-extralight:89"/><use x="7293" y="908.5" xlink:href="#s33:dosis-extralight:69"/><use x="7716" y="908.5" xlink:href="#s33:dosis-extralight:75"/><use x="8162" y="908.5" xlink:href="#s33:dosis-extralight:73"/><use x="8607" y="908.5" xlink:href="#s33:dosis-extralight:87"/><use x="8980" y="908.5" xlink:href="#s33:dosis-extralight:4"/><use x="9180" y="908.5" xlink:href="#s33:dosis-extralight:69"/><use x="9603" y="908.5" xlink:href="#s33:dosis-extralight:86"/><use x="9885" y="908.5" xlink:href="#s33:dosis-extralight:73"/><use x="10330" y="908.5" xlink:href="#s33:dosis-extralight:4"/><use x="10530" y="908.5" xlink:href="#s33:dosis-extralight:81"/><use x="11297" y="908.5" xlink:href="#s33:dosis-extralight:73"/><use x="11742" y="908.5" xlink:href="#s33:dosis-extralight:81"/><use x="12509" y="908.5" xlink:href="#s33:dosis-extralight:70"/><use x="12977" y="908.5" xlink:href="#s33:dosis-extralight:73"/><use x="13422" y="908.5" xlink:href="#s33:dosis-extralight:86"/><use x="13724" y="908.5" xlink:href="#s33:dosis-extralight:87"/><use x="14097" y="908.5" xlink:href="#s33:dosis-extralight:4"/><use x="14297" y="908.5" xlink:href="#s33:dosis-extralight:83"/><use x="14752" y="908.5" xlink:href="#s33:dosis-extralight:74"/><use x="15041" y="908.5" xlink:href="#s33:dosis-extralight:4"/><use x="15241" y="908.5" xlink:href="#s33:dosis-extralight:88"/><use x="15513" y="908.5" xlink:href="#s33:dosis-extralight:76"/><use x="15995" y="908.5" xlink:href="#s33:dosis-extralight:73"/><use x="16440" y="908.5" xlink:href="#s33:dosis-extralight:4"/><use x="16640" y="908.5" xlink:href="#s33:dosis-extralight:87"/><use x="17013" y="908.5" xlink:href="#s33:dosis-extralight:69"/><use x="17436" y="908.5" xlink:href="#s33:dosis-extralight:81"/><use x="18203" y="908.5" xlink:href="#s33:dosis-extralight:73"/><use x="18648" y="908.5" xlink:href="#s33:dosis-extralight:4"/><use x="18848" y="908.5" xlink:href="#s33:dosis-extralight:74"/><use x="19115" y="908.5" xlink:href="#s33:dosis-extralight:69"/><use x="19538" y="908.5" xlink:href="#s33:dosis-extralight:81"/><use x="20305" y="908.5" xlink:href="#s33:dosis-extralight:77"/><use x="20476" y="908.5" xlink:href="#s33:dosis-extralight:80"/><use x="20665" y="908.5" xlink:href="#s33:dosis-extralight:93"/><use x="21029" y="908.5" xlink:href="#s33:dosis-extralight:18"/></g><g id="line-1"><use x="4389.5" y="2108.5" xlink:href="#s33:dosis-extralight:56"/><use x="4844.5" y="2108.5" xlink:href="#s33:dosis-extralight:76"/><use x="5326.5" y="2108.5" xlink:href="#s33:dosis-extralight:73"/><use x="5771.5" y="2108.5" xlink:href="#s33:dosis-extralight:77"/><use x="5942.5" y="2108.5" xlink:href="#s33:dosis-extralight:86"/><use x="6250.5" y="2108.5" xlink:href="#s33:dosis-extralight:4"/><use x="6450.5" y="2108.5" xlink:href="#s33:dosis-extralight:87"/><use x="6823.5" y="2108.5" xlink:href="#s33:dosis-extralight:73"/><use x="7268.5" y="2108.5" xlink:href="#s33:dosis-extralight:84"/><use x="7736.5" y="2108.5" xlink:href="#s33:dosis-extralight:69"/><use x="8159.5" y="2108.5" xlink:href="#s33:dosis-extralight:86"/><use x="8438.5" y="2108.5" xlink:href="#s33:dosis-extralight:69"/><use x="8861.5" y="2108.5" xlink:href="#s33:dosis-extralight:88"/><use x="9122.5" y="2108.5" xlink:href="#s33:dosis-extralight:73"/><use x="9567.5" y="2108.5" xlink:href="#s33:dosis-extralight:4"/><use x="9767.5" y="2108.5" xlink:href="#s33:dosis-extralight:73"/><use x="10212.5" y="2108.5" xlink:href="#s33:dosis-extralight:92"/><use x="10593.5" y="2108.5" xlink:href="#s33:dosis-extralight:77"/><use x="10764.5" y="2108.5" xlink:href="#s33:dosis-extralight:87"/><use x="11137.5" y="2108.5" xlink:href="#s33:dosis-extralight:88"/><use x="11398.5" y="2108.5" xlink:href="#s33:dosis-extralight:73"/><use x="11843.5" y="2108.5" xlink:href="#s33:dosis-extralight:82"/><use x="12324.5" y="2108.5" xlink:href="#s33:dosis-extralight:71"/><use x="12719.5" y="2108.5" xlink:href="#s33:dosis-extralight:73"/><use x="13164.5" y="2108.5" xlink:href="#s33:dosis-extralight:4"/><use x="13364.5" y="2108.5" xlink:href="#s33:dosis-extralight:77"/><use x="13535.5" y="2108.5" xlink:href="#s33:dosis-extralight:87"/><use x="13908.5" y="2108.5" xlink:href="#s33:dosis-extralight:4"/><use x="14108.5" y="2108.5" xlink:href="#s33:dosis-extralight:69"/><use x="14531.5" y="2108.5" xlink:href="#s33:dosis-extralight:4"/><use x="14731.5" y="2108.5" xlink:href="#s33:dosis-extralight:81"/><use x="15490.5" y="2108.5" xlink:href="#s33:dosis-extralight:93"/><use x="15885.5" y="2108.5" xlink:href="#s33:dosis-extralight:88"/><use x="16157.5" y="2108.5" xlink:href="#s33:dosis-extralight:76"/><use x="16639.5" y="2108.5" xlink:href="#s33:dosis-extralight:18"/></g><g id="line-2"><use x="5363.5" y="3308.5" xlink:href="#s33:dosis-extralight:42"/><use x="5724.5" y="3308.5" xlink:href="#s33:dosis-extralight:83"/><use x="6179.5" y="3308.5" xlink:href="#s33:dosis-extralight:86"/><use x="6487.5" y="3308.5" xlink:href="#s33:dosis-extralight:4"/><use x="6687.5" y="3308.5" xlink:href="#s33:dosis-extralight:87"/><use x="7060.5" y="3308.5" xlink:href="#s33:dosis-extralight:71"/><use x="7462.5" y="3308.5" xlink:href="#s33:dosis-extralight:77"/><use x="7633.5" y="3308.5" xlink:href="#s33:dosis-extralight:73"/><use x="8078.5" y="3308.5" xlink:href="#s33:dosis-extralight:82"/><use x="8559.5" y="3308.5" xlink:href="#s33:dosis-extralight:71"/><use x="8954.5" y="3308.5" xlink:href="#s33:dosis-extralight:73"/><use x="9399.5" y="3308.5" xlink:href="#s33:dosis-extralight:16"/><use x="9561.5" y="3308.5" xlink:href="#s33:dosis-extralight:4"/><use x="9761.5" y="3308.5" xlink:href="#s33:dosis-extralight:81"/><use x="10528.5" y="3308.5" xlink:href="#s33:dosis-extralight:89"/><use x="11011.5" y="3308.5" xlink:href="#s33:dosis-extralight:87"/><use x="11384.5" y="3308.5" xlink:href="#s33:dosis-extralight:77"/><use x="11555.5" y="3308.5" xlink:href="#s33:dosis-extralight:71"/><use x="11957.5" y="3308.5" xlink:href="#s33:dosis-extralight:16"/><use x="12119.5" y="3308.5" xlink:href="#s33:dosis-extralight:4"/><use x="12319.5" y="3308.5" xlink:href="#s33:dosis-extralight:87"/><use x="12692.5" y="3308.5" xlink:href="#s33:dosis-extralight:84"/><use x="13160.5" y="3308.5" xlink:href="#s33:dosis-extralight:83"/><use x="13615.5" y="3308.5" xlink:href="#s33:dosis-extralight:86"/><use x="13923.5" y="3308.5" xlink:href="#s33:dosis-extralight:88"/><use x="14195.5" y="3308.5" xlink:href="#s33:dosis-extralight:16"/><use x="14357.5" y="3308.5" xlink:href="#s33:dosis-extralight:4"/><use x="14557.5" y="3308.5" xlink:href="#s33:dosis-extralight:73"/><use x="15002.5" y="3308.5" xlink:href="#s33:dosis-extralight:88"/><use x="15263.5" y="3308.5" xlink:href="#s33:dosis-extralight:71"/><use x="15665.5" y="3308.5" xlink:href="#s33:dosis-extralight:16"/></g></svg>