<svg xmlns="http://www.w3.org/2000/svg" xmlns:xlink="http://www.w3.org/1999/xlink" width="704" height="83" viewBox="0 0 60099 7068.2"><defs><path id="s13:droidserif-bolditalic:55" d="M213 0L236-109L262-109Q294-109 324.50-113Q355-117 380-130Q405-143 423.50-167Q442-191 451-231L682-1337L518-1337Q470-1337 436.50-1325Q403-1313 378.50-1289.50Q354-1266 337-1232Q320-1198 305-1153L276-1065L139-1065L233-1462L1507-1462L1436-1065L1298-1065Q1299-1072 1301.50-1096.50Q1304-1121 1307-1149Q1310-1177 1312.50-1200.50Q1315-1224 1315-1229Q1315-1283 1282.50-1310Q1250-1337 1171-1337L1008-1337L772-225Q770-214 767-200Q764-186 764-178Q764-156 775-142.50Q786-129 806-121.50Q826-114 853.50-111.50Q881-109 913-109L940-109L918 0L213 0Z"/><path id="s13:droidserif-bolditalic:75" d="M754-190Q754-234 761.50-295Q769-356 786-434L821-596Q826-616 832.50-645Q839-674 844.50-705.50Q850-737 854-768.50Q858-800 858-825Q858-844 854.50-865Q851-886 842-903Q833-920 816-931Q799-942 772-942Q737-942 702.50-918.50Q668-895 636-856.50Q604-818 575.50-768.50Q547-719 523.50-667Q500-615 483-565Q466-515 457-475L350 0L43 0L313-1274Q316-1287 319-1301Q322-1315 324-1327.50Q326-1340 327-1349Q328-1358 328-1362Q328-1390 322-1407Q316-1424 303-1433Q290-1442 269-1445Q248-1448 219-1448L176-1448L195-1556L690-1556L594-1106Q586-1075 576.50-1036Q567-997 558-962Q547-921 537-879L549-879Q588-940 629.50-985Q671-1030 719-1059.50Q767-1089 823.50-1103.50Q880-1118 948-1118Q1013-1118 1058-1099Q1103-1080 1130.50-1047.50Q1158-1015 1170-972.50Q1182-930 1182-883Q1182-857 1178-827.50Q1174-798 1168.50-768Q1163-738 1156.50-708Q1150-678 1145-651L1098-432Q1085-376 1077-327.50Q1069-279 1069-236Q1069-191 1088-167Q1107-143 1141-143Q1173-143 1199.50-155Q1226-167 1262-190L1311-121Q1286-95 1255-69.50Q1224-44 1185.50-24Q1147-4 1100 8Q1053 20 997 20Q880 20 817-35.50Q754-91 754-190Z"/><path id="s13:droidserif-bolditalic:72" d="M618-135Q668-135 713-149.50Q758-164 796.50-187.50Q835-211 865.50-240.50Q896-270 918-301Q930-286 937-262.50Q944-239 944-213Q944-176 920-135Q896-94 846.50-59.50Q797-25 720.50-2.50Q644 20 539 20Q445 20 362-6Q279-32 216.50-84.50Q154-137 118-216.50Q82-296 82-403Q82-479 102-562Q122-645 161.50-724.50Q201-804 259.50-875.50Q318-947 395-1001Q472-1055 567.50-1086.50Q663-1118 776-1118Q923-1118 1004-1054.50Q1085-991 1085-877Q1085-794 1039-718Q993-642 912-584.50Q831-527 719-493Q607-459 475-459Q458-459 438-459Q418-459 399-461Q396-441 395.50-420.50Q395-400 395-383Q395-264 450.50-199.50Q506-135 618-135M690-995Q640-995 595-957.50Q550-920 514-860Q478-800 452-725.50Q426-651 414-578L432-578Q508-578 573.50-598Q639-618 687.50-655.50Q736-693 763.50-745Q791-797 791-862Q791-925 764.50-960Q738-995 690-995Z"/><path id="s13:droidserif-bolditalic:3" d=""/><path id="s13:droidserif-bolditalic:40" d="M-25-109L2-109Q34-109 64.50-113Q95-117 120-130Q145-143 163.50-167Q182-191 190-231L403-1237Q407-1248 409.50-1262Q412-1276 412-1284Q412-1306 401-1320Q390-1334 370.50-1341.50Q351-1349 323.50-1351.50Q296-1354 264-1354L238-1354L260-1462L1372-1462L1300-1081L1155-1081Q1156-1088 1157.50-1106Q1159-1124 1160.50-1143.50Q1162-1163 1163.50-1179.50Q1165-1196 1165-1200Q1165-1228 1157-1253Q1149-1278 1132-1297Q1115-1316 1087.50-1326.50Q1060-1337 1020-1337L748-1337L639-825L1104-825L1077-702L612-702L489-125L813-125Q861-125 899-138.50Q937-152 965-175Q993-198 1012.50-228.50Q1032-259 1044-293L1077-381L1223-381L1128 0L-47 0L-25-109Z"/><path id="s13:droidserif-bolditalic:88" d="M793-176Q793-185 794-197Q795-209 796.50-222Q798-235 799.50-246.50Q801-258 803-266L786-266Q741-202 697.50-150Q654-98 605-60.50Q556-23 499-2.50Q442 18 369 18Q303 18 258-0.50Q213-19 186-50Q159-81 147-122.50Q135-164 135-209Q135-260 147-321Q159-382 170-434L244-795Q252-837 257-871Q262-905 262-922Q262-963 237-976Q212-989 154-989L117-989L135-1098L627-1098L492-485Q486-461 480-431Q474-401 469-371Q464-341 460.50-314Q457-287 457-268Q457-223 476-196.50Q495-170 545-170Q590-170 637.50-210.50Q685-251 728.50-315.50Q772-380 806-459.50Q840-539 858-616L967-1098L1272-1098L1133-432Q1120-376 1112-327.50Q1104-279 1104-236Q1104-191 1122.50-167Q1141-143 1176-143Q1208-143 1234.50-155Q1261-167 1296-190L1346-121Q1321-95 1290-69.50Q1259-44 1220.50-24Q1182-4 1135 8Q1088 20 1032 20Q964 20 918.50 4.50Q873-11 845-37.50Q817-64 805-99.50Q793-135 793-176Z"/><path id="s13:droidserif-bolditalic:85" d="M262-918Q262-956 237-972.50Q212-989 154-989L117-989L135-1098L588-1098L545-817L555-817Q590-891 625.50-947Q661-1003 703.50-1041Q746-1079 800-1098.50Q854-1118 926-1118Q1035-1118 1088-1077Q1141-1036 1141-958Q1141-852 1079-800Q1017-748 899-748Q899-794 894.50-831.50Q890-869 878.50-895.50Q867-922 847.50-936Q828-950 799-950Q770-950 738-926.50Q706-903 674-862Q642-821 611.50-764.50Q581-708 553-641.50Q525-575 502-502Q479-429 463-354L385 0L76 0L250-823Q253-840 257.50-868Q262-896 262-918Z"/><path id="s13:droidserif-bolditalic:82" d="M82-410Q82-487 100-569Q118-651 154.50-730Q191-809 246-879.50Q301-950 375.50-1003Q450-1056 544.50-1087Q639-1118 754-1118Q842-1118 920-1093.50Q998-1069 1056-1017Q1114-965 1148-883.50Q1182-802 1182-688Q1182-614 1165-533Q1148-452 1112.50-373.50Q1077-295 1022.50-223.50Q968-152 894-98Q820-44 726-12Q632 20 516 20Q420 20 340-6.50Q260-33 203-86.50Q146-140 114-221Q82-302 82-410M553-127Q608-127 652.50-158.50Q697-190 732.50-241.50Q768-293 794-359Q820-425 836.50-495Q853-565 861.50-632.50Q870-700 870-754Q870-875 828.50-928Q787-981 715-981Q663-981 619-951Q575-921 539.50-871Q504-821 477-756.50Q450-692 431.50-623Q413-554 404-485.50Q395-417 395-360Q395-235 437-181Q479-127 553-127Z"/><path id="s13:droidserif-bolditalic:83" d="M885-733Q885-775 879.50-814.50Q874-854 861.50-885Q849-916 827.50-935Q806-954 774-954Q740-954 706.50-934.50Q673-915 641.50-882Q610-849 582.50-806Q555-763 532.50-716.50Q510-670 493.50-623Q477-576 469-535L391-168Q400-159 415-148.50Q430-138 449-130Q468-122 490.50-116.50Q513-111 537-111Q592-111 639.50-141Q687-171 725.50-221Q764-271 794-335.50Q824-400 844-469Q864-538 874.50-606.50Q885-675 885-733M-61 492L217-815Q220-828 222.50-842Q225-856 227-868.50Q229-881 230-890Q231-899 231-903Q231-931 225-948Q219-965 206-974Q193-983 172.50-986Q152-989 123-989L86-989L104-1098L545-1098L492-825L506-825Q541-889 578-943Q615-997 660-1036Q705-1075 762-1096.50Q819-1118 895-1118Q962-1118 1017.50-1094Q1073-1070 1112-1023Q1151-976 1172.50-907Q1194-838 1194-748Q1194-674 1176.50-588.50Q1159-503 1124-417.50Q1089-332 1036.50-253Q984-174 913-113.50Q842-53 753.50-16.50Q665 20 559 20Q497 20 443.50 7.50Q390-5 350-27Q349-11 346 6Q344 20 341 37.50Q338 55 334 72L305 209Q302 222 299.50 236Q297 250 295 262.50Q293 275 292 284Q291 293 291 297Q291 325 297 342Q303 359 316 368Q329 377 349.50 380Q370 383 399 383L477 383L459 492L-61 492Z"/><path id="s13:droidserif-bolditalic:68" d="M969 20Q878 20 823-21.50Q768-63 768-143Q768-175 771-205.50Q774-236 782-276L768-276Q730-205 692.50-149.50Q655-94 609-56.50Q563-19 506.50 0.50Q450 20 375 20Q302 20 247-8.50Q192-37 155.50-87Q119-137 100.50-205.50Q82-274 82-354Q82-434 100.50-521.50Q119-609 156-694Q193-779 247.50-856Q302-933 373.50-991Q445-1049 533-1083.50Q621-1118 725-1118Q765-1118 806.50-1111.50Q848-1105 886-1095Q924-1085 957.50-1072.50Q991-1060 1014-1047L1122-1096L1231-1096L1096-457Q1092-440 1086-412Q1080-384 1074.50-352.50Q1069-321 1065-291.50Q1061-262 1061-242Q1061-191 1081-166Q1101-141 1133-141Q1162-141 1188.50-153.50Q1215-166 1247-184L1292-102Q1266-82 1233-60.50Q1200-39 1159.50-21Q1119-3 1071.50 8.50Q1024 20 969 20M393-352Q393-293 401.50-253Q410-213 424.50-188.50Q439-164 459.50-153.50Q480-143 504-143Q549-143 597-182Q645-221 687-284.50Q729-348 762.50-428Q796-508 813-590L885-930Q865-959 829.50-973Q794-987 754-987Q694-987 644.50-956Q595-925 555-873Q515-821 484.50-755Q454-689 433.50-618Q413-547 403-478Q393-409 393-352Z"/><path id="s13:droidserif-bolditalic:81" d="M786-190Q786-278 819-434L852-596Q856-616 862-645Q868-674 874-705.50Q880-737 884.50-768.50Q889-800 889-825Q889-844 885.50-865Q882-886 872.50-903Q863-920 846.50-931Q830-942 803-942Q768-942 733.50-918.50Q699-895 667-856.50Q635-818 606-768.50Q577-719 553.50-667Q530-615 513-565Q496-515 487-475L383 0L76 0L248-815Q251-828 253.50-842Q256-856 258-868.50Q260-881 261-890Q262-899 262-903Q262-931 256-948Q250-965 237-974Q224-983 203.50-986Q183-989 154-989L117-989L135-1098L590-1098L567-879L580-879Q619-940 660.50-985Q702-1030 750-1059.50Q798-1089 854.50-1103.50Q911-1118 979-1118Q1044-1118 1088.50-1099Q1133-1080 1160.50-1047.50Q1188-1015 1200-972.50Q1212-930 1212-883Q1212-857 1208.50-827.50Q1205-798 1199.50-768Q1194-738 1187.50-708Q1181-678 1176-651L1130-432Q1118-376 1110-327.50Q1102-279 1102-236Q1102-191 1120.50-167Q1139-143 1174-143Q1206-143 1232.50-155Q1259-167 1294-190L1343-121Q1319-95 1288-69.50Q1257-44 1218.50-24Q1180-4 1133 8Q1086 20 1030 20Q912 20 849-35.50Q786-91 786-190Z"/><path id="s13:droidserif-bolditalic:79" d="M489-143Q521-143 548-155Q575-167 610-190L659-121Q635-95 604-69.50Q573-44 534.50-24Q496-4 449 8Q402 20 346 20Q228 20 165-35.50Q102-91 102-190Q102-278 135-434L313-1274Q316-1287 319-1301Q322-1315 324-1327.50Q326-1340 327-1349Q328-1358 328-1362Q328-1390 322-1407Q316-1424 303-1433Q290-1442 269-1445Q248-1448 219-1448L176-1448L195-1556L690-1556L446-432Q434-376 426-327.50Q418-279 418-236Q418-191 436.50-167Q455-143 489-143Z"/><path id="s13:droidserif-bolditalic:74" d="M182-674Q182-745 213.50-823.50Q245-902 308.50-967.50Q372-1033 468-1075.50Q564-1118 694-1118Q762-1118 821.50-1102.50Q881-1087 926-1053Q949-1082 975-1107.50Q1001-1133 1030-1151.50Q1059-1170 1092-1181Q1125-1192 1163-1192Q1226-1192 1255-1161.50Q1284-1131 1284-1083Q1284-1058 1277.50-1032Q1271-1006 1256-985Q1241-964 1215.50-951Q1190-938 1153-938Q1153-980 1134.50-1003Q1116-1026 1081-1026Q1053-1026 1030-1016Q1007-1006 987-989Q1009-960 1023.50-916Q1038-872 1038-825Q1038-780 1025-730.50Q1012-681 986-632.50Q960-584 920-539.50Q880-495 825-461Q770-427 700-407Q630-387 545-387Q536-387 521.50-387.50Q507-388 492-388.50Q477-389 463-390Q449-391 440-393Q392-372 360-344.50Q328-317 328-285Q328-268 336.50-257Q345-246 359.50-239.50Q374-233 394-229Q414-225 438-223L668-201Q818-187 901.50-119.50Q985-52 985 78Q985 171 942.50 247.50Q900 324 818.50 378Q737 432 618.50 462Q500 492 348 492Q223 492 134.50 473.50Q46 455-10 421Q-66 387-92.50 338.50Q-119 290-119 231Q-119 177-91.50 133Q-64 89-18 56.50Q28 24 87 2Q146-20 209-31Q189-41 170-58.50Q151-76 136.50-98.50Q122-121 113-146.50Q104-172 104-199Q104-231 117-259Q130-287 157-314Q184-341 226-368.50Q268-396 326-428Q258-460 220-523Q182-586 182-674M721 174Q721 116 676.50 85Q632 54 526 45L344 29Q299 35 259.50 52Q220 69 190 94Q160 119 142.50 150.50Q125 182 125 217Q125 249 136.50 276.50Q148 304 176.50 324.50Q205 345 254.50 357Q304 369 379 369Q469 369 533.50 353Q598 337 639.50 310Q681 283 701 247.50Q721 212 721 174M551-512Q587-512 617-529Q647-546 671-574Q695-602 713-637.50Q731-673 742.50-711Q754-749 760-785.50Q766-822 766-852Q766-924 737.50-957.50Q709-991 655-991Q602-991 562-956Q522-921 495-869Q468-817 454-758.50Q440-700 440-653Q440-578 469-545Q498-512 551-512Z"/><path id="s13:droidserif-bolditalic:86" d="M457-102Q499-102 535-112.50Q571-123 597-142.50Q623-162 638-190.50Q653-219 653-256Q653-291 639.50-318Q626-345 597.50-368.50Q569-392 525.50-415Q482-438 422-467Q362-495 313.50-527Q265-559 231-598Q197-637 178.50-685Q160-733 160-793Q160-868 192-928Q224-988 284-1030.50Q344-1073 429.50-1095.50Q515-1118 623-1118Q726-1118 797.50-1102Q869-1086 913.50-1059.50Q958-1033 977.50-998Q997-963 997-926Q997-844 934-807Q871-770 762-770Q762-811 754-852.50Q746-894 727-928Q708-962 678-983Q648-1004 604-1004Q564-1004 532.50-992.50Q501-981 478.50-961.50Q456-942 444-916Q432-890 432-860Q432-826 445.50-801Q459-776 487.50-754Q516-732 560-710.50Q604-689 664-662Q730-632 778-598.50Q826-565 857.50-525.50Q889-486 904.50-439.50Q920-393 920-336Q920-253 888.50-187Q857-121 794-75Q731-29 638-4.50Q545 20 422 20Q334 20 262.50 5Q191-10 140.50-39Q90-68 62.50-110Q35-152 35-205Q35-253 54-286Q73-319 103.50-339.50Q134-360 173.50-369.50Q213-379 254-379Q254-324 265-274Q276-224 300-185.50Q324-147 362.50-124.50Q401-102 457-102Z"/><path id="s13:droidserif-bolditalic:80" d="M1638 14Q1521 14 1458-42Q1395-98 1395-197Q1395-240 1402.50-301Q1410-362 1427-440L1462-602Q1467-622 1473.50-651Q1480-680 1485.50-711.50Q1491-743 1495-774.50Q1499-806 1499-831Q1499-850 1495.50-871Q1492-892 1483-909Q1474-926 1458-937Q1442-948 1417-948Q1384-948 1351.50-925Q1319-902 1288-864.50Q1257-827 1229.50-778.50Q1202-730 1179.50-679Q1157-628 1141-578.50Q1125-529 1118-489L1102-403Q1098-382 1092.50-345.50Q1087-309 1081-267Q1075-225 1069-181Q1063-137 1058.50-99.50Q1054-62 1051.50-35Q1049-8 1049 0L731 0Q731-12 734.50-42Q738-72 744-112.50Q750-153 758-200Q766-247 774-294Q782-341 790-383.50Q798-426 805-457L836-600Q840-619 845.50-648Q851-677 856.50-708.50Q862-740 866-772Q870-804 870-829Q870-848 868-868Q866-888 859.50-904.50Q853-921 839.50-931.50Q826-942 803-942Q769-942 735.50-921Q702-900 671-865Q640-830 612-785Q584-740 561.50-692.50Q539-645 522.50-598.50Q506-552 498-514L383 0L76 0L248-815Q251-828 253.50-842Q256-856 258-868.50Q260-881 261-890Q262-899 262-903Q262-931 256-948Q250-965 237-974Q224-983 203.50-986Q183-989 154-989L117-989L135-1098L610-1098L571-889L586-889Q626-951 668.50-994.50Q711-1038 758-1065.50Q805-1093 857.50-1105.50Q910-1118 971-1118Q1035-1118 1078-1100Q1121-1082 1147-1051Q1173-1020 1184.50-980Q1196-940 1196-895L1196-879L1208-879Q1246-940 1286.50-986Q1327-1032 1374-1062.50Q1421-1093 1476-1108.50Q1531-1124 1597-1124Q1660-1124 1703-1105Q1746-1086 1773-1053.50Q1800-1021 1811.50-978.50Q1823-936 1823-889Q1823-863 1819-833.50Q1815-804 1809.50-774Q1804-744 1797.50-714Q1791-684 1786-657L1739-438Q1726-383 1718-334Q1710-285 1710-242Q1710-197 1729-173.50Q1748-150 1782-150Q1814-150 1840.50-162Q1867-174 1903-197L1952-127Q1927-101 1896-75.50Q1865-50 1826.50-30Q1788-10 1741 2Q1694 14 1638 14Z"/><path id="s13:droidserif-bolditalic:69" d="M315-1274Q318-1287 321-1301Q324-1315 326-1327.50Q328-1340 329-1349Q330-1358 330-1362Q330-1390 324-1407Q318-1424 305-1433Q292-1442 271-1445Q250-1448 221-1448L174-1448L193-1556L690-1556L608-1167Q604-1148 595.50-1119Q587-1090 576.50-1056Q566-1022 553.50-986.50Q541-951 530-919Q519-887 510-861Q501-835 496-821L506-821Q543-896 583-951.50Q623-1007 670-1044Q717-1081 772-1099.50Q827-1118 895-1118Q960-1118 1015-1094Q1070-1070 1109.50-1023.50Q1149-977 1171.50-907.50Q1194-838 1194-748Q1194-665 1174-576Q1154-487 1115-401.50Q1076-316 1019.50-239.50Q963-163 889.50-105.50Q816-48 727-14Q638 20 535 20Q493 20 454 14Q415 8 381.50-2Q348-12 320.50-25Q293-38 274-53L158 6L43 6L315-1274M883-733Q883-794 874.50-836Q866-878 851-904Q836-930 816-942Q796-954 774-954Q736-954 701-931.50Q666-909 634.50-873Q603-837 576.50-792.50Q550-748 529.50-703.50Q509-659 495-619.50Q481-580 475-555L391-168Q413-143 447-127Q481-111 524-111Q584-111 634-142.50Q684-174 724-225.50Q764-277 793.50-343Q823-409 843-478Q863-547 873-613.50Q883-680 883-733Z"/><path id="s13:droidserif-bolditalic:73" d="M870-958L610-958L416-43Q393 66 356.50 148Q320 230 274.50 289.50Q229 349 176 388Q123 427 67 450Q11 473-47 482.50Q-105 492-160 492Q-175 492-193 490.50Q-211 489-228 486.50Q-245 484-260 481Q-275 478-285 475L-260 356Q-243 361-216 366Q-189 371-166 371Q-116 371-77.50 354Q-39 337-8.50 296.50Q22 256 46.50 188Q71 120 92 18L299-958L113-958L133-1055L330-1098L346-1174Q370-1275 410-1350.50Q450-1426 509-1476.50Q568-1527 647.50-1552Q727-1577 831-1577Q910-1577 970.50-1563Q1031-1549 1071.50-1525Q1112-1501 1132.50-1468.50Q1153-1436 1153-1399Q1153-1331 1093-1293Q1033-1255 918-1255Q918-1294 913.50-1330.50Q909-1367 898-1395Q887-1423 869-1439.50Q851-1456 823-1456Q758-1456 723.50-1400Q689-1344 668-1229L641-1098L899-1098L870-958Z"/><path id="s13:droidserif-bolditalic:87" d="M553-147Q601-147 640-163Q679-179 713-201L760-123Q726-94 688.50-68Q651-42 607-22.50Q563-3 512.50 8.50Q462 20 403 20Q347 20 298.50 5.50Q250-9 214-38.50Q178-68 157.50-113Q137-158 137-219Q137-237 138.50-259Q140-281 143-304Q146-327 150-349.50Q154-372 158-391L281-958L123-958L145-1063Q189-1063 241-1078Q293-1093 347.50-1127Q402-1161 456.50-1216Q511-1271 559-1350L678-1350L625-1098L872-1098L844-958L594-958L471-397Q460-352 455.50-315.50Q451-279 451-250Q451-199 479-173Q507-147 553-147Z"/><path id="s13:droidserif-bolditalic:76" d="M621-1098L479-432Q467-376 459-327.50Q451-279 451-236Q451-191 469.50-167Q488-143 522-143Q554-143 581-155Q608-167 643-190L692-121Q668-95 637-69.50Q606-44 567-24Q528-4 481.50 8Q435 20 379 20Q261 20 198-35.50Q135-91 135-190Q135-234 143-295Q151-356 168-434L248-815Q251-828 253.50-842Q256-856 258-868.50Q260-881 261-890Q262-899 262-903Q262-931 256-948Q250-965 237-974Q224-983 203.50-986Q183-989 154-989L117-989L135-1098L621-1098M479-1282Q445-1282 416-1289.50Q387-1297 365.50-1313Q344-1329 331.50-1353Q319-1377 319-1409Q319-1454 334.50-1485.50Q350-1517 376-1537.50Q402-1558 437-1567.50Q472-1577 510-1577Q543-1577 572.50-1570Q602-1563 624.50-1547Q647-1531 660.50-1506.50Q674-1482 674-1448Q674-1406 657.50-1374.50Q641-1343 613.50-1322.50Q586-1302 551-1292Q516-1282 479-1282Z"/><path id="s13:droidserif-bolditalic:92" d="M160-881Q143-942 110.50-965.50Q78-989 18-989L-2-989L23-1098L424-1098L559-567Q569-527 580-473.50Q591-420 601-366.50Q611-313 618-266.50Q625-220 627-195L633-195Q694-277 748-360Q802-443 842.50-521.50Q883-600 906.50-671Q930-742 930-801Q930-870 896.50-906Q863-942 803-942Q803-982 815.50-1014.50Q828-1047 850-1070Q872-1093 902-1105.50Q932-1118 967-1118Q1050-1118 1092.50-1072Q1135-1026 1135-944Q1135-864 1108-775Q1081-686 1031-586Q981-486 909.50-374Q838-262 748-137Q674-33 609 54Q544 141 481.50 211Q419 281 354.50 333.50Q290 386 217.50 421.50Q145 457 59.50 474.50Q-26 492-131 492Q-190 492-245.50 482Q-301 472-344 455L-313 340Q-289 348-245.50 357.50Q-202 367-139 367Q-45 367 33 342Q111 317 177.50 274.50Q244 232 302.50 175Q361 118 416 53L160-881Z"/><path id="s13:droidserif-bolditalic:17" d="M434-168Q434-117 418.50-81.50Q403-46 377.50-24.50Q352-3 320 6.50Q288 16 256 16Q182 16 136-20Q90-56 90-131Q90-173 102.50-207Q115-241 138.50-265Q162-289 194.50-302Q227-315 268-315Q303-315 333.50-306Q364-297 386.50-279Q409-261 421.50-233Q434-205 434-168Z"/><path id="s13:droidserif-bolditalic:91" d="M-41 0L-20-109L6-109Q35-109 58.50-113.50Q82-118 105.50-132Q129-146 157-172Q185-198 223-240L481-524L340-864Q324-903 308.50-927Q293-951 275-965Q257-979 235-984Q213-989 184-989L160-989L180-1098L565-1098L709-709L993-1098L1243-1098L1223-989L1186-989Q1156-989 1132.50-983Q1109-977 1085.50-960.50Q1062-944 1035.50-915.50Q1009-887 973-842L762-598L911-254Q930-211 946.50-183Q963-155 981-138.50Q999-122 1021-115.50Q1043-109 1073-109L1100-109L1079 0L682 0L528-414L209 0L-41 0Z"/><path id="s13:droidserif-bolditalic:70" d="M621-135Q675-135 718.50-149.50Q762-164 797-188Q832-212 859-242Q886-272 907-303Q920-291 929-267.50Q938-244 938-213Q938-173 914.50-131.50Q891-90 841.50-56.50Q792-23 716-1.50Q640 20 535 20Q442 20 359.50-6Q277-32 215.50-85Q154-138 118-217Q82-296 82-403Q82-479 101-561.50Q120-644 158-723.50Q196-803 252.50-874.50Q309-946 384-1000Q459-1054 552-1086Q645-1118 756-1118Q841-1118 902.50-1100.50Q964-1083 1003.50-1053.50Q1043-1024 1062-984.50Q1081-945 1081-901Q1081-869 1067.50-838.50Q1054-808 1024-783.50Q994-759 946.50-744Q899-729 831-729Q831-783 821.50-831.50Q812-880 793-916.50Q774-953 746.50-974Q719-995 682-995Q638-995 599.50-965.50Q561-936 529-887.50Q497-839 472.50-776.50Q448-714 430.50-647.50Q413-581 404-516.50Q395-452 395-399Q395-274 452-204.50Q509-135 621-135Z"/><path id="s13:droidserif-bolditalic:41" d="M514-242Q509-219 506.50-202.50Q504-186 504-178Q504-156 515-142.50Q526-129 546-121.50Q566-114 593.50-111.50Q621-109 653-109L680-109L657 0L-47 0L-25-109L2-109Q34-109 64.50-113Q95-117 120-130Q145-143 163.50-167Q182-191 190-231L399-1214Q412-1267 412-1284Q412-1306 401-1320Q390-1334 370.50-1341.50Q351-1349 323.50-1351.50Q296-1354 264-1354L238-1354L260-1462L1386-1462L1315-1081L1169-1081Q1171-1098 1173-1117Q1175-1136 1176.50-1153.50Q1178-1171 1179-1183.50Q1180-1196 1180-1200Q1180-1229 1172-1254Q1164-1279 1146-1297.50Q1128-1316 1098.50-1326.50Q1069-1337 1026-1337L748-1337L629-778L1114-778L1090-657L604-657L514-242Z"/><path id="s13:droidserif-bolditalic:15" d="M428-127Q428-49 399.50 21Q371 91 314.50 148Q258 205 173.50 246.50Q89 288-23 309L0 201Q211 151 211 31Q211 10 202.50-5.50Q194-21 181-33.50Q168-46 153.50-58Q139-70 126-85.50Q113-101 104.50-121.50Q96-142 96-172Q96-205 108.50-231Q121-257 142-275.50Q163-294 191-303.50Q219-313 250-313Q287-313 319.50-300.50Q352-288 376-264.50Q400-241 414-206.50Q428-172 428-127Z"/></defs><g id="line-0"><use x="0" y="1661" xlink:href="#s13:droidserif-bolditalic:55"/><use x="1337" y="1661" xlink:href="#s13:droidserif-bolditalic:75"/><use x="2680" y="1661" xlink:href="#s13:droidserif-bolditalic:72"/><use x="3776" y="1661" xlink:href="#s13:droidserif-bolditalic:3"/><use x="4308" y="1661" xlink:href="#s13:droidserif-bolditalic:40"/><use x="5604" y="1661" xlink:href="#s13:droidserif-bolditalic:88"/><use x="6982" y="1661" xlink:href="#s13:droidserif-bolditalic:85"/><use x="8110" y="1661" xlink:href="#s13:droidserif-bolditalic:82"/><use x="9376" y="1661" xlink:href="#s13:droidserif-bolditalic:83"/><use x="10652" y="1661" xlink:href="#s13:droidserif-bolditalic:72"/><use x="11748" y="1661" xlink:href="#s13:droidserif-bolditalic:68"/><use x="13110" y="1661" xlink:href="#s13:droidserif-bolditalic:81"/><use x="14486" y="1661" xlink:href="#s13:droidserif-bolditalic:3"/><use x="15018" y="1661" xlink:href="#s13:droidserif-bolditalic:79"/><use x="15743" y="1661" xlink:href="#s13:droidserif-bolditalic:68"/><use x="17105" y="1661" xlink:href="#s13:droidserif-bolditalic:81"/><use x="18481" y="1661" xlink:href="#s13:droidserif-bolditalic:74"/><use x="19669" y="1661" xlink:href="#s13:droidserif-bolditalic:88"/><use x="21047" y="1661" xlink:href="#s13:droidserif-bolditalic:68"/><use x="22409" y="1661" xlink:href="#s13:droidserif-bolditalic:74"/><use x="23597" y="1661" xlink:href="#s13:droidserif-bolditalic:72"/><use x="24693" y="1661" xlink:href="#s13:droidserif-bolditalic:86"/><use x="25746" y="1661" xlink:href="#s13:droidserif-bolditalic:3"/><use x="26278" y="1661" xlink:href="#s13:droidserif-bolditalic:68"/><use x="27640" y="1661" xlink:href="#s13:droidserif-bolditalic:85"/><use x="28768" y="1661" xlink:href="#s13:droidserif-bolditalic:72"/><use x="29864" y="1661" xlink:href="#s13:droidserif-bolditalic:3"/><use x="30396" y="1661" xlink:href="#s13:droidserif-bolditalic:80"/><use x="32381" y="1661" xlink:href="#s13:droidserif-bolditalic:72"/><use x="33477" y="1661" xlink:href="#s13:droidserif-bolditalic:80"/><use x="35462" y="1661" xlink:href="#s13:droidserif-bolditalic:69"/><use x="36738" y="1661" xlink:href="#s13:droidserif-bolditalic:72"/><use x="37834" y="1661" xlink:href="#s13:droidserif-bolditalic:85"/><use x="38962" y="1661" xlink:href="#s13:droidserif-bolditalic:86"/><use x="40015" y="1661" xlink:href="#s13:droidserif-bolditalic:3"/><use x="40547" y="1661" xlink:href="#s13:droidserif-bolditalic:82"/><use x="41813" y="1661" xlink:href="#s13:droidserif-bolditalic:73"/><use x="42640" y="1661" xlink:href="#s13:droidserif-bolditalic:3"/><use x="43172" y="1661" xlink:href="#s13:droidserif-bolditalic:87"/><use x="44026" y="1661" xlink:href="#s13:droidserif-bolditalic:75"/><use x="45369" y="1661" xlink:href="#s13:droidserif-bolditalic:72"/><use x="46465" y="1661" xlink:href="#s13:droidserif-bolditalic:3"/><use x="46997" y="1661" xlink:href="#s13:droidserif-bolditalic:86"/><use x="48050" y="1661" xlink:href="#s13:droidserif-bolditalic:68"/><use x="49412" y="1661" xlink:href="#s13:droidserif-bolditalic:80"/><use x="51397" y="1661" xlink:href="#s13:droidserif-bolditalic:72"/><use x="52493" y="1661" xlink:href="#s13:droidserif-bolditalic:3"/><use x="53025" y="1661" xlink:href="#s13:droidserif-bolditalic:73"/><use x="53852" y="1661" xlink:href="#s13:droidserif-bolditalic:68"/><use x="55214" y="1661" xlink:href="#s13:droidserif-bolditalic:80"/><use x="57199" y="1661" xlink:href="#s13:droidserif-bolditalic:76"/><use x="57924" y="1661" xlink:href="#s13:droidserif-bolditalic:79"/><use x="58649" y="1661" xlink:href="#s13:droidserif-bolditalic:92"/><use x="59665" y="1661" xlink:href="#s13:droidserif-bolditalic:17"/></g><g id="line-1"><use x="12027" y="4118.6" xlink:href="#s13:droidserif-bolditalic:55"/><use x="13364" y="4118.6" xlink:href="#s13:droidserif-bolditalic:75"/><use x="14707" y="4118.6" xlink:href="#s13:droidserif-bolditalic:72"/><use x="15803" y="4118.6" xlink:href="#s13:droidserif-bolditalic:76"/><use x="16528" y="4118.6" xlink:href="#s13:droidserif-bolditalic:85"/><use x="17656" y="4118.6" xlink:href="#s13:droidserif-bolditalic:3"/><use x="18188" y="4118.6" xlink:href="#s13:droidserif-bolditalic:86"/><use x="19241" y="4118.6" xlink:href="#s13:droidserif-bolditalic:72"/><use x="20337" y="4118.6" xlink:href="#s13:droidserif-bolditalic:83"/><use x="21613" y="4118.6" xlink:href="#s13:droidserif-bolditalic:68"/><use x="22975" y="4118.6" xlink:href="#s13:droidserif-bolditalic:85"/><use x="24062" y="4118.6" xlink:href="#s13:droidserif-bolditalic:68"/><use x="25424" y="4118.6" xlink:href="#s13:droidserif-bolditalic:87"/><use x="26278" y="4118.6" xlink:href="#s13:droidserif-bolditalic:72"/><use x="27374" y="4118.6" xlink:href="#s13:droidserif-bolditalic:3"/><use x="27906" y="4118.6" xlink:href="#s13:droidserif-bolditalic:72"/><use x="29002" y="4118.6" xlink:href="#s13:droidserif-bolditalic:91"/><use x="30239" y="4118.6" xlink:href="#s13:droidserif-bolditalic:76"/><use x="30964" y="4118.6" xlink:href="#s13:droidserif-bolditalic:86"/><use x="32017" y="4118.6" xlink:href="#s13:droidserif-bolditalic:87"/><use x="32871" y="4118.6" xlink:href="#s13:droidserif-bolditalic:72"/><use x="33967" y="4118.6" xlink:href="#s13:droidserif-bolditalic:81"/><use x="35343" y="4118.6" xlink:href="#s13:droidserif-bolditalic:70"/><use x="36424" y="4118.6" xlink:href="#s13:droidserif-bolditalic:72"/><use x="37520" y="4118.6" xlink:href="#s13:droidserif-bolditalic:3"/><use x="38052" y="4118.6" xlink:href="#s13:droidserif-bolditalic:76"/><use x="38777" y="4118.6" xlink:href="#s13:droidserif-bolditalic:86"/><use x="39830" y="4118.6" xlink:href="#s13:droidserif-bolditalic:3"/><use x="40362" y="4118.6" xlink:href="#s13:droidserif-bolditalic:68"/><use x="41724" y="4118.6" xlink:href="#s13:droidserif-bolditalic:3"/><use x="42256" y="4118.6" xlink:href="#s13:droidserif-bolditalic:80"/><use x="44241" y="4118.6" xlink:href="#s13:droidserif-bolditalic:92"/><use x="45441" y="4118.6" xlink:href="#s13:droidserif-bolditalic:87"/><use x="46295" y="4118.6" xlink:href="#s13:droidserif-bolditalic:75"/><use x="47638" y="4118.6" xlink:href="#s13:droidserif-bolditalic:17"/></g><g id="line-2"><use x="14907.5" y="6576.2" xlink:href="#s13:droidserif-bolditalic:41"/><use x="16097.5" y="6576.2" xlink:href="#s13:droidserif-bolditalic:82"/><use x="17363.5" y="6576.2" xlink:href="#s13:droidserif-bolditalic:85"/><use x="18491.5" y="6576.2" xlink:href="#s13:droidserif-bolditalic:3"/><use x="19023.5" y="6576.2" xlink:href="#s13:droidserif-bolditalic:86"/><use x="20076.5" y="6576.2" xlink:href="#s13:droidserif-bolditalic:70"/><use x="21157.5" y="6576.2" xlink:href="#s13:droidserif-bolditalic:76"/><use x="21882.5" y="6576.2" xlink:href="#s13:droidserif-bolditalic:72"/><use x="22978.5" y="6576.2" xlink:href="#s13:droidserif-bolditalic:81"/><use x="24354.5" y="6576.2" xlink:href="#s13:droidserif-bolditalic:70"/><use x="25435.5" y="6576.2" xlink:href="#s13:droidserif-bolditalic:72"/><use x="26531.5" y="6576.2" xlink:href="#s13:droidserif-bolditalic:15"/><use x="27133.5" y="6576.2" xlink:href="#s13:droidserif-bolditalic:3"/><use x="27665.5" y="6576.2" xlink:href="#s13:droidserif-bolditalic:80"/><use x="29650.5" y="6576.2" xlink:href="#s13:droidserif-bolditalic:88"/><use x="31028.5" y="6576.2" xlink:href="#s13:droidserif-bolditalic:86"/><use x="32081.5" y="6576.2" xlink:href="#s13:droidserif-bolditalic:76"/><use x="32806.5" y="6576.2" xlink:href="#s13:droidserif-bolditalic:70"/><use x="33887.5" y="6576.2" xlink:href="#s13:droidserif-bolditalic:15"/><use x="34489.5" y="6576.2" xlink:href="#s13:droidserif-bolditalic:3"/><use x="35021.5" y="6576.2" xlink:href="#s13:droidserif-bolditalic:86"/><use x="36074.5" y="6576.2" xlink:href="#s13:droidserif-bolditalic:83"/><use x="37350.5" y="6576.2" xlink:href="#s13:droidserif-bolditalic:82"/><use x="38616.5" y="6576.2" xlink:href="#s13:droidserif-bolditalic:85"/><use x="39744.5" y="6576.2" xlink:href="#s13:droidserif-bolditalic:87"/><use x="40598.5" y="6576.2" xlink:href="#s13:droidserif-bolditalic:15"/><use x="41200.5" y="6576.2" xlink:href="#s13:droidserif-bolditalic:3"/><use x="41732.5" y="6576.2" xlink:href="#s13:droidserif-bolditalic:72"/><use x="42828.5" y="6576.2" xlink:href="#s13:droidserif-bolditalic:87"/><use x="43682.5" y="6576.2" xlink:href="#s13:droidserif-bolditalic:70"/><use x="44763.5" y="6576.2" xlink:href="#s13:droidserif-bolditalic:15"/></g></svg>