<svg xmlns="http://www.w3.org/2000/svg" xmlns:xlink="http://www.w3.org/1999/xlink" width="769" height="86" viewBox="0 0 65633 7355.7"><defs><path id="s11:droidsansmono:55" d="M707 0L520 0L520-1298L102-1298L102-1462L1124-1462L1124-1298L707-1298L707 0Z"/><path id="s11:droidsansmono:75" d="M887 0L887-707Q887-967 649-967Q342-967 342-569L342 0L160 0L160-1556L342-1556L342-1094L334-950L344-950Q447-1118 680-1118Q1069-1118 1069-717L1069 0L887 0Z"/><path id="s11:droidsansmono:72" d="M1096-514L322-514Q330-139 666-139Q861-139 1036-215L1036-55Q870 20 672 20Q427 20 280-129.50Q133-279 133-541Q133-807 268.50-962.50Q404-1118 631-1118Q843-1118 969.50-984Q1096-850 1096-627L1096-514M326-662L899-662Q899-967 627-967Q352-967 326-662Z"/><path id="s11:droidsansmono:3" d=""/><path id="s11:droidsansmono:40" d="M1059 0L217 0L217-1462L1059-1462L1059-1298L403-1298L403-846L1020-846L1020-684L403-684L403-164L1059-164L1059 0Z"/><path id="s11:droidsansmono:88" d="M922 0L895-147L885-147Q780 20 551 20Q160 20 160-381L160-1098L342-1098L342-391Q342-131 578-131Q739-131 813-223.50Q887-316 887-528L887-1098L1069-1098L1069 0L922 0Z"/><path id="s11:droidsansmono:85" d="M1059-1073L1010-907Q887-952 786-952Q623-952 534.50-859.50Q446-767 446-592L446 0L264 0L264-1098L412-1098L434-897L442-897Q518-1016 605-1067Q692-1118 819-1118Q937-1118 1059-1073Z"/><path id="s11:droidsansmono:82" d="M610 20Q394 20 254.50-135.50Q115-291 115-551Q115-814 250.50-966Q386-1118 616-1118Q834-1118 973-963Q1112-808 1112-551Q1112-286 975-133Q838 20 610 20M614-131Q924-131 924-551Q924-967 612-967Q303-967 303-551Q303-131 614-131Z"/><path id="s11:droidsansmono:83" d="M340-139L328-139Q340-10 340 23L340 492L158 492L158-1098L305-1098L332-950L340-950Q450-1118 662-1118Q863-1118 977.50-968.50Q1092-819 1092-551Q1092-281 977-130.50Q862 20 662 20Q455 20 340-139M340-592L340-551Q340-324 409.50-227.50Q479-131 631-131Q903-131 903-553Q903-967 629-967Q477-967 410.50-879Q344-791 340-592Z"/><path id="s11:droidsansmono:68" d="M895 0L858-152L850-152Q773-55 692-17.50Q611 20 483 20Q320 20 227.50-66Q135-152 135-307Q135-639 645-655L848-662L848-731Q848-967 604-967Q457-967 276-885L213-1022Q409-1118 596-1118Q823-1118 924.50-1031Q1026-944 1026-752L1026 0L895 0M846-537L684-530Q488-522 406-468.50Q324-415 324-305Q324-127 524-127Q671-127 758.50-208.50Q846-290 846-438L846-537Z"/><path id="s11:droidsansmono:81" d="M887 0L887-707Q887-967 649-967Q342-967 342-569L342 0L160 0L160-1098L307-1098L334-950L344-950Q447-1118 680-1118Q1069-1118 1069-717L1069 0L887 0Z"/><path id="s11:droidsansmono:79" d="M532-1413L264-1434L264-1556L715-1556L715-143L1067-123L1067 0L188 0L188-123L532-143L532-1413Z"/><path id="s11:droidsansmono:74" d="M1126-1098L1126-985L930-958Q995-873 995-745Q995-584 888.50-488.50Q782-393 592-393Q537-393 506-399Q406-343 406-266Q406-182 567-182L754-182Q928-182 1020-105Q1112-28 1112 115Q1112 492 547 492Q329 492 215.50 411.50Q102 331 102 186Q102-26 342-84Q246-131 246-238Q246-350 379-430Q290-467 239-552.50Q188-638 188-739Q188-921 294.50-1019.50Q401-1118 598-1118Q684-1118 748-1098L1126-1098M594-518Q817-518 817-748Q817-987 592-987Q367-987 367-745Q367-518 594-518M692-18L504-18Q274-18 274 180Q274 354 545 354Q940 354 940 131Q940 43 890 12.50Q840-18 692-18Z"/><path id="s11:droidsansmono:86" d="M203-49L203-215Q396-129 573-129Q848-129 848-291Q848-348 799-390Q750-432 573-496Q340-583 279.50-655.50Q219-728 219-827Q219-963 330.50-1040.50Q442-1118 639-1118Q837-1118 1008-1044L948-895Q766-967 629-967Q393-967 393-834Q393-773 443.50-736.50Q494-700 676-635Q887-558 956.50-483.50Q1026-409 1026-301Q1026-151 909-65.50Q792 20 578 20Q330 20 203-49Z"/><path id="s11:droidsansmono:80" d="M977 0L977-707Q977-853 950.50-910Q924-967 862-967Q775-967 735.50-884Q696-801 696-606L696 0L535 0L535-707Q535-967 410-967Q326-967 290-887.50Q254-808 254-569L254 0L92 0L92-1098L219-1098L246-950L256-950Q323-1118 457-1118Q620-1118 670-936L676-936Q752-1118 895-1118Q1023-1118 1081-1025.50Q1139-933 1139-717L1139 0L977 0Z"/><path id="s11:droidsansmono:69" d="M340-139L328-139L291 0L158 0L158-1556L340-1556L340-1180Q340-1099 332-954L340-954Q447-1118 662-1118Q863-1118 977.50-968.50Q1092-819 1092-551Q1092-281 977-130.50Q862 20 662 20Q455 20 340-139M340-551Q340-324 409.50-227.50Q479-131 631-131Q903-131 903-553Q903-967 629-967Q474-967 407-873Q340-779 340-551Z"/><path id="s11:droidsansmono:73" d="M1044-961L655-961L655 0L473 0L473-961L156-961L156-1071L473-1104L473-1200Q473-1393 563-1480Q653-1567 862-1567Q991-1567 1114-1532L1073-1389Q969-1417 866-1417Q743-1417 699-1367Q655-1317 655-1202L655-1098L1044-1098L1044-961Z"/><path id="s11:droidsansmono:87" d="M1020-150L1020-12Q890 20 768 20Q406 20 406-324L406-961L139-961L139-1055L406-1104L483-1391L588-1391L588-1098L1026-1098L1026-961L588-961L588-324Q588-129 780-129Q873-129 1020-150Z"/><path id="s11:droidsansmono:76" d="M633-1550Q739-1550 739-1436Q739-1378 707.50-1349.50Q676-1321 633-1321Q526-1321 526-1436Q526-1550 633-1550M541-954L272-975L272-1098L723-1098L723-143L1075-123L1075 0L197 0L197-123L541-143L541-954Z"/><path id="s11:droidsansmono:92" d="M82-1098L270-1098L532-444Q614-239 621-154L627-154Q650-266 717-446L956-1098L1145-1098L670 143Q603 317 514 404.50Q425 492 268 492Q182 492 100 475L100 330Q162 342 236 342Q332 342 385.50 301Q439 260 481 160L539 10L82-1098Z"/><path id="s11:droidsansmono:17" d="M614-301Q766-301 766-135Q766 31 614 31Q463 31 463-135Q463-301 614-301Z"/><path id="s11:droidsansmono:91" d="M510-563L117-1098L324-1098L614-688L905-1098L1112-1098L717-563L1130 0L924 0L614-436L303 0L96 0L510-563Z"/><path id="s11:droidsansmono:70" d="M1061-1059L999-901Q849-958 731-958Q360-958 360-545Q360-139 721-139Q878-139 1042-201L1042-41Q908 20 713 20Q456 20 314-125.50Q172-271 172-543Q172-824 317-971Q462-1118 725-1118Q903-1118 1061-1059Z"/><path id="s11:droidsansmono:41" d="M430 0L244 0L244-1462L1085-1462L1085-1298L430-1298L430-782L1047-782L1047-618L430-618L430 0Z"/><path id="s11:droidsansmono:15" d="M770-262L786-238Q729-14 592 289L440 289Q516-34 551-262L770-262Z"/></defs><g id="line-0"><use x="0" y="1885.5" xlink:href="#s11:droidsansmono:55"/><use x="1229" y="1885.5" xlink:href="#s11:droidsansmono:75"/><use x="2458" y="1885.5" xlink:href="#s11:droidsansmono:72"/><use x="3687" y="1885.5" xlink:href="#s11:droidsansmono:3"/><use x="4916" y="1885.5" xlink:href="#s11:droidsansmono:40"/><use x="6145" y="1885.5" xlink:href="#s11:droidsansmono:88"/><use x="7374" y="1885.5" xlink:href="#s11:droidsansmono:85"/><use x="8603" y="1885.5" xlink:href="#s11:droidsansmono:82"/><use x="9832" y="1885.5" xlink:href="#s11:droidsansmono:83"/><use x="11061" y="1885.5" xlink:href="#s11:droidsansmono:72"/><use x="12290" y="1885.5" xlink:href="#s11:droidsansmono:68"/><use x="13519" y="1885.5" xlink:href="#s11:droidsansmono:81"/><use x="14748" y="1885.5" xlink:href="#s11:droidsansmono:3"/><use x="15977" y="1885.5" xlink:href="#s11:droidsansmono:79"/><use x="17206" y="1885.5" xlink:href="#s11:droidsansmono:68"/><use x="18435" y="1885.5" xlink:href="#s11:droidsansmono:81"/><use x="19664" y="1885.5" xlink:href="#s11:droidsansmono:74"/><use x="20893" y="1885.5" xlink:href="#s11:droidsansmono:88"/><use x="22122" y="1885.5" xlink:href="#s11:droidsansmono:68"/><use x="23351" y="1885.5" xlink:href="#s11:droidsansmono:74"/><use x="24580" y="1885.5" xlink:href="#s11:droidsansmono:72"/><use x="25809" y="1885.5" xlink:href="#s11:droidsansmono:86"/><use x="27038" y="1885.5" xlink:href="#s11:droidsansmono:3"/><use x="28267" y="1885.5" xlink:href="#s11:droidsansmono:68"/><use x="29496" y="1885.5" xlink:href="#s11:droidsansmono:85"/><use x="30725" y="1885.5" xlink:href="#s11:droidsansmono:72"/><use x="31954" y="1885.5" xlink:href="#s11:droidsansmono:3"/><use x="33183" y="1885.5" xlink:href="#s11:droidsansmono:80"/><use x="34412" y="1885.5" xlink:href="#s11:droidsansmono:72"/><use x="35641" y="1885.5" xlink:href="#s11:droidsansmono:80"/><use x="36870" y="1885.5" xlink:href="#s11:droidsansmono:69"/><use x="38099" y="1885.5" xlink:href="#s11:droidsansmono:72"/><use x="39328" y="1885.5" xlink:href="#s11:droidsansmono:85"/><use x="40557" y="1885.5" xlink:href="#s11:droidsansmono:86"/><use x="41786" y="1885.5" xlink:href="#s11:droidsansmono:3"/><use x="43015" y="1885.5" xlink:href="#s11:droidsansmono:82"/><use x="44244" y="1885.5" xlink:href="#s11:droidsansmono:73"/><use x="45473" y="1885.5" xlink:href="#s11:droidsansmono:3"/><use x="46702" y="1885.5" xlink:href="#s11:droidsansmono:87"/><use x="47931" y="1885.5" xlink:href="#s11:droidsansmono:75"/><use x="49160" y="1885.5" xlink:href="#s11:droidsansmono:72"/><use x="50389" y="1885.5" xlink:href="#s11:droidsansmono:3"/><use x="51618" y="1885.5" xlink:href="#s11:droidsansmono:86"/><use x="52847" y="1885.5" xlink:href="#s11:droidsansmono:68"/><use x="54076" y="1885.5" xlink:href="#s11:droidsansmono:80"/><use x="55305" y="1885.5" xlink:href="#s11:droidsansmono:72"/><use x="56534" y="1885.5" xlink:href="#s11:droidsansmono:3"/><use x="57763" y="1885.5" xlink:href="#s11:droidsansmono:73"/><use x="58992" y="1885.5" xlink:href="#s11:droidsansmono:68"/><use x="60221" y="1885.5" xlink:href="#s11:droidsansmono:80"/><use x="61450" y="1885.5" xlink:href="#s11:droidsansmono:76"/><use x="62679" y="1885.5" xlink:href="#s11:droidsansmono:79"/><use x="63908" y="1885.5" xlink:href="#s11:droidsansmono:92"/><use x="65137" y="1885.5" xlink:href="#s11:droidsansmono:17"/></g><g id="line-1"><use x="11675.5" y="4343.1" xlink:href="#s11:droidsansmono:55"/><use x="12904.5" y="4343.1" xlink:href="#s11:droidsansmono:75"/><use x="14133.5" y="4343.1" xlink:href="#s11:droidsansmono:72"/><use x="15362.5" y="4343.1" xlink:href="#s11:droidsansmono:76"/><use x="16591.5" y="4343.1" xlink:href="#s11:droidsansmono:85"/><use x="17820.5" y="4343.1" xlink:href="#s11:droidsansmono:3"/><use x="19049.5" y="4343.1" xlink:href="#s11:droidsansmono:86"/><use x="20278.5" y="4343.1" xlink:href="#s11:droidsansmono:72"/><use x="21507.5" y="4343.1" xlink:href="#s11:droidsansmono:83"/><use x="22736.5" y="4343.1" xlink:href="#s11:droidsansmono:68"/><use x="23965.5" y="4343.1" xlink:href="#s11:droidsansmono:85"/><use x="25194.5" y="4343.1" xlink:href="#s11:droidsansmono:68"/><use x="26423.5" y="4343.1" xlink:href="#s11:droidsansmono:87"/><use x="27652.5" y="4343.1" xlink:href="#s11:droidsansmono:72"/><use x="28881.5" y="4343.1" xlink:href="#s11:droidsansmono:3"/><use x="30110.5" y="4343.1" xlink:href="#s11:droidsansmono:72"/><use x="31339.5" y="4343.1" xlink:href="#s11:droidsansmono:91"/><use x="32568.5" y="4343.1" xlink:href="#s11:droidsansmono:76"/><use x="33797.5" y="4343.1" xlink:href="#s11:droidsansmono:86"/><use x="35026.5" y="4343.1" xlink:href="#s11:droidsansmono:87"/><use x="36255.5" y="4343.1" xlink:href="#s11:droidsansmono:72"/><use x="37484.5" y="4343.1" xlink:href="#s11:droidsansmono:81"/><use x="38713.5" y="4343.1" xlink:href="#s11:droidsansmono:70"/><use x="39942.5" y="4343.1" xlink:href="#s11:droidsansmono:72"/><use x="41171.5" y="4343.1" xlink:href="#s11:droidsansmono:3"/><use x="42400.5" y="4343.1" xlink:href="#s11:droidsansmono:76"/><use x="43629.5" y="4343.1" xlink:href="#s11:droidsansmono:86"/><use x="44858.5" y="4343.1" xlink:href="#s11:droidsansmono:3"/><use x="46087.5" y="4343.1" xlink:href="#s11:droidsansmono:68"/><use x="47316.5" y="4343.1" xlink:href="#s11:droidsansmono:3"/><use x="48545.5" y="4343.1" xlink:href="#s11:droidsansmono:80"/><use x="49774.5" y="4343.1" xlink:href="#s11:droidsansmono:92"/><use x="51003.5" y="4343.1" xlink:href="#s11:droidsansmono:87"/><use x="52232.5" y="4343.1" xlink:href="#s11:droidsansmono:75"/><use x="53461.5" y="4343.1" xlink:href="#s11:droidsansmono:17"/></g><g id="line-2"><use x="14112" y="6800.7" xlink:href="#s11:droidsansmono:41"/><use x="15341" y="6800.7" xlink:href="#s11:droidsansmono:82"/><use x="16570" y="6800.7" xlink:href="#s11:droidsansmono:85"/><use x="17799" y="6800.7" xlink:href="#s11:droidsansmono:3"/><use x="19028" y="6800.7" xlink:href="#s11:droidsansmono:86"/><use x="20257" y="6800.7" xlink:href="#s11:droidsansmono:70"/><use x="21486" y="6800.7" xlink:href="#s11:droidsansmono:76"/><use x="22715" y="6800.7" xlink:href="#s11:droidsansmono:72"/><use x="23944" y="6800.7" xlink:href="#s11:droidsansmono:81"/><use x="25173" y="6800.7" xlink:href="#s11:droidsansmono:70"/><use x="26402" y="6800.7" xlink:href="#s11:droidsansmono:72"/><use x="27631" y="6800.7" xlink:href="#s11:droidsansmono:15"/><use x="28860" y="6800.7" xlink:href="#s11:droidsansmono:3"/><use x="30089" y="6800.7" xlink:href="#s11:droidsansmono:80"/><use x="31318" y="6800.7" xlink:href="#s11:droidsansmono:88"/><use x="32547" y="6800.7" xlink:href="#s11:droidsansmono:86"/><use x="33776" y="6800.7" xlink:href="#s11:droidsansmono:76"/><use x="35005" y="6800.7" xlink:href="#s11:droidsansmono:70"/><use x="36234" y="6800.7" xlink:href="#s11:droidsansmono:15"/><use x="37463" y="6800.7" xlink:href="#s11:droidsansmono:3"/><use x="38692" y="6800.7" xlink:href="#s11:droidsansmono:86"/><use x="39921" y="6800.7" xlink:href="#s11:droidsansmono:83"/><use x="41150" y="6800.7" xlink:href="#s11:droidsansmono:82"/><use x="42379" y="6800.7" xlink:href="#s11:droidsansmono:85"/><use x="43608" y="6800.7" xlink:href="#s11:droidsansmono:87"/><use x="44837" y="6800.7" xlink:href="#s11:droidsansmono:15"/><use x="46066" y="6800.7" xlink:href="#s11:droidsansmono:3"/><use x="47295" y="6800.7" xlink:href="#s11:droidsansmono:72"/><use x="48524" y="6800.7" xlink:href="#s11:droidsansmono:87"/><use x="49753" y="6800.7" xlink:href="#s11:droidsansmono:70"/><use x="50982" y="6800.7" xlink:href="#s11:droidsansmono:15"/></g></svg>