<svg xmlns="http://www.w3.org/2000/svg" xmlns:xlink="http://www.w3.org/1999/xlink" width="639" height="83" viewBox="0 0 54546 7068.2"><defs><path id="s14:droidserif-italic:55" d="M657-225Q649-187 649-168Q649-86 797-86L844-86L825 0L188 0L207-86L254-86Q357-86 397-121.50Q437-157 451-223L692-1360L496-1360Q350-1360 291-1192L262-1104L156-1104L242-1462L1395-1462L1329-1104L1223-1104Q1233-1184 1233-1229Q1233-1360 1098-1360L899-1360L657-225Z"/><path id="s14:droidserif-italic:75" d="M471-840Q641-1116 850-1116Q1069-1116 1069-889Q1069-824 1032-664L979-422Q952-299 952-207Q952-109 1024-109Q1083-109 1155-156L1192-96Q1058 20 942 20Q857 20 806.50-35Q756-90 756-184Q756-278 795-461L842-673Q872-797 872-864Q872-985 778-985Q664-985 543.50-829.50Q423-674 391-524L281 0L90 0L356-1266Q375-1356 375-1374Q375-1470 231-1470L215-1470L233-1556L610-1556L530-1180Q494-1012 449-840L471-840Z"/><path id="s14:droidserif-italic:72" d="M821-256Q842-243 842-205Q842-123 745.50-51.50Q649 20 487 20Q308 20 198-93Q88-206 88-403Q88-671 261-894.50Q434-1118 698-1118Q828-1118 899.50-1056Q971-994 971-883Q971-717 798.50-594Q626-471 377-471L342-471Q324-471 305-473Q301-445 301-387Q301-109 526-109Q701-109 821-256M324-567L344-567Q525-567 642.50-655Q760-743 760-883Q760-1020 641-1020Q542-1020 456-895.50Q370-771 324-567Z"/><path id="s14:droidserif-italic:3" d=""/><path id="s14:droidserif-italic:40" d="M379-102L774-102Q947-102 1006-270L1038-358L1145-358L1055 0L-43 0L-27-86L0-86Q104-86 144.50-122.50Q185-159 199-223L412-1229Q418-1257 418-1278Q418-1326 390-1351Q362-1376 274-1376L248-1376L266-1462L1298-1462L1233-1104L1126-1104L1132-1167Q1137-1215 1137-1223Q1137-1360 991-1360L647-1360L530-815L1024-815L1004-715L510-715L379-102Z"/><path id="s14:droidserif-italic:88" d="M135-1098L516-1098L381-485Q340-299 340-238Q340-113 440-113Q545-113 666.50-264.50Q788-416 825-588L932-1098L1130-1098L989-440Q958-295 958-213Q958-109 1026-109Q1084-109 1157-154L1194-94Q1064 20 934 20Q857 20 809.50-35Q762-90 762-174Q762-227 772-295L756-295Q645-112 557.50-47Q470 18 360 18Q141 18 141-209Q141-274 178-434L258-793Q276-874 276-915Q276-1012 133-1012L117-1012L135-1098Z"/><path id="s14:droidserif-italic:85" d="M799-821Q799-983 717-983Q622-983 515.50-796Q409-609 358-373L281 0L90 0L262-823Q274-880 274-915Q274-1012 111-1012L94-1012L113-1098L475-1098L432-803L453-803Q535-986 615-1052Q695-1118 801-1118Q969-1118 969-977Q969-821 799-821Z"/><path id="s14:droidserif-italic:82" d="M698-1118Q879-1118 983-1009Q1087-900 1087-694Q1087-421 920-200.50Q753 20 481 20Q296 20 192-92Q88-204 88-403Q88-679 256.50-898.50Q425-1118 698-1118M504-80Q673-80 773.50-280.50Q874-481 874-725Q874-1010 674-1010Q507-1010 404-809Q301-608 301-362Q301-80 504-80Z"/><path id="s14:droidserif-italic:83" d="M389 406L371 492L-14 492L258-807Q276-893 276-915Q276-1012 133-1012L117-1012L135-1098L498-1098L449-825L459-825Q607-1118 834-1118Q959-1118 1026.50-1023Q1094-928 1094-748Q1094-473 922.50-226.50Q751 20 483 20Q366 20 283-27Q274 39 266 72L238 197Q219 282 219 311Q219 406 362 406L389 406M315-145Q381-72 477-72Q648-72 766.50-295.50Q885-519 885-750Q885-989 756-989Q650-989 542-841.50Q434-694 399-535L315-145Z"/><path id="s14:droidserif-italic:68" d="M748-309L735-309Q588 20 352 20Q227 20 157.50-78.50Q88-177 88-354Q88-636 263.50-877Q439-1118 698-1118Q837-1118 938-1044L1028-1096L1094-1096L954-440Q924-299 924-213Q924-109 991-109Q1049-109 1139-162L1176-102Q1029 20 887 20Q727 20 727-150Q727-215 748-309M864-952Q817-1026 709-1026Q534-1026 415.50-803.50Q297-581 297-346Q297-109 426-109Q528-109 640-260Q752-411 788-590L864-952Z"/><path id="s14:droidserif-italic:81" d="M281 0L90 0L262-823Q274-880 274-915Q274-1012 131-1012L115-1012L133-1098L512-1098L457-840L477-840Q643-1116 850-1116Q1069-1116 1069-889Q1069-824 1032-664L979-422Q952-299 952-207Q952-109 1024-109Q1083-109 1155-156L1192-96Q1058 20 942 20Q857 20 806.50-35Q756-90 756-184Q756-278 795-461L842-673Q872-797 872-864Q872-985 778-985Q664-985 544.50-831Q425-677 391-524L281 0Z"/><path id="s14:droidserif-italic:79" d="M207-1470L225-1556L612-1556L375-440Q344-294 344-213Q344-109 412-109Q471-109 559-162L596-102Q454 20 319 20Q245 20 197.50-34Q150-88 150-174Q150-271 195-496L362-1282Q375-1343 375-1374Q375-1470 231-1470L207-1470Z"/><path id="s14:droidserif-italic:74" d="M901-1053Q998-1198 1122-1198Q1225-1198 1225-1104Q1225-977 1104-977Q1104-1051 1047-1051Q1007-1051 946-1004Q991-940 991-846Q991-674 862-530.50Q733-387 522-387Q475-387 457-391Q311-332 311-262Q311-211 416-201L612-180Q930-146 930 88Q930 279 786 385.50Q642 492 375 492Q-72 492-72 225Q-72 115 17.50 37.50Q107-40 262-70Q164-118 164-211Q164-274 204.50-318Q245-362 358-420Q215-487 215-662Q215-835 345.50-976.50Q476-1118 690-1118Q821-1118 901-1053M545-485Q662-485 733.50-601.50Q805-718 805-856Q805-1024 664-1024Q544-1024 473.50-906.50Q403-789 403-653Q403-485 545-485M561-6L362-25Q347-26 273.50-5Q200 16 147 73Q94 130 94 213Q94 391 383 391Q563 391 657.50 324.50Q752 258 752 145Q752 11 561-6Z"/><path id="s14:droidserif-italic:86" d="M741-795Q741-898 692.50-960Q644-1022 557-1022Q465-1022 411.50-972.50Q358-923 358-846Q358-778 409-730Q460-682 567-635Q813-525 813-317Q813-166 697-73Q581 20 389 20Q234 20 142.50-42.50Q51-105 51-211Q51-277 87.50-311.50Q124-346 180-346Q180-219 241.50-148.50Q303-78 414-78Q635-78 635-268Q635-341 588-391.50Q541-442 428-494Q281-564 230.50-638.50Q180-713 180-811Q180-945 289.50-1030.50Q399-1116 575-1116Q726-1116 810.50-1060Q895-1004 895-922Q895-795 741-795Z"/><path id="s14:droidserif-italic:80" d="M920 0L725 0Q725-46 751-212.50Q777-379 795-461L842-673Q872-797 872-864Q872-985 778-985Q664-985 543.50-829.50Q423-674 391-524L281 0L90 0L262-823Q274-880 274-915Q274-1012 131-1012L115-1012L133-1098L512-1098L457-840L477-840Q643-1116 850-1116Q1069-1116 1069-889Q1069-864 1065-840L1085-840Q1252-1116 1458-1116Q1677-1116 1677-889Q1677-824 1640-664L1587-422Q1561-303 1561-207Q1561-109 1632-109Q1691-109 1763-156L1800-96Q1670 20 1550 20Q1466 20 1415-35Q1364-90 1364-184Q1364-278 1403-461L1438-621Q1481-818 1481-864Q1481-985 1386-985Q1281-985 1169-850.50Q1057-716 1012-569L979-422Q966-366 943-203Q920-40 920 0Z"/><path id="s14:droidserif-italic:69" d="M213-53L121 6L55 6L326-1266Q344-1350 344-1374Q344-1470 201-1470L184-1470L203-1556L590-1556L492-1096Q471-997 418-825L428-825Q579-1118 803-1118Q925-1118 994-1024Q1063-930 1063-748Q1063-463 887-221.50Q711 20 453 20Q306 20 213-53M285-145Q347-72 444-72Q622-72 738-299Q854-526 854-750Q854-989 725-989Q613-989 506.50-833.50Q400-678 373-551L285-145Z"/><path id="s14:droidserif-italic:73" d="M719-981L489-981L276 16Q223 263 121 377.50Q19 492-168 492Q-226 492-287 475L-268 381Q-217 395-174 395Q-75 395-18 310Q39 225 84 18L299-981L113-981L125-1055L322-1098L344-1210Q416-1577 733-1577Q864-1577 930.50-1535.50Q997-1494 997-1425Q997-1292 827-1292Q827-1483 723-1483Q648-1483 606.50-1421Q565-1359 541-1229L514-1098L741-1098L719-981Z"/><path id="s14:droidserif-italic:87" d="M616-154L651-78Q513 20 375 20Q152 20 152-219Q152-296 172-391L297-981L141-981L160-1063Q360-1063 473-1350L567-1350L514-1098L762-1098L737-981L489-981L365-397Q340-279 340-221Q340-109 449-109Q532-109 616-154Z"/><path id="s14:droidserif-italic:76" d="M459-1303Q344-1303 344-1415Q344-1480 377.50-1519.50Q411-1559 467-1559Q582-1559 582-1446Q582-1376 547.50-1339.50Q513-1303 459-1303M127-1012L145-1098L512-1098L373-440Q342-293 342-213Q342-109 410-109Q469-109 557-162L594-102Q452 20 317 20Q241 20 194-35Q147-90 147-174Q147-266 193-496L272-872Q279-905 279-926Q279-1012 154-1012L127-1012Z"/><path id="s14:droidserif-italic:92" d="M164-903Q146-963 115-987.50Q84-1012 23-1012L2-1012L18-1098L317-1098L477-545Q551-288 563-174L569-174Q846-595 846-854Q846-965 745-965Q745-1034 785-1075Q825-1116 879-1116Q1018-1116 1018-944Q1018-697 742-249.50Q466 198 299.50 345Q133 492-139 492Q-247 492-332 455L-301 352Q-229 375-141 375Q152 375 434 2L164-903Z"/><path id="s14:droidserif-italic:17" d="M217 16Q90 16 90-109Q90-180 126.50-223Q163-266 225-266Q352-266 352-141Q352-69 315.50-26.50Q279 16 217 16Z"/><path id="s14:droidserif-italic:91" d="M-41 0L-18-86L8-86Q64-86 105.50-111.50Q147-137 221-227L483-545L350-864Q311-959 285.50-985.50Q260-1012 203-1012L176-1012L193-1098L465-1098L621-684L893-1098L1155-1098L1122-1012L1096-1012Q1036-1012 995.50-983Q955-954 883-864L668-588L809-233Q845-141 870.50-113.50Q896-86 956-86L983-86L967 0L692 0L526-451L219 0L-41 0Z"/><path id="s14:droidserif-italic:70" d="M821-256Q842-243 842-205Q842-123 745.50-51.50Q649 20 487 20Q308 20 198-93Q88-206 88-403Q88-671 261-894.50Q434-1118 698-1118Q839-1118 918-1062Q997-1006 997-922Q997-860 947.50-819Q898-778 815-778Q815-887 773-953.50Q731-1020 657-1020Q514-1020 407.50-806Q301-592 301-387Q301-109 526-109Q705-109 821-256Z"/><path id="s14:droidserif-italic:41" d="M-27-86L0-86Q96-86 138-119Q180-152 199-223L414-1237Q422-1275 422-1294Q422-1376 274-1376L248-1376L266-1462L1298-1462L1233-1104L1126-1104L1130-1140Q1131-1159 1133-1176Q1137-1210 1137-1223Q1137-1360 983-1360L647-1360L520-768L1014-768L993-668L500-668L408-233Q401-200 401-182Q401-86 543-86L610-86L594 0L-43 0L-27-86Z"/><path id="s14:droidserif-italic:15" d="M-57 299L-49 213Q160 166 160 41Q160 5 94-37Q27-79 27-141Q27-196 62-229Q97-262 154-262Q223-262 268-216.50Q313-171 313-94Q313 56 218 159.50Q123 263-57 299Z"/></defs><g id="line-0"><use x="0" y="1661" xlink:href="#s14:droidserif-italic:55"/><use x="1255" y="1661" xlink:href="#s14:droidserif-italic:75"/><use x="2482" y="1661" xlink:href="#s14:droidserif-italic:72"/><use x="3492" y="1661" xlink:href="#s14:droidserif-italic:3"/><use x="4024" y="1661" xlink:href="#s14:droidserif-italic:40"/><use x="5300" y="1661" xlink:href="#s14:droidserif-italic:88"/><use x="6527" y="1661" xlink:href="#s14:droidserif-italic:85"/><use x="7485" y="1661" xlink:href="#s14:droidserif-italic:82"/><use x="8661" y="1661" xlink:href="#s14:droidserif-italic:83"/><use x="9843" y="1661" xlink:href="#s14:droidserif-italic:72"/><use x="10853" y="1661" xlink:href="#s14:droidserif-italic:68"/><use x="12039" y="1661" xlink:href="#s14:droidserif-italic:81"/><use x="13266" y="1661" xlink:href="#s14:droidserif-italic:3"/><use x="13798" y="1661" xlink:href="#s14:droidserif-italic:79"/><use x="14421" y="1661" xlink:href="#s14:droidserif-italic:68"/><use x="15607" y="1661" xlink:href="#s14:droidserif-italic:81"/><use x="16834" y="1661" xlink:href="#s14:droidserif-italic:74"/><use x="17973" y="1661" xlink:href="#s14:droidserif-italic:88"/><use x="19200" y="1661" xlink:href="#s14:droidserif-italic:68"/><use x="20386" y="1661" xlink:href="#s14:droidserif-italic:74"/><use x="21525" y="1661" xlink:href="#s14:droidserif-italic:72"/><use x="22535" y="1661" xlink:href="#s14:droidserif-italic:86"/><use x="23485" y="1661" xlink:href="#s14:droidserif-italic:3"/><use x="24017" y="1661" xlink:href="#s14:droidserif-italic:68"/><use x="25203" y="1661" xlink:href="#s14:droidserif-italic:85"/><use x="26161" y="1661" xlink:href="#s14:droidserif-italic:72"/><use x="27171" y="1661" xlink:href="#s14:droidserif-italic:3"/><use x="27703" y="1661" xlink:href="#s14:droidserif-italic:80"/><use x="29538" y="1661" xlink:href="#s14:droidserif-italic:72"/><use x="30548" y="1661" xlink:href="#s14:droidserif-italic:80"/><use x="32383" y="1661" xlink:href="#s14:droidserif-italic:69"/><use x="33534" y="1661" xlink:href="#s14:droidserif-italic:72"/><use x="34544" y="1661" xlink:href="#s14:droidserif-italic:85"/><use x="35502" y="1661" xlink:href="#s14:droidserif-italic:86"/><use x="36452" y="1661" xlink:href="#s14:droidserif-italic:3"/><use x="36984" y="1661" xlink:href="#s14:droidserif-italic:82"/><use x="38160" y="1661" xlink:href="#s14:droidserif-italic:73"/><use x="38811" y="1661" xlink:href="#s14:droidserif-italic:3"/><use x="39343" y="1661" xlink:href="#s14:droidserif-italic:87"/><use x="40097" y="1661" xlink:href="#s14:droidserif-italic:75"/><use x="41324" y="1661" xlink:href="#s14:droidserif-italic:72"/><use x="42334" y="1661" xlink:href="#s14:droidserif-italic:3"/><use x="42866" y="1661" xlink:href="#s14:droidserif-italic:86"/><use x="43816" y="1661" xlink:href="#s14:droidserif-italic:68"/><use x="45002" y="1661" xlink:href="#s14:droidserif-italic:80"/><use x="46837" y="1661" xlink:href="#s14:droidserif-italic:72"/><use x="47847" y="1661" xlink:href="#s14:droidserif-italic:3"/><use x="48379" y="1661" xlink:href="#s14:droidserif-italic:73"/><use x="49030" y="1661" xlink:href="#s14:droidserif-italic:68"/><use x="50216" y="1661" xlink:href="#s14:droidserif-italic:80"/><use x="52051" y="1661" xlink:href="#s14:droidserif-italic:76"/><use x="52674" y="1661" xlink:href="#s14:droidserif-italic:79"/><use x="53297" y="1661" xlink:href="#s14:droidserif-italic:92"/><use x="54194" y="1661" xlink:href="#s14:droidserif-italic:17"/></g><g id="line-1"><use x="10955.5" y="4118.6" xlink:href="#s14:droidserif-italic:55"/><use x="12210.5" y="4118.6" xlink:href="#s14:droidserif-italic:75"/><use x="13437.5" y="4118.6" xlink:href="#s14:droidserif-italic:72"/><use x="14447.5" y="4118.6" xlink:href="#s14:droidserif-italic:76"/><use x="15070.5" y="4118.6" xlink:href="#s14:droidserif-italic:85"/><use x="16028.5" y="4118.6" xlink:href="#s14:droidserif-italic:3"/><use x="16560.5" y="4118.6" xlink:href="#s14:droidserif-italic:86"/><use x="17510.5" y="4118.6" xlink:href="#s14:droidserif-italic:72"/><use x="18520.5" y="4118.6" xlink:href="#s14:droidserif-italic:83"/><use x="19702.5" y="4118.6" xlink:href="#s14:droidserif-italic:68"/><use x="20888.5" y="4118.6" xlink:href="#s14:droidserif-italic:85"/><use x="21805.5" y="4118.6" xlink:href="#s14:droidserif-italic:68"/><use x="22991.5" y="4118.6" xlink:href="#s14:droidserif-italic:87"/><use x="23745.5" y="4118.6" xlink:href="#s14:droidserif-italic:72"/><use x="24755.5" y="4118.6" xlink:href="#s14:droidserif-italic:3"/><use x="25287.5" y="4118.6" xlink:href="#s14:droidserif-italic:72"/><use x="26297.5" y="4118.6" xlink:href="#s14:droidserif-italic:91"/><use x="27415.5" y="4118.6" xlink:href="#s14:droidserif-italic:76"/><use x="28038.5" y="4118.6" xlink:href="#s14:droidserif-italic:86"/><use x="28988.5" y="4118.6" xlink:href="#s14:droidserif-italic:87"/><use x="29742.5" y="4118.6" xlink:href="#s14:droidserif-italic:72"/><use x="30752.5" y="4118.6" xlink:href="#s14:droidserif-italic:81"/><use x="31979.5" y="4118.6" xlink:href="#s14:droidserif-italic:70"/><use x="32976.5" y="4118.6" xlink:href="#s14:droidserif-italic:72"/><use x="33986.5" y="4118.6" xlink:href="#s14:droidserif-italic:3"/><use x="34518.5" y="4118.6" xlink:href="#s14:droidserif-italic:76"/><use x="35141.5" y="4118.6" xlink:href="#s14:droidserif-italic:86"/><use x="36091.5" y="4118.6" xlink:href="#s14:droidserif-italic:3"/><use x="36623.5" y="4118.6" xlink:href="#s14:droidserif-italic:68"/><use x="37809.5" y="4118.6" xlink:href="#s14:droidserif-italic:3"/><use x="38341.5" y="4118.6" xlink:href="#s14:droidserif-italic:80"/><use x="40176.5" y="4118.6" xlink:href="#s14:droidserif-italic:92"/><use x="41257.5" y="4118.6" xlink:href="#s14:droidserif-italic:87"/><use x="42011.5" y="4118.6" xlink:href="#s14:droidserif-italic:75"/><use x="43238.5" y="4118.6" xlink:href="#s14:droidserif-italic:17"/></g><g id="line-2"><use x="13541" y="6576.2" xlink:href="#s14:droidserif-italic:41"/><use x="14667" y="6576.2" xlink:href="#s14:droidserif-italic:82"/><use x="15843" y="6576.2" xlink:href="#s14:droidserif-italic:85"/><use x="16801" y="6576.2" xlink:href="#s14:droidserif-italic:3"/><use x="17333" y="6576.2" xlink:href="#s14:droidserif-italic:86"/><use x="18283" y="6576.2" xlink:href="#s14:droidserif-italic:70"/><use x="19280" y="6576.2" xlink:href="#s14:droidserif-italic:76"/><use x="19903" y="6576.2" xlink:href="#s14:droidserif-italic:72"/><use x="20913" y="6576.2" xlink:href="#s14:droidserif-italic:81"/><use x="22140" y="6576.2" xlink:href="#s14:droidserif-italic:70"/><use x="23137" y="6576.2" xlink:href="#s14:droidserif-italic:72"/><use x="24147" y="6576.2" xlink:href="#s14:droidserif-italic:15"/><use x="24659" y="6576.2" xlink:href="#s14:droidserif-italic:3"/><use x="25191" y="6576.2" xlink:href="#s14:droidserif-italic:80"/><use x="27026" y="6576.2" xlink:href="#s14:droidserif-italic:88"/><use x="28253" y="6576.2" xlink:href="#s14:droidserif-italic:86"/><use x="29203" y="6576.2" xlink:href="#s14:droidserif-italic:76"/><use x="29826" y="6576.2" xlink:href="#s14:droidserif-italic:70"/><use x="30823" y="6576.2" xlink:href="#s14:droidserif-italic:15"/><use x="31335" y="6576.2" xlink:href="#s14:droidserif-italic:3"/><use x="31867" y="6576.2" xlink:href="#s14:droidserif-italic:86"/><use x="32817" y="6576.2" xlink:href="#s14:droidserif-italic:83"/><use x="33999" y="6576.2" xlink:href="#s14:droidserif-italic:82"/><use x="35175" y="6576.2" xlink:href="#s14:droidserif-italic:85"/><use x="36133" y="6576.2" xlink:href="#s14:droidserif-italic:87"/><use x="36887" y="6576.2" xlink:href="#s14:droidserif-italic:15"/><use x="37399" y="6576.2" xlink:href="#s14:droidserif-italic:3"/><use x="37931" y="6576.2" xlink:href="#s14:droidserif-italic:72"/><use x="38941" y="6576.2" xlink:href="#s14:droidserif-italic:87"/><use x="39695" y="6576.2" xlink:href="#s14:droidserif-italic:70"/><use x="40692" y="6576.2" xlink:href="#s14:droidserif-italic:15"/></g></svg>