<svg xmlns="http://www.w3.org/2000/svg" xmlns:xlink="http://www.w3.org/1999/xlink" width="700" height="83" viewBox="0 0 59721 7068.2"><defs><path id="s12:droidserif-bold:55" d="M831-242Q831-198 839-172Q847-146 861.50-132Q876-118 895-113.50Q914-109 936-109L1022-109L1022 0L315 0L315-109L401-109Q424-109 443-113.50Q462-118 476-132Q490-146 498-172Q506-198 506-242L506-1337L342-1337Q296-1337 265-1327Q234-1317 214.50-1298.50Q195-1280 185.50-1253Q176-1226 172-1192L158-1065L20-1065L31-1462L1307-1462L1317-1065L1180-1065L1165-1192Q1161-1226 1151.50-1253Q1142-1280 1122.50-1298.50Q1103-1317 1072-1327Q1041-1337 995-1337L831-1337L831-242Z"/><path id="s12:droidserif-bold:75" d="M858 0L858-674Q858-740 849.50-791.50Q841-843 821.50-878Q802-913 770.50-931.50Q739-950 694-950Q643-950 609-924Q575-898 554.50-854.50Q534-811 525-753.50Q516-696 516-633L516-242Q516-199 526.50-173Q537-147 556-132.50Q575-118 602.50-113.50Q630-109 664-109L670-109L670 0L41 0L41-109L45-109Q80-109 109-113.50Q138-118 159.50-133Q181-148 193-176Q205-204 205-250L205-1323Q205-1364 190.50-1388.50Q176-1413 154-1426.50Q132-1440 106.50-1444Q81-1448 59-1448L35-1448L35-1556L516-1556L516-1219Q516-1179 513.50-1133Q511-1087 508-1048Q504-1002 500-958L518-958Q549-1016 583.50-1049Q618-1082 657-1098.50Q696-1115 739.50-1119.50Q783-1124 831-1124Q910-1124 973-1101Q1036-1078 1079.50-1030Q1123-982 1146-907.50Q1169-833 1169-729L1169-254Q1169-206 1177.50-177.50Q1186-149 1203-134Q1220-119 1246-114Q1272-109 1307-109L1313-109L1313 0L858 0Z"/><path id="s12:droidserif-bold:72" d="M608-991Q522-991 471.50-906Q421-821 416-657L770-657Q770-735 761-797Q752-859 732.50-902Q713-945 682.50-968Q652-991 608-991M627 20Q497 20 397.50-18Q298-56 231-128Q164-200 130-304.50Q96-409 96-543Q96-687 130-796Q164-905 229-978Q294-1051 388.50-1087.50Q483-1124 604-1124Q715-1124 804-1092.50Q893-1061 955-999Q1017-937 1050-845Q1083-753 1083-631L1083-526L412-526Q415-423 434.50-349Q454-275 488.50-227Q523-179 572.50-156Q622-133 686-133Q739-133 784-145.50Q829-158 865.50-180.50Q902-203 929.50-233.50Q957-264 975-299Q1030-269 1030-199Q1030-155 1006-115.50Q982-76 932-46Q882-16 806.50 2Q731 20 627 20Z"/><path id="s12:droidserif-bold:3" d=""/><path id="s12:droidserif-bold:40" d="M573-125L983-125Q1014-125 1036-136.50Q1058-148 1074-169Q1090-190 1099.50-218.50Q1109-247 1114-281L1130-377L1272-377L1257 0L57 0L57-109L143-109Q165-109 184-113Q203-117 217.50-129.50Q232-142 240-166.50Q248-191 248-231L248-1221Q248-1265 240-1291Q232-1317 218-1331Q204-1345 185-1349.50Q166-1354 143-1354L57-1354L57-1462L1194-1462L1202-1085L1059-1085L1049-1182Q1041-1257 1011-1297Q981-1337 918-1337L573-1337L573-825L1059-825L1059-702L573-702L573-125Z"/><path id="s12:droidserif-bold:88" d="M907 0L862-145L852-145Q821-92 785-59.50Q749-27 708-9.50Q667 8 621.50 14Q576 20 528 20Q368 20 282.50-79Q197-178 197-385L197-844Q197-889 189-917Q181-945 164-961Q147-977 120.50-983Q94-989 57-989L53-989L53-1098L508-1098L508-442Q508-376 515.50-323Q523-270 541-232.50Q559-195 589-174.50Q619-154 664-154Q713-154 748.50-175.50Q784-197 806.50-237.50Q829-278 839.50-335.50Q850-393 850-465L850-858Q850-903 838-929Q826-955 806-968.50Q786-982 759-985.50Q732-989 702-989L696-989L696-1098L1161-1098L1161-238Q1161-193 1171.50-167.50Q1182-142 1200-129Q1218-116 1243-112.50Q1268-109 1298-109L1315-109L1315 0L907 0Z"/><path id="s12:droidserif-bold:85" d="M725 0L41 0L41-109L47-109Q82-109 111-114Q140-119 161-134.50Q182-150 193.50-179Q205-208 205-256L205-850Q205-895 194.50-922.50Q184-950 164.50-965Q145-980 118-984.50Q91-989 57-989L51-989L51-1098L465-1098L506-938L516-938Q536-984 560-1018.50Q584-1053 617.50-1076Q651-1099 696.50-1110.50Q742-1122 805-1122Q926-1122 983-1079.50Q1040-1037 1040-956Q1040-862 972-810Q904-758 780-758Q780-800 775.50-832Q771-864 759.50-885Q748-906 728.50-917Q709-928 680-928Q644-928 618-910Q592-892 574-863.50Q556-835 544.50-799Q533-763 526.50-726.50Q520-690 518-657Q516-624 516-600L516-246Q516-201 527-173.50Q538-146 557-132Q576-118 602.50-113.50Q629-109 659-109L725-109L725 0Z"/><path id="s12:droidserif-bold:82" d="M1159-553Q1159-264 1023.50-122Q888 20 625 20Q502 20 404-15.50Q306-51 237.50-122Q169-193 132.50-301Q96-409 96-553Q96-842 231.50-983Q367-1124 631-1124Q754-1124 851.50-1089Q949-1054 1017.50-983Q1086-912 1122.50-804.50Q1159-697 1159-553M414-553Q414-444 425.50-361Q437-278 462.50-222Q488-166 529-137.50Q570-109 629-109Q688-109 728.50-137.50Q769-166 794.50-222Q820-278 831-361Q842-444 842-553Q842-663 830.50-745.50Q819-828 793.50-883Q768-938 727-965.50Q686-993 627-993Q568-993 527-965.50Q486-938 461-883Q436-828 425-745.50Q414-663 414-553Z"/><path id="s12:droidserif-bold:83" d="M51 383Q74 383 99.50 378.50Q125 374 146.50 360Q168 346 182.50 320Q197 294 197 250L197-846Q197-893 186.50-921Q176-949 157.50-964Q139-979 113.50-984Q88-989 59-989L45-989L45-1098L446-1098L483-938L492-938Q514-978 543.50-1011Q573-1044 611.50-1068Q650-1092 698-1105Q746-1118 805-1118Q907-1118 985.50-1084.50Q1064-1051 1117-980.50Q1170-910 1197.50-802Q1225-694 1225-545Q1225-397 1198-289.50Q1171-182 1118.50-112Q1066-42 989.50-8.50Q913 25 813 25Q696 25 623-19.50Q550-64 506-139L492-139Q496-92 500-47Q503-9 505.50 34Q508 77 508 109L508 250Q508 294 522.50 320Q537 346 558.50 360Q580 374 605.50 378.50Q631 383 653 383L698 383L698 492L27 492L27 383L51 383M717-127Q820-127 864.50-230.50Q909-334 909-543Q909-747 864.50-856Q820-965 719-965Q658-965 617-937.50Q576-910 552-856.50Q528-803 518-724.50Q508-646 508-545Q508-439 518-360.50Q528-282 552-230Q576-178 616-152.50Q656-127 717-127Z"/><path id="s12:droidserif-bold:68" d="M410-305Q410-217 438-173Q466-129 526-129Q570-129 605.50-147.50Q641-166 666.50-200Q692-234 705.50-282.50Q719-331 719-391L719-545L627-539Q566-536 524-519.50Q482-503 457-474Q432-445 421-403Q410-361 410-305M592-999Q553-999 526.50-982.50Q500-966 484-936.50Q468-907 461.50-866.50Q455-826 455-778Q317-778 247.50-809Q178-840 178-915Q178-971 211.50-1011Q245-1051 302.50-1076Q360-1101 436.50-1112.50Q513-1124 600-1124Q708-1124 788.50-1105.50Q869-1087 922.50-1046Q976-1005 1003-938.50Q1030-872 1030-776L1030-254Q1030-212 1036.50-184Q1043-156 1057-139.50Q1071-123 1095-116Q1119-109 1153-109L1161-109L1161 0L780 0L737-141L719-141Q685-100 655-69.50Q625-39 591-19Q557 1 514.50 10.50Q472 20 414 20Q346 20 287.50 0Q229-20 185.50-61.50Q142-103 117-165.50Q92-228 92-313Q92-480 206.50-560Q321-640 551-647L719-653L719-766Q719-817 715-860Q711-903 698-934Q685-965 659.50-982Q634-999 592-999Z"/><path id="s12:droidserif-bold:81" d="M858 0L858-674Q858-740 849.50-791.50Q841-843 821.50-878Q802-913 770.50-931.50Q739-950 694-950Q643-950 609-924Q575-898 554.50-854.50Q534-811 525-753.50Q516-696 516-633L516-242Q516-199 526.50-173Q537-147 556-132.50Q575-118 602.50-113.50Q630-109 664-109L670-109L670 0L41 0L41-109L45-109Q80-109 109-113.50Q138-118 159.50-133Q181-148 193-176Q205-204 205-250L205-856Q205-899 194.50-925Q184-951 164.50-965.50Q145-980 118-984.50Q91-989 57-989L51-989L51-1098L481-1098L508-952L518-952Q549-1010 583.50-1044Q618-1078 657-1096Q696-1114 739.50-1119Q783-1124 831-1124Q910-1124 973-1101Q1036-1078 1079.50-1030Q1123-982 1146-907.50Q1169-833 1169-729L1169-254Q1169-206 1177.50-177.50Q1186-149 1203-134Q1220-119 1246-114Q1272-109 1307-109L1313-109L1313 0L858 0Z"/><path id="s12:droidserif-bold:79" d="M59-109Q82-109 107.50-113.50Q133-118 154.50-132Q176-146 190.50-172Q205-198 205-242L205-1323Q205-1364 190.50-1388.50Q176-1413 154-1426.50Q132-1440 106.50-1444Q81-1448 59-1448L35-1448L35-1556L516-1556L516-242Q516-198 530.50-172Q545-146 566.50-132Q588-118 614-113.50Q640-109 662-109L686-109L686 0L35 0L35-109L59-109Z"/><path id="s12:droidserif-bold:74" d="M1137-1059Q1137-1036 1130-1014.50Q1123-993 1106.50-977Q1090-961 1061.50-951.50Q1033-942 991-942Q991-963 984.50-979Q978-995 967-1006Q956-1017 942-1022.50Q928-1028 913-1028Q896-1028 876.50-1021Q857-1014 846-1006Q867-983 885-953.50Q903-924 916.50-890Q930-856 938-819.50Q946-783 946-745Q946-668 921.50-602.50Q897-537 846-489Q795-441 717-414Q639-387 532-387Q521-387 504-387.50Q487-388 470-388.50Q453-389 437.50-390.50Q422-392 414-393Q401-386 387.50-375.50Q374-365 363.50-352Q353-339 346.50-323Q340-307 340-289Q340-255 366.50-239Q393-223 436-223L684-223Q786-223 860-201.50Q934-180 982.50-140Q1031-100 1054-41.50Q1077 17 1077 90Q1077 185 1041 259.50Q1005 334 931.50 385.50Q858 437 746.50 464.50Q635 492 483 492Q241 492 122.50 419.50Q4 347 4 207Q4 97 75 38.50Q146-20 281-31Q253-42 226-58Q199-74 178-96.50Q157-119 144-148Q131-177 131-213Q131-247 144.50-276Q158-305 182-331.50Q206-358 239.50-381.50Q273-405 313-428Q268-444 229.50-472.50Q191-501 163.50-541Q136-581 120-632Q104-683 104-745Q104-925 208.50-1024.50Q313-1124 532-1124Q605-1124 667.50-1105.50Q730-1087 776-1061Q793-1079 813.50-1099.50Q834-1120 860-1137Q886-1154 918-1165Q950-1176 989-1176Q1026-1176 1053.50-1166.50Q1081-1157 1099.50-1141Q1118-1125 1127.50-1104Q1137-1083 1137-1059M246 203Q246 288 307.50 328.50Q369 369 487 369Q667 369 749 317Q831 265 831 164Q831 99 790 73Q749 47 666 47L428 47Q397 47 365 52.50Q333 58 306.50 75Q280 92 263 122.50Q246 153 246 203M383-745Q383-691 390.50-647.50Q398-604 415-573Q432-542 459-525Q486-508 526-508Q567-508 594-524.50Q621-541 637-572.50Q653-604 659.50-648.50Q666-693 666-748Q666-805 659-851.50Q652-898 635.50-931Q619-964 592-982.50Q565-1001 524-1001Q484-1001 457-982Q430-963 413.50-929Q397-895 390-848Q383-801 383-745Z"/><path id="s12:droidserif-bold:86" d="M473 20Q362 20 283.50 2Q205-16 155.50-48Q106-80 83.50-124Q61-168 61-219Q61-269 80.50-299.50Q100-330 129.50-347Q159-364 192-369.50Q225-375 252-375Q252-311 268-260Q284-209 313-173.50Q342-138 382.50-119Q423-100 473-100Q526-100 564.50-111Q603-122 627.50-141.50Q652-161 664-186.50Q676-212 676-240Q676-274 663.50-300.50Q651-327 622-350.50Q593-374 544.50-396.50Q496-419 424-444Q341-473 277.50-505.50Q214-538 170.50-579.50Q127-621 104.50-674.50Q82-728 82-797Q82-879 113.50-940Q145-1001 203-1041.50Q261-1082 342-1102Q423-1122 522-1122Q619-1122 687-1105.50Q755-1089 798-1062Q841-1035 861-1001Q881-967 881-932Q881-863 832.50-827Q784-791 672-791Q672-893 626.50-949.50Q581-1006 492-1006Q459-1006 428.50-998Q398-990 375.50-974Q353-958 339.50-934.50Q326-911 326-879Q326-846 338.50-820Q351-794 382.50-770.50Q414-747 468-723Q522-699 606-670Q674-646 731.50-615.50Q789-585 830.50-545.50Q872-506 895-455.50Q918-405 918-340Q918-255 888.50-188Q859-121 802-75Q745-29 662-4.50Q579 20 473 20Z"/><path id="s12:droidserif-bold:80" d="M858 0L858-674Q858-740 849.50-791.50Q841-843 821.50-878Q802-913 770.50-931.50Q739-950 694-950Q643-950 609-924Q575-898 554.50-854.50Q534-811 525-753.50Q516-696 516-633L516-242Q516-199 526.50-173Q537-147 556-132.50Q575-118 602.50-113.50Q630-109 664-109L670-109L670 0L41 0L41-109L45-109Q80-109 109-113.50Q138-118 159.50-133Q181-148 193-176Q205-204 205-250L205-862Q205-905 194.50-931Q184-957 164.50-971.50Q145-986 118-990.50Q91-995 57-995L51-995L51-1098L481-1098L508-952L518-952Q549-1010 583.50-1044Q618-1078 657-1096Q696-1114 739.50-1119Q783-1124 831-1124Q944-1124 1024-1083.50Q1104-1043 1141-952L1159-952Q1190-1010 1226.50-1044Q1263-1078 1304.50-1096Q1346-1114 1391.50-1119Q1437-1124 1485-1124Q1564-1124 1627-1101Q1690-1078 1733.50-1030Q1777-982 1800-907.50Q1823-833 1823-729L1823-254Q1823-206 1831.50-177.50Q1840-149 1857-134Q1874-119 1900-114Q1926-109 1960-109L1966-109L1966 0L1511 0L1511-674Q1511-806 1474.50-878Q1438-950 1348-950Q1300-950 1266-926.50Q1232-903 1210.50-863Q1189-823 1179-769.50Q1169-716 1169-657L1169-254Q1169-206 1177.50-177.50Q1186-149 1203-134Q1220-119 1246-114Q1272-109 1307-109L1313-109L1313 0L858 0Z"/><path id="s12:droidserif-bold:69" d="M1233-553Q1233-404 1205.50-296Q1178-188 1125-117.50Q1072-47 993.50-13.50Q915 20 813 20Q754 20 706 7Q658-6 619.50-30Q581-54 551.50-87Q522-120 500-160L481-160L424 0L35 0L35-109L49-109Q78-109 106-114Q134-119 156-134Q178-149 191.50-177Q205-205 205-252L205-1311Q205-1355 192-1381.50Q179-1408 157-1423Q135-1438 105.50-1443Q76-1448 43-1448L35-1448L35-1556L516-1556L516-1206Q516-1174 513.50-1131Q511-1088 508-1050Q504-1005 500-958L514-958Q558-1034 631.50-1078Q705-1122 821-1122Q921-1122 997.50-1088.50Q1074-1055 1126.50-985.50Q1179-916 1206-808.50Q1233-701 1233-553M725-971Q664-971 624-945.50Q584-920 560-868Q536-816 526-737.50Q516-659 516-553Q516-452 526-373.50Q536-295 560-241.50Q584-188 625-160.50Q666-133 727-133Q828-133 873-242Q918-351 918-555Q918-764 873-867.50Q828-971 725-971Z"/><path id="s12:droidserif-bold:73" d="M39 0L39-109L84-109Q106-109 131.50-113.50Q157-118 178.50-132Q200-146 214.50-172Q229-198 229-242L229-958L47-958L47-1098L229-1098L229-1174Q229-1269 253.50-1343.50Q278-1418 329.50-1469.50Q381-1521 460-1548Q539-1575 647-1575Q746-1575 812-1563.50Q878-1552 917-1531.50Q956-1511 972.50-1484Q989-1457 989-1425Q989-1356 926.50-1324Q864-1292 737-1292Q737-1317 732-1346Q727-1375 715-1400Q703-1425 683.50-1441.50Q664-1458 635-1458Q610-1458 592-1444.50Q574-1431 562.50-1401.50Q551-1372 546-1325Q541-1278 541-1210L541-1098L823-1098L823-958L541-958L541-242Q541-198 555.50-172Q570-146 591.50-132Q613-118 638.50-113.50Q664-109 686-109L782-109L782 0L39 0Z"/><path id="s12:droidserif-bold:87" d="M643-145Q683-145 719.50-150.50Q756-156 788-164L788-31Q772-23 744.50-14Q717-5 680.50 2.50Q644 10 598 15Q552 20 498 20Q429 20 373 3.50Q317-13 278-51.50Q239-90 218-151.50Q197-213 197-303L197-958L43-958L43-1063Q109-1063 161-1089Q213-1115 244-1149Q307-1215 338-1352L508-1352L508-1098L770-1098L770-958L508-958L508-324Q508-231 539.50-188Q571-145 643-145Z"/><path id="s12:droidserif-bold:76" d="M176-1430Q176-1469 189.50-1497Q203-1525 226.50-1542.50Q250-1560 281.50-1568.50Q313-1577 350-1577Q385-1577 417-1568.50Q449-1560 473-1542.50Q497-1525 511.50-1497Q526-1469 526-1430Q526-1392 511.50-1364Q497-1336 473-1318Q449-1300 417-1291Q385-1282 350-1282Q313-1282 281.50-1291Q250-1300 226.50-1318Q203-1336 189.50-1364Q176-1392 176-1430M59-109Q82-109 107.50-113.50Q133-118 154.50-132Q176-146 190.50-172Q205-198 205-242L205-864Q205-905 190.50-929.50Q176-954 154-967.50Q132-981 106.50-985Q81-989 59-989L35-989L35-1098L516-1098L516-242Q516-198 530.50-172Q545-146 566.50-132Q588-118 614-113.50Q640-109 662-109L686-109L686 0L35 0L35-109L59-109Z"/><path id="s12:droidserif-bold:92" d="M1186-1098L1186-989Q1155-989 1131.50-982Q1108-975 1089-957.50Q1070-940 1054-911.50Q1038-883 1022-840Q986-738 947-632Q908-526 868.50-419.50Q829-313 789.50-207.50Q750-102 713 0Q677 99 645 174Q613 249 577.50 304Q542 359 499 395Q456 431 399 452.50Q342 474 266.50 483Q191 492 90 492L55 492L55 373Q162 373 237 347Q312 321 364 273Q416 225 449.50 158Q483 91 508 10L139-891Q127-920 112-937Q97-954 80-963Q63-972 43-974.50Q23-977 0-977L0-1098L584-1098L584-989Q524-989 489.50-973.50Q455-958 455-913Q455-896 462-872.50Q469-849 475-834Q493-791 512.50-740.50Q532-690 550.50-639.50Q569-589 586-542Q603-495 616-459Q631-420 641-388.50Q651-357 657.50-331.50Q664-306 668-284.50Q672-263 674-242Q676-263 682-288.50Q688-314 695-337.50Q702-361 709-379.50Q716-398 719-406L854-807Q858-817 861.50-830.50Q865-844 868-858Q871-872 872.50-885Q874-898 874-907Q874-954 835-971.50Q796-989 725-989L725-1098L1186-1098Z"/><path id="s12:droidserif-bold:17" d="M143-147Q143-194 156-225.50Q169-257 191.50-276Q214-295 245-303Q276-311 311-311Q345-311 375.50-303Q406-295 429-276Q452-257 465.50-225.50Q479-194 479-147Q479-101 465.50-70Q452-39 429-20Q406-1 375.50 7.50Q345 16 311 16Q276 16 245 7.50Q214-1 191.50-20Q169-39 156-70Q143-101 143-147Z"/><path id="s12:droidserif-bold:91" d="M891-928Q891-965 862.50-977Q834-989 786-989L780-989L780-1098L1253-1098L1253-989L1235-989Q1205-989 1181.50-983.50Q1158-978 1134.50-963.50Q1111-949 1086-923.50Q1061-898 1028-858L817-600L1118-217Q1165-158 1204.50-133.50Q1244-109 1282-109L1309-109L1309 0L657 0L657-109L668-109Q791-109 791-176Q791-188 788-200Q785-212 777-228Q769-244 753.50-265.50Q738-287 713-317L596-459L453-281Q434-256 422-230Q410-204 410-178Q410-144 439-126.50Q468-109 537-109L543-109L543 0L23 0L23-109L41-109Q78-109 106-115.50Q134-122 158.50-137Q183-152 208-177Q233-202 264-240L522-551L264-881Q221-935 178-962Q135-989 88-989L61-989L61-1098L705-1098L705-989L698-989Q663-989 640.50-984.50Q618-980 605-972Q592-964 587-953Q582-942 582-930Q582-908 593-887.50Q604-867 629-836L743-696L840-813Q864-844 877.50-872Q891-900 891-928Z"/><path id="s12:droidserif-bold:70" d="M604 20Q491 20 397.50-9Q304-38 237-105Q170-172 133-280Q96-388 96-545Q96-711 134.50-822Q173-933 240.50-1000Q308-1067 400-1095.50Q492-1124 598-1124Q697-1124 773-1107.50Q849-1091 900-1062Q951-1033 977.50-993.50Q1004-954 1004-909Q1004-876 992.50-844.50Q981-813 951.50-789Q922-765 870.50-750Q819-735 739-735Q739-788 732.50-836Q726-884 711-920Q696-956 670.50-977.50Q645-999 606-999Q561-999 525.50-977.50Q490-956 464.50-904Q439-852 425.50-765Q412-678 412-547Q412-339 469-236Q526-133 655-133Q708-133 754.50-145.50Q801-158 839-180.50Q877-203 905.50-233.50Q934-264 952-299Q977-284 989-258.50Q1001-233 1001-205Q1001-166 978-126Q955-86 906.50-53.50Q858-21 783-0.50Q708 20 604 20Z"/><path id="s12:droidserif-bold:41" d="M1059-1085L1049-1184Q1039-1265 999.50-1301Q960-1337 897-1337L571-1337L571-778L1057-778L1057-657L571-657L571-242Q571-198 579.50-172Q588-146 602-132Q616-118 636-113.50Q656-109 678-109L805-109L805 0L57 0L57-109L143-109Q165-109 184-113Q203-117 217.50-129.50Q232-142 240-166.50Q248-191 248-231L248-1229Q248-1270 240-1294.50Q232-1319 217.50-1332Q203-1345 184-1349.50Q165-1354 143-1354L57-1354L57-1462L1192-1462L1202-1085L1059-1085Z"/><path id="s12:droidserif-bold:15" d="M459-86Q459-21 439 40Q419 101 375 153Q331 205 261.50 246.50Q192 288 92 315L92 209Q137 193 170.50 177Q204 161 226.50 142.50Q249 124 260.50 101.50Q272 79 272 49Q272 30 261 17.50Q250 5 233.50-6Q217-17 197.50-28.50Q178-40 161.50-58Q145-76 134-102.50Q123-129 123-170Q123-239 165-275Q207-311 270-311Q357-311 408-251Q459-191 459-86Z"/></defs><g id="line-0"><use x="0" y="1661" xlink:href="#s12:droidserif-bold:55"/><use x="1337" y="1661" xlink:href="#s12:droidserif-bold:75"/><use x="2703" y="1661" xlink:href="#s12:droidserif-bold:72"/><use x="3872" y="1661" xlink:href="#s12:droidserif-bold:3"/><use x="4404" y="1661" xlink:href="#s12:droidserif-bold:40"/><use x="5741" y="1661" xlink:href="#s12:droidserif-bold:88"/><use x="7107" y="1661" xlink:href="#s12:droidserif-bold:85"/><use x="8178" y="1661" xlink:href="#s12:droidserif-bold:82"/><use x="9433" y="1661" xlink:href="#s12:droidserif-bold:83"/><use x="10754" y="1661" xlink:href="#s12:droidserif-bold:72"/><use x="11923" y="1661" xlink:href="#s12:droidserif-bold:68"/><use x="13150" y="1661" xlink:href="#s12:droidserif-bold:81"/><use x="14516" y="1661" xlink:href="#s12:droidserif-bold:3"/><use x="15048" y="1661" xlink:href="#s12:droidserif-bold:79"/><use x="15769" y="1661" xlink:href="#s12:droidserif-bold:68"/><use x="16996" y="1661" xlink:href="#s12:droidserif-bold:81"/><use x="18362" y="1661" xlink:href="#s12:droidserif-bold:74"/><use x="19509" y="1661" xlink:href="#s12:droidserif-bold:88"/><use x="20875" y="1661" xlink:href="#s12:droidserif-bold:68"/><use x="22102" y="1661" xlink:href="#s12:droidserif-bold:74"/><use x="23249" y="1661" xlink:href="#s12:droidserif-bold:72"/><use x="24418" y="1661" xlink:href="#s12:droidserif-bold:86"/><use x="25417" y="1661" xlink:href="#s12:droidserif-bold:3"/><use x="25949" y="1661" xlink:href="#s12:droidserif-bold:68"/><use x="27176" y="1661" xlink:href="#s12:droidserif-bold:85"/><use x="28247" y="1661" xlink:href="#s12:droidserif-bold:72"/><use x="29416" y="1661" xlink:href="#s12:droidserif-bold:3"/><use x="29948" y="1661" xlink:href="#s12:droidserif-bold:80"/><use x="31967" y="1661" xlink:href="#s12:droidserif-bold:72"/><use x="33136" y="1661" xlink:href="#s12:droidserif-bold:80"/><use x="35155" y="1661" xlink:href="#s12:droidserif-bold:69"/><use x="36484" y="1661" xlink:href="#s12:droidserif-bold:72"/><use x="37653" y="1661" xlink:href="#s12:droidserif-bold:85"/><use x="38724" y="1661" xlink:href="#s12:droidserif-bold:86"/><use x="39723" y="1661" xlink:href="#s12:droidserif-bold:3"/><use x="40255" y="1661" xlink:href="#s12:droidserif-bold:82"/><use x="41510" y="1661" xlink:href="#s12:droidserif-bold:73"/><use x="42344" y="1661" xlink:href="#s12:droidserif-bold:3"/><use x="42876" y="1661" xlink:href="#s12:droidserif-bold:87"/><use x="43705" y="1661" xlink:href="#s12:droidserif-bold:75"/><use x="45071" y="1661" xlink:href="#s12:droidserif-bold:72"/><use x="46240" y="1661" xlink:href="#s12:droidserif-bold:3"/><use x="46772" y="1661" xlink:href="#s12:droidserif-bold:86"/><use x="47771" y="1661" xlink:href="#s12:droidserif-bold:68"/><use x="48998" y="1661" xlink:href="#s12:droidserif-bold:80"/><use x="51017" y="1661" xlink:href="#s12:droidserif-bold:72"/><use x="52186" y="1661" xlink:href="#s12:droidserif-bold:3"/><use x="52718" y="1661" xlink:href="#s12:droidserif-bold:73"/><use x="53552" y="1661" xlink:href="#s12:droidserif-bold:68"/><use x="54779" y="1661" xlink:href="#s12:droidserif-bold:80"/><use x="56798" y="1661" xlink:href="#s12:droidserif-bold:76"/><use x="57519" y="1661" xlink:href="#s12:droidserif-bold:79"/><use x="58240" y="1661" xlink:href="#s12:droidserif-bold:92"/><use x="59242" y="1661" xlink:href="#s12:droidserif-bold:17"/></g><g id="line-1"><use x="11888" y="4118.6" xlink:href="#s12:droidserif-bold:55"/><use x="13225" y="4118.6" xlink:href="#s12:droidserif-bold:75"/><use x="14591" y="4118.6" xlink:href="#s12:droidserif-bold:72"/><use x="15760" y="4118.6" xlink:href="#s12:droidserif-bold:76"/><use x="16481" y="4118.6" xlink:href="#s12:droidserif-bold:85"/><use x="17552" y="4118.6" xlink:href="#s12:droidserif-bold:3"/><use x="18084" y="4118.6" xlink:href="#s12:droidserif-bold:86"/><use x="19083" y="4118.6" xlink:href="#s12:droidserif-bold:72"/><use x="20252" y="4118.6" xlink:href="#s12:droidserif-bold:83"/><use x="21573" y="4118.6" xlink:href="#s12:droidserif-bold:68"/><use x="22800" y="4118.6" xlink:href="#s12:droidserif-bold:85"/><use x="23830" y="4118.6" xlink:href="#s12:droidserif-bold:68"/><use x="25057" y="4118.6" xlink:href="#s12:droidserif-bold:87"/><use x="25886" y="4118.6" xlink:href="#s12:droidserif-bold:72"/><use x="27055" y="4118.6" xlink:href="#s12:droidserif-bold:3"/><use x="27587" y="4118.6" xlink:href="#s12:droidserif-bold:72"/><use x="28756" y="4118.6" xlink:href="#s12:droidserif-bold:91"/><use x="30079" y="4118.6" xlink:href="#s12:droidserif-bold:76"/><use x="30800" y="4118.6" xlink:href="#s12:droidserif-bold:86"/><use x="31799" y="4118.6" xlink:href="#s12:droidserif-bold:87"/><use x="32628" y="4118.6" xlink:href="#s12:droidserif-bold:72"/><use x="33797" y="4118.6" xlink:href="#s12:droidserif-bold:81"/><use x="35163" y="4118.6" xlink:href="#s12:droidserif-bold:70"/><use x="36242" y="4118.6" xlink:href="#s12:droidserif-bold:72"/><use x="37411" y="4118.6" xlink:href="#s12:droidserif-bold:3"/><use x="37943" y="4118.6" xlink:href="#s12:droidserif-bold:76"/><use x="38664" y="4118.6" xlink:href="#s12:droidserif-bold:86"/><use x="39663" y="4118.6" xlink:href="#s12:droidserif-bold:3"/><use x="40195" y="4118.6" xlink:href="#s12:droidserif-bold:68"/><use x="41422" y="4118.6" xlink:href="#s12:droidserif-bold:3"/><use x="41954" y="4118.6" xlink:href="#s12:droidserif-bold:80"/><use x="43973" y="4118.6" xlink:href="#s12:droidserif-bold:92"/><use x="45159" y="4118.6" xlink:href="#s12:droidserif-bold:87"/><use x="45988" y="4118.6" xlink:href="#s12:droidserif-bold:75"/><use x="47354" y="4118.6" xlink:href="#s12:droidserif-bold:17"/></g><g id="line-2"><use x="14747" y="6576.2" xlink:href="#s12:droidserif-bold:41"/><use x="15937" y="6576.2" xlink:href="#s12:droidserif-bold:82"/><use x="17192" y="6576.2" xlink:href="#s12:droidserif-bold:85"/><use x="18263" y="6576.2" xlink:href="#s12:droidserif-bold:3"/><use x="18795" y="6576.2" xlink:href="#s12:droidserif-bold:86"/><use x="19794" y="6576.2" xlink:href="#s12:droidserif-bold:70"/><use x="20873" y="6576.2" xlink:href="#s12:droidserif-bold:76"/><use x="21594" y="6576.2" xlink:href="#s12:droidserif-bold:72"/><use x="22763" y="6576.2" xlink:href="#s12:droidserif-bold:81"/><use x="24129" y="6576.2" xlink:href="#s12:droidserif-bold:70"/><use x="25208" y="6576.2" xlink:href="#s12:droidserif-bold:72"/><use x="26377" y="6576.2" xlink:href="#s12:droidserif-bold:15"/><use x="26979" y="6576.2" xlink:href="#s12:droidserif-bold:3"/><use x="27511" y="6576.2" xlink:href="#s12:droidserif-bold:80"/><use x="29530" y="6576.2" xlink:href="#s12:droidserif-bold:88"/><use x="30896" y="6576.2" xlink:href="#s12:droidserif-bold:86"/><use x="31895" y="6576.2" xlink:href="#s12:droidserif-bold:76"/><use x="32616" y="6576.2" xlink:href="#s12:droidserif-bold:70"/><use x="33695" y="6576.2" xlink:href="#s12:droidserif-bold:15"/><use x="34297" y="6576.2" xlink:href="#s12:droidserif-bold:3"/><use x="34829" y="6576.2" xlink:href="#s12:droidserif-bold:86"/><use x="35828" y="6576.2" xlink:href="#s12:droidserif-bold:83"/><use x="37149" y="6576.2" xlink:href="#s12:droidserif-bold:82"/><use x="38404" y="6576.2" xlink:href="#s12:droidserif-bold:85"/><use x="39475" y="6576.2" xlink:href="#s12:droidserif-bold:87"/><use x="40304" y="6576.2" xlink:href="#s12:droidserif-bold:15"/><use x="40906" y="6576.2" xlink:href="#s12:droidserif-bold:3"/><use x="41438" y="6576.2" xlink:href="#s12:droidserif-bold:72"/><use x="42607" y="6576.2" xlink:href="#s12:droidserif-bold:87"/><use x="43436" y="6576.2" xlink:href="#s12:droidserif-bold:70"/><use x="44515" y="6576.2" xlink:href="#s12:droidserif-bold:15"/></g></svg>