<svg xmlns="http://www.w3.org/2000/svg" xmlns:xlink="http://www.w3.org/1999/xlink" width="626" height="83" viewBox="0 0 53409 7068.2"><defs><path id="s10:droidsans:55" d="M625 0L438 0L438-1298L20-1298L20-1462L1042-1462L1042-1298L625-1298L625 0Z"/><path id="s10:droidsans:75" d="M860 0L860-707Q860-837 807.50-902Q755-967 643-967Q562-967 507-941Q452-915 418.50-864Q385-813 370.50-739Q356-665 356-569L356 0L174 0L174-1556L356-1556L356-1094L348-950L358-950Q383-993 417.50-1024.50Q452-1056 493-1077Q534-1098 580-1108Q626-1118 674-1118Q857-1118 949.50-1022.50Q1042-927 1042-717L1042 0L860 0Z"/><path id="s10:droidsans:72" d="M608 20Q498 20 407-17Q316-54 250.50-125Q185-196 149-301Q113-406 113-541Q113-677 146-784Q179-891 239-965.50Q299-1040 382.50-1079Q466-1118 567-1118Q666-1118 745-1082.50Q824-1047 879-982.50Q934-918 963.50-827.50Q993-737 993-627L993-514L301-514Q306-321 382.50-230Q459-139 610-139Q661-139 704.50-144Q748-149 788.50-158.50Q829-168 867-182.50Q905-197 944-215L944-53Q904-34 865.50-20Q827-6 786.50 3Q746 12 702.50 16Q659 20 608 20M563-967Q449-967 382.50-889Q316-811 305-662L797-662Q797-730 783.50-786.50Q770-843 741.50-883Q713-923 669-945Q625-967 563-967Z"/><path id="s10:droidsans:3" d=""/><path id="s10:droidsans:40" d="M958 0L199 0L199-1462L958-1462L958-1298L385-1298L385-846L920-846L920-684L385-684L385-164L958-164L958 0Z"/><path id="s10:droidsans:88" d="M885 0L858-147L848-147Q823-104 788.50-72.50Q754-41 713-20.50Q672 0 626 10Q580 20 532 20Q441 20 372-3Q303-26 257-75Q211-124 187.50-200Q164-276 164-381L164-1098L346-1098L346-391Q346-261 399-196Q452-131 563-131Q644-131 699-157Q754-183 787.50-233.50Q821-284 835.50-358Q850-432 850-528L850-1098L1032-1098L1032 0L885 0Z"/><path id="s10:droidsans:85" d="M649-1118Q678-1118 714-1115.50Q750-1113 776-1108L752-940Q724-945 694.50-948.50Q665-952 639-952Q576-952 524-926.50Q472-901 434.50-853.50Q397-806 376.50-739.50Q356-673 356-592L356 0L174 0L174-1098L322-1098L344-897L352-897Q377-940 405.50-980Q434-1020 469.50-1050.50Q505-1081 549-1099.50Q593-1118 649-1118Z"/><path id="s10:droidsans:82" d="M1069-551Q1069-414 1035.50-307.50Q1002-201 939.50-128.50Q877-56 788-18Q699 20 588 20Q485 20 398-18Q311-56 247.50-128.50Q184-201 148.50-307.50Q113-414 113-551Q113-687 146.50-792.50Q180-898 242-970.50Q304-1043 393.50-1080.50Q483-1118 594-1118Q697-1118 784-1080.50Q871-1043 934.50-970.50Q998-898 1033.50-792.50Q1069-687 1069-551M301-551Q301-342 369.50-236.50Q438-131 592-131Q746-131 813.50-236.50Q881-342 881-551Q881-760 812.50-863.50Q744-967 590-967Q436-967 368.50-863.50Q301-760 301-551Z"/><path id="s10:droidsans:83" d="M670 20Q611 20 563 7Q515-6 476.50-27.50Q438-49 408.50-78Q379-107 356-139L344-139Q347-105 350-74Q352-48 354-20.50Q356 7 356 23L356 492L174 492L174-1098L322-1098L348-950L356-950Q379-985 408-1015.50Q437-1046 475.50-1068.50Q514-1091 562-1104.50Q610-1118 670-1118Q764-1118 841-1082Q918-1046 972.50-974.50Q1027-903 1057-797Q1087-691 1087-551Q1087-410 1057-303.50Q1027-197 972.50-125Q918-53 841-16.50Q764 20 670 20M635-967Q559-967 506.50-944Q454-921 421.50-874Q389-827 373.50-757Q358-687 356-592L356-551Q356-450 369.50-371.50Q383-293 415.50-239.50Q448-186 502-158.50Q556-131 637-131Q772-131 835.50-240Q899-349 899-553Q899-761 835.50-864Q772-967 635-967Z"/><path id="s10:droidsans:68" d="M793 0L756-152L748-152Q715-107 682-74.50Q649-42 610-21Q571 0 523 10Q475 20 412 20Q343 20 285 0.50Q227-19 184.50-59.50Q142-100 118-161.50Q94-223 94-307Q94-471 209.50-559Q325-647 561-655L745-662L745-731Q745-798 730.50-843Q716-888 688.50-915.50Q661-943 620.50-955Q580-967 528-967Q445-967 373.50-943Q302-919 236-885L172-1022Q246-1062 337-1090Q428-1118 528-1118Q630-1118 704.50-1097.50Q779-1077 827.50-1032.50Q876-988 900-919Q924-850 924-752L924 0L793 0M459-127Q520-127 572-146Q624-165 662-203.50Q700-242 721.50-300.50Q743-359 743-438L743-537L600-530Q510-526 449-510Q388-494 351.50-465.50Q315-437 299-396.50Q283-356 283-305Q283-213 331.50-170Q380-127 459-127Z"/><path id="s10:droidsans:81" d="M860 0L860-707Q860-837 807.50-902Q755-967 643-967Q562-967 507-941Q452-915 418.50-864Q385-813 370.50-739Q356-665 356-569L356 0L174 0L174-1098L322-1098L348-950L358-950Q383-993 417.50-1024.50Q452-1056 493-1077Q534-1098 580-1108Q626-1118 674-1118Q857-1118 949.50-1022.50Q1042-927 1042-717L1042 0L860 0Z"/><path id="s10:droidsans:79" d="M356 0L174 0L174-1556L356-1556L356 0Z"/><path id="s10:droidsans:74" d="M1020-1098L1020-985L823-958Q851-923 870-868.50Q889-814 889-745Q889-669 865.50-604.50Q842-540 794.50-493Q747-446 677-419.50Q607-393 514-393Q492-393 470-393.50Q448-394 434-397Q417-387 400.50-374.50Q384-362 370.50-346Q357-330 348.50-310Q340-290 340-266Q340-239 352-222.50Q364-206 384.50-197Q405-188 433-185Q461-182 492-182L668-182Q761-182 825-158.50Q889-135 929.50-95Q970-55 988-0.50Q1006 54 1006 115Q1006 203 973.50 273Q941 343 874 391.50Q807 440 704.50 466Q602 492 463 492Q356 492 276 471Q196 450 143 410Q90 370 63.50 313.50Q37 257 37 186Q37 126 56.50 80.50Q76 35 109 2Q142-31 185.50-52Q229-73 276-84Q234-103 207-144Q180-185 180-238Q180-299 212-343.50Q244-388 313-430Q270-448 234.50-479.50Q199-511 174.50-551.50Q150-592 136.50-640Q123-688 123-739Q123-828 148-898Q173-968 222-1017Q271-1066 344-1092Q417-1118 514-1118Q551-1118 590.50-1112.50Q630-1107 657-1098L1020-1098M209 180Q209 217 222 249Q235 281 264.50 304Q294 327 342.50 340.50Q391 354 463 354Q649 354 741.50 296.50Q834 239 834 131Q834 85 822 56Q810 27 782.50 10.50Q755-6 710-12Q665-18 600-18L424-18Q389-18 351-10Q313-2 281.50 20Q250 42 229.50 80.50Q209 119 209 180M301-745Q301-630 355-574Q409-518 508-518Q608-518 659.50-573.50Q711-629 711-748Q711-871 658.50-929Q606-987 506-987Q407-987 354-927Q301-867 301-745Z"/><path id="s10:droidsans:86" d="M831-301Q831-221 802-161Q773-101 718.50-60.50Q664-20 587 0Q510 20 414 20Q305 20 227 2.50Q149-15 90-49L90-215Q121-199 159-183.50Q197-168 239-156Q281-144 325.50-136.50Q370-129 414-129Q479-129 524.50-140Q570-151 598.50-171.50Q627-192 640-221.50Q653-251 653-287Q653-318 643-343Q633-368 606.50-392.50Q580-417 534-442Q488-467 416-498Q344-529 286.50-559Q229-589 189-626Q149-663 127.50-711.50Q106-760 106-827Q106-897 133.50-951.50Q161-1006 211-1043Q261-1080 331-1099Q401-1118 487-1118Q584-1118 664.50-1097Q745-1076 817-1042L754-895Q689-924 620.50-945.50Q552-967 481-967Q379-967 330-933.50Q281-900 281-838Q281-803 292.50-777Q304-751 332-728Q360-705 407-681.50Q454-658 524-629Q596-599 652.50-569Q709-539 749-501.50Q789-464 810-416Q831-368 831-301Z"/><path id="s10:droidsans:80" d="M1489 0L1489-707Q1489-837 1439-902Q1389-967 1284-967Q1211-967 1160-943.50Q1109-920 1076.50-874.50Q1044-829 1029-761.50Q1014-694 1014-606L1014 0L831 0L831-707Q831-837 781.50-902Q732-967 627-967Q550-967 498-941Q446-915 414.50-864Q383-813 369.50-739Q356-665 356-569L356 0L174 0L174-1098L322-1098L348-950L358-950Q382-993 415-1024.50Q448-1056 487.50-1077Q527-1098 571.50-1108Q616-1118 662-1118Q782-1118 861.50-1074Q941-1030 979-936L987-936Q1013-983 1049.50-1017Q1086-1051 1129.50-1073.50Q1173-1096 1221-1107Q1269-1118 1319-1118Q1494-1118 1582.50-1022.50Q1671-927 1671-717L1671 0L1489 0Z"/><path id="s10:droidsans:69" d="M670-1118Q764-1118 841-1082Q918-1046 972.50-974.50Q1027-903 1057-797Q1087-691 1087-551Q1087-410 1057-303.50Q1027-197 972.50-125Q918-53 841-16.50Q764 20 670 20Q611 20 563 7Q515-6 476.50-27.50Q438-49 408.50-78Q379-107 356-139L344-139L307 0L174 0L174-1556L356-1556L356-1180Q356-1145 355-1105.50Q354-1066 352-1032Q350-992 348-954L356-954Q379-989 408-1019Q437-1049 475.50-1071Q514-1093 562-1105.50Q610-1118 670-1118M635-967Q555-967 501.50-941.50Q448-916 415.50-864Q383-812 369.50-734Q356-656 356-551Q356-450 369.50-371.50Q383-293 415.50-239.50Q448-186 502-158.50Q556-131 637-131Q772-131 835.50-240Q899-349 899-553Q899-761 835.50-864Q772-967 635-967Z"/><path id="s10:droidsans:73" d="M651-961L406-961L406 0L223 0L223-961L29-961L29-1036L223-1104L223-1200Q223-1307 245.50-1377.50Q268-1448 310.50-1490Q353-1532 415-1549.50Q477-1567 555-1567Q614-1567 663.50-1555.50Q713-1544 752-1530L705-1389Q674-1400 637.50-1408.50Q601-1417 561-1417Q521-1417 492-1407.50Q463-1398 444-1374Q425-1350 415.50-1308.50Q406-1267 406-1202L406-1098L651-1098L651-961Z"/><path id="s10:droidsans:87" d="M506-129Q524-129 546.50-131Q569-133 590-136Q611-139 628.50-143Q646-147 655-150L655-12Q642-6 622 0Q602 6 578 10.50Q554 15 528 17.50Q502 20 477 20Q415 20 362 4Q309-12 270.50-51Q232-90 210-156.50Q188-223 188-324L188-961L33-961L33-1042L188-1120L266-1350L371-1350L371-1098L647-1098L647-961L371-961L371-324Q371-227 402.50-178Q434-129 506-129Z"/><path id="s10:droidsans:76" d="M356 0L174 0L174-1098L356-1098L356 0M160-1395Q160-1455 190.50-1482Q221-1509 266-1509Q288-1509 307.50-1502.50Q327-1496 341.50-1482Q356-1468 364.50-1446.50Q373-1425 373-1395Q373-1337 341.50-1308.50Q310-1280 266-1280Q221-1280 190.50-1308Q160-1336 160-1395Z"/><path id="s10:droidsans:92" d="M10-1098L199-1098L414-485Q428-445 442.50-401Q457-357 469.50-313Q482-269 491-228Q500-187 504-152L510-152Q515-177 526-220Q537-263 550.50-311.50Q564-360 578.50-407Q593-454 604-487L803-1098L991-1098L557 143Q529 224 496.50 288.50Q464 353 421 398Q378 443 320 467.50Q262 492 182 492Q130 492 92 486.50Q54 481 27 475L27 330Q48 335 80 338.50Q112 342 147 342Q195 342 230 330.50Q265 319 291 297Q317 275 335.50 243Q354 211 369 170L426 10L10-1098Z"/><path id="s10:droidsans:17" d="M147-111Q147-149 157-175.50Q167-202 184-218.50Q201-235 224-242.50Q247-250 274-250Q300-250 323.50-242.50Q347-235 364-218.50Q381-202 391-175.50Q401-149 401-111Q401-74 391-47.50Q381-21 364-4Q347 13 323.50 21Q300 29 274 29Q247 29 224 21Q201 13 184-4Q167-21 157-47.50Q147-74 147-111Z"/><path id="s10:droidsans:91" d="M408-563L55-1098L262-1098L512-688L762-1098L969-1098L614-563L987 0L780 0L512-436L242 0L35 0L408-563Z"/><path id="s10:droidsans:70" d="M594 20Q493 20 405-11.50Q317-43 252-111.50Q187-180 150-286.50Q113-393 113-543Q113-700 151-809.50Q189-919 255.50-987.50Q322-1056 411-1087Q500-1118 602-1118Q680-1118 754.50-1101Q829-1084 879-1059L825-905Q802-915 774-924.50Q746-934 716-941.50Q686-949 657-953.50Q628-958 602-958Q445-958 373-857.50Q301-757 301-545Q301-334 373.50-236.50Q446-139 594-139Q675-139 740.50-157.50Q806-176 860-201L860-39Q806-10 744.50 5Q683 20 594 20Z"/><path id="s10:droidsans:41" d="M385 0L199 0L199-1462L958-1462L958-1298L385-1298L385-782L920-782L920-618L385-618L385 0Z"/><path id="s10:droidsans:15" d="M362-238L377-215Q363-161 343.50-100Q324-39 300.50 23Q277 85 251.50 146.50Q226 208 201 264L63 264Q78 203 92.50 137Q107 71 120.50 5.50Q134-60 145-122.50Q156-185 164-238L362-238Z"/></defs><g id="line-0"><use x="0" y="1661" xlink:href="#s10:droidsans:55"/><use x="1063" y="1661" xlink:href="#s10:droidsans:75"/><use x="2269" y="1661" xlink:href="#s10:droidsans:72"/><use x="3365" y="1661" xlink:href="#s10:droidsans:3"/><use x="3897" y="1661" xlink:href="#s10:droidsans:40"/><use x="4978" y="1661" xlink:href="#s10:droidsans:88"/><use x="6184" y="1661" xlink:href="#s10:droidsans:85"/><use x="7001" y="1661" xlink:href="#s10:droidsans:82"/><use x="8183" y="1661" xlink:href="#s10:droidsans:83"/><use x="9383" y="1661" xlink:href="#s10:droidsans:72"/><use x="10479" y="1661" xlink:href="#s10:droidsans:68"/><use x="11566" y="1661" xlink:href="#s10:droidsans:81"/><use x="12772" y="1661" xlink:href="#s10:droidsans:3"/><use x="13304" y="1661" xlink:href="#s10:droidsans:79"/><use x="13834" y="1661" xlink:href="#s10:droidsans:68"/><use x="14921" y="1661" xlink:href="#s10:droidsans:81"/><use x="16127" y="1661" xlink:href="#s10:droidsans:74"/><use x="17188" y="1661" xlink:href="#s10:droidsans:88"/><use x="18394" y="1661" xlink:href="#s10:droidsans:68"/><use x="19481" y="1661" xlink:href="#s10:droidsans:74"/><use x="20542" y="1661" xlink:href="#s10:droidsans:72"/><use x="21638" y="1661" xlink:href="#s10:droidsans:86"/><use x="22562" y="1661" xlink:href="#s10:droidsans:3"/><use x="23094" y="1661" xlink:href="#s10:droidsans:68"/><use x="24181" y="1661" xlink:href="#s10:droidsans:85"/><use x="24998" y="1661" xlink:href="#s10:droidsans:72"/><use x="26094" y="1661" xlink:href="#s10:droidsans:3"/><use x="26626" y="1661" xlink:href="#s10:droidsans:80"/><use x="28461" y="1661" xlink:href="#s10:droidsans:72"/><use x="29557" y="1661" xlink:href="#s10:droidsans:80"/><use x="31392" y="1661" xlink:href="#s10:droidsans:69"/><use x="32592" y="1661" xlink:href="#s10:droidsans:72"/><use x="33688" y="1661" xlink:href="#s10:droidsans:85"/><use x="34505" y="1661" xlink:href="#s10:droidsans:86"/><use x="35429" y="1661" xlink:href="#s10:droidsans:3"/><use x="35961" y="1661" xlink:href="#s10:droidsans:82"/><use x="37143" y="1661" xlink:href="#s10:droidsans:73"/><use x="37817" y="1661" xlink:href="#s10:droidsans:3"/><use x="38349" y="1661" xlink:href="#s10:droidsans:87"/><use x="39043" y="1661" xlink:href="#s10:droidsans:75"/><use x="40249" y="1661" xlink:href="#s10:droidsans:72"/><use x="41345" y="1661" xlink:href="#s10:droidsans:3"/><use x="41877" y="1661" xlink:href="#s10:droidsans:86"/><use x="42801" y="1661" xlink:href="#s10:droidsans:68"/><use x="43888" y="1661" xlink:href="#s10:droidsans:80"/><use x="45723" y="1661" xlink:href="#s10:droidsans:72"/><use x="46819" y="1661" xlink:href="#s10:droidsans:3"/><use x="47351" y="1661" xlink:href="#s10:droidsans:73"/><use x="48025" y="1661" xlink:href="#s10:droidsans:68"/><use x="49112" y="1661" xlink:href="#s10:droidsans:80"/><use x="50947" y="1661" xlink:href="#s10:droidsans:76"/><use x="51477" y="1661" xlink:href="#s10:droidsans:79"/><use x="52007" y="1661" xlink:href="#s10:droidsans:92"/><use x="53008" y="1661" xlink:href="#s10:droidsans:17"/></g><g id="line-1"><use x="10882" y="4118.6" xlink:href="#s10:droidsans:55"/><use x="11945" y="4118.6" xlink:href="#s10:droidsans:75"/><use x="13151" y="4118.6" xlink:href="#s10:droidsans:72"/><use x="14247" y="4118.6" xlink:href="#s10:droidsans:76"/><use x="14777" y="4118.6" xlink:href="#s10:droidsans:85"/><use x="15594" y="4118.6" xlink:href="#s10:droidsans:3"/><use x="16126" y="4118.6" xlink:href="#s10:droidsans:86"/><use x="17050" y="4118.6" xlink:href="#s10:droidsans:72"/><use x="18146" y="4118.6" xlink:href="#s10:droidsans:83"/><use x="19346" y="4118.6" xlink:href="#s10:droidsans:68"/><use x="20433" y="4118.6" xlink:href="#s10:droidsans:85"/><use x="21230" y="4118.6" xlink:href="#s10:droidsans:68"/><use x="22317" y="4118.6" xlink:href="#s10:droidsans:87"/><use x="23011" y="4118.6" xlink:href="#s10:droidsans:72"/><use x="24107" y="4118.6" xlink:href="#s10:droidsans:3"/><use x="24639" y="4118.6" xlink:href="#s10:droidsans:72"/><use x="25735" y="4118.6" xlink:href="#s10:droidsans:91"/><use x="26759" y="4118.6" xlink:href="#s10:droidsans:76"/><use x="27289" y="4118.6" xlink:href="#s10:droidsans:86"/><use x="28213" y="4118.6" xlink:href="#s10:droidsans:87"/><use x="28907" y="4118.6" xlink:href="#s10:droidsans:72"/><use x="30003" y="4118.6" xlink:href="#s10:droidsans:81"/><use x="31209" y="4118.6" xlink:href="#s10:droidsans:70"/><use x="32157" y="4118.6" xlink:href="#s10:droidsans:72"/><use x="33253" y="4118.6" xlink:href="#s10:droidsans:3"/><use x="33785" y="4118.6" xlink:href="#s10:droidsans:76"/><use x="34315" y="4118.6" xlink:href="#s10:droidsans:86"/><use x="35239" y="4118.6" xlink:href="#s10:droidsans:3"/><use x="35771" y="4118.6" xlink:href="#s10:droidsans:68"/><use x="36858" y="4118.6" xlink:href="#s10:droidsans:3"/><use x="37390" y="4118.6" xlink:href="#s10:droidsans:80"/><use x="39225" y="4118.6" xlink:href="#s10:droidsans:92"/><use x="40226" y="4118.6" xlink:href="#s10:droidsans:87"/><use x="40920" y="4118.6" xlink:href="#s10:droidsans:75"/><use x="42126" y="4118.6" xlink:href="#s10:droidsans:17"/></g><g id="line-2"><use x="13308.5" y="6576.2" xlink:href="#s10:droidsans:41"/><use x="14314.5" y="6576.2" xlink:href="#s10:droidsans:82"/><use x="15496.5" y="6576.2" xlink:href="#s10:droidsans:85"/><use x="16313.5" y="6576.2" xlink:href="#s10:droidsans:3"/><use x="16845.5" y="6576.2" xlink:href="#s10:droidsans:86"/><use x="17769.5" y="6576.2" xlink:href="#s10:droidsans:70"/><use x="18717.5" y="6576.2" xlink:href="#s10:droidsans:76"/><use x="19247.5" y="6576.2" xlink:href="#s10:droidsans:72"/><use x="20343.5" y="6576.2" xlink:href="#s10:droidsans:81"/><use x="21549.5" y="6576.2" xlink:href="#s10:droidsans:70"/><use x="22497.5" y="6576.2" xlink:href="#s10:droidsans:72"/><use x="23593.5" y="6576.2" xlink:href="#s10:droidsans:15"/><use x="24105.5" y="6576.2" xlink:href="#s10:droidsans:3"/><use x="24637.5" y="6576.2" xlink:href="#s10:droidsans:80"/><use x="26472.5" y="6576.2" xlink:href="#s10:droidsans:88"/><use x="27678.5" y="6576.2" xlink:href="#s10:droidsans:86"/><use x="28602.5" y="6576.2" xlink:href="#s10:droidsans:76"/><use x="29132.5" y="6576.2" xlink:href="#s10:droidsans:70"/><use x="30080.5" y="6576.2" xlink:href="#s10:droidsans:15"/><use x="30592.5" y="6576.2" xlink:href="#s10:droidsans:3"/><use x="31124.5" y="6576.2" xlink:href="#s10:droidsans:86"/><use x="32048.5" y="6576.2" xlink:href="#s10:droidsans:83"/><use x="33248.5" y="6576.2" xlink:href="#s10:droidsans:82"/><use x="34430.5" y="6576.2" xlink:href="#s10:droidsans:85"/><use x="35247.5" y="6576.2" xlink:href="#s10:droidsans:87"/><use x="35941.5" y="6576.2" xlink:href="#s10:droidsans:15"/><use x="36453.5" y="6576.2" xlink:href="#s10:droidsans:3"/><use x="36985.5" y="6576.2" xlink:href="#s10:droidsans:72"/><use x="38081.5" y="6576.2" xlink:href="#s10:droidsans:87"/><use x="38775.5" y="6576.2" xlink:href="#s10:droidsans:70"/><use x="39723.5" y="6576.2" xlink:href="#s10:droidsans:15"/></g></svg>