<svg xmlns="http://www.w3.org/2000/svg" xmlns:xlink="http://www.w3.org/1999/xlink" width="660" height="83" viewBox="0 0 56357 7068.2"><defs><path id="s43:droidserif:55" d="M729-233Q729-185 742.50-156Q756-127 778.50-111.50Q801-96 832-91Q863-86 897-86L944-86L944 0L307 0L307-86L354-86Q388-86 418.50-90.50Q449-95 472-109Q495-123 508.50-150.50Q522-178 522-223L522-1360L326-1360Q281-1360 250.50-1346.50Q220-1333 200.50-1310Q181-1287 171.50-1256.50Q162-1226 158-1192L147-1104L41-1104L51-1462L1204-1462L1214-1104L1108-1104L1098-1192Q1094-1226 1084-1256.50Q1074-1287 1055-1310Q1036-1333 1005-1346.50Q974-1360 928-1360L729-1360L729-233Z"/><path id="s43:droidserif:75" d="M588-86L588 0L37 0L37-86L53-86Q88-86 118.50-91Q149-96 171.50-111.50Q194-127 207.50-156Q221-185 221-233L221-1331Q221-1376 207.50-1403.50Q194-1431 171-1446Q148-1461 117.50-1465.50Q87-1470 53-1470L37-1470L37-1556L414-1556L414-1106Q414-1078 413-1047.50Q412-1017 410-991Q408-961 406-932L416-932Q508-1118 717-1118Q804-1118 871.50-1094.50Q939-1071 985-1022.50Q1031-974 1055-898Q1079-822 1079-717L1079-233Q1079-185 1091-156Q1103-127 1124-111.50Q1145-96 1174-91Q1203-86 1237-86L1243-86L1243 0L887 0L887-707Q887-774 875-826Q863-878 836.50-914Q810-950 767-968.50Q724-987 662-987Q598-987 551.50-963.50Q505-940 474.50-896.50Q444-853 429-791.50Q414-730 414-655L414-223Q414-178 427.50-150.50Q441-123 464-109Q487-95 517.50-90.50Q548-86 582-86L588-86Z"/><path id="s43:droidserif:72" d="M563-1008Q449-1008 387.50-915.50Q326-823 315-645L786-645Q786-726 774-793Q762-860 736-908Q710-956 667.50-982Q625-1008 563-1008M588 20Q477 20 388.50-17.50Q300-55 239-127Q178-199 145.50-303.50Q113-408 113-541Q113-828 231-973Q349-1118 567-1118Q666-1118 745-1087Q824-1056 879-994.50Q934-933 963.50-841.50Q993-750 993-629L993-535L311-535Q313-423 333.50-342.50Q354-262 392.50-210Q431-158 487-133.50Q543-109 616-109Q669-109 714.50-121Q760-133 797-153Q834-173 862.50-198.50Q891-224 909-252Q923-246 935.50-227Q948-208 948-182Q948-151 926-115.50Q904-80 859-50Q814-20 746.50 0Q679 20 588 20Z"/><path id="s43:droidserif:3" d=""/><path id="s43:droidserif:40" d="M479-102L874-102Q923-102 957.50-115.50Q992-129 1015-152Q1038-175 1051-205.50Q1064-236 1069-270L1083-358L1190-358L1176 0L78 0L78-86L104-86Q138-86 168.50-90.50Q199-95 222-109Q245-123 258.50-150.50Q272-178 272-223L272-1229Q272-1277 259-1306Q246-1335 223-1350.50Q200-1366 169.50-1371Q139-1376 104-1376L78-1376L78-1462L1110-1462L1120-1104L1014-1104L1004-1192Q1000-1226 988.50-1256.50Q977-1287 955.50-1310Q934-1333 901.50-1346.50Q869-1360 823-1360L479-1360L479-815L973-815L973-715L479-715L479-102Z"/><path id="s43:droidserif:88" d="M1079-223Q1079-178 1092.50-150.50Q1106-123 1129-109Q1152-95 1182.50-90.50Q1213-86 1247-86L1253-86L1253 0L928 0L901-166L891-166Q860-108 822.50-72Q785-36 743-15.50Q701 5 655 12.50Q609 20 559 20Q478 20 415-3Q352-26 309-75Q266-124 243.50-200Q221-276 221-381L221-872Q221-917 207.50-944.50Q194-972 171-987Q148-1002 117.50-1007Q87-1012 53-1012L47-1012L47-1098L414-1098L414-391Q414-324 424.50-272Q435-220 459.50-184Q484-148 525.50-129.50Q567-111 629-111Q697-111 745.50-135Q794-159 825.50-202.50Q857-246 872-307Q887-368 887-442L887-864Q887-912 873.50-941.50Q860-971 837.50-986.50Q815-1002 784.50-1007Q754-1012 719-1012L713-1012L713-1098L1079-1098L1079-223Z"/><path id="s43:droidserif:85" d="M659 0L68 0L68-86L74-86Q109-86 139.50-91Q170-96 192.50-111.50Q215-127 228.50-156Q242-185 242-233L242-872Q242-917 228.50-944.50Q215-972 192-987Q169-1002 138.50-1007Q108-1012 74-1012L68-1012L68-1098L383-1098L422-895L432-895Q452-941 473-981.50Q494-1022 524.50-1052.50Q555-1083 600-1100.50Q645-1118 713-1118Q825-1118 879.50-1079Q934-1040 934-969Q934-937 923.50-910Q913-883 890-863.50Q867-844 831-833.50Q795-823 743-823Q743-908 719-945.50Q695-983 635-983Q597-983 567-961.50Q537-940 514.50-904.50Q492-869 476.50-823Q461-777 451.50-728.50Q442-680 438-632Q434-584 434-545L434-223Q434-178 447.50-150.50Q461-123 484-109Q507-95 537.50-90.50Q568-86 602-86L659-86L659 0Z"/><path id="s43:droidserif:82" d="M1069-551Q1069-262 946.50-121Q824 20 588 20Q477 20 389-15Q301-50 239.50-121Q178-192 145.50-299.50Q113-407 113-551Q113-838 234.50-978Q356-1118 594-1118Q705-1118 793-1083.50Q881-1049 942.50-978.50Q1004-908 1036.50-801.50Q1069-695 1069-551M311-551Q311-437 326-350Q341-263 374.50-204.50Q408-146 461.50-116Q515-86 592-86Q669-86 722-116Q775-146 808-204.50Q841-263 855.50-350Q870-437 870-551Q870-665 855-751Q840-837 807-894.50Q774-952 720.50-981Q667-1010 590-1010Q513-1010 460-981Q407-952 374-894.50Q341-837 326-751Q311-665 311-551Z"/><path id="s43:droidserif:83" d="M692-987Q612-987 558.50-960.50Q505-934 473-880Q441-826 427.50-744Q414-662 414-551Q414-444 427.50-362Q441-280 473.50-224Q506-168 559.50-139.50Q613-111 694-111Q762-111 809.50-139.50Q857-168 887.50-224Q918-280 932-362.50Q946-445 946-553Q946-662 932-743.50Q918-825 887.50-879Q857-933 808.50-960Q760-987 692-987M1145-551Q1145-403 1117.50-295Q1090-187 1037-117Q984-47 906-13.50Q828 20 727 20Q668 20 620 7Q572-6 533.50-30Q495-54 465.50-87Q436-120 414-160L406-160Q408-107 410-61Q411-42 411.50-21.50Q412-1 412.50 17Q413 35 413.50 49.50Q414 64 414 72L414 268Q414 313 427.50 340.50Q441 368 464 382.50Q487 397 517.50 401.50Q548 406 582 406L588 406L588 492L37 492L37 406L53 406Q88 406 118.50 401Q149 396 171.50 380.50Q194 365 207.50 335.50Q221 306 221 258L221-872Q221-917 207.50-944.50Q194-972 171-987Q148-1002 117.50-1007Q87-1012 53-1012L27-1012L27-1098L385-1098L406-913L414-913Q437-960 466-998Q495-1036 533-1062.50Q571-1089 619-1103.50Q667-1118 727-1118Q828-1118 906-1084.50Q984-1051 1037-981.50Q1090-912 1117.50-805Q1145-698 1145-551Z"/><path id="s43:droidserif:68" d="M301-297Q301-201 341.50-153.50Q382-106 467-106Q529-106 579.50-126Q630-146 665.50-183Q701-220 720-273Q739-326 739-391L739-557L608-551Q521-547 462.50-529.50Q404-512 368-480.50Q332-449 316.50-403Q301-357 301-297M549-1016Q490-1016 453.50-999.50Q417-983 396.50-953Q376-923 369-882Q362-841 362-793Q277-793 232.50-822Q188-851 188-922Q188-975 217-1012Q246-1049 296.50-1072.50Q347-1096 414-1107Q481-1118 557-1118Q651-1118 721-1099.50Q791-1081 838-1039Q885-997 908.50-929.50Q932-862 932-764L932-233Q932-190 939-162Q946-134 961-117Q976-100 1000.50-93Q1025-86 1059-86L1065-86L1065 0L788 0L756-176L739-176Q707-133 677-97Q647-61 611-35Q575-9 529.50 5.50Q484 20 420 20Q352 20 293.50 0.50Q235-19 192.50-59.50Q150-100 126-161.50Q102-223 102-307Q102-470 218-549Q334-628 569-635L739-641L739-764Q739-819 733-865.50Q727-912 707-945.50Q687-979 649.50-997.50Q612-1016 549-1016Z"/><path id="s43:droidserif:81" d="M608-86L608 0L57 0L57-86L74-86Q109-86 139.50-91Q170-96 192.50-111.50Q215-127 228.50-156Q242-185 242-233L242-872Q242-917 228.50-944.50Q215-972 192-987Q169-1002 138.50-1007Q108-1012 74-1012L68-1012L68-1098L399-1098L426-932L436-932Q468-989 503.50-1025.50Q539-1062 578.50-1082.50Q618-1103 662.50-1110.50Q707-1118 756-1118Q837-1118 900.50-1094.50Q964-1071 1008.50-1022.50Q1053-974 1076.50-898Q1100-822 1100-717L1100-233Q1100-185 1111.50-156Q1123-127 1144-111.50Q1165-96 1194-91Q1223-86 1257-86L1264-86L1264 0L907 0L907-707Q907-774 895-826Q883-878 856.50-914Q830-950 787-968.50Q744-987 682-987Q612-987 564.50-960Q517-933 488-887Q459-841 446.50-781Q434-721 434-655L434-223Q434-178 447.50-150.50Q461-123 484-109Q507-95 537.50-90.50Q568-86 602-86L608-86Z"/><path id="s43:droidserif:79" d="M53-86Q88-86 118.50-91Q149-96 171.50-111.50Q194-127 207.50-156Q221-185 221-233L221-1331Q221-1376 207.50-1403.50Q194-1431 171-1446Q148-1461 117.50-1465.50Q87-1470 53-1470L27-1470L27-1556L414-1556L414-233Q414-185 427-156Q440-127 463-111.50Q486-96 516.50-91Q547-86 582-86L608-86L608 0L27 0L27-86L53-86Z"/><path id="s43:droidserif:74" d="M1077-1055Q1077-1033 1070.50-1013.50Q1064-994 1051-979.50Q1038-965 1017.50-956.50Q997-948 969-948Q969-960 966-972Q963-984 955.50-994.50Q948-1005 935-1011.50Q922-1018 901-1018Q875-1018 854-1012Q833-1006 813-993Q848-950 870.50-891.50Q893-833 893-745Q893-669 870-604.50Q847-540 801.50-493Q756-446 686.50-419.50Q617-393 524-393Q512-393 497-393.50Q482-394 467-394.50Q452-395 439-396.50Q426-398 418-399Q398-389 380-377Q362-365 348.50-350Q335-335 327-316Q319-297 319-274Q319-249 328.50-234Q338-219 355-210.50Q372-202 395.50-199.50Q419-197 446-197L678-197Q770-197 834-174Q898-151 938.50-110.50Q979-70 997.50-13.50Q1016 43 1016 109Q1016 197 983.50 268Q951 339 884 388.50Q817 438 714.50 465Q612 492 473 492Q259 492 153 413Q47 334 47 193Q47 133 68 88Q89 43 124.50 11Q160-21 206-41Q252-61 303-70Q282-79 262-94Q242-109 226-130Q210-151 200-178Q190-205 190-238Q190-299 222-343.50Q254-388 324-430Q280-448 245.50-479.50Q211-511 187.50-551.50Q164-592 151.50-640Q139-688 139-739Q139-828 163-898Q187-968 235-1017Q283-1066 355-1092Q427-1118 524-1118Q561-1118 597-1112.50Q633-1107 663.50-1097.50Q694-1088 718.50-1076Q743-1064 758-1051Q773-1067 793-1086.50Q813-1106 838-1122.50Q863-1139 892.50-1150Q922-1161 956-1161Q987-1161 1009.50-1152.50Q1032-1144 1047-1129.50Q1062-1115 1069.50-1095.50Q1077-1076 1077-1055M213 180Q213 225 225 264Q237 303 267 331Q297 359 348 375Q399 391 477 391Q587 391 658.50 372.50Q730 354 772 321Q814 288 831 242.50Q848 197 848 143Q848 96 834.50 65.50Q821 35 794.50 17.50Q768 0 729-7Q690-14 639-14L438-14Q395-14 354.50-6.50Q314 1 282.50 22Q251 43 232 81Q213 119 213 180M332-745Q332-614 375.50-553Q419-492 518-492Q568-492 602.50-507Q637-522 659-553Q681-584 690.50-632.50Q700-681 700-748Q700-886 658-952Q616-1018 516-1018Q417-1018 374.50-950.50Q332-883 332-745Z"/><path id="s43:droidserif:86" d="M430 20Q353 20 290.50 6.50Q228-7 184-34.50Q140-62 116-102.50Q92-143 92-197Q92-238 105.50-265.50Q119-293 138.50-309Q158-325 180.50-331.50Q203-338 221-338Q221-284 232-237Q243-190 269-154.50Q295-119 337.50-98.50Q380-78 442-78Q497-78 539-91.50Q581-105 609.50-129.50Q638-154 653-188.50Q668-223 668-264Q668-302 656.50-329.50Q645-357 616.50-381Q588-405 539-430Q490-455 416-487Q337-522 278.50-554.50Q220-587 182-625Q144-663 125-711.50Q106-760 106-827Q106-897 133.50-951Q161-1005 212-1041.50Q263-1078 334-1097Q405-1116 492-1116Q565-1116 621-1101Q677-1086 715-1060.50Q753-1035 772-1000.50Q791-966 791-928Q791-872 752.50-838.50Q714-805 643-805Q643-908 600.50-965Q558-1022 467-1022Q415-1022 378-1010Q341-998 317.50-976Q294-954 283-924Q272-894 272-858Q272-819 286-790.50Q300-762 330.50-738Q361-714 409.50-691.50Q458-669 526-641Q607-607 665-574Q723-541 760.50-502Q798-463 816-414Q834-365 834-301Q834-221 805-161Q776-101 723-60.50Q670-20 595.50 0Q521 20 430 20Z"/><path id="s43:droidserif:80" d="M608-86L608 0L57 0L57-86L84-86Q119-86 148-91Q177-96 198-111.50Q219-127 230.50-156Q242-185 242-233L242-872Q242-917 230-944.50Q218-972 197-987Q176-1002 147-1007Q118-1012 84-1012L78-1012L78-1098L399-1098L426-932L436-932Q467-989 501-1025.50Q535-1062 573.50-1082.50Q612-1103 654.50-1110.50Q697-1118 745-1118Q795-1118 840-1108Q885-1098 923.50-1076Q962-1054 992.50-1018.50Q1023-983 1042-932L1059-932Q1090-989 1126-1025.50Q1162-1062 1202.50-1082.50Q1243-1103 1287.50-1110.50Q1332-1118 1380-1118Q1458-1118 1520-1094.50Q1582-1071 1625-1022.50Q1668-974 1691-898Q1714-822 1714-717L1714-233Q1714-185 1726-156Q1738-127 1759-111.50Q1780-96 1809-91Q1838-86 1872-86L1878-86L1878 0L1522 0L1522-707Q1522-774 1510.50-826Q1499-878 1473.50-914Q1448-950 1407-968.50Q1366-987 1307-987Q1243-987 1199.50-962.50Q1156-938 1129-896Q1102-854 1090.50-799Q1079-744 1079-682L1079-233Q1079-185 1091-156Q1103-127 1124-111.50Q1145-96 1174-91Q1203-86 1237-86L1243-86L1243 0L887 0L887-707Q887-774 875.50-826Q864-878 838.50-914Q813-950 772-968.50Q731-987 672-987Q605-987 559.50-960Q514-933 486-887Q458-841 446-781Q434-721 434-655L434-223Q434-178 447.50-150.50Q461-123 484-109Q507-95 537.50-90.50Q568-86 602-86L608-86Z"/><path id="s43:droidserif:69" d="M1145-551Q1145-403 1117.50-295Q1090-187 1037-117Q984-47 906-13.50Q828 20 727 20Q668 20 620 7Q572-6 533.50-30Q495-54 465.50-87Q436-120 414-160L401-160L365 0L37 0L37-86L53-86Q88-86 118.50-91Q149-96 171.50-111.50Q194-127 207.50-156Q221-185 221-233L221-1331Q221-1376 207.50-1403.50Q194-1431 171-1446Q148-1461 117.50-1465.50Q87-1470 53-1470L37-1470L37-1556L414-1556L414-1180Q414-1145 413-1099.50Q412-1054 410-1012Q408-964 406-913L414-913Q437-960 466-998Q495-1036 533-1062.50Q571-1089 619-1103.50Q667-1118 727-1118Q828-1118 906-1084.50Q984-1051 1037-981.50Q1090-912 1117.50-805Q1145-698 1145-551M692-987Q612-987 558.50-960.50Q505-934 473-880Q441-826 427.50-744Q414-662 414-551Q414-444 427.50-362Q441-280 473.50-224Q506-168 559.50-139.50Q613-111 694-111Q762-111 809.50-139.50Q857-168 887.50-224Q918-280 932-362.50Q946-445 946-553Q946-662 932-743.50Q918-825 887.50-879Q857-933 808.50-960Q760-987 692-987Z"/><path id="s43:droidserif:73" d="M688-86L688 0L55 0L55-86L82-86Q117-86 147.50-91Q178-96 200.50-111.50Q223-127 236.50-156Q250-185 250-233L250-1001L63-1001L63-1098L250-1098L250-1200Q250-1292 275-1362Q300-1432 347-1480Q394-1528 461-1552.50Q528-1577 612-1577Q692-1577 747-1566.50Q802-1556 835.50-1537Q869-1518 884-1492Q899-1466 899-1434Q899-1406 886.50-1384.50Q874-1363 851.50-1348.50Q829-1334 798.50-1326.50Q768-1319 731-1319Q731-1350 724.50-1379.50Q718-1409 702.50-1432Q687-1455 661-1469Q635-1483 596-1483Q552-1483 522.50-1466Q493-1449 475-1415.50Q457-1382 449.50-1333Q442-1284 442-1219L442-1098L731-1098L731-1001L442-1001L442-233Q442-185 455.50-156Q469-127 491.50-111.50Q514-96 545-91Q576-86 610-86L688-86Z"/><path id="s43:droidserif:87" d="M543-88Q580-88 611-92Q642-96 674-102L674-12Q661-6 640 0Q619 6 594.50 10.50Q570 15 543 17.50Q516 20 492 20Q414 20 358 3.50Q302-13 266-50Q230-87 212.50-148Q195-209 195-297L195-981L39-981L39-1063Q76-1063 120.50-1078Q165-1093 199-1128Q234-1166 255.50-1218.50Q277-1271 293-1350L387-1350L387-1098L655-1098L655-981L387-981L387-291Q387-186 429.50-137Q472-88 543-88Z"/><path id="s43:droidserif:76" d="M74-86Q108-86 138.50-90.50Q169-95 192-109Q215-123 228.50-150.50Q242-178 242-223L242-872Q242-917 228.50-944.50Q215-972 192-987Q169-1002 138.50-1007Q108-1012 74-1012L68-1012L68-1098L434-1098L434-233Q434-185 447.50-156Q461-127 483.50-111.50Q506-96 537-91Q568-86 602-86L629-86L629 0L47 0L47-86L74-86M213-1430Q213-1466 222-1490Q231-1514 247-1529Q263-1544 284-1550Q305-1556 330-1556Q354-1556 375-1550Q396-1544 411.50-1529Q427-1514 436.50-1490Q446-1466 446-1430Q446-1394 436.50-1370Q427-1346 411.50-1331Q396-1316 375-1309.50Q354-1303 330-1303Q305-1303 284-1309.50Q263-1316 247-1331Q231-1346 222-1370Q213-1394 213-1430Z"/><path id="s43:droidserif:92" d="M1157-1098L1157-1012L1151-1012Q1121-1012 1099.50-1005.50Q1078-999 1060.50-981Q1043-963 1028-932Q1013-901 995-852L684 8Q648 107 616 182Q584 257 549 310.50Q514 364 472.50 399Q431 434 378 455Q325 476 256 484Q187 492 96 492L78 492L78 395Q182 395 257 364Q332 333 386.50 279Q441 225 477.50 151.50Q514 78 539-8L160-903Q146-935 133-955.50Q120-976 103.50-989Q87-1002 65.50-1007Q44-1012 14-1012L8-1012L8-1098L500-1098L500-1012L494-1012Q432-1012 401.50-988Q371-964 371-913Q371-896 374.50-878.50Q378-861 387-838L537-473Q551-438 566.50-396.50Q582-355 595.50-314.50Q609-274 620-238Q631-202 635-176L641-176Q652-221 671.50-285.50Q691-350 717-424L854-823Q863-848 867.50-871Q872-894 872-911Q872-964 838.50-988Q805-1012 737-1012L731-1012L731-1098L1157-1098Z"/><path id="s43:droidserif:17" d="M164-125Q164-165 174-191.50Q184-218 201.50-234Q219-250 242.50-257Q266-264 293-264Q319-264 342.50-257Q366-250 383.50-234Q401-218 411.50-191.50Q422-165 422-125Q422-86 411.50-59Q401-32 383.50-16Q366 0 342.50 7Q319 14 293 14Q266 14 242.50 7Q219 0 201.50-16Q184-32 174-59Q164-86 164-125Z"/><path id="s43:droidserif:91" d="M786-952Q786-989 754.50-1000.50Q723-1012 676-1012L670-1012L670-1098L1118-1098L1118-1012L1100-1012Q1070-1012 1045.50-1007Q1021-1002 997.50-988Q974-974 949-948Q924-922 893-881L682-600L983-195Q1028-135 1068.50-110.50Q1109-86 1147-86L1174-86L1174 0L645 0L645-86L655-86Q778-86 778-154Q778-165 775-176.50Q772-188 763-203.50Q754-219 739-241Q724-263 700-295L563-479L420-279Q411-267 401-251Q391-235 383-218Q375-201 370-183.50Q365-166 365-150Q365-115 394-100.50Q423-86 492-86L498-86L498 0L10 0L10-86L29-86Q66-86 94-92Q122-98 147-113Q172-128 197-153.50Q222-179 252-217L510-551L252-903Q207-956 164.50-984Q122-1012 76-1012L49-1012L49-1098L569-1098L569-1012L563-1012Q528-1012 505-1007.50Q482-1003 469-994.50Q456-986 451-975Q446-964 446-952Q446-931 458.50-910.50Q471-890 494-858L629-674L735-827Q758-862 772-893Q786-924 786-952Z"/><path id="s43:droidserif:70" d="M580 20Q478 20 392-11.50Q306-43 244-111Q182-179 147.50-285.50Q113-392 113-543Q113-707 147.50-817.50Q182-928 243.50-995Q305-1062 388.50-1090Q472-1118 569-1118Q633-1118 696.50-1105.50Q760-1093 811-1067Q862-1041 894-1001.50Q926-962 926-909Q926-838 880-809Q834-780 743-780Q743-828 735-871Q727-914 707.50-946.50Q688-979 654.50-997.50Q621-1016 569-1016Q510-1016 462.50-994Q415-972 381-918Q347-864 329-773Q311-682 311-545Q311-327 383.50-220Q456-113 621-113Q716-113 787-153Q858-193 893-256Q908-244 918-224Q928-204 928-176Q928-141 906-106Q884-71 840.50-43Q797-15 732 2.50Q667 20 580 20Z"/><path id="s43:droidserif:41" d="M479-1360L479-768L973-768L973-668L479-668L479-233Q479-185 492.50-156Q506-127 528.50-111.50Q551-96 582-91Q613-86 647-86L715-86L715 0L78 0L78-86L104-86Q138-86 168.50-90.50Q199-95 222-109Q245-123 258.50-150.50Q272-178 272-223L272-1237Q272-1282 258.50-1309.50Q245-1337 222-1352Q199-1367 168.50-1371.50Q138-1376 104-1376L78-1376L78-1462L1110-1462L1120-1104L1014-1104L1004-1192Q1000-1227 988-1257.50Q976-1288 953.50-1310.50Q931-1333 897-1346.50Q863-1360 815-1360L479-1360Z"/><path id="s43:droidserif:15" d="M397-86Q397-21 379 40Q361 101 320.50 153Q280 205 216.50 246.50Q153 288 61 315L61 229Q162 197 209 151Q256 105 256 45Q256 25 245 11.50Q234-2 217-12.50Q200-23 181-33Q162-43 145-57Q128-71 117-91.50Q106-112 106-143Q106-202 144.50-233Q183-264 240-264Q272-264 300-252.50Q328-241 350-218.50Q372-196 384.50-162.50Q397-129 397-86Z"/></defs><g id="line-0"><use x="0" y="1661" xlink:href="#s43:droidserif:55"/><use x="1255" y="1661" xlink:href="#s43:droidserif:75"/><use x="2555" y="1661" xlink:href="#s43:droidserif:72"/><use x="3651" y="1661" xlink:href="#s43:droidserif:3"/><use x="4183" y="1661" xlink:href="#s43:droidserif:40"/><use x="5459" y="1661" xlink:href="#s43:droidserif:88"/><use x="6759" y="1661" xlink:href="#s43:droidserif:85"/><use x="7724" y="1661" xlink:href="#s43:droidserif:82"/><use x="8906" y="1661" xlink:href="#s43:droidserif:83"/><use x="10163" y="1661" xlink:href="#s43:droidserif:72"/><use x="11259" y="1661" xlink:href="#s43:droidserif:68"/><use x="12412" y="1661" xlink:href="#s43:droidserif:81"/><use x="13733" y="1661" xlink:href="#s43:droidserif:3"/><use x="14265" y="1661" xlink:href="#s43:droidserif:79"/><use x="14900" y="1661" xlink:href="#s43:droidserif:68"/><use x="16053" y="1661" xlink:href="#s43:droidserif:81"/><use x="17374" y="1661" xlink:href="#s43:droidserif:74"/><use x="18476" y="1661" xlink:href="#s43:droidserif:88"/><use x="19776" y="1661" xlink:href="#s43:droidserif:68"/><use x="20929" y="1661" xlink:href="#s43:droidserif:74"/><use x="22031" y="1661" xlink:href="#s43:droidserif:72"/><use x="23127" y="1661" xlink:href="#s43:droidserif:86"/><use x="24051" y="1661" xlink:href="#s43:droidserif:3"/><use x="24583" y="1661" xlink:href="#s43:droidserif:68"/><use x="25736" y="1661" xlink:href="#s43:droidserif:85"/><use x="26701" y="1661" xlink:href="#s43:droidserif:72"/><use x="27797" y="1661" xlink:href="#s43:droidserif:3"/><use x="28329" y="1661" xlink:href="#s43:droidserif:80"/><use x="30264" y="1661" xlink:href="#s43:droidserif:72"/><use x="31360" y="1661" xlink:href="#s43:droidserif:80"/><use x="33295" y="1661" xlink:href="#s43:droidserif:69"/><use x="34552" y="1661" xlink:href="#s43:droidserif:72"/><use x="35648" y="1661" xlink:href="#s43:droidserif:85"/><use x="36613" y="1661" xlink:href="#s43:droidserif:86"/><use x="37537" y="1661" xlink:href="#s43:droidserif:3"/><use x="38069" y="1661" xlink:href="#s43:droidserif:82"/><use x="39251" y="1661" xlink:href="#s43:droidserif:73"/><use x="40007" y="1661" xlink:href="#s43:droidserif:3"/><use x="40539" y="1661" xlink:href="#s43:droidserif:87"/><use x="41260" y="1661" xlink:href="#s43:droidserif:75"/><use x="42560" y="1661" xlink:href="#s43:droidserif:72"/><use x="43656" y="1661" xlink:href="#s43:droidserif:3"/><use x="44188" y="1661" xlink:href="#s43:droidserif:86"/><use x="45112" y="1661" xlink:href="#s43:droidserif:68"/><use x="46265" y="1661" xlink:href="#s43:droidserif:80"/><use x="48200" y="1661" xlink:href="#s43:droidserif:72"/><use x="49296" y="1661" xlink:href="#s43:droidserif:3"/><use x="49828" y="1661" xlink:href="#s43:droidserif:73"/><use x="50584" y="1661" xlink:href="#s43:droidserif:68"/><use x="51737" y="1661" xlink:href="#s43:droidserif:80"/><use x="53672" y="1661" xlink:href="#s43:droidserif:76"/><use x="54327" y="1661" xlink:href="#s43:droidserif:79"/><use x="54962" y="1661" xlink:href="#s43:droidserif:92"/><use x="55935" y="1661" xlink:href="#s43:droidserif:17"/></g><g id="line-1"><use x="11367" y="4118.6" xlink:href="#s43:droidserif:55"/><use x="12622" y="4118.6" xlink:href="#s43:droidserif:75"/><use x="13922" y="4118.6" xlink:href="#s43:droidserif:72"/><use x="15018" y="4118.6" xlink:href="#s43:droidserif:76"/><use x="15673" y="4118.6" xlink:href="#s43:droidserif:85"/><use x="16638" y="4118.6" xlink:href="#s43:droidserif:3"/><use x="17170" y="4118.6" xlink:href="#s43:droidserif:86"/><use x="18094" y="4118.6" xlink:href="#s43:droidserif:72"/><use x="19190" y="4118.6" xlink:href="#s43:droidserif:83"/><use x="20447" y="4118.6" xlink:href="#s43:droidserif:68"/><use x="21600" y="4118.6" xlink:href="#s43:droidserif:85"/><use x="22524" y="4118.6" xlink:href="#s43:droidserif:68"/><use x="23677" y="4118.6" xlink:href="#s43:droidserif:87"/><use x="24398" y="4118.6" xlink:href="#s43:droidserif:72"/><use x="25494" y="4118.6" xlink:href="#s43:droidserif:3"/><use x="26026" y="4118.6" xlink:href="#s43:droidserif:72"/><use x="27122" y="4118.6" xlink:href="#s43:droidserif:91"/><use x="28306" y="4118.6" xlink:href="#s43:droidserif:76"/><use x="28961" y="4118.6" xlink:href="#s43:droidserif:86"/><use x="29885" y="4118.6" xlink:href="#s43:droidserif:87"/><use x="30606" y="4118.6" xlink:href="#s43:droidserif:72"/><use x="31702" y="4118.6" xlink:href="#s43:droidserif:81"/><use x="33023" y="4118.6" xlink:href="#s43:droidserif:70"/><use x="34031" y="4118.6" xlink:href="#s43:droidserif:72"/><use x="35127" y="4118.6" xlink:href="#s43:droidserif:3"/><use x="35659" y="4118.6" xlink:href="#s43:droidserif:76"/><use x="36314" y="4118.6" xlink:href="#s43:droidserif:86"/><use x="37238" y="4118.6" xlink:href="#s43:droidserif:3"/><use x="37770" y="4118.6" xlink:href="#s43:droidserif:68"/><use x="38923" y="4118.6" xlink:href="#s43:droidserif:3"/><use x="39455" y="4118.6" xlink:href="#s43:droidserif:80"/><use x="41390" y="4118.6" xlink:href="#s43:droidserif:92"/><use x="42547" y="4118.6" xlink:href="#s43:droidserif:87"/><use x="43268" y="4118.6" xlink:href="#s43:droidserif:75"/><use x="44568" y="4118.6" xlink:href="#s43:droidserif:17"/></g><g id="line-2"><use x="14109.5" y="6576.2" xlink:href="#s43:droidserif:41"/><use x="15235.5" y="6576.2" xlink:href="#s43:droidserif:82"/><use x="16417.5" y="6576.2" xlink:href="#s43:droidserif:85"/><use x="17382.5" y="6576.2" xlink:href="#s43:droidserif:3"/><use x="17914.5" y="6576.2" xlink:href="#s43:droidserif:86"/><use x="18838.5" y="6576.2" xlink:href="#s43:droidserif:70"/><use x="19846.5" y="6576.2" xlink:href="#s43:droidserif:76"/><use x="20501.5" y="6576.2" xlink:href="#s43:droidserif:72"/><use x="21597.5" y="6576.2" xlink:href="#s43:droidserif:81"/><use x="22918.5" y="6576.2" xlink:href="#s43:droidserif:70"/><use x="23926.5" y="6576.2" xlink:href="#s43:droidserif:72"/><use x="25022.5" y="6576.2" xlink:href="#s43:droidserif:15"/><use x="25534.5" y="6576.2" xlink:href="#s43:droidserif:3"/><use x="26066.5" y="6576.2" xlink:href="#s43:droidserif:80"/><use x="28001.5" y="6576.2" xlink:href="#s43:droidserif:88"/><use x="29301.5" y="6576.2" xlink:href="#s43:droidserif:86"/><use x="30225.5" y="6576.2" xlink:href="#s43:droidserif:76"/><use x="30880.5" y="6576.2" xlink:href="#s43:droidserif:70"/><use x="31888.5" y="6576.2" xlink:href="#s43:droidserif:15"/><use x="32400.5" y="6576.2" xlink:href="#s43:droidserif:3"/><use x="32932.5" y="6576.2" xlink:href="#s43:droidserif:86"/><use x="33856.5" y="6576.2" xlink:href="#s43:droidserif:83"/><use x="35113.5" y="6576.2" xlink:href="#s43:droidserif:82"/><use x="36295.5" y="6576.2" xlink:href="#s43:droidserif:85"/><use x="37260.5" y="6576.2" xlink:href="#s43:droidserif:87"/><use x="37981.5" y="6576.2" xlink:href="#s43:droidserif:15"/><use x="38493.5" y="6576.2" xlink:href="#s43:droidserif:3"/><use x="39025.5" y="6576.2" xlink:href="#s43:droidserif:72"/><use x="40121.5" y="6576.2" xlink:href="#s43:droidserif:87"/><use x="40842.5" y="6576.2" xlink:href="#s43:droidserif:70"/><use x="41850.5" y="6576.2" xlink:href="#s43:droidserif:15"/></g></svg>