<svg xmlns="http://www.w3.org/2000/svg" xmlns:xlink="http://www.w3.org/1999/xlink" width="537" height="86" viewBox="0 0 45814 7322.2" ><defs><path id="s44:fjallaone-regular:34" d="M304-1504L29-1504L29-1708L837-1708L837-1504L563-1504L563 0L304 0L304-1504Z"/><path id="s44:fjallaone-regular:17" d="M130-1819L383-1819L383-1495L370-1259Q398-1298 430.50-1323.50Q463-1349 497.50-1364.50Q532-1380 567.50-1386.50Q603-1393 638-1393Q759-1393 824.50-1308.50Q890-1224 890-1055L890 0L637 0L637-1046Q637-1137 609-1172.50Q581-1208 527-1208Q489-1208 450.50-1182.50Q412-1157 383-1112L383 0L130 0L130-1819Z"/><path id="s44:fjallaone-regular:15" d="M462 15Q373 15 304.50-18Q236-51 189-121Q142-191 118-300.50Q94-410 94-564L94-824Q94-955 113.50-1048.50Q133-1142 164.50-1205.50Q196-1269 237.50-1306Q279-1343 323-1362.50Q367-1382 410.50-1387.50Q454-1393 491-1393Q559-1393 622-1372.50Q685-1352 733-1302.50Q781-1253 809.50-1170Q838-1087 838-963Q838-921 835.50-878Q833-835 829-793.50Q825-752 818.50-713Q812-674 805-641L348-641L348-501Q348-411 355-349.50Q362-288 378.50-250.50Q395-213 423.50-196.50Q452-180 495-180Q518-180 540-189.50Q562-199 578.50-221Q595-243 605-279.50Q615-316 615-370L615-413L826-413L826-360Q826-164 732.50-74.50Q639 15 462 15M602-811Q603-822 604-840.50Q605-859 605.50-879Q606-899 606-918.50Q606-938 606-952Q606-1088 574-1148Q542-1208 479-1208Q446-1208 421-1192.50Q396-1177 380-1140.50Q364-1104 356-1044Q348-984 348-895L348-811L602-811Z"/><path id="s44:fjallaone-regular:3" d=""/><path id="s44:fjallaone-regular:7" d="M146-1708L779-1708L779-1504L405-1504L405-993L694-993L694-789L405-789L405-204L789-204L789 0L146 0L146-1708Z"/><path id="s44:fjallaone-regular:24" d="M132-1377L385-1377L385-342Q385-251 413-215.50Q441-180 495-180Q533-180 569-201Q605-222 634-261L634-1377L887-1377L887 0L694 0L669-147L668-147Q638-100 604.50-68.50Q571-37 534.50-18.50Q498 0 460 8Q422 16 384 16Q263 16 197.50-68Q132-152 132-322L132-1377Z"/><path id="s44:fjallaone-regular:55" d="M130-1377L315-1377L337-1237Q379-1315 433.50-1354Q488-1393 545-1393Q654-1393 706-1326Q758-1259 758-1125Q758-1108 755.50-1084.50Q753-1061 748.50-1035.50Q744-1010 737.50-984.50Q731-959 724-938L548-938L548-1066Q548-1108 542.50-1135Q537-1162 528-1178.50Q519-1195 507-1201.50Q495-1208 481-1208Q451-1208 425.50-1188.50Q400-1169 383-1134L383 0L130 0L130-1377Z"/><path id="s44:fjallaone-regular:12" d="M477 15Q433 15 387.50 8Q342 1 299.50-21Q257-43 219.50-84Q182-125 154-192Q126-259 110-357Q94-455 94-591L94-807Q94-941 110.50-1036.50Q127-1132 155.50-1197Q184-1262 222-1300.50Q260-1339 302.50-1359.50Q345-1380 390-1386.50Q435-1393 478-1393Q519-1393 563-1387Q607-1381 649-1361.50Q691-1342 728.50-1303.50Q766-1265 794.50-1200Q823-1135 839.50-1038.50Q856-942 856-807L856-591Q856-457 839-360Q822-263 793-196Q764-129 726-87.50Q688-46 646-23Q604 0 560.50 7.50Q517 15 477 15M479-180Q513-180 536.50-197.50Q560-215 574.50-255Q589-295 595.50-360.50Q602-426 602-523L602-862Q602-959 595.50-1025Q589-1091 574.50-1131.50Q560-1172 536.50-1190Q513-1208 479-1208Q443-1208 418.50-1190Q394-1172 378-1131.50Q362-1091 355-1025Q348-959 348-862L348-523Q348-426 355-360.50Q362-295 378-255Q394-215 418.50-197.50Q443-180 479-180Z"/><path id="s44:fjallaone-regular:21" d="M383 78L383 445L130 445L130-1377L328-1377L351-1232Q368-1260 391.50-1289Q415-1318 446.50-1340.50Q478-1363 517.50-1377.50Q557-1392 606-1392Q627-1392 656.50-1388Q686-1384 717.50-1368Q749-1352 780.50-1320.50Q812-1289 836.50-1234Q861-1179 876.50-1097Q892-1015 892-898L892-481Q892-364 876.50-282Q861-200 836-145Q811-90 779-58Q747-26 714-10Q681 6 650 10.50Q619 15 596 15Q516 15 462.50-16Q409-47 375-91L383 78M383-281Q391-261 402.50-243Q414-225 429.50-211Q445-197 464.50-188.50Q484-180 510-180Q538-180 561-190.50Q584-201 601-228.50Q618-256 627.50-305Q637-354 637-431L637-958Q637-1035 627.50-1083.50Q618-1132 601.50-1160Q585-1188 562-1198Q539-1208 511-1208Q463-1208 432.50-1179.50Q402-1151 383-1113L383-281Z"/><path id="s44:fjallaone-regular:234" d="M320 15Q256 15 206.50-10.50Q157-36 123-80Q89-124 71.50-184.50Q54-245 54-316Q54-401 75-467Q96-533 136.50-586Q177-639 237-682.50Q297-726 376-765Q414-784 461.50-803.50Q509-823 546-837L546-1019Q546-1059 543-1093.50Q540-1128 528.50-1153.50Q517-1179 494-1193.50Q471-1208 431-1208Q404-1208 378.50-1198Q353-1188 333.50-1164Q314-1140 302.50-1100Q291-1060 291-1001L291-941L98-941Q89-980 84.50-1012.50Q80-1045 80-1077Q80-1154 106.50-1213Q133-1272 180.50-1312Q228-1352 294-1372.50Q360-1393 439-1393Q542-1393 610-1370.50Q678-1348 718.50-1303Q759-1258 775.50-1190Q792-1122 792-1031L792 0L604 0L586-118Q545-59 476.50-22Q408 15 320 15M432-180Q464-180 494.50-196.50Q525-213 546-237L546-668Q526-660 501-649Q476-638 447-620Q420-603 394-579Q368-555 347.50-522Q327-489 314.50-447.50Q302-406 302-355Q302-276 333-228Q364-180 432-180Z"/><path id="s44:fjallaone-regular:276" d="M130-1377L325-1377L348-1230L348-1229Q378-1276 412.50-1307.50Q447-1339 484-1358Q521-1377 559.50-1385Q598-1393 636-1393Q757-1393 822.50-1308.50Q888-1224 888-1055L888 0L635 0L635-1046Q635-1137 607-1172.50Q579-1208 525-1208Q487-1208 449.50-1183Q412-1158 383-1114L383 0L130 0L130-1377Z"/><path id="s44:fjallaone-regular:50" d="M134-1819L387-1819L387 0L134 0L134-1819Z"/><path id="s44:fjallaone-regular:51" d="M336 94Q336 183 369 220Q402 257 471 257Q499 257 525 248.50Q551 240 570.50 217.50Q590 195 602 155Q614 115 614 52L614-165Q580-121 526.50-89.50Q473-58 394-58Q371-58 340-62.50Q309-67 276-83Q243-99 211-131.50Q179-164 154-219Q129-274 113.50-356.50Q98-439 98-556L98-918Q98-1030 113.50-1108.50Q129-1187 154-1240Q179-1293 211.50-1323Q244-1353 277.50-1368.50Q311-1384 343-1388Q375-1392 400-1392Q450-1392 488.50-1379Q527-1366 555.50-1344.50Q584-1323 604-1296Q624-1269 638-1242L661-1378L858-1378L858-56Q858 59 836 151.50Q814 244 767 309.50Q720 375 647.50 410Q575 445 474 445Q406 445 346 433Q286 421 241 390.50Q196 360 170 307.50Q144 255 144 174Q144 160 147 139Q150 118 157 94L336 94M480-254Q505-254 524.50-262.50Q544-271 559.50-285Q575-299 586.50-317Q598-335 606-354L606-1107Q587-1149 555.50-1178.50Q524-1208 479-1208Q451-1208 428-1198Q405-1188 388-1160.50Q371-1133 361.50-1084.50Q352-1036 352-959L352-506Q352-429 361.50-380Q371-331 388-303Q405-275 428.50-264.50Q452-254 480-254Z"/><path id="s44:fjallaone-regular:14" d="M76-288Q76-333 84.50-375Q93-417 101-442L279-442Q279-367 286.50-316.50Q294-266 311-236Q328-206 356.50-193Q385-180 426-180Q483-180 509-212Q535-244 535-286Q535-308 529-328Q523-348 512-368.50Q501-389 485-410Q469-431 449-456L264-674Q228-719 194.50-765.50Q161-812 135.50-861.50Q110-911 94.50-965Q79-1019 79-1079Q79-1159 106.50-1218Q134-1277 180.50-1316Q227-1355 288-1374Q349-1393 417-1393Q492-1393 552-1375Q612-1357 655-1321Q698-1285 721-1231.50Q744-1178 744-1107Q744-1059 735.50-1014Q727-969 719-937L544-937Q543-1005 538-1056Q533-1107 519.50-1140.50Q506-1174 482.50-1191Q459-1208 421-1208Q388-1208 366-1197.50Q344-1187 330.50-1170Q317-1153 311.50-1132Q306-1111 306-1089Q306-1041 329-1000Q352-959 390-911L592-674Q614-647 643-608.50Q672-570 698-523.50Q724-477 742-422Q760-367 760-307Q760-234 737-174.50Q714-115 669-73Q624-31 558.50-8Q493 15 409 15Q340 15 279-0.50Q218-16 173-51.50Q128-87 102-145Q76-203 76-288Z"/><path id="s44:fjallaone-regular:23" d="M130-1377L326-1377L348-1230L348-1229Q378-1276 412-1307.50Q446-1339 482.50-1358Q519-1377 557.50-1385Q596-1393 634-1393Q715-1393 771-1354Q827-1315 856-1237Q886-1282 919.50-1312Q953-1342 989-1360Q1025-1378 1062-1385.50Q1099-1393 1137-1393Q1257-1393 1322.50-1308.50Q1388-1224 1388-1055L1388 0L1135 0L1135-1046Q1135-1091 1128-1122Q1121-1153 1107-1172Q1093-1191 1071-1199.50Q1049-1208 1018-1208Q983-1208 948-1182.50Q913-1157 884-1112Q885-1103 885-1094Q885-1085 885-1076L885 0L632 0L632-1046Q632-1091 625-1122Q618-1153 604-1172Q590-1191 568-1199.50Q546-1208 515-1208Q481-1208 446-1183Q411-1158 383-1114L383 0L130 0L130-1377Z"/><path id="s44:fjallaone-regular:20" d="M130-1819L383-1819L383-1452L375-1270L376-1269Q393-1293 415.50-1315Q438-1337 466.50-1354.50Q495-1372 529.50-1382Q564-1392 605-1392Q626-1392 655.50-1388Q685-1384 716.50-1368Q748-1352 779.50-1320.50Q811-1289 835.50-1234Q860-1179 875.50-1097Q891-1015 891-898L891-481Q891-364 875.50-282Q860-200 835-144.50Q810-89 778-57Q746-25 713-9Q680 7 649 11.50Q618 16 595 16Q547 16 508.50 4Q470-8 440.50-28.50Q411-49 388.50-75Q366-101 349-128L328 0L130 0L130-1819M383-279Q391-260 402.50-242Q414-224 429-210.50Q444-197 464-188.50Q484-180 509-180Q537-180 560-190.50Q583-201 600-228.50Q617-256 626.50-305Q636-354 636-431L636-958Q636-1035 626.50-1083.50Q617-1132 600.50-1160Q584-1188 561-1198Q538-1208 510-1208Q463-1208 432.50-1180.50Q402-1153 383-1115L383-279Z"/><path id="s44:fjallaone-regular:30" d="M164-1197L45-1197L45-1377L164-1377L164-1476Q164-1588 187-1658.50Q210-1729 250.50-1768.50Q291-1808 345.50-1822Q400-1836 463-1836Q481-1836 503.50-1834Q526-1832 548.50-1827.50Q571-1823 592.50-1817Q614-1811 631-1802L631-1624Q589-1635 537-1635Q512-1635 489.50-1627Q467-1619 450-1600.50Q433-1582 423-1551.50Q413-1521 413-1476L413-1377L604-1377L604-1197L413-1197L413 0L164 0L164-1197Z"/><path id="s44:fjallaone-regular:32" d="M159-1197L52-1197L52-1377L181-1377L232-1734L412-1734L412-1377L632-1377L632-1197L412-1197L412-321Q412-276 420.50-248.50Q429-221 444-205.50Q459-190 479-185Q499-180 521-180Q558-180 586.50-189Q615-198 641-214L641-74Q619-47 593.50-30Q568-13 541-2.50Q514 8 486 12Q458 16 431 16Q378 16 329 2Q280-12 242-51.50Q204-91 181.50-161Q159-231 159-343L159-1197Z"/><path id="s44:fjallaone-regular:127" d="M265-1574Q195-1574 154.50-1616Q114-1658 114-1739Q114-1784 124.50-1814.50Q135-1845 154.50-1863.50Q174-1882 202-1890.50Q230-1899 266-1899Q341-1899 380-1861Q419-1823 419-1739Q419-1661 379.50-1617.50Q340-1574 265-1574M134-1377L387-1377L387 0L134 0L134-1377Z"/><path id="s44:fjallaone-regular:31" d="M78 265Q135 273 183 261.50Q231 250 265.50 218Q300 186 320.50 133.50Q341 81 344 8L18-1377L275-1377L420-615L462-352L470-352L499-615L616-1377L865-1377L575 51Q556 150 526.50 224Q497 298 453.50 347Q410 396 350 420.50Q290 445 210 445Q145 445 77 420L78 265L78 265Z"/><path id="s44:fjallaone-regular:16" d="M91-179Q91-285 133-331Q175-377 247-377Q322-377 363-328Q404-279 404-179Q404-87 362.50-36.50Q321 14 246 14Q175 14 133-35Q91-84 91-179Z"/><path id="s44:fjallaone-regular:28" d="M311-699L39-1377L298-1377L445-926L447-926L603-1377L845-1377L584-723L877 0L618 0L448-475L440-475L268 0L25 0L311-699Z"/><path id="s44:fjallaone-regular:29" d="M451 15Q277 15 185.50-128Q94-271 94-564L94-824Q94-955 113-1048.50Q132-1142 163.50-1205.50Q195-1269 235.50-1306Q276-1343 319-1362.50Q362-1382 404-1387.50Q446-1393 481-1393Q551-1393 609-1374.50Q667-1356 709-1318.50Q751-1281 774-1224Q797-1167 797-1090Q797-1042 792.50-1007.50Q788-973 780-941L578-941L578-987Q578-1091 553.50-1149.50Q529-1208 473-1208Q442-1208 419-1193.50Q396-1179 380.50-1144Q365-1109 357.50-1050Q350-991 350-902L350-511Q350-421 356-358Q362-295 377-255.50Q392-216 417-198Q442-180 479-180Q498-180 516-189.50Q534-199 547.50-221Q561-243 569.50-279.50Q578-316 578-370L578-413L796-413L796-360Q796-164 709.50-74.50Q623 15 451 15Z"/><path id="s44:fjallaone-regular:45" d="M146-1708L799-1708L799-1504L405-1504L405-993L714-993L714-789L405-789L405 0L146 0L146-1708Z"/><path id="s44:fjallaone-regular:79" d="M155-350L412-350L266 327L55 327L155-350Z"/></defs><g id="line-0"><use x="0" y="1899" xlink:href="#s44:fjallaone-regular:34" /><use x="866" y="1899" xlink:href="#s44:fjallaone-regular:17" /><use x="1888" y="1899" xlink:href="#s44:fjallaone-regular:15" /><use x="2810" y="1899" xlink:href="#s44:fjallaone-regular:3" /><use x="3248" y="1899" xlink:href="#s44:fjallaone-regular:7" /><use x="4078" y="1899" xlink:href="#s44:fjallaone-regular:24" /><use x="5099" y="1899" xlink:href="#s44:fjallaone-regular:55" /><use x="5887" y="1899" xlink:href="#s44:fjallaone-regular:12" /><use x="6837" y="1899" xlink:href="#s44:fjallaone-regular:21" /><use x="7827" y="1899" xlink:href="#s44:fjallaone-regular:15" /><use x="8749" y="1899" xlink:href="#s44:fjallaone-regular:234" /><use x="9673" y="1899" xlink:href="#s44:fjallaone-regular:276" /><use x="10693" y="1899" xlink:href="#s44:fjallaone-regular:3" /><use x="11131" y="1899" xlink:href="#s44:fjallaone-regular:50" /><use x="11652" y="1899" xlink:href="#s44:fjallaone-regular:234" /><use x="12576" y="1899" xlink:href="#s44:fjallaone-regular:276" /><use x="13596" y="1899" xlink:href="#s44:fjallaone-regular:51" /><use x="14589" y="1899" xlink:href="#s44:fjallaone-regular:24" /><use x="15610" y="1899" xlink:href="#s44:fjallaone-regular:234" /><use x="16534" y="1899" xlink:href="#s44:fjallaone-regular:51" /><use x="17527" y="1899" xlink:href="#s44:fjallaone-regular:15" /><use x="18449" y="1899" xlink:href="#s44:fjallaone-regular:14" /><use x="19278" y="1899" xlink:href="#s44:fjallaone-regular:3" /><use x="19716" y="1899" xlink:href="#s44:fjallaone-regular:234" /><use x="20640" y="1899" xlink:href="#s44:fjallaone-regular:55" /><use x="21428" y="1899" xlink:href="#s44:fjallaone-regular:15" /><use x="22350" y="1899" xlink:href="#s44:fjallaone-regular:3" /><use x="22788" y="1899" xlink:href="#s44:fjallaone-regular:23" /><use x="24308" y="1899" xlink:href="#s44:fjallaone-regular:15" /><use x="25230" y="1899" xlink:href="#s44:fjallaone-regular:23" /><use x="26750" y="1899" xlink:href="#s44:fjallaone-regular:20" /><use x="27739" y="1899" xlink:href="#s44:fjallaone-regular:15" /><use x="28661" y="1899" xlink:href="#s44:fjallaone-regular:55" /><use x="29449" y="1899" xlink:href="#s44:fjallaone-regular:14" /><use x="30278" y="1899" xlink:href="#s44:fjallaone-regular:3" /><use x="30716" y="1899" xlink:href="#s44:fjallaone-regular:12" /><use x="31666" y="1899" xlink:href="#s44:fjallaone-regular:30" /><use x="32282" y="1899" xlink:href="#s44:fjallaone-regular:3" /><use x="32720" y="1899" xlink:href="#s44:fjallaone-regular:32" /><use x="33395" y="1899" xlink:href="#s44:fjallaone-regular:17" /><use x="34417" y="1899" xlink:href="#s44:fjallaone-regular:15" /><use x="35339" y="1899" xlink:href="#s44:fjallaone-regular:3" /><use x="35777" y="1899" xlink:href="#s44:fjallaone-regular:14" /><use x="36606" y="1899" xlink:href="#s44:fjallaone-regular:234" /><use x="37530" y="1899" xlink:href="#s44:fjallaone-regular:23" /><use x="39050" y="1899" xlink:href="#s44:fjallaone-regular:15" /><use x="39972" y="1899" xlink:href="#s44:fjallaone-regular:3" /><use x="40410" y="1899" xlink:href="#s44:fjallaone-regular:30" /><use x="41026" y="1899" xlink:href="#s44:fjallaone-regular:234" /><use x="41950" y="1899" xlink:href="#s44:fjallaone-regular:23" /><use x="43470" y="1899" xlink:href="#s44:fjallaone-regular:127" /><use x="43991" y="1899" xlink:href="#s44:fjallaone-regular:50" /><use x="44512" y="1899" xlink:href="#s44:fjallaone-regular:31" /><use x="45410" y="1899" xlink:href="#s44:fjallaone-regular:16" /></g><g id="line-1"><use x="9077" y="4356.6" xlink:href="#s44:fjallaone-regular:34" /><use x="9943" y="4356.6" xlink:href="#s44:fjallaone-regular:17" /><use x="10965" y="4356.6" xlink:href="#s44:fjallaone-regular:15" /><use x="11887" y="4356.6" xlink:href="#s44:fjallaone-regular:127" /><use x="12408" y="4356.6" xlink:href="#s44:fjallaone-regular:55" /><use x="13196" y="4356.6" xlink:href="#s44:fjallaone-regular:3" /><use x="13634" y="4356.6" xlink:href="#s44:fjallaone-regular:14" /><use x="14463" y="4356.6" xlink:href="#s44:fjallaone-regular:15" /><use x="15385" y="4356.6" xlink:href="#s44:fjallaone-regular:21" /><use x="16375" y="4356.6" xlink:href="#s44:fjallaone-regular:234" /><use x="17299" y="4356.6" xlink:href="#s44:fjallaone-regular:55" /><use x="18087" y="4356.6" xlink:href="#s44:fjallaone-regular:234" /><use x="19011" y="4356.6" xlink:href="#s44:fjallaone-regular:32" /><use x="19686" y="4356.6" xlink:href="#s44:fjallaone-regular:15" /><use x="20608" y="4356.6" xlink:href="#s44:fjallaone-regular:3" /><use x="21046" y="4356.6" xlink:href="#s44:fjallaone-regular:15" /><use x="21968" y="4356.6" xlink:href="#s44:fjallaone-regular:28" /><use x="22870" y="4356.6" xlink:href="#s44:fjallaone-regular:127" /><use x="23391" y="4356.6" xlink:href="#s44:fjallaone-regular:14" /><use x="24220" y="4356.6" xlink:href="#s44:fjallaone-regular:32" /><use x="24895" y="4356.6" xlink:href="#s44:fjallaone-regular:15" /><use x="25817" y="4356.6" xlink:href="#s44:fjallaone-regular:276" /><use x="26837" y="4356.6" xlink:href="#s44:fjallaone-regular:29" /><use x="27708" y="4356.6" xlink:href="#s44:fjallaone-regular:15" /><use x="28630" y="4356.6" xlink:href="#s44:fjallaone-regular:3" /><use x="29068" y="4356.6" xlink:href="#s44:fjallaone-regular:127" /><use x="29589" y="4356.6" xlink:href="#s44:fjallaone-regular:14" /><use x="30418" y="4356.6" xlink:href="#s44:fjallaone-regular:3" /><use x="30856" y="4356.6" xlink:href="#s44:fjallaone-regular:234" /><use x="31780" y="4356.6" xlink:href="#s44:fjallaone-regular:3" /><use x="32218" y="4356.6" xlink:href="#s44:fjallaone-regular:23" /><use x="33738" y="4356.6" xlink:href="#s44:fjallaone-regular:31" /><use x="34636" y="4356.6" xlink:href="#s44:fjallaone-regular:32" /><use x="35311" y="4356.6" xlink:href="#s44:fjallaone-regular:17" /><use x="36333" y="4356.6" xlink:href="#s44:fjallaone-regular:16" /></g><g id="line-2"><use x="11066" y="6814.2" xlink:href="#s44:fjallaone-regular:45" /><use x="11892" y="6814.2" xlink:href="#s44:fjallaone-regular:12" /><use x="12842" y="6814.2" xlink:href="#s44:fjallaone-regular:55" /><use x="13630" y="6814.2" xlink:href="#s44:fjallaone-regular:3" /><use x="14068" y="6814.2" xlink:href="#s44:fjallaone-regular:14" /><use x="14897" y="6814.2" xlink:href="#s44:fjallaone-regular:29" /><use x="15768" y="6814.2" xlink:href="#s44:fjallaone-regular:127" /><use x="16289" y="6814.2" xlink:href="#s44:fjallaone-regular:15" /><use x="17211" y="6814.2" xlink:href="#s44:fjallaone-regular:276" /><use x="18231" y="6814.2" xlink:href="#s44:fjallaone-regular:29" /><use x="19102" y="6814.2" xlink:href="#s44:fjallaone-regular:15" /><use x="20024" y="6814.2" xlink:href="#s44:fjallaone-regular:79" /><use x="20536" y="6814.2" xlink:href="#s44:fjallaone-regular:3" /><use x="20974" y="6814.2" xlink:href="#s44:fjallaone-regular:23" /><use x="22494" y="6814.2" xlink:href="#s44:fjallaone-regular:24" /><use x="23515" y="6814.2" xlink:href="#s44:fjallaone-regular:14" /><use x="24344" y="6814.2" xlink:href="#s44:fjallaone-regular:127" /><use x="24865" y="6814.2" xlink:href="#s44:fjallaone-regular:29" /><use x="25736" y="6814.2" xlink:href="#s44:fjallaone-regular:79" /><use x="26248" y="6814.2" xlink:href="#s44:fjallaone-regular:3" /><use x="26686" y="6814.2" xlink:href="#s44:fjallaone-regular:14" /><use x="27515" y="6814.2" xlink:href="#s44:fjallaone-regular:21" /><use x="28505" y="6814.2" xlink:href="#s44:fjallaone-regular:12" /><use x="29455" y="6814.2" xlink:href="#s44:fjallaone-regular:55" /><use x="30243" y="6814.2" xlink:href="#s44:fjallaone-regular:32" /><use x="30918" y="6814.2" xlink:href="#s44:fjallaone-regular:79" /><use x="31430" y="6814.2" xlink:href="#s44:fjallaone-regular:3" /><use x="31868" y="6814.2" xlink:href="#s44:fjallaone-regular:15" /><use x="32790" y="6814.2" xlink:href="#s44:fjallaone-regular:32" /><use x="33465" y="6814.2" xlink:href="#s44:fjallaone-regular:29" /><use x="34336" y="6814.2" xlink:href="#s44:fjallaone-regular:79" /></g></svg>