<svg xmlns="http://www.w3.org/2000/svg" xmlns:xlink="http://www.w3.org/1999/xlink" width="697" height="98" viewBox="0 0 29757 4192.1"><defs><path id="s45:gloriahallelujah:55" d="M408-600Q404-614 392.50-619Q381-624 367.50-624.50Q354-625 341-623Q328-621 321-621Q304-622 262-625Q220-628 171.50-631.50Q123-635 81-638.50Q39-642 22-643Q22-645 21-653Q20-661 20-664Q20-678 22.50-689Q25-700 42-706Q136-704 227.50-707Q319-710 410.50-715.50Q502-721 593.50-726Q685-731 778-731Q778-693 760-675.50Q742-658 715.50-652Q689-646 657-647Q625-648 595.50-646Q566-644 543.50-634.50Q521-625 514-600Q513-594 512-577Q511-560 510.50-541Q510-522 509.50-505.50Q509-489 509-482Q509-425 523.50-369.50Q538-314 555.50-259.50Q573-205 587.50-150.50Q602-96 602-40Q602 2 554 2Q525 2 502.50-38Q480-78 463.50-140Q447-202 436.50-275Q426-348 419.50-415Q413-482 410.50-533Q408-584 408-600Z"/><path id="s45:gloriahallelujah:75" d="M49-650Q49-661 51.50-677.50Q54-694 60.50-709Q67-724 77-734.50Q87-745 103-745Q104-745 108-744Q112-743 113-743Q130-681 133-620Q136-559 131-501.50Q126-444 116-390.50Q106-337 99.50-292Q93-247 91.50-211Q90-175 102-150Q100-166 99.50-188.50Q99-211 103.50-235Q108-259 118.50-283Q129-307 149-326Q169-345 200.50-356Q232-367 279-367Q328-367 363.50-350Q399-333 422-303.50Q445-274 456.50-234.50Q468-195 468-150Q468-129 467.50-102.50Q467-76 460.50-53.50Q454-31 437.50-15.50Q421 0 389 0Q389-16 391-43.50Q393-71 393.50-102Q394-133 391.50-165Q389-197 378-222.50Q367-248 347.50-264.50Q328-281 294-281Q282-281 264.50-279.50Q247-278 229-270Q211-262 194-245.50Q177-229 167-200.50Q157-172 155.50-128.50Q154-85 166-22Q159-4 148.50-1Q138 2 122 2Q90 2 69.50-20.50Q49-43 38-81Q27-119 23.50-169Q20-219 21-273.50Q22-328 26.50-384.50Q31-441 35.50-491.50Q40-542 44.50-583.50Q49-625 49-650Z"/><path id="s45:gloriahallelujah:72" d="M20-278Q20-332 33-386Q46-440 74.50-483Q103-526 148.50-553Q194-580 259-580Q296-580 324-566.50Q352-553 371-531Q390-509 399.50-479.50Q409-450 409-418Q409-367 385.50-319Q362-271 322.50-234.50Q283-198 232-179.50Q181-161 128-171Q129-142 147.50-124.50Q166-107 192-98Q218-89 246-86.50Q274-84 296-84Q319-84 339-88Q359-92 379-97Q399-102 419.50-106Q440-110 463-110Q472-110 481-109Q490-108 498-104.50Q506-101 511-93.50Q516-86 516-75Q516-56 502-43.50Q488-31 466.50-22Q445-13 419-8.50Q393-4 368.50-1.50Q344 1 323.50 1.50Q303 2 293 2Q229 2 178-18.50Q127-39 92-75.50Q57-112 38.50-163.50Q20-215 20-278M126-343Q126-308 135.50-292Q145-276 182-276Q208-276 233-285.50Q258-295 278.50-312Q299-329 311-352Q323-375 323-402Q323-417 320.50-433Q318-449 310-462.50Q302-476 289.50-484.50Q277-493 257-493Q227-493 202.50-479.50Q178-466 161-444.50Q144-423 135-396.50Q126-370 126-343Z"/><path id="s45:gloriahallelujah:3" d=""/><path id="s45:gloriahallelujah:40" d="M65-793Q60-793 50.50-795.50Q41-798 31-801.50Q21-805 12-808.50Q3-812 0-814Q-1-816-1-818Q-2-820-2-823Q-2-837 9-847Q20-857 34.50-863.50Q49-870 63-873.50Q77-877 85-878L97-878L107-878Q131-876 168-872Q205-868 246.50-863.50Q288-859 330.50-854.50Q373-850 407.50-845.50Q442-841 465.50-838.50Q489-836 493-836Q501-835 513.50-832.50Q526-830 539-824.50Q552-819 563-811.50Q574-804 579-793Q571-777 565-768.50Q559-760 552-755.50Q545-751 537.50-751Q530-751 519-751Q477-751 434.50-754Q392-757 350-760Q308-763 265.50-766Q223-769 180-769Q180-751 175.50-715Q171-679 168.50-639Q166-599 170.50-559.50Q175-520 193-493Q228-514 266-515Q304-516 343-516Q360-516 386-516Q412-516 436.50-510Q461-504 478-490Q495-476 495-448Q495-428 487-418Q479-408 450-408Q447-408 437.50-411Q428-414 417.50-418Q407-422 398-425Q389-428 386-428Q385-428 378.50-428.50Q372-429 363-429Q354-429 345.50-429.50Q337-430 332-430Q309-430 287.50-427Q266-424 250-415Q234-406 224.50-389Q215-372 215-345Q215-336 217-314Q219-292 222.50-265.50Q226-239 232-211Q238-183 248-159.50Q258-136 270.50-120.50Q283-105 301-105Q303-105 311-106Q319-107 321-107Q355-130 389.50-157Q424-184 461-207.50Q498-231 538-247.50Q578-264 621-264L621-215Q621-211 601.50-193Q582-175 550.50-151Q519-127 480-100Q441-73 402-50.50Q363-28 327.50-13Q292 2 268 2Q234 2 207.50-28.50Q181-59 160-109.50Q139-160 125-226Q111-292 100.50-362Q90-432 83.50-501.50Q77-571 73-630Q69-689 67.50-732.50Q66-776 65-793Z"/><path id="s45:gloriahallelujah:88" d="M20-408Q20-414 20.50-429.50Q21-445 21-462Q21-479 21.50-493.50Q22-508 22-514Q29-526 38.50-537.50Q48-549 58.50-553.50Q69-558 81.50-555Q94-552 107-535L107-527L107-514Q106-509 103-490.50Q100-472 96-450Q92-428 88.50-409.50Q85-391 85-386Q85-367 89-338.50Q93-310 100.50-279Q108-248 119.50-217Q131-186 147-161.50Q163-137 182.50-121Q202-105 228-105Q260-105 284.50-122Q309-139 327-166Q345-193 356.50-227Q368-261 375-295.50Q382-330 385-362Q388-394 388-418Q388-442 384.50-463.50Q381-485 376-506Q371-527 367.50-547.50Q364-568 364-589Q364-608 377.50-616Q391-624 408-624Q429-624 442-611.50Q455-599 462.50-580Q470-561 472.50-536.50Q475-512 475-488Q475-464 474-442.50Q473-421 473-408Q473-374 468-331Q463-288 450.50-242.50Q438-197 419.50-153Q401-109 374.50-74.50Q348-40 313.50-19Q279 2 236 2Q191 2 157-19.50Q123-41 99.50-76.50Q76-112 60-157Q44-202 35.50-247Q27-292 23.50-334.50Q20-377 20-408Z"/><path id="s45:gloriahallelujah:85" d="M20-420Q20-429 21-438.50Q22-448 25-455.50Q28-463 34.50-468Q41-473 53-473Q63-473 75.50-457.50Q88-442 101-418.50Q114-395 126.50-367Q139-339 148.50-315.50Q158-292 164-275Q170-258 171-257Q184-292 200-333Q216-374 239.50-409.50Q263-445 295.50-469Q328-493 375-493Q399-493 420.50-485.50Q442-478 458.50-463.50Q475-449 485-429Q495-409 495-383Q495-361 477.50-352Q460-343 438-343L428-343L385-386Q383-386 382-387Q380-387 378.50-387.50Q377-388 375-388Q340-388 320.50-368.50Q301-349 291-320.50Q281-292 278.50-260.50Q276-229 276-203Q276-183 280-162.50Q284-142 289-122.50Q294-103 298-82.50Q302-62 302-40Q302 2 257 2Q232 2 205-24.50Q178-51 151.50-92Q125-133 101-182.50Q77-232 59-279Q41-326 30.50-364Q20-402 20-420Z"/><path id="s45:gloriahallelujah:82" d="M20-203Q20-265 49-318.50Q78-372 125.50-410.50Q173-449 232.50-471Q292-493 353-493Q387-493 413.50-471Q440-449 458-417.50Q476-386 485.50-351Q495-316 495-290Q495-234 468-181.50Q441-129 398-88.50Q355-48 301-23Q247 2 193 2Q145 2 112-14.50Q79-31 59-58.50Q39-86 29.50-123.50Q20-161 20-203M105-193Q105-167 109.50-147.50Q114-128 125.50-114Q137-100 156-92.50Q175-85 203-85Q240-85 277-105.50Q314-126 343.50-157.50Q373-189 391-227Q409-265 409-301Q409-317 406-336Q403-355 396-371Q389-387 376-398Q363-409 343-409Q325-409 300.50-397Q276-385 249.50-366Q223-347 197.50-323Q172-299 151-275Q130-251 117.50-229Q105-207 105-193Z"/><path id="s45:gloriahallelujah:83" d="M20-369Q20-466 65-513Q110-560 203-560Q241-560 281.50-553Q322-546 356-528.50Q390-511 411.50-480Q433-449 433-400Q433-346 409.50-298.50Q386-251 350.50-209.50Q315-168 272.50-132.50Q230-97 193-65Q191-61 189.50-48.50Q188-36 188-32Q188 1 207.50 34.50Q227 68 250 102.50Q273 137 292 174Q311 211 311 251Q311 275 301 279.50Q291 284 259 284Q239 276 219.50 246.50Q200 217 180.50 174Q161 131 142.50 77.50Q124 24 107.50-31.50Q91-87 76.50-141.50Q62-196 51-242Q40-288 31.50-321.50Q23-355 20-369M105-360Q105-345 107-316.50Q109-288 115.50-260Q122-232 135-211.50Q148-191 171-191Q202-191 233.50-212Q265-233 289.50-265Q314-297 329.50-333.50Q345-370 345-400Q345-425 333-439.50Q321-454 302.50-462.50Q284-471 263-473.50Q242-476 223-476Q166-476 135.50-445.50Q105-415 105-360Z"/><path id="s45:gloriahallelujah:68" d="M450-129Q412-103 384.50-82.50Q357-62 331-48Q305-34 275.50-27Q246-20 203-20Q110-20 65-69.50Q20-119 20-217Q20-255 30-296Q40-337 59.50-377.50Q79-418 106-454.50Q133-491 167-519Q201-547 239.50-563.50Q278-580 321-580Q393-573 434-544.50Q475-516 496-471.50Q517-427 525-372.50Q533-318 537.50-260Q542-202 549-144Q556-86 578-37Q565-4 553.50 9.50Q542 23 528 14Q514 5 495.50-30Q477-65 450-129M105-215Q105-158 126.50-131.50Q148-105 203-105Q244-105 281.50-119.50Q319-134 347-159.50Q375-185 392-221Q409-257 409-301Q409-319 410-351.50Q411-384 406-416Q401-448 387-471.50Q373-495 345-495Q293-495 249-468.50Q205-442 173-401Q141-360 123-310.50Q105-261 105-215Z"/><path id="s45:gloriahallelujah:81" d="M20-337Q20-363 33-374.50Q46-386 75-386L85-386Q88-370 92-349Q96-328 104-306Q112-284 123-265.50Q134-247 150-236Q151-271 167.50-303.50Q184-336 208.50-361.50Q233-387 262.50-404.50Q292-422 321-428L343-428Q391-428 425-406.50Q459-385 481.50-350.50Q504-316 516-272Q528-228 534.50-182.50Q541-137 542.50-94.50Q544-52 544-22L471-22Q465-82 456-137Q453-159 448-183.50Q443-208 437-229.50Q431-251 424-269.50Q417-288 408-301Q404-305 397.50-312Q391-319 384-326Q377-333 371-338Q365-343 364-343Q334-351 312-331.50Q290-312 273-279Q256-246 245.50-204Q235-162 228-123.50Q221-85 218-56.50Q215-28 214-22Q189-4 167-11.50Q145-19 125.50-43Q106-67 90.50-103Q75-139 62-179.50Q49-220 38.50-261Q28-302 20-337Z"/><path id="s45:gloriahallelujah:79" d="M44-566Q44-595 40-622.50Q36-650 38-671.50Q40-693 53.50-706Q67-719 103-719Q114-696 124.50-649Q135-602 145-541Q155-480 164-408.50Q173-337 180.50-265Q188-193 193.50-123.50Q199-54 202 3Q169 25 149 6Q129-13 116-58.50Q103-104 96-169.50Q89-235 82.50-305.50Q76-376 67-444.50Q58-513 44-566Z"/><path id="s45:gloriahallelujah:74" d="M278 532Q334 532 378 511.50Q422 491 452.50 455.50Q483 420 499.50 374.50Q516 329 516 280Q516 255 513.50 214Q511 173 506 125Q501 77 491.50 27Q482-23 468-67.50Q454-112 433.50-145.50Q413-179 386-193Q360-173 335-156.50Q310-140 283-129Q256-118 227-111.50Q198-105 165-105Q122-105 91.50-113Q61-121 40.50-140Q20-159 10-190Q0-221 0-268Q0-301 16-332.50Q32-364 58.50-391.50Q85-419 118.50-442Q152-465 187.50-482Q223-499 257.50-508Q292-517 319-517Q345-517 362-515.50Q379-514 391-507.50Q403-501 411.50-487.50Q420-474 428-451Q451-373 481-283Q511-193 538-98Q565-3 583.50 93.50Q602 190 602 280Q602 360 579.50 415.50Q557 471 520.50 506.50Q484 542 437.50 561Q391 580 344 585.50Q297 591 253 588Q209 585 177 576.50Q145 568 128.50 557Q112 546 120.50 538.50Q129 531 166 528Q203 525 278 532M292-433Q218-417 172.50-388.50Q127-360 104.50-327.50Q82-295 80-262.50Q78-230 92-207Q106-184 132.50-172.50Q159-161 193-171.50Q227-182 265.50-217Q304-252 343-321Q343-338 343.50-358Q344-378 340-394.50Q336-411 325-422Q314-433 292-433Z"/><path id="s45:gloriahallelujah:86" d="M212-45Q228-56 250.50-73.50Q273-91 296-111Q319-131 339-153Q359-175 370.50-195.50Q382-216 382-234Q382-252 364-264Q332-264 294-261.50Q256-259 218-259.50Q180-260 144.50-266Q109-272 81-288Q53-304 36.50-333.50Q20-363 20-409Q20-463 40.50-506.50Q61-550 95-583.50Q129-617 171.50-642.50Q214-668 257-686Q283-679 305-661Q327-643 343-621Q336-599 315.50-587Q295-575 268.50-566Q242-557 213-547Q184-537 160.50-520.50Q137-504 121-477.50Q105-451 105-408Q105-376 121-361Q137-346 163-340.50Q189-335 222-336.50Q255-338 289.50-341Q324-344 357-344.50Q390-345 416-336.50Q442-328 457.50-309Q473-290 473-253Q473-237 462.50-212Q452-187 434.50-158.50Q417-130 393.50-102Q370-74 344.50-51.50Q319-29 293.50-14.50Q268 0 246 0Q225 0 218.50-15Q212-30 212-45Z"/><path id="s45:gloriahallelujah:80" d="M-2-420Q-2-445 6.50-459Q15-473 43-473Q46-473 54.50-472.50Q63-472 65-472Q72-441 79.50-404.50Q87-368 97-331Q107-294 119.50-258Q132-222 150-193Q168-212 176-238Q184-264 188-290.50Q192-317 195.50-341.50Q199-366 210-383.50Q221-401 242.50-409Q264-417 302-409Q344-409 369-393.50Q394-378 412.50-354.50Q431-331 448.50-304.50Q466-278 493-257Q499-270 508-289.50Q517-309 530.50-330.50Q544-352 559.50-373.50Q575-395 592-412.50Q609-430 627-441.50Q645-453 662-453Q703-453 733-427.50Q763-402 784.50-363.50Q806-325 820-277.50Q834-230 842-186Q850-142 853.50-105.50Q857-69 857-53Q857-40 851-33Q845-26 836-22.50Q827-19 816.50-18Q806-17 797-17Q795-17 791-17.50Q787-18 782-19Q778-20 771-22L706-321Q706-324 698-332.50Q690-341 686-343Q683-343 681-344Q679-344 678-344.50Q677-345 676-345Q655-345 636.50-328Q618-311 602-285Q586-259 572-227Q558-195 547-163.50Q536-132 527.50-105.50Q519-79 514-65Q510-63 498-61.50Q486-60 482-60Q454-60 439-79.50Q424-99 414.50-128Q405-157 398.50-191.50Q392-226 382.50-255Q373-284 356.50-303.50Q340-323 310-323Q299-323 289-301Q279-279 271-245.50Q263-212 256-173.50Q249-135 244.50-101.50Q240-68 238-45Q236-22 236-22Q234-19 228-15.50Q222-12 215.50-8Q209-4 202.50-2Q196 0 193 0Q165 0 139-25.50Q113-51 91.50-91.50Q70-132 52.50-181Q35-230 23-277Q11-324 4.50-362Q-2-400-2-420Z"/><path id="s45:gloriahallelujah:69" d="M171-43Q140-133 112.50-211.50Q85-290 64.50-365.50Q44-441 32-519Q20-597 20-686Q20-693 20.50-711.50Q21-730 21-750Q21-770 21.50-788.50Q22-807 22-814Q31-834 53.50-851Q76-868 99-868Q99-794 101-710.50Q103-627 113.50-544Q124-461 147.50-381.50Q171-302 214-236Q215-260 216-289Q217-318 221.50-347Q226-376 236-403Q246-430 265.50-451Q285-472 316.50-484Q348-496 396-495Q439-495 473.50-479Q508-463 531.50-435.50Q555-408 567.50-371.50Q580-335 580-294Q580-239 553-186Q526-133 481.50-91Q437-49 382-23.50Q327 2 270 2Q241 2 214-8.50Q187-19 171-43M408-408Q388-397 366-382Q344-367 325.50-335.50Q307-304 294-250Q281-196 278-107Q280-107 288.50-106Q297-105 300-105Q327-105 361.50-122Q396-139 428.50-164Q461-189 485-219.50Q509-250 514-278Q517-295 507-317Q497-339 480.50-359.50Q464-380 444.50-394Q425-408 408-408Z"/><path id="s45:gloriahallelujah:73" d="M427 93Q406 54 380.50-4.50Q355-63 328-126.50Q301-190 271.50-251Q242-312 212-357Q200-366 179-368Q158-370 135-369.50Q112-369 89.50-370.50Q67-372 50.50-381Q34-390 26-409Q18-428 23-464L191-464Q196-520 208-575Q220-630 240.50-680Q261-730 290-773Q319-816 360-847Q401-878 454.50-896Q508-914 576-914Q600-914 624-902.50Q648-891 667-872Q686-853 697.50-829Q709-805 709-781Q690-781 675-788.50Q660-796 646-805.50Q632-815 616-823.50Q600-832 580-832Q520-832 468.50-808Q417-784 378.50-744Q340-704 318-651Q296-598 296-539Q296-535 296.50-524.50Q297-514 297-502Q297-490 297.50-479Q298-468 298-464Q335-452 381-446Q427-440 473.50-438.50Q520-437 563.50-439Q607-441 641-444Q644-441 652-433Q660-425 661-421Q661-418 662-417Q664-411 664-411Q664-390 642-378Q620-366 586-360.50Q552-355 510.50-353Q469-351 430.50-349.50Q392-348 361.50-345.50Q331-343 319-336Q332-276 365.50-220Q399-164 434-108Q469-52 496 5Q523 62 523 122Q519 122 504.50 122.50Q490 123 474 121Q458 119 443.50 112.50Q429 106 427 93Z"/><path id="s45:gloriahallelujah:87" d="M-2-504Q-2-507-1-509Q-1-511 0-514Q4-519 12-527Q20-535 22-535L223-535Q223-546 220-570Q217-594 214.50-623Q212-652 213-683.50Q214-715 221.50-740.50Q229-766 245.50-782.50Q262-799 292-799Q292-698 306-637Q320-576 343.50-543Q367-510 397-500Q427-490 458.50-491.50Q490-493 520-501Q550-509 573.50-512Q597-515 611-507.50Q625-500 625-472Q625-451 615.50-442Q606-433 579-428Q571-427 552.50-424.50Q534-422 511-420Q488-418 462-415.50Q436-413 413-411Q390-409 371-408.50Q352-408 343-408Q343-403 342-391Q341-379 341-375Q341-331 355-289.50Q369-248 385.50-207Q402-166 416-125Q430-84 430-40Q430-32 428.50-23.50Q427-15 422.50-8.50Q418-2 409.50 1.50Q401 5 386 0Q348-10 329.50-43Q311-76 302-121.50Q293-167 290-218Q287-269 280.50-313.50Q274-358 260-389.50Q246-421 215-428L22-472Q18-472 10-480.50Q2-489 0-493Q-1-495-1-498Q-2-500-2-504Z"/><path id="s45:gloriahallelujah:76" d="M62-375Q62-381 62.50-394.50Q63-408 63.50-423Q64-438 64.50-452Q65-466 65-472Q76-488 93.50-498Q111-508 129-514Q132-460 146-399Q160-338 176-276.50Q192-215 204.50-155Q217-95 217-43Q217 2 171 2Q143 2 124-21Q105-44 93.50-79.50Q82-115 75-158.50Q68-202 65.50-244Q63-286 62.50-321Q62-356 62-375M76-750Q95-742 108-724Q121-706 119.50-691.50Q118-677 97-671.50Q76-666 27-683Q27-710 37.50-730Q48-750 76-750Z"/><path id="s45:gloriahallelujah:92" d="M3-517Q3-526 3.50-535.50Q4-545 7.50-553.50Q11-562 17.50-566.50Q24-571 37-571Q38-571 39.50-571Q41-571 43-571Q46-570 48-570Q67-544 81-503.50Q95-463 108-417.50Q121-372 136-325.50Q151-279 175-242Q199-205 234-183Q269-161 321-164Q344-164 351-189Q358-214 358.50-253Q359-292 356.50-339Q354-386 356.50-428.50Q359-471 371.50-503Q384-535 415-546Q428-520 436.50-464.50Q445-409 449-336.50Q453-264 453-179.50Q453-95 449-11.50Q445 72 437 149Q429 226 419 284Q409 342 395.50 375.50Q382 409 367 404Q346 384 334.50 352Q323 320 318.50 281Q314 242 315 198.50Q316 155 318.50 111Q321 67 324.50 25Q328-17 328-52Q292-49 254.50-63Q217-77 181-106.50Q145-136 112.50-178Q80-220 55.50-273Q31-326 17-387.50Q3-449 3-517Z"/><path id="s45:gloriahallelujah:17" d="M139-81Q184-81 184-34Q173-5 156 4.50Q139 14 124.50 11.50Q110 9 98.50-3Q87-15 86-30Q85-45 97-59.50Q109-74 139-81Z"/><path id="s45:gloriahallelujah:91" d="M0-472Q-1-473-1-475Q-2-477-2-482Q-2-501 14-508.50Q30-516 45-516Q47-516 49.50-515.50Q52-515 56-515Q59-514 65-514L205-396Q241-448 263.50-477Q286-506 299-519.50Q312-533 318.50-535.50Q325-538 328-538Q335-538 343.50-538Q352-538 361-536.50Q370-535 376.50-530Q383-525 386-514Q369-497 354-480Q339-463 326-443.50Q313-424 301.50-400Q290-376 278-346Q297-332 325.50-306.50Q354-281 383.50-250.50Q413-220 441-188.50Q469-157 487.50-129Q506-101 511.50-81Q517-61 504-55Q490-37 485-28.50Q480-20 474.50-23Q469-26 460-42Q451-58 427.50-87.50Q404-117 363-162Q322-207 254-269L246-22Q246-21 242-18Q238-15 233.50-11.50Q229-8 224-5Q219-2 215 0L203 0L193 0Q188-4 179.50-12Q171-20 171-22L171-301L0-472Z"/><path id="s45:gloriahallelujah:70" d="M0-301Q0-343 18.50-389Q37-435 68-472.50Q99-510 139.50-535Q180-560 225-560Q248-560 271-552Q294-544 312.50-529Q331-514 342.50-493Q354-472 354-446Q336-446 321.50-450Q307-454 293-459.50Q279-465 265.50-469Q252-473 236-473Q195-473 169.50-452.50Q144-432 129-401Q114-370 108.50-334.50Q103-299 103-268Q103-263 103.50-249Q104-235 104.50-219.50Q105-204 105.50-190Q106-176 107-171Q118-147 128.50-134Q139-121 151-114.50Q163-108 177-106.50Q191-105 210-105Q236-105 255.50-113Q275-121 292-132Q309-143 324-156.50Q339-170 355.50-181.50Q372-193 391.50-200.50Q411-208 436-208Q436-159 418.50-121Q401-83 369.50-56Q338-29 295.50-14.50Q253 0 203 0Q156 0 118.50-32Q81-64 54.50-110.50Q28-157 14-209Q0-261 0-301Z"/><path id="s45:gloriahallelujah:41" d="M0-706Q39-726 73.50-735.50Q108-745 142.50-748.50Q177-752 212.50-752Q248-752 290-752Q298-752 317.50-751.50Q337-751 359.50-751Q382-751 401-751Q420-751 428-751Q439-747 445-737Q451-727 454-716Q457-705 458-693.50Q459-682 459-676L129-676L129-461L487-461Q487-427 466-407.50Q445-388 413.50-377Q382-366 343-362.50Q304-359 269-359.50Q234-360 207-362Q180-364 171-364L171-343Q171-301 191-263.50Q211-226 235.50-191Q260-156 280.50-122Q301-88 301-53Q301-31 292-14.50Q283 2 259 2Q234 2 209.50-24Q185-50 162-93.50Q139-137 118.50-193.50Q98-250 79.50-311.50Q61-373 46.50-433.50Q32-494 22-546.50Q12-599 6-639Q0-679 0-697L0-706Z"/><path id="s45:gloriahallelujah:15" d="M157-152Q168-152 175.50-147Q183-142 186-134.50Q189-127 190-117.50Q191-108 191-99Q191-78 186.50-49.50Q182-21 173 10Q164 41 150.50 71.50Q137 102 119 125.50Q101 149 78.50 163.50Q56 178 29 178Q29 157 33.50 124Q38 91 46.50 54Q55 17 67-19.50Q79-56 93-85.50Q107-115 123-133.50Q139-152 157-152Z"/></defs><g id="line-0"><use x="0" y="1143.5" xlink:href="#s45:gloriahallelujah:55"/><use x="814" y="1143.5" xlink:href="#s45:gloriahallelujah:75"/><use x="1302" y="1143.5" xlink:href="#s45:gloriahallelujah:72"/><use x="1860" y="1143.5" xlink:href="#s45:gloriahallelujah:3"/><use x="2321" y="1143.5" xlink:href="#s45:gloriahallelujah:40"/><use x="2985" y="1143.5" xlink:href="#s45:gloriahallelujah:88"/><use x="3499" y="1143.5" xlink:href="#s45:gloriahallelujah:85"/><use x="4010" y="1143.5" xlink:href="#s45:gloriahallelujah:82"/><use x="4524" y="1143.5" xlink:href="#s45:gloriahallelujah:83"/><use x="4996" y="1143.5" xlink:href="#s45:gloriahallelujah:72"/><use x="5554" y="1143.5" xlink:href="#s45:gloriahallelujah:68"/><use x="6175" y="1143.5" xlink:href="#s45:gloriahallelujah:81"/><use x="6754" y="1143.5" xlink:href="#s45:gloriahallelujah:3"/><use x="7215" y="1143.5" xlink:href="#s45:gloriahallelujah:79"/><use x="7449" y="1143.5" xlink:href="#s45:gloriahallelujah:68"/><use x="8070" y="1143.5" xlink:href="#s45:gloriahallelujah:81"/><use x="8649" y="1143.5" xlink:href="#s45:gloriahallelujah:74"/><use x="9228" y="1143.5" xlink:href="#s45:gloriahallelujah:88"/><use x="9742" y="1143.5" xlink:href="#s45:gloriahallelujah:68"/><use x="10363" y="1143.5" xlink:href="#s45:gloriahallelujah:74"/><use x="10942" y="1143.5" xlink:href="#s45:gloriahallelujah:72"/><use x="11500" y="1143.5" xlink:href="#s45:gloriahallelujah:86"/><use x="11993" y="1143.5" xlink:href="#s45:gloriahallelujah:3"/><use x="12454" y="1143.5" xlink:href="#s45:gloriahallelujah:68"/><use x="13075" y="1143.5" xlink:href="#s45:gloriahallelujah:85"/><use x="13586" y="1143.5" xlink:href="#s45:gloriahallelujah:72"/><use x="14144" y="1143.5" xlink:href="#s45:gloriahallelujah:3"/><use x="14605" y="1143.5" xlink:href="#s45:gloriahallelujah:80"/><use x="15483" y="1143.5" xlink:href="#s45:gloriahallelujah:72"/><use x="16041" y="1143.5" xlink:href="#s45:gloriahallelujah:80"/><use x="16919" y="1143.5" xlink:href="#s45:gloriahallelujah:69"/><use x="17540" y="1143.5" xlink:href="#s45:gloriahallelujah:72"/><use x="18098" y="1143.5" xlink:href="#s45:gloriahallelujah:85"/><use x="18609" y="1143.5" xlink:href="#s45:gloriahallelujah:86"/><use x="19102" y="1143.5" xlink:href="#s45:gloriahallelujah:3"/><use x="19563" y="1143.5" xlink:href="#s45:gloriahallelujah:82"/><use x="20077" y="1143.5" xlink:href="#s45:gloriahallelujah:73"/><use x="20783" y="1143.5" xlink:href="#s45:gloriahallelujah:3"/><use x="21244" y="1143.5" xlink:href="#s45:gloriahallelujah:87"/><use x="21887" y="1143.5" xlink:href="#s45:gloriahallelujah:75"/><use x="22375" y="1143.5" xlink:href="#s45:gloriahallelujah:72"/><use x="22933" y="1143.5" xlink:href="#s45:gloriahallelujah:3"/><use x="23394" y="1143.5" xlink:href="#s45:gloriahallelujah:86"/><use x="23887" y="1143.5" xlink:href="#s45:gloriahallelujah:68"/><use x="24508" y="1143.5" xlink:href="#s45:gloriahallelujah:80"/><use x="25386" y="1143.5" xlink:href="#s45:gloriahallelujah:72"/><use x="25944" y="1143.5" xlink:href="#s45:gloriahallelujah:3"/><use x="26405" y="1143.5" xlink:href="#s45:gloriahallelujah:73"/><use x="27111" y="1143.5" xlink:href="#s45:gloriahallelujah:68"/><use x="27732" y="1143.5" xlink:href="#s45:gloriahallelujah:80"/><use x="28610" y="1143.5" xlink:href="#s45:gloriahallelujah:76"/><use x="28846" y="1143.5" xlink:href="#s45:gloriahallelujah:79"/><use x="29080" y="1143.5" xlink:href="#s45:gloriahallelujah:92"/><use x="29573" y="1143.5" xlink:href="#s45:gloriahallelujah:17"/></g><g id="line-1"><use x="5871" y="2372.3" xlink:href="#s45:gloriahallelujah:55"/><use x="6685" y="2372.3" xlink:href="#s45:gloriahallelujah:75"/><use x="7173" y="2372.3" xlink:href="#s45:gloriahallelujah:72"/><use x="7731" y="2372.3" xlink:href="#s45:gloriahallelujah:76"/><use x="7967" y="2372.3" xlink:href="#s45:gloriahallelujah:85"/><use x="8478" y="2372.3" xlink:href="#s45:gloriahallelujah:3"/><use x="8939" y="2372.3" xlink:href="#s45:gloriahallelujah:86"/><use x="9432" y="2372.3" xlink:href="#s45:gloriahallelujah:72"/><use x="9990" y="2372.3" xlink:href="#s45:gloriahallelujah:83"/><use x="10462" y="2372.3" xlink:href="#s45:gloriahallelujah:68"/><use x="11083" y="2372.3" xlink:href="#s45:gloriahallelujah:85"/><use x="11594" y="2372.3" xlink:href="#s45:gloriahallelujah:68"/><use x="12215" y="2372.3" xlink:href="#s45:gloriahallelujah:87"/><use x="12858" y="2372.3" xlink:href="#s45:gloriahallelujah:72"/><use x="13416" y="2372.3" xlink:href="#s45:gloriahallelujah:3"/><use x="13877" y="2372.3" xlink:href="#s45:gloriahallelujah:72"/><use x="14435" y="2372.3" xlink:href="#s45:gloriahallelujah:91"/><use x="14928" y="2372.3" xlink:href="#s45:gloriahallelujah:76"/><use x="15164" y="2372.3" xlink:href="#s45:gloriahallelujah:86"/><use x="15657" y="2372.3" xlink:href="#s45:gloriahallelujah:87"/><use x="16300" y="2372.3" xlink:href="#s45:gloriahallelujah:72"/><use x="16858" y="2372.3" xlink:href="#s45:gloriahallelujah:81"/><use x="17437" y="2372.3" xlink:href="#s45:gloriahallelujah:70"/><use x="17909" y="2372.3" xlink:href="#s45:gloriahallelujah:72"/><use x="18467" y="2372.3" xlink:href="#s45:gloriahallelujah:3"/><use x="18928" y="2372.3" xlink:href="#s45:gloriahallelujah:76"/><use x="19164" y="2372.3" xlink:href="#s45:gloriahallelujah:86"/><use x="19657" y="2372.3" xlink:href="#s45:gloriahallelujah:3"/><use x="20118" y="2372.3" xlink:href="#s45:gloriahallelujah:68"/><use x="20739" y="2372.3" xlink:href="#s45:gloriahallelujah:3"/><use x="21200" y="2372.3" xlink:href="#s45:gloriahallelujah:80"/><use x="22078" y="2372.3" xlink:href="#s45:gloriahallelujah:92"/><use x="22571" y="2372.3" xlink:href="#s45:gloriahallelujah:87"/><use x="23214" y="2372.3" xlink:href="#s45:gloriahallelujah:75"/><use x="23702" y="2372.3" xlink:href="#s45:gloriahallelujah:17"/></g><g id="line-2"><use x="7610" y="3601.1" xlink:href="#s45:gloriahallelujah:41"/><use x="8124" y="3601.1" xlink:href="#s45:gloriahallelujah:82"/><use x="8638" y="3601.1" xlink:href="#s45:gloriahallelujah:85"/><use x="9149" y="3601.1" xlink:href="#s45:gloriahallelujah:3"/><use x="9610" y="3601.1" xlink:href="#s45:gloriahallelujah:86"/><use x="10103" y="3601.1" xlink:href="#s45:gloriahallelujah:70"/><use x="10575" y="3601.1" xlink:href="#s45:gloriahallelujah:76"/><use x="10811" y="3601.1" xlink:href="#s45:gloriahallelujah:72"/><use x="11369" y="3601.1" xlink:href="#s45:gloriahallelujah:81"/><use x="11948" y="3601.1" xlink:href="#s45:gloriahallelujah:70"/><use x="12420" y="3601.1" xlink:href="#s45:gloriahallelujah:72"/><use x="12978" y="3601.1" xlink:href="#s45:gloriahallelujah:15"/><use x="13210" y="3601.1" xlink:href="#s45:gloriahallelujah:3"/><use x="13671" y="3601.1" xlink:href="#s45:gloriahallelujah:80"/><use x="14549" y="3601.1" xlink:href="#s45:gloriahallelujah:88"/><use x="15063" y="3601.1" xlink:href="#s45:gloriahallelujah:86"/><use x="15556" y="3601.1" xlink:href="#s45:gloriahallelujah:76"/><use x="15792" y="3601.1" xlink:href="#s45:gloriahallelujah:70"/><use x="16264" y="3601.1" xlink:href="#s45:gloriahallelujah:15"/><use x="16496" y="3601.1" xlink:href="#s45:gloriahallelujah:3"/><use x="16957" y="3601.1" xlink:href="#s45:gloriahallelujah:86"/><use x="17450" y="3601.1" xlink:href="#s45:gloriahallelujah:83"/><use x="17922" y="3601.1" xlink:href="#s45:gloriahallelujah:82"/><use x="18436" y="3601.1" xlink:href="#s45:gloriahallelujah:85"/><use x="18947" y="3601.1" xlink:href="#s45:gloriahallelujah:87"/><use x="19590" y="3601.1" xlink:href="#s45:gloriahallelujah:15"/><use x="19822" y="3601.1" xlink:href="#s45:gloriahallelujah:3"/><use x="20283" y="3601.1" xlink:href="#s45:gloriahallelujah:72"/><use x="20841" y="3601.1" xlink:href="#s45:gloriahallelujah:87"/><use x="21484" y="3601.1" xlink:href="#s45:gloriahallelujah:70"/><use x="21956" y="3601.1" xlink:href="#s45:gloriahallelujah:15"/></g></svg>