<svg xmlns="http://www.w3.org/2000/svg" xmlns:xlink="http://www.w3.org/1999/xlink" width="623" height="89" viewBox="0 0 25964 3728"><defs><path id="s46:hind-bold:57" d="M514-674L514-550L350-550L350 0L195 0L195-550L30-550L30-674L514-674Z"/><path id="s46:hind-bold:77" d="M206-707L206-421Q245-512 358-512Q432-512 478.50-465Q525-418 525-323L525 0L379 0L379-300Q379-344 357-369Q335-394 300-394Q285-394 271.50-389.50Q258-385 242-373.50Q226-362 216-334.50Q206-307 206-268L206 0L60 0L60-707L206-707Z"/><path id="s46:hind-bold:74" d="M353-300L353-312Q346-401 275-401Q240-401 213-375.50Q186-350 177-300L353-300M458-151L458-29Q406 5 299 5Q174 5 104.50-67.50Q35-140 35-254Q35-375 102.50-443.50Q170-512 269-512Q371-512 430-452.50Q489-393 489-275Q489-252 481-196L183-196Q198-154 235-131Q272-108 324-108Q401-108 458-151Z"/><path id="s46:hind-bold:5" d=""/><path id="s46:hind-bold:42" d="M220-123L484-123L484 0L65 0L65-674L480-674L480-551L220-551L220-398L452-398L452-276L220-276L220-123Z"/><path id="s46:hind-bold:90" d="M374-507L520-507L520 0L374 0L374-81Q334 4 220 4Q142 4 98.50-39.50Q55-83 55-168L55-507L201-507L201-201Q201-112 279-112Q374-112 374-239L374-507Z"/><path id="s46:hind-bold:87" d="M205-507L205-413Q219-457 251.50-483.50Q284-510 327-510Q351-510 365-506L365-368Q341-379 310-379Q263-379 234-344.50Q205-310 205-253L205 0L59 0L60-507L205-507Z"/><path id="s46:hind-bold:84" d="M284 8Q165 8 100-63.50Q35-135 35-247Q35-364 103-439.50Q171-515 284-515Q402-515 467-442Q532-369 532-256Q532-141 466.50-66.50Q401 8 284 8M283-400Q235-400 211-359Q187-318 187-253Q187-188 211.50-146.50Q236-105 285-105Q333-105 356.50-145.50Q380-186 380-251Q380-400 283-400Z"/><path id="s46:hind-bold:85" d="M320-116Q368-116 398-152.50Q428-189 428-252Q428-321 397.50-356.50Q367-392 320-392Q274-392 240-357Q206-322 206-259Q206-194 238-155Q270-116 320-116M206-507L206-429Q259-513 359-513Q457-513 516.50-443.50Q576-374 576-255Q576-142 518.50-68Q461 6 359 6Q256 6 206-75L206 187L60 187L60-507L206-507Z"/><path id="s46:hind-bold:70" d="M311-208L264-208Q227-208 207-192Q187-176 187-151Q187-100 246-100Q277-100 294-119Q311-138 311-171L311-208M74-351L74-482Q134-516 247-516Q355-516 408-469.50Q461-423 461-325L461 0L318 0L318-62Q286 3 192 3Q118 3 76.50-39Q35-81 35-144Q35-217 88.50-257.50Q142-298 247-298L311-298L311-333Q311-397 226-397Q144-397 74-351Z"/><path id="s46:hind-bold:83" d="M206-507L206-421Q225-463 264.50-487.50Q304-512 359-512Q437-512 481-465.50Q525-419 525-329L525 0L379 0L379-302Q379-347 358-370.50Q337-394 299-394Q259-394 232.50-362.50Q206-331 206-268L206 0L60 0L60-507L206-507Z"/><path id="s46:hind-bold:81" d="M65 0L65-707L211-707L211 0L65 0Z"/><path id="s46:hind-bold:76" d="M285-133Q332-133 358.50-168.50Q385-204 385-254Q385-390 286-390Q242-390 217-356Q192-322 192-262Q192-199 216-166Q240-133 285-133M385-507L530-507L530-49Q530 73 457 134.50Q384 196 274 196Q167 196 87 158L87 9Q157 65 259 65Q325 65 355 37Q385 9 385-51L385-85Q341-17 245-17Q161-17 100.50-79Q40-141 40-263Q40-371 98.50-441.50Q157-512 252-512Q342-512 385-440L385-507Z"/><path id="s46:hind-bold:88" d="M380-492L380-367Q327-398 256-398Q230-398 216-387.50Q202-377 202-361Q202-352 207-344Q212-336 223.50-329Q235-322 245.50-316.50Q256-311 274.50-303Q293-295 304-289Q350-265 378-233.50Q406-202 406-153Q406-78 352-37Q298 4 209 4Q117 4 55-27L55-157Q124-109 201-109Q256-109 256-144Q256-153 251-161Q246-169 234-176Q222-183 212-187.50Q202-192 183-200Q164-208 154-213Q53-261 53-357Q53-431 109.50-472Q166-513 250-513Q328-513 380-492Z"/><path id="s46:hind-bold:82" d="M206-507L206-428Q248-512 349-512Q456-512 491-416Q508-461 548-486.50Q588-512 642-512Q717-512 760.50-464.50Q804-417 804-325L804 0L658 0L658-301Q658-344 641-369Q624-394 592-394Q558-394 531.50-366.50Q505-339 505-268L505 0L359 0L359-301Q359-344 342-369Q325-394 293-394Q259-394 232.50-366.50Q206-339 206-268L206 0L60 0L60-507L206-507Z"/><path id="s46:hind-bold:71" d="M318-116Q364-116 396-153.50Q428-191 428-252Q428-318 396.50-355Q365-392 319-392Q273-392 239.50-357Q206-322 206-259Q206-194 237-155Q268-116 318-116M206-707L206-429Q258-513 357-513Q452-513 514-444Q576-375 576-255Q576-148 516.50-71Q457 6 358 6Q257 6 206-79L206 0L60 0L60-707L206-707Z"/><path id="s46:hind-bold:75" d="M366-710L366-592Q338-603 314-603Q277-603 259-586Q241-569 241-526L241-507L336-507L336-400L241-400L241 0L96 0L96-400L30-400L30-507L96-507L96-526Q96-618 147.50-669Q199-720 290-720Q337-720 366-710Z"/><path id="s46:hind-bold:89" d="M229-400L229-167Q229-140 244.50-126Q260-112 285-112Q325-112 356-132L356-11Q319 5 256 5Q83 5 83-168L83-400L10-400L10-507L83-507L83-627L229-627L229-507L347-507L347-400L229-400Z"/><path id="s46:hind-bold:78" d="M65 0L65-507L211-507L211 0L65 0M78-594Q78-594 65.50-606.50Q53-619 53-654Q53-689 78-714Q103-739 138-739Q173-739 198-714Q223-689 223-654Q223-619 198-594Q173-569 138-569Q103-569 78-594Z"/><path id="s46:hind-bold:94" d="M201-8L5-507L164-507L219-349Q240-288 253.50-244Q267-200 270-186L273-172Q284-212 327-349L377-507L527-507L344-15Q265 198 103 198Q72 198 47 193L47 77Q63 81 81 81Q164 81 201-8Z"/><path id="s46:hind-bold:19" d="M66-18Q66-18 53-31Q40-44 40-81Q40-118 66-144Q92-170 129-170Q166-170 192-144Q218-118 218-81Q218-44 192-18Q166 8 129 8Q92 8 66-18Z"/><path id="s46:hind-bold:93" d="M340-253L509 0L350 0L265-152L174 0L16 0L197-254L27-507L189-507L271-356L362-507L522-507L340-253Z"/><path id="s46:hind-bold:72" d="M183-252Q187-185 223-148Q259-111 318-111Q381-111 439-146L439-24Q380 8 297 8Q183 8 109-64.50Q35-137 35-252Q37-366 109-440.50Q181-515 306-515Q383-515 439-486L439-361Q386-394 321-394Q260-394 222-357.50Q184-321 183-252Z"/><path id="s46:hind-bold:43" d="M476-551L220-551L220-377L443-377L443-254L220-254L220 0L65 0L65-674L476-674L476-551Z"/><path id="s46:hind-bold:17" d="M-7 127L94-134L255-134L119 127L-7 127Z"/></defs><g id="line-0"><use x="0" y="782" xlink:href="#s46:hind-bold:57"/><use x="544" y="782" xlink:href="#s46:hind-bold:77"/><use x="1124" y="782" xlink:href="#s46:hind-bold:74"/><use x="1657" y="782" xlink:href="#s46:hind-bold:5"/><use x="1907" y="782" xlink:href="#s46:hind-bold:42"/><use x="2451" y="782" xlink:href="#s46:hind-bold:90"/><use x="3031" y="782" xlink:href="#s46:hind-bold:87"/><use x="3401" y="782" xlink:href="#s46:hind-bold:84"/><use x="3968" y="782" xlink:href="#s46:hind-bold:85"/><use x="4579" y="782" xlink:href="#s46:hind-bold:74"/><use x="5112" y="782" xlink:href="#s46:hind-bold:70"/><use x="5628" y="782" xlink:href="#s46:hind-bold:83"/><use x="6208" y="782" xlink:href="#s46:hind-bold:5"/><use x="6458" y="782" xlink:href="#s46:hind-bold:81"/><use x="6734" y="782" xlink:href="#s46:hind-bold:70"/><use x="7250" y="782" xlink:href="#s46:hind-bold:83"/><use x="7830" y="782" xlink:href="#s46:hind-bold:76"/><use x="8415" y="782" xlink:href="#s46:hind-bold:90"/><use x="8995" y="782" xlink:href="#s46:hind-bold:70"/><use x="9511" y="782" xlink:href="#s46:hind-bold:76"/><use x="10096" y="782" xlink:href="#s46:hind-bold:74"/><use x="10629" y="782" xlink:href="#s46:hind-bold:88"/><use x="11065" y="782" xlink:href="#s46:hind-bold:5"/><use x="11315" y="782" xlink:href="#s46:hind-bold:70"/><use x="11831" y="782" xlink:href="#s46:hind-bold:87"/><use x="12201" y="782" xlink:href="#s46:hind-bold:74"/><use x="12734" y="782" xlink:href="#s46:hind-bold:5"/><use x="12984" y="782" xlink:href="#s46:hind-bold:82"/><use x="13843" y="782" xlink:href="#s46:hind-bold:74"/><use x="14376" y="782" xlink:href="#s46:hind-bold:82"/><use x="15235" y="782" xlink:href="#s46:hind-bold:71"/><use x="15846" y="782" xlink:href="#s46:hind-bold:74"/><use x="16379" y="782" xlink:href="#s46:hind-bold:87"/><use x="16749" y="782" xlink:href="#s46:hind-bold:88"/><use x="17185" y="782" xlink:href="#s46:hind-bold:5"/><use x="17435" y="782" xlink:href="#s46:hind-bold:84"/><use x="18002" y="782" xlink:href="#s46:hind-bold:75"/><use x="18348" y="782" xlink:href="#s46:hind-bold:5"/><use x="18598" y="782" xlink:href="#s46:hind-bold:89"/><use x="18984" y="782" xlink:href="#s46:hind-bold:77"/><use x="19564" y="782" xlink:href="#s46:hind-bold:74"/><use x="20097" y="782" xlink:href="#s46:hind-bold:5"/><use x="20347" y="782" xlink:href="#s46:hind-bold:88"/><use x="20783" y="782" xlink:href="#s46:hind-bold:70"/><use x="21299" y="782" xlink:href="#s46:hind-bold:82"/><use x="22158" y="782" xlink:href="#s46:hind-bold:74"/><use x="22691" y="782" xlink:href="#s46:hind-bold:5"/><use x="22941" y="782" xlink:href="#s46:hind-bold:75"/><use x="23287" y="782" xlink:href="#s46:hind-bold:70"/><use x="23803" y="782" xlink:href="#s46:hind-bold:82"/><use x="24662" y="782" xlink:href="#s46:hind-bold:78"/><use x="24938" y="782" xlink:href="#s46:hind-bold:81"/><use x="25214" y="782" xlink:href="#s46:hind-bold:94"/><use x="25746" y="782" xlink:href="#s46:hind-bold:19"/></g><g id="line-1"><use x="5217.5" y="1982" xlink:href="#s46:hind-bold:57"/><use x="5761.5" y="1982" xlink:href="#s46:hind-bold:77"/><use x="6341.5" y="1982" xlink:href="#s46:hind-bold:74"/><use x="6874.5" y="1982" xlink:href="#s46:hind-bold:78"/><use x="7150.5" y="1982" xlink:href="#s46:hind-bold:87"/><use x="7520.5" y="1982" xlink:href="#s46:hind-bold:5"/><use x="7770.5" y="1982" xlink:href="#s46:hind-bold:88"/><use x="8206.5" y="1982" xlink:href="#s46:hind-bold:74"/><use x="8739.5" y="1982" xlink:href="#s46:hind-bold:85"/><use x="9350.5" y="1982" xlink:href="#s46:hind-bold:70"/><use x="9866.5" y="1982" xlink:href="#s46:hind-bold:87"/><use x="10236.5" y="1982" xlink:href="#s46:hind-bold:70"/><use x="10752.5" y="1982" xlink:href="#s46:hind-bold:89"/><use x="11138.5" y="1982" xlink:href="#s46:hind-bold:74"/><use x="11671.5" y="1982" xlink:href="#s46:hind-bold:5"/><use x="11921.5" y="1982" xlink:href="#s46:hind-bold:74"/><use x="12454.5" y="1982" xlink:href="#s46:hind-bold:93"/><use x="12980.5" y="1982" xlink:href="#s46:hind-bold:78"/><use x="13256.5" y="1982" xlink:href="#s46:hind-bold:88"/><use x="13692.5" y="1982" xlink:href="#s46:hind-bold:89"/><use x="14078.5" y="1982" xlink:href="#s46:hind-bold:74"/><use x="14611.5" y="1982" xlink:href="#s46:hind-bold:83"/><use x="15191.5" y="1982" xlink:href="#s46:hind-bold:72"/><use x="15660.5" y="1982" xlink:href="#s46:hind-bold:74"/><use x="16193.5" y="1982" xlink:href="#s46:hind-bold:5"/><use x="16443.5" y="1982" xlink:href="#s46:hind-bold:78"/><use x="16719.5" y="1982" xlink:href="#s46:hind-bold:88"/><use x="17155.5" y="1982" xlink:href="#s46:hind-bold:5"/><use x="17405.5" y="1982" xlink:href="#s46:hind-bold:70"/><use x="17921.5" y="1982" xlink:href="#s46:hind-bold:5"/><use x="18171.5" y="1982" xlink:href="#s46:hind-bold:82"/><use x="19030.5" y="1982" xlink:href="#s46:hind-bold:94"/><use x="19562.5" y="1982" xlink:href="#s46:hind-bold:89"/><use x="19948.5" y="1982" xlink:href="#s46:hind-bold:77"/><use x="20528.5" y="1982" xlink:href="#s46:hind-bold:19"/></g><g id="line-2"><use x="6355" y="3182" xlink:href="#s46:hind-bold:43"/><use x="6861" y="3182" xlink:href="#s46:hind-bold:84"/><use x="7428" y="3182" xlink:href="#s46:hind-bold:87"/><use x="7798" y="3182" xlink:href="#s46:hind-bold:5"/><use x="8048" y="3182" xlink:href="#s46:hind-bold:88"/><use x="8484" y="3182" xlink:href="#s46:hind-bold:72"/><use x="8953" y="3182" xlink:href="#s46:hind-bold:78"/><use x="9229" y="3182" xlink:href="#s46:hind-bold:74"/><use x="9762" y="3182" xlink:href="#s46:hind-bold:83"/><use x="10342" y="3182" xlink:href="#s46:hind-bold:72"/><use x="10811" y="3182" xlink:href="#s46:hind-bold:74"/><use x="11344" y="3182" xlink:href="#s46:hind-bold:17"/><use x="11638" y="3182" xlink:href="#s46:hind-bold:5"/><use x="11888" y="3182" xlink:href="#s46:hind-bold:82"/><use x="12747" y="3182" xlink:href="#s46:hind-bold:90"/><use x="13327" y="3182" xlink:href="#s46:hind-bold:88"/><use x="13763" y="3182" xlink:href="#s46:hind-bold:78"/><use x="14039" y="3182" xlink:href="#s46:hind-bold:72"/><use x="14508" y="3182" xlink:href="#s46:hind-bold:17"/><use x="14802" y="3182" xlink:href="#s46:hind-bold:5"/><use x="15052" y="3182" xlink:href="#s46:hind-bold:88"/><use x="15488" y="3182" xlink:href="#s46:hind-bold:85"/><use x="16099" y="3182" xlink:href="#s46:hind-bold:84"/><use x="16666" y="3182" xlink:href="#s46:hind-bold:87"/><use x="17036" y="3182" xlink:href="#s46:hind-bold:89"/><use x="17422" y="3182" xlink:href="#s46:hind-bold:17"/><use x="17716" y="3182" xlink:href="#s46:hind-bold:5"/><use x="17966" y="3182" xlink:href="#s46:hind-bold:74"/><use x="18499" y="3182" xlink:href="#s46:hind-bold:89"/><use x="18885" y="3182" xlink:href="#s46:hind-bold:72"/><use x="19354" y="3182" xlink:href="#s46:hind-bold:17"/></g></svg>