<svg xmlns="http://www.w3.org/2000/svg" xmlns:xlink="http://www.w3.org/1999/xlink" width="588" height="89" viewBox="0 0 24509 3728" ><defs><path id="s49:hind-regular:57" d="M463-674L463-603L281-603L281 0L200 0L200-603L18-603L18-674L463-674Z"/><path id="s49:hind-regular:77" d="M151-707L151-419Q196-514 311-514Q384-514 428.50-469Q473-424 473-347L473 0L394 0L394-328Q394-383 365.50-413Q337-443 291-443Q235-443 193-400Q151-357 151-277L151 0L73 0L73-707L151-707Z"/><path id="s49:hind-regular:74" d="M396-286L396-306Q396-369 362-406.50Q328-444 268-444Q211-444 171-403Q131-362 124-286L396-286M443-100L443-26Q384 5 299 5Q184 5 113.50-65.50Q43-136 43-252Q43-373 106-443Q169-513 268-513Q363-513 419-452Q475-391 475-279Q475-247 470-220L124-220Q133-145 181-105Q229-65 307-65Q392-65 443-100Z"/><path id="s49:hind-regular:5" d=""/><path id="s49:hind-regular:42" d="M158-71L453-71L453 0L77 0L77-674L448-674L448-603L158-603L158-372L414-372L414-301L158-301L158-71Z"/><path id="s49:hind-regular:90" d="M388-507L467-507L467 0L388 0L388-88Q348 6 229 6Q154 6 110.50-38.50Q67-83 67-158L67-507L146-507L146-178Q146-123 174-94Q202-65 250-65Q313-65 350.50-109Q388-153 388-228L388-507Z"/><path id="s49:hind-regular:87" d="M151-507L151-418Q191-512 289-512Q307-512 317-510L317-432Q296-439 274-439Q221-439 186-390Q151-341 151-277L151 0L72 0L73-507L151-507Z"/><path id="s49:hind-regular:84" d="M279 9Q170 9 106.50-64.50Q43-138 43-250Q43-363 108.50-438.50Q174-514 279-514Q394-514 456.50-440Q519-366 519-252Q519-139 455-65Q391 9 279 9M279-444Q207-444 166-388Q125-332 125-251Q125-172 167-116.50Q209-61 279-61Q355-61 396-115.50Q437-170 437-251Q437-335 398-389.50Q359-444 279-444Z"/><path id="s49:hind-regular:85" d="M296-64Q360-64 401-114.50Q442-165 442-258Q442-341 402-392Q362-443 301-443Q240-443 195.50-398.50Q151-354 151-253Q151-156 196-110Q241-64 296-64M151-507L151-430Q204-515 308-515Q409-515 466.50-441.50Q524-368 524-258Q524-141 463.50-66.50Q403 8 306 8Q206 8 151-77L151 197L73 197L73-507L151-507Z"/><path id="s49:hind-regular:70" d="M346-234L258-234Q194-234 162-209Q130-184 130-146Q130-108 155-84.50Q180-61 228-61Q282-61 314-91.50Q346-122 346-169L346-234M84-401L84-480Q141-515 234-515Q425-515 425-321L425 0L347 0L347-60Q308 5 205 5Q134 5 90.50-37Q47-79 47-143Q47-216 102.50-256.50Q158-297 254-297L346-297L346-323Q346-383 319-413.50Q292-444 228-444Q147-444 84-401Z"/><path id="s49:hind-regular:83" d="M151-507L151-419Q196-514 311-514Q385-514 429-469Q473-424 473-349L473 0L394 0L394-328Q394-384 365.50-413.50Q337-443 291-443Q234-443 192.50-399Q151-355 151-277L151 0L73 0L73-507L151-507Z"/><path id="s49:hind-regular:81" d="M77 0L77-707L156-707L156 0L77 0Z"/><path id="s49:hind-regular:76" d="M263-83Q318-83 360.50-125.50Q403-168 403-252Q403-349 362-396Q321-443 267-443Q202-443 164-391.50Q126-340 126-257Q126-172 168-127.50Q210-83 263-83M403-507L482-507L482-41Q482 75 418 133.50Q354 192 253 192Q161 192 96 161L96 82Q160 119 246 119Q319 119 361 80Q403 41 403-42L403-99Q353-13 254-13Q167-13 105.50-77Q44-141 44-255Q44-368 101-441Q158-514 250-514Q354-514 403-423L403-507Z"/><path id="s49:hind-regular:88" d="M349-490L349-415Q303-443 223-443Q183-443 159.50-424.50Q136-406 136-377Q136-359 143-345.50Q150-332 170.50-319Q191-306 200.50-301.50Q210-297 242-283Q306-257 342-224Q378-191 378-135Q378-70 332.50-32Q287 6 208 6Q116 6 59-25L59-102Q126-62 203-62Q249-62 273-80Q297-98 297-129Q297-165 270.50-185Q244-205 182-230Q125-252 90.50-285Q56-318 56-374Q56-437 103.50-474.50Q151-512 222-512Q301-512 349-490Z"/><path id="s49:hind-regular:82" d="M151-507L151-425Q193-514 294-514Q411-514 442-415Q464-463 503.50-488.50Q543-514 592-514Q671-514 711-469Q751-424 751-348L751 0L672 0L672-328Q672-443 575-443Q527-443 489-399.50Q451-356 451-277L451 0L372 0L372-328Q372-443 275-443Q227-443 189-399.50Q151-356 151-277L151 0L73 0L73-507L151-507Z"/><path id="s49:hind-regular:71" d="M304-64Q365-64 405-115Q445-166 445-248Q445-342 403.50-392.50Q362-443 299-443Q245-443 200-398Q155-353 155-257Q155-156 198.50-110Q242-64 304-64M155-707L155-431Q210-515 309-515Q405-515 466-441.50Q527-368 527-249Q527-142 469.50-67Q412 8 311 8Q209 8 155-75L155 0L76 0L76-707L155-707Z"/><path id="s49:hind-regular:75" d="M315-707L315-635Q291-643 269-643Q237-643 216.50-621Q196-599 196-553L196-507L308-507L308-443L196-443L196 0L117 0L117-443L30-443L30-507L117-507L117-554Q117-628 156.50-671Q196-714 266-714Q290-714 315-707Z"/><path id="s49:hind-regular:89" d="M182-443L182-146Q182-65 258-65Q297-65 327-88L327-13Q294 5 253 5Q103 5 103-148L103-443L22-443L22-507L103-507L103-633L182-633L182-507L322-507L322-443L182-443Z"/><path id="s49:hind-regular:78" d="M77 0L77-507L156-507L156 0L77 0M79.50-629.50Q79.50-629.50 72.25-636.75Q65-644 65-666Q65-688 79.50-703Q94-718 116-718Q138-718 153-703Q168-688 168-666Q168-644 153-629.50Q138-615 116-615Q94-615 79.50-629.50Z"/><path id="s49:hind-regular:94" d="M213-13L8-507L97-507L163-340L252-110Q260-136 332-340L391-507L476-507L293-13Q254 90 200.50 132Q147 174 78 174Q52 174 36 169L36 98Q51 102 70 102Q171 102 213-13Z"/><path id="s49:hind-regular:19" d="M41-9Q41-9 32.50-17.50Q24-26 24-51Q24-76 41-93Q58-110 83-110Q108-110 125-93Q142-76 142-51Q142-26 125-9Q108 8 83 8Q58 8 41-9Z"/><path id="s49:hind-regular:93" d="M283-259L453 0L362 0L239-200L112 0L25 0L195-260L35-508L126-508L241-318L357-508L447-508L283-259Z"/><path id="s49:hind-regular:72" d="M125-251Q126-169 175-114.50Q224-60 314-60Q372-60 422-93L422-18Q374 11 304 11Q184 11 113.50-65.50Q43-142 43-252Q43-360 113.50-438Q184-516 306-516Q371-516 422-488L422-413Q376-444 314-444Q228-444 176.50-388.50Q125-333 125-251Z"/><path id="s49:hind-regular:43" d="M447-603L158-603L158-364L412-364L412-293L158-293L158 0L77 0L77-674L447-674L447-603Z"/><path id="s49:hind-regular:17" d="M-8 123L85-101L190-101L61 123L-8 123Z"/></defs><g id="line-0"><use x="0" y="782" xlink:href="#s49:hind-regular:57" /><use x="482" y="782" xlink:href="#s49:hind-regular:77" /><use x="1022" y="782" xlink:href="#s49:hind-regular:74" /><use x="1544" y="782" xlink:href="#s49:hind-regular:5" /><use x="1788" y="782" xlink:href="#s49:hind-regular:42" /><use x="2289" y="782" xlink:href="#s49:hind-regular:90" /><use x="2829" y="782" xlink:href="#s49:hind-regular:87" /><use x="3155" y="782" xlink:href="#s49:hind-regular:84" /><use x="3717" y="782" xlink:href="#s49:hind-regular:85" /><use x="4284" y="782" xlink:href="#s49:hind-regular:74" /><use x="4806" y="782" xlink:href="#s49:hind-regular:70" /><use x="5298" y="782" xlink:href="#s49:hind-regular:83" /><use x="5838" y="782" xlink:href="#s49:hind-regular:5" /><use x="6082" y="782" xlink:href="#s49:hind-regular:81" /><use x="6315" y="782" xlink:href="#s49:hind-regular:70" /><use x="6807" y="782" xlink:href="#s49:hind-regular:83" /><use x="7347" y="782" xlink:href="#s49:hind-regular:76" /><use x="7896" y="782" xlink:href="#s49:hind-regular:90" /><use x="8436" y="782" xlink:href="#s49:hind-regular:70" /><use x="8928" y="782" xlink:href="#s49:hind-regular:76" /><use x="9477" y="782" xlink:href="#s49:hind-regular:74" /><use x="9999" y="782" xlink:href="#s49:hind-regular:88" /><use x="10411" y="782" xlink:href="#s49:hind-regular:5" /><use x="10655" y="782" xlink:href="#s49:hind-regular:70" /><use x="11147" y="782" xlink:href="#s49:hind-regular:87" /><use x="11473" y="782" xlink:href="#s49:hind-regular:74" /><use x="11995" y="782" xlink:href="#s49:hind-regular:5" /><use x="12239" y="782" xlink:href="#s49:hind-regular:82" /><use x="13057" y="782" xlink:href="#s49:hind-regular:74" /><use x="13579" y="782" xlink:href="#s49:hind-regular:82" /><use x="14397" y="782" xlink:href="#s49:hind-regular:71" /><use x="14967" y="782" xlink:href="#s49:hind-regular:74" /><use x="15489" y="782" xlink:href="#s49:hind-regular:87" /><use x="15815" y="782" xlink:href="#s49:hind-regular:88" /><use x="16227" y="782" xlink:href="#s49:hind-regular:5" /><use x="16471" y="782" xlink:href="#s49:hind-regular:84" /><use x="17033" y="782" xlink:href="#s49:hind-regular:75" /><use x="17362" y="782" xlink:href="#s49:hind-regular:5" /><use x="17606" y="782" xlink:href="#s49:hind-regular:89" /><use x="17975" y="782" xlink:href="#s49:hind-regular:77" /><use x="18515" y="782" xlink:href="#s49:hind-regular:74" /><use x="19037" y="782" xlink:href="#s49:hind-regular:5" /><use x="19281" y="782" xlink:href="#s49:hind-regular:88" /><use x="19693" y="782" xlink:href="#s49:hind-regular:70" /><use x="20185" y="782" xlink:href="#s49:hind-regular:82" /><use x="21003" y="782" xlink:href="#s49:hind-regular:74" /><use x="21525" y="782" xlink:href="#s49:hind-regular:5" /><use x="21769" y="782" xlink:href="#s49:hind-regular:75" /><use x="22098" y="782" xlink:href="#s49:hind-regular:70" /><use x="22590" y="782" xlink:href="#s49:hind-regular:82" /><use x="23408" y="782" xlink:href="#s49:hind-regular:78" /><use x="23641" y="782" xlink:href="#s49:hind-regular:81" /><use x="23874" y="782" xlink:href="#s49:hind-regular:94" /><use x="24367" y="782" xlink:href="#s49:hind-regular:19" /></g><g id="line-1"><use x="4958" y="1982" xlink:href="#s49:hind-regular:57" /><use x="5440" y="1982" xlink:href="#s49:hind-regular:77" /><use x="5980" y="1982" xlink:href="#s49:hind-regular:74" /><use x="6502" y="1982" xlink:href="#s49:hind-regular:78" /><use x="6735" y="1982" xlink:href="#s49:hind-regular:87" /><use x="7061" y="1982" xlink:href="#s49:hind-regular:5" /><use x="7305" y="1982" xlink:href="#s49:hind-regular:88" /><use x="7717" y="1982" xlink:href="#s49:hind-regular:74" /><use x="8239" y="1982" xlink:href="#s49:hind-regular:85" /><use x="8806" y="1982" xlink:href="#s49:hind-regular:70" /><use x="9298" y="1982" xlink:href="#s49:hind-regular:87" /><use x="9624" y="1982" xlink:href="#s49:hind-regular:70" /><use x="10116" y="1982" xlink:href="#s49:hind-regular:89" /><use x="10485" y="1982" xlink:href="#s49:hind-regular:74" /><use x="11007" y="1982" xlink:href="#s49:hind-regular:5" /><use x="11251" y="1982" xlink:href="#s49:hind-regular:74" /><use x="11773" y="1982" xlink:href="#s49:hind-regular:93" /><use x="12251" y="1982" xlink:href="#s49:hind-regular:78" /><use x="12484" y="1982" xlink:href="#s49:hind-regular:88" /><use x="12896" y="1982" xlink:href="#s49:hind-regular:89" /><use x="13265" y="1982" xlink:href="#s49:hind-regular:74" /><use x="13787" y="1982" xlink:href="#s49:hind-regular:83" /><use x="14327" y="1982" xlink:href="#s49:hind-regular:72" /><use x="14798" y="1982" xlink:href="#s49:hind-regular:74" /><use x="15320" y="1982" xlink:href="#s49:hind-regular:5" /><use x="15564" y="1982" xlink:href="#s49:hind-regular:78" /><use x="15797" y="1982" xlink:href="#s49:hind-regular:88" /><use x="16209" y="1982" xlink:href="#s49:hind-regular:5" /><use x="16453" y="1982" xlink:href="#s49:hind-regular:70" /><use x="16945" y="1982" xlink:href="#s49:hind-regular:5" /><use x="17189" y="1982" xlink:href="#s49:hind-regular:82" /><use x="18007" y="1982" xlink:href="#s49:hind-regular:94" /><use x="18500" y="1982" xlink:href="#s49:hind-regular:89" /><use x="18869" y="1982" xlink:href="#s49:hind-regular:77" /><use x="19409" y="1982" xlink:href="#s49:hind-regular:19" /></g><g id="line-2"><use x="6024" y="3182" xlink:href="#s49:hind-regular:43" /><use x="6513" y="3182" xlink:href="#s49:hind-regular:84" /><use x="7075" y="3182" xlink:href="#s49:hind-regular:87" /><use x="7401" y="3182" xlink:href="#s49:hind-regular:5" /><use x="7645" y="3182" xlink:href="#s49:hind-regular:88" /><use x="8057" y="3182" xlink:href="#s49:hind-regular:72" /><use x="8528" y="3182" xlink:href="#s49:hind-regular:78" /><use x="8761" y="3182" xlink:href="#s49:hind-regular:74" /><use x="9283" y="3182" xlink:href="#s49:hind-regular:83" /><use x="9823" y="3182" xlink:href="#s49:hind-regular:72" /><use x="10294" y="3182" xlink:href="#s49:hind-regular:74" /><use x="10816" y="3182" xlink:href="#s49:hind-regular:17" /><use x="11041" y="3182" xlink:href="#s49:hind-regular:5" /><use x="11285" y="3182" xlink:href="#s49:hind-regular:82" /><use x="12103" y="3182" xlink:href="#s49:hind-regular:90" /><use x="12643" y="3182" xlink:href="#s49:hind-regular:88" /><use x="13055" y="3182" xlink:href="#s49:hind-regular:78" /><use x="13288" y="3182" xlink:href="#s49:hind-regular:72" /><use x="13759" y="3182" xlink:href="#s49:hind-regular:17" /><use x="13984" y="3182" xlink:href="#s49:hind-regular:5" /><use x="14228" y="3182" xlink:href="#s49:hind-regular:88" /><use x="14640" y="3182" xlink:href="#s49:hind-regular:85" /><use x="15207" y="3182" xlink:href="#s49:hind-regular:84" /><use x="15769" y="3182" xlink:href="#s49:hind-regular:87" /><use x="16095" y="3182" xlink:href="#s49:hind-regular:89" /><use x="16464" y="3182" xlink:href="#s49:hind-regular:17" /><use x="16689" y="3182" xlink:href="#s49:hind-regular:5" /><use x="16933" y="3182" xlink:href="#s49:hind-regular:74" /><use x="17455" y="3182" xlink:href="#s49:hind-regular:89" /><use x="17824" y="3182" xlink:href="#s49:hind-regular:72" /><use x="18295" y="3182" xlink:href="#s49:hind-regular:17" /></g></svg>