<svg xmlns="http://www.w3.org/2000/svg" xmlns:xlink="http://www.w3.org/1999/xlink" width="610" height="89" viewBox="0 0 25414 3728"><defs><path id="s50:hind-semibold:57" d="M495-674L495-570L324-570L324 0L197 0L197-570L26-570L26-674L495-674Z"/><path id="s50:hind-semibold:77" d="M185-707L185-421Q226-513 340-513Q414-513 459.50-466.50Q505-420 505-332L505 0L385 0L385-311Q385-359 360.50-386Q336-413 297-413Q254-413 219.50-380Q185-347 185-272L185 0L65 0L65-707L185-707Z"/><path id="s50:hind-semibold:74" d="M370-295L370-310Q368-359 343.50-388.50Q319-418 272-418Q229-418 197.50-386.50Q166-355 157-295L370-295M452-132L452-28Q399 5 299 5Q178 5 108-67Q38-139 38-253Q38-374 104-443Q170-512 269-512Q368-512 426-452Q484-392 484-277Q484-249 477-205L159-205Q172-150 213.50-121Q255-92 317-92Q397-92 452-132Z"/><path id="s50:hind-semibold:5" d=""/><path id="s50:hind-semibold:42" d="M197-103L472-103L472 0L70 0L70-674L468-674L468-571L197-571L197-388L438-388L438-286L197-286L197-103Z"/><path id="s50:hind-semibold:90" d="M379-507L500-507L500 0L379 0L379-83Q339 5 223 5Q146 5 103-39Q60-83 60-164L60-507L180-507L180-192Q180-144 203.50-119Q227-94 268-94Q320-94 349.50-129Q379-164 379-235L379-507Z"/><path id="s50:hind-semibold:87" d="M185-507L185-417Q220-511 313-511Q334-511 347-508L347-392Q324-402 296-402Q247-402 216-362Q185-322 185-262L185 0L64 0L65-507L185-507Z"/><path id="s50:hind-semibold:84" d="M282 8Q167 8 102.50-64Q38-136 38-248Q38-364 105-439.50Q172-515 282-515Q399-515 463-441.50Q527-368 527-255Q527-140 462.50-66Q398 8 282 8M282-417Q225-417 194.50-370Q164-323 164-252Q164-182 195-135Q226-88 283-88Q342-88 372-134Q402-180 402-251Q402-324 373-370.50Q344-417 282-417Z"/><path id="s50:hind-semibold:85" d="M311-96Q365-96 399-137.50Q433-179 433-254Q433-329 399-370.50Q365-412 313-412Q261-412 223-373Q185-334 185-257Q185-180 222-138Q259-96 311-96M185-507L185-429Q239-514 340-514Q439-514 497.50-443Q556-372 556-256Q556-142 497.50-67.50Q439 7 339 7Q237 7 185-76L185 191L65 191L65-507L185-507Z"/><path id="s50:hind-semibold:70" d="M324-218L262-218Q215-218 190-198.50Q165-179 165-149Q165-85 239-85Q279-85 301.50-108.50Q324-132 324-170L324-218M78-370L78-481Q135-516 242-516Q448-516 448-324L448 0L329 0L329-61Q294 4 197 4Q125 4 82.50-38Q40-80 40-144Q40-216 94-257Q148-298 250-298L324-298L324-329Q324-371 302-393Q280-415 227-415Q146-415 78-370Z"/><path id="s50:hind-semibold:83" d="M185-507L185-420Q228-513 341-513Q417-513 461-467Q505-421 505-337L505 0L385 0L385-312Q385-362 361-387.50Q337-413 296-413Q249-413 217-376.50Q185-340 185-272L185 0L65 0L65-507L185-507Z"/><path id="s50:hind-semibold:81" d="M70 0L70-707L190-707L190 0L70 0Z"/><path id="s50:hind-semibold:76" d="M277-114Q326-114 359-152.50Q392-191 392-253Q392-334 360-372Q328-410 279-410Q227-410 197-369.50Q167-329 167-260Q167-189 198-151.50Q229-114 277-114M392-507L512-507L512-46Q512 74 442.50 134.50Q373 195 266 195Q166 195 91 159L91 37Q159 85 254 85Q392 85 392-47L392-91Q346-16 248-16Q163-16 102.50-78.50Q42-141 42-260Q42-370 99.50-441.50Q157-513 251-513Q346-513 392-434L392-507Z"/><path id="s50:hind-semibold:88" d="M368-491L368-385Q318-415 243-415Q212-415 194.50-401.50Q177-388 177-367Q177-359 179.50-352Q182-345 188.50-338.50Q195-332 201-327Q207-322 218-316.50Q229-311 237-307Q245-303 259-297Q273-291 281-287Q334-261 365-229Q396-197 396-146Q396-75 345-35Q294 5 209 5Q115 5 57-26L57-136Q124-91 202-91Q235-91 253.50-103.50Q272-116 272-138Q272-151 266-161.50Q260-172 243-182Q226-192 216.50-196.50Q207-201 179-213Q176-214 174.50-215Q173-216 170-217Q167-218 165-219Q54-269 54-363Q54-433 107-473Q160-513 240-513Q317-513 368-491Z"/><path id="s50:hind-semibold:82" d="M185-507L185-427Q228-513 328-513Q439-513 472-417Q492-463 532-488Q572-513 623-513Q700-513 742-466.50Q784-420 784-334L784 0L663 0L663-311Q663-413 585-413Q546-413 515.50-379Q485-345 485-272L485 0L364 0L364-311Q364-413 286-413Q247-413 216-379Q185-345 185-272L185 0L65 0L65-507L185-507Z"/><path id="s50:hind-semibold:71" d="M313-96Q365-96 400-139Q435-182 435-251Q435-327 399.50-369.50Q364-412 312-412Q263-412 225-373.50Q187-335 187-258Q187-179 223-137.50Q259-96 313-96M187-707L187-430Q240-514 339-514Q434-514 495.50-443.50Q557-373 557-253Q557-145 498.50-69Q440 7 340 7Q240 7 187-78L187 0L66 0L66-707L187-707Z"/><path id="s50:hind-semibold:75" d="M347-709L347-608Q321-618 297-618Q224-618 224-536L224-507L325-507L325-417L224-417L224 0L104 0L104-417L30-417L30-507L104-507L104-537Q104-622 151-670Q198-718 281-718Q319-718 347-709Z"/><path id="s50:hind-semibold:89" d="M211-417L211-159Q211-127 228-110.50Q245-94 275-94Q313-94 345-115L345-12Q310 5 255 5Q91 5 91-161L91-417L15-417L15-507L91-507L91-629L211-629L211-507L337-507L337-417L211-417Z"/><path id="s50:hind-semibold:78" d="M70 0L70-507L190-507L190 0L70 0M58-659Q58-689 79-710Q100-731 130-731Q160-731 181-710Q202-689 202-659Q202-628 181-607Q160-586 130-586Q100-586 79-607Q58-628 58-659Z"/><path id="s50:hind-semibold:94" d="M206-10L6-507L139-507L198-345Q225-273 241.50-224Q258-175 262-162L265-148Q275-183 329-345L382-507L508-507L325-14Q249 189 93 189Q64 189 43 184L43 85Q59 89 77 89Q168 89 206-10Z"/><path id="s50:hind-semibold:19" d="M57-15Q57-15 45.50-26.50Q34-38 34-70Q34-102 57-124.50Q80-147 112-147Q144-147 166.50-124.50Q189-102 189-70Q189-38 166.50-15Q144 8 112 8Q80 8 57-15Z"/><path id="s50:hind-semibold:93" d="M318-255L488 0L355 0L255-170L151 0L19 0L196-256L30-507L165-507L260-342L360-507L494-507L318-255Z"/><path id="s50:hind-semibold:72" d="M161-252Q163-180 204.50-136Q246-92 317-92Q379-92 432-126L432-22Q379 9 300 9Q183 9 110.50-65Q38-139 38-252Q39-363 110.50-439Q182-515 306-515Q380-515 432-487L432-381Q382-413 318-413Q248-413 205-369Q162-325 161-252Z"/><path id="s50:hind-semibold:43" d="M465-571L197-571L197-372L431-372L431-269L197-269L197 0L70 0L70-674L465-674L465-571Z"/><path id="s50:hind-semibold:17" d="M-7 126L91-121L230-121L97 126L-7 126Z"/></defs><g id="line-0"><use x="0" y="782" xlink:href="#s50:hind-semibold:57"/><use x="520" y="782" xlink:href="#s50:hind-semibold:77"/><use x="1085" y="782" xlink:href="#s50:hind-semibold:74"/><use x="1614" y="782" xlink:href="#s50:hind-semibold:5"/><use x="1862" y="782" xlink:href="#s50:hind-semibold:42"/><use x="2390" y="782" xlink:href="#s50:hind-semibold:90"/><use x="2955" y="782" xlink:href="#s50:hind-semibold:87"/><use x="3308" y="782" xlink:href="#s50:hind-semibold:84"/><use x="3873" y="782" xlink:href="#s50:hind-semibold:85"/><use x="4467" y="782" xlink:href="#s50:hind-semibold:74"/><use x="4996" y="782" xlink:href="#s50:hind-semibold:70"/><use x="5503" y="782" xlink:href="#s50:hind-semibold:83"/><use x="6068" y="782" xlink:href="#s50:hind-semibold:5"/><use x="6316" y="782" xlink:href="#s50:hind-semibold:81"/><use x="6576" y="782" xlink:href="#s50:hind-semibold:70"/><use x="7083" y="782" xlink:href="#s50:hind-semibold:83"/><use x="7648" y="782" xlink:href="#s50:hind-semibold:76"/><use x="8219" y="782" xlink:href="#s50:hind-semibold:90"/><use x="8784" y="782" xlink:href="#s50:hind-semibold:70"/><use x="9291" y="782" xlink:href="#s50:hind-semibold:76"/><use x="9862" y="782" xlink:href="#s50:hind-semibold:74"/><use x="10391" y="782" xlink:href="#s50:hind-semibold:88"/><use x="10818" y="782" xlink:href="#s50:hind-semibold:5"/><use x="11066" y="782" xlink:href="#s50:hind-semibold:70"/><use x="11573" y="782" xlink:href="#s50:hind-semibold:87"/><use x="11926" y="782" xlink:href="#s50:hind-semibold:74"/><use x="12455" y="782" xlink:href="#s50:hind-semibold:5"/><use x="12703" y="782" xlink:href="#s50:hind-semibold:82"/><use x="13546" y="782" xlink:href="#s50:hind-semibold:74"/><use x="14075" y="782" xlink:href="#s50:hind-semibold:82"/><use x="14918" y="782" xlink:href="#s50:hind-semibold:71"/><use x="15513" y="782" xlink:href="#s50:hind-semibold:74"/><use x="16042" y="782" xlink:href="#s50:hind-semibold:87"/><use x="16395" y="782" xlink:href="#s50:hind-semibold:88"/><use x="16822" y="782" xlink:href="#s50:hind-semibold:5"/><use x="17070" y="782" xlink:href="#s50:hind-semibold:84"/><use x="17635" y="782" xlink:href="#s50:hind-semibold:75"/><use x="17975" y="782" xlink:href="#s50:hind-semibold:5"/><use x="18223" y="782" xlink:href="#s50:hind-semibold:89"/><use x="18602" y="782" xlink:href="#s50:hind-semibold:77"/><use x="19167" y="782" xlink:href="#s50:hind-semibold:74"/><use x="19696" y="782" xlink:href="#s50:hind-semibold:5"/><use x="19944" y="782" xlink:href="#s50:hind-semibold:88"/><use x="20371" y="782" xlink:href="#s50:hind-semibold:70"/><use x="20878" y="782" xlink:href="#s50:hind-semibold:82"/><use x="21721" y="782" xlink:href="#s50:hind-semibold:74"/><use x="22250" y="782" xlink:href="#s50:hind-semibold:5"/><use x="22498" y="782" xlink:href="#s50:hind-semibold:75"/><use x="22838" y="782" xlink:href="#s50:hind-semibold:70"/><use x="23345" y="782" xlink:href="#s50:hind-semibold:82"/><use x="24188" y="782" xlink:href="#s50:hind-semibold:78"/><use x="24448" y="782" xlink:href="#s50:hind-semibold:81"/><use x="24708" y="782" xlink:href="#s50:hind-semibold:94"/><use x="25225" y="782" xlink:href="#s50:hind-semibold:19"/></g><g id="line-1"><use x="5119.5" y="1982" xlink:href="#s50:hind-semibold:57"/><use x="5639.5" y="1982" xlink:href="#s50:hind-semibold:77"/><use x="6204.5" y="1982" xlink:href="#s50:hind-semibold:74"/><use x="6733.5" y="1982" xlink:href="#s50:hind-semibold:78"/><use x="6993.5" y="1982" xlink:href="#s50:hind-semibold:87"/><use x="7346.5" y="1982" xlink:href="#s50:hind-semibold:5"/><use x="7594.5" y="1982" xlink:href="#s50:hind-semibold:88"/><use x="8021.5" y="1982" xlink:href="#s50:hind-semibold:74"/><use x="8550.5" y="1982" xlink:href="#s50:hind-semibold:85"/><use x="9144.5" y="1982" xlink:href="#s50:hind-semibold:70"/><use x="9651.5" y="1982" xlink:href="#s50:hind-semibold:87"/><use x="10004.5" y="1982" xlink:href="#s50:hind-semibold:70"/><use x="10511.5" y="1982" xlink:href="#s50:hind-semibold:89"/><use x="10890.5" y="1982" xlink:href="#s50:hind-semibold:74"/><use x="11419.5" y="1982" xlink:href="#s50:hind-semibold:5"/><use x="11667.5" y="1982" xlink:href="#s50:hind-semibold:74"/><use x="12196.5" y="1982" xlink:href="#s50:hind-semibold:93"/><use x="12704.5" y="1982" xlink:href="#s50:hind-semibold:78"/><use x="12964.5" y="1982" xlink:href="#s50:hind-semibold:88"/><use x="13391.5" y="1982" xlink:href="#s50:hind-semibold:89"/><use x="13770.5" y="1982" xlink:href="#s50:hind-semibold:74"/><use x="14299.5" y="1982" xlink:href="#s50:hind-semibold:83"/><use x="14864.5" y="1982" xlink:href="#s50:hind-semibold:72"/><use x="15334.5" y="1982" xlink:href="#s50:hind-semibold:74"/><use x="15863.5" y="1982" xlink:href="#s50:hind-semibold:5"/><use x="16111.5" y="1982" xlink:href="#s50:hind-semibold:78"/><use x="16371.5" y="1982" xlink:href="#s50:hind-semibold:88"/><use x="16798.5" y="1982" xlink:href="#s50:hind-semibold:5"/><use x="17046.5" y="1982" xlink:href="#s50:hind-semibold:70"/><use x="17553.5" y="1982" xlink:href="#s50:hind-semibold:5"/><use x="17801.5" y="1982" xlink:href="#s50:hind-semibold:82"/><use x="18644.5" y="1982" xlink:href="#s50:hind-semibold:94"/><use x="19161.5" y="1982" xlink:href="#s50:hind-semibold:89"/><use x="19540.5" y="1982" xlink:href="#s50:hind-semibold:77"/><use x="20105.5" y="1982" xlink:href="#s50:hind-semibold:19"/></g><g id="line-2"><use x="6230" y="3182" xlink:href="#s50:hind-semibold:43"/><use x="6729" y="3182" xlink:href="#s50:hind-semibold:84"/><use x="7294" y="3182" xlink:href="#s50:hind-semibold:87"/><use x="7647" y="3182" xlink:href="#s50:hind-semibold:5"/><use x="7895" y="3182" xlink:href="#s50:hind-semibold:88"/><use x="8322" y="3182" xlink:href="#s50:hind-semibold:72"/><use x="8792" y="3182" xlink:href="#s50:hind-semibold:78"/><use x="9052" y="3182" xlink:href="#s50:hind-semibold:74"/><use x="9581" y="3182" xlink:href="#s50:hind-semibold:83"/><use x="10146" y="3182" xlink:href="#s50:hind-semibold:72"/><use x="10616" y="3182" xlink:href="#s50:hind-semibold:74"/><use x="11145" y="3182" xlink:href="#s50:hind-semibold:17"/><use x="11413" y="3182" xlink:href="#s50:hind-semibold:5"/><use x="11661" y="3182" xlink:href="#s50:hind-semibold:82"/><use x="12504" y="3182" xlink:href="#s50:hind-semibold:90"/><use x="13069" y="3182" xlink:href="#s50:hind-semibold:88"/><use x="13496" y="3182" xlink:href="#s50:hind-semibold:78"/><use x="13756" y="3182" xlink:href="#s50:hind-semibold:72"/><use x="14226" y="3182" xlink:href="#s50:hind-semibold:17"/><use x="14494" y="3182" xlink:href="#s50:hind-semibold:5"/><use x="14742" y="3182" xlink:href="#s50:hind-semibold:88"/><use x="15169" y="3182" xlink:href="#s50:hind-semibold:85"/><use x="15763" y="3182" xlink:href="#s50:hind-semibold:84"/><use x="16328" y="3182" xlink:href="#s50:hind-semibold:87"/><use x="16681" y="3182" xlink:href="#s50:hind-semibold:89"/><use x="17060" y="3182" xlink:href="#s50:hind-semibold:17"/><use x="17328" y="3182" xlink:href="#s50:hind-semibold:5"/><use x="17576" y="3182" xlink:href="#s50:hind-semibold:74"/><use x="18105" y="3182" xlink:href="#s50:hind-semibold:89"/><use x="18484" y="3182" xlink:href="#s50:hind-semibold:72"/><use x="18954" y="3182" xlink:href="#s50:hind-semibold:17"/></g></svg>