<svg xmlns="http://www.w3.org/2000/svg" xmlns:xlink="http://www.w3.org/1999/xlink" width="579" height="89" viewBox="0 0 24116 3728" ><defs><path id="s47:hind-light:57" d="M450-674L450-617L263-617L263 0L201 0L201-617L15-617L15-674L450-674Z"/><path id="s47:hind-light:77" d="M137-707L137-420Q183-515 298-515Q371-515 415-470Q459-425 459-354L459 0L398 0L398-335Q398-394 368-425Q338-456 289-456Q227-456 182-408.50Q137-361 137-280L137 0L76 0L76-707L137-707Z"/><path id="s47:hind-light:74" d="M408-282L408-305Q408-374 369.50-415Q331-456 266-456Q202-456 159-411Q116-366 109-282L408-282M439-87L439-25Q379 5 299 5Q186 5 115.50-65.50Q45-136 45-251Q45-373 107-443Q169-513 268-513Q361-513 416-452Q471-391 471-280Q471-246 467-226L109-226Q116-142 167-97.50Q218-53 302-53Q388-53 439-87Z"/><path id="s47:hind-light:5" d=""/><path id="s47:hind-light:42" d="M142-57L445-57L445 0L80 0L80-674L439-674L439-617L142-617L142-365L404-365L404-308L142-308L142-57Z"/><path id="s47:hind-light:90" d="M392-507L453-507L453 0L392 0L392-91Q352 7 231 7Q157 7 113.50-37.50Q70-82 70-155L70-507L131-507L131-172Q131-114 161.50-83Q192-52 242-52Q309-52 350.50-100Q392-148 392-225L392-507Z"/><path id="s47:hind-light:87" d="M137-507L137-421Q179-513 279-513Q286-513 304-511L304-449Q284-455 264-455Q210-455 173.50-401.50Q137-348 137-283L137 0L76 0L76-507L137-507Z"/><path id="s47:hind-light:84" d="M278 9Q171 9 108-65Q45-139 45-251Q45-362 110-438Q175-514 278-514Q391-514 453.50-439.50Q516-365 516-251Q516-138 452.50-64.50Q389 9 278 9M278-456Q199-456 154-396Q109-336 109-251Q109-168 155.50-108.50Q202-49 278-49Q361-49 406.50-107.50Q452-166 452-251Q452-339 409-397.50Q366-456 278-456Z"/><path id="s47:hind-light:85" d="M290-50Q358-50 402-104.50Q446-159 446-260Q446-347 403.50-402Q361-457 296-457Q231-457 184-409.50Q137-362 137-251Q137-195 152.50-153.50Q168-112 192.50-90.50Q217-69 241.50-59.50Q266-50 290-50M137-507L137-433Q190-515 294-515Q396-515 453-440.50Q510-366 510-259Q510-141 449-66.50Q388 8 292 8Q193 8 137-76L137 200L76 200L76-507L137-507Z"/><path id="s47:hind-light:70" d="M355-241L256-241Q185-241 150-213.50Q115-186 115-145Q115-103 142.50-77Q170-51 223-51Q283-51 319-84Q355-117 355-168L355-241M87-414L87-480Q145-515 230-515Q416-515 416-320L416 0L355 0L355-59Q313 5 209 5Q139 5 94.50-36.50Q50-78 50-143Q50-216 106.50-256.50Q163-297 256-297L355-297L355-320Q355-388 326-422.50Q297-457 229-457Q150-457 87-414Z"/><path id="s47:hind-light:83" d="M137-507L137-420Q184-515 298-515Q371-515 415-470Q459-425 459-354L459 0L398 0L398-335Q398-394 368-425Q338-456 289-456Q227-456 182-408.50Q137-361 137-280L137 0L76 0L76-507L137-507Z"/><path id="s47:hind-light:81" d="M80 0L80-707L141-707L141 0L80 0Z"/><path id="s47:hind-light:76" d="M257-70Q314-70 361-114.50Q408-159 408-251Q408-356 363-406.50Q318-457 262-457Q191-457 150-401Q109-345 109-256Q109-165 155-117.50Q201-70 257-70M408-507L469-507L469-39Q469 76 407 133.50Q345 191 247 191Q160 191 99 162L99 102Q161 133 242 133Q318 133 363 91.50Q408 50 408-39L408-105Q357-12 256-12Q168-12 106.50-77Q45-142 45-253Q45-367 101.50-441Q158-515 250-515Q359-515 408-418L408-507Z"/><path id="s47:hind-light:88" d="M341-489L341-428Q294-455 214-455Q170-455 144.50-434.50Q119-414 119-381Q119-361 126.50-346Q134-331 152.50-318.50Q171-306 184-300Q197-294 226-282Q296-254 333.50-220.50Q371-187 371-130Q371-67 327.50-30.50Q284 6 208 6Q116 6 60-24L60-87Q127-49 204-49Q255-49 281.50-70Q308-91 308-125Q308-165 280.50-187Q253-209 190-234Q129-258 93-290Q57-322 57-378Q57-439 102-475.50Q147-512 215-512Q297-512 341-489Z"/><path id="s47:hind-light:82" d="M137-507L137-424Q180-515 279-515Q401-515 429-415Q476-515 579-515Q659-515 698-470.50Q737-426 737-354L737 0L676 0L676-335Q676-456 570-456Q518-456 477.50-408Q437-360 437-280L437 0L376 0L376-335Q376-456 270-456Q218-456 177.50-408Q137-360 137-280L137 0L76 0L76-507L137-507Z"/><path id="s47:hind-light:71" d="M188-97.50Q188-97.50 211.50-73.75Q235-50 300-50Q365-50 407.50-105Q450-160 450-247Q450-348 406-402.50Q362-457 294-457Q270-457 245.50-447.50Q221-438 196.50-416.50Q172-395 156.50-353.50Q141-312 141-256Q141-145 188-97.50M141-707L141-431Q197-515 296-515Q392-515 453-440.50Q514-366 514-248Q514-141 457-66.50Q400 8 298 8Q194 8 141-74L141 0L80 0L80-707L141-707Z"/><path id="s47:hind-light:75" d="M301-706L301-646Q280-654 257-654Q227-654 205.50-630.50Q184-607 184-560L184-507L300-507L300-455L184-455L184 0L123 0L123-455L30-455L30-507L123-507L123-561Q123-630 159-671Q195-712 260-712Q279-712 301-706Z"/><path id="s47:hind-light:89" d="M170-455L170-140Q170-53 251-53Q291-53 319-76L319-14Q290 5 252 5Q108 5 108-143L108-455L25-455L25-507L108-507L108-634L170-634L170-507L315-507L315-455L170-455Z"/><path id="s47:hind-light:78" d="M80 0L80-507L141-507L141 0L80 0M80-639Q80-639 74-645Q68-651 68-669Q68-687 80-699.50Q92-712 110-712Q128-712 140.50-699.50Q153-687 153-669Q153-651 140.50-639Q128-627 110-627Q92-627 80-639Z"/><path id="s47:hind-light:94" d="M216-14L9-507L79-507L148-337L246-93Q253-116 333-337L395-507L463-507L279-13Q241 90 189 129Q137 168 71 168Q51 168 33 163L33 103Q51 108 67 108Q174 108 216-14Z"/><path id="s47:hind-light:19" d="M34.50-6.50Q34.50-6.50 27.25-13.75Q20-21 20-43Q20-65 34.50-79.50Q49-94 71-94Q93-94 107.50-79.50Q122-65 122-43Q122-21 107.50-6.50Q93 8 71 8Q49 8 34.50-6.50Z"/><path id="s47:hind-light:93" d="M268-260L438 0L365 0L232-213L96 0L27 0L194-261L37-508L109-508L233-308L356-508L427-508L268-260Z"/><path id="s47:hind-light:72" d="M109-251Q109-165 162-106Q215-47 313-47Q374-47 417-79L417-17Q374 12 306 12Q183 12 114-65.50Q45-143 45-252Q45-358 115.50-437Q186-516 306-516Q368-516 417-489L417-427Q372-457 312-457Q219-457 164-396.50Q109-336 109-251Z"/><path id="s47:hind-light:43" d="M439-617L142-617L142-360L404-360L404-303L142-303L142 0L80 0L80-674L439-674L439-617Z"/><path id="s47:hind-light:17" d="M-8 122L83-92L173-92L46 122L-8 122Z"/></defs><g id="line-0"><use x="0" y="782" xlink:href="#s47:hind-light:57" /><use x="465" y="782" xlink:href="#s47:hind-light:77" /><use x="994" y="782" xlink:href="#s47:hind-light:74" /><use x="1513" y="782" xlink:href="#s47:hind-light:5" /><use x="1755" y="782" xlink:href="#s47:hind-light:42" /><use x="2245" y="782" xlink:href="#s47:hind-light:90" /><use x="2774" y="782" xlink:href="#s47:hind-light:87" /><use x="3088" y="782" xlink:href="#s47:hind-light:84" /><use x="3649" y="782" xlink:href="#s47:hind-light:85" /><use x="4204" y="782" xlink:href="#s47:hind-light:74" /><use x="4723" y="782" xlink:href="#s47:hind-light:70" /><use x="5209" y="782" xlink:href="#s47:hind-light:83" /><use x="5738" y="782" xlink:href="#s47:hind-light:5" /><use x="5980" y="782" xlink:href="#s47:hind-light:81" /><use x="6201" y="782" xlink:href="#s47:hind-light:70" /><use x="6687" y="782" xlink:href="#s47:hind-light:83" /><use x="7216" y="782" xlink:href="#s47:hind-light:76" /><use x="7755" y="782" xlink:href="#s47:hind-light:90" /><use x="8284" y="782" xlink:href="#s47:hind-light:70" /><use x="8770" y="782" xlink:href="#s47:hind-light:76" /><use x="9309" y="782" xlink:href="#s47:hind-light:74" /><use x="9828" y="782" xlink:href="#s47:hind-light:88" /><use x="10234" y="782" xlink:href="#s47:hind-light:5" /><use x="10476" y="782" xlink:href="#s47:hind-light:70" /><use x="10962" y="782" xlink:href="#s47:hind-light:87" /><use x="11276" y="782" xlink:href="#s47:hind-light:74" /><use x="11795" y="782" xlink:href="#s47:hind-light:5" /><use x="12037" y="782" xlink:href="#s47:hind-light:82" /><use x="12844" y="782" xlink:href="#s47:hind-light:74" /><use x="13363" y="782" xlink:href="#s47:hind-light:82" /><use x="14170" y="782" xlink:href="#s47:hind-light:71" /><use x="14729" y="782" xlink:href="#s47:hind-light:74" /><use x="15248" y="782" xlink:href="#s47:hind-light:87" /><use x="15562" y="782" xlink:href="#s47:hind-light:88" /><use x="15968" y="782" xlink:href="#s47:hind-light:5" /><use x="16210" y="782" xlink:href="#s47:hind-light:84" /><use x="16771" y="782" xlink:href="#s47:hind-light:75" /><use x="17096" y="782" xlink:href="#s47:hind-light:5" /><use x="17338" y="782" xlink:href="#s47:hind-light:89" /><use x="17702" y="782" xlink:href="#s47:hind-light:77" /><use x="18231" y="782" xlink:href="#s47:hind-light:74" /><use x="18750" y="782" xlink:href="#s47:hind-light:5" /><use x="18992" y="782" xlink:href="#s47:hind-light:88" /><use x="19398" y="782" xlink:href="#s47:hind-light:70" /><use x="19884" y="782" xlink:href="#s47:hind-light:82" /><use x="20691" y="782" xlink:href="#s47:hind-light:74" /><use x="21210" y="782" xlink:href="#s47:hind-light:5" /><use x="21452" y="782" xlink:href="#s47:hind-light:75" /><use x="21777" y="782" xlink:href="#s47:hind-light:70" /><use x="22263" y="782" xlink:href="#s47:hind-light:82" /><use x="23070" y="782" xlink:href="#s47:hind-light:78" /><use x="23291" y="782" xlink:href="#s47:hind-light:81" /><use x="23512" y="782" xlink:href="#s47:hind-light:94" /><use x="23994" y="782" xlink:href="#s47:hind-light:19" /></g><g id="line-1"><use x="4889" y="1982" xlink:href="#s47:hind-light:57" /><use x="5354" y="1982" xlink:href="#s47:hind-light:77" /><use x="5883" y="1982" xlink:href="#s47:hind-light:74" /><use x="6402" y="1982" xlink:href="#s47:hind-light:78" /><use x="6623" y="1982" xlink:href="#s47:hind-light:87" /><use x="6937" y="1982" xlink:href="#s47:hind-light:5" /><use x="7179" y="1982" xlink:href="#s47:hind-light:88" /><use x="7585" y="1982" xlink:href="#s47:hind-light:74" /><use x="8104" y="1982" xlink:href="#s47:hind-light:85" /><use x="8659" y="1982" xlink:href="#s47:hind-light:70" /><use x="9145" y="1982" xlink:href="#s47:hind-light:87" /><use x="9459" y="1982" xlink:href="#s47:hind-light:70" /><use x="9945" y="1982" xlink:href="#s47:hind-light:89" /><use x="10309" y="1982" xlink:href="#s47:hind-light:74" /><use x="10828" y="1982" xlink:href="#s47:hind-light:5" /><use x="11070" y="1982" xlink:href="#s47:hind-light:74" /><use x="11589" y="1982" xlink:href="#s47:hind-light:93" /><use x="12054" y="1982" xlink:href="#s47:hind-light:78" /><use x="12275" y="1982" xlink:href="#s47:hind-light:88" /><use x="12681" y="1982" xlink:href="#s47:hind-light:89" /><use x="13045" y="1982" xlink:href="#s47:hind-light:74" /><use x="13564" y="1982" xlink:href="#s47:hind-light:83" /><use x="14093" y="1982" xlink:href="#s47:hind-light:72" /><use x="14565" y="1982" xlink:href="#s47:hind-light:74" /><use x="15084" y="1982" xlink:href="#s47:hind-light:5" /><use x="15326" y="1982" xlink:href="#s47:hind-light:78" /><use x="15547" y="1982" xlink:href="#s47:hind-light:88" /><use x="15953" y="1982" xlink:href="#s47:hind-light:5" /><use x="16195" y="1982" xlink:href="#s47:hind-light:70" /><use x="16681" y="1982" xlink:href="#s47:hind-light:5" /><use x="16923" y="1982" xlink:href="#s47:hind-light:82" /><use x="17730" y="1982" xlink:href="#s47:hind-light:94" /><use x="18212" y="1982" xlink:href="#s47:hind-light:89" /><use x="18576" y="1982" xlink:href="#s47:hind-light:77" /><use x="19105" y="1982" xlink:href="#s47:hind-light:19" /></g><g id="line-2"><use x="5933.5" y="3182" xlink:href="#s47:hind-light:43" /><use x="6417.5" y="3182" xlink:href="#s47:hind-light:84" /><use x="6978.5" y="3182" xlink:href="#s47:hind-light:87" /><use x="7292.5" y="3182" xlink:href="#s47:hind-light:5" /><use x="7534.5" y="3182" xlink:href="#s47:hind-light:88" /><use x="7940.5" y="3182" xlink:href="#s47:hind-light:72" /><use x="8412.5" y="3182" xlink:href="#s47:hind-light:78" /><use x="8633.5" y="3182" xlink:href="#s47:hind-light:74" /><use x="9152.5" y="3182" xlink:href="#s47:hind-light:83" /><use x="9681.5" y="3182" xlink:href="#s47:hind-light:72" /><use x="10153.5" y="3182" xlink:href="#s47:hind-light:74" /><use x="10672.5" y="3182" xlink:href="#s47:hind-light:17" /><use x="10879.5" y="3182" xlink:href="#s47:hind-light:5" /><use x="11121.5" y="3182" xlink:href="#s47:hind-light:82" /><use x="11928.5" y="3182" xlink:href="#s47:hind-light:90" /><use x="12457.5" y="3182" xlink:href="#s47:hind-light:88" /><use x="12863.5" y="3182" xlink:href="#s47:hind-light:78" /><use x="13084.5" y="3182" xlink:href="#s47:hind-light:72" /><use x="13556.5" y="3182" xlink:href="#s47:hind-light:17" /><use x="13763.5" y="3182" xlink:href="#s47:hind-light:5" /><use x="14005.5" y="3182" xlink:href="#s47:hind-light:88" /><use x="14411.5" y="3182" xlink:href="#s47:hind-light:85" /><use x="14966.5" y="3182" xlink:href="#s47:hind-light:84" /><use x="15527.5" y="3182" xlink:href="#s47:hind-light:87" /><use x="15841.5" y="3182" xlink:href="#s47:hind-light:89" /><use x="16205.5" y="3182" xlink:href="#s47:hind-light:17" /><use x="16412.5" y="3182" xlink:href="#s47:hind-light:5" /><use x="16654.5" y="3182" xlink:href="#s47:hind-light:74" /><use x="17173.5" y="3182" xlink:href="#s47:hind-light:89" /><use x="17537.5" y="3182" xlink:href="#s47:hind-light:72" /><use x="18009.5" y="3182" xlink:href="#s47:hind-light:17" /></g></svg>