<svg xmlns="http://www.w3.org/2000/svg" xmlns:xlink="http://www.w3.org/1999/xlink" width="598" height="89" viewBox="0 0 24929 3728"><defs><path id="s48:hind-medium:57" d="M478-674L478-588L301-588L301 0L198 0L198-588L22-588L22-674L478-674Z"/><path id="s48:hind-medium:77" d="M167-707L167-420Q210-514 324-514Q398-514 443-468Q488-422 488-340L488 0L390 0L390-320Q390-372 363.50-400.50Q337-429 294-429Q244-429 205.50-391Q167-353 167-275L167 0L69 0L69-707L167-707Z"/><path id="s48:hind-medium:74" d="M384-290L384-308Q382-365 353-398.50Q324-432 270-432Q220-432 184-395.50Q148-359 139-290L384-290M447-115L447-27Q391 5 299 5Q181 5 111-66Q41-137 41-252Q41-374 105-443.50Q169-513 268-513Q365-513 422-452.50Q479-392 479-278Q479-247 473-213L140-213Q150-147 196-112Q242-77 312-77Q393-77 447-115Z"/><path id="s48:hind-medium:5" d=""/><path id="s48:hind-medium:42" d="M176-86L462-86L462 0L73 0L73-674L457-674L457-588L176-588L176-380L425-380L425-294L176-294L176-86Z"/><path id="s48:hind-medium:90" d="M384-507L482-507L482 0L384 0L384-87Q344 6 226 6Q151 6 107-38.50Q63-83 63-161L63-507L162-507L162-185Q162-133 187.50-105.50Q213-78 258-78Q315-78 349.50-118Q384-158 384-231L384-507Z"/><path id="s48:hind-medium:87" d="M167-507L167-418Q204-512 300-512Q314-512 331-509L331-413Q310-422 284-422Q233-422 200-377Q167-332 167-270L167 0L69 0L69-507L167-507Z"/><path id="s48:hind-medium:84" d="M281 9Q169 9 105-64Q41-137 41-249Q41-363 107-438.50Q173-514 281-514Q397-514 460-440.50Q523-367 523-253Q523-139 458.50-65Q394 9 281 9M280-431Q215-431 179-379.50Q143-328 143-252Q143-177 180-125.50Q217-74 281-74Q349-74 384.50-124Q420-174 420-251Q420-330 386-380.50Q352-431 280-431Z"/><path id="s48:hind-medium:85" d="M303-79Q362-79 400-125.50Q438-172 438-256Q438-335 401-381.50Q364-428 307-428Q250-428 208.50-386.50Q167-345 167-255Q167-167 208.50-123Q250-79 303-79M167-507L167-429Q219-514 323-514Q423-514 481-441.50Q539-369 539-257Q539-142 479.50-67.50Q420 7 321 7Q220 7 167-77L167 194L69 194L69-507L167-507Z"/><path id="s48:hind-medium:70" d="M336-226L260-226Q204-226 175.50-204Q147-182 147-148Q147-113 169-93Q191-73 233-73Q281-73 308.50-99.50Q336-126 336-169L336-226M81-386L81-481Q140-515 237-515Q436-515 436-322L436 0L339 0L339-60Q300 4 202 4Q130 4 86.50-37.50Q43-79 43-143Q43-216 98-256.50Q153-297 252-297L336-297L336-326Q336-378 311-404.50Q286-431 228-431Q147-431 81-386Z"/><path id="s48:hind-medium:83" d="M167-507L167-420Q212-514 325-514Q400-514 444-468Q488-422 488-343L488 0L390 0L390-320Q390-373 363.50-401Q337-429 293-429Q241-429 204-388.50Q167-348 167-275L167 0L69 0L69-507L167-507Z"/><path id="s48:hind-medium:81" d="M73 0L73-707L172-707L172 0L73 0Z"/><path id="s48:hind-medium:76" d="M269-98Q321-98 359.50-138.50Q398-179 398-252Q398-342 361.50-385Q325-428 273-428Q214-428 180-381.50Q146-335 146-259Q146-180 182.50-139Q219-98 269-98M398-507L496-507L496-43Q496 74 429.50 133.50Q363 193 259 193Q161 193 94 160L94 61Q158 103 249 103Q398 103 398-44L398-96Q349-14 251-14Q165-14 104-77.50Q43-141 43-257Q43-369 100-441.50Q157-514 251-514Q352-514 398-428L398-507Z"/><path id="s48:hind-medium:88" d="M358-490L358-401Q309-430 232-430Q197-430 176.50-414Q156-398 156-372Q156-365 157.50-358.50Q159-352 163-345.50Q167-339 170.50-334.50Q174-330 182-325Q190-320 194.50-316.50Q199-313 209.50-308Q220-303 225-300.50Q230-298 242.50-292.50Q255-287 260-285Q319-259 352.50-226.50Q386-194 386-140Q386-72 338-33.50Q290 5 208 5Q118 5 58-25L58-118Q128-75 203-75Q242-75 263.50-91Q285-107 285-133Q285-155 268-172.50Q251-190 233.50-198.50Q216-207 174-225Q55-274 55-369Q55-436 105-474Q155-512 230-512Q312-512 358-490Z"/><path id="s48:hind-medium:82" d="M167-507L167-426Q210-514 310-514Q424-514 456-416Q477-463 517-488.50Q557-514 607-514Q685-514 725.50-468Q766-422 766-341L766 0L668 0L668-320Q668-429 580-429Q536-429 501.50-390Q467-351 467-275L467 0L369 0L369-320Q369-429 280-429Q237-429 202-390Q167-351 167-275L167 0L69 0L69-507L167-507Z"/><path id="s48:hind-medium:71" d="M308-79Q364-79 402-126.50Q440-174 440-249Q440-335 402-381.50Q364-428 305-428Q253-428 211.50-386Q170-344 170-257Q170-167 210-123Q250-79 308-79M170-707L170-430Q224-514 323-514Q419-514 480-442Q541-370 541-251Q541-144 483-68.50Q425 7 324 7Q223 7 170-77L170 0L71 0L71-707L170-707Z"/><path id="s48:hind-medium:75" d="M330-708L330-622Q307-632 282-632Q209-632 209-545L209-507L316-507L316-431L209-431L209 0L111 0L111-431L30-431L30-507L111-507L111-546Q111-625 153.50-670.50Q196-716 273-716Q301-716 330-708Z"/><path id="s48:hind-medium:89" d="M196-431L196-152Q196-79 266-79Q307-79 335-101L335-13Q302 5 254 5Q97 5 97-154L97-431L18-431L18-507L97-507L97-631L196-631L196-507L329-507L329-431L196-431Z"/><path id="s48:hind-medium:78" d="M73 0L73-507L172-507L172 0L73 0M78.50-618.50Q78.50-618.50 69.75-627.25Q61-636 61-662Q61-688 78.50-706Q96-724 122-724Q148-724 166-706Q184-688 184-662Q184-637 166-619Q148-601 122-601Q96-601 78.50-618.50Z"/><path id="s48:hind-medium:94" d="M209-11L7-507L116-507L179-342L258-128Q267-158 330-342L387-507L491-507L308-14Q235 181 85 181Q58 181 39 176L39 92Q55 96 73 96Q170 96 209-11Z"/><path id="s48:hind-medium:19" d="M48.50-12Q48.50-12 38.75-22Q29-32 29-60Q29-88 48.50-107.50Q68-127 97-127Q125-127 144.50-107.50Q164-88 164-60Q164-32 144.50-12Q125 8 97 8Q68 8 48.50-12Z"/><path id="s48:hind-medium:93" d="M300-257L469 0L358 0L247-186L130 0L22 0L195-258L33-508L144-508L250-329L359-508L469-508L300-257Z"/><path id="s48:hind-medium:72" d="M142-251Q144-174 189-124.50Q234-75 315-75Q375-75 427-108L427-20Q378 10 302 10Q183 10 112-65Q41-140 41-252Q41-361 112.50-438.50Q184-516 306-516Q372-516 427-488L427-398Q378-429 316-429Q237-429 189.50-379Q142-329 142-251Z"/><path id="s48:hind-medium:43" d="M455-588L176-588L176-367L421-367L421-281L176-281L176 0L73 0L73-674L455-674L455-588Z"/><path id="s48:hind-medium:17" d="M-8 124L88-110L209-110L78 124L-8 124Z"/></defs><g id="line-0"><use x="0" y="782" xlink:href="#s48:hind-medium:57"/><use x="500" y="782" xlink:href="#s48:hind-medium:77"/><use x="1051" y="782" xlink:href="#s48:hind-medium:74"/><use x="1576" y="782" xlink:href="#s48:hind-medium:5"/><use x="1822" y="782" xlink:href="#s48:hind-medium:42"/><use x="2336" y="782" xlink:href="#s48:hind-medium:90"/><use x="2887" y="782" xlink:href="#s48:hind-medium:87"/><use x="3226" y="782" xlink:href="#s48:hind-medium:84"/><use x="3790" y="782" xlink:href="#s48:hind-medium:85"/><use x="4370" y="782" xlink:href="#s48:hind-medium:74"/><use x="4895" y="782" xlink:href="#s48:hind-medium:70"/><use x="5394" y="782" xlink:href="#s48:hind-medium:83"/><use x="5945" y="782" xlink:href="#s48:hind-medium:5"/><use x="6191" y="782" xlink:href="#s48:hind-medium:81"/><use x="6436" y="782" xlink:href="#s48:hind-medium:70"/><use x="6935" y="782" xlink:href="#s48:hind-medium:83"/><use x="7486" y="782" xlink:href="#s48:hind-medium:76"/><use x="8045" y="782" xlink:href="#s48:hind-medium:90"/><use x="8596" y="782" xlink:href="#s48:hind-medium:70"/><use x="9095" y="782" xlink:href="#s48:hind-medium:76"/><use x="9654" y="782" xlink:href="#s48:hind-medium:74"/><use x="10179" y="782" xlink:href="#s48:hind-medium:88"/><use x="10598" y="782" xlink:href="#s48:hind-medium:5"/><use x="10844" y="782" xlink:href="#s48:hind-medium:70"/><use x="11343" y="782" xlink:href="#s48:hind-medium:87"/><use x="11682" y="782" xlink:href="#s48:hind-medium:74"/><use x="12207" y="782" xlink:href="#s48:hind-medium:5"/><use x="12453" y="782" xlink:href="#s48:hind-medium:82"/><use x="13283" y="782" xlink:href="#s48:hind-medium:74"/><use x="13808" y="782" xlink:href="#s48:hind-medium:82"/><use x="14638" y="782" xlink:href="#s48:hind-medium:71"/><use x="15220" y="782" xlink:href="#s48:hind-medium:74"/><use x="15745" y="782" xlink:href="#s48:hind-medium:87"/><use x="16084" y="782" xlink:href="#s48:hind-medium:88"/><use x="16503" y="782" xlink:href="#s48:hind-medium:5"/><use x="16749" y="782" xlink:href="#s48:hind-medium:84"/><use x="17313" y="782" xlink:href="#s48:hind-medium:75"/><use x="17647" y="782" xlink:href="#s48:hind-medium:5"/><use x="17893" y="782" xlink:href="#s48:hind-medium:89"/><use x="18267" y="782" xlink:href="#s48:hind-medium:77"/><use x="18818" y="782" xlink:href="#s48:hind-medium:74"/><use x="19343" y="782" xlink:href="#s48:hind-medium:5"/><use x="19589" y="782" xlink:href="#s48:hind-medium:88"/><use x="20008" y="782" xlink:href="#s48:hind-medium:70"/><use x="20507" y="782" xlink:href="#s48:hind-medium:82"/><use x="21337" y="782" xlink:href="#s48:hind-medium:74"/><use x="21862" y="782" xlink:href="#s48:hind-medium:5"/><use x="22108" y="782" xlink:href="#s48:hind-medium:75"/><use x="22442" y="782" xlink:href="#s48:hind-medium:70"/><use x="22941" y="782" xlink:href="#s48:hind-medium:82"/><use x="23771" y="782" xlink:href="#s48:hind-medium:78"/><use x="24016" y="782" xlink:href="#s48:hind-medium:81"/><use x="24261" y="782" xlink:href="#s48:hind-medium:94"/><use x="24765" y="782" xlink:href="#s48:hind-medium:19"/></g><g id="line-1"><use x="5033" y="1982" xlink:href="#s48:hind-medium:57"/><use x="5533" y="1982" xlink:href="#s48:hind-medium:77"/><use x="6084" y="1982" xlink:href="#s48:hind-medium:74"/><use x="6609" y="1982" xlink:href="#s48:hind-medium:78"/><use x="6854" y="1982" xlink:href="#s48:hind-medium:87"/><use x="7193" y="1982" xlink:href="#s48:hind-medium:5"/><use x="7439" y="1982" xlink:href="#s48:hind-medium:88"/><use x="7858" y="1982" xlink:href="#s48:hind-medium:74"/><use x="8383" y="1982" xlink:href="#s48:hind-medium:85"/><use x="8963" y="1982" xlink:href="#s48:hind-medium:70"/><use x="9462" y="1982" xlink:href="#s48:hind-medium:87"/><use x="9801" y="1982" xlink:href="#s48:hind-medium:70"/><use x="10300" y="1982" xlink:href="#s48:hind-medium:89"/><use x="10674" y="1982" xlink:href="#s48:hind-medium:74"/><use x="11199" y="1982" xlink:href="#s48:hind-medium:5"/><use x="11445" y="1982" xlink:href="#s48:hind-medium:74"/><use x="11970" y="1982" xlink:href="#s48:hind-medium:93"/><use x="12462" y="1982" xlink:href="#s48:hind-medium:78"/><use x="12707" y="1982" xlink:href="#s48:hind-medium:88"/><use x="13126" y="1982" xlink:href="#s48:hind-medium:89"/><use x="13500" y="1982" xlink:href="#s48:hind-medium:74"/><use x="14025" y="1982" xlink:href="#s48:hind-medium:83"/><use x="14576" y="1982" xlink:href="#s48:hind-medium:72"/><use x="15047" y="1982" xlink:href="#s48:hind-medium:74"/><use x="15572" y="1982" xlink:href="#s48:hind-medium:5"/><use x="15818" y="1982" xlink:href="#s48:hind-medium:78"/><use x="16063" y="1982" xlink:href="#s48:hind-medium:88"/><use x="16482" y="1982" xlink:href="#s48:hind-medium:5"/><use x="16728" y="1982" xlink:href="#s48:hind-medium:70"/><use x="17227" y="1982" xlink:href="#s48:hind-medium:5"/><use x="17473" y="1982" xlink:href="#s48:hind-medium:82"/><use x="18303" y="1982" xlink:href="#s48:hind-medium:94"/><use x="18807" y="1982" xlink:href="#s48:hind-medium:89"/><use x="19181" y="1982" xlink:href="#s48:hind-medium:77"/><use x="19732" y="1982" xlink:href="#s48:hind-medium:19"/></g><g id="line-2"><use x="6117.5" y="3182" xlink:href="#s48:hind-medium:43"/><use x="6611.5" y="3182" xlink:href="#s48:hind-medium:84"/><use x="7175.5" y="3182" xlink:href="#s48:hind-medium:87"/><use x="7514.5" y="3182" xlink:href="#s48:hind-medium:5"/><use x="7760.5" y="3182" xlink:href="#s48:hind-medium:88"/><use x="8179.5" y="3182" xlink:href="#s48:hind-medium:72"/><use x="8650.5" y="3182" xlink:href="#s48:hind-medium:78"/><use x="8895.5" y="3182" xlink:href="#s48:hind-medium:74"/><use x="9420.5" y="3182" xlink:href="#s48:hind-medium:83"/><use x="9971.5" y="3182" xlink:href="#s48:hind-medium:72"/><use x="10442.5" y="3182" xlink:href="#s48:hind-medium:74"/><use x="10967.5" y="3182" xlink:href="#s48:hind-medium:17"/><use x="11212.5" y="3182" xlink:href="#s48:hind-medium:5"/><use x="11458.5" y="3182" xlink:href="#s48:hind-medium:82"/><use x="12288.5" y="3182" xlink:href="#s48:hind-medium:90"/><use x="12839.5" y="3182" xlink:href="#s48:hind-medium:88"/><use x="13258.5" y="3182" xlink:href="#s48:hind-medium:78"/><use x="13503.5" y="3182" xlink:href="#s48:hind-medium:72"/><use x="13974.5" y="3182" xlink:href="#s48:hind-medium:17"/><use x="14219.5" y="3182" xlink:href="#s48:hind-medium:5"/><use x="14465.5" y="3182" xlink:href="#s48:hind-medium:88"/><use x="14884.5" y="3182" xlink:href="#s48:hind-medium:85"/><use x="15464.5" y="3182" xlink:href="#s48:hind-medium:84"/><use x="16028.5" y="3182" xlink:href="#s48:hind-medium:87"/><use x="16367.5" y="3182" xlink:href="#s48:hind-medium:89"/><use x="16741.5" y="3182" xlink:href="#s48:hind-medium:17"/><use x="16986.5" y="3182" xlink:href="#s48:hind-medium:5"/><use x="17232.5" y="3182" xlink:href="#s48:hind-medium:74"/><use x="17757.5" y="3182" xlink:href="#s48:hind-medium:89"/><use x="18131.5" y="3182" xlink:href="#s48:hind-medium:72"/><use x="18602.5" y="3182" xlink:href="#s48:hind-medium:17"/></g></svg>