<svg xmlns="http://www.w3.org/2000/svg" xmlns:xlink="http://www.w3.org/1999/xlink" width="643" height="80" viewBox="0 0 26795 3354"><defs><path id="s18:inconsolata-regular:182" d="M208 0L208-561L31-561L31-624L463-624L463-561L279-561L279 0L208 0Z"/><path id="s18:inconsolata-regular:311" d="M73-665L152-665L152-658Q146-652 144.50-645Q143-638 143-621L143-376Q170-418 210.50-443Q251-468 293-468Q358-468 395-422Q432-376 432-277L432 0L362 0L362-275Q362-343 339-374Q316-405 278-405Q246-405 215-387.50Q184-370 163.50-337.50Q143-305 143-263L143 0L73 0L73-665Z"/><path id="s18:inconsolata-regular:277" d="M272 10Q170 10 109.50-52Q49-114 49-227Q49-302 77-356.50Q105-411 152.50-439.50Q200-468 259-468Q342-468 393.50-413Q445-358 445-251Q445-240 443-218L118-218Q122-134 165-91Q208-48 274-48Q346-48 392-99L432-60Q374 10 272 10M372-274Q372-338 339.50-375.50Q307-413 254-413Q204-413 167-378Q130-343 121-274L372-274Z"/><path id="s18:inconsolata-regular:3" d=""/><path id="s18:inconsolata-regular:45" d="M59 0L59-624L441-624L441-562L125-562L125-357L386-357L386-293L125-293L125-62L438-62L438 0L59 0Z"/><path id="s18:inconsolata-regular:426" d="M221 11Q149 11 106-42.50Q63-96 64-202L65-457L135-457L135-202Q135-120 163.50-83.50Q192-47 239-47Q291-47 326.50-87.50Q362-128 362-205L362-457L432-457L432-71Q432-47 433.50-31.50Q435-16 442 0L373 0Q366-15 364.50-31Q363-47 363-70Q341-32 303.50-10.50Q266 11 221 11Z"/><path id="s18:inconsolata-regular:396" d="M426-362L426-361Q397-388 377.50-397Q358-406 332-406Q296-406 264-388Q232-370 212-333.50Q192-297 192-242L192 1L119 1L119-457L194-457L192-373Q211-418 250.50-443Q290-468 337-468Q410-468 458-418L426-362M426-361Q433-355 429.50-356Q426-357 424-358L426-361M415-358Q415-361 418-360.50Q421-360 424-358L422-353L415-357L415-358Z"/><path id="s18:inconsolata-regular:358" d="M250 8Q189 8 141-22Q93-52 66-106Q39-160 39-229Q39-298 66-352Q93-406 141-436.50Q189-467 250-467Q311-467 359-436.50Q407-406 434-352Q461-298 461-229Q461-160 434-106Q407-52 359-22Q311 8 250 8M250-52Q289-52 319.50-75Q350-98 367.50-138.50Q385-179 385-230Q385-308 347-357.50Q309-407 250-407Q191-407 153-357.50Q115-308 115-230Q115-179 132.50-138.50Q150-98 180.50-75Q211-52 250-52Z"/><path id="s18:inconsolata-regular:393" d="M60-457L133-457L133-367Q148-417 185-442Q222-467 272-467Q324-467 367.50-440.50Q411-414 437-361Q463-308 463-232Q463-155 436-99.50Q409-44 364.50-16Q320 12 270 12Q229 12 193-7Q157-26 134-60L134 167L60 167L60-457M258-52Q313-52 350.50-93.50Q388-135 388-229Q388-314 355-359.50Q322-405 261-405Q204-405 168.50-357.50Q133-310 133-213Q135-134 168-93Q201-52 258-52Z"/><path id="s18:inconsolata-regular:235" d="M244-467Q342-467 393.50-416Q445-365 445-243L445 0L367 0L367-70Q325 11 211 11Q135 11 92-23.50Q49-58 49-115Q49-163 80-199Q111-235 163.50-254.50Q216-274 279-274Q336-274 382-268Q376-345 341.50-376.50Q307-408 239-408Q205-408 173.50-395Q142-382 116-357L81-403Q145-467 244-467M218-44Q292-44 335-87.50Q378-131 382-213Q337-220 285-220Q209-220 165-195Q121-170 121-119Q121-44 218-44Z"/><path id="s18:inconsolata-regular:349" d="M72-457L142-457L142-376Q169-418 210-443Q251-468 297-468Q358-468 394.50-421.50Q431-375 431-277L431 0L361 0L361-275Q361-343 338-374Q315-405 277-405Q246-405 214.50-387Q183-369 162.50-336.50Q142-304 142-263L142 0L72 0L72-457Z"/><path id="s18:inconsolata-regular:338" d="M79 0L79-58L214-58L214-607L85-607L85-665L287-665L287-58L421-58L421 0L79 0Z"/><path id="s18:inconsolata-regular:304" d="M475-410Q466-411 449-411Q401-411 369-390Q386-356 386-315Q386-270 366.50-233.50Q347-197 310.50-176Q274-155 226-155Q188-155 155-169Q137-147 137-127Q137-103 167.50-92.50Q198-82 277-82Q374-82 409.50-52.50Q445-23 445 34Q445 93 397 132.50Q349 172 247 172Q149 172 93.50 142Q38 112 38 54Q38 18 58-8Q78-34 109-49Q76-71 76-110Q76-150 117-194Q92-216 79-247Q66-278 66-315Q66-359 85.50-395.50Q105-432 141.50-453Q178-474 226-474Q299-474 343-427Q367-449 392.50-459.50Q418-470 449-470L466-469L475-410M226-215Q269-215 297.50-244Q326-273 326-315Q326-357 297.50-386Q269-415 226-415Q183-415 154.50-386Q126-357 126-315Q126-273 154.50-244Q183-215 226-215M379 45Q379 21 370.50 7.50Q362-6 337-12.50Q312-19 262-19Q190-19 147-32Q123-16 113.50 1Q104 18 104 46Q104 80 142 99Q180 118 248 118Q314 118 346.50 98.50Q379 79 379 45Z"/><path id="s18:inconsolata-regular:406" d="M283-269Q369-243 404.50-212.50Q440-182 440-133Q440-71 391.50-30.50Q343 10 251 10Q135 10 57-62L97-130L98-131L99-130Q130-90 163-70Q196-50 253-50Q307-50 338-69.50Q369-89 369-123Q369-152 344-171Q319-190 254-211Q82-260 82-353Q82-406 125.50-437Q169-468 250-468Q312-468 354.50-450.50Q397-433 432-396L391-346L390-345Q369-377 330.50-395.50Q292-414 252-414Q209-414 181.50-399Q154-384 154-357Q154-332 182-311Q210-290 283-269M379-343Q379-348 387-342L384-338L379-343M390-345Q393-341 392.50-340Q392-339 390-340Q388-341 387-342L390-345M109-134Q109-130 100-134L103-139L109-135L109-134M98-131Q95-136 96-136Q97-136 100-134L98-131Z"/><path id="s18:inconsolata-regular:347" d="M38-457L104-457L104-412Q120-437 145-452.50Q170-468 197-468Q227-468 249.50-449Q272-430 278-401Q291-431 319-449.50Q347-468 381-468Q426-468 448.50-435.50Q471-403 469-351L469 0L403 0L403-324Q403-381 392-398Q381-415 360-415Q342-415 325-398Q308-381 297.50-354.50Q287-328 287-302L287 0L220 0L220-318Q220-374 209.50-393.50Q199-413 170-413Q155-413 139.50-399.50Q124-386 114-361.50Q104-337 104-305L104 0L38 0L38-457Z"/><path id="s18:inconsolata-regular:262" d="M266 11Q225 11 190-7.50Q155-26 131-60L106 0L60 0L60-665L142-665L142-658Q136-652 134.50-645Q133-638 133-621L133-387Q155-424 192.50-446Q230-468 269-468Q355-468 406-408Q457-348 457-233Q457-155 430-99.50Q403-44 359-16.50Q315 11 266 11M257-53Q311-53 347-95.50Q383-138 383-229Q383-317 349.50-361.50Q316-406 259-406Q203-406 168-356Q133-306 133-227Q133-53 257-53Z"/><path id="s18:inconsolata-regular:303" d="M435-555L434-554Q406-589 386.50-601Q367-613 332-613Q285-613 258-585Q231-557 231-495L231-457L381-457L381-400L231-400L231 0L162 0L162-400L63-400L63-457L162-457L162-495Q162-583 207.50-627Q253-671 330-671Q374-671 411.50-655Q449-639 473-608L435-555M423-552Q423-555 427-553Q431-551 432-551L429-547L423-551L423-552M434-554Q440-546 436.50-548.50Q433-551 432-551L434-554Z"/><path id="s18:inconsolata-regular:418" d="M444-42Q378 7 299 7Q223 7 191.50-39Q160-85 160-189Q160-206 162-248L171-398L70-398L70-457L175-457L182-579L262-592L272-593L273-587Q266-577 262.50-570Q259-563 258-548L247-457L399-457L399-398L243-398L234-243Q232-203 232-190Q232-110 250.50-81.50Q269-53 310-53Q340-53 365-64Q390-75 422-99L444-42Z"/><path id="s18:inconsolata-regular:316" d="M100 0L100-58L217-58L217-399L106-399L106-457L289-457L289-58L396-58L396 0L100 0M249-553Q228-553 213-568Q198-583 198-604Q198-626 212.50-641Q227-656 249-656Q270-656 285.50-640.50Q301-625 301-604Q301-583 285.50-568Q270-553 249-553Z"/><path id="s18:inconsolata-regular:456" d="M443-457Q437-416 424.50-376Q412-336 389-270L275 52Q252 116 215 145Q178 174 127 174Q63 174 22 135L53 86L54 85L55 86Q71 101 89 108Q107 115 131 115Q168 115 190 89Q212 63 233 3L46-457L121-457L263-91L323-275Q345-344 355.50-380.50Q366-417 371-457L443-457M65 82Q65 84 63 84L55 82L59 77L65 81L65 82M54 85Q49 80 51.50 81Q54 82 55 82L54 85Z"/><path id="s18:inconsolata-regular:554" d="M238 11Q214 11 197-6Q180-23 180-46Q180-69 197-86Q214-103 238-103Q261-103 278-86Q295-69 295-46Q295-23 278-6Q261 11 238 11Z"/><path id="s18:inconsolata-regular:455" d="M47 0L208-232L50-457L129-457L248-288L362-457L436-457L288-235L456 0L374 0L248-178L129 0L47 0Z"/><path id="s18:inconsolata-regular:264" d="M289-54Q358-54 408-110L450-61Q383 11 285 11Q219 11 167-20Q115-51 85.50-105.50Q56-160 56-228Q56-296 85.50-350Q115-404 167-435Q219-466 284-466Q339-466 384-443.50Q429-421 457-381L412-337L411-336Q382-374 351.50-389.50Q321-405 276-405Q237-405 203.50-383.50Q170-362 150-323Q130-284 130-233Q130-182 150.50-141Q171-100 207.50-77Q244-54 289-54M400-335Q400-341 409-334L405-330L400-335M411-336Q416-329 413.50-331Q411-333 409-334L411-336Z"/><path id="s18:inconsolata-regular:69" d="M78 0L78-624L437-624L437-563L148-563L148-367L381-367L381-306L148-306L148 0L78 0Z"/><path id="s18:inconsolata-regular:548" d="M165 138Q193 112 211.50 82Q230 52 230 33Q230 24 225 18Q220 12 207 0Q193-13 186-22Q179-31 179-44Q179-69 195.50-86Q212-103 238-103Q265-103 285.50-79.50Q306-56 306-20Q306 58 199 168L165 138Z"/></defs><g id="line-0"><use x="0" y="764" xlink:href="#s18:inconsolata-regular:182"/><use x="500" y="764" xlink:href="#s18:inconsolata-regular:311"/><use x="1000" y="764" xlink:href="#s18:inconsolata-regular:277"/><use x="1500" y="764" xlink:href="#s18:inconsolata-regular:3"/><use x="2000" y="764" xlink:href="#s18:inconsolata-regular:45"/><use x="2500" y="764" xlink:href="#s18:inconsolata-regular:426"/><use x="3000" y="764" xlink:href="#s18:inconsolata-regular:396"/><use x="3500" y="764" xlink:href="#s18:inconsolata-regular:358"/><use x="4000" y="764" xlink:href="#s18:inconsolata-regular:393"/><use x="4500" y="764" xlink:href="#s18:inconsolata-regular:277"/><use x="5000" y="764" xlink:href="#s18:inconsolata-regular:235"/><use x="5500" y="764" xlink:href="#s18:inconsolata-regular:349"/><use x="6000" y="764" xlink:href="#s18:inconsolata-regular:3"/><use x="6500" y="764" xlink:href="#s18:inconsolata-regular:338"/><use x="7000" y="764" xlink:href="#s18:inconsolata-regular:235"/><use x="7500" y="764" xlink:href="#s18:inconsolata-regular:349"/><use x="8000" y="764" xlink:href="#s18:inconsolata-regular:304"/><use x="8500" y="764" xlink:href="#s18:inconsolata-regular:426"/><use x="9000" y="764" xlink:href="#s18:inconsolata-regular:235"/><use x="9500" y="764" xlink:href="#s18:inconsolata-regular:304"/><use x="10000" y="764" xlink:href="#s18:inconsolata-regular:277"/><use x="10500" y="764" xlink:href="#s18:inconsolata-regular:406"/><use x="11000" y="764" xlink:href="#s18:inconsolata-regular:3"/><use x="11500" y="764" xlink:href="#s18:inconsolata-regular:235"/><use x="12000" y="764" xlink:href="#s18:inconsolata-regular:396"/><use x="12500" y="764" xlink:href="#s18:inconsolata-regular:277"/><use x="13000" y="764" xlink:href="#s18:inconsolata-regular:3"/><use x="13500" y="764" xlink:href="#s18:inconsolata-regular:347"/><use x="14000" y="764" xlink:href="#s18:inconsolata-regular:277"/><use x="14500" y="764" xlink:href="#s18:inconsolata-regular:347"/><use x="15000" y="764" xlink:href="#s18:inconsolata-regular:262"/><use x="15500" y="764" xlink:href="#s18:inconsolata-regular:277"/><use x="16000" y="764" xlink:href="#s18:inconsolata-regular:396"/><use x="16500" y="764" xlink:href="#s18:inconsolata-regular:406"/><use x="17000" y="764" xlink:href="#s18:inconsolata-regular:3"/><use x="17500" y="764" xlink:href="#s18:inconsolata-regular:358"/><use x="18000" y="764" xlink:href="#s18:inconsolata-regular:303"/><use x="18500" y="764" xlink:href="#s18:inconsolata-regular:3"/><use x="19000" y="764" xlink:href="#s18:inconsolata-regular:418"/><use x="19500" y="764" xlink:href="#s18:inconsolata-regular:311"/><use x="20000" y="764" xlink:href="#s18:inconsolata-regular:277"/><use x="20500" y="764" xlink:href="#s18:inconsolata-regular:3"/><use x="21000" y="764" xlink:href="#s18:inconsolata-regular:406"/><use x="21500" y="764" xlink:href="#s18:inconsolata-regular:235"/><use x="22000" y="764" xlink:href="#s18:inconsolata-regular:347"/><use x="22500" y="764" xlink:href="#s18:inconsolata-regular:277"/><use x="23000" y="764" xlink:href="#s18:inconsolata-regular:3"/><use x="23500" y="764" xlink:href="#s18:inconsolata-regular:303"/><use x="24000" y="764" xlink:href="#s18:inconsolata-regular:235"/><use x="24500" y="764" xlink:href="#s18:inconsolata-regular:347"/><use x="25000" y="764" xlink:href="#s18:inconsolata-regular:316"/><use x="25500" y="764" xlink:href="#s18:inconsolata-regular:338"/><use x="26000" y="764" xlink:href="#s18:inconsolata-regular:456"/><use x="26500" y="764" xlink:href="#s18:inconsolata-regular:554"/></g><g id="line-1"><use x="4750" y="1964" xlink:href="#s18:inconsolata-regular:182"/><use x="5250" y="1964" xlink:href="#s18:inconsolata-regular:311"/><use x="5750" y="1964" xlink:href="#s18:inconsolata-regular:277"/><use x="6250" y="1964" xlink:href="#s18:inconsolata-regular:316"/><use x="6750" y="1964" xlink:href="#s18:inconsolata-regular:396"/><use x="7250" y="1964" xlink:href="#s18:inconsolata-regular:3"/><use x="7750" y="1964" xlink:href="#s18:inconsolata-regular:406"/><use x="8250" y="1964" xlink:href="#s18:inconsolata-regular:277"/><use x="8750" y="1964" xlink:href="#s18:inconsolata-regular:393"/><use x="9250" y="1964" xlink:href="#s18:inconsolata-regular:235"/><use x="9750" y="1964" xlink:href="#s18:inconsolata-regular:396"/><use x="10250" y="1964" xlink:href="#s18:inconsolata-regular:235"/><use x="10750" y="1964" xlink:href="#s18:inconsolata-regular:418"/><use x="11250" y="1964" xlink:href="#s18:inconsolata-regular:277"/><use x="11750" y="1964" xlink:href="#s18:inconsolata-regular:3"/><use x="12250" y="1964" xlink:href="#s18:inconsolata-regular:277"/><use x="12750" y="1964" xlink:href="#s18:inconsolata-regular:455"/><use x="13250" y="1964" xlink:href="#s18:inconsolata-regular:316"/><use x="13750" y="1964" xlink:href="#s18:inconsolata-regular:406"/><use x="14250" y="1964" xlink:href="#s18:inconsolata-regular:418"/><use x="14750" y="1964" xlink:href="#s18:inconsolata-regular:277"/><use x="15250" y="1964" xlink:href="#s18:inconsolata-regular:349"/><use x="15750" y="1964" xlink:href="#s18:inconsolata-regular:264"/><use x="16250" y="1964" xlink:href="#s18:inconsolata-regular:277"/><use x="16750" y="1964" xlink:href="#s18:inconsolata-regular:3"/><use x="17250" y="1964" xlink:href="#s18:inconsolata-regular:316"/><use x="17750" y="1964" xlink:href="#s18:inconsolata-regular:406"/><use x="18250" y="1964" xlink:href="#s18:inconsolata-regular:3"/><use x="18750" y="1964" xlink:href="#s18:inconsolata-regular:235"/><use x="19250" y="1964" xlink:href="#s18:inconsolata-regular:3"/><use x="19750" y="1964" xlink:href="#s18:inconsolata-regular:347"/><use x="20250" y="1964" xlink:href="#s18:inconsolata-regular:456"/><use x="20750" y="1964" xlink:href="#s18:inconsolata-regular:418"/><use x="21250" y="1964" xlink:href="#s18:inconsolata-regular:311"/><use x="21750" y="1964" xlink:href="#s18:inconsolata-regular:554"/></g><g id="line-2"><use x="5744.5" y="3164" xlink:href="#s18:inconsolata-regular:69"/><use x="6244.5" y="3164" xlink:href="#s18:inconsolata-regular:358"/><use x="6744.5" y="3164" xlink:href="#s18:inconsolata-regular:396"/><use x="7244.5" y="3164" xlink:href="#s18:inconsolata-regular:3"/><use x="7744.5" y="3164" xlink:href="#s18:inconsolata-regular:406"/><use x="8244.5" y="3164" xlink:href="#s18:inconsolata-regular:264"/><use x="8744.5" y="3164" xlink:href="#s18:inconsolata-regular:316"/><use x="9244.5" y="3164" xlink:href="#s18:inconsolata-regular:277"/><use x="9744.5" y="3164" xlink:href="#s18:inconsolata-regular:349"/><use x="10244.5" y="3164" xlink:href="#s18:inconsolata-regular:264"/><use x="10744.5" y="3164" xlink:href="#s18:inconsolata-regular:277"/><use x="11244.5" y="3164" xlink:href="#s18:inconsolata-regular:548"/><use x="11744.5" y="3164" xlink:href="#s18:inconsolata-regular:3"/><use x="12244.5" y="3164" xlink:href="#s18:inconsolata-regular:347"/><use x="12744.5" y="3164" xlink:href="#s18:inconsolata-regular:426"/><use x="13244.5" y="3164" xlink:href="#s18:inconsolata-regular:406"/><use x="13744.5" y="3164" xlink:href="#s18:inconsolata-regular:316"/><use x="14244.5" y="3164" xlink:href="#s18:inconsolata-regular:264"/><use x="14744.5" y="3164" xlink:href="#s18:inconsolata-regular:548"/><use x="15244.5" y="3164" xlink:href="#s18:inconsolata-regular:3"/><use x="15744.5" y="3164" xlink:href="#s18:inconsolata-regular:406"/><use x="16244.5" y="3164" xlink:href="#s18:inconsolata-regular:393"/><use x="16744.5" y="3164" xlink:href="#s18:inconsolata-regular:358"/><use x="17244.5" y="3164" xlink:href="#s18:inconsolata-regular:396"/><use x="17744.5" y="3164" xlink:href="#s18:inconsolata-regular:418"/><use x="18244.5" y="3164" xlink:href="#s18:inconsolata-regular:548"/><use x="18744.5" y="3164" xlink:href="#s18:inconsolata-regular:3"/><use x="19244.5" y="3164" xlink:href="#s18:inconsolata-regular:277"/><use x="19744.5" y="3164" xlink:href="#s18:inconsolata-regular:418"/><use x="20244.5" y="3164" xlink:href="#s18:inconsolata-regular:264"/><use x="20744.5" y="3164" xlink:href="#s18:inconsolata-regular:548"/></g></svg>