<svg xmlns="http://www.w3.org/2000/svg" xmlns:xlink="http://www.w3.org/1999/xlink" width="643" height="80" viewBox="0 0 54901 6868.7"><defs><path id="s51:inconsolata-bold:182" d="M387 0L387-1077L41-1077L41-1276L981-1276L981-1077L621-1077L621 0L387 0Z"/><path id="s51:inconsolata-bold:311" d="M123-1382L370-1382L370-1359Q359-1347 356-1332.50Q353-1318 354-1284L354-858Q404-913 470.50-945Q537-977 604-977Q758-977 843-881.50Q928-786 928-580L928 0L696 0L696-578Q696-684 659.50-736Q623-788 559-788Q502-788 455-758Q408-728 381-674.50Q354-621 354-553L354 0L123 0L123-1382Z"/><path id="s51:inconsolata-bold:277" d="M553 33Q415 33 307-27Q199-87 137.50-199.50Q76-312 76-465Q76-620 134-736Q192-852 295-914.50Q398-977 528-977Q643-977 735.50-923.50Q828-870 882-764.50Q936-659 936-510Q936-486 932-442L930-414L303-414Q318-283 385-216.50Q452-150 545-150Q611-150 678-180.50Q745-211 788-266L915-139Q770 33 553 33M707-582Q707-642 683.50-693Q660-744 616.50-774.50Q573-805 516-805Q432-805 377-744.50Q322-684 311-582L707-582Z"/><path id="s51:inconsolata-bold:3" d=""/><path id="s51:inconsolata-bold:45" d="M115 0L115-1276L946-1276L946-1079L338-1079L338-764L842-764L842-563L338-563L338-197L942-197L942 0L115 0Z"/><path id="s51:inconsolata-bold:426" d="M422 41Q267 41 185.50-54.50Q104-150 104-358L104-956L330-956L330-358Q330-251 366.50-199Q403-147 467-147Q524-147 571-177Q618-207 645-261Q672-315 672-383L672-956L903-956L903-156Q903-95 906.50-63Q910-31 924 0L700 0Q687-25 683.50-49.50Q680-74 680-111Q640-42 566-0.50Q492 41 422 41Z"/><path id="s51:inconsolata-bold:396" d="M858-666L857-667Q819-729 775-755.50Q731-782 672-782Q599-782 540-747.50Q481-713 447.50-649Q414-585 414-500L414 0L182 0L182-956L418-956L418-819Q456-893 529.50-935Q603-977 694-977Q765-977 835.50-950.50Q906-924 961-872L858-666M829-665Q829-666 830-666Q833-666 840.50-661.50Q848-657 852-655L851-652L830-662L829-665M858-666Q864-656 864-652Q864-651 862-651Q859-651 852-655L858-666Z"/><path id="s51:inconsolata-bold:358" d="M514 33Q387 33 283-32Q179-97 119-213Q59-329 59-477Q59-616 120-730.50Q181-845 285.50-911Q390-977 514-977Q638-977 742.50-911Q847-845 908-730.50Q969-616 969-477Q969-329 909-213Q849-97 745-32Q641 33 514 33M514-152Q582-152 632.50-192.50Q683-233 710-306.50Q737-380 737-477Q737-575 710-646Q683-717 632.50-755Q582-793 514-793Q449-793 399.50-755Q350-717 322.50-645.50Q295-574 295-477Q295-379 321.50-305.50Q348-232 397-192Q446-152 514-152Z"/><path id="s51:inconsolata-bold:393" d="M111-956L332-956L332-838Q376-911 437.50-944Q499-977 578-977Q684-977 772.50-919Q861-861 914-747Q967-633 967-473Q967-310 913-196.50Q859-83 771-26Q683 31 580 31Q504 31 442.50-1.50Q381-34 342-104L342 342L113 342L111-956M528-158Q587-158 634-193Q681-228 709-301.50Q737-375 737-485Q737-622 690.50-705Q644-788 543-788Q438-788 390-700.50Q342-613 342-465Q342-310 392-234Q442-158 528-158Z"/><path id="s51:inconsolata-bold:235" d="M489-987Q678-987 791.50-893Q905-799 905-582L905 0L686 0L686-86Q631-34 553.50-4.50Q476 25 387 25Q238 25 160-48.50Q82-122 82-248Q82-350 146.50-422Q211-494 332.50-531.50Q454-569 623-569L693-569Q683-694 632-747.50Q581-801 477-801Q411-801 340-766.50Q269-732 209-670L92-821Q182-903 285.50-945Q389-987 489-987M461-150Q563-150 622-214Q681-278 693-416L647-416Q471-416 390-378Q309-340 309-258Q309-202 349.50-176Q390-150 461-150Z"/><path id="s51:inconsolata-bold:349" d="M123-956L354-956L354-858Q405-914 475-945.50Q545-977 627-977Q763-977 844.50-880.50Q926-784 926-580L926 0L696 0L696-578Q696-686 656.50-737Q617-788 539-788Q490-788 447.50-768.50Q405-749 379.50-710Q354-671 354-614L354 0L123 0L123-956Z"/><path id="s51:inconsolata-bold:338" d="M137 0L137-178L399-178L399-1204L150-1204L150-1382L631-1382L631-178L891-178L891 0L137 0Z"/><path id="s51:inconsolata-bold:304" d="M618-209Q928-209 928 37Q928 124 878.50 196Q829 268 727.50 311Q626 354 477 354Q292 354 199 292Q106 230 106 119Q106 62 134.50 11Q163-40 217-74Q129-124 129-221Q129-277 158-319.50Q187-362 240-398Q186-446 155.50-512Q125-578 125-651Q125-744 172.50-822.50Q220-901 300-947Q380-993 475-993Q536-993 591.50-973.50Q647-954 693-918Q744-947 807.50-963.50Q871-980 937-980Q958-980 969-979L993-805Q946-816 892-816Q831-816 789-803Q825-731 825-651Q825-559 778-480Q731-401 650.50-355Q570-309 475-309Q402-309 333-339Q321-325 316-313Q311-301 311-285Q311-248 380.50-228.50Q450-209 618-209M475-807Q436-807 402.50-786Q369-765 349.50-729Q330-693 330-651Q330-609 349.50-573.50Q369-538 402.50-517Q436-496 475-496Q515-496 548.50-516.50Q582-537 601.50-573Q621-609 621-651Q621-693 601.50-729Q582-765 548.50-786Q515-807 475-807M508 184Q606 184 661.50 152Q717 120 717 66Q717 35 703 16.50Q689-2 654-11Q619-20 555-20Q419-20 340-34Q314-10 302.50 13.50Q291 37 291 70Q291 128 348.50 156Q406 184 508 184Z"/><path id="s51:inconsolata-bold:406" d="M606-571Q724-535 791-498.50Q858-462 889-411Q920-360 920-283Q920-200 870.50-127.50Q821-55 735-11Q649 33 543 33Q399 33 292-5.50Q185-44 96-129L192-297L193-299L195-297Q265-221 346.50-186.50Q428-152 545-152Q709-152 709-260Q709-293 689-317Q669-341 625-361Q581-381 504-403Q339-446 247.50-511.50Q156-577 156-692Q156-775 200.50-839.50Q245-904 328.50-940.50Q412-977 524-977Q636-977 728.50-940.50Q821-904 899-829L783-668L782-666Q781-666 781-666.50Q781-667 781-667Q739-727 672.50-760Q606-793 528-793Q467-793 426-772Q385-751 385-715Q385-682 407.50-658.50Q430-635 475.50-616Q521-597 606-571M754-668Q754-670 756-670Q759-670 766.50-665Q774-660 777-658L773-653L754-666L754-668M782-666Q789-655 789-652Q789-651 784.50-653.50Q780-656 777-658L782-666M222-298Q222-296 220-296Q217-296 209.50-300Q202-304 197-306L201-313L221-301L222-298M193-299Q185-307 185-310Q185-310 185-310.50Q185-311 186-311L197-306L193-299Z"/><path id="s51:inconsolata-bold:347" d="M66-967L262-967L262-907Q296-952 339.50-974.50Q383-997 430-997Q479-997 523-970Q567-943 594-883Q631-941 676-969Q721-997 788-997Q894-997 936.50-926.50Q979-856 979-707L979 0L766 0L766-668Q766-748 752-782.50Q738-817 705-817Q627-817 627-629L627 0L416 0L416-657Q416-749 399.50-783Q383-817 356-817Q315-817 293.50-776.50Q272-736 272-635L272 0L66 0L66-967Z"/><path id="s51:inconsolata-bold:262" d="M545 31Q472 31 406-1Q340-33 293-92L262 0L102 0L102-1382L348-1382L348-1359Q337-1347 334-1332.50Q331-1318 332-1284L332-874Q376-923 434.50-950Q493-977 553-977Q663-977 755-922.50Q847-868 901.50-760Q956-652 956-498Q956-330 897.50-210Q839-90 744.50-29.50Q650 31 545 31M516-160Q567-160 614.50-191Q662-222 693.50-291Q725-360 725-467Q725-613 671-702Q617-791 510-791Q408-791 369-709.50Q330-628 330-489Q330-317 378-238.50Q426-160 516-160Z"/><path id="s51:inconsolata-bold:303" d="M904-1120L903-1118L902-1119Q839-1176 796-1196.50Q753-1217 698-1217Q604-1217 556-1161Q508-1105 508-995L508-956L801-956L801-774L508-774L508 0L285 0L285-774L78-774L78-956L285-956L285-993Q285-1121 338-1212.50Q391-1304 481-1351.50Q571-1399 680-1399Q864-1399 997-1266L904-1120M875-1119Q875-1122 878-1122Q881-1122 899-1113L894-1104L875-1117L875-1119M903-1118Q914-1108 914-1106Q914-1106 899-1113L903-1118Z"/><path id="s51:inconsolata-bold:418" d="M932-86Q857-30 776.50-0.50Q696 29 602 29Q453 29 374-59Q295-147 295-362Q295-417 301-483L318-770L111-770L115-956L329-956L342-1180L594-1222L598-1199Q596-1196 588-1184.50Q580-1173 575-1157.50Q570-1142 569-1121L554-956L848-956L844-770L550-770L528-498Q523-428 523-386Q523-259 554-208.50Q585-158 651-158Q713-158 766-182Q819-206 883-262L932-86Z"/><path id="s51:inconsolata-bold:316" d="M182 0L182-184L412-184L412-772L193-772L193-956L641-956L641-184L850-184L850 0L182 0M512-1122Q473-1122 440-1140.50Q407-1159 388-1190Q369-1221 369-1257Q369-1316 409-1354.50Q449-1393 512-1393Q549-1393 582.50-1374.50Q616-1356 636-1324.50Q656-1293 656-1257Q656-1221 636-1190Q616-1159 582.50-1140.50Q549-1122 512-1122Z"/><path id="s51:inconsolata-bold:456" d="M930-956Q927-874 904-789.50Q881-705 838-588L600 68Q542 227 458.50 294.50Q375 362 256 362Q189 362 135.50 339.50Q82 317 20 268L95 104L96 102Q97 102 99 104Q100 105 119 121Q160 153 188.50 169.50Q217 186 250 186Q300 186 344 136Q388 86 425-4L63-956L287-956L527-285L651-627Q681-720 696.50-790Q712-860 712-928Q712-947 711-956L930-956M125 100Q125 103 121 103Q118 103 99 96L103 87L124 97L125 100M96 102Q87 95 87 93Q87 92 99 96L96 102Z"/><path id="s51:inconsolata-bold:554" d="M492 27Q454 27 421.50 8.50Q389-10 370.50-42.50Q352-75 352-113Q352-150 370.50-181.50Q389-213 421.50-231.50Q454-250 492-250Q529-250 560.50-231.50Q592-213 610.50-181.50Q629-150 629-113Q629-75 610.50-42.50Q592-10 560.50 8.50Q529 27 492 27Z"/><path id="s51:inconsolata-bold:455" d="M51 0L381-485L55-956L313-956L508-647L694-956L942-956L637-492L981 0L719 0L510-324L313 0L51 0Z"/><path id="s51:inconsolata-bold:264" d="M561-164Q626-164 688.50-194Q751-224 805-291L938-137Q861-50 764.50-8.50Q668 33 561 33Q421 33 311-32Q201-97 139.50-211.50Q78-326 78-469Q78-611 139.50-727Q201-843 311.50-910Q422-977 563-977Q681-977 784-929Q887-881 946-793L818-643L817-641Q816-641 816-641.50Q816-642 816-642Q774-715 714-750.50Q654-786 563-786Q493-786 435.50-746Q378-706 344.50-633Q311-560 311-465Q311-374 342.50-306Q374-238 431-201Q488-164 561-164M789-645Q789-648 791-648Q797-648 811-634L807-629L789-644L789-645M817-641Q823-629 823-627Q823-626 822-626Q819-626 811-634L817-641Z"/><path id="s51:inconsolata-bold:69" d="M139 0L139-1276L932-1276L932-1081L369-1081L369-782L823-782L823-590L369-590L369 0L139 0Z"/><path id="s51:inconsolata-bold:548" d="M305 242Q362 188 400 130.50Q438 73 438 41Q438 32 429.50 22Q421 12 403-5Q374-32 357-55Q340-78 340-106Q340-146 359-179Q378-212 413.50-231Q449-250 494-250Q537-250 576-225.50Q615-201 638.50-158Q662-115 662-61Q662 20 602 120.50Q542 221 420 346L305 242Z"/></defs><g id="line-0"><use x="0" y="1564.5" xlink:href="#s51:inconsolata-bold:182"/><use x="1024" y="1564.5" xlink:href="#s51:inconsolata-bold:311"/><use x="2048" y="1564.5" xlink:href="#s51:inconsolata-bold:277"/><use x="3072" y="1564.5" xlink:href="#s51:inconsolata-bold:3"/><use x="4096" y="1564.5" xlink:href="#s51:inconsolata-bold:45"/><use x="5120" y="1564.5" xlink:href="#s51:inconsolata-bold:426"/><use x="6144" y="1564.5" xlink:href="#s51:inconsolata-bold:396"/><use x="7168" y="1564.5" xlink:href="#s51:inconsolata-bold:358"/><use x="8192" y="1564.5" xlink:href="#s51:inconsolata-bold:393"/><use x="9216" y="1564.5" xlink:href="#s51:inconsolata-bold:277"/><use x="10240" y="1564.5" xlink:href="#s51:inconsolata-bold:235"/><use x="11264" y="1564.5" xlink:href="#s51:inconsolata-bold:349"/><use x="12288" y="1564.5" xlink:href="#s51:inconsolata-bold:3"/><use x="13312" y="1564.5" xlink:href="#s51:inconsolata-bold:338"/><use x="14336" y="1564.5" xlink:href="#s51:inconsolata-bold:235"/><use x="15360" y="1564.5" xlink:href="#s51:inconsolata-bold:349"/><use x="16384" y="1564.5" xlink:href="#s51:inconsolata-bold:304"/><use x="17408" y="1564.5" xlink:href="#s51:inconsolata-bold:426"/><use x="18432" y="1564.5" xlink:href="#s51:inconsolata-bold:235"/><use x="19456" y="1564.5" xlink:href="#s51:inconsolata-bold:304"/><use x="20480" y="1564.5" xlink:href="#s51:inconsolata-bold:277"/><use x="21504" y="1564.5" xlink:href="#s51:inconsolata-bold:406"/><use x="22528" y="1564.5" xlink:href="#s51:inconsolata-bold:3"/><use x="23552" y="1564.5" xlink:href="#s51:inconsolata-bold:235"/><use x="24576" y="1564.5" xlink:href="#s51:inconsolata-bold:396"/><use x="25600" y="1564.5" xlink:href="#s51:inconsolata-bold:277"/><use x="26624" y="1564.5" xlink:href="#s51:inconsolata-bold:3"/><use x="27648" y="1564.5" xlink:href="#s51:inconsolata-bold:347"/><use x="28672" y="1564.5" xlink:href="#s51:inconsolata-bold:277"/><use x="29696" y="1564.5" xlink:href="#s51:inconsolata-bold:347"/><use x="30720" y="1564.5" xlink:href="#s51:inconsolata-bold:262"/><use x="31744" y="1564.5" xlink:href="#s51:inconsolata-bold:277"/><use x="32768" y="1564.5" xlink:href="#s51:inconsolata-bold:396"/><use x="33792" y="1564.5" xlink:href="#s51:inconsolata-bold:406"/><use x="34816" y="1564.5" xlink:href="#s51:inconsolata-bold:3"/><use x="35840" y="1564.5" xlink:href="#s51:inconsolata-bold:358"/><use x="36864" y="1564.5" xlink:href="#s51:inconsolata-bold:303"/><use x="37888" y="1564.5" xlink:href="#s51:inconsolata-bold:3"/><use x="38912" y="1564.5" xlink:href="#s51:inconsolata-bold:418"/><use x="39936" y="1564.5" xlink:href="#s51:inconsolata-bold:311"/><use x="40960" y="1564.5" xlink:href="#s51:inconsolata-bold:277"/><use x="41984" y="1564.5" xlink:href="#s51:inconsolata-bold:3"/><use x="43008" y="1564.5" xlink:href="#s51:inconsolata-bold:406"/><use x="44032" y="1564.5" xlink:href="#s51:inconsolata-bold:235"/><use x="45056" y="1564.5" xlink:href="#s51:inconsolata-bold:347"/><use x="46080" y="1564.5" xlink:href="#s51:inconsolata-bold:277"/><use x="47104" y="1564.5" xlink:href="#s51:inconsolata-bold:3"/><use x="48128" y="1564.5" xlink:href="#s51:inconsolata-bold:303"/><use x="49152" y="1564.5" xlink:href="#s51:inconsolata-bold:235"/><use x="50176" y="1564.5" xlink:href="#s51:inconsolata-bold:347"/><use x="51200" y="1564.5" xlink:href="#s51:inconsolata-bold:316"/><use x="52224" y="1564.5" xlink:href="#s51:inconsolata-bold:338"/><use x="53248" y="1564.5" xlink:href="#s51:inconsolata-bold:456"/><use x="54272" y="1564.5" xlink:href="#s51:inconsolata-bold:554"/></g><g id="line-1"><use x="9728" y="4022.1" xlink:href="#s51:inconsolata-bold:182"/><use x="10752" y="4022.1" xlink:href="#s51:inconsolata-bold:311"/><use x="11776" y="4022.1" xlink:href="#s51:inconsolata-bold:277"/><use x="12800" y="4022.1" xlink:href="#s51:inconsolata-bold:316"/><use x="13824" y="4022.1" xlink:href="#s51:inconsolata-bold:396"/><use x="14848" y="4022.1" xlink:href="#s51:inconsolata-bold:3"/><use x="15872" y="4022.1" xlink:href="#s51:inconsolata-bold:406"/><use x="16896" y="4022.1" xlink:href="#s51:inconsolata-bold:277"/><use x="17920" y="4022.1" xlink:href="#s51:inconsolata-bold:393"/><use x="18944" y="4022.1" xlink:href="#s51:inconsolata-bold:235"/><use x="19968" y="4022.1" xlink:href="#s51:inconsolata-bold:396"/><use x="20992" y="4022.1" xlink:href="#s51:inconsolata-bold:235"/><use x="22016" y="4022.1" xlink:href="#s51:inconsolata-bold:418"/><use x="23040" y="4022.1" xlink:href="#s51:inconsolata-bold:277"/><use x="24064" y="4022.1" xlink:href="#s51:inconsolata-bold:3"/><use x="25088" y="4022.1" xlink:href="#s51:inconsolata-bold:277"/><use x="26112" y="4022.1" xlink:href="#s51:inconsolata-bold:455"/><use x="27136" y="4022.1" xlink:href="#s51:inconsolata-bold:316"/><use x="28160" y="4022.1" xlink:href="#s51:inconsolata-bold:406"/><use x="29184" y="4022.1" xlink:href="#s51:inconsolata-bold:418"/><use x="30208" y="4022.1" xlink:href="#s51:inconsolata-bold:277"/><use x="31232" y="4022.1" xlink:href="#s51:inconsolata-bold:349"/><use x="32256" y="4022.1" xlink:href="#s51:inconsolata-bold:264"/><use x="33280" y="4022.1" xlink:href="#s51:inconsolata-bold:277"/><use x="34304" y="4022.1" xlink:href="#s51:inconsolata-bold:3"/><use x="35328" y="4022.1" xlink:href="#s51:inconsolata-bold:316"/><use x="36352" y="4022.1" xlink:href="#s51:inconsolata-bold:406"/><use x="37376" y="4022.1" xlink:href="#s51:inconsolata-bold:3"/><use x="38400" y="4022.1" xlink:href="#s51:inconsolata-bold:235"/><use x="39424" y="4022.1" xlink:href="#s51:inconsolata-bold:3"/><use x="40448" y="4022.1" xlink:href="#s51:inconsolata-bold:347"/><use x="41472" y="4022.1" xlink:href="#s51:inconsolata-bold:456"/><use x="42496" y="4022.1" xlink:href="#s51:inconsolata-bold:418"/><use x="43520" y="4022.1" xlink:href="#s51:inconsolata-bold:311"/><use x="44544" y="4022.1" xlink:href="#s51:inconsolata-bold:554"/></g><g id="line-2"><use x="11759.5" y="6479.7" xlink:href="#s51:inconsolata-bold:69"/><use x="12783.5" y="6479.7" xlink:href="#s51:inconsolata-bold:358"/><use x="13807.5" y="6479.7" xlink:href="#s51:inconsolata-bold:396"/><use x="14831.5" y="6479.7" xlink:href="#s51:inconsolata-bold:3"/><use x="15855.5" y="6479.7" xlink:href="#s51:inconsolata-bold:406"/><use x="16879.5" y="6479.7" xlink:href="#s51:inconsolata-bold:264"/><use x="17903.5" y="6479.7" xlink:href="#s51:inconsolata-bold:316"/><use x="18927.5" y="6479.7" xlink:href="#s51:inconsolata-bold:277"/><use x="19951.5" y="6479.7" xlink:href="#s51:inconsolata-bold:349"/><use x="20975.5" y="6479.7" xlink:href="#s51:inconsolata-bold:264"/><use x="21999.5" y="6479.7" xlink:href="#s51:inconsolata-bold:277"/><use x="23023.5" y="6479.7" xlink:href="#s51:inconsolata-bold:548"/><use x="24047.5" y="6479.7" xlink:href="#s51:inconsolata-bold:3"/><use x="25071.5" y="6479.7" xlink:href="#s51:inconsolata-bold:347"/><use x="26095.5" y="6479.7" xlink:href="#s51:inconsolata-bold:426"/><use x="27119.5" y="6479.7" xlink:href="#s51:inconsolata-bold:406"/><use x="28143.5" y="6479.7" xlink:href="#s51:inconsolata-bold:316"/><use x="29167.5" y="6479.7" xlink:href="#s51:inconsolata-bold:264"/><use x="30191.5" y="6479.7" xlink:href="#s51:inconsolata-bold:548"/><use x="31215.5" y="6479.7" xlink:href="#s51:inconsolata-bold:3"/><use x="32239.5" y="6479.7" xlink:href="#s51:inconsolata-bold:406"/><use x="33263.5" y="6479.7" xlink:href="#s51:inconsolata-bold:393"/><use x="34287.5" y="6479.7" xlink:href="#s51:inconsolata-bold:358"/><use x="35311.5" y="6479.7" xlink:href="#s51:inconsolata-bold:396"/><use x="36335.5" y="6479.7" xlink:href="#s51:inconsolata-bold:418"/><use x="37359.5" y="6479.7" xlink:href="#s51:inconsolata-bold:548"/><use x="38383.5" y="6479.7" xlink:href="#s51:inconsolata-bold:3"/><use x="39407.5" y="6479.7" xlink:href="#s51:inconsolata-bold:277"/><use x="40431.5" y="6479.7" xlink:href="#s51:inconsolata-bold:418"/><use x="41455.5" y="6479.7" xlink:href="#s51:inconsolata-bold:264"/><use x="42479.5" y="6479.7" xlink:href="#s51:inconsolata-bold:548"/></g></svg>