<svg xmlns="http://www.w3.org/2000/svg" xmlns:xlink="http://www.w3.org/1999/xlink" width="588" height="87" viewBox="0 0 25103 3701.6"><defs><path id="s19:indieflower:55" d="M316-556Q246-556 171.50-565.50Q97-575 29-586Q20-584 15-588.50Q10-593 7-600.50Q4-608 3.50-615Q3-622 3-626Q18-626 55-626Q92-626 142.50-625Q193-624 252.50-622Q312-620 372-616Q432-612 488-606.50Q544-601 587.50-592.50Q631-584 656.50-573Q682-562 682-548Q682-538 679-528Q676-518 664-518Q627-520 591-529Q555-538 519-546.50Q483-555 445.50-558.50Q408-562 369-550Q369-504 374.50-449Q380-394 387.50-337Q395-280 404.50-223Q414-166 423-116Q425-103 431.50-90.50Q438-78 445-66.50Q452-55 457-43Q462-31 462-19Q462-11 457-6.50Q452-2 445-0.50Q438 1 430 1Q422 1 417 1Q397 1 385.50-15Q374-31 368-52.50Q362-74 360-97Q358-120 356-134Q348-189 342-240.50Q336-292 331.50-343.50Q327-395 323.50-447.50Q320-500 316-556Z"/><path id="s19:indieflower:75" d="M328-18Q330-44 332-72Q334-100 335.50-128Q337-156 337.50-183Q338-210 338-232Q338-264 329-293Q320-322 303-343.50Q286-365 260.50-377.50Q235-390 200-390Q186-390 176-388Q166-386 156-381.50Q146-377 134-370Q122-362 106-351Q106-349 105.50-343.50Q105-338 105-337Q105-315 109.50-278.50Q114-242 119-202.50Q124-163 129-126Q134-89 134-66Q134-64 134-58Q134-52 133.50-45Q133-38 133-32Q133-26 133-23Q127-9 118.50-5.50Q110-2 98-2Q86 0 80-19Q74-38 71-74Q68-110 65.50-161Q63-212 58.50-273Q54-334 45.50-402.50Q37-471 21-543Q13-571 8.50-590.50Q4-610 0-625.50Q-4-641-7-657.50Q-10-674-14-697L-14-701Q-14-705-9-708.50Q-4-712 2.50-715Q9-718 15.50-719.50Q22-721 26-721Q45-671 56.50-636.50Q68-602 75-577Q82-552 85-535Q88-518 90-502Q92-486 93-469Q94-452 97-428Q149-460 191.50-463Q234-466 267-450.50Q300-435 324.50-403Q349-371 365-331Q381-291 389.50-246Q398-201 400.50-159Q403-117 398.50-81.50Q394-46 385-24.50Q376-3 361 0.50Q346 4 328-18Z"/><path id="s19:indieflower:72" d="M19-268Q19-320 34.50-367.50Q50-415 79.50-451Q109-487 151.50-508.50Q194-530 250-530Q283-526 307.50-512Q332-498 347.50-477.50Q363-457 370-430Q376-404 376-374Q376-338 355-309Q334-280 302-260.50Q270-241 233-230.50Q196-220 164-220Q152-220 139.50-220Q127-220 117-224Q107-228 101-236Q95-244 95-260Q95-265 96.50-268.50Q98-272 105-273.50Q112-275 126-274Q140-272 164-268Q178-268 204.50-277.50Q231-287 258.50-302Q286-317 306-336.50Q326-356 326-375Q326-395 319.50-414.50Q313-434 300-449Q287-464 269.50-473Q252-482 230-480Q195-477 166.50-461Q138-445 118-419.50Q98-394 87-363Q76-332 76-298Q76-272 77-246Q78-220 84.50-195Q91-170 105.50-147Q120-124 147.50-106.50Q175-89 217-77.50Q259-66 321-63L500-75Q484-53 459.50-39Q435-25 407.50-16.50Q380-8 353-4Q326 0 302 0Q244 0 193-19Q142-38 103-72.50Q64-107 41.50-156.50Q19-206 19-268Z"/><path id="s19:indieflower:3" d=""/><path id="s19:indieflower:40" d="M94-569Q90-569 87-570Q92-560 92-556L92-375Q97-367 121-367.50Q145-368 178-371Q211-374 248-380.50Q285-387 317-392.50Q349-398 370-402Q392-406 394-404Q397-404 405.50-404.50Q414-405 424-405.50Q434-406 442-406.50Q450-407 453-407Q453-383 426.50-368Q400-353 360-345Q320-337 273.50-332.50Q227-328 186.50-325Q146-322 118-318Q89-316 87-308Q81-292 78.50-272Q76-252 75.50-231.50Q75-211 75.50-190.50Q76-170 76-154Q76-150 76-140Q76-130 76-119.50Q76-109 76-99.50Q76-90 76-87Q80-77 94-72Q108-67 124-65.50Q140-64 154-65Q170-66 176-66Q210-66 244-69.50Q278-73 311.50-76.50Q345-80 378.50-83.50Q412-87 446-87L452-87Q454-86 458-85Q462-84 466.50-82Q471-80 474-78Q478-76 480-76Q482-75 486-72Q490-70 490-68Q490-49 469-36.50Q448-24 416-16.50Q384-9 346-5.50Q308-2 273-0.50Q238 1 213 1Q188 1 181 1Q141 1 110.50-6Q80-13 59.50-29.50Q39-46 29-74Q19-104 19-146Q19-184 24.50-222Q30-260 30-299Q30-315 25-326Q20-337 20-350L20-356Q22-358 27-365.50Q32-373 34-375L34-596Q34-612 37.50-620Q41-628 54.50-631Q68-634 92.50-633Q117-632 159.50-630Q202-628 264-627Q328-626 416-627Q426-623 436-618.50Q446-614 454.50-607Q463-600 468-591Q473-582 473-569Q473-566 469.50-562Q466-558 464-559L416-578L94-569Z"/><path id="s19:indieflower:88" d="M384-145Q361-132 344.50-113.50Q328-95 311-78.50Q294-62 273.50-50Q253-38 221-38Q185-38 156-53.50Q127-69 104.50-95.50Q82-122 65.50-155.50Q49-189 38.50-224.50Q28-260 22.50-294.50Q17-329 17-357Q9-411 20-441.50Q31-472 46.50-480.50Q62-489 73-476.50Q84-464 76-433Q74-429 73-420.50Q72-412 71-403Q70-394 69-386Q68-378 68-375Q68-354 72-325.50Q76-297 84.50-266Q93-235 106-204.50Q119-174 137-150Q155-126 178.50-111Q202-96 230-96Q248-96 271-113.50Q294-131 314.50-155.50Q335-180 349.50-206Q364-232 364-250Q364-260 364.50-283Q365-306 365-332Q365-358 364.50-381Q364-404 364-413Q370-423 377-428.50Q384-434 394-434Q406-434 414-418Q422-402 427-377Q432-352 434-323Q436-294 437-267Q438-240 439-219.50Q440-199 442-192Q447-172 456.50-147Q466-122 475-98.50Q484-75 491-55.50Q498-36 498-26Q498-11 489.50-8Q481-5 468-5Q452-5 444.50-13Q437-21 433.50-33.50Q430-46 428-61Q426-76 421.50-92Q417-108 408.50-122Q400-136 384-145Z"/><path id="s19:indieflower:85" d="M110 0Q88-40 72-87Q56-134 45-182Q34-230 27.50-275.50Q21-321 19-358Q19-365 18-373.50Q17-382 17.50-391Q18-400 20.50-408Q23-416 29-422L31-422Q32-422 32-422.50Q32-423 33-423Q34-423 34-422.50Q34-422 36-422L38-422Q40-421 48-418Q56-415 58-413Q76-419 95-427.50Q114-436 133.50-443.50Q153-451 173-456Q193-461 212-461Q226-461 236.50-460Q247-459 257.50-456.50Q268-454 280-450.50Q292-447 308-442Q316-436 322.50-430.50Q329-425 334.50-418Q340-411 343-401Q346-391 346-375Q330-373 308.50-377.50Q287-382 263.50-389Q240-396 215-401Q190-406 167-405Q144-404 124-392Q103-382 87-356Q80-327 81-299Q82-271 88-244.50Q94-218 103.50-191.50Q113-165 121.50-138.50Q130-112 137-86Q144-60 146-33Q146-23 135-11.50Q124 0 110 0Z"/><path id="s19:indieflower:82" d="M19-204Q19-259 43-300Q67-341 106-369Q145-397 193.50-410.50Q242-424 291-424Q317-424 339.50-414.50Q362-405 382.50-388.50Q403-372 419-350.50Q435-329 446.50-306Q458-283 464-259.50Q470-236 470-214Q470-163 450-123Q430-83 396-55.50Q362-28 319-13.50Q276 1 231 1Q185 1 146.50-13.50Q108-28 79.50-54Q51-80 35-118.50Q19-157 19-204M68-212Q68-181 79.50-152.50Q91-124 111.50-103Q132-82 160-69.50Q188-57 220-57Q237-55 261.50-62.50Q286-70 310.50-84.50Q335-99 357.50-119.50Q380-140 395-164.50Q410-189 413.50-215.50Q417-242 404.50-268.50Q392-295 359-319.50Q326-344 268-365Q235-365 199.50-355.50Q164-346 135-327Q106-308 87-279Q68-250 68-212Z"/><path id="s19:indieflower:83" d="M19-131Q19-194 41-237Q63-280 99.50-306Q136-332 184.50-344Q233-356 286-356Q329-356 369.50-342Q410-328 442-303Q474-278 493-242Q512-206 512-160Q512-120 497-94.50Q482-69 456-54.50Q430-40 398.50-34Q367-28 334-28Q302-28 268.50-31Q235-34 207-45Q179-56 161-78Q143-100 143-140Q164-140 183.50-131.50Q203-123 223-113.50Q243-104 263-96Q282-87 304-87Q320-87 346.50-90Q373-93 396.50-101.50Q420-110 437-125Q454-140 454-163Q454-197 439-222Q424-247 400-263.50Q376-280 346-289Q316-298 286-298Q282-298 266.50-296Q251-294 231-289.50Q211-285 189-278.50Q167-272 148.50-262.50Q130-253 118-241Q106-229 106-214L106-202Q107-191 108.50-172.50Q110-154 111-135.50Q112-117 114-103Q116-89 116-87Q118-71 123-37.50Q128-4 134 37.50Q140 79 147.50 125Q155 171 162 212.50Q169 254 174.50 287Q180 320 183 335Q183 337 183.50 338.50Q184 340 184 341Q184 342 184 342L183 344L183 346Q181 349 174 356Q166 362 164 364L158 364Q148 364 137 345.50Q126 327 114.50 295.50Q103 264 91.50 223Q80 182 69 138Q58 94 49 51Q40 8 33-29Q26-66 22.50-93Q19-120 19-131Z"/><path id="s19:indieflower:68" d="M19-169Q20-186 29-208Q38-230 57-251Q76-272 105-288.50Q134-305 173.50-312Q213-319 263.50-313Q314-307 376-283Q376-284 376-293L375-302Q375-328 360-355Q345-382 321.50-403.50Q298-425 271-438.50Q244-452 219-452Q209-452 201.50-449Q194-446 187-441.50Q180-437 173.50-433.50Q167-430 158-430Q156-430 156-431Q155-432 154-433Q152-435 148.50-438Q145-441 145-442Q145-460 151.50-473Q158-486 169.50-494Q181-502 195.50-506.50Q210-511 226-511Q266-507 302.50-486.50Q339-466 369.50-435Q400-404 423-363.50Q446-323 461.50-279.50Q477-236 482-192Q488-146 483-106Q482-106 477-106.50Q472-107 466-107.50Q460-108 456-109L451-110Q430-157 404-186Q378-215 352.50-231.50Q327-248 305-254.50Q283-261 269-264Q254-264 233.50-262Q213-260 191-255Q169-250 146.50-241.50Q124-233 106.50-221Q89-209 78.50-192.50Q68-176 68-154Q68-130 87-113.50Q106-97 133-86.50Q160-76 188-72Q216-68 233-68Q261-68 288-71Q315-74 341.50-78Q368-82 394-85Q420-88 446-88Q448-88 453-88Q458-88 463.50-87.50Q469-87 473.50-87Q478-87 480-87Q488-84 489-78Q490-72 490-66Q490-60 477.50-53Q465-46 445-39Q425-32 400.50-24.50Q376-17 353.50-12Q331-7 311.50-3.50Q292 0 284 0Q242 0 195-7Q148-14 109-32.50Q70-51 44.50-84Q19-117 19-169Z"/><path id="s19:indieflower:81" d="M29-390Q29-399 35.50-401.50Q42-404 50-404Q56-404 58.50-401Q61-398 62-394Q63-390 65-386.50Q67-383 72-383Q86-383 106-394Q126-405 149.50-418Q173-431 199.50-442Q226-453 252-453Q286-453 314.50-435.50Q343-418 365.50-389Q388-360 404-324Q420-288 431-250.50Q442-213 447-177.50Q452-142 452-116Q452-107 450.50-89Q449-71 445.50-53Q442-35 434-21.50Q426-8 414-8Q412-8 407-8.50Q402-9 397-10.50Q392-12 388.50-14Q385-16 385-20Q394-97 385-164.50Q376-232 356-283Q336-334 307-364Q278-394 245-394Q214-394 187-384Q160-374 140-355Q120-336 108.50-309Q97-282 97-250Q97-218 103-186.50Q109-155 116.50-123.50Q124-92 130-60Q136-28 136 4Q108 4 89-19Q70-42 58.50-78Q47-114 40.50-159Q34-204 31.50-247.50Q29-291 29-329.50Q29-368 29-390Z"/><path id="s19:indieflower:79" d="M41-8Q31-79 28.50-149.50Q26-220 26-291Q26-362 28-432Q30-502 29-572Q29-580 35-583Q41-586 49-586Q58-586 65-579.50Q72-573 77-563.50Q82-554 84.50-544.50Q87-535 87-529Q93-386 95-290.50Q97-195 95-136.50Q93-78 88.50-50Q84-22 77-12Q70-2 60.50-4Q51-6 41-8Z"/><path id="s19:indieflower:74" d="M-134 278Q-138 264-133.50 253Q-129 242-121 235Q-113 228-103.50 226Q-94 224-87.50 228.50Q-81 233-79.50 245Q-78 257-86 278Q-86 300-67.50 321Q-49 342-19.50 359Q10 376 45 390Q80 404 113 414Q146 424 172 429Q196 434 208 434Q233 434 250.50 421Q268 408 280.50 387Q293 366 300.50 339.50Q308 313 312 286.50Q316 260 317 235Q318 210 318 193Q318 185 316.50 163.50Q315 142 312 114Q309 86 305 56Q301 26 296 0Q291-26 285.50-42Q280-58 274-58Q264-58 250.50-52Q237-46 222.50-39Q208-32 193-26Q178-20 164-20Q136-20 109-32Q82-44 62.50-63Q43-82 31-108Q19-134 19-162Q19-206 36.50-252Q54-298 84.50-336Q115-374 156.50-398Q198-422 245-422Q281-412 303.50-376.50Q326-341 338.50-289Q351-237 356.50-173.50Q362-110 364-44Q366 22 367.50 85.50Q369 149 375 201Q375 224 372.50 255.50Q370 287 364 320Q358 353 347.50 385.50Q337 418 320 443.50Q303 469 278.50 484.50Q254 500 222 500Q196 500 159.50 494Q123 488 83.50 475Q44 462 5 443Q-34 424-65 399.50Q-96 375-115 344.50Q-134 314-134 278M76-179Q76-161 81.50-144.50Q87-128 97.50-115Q108-102 123.50-94.50Q139-87 158-87Q209-87 235.50-107Q262-127 272-157Q282-187 282-221Q281-256 279-284Q279-298 277-312Q275-326 269-338Q263-350 252.50-357Q242-364 226-364Q193-364 165-345.50Q137-327 117.50-299.50Q98-272 87-239.50Q76-207 76-179Z"/><path id="s19:indieflower:86" d="M17-121Q25-127 31.50-128.50Q38-130 46-130Q55-130 64-125.50Q73-121 80.50-114.50Q88-108 96-102Q104-96 113-92Q139-81 154.50-74Q170-67 183-63Q196-59 213-58Q230-57 257-57Q278-57 308-56.50Q338-56 365-61.50Q392-67 411-81.50Q430-96 430-126Q431-155 414.50-171.50Q398-188 370-197Q342-206 307-209.50Q272-213 235-217Q198-221 162.50-228.50Q127-236 99-252Q71-268 54-296Q37-324 36-368Q42-400 67.50-421.50Q93-443 128.50-454.50Q164-466 204-466.50Q244-467 277.50-456.50Q311-446 333.50-423Q356-400 357-366Q359-346 354-333Q349-320 340.50-313.50Q332-307 323-307.50Q314-308 309-314.50Q304-321 304.50-333.50Q305-346 316-365Q312-384 293-395Q274-406 249-410.50Q224-415 195.50-412.50Q167-410 143.50-402Q120-394 105.50-381Q91-368 93-351Q93-321 110.50-304.50Q128-288 156-279Q184-270 220.50-266Q257-262 295.50-258.50Q334-255 370-248.50Q406-242 435-227Q464-212 481-186.50Q498-161 498-120Q498-89 482-66.50Q466-44 441.50-29Q417-14 388-7Q359 0 333 0Q307 0 277.50-0.50Q248-1 217.50-4Q187-7 156-13.50Q125-20 98.50-33.50Q72-47 51-68Q30-89 17-121Z"/><path id="s19:indieflower:80" d="M671-35Q671-38 671.50-43Q672-48 672-53Q672-58 672-62L673-68Q673-71 674.50-85Q676-99 678-115Q680-131 681-145.50Q682-160 682-164Q680-185 673-219Q666-253 651.50-286Q637-319 615-343Q593-367 563-367Q536-367 506.50-353.50Q477-340 451.50-318.50Q426-297 410-269Q393-242 393-212Q393-197 398-182.50Q403-168 408.50-154Q414-140 419-125Q424-110 424-94Q424-82 419.50-70Q415-58 398-58Q380-58 368.50-79Q357-100 347.50-132.50Q338-165 327.50-202Q317-239 301.50-271.50Q286-304 263.50-325Q241-346 206-346Q179-346 158-334.50Q137-323 123.50-304Q110-285 102.50-261Q95-237 95-212Q95-172 100.50-133.50Q106-95 106-56Q106-42 103-30.50Q100-19 83-19Q72-19 64.50-24.50Q57-30 52-38.50Q47-47 44-57.50Q41-68 39-76Q41-117 39.50-152Q38-187 35.50-218.50Q33-250 30.50-282Q28-314 28-350Q28-352 28-357Q28-362 28.50-367.50Q29-373 29-377.50Q29-382 29-384Q30-386 34-389Q38-392 39-394L44-394Q61-394 69-382Q77-372 77-356Q93-373 105.50-382.50Q118-392 129.50-397Q141-402 153.50-403Q166-404 184-404Q213-404 236.50-398Q260-392 279-380.50Q298-369 314-350Q330-332 346-308Q347-308 348.50-307.50Q350-307 351-307Q352-307 361-316.50Q370-326 385-339.50Q400-353 420-369.50Q440-386 462-400Q484-414 507-423.50Q530-433 552-433Q586-433 612.50-419Q639-405 660-381.50Q681-358 696-328.50Q711-299 721-267.50Q731-236 735.50-205Q740-174 740-148Q740-138 739.50-113.50Q739-89 734.50-63.50Q730-38 720-18.50Q710 1 692 1Q683 1 679-2.50Q675-6 673-11Q671-16 671-22Q671-28 671-35Z"/><path id="s19:indieflower:69" d="M29-480Q24-524 17-555Q10-586 10.50-606Q11-626 23-637Q36-648 68-652Q70-642 73-614Q76-586 79.50-550.50Q83-515 87.50-476.50Q92-438 96-406Q100-374 105-354Q110-332 114-334Q132-334 149.50-340Q167-346 187-346Q217-346 251-340.50Q285-335 318.50-324Q352-313 383.50-295.50Q415-278 438.50-255Q462-232 476-202Q490-172 490-136Q490-90 467.50-62.50Q445-35 410-21Q375-7 334-3Q292 1 256 1Q206 1 173-11.50Q140-24 119-46Q98-68 87-97Q76-126 71-160.50Q66-195 64-232.50Q62-270 58-308Q57-315 53-339.50Q49-364 43.50-393.50Q38-423 34-448Q30-473 29-480M125-218Q115-174 130.50-142Q146-110 175.50-89.50Q205-69 243.50-61Q282-53 320-58.50Q358-64 388-82Q420-101 434-134Q434-161 421.50-183Q409-205 389-222Q369-239 343.50-251.50Q318-264 291.50-272Q265-280 239-284.50Q213-289 193-289Q160-289 142.50-270Q125-251 125-218Z"/><path id="s19:indieflower:73" d="M338-318Q359-318 356-298Q365-287 355.50-277.50Q346-268 324-263.50Q302-259 269-259.50Q236-260 197-268Q197-230 214.50-197Q232-164 253-134Q274-104 292-76Q310-48 310-20Q310-7 302-3Q296 1 284 1Q274 1 262.50-6.50Q251-14 241.50-25Q232-36 224-48Q217-60 213-68Q209-76 201.50-91Q194-106 184-126Q174-146 164-167.50Q154-189 144.50-209Q135-229 128-245Q120-260 117-268L106-279Q101-277 87.50-274.50Q74-272 59-269Q44-266 30-263Q16-260 10-260L5-260Q-3-260-6-265.50Q-9-271-9-279Q-9-296 3-305Q15-314 32-318Q49-322 67.50-323.50Q86-325 98-326Q96-356 95-397Q94-438 99-482Q104-526 115.50-568.50Q127-611 148.50-645Q170-679 203-700Q236-721 284-721Q311-721 343-707.50Q375-694 402.50-672Q430-650 448-622.50Q466-595 466-567L443-567Q423-567 407.50-582Q392-597 375-615.50Q358-634 339-649Q320-664 296-664Q262-664 234-649Q206-634 186-609Q166-584 156-553Q146-522 146-490L146-480L164-337Q166-335 175-333.50Q184-332 203.50-329.50Q223-327 255.50-324Q288-321 338-318Z"/><path id="s19:indieflower:87" d="M136-344Q128-344 108-344Q88-344 66.50-347.50Q45-351 27.50-359Q10-367 10-382Q10-386 11.50-393.50Q13-401 21-401L124-410Q128-447 130-470.50Q132-494 131-514.50Q130-535 128.50-557.50Q127-580 126-616Q126-623 129-627Q132-631 136.50-633Q141-635 146.50-636Q152-637 155-637Q161-637 167.50-633Q174-629 179-623Q184-617 187-610.50Q190-604 190-598L198-411L284-407Q301-409 315.50-400.50Q330-392 331-369Q319-356 302-353.50Q285-351 266.50-351.50Q248-352 230-351.50Q212-351 198-342Q198-336 199-309Q200-282 201-245Q202-208 203.50-166Q205-124 206-88.50Q207-53 207.50-28Q208-3 208 0Q185 14 171-2.50Q157-19 148.50-51.50Q140-84 136.50-127.50Q133-171 132.50-213.50Q132-256 133-292Q134-328 136-344Z"/><path id="s19:indieflower:76" d="M63-346Q63-350 63-361Q63-372 63.50-384Q64-396 64-407Q64-418 64-422Q60-453 82-453Q92-453 99-448Q106-443 112-433Q109-381 116.50-332.50Q124-284 133.50-236.50Q143-189 151.50-141Q160-93 160-41Q160-27 151.50-13Q143 1 126 1Q113 1 103.50-21.50Q94-44 87-78.50Q80-113 75-155Q70-197 67.50-235.50Q65-274 64-304.50Q63-335 63-346M12-597Q12-609 19-612.50Q26-616 37-616Q44-617 55.50-607.50Q67-598 74.50-586Q82-574 83-564Q84-552 68-550L63-550Q48-550 38-552Q28-554 22.50-558.50Q17-563 14.50-572Q12-581 12-597Z"/><path id="s19:indieflower:92" d="M46 312Q46 305 46 298.50Q46 292 48 287.50Q50 283 54 280Q60 278 68 278Q83 295 106.50 321.50Q130 348 160 373Q190 398 223 417Q256 436 290 436Q318 435 338 421.50Q358 408 372 386Q386 364 395 336Q404 308 409.50 279Q415 250 417.50 223Q420 196 423 176Q425 166 427.50 142.50Q430 119 432.50 90.50Q435 62 436.50 31Q438 0 436-25.50Q434-51 428-67.50Q422-84 410-84Q393-84 374-74Q355-64 334.50-51.50Q314-39 293-29Q272-19 252-19Q214-19 182.50-34.50Q151-50 125-75Q99-100 79-133.50Q59-167 45.50-203Q32-239 25.50-275Q19-311 19-343Q19-350 17.50-366Q16-382 18-399Q20-416 27-429Q34-442 49-442Q53-442 55.50-426Q58-410 61.50-384.50Q65-359 70.50-326Q76-293 85-259Q94-225 107-192Q120-159 139-133.50Q158-108 184.50-92Q211-76 245-76Q267-76 291-85.50Q315-95 336.50-110Q358-125 376-144Q394-164 404-183Q404-187 403-202Q402-217 401-236.50Q400-256 399-279Q398-302 397-322.50Q396-343 395.50-358Q395-373 395-377Q397-438 404-451.50Q411-465 421-443Q431-421 442-369Q453-317 462.50-247.50Q472-178 477.50-96Q483-14 482 68.50Q481 151 471.50 228Q462 305 441 364.50Q420 424 386 461Q352 498 302 500Q282 500 254.50 492.50Q227 485 199 472Q171 459 143.50 441Q116 423 94.50 402Q73 381 59.50 358Q46 335 46 312Z"/><path id="s19:indieflower:17" d="M45-96Q45-104 51.50-120Q58-136 67-152.50Q76-169 85.50-181Q95-193 102-193Q122-193 137-182.50Q152-172 161.50-156Q171-140 176-121Q181-102 181-86Q181-74 174-59Q167-44 156.50-31Q146-18 133-9Q120 0 107 0Q92 0 81-10.50Q70-21 61.50-36.50Q53-52 49-68.50Q45-85 45-96Z"/><path id="s19:indieflower:91" d="M393 52Q366 29 343 3Q320-23 296-49.50Q272-76 247-99.50Q222-123 191-140Q177-140 165.50-130.50Q154-121 143-105.50Q132-90 122.50-71.50Q113-53 104.50-37Q96-21 89-9Q82 3 76 5Q57 4 57-14Q57-42 72-67.50Q87-93 105.50-115.50Q124-138 139-157.50Q154-177 154-193Q154-194 153.50-195Q153-196 153-197Q136-213 114-234Q92-255 69.50-278.50Q47-302 28-326Q10-348-1-370Q-3-378-0.50-382Q2-386 6-388.50Q10-391 15-391.50Q20-392 23-392Q48-383 70.50-363Q93-343 114-321Q135-299 155.50-278Q176-257 196-246Q216-249 241-266.50Q266-284 293-306Q320-328 346-350.50Q372-373 394-385.50Q416-398 431-397Q446-396 452-371Q452-366 438.50-354.50Q425-343 405-327Q385-311 360-293Q335-275 311.50-258Q288-241 268.50-224.50Q249-208 239-197Q260-177 288.50-151Q317-125 345-95.50Q373-66 396.50-35Q420-4 431 23Q427 33 421 43Q415 53 403 53Q401 53 397.50 52.50Q394 52 393 52Z"/><path id="s19:indieflower:70" d="M19-223Q19-267 36-308.50Q53-350 82.50-382Q112-414 151-433Q190-452 234-452Q254-452 276.50-447.50Q299-443 319-433Q339-423 352-406.50Q365-390 365-365Q365-361 362.50-349Q360-337 356-325Q352-313 346.50-303.50Q341-294 337-294Q337-341 311-372.50Q285-404 235-404Q197-404 167-388Q137-372 117-346Q97-320 86.50-287.50Q76-255 76-221Q76-175 91-145Q106-115 132-96.50Q158-78 192-69Q226-60 264-57Q302-54 340-55Q378-56 413-58Q416-58 423-54Q430-50 433-49L433-46Q433-44 433.50-44Q434-44 434-43Q434-32 423-24Q412-16 396-11Q380-6 361-4Q342-2 323.50-0.50Q305 1 291 1Q277 1 271 1Q213 1 166.50-12Q120-25 87.50-52.50Q55-80 37-122.50Q19-165 19-223Z"/><path id="s19:indieflower:41" d="M194-19Q188-46 185-64Q182-82 180.50-96.50Q179-111 179-123Q179-135 178.50-149Q178-163 176-181.50Q174-200 170-227Q167-247 156-254.50Q145-262 130.50-262.50Q116-263 100.50-260.50Q85-258 71.50-258Q58-258 50-264Q41-272 41-290Q41-292 45.50-295.50Q50-299 52-299Q70-301 87-301.50Q104-302 117.50-307Q131-312 140-324Q148-338 148-362Q140-411 141-446.50Q142-482 138.50-505Q135-528 121-536Q106-545 70-540Q66-540 56.50-540Q47-540 36.50-539.50Q26-539 16.50-539Q7-539 3-539Q1-537-6.50-534Q-14-531-16-530Q-18-530-19-530Q-21-529-22-529L-24-530L-26-530Q-28-532-31-539Q-34-546-35-549L-35-554Q-21-568 14-579Q49-590 97-598Q145-606 202-610Q259-614 316.50-613.50Q374-613 429-605.50Q484-598 527-584.50Q570-571 598-549Q626-526 629-496Q597-496 566.50-504Q536-512 505-522Q474-532 442.50-540Q411-548 377-548Q369-548 353.50-548.50Q338-549 318-549.50Q298-550 277-548.50Q256-547 238-542.50Q220-538 209-529.50Q198-521 198-507Q198-492 196-466Q194-440 195-412.50Q196-385 202-361Q208-337 224-326Q226-326 231-326Q236-326 242-326Q248-326 254-326Q260-326 262-326Q337-332 383.50-329Q430-326 450-317Q470-308 464.50-296.50Q459-285 430.50-275Q402-265 351-258.50Q300-252 229-254Q231-209 233-183.50Q235-158 237.50-143.50Q240-129 242-120.50Q244-112 247-100.50Q250-89 252-69.50Q254-50 256-12Q242-14 230-14.50Q218-15 209.50-15Q201-15 196.50-16Q192-17 194-19Z"/><path id="s19:indieflower:15" d="M9 158Q9 134 14 110Q19 86 24.50 61Q30 36 35 11Q40-14 40-38Q40-40 40-46Q40-52 39.50-58Q39-64 39-69Q39-74 39-76Q25-75 22-81Q19-87 19-95Q19-115 26-130.50Q33-146 55-146Q75-146 83.50-132Q92-118 95.50-99Q99-80 98.50-60.50Q98-41 98-29Q98-21 95.50-1.50Q93 18 89.50 43Q86 68 80 95Q74 122 66 144Q58 166 49 180Q40 194 29 194Q22 194 18 190.50Q14 187 12 181.50Q10 176 9.50 169.50Q9 163 9 158Z"/></defs><g id="line-0"><use x="0" y="744" xlink:href="#s19:indieflower:55"/><use x="595" y="744" xlink:href="#s19:indieflower:75"/><use x="1033" y="744" xlink:href="#s19:indieflower:72"/><use x="1561" y="744" xlink:href="#s19:indieflower:3"/><use x="1945" y="744" xlink:href="#s19:indieflower:40"/><use x="2482" y="744" xlink:href="#s19:indieflower:88"/><use x="2996" y="744" xlink:href="#s19:indieflower:85"/><use x="3351" y="744" xlink:href="#s19:indieflower:82"/><use x="3850" y="744" xlink:href="#s19:indieflower:83"/><use x="4383" y="744" xlink:href="#s19:indieflower:72"/><use x="4911" y="744" xlink:href="#s19:indieflower:68"/><use x="5429" y="744" xlink:href="#s19:indieflower:81"/><use x="5900" y="744" xlink:href="#s19:indieflower:3"/><use x="6284" y="744" xlink:href="#s19:indieflower:79"/><use x="6407" y="744" xlink:href="#s19:indieflower:68"/><use x="6925" y="744" xlink:href="#s19:indieflower:81"/><use x="7396" y="744" xlink:href="#s19:indieflower:74"/><use x="7771" y="744" xlink:href="#s19:indieflower:88"/><use x="8285" y="744" xlink:href="#s19:indieflower:68"/><use x="8803" y="744" xlink:href="#s19:indieflower:74"/><use x="9178" y="744" xlink:href="#s19:indieflower:72"/><use x="9706" y="744" xlink:href="#s19:indieflower:86"/><use x="10233" y="744" xlink:href="#s19:indieflower:3"/><use x="10617" y="744" xlink:href="#s19:indieflower:68"/><use x="11135" y="744" xlink:href="#s19:indieflower:85"/><use x="11490" y="744" xlink:href="#s19:indieflower:72"/><use x="12018" y="744" xlink:href="#s19:indieflower:3"/><use x="12402" y="744" xlink:href="#s19:indieflower:80"/><use x="13170" y="744" xlink:href="#s19:indieflower:72"/><use x="13698" y="744" xlink:href="#s19:indieflower:80"/><use x="14466" y="744" xlink:href="#s19:indieflower:69"/><use x="14975" y="744" xlink:href="#s19:indieflower:72"/><use x="15503" y="744" xlink:href="#s19:indieflower:85"/><use x="15858" y="744" xlink:href="#s19:indieflower:86"/><use x="16385" y="744" xlink:href="#s19:indieflower:3"/><use x="16769" y="744" xlink:href="#s19:indieflower:82"/><use x="17268" y="744" xlink:href="#s19:indieflower:73"/><use x="17654" y="744" xlink:href="#s19:indieflower:3"/><use x="18038" y="744" xlink:href="#s19:indieflower:87"/><use x="18374" y="744" xlink:href="#s19:indieflower:75"/><use x="18812" y="744" xlink:href="#s19:indieflower:72"/><use x="19340" y="744" xlink:href="#s19:indieflower:3"/><use x="19724" y="744" xlink:href="#s19:indieflower:86"/><use x="20251" y="744" xlink:href="#s19:indieflower:68"/><use x="20769" y="744" xlink:href="#s19:indieflower:80"/><use x="21537" y="744" xlink:href="#s19:indieflower:72"/><use x="22065" y="744" xlink:href="#s19:indieflower:3"/><use x="22449" y="744" xlink:href="#s19:indieflower:73"/><use x="22835" y="744" xlink:href="#s19:indieflower:68"/><use x="23353" y="744" xlink:href="#s19:indieflower:80"/><use x="24121" y="744" xlink:href="#s19:indieflower:76"/><use x="24300" y="744" xlink:href="#s19:indieflower:79"/><use x="24423" y="744" xlink:href="#s19:indieflower:92"/><use x="24922" y="744" xlink:href="#s19:indieflower:17"/></g><g id="line-1"><use x="4891.5" y="1972.8" xlink:href="#s19:indieflower:55"/><use x="5486.5" y="1972.8" xlink:href="#s19:indieflower:75"/><use x="5924.5" y="1972.8" xlink:href="#s19:indieflower:72"/><use x="6452.5" y="1972.8" xlink:href="#s19:indieflower:76"/><use x="6631.5" y="1972.8" xlink:href="#s19:indieflower:85"/><use x="6986.5" y="1972.8" xlink:href="#s19:indieflower:3"/><use x="7370.5" y="1972.8" xlink:href="#s19:indieflower:86"/><use x="7897.5" y="1972.8" xlink:href="#s19:indieflower:72"/><use x="8425.5" y="1972.8" xlink:href="#s19:indieflower:83"/><use x="8958.5" y="1972.8" xlink:href="#s19:indieflower:68"/><use x="9476.5" y="1972.8" xlink:href="#s19:indieflower:85"/><use x="9831.5" y="1972.8" xlink:href="#s19:indieflower:68"/><use x="10349.5" y="1972.8" xlink:href="#s19:indieflower:87"/><use x="10685.5" y="1972.8" xlink:href="#s19:indieflower:72"/><use x="11213.5" y="1972.8" xlink:href="#s19:indieflower:3"/><use x="11597.5" y="1972.8" xlink:href="#s19:indieflower:72"/><use x="12125.5" y="1972.8" xlink:href="#s19:indieflower:91"/><use x="12584.5" y="1972.8" xlink:href="#s19:indieflower:76"/><use x="12763.5" y="1972.8" xlink:href="#s19:indieflower:86"/><use x="13290.5" y="1972.8" xlink:href="#s19:indieflower:87"/><use x="13626.5" y="1972.8" xlink:href="#s19:indieflower:72"/><use x="14154.5" y="1972.8" xlink:href="#s19:indieflower:81"/><use x="14625.5" y="1972.8" xlink:href="#s19:indieflower:70"/><use x="15085.5" y="1972.8" xlink:href="#s19:indieflower:72"/><use x="15613.5" y="1972.8" xlink:href="#s19:indieflower:3"/><use x="15997.5" y="1972.8" xlink:href="#s19:indieflower:76"/><use x="16176.5" y="1972.8" xlink:href="#s19:indieflower:86"/><use x="16703.5" y="1972.8" xlink:href="#s19:indieflower:3"/><use x="17087.5" y="1972.8" xlink:href="#s19:indieflower:68"/><use x="17605.5" y="1972.8" xlink:href="#s19:indieflower:3"/><use x="17989.5" y="1972.8" xlink:href="#s19:indieflower:80"/><use x="18757.5" y="1972.8" xlink:href="#s19:indieflower:92"/><use x="19256.5" y="1972.8" xlink:href="#s19:indieflower:87"/><use x="19592.5" y="1972.8" xlink:href="#s19:indieflower:75"/><use x="20030.5" y="1972.8" xlink:href="#s19:indieflower:17"/></g><g id="line-2"><use x="6255" y="3201.6" xlink:href="#s19:indieflower:41"/><use x="6782" y="3201.6" xlink:href="#s19:indieflower:82"/><use x="7281" y="3201.6" xlink:href="#s19:indieflower:85"/><use x="7636" y="3201.6" xlink:href="#s19:indieflower:3"/><use x="8020" y="3201.6" xlink:href="#s19:indieflower:86"/><use x="8547" y="3201.6" xlink:href="#s19:indieflower:70"/><use x="9007" y="3201.6" xlink:href="#s19:indieflower:76"/><use x="9186" y="3201.6" xlink:href="#s19:indieflower:72"/><use x="9714" y="3201.6" xlink:href="#s19:indieflower:81"/><use x="10185" y="3201.6" xlink:href="#s19:indieflower:70"/><use x="10645" y="3201.6" xlink:href="#s19:indieflower:72"/><use x="11173" y="3201.6" xlink:href="#s19:indieflower:15"/><use x="11307" y="3201.6" xlink:href="#s19:indieflower:3"/><use x="11691" y="3201.6" xlink:href="#s19:indieflower:80"/><use x="12459" y="3201.6" xlink:href="#s19:indieflower:88"/><use x="12973" y="3201.6" xlink:href="#s19:indieflower:86"/><use x="13500" y="3201.6" xlink:href="#s19:indieflower:76"/><use x="13679" y="3201.6" xlink:href="#s19:indieflower:70"/><use x="14139" y="3201.6" xlink:href="#s19:indieflower:15"/><use x="14273" y="3201.6" xlink:href="#s19:indieflower:3"/><use x="14657" y="3201.6" xlink:href="#s19:indieflower:86"/><use x="15184" y="3201.6" xlink:href="#s19:indieflower:83"/><use x="15717" y="3201.6" xlink:href="#s19:indieflower:82"/><use x="16216" y="3201.6" xlink:href="#s19:indieflower:85"/><use x="16571" y="3201.6" xlink:href="#s19:indieflower:87"/><use x="16907" y="3201.6" xlink:href="#s19:indieflower:15"/><use x="17041" y="3201.6" xlink:href="#s19:indieflower:3"/><use x="17425" y="3201.6" xlink:href="#s19:indieflower:72"/><use x="17953" y="3201.6" xlink:href="#s19:indieflower:87"/><use x="18289" y="3201.6" xlink:href="#s19:indieflower:70"/><use x="18749" y="3201.6" xlink:href="#s19:indieflower:15"/></g></svg>