<svg xmlns="http://www.w3.org/2000/svg" xmlns:xlink="http://www.w3.org/1999/xlink" width="545" height="88" viewBox="0 0 22692 3667.5"><defs><path id="s17:kaushanscript-regular:100" d="M299-606Q259-606 237.50-628.50Q216-651 216-683Q216-691 218.50-702Q221-713 225-721Q238-715 263.50-712.50Q289-710 323-710Q374-710 438.50-714.50Q503-719 562-724Q621-729 666-733.50Q711-738 724-738Q761-738 777.50-710.50Q794-683 802-637Q776-639 750.50-640.50Q725-642 707-642Q675-642 642.50-640Q610-638 577-634Q563-605 546-565.50Q529-526 512.50-483Q496-440 481-397.50Q466-355 455-321Q433-255 416.50-199Q400-143 387.50-94.50Q375-46 366-2Q357 42 350 84Q283 74 238 0Q246-31 257.50-67.50Q269-104 284.50-150.50Q300-197 321-256Q342-315 369-390Q379-418 390-448.50Q401-479 411.50-509Q422-539 430.50-567Q439-595 445-618Q403-613 365.50-609.50Q328-606 299-606Z"/><path id="s17:kaushanscript-regular:227" d="M96-17Q96-52 103-99.50Q110-147 123.50-201Q137-255 155.50-314Q174-373 197-432Q217-485 243.50-539Q270-593 301-645Q332-697 365.50-744Q399-791 433-830Q449-830 467.50-826Q486-822 503.50-815.50Q521-809 535.50-800Q550-791 559-782Q484-705 424-626.50Q364-548 329-479Q310-441 294.50-408Q279-375 266-342.50Q253-310 242.50-277.50Q232-245 223-209Q415-454 508-454Q534-454 564-437Q594-420 617-391Q586-357 553-309Q520-261 492.50-212.50Q465-164 447.50-122.50Q430-81 430-61Q430-51 433-47.50Q436-44 446-44Q461-44 470-48Q479-52 481-52Q486-44 487-41Q488-38 488-36Q488-32 476-24.50Q464-17 447.50-9.50Q431-2 415 4Q399 10 391 10Q381 10 371 4.50Q361-1 353.50-10Q346-19 341.50-30Q337-41 337-53Q337-68 345.50-97.50Q354-127 369-166.50Q384-206 405-253Q426-300 450-349Q450-353 446-353Q443-353 430.50-345Q418-337 407-329Q371-302 334.50-262.50Q298-223 263.50-176Q229-129 198.50-76.50Q168-24 146 29Q143 36 137 42Q131 48 127 48Q124 48 118.50 41Q113 34 108.50 23.50Q104 13 100 2Q96-9 96-17Z"/><path id="s17:kaushanscript-regular:186" d="M455-414Q451-352 433-307.50Q415-263 381.50-229.50Q348-196 300-169Q252-142 188-117Q188-111 187.50-104.50Q187-98 187-91Q187-78 189-64Q191-50 196-38Q201-26 210-18.50Q219-11 233-11Q260-11 286-23Q312-35 335.50-52.50Q359-70 379.50-90.50Q400-111 416-128Q426-119 433-111Q388-51 334.50-11.50Q281 28 233 39Q164 31 125.50-11.50Q87-54 87-114Q87-155 98.50-197.50Q110-240 130.50-279.50Q151-319 178.50-354Q206-389 237.50-415Q269-441 302.50-456Q336-471 369-471Q415-465 455-414M386-381Q359-377 330-359Q301-341 275.50-311Q250-281 229-241Q208-201 196-155Q276-195 329-253.50Q382-312 386-381Z"/><path id="s17:kaushanscript-regular:316" d=""/><path id="s17:kaushanscript-regular:25" d="M514-426Q547-426 565.50-408Q584-390 584-358Q584-350 582.50-341.50Q581-333 579-327Q566-329 550-330.50Q534-332 512-332Q469-332 425-324.50Q381-317 341-312Q318-259 299-209.50Q280-160 266.50-119Q253-78 245.50-48Q238-18 237-3Q318-20 400.50-32Q483-44 574-50Q585-33 592.50-13Q600 7 600 30Q600 36 600 43Q600 50 598 57Q570 56 539 55.50Q508 55 458 55Q425 55 395.50 56.50Q366 58 336 61Q306 64 272.50 69Q239 74 197 81Q151 63 108-7Q125-43 155.50-116.50Q186-190 233-313Q188-327 174-363Q179-368 203-375.50Q227-383 262-391Q277-430 287.50-459Q298-488 306-513.50Q314-539 320.50-563.50Q327-588 333-617Q298-619 278-636.50Q258-654 258-682Q258-690 260.50-701Q263-712 266-720Q286-717 304.50-716Q323-715 353-715Q416-715 471-718.50Q526-722 570.50-726Q615-730 647-733.50Q679-737 696-737Q719-737 737-713Q755-689 764-645Q733-648 713.50-649Q694-650 679-650Q624-650 578.50-644.50Q533-639 491-633Q485-624 477.50-610Q470-596 458-571Q446-546 428.50-508Q411-470 386-413Q424-419 457.50-422.50Q491-426 514-426Z"/><path id="s17:kaushanscript-regular:325" d="M369-22Q350-38 343.50-62Q337-86 337-103Q337-124 342-139Q338-139 324-123Q310-107 293.50-85Q277-63 261-42Q245-21 237-11Q224 3 212.50 11Q201 19 194 20Q178 19 160.50 13.50Q143 8 127.50-2Q112-12 100.50-26Q89-40 85-58Q85-86 86.50-104Q88-122 93-143Q102-181 119.50-229Q137-277 160-323.50Q183-370 211.50-410.50Q240-451 272-474Q281-474 293-472.50Q305-471 317.50-467Q330-463 341.50-457.50Q353-452 361-443Q352-433 315.50-376Q279-319 234-212Q229-201 222-180Q215-159 208-136Q201-113 196.50-91Q192-69 192-56Q192-48 194.50-44Q197-40 199-38Q214-44 237-71Q260-98 301-154Q311-168 324.50-186Q338-204 352-224.50Q366-245 378.50-267Q391-289 399-311Q403-323 409.50-339.50Q416-356 425.50-374Q435-392 447.50-410.50Q460-429 477-445Q490-445 505-442Q520-439 533.50-434.50Q547-430 557-424.50Q567-419 572-413Q554-369 532-326Q510-283 491-241.50Q472-200 459-159Q446-118 446-79Q446-58 449.50-42.50Q453-27 457-16.50Q461-6 464.50 1Q468 8 468 13Q468 14 466 16Q465 17 464 17Q457 17 446 14Q435 11 421.50 5.50Q408 0 394.50-7Q381-14 369-22Z"/><path id="s17:kaushanscript-regular:302" d="M73-20Q78-49 90.50-96.50Q103-144 120-197.50Q137-251 156-305Q175-359 193-402Q206-433 216-450.50Q226-468 238-480Q252-478 267-473Q282-468 296-461Q310-454 321-446.50Q332-439 338-432Q311-400 290.50-359Q270-318 249-254Q303-302 344.50-346Q386-390 422-444Q428-449 443-449Q457-449 470-444.50Q483-440 488-432Q470-384 470-337Q470-293 483-271Q482-265 469.50-248Q457-231 442-216Q415-230 394-254.50Q373-279 363-308Q316-275 283-243.50Q250-212 226.50-173.50Q203-135 186.50-85Q170-35 155 34Q146 33 133.50 27.50Q121 22 108.50 14Q96 6 86-3Q76-12 73-20Z"/><path id="s17:kaushanscript-regular:269" d="M215 35Q158 29 124-15Q90-59 90-127Q90-167 102-210Q114-253 136-293.50Q158-334 188-370Q218-406 253-432Q308-473 356-473Q388-456 419-402Q424-402 428-402.50Q432-403 437-403Q490-403 490-309Q490-246 469.50-189.50Q449-133 412.50-87Q376-41 325.50-9.50Q275 22 215 35M266-280Q249-257 234-230Q219-203 208-175.50Q197-148 191-122.50Q185-97 185-77Q185-53 193-31Q201-9 211-6Q256-16 293.50-43.50Q331-71 358.50-112Q386-153 401.50-205Q417-257 417-316Q417-342 414-357Q411-372 404-383Q360-370 325.50-341Q291-312 266-280Z"/><path id="s17:kaushanscript-regular:284" d="M24 331Q10 327 8 301Q4 288 2.50 270Q1 252 1 229Q1 208 8 171.50Q15 135 27.50 89Q40 43 58-10.50Q76-64 98-119Q125-188 145-238.50Q165-289 178.50-326Q192-363 200.50-387Q209-411 214-428Q218-440 226-457Q234-474 244.50-491.50Q255-509 266-524.50Q277-540 286-548Q321-543 352-530Q383-517 390-505Q376-492 358-464.50Q340-437 323-404.50Q306-372 292-338Q278-304 271-278Q281-295 297-315Q313-335 346-370Q383-408 415.50-428.50Q448-449 472-449Q510-449 534.50-428Q559-407 559-374Q559-302 535-231.50Q511-161 466-104Q449-82 426-62Q403-42 378-26.50Q353-11 329-2Q305 7 286 7Q268 7 254.50-0.50Q241-8 236-19Q275-42 312-83Q349-124 380.50-177.50Q412-231 435.50-293Q459-355 471-419Q433-399 402.50-375.50Q372-352 342-314Q306-270 285-243Q264-216 250.50-197Q237-178 228.50-161.50Q220-145 210-121Q196-89 177.50-36.50Q159 16 139.50 81Q120 146 100.50 219.50Q81 293 63 366Q52 364 44 350Q36 341 32.50 337Q29 333 24 331Z"/><path id="s17:kaushanscript-regular:132" d="M442-404Q452-404 465.50-400.50Q479-397 490-391.50Q501-386 508.50-380Q516-374 516-369Q496-327 479-284.50Q462-242 450-203Q438-164 431.50-130Q425-96 425-71Q425-43 431-24.50Q437-6 451 2Q439 10 420 15Q401 20 386 20Q332 20 332-54Q332-111 370-210Q350-164 324-123.50Q298-83 271-52Q244-21 216.50-1.50Q189 18 166 22Q129 20 106-13.50Q83-47 83-99Q83-155 107-217Q131-279 168.50-332Q206-385 250-420.50Q294-456 335-458Q345-455 357.50-446Q370-437 381.50-425Q393-413 401-400.50Q409-388 410-379Q370-373 327.50-340Q285-307 250.50-260.50Q216-214 194-161Q172-108 172-62Q172-43 186-38Q215-44 253-87.50Q291-131 345-222Q355-240 367.50-262Q380-284 393-308Q406-332 418.50-356.50Q431-381 442-404Z"/><path id="s17:kaushanscript-regular:261" d="M259-485Q285-477 308-449.50Q331-422 342-389Q331-362 308-324Q285-286 262-246.50Q239-207 220.50-171.50Q202-136 199-113Q215-130 234.50-152.50Q254-175 272.50-197.50Q291-220 307-238.50Q323-257 332-266Q351-286 377-312.50Q403-339 431.50-362.50Q460-386 489-402.50Q518-419 542-419Q568-419 585.50-401.50Q603-384 613-365Q613-363 605.50-359.50Q598-356 584-340Q570-322 552.50-290.50Q535-259 518.50-222.50Q502-186 491-148Q480-110 480-79Q480-54 486.50-47Q493-40 505-40Q516-40 528-45Q540-50 547-50Q551-48 553.50-41.50Q556-35 556-30Q548-23 537-16Q526-9 514-3Q502 3 490.50 7Q479 11 470 11Q441 11 422.50 2.50Q404-6 393.50-20Q383-34 379-53.50Q375-73 375-95Q375-107 377-122Q379-137 385-157.50Q391-178 402-206.50Q413-235 430-275Q428-275 403-261Q378-247 349-218Q302-173 264.50-129Q227-85 188-31Q166 0 149.50 21.50Q133 43 121 50Q100 38 90 16.50Q80-5 75-28Q75-47 80.50-76Q86-105 95.50-140.50Q105-176 119-215Q133-254 150-293Q188-381 219.50-431Q251-481 259-485Z"/><path id="s17:kaushanscript-regular:248" d="M96-64Q96-108 117-187.50Q138-267 176-373Q238-542 292.50-654.50Q347-767 399-830Q411-828 428.50-820Q446-812 463-802.50Q480-793 493.50-783Q507-773 511-767Q433-675 374-569Q315-463 266-326Q224-208 202-113.50Q180-19 180 44Q180 61 180 65Q180 69 181 73Q167 71 157 66Q147 61 144 54Q142 49 133 39.50Q124 30 117 25Q108 19 102-6.50Q96-32 96-64Z"/><path id="s17:kaushanscript-regular:215" d="M-105 298Q-105 292-101 287Q-97 282-92 277Q-80 288-71.50 294Q-63 300-55.50 304Q-48 308-40 309Q-32 310-21 310Q31 310 78 282.50Q125 255 166.50 203Q208 151 242 76Q276 1 302-94Q290-82 272.50-67.50Q255-53 236-40Q217-27 198.50-16Q180-5 167 0Q150-3 135.50-14.50Q121-26 110-43Q99-60 93-81.50Q87-103 87-127Q87-166 101.50-207Q116-248 140-287.50Q164-327 196.50-362Q229-397 265.50-423Q302-449 339.50-464.50Q377-480 413-480Q448-480 465.50-465.50Q483-451 491-416Q480-422 463-422Q439-422 407.50-403Q376-384 343.50-353.50Q311-323 279-283.50Q247-244 222.50-203Q198-162 182.50-123Q167-84 167-53Q167-46 168-44.50Q169-43 171-43Q180-43 195.50-53Q211-63 230.50-78.50Q250-94 271-114.50Q292-135 311-156Q354-204 389.50-263.50Q425-323 446-379Q473-377 494-370Q515-363 523-355Q489-277 468.50-224Q448-171 433-130Q406-58 382.50 1.50Q359 61 334.50 111.50Q310 162 281.50 205.50Q253 249 217 289Q200 308 178.50 322.50Q157 337 134.50 347Q112 357 90.50 362Q69 367 51 367Q27 367 2 361.50Q-23 356-44.50 346.50Q-66 337-82 324.50Q-98 312-105 298Z"/><path id="s17:kaushanscript-regular:308" d="M442-398Q441-379 435.50-358.50Q430-338 422-321.50Q414-305 405-294Q396-283 388-283Q377-284 375-298Q375-301 377.50-307.50Q380-314 383-322Q386-330 388.50-338Q391-346 391-352Q391-366 384.50-375.50Q378-385 367-385Q327-385 306-335Q285-285 285-188Q285-178 286-176Q307-177 323.50-177.50Q340-178 356-178Q357-176 357-170Q357-161 353-157Q330-152 316.50-148.50Q303-145 296-142Q289-139 287.50-135.50Q286-132 286-126Q286-118 286.50-110Q287-102 287-90Q287-6 241.50 45Q196 96 115 104Q101 103 86 96Q71 89 57.50 78Q44 67 34 53.50Q24 40 20 26Q20-12 36-46.50Q52-81 79.50-107.50Q107-134 144.50-150.50Q182-167 226-170Q226-195 221-219Q216-243 210.50-265.50Q205-288 200-309.50Q195-331 195-352Q195-379 206-405.50Q217-432 235-454.50Q253-477 277-493Q301-509 327-515Q338-512 356.50-497.50Q375-483 393-465Q411-447 425-428.50Q439-410 442-398M112 58Q136 48 157.50 29Q179 10 195-14Q211-38 220.50-65Q230-92 230-118Q210-115 186-99.50Q162-84 141-62.50Q120-41 106-18Q92 5 92 22Q92 44 112 58Z"/><path id="s17:kaushanscript-regular:256" d="M675-307Q659-306 636-286.50Q613-267 586.50-236.50Q560-206 531.50-169Q503-132 476.50-95.50Q450-59 427-27Q404 5 388 24Q366 15 350-2.50Q334-20 327-46Q332-77 341-110.50Q350-144 364.50-180Q379-216 400.50-255.50Q422-295 453-339Q438-338 412-317.50Q386-297 356-264.50Q326-232 294-191.50Q262-151 234-112Q197-60 172.50-21Q148 18 137 25Q111 6 101-16Q91-38 86-65Q87-89 93.50-125Q100-161 112-199Q135-272 171.50-344Q208-416 242-476Q270-470 292.50-457Q315-444 340-419Q330-388 309-353.50Q288-319 265-281Q242-243 223-203Q204-163 198-122Q226-162 264.50-214Q303-266 343.50-312Q384-358 424-390Q464-422 496-422Q508-422 522-418Q536-414 548-408Q560-402 568-396.50Q576-391 577-388Q572-368 553.50-333.50Q535-299 514-261Q493-223 475-187.50Q457-152 454-131Q503-198 546-252.50Q589-307 627-346Q665-385 697.50-406Q730-427 759-427Q779-427 796.50-416.50Q814-406 821-386Q812-356 791.50-314Q771-272 750-225.50Q729-179 712.50-134Q696-89 696-53Q696-32 702-25.50Q708-19 719-19Q731-19 741.50-23.50Q752-28 757-28Q763-24 764-18Q765-12 765-7Q745 9 724 19.50Q703 30 677 30Q653 30 637.50 22Q622 14 612 0Q602-14 598-32Q594-50 594-71Q594-105 603-138.50Q612-172 624.50-202.50Q637-233 651-259.50Q665-286 675-307Z"/><path id="s17:kaushanscript-regular:152" d="M189 7Q235-24 279-72.50Q323-121 359-177.50Q395-234 420-295Q445-356 454-412Q454-424 441-428Q427-428 402.50-403.50Q378-379 348.50-341Q319-303 288.50-256Q258-209 233-162.50Q208-116 190.50-75.50Q173-35 171-10Q161-10 154-30Q152-35 147-40.50Q142-46 131-54Q126-58 121-63.50Q116-69 114-73Q110-81 110-99Q110-158 125-232Q140-306 164.50-383Q189-460 222-534.50Q255-609 290.50-671Q326-733 362-776Q398-819 430-833Q440-830 454-823Q468-816 482-807Q496-798 508.50-789Q521-780 527-773Q417-684 336.50-544.50Q256-405 205-215Q233-267 268-315.50Q303-364 337.50-401Q372-438 403.50-460Q435-482 456-482Q472-478 487-468Q502-458 514-443.50Q526-429 534-412.50Q542-396 544-378Q543-336 529.50-288.50Q516-241 493.50-195Q471-149 442.50-107Q414-65 382.50-33.50Q351-2 319.50 17Q288 36 260 36Q248 36 235.50 33.50Q223 31 212.50 26.50Q202 22 195.50 17Q189 12 189 7Z"/><path id="s17:kaushanscript-regular:206" d="M152 289Q127 279 122 251Q118 224 88 207Q96 156 106 104Q116 52 131.50-14.50Q147-81 170.50-169.50Q194-258 230-384Q197-384 178-383Q159-382 141-379Q137-383 134.50-390Q132-397 132-403Q142-407 173-413.50Q204-420 241-425Q265-501 296-561.50Q327-622 363-665Q399-708 439-731Q479-754 520-754Q532-754 543-752.50Q554-751 560-751Q569-758 584-763.50Q599-769 610-769Q622-769 641-756Q633-742 624-718Q615-694 609-671Q584-597 556-575Q545-575 544-604Q543-625 538-645Q534-654 532.50-661Q531-668 531-679Q531-685 532-693.50Q533-702 536-722Q519-722 498.50-701Q478-680 455.50-641.50Q433-603 410-550Q387-497 366-433L450-436Q455-431 458.50-413.50Q462-396 463-377L353-383Q315-270 282-167Q249-64 223 23Q197 110 178.50 178.50Q160 247 152 289Z"/><path id="s17:kaushanscript-regular:317" d="M156-383Q151-389 147-408.50Q143-428 143-442Q169-440 193-438.50Q217-437 237-436Q252-466 269.50-495.50Q287-525 303.50-549.50Q320-574 334.50-591Q349-608 357-613Q367-613 382.50-609.50Q398-606 414-600.50Q430-595 443-589Q456-583 461-577Q431-539 409.50-506.50Q388-474 363-432Q383-432 403.50-433Q424-434 445-436Q450-431 453-423.50Q456-416 456-408Q407-390 337-388Q312-340 292.50-292.50Q273-245 259.50-201Q246-157 238.50-118Q231-79 231-48Q231-4 264 1Q294-3 321-14Q348-25 369-42Q375-33 376-27Q370-18 355.50-6Q341 6 324 17.50Q307 29 291 37Q275 45 267 46Q242 45 217 35Q192 25 171.50 10Q151-5 138-23.50Q125-42 125-60Q125-84 131.50-120.50Q138-157 150-200Q162-243 178-290Q194-337 213-383L156-383Z"/><path id="s17:kaushanscript-regular:233" d="M98-67Q98-76 99.50-89.50Q101-103 105-125.50Q109-148 115.50-180Q122-212 132-257Q134-267 141-289Q148-311 159.50-335.50Q171-360 187.50-383Q204-406 227-417Q244-413 272-396.50Q300-380 320-351Q297-325 281.50-299Q266-273 253.50-245Q241-217 230.50-187Q220-157 207-124Q196-96 187-66.50Q178-37 177-15Q177 3 176.50 10.50Q176 18 171 18Q167 18 155 13Q143 8 130.50-2.50Q118-13 108-29Q98-45 98-67M289-501Q289-507 292-519Q287-524 283.50-534Q280-544 280-552Q280-561 282.50-576.50Q285-592 289-610Q293-628 299-647.50Q305-667 311-683Q323-683 340.50-676.50Q358-670 376-659.50Q394-649 409-636.50Q424-624 432-613Q421-602 403-582.50Q385-563 368-541.50Q351-520 337-501Q323-482 319-474Q307-476 298-484.50Q289-493 289-501Z"/><path id="s17:kaushanscript-regular:356" d="M473-155Q450-82 427-22Q404 38 378 88.50Q352 139 322 181.50Q292 224 256 262Q210 310 161 335.50Q112 361 63 361Q38 361 13.50 355.50Q-11 350-32.50 340.50Q-54 331-70.50 318.50Q-87 306-94 292Q-94 280-80 271Q-68 282-60 288Q-52 294-44.50 298Q-37 302-28.50 303Q-20 304-9 304Q48 304 102.50 270.50Q157 237 205.50 175.50Q254 114 294 26.50Q334-61 362-169Q349-149 330-120Q311-91 288-62.50Q265-34 240.50-11Q216 12 193 20Q177 19 159.50 13.50Q142 8 126.50-2Q111-12 99-26Q87-40 83-58Q83-87 85-104.50Q87-122 92-143Q101-181 118.50-229Q136-277 159.50-323.50Q183-370 211.50-410.50Q240-451 271-474Q279-474 291-472.50Q303-471 316-467Q329-463 341-457.50Q353-452 362-443Q351-433 314-376Q277-319 232-212Q227-201 220-180Q213-159 206.50-136Q200-113 195-91Q190-69 190-56Q190-48 192.50-44Q195-40 197-38Q215-41 245-67.50Q275-94 313-150Q337-186 357-221.50Q377-257 396.50-293Q416-329 437-367Q458-405 482-445Q495-445 510-442Q525-439 539-434.50Q553-430 563.50-424.50Q574-419 579-413Q548-347 521-284Q494-221 473-155Z"/><path id="s17:kaushanscript-regular:287" d="M125 38Q109 36 91.50 24.50Q74 13 69-1Q69-13 72.50-32Q76-51 81-70.50Q86-90 91-107.50Q96-125 98-134Q110-134 128.50-128Q147-122 166.50-111.50Q186-101 203.50-87.50Q221-74 230-60Q221-40 207-22Q193-4 177.50 9.50Q162 23 148 30.50Q134 38 125 38Z"/><path id="s17:kaushanscript-regular:355" d="M408-6Q397 11 373.50 21.50Q350 32 329 34Q312 14 291-20.50Q270-55 251-101Q200-55 149-17.50Q98 20 54 46Q43 44 36 34Q29 24 28 8Q48-3 75.50-21Q103-39 131.50-60.50Q160-82 186.50-105.50Q213-129 232-151Q215-191 200.50-233.50Q186-276 175.50-315.50Q165-355 159-387.50Q153-420 153-440Q153-454 156.50-458.50Q160-463 173-463Q183-463 197.50-461Q212-459 227-456Q242-453 257-449.50Q272-446 283-442Q281-431 281-423Q281-415 281-400Q281-361 287.50-320.50Q294-280 309-233Q350-280 385-337.50Q420-395 456-475Q481-470 499-460.50Q517-451 522-440Q511-394 460-324Q409-254 330-175Q344-137 364-94.50Q384-52 408-6Z"/><path id="s17:kaushanscript-regular:162" d="M103-176Q103-233 126.50-286.50Q150-340 188.50-381.50Q227-423 276.50-448.50Q326-474 379-474Q431-474 459-448Q487-422 487-374Q487-351 480.50-329.50Q474-308 463.50-291Q453-274 439-263.50Q425-253 411-253Q399-253 386.50-260.50Q374-268 366-280Q433-341 433-391Q433-420 410-420Q390-420 360-401Q330-382 302-351Q259-303 236.50-244.50Q214-186 214-122Q214-41 250-25Q265-27 285-34Q305-41 328-52.50Q351-64 375.50-79Q400-94 423-111Q427-108 430-102Q433-96 433-91Q416-70 394-50Q372-30 348-13.50Q324 3 301.50 14.50Q279 26 262 29Q229 26 200 8.50Q171-9 149.50-37Q128-65 115.50-101Q103-137 103-176Z"/><path id="s17:kaushanscript-regular:38" d="M520-417Q552-417 570.50-399Q589-381 589-349Q589-341 588-332.50Q587-324 584-318Q571-320 555-321.50Q539-323 517-323Q472-323 427-315Q382-307 341-302Q296-196 267-103Q238-10 222 81Q188 73 162 52Q136 31 113-7Q120-23 130-45.50Q140-68 154-102.50Q168-137 187.50-186.50Q207-236 234-305Q192-319 179-354Q184-359 207-365.50Q230-372 263-380Q278-419 289-449.50Q300-480 309-507.50Q318-535 325.50-561.50Q333-588 339-618L334-618Q296-618 272.50-636Q249-654 249-683Q249-691 251.50-702Q254-713 258-721Q277-718 295.50-717Q314-716 344-716Q407-716 462-719.50Q517-723 561.50-727Q606-731 638-734.50Q670-738 687-738Q710-738 728-714Q746-690 756-646Q724-649 704.50-650Q685-651 670-651Q619-651 576.50-646.50Q534-642 496-636Q490-627 482.50-613Q475-599 463-573.50Q451-548 432.50-507Q414-466 386-403Q425-409 460.50-413Q496-417 520-417Z"/><path id="s17:kaushanscript-regular:175" d="M17 169Q11 164 6 152.50Q1 141 1 131Q51 88 72.50 49Q94 10 94-36Q94-66 91.50-87.50Q89-109 82-137Q107-135 131.50-128.50Q156-122 175.50-112.50Q195-103 208-90.50Q221-78 224-66Q177 100 17 169Z"/></defs><g id="line-0"><use x="0" y="900.5" xlink:href="#s17:kaushanscript-regular:100"/><use x="573" y="900.5" xlink:href="#s17:kaushanscript-regular:227"/><use x="1090" y="900.5" xlink:href="#s17:kaushanscript-regular:186"/><use x="1494" y="900.5" xlink:href="#s17:kaushanscript-regular:316"/><use x="1732" y="900.5" xlink:href="#s17:kaushanscript-regular:25"/><use x="2322" y="900.5" xlink:href="#s17:kaushanscript-regular:325"/><use x="2816" y="900.5" xlink:href="#s17:kaushanscript-regular:302"/><use x="3219" y="900.5" xlink:href="#s17:kaushanscript-regular:269"/><use x="3660" y="900.5" xlink:href="#s17:kaushanscript-regular:284"/><use x="4158" y="900.5" xlink:href="#s17:kaushanscript-regular:186"/><use x="4562" y="900.5" xlink:href="#s17:kaushanscript-regular:132"/><use x="5032" y="900.5" xlink:href="#s17:kaushanscript-regular:261"/><use x="5572" y="900.5" xlink:href="#s17:kaushanscript-regular:316"/><use x="5810" y="900.5" xlink:href="#s17:kaushanscript-regular:248"/><use x="6042" y="900.5" xlink:href="#s17:kaushanscript-regular:132"/><use x="6512" y="900.5" xlink:href="#s17:kaushanscript-regular:261"/><use x="7052" y="900.5" xlink:href="#s17:kaushanscript-regular:215"/><use x="7502" y="900.5" xlink:href="#s17:kaushanscript-regular:325"/><use x="7991" y="900.5" xlink:href="#s17:kaushanscript-regular:132"/><use x="8455" y="900.5" xlink:href="#s17:kaushanscript-regular:215"/><use x="8905" y="900.5" xlink:href="#s17:kaushanscript-regular:186"/><use x="9309" y="900.5" xlink:href="#s17:kaushanscript-regular:308"/><use x="9655" y="900.5" xlink:href="#s17:kaushanscript-regular:316"/><use x="9893" y="900.5" xlink:href="#s17:kaushanscript-regular:132"/><use x="10363" y="900.5" xlink:href="#s17:kaushanscript-regular:302"/><use x="10766" y="900.5" xlink:href="#s17:kaushanscript-regular:186"/><use x="11170" y="900.5" xlink:href="#s17:kaushanscript-regular:316"/><use x="11408" y="900.5" xlink:href="#s17:kaushanscript-regular:256"/><use x="12173" y="900.5" xlink:href="#s17:kaushanscript-regular:186"/><use x="12577" y="900.5" xlink:href="#s17:kaushanscript-regular:256"/><use x="13342" y="900.5" xlink:href="#s17:kaushanscript-regular:152"/><use x="13814" y="900.5" xlink:href="#s17:kaushanscript-regular:186"/><use x="14218" y="900.5" xlink:href="#s17:kaushanscript-regular:302"/><use x="14605" y="900.5" xlink:href="#s17:kaushanscript-regular:308"/><use x="14951" y="900.5" xlink:href="#s17:kaushanscript-regular:316"/><use x="15189" y="900.5" xlink:href="#s17:kaushanscript-regular:269"/><use x="15615" y="900.5" xlink:href="#s17:kaushanscript-regular:206"/><use x="15957" y="900.5" xlink:href="#s17:kaushanscript-regular:316"/><use x="16195" y="900.5" xlink:href="#s17:kaushanscript-regular:317"/><use x="16547" y="900.5" xlink:href="#s17:kaushanscript-regular:227"/><use x="17064" y="900.5" xlink:href="#s17:kaushanscript-regular:186"/><use x="17468" y="900.5" xlink:href="#s17:kaushanscript-regular:316"/><use x="17706" y="900.5" xlink:href="#s17:kaushanscript-regular:308"/><use x="18052" y="900.5" xlink:href="#s17:kaushanscript-regular:132"/><use x="18522" y="900.5" xlink:href="#s17:kaushanscript-regular:256"/><use x="19287" y="900.5" xlink:href="#s17:kaushanscript-regular:186"/><use x="19691" y="900.5" xlink:href="#s17:kaushanscript-regular:316"/><use x="19929" y="900.5" xlink:href="#s17:kaushanscript-regular:206"/><use x="20266" y="900.5" xlink:href="#s17:kaushanscript-regular:132"/><use x="20736" y="900.5" xlink:href="#s17:kaushanscript-regular:256"/><use x="21501" y="900.5" xlink:href="#s17:kaushanscript-regular:233"/><use x="21737" y="900.5" xlink:href="#s17:kaushanscript-regular:248"/><use x="21973" y="900.5" xlink:href="#s17:kaushanscript-regular:356"/><use x="22462" y="900.5" xlink:href="#s17:kaushanscript-regular:287"/></g><g id="line-1"><use x="4556" y="2100.5" xlink:href="#s17:kaushanscript-regular:100"/><use x="5129" y="2100.5" xlink:href="#s17:kaushanscript-regular:227"/><use x="5646" y="2100.5" xlink:href="#s17:kaushanscript-regular:186"/><use x="6050" y="2100.5" xlink:href="#s17:kaushanscript-regular:233"/><use x="6286" y="2100.5" xlink:href="#s17:kaushanscript-regular:302"/><use x="6689" y="2100.5" xlink:href="#s17:kaushanscript-regular:316"/><use x="6927" y="2100.5" xlink:href="#s17:kaushanscript-regular:308"/><use x="7273" y="2100.5" xlink:href="#s17:kaushanscript-regular:186"/><use x="7677" y="2100.5" xlink:href="#s17:kaushanscript-regular:284"/><use x="8175" y="2100.5" xlink:href="#s17:kaushanscript-regular:132"/><use x="8645" y="2100.5" xlink:href="#s17:kaushanscript-regular:302"/><use x="9048" y="2100.5" xlink:href="#s17:kaushanscript-regular:132"/><use x="9501" y="2100.5" xlink:href="#s17:kaushanscript-regular:317"/><use x="9853" y="2100.5" xlink:href="#s17:kaushanscript-regular:186"/><use x="10257" y="2100.5" xlink:href="#s17:kaushanscript-regular:316"/><use x="10495" y="2100.5" xlink:href="#s17:kaushanscript-regular:186"/><use x="10894" y="2100.5" xlink:href="#s17:kaushanscript-regular:355"/><use x="11315" y="2100.5" xlink:href="#s17:kaushanscript-regular:233"/><use x="11551" y="2100.5" xlink:href="#s17:kaushanscript-regular:308"/><use x="11897" y="2100.5" xlink:href="#s17:kaushanscript-regular:317"/><use x="12249" y="2100.5" xlink:href="#s17:kaushanscript-regular:186"/><use x="12653" y="2100.5" xlink:href="#s17:kaushanscript-regular:261"/><use x="13193" y="2100.5" xlink:href="#s17:kaushanscript-regular:162"/><use x="13613" y="2100.5" xlink:href="#s17:kaushanscript-regular:186"/><use x="14017" y="2100.5" xlink:href="#s17:kaushanscript-regular:316"/><use x="14255" y="2100.5" xlink:href="#s17:kaushanscript-regular:233"/><use x="14491" y="2100.5" xlink:href="#s17:kaushanscript-regular:308"/><use x="14837" y="2100.5" xlink:href="#s17:kaushanscript-regular:316"/><use x="15075" y="2100.5" xlink:href="#s17:kaushanscript-regular:132"/><use x="15545" y="2100.5" xlink:href="#s17:kaushanscript-regular:316"/><use x="15783" y="2100.5" xlink:href="#s17:kaushanscript-regular:256"/><use x="16548" y="2100.5" xlink:href="#s17:kaushanscript-regular:356"/><use x="17037" y="2100.5" xlink:href="#s17:kaushanscript-regular:317"/><use x="17389" y="2100.5" xlink:href="#s17:kaushanscript-regular:227"/><use x="17906" y="2100.5" xlink:href="#s17:kaushanscript-regular:287"/></g><g id="line-2"><use x="5591.5" y="3300.5" xlink:href="#s17:kaushanscript-regular:38"/><use x="6128.5" y="3300.5" xlink:href="#s17:kaushanscript-regular:269"/><use x="6569.5" y="3300.5" xlink:href="#s17:kaushanscript-regular:302"/><use x="6972.5" y="3300.5" xlink:href="#s17:kaushanscript-regular:316"/><use x="7210.5" y="3300.5" xlink:href="#s17:kaushanscript-regular:308"/><use x="7556.5" y="3300.5" xlink:href="#s17:kaushanscript-regular:162"/><use x="7976.5" y="3300.5" xlink:href="#s17:kaushanscript-regular:233"/><use x="8212.5" y="3300.5" xlink:href="#s17:kaushanscript-regular:186"/><use x="8616.5" y="3300.5" xlink:href="#s17:kaushanscript-regular:261"/><use x="9156.5" y="3300.5" xlink:href="#s17:kaushanscript-regular:162"/><use x="9576.5" y="3300.5" xlink:href="#s17:kaushanscript-regular:186"/><use x="9980.5" y="3300.5" xlink:href="#s17:kaushanscript-regular:175"/><use x="10220.5" y="3300.5" xlink:href="#s17:kaushanscript-regular:316"/><use x="10458.5" y="3300.5" xlink:href="#s17:kaushanscript-regular:256"/><use x="11223.5" y="3300.5" xlink:href="#s17:kaushanscript-regular:325"/><use x="11717.5" y="3300.5" xlink:href="#s17:kaushanscript-regular:308"/><use x="12063.5" y="3300.5" xlink:href="#s17:kaushanscript-regular:233"/><use x="12299.5" y="3300.5" xlink:href="#s17:kaushanscript-regular:162"/><use x="12719.5" y="3300.5" xlink:href="#s17:kaushanscript-regular:175"/><use x="12959.5" y="3300.5" xlink:href="#s17:kaushanscript-regular:316"/><use x="13197.5" y="3300.5" xlink:href="#s17:kaushanscript-regular:308"/><use x="13543.5" y="3300.5" xlink:href="#s17:kaushanscript-regular:284"/><use x="14041.5" y="3300.5" xlink:href="#s17:kaushanscript-regular:269"/><use x="14482.5" y="3300.5" xlink:href="#s17:kaushanscript-regular:302"/><use x="14885.5" y="3300.5" xlink:href="#s17:kaushanscript-regular:317"/><use x="15237.5" y="3300.5" xlink:href="#s17:kaushanscript-regular:175"/><use x="15477.5" y="3300.5" xlink:href="#s17:kaushanscript-regular:316"/><use x="15715.5" y="3300.5" xlink:href="#s17:kaushanscript-regular:186"/><use x="16112.5" y="3300.5" xlink:href="#s17:kaushanscript-regular:317"/><use x="16456.5" y="3300.5" xlink:href="#s17:kaushanscript-regular:162"/><use x="16876.5" y="3300.5" xlink:href="#s17:kaushanscript-regular:175"/></g></svg>