<svg xmlns="http://www.w3.org/2000/svg" xmlns:xlink="http://www.w3.org/1999/xlink" width="576" height="84" viewBox="0 0 47980 6987"><defs><path id="s21:lato-blackitalic:55" d="M1206-1457L1172-1199L802-1199L654 0L330 0L476-1199L104-1199L136-1457L1206-1457Z"/><path id="s21:lato-blackitalic:75" d="M43 0L225-1497L535-1497L462-901Q533-979 612-1016Q691-1053 775-1053Q833-1053 882.50-1032Q932-1011 967-970.50Q1002-930 1022-871Q1042-812 1042-735Q1042-717 1040.50-698Q1039-679 1037-659L959 0L649 0L727-659Q729-675 730-688.50Q731-702 731-714Q731-768 712-789Q693-810 655-810Q624-810 590-791.50Q556-773 524.50-739Q493-705 465.50-657Q438-609 420-550L353 0L43 0Z"/><path id="s21:lato-blackitalic:72" d="M951-782Q951-711 923-652Q895-593 825.50-547.50Q756-502 638.50-470Q521-438 343-420Q345-314 389.50-265Q434-216 521-216Q562-216 592-223Q622-230 644.50-241Q667-252 685-264Q703-276 719.50-287Q736-298 754-305Q772-312 795-312Q810-312 824-304.50Q838-297 849-285L929-192Q874-138 821.50-98.50Q769-59 713.50-33.50Q658-8 595.50 4Q533 16 459 16Q367 16 290-15.50Q213-47 157.50-104.50Q102-162 71.50-243Q41-324 41-423Q41-506 59.50-585Q78-664 112.50-733.50Q147-803 197-861.50Q247-920 309.50-962Q372-1004 446.50-1027.50Q521-1051 605-1051Q688-1051 752.50-1027Q817-1003 861-964.50Q905-926 928-878Q951-830 951-782M587-842Q510-842 452-780.50Q394-719 365-612Q462-627 522-643.50Q582-660 615-679.50Q648-699 659.50-721.50Q671-744 671-770Q671-796 651-819Q631-842 587-842Z"/><path id="s21:lato-blackitalic:3" d=""/><path id="s21:lato-blackitalic:40" d="M1060-1206L521-1206L477-854L890-854L858-612L447-612L403-251L946-251L914 0L44 0L224-1457L1092-1457L1060-1206Z"/><path id="s21:lato-blackitalic:88" d="M459-1037L381-379Q379-363 378-349.50Q377-336 377-324Q377-271 395.50-250Q414-229 451-229Q482-229 516.50-247.50Q551-266 583-299.50Q615-333 642.50-381Q670-429 688-488L755-1037L1065-1037L939 0L781 0Q671 0 671-102L671-168Q596-74 510-29Q424 16 331 16Q273 16 224.50-5Q176-26 140.50-66.50Q105-107 85.50-166.50Q66-226 66-303Q66-321 67.50-340Q69-359 71-379L149-1037L459-1037Z"/><path id="s21:lato-blackitalic:85" d="M35 0L161-1037L321-1037Q369-1037 396-1014.50Q423-992 423-941L423-823Q483-929 553-986Q623-1043 698-1043Q740-1043 781-1024L725-737Q674-759 628-759Q551-759 491.50-689.50Q432-620 395-466L339 0L35 0Z"/><path id="s21:lato-blackitalic:82" d="M471-214Q523-214 564-245.50Q605-277 633.50-331.50Q662-386 677.50-458.50Q693-531 693-613Q693-726 662.50-774.50Q632-823 563-823Q511-823 470-791.50Q429-760 400.50-706Q372-652 356.50-579Q341-506 341-424Q341-313 371.50-263.50Q402-214 471-214M443 16Q356 16 280.50-13Q205-42 149.50-97.50Q94-153 62.50-234.50Q31-316 31-422Q31-560 76.50-675.50Q122-791 199-875Q276-959 377.50-1006Q479-1053 591-1053Q678-1053 753-1024Q828-995 883.50-939.50Q939-884 971-802.50Q1003-721 1003-615Q1003-479 957.50-363.50Q912-248 835-163.50Q758-79 656.50-31.50Q555 16 443 16Z"/><path id="s21:lato-blackitalic:83" d="M-5 329L161-1037L321-1037Q369-1037 396-1014.50Q423-992 423-941L423-847Q494-943 581-998Q668-1053 767-1053Q831-1053 884-1030.50Q937-1008 975.50-960Q1014-912 1035.50-837.50Q1057-763 1057-660Q1057-524 1015.50-401.50Q974-279 904-186Q834-93 742.50-38.50Q651 16 551 16Q486 16 435-5Q384-26 345-61L297 329L-5 329M643-818Q611-818 576-793.50Q541-769 508.50-726.50Q476-684 447.50-627Q419-570 400-505L369-255Q398-232 433.50-222Q469-212 501-212Q555-212 600.50-248Q646-284 679-342.50Q712-401 730.50-476Q749-551 749-629Q749-728 720-773Q691-818 643-818Z"/><path id="s21:lato-blackitalic:68" d="M897 0L731 0Q702 0 682.50-7.50Q663-15 651.50-28Q640-41 635.50-59Q631-77 631-98L631-172Q567-84 489-34Q411 16 317 16Q261 16 209-6.50Q157-29 117-74.50Q77-120 53-190.50Q29-261 29-357Q29-498 80.50-624.50Q132-751 224.50-846Q317-941 444-997Q571-1053 723-1053Q797-1053 873-1043Q949-1033 1023-1007L897 0M441-229Q475-229 507-254.50Q539-280 567.50-324Q596-368 620-427Q644-486 661-553L697-840L679-840Q603-840 540.50-806Q478-772 433-713.50Q388-655 363.50-577.50Q339-500 339-412Q339-362 347-327Q355-292 368.50-270.50Q382-249 400.50-239Q419-229 441-229Z"/><path id="s21:lato-blackitalic:81" d="M641 0L719-659Q721-675 722-688.50Q723-702 723-714Q723-767 704.50-787.50Q686-808 649-808Q615-808 578-787Q541-766 507.50-728Q474-690 446-635.50Q418-581 402-515L345 0L35 0L159-1037L319-1037Q367-1037 394-1014.50Q421-992 421-941L421-858Q496-958 585-1005.50Q674-1053 769-1053Q827-1053 875.50-1032Q924-1011 959-970.50Q994-930 1014-871Q1034-812 1034-735Q1034-717 1032.50-698Q1031-679 1029-659L951 0L641 0Z"/><path id="s21:lato-blackitalic:79" d="M43 0L225-1497L531-1497L349 0L43 0Z"/><path id="s21:lato-blackitalic:74" d="M901-727Q901-663 883.50-618Q866-573 845-533Q824-493 806.50-451Q789-409 789-352Q789-311 802.50-276.50Q816-242 832-206Q848-170 861.50-130Q875-90 875-38Q875 42 840 113.50Q805 185 739 238.50Q673 292 576.50 323.50Q480 355 357 355Q256 355 176 334Q96 313 40.50 277Q-15 241-45 191.50Q-75 142-75 85Q-75-3-30.50-61.50Q14-120 84-155.50Q154-191 239-205.50Q324-220 405-220Q451-220 492.50-216Q534-212 569-205Q567-217 567-229.50Q567-242 567-256Q567-309 594-377Q555-351 504.50-336Q454-321 379-321Q320-321 266-340.50Q212-360 170.50-400Q129-440 104-500.50Q79-561 79-644Q79-721 108.50-794.50Q138-868 196.50-925.50Q255-983 341.50-1018Q428-1053 543-1053Q602-1053 656.50-1039.50Q711-1026 757-999L1055-999L1041-902Q1032-841 983-825L895-795Q901-762 901-727M469-501Q506-501 533.50-520Q561-539 579.50-569.50Q598-600 607.50-638Q617-676 617-715Q617-780 590-816Q563-852 507-852Q470-852 442.50-834.50Q415-817 397-788Q379-759 370-721Q361-683 361-642Q361-576 388-538.50Q415-501 469-501M593-14Q593-20 593-26Q593-32 592-37Q541-45 498.50-49Q456-53 421-53Q367-53 328.50-45Q290-37 265.50-23.50Q241-10 230 8.50Q219 27 219 47Q219 98 256.50 124Q294 150 383 150Q429 150 468 138Q507 126 534.50 104.50Q562 83 577.50 53Q593 23 593-14Z"/><path id="s21:lato-blackitalic:86" d="M743-819Q729-801 717-793Q705-785 685-785Q665-785 645.50-794Q626-803 603.50-814.50Q581-826 552.50-835Q524-844 487-844Q418-844 388.50-817.50Q359-791 359-749Q359-722 375.50-703Q392-684 419-669Q446-654 480.50-641.50Q515-629 551-613.50Q587-598 621.50-578Q656-558 683-529Q710-500 726.50-460Q743-420 743-365Q743-287 712-217.50Q681-148 623-96.50Q565-45 482.50-14.50Q400 16 297 16Q248 16 200 6Q152-4 109.50-21Q67-38 32-61.50Q-3-85-25-112L51-226Q65-246 83.50-257.50Q102-269 129-269Q154-269 172-257Q190-245 211-231Q232-217 261-205Q290-193 337-193Q403-193 435-222.50Q467-252 467-292Q467-323 450.50-343Q434-363 407-377.50Q380-392 346-403.50Q312-415 276-429Q240-443 206-461.50Q172-480 145-508Q118-536 101.50-577Q85-618 85-676Q85-748 111.50-816Q138-884 190.50-936.50Q243-989 321-1021Q399-1053 503-1053Q607-1053 688.50-1017Q770-981 823-929L743-819Z"/><path id="s21:lato-blackitalic:80" d="M35 0L161-1037L321-1037Q369-1037 396-1014.50Q423-992 423-941L423-880Q489-968 562-1010.50Q635-1053 715-1053Q803-1053 861-996Q919-939 935-830Q1004-945 1086-999Q1168-1053 1271-1053Q1329-1053 1376.50-1032.50Q1424-1012 1457.50-972Q1491-932 1509.50-874Q1528-816 1528-740Q1528-721 1526.50-700.50Q1525-680 1523-659L1445 0L1139 0L1217-659Q1219-676 1220-690Q1221-704 1221-717Q1221-768 1205-788Q1189-808 1157-808Q1126-808 1097.50-791.50Q1069-775 1043.50-743.50Q1018-712 997-667.50Q976-623 960-568L893 0L587 0L665-659Q667-676 668-690Q669-704 669-717Q669-768 653-788Q637-808 605-808Q574-808 545-791Q516-774 490.50-742Q465-710 444-664.50Q423-619 407-563L339 0L35 0Z"/><path id="s21:lato-blackitalic:69" d="M43 0L225-1497L529-1497L452-874Q521-958 602.50-1005.50Q684-1053 775-1053Q839-1053 892-1030.50Q945-1008 983.50-960Q1022-912 1043.50-837.50Q1065-763 1065-660Q1065-524 1023.50-401.50Q982-279 912-186Q842-93 750.50-38.50Q659 16 559 16Q482 16 423.50-13.50Q365-43 324-91L321-81Q307-39 285-19.50Q263 0 213 0L43 0M651-818Q618-818 582.50-793Q547-768 514-724.50Q481-681 452.50-622.50Q424-564 405-498L375-256Q404-232 440-222Q476-212 509-212Q563-212 608.50-248Q654-284 687-342.50Q720-401 738.50-476Q757-551 757-629Q757-728 728-773Q699-818 651-818Z"/><path id="s21:lato-blackitalic:73" d="M484-823L391-50L337 124Q319 182 282 214Q245 246 177 246L51 246L180-824L119-838Q93-844 75.50-859.50Q58-875 58-902Q58-909 59-913L75-1035L206-1035L213-1094Q224-1183 262-1255Q300-1327 359-1378Q418-1429 495.50-1457Q573-1485 663-1485Q698-1485 727.50-1480.50Q757-1476 787-1466L759-1310Q754-1284 731-1276Q708-1268 685-1268Q608-1268 562.50-1227Q517-1186 505-1084L499-1035L709-1035L681-823L484-823Z"/><path id="s21:lato-blackitalic:87" d="M135-224Q135-231 135-241Q135-251 136.50-269.50Q138-288 141.50-318.50Q145-349 151-399L204-823L121-823Q102-823 89-835.50Q76-848 76-873Q76-874 78-890.50Q80-907 82-925.50Q84-944 86-960Q88-976 88-978L91-1005L248-1037L335-1290Q350-1338 403-1338L571-1338L533-1035L765-1035L739-823L507-823L457-416Q452-375 449.50-351.50Q447-328 445.50-315.50Q444-303 443.50-298.50Q443-294 443-293Q443-264 456.50-244.50Q470-225 499-225Q515-225 525.50-228.50Q536-232 544-236.50Q552-241 559-244.50Q566-248 575-248Q589-248 596-241.50Q603-235 609-221L677-74Q615-29 544-6.50Q473 16 401 16Q341 16 293-0.50Q245-17 210.50-48.50Q176-80 156.50-124Q137-168 135-224Z"/><path id="s21:lato-blackitalic:76" d="M485-1037L361 0L55 0L179-1037L485-1037M543-1321Q543-1284 527-1251.50Q511-1219 485-1194.50Q459-1170 425.50-1155.50Q392-1141 357-1141Q322-1141 290-1155.50Q258-1170 233.50-1194.50Q209-1219 194-1251.50Q179-1284 179-1321Q179-1358 194-1391Q209-1424 234.50-1449Q260-1474 292-1488.50Q324-1503 359-1503Q395-1503 428-1489Q461-1475 486.50-1450Q512-1425 527.50-1392Q543-1359 543-1321Z"/><path id="s21:lato-blackitalic:92" d="M421 270Q405 301 381.50 315Q358 329 325 329L93 329L330-93L73-1037L335-1037Q368-1037 384.50-1021Q401-1005 407-983L497-536Q503-507 508-478.50Q513-450 516-421Q528-450 542-479.50Q556-509 569-538L761-983Q773-1006 796-1021.50Q819-1037 843-1037L1093-1037L421 270Z"/><path id="s21:lato-blackitalic:17" d="M24-157Q24-193 37.50-224Q51-255 74.50-278Q98-301 130-314.50Q162-328 200-328Q237-328 269-314.50Q301-301 325-278Q349-255 362.50-224Q376-193 376-157Q376-121 362.50-89.50Q349-58 325-35Q301-12 269 1Q237 14 200 14Q162 14 130 1Q98-12 74.50-35Q51-58 37.50-89.50Q24-121 24-157Z"/><path id="s21:lato-blackitalic:91" d="M346-562L113-1037L397-1037Q427-1037 440.50-1029Q454-1021 463-1001L578-734Q585-747 593-759Q601-771 609-784L745-995Q771-1037 811-1037L1093-1037L733-563L991 0L707 0Q677 0 659.50-16Q642-32 633-54L504-371Q499-360 493-350Q487-340 481-332L297-54Q283-33 263.50-16.50Q244 0 215 0L-59 0L346-562Z"/><path id="s21:lato-blackitalic:70" d="M855-182Q805-127 759-89Q713-51 664-28Q615-5 559.50 5.50Q504 16 437 16Q346 16 273-15Q200-46 148.50-103Q97-160 69-241Q41-322 41-423Q41-550 82.50-664Q124-778 198.50-864Q273-950 375-1000.50Q477-1051 599-1051Q703-1051 777.50-1015.50Q852-980 911-904L811-789Q800-778 786-769.50Q772-761 755-761Q735-761 721.50-769.50Q708-778 692-787.50Q676-797 653-805.50Q630-814 593-814Q547-814 503.50-787.50Q460-761 426-711Q392-661 371.50-588Q351-515 351-422Q351-370 363-331.50Q375-293 396-267.50Q417-242 445-229Q473-216 505-216Q553-216 582.50-229.50Q612-243 634-259Q656-275 675-288.50Q694-302 721-302Q736-302 750.50-295Q765-288 775-276L855-182L855-182Z"/><path id="s21:lato-blackitalic:41" d="M1060-1206L521-1206L473-822L924-822L890-571L442-571L372 0L44 0L224-1457L1092-1457L1060-1206Z"/><path id="s21:lato-blackitalic:15" d="M30-176Q30-208 42-235.50Q54-263 76.50-283.50Q99-304 129.50-316Q160-328 198-328Q243-328 276-312.50Q309-297 331-270.50Q353-244 363.50-209.50Q374-175 374-137Q374-87 358-30.50Q342 26 310.50 83Q279 140 232 195Q185 250 124 295L70 247Q59 236 53.50 227Q48 218 48 205Q48 189 65.50 169Q83 149 105.50 123.50Q128 98 150 66.50Q172 35 182-5Q148-8 120-22Q92-36 72-58.50Q52-81 41-111Q30-141 30-176Z"/></defs><g id="line-0"><use x="0" y="1761" xlink:href="#s21:lato-blackitalic:55"/><use x="1104" y="1761" xlink:href="#s21:lato-blackitalic:75"/><use x="2212" y="1761" xlink:href="#s21:lato-blackitalic:72"/><use x="3180" y="1761" xlink:href="#s21:lato-blackitalic:3"/><use x="3566" y="1761" xlink:href="#s21:lato-blackitalic:40"/><use x="4602" y="1761" xlink:href="#s21:lato-blackitalic:88"/><use x="5700" y="1761" xlink:href="#s21:lato-blackitalic:85"/><use x="6410" y="1761" xlink:href="#s21:lato-blackitalic:82"/><use x="7444" y="1761" xlink:href="#s21:lato-blackitalic:83"/><use x="8526" y="1761" xlink:href="#s21:lato-blackitalic:72"/><use x="9494" y="1761" xlink:href="#s21:lato-blackitalic:68"/><use x="10552" y="1761" xlink:href="#s21:lato-blackitalic:81"/><use x="11652" y="1761" xlink:href="#s21:lato-blackitalic:3"/><use x="12038" y="1761" xlink:href="#s21:lato-blackitalic:79"/><use x="12558" y="1761" xlink:href="#s21:lato-blackitalic:68"/><use x="13616" y="1761" xlink:href="#s21:lato-blackitalic:81"/><use x="14716" y="1761" xlink:href="#s21:lato-blackitalic:74"/><use x="15724" y="1761" xlink:href="#s21:lato-blackitalic:88"/><use x="16822" y="1761" xlink:href="#s21:lato-blackitalic:68"/><use x="17880" y="1761" xlink:href="#s21:lato-blackitalic:74"/><use x="18888" y="1761" xlink:href="#s21:lato-blackitalic:72"/><use x="19856" y="1761" xlink:href="#s21:lato-blackitalic:86"/><use x="20646" y="1761" xlink:href="#s21:lato-blackitalic:3"/><use x="21032" y="1761" xlink:href="#s21:lato-blackitalic:68"/><use x="22090" y="1761" xlink:href="#s21:lato-blackitalic:85"/><use x="22800" y="1761" xlink:href="#s21:lato-blackitalic:72"/><use x="23768" y="1761" xlink:href="#s21:lato-blackitalic:3"/><use x="24154" y="1761" xlink:href="#s21:lato-blackitalic:80"/><use x="25748" y="1761" xlink:href="#s21:lato-blackitalic:72"/><use x="26716" y="1761" xlink:href="#s21:lato-blackitalic:80"/><use x="28310" y="1761" xlink:href="#s21:lato-blackitalic:69"/><use x="29410" y="1761" xlink:href="#s21:lato-blackitalic:72"/><use x="30378" y="1761" xlink:href="#s21:lato-blackitalic:85"/><use x="31128" y="1761" xlink:href="#s21:lato-blackitalic:86"/><use x="31918" y="1761" xlink:href="#s21:lato-blackitalic:3"/><use x="32304" y="1761" xlink:href="#s21:lato-blackitalic:82"/><use x="33338" y="1761" xlink:href="#s21:lato-blackitalic:73"/><use x="34002" y="1761" xlink:href="#s21:lato-blackitalic:3"/><use x="34388" y="1761" xlink:href="#s21:lato-blackitalic:87"/><use x="35118" y="1761" xlink:href="#s21:lato-blackitalic:75"/><use x="36226" y="1761" xlink:href="#s21:lato-blackitalic:72"/><use x="37194" y="1761" xlink:href="#s21:lato-blackitalic:3"/><use x="37580" y="1761" xlink:href="#s21:lato-blackitalic:86"/><use x="38370" y="1761" xlink:href="#s21:lato-blackitalic:68"/><use x="39428" y="1761" xlink:href="#s21:lato-blackitalic:80"/><use x="41022" y="1761" xlink:href="#s21:lato-blackitalic:72"/><use x="41990" y="1761" xlink:href="#s21:lato-blackitalic:3"/><use x="42376" y="1761" xlink:href="#s21:lato-blackitalic:73"/><use x="43040" y="1761" xlink:href="#s21:lato-blackitalic:68"/><use x="44098" y="1761" xlink:href="#s21:lato-blackitalic:80"/><use x="45692" y="1761" xlink:href="#s21:lato-blackitalic:76"/><use x="46232" y="1761" xlink:href="#s21:lato-blackitalic:79"/><use x="46752" y="1761" xlink:href="#s21:lato-blackitalic:92"/><use x="47604" y="1761" xlink:href="#s21:lato-blackitalic:17"/></g><g id="line-1"><use x="9549" y="4161" xlink:href="#s21:lato-blackitalic:55"/><use x="10653" y="4161" xlink:href="#s21:lato-blackitalic:75"/><use x="11761" y="4161" xlink:href="#s21:lato-blackitalic:72"/><use x="12729" y="4161" xlink:href="#s21:lato-blackitalic:76"/><use x="13269" y="4161" xlink:href="#s21:lato-blackitalic:85"/><use x="14019" y="4161" xlink:href="#s21:lato-blackitalic:3"/><use x="14405" y="4161" xlink:href="#s21:lato-blackitalic:86"/><use x="15195" y="4161" xlink:href="#s21:lato-blackitalic:72"/><use x="16163" y="4161" xlink:href="#s21:lato-blackitalic:83"/><use x="17245" y="4161" xlink:href="#s21:lato-blackitalic:68"/><use x="18303" y="4161" xlink:href="#s21:lato-blackitalic:85"/><use x="19013" y="4161" xlink:href="#s21:lato-blackitalic:68"/><use x="20071" y="4161" xlink:href="#s21:lato-blackitalic:87"/><use x="20801" y="4161" xlink:href="#s21:lato-blackitalic:72"/><use x="21769" y="4161" xlink:href="#s21:lato-blackitalic:3"/><use x="22155" y="4161" xlink:href="#s21:lato-blackitalic:72"/><use x="23063" y="4161" xlink:href="#s21:lato-blackitalic:91"/><use x="24133" y="4161" xlink:href="#s21:lato-blackitalic:76"/><use x="24673" y="4161" xlink:href="#s21:lato-blackitalic:86"/><use x="25463" y="4161" xlink:href="#s21:lato-blackitalic:87"/><use x="26193" y="4161" xlink:href="#s21:lato-blackitalic:72"/><use x="27161" y="4161" xlink:href="#s21:lato-blackitalic:81"/><use x="28261" y="4161" xlink:href="#s21:lato-blackitalic:70"/><use x="29137" y="4161" xlink:href="#s21:lato-blackitalic:72"/><use x="30105" y="4161" xlink:href="#s21:lato-blackitalic:3"/><use x="30491" y="4161" xlink:href="#s21:lato-blackitalic:76"/><use x="31031" y="4161" xlink:href="#s21:lato-blackitalic:86"/><use x="31821" y="4161" xlink:href="#s21:lato-blackitalic:3"/><use x="32207" y="4161" xlink:href="#s21:lato-blackitalic:68"/><use x="33265" y="4161" xlink:href="#s21:lato-blackitalic:3"/><use x="33651" y="4161" xlink:href="#s21:lato-blackitalic:80"/><use x="35185" y="4161" xlink:href="#s21:lato-blackitalic:92"/><use x="36217" y="4161" xlink:href="#s21:lato-blackitalic:87"/><use x="36947" y="4161" xlink:href="#s21:lato-blackitalic:75"/><use x="38055" y="4161" xlink:href="#s21:lato-blackitalic:17"/></g><g id="line-2"><use x="11961" y="6561" xlink:href="#s21:lato-blackitalic:41"/><use x="12925" y="6561" xlink:href="#s21:lato-blackitalic:82"/><use x="13959" y="6561" xlink:href="#s21:lato-blackitalic:85"/><use x="14709" y="6561" xlink:href="#s21:lato-blackitalic:3"/><use x="15095" y="6561" xlink:href="#s21:lato-blackitalic:86"/><use x="15885" y="6561" xlink:href="#s21:lato-blackitalic:70"/><use x="16761" y="6561" xlink:href="#s21:lato-blackitalic:76"/><use x="17301" y="6561" xlink:href="#s21:lato-blackitalic:72"/><use x="18269" y="6561" xlink:href="#s21:lato-blackitalic:81"/><use x="19369" y="6561" xlink:href="#s21:lato-blackitalic:70"/><use x="20245" y="6561" xlink:href="#s21:lato-blackitalic:72"/><use x="21213" y="6561" xlink:href="#s21:lato-blackitalic:15"/><use x="21685" y="6561" xlink:href="#s21:lato-blackitalic:3"/><use x="22071" y="6561" xlink:href="#s21:lato-blackitalic:80"/><use x="23665" y="6561" xlink:href="#s21:lato-blackitalic:88"/><use x="24763" y="6561" xlink:href="#s21:lato-blackitalic:86"/><use x="25553" y="6561" xlink:href="#s21:lato-blackitalic:76"/><use x="26093" y="6561" xlink:href="#s21:lato-blackitalic:70"/><use x="26969" y="6561" xlink:href="#s21:lato-blackitalic:15"/><use x="27441" y="6561" xlink:href="#s21:lato-blackitalic:3"/><use x="27827" y="6561" xlink:href="#s21:lato-blackitalic:86"/><use x="28617" y="6561" xlink:href="#s21:lato-blackitalic:83"/><use x="29699" y="6561" xlink:href="#s21:lato-blackitalic:82"/><use x="30733" y="6561" xlink:href="#s21:lato-blackitalic:85"/><use x="31483" y="6561" xlink:href="#s21:lato-blackitalic:87"/><use x="32213" y="6561" xlink:href="#s21:lato-blackitalic:15"/><use x="32685" y="6561" xlink:href="#s21:lato-blackitalic:3"/><use x="33071" y="6561" xlink:href="#s21:lato-blackitalic:72"/><use x="34039" y="6561" xlink:href="#s21:lato-blackitalic:87"/><use x="34769" y="6561" xlink:href="#s21:lato-blackitalic:70"/><use x="35645" y="6561" xlink:href="#s21:lato-blackitalic:15"/></g></svg>