<svg xmlns="http://www.w3.org/2000/svg" xmlns:xlink="http://www.w3.org/1999/xlink" width="578" height="84" viewBox="0 0 48180 6987" ><defs><path id="s62:lato-light:55" d="M1134-1415L1134-1328L637-1328L637 0L535 0L535-1328L35-1328L35-1415L1134-1415Z"/><path id="s62:lato-light:75" d="M162 0L162-1455L257-1455L257-825Q326-910 414.50-960.50Q503-1011 613-1011Q695-1011 757.50-985Q820-959 861-910Q902-861 923-792Q944-723 944-636L944 0L849 0L849-636Q849-776 785-855.50Q721-935 589-935Q491-935 407-884.50Q323-834 257-746L257 0L162 0Z"/><path id="s62:lato-light:72" d="M537-1011Q621-1011 692.50-982Q764-953 816.50-897.50Q869-842 898.50-761Q928-680 928-575Q928-553 921.50-545Q915-537 901-537L182-537L182-518Q182-406 208-321Q234-236 282-178.50Q330-121 398-92Q466-63 550-63Q625-63 680-79.50Q735-96 772.50-116.50Q810-137 832-153.50Q854-170 864-170Q877-170 884-160L910-128Q886-98 846.50-72Q807-46 758.50-27.50Q710-9 654.50 2Q599 13 543 13Q441 13 357-22.50Q273-58 213-126Q153-194 120.50-292.50Q88-391 88-518Q88-625 118.50-715.50Q149-806 206.50-871.50Q264-937 347.50-974Q431-1011 537-1011M538-940Q461-940 400-916Q339-892 294.50-847Q250-802 222.50-739Q195-676 186-598L842-598Q842-678 820-741.50Q798-805 758-849Q718-893 662-916.50Q606-940 538-940Z"/><path id="s62:lato-light:3" d=""/><path id="s62:lato-light:40" d="M1058-1415L1058-1330L313-1330L313-758L933-758L933-675L313-675L313-85L1058-85L1058 0L210 0L210-1415L1058-1415Z"/><path id="s62:lato-light:88" d="M233-995L233-359Q233-219 297-139.50Q361-60 492-60Q589-60 673-109.50Q757-159 824-247L824-995L920-995L920 0L867 0Q839 0 838-26L829-174Q760-88 669.50-36Q579 16 468 16Q385 16 323-10Q261-36 220-85Q179-134 158-203Q137-272 137-359L137-995L233-995Z"/><path id="s62:lato-light:85" d="M162 0L162-995L212-995Q229-995 236.50-988Q244-981 245-964L253-754Q301-875 381-943.50Q461-1012 578-1012Q623-1012 661-1002.50Q699-993 733-975L720-909Q717-893 700-893Q694-893 683-897Q672-901 655.50-906Q639-911 615-915Q591-919 560-919Q447-919 374.50-849Q302-779 257-647L257 0L162 0Z"/><path id="s62:lato-light:82" d="M541-1011Q648-1011 732.50-974.50Q817-938 875-871Q933-804 963.50-709.50Q994-615 994-498Q994-381 963.50-287Q933-193 875-126Q817-59 732.50-23Q648 13 541 13Q434 13 349.50-23Q265-59 206.50-126Q148-193 117.50-287Q87-381 87-498Q87-615 117.50-709.50Q148-804 206.50-871Q265-938 349.50-974.50Q434-1011 541-1011M541-62Q630-62 696.50-92.50Q763-123 807.50-180Q852-237 874-317.50Q896-398 896-498Q896-597 874-678Q852-759 807.50-816.50Q763-874 696.50-905Q630-936 541-936Q452-936 385.50-905Q319-874 274.50-816.50Q230-759 207.50-678Q185-597 185-498Q185-398 207.50-317.50Q230-237 274.50-180Q319-123 385.50-92.50Q452-62 541-62Z"/><path id="s62:lato-light:83" d="M162 352L162-995L214-995Q227-995 235-989.50Q243-984 244-970L253-816Q319-906 407.50-959Q496-1012 606-1012Q790-1012 892-885Q994-758 994-504Q994-395 965.50-300.50Q937-206 882-136.50Q827-67 746.50-27Q666 13 561 13Q459 13 385-24Q311-61 257-134L257 352L162 352M579-935Q480-935 399.50-883.50Q319-832 257-740L257-218Q314-132 383.50-97Q453-62 542-62Q630-62 696-94Q762-126 806.50-184.50Q851-243 873.50-324.50Q896-406 896-504Q896-726 814.50-830.50Q733-935 579-935Z"/><path id="s62:lato-light:68" d="M797 0Q767 0 760-28L746-155Q705-115 664.50-83Q624-51 580-29Q536-7 485 4.50Q434 16 373 16Q322 16 274 1Q226-14 189-45Q152-76 129.50-124.50Q107-173 107-241Q107-304 143-358Q179-412 255.50-452Q332-492 452.50-516Q573-540 742-544L742-648Q742-786 682.50-860.50Q623-935 506-935Q434-935 383.50-915Q333-895 298-871Q263-847 241-827Q219-807 204-807Q184-807 174-825L157-854Q235-932 321-972Q407-1012 516-1012Q596-1012 656-986.50Q716-961 755.50-913.50Q795-866 815-798.50Q835-731 835-648L835 0L797 0M397-53Q455-53 503.50-65.50Q552-78 593.50-100.50Q635-123 671-154Q707-185 742-221L742-480Q600-476 497.50-458.50Q395-441 328.50-411Q262-381 230.50-339.50Q199-298 199-245Q199-195 215.50-158.50Q232-122 259-98.50Q286-75 322-64Q358-53 397-53Z"/><path id="s62:lato-light:81" d="M162 0L162-995L214-995Q240-995 244-970L253-820Q321-906 411.50-958.50Q502-1011 613-1011Q695-1011 757.50-985Q820-959 861-910Q902-861 923-792Q944-723 944-636L944 0L849 0L849-636Q849-776 785-855.50Q721-935 589-935Q491-935 407-884.50Q323-834 257-746L257 0L162 0Z"/><path id="s62:lato-light:79" d="M285-1455L285 0L190 0L190-1455L285-1455Z"/><path id="s62:lato-light:74" d="M490-1012Q555-1012 610.50-996Q666-980 710-951L965-951L965-918Q965-893 937-891L786-880Q814-842 829-794.50Q844-747 844-693Q844-621 818-562.50Q792-504 745.50-462.50Q699-421 634-398Q569-375 490-375Q404-375 334-401Q292-377 268-344Q244-311 244-280Q244-237 274-214Q304-191 353.50-180.50Q403-170 466.50-167Q530-164 595.50-160.50Q661-157 724.50-148Q788-139 837.50-116.50Q887-94 917-53.50Q947-13 947 54Q947 116 916 173Q885 230 826.50 274Q768 318 685 344.50Q602 371 499 371Q394 371 315 349.50Q236 328 182.50 291.50Q129 255 102 207Q75 159 75 105Q75 26 127-31Q179-88 270-119Q220-136 190.50-168Q161-200 161-257Q161-278 169-301Q177-324 193-346.50Q209-369 231.50-389Q254-409 284-425Q213-466 173.50-534Q134-602 134-693Q134-765 159.50-823.50Q185-882 231.50-924Q278-966 344-989Q410-1012 490-1012M859 67Q859 20 834.50-8.50Q810-37 769-53Q728-69 674.50-75.50Q621-82 562.50-85Q504-88 445-91Q386-94 335-103Q297-88 264.50-68.50Q232-49 209-24.50Q186 0 173 29.50Q160 59 160 94Q160 138 182.50 175.50Q205 213 248.50 240.50Q292 268 355 284Q418 300 500 300Q576 300 641.50 283Q707 266 755.50 235Q804 204 831.50 161Q859 118 859 67M490-440Q554-440 604-458.50Q654-477 688-510Q722-543 739.50-589Q757-635 757-691Q757-747 739-793.50Q721-840 686.50-873Q652-906 602.50-924Q553-942 490-942Q427-942 377-924Q327-906 292.50-873Q258-840 240-793.50Q222-747 222-691Q222-635 240-589Q258-543 292.50-510Q327-477 377-458.50Q427-440 490-440Z"/><path id="s62:lato-light:86" d="M710-872Q703-858 688-858Q677-858 659.50-870.50Q642-883 613.50-898.50Q585-914 543.50-926.50Q502-939 442-939Q388-939 343.50-923.50Q299-908 267.50-882Q236-856 218.50-821.50Q201-787 201-749Q201-702 225-671Q249-640 288-618Q327-596 376.50-580Q426-564 478-548Q530-532 579.50-512.50Q629-493 668-464Q707-435 731-393Q755-351 755-291Q755-226 731.50-170Q708-114 663.50-73Q619-32 554-8Q489 16 406 16Q301 16 225-17.50Q149-51 89-105L112-139Q117-147 123-151Q129-155 140-155Q153-155 172-139Q191-123 221.50-104.50Q252-86 297.50-70Q343-54 410-54Q473-54 521-71.50Q569-89 601-119Q633-149 649.50-189.50Q666-230 666-275Q666-325 642-358Q618-391 579-414Q540-437 490.50-453Q441-469 388.50-485Q336-501 286.50-520Q237-539 198-568Q159-597 135-638.50Q111-680 111-742Q111-795 134-844Q157-893 199.50-930Q242-967 303-989Q364-1011 440-1011Q531-1011 601.50-985Q672-959 731-905L710-872Z"/><path id="s62:lato-light:80" d="M162 0L162-995L214-995Q240-995 244-970L253-826Q282-867 315-901Q348-935 385.50-959.50Q423-984 465.50-997.50Q508-1011 555-1011Q664-1011 729-947.50Q794-884 817-771Q835-833 867.50-878Q900-923 942-952.50Q984-982 1033.50-996.50Q1083-1011 1135-1011Q1209-1011 1268-986.50Q1327-962 1368.50-914Q1410-866 1432-796Q1454-726 1454-636L1454 0L1358 0L1358-636Q1358-782 1295-858.50Q1232-935 1115-935Q1063-935 1015.50-916Q968-897 931.50-859.50Q895-822 873.50-766Q852-710 852-636L852 0L757 0L757-636Q757-781 699-858Q641-935 530-935Q449-935 380-886.50Q311-838 257-752L257 0L162 0Z"/><path id="s62:lato-light:69" d="M172 0L172-1455L268-1455L268-821Q334-909 421-960Q508-1011 617-1011Q800-1011 902.50-884.50Q1005-758 1005-504Q1005-395 976.50-300.50Q948-206 892.50-136.50Q837-67 756.50-27Q676 13 571 13Q467 13 392-27.50Q317-68 263-147L257-25Q254 0 230 0L172 0M590-935Q491-935 411-884Q331-833 268-742L268-217Q325-131 394-96.50Q463-62 553-62Q641-62 707-94Q773-126 817.50-184.50Q862-243 884.50-324.50Q907-406 907-504Q907-726 825-830.50Q743-935 590-935Z"/><path id="s62:lato-light:73" d="M199 0L199-891L59-900Q30-902 30-925L30-964L199-964L199-1090Q199-1175 221-1239.50Q243-1304 283-1347Q323-1390 379.50-1411.50Q436-1433 504-1433Q535-1433 566.50-1427.50Q598-1422 622-1412L619-1366Q618-1352 600-1352Q588-1352 567.50-1355Q547-1358 517-1358Q468-1358 426.50-1343.50Q385-1329 355-1297Q325-1265 308.50-1213.50Q292-1162 292-1087L292-964L615-964L615-893L294-893L294 0L199 0Z"/><path id="s62:lato-light:87" d="M434 16Q333 16 276.50-40Q220-96 220-213L220-893L77-893Q66-893 59-899Q52-905 52-916L52-953L222-965L246-1321Q247-1330 253.50-1337Q260-1344 271-1344L316-1344L316-964L629-964L629-893L316-893L316-218Q316-177 326.50-147.50Q337-118 355.50-99Q374-80 399-71Q424-62 453-62Q489-62 515-72.50Q541-83 560-95.50Q579-108 591-118.50Q603-129 610-129Q618-129 626-119L652-77Q614-35 555.50-9.50Q497 16 434 16Z"/><path id="s62:lato-light:76" d="M285-995L285 0L190 0L190-995L285-995M327-1338Q327-1320 319.50-1304.50Q312-1289 300-1277Q288-1265 272-1258Q256-1251 238-1251Q220-1251 204-1258Q188-1265 176-1277Q164-1289 157-1304.50Q150-1320 150-1338Q150-1356 157-1372.50Q164-1389 176-1401Q188-1413 204-1420Q220-1427 238-1427Q256-1427 272-1420Q288-1413 300-1401Q312-1389 319.50-1372.50Q327-1356 327-1338Z"/><path id="s62:lato-light:92" d="M379 320Q373 334 363.50 343Q354 352 336 352L268 352L443-37L22-995L101-995Q116-995 124.50-987.50Q133-980 137-971L472-197Q478-182 482.50-166.50Q487-151 491-135Q496-151 501.50-166.50Q507-182 513-197L844-971Q849-982 858-988.50Q867-995 878-995L951-995L379 320Z"/><path id="s62:lato-light:17" d="M105-77Q105-96 112-113Q119-130 131.50-142.50Q144-155 160.50-162.50Q177-170 197-170Q216-170 233-162.50Q250-155 262.50-142.50Q275-130 282.50-113Q290-96 290-77Q290-57 282.50-40.50Q275-24 262.50-11.50Q250 1 233 8Q216 15 197 15Q158 15 131.50-11.50Q105-38 105-77Z"/><path id="s62:lato-light:91" d="M395-509L49-995L140-995Q154-995 160.50-989Q167-983 172-975L464-553Q468-570 481-589L754-974Q759-983 766.50-989Q774-995 784-995L872-995L524-514L886 0L795 0Q781 0 773-8.50Q765-17 760-25L458-465Q453-445 443-431L153-23Q146-14 138.50-7Q131 0 120 0L35 0L395-509Z"/><path id="s62:lato-light:70" d="M817-862Q812-857 807.50-853.50Q803-850 795-850Q785-850 767.50-863.50Q750-877 721-893Q692-909 648.50-922.50Q605-936 543-936Q457-936 390.50-905.50Q324-875 278.50-818Q233-761 209-680Q185-599 185-498Q185-393 209.50-312Q234-231 279-175.50Q324-120 388-91Q452-62 530-62Q602-62 650.50-79Q699-96 730.50-116Q762-136 780.50-153Q799-170 810-170Q823-170 830-160L856-128Q833-98 798-72Q763-46 719-27Q675-8 623.50 2.50Q572 13 516 13Q421 13 342.50-21.50Q264-56 207.50-121.50Q151-187 119.50-282Q88-377 88-498Q88-612 118-706Q148-800 205.50-868Q263-936 346.50-973.50Q430-1011 538-1011Q635-1011 710.50-980Q786-949 842-896L817-862Z"/><path id="s62:lato-light:41" d="M1058-1415L1058-1330L313-1330L313-735L958-735L958-650L313-650L313 0L210 0L210-1415L1058-1415Z"/><path id="s62:lato-light:15" d="M110-85Q110-120 134-145Q158-170 197-170Q240-170 263.50-140.50Q287-111 287-63Q287-22 276.50 20.50Q266 63 246 104Q226 145 198 183Q170 221 136 253L121 238Q113 230 113 221Q113 216 116 211Q119 206 123 202Q133 192 148.50 172.50Q164 153 179.50 126.50Q195 100 207.50 68Q220 36 224 0Q218 2 210.50 3Q203 4 194 4Q157 4 133.50-21Q110-46 110-85Z"/></defs><g id="line-0"><use x="0" y="1761" xlink:href="#s62:lato-light:55" /><use x="1169" y="1761" xlink:href="#s62:lato-light:75" /><use x="2251" y="1761" xlink:href="#s62:lato-light:72" /><use x="3273" y="1761" xlink:href="#s62:lato-light:3" /><use x="3659" y="1761" xlink:href="#s62:lato-light:40" /><use x="4841" y="1761" xlink:href="#s62:lato-light:88" /><use x="5923" y="1761" xlink:href="#s62:lato-light:85" /><use x="6717" y="1761" xlink:href="#s62:lato-light:82" /><use x="7799" y="1761" xlink:href="#s62:lato-light:83" /><use x="8869" y="1761" xlink:href="#s62:lato-light:72" /><use x="9891" y="1761" xlink:href="#s62:lato-light:68" /><use x="10864" y="1761" xlink:href="#s62:lato-light:81" /><use x="11946" y="1761" xlink:href="#s62:lato-light:3" /><use x="12332" y="1761" xlink:href="#s62:lato-light:79" /><use x="12807" y="1761" xlink:href="#s62:lato-light:68" /><use x="13780" y="1761" xlink:href="#s62:lato-light:81" /><use x="14862" y="1761" xlink:href="#s62:lato-light:74" /><use x="15871" y="1761" xlink:href="#s62:lato-light:88" /><use x="16953" y="1761" xlink:href="#s62:lato-light:68" /><use x="17926" y="1761" xlink:href="#s62:lato-light:74" /><use x="18935" y="1761" xlink:href="#s62:lato-light:72" /><use x="19957" y="1761" xlink:href="#s62:lato-light:86" /><use x="20817" y="1761" xlink:href="#s62:lato-light:3" /><use x="21203" y="1761" xlink:href="#s62:lato-light:68" /><use x="22176" y="1761" xlink:href="#s62:lato-light:85" /><use x="22970" y="1761" xlink:href="#s62:lato-light:72" /><use x="23992" y="1761" xlink:href="#s62:lato-light:3" /><use x="24378" y="1761" xlink:href="#s62:lato-light:80" /><use x="25969" y="1761" xlink:href="#s62:lato-light:72" /><use x="26991" y="1761" xlink:href="#s62:lato-light:80" /><use x="28582" y="1761" xlink:href="#s62:lato-light:69" /><use x="29674" y="1761" xlink:href="#s62:lato-light:72" /><use x="30696" y="1761" xlink:href="#s62:lato-light:85" /><use x="31490" y="1761" xlink:href="#s62:lato-light:86" /><use x="32350" y="1761" xlink:href="#s62:lato-light:3" /><use x="32736" y="1761" xlink:href="#s62:lato-light:82" /><use x="33818" y="1761" xlink:href="#s62:lato-light:73" /><use x="34462" y="1761" xlink:href="#s62:lato-light:3" /><use x="34848" y="1761" xlink:href="#s62:lato-light:87" /><use x="35561" y="1761" xlink:href="#s62:lato-light:75" /><use x="36643" y="1761" xlink:href="#s62:lato-light:72" /><use x="37665" y="1761" xlink:href="#s62:lato-light:3" /><use x="38051" y="1761" xlink:href="#s62:lato-light:86" /><use x="38911" y="1761" xlink:href="#s62:lato-light:68" /><use x="39884" y="1761" xlink:href="#s62:lato-light:80" /><use x="41475" y="1761" xlink:href="#s62:lato-light:72" /><use x="42497" y="1761" xlink:href="#s62:lato-light:3" /><use x="42883" y="1761" xlink:href="#s62:lato-light:73" /><use x="43527" y="1761" xlink:href="#s62:lato-light:68" /><use x="44500" y="1761" xlink:href="#s62:lato-light:80" /><use x="46091" y="1761" xlink:href="#s62:lato-light:76" /><use x="46566" y="1761" xlink:href="#s62:lato-light:79" /><use x="47041" y="1761" xlink:href="#s62:lato-light:92" /><use x="47890" y="1761" xlink:href="#s62:lato-light:17" /></g><g id="line-1"><use x="9715.5" y="4161" xlink:href="#s62:lato-light:55" /><use x="10884.5" y="4161" xlink:href="#s62:lato-light:75" /><use x="11966.5" y="4161" xlink:href="#s62:lato-light:72" /><use x="12988.5" y="4161" xlink:href="#s62:lato-light:76" /><use x="13463.5" y="4161" xlink:href="#s62:lato-light:85" /><use x="14257.5" y="4161" xlink:href="#s62:lato-light:3" /><use x="14643.5" y="4161" xlink:href="#s62:lato-light:86" /><use x="15503.5" y="4161" xlink:href="#s62:lato-light:72" /><use x="16525.5" y="4161" xlink:href="#s62:lato-light:83" /><use x="17595.5" y="4161" xlink:href="#s62:lato-light:68" /><use x="18568.5" y="4161" xlink:href="#s62:lato-light:85" /><use x="19312.5" y="4161" xlink:href="#s62:lato-light:68" /><use x="20285.5" y="4161" xlink:href="#s62:lato-light:87" /><use x="20998.5" y="4161" xlink:href="#s62:lato-light:72" /><use x="22020.5" y="4161" xlink:href="#s62:lato-light:3" /><use x="22406.5" y="4161" xlink:href="#s62:lato-light:72" /><use x="23368.5" y="4161" xlink:href="#s62:lato-light:91" /><use x="24289.5" y="4161" xlink:href="#s62:lato-light:76" /><use x="24764.5" y="4161" xlink:href="#s62:lato-light:86" /><use x="25624.5" y="4161" xlink:href="#s62:lato-light:87" /><use x="26337.5" y="4161" xlink:href="#s62:lato-light:72" /><use x="27359.5" y="4161" xlink:href="#s62:lato-light:81" /><use x="28441.5" y="4161" xlink:href="#s62:lato-light:70" /><use x="29351.5" y="4161" xlink:href="#s62:lato-light:72" /><use x="30373.5" y="4161" xlink:href="#s62:lato-light:3" /><use x="30759.5" y="4161" xlink:href="#s62:lato-light:76" /><use x="31234.5" y="4161" xlink:href="#s62:lato-light:86" /><use x="32094.5" y="4161" xlink:href="#s62:lato-light:3" /><use x="32480.5" y="4161" xlink:href="#s62:lato-light:68" /><use x="33453.5" y="4161" xlink:href="#s62:lato-light:3" /><use x="33839.5" y="4161" xlink:href="#s62:lato-light:80" /><use x="35405.5" y="4161" xlink:href="#s62:lato-light:92" /><use x="36379.5" y="4161" xlink:href="#s62:lato-light:87" /><use x="37092.5" y="4161" xlink:href="#s62:lato-light:75" /><use x="38174.5" y="4161" xlink:href="#s62:lato-light:17" /></g><g id="line-2"><use x="11928" y="6561" xlink:href="#s62:lato-light:41" /><use x="12997" y="6561" xlink:href="#s62:lato-light:82" /><use x="14079" y="6561" xlink:href="#s62:lato-light:85" /><use x="14873" y="6561" xlink:href="#s62:lato-light:3" /><use x="15259" y="6561" xlink:href="#s62:lato-light:86" /><use x="16119" y="6561" xlink:href="#s62:lato-light:70" /><use x="17029" y="6561" xlink:href="#s62:lato-light:76" /><use x="17504" y="6561" xlink:href="#s62:lato-light:72" /><use x="18526" y="6561" xlink:href="#s62:lato-light:81" /><use x="19608" y="6561" xlink:href="#s62:lato-light:70" /><use x="20518" y="6561" xlink:href="#s62:lato-light:72" /><use x="21540" y="6561" xlink:href="#s62:lato-light:15" /><use x="21935" y="6561" xlink:href="#s62:lato-light:3" /><use x="22321" y="6561" xlink:href="#s62:lato-light:80" /><use x="23912" y="6561" xlink:href="#s62:lato-light:88" /><use x="24994" y="6561" xlink:href="#s62:lato-light:86" /><use x="25854" y="6561" xlink:href="#s62:lato-light:76" /><use x="26329" y="6561" xlink:href="#s62:lato-light:70" /><use x="27239" y="6561" xlink:href="#s62:lato-light:15" /><use x="27634" y="6561" xlink:href="#s62:lato-light:3" /><use x="28020" y="6561" xlink:href="#s62:lato-light:86" /><use x="28880" y="6561" xlink:href="#s62:lato-light:83" /><use x="29950" y="6561" xlink:href="#s62:lato-light:82" /><use x="31032" y="6561" xlink:href="#s62:lato-light:85" /><use x="31826" y="6561" xlink:href="#s62:lato-light:87" /><use x="32539" y="6561" xlink:href="#s62:lato-light:15" /><use x="32934" y="6561" xlink:href="#s62:lato-light:3" /><use x="33320" y="6561" xlink:href="#s62:lato-light:72" /><use x="34342" y="6561" xlink:href="#s62:lato-light:87" /><use x="35055" y="6561" xlink:href="#s62:lato-light:70" /><use x="35965" y="6561" xlink:href="#s62:lato-light:15" /></g></svg>