<svg xmlns="http://www.w3.org/2000/svg" xmlns:xlink="http://www.w3.org/1999/xlink" width="538" height="84" viewBox="0 0 44823 6987"><defs><path id="s63:lato-lightitalic:55" d="M1158-1415L1148-1331L692-1331L529 0L430 0L593-1331L135-1331L145-1415L1158-1415Z"/><path id="s63:lato-lightitalic:75" d="M102 0L278-1455L372-1455L280-695Q320-770 368.50-828.50Q417-887 470.50-927.50Q524-968 580-989Q636-1010 693-1010Q805-1010 860.50-938Q916-866 916-731Q916-723 915.50-712.50Q915-702 912.50-677Q910-652 905-605.50Q900-559 891-480.50Q882-402 868.50-284.50Q855-167 835 0L741 0L816-636Q822-682 822-723Q822-825 783.50-878Q745-931 662-931Q608-931 552-903.50Q496-876 443.50-824.50Q391-773 344-700Q297-627 261-537L196 0L102 0Z"/><path id="s63:lato-lightitalic:72" d="M838-805Q838-764 827-727Q816-690 788-657Q760-624 712-594.50Q664-565 589-540.50Q514-516 410-496.50Q306-477 166-462Q164-441 163-420.50Q162-400 162-380Q162-231 229.50-147Q297-63 433-63Q486-63 528.50-74.50Q571-86 604.50-104Q638-122 663.50-142Q689-162 709-180Q729-198 743.50-209.50Q758-221 770-221Q782-221 791-211L813-185Q764-133 717.50-95.50Q671-58 623.50-34Q576-10 525 1.50Q474 13 416 13Q333 13 268.50-14.50Q204-42 160-92.50Q116-143 93-215.50Q70-288 70-378Q70-453 85-529Q100-605 129.50-675Q159-745 202.50-806Q246-867 302-912Q358-957 426-983Q494-1009 573-1009Q646-1009 696.50-988.50Q747-968 778.50-937.50Q810-907 824-871.50Q838-836 838-805M568-939Q488-939 423.50-905Q359-871 309.50-814.50Q260-758 226.50-683.50Q193-609 177-528Q304-542 396-560.50Q488-579 552-599.50Q616-620 655.50-644Q695-668 717-693.50Q739-719 746.50-746Q754-773 754-802Q754-823 744.50-847.50Q735-872 713-892Q691-912 655.50-925.50Q620-939 568-939Z"/><path id="s63:lato-lightitalic:3" d=""/><path id="s63:lato-lightitalic:40" d="M1076-1333L395-1333L324-757L891-757L880-677L314-677L241-82L925-82L914 0L131 0L305-1415L1087-1415L1076-1333Z"/><path id="s63:lato-lightitalic:88" d="M289-995L214-362Q208-315 208-275Q208-173 246.50-119.50Q285-66 368-66Q423-66 479-94Q535-122 588-174.50Q641-227 688-300.50Q735-374 771-466L835-995L929-995L809 0L765 0Q746 0 737.50-10Q729-20 729-37L759-320Q718-241 668.50-179Q619-117 564.50-74.50Q510-32 452-9.50Q394 13 336 13Q225 13 169.50-60.50Q114-134 114-270Q114-279 114.50-289.50Q115-300 117.50-325.50Q120-351 125-396Q130-441 139-518.50Q148-596 161.50-712Q175-828 195-995L289-995Z"/><path id="s63:lato-lightitalic:85" d="M94 0L214-998L257-998Q292-998 292-962L263-666Q331-829 418.50-917.50Q506-1006 605-1006Q646-1006 689-989L672-900Q626-917 586-917Q479-917 393.50-811.50Q308-706 247-507L187 0L94 0Z"/><path id="s63:lato-lightitalic:82" d="M434-62Q521-62 592.50-107.50Q664-153 715-228.50Q766-304 793.50-401.50Q821-499 821-602Q821-762 750-849Q679-936 553-936Q495-936 444-915.50Q393-895 350-858Q307-821 272.50-770.50Q238-720 214.50-660Q191-600 178.50-533Q166-466 166-396Q166-237 236.50-149.50Q307-62 434-62M426 13Q346 13 280.50-15Q215-43 168.50-96Q122-149 96.50-224.50Q71-300 71-396Q71-517 107-628.50Q143-740 208.50-825Q274-910 364-960.50Q454-1011 562-1011Q642-1011 707.50-982.50Q773-954 819.50-901.50Q866-849 891.50-773Q917-697 917-603Q917-482 880.50-371Q844-260 779-174.50Q714-89 624-38Q534 13 426 13Z"/><path id="s63:lato-lightitalic:83" d="M50 352L214-998L257-998Q292-998 292-962L260-649Q299-730 347.50-796.50Q396-863 450.50-910.50Q505-958 564-984Q623-1010 684-1010Q749-1010 798-985Q847-960 880-914.50Q913-869 930-804Q947-739 947-659Q947-582 931-502.50Q915-423 885.50-348.50Q856-274 813.50-208Q771-142 717-93Q663-44 598.50-15.50Q534 13 462 13Q381 13 312.50-23Q244-59 201-129L142 352L50 352M653-933Q596-933 538.50-901.50Q481-870 428-812Q375-754 328-672.50Q281-591 245-491L210-205Q254-126 318-94Q382-62 451-62Q514-62 568.50-87.50Q623-113 667.50-157Q712-201 746.50-259.50Q781-318 804.50-383Q828-448 840.50-516.50Q853-585 853-650Q853-784 802-858.50Q751-933 653-933Z"/><path id="s63:lato-lightitalic:68" d="M766 0L720 0Q701 0 693.50-9Q686-18 686-31L719-344Q681-264 635.50-198.50Q590-133 538.50-86Q487-39 430-13Q373 13 312 13Q249 13 202-11.50Q155-36 123.50-81Q92-126 76-190Q60-254 60-334Q60-421 82-504.50Q104-588 144.50-663Q185-738 241-801Q297-864 364.50-910Q432-956 509-982Q586-1008 668-1008Q728-1008 780-997.50Q832-987 883-961L766 0M343-66Q400-66 455.50-98Q511-130 561-188.50Q611-247 655.50-329.50Q700-412 735-512L785-917Q726-937 657-937Q590-937 527-914.50Q464-892 408.50-852Q353-812 306.50-757Q260-702 226-636.50Q192-571 173.50-498Q155-425 155-349Q155-215 200.50-140.50Q246-66 343-66Z"/><path id="s63:lato-lightitalic:81" d="M94 0L214-998L257-998Q291-998 291-962L262-674Q303-753 352.50-815.50Q402-878 457-921.50Q512-965 570-987.50Q628-1010 687-1010Q798-1010 854-937Q910-864 910-728Q910-719 909.50-707.50Q909-696 906.50-671Q904-646 899-600.50Q894-555 885-477.50Q876-400 862.50-283.50Q849-167 829 0L735 0L810-636Q816-682 816-723Q816-824 777.50-877Q739-930 656-930Q600-930 543-901.50Q486-873 432.50-820.50Q379-768 332-693.50Q285-619 249-526L188 0L94 0Z"/><path id="s63:lato-lightitalic:79" d="M117 0L293-1455L386-1455L209 0L117 0Z"/><path id="s63:lato-lightitalic:74" d="M762-736Q761-681 747.50-636Q734-591 714-553.50Q694-516 670.50-483.50Q647-451 627-420Q607-389 594-357Q581-325 581-289Q581-259 593-233.50Q605-208 622.50-184Q640-160 661-135.50Q682-111 699.50-84Q717-57 729-25Q741 7 741 46Q741 109 709 167.50Q677 226 619 271Q561 316 479.50 343Q398 370 298 370Q219 370 153.50 354Q88 338 40.50 307.50Q-7 277-33 233Q-59 189-59 133Q-59 61-21.50 5.50Q16-50 80.50-88Q145-126 230.50-146Q316-166 414-166Q448-166 482-163.50Q516-161 551-156Q534-179 522.50-205Q511-231 511-263Q511-298 523-334Q535-370 569-421Q528-393 482.50-378Q437-363 383-363Q326-363 277-381Q228-399 192.50-434.50Q157-470 137-521.50Q117-573 117-641Q117-710 141.50-776.50Q166-843 212.50-895Q259-947 327-978.50Q395-1010 482-1010Q533-1010 578-997.50Q623-985 658-960L918-960L914-928Q913-918 906.50-910.50Q900-903 886-901L724-888Q742-857 752-819Q762-781 762-736M654 52Q654 3 638-32Q622-67 599-96L600-93Q551-101 507-104Q463-107 422-107Q323-107 250-88.50Q177-70 128.50-38.50Q80-7 55.50 35Q31 77 31 123Q31 166 50.50 199.50Q70 233 106 255.50Q142 278 193 290Q244 302 306 302Q384 302 448 281Q512 260 557.50 225Q603 190 628 145Q653 100 654 52M405-425Q469-425 519.50-452Q570-479 605-522.50Q640-566 658-621.50Q676-677 676-733Q676-837 621-889.50Q566-942 473-942Q409-942 359-916.50Q309-891 274.50-849Q240-807 222-752.50Q204-698 204-641Q204-535 258-480Q312-425 405-425Z"/><path id="s63:lato-lightitalic:86" d="M711-873Q703-859 689-859Q679-859 664.50-871.50Q650-884 625-899.50Q600-915 563-927.50Q526-940 471-940Q420-940 374.50-923Q329-906 295.50-877.50Q262-849 242.50-811.50Q223-774 223-732Q223-691 242-663Q261-635 292.50-614.50Q324-594 363.50-579Q403-564 445-549Q487-534 526.50-515.50Q566-497 597.50-471Q629-445 648-407.50Q667-370 667-317Q667-253 641.50-193Q616-133 569-86.50Q522-40 455.50-12Q389 16 307 16Q210 16 145-17.50Q80-51 33-105L56-139Q62-147 68-151Q74-155 83-155Q93-155 108-139Q123-123 149.50-103.50Q176-84 217-68Q258-52 320-52Q379-52 427.50-71.50Q476-91 510.50-125Q545-159 564-203.50Q583-248 583-298Q583-342 564-372Q545-402 514-423.50Q483-445 443-460Q403-475 361.50-489.50Q320-504 280-521.50Q240-539 209-564Q178-589 159-625Q140-661 140-713Q140-771 165-824.50Q190-878 235-919.50Q280-961 342-985.50Q404-1010 478-1010Q562-1010 624-984Q686-958 734-906L711-873Z"/><path id="s63:lato-lightitalic:80" d="M94 0L214-998L257-998Q292-998 292-962L264-684Q342-839 444-924.50Q546-1010 659-1010Q759-1010 801.50-947Q844-884 844-766Q844-732 841-693Q880-773 926.50-832.50Q973-892 1024.50-931.50Q1076-971 1130-990.50Q1184-1010 1237-1010Q1344-1010 1391-942.50Q1438-875 1438-750Q1438-740 1437.50-727.50Q1437-715 1434.50-688Q1432-661 1427-613.50Q1422-566 1413-486Q1404-406 1390-287.50Q1376-169 1356 0L1263 0L1338-636Q1342-667 1344-694.50Q1346-722 1346-747Q1346-837 1315-883.50Q1284-930 1207-930Q1158-930 1107.50-907.50Q1057-885 1008.50-840Q960-795 916.50-727Q873-659 838-567L771 0L678 0L753-636Q762-705 762-759Q762-843 733-886.50Q704-930 630-930Q516-930 419.50-826Q323-722 250-532L187 0L94 0Z"/><path id="s63:lato-lightitalic:69" d="M102 0L278-1455L371-1455L274-659Q313-738 361-802.50Q409-867 462-913Q515-959 573.50-984.50Q632-1010 692-1010Q757-1010 806-985Q855-960 888-914.50Q921-869 938-804Q955-739 955-659Q955-582 939-502.50Q923-423 893.50-348.50Q864-274 821.50-208Q779-142 725-93Q671-44 606.50-15.50Q542 13 470 13Q385 13 315-25.50Q245-64 203-140L184-32Q181-15 174-7.50Q167 0 149 0L102 0M661-933Q604-933 546.50-901Q489-869 435.50-811Q382-753 335.50-671Q289-589 253-489L218-205Q239-166 266.50-138.50Q294-111 325.50-94Q357-77 390.50-69.50Q424-62 459-62Q522-62 576.50-87.50Q631-113 675.50-157Q720-201 754.50-259.50Q789-318 812.50-383Q836-448 848.50-516.50Q861-585 861-650Q861-784 810-858.50Q759-933 661-933Z"/><path id="s63:lato-lightitalic:73" d="M306-894L200-21L158 209Q154 231 141 240.50Q128 250 109 250L74 250L214-893L88-901Q66-903 66-923Q66-924 66.50-929.50Q67-935 70-964L222-964L238-1090Q248-1175 277-1239.50Q306-1304 349.50-1347Q393-1390 448-1411.50Q503-1433 566-1433Q594-1433 622-1427.50Q650-1422 672-1412L662-1364Q661-1353 647-1353Q636-1353 616-1357Q596-1361 570-1361Q525-1361 484.50-1346Q444-1331 412.50-1298.50Q381-1266 358.50-1214Q336-1162 327-1087L311-964L593-964L583-894L306-894Z"/><path id="s63:lato-lightitalic:87" d="M175-167Q175-173 175.50-182Q176-191 177.50-209Q179-227 182.50-255.50Q186-284 191-328L259-893L128-893Q108-893 108-912L113-953L270-965L336-1321Q338-1330 345-1337Q352-1344 362-1344L408-1344L361-964L649-964L641-893L353-893L284-331Q279-290 276-264Q273-238 271-221.50Q269-205 268.50-197Q268-189 268-185Q268-120 298.50-91Q329-62 377-62Q410-62 435.50-72.50Q461-83 480-95.50Q499-108 511-118.50Q523-129 529-129Q535-129 538-126.50Q541-124 544-119L562-77Q522-35 465-9.50Q408 16 351 16Q269 16 222.50-29Q176-74 175-167Z"/><path id="s63:lato-lightitalic:76" d="M334-995L213 0L120 0L241-995L334-995M407-1338Q407-1320 400-1304.50Q393-1289 381-1277Q369-1265 353.50-1258Q338-1251 322-1251Q305-1251 290-1258Q275-1265 263.50-1277Q252-1289 245-1304.50Q238-1320 238-1338Q238-1356 245-1372Q252-1388 263.50-1400.50Q275-1413 290-1420Q305-1427 322-1427Q338-1427 353.50-1420Q369-1413 381-1401Q393-1389 400-1372.50Q407-1356 407-1338Z"/><path id="s63:lato-lightitalic:92" d="M251 324Q237 352 210 352L143 352L353-37L86-995L160-995Q174-995 180.50-988.50Q187-982 190-971L400-197Q404-182 405.50-167Q407-152 409-137Q415-152 421.50-167.50Q428-183 436-197L837-974Q842-985 851-990Q860-995 869-995L942-995L251 324Z"/><path id="s63:lato-lightitalic:17" d="M58-77Q58-96 65-113Q72-130 84.50-142.50Q97-155 113.50-162.50Q130-170 150-170Q169-170 186.50-162.50Q204-155 216.50-142.50Q229-130 236.50-113Q244-96 244-77Q244-38 216.50-11.50Q189 15 150 15Q111 15 84.50-11.50Q58-38 58-77Z"/><path id="s63:lato-lightitalic:91" d="M371-532L120-995L200-995Q213-995 219-991.50Q225-988 230-980L439-582Q446-597 455-609L743-978Q750-986 755.50-990.50Q761-995 770-995L854-995L489-531L768 0L688 0Q675 0 667.50-5.50Q660-11 655-22L420-478Q414-463 405-451L71-20Q64-12 56.50-6Q49 0 37 0L-43 0L371-532Z"/><path id="s63:lato-lightitalic:70" d="M797-182Q744-123 696.50-85Q649-47 603.50-25Q558-3 511 5Q464 13 411 13Q325 13 261.50-16.50Q198-46 156-99Q114-152 93-225Q72-298 72-384Q72-463 88.50-540.50Q105-618 136-688Q167-758 211-817Q255-876 310-919Q365-962 429.50-986.50Q494-1011 567-1011Q616-1011 655.50-1001.50Q695-992 728-974.50Q761-957 788-932Q815-907 838-876L810-843Q801-832 789-832Q779-832 764.50-848Q750-864 725.50-882.50Q701-901 662-917Q623-933 564-933Q480-933 407.50-888Q335-843 281.50-767Q228-691 197.50-591.50Q167-492 167-384Q167-315 182.50-256Q198-197 230.50-154Q263-111 312-87Q361-63 428-63Q481-63 523-74.50Q565-86 597.50-103Q630-120 654.50-140.50Q679-161 698-178Q717-195 730.50-206.50Q744-218 755-218Q766-218 776-208L797-182L797-182Z"/><path id="s63:lato-lightitalic:41" d="M1076-1333L395-1333L321-734L912-734L900-651L311-651L231 0L131 0L305-1415L1087-1415L1076-1333Z"/><path id="s63:lato-lightitalic:15" d="M63-85Q63-120 87-145Q111-170 150-170Q193-170 216.50-140.50Q240-111 240-63Q240-22 229.50 20.50Q219 63 199 104Q179 145 151 183Q123 221 89 253L73 238Q68 234 67 229.50Q66 225 66 220Q66 212 81.50 193.50Q97 175 116.50 146.50Q136 118 154 81Q172 44 177 0Q171 2 163.50 3Q156 4 147 4Q110 4 86.50-21Q63-46 63-85Z"/></defs><g id="line-0"><use x="0" y="1761" xlink:href="#s63:lato-lightitalic:55"/><use x="1077" y="1761" xlink:href="#s63:lato-lightitalic:75"/><use x="2107" y="1761" xlink:href="#s63:lato-lightitalic:72"/><use x="3002" y="1761" xlink:href="#s63:lato-lightitalic:3"/><use x="3388" y="1761" xlink:href="#s63:lato-lightitalic:40"/><use x="4475" y="1761" xlink:href="#s63:lato-lightitalic:88"/><use x="5497" y="1761" xlink:href="#s63:lato-lightitalic:85"/><use x="6129" y="1761" xlink:href="#s63:lato-lightitalic:82"/><use x="7117" y="1761" xlink:href="#s63:lato-lightitalic:83"/><use x="8126" y="1761" xlink:href="#s63:lato-lightitalic:72"/><use x="9021" y="1761" xlink:href="#s63:lato-lightitalic:68"/><use x="10001" y="1761" xlink:href="#s63:lato-lightitalic:81"/><use x="11025" y="1761" xlink:href="#s63:lato-lightitalic:3"/><use x="11411" y="1761" xlink:href="#s63:lato-lightitalic:79"/><use x="11859" y="1761" xlink:href="#s63:lato-lightitalic:68"/><use x="12839" y="1761" xlink:href="#s63:lato-lightitalic:81"/><use x="13863" y="1761" xlink:href="#s63:lato-lightitalic:74"/><use x="14744" y="1761" xlink:href="#s63:lato-lightitalic:88"/><use x="15766" y="1761" xlink:href="#s63:lato-lightitalic:68"/><use x="16746" y="1761" xlink:href="#s63:lato-lightitalic:74"/><use x="17627" y="1761" xlink:href="#s63:lato-lightitalic:72"/><use x="18522" y="1761" xlink:href="#s63:lato-lightitalic:86"/><use x="19294" y="1761" xlink:href="#s63:lato-lightitalic:3"/><use x="19680" y="1761" xlink:href="#s63:lato-lightitalic:68"/><use x="20660" y="1761" xlink:href="#s63:lato-lightitalic:85"/><use x="21292" y="1761" xlink:href="#s63:lato-lightitalic:72"/><use x="22187" y="1761" xlink:href="#s63:lato-lightitalic:3"/><use x="22573" y="1761" xlink:href="#s63:lato-lightitalic:80"/><use x="24124" y="1761" xlink:href="#s63:lato-lightitalic:72"/><use x="25019" y="1761" xlink:href="#s63:lato-lightitalic:80"/><use x="26570" y="1761" xlink:href="#s63:lato-lightitalic:69"/><use x="27589" y="1761" xlink:href="#s63:lato-lightitalic:72"/><use x="28484" y="1761" xlink:href="#s63:lato-lightitalic:85"/><use x="29156" y="1761" xlink:href="#s63:lato-lightitalic:86"/><use x="29928" y="1761" xlink:href="#s63:lato-lightitalic:3"/><use x="30314" y="1761" xlink:href="#s63:lato-lightitalic:82"/><use x="31302" y="1761" xlink:href="#s63:lato-lightitalic:73"/><use x="31870" y="1761" xlink:href="#s63:lato-lightitalic:3"/><use x="32256" y="1761" xlink:href="#s63:lato-lightitalic:87"/><use x="32914" y="1761" xlink:href="#s63:lato-lightitalic:75"/><use x="33944" y="1761" xlink:href="#s63:lato-lightitalic:72"/><use x="34839" y="1761" xlink:href="#s63:lato-lightitalic:3"/><use x="35225" y="1761" xlink:href="#s63:lato-lightitalic:86"/><use x="35997" y="1761" xlink:href="#s63:lato-lightitalic:68"/><use x="36977" y="1761" xlink:href="#s63:lato-lightitalic:80"/><use x="38528" y="1761" xlink:href="#s63:lato-lightitalic:72"/><use x="39423" y="1761" xlink:href="#s63:lato-lightitalic:3"/><use x="39809" y="1761" xlink:href="#s63:lato-lightitalic:73"/><use x="40377" y="1761" xlink:href="#s63:lato-lightitalic:68"/><use x="41357" y="1761" xlink:href="#s63:lato-lightitalic:80"/><use x="42908" y="1761" xlink:href="#s63:lato-lightitalic:76"/><use x="43363" y="1761" xlink:href="#s63:lato-lightitalic:79"/><use x="43811" y="1761" xlink:href="#s63:lato-lightitalic:92"/><use x="44579" y="1761" xlink:href="#s63:lato-lightitalic:17"/></g><g id="line-1"><use x="9058" y="4161" xlink:href="#s63:lato-lightitalic:55"/><use x="10135" y="4161" xlink:href="#s63:lato-lightitalic:75"/><use x="11165" y="4161" xlink:href="#s63:lato-lightitalic:72"/><use x="12060" y="4161" xlink:href="#s63:lato-lightitalic:76"/><use x="12515" y="4161" xlink:href="#s63:lato-lightitalic:85"/><use x="13187" y="4161" xlink:href="#s63:lato-lightitalic:3"/><use x="13573" y="4161" xlink:href="#s63:lato-lightitalic:86"/><use x="14345" y="4161" xlink:href="#s63:lato-lightitalic:72"/><use x="15240" y="4161" xlink:href="#s63:lato-lightitalic:83"/><use x="16249" y="4161" xlink:href="#s63:lato-lightitalic:68"/><use x="17229" y="4161" xlink:href="#s63:lato-lightitalic:85"/><use x="17861" y="4161" xlink:href="#s63:lato-lightitalic:68"/><use x="18841" y="4161" xlink:href="#s63:lato-lightitalic:87"/><use x="19499" y="4161" xlink:href="#s63:lato-lightitalic:72"/><use x="20394" y="4161" xlink:href="#s63:lato-lightitalic:3"/><use x="20780" y="4161" xlink:href="#s63:lato-lightitalic:72"/><use x="21630" y="4161" xlink:href="#s63:lato-lightitalic:91"/><use x="22484" y="4161" xlink:href="#s63:lato-lightitalic:76"/><use x="22939" y="4161" xlink:href="#s63:lato-lightitalic:86"/><use x="23711" y="4161" xlink:href="#s63:lato-lightitalic:87"/><use x="24369" y="4161" xlink:href="#s63:lato-lightitalic:72"/><use x="25264" y="4161" xlink:href="#s63:lato-lightitalic:81"/><use x="26288" y="4161" xlink:href="#s63:lato-lightitalic:70"/><use x="27149" y="4161" xlink:href="#s63:lato-lightitalic:72"/><use x="28044" y="4161" xlink:href="#s63:lato-lightitalic:3"/><use x="28430" y="4161" xlink:href="#s63:lato-lightitalic:76"/><use x="28885" y="4161" xlink:href="#s63:lato-lightitalic:86"/><use x="29657" y="4161" xlink:href="#s63:lato-lightitalic:3"/><use x="30043" y="4161" xlink:href="#s63:lato-lightitalic:68"/><use x="31023" y="4161" xlink:href="#s63:lato-lightitalic:3"/><use x="31409" y="4161" xlink:href="#s63:lato-lightitalic:80"/><use x="32930" y="4161" xlink:href="#s63:lato-lightitalic:92"/><use x="33833" y="4161" xlink:href="#s63:lato-lightitalic:87"/><use x="34491" y="4161" xlink:href="#s63:lato-lightitalic:75"/><use x="35521" y="4161" xlink:href="#s63:lato-lightitalic:17"/></g><g id="line-2"><use x="11140" y="6561" xlink:href="#s63:lato-lightitalic:41"/><use x="12117" y="6561" xlink:href="#s63:lato-lightitalic:82"/><use x="13105" y="6561" xlink:href="#s63:lato-lightitalic:85"/><use x="13777" y="6561" xlink:href="#s63:lato-lightitalic:3"/><use x="14163" y="6561" xlink:href="#s63:lato-lightitalic:86"/><use x="14935" y="6561" xlink:href="#s63:lato-lightitalic:70"/><use x="15796" y="6561" xlink:href="#s63:lato-lightitalic:76"/><use x="16251" y="6561" xlink:href="#s63:lato-lightitalic:72"/><use x="17146" y="6561" xlink:href="#s63:lato-lightitalic:81"/><use x="18170" y="6561" xlink:href="#s63:lato-lightitalic:70"/><use x="19031" y="6561" xlink:href="#s63:lato-lightitalic:72"/><use x="19926" y="6561" xlink:href="#s63:lato-lightitalic:15"/><use x="20321" y="6561" xlink:href="#s63:lato-lightitalic:3"/><use x="20707" y="6561" xlink:href="#s63:lato-lightitalic:80"/><use x="22258" y="6561" xlink:href="#s63:lato-lightitalic:88"/><use x="23280" y="6561" xlink:href="#s63:lato-lightitalic:86"/><use x="24052" y="6561" xlink:href="#s63:lato-lightitalic:76"/><use x="24507" y="6561" xlink:href="#s63:lato-lightitalic:70"/><use x="25368" y="6561" xlink:href="#s63:lato-lightitalic:15"/><use x="25763" y="6561" xlink:href="#s63:lato-lightitalic:3"/><use x="26149" y="6561" xlink:href="#s63:lato-lightitalic:86"/><use x="26921" y="6561" xlink:href="#s63:lato-lightitalic:83"/><use x="27930" y="6561" xlink:href="#s63:lato-lightitalic:82"/><use x="28918" y="6561" xlink:href="#s63:lato-lightitalic:85"/><use x="29590" y="6561" xlink:href="#s63:lato-lightitalic:87"/><use x="30248" y="6561" xlink:href="#s63:lato-lightitalic:15"/><use x="30643" y="6561" xlink:href="#s63:lato-lightitalic:3"/><use x="31029" y="6561" xlink:href="#s63:lato-lightitalic:72"/><use x="31924" y="6561" xlink:href="#s63:lato-lightitalic:87"/><use x="32582" y="6561" xlink:href="#s63:lato-lightitalic:70"/><use x="33443" y="6561" xlink:href="#s63:lato-lightitalic:15"/></g></svg>