<svg xmlns="http://www.w3.org/2000/svg" xmlns:xlink="http://www.w3.org/1999/xlink" width="525" height="84" viewBox="0 0 43756 6987"><defs><path id="s60:lato-hairlineitalic:55" d="M1142-1400L1140-1378L657-1378L488 0L464 0L633-1378L146-1378L148-1400L1142-1400Z"/><path id="s60:lato-hairlineitalic:75" d="M122 0L296-1440L318-1440L216-599Q256-689 307.50-762Q359-835 417.50-886.50Q476-938 539.50-966Q603-994 666-994Q775-994 825-926Q875-858 875-731Q875-707 873-681.50Q871-656 868-628L794 0L772 0L846-628Q852-680 852-727Q852-845 807.50-909.50Q763-974 664-974Q603-974 540.50-944.50Q478-915 419-859.50Q360-804 306.50-725Q253-646 210-548L144 0L122 0Z"/><path id="s60:lato-hairlineitalic:72" d="M800-814Q800-775 789.50-739.50Q779-704 751.50-672Q724-640 675-612Q626-584 549.50-559.50Q473-535 365-514.50Q257-494 111-478Q102-419 102-362Q102-280 121-214.50Q140-149 177.50-103Q215-57 271.50-32.50Q328-8 404-8Q461-8 507.50-21.50Q554-35 591-55Q628-75 656.50-98Q685-121 705.50-141Q726-161 740-174.50Q754-188 762-188Q765-188 767-187.50Q769-187 774-182Q727-131 682.50-94.50Q638-58 593-34Q548-10 501 1Q454 12 402 12Q322 12 261.50-14Q201-40 160.50-88Q120-136 100-205.50Q80-275 80-362Q80-434 94-509.50Q108-585 136-655Q164-725 205-787Q246-849 299.50-895Q353-941 418.50-967.50Q484-994 562-994Q632-994 678-975Q724-956 751-928Q778-900 789-869Q800-838 800-814M562-974Q467-974 391.50-933Q316-892 259.50-825Q203-758 166.50-672.50Q130-587 114-498Q262-514 369-534.50Q476-555 550-579Q624-603 669.50-630.50Q715-658 740-688Q765-718 773.50-749.50Q782-781 782-814Q782-838 770.50-866Q759-894 733.50-918Q708-942 665.50-958Q623-974 562-974Z"/><path id="s60:lato-hairlineitalic:3" d=""/><path id="s60:lato-hairlineitalic:40" d="M1086-1400L1082-1378L353-1378L272-722L892-722L888-700L270-700L186-22L918-22L914 0L160 0L332-1400L1086-1400Z"/><path id="s60:lato-hairlineitalic:88" d="M232-980L158-356Q152-303 152-257Q152-138 196.50-73Q241-8 340-8Q402-8 465.50-38.50Q529-69 588.50-126Q648-183 701.50-263.50Q755-344 798-444L862-980L884-980L766 0L760 0Q752 0 750-4.50Q748-9 748-14L794-394L794-399Q754-306 702-230Q650-154 590-100Q530-46 466-17Q402 12 338 12Q230 12 179.50-57.50Q129-127 129-255Q129-278 131-303.50Q133-329 136-356L210-980L232-980Z"/><path id="s60:lato-hairlineitalic:85" d="M114 0L232-984L236-984Q248-984 248-970L207-608Q277-794 370-893Q463-992 572-992Q616-992 658-976L654-958Q612-973 572-973Q515-973 463-943.50Q411-914 364.50-859.50Q318-805 277-726Q236-647 201-548L136 0L114 0Z"/><path id="s60:lato-hairlineitalic:82" d="M422-8Q521-8 602.50-58.50Q684-109 742-192Q800-275 832-381Q864-487 864-598Q864-686 842-756Q820-826 779-875Q738-924 680-950Q622-976 550-976Q484-976 425.50-953Q367-930 318-889.50Q269-849 230-793.50Q191-738 164-672.50Q137-607 122.50-534Q108-461 108-386Q108-298 130-228Q152-158 192.50-109Q233-60 291-34Q349-8 422-8M420 12Q342 12 279.50-16Q217-44 173.50-95.50Q130-147 107-220.50Q84-294 84-386Q84-463 99-538Q114-613 142.50-681Q171-749 211.50-806.50Q252-864 304-906Q356-948 418.50-972Q481-996 552-996Q630-996 692-968Q754-940 797.50-888Q841-836 864.50-762.50Q888-689 888-598Q888-522 873-447Q858-372 829.50-304Q801-236 760.50-178Q720-120 668-78Q616-36 553.50-12Q491 12 420 12Z"/><path id="s60:lato-hairlineitalic:83" d="M68 360L232-984L236-984Q244-984 246-979.50Q248-975 248-967L201-551Q240-649 291-730.50Q342-812 401-870.50Q460-929 525-961.50Q590-994 656-994Q721-994 769-968.50Q817-943 848.50-898Q880-853 895-791.50Q910-730 910-658Q910-587 895.50-509.50Q881-432 852.50-357.50Q824-283 782.50-216Q741-149 688-98.50Q635-48 570.50-18Q506 12 432 12Q346 12 271-30.50Q196-73 154-162L90 360L68 360M656-974Q591-974 526.50-940.50Q462-907 402-845Q342-783 289-694Q236-605 194-494L158-193Q182-142 212.50-106.50Q243-71 278.50-49.50Q314-28 353.50-18Q393-8 434-8Q506-8 567.50-37Q629-66 679.50-115Q730-164 769-229.50Q808-295 834.50-367Q861-439 874.50-514Q888-589 888-658Q888-731 873-789.50Q858-848 829-889Q800-930 756.50-952Q713-974 656-974Z"/><path id="s60:lato-hairlineitalic:68" d="M722 0L716 0Q709 0 706.50-3.50Q704-7 704-12L752-430Q714-333 665-251.50Q616-170 559.50-111.50Q503-53 440-20.50Q377 12 310 12Q245 12 199.50-13Q154-38 125.50-83Q97-128 83.50-190Q70-252 70-326Q70-410 92-492Q114-574 153-648Q192-722 246-785Q300-848 364.50-894Q429-940 501.50-966Q574-992 650-992Q704-992 749-981.50Q794-971 836-944L722 0M310-8Q374-8 436.50-41Q499-74 556-136Q613-198 664-285.50Q715-373 757-483L813-934Q776-954 736-963Q696-972 650-972Q578-972 509-947Q440-922 378-878Q316-834 264-773Q212-712 174-640Q136-568 115-488Q94-408 94-326Q94-253 106.50-194.50Q119-136 145-94.50Q171-53 212-30.50Q253-8 310-8Z"/><path id="s60:lato-hairlineitalic:81" d="M114 0L232-984L236-984Q244-984 246-979.50Q248-975 248-970L205-587Q245-680 297-755Q349-830 408.50-883.50Q468-937 532-965.50Q596-994 660-994Q768-994 818.50-925.50Q869-857 869-729Q869-706 867-680.50Q865-655 862-628L788 0L766 0L840-628Q843-654 845-679Q847-704 847-727Q847-845 802-909.50Q757-974 658-974Q596-974 532.50-943.50Q469-913 409.50-856.50Q350-800 296.50-719.50Q243-639 200-539L136 0L114 0Z"/><path id="s60:lato-hairlineitalic:79" d="M142 0L316-1440L338-1440L162 0L142 0Z"/><path id="s60:lato-hairlineitalic:74" d="M716-740Q715-679 699.50-630Q684-581 661-540.50Q638-500 612-465Q586-430 564-397.50Q542-365 527-332.50Q512-300 512-264Q512-237 525.50-213Q539-189 559.50-165.50Q580-142 604-118Q628-94 648.50-65Q669-36 682.50-1.50Q696 33 696 76Q696 132 665.50 186Q635 240 579.50 282Q524 324 447 350Q370 376 278 376Q206 376 145 361.50Q84 347 40 318.50Q-4 290-29 248Q-54 206-54 150Q-54 86-21 31.50Q12-23 73-62.50Q134-102 220-124.50Q306-147 413-147Q447-147 482.50-144.50Q518-142 556-137Q530-163 511-192.50Q492-222 492-263Q492-284 495.50-303Q499-322 508-343Q517-364 533-389Q549-414 575-446Q531-414 481.50-396Q432-378 384-378Q327-378 280-395.50Q233-413 200-446.50Q167-480 148.50-529Q130-578 130-640Q130-707 152.50-770.50Q175-834 218-883.50Q261-933 322.50-963.50Q384-994 462-994Q559-994 624-946L872-946L872-938Q872-935 868.50-931.50Q865-928 854-926L648-926Q680-894 698-847Q716-800 716-740M674 76Q674 40 665.50 12.50Q657-15 643-38Q629-61 611-80Q593-99 575-117Q533-122 494-125Q455-128 419-128Q307-128 222.50-105.50Q138-83 81.50-44.50Q25-6-3.50 44.50Q-32 95-32 150Q-32 200-9 238Q14 276 55.50 302.50Q97 329 154.50 342.50Q212 356 280 356Q369 356 441.50 331.50Q514 307 565.50 267.50Q617 228 645 178Q673 128 674 76M384-398Q457-398 515-428Q573-458 613.50-506Q654-554 675-615.50Q696-677 696-740Q696-799 679-843Q662-887 631.50-916Q601-945 557.50-959.50Q514-974 462-974Q388-974 330.50-945.50Q273-917 233.50-870.50Q194-824 173-764Q152-704 152-640Q152-520 215.50-459Q279-398 384-398Z"/><path id="s60:lato-hairlineitalic:86" d="M704-898Q699-890 696.50-888Q694-886 690-886Q683-886 670-899.50Q657-913 632-929.50Q607-946 567-960Q527-974 466-974Q409-974 357-954Q305-934 265-899.50Q225-865 201.50-820Q178-775 178-726Q178-680 198-648.50Q218-617 250.50-595Q283-573 324.50-557Q366-541 409.50-525.50Q453-510 495-492.50Q537-475 569.50-450Q602-425 622-388.50Q642-352 642-300Q642-241 619-184Q596-127 553-82.50Q510-38 448.50-11Q387 16 310 16Q262 16 224.50 7.50Q187-1 157-16Q127-31 101.50-53Q76-75 52-102L58-108Q64-114 68-114Q73-114 87-96.50Q101-79 129-58Q157-37 201.50-19.50Q246-2 314-2Q382-2 439-27Q496-52 536.50-93.50Q577-135 599.50-188.50Q622-242 622-300Q622-349 602-383Q582-417 549.50-440.50Q517-464 475-480Q433-496 389.50-511Q346-526 304.50-543Q263-560 230.50-583.50Q198-607 178-641.50Q158-676 158-726Q158-779 182.50-827.50Q207-876 249.50-913Q292-950 348.50-972Q405-994 470-994Q547-994 602-971.50Q657-949 704-898Z"/><path id="s60:lato-hairlineitalic:80" d="M114 0L232-984L236-984Q244-984 246-979.50Q248-975 248-970L205-588Q244-681 293-756Q342-831 398-884Q454-937 515-965.50Q576-994 640-994Q689-994 722-979.50Q755-965 775.50-937.50Q796-910 804.50-869Q813-828 813-776Q813-743 810-706.50Q807-670 802-628Q840-720 890.50-789Q941-858 997-903.50Q1053-949 1112-971.50Q1171-994 1226-994Q1277-994 1312-978.50Q1347-963 1368.50-933.50Q1390-904 1399.50-860.50Q1409-817 1409-761Q1409-701 1400-628L1326 0L1304 0L1378-628Q1387-700 1387-759Q1387-811 1378.50-851Q1370-891 1351-918.50Q1332-946 1301-960Q1270-974 1224-974Q1170-974 1112.50-951Q1055-928 999.50-880.50Q944-833 892.50-759Q841-685 799-583L730 0L708 0L782-628Q787-670 790-706.50Q793-743 793-775Q793-823 785.50-860Q778-897 760-922.50Q742-948 712-961Q682-974 638-974Q508-974 398.50-862Q289-750 200-539L136 0L114 0Z"/><path id="s60:lato-hairlineitalic:69" d="M122 0L296-1440L318-1440L209-553Q248-650 299.50-731.50Q351-813 409.50-871Q468-929 533-961.50Q598-994 664-994Q729-994 777-968.50Q825-943 856.50-898Q888-853 903-791.50Q918-730 918-658Q918-587 903.50-509.50Q889-432 860.50-357.50Q832-283 790.50-216Q749-149 696-98.50Q643-48 578.50-18Q514 12 440 12Q353 12 278-31Q203-74 161-163L138-14Q136-8 136-4Q136 0 128 0L122 0M664-974Q599-974 534.50-940.50Q470-907 410-845Q350-783 297-694Q244-605 202-494L166-193Q190-142 220.50-106.50Q251-71 286.50-49.50Q322-28 361.50-18Q401-8 442-8Q514-8 575.50-37Q637-66 687.50-115Q738-164 777-229.50Q816-295 842.50-367Q869-439 882.50-514Q896-589 896-658Q896-731 881-789.50Q866-848 837-889Q808-930 764.50-952Q721-974 664-974Z"/><path id="s60:lato-hairlineitalic:73" d="M247-920L136-10L98 240Q96 248 92.50 250Q89 252 86 252L82 252L225-920L78-924Q68-924 68-932L68-938L227-938L246-1088Q256-1172 282.50-1233.50Q309-1295 346.50-1335Q384-1375 432-1394.50Q480-1414 534-1414Q560-1414 587-1408.50Q614-1403 634-1392L633-1388Q632-1385 629.50-1381.50Q627-1378 622-1378Q612-1378 590-1386Q568-1394 532-1394Q483-1394 440-1377.50Q397-1361 362.50-1324.50Q328-1288 303.50-1229.50Q279-1171 268-1088L248-938L554-938L550-920L247-920Z"/><path id="s60:lato-hairlineitalic:87" d="M188-146Q188-151 188.50-160.50Q189-170 190.50-187.50Q192-205 195.50-232.50Q199-260 204-302L279-918L130-918Q118-918 118-928L120-934L281-938L336-1332Q337-1337 340-1341.50Q343-1346 348-1346L354-1346L304-938L610-938L608-918L301-918L226-300Q221-259 218-232Q215-205 213-187Q211-169 210.50-159.50Q210-150 210-146Q210-108 219.50-81Q229-54 246-37Q263-20 286-12Q309-4 336-4Q375-4 405.50-17Q436-30 458.50-45Q481-60 495-73Q509-86 514-86Q518-86 522-82L524-78Q491-37 439-10.50Q387 16 334 16Q265 16 226.50-22Q188-60 188-146Z"/><path id="s60:lato-hairlineitalic:76" d="M284-980L164 0L142 0L262-980L284-980M362-1344Q362-1323 346-1306.50Q330-1290 310-1290Q289-1290 273.50-1306.50Q258-1323 258-1344Q258-1367 273.50-1383.50Q289-1400 310-1400Q330-1400 346-1383.50Q362-1367 362-1344Z"/><path id="s60:lato-hairlineitalic:92" d="M194 344Q186 360 172 360L160 360L361-17L90-980L102-980Q110-980 113-977Q116-974 118-966L368-76Q373-58 375-38Q378-48 382.50-57.50Q387-67 392-76L862-970Q867-980 878-980L892-980L194 344Z"/><path id="s60:lato-hairlineitalic:17" d="M70-48Q70-75 88.50-94.50Q107-114 134-114Q161-114 180.50-94.50Q200-75 200-48Q200-21 180.50-2.50Q161 16 134 16Q107 16 88.50-2.50Q70-21 70-48Z"/><path id="s60:lato-hairlineitalic:91" d="M380-521L122-980L134-980Q147-980 152-972L396-535Q398-538 400-540.50Q402-543 404-546L742-972Q747-980 756-980L774-980L406-519L694 0L682 0Q667 0 662-10L388-506Q385-501 380-494L-4-8Q-8-3-12-1.50Q-16 0-22 0L-38 0L380-521Z"/><path id="s60:lato-hairlineitalic:70" d="M778-182Q723-121 675.50-83Q628-45 583-24Q538-3 494 4.50Q450 12 402 12Q318 12 257.50-17.50Q197-47 158-98Q119-149 100.50-219Q82-289 82-370Q82-447 98-524Q114-601 143.50-670.50Q173-740 215-799.50Q257-859 309.50-902.50Q362-946 424-971Q486-996 556-996Q604-996 642.50-986.50Q681-977 712-959.50Q743-942 768-918Q793-894 814-866L810-862Q806-858 800-858Q793-858 779-876.50Q765-895 737-917Q709-939 665-957.50Q621-976 554-976Q457-976 375-924Q293-872 233-787Q173-702 139.50-593Q106-484 106-370Q106-294 122.50-228Q139-162 175-113Q211-64 267-36Q323-8 402-8Q462-8 510.50-21.50Q559-35 596.50-55Q634-75 662-98Q690-121 710.50-141Q731-161 744-174.50Q757-188 766-188Q769-188 771-187.50Q773-187 778-182Z"/><path id="s60:lato-hairlineitalic:41" d="M1082-1378L353-1378L270-702L908-702L904-680L267-680L184 0L160 0L332-1400L1086-1400L1082-1378Z"/><path id="s60:lato-hairlineitalic:15" d="M74-52Q74-76 90.50-95Q107-114 134-114Q161-114 178.50-94Q196-74 196-36Q196 41 162.50 112.50Q129 184 78 238L75 235Q72 232 72 228Q72 223 76 218Q83 207 99.50 185Q116 163 132.50 133.50Q149 104 162 67Q175 30 176-11Q159 8 130 8Q106 8 90-8.50Q74-25 74-52Z"/></defs><g id="line-0"><use x="0" y="1761" xlink:href="#s60:lato-hairlineitalic:55"/><use x="1068" y="1761" xlink:href="#s60:lato-hairlineitalic:75"/><use x="2072" y="1761" xlink:href="#s60:lato-hairlineitalic:72"/><use x="2942" y="1761" xlink:href="#s60:lato-hairlineitalic:3"/><use x="3328" y="1761" xlink:href="#s60:lato-hairlineitalic:40"/><use x="4432" y="1761" xlink:href="#s60:lato-hairlineitalic:88"/><use x="5428" y="1761" xlink:href="#s60:lato-hairlineitalic:85"/><use x="6034" y="1761" xlink:href="#s60:lato-hairlineitalic:82"/><use x="7006" y="1761" xlink:href="#s60:lato-hairlineitalic:83"/><use x="7990" y="1761" xlink:href="#s60:lato-hairlineitalic:72"/><use x="8860" y="1761" xlink:href="#s60:lato-hairlineitalic:68"/><use x="9814" y="1761" xlink:href="#s60:lato-hairlineitalic:81"/><use x="10812" y="1761" xlink:href="#s60:lato-hairlineitalic:3"/><use x="11198" y="1761" xlink:href="#s60:lato-hairlineitalic:79"/><use x="11622" y="1761" xlink:href="#s60:lato-hairlineitalic:68"/><use x="12576" y="1761" xlink:href="#s60:lato-hairlineitalic:81"/><use x="13574" y="1761" xlink:href="#s60:lato-hairlineitalic:74"/><use x="14412" y="1761" xlink:href="#s60:lato-hairlineitalic:88"/><use x="15408" y="1761" xlink:href="#s60:lato-hairlineitalic:68"/><use x="16362" y="1761" xlink:href="#s60:lato-hairlineitalic:74"/><use x="17200" y="1761" xlink:href="#s60:lato-hairlineitalic:72"/><use x="18070" y="1761" xlink:href="#s60:lato-hairlineitalic:86"/><use x="18836" y="1761" xlink:href="#s60:lato-hairlineitalic:3"/><use x="19222" y="1761" xlink:href="#s60:lato-hairlineitalic:68"/><use x="20176" y="1761" xlink:href="#s60:lato-hairlineitalic:85"/><use x="20782" y="1761" xlink:href="#s60:lato-hairlineitalic:72"/><use x="21652" y="1761" xlink:href="#s60:lato-hairlineitalic:3"/><use x="22038" y="1761" xlink:href="#s60:lato-hairlineitalic:80"/><use x="23574" y="1761" xlink:href="#s60:lato-hairlineitalic:72"/><use x="24444" y="1761" xlink:href="#s60:lato-hairlineitalic:80"/><use x="25980" y="1761" xlink:href="#s60:lato-hairlineitalic:69"/><use x="26972" y="1761" xlink:href="#s60:lato-hairlineitalic:72"/><use x="27842" y="1761" xlink:href="#s60:lato-hairlineitalic:85"/><use x="28488" y="1761" xlink:href="#s60:lato-hairlineitalic:86"/><use x="29254" y="1761" xlink:href="#s60:lato-hairlineitalic:3"/><use x="29640" y="1761" xlink:href="#s60:lato-hairlineitalic:82"/><use x="30612" y="1761" xlink:href="#s60:lato-hairlineitalic:73"/><use x="31148" y="1761" xlink:href="#s60:lato-hairlineitalic:3"/><use x="31534" y="1761" xlink:href="#s60:lato-hairlineitalic:87"/><use x="32168" y="1761" xlink:href="#s60:lato-hairlineitalic:75"/><use x="33172" y="1761" xlink:href="#s60:lato-hairlineitalic:72"/><use x="34042" y="1761" xlink:href="#s60:lato-hairlineitalic:3"/><use x="34428" y="1761" xlink:href="#s60:lato-hairlineitalic:86"/><use x="35194" y="1761" xlink:href="#s60:lato-hairlineitalic:68"/><use x="36148" y="1761" xlink:href="#s60:lato-hairlineitalic:80"/><use x="37684" y="1761" xlink:href="#s60:lato-hairlineitalic:72"/><use x="38554" y="1761" xlink:href="#s60:lato-hairlineitalic:3"/><use x="38940" y="1761" xlink:href="#s60:lato-hairlineitalic:73"/><use x="39476" y="1761" xlink:href="#s60:lato-hairlineitalic:68"/><use x="40430" y="1761" xlink:href="#s60:lato-hairlineitalic:80"/><use x="41966" y="1761" xlink:href="#s60:lato-hairlineitalic:76"/><use x="42392" y="1761" xlink:href="#s60:lato-hairlineitalic:79"/><use x="42816" y="1761" xlink:href="#s60:lato-hairlineitalic:92"/><use x="43556" y="1761" xlink:href="#s60:lato-hairlineitalic:17"/></g><g id="line-1"><use x="8891" y="4161" xlink:href="#s60:lato-hairlineitalic:55"/><use x="9959" y="4161" xlink:href="#s60:lato-hairlineitalic:75"/><use x="10963" y="4161" xlink:href="#s60:lato-hairlineitalic:72"/><use x="11833" y="4161" xlink:href="#s60:lato-hairlineitalic:76"/><use x="12259" y="4161" xlink:href="#s60:lato-hairlineitalic:85"/><use x="12905" y="4161" xlink:href="#s60:lato-hairlineitalic:3"/><use x="13291" y="4161" xlink:href="#s60:lato-hairlineitalic:86"/><use x="14057" y="4161" xlink:href="#s60:lato-hairlineitalic:72"/><use x="14927" y="4161" xlink:href="#s60:lato-hairlineitalic:83"/><use x="15911" y="4161" xlink:href="#s60:lato-hairlineitalic:68"/><use x="16865" y="4161" xlink:href="#s60:lato-hairlineitalic:85"/><use x="17471" y="4161" xlink:href="#s60:lato-hairlineitalic:68"/><use x="18425" y="4161" xlink:href="#s60:lato-hairlineitalic:87"/><use x="19059" y="4161" xlink:href="#s60:lato-hairlineitalic:72"/><use x="19929" y="4161" xlink:href="#s60:lato-hairlineitalic:3"/><use x="20315" y="4161" xlink:href="#s60:lato-hairlineitalic:72"/><use x="21145" y="4161" xlink:href="#s60:lato-hairlineitalic:91"/><use x="21927" y="4161" xlink:href="#s60:lato-hairlineitalic:76"/><use x="22353" y="4161" xlink:href="#s60:lato-hairlineitalic:86"/><use x="23119" y="4161" xlink:href="#s60:lato-hairlineitalic:87"/><use x="23753" y="4161" xlink:href="#s60:lato-hairlineitalic:72"/><use x="24623" y="4161" xlink:href="#s60:lato-hairlineitalic:81"/><use x="25621" y="4161" xlink:href="#s60:lato-hairlineitalic:70"/><use x="26477" y="4161" xlink:href="#s60:lato-hairlineitalic:72"/><use x="27347" y="4161" xlink:href="#s60:lato-hairlineitalic:3"/><use x="27733" y="4161" xlink:href="#s60:lato-hairlineitalic:76"/><use x="28159" y="4161" xlink:href="#s60:lato-hairlineitalic:86"/><use x="28925" y="4161" xlink:href="#s60:lato-hairlineitalic:3"/><use x="29311" y="4161" xlink:href="#s60:lato-hairlineitalic:68"/><use x="30265" y="4161" xlink:href="#s60:lato-hairlineitalic:3"/><use x="30651" y="4161" xlink:href="#s60:lato-hairlineitalic:80"/><use x="32167" y="4161" xlink:href="#s60:lato-hairlineitalic:92"/><use x="33027" y="4161" xlink:href="#s60:lato-hairlineitalic:87"/><use x="33661" y="4161" xlink:href="#s60:lato-hairlineitalic:75"/><use x="34665" y="4161" xlink:href="#s60:lato-hairlineitalic:17"/></g><g id="line-2"><use x="10861" y="6561" xlink:href="#s60:lato-hairlineitalic:41"/><use x="11843" y="6561" xlink:href="#s60:lato-hairlineitalic:82"/><use x="12815" y="6561" xlink:href="#s60:lato-hairlineitalic:85"/><use x="13461" y="6561" xlink:href="#s60:lato-hairlineitalic:3"/><use x="13847" y="6561" xlink:href="#s60:lato-hairlineitalic:86"/><use x="14613" y="6561" xlink:href="#s60:lato-hairlineitalic:70"/><use x="15469" y="6561" xlink:href="#s60:lato-hairlineitalic:76"/><use x="15895" y="6561" xlink:href="#s60:lato-hairlineitalic:72"/><use x="16765" y="6561" xlink:href="#s60:lato-hairlineitalic:81"/><use x="17763" y="6561" xlink:href="#s60:lato-hairlineitalic:70"/><use x="18619" y="6561" xlink:href="#s60:lato-hairlineitalic:72"/><use x="19489" y="6561" xlink:href="#s60:lato-hairlineitalic:15"/><use x="19859" y="6561" xlink:href="#s60:lato-hairlineitalic:3"/><use x="20245" y="6561" xlink:href="#s60:lato-hairlineitalic:80"/><use x="21781" y="6561" xlink:href="#s60:lato-hairlineitalic:88"/><use x="22777" y="6561" xlink:href="#s60:lato-hairlineitalic:86"/><use x="23543" y="6561" xlink:href="#s60:lato-hairlineitalic:76"/><use x="23969" y="6561" xlink:href="#s60:lato-hairlineitalic:70"/><use x="24825" y="6561" xlink:href="#s60:lato-hairlineitalic:15"/><use x="25195" y="6561" xlink:href="#s60:lato-hairlineitalic:3"/><use x="25581" y="6561" xlink:href="#s60:lato-hairlineitalic:86"/><use x="26347" y="6561" xlink:href="#s60:lato-hairlineitalic:83"/><use x="27331" y="6561" xlink:href="#s60:lato-hairlineitalic:82"/><use x="28303" y="6561" xlink:href="#s60:lato-hairlineitalic:85"/><use x="28949" y="6561" xlink:href="#s60:lato-hairlineitalic:87"/><use x="29583" y="6561" xlink:href="#s60:lato-hairlineitalic:15"/><use x="29953" y="6561" xlink:href="#s60:lato-hairlineitalic:3"/><use x="30339" y="6561" xlink:href="#s60:lato-hairlineitalic:72"/><use x="31209" y="6561" xlink:href="#s60:lato-hairlineitalic:87"/><use x="31843" y="6561" xlink:href="#s60:lato-hairlineitalic:70"/><use x="32699" y="6561" xlink:href="#s60:lato-hairlineitalic:15"/></g></svg>