<svg xmlns="http://www.w3.org/2000/svg" xmlns:xlink="http://www.w3.org/1999/xlink" width="564" height="84" viewBox="0 0 47041 6987"><defs><path id="s23:lato-bolditalic:55" d="M1192-1446L1165-1233L769-1233L617 0L359 0L510-1233L113-1233L139-1446L1192-1446Z"/><path id="s23:lato-bolditalic:75" d="M60 0L241-1486L487-1486L410-851Q485-948 572.50-995Q660-1042 751-1042Q809-1042 856-1021.50Q903-1001 936-961.50Q969-922 987-864.50Q1005-807 1005-732Q1005-713 1003.50-693.50Q1002-674 1000-653L923 0L676 0L753-653Q755-671 756.50-687Q758-703 758-717Q758-783 733-812Q708-841 657-841Q619-841 578-819.50Q537-798 499-758.50Q461-719 428-663Q395-607 372-538L307 0L60 0Z"/><path id="s23:lato-bolditalic:72" d="M918-788Q918-719 890.50-662Q863-605 792-560Q721-515 599.50-482.50Q478-450 290-431L290-418Q290-176 495-176Q539-176 573-184.50Q607-193 632.50-205Q658-217 678.50-232Q699-247 716.50-259Q734-271 751-279.50Q768-288 788-288Q800-288 812-282.50Q824-277 832-266L895-190Q842-137 791-98Q740-59 687-34Q634-9 575 3Q516 15 446 15Q356 15 283-15.50Q210-46 158-101.50Q106-157 77.50-235.50Q49-314 49-411Q49-492 66.50-570Q84-648 117-718Q150-788 198-847Q246-906 306.50-949Q367-992 439.50-1016Q512-1040 595-1040Q676-1040 736.50-1017Q797-994 837.50-957.50Q878-921 898-876Q918-831 918-788M581-868Q531-868 488-847.50Q445-827 410.50-790Q376-753 350.50-701.50Q325-650 310-589Q434-606 509.50-626Q585-646 626.50-670Q668-694 681.50-721Q695-748 695-779Q695-794 688.50-810Q682-826 668.50-838.50Q655-851 633.50-859.50Q612-868 581-868Z"/><path id="s23:lato-bolditalic:3" d=""/><path id="s23:lato-bolditalic:40" d="M1091-1446L1065-1239L483-1239L433-828L890-828L865-629L408-629L356-207L940-207L914 0L70 0L248-1446L1091-1446Z"/><path id="s23:lato-bolditalic:88" d="M409-1026Q389-857 375-740Q361-623 352-545Q343-467 338-422Q333-377 330.50-354Q328-331 327.50-323Q327-315 327-310Q327-244 351.50-215.50Q376-187 426-187Q465-187 506.50-208.50Q548-230 586.50-270Q625-310 658-367Q691-424 714-494L778-1026L1025-1026L901 0L776 0Q759 0 743.50-4.50Q728-9 715.50-18Q703-27 695.50-41Q688-55 688-74L688-78L694-203Q616-93 523.50-39Q431 15 332 15Q275 15 228.50-5.50Q182-26 149-65Q116-104 98-161.50Q80-219 80-293Q80-313 81-333Q82-353 85-375L162-1026L409-1026Z"/><path id="s23:lato-bolditalic:85" d="M52 0L177-1027L302-1027Q338-1027 361-1011Q384-995 384-960Q384-960 384-956.50Q384-953 383-936Q382-919 381-882.50Q380-846 377-780Q440-901 515-967Q590-1033 671-1033Q712-1033 754-1015L709-779Q659-800 614-800Q525-800 458-715Q391-630 348-449L294 0L52 0Z"/><path id="s23:lato-bolditalic:82" d="M460-175Q522-175 572-210.50Q622-246 657.50-305.50Q693-365 712-444Q731-523 731-610Q731-735 688.50-794Q646-853 560-853Q498-853 448-818Q398-783 363-723Q328-663 309-584Q290-505 290-417Q290-292 332-233.50Q374-175 460-175M438 15Q353 15 280.50-13.50Q208-42 155.50-97Q103-152 73-232Q43-312 43-415Q43-548 85.50-663Q128-778 201.50-862Q275-946 373-994Q471-1042 582-1042Q667-1042 739.50-1013.50Q812-985 865-930Q918-875 948-795Q978-715 978-612Q978-480 935-365.50Q892-251 818.50-166.50Q745-82 647-33.50Q549 15 438 15Z"/><path id="s23:lato-bolditalic:83" d="M11 335L177-1027L302-1027Q336-1027 360-1012.50Q384-998 384-965Q384-965 384-962Q384-959 383-943.50Q382-928 381-894.50Q380-861 377-800Q451-911 544.50-976.50Q638-1042 742-1042Q806-1042 858.50-1018.50Q911-995 948-948Q985-901 1005-829Q1025-757 1025-660Q1025-573 1007-489Q989-405 956-330Q923-255 877.50-192Q832-129 776-83Q720-37 656.50-11Q593 15 525 15Q456 15 399.50-9.50Q343-34 302-78L251 335L11 335M646-848Q605-848 563-820.50Q521-793 482-744.50Q443-696 409.50-630Q376-564 352-488L322-239Q356-203 399.50-188Q443-173 486-173Q552-173 606-214Q660-255 698.50-321Q737-387 758-469.50Q779-552 779-635Q779-743 744-795.50Q709-848 646-848Z"/><path id="s23:lato-bolditalic:68" d="M858 0L728 0Q683 0 665-21Q647-42 647-74L655-214Q587-108 502-46.50Q417 15 315 15Q257 15 206.50-8Q156-31 118.50-76.50Q81-122 59.50-190.50Q38-259 38-351Q38-443 61-530Q84-617 126.50-693.50Q169-770 229-834Q289-898 363.50-944Q438-990 524.50-1015.50Q611-1041 707-1041Q776-1041 845.50-1031Q915-1021 982-995L858 0M412-187Q453-187 492.50-215Q532-243 567-292.50Q602-342 632-409Q662-476 684-553L723-863Q696-866 673-866Q590-866 519-828Q448-790 396-725.50Q344-661 314.50-575.50Q285-490 285-395Q285-287 319-237Q353-187 412-187Z"/><path id="s23:lato-bolditalic:81" d="M52 0L175-1027L301-1027Q340-1027 361.50-1008Q383-989 383-947L376-814Q454-929 549-985.50Q644-1042 745-1042Q802-1042 848.50-1021.50Q895-1001 928-961.50Q961-922 979-864.50Q997-807 997-732Q997-713 995.50-693.50Q994-674 992-653L915 0L668 0Q688-169 702-286.50Q716-404 725-482Q734-560 739-604.50Q744-649 746.50-672Q749-695 749.50-702.50Q750-710 750-715Q750-781 726-810.50Q702-840 651-840Q610-840 566-816Q522-792 482-748Q442-704 409-642Q376-580 355-504L299 0L52 0Z"/><path id="s23:lato-bolditalic:79" d="M65 0L245-1486L488-1486L308 0L65 0Z"/><path id="s23:lato-bolditalic:74" d="M860-729Q860-683 850-646.50Q840-610 825.50-579Q811-548 794-520.50Q777-493 762-464.50Q747-436 737.50-404.50Q728-373 728-335Q728-294 745-259.50Q762-225 782-189Q802-153 819-112Q836-71 836-17Q836 59 802 127.50Q768 196 704 247.50Q640 299 548 329Q456 359 340 359Q245 359 169.50 339.50Q94 320 40.50 285Q-13 250-41.50 202.50Q-70 155-70 98Q-70 13-27-45Q16-103 84-138.50Q152-174 236.50-189.50Q321-205 405-205Q446-205 485-201.50Q524-198 559-192Q555-208 552.50-224Q550-240 550-258Q550-316 582-386Q544-360 496-346Q448-332 380-332Q322-332 269.50-351Q217-370 177-409Q137-448 113.50-506.50Q90-565 90-643Q90-718 118-789.50Q146-861 201-917.50Q256-974 337-1008Q418-1042 525-1042Q582-1042 633.50-1028.50Q685-1015 728-989L1015-989L1004-909Q1000-885 988.50-868Q977-851 955-845L850-817Q855-797 857.50-775Q860-753 860-729M450-481Q495-481 529-502Q563-523 586.50-557Q610-591 622-633.50Q634-676 634-720Q634-795 599-835Q564-875 497-875Q452-875 418-855.50Q384-836 361-803.50Q338-771 326.50-729Q315-687 315-642Q315-565 349.50-523Q384-481 450-481M611 4Q611-10 609.50-23.50Q608-37 606-49Q552-58 506.50-62Q461-66 421-66Q353-66 304.50-55Q256-44 224.50-26Q193-8 178.50 16Q164 40 164 67Q164 127 212 158Q260 189 360 189Q416 189 462 175Q508 161 541 136Q574 111 592.50 77Q611 43 611 4Z"/><path id="s23:lato-bolditalic:86" d="M733-833Q722-817 712-810.50Q702-804 686-804Q669-804 651-814Q633-824 609.50-836.50Q586-849 555.50-859Q525-869 482-869Q403-869 361-833.50Q319-798 319-745Q319-714 336.50-692.50Q354-671 382-655Q410-639 446-625.50Q482-612 520-596.50Q558-581 594-561.50Q630-542 658-514Q686-486 703.50-446.50Q721-407 721-352Q721-278 691.50-211Q662-144 607-93.50Q552-43 474-13.50Q396 16 300 16Q251 16 205.50 6.50Q160-3 120-20Q80-37 47.50-60Q15-83-8-110L52-204Q63-221 78.50-230Q94-239 115-239Q136-239 153-226Q170-213 193-197.50Q216-182 248.50-169Q281-156 332-156Q373-156 404.50-167Q436-178 457.50-197Q479-216 490-241Q501-266 501-294Q501-328 484-350.50Q467-373 438.50-389.50Q410-406 374-418.50Q338-431 300.50-445Q263-459 227.50-477Q192-495 163.50-522.50Q135-550 118-589.50Q101-629 101-686Q101-754 127-818.50Q153-883 203.50-932.50Q254-982 327.50-1012Q401-1042 496-1042Q594-1042 669.50-1008.50Q745-975 797-923L733-833Z"/><path id="s23:lato-bolditalic:80" d="M52 0L177-1027L302-1027Q340-1027 362-1009Q384-991 384-952Q384-951 384-949Q384-947 383.50-935.50Q383-924 382-900.50Q381-877 379-834Q448-939 529-990.50Q610-1042 698-1042Q793-1042 847.50-979Q902-916 911-797Q983-923 1070.50-982.50Q1158-1042 1261-1042Q1376-1042 1438.50-964.50Q1501-887 1501-741Q1501-721 1500-698.50Q1499-676 1496-653L1419 0L1175 0Q1195-170 1209-288.50Q1223-407 1232-486.50Q1241-566 1246-611Q1251-656 1253.50-680.50Q1256-705 1256.50-713.50Q1257-722 1257-727Q1257-787 1237-813.50Q1217-840 1172-840Q1134-840 1098-820Q1062-800 1029.50-762Q997-724 969.50-669Q942-614 921-545L857 0L614 0L691-653Q693-674 694.50-692.50Q696-711 696-727Q696-787 676.50-813.50Q657-840 612-840Q573-840 536-819Q499-798 466.50-758.50Q434-719 406.50-662.50Q379-606 358-536L294 0L52 0Z"/><path id="s23:lato-bolditalic:69" d="M60 0L241-1486L482-1486L401-823Q473-924 561.50-983Q650-1042 750-1042Q814-1042 866.50-1018.50Q919-995 956-948Q993-901 1013-829Q1033-757 1033-660Q1033-573 1015-489Q997-405 964-330Q931-255 885.50-192Q840-129 784-83Q728-37 664.50-11Q601 15 533 15Q454 15 392.50-16.50Q331-48 289-102L281-68Q273-32 254-16Q235 0 194 0L60 0M654-848Q613-848 571-820Q529-792 489.50-743Q450-694 416.50-627.50Q383-561 359-485L329-240Q363-203 407-188Q451-173 494-173Q560-173 614-214Q668-255 706.50-321Q745-387 766-469.50Q787-552 787-635Q787-743 752-795.50Q717-848 654-848Z"/><path id="s23:lato-bolditalic:73" d="M432-841L335-42L284 146Q270 195 240.50 221Q211 247 157 247L58 247L189-841L110-855Q88-859 74-871.50Q60-884 60-907Q60-908 60.50-911Q61-914 62-924.50Q63-935 65.50-956.50Q68-978 73-1017L211-1017L220-1093Q231-1181 266.50-1251Q302-1321 356.50-1370Q411-1419 482-1445Q553-1471 635-1471Q699-1471 753-1452L731-1324Q729-1313 721.50-1306.50Q714-1300 703-1297Q692-1294 678.50-1293Q665-1292 651-1292Q611-1292 577.50-1281Q544-1270 518.50-1245.50Q493-1221 476.50-1181.50Q460-1142 453-1085L445-1017L675-1017L652-841L432-841Z"/><path id="s23:lato-bolditalic:87" d="M147-209Q147-216 147-225.50Q147-235 148.50-253.50Q150-272 153.50-302.50Q157-333 163-381L220-841L123-841Q106-841 95.50-851.50Q85-862 85-883Q85-884 85.50-887Q86-890 87-900.50Q88-911 90.50-932Q93-953 97-991L253-1018L335-1298Q341-1318 355.50-1329Q370-1340 391-1340L523-1340L483-1017L731-1017L710-841L461-841L406-394Q401-353 398.50-329Q396-305 394.50-291.50Q393-278 392.50-272.50Q392-267 392-265Q392-227 410.50-205Q429-183 463-183Q484-183 499-188.50Q514-194 525-200Q536-206 544.50-211.50Q553-217 561-217Q572-217 578.50-211.50Q585-206 590-195L643-75Q588-30 521-7Q454 16 386 16Q277 16 213.50-43Q150-102 147-209Z"/><path id="s23:lato-bolditalic:76" d="M441-1026L318 0L74 0L197-1026L441-1026M503-1325Q503-1293 489.50-1265Q476-1237 454.50-1216Q433-1195 405-1182.50Q377-1170 347-1170Q318-1170 290.50-1182.50Q263-1195 242-1216Q221-1237 208.50-1265Q196-1293 196-1325Q196-1357 209-1386Q222-1415 243-1436.50Q264-1458 291.50-1470.50Q319-1483 348-1483Q378-1483 406-1470.50Q434-1458 455.50-1437Q477-1416 490-1387Q503-1358 503-1325Z"/><path id="s23:lato-bolditalic:92" d="M371 284Q345 335 291 335L108 335L336-78L77-1026L284-1026Q311-1026 324.50-1012.50Q338-999 343-980L469-448Q475-422 478.50-397Q482-372 484-346Q495-372 506.50-397.50Q518-423 530-449L783-981Q793-1001 812-1013.50Q831-1026 851-1026L1049-1026L371 284Z"/><path id="s23:lato-bolditalic:17" d="M34-136Q34-167 45.50-195Q57-223 77.50-243Q98-263 125.50-275Q153-287 185-287Q217-287 244.50-275Q272-263 292.50-243Q313-223 325-195Q337-167 337-136Q337-104 325-76.50Q313-49 292.50-29Q272-9 244.50 2.50Q217 14 185 14Q153 14 125.50 2.50Q98-9 77.50-29Q57-49 45.50-76.50Q34-104 34-136Z"/><path id="s23:lato-bolditalic:91" d="M353-555L115-1026L339-1026Q364-1026 375-1019Q386-1012 394-995L535-689Q541-701 548-713.50Q555-726 564-739L744-991Q756-1008 769-1017Q782-1026 799-1026L1023-1026L662-554L926 0L701 0Q676 0 661.50-13.50Q647-27 639-45L482-405Q477-394 471-383Q465-372 459-363L231-45Q218-28 202-14Q186 0 163 0L-54 0L353-555Z"/><path id="s23:lato-bolditalic:70" d="M838-182Q787-126 740.50-88Q694-50 646-27Q598-4 545 5.50Q492 15 429 15Q340 15 269.50-15.50Q199-46 150-102Q101-158 75.50-237Q50-316 50-413Q50-538 90-651.50Q130-765 202-851.50Q274-938 373-989.50Q472-1041 589-1041Q691-1041 762.50-1005Q834-969 890-897L811-803Q802-794 790.50-786.50Q779-779 765-779Q748-779 734-789.50Q720-800 701.50-812Q683-824 655.50-834.50Q628-845 584-845Q527-845 475-814Q423-783 383.50-726Q344-669 320.50-589Q297-509 297-412Q297-299 347-237.50Q397-176 482-176Q539-176 576.50-192.50Q614-209 640-228.50Q666-248 686.50-264.50Q707-281 731-281Q743-281 754.50-274.50Q766-268 775-258L838-182L838-182Z"/><path id="s23:lato-bolditalic:41" d="M1065-1239L483-1239L429-799L920-799L893-592L404-592L331 0L70 0L248-1446L1091-1446L1065-1239Z"/><path id="s23:lato-bolditalic:15" d="M40-152Q40-180 50.50-204.50Q61-229 80-247.50Q99-266 125.50-276.50Q152-287 184-287Q222-287 250.50-273.50Q279-260 297.50-236.50Q316-213 325.50-182.50Q335-152 335-118Q335-70 320.50-17Q306 36 278 89Q250 142 209 192Q168 242 114 284L71 245Q53 230 53 209Q53 194 70 174.50Q87 155 108.50 129.50Q130 104 151 71Q172 38 181-3Q149-3 123.50-14.50Q98-26 79-46Q60-66 50-93Q40-120 40-152Z"/></defs><g id="line-0"><use x="0" y="1761" xlink:href="#s23:lato-bolditalic:55"/><use x="1096" y="1761" xlink:href="#s23:lato-bolditalic:75"/><use x="2181" y="1761" xlink:href="#s23:lato-bolditalic:72"/><use x="3127" y="1761" xlink:href="#s23:lato-bolditalic:3"/><use x="3513" y="1761" xlink:href="#s23:lato-bolditalic:40"/><use x="4564" y="1761" xlink:href="#s23:lato-bolditalic:88"/><use x="5639" y="1761" xlink:href="#s23:lato-bolditalic:85"/><use x="6326" y="1761" xlink:href="#s23:lato-bolditalic:82"/><use x="7346" y="1761" xlink:href="#s23:lato-bolditalic:83"/><use x="8406" y="1761" xlink:href="#s23:lato-bolditalic:72"/><use x="9352" y="1761" xlink:href="#s23:lato-bolditalic:68"/><use x="10387" y="1761" xlink:href="#s23:lato-bolditalic:81"/><use x="11464" y="1761" xlink:href="#s23:lato-bolditalic:3"/><use x="11850" y="1761" xlink:href="#s23:lato-bolditalic:79"/><use x="12349" y="1761" xlink:href="#s23:lato-bolditalic:68"/><use x="13384" y="1761" xlink:href="#s23:lato-bolditalic:81"/><use x="14461" y="1761" xlink:href="#s23:lato-bolditalic:74"/><use x="15431" y="1761" xlink:href="#s23:lato-bolditalic:88"/><use x="16506" y="1761" xlink:href="#s23:lato-bolditalic:68"/><use x="17541" y="1761" xlink:href="#s23:lato-bolditalic:74"/><use x="18511" y="1761" xlink:href="#s23:lato-bolditalic:72"/><use x="19457" y="1761" xlink:href="#s23:lato-bolditalic:86"/><use x="20242" y="1761" xlink:href="#s23:lato-bolditalic:3"/><use x="20628" y="1761" xlink:href="#s23:lato-bolditalic:68"/><use x="21663" y="1761" xlink:href="#s23:lato-bolditalic:85"/><use x="22350" y="1761" xlink:href="#s23:lato-bolditalic:72"/><use x="23296" y="1761" xlink:href="#s23:lato-bolditalic:3"/><use x="23682" y="1761" xlink:href="#s23:lato-bolditalic:80"/><use x="25263" y="1761" xlink:href="#s23:lato-bolditalic:72"/><use x="26209" y="1761" xlink:href="#s23:lato-bolditalic:80"/><use x="27790" y="1761" xlink:href="#s23:lato-bolditalic:69"/><use x="28866" y="1761" xlink:href="#s23:lato-bolditalic:72"/><use x="29812" y="1761" xlink:href="#s23:lato-bolditalic:85"/><use x="30539" y="1761" xlink:href="#s23:lato-bolditalic:86"/><use x="31324" y="1761" xlink:href="#s23:lato-bolditalic:3"/><use x="31710" y="1761" xlink:href="#s23:lato-bolditalic:82"/><use x="32730" y="1761" xlink:href="#s23:lato-bolditalic:73"/><use x="33366" y="1761" xlink:href="#s23:lato-bolditalic:3"/><use x="33752" y="1761" xlink:href="#s23:lato-bolditalic:87"/><use x="34461" y="1761" xlink:href="#s23:lato-bolditalic:75"/><use x="35546" y="1761" xlink:href="#s23:lato-bolditalic:72"/><use x="36492" y="1761" xlink:href="#s23:lato-bolditalic:3"/><use x="36878" y="1761" xlink:href="#s23:lato-bolditalic:86"/><use x="37663" y="1761" xlink:href="#s23:lato-bolditalic:68"/><use x="38698" y="1761" xlink:href="#s23:lato-bolditalic:80"/><use x="40279" y="1761" xlink:href="#s23:lato-bolditalic:72"/><use x="41225" y="1761" xlink:href="#s23:lato-bolditalic:3"/><use x="41611" y="1761" xlink:href="#s23:lato-bolditalic:73"/><use x="42247" y="1761" xlink:href="#s23:lato-bolditalic:68"/><use x="43282" y="1761" xlink:href="#s23:lato-bolditalic:80"/><use x="44863" y="1761" xlink:href="#s23:lato-bolditalic:76"/><use x="45378" y="1761" xlink:href="#s23:lato-bolditalic:79"/><use x="45877" y="1761" xlink:href="#s23:lato-bolditalic:92"/><use x="46704" y="1761" xlink:href="#s23:lato-bolditalic:17"/></g><g id="line-1"><use x="9402" y="4161" xlink:href="#s23:lato-bolditalic:55"/><use x="10498" y="4161" xlink:href="#s23:lato-bolditalic:75"/><use x="11583" y="4161" xlink:href="#s23:lato-bolditalic:72"/><use x="12529" y="4161" xlink:href="#s23:lato-bolditalic:76"/><use x="13044" y="4161" xlink:href="#s23:lato-bolditalic:85"/><use x="13771" y="4161" xlink:href="#s23:lato-bolditalic:3"/><use x="14157" y="4161" xlink:href="#s23:lato-bolditalic:86"/><use x="14942" y="4161" xlink:href="#s23:lato-bolditalic:72"/><use x="15888" y="4161" xlink:href="#s23:lato-bolditalic:83"/><use x="16948" y="4161" xlink:href="#s23:lato-bolditalic:68"/><use x="17983" y="4161" xlink:href="#s23:lato-bolditalic:85"/><use x="18670" y="4161" xlink:href="#s23:lato-bolditalic:68"/><use x="19705" y="4161" xlink:href="#s23:lato-bolditalic:87"/><use x="20414" y="4161" xlink:href="#s23:lato-bolditalic:72"/><use x="21360" y="4161" xlink:href="#s23:lato-bolditalic:3"/><use x="21746" y="4161" xlink:href="#s23:lato-bolditalic:72"/><use x="22636" y="4161" xlink:href="#s23:lato-bolditalic:91"/><use x="23642" y="4161" xlink:href="#s23:lato-bolditalic:76"/><use x="24157" y="4161" xlink:href="#s23:lato-bolditalic:86"/><use x="24942" y="4161" xlink:href="#s23:lato-bolditalic:87"/><use x="25651" y="4161" xlink:href="#s23:lato-bolditalic:72"/><use x="26597" y="4161" xlink:href="#s23:lato-bolditalic:81"/><use x="27674" y="4161" xlink:href="#s23:lato-bolditalic:70"/><use x="28545" y="4161" xlink:href="#s23:lato-bolditalic:72"/><use x="29491" y="4161" xlink:href="#s23:lato-bolditalic:3"/><use x="29877" y="4161" xlink:href="#s23:lato-bolditalic:76"/><use x="30392" y="4161" xlink:href="#s23:lato-bolditalic:86"/><use x="31177" y="4161" xlink:href="#s23:lato-bolditalic:3"/><use x="31563" y="4161" xlink:href="#s23:lato-bolditalic:68"/><use x="32598" y="4161" xlink:href="#s23:lato-bolditalic:3"/><use x="32984" y="4161" xlink:href="#s23:lato-bolditalic:80"/><use x="34514" y="4161" xlink:href="#s23:lato-bolditalic:92"/><use x="35508" y="4161" xlink:href="#s23:lato-bolditalic:87"/><use x="36217" y="4161" xlink:href="#s23:lato-bolditalic:75"/><use x="37302" y="4161" xlink:href="#s23:lato-bolditalic:17"/></g><g id="line-2"><use x="11716" y="6561" xlink:href="#s23:lato-bolditalic:41"/><use x="12684" y="6561" xlink:href="#s23:lato-bolditalic:82"/><use x="13704" y="6561" xlink:href="#s23:lato-bolditalic:85"/><use x="14431" y="6561" xlink:href="#s23:lato-bolditalic:3"/><use x="14817" y="6561" xlink:href="#s23:lato-bolditalic:86"/><use x="15602" y="6561" xlink:href="#s23:lato-bolditalic:70"/><use x="16473" y="6561" xlink:href="#s23:lato-bolditalic:76"/><use x="16988" y="6561" xlink:href="#s23:lato-bolditalic:72"/><use x="17934" y="6561" xlink:href="#s23:lato-bolditalic:81"/><use x="19011" y="6561" xlink:href="#s23:lato-bolditalic:70"/><use x="19882" y="6561" xlink:href="#s23:lato-bolditalic:72"/><use x="20828" y="6561" xlink:href="#s23:lato-bolditalic:15"/><use x="21278" y="6561" xlink:href="#s23:lato-bolditalic:3"/><use x="21664" y="6561" xlink:href="#s23:lato-bolditalic:80"/><use x="23245" y="6561" xlink:href="#s23:lato-bolditalic:88"/><use x="24320" y="6561" xlink:href="#s23:lato-bolditalic:86"/><use x="25105" y="6561" xlink:href="#s23:lato-bolditalic:76"/><use x="25620" y="6561" xlink:href="#s23:lato-bolditalic:70"/><use x="26491" y="6561" xlink:href="#s23:lato-bolditalic:15"/><use x="26941" y="6561" xlink:href="#s23:lato-bolditalic:3"/><use x="27327" y="6561" xlink:href="#s23:lato-bolditalic:86"/><use x="28112" y="6561" xlink:href="#s23:lato-bolditalic:83"/><use x="29172" y="6561" xlink:href="#s23:lato-bolditalic:82"/><use x="30192" y="6561" xlink:href="#s23:lato-bolditalic:85"/><use x="30919" y="6561" xlink:href="#s23:lato-bolditalic:87"/><use x="31628" y="6561" xlink:href="#s23:lato-bolditalic:15"/><use x="32078" y="6561" xlink:href="#s23:lato-bolditalic:3"/><use x="32464" y="6561" xlink:href="#s23:lato-bolditalic:72"/><use x="33410" y="6561" xlink:href="#s23:lato-bolditalic:87"/><use x="34119" y="6561" xlink:href="#s23:lato-bolditalic:70"/><use x="34990" y="6561" xlink:href="#s23:lato-bolditalic:15"/></g></svg>