<svg xmlns="http://www.w3.org/2000/svg" xmlns:xlink="http://www.w3.org/1999/xlink" width="607" height="84" viewBox="0 0 50612 6987"><defs><path id="s22:lato-bold:55" d="M1165-1446L1165-1225L730-1225L730 0L461 0L461-1225L24-1225L24-1446L1165-1446Z"/><path id="s22:lato-bold:75" d="M132 0L132-1486L379-1486L379-915Q439-972 511-1007Q583-1042 680-1042Q764-1042 829-1013.50Q894-985 937.50-933.50Q981-882 1003.50-810.50Q1026-739 1026-653L1026 0L779 0L779-653Q779-747 735.50-798.50Q692-850 605-850Q541-850 485-821Q429-792 379-742L379 0L132 0Z"/><path id="s22:lato-bold:72" d="M556-1042Q653-1042 734.50-1011Q816-980 875-920.50Q934-861 967-774.50Q1000-688 1000-577Q1000-549 997.50-530.50Q995-512 988.50-501.50Q982-491 971-486.50Q960-482 943-482L309-482Q320-324 394-250Q468-176 590-176Q650-176 693.50-190Q737-204 769.50-221Q802-238 826.50-252Q851-266 874-266Q889-266 900-260Q911-254 919-243L991-153Q950-105 899-72.50Q848-40 792.50-20.50Q737-1 679.50 7Q622 15 568 15Q461 15 369-20.50Q277-56 209-125.50Q141-195 102-297.50Q63-400 63-535Q63-640 97-732.50Q131-825 194.50-893.50Q258-962 349.50-1002Q441-1042 556-1042M561-865Q453-865 392-804Q331-743 314-631L778-631Q778-679 765-721.50Q752-764 725-796Q698-828 657-846.50Q616-865 561-865Z"/><path id="s22:lato-bold:3" d=""/><path id="s22:lato-bold:40" d="M1058-1446L1058-1232L417-1232L417-831L922-831L922-624L417-624L417-215L1058-215L1058 0L146 0L146-1446L1058-1446Z"/><path id="s22:lato-bold:88" d="M358-1026L358-374Q358-280 401.50-228.50Q445-177 532-177Q596-177 652-205.50Q708-234 758-284L758-1026L1005-1026L1005 0L854 0Q806 0 791-45L774-127Q742-95 708-68.50Q674-42 635.50-23.50Q597-5 552.50 5.50Q508 16 457 16Q373 16 308.50-12.50Q244-41 200-93Q156-145 133.50-216.50Q111-288 111-374L111-1026L358-1026Z"/><path id="s22:lato-bold:85" d="M132 0L132-1026L277-1026Q315-1026 330-1012Q345-998 350-964L365-840Q420-935 494-990Q568-1045 660-1045Q736-1045 786-1010L754-825Q751-807 741-799.50Q731-792 714-792Q699-792 673-799Q647-806 604-806Q527-806 472-763.50Q417-721 379-639L379 0L132 0Z"/><path id="s22:lato-bold:82" d="M570-1042Q685-1042 778.50-1005Q872-968 938-900Q1004-832 1040-734Q1076-636 1076-515Q1076-393 1040-295Q1004-197 938-128Q872-59 778.50-22Q685 15 570 15Q455 15 361-22Q267-59 200.50-128Q134-197 97.50-295Q61-393 61-515Q61-636 97.50-734Q134-832 200.50-900Q267-968 361-1005Q455-1042 570-1042M570-175Q698-175 759.50-261Q821-347 821-513Q821-679 759.50-766Q698-853 570-853Q440-853 378-765.50Q316-678 316-513Q316-348 378-261.50Q440-175 570-175Z"/><path id="s22:lato-bold:83" d="M132 335L132-1026L283-1026Q307-1026 324-1015Q341-1004 346-981L366-886Q428-957 508.50-1001Q589-1045 697-1045Q781-1045 850.50-1010Q920-975 970.50-908.50Q1021-842 1048.50-744.50Q1076-647 1076-521Q1076-406 1045-308Q1014-210 956.50-138Q899-66 817.50-25.50Q736 15 635 15Q548 15 487.50-11.50Q427-38 379-85L379 335L132 335M612-850Q535-850 480.50-817.50Q426-785 379-726L379-266Q421-214 470.50-193.50Q520-173 577-173Q633-173 678.50-194Q724-215 755.50-258Q787-301 804-366.50Q821-432 821-521Q821-611 806.50-673.50Q792-736 765-775Q738-814 699.50-832Q661-850 612-850Z"/><path id="s22:lato-bold:68" d="M936 0L825 0Q790 0 770-10.50Q750-21 740-53L718-126Q679-91 641.50-64.50Q604-38 564-20Q524-2 479 7Q434 16 379 16Q314 16 259-1.50Q204-19 164.50-54Q125-89 103-141Q81-193 81-262Q81-320 111.50-376.50Q142-433 213-478.50Q284-524 402-554Q520-584 695-588L695-648Q695-751 651.50-800.50Q608-850 525-850Q465-850 425-836Q385-822 355.50-804.50Q326-787 301-773Q276-759 246-759Q221-759 203-772Q185-785 174-804L129-883Q306-1045 556-1045Q646-1045 716.50-1015.50Q787-986 836-933.50Q885-881 910.50-808Q936-735 936-648L936 0M456-154Q494-154 526-161Q558-168 586.50-182Q615-196 641.50-216.50Q668-237 695-265L695-438Q587-433 514.50-419.50Q442-406 398-385Q354-364 335.50-336Q317-308 317-275Q317-210 355.50-182Q394-154 456-154Z"/><path id="s22:lato-bold:81" d="M132 0L132-1026L283-1026Q331-1026 346-981L363-900Q394-932 428.50-958Q463-984 501.50-1003Q540-1022 584-1032Q628-1042 680-1042Q764-1042 829-1013.50Q894-985 937.50-933.50Q981-882 1003.50-810.50Q1026-739 1026-653L1026 0L779 0L779-653Q779-747 735.50-798.50Q692-850 605-850Q541-850 485-821Q429-792 379-742L379 0L132 0Z"/><path id="s22:lato-bold:79" d="M395-1486L395 0L148 0L148-1486L395-1486Z"/><path id="s22:lato-bold:74" d="M487-1044Q553-1044 611-1030.50Q669-1017 717-991L1012-991L1012-899Q1012-876 1000-863Q988-850 959-845L867-828Q877-802 882.50-773Q888-744 888-712Q888-636 857.50-574.50Q827-513 773.50-470Q720-427 646.50-403.50Q573-380 487-380Q429-380 374-391Q326-362 326-326Q326-295 354.50-280.50Q383-266 429.50-260Q476-254 535-252.50Q594-251 656-246Q718-241 777-228.50Q836-216 882.50-189Q929-162 957.50-115.50Q986-69 986 4Q986 72 952.50 136Q919 200 855.50 250Q792 300 700 330.50Q608 361 490 361Q373 361 287 338.50Q201 316 144.50 278.50Q88 241 60 192Q32 143 32 90Q32 18 76-31Q120-80 198-109Q160-130 137-165Q114-200 114-256Q114-279 122-303.50Q130-328 146.50-352Q163-376 188-397.50Q213-419 247-436Q169-478 124.50-548Q80-618 80-712Q80-788 110.50-849.50Q141-911 195.50-954.50Q250-998 324.50-1021Q399-1044 487-1044M758 46Q758 16 740-3Q722-22 691-32.50Q660-43 618.50-48Q577-53 530.50-55.50Q484-58 434.50-60.50Q385-63 339-69Q297-46 271.50-14.50Q246 17 246 58Q246 85 259.50 108.50Q273 132 302.50 149Q332 166 379 175.50Q426 185 494 185Q563 185 613 174.50Q663 164 695.50 145.50Q728 127 743 101.50Q758 76 758 46M487-538Q533-538 567-550.50Q601-563 623.50-585Q646-607 657.50-638Q669-669 669-706Q669-782 623.50-826.50Q578-871 487-871Q396-871 350.50-826.50Q305-782 305-706Q305-670 316.50-639Q328-608 350.50-585.50Q373-563 407.50-550.50Q442-538 487-538Z"/><path id="s22:lato-bold:86" d="M741-826Q731-810 720-803.50Q709-797 692-797Q674-797 653.50-807Q633-817 606-829.50Q579-842 544.50-852Q510-862 463-862Q390-862 348-831Q306-800 306-750Q306-717 327.50-694.50Q349-672 384.50-655Q420-638 465-624.50Q510-611 557-595Q604-579 649-558.50Q694-538 729.50-506.50Q765-475 786.50-431Q808-387 808-325Q808-251 781-188.50Q754-126 702-80.50Q650-35 573.50-9.50Q497 16 398 16Q345 16 294.50 6.50Q244-3 197.50-20Q151-37 111.50-60Q72-83 42-110L99-204Q110-221 125-230Q140-239 163-239Q186-239 206.50-226Q227-213 254-198Q281-183 317.50-170Q354-157 410-157Q454-157 485.50-167.50Q517-178 537.50-195Q558-212 567.50-234.50Q577-257 577-281Q577-317 555.50-340Q534-363 498.50-380Q463-397 417.50-410.50Q372-424 324.50-440Q277-456 231.50-477.50Q186-499 150.50-532Q115-565 93.50-613Q72-661 72-729Q72-792 97-849Q122-906 170.50-948.50Q219-991 291.50-1016.50Q364-1042 459-1042Q565-1042 652-1007Q739-972 797-915L741-826Z"/><path id="s22:lato-bold:80" d="M132 0L132-1026L283-1026Q331-1026 346-981L362-905Q389-935 418.50-960Q448-985 481.50-1003Q515-1021 553.50-1031.50Q592-1042 638-1042Q735-1042 797.50-989.50Q860-937 891-850Q915-901 951-937.50Q987-974 1030-997Q1073-1020 1121.50-1031Q1170-1042 1219-1042Q1304-1042 1370-1016Q1436-990 1481-940Q1526-890 1549.50-818Q1573-746 1573-653L1573 0L1326 0L1326-653Q1326-751 1283-800.50Q1240-850 1157-850Q1119-850 1086.50-837Q1054-824 1029.50-799.50Q1005-775 991-738Q977-701 977-653L977 0L729 0L729-653Q729-756 687.50-803Q646-850 565-850Q512-850 465.50-823.50Q419-797 379-751L379 0L132 0Z"/><path id="s22:lato-bold:69" d="M135 0L135-1486L382-1486L382-900Q443-965 520-1003.50Q597-1042 700-1042Q784-1042 853.50-1007.50Q923-973 973.50-907Q1024-841 1051.50-744Q1079-647 1079-521Q1079-406 1048-308Q1017-210 959.50-138Q902-66 820.50-25.50Q739 15 638 15Q591 15 552 5.50Q513-4 481-21Q449-38 421.50-62.50Q394-87 369-117L358-48Q352-22 337.50-11Q323 0 298 0L135 0M615-850Q538-850 483.50-817.50Q429-785 382-726L382-266Q424-214 473.50-193.50Q523-173 581-173Q637-173 682-194Q727-215 758.50-258Q790-301 807-366.50Q824-432 824-521Q824-611 809.50-673.50Q795-736 768-775Q741-814 702.50-832Q664-850 615-850Z"/><path id="s22:lato-bold:73" d="M176 0L176-840L87-854Q58-859 40.50-874Q23-889 23-916L23-1017L176-1017L176-1093Q176-1181 202.50-1251Q229-1321 278.50-1370Q328-1419 399-1445Q470-1471 559-1471Q630-1471 691-1452L686-1328Q684-1299 659-1292Q634-1285 601-1285Q557-1285 522.50-1275.50Q488-1266 464-1242.50Q440-1219 427.50-1180.50Q415-1142 415-1085L415-1017L682-1017L682-841L423-841L423 0L176 0Z"/><path id="s22:lato-bold:87" d="M469 16Q336 16 264-59.50Q192-135 192-268L192-841L88-841Q68-841 53.50-854Q39-867 39-893L39-991L204-1018L256-1298Q260-1318 274.50-1329Q289-1340 311-1340L439-1340L439-1017L709-1017L709-841L439-841L439-285Q439-237 463-210Q487-183 527-183Q550-183 565.50-188.50Q581-194 592.50-200Q604-206 613-211.50Q622-217 631-217Q642-217 649-211.50Q656-206 664-195L738-75Q684-30 614-7Q544 16 469 16Z"/><path id="s22:lato-bold:76" d="M395-1026L395 0L148 0L148-1026L395-1026M432-1325Q432-1293 419-1265Q406-1237 384.50-1216Q363-1195 334-1182.50Q305-1170 272-1170Q240-1170 211.50-1182.50Q183-1195 162-1216Q141-1237 128.50-1265Q116-1293 116-1325Q116-1358 128.50-1387Q141-1416 162-1437Q183-1458 211.50-1470.50Q240-1483 272-1483Q305-1483 334-1470.50Q363-1458 384.50-1437Q406-1416 419-1387Q432-1358 432-1325Z"/><path id="s22:lato-bold:92" d="M496 282Q485 308 467.50 321.50Q450 335 414 335L230 335L422-76L7-1026L223-1026Q253-1026 269-1012Q285-998 293-980L512-448Q523-422 531-394Q539-366 545-338Q553-367 562.50-394Q572-421 583-449L789-980Q797-1000 815.50-1013Q834-1026 857-1026L1055-1026L496 282Z"/><path id="s22:lato-bold:17" d="M73-136Q73-167 84.50-195Q96-223 116.50-243Q137-263 165-275Q193-287 225-287Q256-287 284-275Q312-263 332-243Q352-223 364-195Q376-167 376-136Q376-104 364-76.50Q352-49 332-29Q312-9 284 2.50Q256 14 225 14Q193 14 165 2.50Q137-9 116.50-29Q96-49 84.50-76.50Q73-104 73-136Z"/><path id="s22:lato-bold:91" d="M375-529L38-1026L276-1026Q303-1026 316-1018.50Q329-1011 339-994L554-651Q559-668 566.50-685Q574-702 585-719L758-989Q770-1008 783-1017Q796-1026 815-1026L1042-1026L704-540L1056 0L818 0Q791 0 774.50-14Q758-28 747-46L529-403Q520-367 504-343L312-46Q301-29 285-14.50Q269 0 245 0L24 0L375-529Z"/><path id="s22:lato-bold:70" d="M853-809Q842-795 831.50-787Q821-779 801-779Q782-779 764-790.50Q746-802 721-816.50Q696-831 661.50-842.50Q627-854 576-854Q511-854 462-830.50Q413-807 380.50-763Q348-719 332-656.50Q316-594 316-515Q316-433 333.50-369Q351-305 384-261.50Q417-218 464-195.50Q511-173 570-173Q629-173 665.50-187.50Q702-202 727-219.50Q752-237 770.50-251.50Q789-266 812-266Q842-266 857-243L928-153Q887-105 839-72.50Q791-40 739.50-20.50Q688-1 633 7Q578 15 524 15Q429 15 345-20.50Q261-56 198.50-124Q136-192 99.50-290.50Q63-389 63-515Q63-628 95.50-724.50Q128-821 191-891.50Q254-962 347-1002Q440-1042 561-1042Q676-1042 762.50-1005Q849-968 918-899L853-809Z"/><path id="s22:lato-bold:41" d="M1058-1446L1058-1232L417-1232L417-804L958-804L958-589L417-589L417 0L146 0L146-1446L1058-1446Z"/><path id="s22:lato-bold:15" d="M80-152Q80-180 90.50-204.50Q101-229 120-247.50Q139-266 166-276.50Q193-287 225-287Q263-287 291-273.50Q319-260 338-236.50Q357-213 366-182.50Q375-152 375-118Q375-70 360.50-17Q346 36 318 89Q290 142 249 192Q208 242 155 284L112 245Q94 230 94 208Q94 200 99.50 190Q105 180 113 172Q124 160 140 142.50Q156 125 172 102.50Q188 80 201.50 53.50Q215 27 221-3Q190-3 164-14.50Q138-26 119.50-46Q101-66 90.50-93Q80-120 80-152Z"/></defs><g id="line-0"><use x="0" y="1761" xlink:href="#s22:lato-bold:55"/><use x="1190" y="1761" xlink:href="#s22:lato-bold:75"/><use x="2327" y="1761" xlink:href="#s22:lato-bold:72"/><use x="3396" y="1761" xlink:href="#s22:lato-bold:3"/><use x="3782" y="1761" xlink:href="#s22:lato-bold:40"/><use x="4927" y="1761" xlink:href="#s22:lato-bold:88"/><use x="6064" y="1761" xlink:href="#s22:lato-bold:85"/><use x="6881" y="1761" xlink:href="#s22:lato-bold:82"/><use x="8018" y="1761" xlink:href="#s22:lato-bold:83"/><use x="9149" y="1761" xlink:href="#s22:lato-bold:72"/><use x="10218" y="1761" xlink:href="#s22:lato-bold:68"/><use x="11265" y="1761" xlink:href="#s22:lato-bold:81"/><use x="12402" y="1761" xlink:href="#s22:lato-bold:3"/><use x="12788" y="1761" xlink:href="#s22:lato-bold:79"/><use x="13330" y="1761" xlink:href="#s22:lato-bold:68"/><use x="14377" y="1761" xlink:href="#s22:lato-bold:81"/><use x="15514" y="1761" xlink:href="#s22:lato-bold:74"/><use x="16549" y="1761" xlink:href="#s22:lato-bold:88"/><use x="17686" y="1761" xlink:href="#s22:lato-bold:68"/><use x="18733" y="1761" xlink:href="#s22:lato-bold:74"/><use x="19768" y="1761" xlink:href="#s22:lato-bold:72"/><use x="20837" y="1761" xlink:href="#s22:lato-bold:86"/><use x="21711" y="1761" xlink:href="#s22:lato-bold:3"/><use x="22097" y="1761" xlink:href="#s22:lato-bold:68"/><use x="23144" y="1761" xlink:href="#s22:lato-bold:85"/><use x="23961" y="1761" xlink:href="#s22:lato-bold:72"/><use x="25030" y="1761" xlink:href="#s22:lato-bold:3"/><use x="25416" y="1761" xlink:href="#s22:lato-bold:80"/><use x="27100" y="1761" xlink:href="#s22:lato-bold:72"/><use x="28169" y="1761" xlink:href="#s22:lato-bold:80"/><use x="29853" y="1761" xlink:href="#s22:lato-bold:69"/><use x="30993" y="1761" xlink:href="#s22:lato-bold:72"/><use x="32062" y="1761" xlink:href="#s22:lato-bold:85"/><use x="32879" y="1761" xlink:href="#s22:lato-bold:86"/><use x="33753" y="1761" xlink:href="#s22:lato-bold:3"/><use x="34139" y="1761" xlink:href="#s22:lato-bold:82"/><use x="35276" y="1761" xlink:href="#s22:lato-bold:73"/><use x="35977" y="1761" xlink:href="#s22:lato-bold:3"/><use x="36363" y="1761" xlink:href="#s22:lato-bold:87"/><use x="37137" y="1761" xlink:href="#s22:lato-bold:75"/><use x="38274" y="1761" xlink:href="#s22:lato-bold:72"/><use x="39343" y="1761" xlink:href="#s22:lato-bold:3"/><use x="39729" y="1761" xlink:href="#s22:lato-bold:86"/><use x="40603" y="1761" xlink:href="#s22:lato-bold:68"/><use x="41650" y="1761" xlink:href="#s22:lato-bold:80"/><use x="43334" y="1761" xlink:href="#s22:lato-bold:72"/><use x="44403" y="1761" xlink:href="#s22:lato-bold:3"/><use x="44789" y="1761" xlink:href="#s22:lato-bold:73"/><use x="45490" y="1761" xlink:href="#s22:lato-bold:68"/><use x="46537" y="1761" xlink:href="#s22:lato-bold:80"/><use x="48221" y="1761" xlink:href="#s22:lato-bold:76"/><use x="48763" y="1761" xlink:href="#s22:lato-bold:79"/><use x="49305" y="1761" xlink:href="#s22:lato-bold:92"/><use x="50236" y="1761" xlink:href="#s22:lato-bold:17"/></g><g id="line-1"><use x="10077.5" y="4161" xlink:href="#s22:lato-bold:55"/><use x="11267.5" y="4161" xlink:href="#s22:lato-bold:75"/><use x="12404.5" y="4161" xlink:href="#s22:lato-bold:72"/><use x="13473.5" y="4161" xlink:href="#s22:lato-bold:76"/><use x="14015.5" y="4161" xlink:href="#s22:lato-bold:85"/><use x="14832.5" y="4161" xlink:href="#s22:lato-bold:3"/><use x="15218.5" y="4161" xlink:href="#s22:lato-bold:86"/><use x="16092.5" y="4161" xlink:href="#s22:lato-bold:72"/><use x="17161.5" y="4161" xlink:href="#s22:lato-bold:83"/><use x="18292.5" y="4161" xlink:href="#s22:lato-bold:68"/><use x="19339.5" y="4161" xlink:href="#s22:lato-bold:85"/><use x="20127.5" y="4161" xlink:href="#s22:lato-bold:68"/><use x="21174.5" y="4161" xlink:href="#s22:lato-bold:87"/><use x="21948.5" y="4161" xlink:href="#s22:lato-bold:72"/><use x="23017.5" y="4161" xlink:href="#s22:lato-bold:3"/><use x="23403.5" y="4161" xlink:href="#s22:lato-bold:72"/><use x="24412.5" y="4161" xlink:href="#s22:lato-bold:91"/><use x="25492.5" y="4161" xlink:href="#s22:lato-bold:76"/><use x="26034.5" y="4161" xlink:href="#s22:lato-bold:86"/><use x="26908.5" y="4161" xlink:href="#s22:lato-bold:87"/><use x="27682.5" y="4161" xlink:href="#s22:lato-bold:72"/><use x="28751.5" y="4161" xlink:href="#s22:lato-bold:81"/><use x="29888.5" y="4161" xlink:href="#s22:lato-bold:70"/><use x="30842.5" y="4161" xlink:href="#s22:lato-bold:72"/><use x="31911.5" y="4161" xlink:href="#s22:lato-bold:3"/><use x="32297.5" y="4161" xlink:href="#s22:lato-bold:76"/><use x="32839.5" y="4161" xlink:href="#s22:lato-bold:86"/><use x="33713.5" y="4161" xlink:href="#s22:lato-bold:3"/><use x="34099.5" y="4161" xlink:href="#s22:lato-bold:68"/><use x="35146.5" y="4161" xlink:href="#s22:lato-bold:3"/><use x="35532.5" y="4161" xlink:href="#s22:lato-bold:80"/><use x="37180.5" y="4161" xlink:href="#s22:lato-bold:92"/><use x="38247.5" y="4161" xlink:href="#s22:lato-bold:87"/><use x="39021.5" y="4161" xlink:href="#s22:lato-bold:75"/><use x="40158.5" y="4161" xlink:href="#s22:lato-bold:17"/></g><g id="line-2"><use x="12505" y="6561" xlink:href="#s22:lato-bold:41"/><use x="13564" y="6561" xlink:href="#s22:lato-bold:82"/><use x="14701" y="6561" xlink:href="#s22:lato-bold:85"/><use x="15518" y="6561" xlink:href="#s22:lato-bold:3"/><use x="15904" y="6561" xlink:href="#s22:lato-bold:86"/><use x="16778" y="6561" xlink:href="#s22:lato-bold:70"/><use x="17732" y="6561" xlink:href="#s22:lato-bold:76"/><use x="18274" y="6561" xlink:href="#s22:lato-bold:72"/><use x="19343" y="6561" xlink:href="#s22:lato-bold:81"/><use x="20480" y="6561" xlink:href="#s22:lato-bold:70"/><use x="21434" y="6561" xlink:href="#s22:lato-bold:72"/><use x="22503" y="6561" xlink:href="#s22:lato-bold:15"/><use x="22953" y="6561" xlink:href="#s22:lato-bold:3"/><use x="23339" y="6561" xlink:href="#s22:lato-bold:80"/><use x="25023" y="6561" xlink:href="#s22:lato-bold:88"/><use x="26160" y="6561" xlink:href="#s22:lato-bold:86"/><use x="27034" y="6561" xlink:href="#s22:lato-bold:76"/><use x="27576" y="6561" xlink:href="#s22:lato-bold:70"/><use x="28530" y="6561" xlink:href="#s22:lato-bold:15"/><use x="28980" y="6561" xlink:href="#s22:lato-bold:3"/><use x="29366" y="6561" xlink:href="#s22:lato-bold:86"/><use x="30240" y="6561" xlink:href="#s22:lato-bold:83"/><use x="31371" y="6561" xlink:href="#s22:lato-bold:82"/><use x="32508" y="6561" xlink:href="#s22:lato-bold:85"/><use x="33325" y="6561" xlink:href="#s22:lato-bold:87"/><use x="34099" y="6561" xlink:href="#s22:lato-bold:15"/><use x="34549" y="6561" xlink:href="#s22:lato-bold:3"/><use x="34935" y="6561" xlink:href="#s22:lato-bold:72"/><use x="36004" y="6561" xlink:href="#s22:lato-bold:87"/><use x="36778" y="6561" xlink:href="#s22:lato-bold:70"/><use x="37732" y="6561" xlink:href="#s22:lato-bold:15"/></g></svg>