<svg xmlns="http://www.w3.org/2000/svg" xmlns:xlink="http://www.w3.org/1999/xlink" width="619" height="84" viewBox="0 0 51618 6987"><defs><path id="s20:lato-black:55" d="M1178-1457L1178-1189L768-1189L768 0L430 0L430-1189L20-1189L20-1457L1178-1457Z"/><path id="s20:lato-black:75" d="M120 0L120-1497L430-1497L430-946Q486-994 551.50-1023.50Q617-1053 708-1053Q793-1053 858.50-1023.50Q924-994 969-941.50Q1014-889 1037-816.50Q1060-744 1060-659L1060 0L750 0L750-659Q750-735 715-777.50Q680-820 612-820Q561-820 516-798Q471-776 430-739L430 0L120 0Z"/><path id="s20:lato-black:72" d="M564-1053Q667-1053 752.50-1021Q838-989 899.50-928Q961-867 995.50-778.50Q1030-690 1030-578Q1030-543 1027-521Q1024-499 1016-486Q1008-473 994.50-468Q981-463 960-463L362-463Q377-333 441-274.50Q505-216 606-216Q660-216 699-229Q738-242 768.50-258Q799-274 824.50-287Q850-300 878-300Q915-300 934-273L1024-162Q976-107 920.50-72.50Q865-38 806.50-18.50Q748 1 689.50 8.50Q631 16 578 16Q469 16 373.50-19.50Q278-55 206.50-125Q135-195 93.50-299Q52-403 52-541Q52-645 87.50-738Q123-831 189.50-901Q256-971 350.50-1012Q445-1053 564-1053M570-839Q481-839 431-788.50Q381-738 365-643L752-643Q752-680 742.50-715Q733-750 711.50-777.50Q690-805 655-822Q620-839 570-839Z"/><path id="s20:lato-black:3" d=""/><path id="s20:lato-black:40" d="M1058-1457L1058-1197L460-1197L460-857L918-857L918-607L460-607L460-260L1058-260L1058 0L120 0L120-1457L1058-1457Z"/><path id="s20:lato-black:88" d="M410-1037L410-379Q410-302 445-260Q480-218 548-218Q599-218 643.50-239Q688-260 730-298L730-1037L1040-1037L1040 0L848 0Q790 0 772-52L753-112Q723-83 691-59.50Q659-36 622.50-19.50Q586-3 544 6.50Q502 16 452 16Q367 16 301.50-13.50Q236-43 191-96Q146-149 123-221Q100-293 100-379L100-1037L410-1037Z"/><path id="s20:lato-black:85" d="M120 0L120-1037L304-1037Q327-1037 342.50-1033Q358-1029 368.50-1020.50Q379-1012 384.50-998Q390-984 394-964L411-867Q468-955 539-1006Q610-1057 694-1057Q765-1057 808-1023L768-795Q764-774 752-765.50Q740-757 720-757Q703-757 680-761.50Q657-766 622-766Q500-766 430-636L430 0L120 0Z"/><path id="s20:lato-black:82" d="M582-1053Q700-1053 797-1016Q894-979 963.50-910Q1033-841 1071.50-742.50Q1110-644 1110-521Q1110-397 1071.50-297.50Q1033-198 963.50-128.50Q894-59 797-21.50Q700 16 582 16Q463 16 365.50-21.50Q268-59 197.50-128.50Q127-198 88.50-297.50Q50-397 50-521Q50-644 88.50-742.50Q127-841 197.50-910Q268-979 365.50-1016Q463-1053 582-1053M582-214Q689-214 739.50-289.50Q790-365 790-519Q790-673 739.50-748Q689-823 582-823Q472-823 421-748Q370-673 370-519Q370-365 421-289.50Q472-214 582-214Z"/><path id="s20:lato-black:83" d="M120 329L120-1037L312-1037Q341-1037 360.50-1024Q380-1011 388-985L411-909Q441-942 475.50-969Q510-996 549.50-1015.50Q589-1035 634.50-1046Q680-1057 734-1057Q815-1057 884-1021Q953-985 1003-917Q1053-849 1081.50-750.50Q1110-652 1110-527Q1110-410 1077.50-311Q1045-212 986.50-139Q928-66 846.50-25Q765 16 666 16Q585 16 530-7Q475-30 430-69L430 329L120 329M626-820Q592-820 564.50-813.50Q537-807 513.50-795Q490-783 470-764.50Q450-746 430-722L430-282Q465-243 506-227.50Q547-212 592-212Q635-212 671-229Q707-246 733.50-283.50Q760-321 775-381Q790-441 790-527Q790-609 778-665Q766-721 744.50-755.50Q723-790 693-805Q663-820 626-820Z"/><path id="s20:lato-black:68" d="M836 0Q792 0 769.50-12Q747-24 732-62L710-119Q671-86 635-61Q599-36 560.50-18.50Q522-1 478.50 7.50Q435 16 382 16Q311 16 253-2.50Q195-21 154.50-57Q114-93 92-146.50Q70-200 70-270Q70-325 98-383Q126-441 195-488.50Q264-536 381-568Q498-600 676-604L676-648Q676-739 638.50-779.50Q601-820 532-820Q477-820 442-808Q407-796 379.50-781Q352-766 326-754Q300-742 264-742Q232-742 209.50-757.50Q187-773 174-796L118-893Q212-976 326.50-1016.50Q441-1057 572-1057Q666-1057 741.50-1026.50Q817-996 869.50-941.50Q922-887 950-812Q978-737 978-648L978 0L836 0M480-189Q540-189 585-210Q630-231 676-278L676-422Q583-418 523-406Q463-394 428-376Q393-358 379.50-335Q366-312 366-285Q366-232 395-210.50Q424-189 480-189Z"/><path id="s20:lato-black:81" d="M120 0L120-1037L312-1037Q341-1037 360.50-1024Q380-1011 388-985L406-925Q436-953 468-977Q500-1001 536.50-1017.50Q573-1034 615.50-1043.50Q658-1053 708-1053Q793-1053 858.50-1023.50Q924-994 969-941.50Q1014-889 1037-816.50Q1060-744 1060-659L1060 0L750 0L750-659Q750-735 715-777.50Q680-820 612-820Q561-820 516-798Q471-776 430-739L430 0L120 0Z"/><path id="s20:lato-black:79" d="M440-1497L440 0L130 0L130-1497L440-1497Z"/><path id="s20:lato-black:74" d="M486-1055Q552-1055 610.50-1042Q669-1029 719-1005L1032-1005L1032-892Q1032-866 1017.50-851Q1003-836 968-828L892-811Q906-766 906-718Q906-640 873.50-578Q841-516 784.50-472.50Q728-429 651-405.50Q574-382 486-382Q437-382 394-388Q360-368 360-342Q360-316 387.50-304.50Q415-293 460-288.50Q505-284 563-282.50Q621-281 681-275.50Q741-270 799-257Q857-244 902-215Q947-186 974.50-137.50Q1002-89 1002-14Q1002 56 968 123Q934 190 868 242Q802 294 706 325.50Q610 357 486 357Q364 357 275.50 334Q187 311 128.50 273.50Q70 236 42 187Q14 138 14 85Q14 16 56-31.50Q98-79 171-106Q136-129 115-165Q94-201 94-256Q94-279 102-304.50Q110-330 127-354Q144-378 170-400Q196-422 232-439Q151-482 104.50-553Q58-624 58-718Q58-796 91-858.50Q124-921 181.50-964.50Q239-1008 317-1031.50Q395-1055 486-1055M716 38Q716 13 700.50-2Q685-17 658.50-26Q632-35 596.50-39Q561-43 520-45Q479-47 435-48.50Q391-50 348-55Q319-35 300.50-10.50Q282 14 282 45Q282 67 291.50 85Q301 103 325 116Q349 129 389.50 136.50Q430 144 492 144Q559 144 602 136Q645 128 670.50 114Q696 100 706 80.50Q716 61 716 38M486-573Q563-573 597.50-611.50Q632-650 632-711Q632-774 597.50-810Q563-846 486-846Q409-846 374.50-810Q340-774 340-711Q340-681 348.50-656Q357-631 375-612.50Q393-594 420.50-583.50Q448-573 486-573Z"/><path id="s20:lato-black:86" d="M754-810Q742-791 728.50-783Q715-775 694-775Q672-775 650-784.50Q628-794 602.50-805Q577-816 545-825.50Q513-835 472-835Q413-835 381.50-812.50Q350-790 350-750Q350-721 370.50-702Q391-683 425-668.50Q459-654 502-641Q545-628 590-612Q635-596 678-574.50Q721-553 755-521.50Q789-490 809.50-445Q830-400 830-337Q830-260 802-195Q774-130 718.50-83Q663-36 581.50-10Q500 16 394 16Q341 16 288 6Q235-4 185.50-21Q136-38 94-61.50Q52-85 22-112L94-226Q107-246 125-257.50Q143-269 172-269Q199-269 220.50-257Q242-245 267-231Q292-217 325.50-205Q359-193 410-193Q446-193 471-200.50Q496-208 511-221Q526-234 533-250Q540-266 540-283Q540-314 519-334Q498-354 464-368.50Q430-383 386.50-395.50Q343-408 298-424Q253-440 209.50-462.50Q166-485 132-519.50Q98-554 77-604Q56-654 56-725Q56-791 81.50-850.50Q107-910 158-955Q209-1000 286-1026.50Q363-1053 466-1053Q522-1053 574.50-1043Q627-1033 673-1015Q719-997 757-972.50Q795-948 824-919L754-810Z"/><path id="s20:lato-black:80" d="M120 0L120-1037L312-1037Q341-1037 360.50-1024Q380-1011 388-985L405-929Q431-956 459-978.50Q487-1001 519.50-1017.50Q552-1034 589.50-1043.50Q627-1053 672-1053Q766-1053 827.50-1004.50Q889-956 921-875Q947-923 984.50-957Q1022-991 1065.50-1012Q1109-1033 1157.50-1043Q1206-1053 1254-1053Q1343-1053 1412-1026.50Q1481-1000 1527.50-949.50Q1574-899 1598-825.50Q1622-752 1622-659L1622 0L1312 0L1312-659Q1312-820 1174-820Q1111-820 1069.50-778.50Q1028-737 1028-659L1028 0L718 0L718-659Q718-748 683-784Q648-820 580-820Q538-820 500.50-801Q463-782 430-750L430 0L120 0Z"/><path id="s20:lato-black:69" d="M120 0L120-1497L430-1497L430-927Q488-984 561.50-1018.50Q635-1053 734-1053Q815-1053 884-1018Q953-983 1003-915.50Q1053-848 1081.50-750Q1110-652 1110-527Q1110-410 1077.50-311Q1045-212 986.50-139Q928-66 846.50-25Q765 16 666 16Q620 16 583.50 7Q547-2 516.50-18.50Q486-35 460.50-58Q435-81 411-108L400-56Q393-24 374.50-12Q356 0 326 0L120 0M626-820Q592-820 564.50-813.50Q537-807 513.50-795Q490-783 470-764.50Q450-746 430-722L430-282Q465-243 506-227.50Q547-212 592-212Q635-212 671-229Q707-246 733.50-283.50Q760-321 775-381Q790-441 790-527Q790-609 778-665Q766-721 744.50-755.50Q723-790 693-805Q663-820 626-820Z"/><path id="s20:lato-black:73" d="M166 0L166-824L98-838Q63-846 41.50-863Q20-880 20-913L20-1035L166-1035L166-1094Q166-1183 194.50-1255Q223-1327 276.50-1378Q330-1429 407-1457Q484-1485 582-1485Q620-1485 652.50-1480.50Q685-1476 720-1466L714-1315Q713-1299 705.50-1288.50Q698-1278 687-1271.50Q676-1265 662.50-1262Q649-1259 636-1259Q595-1259 563-1251Q531-1243 509.50-1222.50Q488-1202 477-1168.50Q466-1135 466-1084L466-1035L710-1035L710-823L476-823L476 0L166 0Z"/><path id="s20:lato-black:87" d="M484 16Q410 16 353.50-5.50Q297-27 258.50-66.50Q220-106 200-162Q180-218 180-287L180-823L92-823Q68-823 51-838.50Q34-854 34-884L34-1005L199-1037L260-1290Q272-1338 328-1338L490-1338L490-1035L742-1035L742-823L490-823L490-308Q490-272 507.50-248.50Q525-225 558-225Q575-225 586.50-228.50Q598-232 606.50-236.50Q615-241 622.50-244.50Q630-248 640-248Q654-248 662.50-241.50Q671-235 680-221L774-74Q714-29 639-6.50Q564 16 484 16Z"/><path id="s20:lato-black:76" d="M440-1037L440 0L130 0L130-1037L440-1037M476-1321Q476-1284 461-1251.50Q446-1219 420-1194.50Q394-1170 359.50-1155.50Q325-1141 286-1141Q248-1141 215-1155.50Q182-1170 156.50-1194.50Q131-1219 116.50-1251.50Q102-1284 102-1321Q102-1359 116.50-1392Q131-1425 156.50-1450Q182-1475 215-1489Q248-1503 286-1503Q325-1503 359.50-1489Q394-1475 420-1450Q446-1425 461-1392Q476-1359 476-1321Z"/><path id="s20:lato-black:92" d="M544 269Q530 300 510 314.50Q490 329 446 329L214 329L414-91L0-1037L274-1037Q310-1037 330-1021Q350-1005 358-983L528-536Q552-474 567-412Q577-444 589-475Q601-506 612-538L766-983Q774-1006 797.50-1021.50Q821-1037 848-1037L1098-1037L544 269Z"/><path id="s20:lato-black:17" d="M60-157Q60-193 73.50-224Q87-255 110.50-278Q134-301 166-314.50Q198-328 236-328Q273-328 305-314.50Q337-301 361-278Q385-255 398.50-224Q412-193 412-157Q412-121 398.50-89.50Q385-58 361-35Q337-12 305 1Q273 14 236 14Q198 14 166 1Q134-12 110.50-35Q87-58 73.50-89.50Q60-121 60-157Z"/><path id="s20:lato-black:91" d="M368-536L34-1037L332-1037Q365-1037 380.50-1028.50Q396-1020 408-1000L593-693Q599-711 608-728Q617-745 628-764L760-995Q773-1018 789-1027.50Q805-1037 828-1037L1112-1037L778-550L1126 0L828 0Q795 0 775-16Q755-32 742-54L557-372Q552-355 545-340Q538-325 530-312L378-54Q366-33 346-16.50Q326 0 296 0L20 0L368-536Z"/><path id="s20:lato-black:70" d="M868-791Q854-774 841-764Q828-754 804-754Q781-754 762.50-765Q744-776 721-789.50Q698-803 667-814Q636-825 590-825Q533-825 491.50-804Q450-783 423-744Q396-705 383-648.50Q370-592 370-521Q370-372 427.50-292Q485-212 586-212Q640-212 671.50-225.50Q703-239 725-255.50Q747-272 765.50-286Q784-300 812-300Q849-300 868-273L958-162Q910-107 857-72.50Q804-38 748.50-18.50Q693 1 637 8.50Q581 16 528 16Q433 16 346.50-20Q260-56 194.50-124.50Q129-193 90.50-293Q52-393 52-521Q52-633 85.50-730.50Q119-828 184.50-899.50Q250-971 346.50-1012Q443-1053 570-1053Q692-1053 784-1014Q876-975 950-900L868-791Z"/><path id="s20:lato-black:41" d="M1058-1457L1058-1197L460-1197L460-828L958-828L958-567L460-567L460 0L120 0L120-1457L1058-1457Z"/><path id="s20:lato-black:15" d="M68-176Q68-208 80-235.50Q92-263 114.50-283.50Q137-304 167.50-316Q198-328 236-328Q281-328 314-312.50Q347-297 369-270.50Q391-244 401.50-209.50Q412-175 412-137Q412-87 396-30.50Q380 26 348.50 83Q317 140 270 195Q223 250 162 295L108 247Q97 236 91.50 226.50Q86 217 86 203Q86 193 93 181.50Q100 170 110 161Q122 149 138 132Q154 115 170 94Q186 73 199.50 48Q213 23 220-5Q185-8 157-22Q129-36 109.50-59Q90-82 79-111.50Q68-141 68-176Z"/></defs><g id="line-0"><use x="0" y="1761" xlink:href="#s20:lato-black:55"/><use x="1198" y="1761" xlink:href="#s20:lato-black:75"/><use x="2358" y="1761" xlink:href="#s20:lato-black:72"/><use x="3446" y="1761" xlink:href="#s20:lato-black:3"/><use x="3832" y="1761" xlink:href="#s20:lato-black:40"/><use x="4962" y="1761" xlink:href="#s20:lato-black:88"/><use x="6122" y="1761" xlink:href="#s20:lato-black:85"/><use x="6948" y="1761" xlink:href="#s20:lato-black:82"/><use x="8108" y="1761" xlink:href="#s20:lato-black:83"/><use x="9264" y="1761" xlink:href="#s20:lato-black:72"/><use x="10352" y="1761" xlink:href="#s20:lato-black:68"/><use x="11430" y="1761" xlink:href="#s20:lato-black:81"/><use x="12590" y="1761" xlink:href="#s20:lato-black:3"/><use x="12976" y="1761" xlink:href="#s20:lato-black:79"/><use x="13546" y="1761" xlink:href="#s20:lato-black:68"/><use x="14624" y="1761" xlink:href="#s20:lato-black:81"/><use x="15784" y="1761" xlink:href="#s20:lato-black:74"/><use x="16830" y="1761" xlink:href="#s20:lato-black:88"/><use x="17990" y="1761" xlink:href="#s20:lato-black:68"/><use x="19068" y="1761" xlink:href="#s20:lato-black:74"/><use x="20114" y="1761" xlink:href="#s20:lato-black:72"/><use x="21202" y="1761" xlink:href="#s20:lato-black:86"/><use x="22082" y="1761" xlink:href="#s20:lato-black:3"/><use x="22468" y="1761" xlink:href="#s20:lato-black:68"/><use x="23546" y="1761" xlink:href="#s20:lato-black:85"/><use x="24372" y="1761" xlink:href="#s20:lato-black:72"/><use x="25460" y="1761" xlink:href="#s20:lato-black:3"/><use x="25846" y="1761" xlink:href="#s20:lato-black:80"/><use x="27568" y="1761" xlink:href="#s20:lato-black:72"/><use x="28656" y="1761" xlink:href="#s20:lato-black:80"/><use x="30378" y="1761" xlink:href="#s20:lato-black:69"/><use x="31538" y="1761" xlink:href="#s20:lato-black:72"/><use x="32626" y="1761" xlink:href="#s20:lato-black:85"/><use x="33452" y="1761" xlink:href="#s20:lato-black:86"/><use x="34332" y="1761" xlink:href="#s20:lato-black:3"/><use x="34718" y="1761" xlink:href="#s20:lato-black:82"/><use x="35878" y="1761" xlink:href="#s20:lato-black:73"/><use x="36602" y="1761" xlink:href="#s20:lato-black:3"/><use x="36988" y="1761" xlink:href="#s20:lato-black:87"/><use x="37788" y="1761" xlink:href="#s20:lato-black:75"/><use x="38948" y="1761" xlink:href="#s20:lato-black:72"/><use x="40036" y="1761" xlink:href="#s20:lato-black:3"/><use x="40422" y="1761" xlink:href="#s20:lato-black:86"/><use x="41302" y="1761" xlink:href="#s20:lato-black:68"/><use x="42380" y="1761" xlink:href="#s20:lato-black:80"/><use x="44102" y="1761" xlink:href="#s20:lato-black:72"/><use x="45190" y="1761" xlink:href="#s20:lato-black:3"/><use x="45576" y="1761" xlink:href="#s20:lato-black:73"/><use x="46300" y="1761" xlink:href="#s20:lato-black:68"/><use x="47378" y="1761" xlink:href="#s20:lato-black:80"/><use x="49100" y="1761" xlink:href="#s20:lato-black:76"/><use x="49670" y="1761" xlink:href="#s20:lato-black:79"/><use x="50240" y="1761" xlink:href="#s20:lato-black:92"/><use x="51206" y="1761" xlink:href="#s20:lato-black:17"/></g><g id="line-1"><use x="10226" y="4161" xlink:href="#s20:lato-black:55"/><use x="11424" y="4161" xlink:href="#s20:lato-black:75"/><use x="12584" y="4161" xlink:href="#s20:lato-black:72"/><use x="13672" y="4161" xlink:href="#s20:lato-black:76"/><use x="14242" y="4161" xlink:href="#s20:lato-black:85"/><use x="15068" y="4161" xlink:href="#s20:lato-black:3"/><use x="15454" y="4161" xlink:href="#s20:lato-black:86"/><use x="16334" y="4161" xlink:href="#s20:lato-black:72"/><use x="17422" y="4161" xlink:href="#s20:lato-black:83"/><use x="18578" y="4161" xlink:href="#s20:lato-black:68"/><use x="19656" y="4161" xlink:href="#s20:lato-black:85"/><use x="20462" y="4161" xlink:href="#s20:lato-black:68"/><use x="21540" y="4161" xlink:href="#s20:lato-black:87"/><use x="22340" y="4161" xlink:href="#s20:lato-black:72"/><use x="23428" y="4161" xlink:href="#s20:lato-black:3"/><use x="23814" y="4161" xlink:href="#s20:lato-black:72"/><use x="24842" y="4161" xlink:href="#s20:lato-black:91"/><use x="25988" y="4161" xlink:href="#s20:lato-black:76"/><use x="26558" y="4161" xlink:href="#s20:lato-black:86"/><use x="27438" y="4161" xlink:href="#s20:lato-black:87"/><use x="28238" y="4161" xlink:href="#s20:lato-black:72"/><use x="29326" y="4161" xlink:href="#s20:lato-black:81"/><use x="30486" y="4161" xlink:href="#s20:lato-black:70"/><use x="31458" y="4161" xlink:href="#s20:lato-black:72"/><use x="32546" y="4161" xlink:href="#s20:lato-black:3"/><use x="32932" y="4161" xlink:href="#s20:lato-black:76"/><use x="33502" y="4161" xlink:href="#s20:lato-black:86"/><use x="34382" y="4161" xlink:href="#s20:lato-black:3"/><use x="34768" y="4161" xlink:href="#s20:lato-black:68"/><use x="35846" y="4161" xlink:href="#s20:lato-black:3"/><use x="36232" y="4161" xlink:href="#s20:lato-black:80"/><use x="37914" y="4161" xlink:href="#s20:lato-black:92"/><use x="39020" y="4161" xlink:href="#s20:lato-black:87"/><use x="39820" y="4161" xlink:href="#s20:lato-black:75"/><use x="40980" y="4161" xlink:href="#s20:lato-black:17"/></g><g id="line-2"><use x="12745" y="6561" xlink:href="#s20:lato-black:41"/><use x="13799" y="6561" xlink:href="#s20:lato-black:82"/><use x="14959" y="6561" xlink:href="#s20:lato-black:85"/><use x="15785" y="6561" xlink:href="#s20:lato-black:3"/><use x="16171" y="6561" xlink:href="#s20:lato-black:86"/><use x="17051" y="6561" xlink:href="#s20:lato-black:70"/><use x="18023" y="6561" xlink:href="#s20:lato-black:76"/><use x="18593" y="6561" xlink:href="#s20:lato-black:72"/><use x="19681" y="6561" xlink:href="#s20:lato-black:81"/><use x="20841" y="6561" xlink:href="#s20:lato-black:70"/><use x="21813" y="6561" xlink:href="#s20:lato-black:72"/><use x="22901" y="6561" xlink:href="#s20:lato-black:15"/><use x="23373" y="6561" xlink:href="#s20:lato-black:3"/><use x="23759" y="6561" xlink:href="#s20:lato-black:80"/><use x="25481" y="6561" xlink:href="#s20:lato-black:88"/><use x="26641" y="6561" xlink:href="#s20:lato-black:86"/><use x="27521" y="6561" xlink:href="#s20:lato-black:76"/><use x="28091" y="6561" xlink:href="#s20:lato-black:70"/><use x="29063" y="6561" xlink:href="#s20:lato-black:15"/><use x="29535" y="6561" xlink:href="#s20:lato-black:3"/><use x="29921" y="6561" xlink:href="#s20:lato-black:86"/><use x="30801" y="6561" xlink:href="#s20:lato-black:83"/><use x="31957" y="6561" xlink:href="#s20:lato-black:82"/><use x="33117" y="6561" xlink:href="#s20:lato-black:85"/><use x="33943" y="6561" xlink:href="#s20:lato-black:87"/><use x="34743" y="6561" xlink:href="#s20:lato-black:15"/><use x="35215" y="6561" xlink:href="#s20:lato-black:3"/><use x="35601" y="6561" xlink:href="#s20:lato-black:72"/><use x="36689" y="6561" xlink:href="#s20:lato-black:87"/><use x="37489" y="6561" xlink:href="#s20:lato-black:70"/><use x="38461" y="6561" xlink:href="#s20:lato-black:15"/></g></svg>