<svg xmlns="http://www.w3.org/2000/svg" xmlns:xlink="http://www.w3.org/1999/xlink" width="552" height="84" viewBox="0 0 46011 6987"><defs><path id="s61:lato-italic:55" d="M1177-1433L1157-1276L734-1276L578 0L392 0L548-1276L123-1276L142-1433L1177-1433Z"/><path id="s61:lato-italic:75" d="M79 0L257-1473L435-1473L352-789Q431-907 527.50-967.50Q624-1028 725-1028Q840-1028 902-952Q964-876 964-731Q964-711 963-689.50Q962-668 959-645L883 0L705 0L781-645Q783-665 784.50-683.50Q786-702 786-719Q786-801 755.50-841Q725-881 659-881Q614-881 566.50-856.50Q519-832 474-787Q429-742 390-678.50Q351-615 322-537L257 0L79 0Z"/><path id="s61:lato-italic:72" d="M881-796Q881-730 854-674.50Q827-619 755-574.50Q683-530 557-497Q431-464 233-444Q232-433 232-422.50Q232-412 232-401Q232-267 290.50-196.50Q349-126 467-126Q515-126 552.50-136Q590-146 619.50-160.50Q649-175 671.50-192.50Q694-210 713-224.50Q732-239 748-249Q764-259 780-259Q798-259 813-242L857-187Q806-134 757.50-96.50Q709-59 658-34Q607-9 551.50 2.50Q496 14 432 14Q345 14 276-15Q207-44 159-97.50Q111-151 85-227Q59-303 59-397Q59-475 75.50-552.50Q92-630 123.50-700Q155-770 200.50-830Q246-890 304.50-933.50Q363-977 433.50-1002Q504-1027 585-1027Q662-1027 718-1005Q774-983 810-949Q846-915 863.50-874Q881-833 881-796M575-899Q512-899 459-873Q406-847 365-801.50Q324-756 295-694.50Q266-633 250-562Q404-581 497-605.50Q590-630 640-658.50Q690-687 706-720Q722-753 722-789Q722-807 714-826.50Q706-846 688.50-862Q671-878 643-888.50Q615-899 575-899Z"/><path id="s61:lato-italic:3" d=""/><path id="s61:lato-italic:40" d="M1070-1280L443-1280L383-797L891-797L872-650L365-650L304-152L933-152L914 0L97 0L274-1433L1089-1433L1070-1280Z"/><path id="s61:lato-italic:88" d="M354-1013L278-369Q276-349 274.50-331Q273-313 273-296Q273-214 303.50-174Q334-134 400-134Q446-134 494.50-159Q543-184 588.50-230Q634-276 673-341Q712-406 741-486L804-1013L981-1013L859 0L771 0Q740 0 723-14Q706-28 706-57Q706-58 707-75Q708-92 709.50-112Q711-132 712.50-149Q714-166 714-167L721-248Q640-119 540-52.50Q440 14 334 14Q221 14 158.50-63Q96-140 96-284Q96-304 97-325Q98-346 101-369L177-1013L354-1013Z"/><path id="s61:lato-italic:85" d="M71 0L193-1014L282-1014Q310-1014 326-1001Q342-988 342-961Q342-957 341.50-949.50Q341-942 340.50-934Q340-926 339.50-920Q339-914 339-913L325-729Q390-869 470.50-945Q551-1021 640-1021Q682-1021 724-1003L692-832Q645-851 601-851Q504-851 428-756.50Q352-662 301-470L245 0L71 0Z"/><path id="s61:lato-italic:82" d="M448-125Q521-125 581-165Q641-205 683-271.50Q725-338 748-425Q771-512 771-607Q771-747 716-818Q661-889 557-889Q483-889 423.50-849.50Q364-810 322-743.50Q280-677 257-590Q234-503 234-408Q234-268 288.50-196.50Q343-125 448-125M432 14Q349 14 280-14.50Q211-43 161-97Q111-151 83-229Q55-307 55-407Q55-535 95-648Q135-761 204.50-846Q274-931 368.50-980Q463-1029 573-1029Q656-1029 725-1000.50Q794-972 844-918Q894-864 922-785.50Q950-707 950-608Q950-481 910-368Q870-255 800.50-170Q731-85 636-35.50Q541 14 432 14Z"/><path id="s61:lato-italic:83" d="M28 343L193-1014L282-1014Q342-1014 342-954L325-738Q363-804 408-857.50Q453-911 502.50-949Q552-987 606-1007.50Q660-1028 716-1028Q845-1028 917-934Q989-840 989-659Q989-577 972-495Q955-413 923.50-338.50Q892-264 847.50-199.50Q803-135 748.50-87.50Q694-40 630-13Q566 14 496 14Q421 14 359-15.50Q297-45 255-100L201 343L28 343M649-885Q601-885 551.50-855Q502-825 456-771Q410-717 370.50-643Q331-569 302-482L270-224Q308-169 361.50-146.50Q415-124 470-124Q522-124 568-146Q614-168 652-205.50Q690-243 720-293.50Q750-344 770.50-401.50Q791-459 802-520.50Q813-582 813-642Q813-761 770-823Q727-885 649-885Z"/><path id="s61:lato-italic:68" d="M816 0L724 0Q689 0 676.50-18Q664-36 664-62L682-267Q646-203 604.50-151Q563-99 516.50-62.50Q470-26 419-6Q368 14 313 14Q253 14 204-9.50Q155-33 120.50-78.50Q86-124 67-190.50Q48-257 48-343Q48-433 70.50-518.50Q93-604 134.50-680Q176-756 234-819.50Q292-883 363.50-929.50Q435-976 517-1001.50Q599-1027 689-1027Q754-1027 815.50-1016.50Q877-1006 937-980L816 0M380-134Q429-134 476-164.50Q523-195 565-249Q607-303 643.50-377.50Q680-452 708-541L751-889Q729-894 707.50-895.50Q686-897 665-897Q605-897 549-877.50Q493-858 444-823Q395-788 355-739.50Q315-691 286.50-633Q258-575 242-509.50Q226-444 226-375Q226-134 380-134Z"/><path id="s61:lato-italic:81" d="M71 0L192-1014L281-1014Q341-1014 341-954L326-758Q407-892 508.50-960Q610-1028 719-1028Q832-1028 894.50-952Q957-876 957-730Q957-710 956-689Q955-668 952-645L876 0L698 0L774-645Q776-665 777.50-683.50Q779-702 779-719Q779-801 748.50-840.50Q718-880 653-880Q605-880 555.50-854Q506-828 460-780.50Q414-733 374.50-665.50Q335-598 307-515L249 0L71 0Z"/><path id="s61:lato-italic:79" d="M88 0L267-1473L442-1473L263 0L88 0Z"/><path id="s61:lato-italic:74" d="M816-732Q815-682 803.50-642Q792-602 775-568Q758-534 738-504Q718-474 701-444Q684-414 672.50-382.50Q661-351 661-314Q661-272 681.50-238Q702-204 726.50-168Q751-132 771.50-89.50Q792-47 792 11Q792 82 759 145.50Q726 209 665 258Q604 307 516.50 335.50Q429 364 320 364Q233 364 161.50 346Q90 328 39.50 295Q-11 262-38.50 215.50Q-66 169-66 113Q-66 34-25-23Q16-80 83-117Q150-154 235.50-171Q321-188 410-188Q446-188 481.50-185Q517-182 552-177Q543-196 537.50-216.50Q532-237 532-261Q532-292 541.50-325Q551-358 573-399Q535-373 488-359Q441-345 381-345Q323-345 272.50-364Q222-383 184-420Q146-457 124-512.50Q102-568 102-642Q102-714 128.50-783.50Q155-853 206-907.50Q257-962 332-995Q407-1028 505-1028Q615-1028 696-976L971-976L963-917Q961-900 951.50-886Q942-872 923-869L797-847Q806-821 811-792.50Q816-764 816-732M430-457Q484-457 525-480.50Q566-504 594.50-542.50Q623-581 638-629Q653-677 653-726Q653-814 608.50-859Q564-904 486-904Q432-904 391-882Q350-860 322-823Q294-786 279.50-739Q265-692 265-641Q265-551 308.50-504Q352-457 430-457M630 25Q630-1 625-23.50Q620-46 612-66Q558-75 510.50-79Q463-83 421-83Q339-83 279-68.50Q219-54 180-30Q141-6 122 25.50Q103 57 103 91Q103 163 163.50 201Q224 239 335 239Q401 239 455.50 221.50Q510 204 548.50 175Q587 146 608.50 107Q630 68 630 25Z"/><path id="s61:lato-italic:86" d="M723-851Q715-839 707-833.50Q699-828 687-828Q673-828 656.50-839Q640-850 616.50-863.50Q593-877 559-888.50Q525-900 477-900Q432-900 395-887.50Q358-875 331-853Q304-831 289.50-801.50Q275-772 275-739Q275-692 306-664Q337-636 384-615.50Q431-595 485.50-576Q540-557 587-528Q634-499 665-454Q696-409 696-337Q696-267 668.50-203Q641-139 589.50-90.50Q538-42 465.50-13Q393 16 303 16Q206 16 131.50-18.50Q57-53 10-107L54-175Q62-188 73-195Q84-202 101-202Q117-202 133-188Q149-174 173-156.50Q197-139 233.50-125Q270-111 326-111Q375-111 414.50-126Q454-141 481.50-166Q509-191 523.50-224.50Q538-258 538-296Q538-347 507-377Q476-407 429-427Q382-447 328-464.50Q274-482 227-509.50Q180-537 149-581Q118-625 118-698Q118-762 143.50-821.50Q169-881 217-927Q265-973 333.50-1000.50Q402-1028 488-1028Q579-1028 648.50-997.50Q718-967 768-915L723-851Z"/><path id="s61:lato-italic:80" d="M71 0L193-1014L282-1014Q342-1014 342-954L328-773Q403-899 492-963.50Q581-1028 680-1028Q783-1028 832-957.50Q881-887 881-756Q957-895 1051.50-961.50Q1146-1028 1250-1028Q1362-1028 1417.50-955Q1473-882 1473-745Q1473-722 1471-697Q1469-672 1466-645L1390 0L1215 0L1291-645Q1297-694 1297-734Q1297-809 1272-844.50Q1247-880 1188-880Q1145-880 1102-858.50Q1059-837 1019-795.50Q979-754 944.50-692.50Q910-631 883-551L818 0L642 0L719-645Q722-672 724-696Q726-720 726-741Q726-812 702.50-846Q679-880 620-880Q572-880 527.50-856Q483-832 443.50-786.50Q404-741 370-675.50Q336-610 308-528L245 0L71 0Z"/><path id="s61:lato-italic:69" d="M79 0L257-1473L432-1473L344-757Q382-818 426-868.50Q470-919 518-954Q566-989 618-1008.50Q670-1028 724-1028Q853-1028 925-934Q997-840 997-659Q997-577 980-495Q963-413 931.50-338.50Q900-264 855.50-199.50Q811-135 756.50-87.50Q702-40 638-13Q574 14 504 14Q423 14 357.50-20Q292-54 250-117L237-52Q229-26 216.50-13Q204 0 174 0L79 0M657-885Q609-885 560-855Q511-825 465.50-772Q420-719 380-646Q340-573 311-486L279-223Q317-169 370-146.50Q423-124 478-124Q530-124 576-146Q622-168 660-205.50Q698-243 728-293.50Q758-344 778.50-401.50Q799-459 810-520.50Q821-582 821-642Q821-761 778-823Q735-885 657-885Z"/><path id="s61:lato-italic:73" d="M374-865L273-33L227 174Q210 249 135 249L65 249L200-862L100-875Q83-880 73-889Q63-898 63-915L71-993L216-993L228-1091Q239-1178 271.50-1245.50Q304-1313 353.50-1359.50Q403-1406 466.50-1430Q530-1454 603-1454Q665-1454 716-1434L699-1342Q697-1328 685.50-1324.50Q674-1321 656-1321Q647-1321 636.50-1321.50Q626-1322 614-1322Q571-1322 534.50-1309.50Q498-1297 470-1269Q442-1241 423-1196Q404-1151 396-1086L384-993L637-993L620-865L374-865Z"/><path id="s61:lato-italic:87" d="M159-191Q159-197 159.50-206.50Q160-216 161.50-234Q163-252 166-281Q169-310 175-357L238-864L125-864Q112-864 103.50-871.50Q95-879 95-895Q95-898 96-907Q97-916 98.50-927.50Q100-939 101.50-951Q103-963 104-974L260-995L335-1308Q339-1323 350-1332.50Q361-1342 377-1342L471-1342L427-993L693-993L678-864L411-864L350-366Q345-325 342.50-300Q340-275 338.50-260Q337-245 336.50-239Q336-233 336-230Q336-179 359.50-154.50Q383-130 424-130Q450-130 470-137.50Q490-145 504.50-154Q519-163 529-170.50Q539-178 547-178Q555-178 559.50-174Q564-170 569-161L606-76Q558-33 495.50-8.50Q433 16 370 16Q273 16 217-37Q161-90 159-191Z"/><path id="s61:lato-italic:76" d="M392-1013L270 0L95 0L217-1013L392-1013M459-1331Q459-1305 448.50-1282.50Q438-1260 420.50-1242.50Q403-1225 381-1215Q359-1205 335-1205Q312-1205 290-1215Q268-1225 251.50-1242.50Q235-1260 225-1282.50Q215-1305 215-1331Q215-1357 225-1380Q235-1403 252-1420.50Q269-1438 291-1448.50Q313-1459 336-1459Q360-1459 382-1449Q404-1439 421.50-1421.50Q439-1404 449-1380.50Q459-1357 459-1331Z"/><path id="s61:lato-italic:92" d="M316 302Q295 343 254 343L124 343L343-60L81-1013L228-1013Q249-1013 259.50-1002.50Q270-992 274-976L437-338Q442-317 445-296Q448-275 450-254Q459-275 467.50-296.50Q476-318 487-339L807-978Q815-994 829.50-1003.50Q844-1013 859-1013L1000-1013L316 302Z"/><path id="s61:lato-italic:17" d="M45-110Q45-136 54.50-159Q64-182 81-199Q98-216 120.50-226Q143-236 170-236Q196-236 218.50-226Q241-216 258-199Q275-182 285-159Q295-136 295-110Q295-83 285-60.50Q275-38 258-21Q241-4 218.50 5.50Q196 15 170 15Q143 15 120.50 5.50Q98-4 81-21Q64-38 54.50-60.50Q45-83 45-110Z"/><path id="s61:lato-italic:91" d="M360-545L117-1013L276-1013Q296-1013 304.50-1007.50Q313-1002 320-988L490-640Q495-651 500.50-661Q506-671 514-682L743-985Q754-999 763-1006Q772-1013 785-1013L946-1013L584-544L854 0L695 0Q675 0 664-10.50Q653-21 646-35L455-440Q445-418 434-402L158-34Q148-20 136-10Q124 0 106 0L-50 0L360-545Z"/><path id="s61:lato-italic:70" d="M819-182Q767-125 720.50-87Q674-49 627-26.50Q580-4 529.50 5Q479 14 421 14Q333 14 265.50-16Q198-46 152.50-100.50Q107-155 83.50-231.50Q60-308 60-400Q60-523 98.50-636Q137-749 206-836Q275-923 370-975Q465-1027 579-1027Q679-1027 747-991.50Q815-956 866-888L810-821Q804-813 795-808Q786-803 775-803Q761-803 747.50-815.50Q734-828 712.50-843.50Q691-859 658.50-871.50Q626-884 575-884Q506-884 444.50-846.50Q383-809 337-744Q291-679 264.50-590Q238-501 238-399Q238-337 252-286.50Q266-236 294-200.50Q322-165 362.50-145.50Q403-126 457-126Q502-126 537-135.50Q572-145 599-159Q626-173 646.50-189.50Q667-206 683.50-220Q700-234 713.50-243.50Q727-253 741-253Q761-253 775-236L819-182L819-182Z"/><path id="s61:lato-italic:41" d="M1070-1280L443-1280L380-770L917-770L896-618L362-618L286 0L97 0L274-1433L1089-1433L1070-1280Z"/><path id="s61:lato-italic:15" d="M50-123Q50-170 82.50-203Q115-236 169-236Q199-236 222-225Q245-214 260.50-194.50Q276-175 284-149.50Q292-124 292-94Q292-49 279.50-0.50Q267 48 242.50 95.50Q218 143 183 188Q148 233 103 271L72 242Q59 230 59 214Q59 202 75 183Q91 164 112 137.50Q133 111 152.50 76.50Q172 42 179 0L167 0Q115 0 82.50-34.50Q50-69 50-123Z"/></defs><g id="line-0"><use x="0" y="1761" xlink:href="#s61:lato-italic:55"/><use x="1087" y="1761" xlink:href="#s61:lato-italic:75"/><use x="2147" y="1761" xlink:href="#s61:lato-italic:72"/><use x="3069" y="1761" xlink:href="#s61:lato-italic:3"/><use x="3455" y="1761" xlink:href="#s61:lato-italic:40"/><use x="4522" y="1761" xlink:href="#s61:lato-italic:88"/><use x="5572" y="1761" xlink:href="#s61:lato-italic:85"/><use x="6234" y="1761" xlink:href="#s61:lato-italic:82"/><use x="7239" y="1761" xlink:href="#s61:lato-italic:83"/><use x="8275" y="1761" xlink:href="#s61:lato-italic:72"/><use x="9197" y="1761" xlink:href="#s61:lato-italic:68"/><use x="10207" y="1761" xlink:href="#s61:lato-italic:81"/><use x="11259" y="1761" xlink:href="#s61:lato-italic:3"/><use x="11645" y="1761" xlink:href="#s61:lato-italic:79"/><use x="12120" y="1761" xlink:href="#s61:lato-italic:68"/><use x="13130" y="1761" xlink:href="#s61:lato-italic:81"/><use x="14182" y="1761" xlink:href="#s61:lato-italic:74"/><use x="15111" y="1761" xlink:href="#s61:lato-italic:88"/><use x="16161" y="1761" xlink:href="#s61:lato-italic:68"/><use x="17171" y="1761" xlink:href="#s61:lato-italic:74"/><use x="18100" y="1761" xlink:href="#s61:lato-italic:72"/><use x="19022" y="1761" xlink:href="#s61:lato-italic:86"/><use x="19800" y="1761" xlink:href="#s61:lato-italic:3"/><use x="20186" y="1761" xlink:href="#s61:lato-italic:68"/><use x="21196" y="1761" xlink:href="#s61:lato-italic:85"/><use x="21858" y="1761" xlink:href="#s61:lato-italic:72"/><use x="22780" y="1761" xlink:href="#s61:lato-italic:3"/><use x="23166" y="1761" xlink:href="#s61:lato-italic:80"/><use x="24733" y="1761" xlink:href="#s61:lato-italic:72"/><use x="25655" y="1761" xlink:href="#s61:lato-italic:80"/><use x="27222" y="1761" xlink:href="#s61:lato-italic:69"/><use x="28272" y="1761" xlink:href="#s61:lato-italic:72"/><use x="29194" y="1761" xlink:href="#s61:lato-italic:85"/><use x="29896" y="1761" xlink:href="#s61:lato-italic:86"/><use x="30674" y="1761" xlink:href="#s61:lato-italic:3"/><use x="31060" y="1761" xlink:href="#s61:lato-italic:82"/><use x="32065" y="1761" xlink:href="#s61:lato-italic:73"/><use x="32670" y="1761" xlink:href="#s61:lato-italic:3"/><use x="33056" y="1761" xlink:href="#s61:lato-italic:87"/><use x="33741" y="1761" xlink:href="#s61:lato-italic:75"/><use x="34801" y="1761" xlink:href="#s61:lato-italic:72"/><use x="35723" y="1761" xlink:href="#s61:lato-italic:3"/><use x="36109" y="1761" xlink:href="#s61:lato-italic:86"/><use x="36887" y="1761" xlink:href="#s61:lato-italic:68"/><use x="37897" y="1761" xlink:href="#s61:lato-italic:80"/><use x="39464" y="1761" xlink:href="#s61:lato-italic:72"/><use x="40386" y="1761" xlink:href="#s61:lato-italic:3"/><use x="40772" y="1761" xlink:href="#s61:lato-italic:73"/><use x="41377" y="1761" xlink:href="#s61:lato-italic:68"/><use x="42387" y="1761" xlink:href="#s61:lato-italic:80"/><use x="43954" y="1761" xlink:href="#s61:lato-italic:76"/><use x="44441" y="1761" xlink:href="#s61:lato-italic:79"/><use x="44916" y="1761" xlink:href="#s61:lato-italic:92"/><use x="45716" y="1761" xlink:href="#s61:lato-italic:17"/></g><g id="line-1"><use x="9243" y="4161" xlink:href="#s61:lato-italic:55"/><use x="10330" y="4161" xlink:href="#s61:lato-italic:75"/><use x="11390" y="4161" xlink:href="#s61:lato-italic:72"/><use x="12312" y="4161" xlink:href="#s61:lato-italic:76"/><use x="12799" y="4161" xlink:href="#s61:lato-italic:85"/><use x="13501" y="4161" xlink:href="#s61:lato-italic:3"/><use x="13887" y="4161" xlink:href="#s61:lato-italic:86"/><use x="14665" y="4161" xlink:href="#s61:lato-italic:72"/><use x="15587" y="4161" xlink:href="#s61:lato-italic:83"/><use x="16623" y="4161" xlink:href="#s61:lato-italic:68"/><use x="17633" y="4161" xlink:href="#s61:lato-italic:85"/><use x="18295" y="4161" xlink:href="#s61:lato-italic:68"/><use x="19305" y="4161" xlink:href="#s61:lato-italic:87"/><use x="19990" y="4161" xlink:href="#s61:lato-italic:72"/><use x="20912" y="4161" xlink:href="#s61:lato-italic:3"/><use x="21298" y="4161" xlink:href="#s61:lato-italic:72"/><use x="22169" y="4161" xlink:href="#s61:lato-italic:91"/><use x="23106" y="4161" xlink:href="#s61:lato-italic:76"/><use x="23593" y="4161" xlink:href="#s61:lato-italic:86"/><use x="24371" y="4161" xlink:href="#s61:lato-italic:87"/><use x="25056" y="4161" xlink:href="#s61:lato-italic:72"/><use x="25978" y="4161" xlink:href="#s61:lato-italic:81"/><use x="27030" y="4161" xlink:href="#s61:lato-italic:70"/><use x="27896" y="4161" xlink:href="#s61:lato-italic:72"/><use x="28818" y="4161" xlink:href="#s61:lato-italic:3"/><use x="29204" y="4161" xlink:href="#s61:lato-italic:76"/><use x="29691" y="4161" xlink:href="#s61:lato-italic:86"/><use x="30469" y="4161" xlink:href="#s61:lato-italic:3"/><use x="30855" y="4161" xlink:href="#s61:lato-italic:68"/><use x="31865" y="4161" xlink:href="#s61:lato-italic:3"/><use x="32251" y="4161" xlink:href="#s61:lato-italic:80"/><use x="33776" y="4161" xlink:href="#s61:lato-italic:92"/><use x="34728" y="4161" xlink:href="#s61:lato-italic:87"/><use x="35413" y="4161" xlink:href="#s61:lato-italic:75"/><use x="36473" y="4161" xlink:href="#s61:lato-italic:17"/></g><g id="line-2"><use x="11450.5" y="6561" xlink:href="#s61:lato-italic:41"/><use x="12422.5" y="6561" xlink:href="#s61:lato-italic:82"/><use x="13427.5" y="6561" xlink:href="#s61:lato-italic:85"/><use x="14129.5" y="6561" xlink:href="#s61:lato-italic:3"/><use x="14515.5" y="6561" xlink:href="#s61:lato-italic:86"/><use x="15293.5" y="6561" xlink:href="#s61:lato-italic:70"/><use x="16159.5" y="6561" xlink:href="#s61:lato-italic:76"/><use x="16646.5" y="6561" xlink:href="#s61:lato-italic:72"/><use x="17568.5" y="6561" xlink:href="#s61:lato-italic:81"/><use x="18620.5" y="6561" xlink:href="#s61:lato-italic:70"/><use x="19486.5" y="6561" xlink:href="#s61:lato-italic:72"/><use x="20408.5" y="6561" xlink:href="#s61:lato-italic:15"/><use x="20833.5" y="6561" xlink:href="#s61:lato-italic:3"/><use x="21219.5" y="6561" xlink:href="#s61:lato-italic:80"/><use x="22786.5" y="6561" xlink:href="#s61:lato-italic:88"/><use x="23836.5" y="6561" xlink:href="#s61:lato-italic:86"/><use x="24614.5" y="6561" xlink:href="#s61:lato-italic:76"/><use x="25101.5" y="6561" xlink:href="#s61:lato-italic:70"/><use x="25967.5" y="6561" xlink:href="#s61:lato-italic:15"/><use x="26392.5" y="6561" xlink:href="#s61:lato-italic:3"/><use x="26778.5" y="6561" xlink:href="#s61:lato-italic:86"/><use x="27556.5" y="6561" xlink:href="#s61:lato-italic:83"/><use x="28592.5" y="6561" xlink:href="#s61:lato-italic:82"/><use x="29597.5" y="6561" xlink:href="#s61:lato-italic:85"/><use x="30299.5" y="6561" xlink:href="#s61:lato-italic:87"/><use x="30984.5" y="6561" xlink:href="#s61:lato-italic:15"/><use x="31409.5" y="6561" xlink:href="#s61:lato-italic:3"/><use x="31795.5" y="6561" xlink:href="#s61:lato-italic:72"/><use x="32717.5" y="6561" xlink:href="#s61:lato-italic:87"/><use x="33402.5" y="6561" xlink:href="#s61:lato-italic:70"/><use x="34268.5" y="6561" xlink:href="#s61:lato-italic:15"/></g></svg>