<svg xmlns="http://www.w3.org/2000/svg" xmlns:xlink="http://www.w3.org/1999/xlink" width="565" height="84" viewBox="0 0 47046 6987" ><defs><path id="s59:lato-hairline:55" d="M1120-1400L1120-1378L594-1378L594 0L570 0L570-1378L40-1378L40-1400L1120-1400Z"/><path id="s59:lato-hairline:75" d="M176 0L176-1440L200-1440L200-776Q234-826 276.50-866.50Q319-907 368-936Q417-965 471-980.50Q525-996 582-996Q745-996 825.50-899Q906-802 906-628L906 0L882 0L882-628Q882-710 864-774.50Q846-839 808.50-884Q771-929 714.50-952.50Q658-976 582-976Q467-976 370-914.50Q273-853 200-745L200 0L176 0Z"/><path id="s59:lato-hairline:72" d="M528-996Q605-996 672-968.50Q739-941 788.50-887Q838-833 866-754.50Q894-676 894-574Q894-569 890.50-566.50Q887-564 882-564L126-564Q124-550 124-537Q124-524 124-510Q124-388 153-294.50Q182-201 235.50-137.50Q289-74 364.50-41Q440-8 532-8Q615-8 674.50-26Q734-44 773.50-66Q813-88 833.50-106Q854-124 860-124Q864-124 868-120L872-116Q855-95 821.50-72.50Q788-50 742.50-31Q697-12 643 0Q589 12 532 12Q431 12 351-23.50Q271-59 215.50-126Q160-193 130-290Q100-387 100-510Q100-618 129-707.50Q158-797 213-861Q268-925 347.50-960.50Q427-996 528-996M528-976Q440-976 369.50-947.50Q299-919 248-867.50Q197-816 166.50-743Q136-670 127-582L872-582Q872-677 846-750.50Q820-824 773.50-874Q727-924 664-950Q601-976 528-976Z"/><path id="s59:lato-hairline:3" d=""/><path id="s59:lato-hairline:40" d="M1058-1400L1058-1378L264-1378L264-722L938-722L938-700L264-700L264-22L1060-22L1058 0L240 0L240-1400L1058-1400Z"/><path id="s59:lato-hairline:88" d="M174-980L174-352Q174-270 192-205.50Q210-141 247.50-96Q285-51 341-27.50Q397-4 474-4Q589-4 685.50-65Q782-126 856-234L856-980L880-980L880 0L874 0Q860 0 860-16L856-204Q821-154 779-113Q737-72 688-43.50Q639-15 585 0.50Q531 16 474 16Q310 16 230-81Q150-178 150-352L150-980L174-980Z"/><path id="s59:lato-hairline:85" d="M176 0L176-980L182-980Q196-980 196-964L199-692Q220-765 251-821.50Q282-878 324-917Q366-956 419.50-976Q473-996 540-996Q588-996 629-986Q670-976 708-958L704-950Q702-947 700.50-944.50Q699-942 694-942Q689-942 677.50-947Q666-952 647.50-958Q629-964 602.50-969Q576-974 540-974Q409-974 328-888Q247-802 200-644L200 0L176 0Z"/><path id="s59:lato-hairline:82" d="M528-996Q631-996 711-959.50Q791-923 845.50-857Q900-791 928-697.50Q956-604 956-490Q956-376 928-283.50Q900-191 845.50-125Q791-59 711-23.50Q631 12 528 12Q424 12 344.50-23.50Q265-59 210.50-125Q156-191 128-283.50Q100-376 100-490Q100-604 128-697.50Q156-791 210.50-857Q265-923 344.50-959.50Q424-996 528-996M528-8Q628-8 704-43Q780-78 830.50-141Q881-204 906.50-293Q932-382 932-490Q932-598 906.50-687.50Q881-777 830.50-841Q780-905 704-940.50Q628-976 528-976Q427-976 351.50-940.50Q276-905 225.50-841Q175-777 149.50-687.50Q124-598 124-490Q124-382 149.50-293Q175-204 225.50-141Q276-78 351.50-43Q427-8 528-8Z"/><path id="s59:lato-hairline:83" d="M176 360L176-980L182-980Q196-980 196-964L199-778Q265-879 358.50-937.50Q452-996 564-996Q754-996 855-873.50Q956-751 956-496Q956-389 928.50-296.50Q901-204 847-135.50Q793-67 712.50-27.50Q632 12 526 12Q310 12 200-163L200 360L176 360M564-976Q455-976 361.50-915Q268-854 200-746L200-195Q264-92 343-50Q422-8 526-8Q629-8 705-45.50Q781-83 831.50-149Q882-215 907-304Q932-393 932-496Q932-740 838.50-858Q745-976 564-976Z"/><path id="s59:lato-hairline:68" d="M784 0Q770 0 770-16L764-175Q722-131 680-95.50Q638-60 591-35.50Q544-11 490 2.50Q436 16 370 16Q326 16 281.50 2.50Q237-11 201-40.50Q165-70 142.50-116.50Q120-163 120-230Q120-296 158.50-348.50Q197-401 276.50-438Q356-475 477-496.50Q598-518 764-522L764-648Q764-725 747-786Q730-847 697-889Q664-931 614-953.50Q564-976 498-976Q446-976 404-965Q362-954 329-938Q296-922 271.50-903Q247-884 229-868Q211-852 200-841Q189-830 184-830Q180-830 174-836L170-840Q242-916 319-956Q396-996 498-996Q573-996 627.50-972Q682-948 718-903Q754-858 771-793.50Q788-729 788-648L788 0L784 0M370-4Q439-4 495-20Q551-36 598-63Q645-90 685.50-125.50Q726-161 764-200L764-502Q449-492 296.50-423.50Q144-355 144-230Q144-171 163.50-128.50Q183-86 214.50-58.50Q246-31 286.50-17.50Q327-4 370-4Z"/><path id="s59:lato-hairline:81" d="M176 0L176-980L182-980Q196-980 196-964L199-775Q233-825 275.50-866Q318-907 367-936Q416-965 470-980.50Q524-996 582-996Q745-996 825.50-899Q906-802 906-628L906 0L882 0L882-628Q882-710 864-774.50Q846-839 808.50-884Q771-929 714.50-952.50Q658-976 582-976Q467-976 370-914.50Q273-853 200-745L200 0L176 0Z"/><path id="s59:lato-hairline:79" d="M234-1440L234 0L210 0L210-1440L234-1440Z"/><path id="s59:lato-hairline:74" d="M490-996Q555-996 608.50-979Q662-962 704-932L942-932L942-928Q942-922 937-918Q932-914 926-914L730-910Q775-868 798.50-811Q822-754 822-684Q822-614 798.50-556.50Q775-499 731.50-458Q688-417 627-394.50Q566-372 490-372Q392-372 318-409Q293-395 272-377Q251-359 236-339Q221-319 212.50-298Q204-277 204-258Q204-208 235-181.50Q266-155 317-142Q368-129 433-125.50Q498-122 566-119Q634-116 699-109Q764-102 815-81.50Q866-61 897-23.50Q928 14 928 78Q928 137 897.50 190.50Q867 244 811.50 285.50Q756 327 677.50 351.50Q599 376 502 376Q403 376 327 355Q251 334 199 298Q147 262 120.50 214Q94 166 94 112Q94 28 151-32.50Q208-93 305-126Q249-140 215.50-170.50Q182-201 182-258Q182-278 190.50-300Q199-322 214-343.50Q229-365 250.50-384.50Q272-404 299-419Q231-459 194.50-527Q158-595 158-684Q158-753 181-810.50Q204-868 247.50-909Q291-950 352-973Q413-996 490-996M906 78Q906 22 878.50-11.50Q851-45 805-63.50Q759-82 700-89Q641-96 577-99.50Q513-103 450-106Q387-109 334-119Q287-102 247-80Q207-58 178.50-29Q150 0 134 35Q118 70 118 112Q118 163 145 207.50Q172 252 221.50 285Q271 318 342 337Q413 356 502 356Q581 356 654 335.50Q727 315 783 278.50Q839 242 872.50 191Q906 140 906 78M490-392Q563-392 620-413Q677-434 716.50-472.50Q756-511 777-565Q798-619 798-684Q798-749 776.50-803Q755-857 715-895.50Q675-934 618-955Q561-976 490-976Q419-976 362-955Q305-934 265-895.50Q225-857 203.50-803Q182-749 182-684Q182-619 203.50-565Q225-511 265-472.50Q305-434 362-413Q419-392 490-392Z"/><path id="s59:lato-hairline:86" d="M696-894Q692-888 686-888Q678-888 662.50-901.50Q647-915 617.50-931.50Q588-948 543-962Q498-976 432-976Q370-976 318.50-957Q267-938 230-906.50Q193-875 172.50-834Q152-793 152-748Q152-695 177-659.50Q202-624 242.50-599.50Q283-575 335-558Q387-541 441-524.50Q495-508 547-489.50Q599-471 639.50-443Q680-415 705-374.50Q730-334 730-274Q730-214 708.50-161Q687-108 646-69Q605-30 545.50-7Q486 16 410 16Q357 16 315.50 7.50Q274-1 238.50-16Q203-31 172.50-53Q142-75 112-102L118-108Q121-111 123-112.50Q125-114 130-114Q138-114 156-97Q174-80 206.50-59Q239-38 288.50-21Q338-4 410-4Q482-4 537.50-25Q593-46 631-82.50Q669-119 688.50-167.50Q708-216 708-272Q708-329 683-366.50Q658-404 617.50-430Q577-456 525-473.50Q473-491 419-507Q365-523 313-541Q261-559 220.50-585.50Q180-612 155-651Q130-690 130-748Q130-797 152-841.50Q174-886 214-920.50Q254-955 309.50-975.50Q365-996 432-996Q515-996 578-973.50Q641-951 700-900L696-894Z"/><path id="s59:lato-hairline:80" d="M176 0L176-980L182-980Q196-980 196-964L199-779Q256-878 338-937Q420-996 516-996Q634-996 700.50-923Q767-850 783-715Q795-786 824.50-839Q854-892 896-927Q938-962 989.50-979Q1041-996 1096-996Q1165-996 1221-972Q1277-948 1316-901.50Q1355-855 1376.50-786Q1398-717 1398-628L1398 0L1374 0L1374-628Q1374-797 1301.50-886.50Q1229-976 1096-976Q1037-976 982.50-954Q928-932 886-888.50Q844-845 819-780Q794-715 794-628L794 0L770 0L770-628Q770-710 753.50-774.50Q737-839 704.50-884Q672-929 624-952.50Q576-976 514-976Q419-976 339.50-915.50Q260-855 200-748L200 0L176 0Z"/><path id="s59:lato-hairline:69" d="M190 0L190-1440L214-1440L214-778Q280-878 373.50-937Q467-996 578-996Q768-996 869-873.50Q970-751 970-496Q970-389 942.50-296.50Q915-204 861-135.50Q807-67 726.50-27.50Q646 12 540 12Q431 12 350-31Q269-74 213-164L210-14Q210-9 208-4.50Q206 0 198 0L190 0M578-976Q469-976 375.50-915Q282-854 214-746L214-195Q278-92 357-50Q436-8 540-8Q643-8 719-45.50Q795-83 845.50-149Q896-215 921-304Q946-393 946-496Q946-740 852.50-858Q759-976 578-976Z"/><path id="s59:lato-hairline:73" d="M210 0L210-918L46-922Q34-922 34-930L34-938L210-938L210-1088Q210-1172 230-1233.50Q250-1295 285.50-1335Q321-1375 370-1394.50Q419-1414 478-1414Q507-1414 538-1408.50Q569-1403 590-1392L588-1384Q586-1378 581-1378Q571-1378 547.50-1386Q524-1394 478-1394Q426-1394 381.50-1377.50Q337-1361 304-1324.50Q271-1288 252.50-1229.50Q234-1171 234-1088L234-938L584-938L584-918L234-918L234 0L210 0Z"/><path id="s59:lato-hairline:87" d="M418 16Q332 16 283-31Q234-78 234-186L234-918L72-918Q58-918 58-928L58-934L234-938L242-1332Q242-1337 244.50-1341.50Q247-1346 252-1346L258-1346L258-938L592-938L592-918L258-918L258-186Q258-136 270.50-101.50Q283-67 305-45.50Q327-24 356-14Q385-4 418-4Q460-4 491.50-17Q523-30 545-45Q567-60 580.50-73Q594-86 600-86Q604-86 608-82L612-78Q597-58 575.50-40.50Q554-23 528.50-10.50Q503 2 474.50 9Q446 16 418 16Z"/><path id="s59:lato-hairline:76" d="M234-980L234 0L210 0L210-980L234-980M278-1344Q278-1323 260.50-1306.50Q243-1290 222-1290Q199-1290 182.50-1306.50Q166-1323 166-1344Q166-1367 182.50-1383.50Q199-1400 222-1400Q243-1400 260.50-1383.50Q278-1367 278-1344Z"/><path id="s59:lato-hairline:92" d="M324 338Q321 346 315 353Q309 360 300 360L286 360L454-17L30-980L44-980Q52-980 57-975.50Q62-971 64-966L454-76Q458-67 461.50-58Q465-49 467-39Q469-49 472.50-58Q476-67 480-76L870-966Q877-980 888-980L902-980L324 338Z"/><path id="s59:lato-hairline:17" d="M120-48Q120-75 138.50-94.50Q157-114 184-114Q211-114 230.50-94.50Q250-75 250-48Q250-21 230.50-2.50Q211 16 184 16Q157 16 138.50-2.50Q120-21 120-48Z"/><path id="s59:lato-hairline:91" d="M406-498L54-980L76-980Q84-980 88-974.50Q92-969 94-966L423-511Q425-515 427-518Q429-521 432-526L752-966Q755-971 759.50-975.50Q764-980 770-980L792-980L439-501L806 0L784 0Q776 0 772-5.50Q768-11 766-14L422-488Q421-483 414-474L80-14Q76-9 72-4.50Q68 0 62 0L40 0L406-498Z"/><path id="s59:lato-hairline:70" d="M800-888Q796-884 792-884Q786-884 769.50-898.50Q753-913 721.50-930Q690-947 642.50-961.50Q595-976 528-976Q433-976 358-942Q283-908 231-845Q179-782 151.50-692Q124-602 124-490Q124-374 151.50-284.50Q179-195 230-133.50Q281-72 352.50-40Q424-8 512-8Q590-8 644-26Q698-44 733-66Q768-88 786-106Q804-124 810-124Q814-124 818-120L822-116Q807-94 778-71.50Q749-49 709-30.50Q669-12 619 0Q569 12 512 12Q417 12 341-22Q265-56 211.50-120.50Q158-185 129-278Q100-371 100-490Q100-604 129-697.50Q158-791 213-857Q268-923 347.50-959.50Q427-996 528-996Q617-996 686.50-967.50Q756-939 806-894L800-888Z"/><path id="s59:lato-hairline:41" d="M1058-1400L1058-1378L264-1378L264-702L958-702L958-680L264-680L264 0L240 0L240-1400L1058-1400Z"/><path id="s59:lato-hairline:15" d="M124-52Q124-76 140.50-95Q157-114 184-114Q211-114 228.50-94Q246-74 246-36Q246 41 212.50 112.50Q179 184 128 238L125 235Q122 232 122 229Q122 226 127 219Q137 206 154 183.50Q171 161 187 131Q203 101 214.50 65Q226 29 226-11Q209 8 180 8Q156 8 140-8.50Q124-25 124-52Z"/></defs><g id="line-0"><use x="0" y="1761" xlink:href="#s59:lato-hairline:55" /><use x="1160" y="1761" xlink:href="#s59:lato-hairline:75" /><use x="2216" y="1761" xlink:href="#s59:lato-hairline:72" /><use x="3216" y="1761" xlink:href="#s59:lato-hairline:3" /><use x="3602" y="1761" xlink:href="#s59:lato-hairline:40" /><use x="4802" y="1761" xlink:href="#s59:lato-hairline:88" /><use x="5858" y="1761" xlink:href="#s59:lato-hairline:85" /><use x="6642" y="1761" xlink:href="#s59:lato-hairline:82" /><use x="7698" y="1761" xlink:href="#s59:lato-hairline:83" /><use x="8740" y="1761" xlink:href="#s59:lato-hairline:72" /><use x="9740" y="1761" xlink:href="#s59:lato-hairline:68" /><use x="10678" y="1761" xlink:href="#s59:lato-hairline:81" /><use x="11734" y="1761" xlink:href="#s59:lato-hairline:3" /><use x="12120" y="1761" xlink:href="#s59:lato-hairline:79" /><use x="12564" y="1761" xlink:href="#s59:lato-hairline:68" /><use x="13502" y="1761" xlink:href="#s59:lato-hairline:81" /><use x="14558" y="1761" xlink:href="#s59:lato-hairline:74" /><use x="15554" y="1761" xlink:href="#s59:lato-hairline:88" /><use x="16610" y="1761" xlink:href="#s59:lato-hairline:68" /><use x="17548" y="1761" xlink:href="#s59:lato-hairline:74" /><use x="18544" y="1761" xlink:href="#s59:lato-hairline:72" /><use x="19544" y="1761" xlink:href="#s59:lato-hairline:86" /><use x="20398" y="1761" xlink:href="#s59:lato-hairline:3" /><use x="20784" y="1761" xlink:href="#s59:lato-hairline:68" /><use x="21722" y="1761" xlink:href="#s59:lato-hairline:85" /><use x="22506" y="1761" xlink:href="#s59:lato-hairline:72" /><use x="23506" y="1761" xlink:href="#s59:lato-hairline:3" /><use x="23892" y="1761" xlink:href="#s59:lato-hairline:80" /><use x="25440" y="1761" xlink:href="#s59:lato-hairline:72" /><use x="26440" y="1761" xlink:href="#s59:lato-hairline:80" /><use x="27988" y="1761" xlink:href="#s59:lato-hairline:69" /><use x="29058" y="1761" xlink:href="#s59:lato-hairline:72" /><use x="30058" y="1761" xlink:href="#s59:lato-hairline:85" /><use x="30842" y="1761" xlink:href="#s59:lato-hairline:86" /><use x="31696" y="1761" xlink:href="#s59:lato-hairline:3" /><use x="32082" y="1761" xlink:href="#s59:lato-hairline:82" /><use x="33138" y="1761" xlink:href="#s59:lato-hairline:73" /><use x="33756" y="1761" xlink:href="#s59:lato-hairline:3" /><use x="34142" y="1761" xlink:href="#s59:lato-hairline:87" /><use x="34826" y="1761" xlink:href="#s59:lato-hairline:75" /><use x="35882" y="1761" xlink:href="#s59:lato-hairline:72" /><use x="36882" y="1761" xlink:href="#s59:lato-hairline:3" /><use x="37268" y="1761" xlink:href="#s59:lato-hairline:86" /><use x="38122" y="1761" xlink:href="#s59:lato-hairline:68" /><use x="39060" y="1761" xlink:href="#s59:lato-hairline:80" /><use x="40608" y="1761" xlink:href="#s59:lato-hairline:72" /><use x="41608" y="1761" xlink:href="#s59:lato-hairline:3" /><use x="41994" y="1761" xlink:href="#s59:lato-hairline:73" /><use x="42612" y="1761" xlink:href="#s59:lato-hairline:68" /><use x="43550" y="1761" xlink:href="#s59:lato-hairline:80" /><use x="45098" y="1761" xlink:href="#s59:lato-hairline:76" /><use x="45542" y="1761" xlink:href="#s59:lato-hairline:79" /><use x="45986" y="1761" xlink:href="#s59:lato-hairline:92" /><use x="46796" y="1761" xlink:href="#s59:lato-hairline:17" /></g><g id="line-1"><use x="9547" y="4161" xlink:href="#s59:lato-hairline:55" /><use x="10707" y="4161" xlink:href="#s59:lato-hairline:75" /><use x="11763" y="4161" xlink:href="#s59:lato-hairline:72" /><use x="12763" y="4161" xlink:href="#s59:lato-hairline:76" /><use x="13207" y="4161" xlink:href="#s59:lato-hairline:85" /><use x="13991" y="4161" xlink:href="#s59:lato-hairline:3" /><use x="14377" y="4161" xlink:href="#s59:lato-hairline:86" /><use x="15231" y="4161" xlink:href="#s59:lato-hairline:72" /><use x="16231" y="4161" xlink:href="#s59:lato-hairline:83" /><use x="17273" y="4161" xlink:href="#s59:lato-hairline:68" /><use x="18211" y="4161" xlink:href="#s59:lato-hairline:85" /><use x="18935" y="4161" xlink:href="#s59:lato-hairline:68" /><use x="19873" y="4161" xlink:href="#s59:lato-hairline:87" /><use x="20557" y="4161" xlink:href="#s59:lato-hairline:72" /><use x="21557" y="4161" xlink:href="#s59:lato-hairline:3" /><use x="21943" y="4161" xlink:href="#s59:lato-hairline:72" /><use x="22883" y="4161" xlink:href="#s59:lato-hairline:91" /><use x="23729" y="4161" xlink:href="#s59:lato-hairline:76" /><use x="24173" y="4161" xlink:href="#s59:lato-hairline:86" /><use x="25027" y="4161" xlink:href="#s59:lato-hairline:87" /><use x="25711" y="4161" xlink:href="#s59:lato-hairline:72" /><use x="26711" y="4161" xlink:href="#s59:lato-hairline:81" /><use x="27767" y="4161" xlink:href="#s59:lato-hairline:70" /><use x="28657" y="4161" xlink:href="#s59:lato-hairline:72" /><use x="29657" y="4161" xlink:href="#s59:lato-hairline:3" /><use x="30043" y="4161" xlink:href="#s59:lato-hairline:76" /><use x="30487" y="4161" xlink:href="#s59:lato-hairline:86" /><use x="31341" y="4161" xlink:href="#s59:lato-hairline:3" /><use x="31727" y="4161" xlink:href="#s59:lato-hairline:68" /><use x="32665" y="4161" xlink:href="#s59:lato-hairline:3" /><use x="33051" y="4161" xlink:href="#s59:lato-hairline:80" /><use x="34579" y="4161" xlink:href="#s59:lato-hairline:92" /><use x="35509" y="4161" xlink:href="#s59:lato-hairline:87" /><use x="36193" y="4161" xlink:href="#s59:lato-hairline:75" /><use x="37249" y="4161" xlink:href="#s59:lato-hairline:17" /></g><g id="line-2"><use x="11656" y="6561" xlink:href="#s59:lato-hairline:41" /><use x="12730" y="6561" xlink:href="#s59:lato-hairline:82" /><use x="13786" y="6561" xlink:href="#s59:lato-hairline:85" /><use x="14570" y="6561" xlink:href="#s59:lato-hairline:3" /><use x="14956" y="6561" xlink:href="#s59:lato-hairline:86" /><use x="15810" y="6561" xlink:href="#s59:lato-hairline:70" /><use x="16700" y="6561" xlink:href="#s59:lato-hairline:76" /><use x="17144" y="6561" xlink:href="#s59:lato-hairline:72" /><use x="18144" y="6561" xlink:href="#s59:lato-hairline:81" /><use x="19200" y="6561" xlink:href="#s59:lato-hairline:70" /><use x="20090" y="6561" xlink:href="#s59:lato-hairline:72" /><use x="21090" y="6561" xlink:href="#s59:lato-hairline:15" /><use x="21460" y="6561" xlink:href="#s59:lato-hairline:3" /><use x="21846" y="6561" xlink:href="#s59:lato-hairline:80" /><use x="23394" y="6561" xlink:href="#s59:lato-hairline:88" /><use x="24450" y="6561" xlink:href="#s59:lato-hairline:86" /><use x="25304" y="6561" xlink:href="#s59:lato-hairline:76" /><use x="25748" y="6561" xlink:href="#s59:lato-hairline:70" /><use x="26638" y="6561" xlink:href="#s59:lato-hairline:15" /><use x="27008" y="6561" xlink:href="#s59:lato-hairline:3" /><use x="27394" y="6561" xlink:href="#s59:lato-hairline:86" /><use x="28248" y="6561" xlink:href="#s59:lato-hairline:83" /><use x="29290" y="6561" xlink:href="#s59:lato-hairline:82" /><use x="30346" y="6561" xlink:href="#s59:lato-hairline:85" /><use x="31130" y="6561" xlink:href="#s59:lato-hairline:87" /><use x="31814" y="6561" xlink:href="#s59:lato-hairline:15" /><use x="32184" y="6561" xlink:href="#s59:lato-hairline:3" /><use x="32570" y="6561" xlink:href="#s59:lato-hairline:72" /><use x="33570" y="6561" xlink:href="#s59:lato-hairline:87" /><use x="34254" y="6561" xlink:href="#s59:lato-hairline:70" /><use x="35144" y="6561" xlink:href="#s59:lato-hairline:15" /></g></svg>