<svg xmlns="http://www.w3.org/2000/svg" xmlns:xlink="http://www.w3.org/1999/xlink" width="594" height="84" viewBox="0 0 49509 6987"><defs><path id="s64:lato-regular:55" d="M1150-1433L1150-1270L687-1270L687 0L493 0L493-1270L28-1270L28-1433L1150-1433Z"/><path id="s64:lato-regular:75" d="M146 0L146-1473L324-1473L324-877Q389-946 468-987.50Q547-1029 650-1029Q733-1029 796.50-1001.50Q860-974 902.50-923.50Q945-873 967-802Q989-731 989-645L989 0L811 0L811-645Q811-760 758.50-823.50Q706-887 598-887Q519-887 450.50-849Q382-811 324-746L324 0L146 0Z"/><path id="s64:lato-regular:72" d="M547-1029Q638-1029 715-998.50Q792-968 848-910.50Q904-853 935.50-768.50Q967-684 967-576Q967-534 958-520Q949-506 924-506L250-506Q252-410 276-339Q300-268 342-220.50Q384-173 442-149.50Q500-126 572-126Q639-126 687.50-141.50Q736-157 771-175Q806-193 829.50-208.50Q853-224 870-224Q892-224 904-207L954-142Q921-102 875-72.50Q829-43 776.50-24Q724-5 668 4.50Q612 14 557 14Q452 14 363.50-21.50Q275-57 210.50-125.50Q146-194 110-295Q74-396 74-527Q74-633 106.50-725Q139-817 200-884.50Q261-952 349-990.50Q437-1029 547-1029M551-898Q422-898 348-823.50Q274-749 256-617L807-617Q807-679 790-730.50Q773-782 740-819.50Q707-857 659.50-877.50Q612-898 551-898Z"/><path id="s64:lato-regular:3" d=""/><path id="s64:lato-regular:40" d="M1057-1433L1057-1275L369-1275L369-799L926-799L926-647L369-647L369-158L1057-158L1057 0L174 0L174-1433L1057-1433Z"/><path id="s64:lato-regular:88" d="M300-1013L300-367Q300-252 353-189Q406-126 513-126Q591-126 660-163Q729-200 787-266L787-1013L965-1013L965 0L859 0Q821 0 811-37L797-146Q731-73 649-28.50Q567 16 461 16Q378 16 314.50-11.50Q251-39 208-89Q165-139 143.50-210Q122-281 122-367L122-1013L300-1013Z"/><path id="s64:lato-regular:85" d="M146 0L146-1013L248-1013Q277-1013 288-1002Q299-991 303-964L315-806Q367-912 443.50-971.50Q520-1031 623-1031Q665-1031 699-1021.50Q733-1012 762-995L739-862Q732-837 708-837Q694-837 665-846.50Q636-856 584-856Q491-856 428.50-802Q366-748 324-645L324 0L146 0Z"/><path id="s64:lato-regular:82" d="M556-1029Q667-1029 756.50-992Q846-955 908.50-887Q971-819 1004.50-722.50Q1038-626 1038-507Q1038-387 1004.50-291Q971-195 908.50-127Q846-59 756.50-22.50Q667 14 556 14Q445 14 355.50-22.50Q266-59 203-127Q140-195 106-291Q72-387 72-507Q72-626 106-722.50Q140-819 203-887Q266-955 355.50-992Q445-1029 556-1029M556-125Q706-125 780-225.50Q854-326 854-506Q854-687 780-788Q706-889 556-889Q480-889 424-863Q368-837 330.50-788Q293-739 274.50-667.50Q256-596 256-506Q256-416 274.50-345Q293-274 330.50-225.50Q368-177 424-151Q480-125 556-125Z"/><path id="s64:lato-regular:83" d="M146 343L146-1013L252-1013Q290-1013 300-976L315-856Q380-935 463.50-983Q547-1031 656-1031Q743-1031 814-997.50Q885-964 935-898.50Q985-833 1012-736Q1039-639 1039-513Q1039-401 1009-304.50Q979-208 923-137.50Q867-67 785.50-26.50Q704 14 602 14Q508 14 441.50-17Q375-48 324-105L324 343L146 343M597-887Q510-887 444.50-847Q379-807 324-734L324-244Q373-178 431.50-151Q490-124 562-124Q703-124 779-225Q855-326 855-513Q855-612 837.50-683Q820-754 787-799.50Q754-845 706-866Q658-887 597-887Z"/><path id="s64:lato-regular:68" d="M890 0L811 0Q785 0 769-8Q753-16 748-42L728-136Q688-100 650-71.50Q612-43 570-23.50Q528-4 480.50 6Q433 16 375 16Q316 16 264.50-0.50Q213-17 175-50Q137-83 114.50-133.50Q92-184 92-253Q92-313 125-368.50Q158-424 231.50-467Q305-510 424-537.50Q543-565 715-569L715-648Q715-766 664.50-826.50Q614-887 515-887Q450-887 405.50-870.50Q361-854 328.50-833.50Q296-813 272.50-796.50Q249-780 226-780Q208-780 194.50-789.50Q181-799 173-813L141-870Q225-951 322-991Q419-1031 537-1031Q622-1031 688-1003Q754-975 799-925Q844-875 867-804Q890-733 890-648L890 0M428-109Q475-109 514-118.50Q553-128 587.50-145.50Q622-163 653.50-188Q685-213 715-245L715-456Q592-452 506-436.50Q420-421 366-396Q312-371 287.50-337Q263-303 263-261Q263-221 276-192Q289-163 311-144.50Q333-126 363-117.50Q393-109 428-109Z"/><path id="s64:lato-regular:81" d="M146 0L146-1013L252-1013Q290-1013 300-976L314-866Q380-939 461.50-984Q543-1029 650-1029Q733-1029 796.50-1001.50Q860-974 902.50-923.50Q945-873 967-802Q989-731 989-645L989 0L811 0L811-645Q811-760 758.50-823.50Q706-887 598-887Q519-887 450.50-849Q382-811 324-746L324 0L146 0Z"/><path id="s64:lato-regular:79" d="M344-1473L344 0L166 0L166-1473L344-1473Z"/><path id="s64:lato-regular:74" d="M487-1030Q553-1030 610.50-1015.50Q668-1001 715-973L990-973L990-907Q990-874 948-865L833-849Q867-784 867-704Q867-630 838.50-569.50Q810-509 759.50-466Q709-423 639.50-400Q570-377 487-377Q416-377 353-394Q321-374 304.50-351Q288-328 288-306Q288-270 317-251.50Q346-233 394-225Q442-217 503-215Q564-213 627.50-208.50Q691-204 752-193Q813-182 861-157Q909-132 938-88Q967-44 967 26Q967 91 934.50 152Q902 213 841 260.50Q780 308 692 336.50Q604 365 493 365Q382 365 298.50 343Q215 321 160 284Q105 247 77.50 198.50Q50 150 50 97Q50 22 97.50-30.50Q145-83 228-114Q185-134 159.50-167.50Q134-201 134-257Q134-279 142-302.50Q150-326 166.50-349Q183-372 207-393Q231-414 263-430Q188-472 145.50-541.50Q103-611 103-704Q103-778 131.50-838.50Q160-899 211-941.50Q262-984 332.50-1007Q403-1030 487-1030M803 55Q803 17 782-6Q761-29 725-41.50Q689-54 642-60Q595-66 543-68.50Q491-71 437-74Q383-77 334-85Q277-58 241.50-19Q206 20 206 74Q206 108 223.50 137.50Q241 167 277 188.50Q313 210 367.50 222.50Q422 235 496 235Q568 235 625 222Q682 209 721.50 185Q761 161 782 128Q803 95 803 55M487-495Q541-495 582.50-510Q624-525 652-552Q680-579 694-616.50Q708-654 708-699Q708-792 651.50-847Q595-902 487-902Q380-902 323.50-847Q267-792 267-699Q267-654 281.50-616.50Q296-579 324-552Q352-525 393-510Q434-495 487-495Z"/><path id="s64:lato-regular:86" d="M726-846Q714-824 689-824Q674-824 655-835Q636-846 608.50-859.50Q581-873 543-884.50Q505-896 453-896Q408-896 372-884.50Q336-873 310.50-853Q285-833 271.50-806.50Q258-780 258-749Q258-710 280.50-684Q303-658 340-639Q377-620 424-605.50Q471-591 520.50-574.50Q570-558 617-538Q664-518 701-488Q738-458 760.50-414.50Q783-371 783-310Q783-240 758-180.50Q733-121 684-77.50Q635-34 564-9Q493 16 400 16Q294 16 208-18.50Q122-53 62-107L104-175Q112-188 123-195Q134-202 152-202Q170-202 190-188Q210-174 238.50-157Q267-140 307.50-126Q348-112 409-112Q461-112 500-125.50Q539-139 565-162Q591-185 603.50-215Q616-245 616-279Q616-321 593.50-348.50Q571-376 534-395.50Q497-415 449.50-429.50Q402-444 352.50-460Q303-476 255.50-496.50Q208-517 171-548Q134-579 111.50-624.50Q89-670 89-735Q89-793 113-846.50Q137-900 183-940.50Q229-981 296-1005Q363-1029 449-1029Q549-1029 628.50-997.50Q708-966 766-911L726-846Z"/><path id="s64:lato-regular:80" d="M146 0L146-1013L252-1013Q290-1013 300-976L313-872Q369-941 438.50-985Q508-1029 600-1029Q703-1029 766.50-972Q830-915 858-818Q879-873 913.50-913Q948-953 991-979Q1034-1005 1082.50-1017Q1131-1029 1181-1029Q1261-1029 1323.50-1003.50Q1386-978 1429.50-929Q1473-880 1496-808.50Q1519-737 1519-645L1519 0L1341 0L1341-645Q1341-764 1289-825.50Q1237-887 1138-887Q1094-887 1054.50-871.50Q1015-856 985-826Q955-796 937.50-750.50Q920-705 920-645L920 0L742 0L742-645Q742-767 693-827Q644-887 550-887Q484-887 427.50-851.50Q371-816 324-755L324 0L146 0Z"/><path id="s64:lato-regular:69" d="M152 0L152-1473L331-1473L331-867Q394-940 475.50-984.50Q557-1029 662-1029Q750-1029 821-996Q892-963 942-897.50Q992-832 1019-735.50Q1046-639 1046-513Q1046-401 1016-304.50Q986-208 929.50-137.50Q873-67 791.50-26.50Q710 14 608 14Q510 14 441.50-24Q373-62 322-130L313-38Q305 0 267 0L152 0M604-887Q517-887 451.50-847Q386-807 331-734L331-244Q379-178 437.50-151Q496-124 568-124Q710-124 786-225Q862-326 862-513Q862-612 844.50-683Q827-754 794-799.50Q761-845 713-866Q665-887 604-887Z"/><path id="s64:lato-regular:73" d="M186 0L186-861L74-874Q53-879 39.50-889.50Q26-900 26-920L26-993L186-993L186-1091Q186-1178 210.50-1245.50Q235-1313 280.50-1359.50Q326-1406 390-1430Q454-1454 534-1454Q602-1454 660-1434L656-1345Q655-1325 639-1321Q623-1317 594-1317L563-1317Q517-1317 479.50-1305Q442-1293 415-1266Q388-1239 373.50-1195Q359-1151 359-1086L359-993L652-993L652-864L365-864L365 0L186 0Z"/><path id="s64:lato-regular:87" d="M453 16Q333 16 268.50-51Q204-118 204-244L204-864L82-864Q66-864 55-873.50Q44-883 44-903L44-974L210-995L251-1308Q253-1323 264-1332.50Q275-1342 292-1342L382-1342L382-993L672-993L672-864L382-864L382-256Q382-192 413-161Q444-130 493-130Q521-130 541.50-137.50Q562-145 577-154Q592-163 602.50-170.50Q613-178 621-178Q635-178 646-161L698-76Q652-33 587-8.50Q522 16 453 16Z"/><path id="s64:lato-regular:76" d="M344-1013L344 0L166 0L166-1013L344-1013M384-1331Q384-1305 373.50-1282.50Q363-1260 345.50-1242.50Q328-1225 305-1215Q282-1205 256-1205Q230-1205 207.50-1215Q185-1225 167.50-1242.50Q150-1260 140-1282.50Q130-1305 130-1331Q130-1357 140-1380.50Q150-1404 167.50-1421.50Q185-1439 207.50-1449Q230-1459 256-1459Q282-1459 305-1449Q328-1439 345.50-1421.50Q363-1404 373.50-1380.50Q384-1357 384-1331Z"/><path id="s64:lato-regular:92" d="M443 299Q434 319 420.50 331Q407 343 379 343L247 343L432-59L14-1013L168-1013Q191-1013 204-1001.50Q217-990 223-976L494-338Q503-316 509.50-294Q516-272 521-249Q528-272 535-294Q542-316 551-339L814-976Q820-992 834.50-1002.50Q849-1013 866-1013L1008-1013L443 299Z"/><path id="s64:lato-regular:17" d="M88-110Q88-136 97.50-159Q107-182 123.50-199Q140-216 163-226Q186-236 212-236Q238-236 261-226Q284-216 301-199Q318-182 327.50-159Q337-136 337-110Q337-83 327.50-60.50Q318-38 301-21Q284-4 261 5.50Q238 15 212 15Q186 15 163 5.50Q140-4 123.50-21Q107-38 97.50-60.50Q88-83 88-110Z"/><path id="s64:lato-regular:91" d="M383-519L42-1013L213-1013Q235-1013 245-1006Q255-999 263-986L511-606Q520-634 537-662L755-982Q765-996 775-1004.50Q785-1013 800-1013L964-1013L623-529L978 0L807 0Q785 0 772.50-11.50Q760-23 752-37L497-434Q490-405 476-382L240-37Q230-23 218.50-11.50Q207 0 187 0L28 0L383-519Z"/><path id="s64:lato-regular:70" d="M837-833Q829-822 821-816Q813-810 798-810Q783-810 765.50-822.50Q748-835 721-850Q694-865 655.50-877.50Q617-890 561-890Q487-890 430-863.50Q373-837 334.50-787Q296-737 276.50-666Q257-595 257-507Q257-415 278-343.50Q299-272 337-223.50Q375-175 429.50-149.50Q484-124 552-124Q617-124 659-139.50Q701-155 729-174Q757-193 775-208.50Q793-224 811-224Q834-224 845-207L895-142Q829-61 730-23.50Q631 14 521 14Q426 14 344.50-21Q263-56 203-122.50Q143-189 108.50-286Q74-383 74-507Q74-620 105.50-716Q137-812 197.50-881.50Q258-951 347-990Q436-1029 551-1029Q657-1029 739-994.50Q821-960 884-897L837-833Z"/><path id="s64:lato-regular:41" d="M1057-1433L1057-1275L369-1275L369-774L957-774L957-616L369-616L369 0L174 0L174-1433L1057-1433Z"/><path id="s64:lato-regular:15" d="M94-123Q94-146 102.50-166.50Q111-187 126.50-202.50Q142-218 164-227Q186-236 212-236Q242-236 265.50-225Q289-214 304.50-194.50Q320-175 328-149.50Q336-124 336-94Q336-49 323-0.50Q310 48 286 95.50Q262 143 226.50 188Q191 233 146 271L116 242Q103 230 103 214Q103 201 117 187Q127 176 142.50 157.50Q158 139 174 115Q190 91 203.50 62Q217 33 223 0L210 0Q184 0 163-9Q142-18 126.50-34.50Q111-51 102.50-73.50Q94-96 94-123Z"/></defs><g id="line-0"><use x="0" y="1761" xlink:href="#s64:lato-regular:55"/><use x="1180" y="1761" xlink:href="#s64:lato-regular:75"/><use x="2292" y="1761" xlink:href="#s64:lato-regular:72"/><use x="3340" y="1761" xlink:href="#s64:lato-regular:3"/><use x="3726" y="1761" xlink:href="#s64:lato-regular:40"/><use x="4888" y="1761" xlink:href="#s64:lato-regular:88"/><use x="6000" y="1761" xlink:href="#s64:lato-regular:85"/><use x="6806" y="1761" xlink:href="#s64:lato-regular:82"/><use x="7918" y="1761" xlink:href="#s64:lato-regular:83"/><use x="9022" y="1761" xlink:href="#s64:lato-regular:72"/><use x="10070" y="1761" xlink:href="#s64:lato-regular:68"/><use x="11084" y="1761" xlink:href="#s64:lato-regular:81"/><use x="12196" y="1761" xlink:href="#s64:lato-regular:3"/><use x="12582" y="1761" xlink:href="#s64:lato-regular:79"/><use x="13094" y="1761" xlink:href="#s64:lato-regular:68"/><use x="14108" y="1761" xlink:href="#s64:lato-regular:81"/><use x="15220" y="1761" xlink:href="#s64:lato-regular:74"/><use x="16242" y="1761" xlink:href="#s64:lato-regular:88"/><use x="17354" y="1761" xlink:href="#s64:lato-regular:68"/><use x="18368" y="1761" xlink:href="#s64:lato-regular:74"/><use x="19390" y="1761" xlink:href="#s64:lato-regular:72"/><use x="20438" y="1761" xlink:href="#s64:lato-regular:86"/><use x="21306" y="1761" xlink:href="#s64:lato-regular:3"/><use x="21692" y="1761" xlink:href="#s64:lato-regular:68"/><use x="22706" y="1761" xlink:href="#s64:lato-regular:85"/><use x="23512" y="1761" xlink:href="#s64:lato-regular:72"/><use x="24560" y="1761" xlink:href="#s64:lato-regular:3"/><use x="24946" y="1761" xlink:href="#s64:lato-regular:80"/><use x="26588" y="1761" xlink:href="#s64:lato-regular:72"/><use x="27636" y="1761" xlink:href="#s64:lato-regular:80"/><use x="29278" y="1761" xlink:href="#s64:lato-regular:69"/><use x="30396" y="1761" xlink:href="#s64:lato-regular:72"/><use x="31444" y="1761" xlink:href="#s64:lato-regular:85"/><use x="32250" y="1761" xlink:href="#s64:lato-regular:86"/><use x="33118" y="1761" xlink:href="#s64:lato-regular:3"/><use x="33504" y="1761" xlink:href="#s64:lato-regular:82"/><use x="34616" y="1761" xlink:href="#s64:lato-regular:73"/><use x="35290" y="1761" xlink:href="#s64:lato-regular:3"/><use x="35676" y="1761" xlink:href="#s64:lato-regular:87"/><use x="36422" y="1761" xlink:href="#s64:lato-regular:75"/><use x="37534" y="1761" xlink:href="#s64:lato-regular:72"/><use x="38582" y="1761" xlink:href="#s64:lato-regular:3"/><use x="38968" y="1761" xlink:href="#s64:lato-regular:86"/><use x="39836" y="1761" xlink:href="#s64:lato-regular:68"/><use x="40850" y="1761" xlink:href="#s64:lato-regular:80"/><use x="42492" y="1761" xlink:href="#s64:lato-regular:72"/><use x="43540" y="1761" xlink:href="#s64:lato-regular:3"/><use x="43926" y="1761" xlink:href="#s64:lato-regular:73"/><use x="44600" y="1761" xlink:href="#s64:lato-regular:68"/><use x="45614" y="1761" xlink:href="#s64:lato-regular:80"/><use x="47256" y="1761" xlink:href="#s64:lato-regular:76"/><use x="47768" y="1761" xlink:href="#s64:lato-regular:79"/><use x="48280" y="1761" xlink:href="#s64:lato-regular:92"/><use x="49172" y="1761" xlink:href="#s64:lato-regular:17"/></g><g id="line-1"><use x="9912" y="4161" xlink:href="#s64:lato-regular:55"/><use x="11092" y="4161" xlink:href="#s64:lato-regular:75"/><use x="12204" y="4161" xlink:href="#s64:lato-regular:72"/><use x="13252" y="4161" xlink:href="#s64:lato-regular:76"/><use x="13764" y="4161" xlink:href="#s64:lato-regular:85"/><use x="14570" y="4161" xlink:href="#s64:lato-regular:3"/><use x="14956" y="4161" xlink:href="#s64:lato-regular:86"/><use x="15824" y="4161" xlink:href="#s64:lato-regular:72"/><use x="16872" y="4161" xlink:href="#s64:lato-regular:83"/><use x="17976" y="4161" xlink:href="#s64:lato-regular:68"/><use x="18990" y="4161" xlink:href="#s64:lato-regular:85"/><use x="19758" y="4161" xlink:href="#s64:lato-regular:68"/><use x="20772" y="4161" xlink:href="#s64:lato-regular:87"/><use x="21518" y="4161" xlink:href="#s64:lato-regular:72"/><use x="22566" y="4161" xlink:href="#s64:lato-regular:3"/><use x="22952" y="4161" xlink:href="#s64:lato-regular:72"/><use x="23940" y="4161" xlink:href="#s64:lato-regular:91"/><use x="24948" y="4161" xlink:href="#s64:lato-regular:76"/><use x="25460" y="4161" xlink:href="#s64:lato-regular:86"/><use x="26328" y="4161" xlink:href="#s64:lato-regular:87"/><use x="27074" y="4161" xlink:href="#s64:lato-regular:72"/><use x="28122" y="4161" xlink:href="#s64:lato-regular:81"/><use x="29234" y="4161" xlink:href="#s64:lato-regular:70"/><use x="30168" y="4161" xlink:href="#s64:lato-regular:72"/><use x="31216" y="4161" xlink:href="#s64:lato-regular:3"/><use x="31602" y="4161" xlink:href="#s64:lato-regular:76"/><use x="32114" y="4161" xlink:href="#s64:lato-regular:86"/><use x="32982" y="4161" xlink:href="#s64:lato-regular:3"/><use x="33368" y="4161" xlink:href="#s64:lato-regular:68"/><use x="34382" y="4161" xlink:href="#s64:lato-regular:3"/><use x="34768" y="4161" xlink:href="#s64:lato-regular:80"/><use x="36378" y="4161" xlink:href="#s64:lato-regular:92"/><use x="37402" y="4161" xlink:href="#s64:lato-regular:87"/><use x="38148" y="4161" xlink:href="#s64:lato-regular:75"/><use x="39260" y="4161" xlink:href="#s64:lato-regular:17"/></g><g id="line-2"><use x="12244.5" y="6561" xlink:href="#s64:lato-regular:41"/><use x="13306.5" y="6561" xlink:href="#s64:lato-regular:82"/><use x="14418.5" y="6561" xlink:href="#s64:lato-regular:85"/><use x="15224.5" y="6561" xlink:href="#s64:lato-regular:3"/><use x="15610.5" y="6561" xlink:href="#s64:lato-regular:86"/><use x="16478.5" y="6561" xlink:href="#s64:lato-regular:70"/><use x="17412.5" y="6561" xlink:href="#s64:lato-regular:76"/><use x="17924.5" y="6561" xlink:href="#s64:lato-regular:72"/><use x="18972.5" y="6561" xlink:href="#s64:lato-regular:81"/><use x="20084.5" y="6561" xlink:href="#s64:lato-regular:70"/><use x="21018.5" y="6561" xlink:href="#s64:lato-regular:72"/><use x="22066.5" y="6561" xlink:href="#s64:lato-regular:15"/><use x="22490.5" y="6561" xlink:href="#s64:lato-regular:3"/><use x="22876.5" y="6561" xlink:href="#s64:lato-regular:80"/><use x="24518.5" y="6561" xlink:href="#s64:lato-regular:88"/><use x="25630.5" y="6561" xlink:href="#s64:lato-regular:86"/><use x="26498.5" y="6561" xlink:href="#s64:lato-regular:76"/><use x="27010.5" y="6561" xlink:href="#s64:lato-regular:70"/><use x="27944.5" y="6561" xlink:href="#s64:lato-regular:15"/><use x="28368.5" y="6561" xlink:href="#s64:lato-regular:3"/><use x="28754.5" y="6561" xlink:href="#s64:lato-regular:86"/><use x="29622.5" y="6561" xlink:href="#s64:lato-regular:83"/><use x="30726.5" y="6561" xlink:href="#s64:lato-regular:82"/><use x="31838.5" y="6561" xlink:href="#s64:lato-regular:85"/><use x="32644.5" y="6561" xlink:href="#s64:lato-regular:87"/><use x="33390.5" y="6561" xlink:href="#s64:lato-regular:15"/><use x="33814.5" y="6561" xlink:href="#s64:lato-regular:3"/><use x="34200.5" y="6561" xlink:href="#s64:lato-regular:72"/><use x="35248.5" y="6561" xlink:href="#s64:lato-regular:87"/><use x="35994.5" y="6561" xlink:href="#s64:lato-regular:70"/><use x="36928.5" y="6561" xlink:href="#s64:lato-regular:15"/></g></svg>