<svg xmlns="http://www.w3.org/2000/svg" xmlns:xlink="http://www.w3.org/1999/xlink" width="541" height="85" viewBox="0 0 22523 3525"><defs><path id="s30:lobstertwo-bold:64" d="M582-620Q550-620 510-626.50Q470-633 427-642L427 0L282 0L282-662L272-662Q227-662 197-651.50Q167-641 149-621.50Q131-602 124-573Q117-544 117-508Q117-475 121.50-455Q126-435 132-422.50Q138-410 144-403.50Q150-397 154-392Q91-392 55.50-421.50Q20-451 20-526Q20-573 36-614Q52-655 87.50-685Q123-715 179.50-732Q236-749 318-749Q358-749 390.50-745.50Q423-742 451.50-737.50Q480-733 508-729.50Q536-726 567-726Q609-726 637.50-732.50Q666-739 685-747Q688-727 688-712Q688-667 663.50-643.50Q639-620 582-620Z"/><path id="s30:lobstertwo-bold:199" d="M301-303Q301-363 288-388Q275-413 250-413Q235-413 224.50-405Q214-397 207-384Q200-371 196-354.50Q192-338 191-321L191 0L47 0L47-680L191-700L191-448Q214-483 243-493.50Q272-504 298-504Q326-504 351.50-495Q377-486 396.50-464.50Q416-443 427-407.50Q438-372 438-320Q438-307 437.50-287.50Q437-268 436-248Q435-228 434.50-209Q434-190 434-177Q434-134 444.50-112.50Q455-91 486-91Q503-91 514-97.50Q525-104 532-116Q539-128 543.50-144Q548-160 552-179L594-179Q586-119 570-82.50Q554-46 533.50-26.50Q513-7 490-0.50Q467 6 445 6Q368 6 333.50-45Q299-96 299-181Q299-190 299.50-206.50Q300-223 300-241Q300-259 300.50-276Q301-293 301-303Z"/><path id="s30:lobstertwo-bold:146" d="M275-78Q305-78 328-86Q351-94 369-107.50Q387-121 402-139.50Q417-158 431-179L465-179Q451-144 431.50-111Q412-78 383.50-52Q355-26 317-10Q279 6 228 6Q185 6 149-7Q113-20 86.50-47.50Q60-75 45.50-118.50Q31-162 31-223Q31-266 40.50-315.50Q50-365 74-407Q98-449 139-477Q180-505 243-505Q291-505 317-490Q343-475 355.50-455Q368-435 370.50-416Q373-397 373-389Q373-344 356.50-310Q340-276 312.50-252.50Q285-229 249.50-216.50Q214-204 177-202Q178-135 199.50-106.50Q221-78 275-78M296-388Q296-423 284-437.50Q272-452 258-452Q241-452 227-435.50Q213-419 202.50-391.50Q192-364 185.50-327Q179-290 177-250Q202-252 224-263.50Q246-275 262-293.50Q278-312 287-336Q296-360 296-388Z"/><path id="s30:lobstertwo-bold:313" d=""/><path id="s30:lobstertwo-bold:19" d="M521-170Q510-125 486-90Q462-55 428-31Q394-7 353 5.50Q312 18 267 18Q210 18 168-0.50Q126-19 97.50-50Q69-81 55-121Q41-161 41-204Q41-237 49.50-271Q58-305 75-334.50Q92-364 117.50-386Q143-408 177-417Q129-447 107.50-486Q86-525 86-568Q86-602 99-635.50Q112-669 137.50-694.50Q163-720 200.50-736Q238-752 286-752Q315-752 341-745.50Q367-739 387-724Q407-709 419-685.50Q431-662 431-628Q431-593 418-567Q405-541 379-541Q368-541 355-546.50Q342-552 328-566Q342-571 350.50-591.50Q359-612 359-633Q359-652 352.50-664Q346-676 336-682.50Q326-689 315-691Q304-693 295-693Q273-693 257-684Q241-675 231-660Q221-645 216-625Q211-605 211-584Q211-556 219-530Q227-504 243.50-482Q260-460 285-443.50Q310-427 344-418Q312-410 287-389.50Q262-369 245.50-340.50Q229-312 220.50-279Q212-246 212-215Q212-188 219-163Q226-138 240.50-119.50Q255-101 277.50-89.50Q300-78 332-78Q356-78 382-85Q408-92 430.50-105Q453-118 470.50-137Q488-156 496-180L521-170Z"/><path id="s30:lobstertwo-bold:327" d="M439-500L439-160Q439-122 449-106.50Q459-91 485-91Q523-91 540.50-117Q558-143 562-179L604-179Q596-118 576-81.50Q556-45 531-25.50Q506-6 480 0Q454 6 433 6Q379 6 351.50-19Q324-44 314-89Q302-57 285-38.50Q268-20 250-10Q232 0 214 3Q196 6 181 6Q110 6 78.50-36Q47-78 47-149L47-500L191-500L191-160Q191-122 201.50-106.50Q212-91 232-91Q259-91 277-116Q295-141 295-179L295-500L439-500Z"/><path id="s30:lobstertwo-bold:297" d="M191-500L191-438Q213-464 240-484.50Q267-505 299-505Q318-505 333.50-497Q349-489 360.50-476Q372-463 378.50-447.50Q385-432 385-416Q385-394 371.50-375.50Q358-357 327-357Q304-357 295-367Q286-377 281-388.50Q276-400 270.50-410Q265-420 251-420Q236-420 221.50-408.50Q207-397 191-380L191 0L47 0L47-500L191-500Z"/><path id="s30:lobstertwo-bold:245" d="M244-505Q313-505 354-467.50Q395-430 407-347L414-347Q428-347 445.50-352Q463-357 482-365Q501-373 519-384Q537-395 551-407L566-380Q555-364 538.50-351Q522-338 501-327.50Q480-317 457-309.50Q434-302 411-298Q412-291 412-284.50Q412-278 412-271Q412-213 402-162.50Q392-112 368.50-74.50Q345-37 308-15.50Q271 6 217 6Q180 6 146.50-5.50Q113-17 87-43.50Q61-70 45.50-113.50Q30-157 30-220Q30-263 39-312.50Q48-362 72-405Q96-448 137.50-476.50Q179-505 244-505M245-88Q266-88 281.50-102.50Q297-117 307-142.50Q317-168 321.50-203Q326-238 326-279L326-294Q301-299 294-313Q287-327 287-344Q287-365 294-376Q301-387 312-391Q301-425 285.50-435Q270-445 259-445Q237-445 221.50-424.50Q206-404 196-372.50Q186-341 181.50-303Q177-265 177-230Q177-185 183.50-157Q190-129 200-114Q210-99 222-93.50Q234-88 245-88Z"/><path id="s30:lobstertwo-bold:274" d="M191-537L191-462Q208-480 234-492.50Q260-505 297-505Q331-505 361.50-492Q392-479 415.50-450.50Q439-422 453-375Q467-328 467-261Q467-213 458.50-165Q450-117 429-79Q408-41 372.50-17.50Q337 6 284 6Q246 6 224-4.50Q202-15 191-29L191 214L47 250L47-537L191-537M236-81Q262-81 280-98.50Q298-116 308.50-144Q319-172 323.50-206.50Q328-241 328-275Q328-330 318.50-362Q309-394 296-409.50Q283-425 270.50-429Q258-433 251-433Q233-433 216-420.50Q199-408 191-383L191-104Q196-96 207-88.50Q218-81 236-81Z"/><path id="s30:lobstertwo-bold:84" d="M459-500L459-160Q459-118 470.50-104.50Q482-91 511-91Q540-91 559.50-116Q579-141 582-179L624-179Q616-118 596-81.50Q576-45 551-25.50Q526-6 500 0Q474 6 454 6Q401 6 373.50-18.50Q346-43 335-86Q327-69 316-52.50Q305-36 289.50-23Q274-10 253.50-2Q233 6 206 6Q174 6 143-6Q112-18 86.50-45Q61-72 45.50-116.50Q30-161 30-226Q30-272 40.50-321Q51-370 73.50-411Q96-452 132.50-478.50Q169-505 221-505Q233-505 247-503.50Q261-502 274-496.50Q287-491 298-480.50Q309-470 315-452L315-500L459-500M315-404Q314-408 311-414.50Q308-421 302-427.50Q296-434 287-438.50Q278-443 266-443Q242-443 224.50-422.50Q207-402 196.50-371.50Q186-341 181-304.50Q176-268 176-235Q176-182 184-152.50Q192-123 203.50-109.50Q215-96 228-93.50Q241-91 250-91Q261-91 272.50-96.50Q284-102 293.50-113Q303-124 309-140.50Q315-157 315-179L315-404Z"/><path id="s30:lobstertwo-bold:238" d="M302-302Q302-362 288.50-387.50Q275-413 250-413Q235-413 224.50-405Q214-397 207-384Q200-371 196-354.50Q192-338 191-321L191 0L47 0L47-500L191-500L191-448Q214-483 243-493.50Q272-504 298-504Q326-504 351.50-495Q377-486 396.50-464.50Q416-443 427-407.50Q438-372 438-320Q438-307 437.50-287.50Q437-268 436-248Q435-228 434.50-209Q434-190 434-177Q434-134 443-112.50Q452-91 483-91Q517-91 530.50-116Q544-141 552-179L594-179Q586-119 570-82.50Q554-46 534-26.50Q514-7 491-0.50Q468 6 446 6Q369 6 334.50-45Q300-96 300-181Q300-190 300.50-206.50Q301-223 301-241Q301-259 301.50-275.50Q302-292 302-302Z"/><path id="s30:lobstertwo-bold:224" d="M191-700L191-160Q191-118 202.50-104.50Q214-91 243-91Q272-91 291.50-116Q311-141 314-179L356-179Q348-118 328-81.50Q308-45 283-25.50Q258-6 232 0Q206 6 186 6Q109 6 78-36.50Q47-79 47-149L47-680L191-700Z"/><path id="s30:lobstertwo-bold:186" d="M458-500L458-36Q479-44 495-55Q511-66 523-82.50Q535-99 542.50-122.50Q550-146 554-179L596-179Q591-129 577.50-96.50Q564-64 544.50-43Q525-22 502.50-10Q480 2 458 9L458 80Q458 134 445 167Q432 200 411.50 218.50Q391 237 366.50 243.50Q342 250 319 250Q290 250 264.50 242Q239 234 220.50 219.50Q202 205 191 184Q180 163 180 137Q180 110 191.50 88.50Q203 67 222 51Q241 35 265 23.50Q289 12 314 4L314-80Q297-52 270.50-33Q244-14 201-14Q170-14 139-26Q108-38 83-64Q58-90 42.50-132.50Q27-175 27-235Q27-280 37-327.50Q47-375 70.50-414.50Q94-454 132.50-479.50Q171-505 227-505Q237-505 249.50-503.50Q262-502 274-497Q286-492 297-482Q308-472 314-455L314-500L458-500M266-443Q241-443 223.50-424Q206-405 194.50-375.50Q183-346 178-310Q173-274 173-240Q173-193 181-167Q189-141 200-128.50Q211-116 222-113.50Q233-111 239-111Q271-111 290.50-132Q310-153 314-185L314-408Q311-418 299.50-430.50Q288-443 266-443M233 129Q233 148 246 160Q259 172 273 172Q291 172 302.50 150Q314 128 314 83L314 54Q279 68 256 86.50Q233 105 233 129Z"/><path id="s30:lobstertwo-bold:302" d="M471-179Q440-132 405-102Q370-72 340-51Q314-20 275-7Q236 6 200 6Q156 6 123-8Q90-22 68-43.50Q46-65 35-91.50Q24-118 24-142Q24-169 34.50-188Q45-207 61-215Q90-290 109.50-363.50Q129-437 137-511L281-531Q306-434 323-373.50Q340-313 350-272.50Q360-232 364-202Q368-172 368-135L368-129Q404-154 429-179L471-179M140-170Q140-155 131-142.50Q122-130 105-130Q97-130 88.50-132.50Q80-135 75-143Q83-108 100.50-90.50Q118-73 151-73Q180-73 201-88.50Q222-104 222-143Q222-170 219-191.50Q216-213 209.50-240Q203-267 192.50-304Q182-341 167-397Q157-349 142.50-304.50Q128-260 112-212Q123-207 131.50-196.50Q140-186 140-170Z"/><path id="s30:lobstertwo-bold:231" d="M549-302Q549-362 535-387.50Q521-413 497-413Q468-413 454.50-385.50Q441-358 438-321L438 0L294 0L294-345Q294-357 292-369.50Q290-382 285-391.50Q280-401 271.50-407.50Q263-414 250-414Q223-414 208.50-386.50Q194-359 191-321L191 0L47 0L47-500L191-500L191-448Q215-484 244.50-494.50Q274-505 300-505Q337-505 369-487Q401-469 421-419Q433-446 448.50-463Q464-480 480.50-489Q497-498 513.50-501Q530-504 545-504Q573-504 598.50-495Q624-486 643.50-464.50Q663-443 674-407.50Q685-372 685-320Q685-307 684.50-287.50Q684-268 683-248Q682-228 681.50-209Q681-190 681-177Q681-134 691.50-112.50Q702-91 733-91Q750-91 761-97.50Q772-104 779-116Q786-128 790.50-144Q795-160 799-179L841-179Q833-120 817-83.50Q801-47 781-27Q761-7 737.50-0.50Q714 6 691 6Q616 6 581.50-45Q547-96 547-181Q547-190 547.50-206.50Q548-223 548-241Q548-259 548.50-276Q549-293 549-302Z"/><path id="s30:lobstertwo-bold:104" d="M47-680L191-700L191-475Q218-494 235-499.50Q252-505 269-505Q305-505 334.50-489.50Q364-474 385.50-444Q407-414 419-369.50Q431-325 431-268Q431-224 422-175.50Q413-127 388.50-86.50Q364-46 321.50-20Q279 6 212 6Q127 6 86.50-36Q46-78 46-149L47-680M328-259Q328-340 305-386Q282-432 243-432Q231-432 215-427.50Q199-423 191-414L191-150Q191-118 205-104.50Q219-91 241-91Q267-91 284-106.50Q301-122 310.50-146.50Q320-171 324-200.50Q328-230 328-259Z"/><path id="s30:lobstertwo-bold:166" d="M293-600Q288-629 279.50-645Q271-661 247-661Q237-661 227-657.50Q217-654 209-645Q201-636 196-620Q191-604 191-579L191-500L264-500L264-460L191-460L191 80Q191 134 177.50 167Q164 200 144 218.50Q124 237 99.50 243.50Q75 250 54 250Q24 250-3 240.50Q-30 231-51 213.50Q-72 196-84 171.50Q-96 147-96 118Q-96 91-85 71.50Q-74 52-55 38Q-36 24-10 13Q16 2 47-8L47-579Q47-632 60.50-665.50Q74-699 95-717.50Q116-736 141-742.50Q166-749 189-749Q224-749 251-737Q278-725 297-705Q316-685 326.50-658Q337-631 340-600L293-600M-43 111Q-43 124-38 133.50Q-33 143-25.50 149Q-18 155-9 158Q0 161 7 161Q23 161 35.50 144.50Q48 128 48 83L48 25Q31 31 14.50 39Q-2 47-14.50 57.50Q-27 68-35 81.50Q-43 95-43 111Z"/><path id="s30:lobstertwo-bold:315" d="M191-658L191-500L252-500L252-460L191-460L191-160Q191-118 202.50-104.50Q214-91 243-91Q272-91 291.50-116Q311-141 314-179L356-179Q348-118 328-81.50Q308-45 283-25.50Q258-6 232 0Q206 6 186 6Q109 6 78-36.50Q47-79 47-149L47-460L15-460L15-500L47-500L47-638L191-658Z"/><path id="s30:lobstertwo-bold:203" d="M191-500L191-160Q191-118 202.50-104.50Q214-91 243-91Q272-91 291.50-116Q311-141 314-179L356-179Q348-118 328-81.50Q308-45 283-25.50Q258-6 232 0Q206 6 186 6Q109 6 78-36.50Q47-79 47-149L47-500L191-500M36-633Q36-666 59-689.50Q82-713 115-713Q148-713 171.50-689.50Q195-666 195-633Q195-600 171.50-577Q148-554 115-554Q82-554 59-577Q36-600 36-633Z"/><path id="s30:lobstertwo-bold:344" d="M438-500L438-36Q459-44 475-55Q491-66 503-82.50Q515-99 522.50-122.50Q530-146 534-179L576-179Q571-129 557.50-96.50Q544-64 524.50-43Q505-22 482.50-10Q460 2 438 9L438 80Q438 133 425 166.50Q412 200 391.50 218.50Q371 237 346.50 243.50Q322 250 299 250Q270 250 244.50 242Q219 234 200.50 219.50Q182 205 171 184Q160 163 160 137Q160 110 171.50 88.50Q183 67 202 51Q221 35 245 23.50Q269 12 294 4L294-51Q281-32 266.50-21Q252-10 237.50-4Q223 2 208.50 4Q194 6 181 6Q110 6 78.50-36Q47-78 47-149L47-500L191-500L191-160Q191-122 201.50-106.50Q212-91 232-91Q259-91 275-116Q291-141 294-179L294-500L438-500M213 128Q213 148 226.50 160Q240 172 254 172Q272 172 283 150Q294 128 294 83L294 54Q260 68 236.50 86Q213 104 213 128Z"/><path id="s30:lobstertwo-bold:281" d="M39-79Q39-112 62-135.50Q85-159 118-159Q151-159 174.50-135.50Q198-112 198-79Q198-46 174.50-23Q151 0 118 0Q85 0 62-23Q39-46 39-79Z"/><path id="s30:lobstertwo-bold:342" d="M417-178Q434-129 452.50-110Q471-91 495-91Q525-91 544.50-114.50Q564-138 568-179L610-179Q602-119 582.50-83Q563-47 539.50-27Q516-7 492-0.50Q468 6 451 6Q401 6 362-35Q323-76 288-168L185 0L113 0L266-228L226-340Q208-390 196-406.50Q184-423 171-423Q156-423 141.50-408Q127-393 115-363Q103-333 95.50-287Q88-241 88-179L46-179Q46-235 53.50-293Q61-351 79.50-398Q98-445 130-475Q162-505 212-505Q242-505 264-494.50Q286-484 301.50-466.50Q317-449 328-428Q339-407 346-386L372-308Q402-350 418.50-382Q435-414 435-440Q435-449 434-454Q427-453 426-452.50Q425-452 419-452Q387-452 372-470Q357-488 357-509Q357-535 376-549.50Q395-564 419-564Q447-564 471-542.50Q495-521 495-473Q495-426 466.50-365Q438-304 394-243L417-178Z"/><path id="s30:lobstertwo-bold:118" d="M288-345Q290-353 290.50-359Q291-365 291-375Q291-416 279.50-434Q268-452 250-452Q230-452 215.50-431.50Q201-411 191.50-379.50Q182-348 177.50-309Q173-270 173-233Q173-186 179.50-156Q186-126 199-109Q212-92 231.50-85Q251-78 276-78Q306-78 328.50-86Q351-94 369-107.50Q387-121 402-139.50Q417-158 431-179L465-179Q451-144 431.50-111Q412-78 383.50-52Q355-26 316.50-10Q278 6 227 6Q185 6 149-6.50Q113-19 86.50-46.50Q60-74 45.50-118Q31-162 31-224Q31-266 39.50-315.50Q48-365 71-407Q94-449 133.50-477Q173-505 236-505Q275-505 300.50-494Q326-483 341-466.50Q356-450 362-430.50Q368-411 368-393Q368-367 357.50-350Q347-333 329-333Q321-333 310-336Q299-339 288-345Z"/><path id="s30:lobstertwo-bold:29" d="M502-450L502-376L356-376L356 0L210 0L210-668Q188-666 170-659Q152-652 139.50-636.50Q127-621 120.50-595Q114-569 114-530Q114-497 118.50-473.50Q123-450 129.50-434Q136-418 143-408.50Q150-399 155-393Q87-393 54-424.50Q21-456 21-525Q21-572 37-613Q53-654 87-684.50Q121-715 173.50-732.50Q226-750 299-750Q324-750 346.50-748Q369-746 390-744Q411-742 433-740Q455-738 480-738Q505-738 527-740.50Q549-743 569-750Q569-710 562-686.50Q555-663 543-650.50Q531-638 515.50-634Q500-630 483-630Q455-630 422.50-635.50Q390-641 356-648L356-450L502-450Z"/><path id="s30:lobstertwo-bold:132" d="M39-89Q39-117 60-138Q81-159 110-159Q150-159 171-129Q192-99 192-56Q192-35 186-10.50Q180 14 168.50 38Q157 62 140 85Q123 108 101 126Q92 121 89.50 114.50Q87 108 87 102Q87 91 91 81Q95 71 100.50 61Q106 51 110 41Q114 31 114 20Q114 7 102.50-2.50Q91-12 76.50-22.50Q62-33 50.50-48.50Q39-64 39-89Z"/></defs><g id="line-0"><use x="0" y="875" xlink:href="#s30:lobstertwo-bold:64"/><use x="672" y="875" xlink:href="#s30:lobstertwo-bold:199"/><use x="1177" y="875" xlink:href="#s30:lobstertwo-bold:146"/><use x="1561" y="875" xlink:href="#s30:lobstertwo-bold:313"/><use x="1776" y="875" xlink:href="#s30:lobstertwo-bold:19"/><use x="2223" y="875" xlink:href="#s30:lobstertwo-bold:327"/><use x="2728" y="875" xlink:href="#s30:lobstertwo-bold:297"/><use x="3104" y="875" xlink:href="#s30:lobstertwo-bold:245"/><use x="3543" y="875" xlink:href="#s30:lobstertwo-bold:274"/><use x="4011" y="875" xlink:href="#s30:lobstertwo-bold:146"/><use x="4395" y="875" xlink:href="#s30:lobstertwo-bold:84"/><use x="4921" y="875" xlink:href="#s30:lobstertwo-bold:238"/><use x="5426" y="875" xlink:href="#s30:lobstertwo-bold:313"/><use x="5641" y="875" xlink:href="#s30:lobstertwo-bold:224"/><use x="5908" y="875" xlink:href="#s30:lobstertwo-bold:84"/><use x="6434" y="875" xlink:href="#s30:lobstertwo-bold:238"/><use x="6939" y="875" xlink:href="#s30:lobstertwo-bold:186"/><use x="7446" y="875" xlink:href="#s30:lobstertwo-bold:327"/><use x="7951" y="875" xlink:href="#s30:lobstertwo-bold:84"/><use x="8477" y="875" xlink:href="#s30:lobstertwo-bold:186"/><use x="8984" y="875" xlink:href="#s30:lobstertwo-bold:146"/><use x="9368" y="875" xlink:href="#s30:lobstertwo-bold:302"/><use x="9750" y="875" xlink:href="#s30:lobstertwo-bold:313"/><use x="9965" y="875" xlink:href="#s30:lobstertwo-bold:84"/><use x="10491" y="875" xlink:href="#s30:lobstertwo-bold:297"/><use x="10867" y="875" xlink:href="#s30:lobstertwo-bold:146"/><use x="11251" y="875" xlink:href="#s30:lobstertwo-bold:313"/><use x="11466" y="875" xlink:href="#s30:lobstertwo-bold:231"/><use x="12218" y="875" xlink:href="#s30:lobstertwo-bold:146"/><use x="12602" y="875" xlink:href="#s30:lobstertwo-bold:231"/><use x="13354" y="875" xlink:href="#s30:lobstertwo-bold:104"/><use x="13798" y="875" xlink:href="#s30:lobstertwo-bold:146"/><use x="14182" y="875" xlink:href="#s30:lobstertwo-bold:297"/><use x="14558" y="875" xlink:href="#s30:lobstertwo-bold:302"/><use x="14940" y="875" xlink:href="#s30:lobstertwo-bold:313"/><use x="15155" y="875" xlink:href="#s30:lobstertwo-bold:245"/><use x="15594" y="875" xlink:href="#s30:lobstertwo-bold:166"/><use x="15861" y="875" xlink:href="#s30:lobstertwo-bold:313"/><use x="16076" y="875" xlink:href="#s30:lobstertwo-bold:315"/><use x="16343" y="875" xlink:href="#s30:lobstertwo-bold:199"/><use x="16848" y="875" xlink:href="#s30:lobstertwo-bold:146"/><use x="17232" y="875" xlink:href="#s30:lobstertwo-bold:313"/><use x="17447" y="875" xlink:href="#s30:lobstertwo-bold:302"/><use x="17829" y="875" xlink:href="#s30:lobstertwo-bold:84"/><use x="18355" y="875" xlink:href="#s30:lobstertwo-bold:231"/><use x="19107" y="875" xlink:href="#s30:lobstertwo-bold:146"/><use x="19491" y="875" xlink:href="#s30:lobstertwo-bold:313"/><use x="19706" y="875" xlink:href="#s30:lobstertwo-bold:166"/><use x="19973" y="875" xlink:href="#s30:lobstertwo-bold:84"/><use x="20499" y="875" xlink:href="#s30:lobstertwo-bold:231"/><use x="21251" y="875" xlink:href="#s30:lobstertwo-bold:203"/><use x="21518" y="875" xlink:href="#s30:lobstertwo-bold:224"/><use x="21785" y="875" xlink:href="#s30:lobstertwo-bold:344"/><use x="22325" y="875" xlink:href="#s30:lobstertwo-bold:281"/></g><g id="line-1"><use x="4508.5" y="2075" xlink:href="#s30:lobstertwo-bold:64"/><use x="5180.5" y="2075" xlink:href="#s30:lobstertwo-bold:199"/><use x="5685.5" y="2075" xlink:href="#s30:lobstertwo-bold:146"/><use x="6069.5" y="2075" xlink:href="#s30:lobstertwo-bold:203"/><use x="6336.5" y="2075" xlink:href="#s30:lobstertwo-bold:297"/><use x="6712.5" y="2075" xlink:href="#s30:lobstertwo-bold:313"/><use x="6927.5" y="2075" xlink:href="#s30:lobstertwo-bold:302"/><use x="7309.5" y="2075" xlink:href="#s30:lobstertwo-bold:146"/><use x="7693.5" y="2075" xlink:href="#s30:lobstertwo-bold:274"/><use x="8161.5" y="2075" xlink:href="#s30:lobstertwo-bold:84"/><use x="8687.5" y="2075" xlink:href="#s30:lobstertwo-bold:297"/><use x="9063.5" y="2075" xlink:href="#s30:lobstertwo-bold:84"/><use x="9589.5" y="2075" xlink:href="#s30:lobstertwo-bold:315"/><use x="9856.5" y="2075" xlink:href="#s30:lobstertwo-bold:146"/><use x="10240.5" y="2075" xlink:href="#s30:lobstertwo-bold:313"/><use x="10455.5" y="2075" xlink:href="#s30:lobstertwo-bold:146"/><use x="10839.5" y="2075" xlink:href="#s30:lobstertwo-bold:342"/><use x="11361.5" y="2075" xlink:href="#s30:lobstertwo-bold:203"/><use x="11628.5" y="2075" xlink:href="#s30:lobstertwo-bold:302"/><use x="12010.5" y="2075" xlink:href="#s30:lobstertwo-bold:315"/><use x="12277.5" y="2075" xlink:href="#s30:lobstertwo-bold:146"/><use x="12661.5" y="2075" xlink:href="#s30:lobstertwo-bold:238"/><use x="13166.5" y="2075" xlink:href="#s30:lobstertwo-bold:118"/><use x="13550.5" y="2075" xlink:href="#s30:lobstertwo-bold:146"/><use x="13934.5" y="2075" xlink:href="#s30:lobstertwo-bold:313"/><use x="14149.5" y="2075" xlink:href="#s30:lobstertwo-bold:203"/><use x="14416.5" y="2075" xlink:href="#s30:lobstertwo-bold:302"/><use x="14798.5" y="2075" xlink:href="#s30:lobstertwo-bold:313"/><use x="15013.5" y="2075" xlink:href="#s30:lobstertwo-bold:84"/><use x="15539.5" y="2075" xlink:href="#s30:lobstertwo-bold:313"/><use x="15754.5" y="2075" xlink:href="#s30:lobstertwo-bold:231"/><use x="16506.5" y="2075" xlink:href="#s30:lobstertwo-bold:344"/><use x="16992.5" y="2075" xlink:href="#s30:lobstertwo-bold:315"/><use x="17259.5" y="2075" xlink:href="#s30:lobstertwo-bold:199"/><use x="17816.5" y="2075" xlink:href="#s30:lobstertwo-bold:281"/></g><g id="line-2"><use x="5689" y="3275" xlink:href="#s30:lobstertwo-bold:29"/><use x="6196" y="3275" xlink:href="#s30:lobstertwo-bold:245"/><use x="6635" y="3275" xlink:href="#s30:lobstertwo-bold:297"/><use x="7011" y="3275" xlink:href="#s30:lobstertwo-bold:313"/><use x="7226" y="3275" xlink:href="#s30:lobstertwo-bold:302"/><use x="7608" y="3275" xlink:href="#s30:lobstertwo-bold:118"/><use x="7992" y="3275" xlink:href="#s30:lobstertwo-bold:203"/><use x="8259" y="3275" xlink:href="#s30:lobstertwo-bold:146"/><use x="8643" y="3275" xlink:href="#s30:lobstertwo-bold:238"/><use x="9148" y="3275" xlink:href="#s30:lobstertwo-bold:118"/><use x="9532" y="3275" xlink:href="#s30:lobstertwo-bold:146"/><use x="9956" y="3275" xlink:href="#s30:lobstertwo-bold:132"/><use x="10190" y="3275" xlink:href="#s30:lobstertwo-bold:313"/><use x="10405" y="3275" xlink:href="#s30:lobstertwo-bold:231"/><use x="11157" y="3275" xlink:href="#s30:lobstertwo-bold:327"/><use x="11662" y="3275" xlink:href="#s30:lobstertwo-bold:302"/><use x="12044" y="3275" xlink:href="#s30:lobstertwo-bold:203"/><use x="12311" y="3275" xlink:href="#s30:lobstertwo-bold:118"/><use x="12736" y="3275" xlink:href="#s30:lobstertwo-bold:132"/><use x="12970" y="3275" xlink:href="#s30:lobstertwo-bold:313"/><use x="13185" y="3275" xlink:href="#s30:lobstertwo-bold:302"/><use x="13567" y="3275" xlink:href="#s30:lobstertwo-bold:274"/><use x="14035" y="3275" xlink:href="#s30:lobstertwo-bold:245"/><use x="14474" y="3275" xlink:href="#s30:lobstertwo-bold:297"/><use x="14850" y="3275" xlink:href="#s30:lobstertwo-bold:315"/><use x="15117" y="3275" xlink:href="#s30:lobstertwo-bold:132"/><use x="15351" y="3275" xlink:href="#s30:lobstertwo-bold:313"/><use x="15566" y="3275" xlink:href="#s30:lobstertwo-bold:146"/><use x="15950" y="3275" xlink:href="#s30:lobstertwo-bold:315"/><use x="16217" y="3275" xlink:href="#s30:lobstertwo-bold:118"/><use x="16642" y="3275" xlink:href="#s30:lobstertwo-bold:132"/></g></svg>