<svg xmlns="http://www.w3.org/2000/svg" xmlns:xlink="http://www.w3.org/1999/xlink" width="535" height="85" viewBox="0 0 45654 7219.2"><defs><path id="s34:lobster-regular:46" d="M322 0L612-1356L588-1356Q507-1356 436.50-1337.50Q366-1319 314-1272.50Q262-1226 232.50-1146Q203-1066 203-942Q203-903 207.50-878.50Q212-854 217-839.50Q222-825 226.50-817Q231-809 231-803Q178-803 137-813.50Q96-824 68.50-847Q41-870 26.50-908Q12-946 12-1001Q12-1103 50-1199.50Q88-1296 171.50-1370Q255-1444 388-1489Q521-1534 711-1534Q773-1534 821.50-1530.50Q870-1527 911.50-1522Q953-1517 990-1510.50Q1027-1504 1064.50-1499Q1102-1494 1143.50-1490.50Q1185-1487 1235-1487Q1307-1487 1369-1500Q1431-1513 1473-1530Q1468-1395 1403.50-1332.50Q1339-1270 1217-1270Q1141-1270 1062.50-1284Q984-1298 899-1315L616 0L322 0Z"/><path id="s34:lobster-regular:66" d="M1120-367Q1077-241 1027.50-166Q978-91 927.50-51.50Q877-12 828.50 0Q780 12 739 12Q671 12 625-7.50Q579-27 551-59.50Q523-92 510.50-133.50Q498-175 498-219Q498-271 512.50-340.50Q527-410 544-483Q561-556 575.50-624Q590-692 590-741Q590-846 516-846Q488-846 464-831Q440-816 420-790.50Q400-765 384-730.50Q368-696 356-657L217 0L-78 0L219-1393L522-1434L412-918Q445-955 477.50-977.50Q510-1000 541-1012Q572-1024 599.50-1028Q627-1032 651-1032Q700-1032 742-1019Q784-1006 814.50-978Q845-950 862-906Q879-862 879-801Q879-760 871.50-712.50Q864-665 853-615.50Q842-566 829.50-517Q817-468 806-423Q795-378 787.50-339.50Q780-301 780-272Q780-234 797.50-210Q815-186 862-186Q895-186 920-199Q945-212 965-236Q985-260 1001.50-293.50Q1018-327 1034-367L1120-367Z"/><path id="s34:lobster-regular:63" d="M856-367Q813-295 757.50-227Q702-159 632.50-106Q563-53 478.50-20.50Q394 12 293 12Q220 12 161-6.50Q102-25 60-64Q18-103-4.50-164.50Q-27-226-27-313Q-27-372-15-449Q-3-526 23-607Q49-688 92-766Q135-844 196-905.50Q257-967 339-1004.50Q421-1042 526-1042Q595-1042 638.50-1025.50Q682-1009 707.50-982Q733-955 742.50-919.50Q752-884 752-846Q752-757 713-680.50Q674-604 608.50-547Q543-490 458-455Q373-420 281-414Q279-391 277.50-370.50Q276-350 276-332Q276-280 285.50-246.50Q295-213 313.50-194Q332-175 359.50-167.50Q387-160 424-160Q485-160 534.50-176Q584-192 627-220Q670-248 708.50-286Q747-324 786-367L856-367M297-512Q355-516 409-545Q463-574 504-620.50Q545-667 569.50-726.50Q594-786 594-850Q594-888 583-911Q572-934 543-934Q504-934 466.50-896.50Q429-859 396-799Q363-739 337.50-663.50Q312-588 297-512Z"/><path id="s34:lobster-regular:1" d=""/><path id="s34:lobster-regular:31" d="M991-348Q950-258 886.50-187Q823-116 743.50-66Q664-16 574 10.50Q484 37 391 37Q292 37 220.50 7.50Q149-22 103.50-72Q58-122 36-187Q14-252 14-324Q14-405 40-489Q66-573 114.50-646.50Q163-720 233.50-775.50Q304-831 393-854Q327-902 297.50-966.50Q268-1031 268-1100Q268-1179 301.50-1257.50Q335-1336 394.50-1399Q454-1462 536.50-1501Q619-1540 717-1540Q778-1540 831.50-1523.50Q885-1507 925-1475Q965-1443 987.50-1395Q1010-1347 1010-1284Q1010-1238 998-1199Q986-1160 965-1131.50Q944-1103 916.50-1087Q889-1071 858-1071Q802-1071 762-1126Q780-1132 796.50-1151Q813-1170 825.50-1195Q838-1220 845-1249Q852-1278 852-1305Q852-1336 842-1358Q832-1380 816.50-1393.50Q801-1407 780.50-1413Q760-1419 739-1419Q693-1419 654.50-1394Q616-1369 588.50-1328.50Q561-1288 545.50-1236Q530-1184 530-1130Q530-1085 541.50-1042Q553-999 578-962.50Q603-926 642.50-898.50Q682-871 737-856Q682-844 633.50-816Q585-788 544.50-749.50Q504-711 472-664Q440-617 417.50-566.50Q395-516 383-465Q371-414 371-367Q371-324 382-286Q393-248 416-220Q439-192 476-176Q513-160 565-160Q612-160 666.50-173Q721-186 773-212.50Q825-239 870-278Q915-317 944-369L991-348Z"/><path id="s34:lobster-regular:79" d="M1120-367Q1091-284 1057-223Q1023-162 986.50-120Q950-78 912-52Q874-26 838-12Q802 2 769 7Q736 12 709 12Q621 12 569-36.50Q517-85 506-182Q467-119 427-81Q387-43 348-22Q309-1 272 5.50Q235 12 203 12Q157 12 117-2Q77-16 47.50-46Q18-76 1-122Q-16-168-16-233Q-16-261-12-294.50Q-8-328 0-367L139-1024L434-1024L287-328Q281-296 281-270Q281-235 294-210.50Q307-186 342-186Q372-186 397-199.50Q422-213 442.50-237Q463-261 478.50-294.50Q494-328 506-367L645-1024L940-1024L793-328Q788-311 786-294.50Q784-278 784-262Q784-219 804.50-202.50Q825-186 868-186Q898-186 923.50-199.50Q949-213 970-237Q991-261 1007-294.50Q1023-328 1034-367L1120-367Z"/><path id="s34:lobster-regular:76" d="M-78 0L139-1024L434-1024L408-897Q435-921 463-944Q491-967 521.50-984.50Q552-1002 585-1013Q618-1024 655-1024Q690-1024 716.50-1011Q743-998 761-977Q779-956 788-928Q797-900 797-870Q797-843 788-816.50Q779-790 760.50-769Q742-748 714-734.50Q686-721 649-721Q620-721 604.50-731Q589-741 581-756Q573-771 569.50-788.50Q566-806 562-821Q558-836 551.50-846Q545-856 530-856Q483-856 451-834.50Q419-813 381-778L217 0L-78 0Z"/><path id="s34:lobster-regular:73" d="M1151-778Q1091-715 996-671Q901-627 788-608Q776-466 733.50-352Q691-238 626-158Q561-78 477-35Q393 8 299 8Q228 8 167.50-9.50Q107-27 63.50-65.50Q20-104-4.50-165.50Q-29-227-29-315Q-29-375-16.50-451.50Q-4-528 23.50-609Q51-690 94.50-767.50Q138-845 200.50-906Q263-967 345-1004.50Q427-1042 532-1042Q795-1042 795-715L795-713Q800-711 804.50-711Q809-711 817-711Q853-711 894.50-721.50Q936-732 978-749Q1020-766 1060-788.50Q1100-811 1133-834L1151-778M618-602Q586-610 574.50-633.50Q563-657 563-688Q563-731 580.50-758.50Q598-786 627-799Q625-832 620-854.50Q615-877 606-891.50Q597-906 583.50-912Q570-918 549-918Q512-918 478-889.50Q444-861 413.50-814Q383-767 357.50-706.50Q332-646 314-582Q296-518 286-455.50Q276-393 276-342Q276-291 281.50-259Q287-227 299.50-208.50Q312-190 332-183Q352-176 381-176Q418-176 455.50-209Q493-242 525-299Q557-356 581.50-434Q606-512 618-602Z"/><path id="s34:lobster-regular:74" d="M-186 512L156-1100L451-1100L418-946Q463-984 521-1009Q579-1034 657-1034Q709-1034 755-1017.50Q801-1001 834.50-963.50Q868-926 887.50-864Q907-802 907-711Q907-642 897.50-561.50Q888-481 865-400.50Q842-320 804.50-245.50Q767-171 711-114Q655-57 578.50-22.50Q502 12 403 12Q364 12 335 6Q306 0 285.50-10Q265-20 251.50-33.50Q238-47 229-61L123 438L-186 512M262-213Q268-196 286.50-181Q305-166 340-166Q394-166 436-193.50Q478-221 510-266.50Q542-312 564-370Q586-428 600-489Q614-550 620.50-609.50Q627-669 627-717Q627-776 616-810Q605-844 589.50-861Q574-878 556-882.50Q538-887 524-887Q489-887 450.50-861.50Q412-836 383-786L262-213Z"/><path id="s34:lobster-regular:59" d="M1163-367Q1134-284 1100-223Q1066-162 1029.50-120Q993-78 955-52Q917-26 881-12Q845 2 812 7Q779 12 752 12Q665 12 613.50-35.50Q562-83 551-176Q526-141 496-107.50Q466-74 429-47.50Q392-21 346.50-4.50Q301 12 246 12Q193 12 144-5Q95-22 57-61Q19-100-4-163Q-27-226-27-317Q-27-387-13-467Q1-547 30-627Q59-707 102.50-780.50Q146-854 204.50-910.50Q263-967 337-1000.50Q411-1034 500-1034Q587-1034 626.50-1004Q666-974 666-930L666-915L688-1024L983-1024L836-328Q831-311 829-294.50Q827-278 827-262Q827-174 911-174Q941-174 966.50-189.50Q992-205 1013-231Q1034-257 1050-292.50Q1066-328 1077-367L1163-367M647-829Q647-838 643-851.50Q639-865 629.50-877.50Q620-890 604-898.50Q588-907 563-907Q520-907 481.50-879Q443-851 411-804.50Q379-758 354-699Q329-640 311.50-577.50Q294-515 285-454.50Q276-394 276-346Q276-287 287-255Q298-223 313.50-207.50Q329-192 347-189Q365-186 379-186Q402-186 427.50-197.50Q453-209 476.50-231.50Q500-254 519.50-288Q539-322 549-367L647-829Z"/><path id="s34:lobster-regular:72" d="M1120-367Q1077-241 1027.50-166Q978-91 927.50-51.50Q877-12 828.50 0Q780 12 739 12Q671 12 625-7.50Q579-27 551-59.50Q523-92 510.50-133.50Q498-175 498-219Q498-271 512.50-340.50Q527-410 544-483Q561-556 575.50-624Q590-692 590-741Q590-846 516-846Q488-846 464-831Q440-816 420-790.50Q400-765 384-730.50Q368-696 356-657L217 0L-78 0L139-1024L434-1024L412-918Q445-955 477.50-977.50Q510-1000 541-1012Q572-1024 599.50-1028Q627-1032 651-1032Q700-1032 742-1019Q784-1006 814.50-978Q845-950 862-906Q879-862 879-801Q879-760 871.50-712.50Q864-665 853-615.50Q842-566 829.50-517Q817-468 806-423Q795-378 787.50-339.50Q780-301 780-272Q780-234 797.50-210Q815-186 862-186Q895-186 920-199Q945-212 965-236Q985-260 1001.50-293.50Q1018-327 1034-367L1120-367Z"/><path id="s34:lobster-regular:70" d="M633-367Q604-284 568.50-223Q533-162 494.50-120Q456-78 415.50-52Q375-26 337-12Q299 2 264.50 7Q230 12 203 12Q157 12 117-2Q77-16 47.50-46Q18-76 1-122Q-16-168-16-233Q-16-261-12-294.50Q-8-328 0-367L219-1393L522-1434L287-328Q282-311 280.50-294.50Q279-278 279-262Q279-219 299-202.50Q319-186 362-186Q392-186 420.50-199.50Q449-213 473-237Q497-261 516-294.50Q535-328 547-367L633-367Z"/><path id="s34:lobster-regular:65" d="M731 164Q709 274 667.50 342Q626 410 575 448Q524 486 468.50 499Q413 512 362 512Q315 512 273.50 499.50Q232 487 201 462.50Q170 438 151.50 400.50Q133 363 133 313Q133 249 163.50 200Q194 151 242 114.50Q290 78 349.50 52Q409 26 467 8L492-100Q447-52 386.50-20Q326 12 246 12Q193 12 144-5Q95-22 57-61Q19-100-4-163Q-27-226-27-317Q-27-387-13-467Q1-547 30-627Q59-707 102.50-780.50Q146-854 204.50-910.50Q263-967 337-1000.50Q411-1034 500-1034Q587-1034 626.50-1004Q666-974 666-930L666-918L688-1024L983-1024L780-74Q827-90 865-112.50Q903-135 934.50-169.50Q966-204 991.50-252Q1017-300 1038-367L1124-367Q1093-265 1050.50-197Q1008-129 960-85.50Q912-42 861-19Q810 4 762 16L731 164M647-831Q647-840 643-853Q639-866 629.50-878Q620-890 604-898.50Q588-907 563-907Q520-907 481.50-879Q443-851 411-804.50Q379-758 354-699Q329-640 311.50-577.50Q294-515 285-454.50Q276-394 276-346Q276-287 287-255Q298-223 313.50-207.50Q329-192 347-189Q365-186 379-186Q400-186 424-196.50Q448-207 471.50-227Q495-247 514-277Q533-307 543-346L647-831M446 111Q406 126 370 143.50Q334 161 306.50 182Q279 203 262.50 228.50Q246 254 246 285Q246 296 250 308Q254 320 262.50 330Q271 340 284 346Q297 352 315 352Q347 352 380.50 307.50Q414 263 434 170L446 111Z"/><path id="s34:lobster-regular:77" d="M868-367Q788-274 707.50-213.50Q627-153 555-111Q523-77 483.50-53.50Q444-30 401.50-15.50Q359-1 315.50 5.50Q272 12 233 12Q156 12 99.50-11.50Q43-35 6-72.50Q-31-110-48.50-156.50Q-66-203-66-250Q-66-286-56.50-316.50Q-47-347-32-371Q-17-395 2.50-412.50Q22-430 43-440Q129-594 188-744.50Q247-895 295-1047L598-1087Q604-954 609.50-856.50Q615-759 620-687.50Q625-616 629-566Q633-516 636.50-477.50Q640-439 641.50-407.50Q643-376 643-342Q643-319 641.50-300Q640-281 635-264Q680-290 716.50-315.50Q753-341 782-367L868-367M43-293Q43-221 71.50-185.50Q100-150 168-150Q202-150 234-159.50Q266-169 291-191.50Q316-214 331-250Q346-286 346-340Q346-366 344.50-390.50Q343-415 341-442.50Q339-470 335.50-504Q332-538 327.50-583Q323-628 318-687Q313-746 307-825Q276-725 234-631Q192-537 141-438Q161-427 174.50-410Q188-393 188-367Q188-348 182-330Q176-312 164-297.50Q152-283 135.50-274.50Q119-266 98-266Q81-266 66-271Q51-276 43-293Z"/><path id="s34:lobster-regular:71" d="M1626-367Q1583-241 1533.50-166Q1484-91 1433.50-51.50Q1383-12 1334.50 0Q1286 12 1245 12Q1177 12 1131-7.50Q1085-27 1057-59.50Q1029-92 1016.50-133.50Q1004-175 1004-219Q1004-271 1018.50-340.50Q1033-410 1050-483Q1067-556 1081.50-624Q1096-692 1096-741Q1096-846 1022-846Q994-846 970-831Q946-816 926-790.50Q906-765 890-730.50Q874-696 862-657L723 0L428 0L578-707Q584-731 584-758Q584-776 581-792Q578-808 570.50-820.50Q563-833 551.50-840.50Q540-848 522-848Q492-848 466.50-833Q441-818 420.50-792Q400-766 384-731Q368-696 356-657L217 0L-78 0L139-1024L434-1024L412-918Q445-955 478-977.50Q511-1000 543-1012.50Q575-1025 605-1029.50Q635-1034 662-1034Q702-1034 737-1024.50Q772-1015 799-994Q826-973 845-939.50Q864-906 872-858Q909-915 948-949.50Q987-984 1024-1002Q1061-1020 1095-1026Q1129-1032 1157-1032Q1206-1032 1247.50-1019Q1289-1006 1319.50-978Q1350-950 1367-906Q1384-862 1384-801Q1384-760 1376.50-712.50Q1369-665 1358.50-615.50Q1348-566 1335-517Q1322-468 1311.50-423Q1301-378 1293.50-339.50Q1286-301 1286-272Q1286-234 1303.50-210Q1321-186 1368-186Q1401-186 1426-199Q1451-212 1471-236Q1491-260 1507.50-293.50Q1524-327 1540-367L1626-367Z"/><path id="s34:lobster-regular:60" d="M219-1393L522-1434L424-973Q455-992 479.50-1003.50Q504-1015 524-1021Q544-1027 560.50-1028.50Q577-1030 592-1030Q646-1030 690.50-1012Q735-994 767-952.50Q799-911 816.50-844Q834-777 834-680Q834-620 822.50-545.50Q811-471 785-394Q759-317 716-244Q673-171 611-114Q549-57 465-22.50Q381 12 272 12Q130 12 58-57Q-14-126-14-250Q-14-279-11-308.50Q-8-338 0-367L219-1393M285-328Q279-302 279-281Q279-186 387-186Q420-186 451-208.50Q482-231 508.50-268.50Q535-306 557-356.50Q579-407 594.50-462.50Q610-518 618.50-576Q627-634 627-688Q627-725 620.50-760.50Q614-796 600.50-824Q587-852 566.50-868.50Q546-885 518-885Q507-885 490-883.50Q473-882 455-877.50Q437-873 421.50-866Q406-859 397-848L285-328Z"/><path id="s34:lobster-regular:64" d="M174-1186Q196-1296 238.50-1364Q281-1432 333-1470Q385-1508 441-1521Q497-1534 547-1534Q593-1534 636.50-1518Q680-1502 713.50-1473Q747-1444 767.50-1403.50Q788-1363 788-1313Q788-1265 782-1229L686-1229Q688-1246 689-1258Q690-1270 690-1284Q690-1319 666.50-1336.50Q643-1354 612-1354Q596-1354 575.50-1347Q555-1340 534.50-1321.50Q514-1303 496.50-1270Q479-1237 469-1186L434-1024L584-1024L569-942L418-942L182 164Q160 274 118.50 342Q77 410 26.50 448Q-24 486-79 499Q-134 512-184 512Q-230 512-273.50 496Q-317 480-351 451Q-385 422-405.50 381.50Q-426 341-426 291Q-426 220-398.50 171.50Q-371 123-323 88.50Q-275 54-211 30Q-147 6-74-16L174-1186M-88 51Q-136 67-177.50 86.50Q-219 106-249 131.50Q-279 157-296 189Q-313 221-313 262Q-313 274-307 286Q-301 298-290 307.50Q-279 317-264 323.50Q-249 330-231 330Q-215 330-198.50 322.50Q-182 315-166.50 296.50Q-151 278-138 247Q-125 216-115 170L-88 51Z"/><path id="s34:lobster-regular:78" d="M633-367Q604-284 568.50-223Q533-162 494.50-120Q456-78 415.50-52Q375-26 337-12Q299 2 264.50 7Q230 12 203 12Q157 12 117-2Q77-16 47.50-46Q18-76 1-122Q-16-168-16-233Q-16-261-12-294.50Q-8-328 0-367L123-942L55-942L72-1024L139-1024L201-1307L504-1348L434-1024L557-1024L541-942L418-942L287-328Q282-311 280.50-294.50Q279-278 279-262Q279-219 299-202.50Q319-186 362-186Q392-186 420.50-199.50Q449-213 473-237Q497-261 516-294.50Q535-328 547-367L633-367Z"/><path id="s34:lobster-regular:67" d="M506-1296Q506-1262 493-1232.50Q480-1203 457.50-1181.50Q435-1160 405.50-1147.50Q376-1135 342-1135Q308-1135 278.50-1147.50Q249-1160 227-1181.50Q205-1203 192.50-1232.50Q180-1262 180-1296Q180-1330 192.50-1359.50Q205-1389 227-1411.50Q249-1434 278.50-1447Q308-1460 342-1460Q376-1460 405.50-1447Q435-1434 457.50-1411.50Q480-1389 493-1359.50Q506-1330 506-1296M633-367Q604-284 568.50-223Q533-162 494.50-120Q456-78 415.50-52Q375-26 337-12Q299 2 264.50 7Q230 12 203 12Q157 12 117-2Q77-16 47.50-46Q18-76 1-122Q-16-168-16-233Q-16-261-12-294.50Q-8-328 0-367L139-1024L434-1024L287-328Q282-311 280.50-294.50Q279-278 279-262Q279-219 299-202.50Q319-186 362-186Q392-186 420.50-199.50Q449-213 473-237Q497-261 516-294.50Q535-328 547-367L633-367Z"/><path id="s34:lobster-regular:83" d="M688 164Q666 274 624.50 342Q583 410 532 448Q481 486 425.50 499Q370 512 319 512Q272 512 230.50 499.50Q189 487 158 462.50Q127 438 108.50 400.50Q90 363 90 313Q90 249 120.50 200Q151 151 199 114.50Q247 78 306.50 52Q366 26 424 8L449-102Q416-66 383-43.50Q350-21 319-9Q288 3 259 7.50Q230 12 203 12Q157 12 117-2Q77-16 47.50-46Q18-76 1-122Q-16-168-16-233Q-16-261-12-294.50Q-8-328 0-367L139-1024L434-1024L287-328Q281-302 281-276Q281-258 284-242Q287-226 294-213.50Q301-201 312.50-193.50Q324-186 342-186Q370-186 394.50-198.50Q419-211 439-233.50Q459-256 474.50-287Q490-318 502-354L645-1024L940-1024L737-74Q784-90 822-112.50Q860-135 891.50-169.50Q923-204 948.50-252Q974-300 995-367L1081-367Q1050-265 1007.50-197Q965-129 917-85.50Q869-42 818-19Q767 4 719 16L688 164M403 111Q363 126 327 143.50Q291 161 263.50 182Q236 203 219.50 228.50Q203 254 203 285Q203 296 207 308Q211 320 219.50 330Q228 340 241 346Q254 352 272 352Q304 352 337.50 307.50Q371 263 391 170L403 111Z"/><path id="s34:lobster-regular:10" d="M389-154Q389-120 376-90.50Q363-61 340.50-39Q318-17 288.50-4.50Q259 8 225 8Q191 8 161.50-4.50Q132-17 110-39Q88-61 75.50-90.50Q63-120 63-154Q63-188 75.50-217.50Q88-247 110-269Q132-291 161.50-304Q191-317 225-317Q259-317 288.50-304Q318-291 340.50-269Q363-247 376-217.50Q389-188 389-154Z"/><path id="s34:lobster-regular:82" d="M1155-367Q1114-248 1060.50-173.50Q1007-99 950-58Q893-17 837.50-2.50Q782 12 737 12Q691 12 652-8Q613-28 581.50-71.50Q550-115 526-182Q502-249 487-344L205 0L57 0L471-467L438-696Q430-748 421.50-781Q413-814 404-833Q395-852 384-859Q373-866 360-866Q330-866 294-835.50Q258-805 220.50-743Q183-681 148-587.50Q113-494 86-367L0-367Q17-443 40-521.50Q63-600 93.50-674.50Q124-749 163-814.50Q202-880 250-928.50Q298-977 356-1005.50Q414-1034 483-1034Q544-1034 585-1010.50Q626-987 651.50-951.50Q677-916 689-873Q701-830 705-791L723-635Q810-732 853-802.50Q896-873 901-930Q890-928 882-927Q874-926 866-926Q839-926 821-935Q803-944 791.50-959.50Q780-975 775-995.50Q770-1016 770-1040Q770-1067 781.50-1086Q793-1105 812-1117.50Q831-1130 856.50-1135.50Q882-1141 909-1141Q937-1141 959-1124.50Q981-1108 995-1081.50Q1009-1055 1016.50-1021.50Q1024-988 1024-954Q1024-906 1006.50-859Q989-812 953.50-760Q918-708 864.50-647Q811-586 739-508L758-365Q764-315 774.50-280.50Q785-246 800.50-225Q816-204 837-195Q858-186 885-186Q915-186 943-199.50Q971-213 995-237Q1019-261 1038-294.50Q1057-328 1069-367L1155-367Z"/><path id="s34:lobster-regular:61" d="M856-367Q813-295 757.50-227Q702-159 632.50-106Q563-53 478.50-20.50Q394 12 293 12Q220 12 161-6.50Q102-25 60-64Q18-103-4.50-164.50Q-27-226-27-313Q-27-372-15-449.50Q-3-527 23.50-608Q50-689 92.50-767Q135-845 196.50-906Q258-967 339-1004.50Q420-1042 524-1042Q592-1042 636-1025.50Q680-1009 706-982.50Q732-956 742-922Q752-888 752-854Q752-816 743.50-788.50Q735-761 720-742Q705-723 685-714Q665-705 643-705Q608-705 571-729Q596-795 596-850Q596-888 582-911Q568-934 539-934Q507-934 475-905Q443-876 413.50-828Q384-780 359-718Q334-656 315.50-589Q297-522 286.50-455.50Q276-389 276-332Q276-280 285.50-246.50Q295-213 313.50-194Q332-175 359.50-167.50Q387-160 424-160Q485-160 534.50-176Q584-192 627-220Q670-248 708.50-286Q747-324 786-367L856-367Z"/><path id="s34:lobster-regular:32" d="M180 0L475-1368Q416-1366 367-1345.50Q318-1325 283-1277Q248-1229 228.50-1148Q209-1067 209-944Q209-905 213.50-880.50Q218-856 223.50-841.50Q229-827 233.50-819Q238-811 238-805Q185-805 144-815.50Q103-826 75-849Q47-872 32.50-910Q18-948 18-1004Q18-1106 56-1202Q94-1298 177.50-1372Q261-1446 394-1491Q527-1536 717-1536Q748-1536 786.50-1532Q825-1528 868.50-1523.50Q912-1519 960-1515Q1008-1511 1057-1511Q1105-1511 1151.50-1516.50Q1198-1522 1241-1536Q1231-1504 1221.50-1466.50Q1212-1429 1193-1394Q1174-1359 1140-1330.50Q1106-1302 1047-1290Q974-1290 903-1301Q832-1312 760-1329L674-922L973-922L940-770L641-770L475 0L180 0Z"/><path id="s34:lobster-regular:8" d="M84 258Q66 246 66 223Q66 196 82.50 174Q99 152 119 131Q139 110 155.50 88Q172 66 172 37Q172 26 165.50 15.50Q159 5 145-4Q103-30 76-66.50Q49-103 49-154Q49-188 61.50-217.50Q74-247 96-269Q118-291 147.50-304Q177-317 211-317Q279-317 314.50-273.50Q350-230 350-162Q350-117 332-61.50Q314-6 280 50.50Q246 107 196.50 161Q147 215 84 258Z"/></defs><g id="line-0"><use x="0" y="1792" xlink:href="#s34:lobster-regular:46"/><use x="985" y="1792" xlink:href="#s34:lobster-regular:66"/><use x="2019" y="1792" xlink:href="#s34:lobster-regular:63"/><use x="2805" y="1792" xlink:href="#s34:lobster-regular:1"/><use x="3249" y="1792" xlink:href="#s34:lobster-regular:31"/><use x="4189" y="1792" xlink:href="#s34:lobster-regular:79"/><use x="5223" y="1792" xlink:href="#s34:lobster-regular:76"/><use x="5993" y="1792" xlink:href="#s34:lobster-regular:73"/><use x="6892" y="1792" xlink:href="#s34:lobster-regular:74"/><use x="7850" y="1792" xlink:href="#s34:lobster-regular:63"/><use x="8636" y="1792" xlink:href="#s34:lobster-regular:59"/><use x="9713" y="1792" xlink:href="#s34:lobster-regular:72"/><use x="10747" y="1792" xlink:href="#s34:lobster-regular:1"/><use x="11191" y="1792" xlink:href="#s34:lobster-regular:70"/><use x="11738" y="1792" xlink:href="#s34:lobster-regular:59"/><use x="12815" y="1792" xlink:href="#s34:lobster-regular:72"/><use x="13849" y="1792" xlink:href="#s34:lobster-regular:65"/><use x="14887" y="1792" xlink:href="#s34:lobster-regular:79"/><use x="15921" y="1792" xlink:href="#s34:lobster-regular:59"/><use x="16998" y="1792" xlink:href="#s34:lobster-regular:65"/><use x="18036" y="1792" xlink:href="#s34:lobster-regular:63"/><use x="18822" y="1792" xlink:href="#s34:lobster-regular:77"/><use x="19604" y="1792" xlink:href="#s34:lobster-regular:1"/><use x="20048" y="1792" xlink:href="#s34:lobster-regular:59"/><use x="21125" y="1792" xlink:href="#s34:lobster-regular:76"/><use x="21895" y="1792" xlink:href="#s34:lobster-regular:63"/><use x="22681" y="1792" xlink:href="#s34:lobster-regular:1"/><use x="23125" y="1792" xlink:href="#s34:lobster-regular:71"/><use x="24665" y="1792" xlink:href="#s34:lobster-regular:63"/><use x="25451" y="1792" xlink:href="#s34:lobster-regular:71"/><use x="26991" y="1792" xlink:href="#s34:lobster-regular:60"/><use x="27900" y="1792" xlink:href="#s34:lobster-regular:63"/><use x="28686" y="1792" xlink:href="#s34:lobster-regular:76"/><use x="29456" y="1792" xlink:href="#s34:lobster-regular:77"/><use x="30238" y="1792" xlink:href="#s34:lobster-regular:1"/><use x="30682" y="1792" xlink:href="#s34:lobster-regular:73"/><use x="31581" y="1792" xlink:href="#s34:lobster-regular:64"/><use x="32128" y="1792" xlink:href="#s34:lobster-regular:1"/><use x="32572" y="1792" xlink:href="#s34:lobster-regular:78"/><use x="33119" y="1792" xlink:href="#s34:lobster-regular:66"/><use x="34153" y="1792" xlink:href="#s34:lobster-regular:63"/><use x="34939" y="1792" xlink:href="#s34:lobster-regular:1"/><use x="35383" y="1792" xlink:href="#s34:lobster-regular:77"/><use x="36165" y="1792" xlink:href="#s34:lobster-regular:59"/><use x="37242" y="1792" xlink:href="#s34:lobster-regular:71"/><use x="38782" y="1792" xlink:href="#s34:lobster-regular:63"/><use x="39568" y="1792" xlink:href="#s34:lobster-regular:1"/><use x="40012" y="1792" xlink:href="#s34:lobster-regular:64"/><use x="40559" y="1792" xlink:href="#s34:lobster-regular:59"/><use x="41636" y="1792" xlink:href="#s34:lobster-regular:71"/><use x="43176" y="1792" xlink:href="#s34:lobster-regular:67"/><use x="43723" y="1792" xlink:href="#s34:lobster-regular:70"/><use x="44270" y="1792" xlink:href="#s34:lobster-regular:83"/><use x="45265" y="1792" xlink:href="#s34:lobster-regular:10"/></g><g id="line-1"><use x="9247.5" y="4249.6" xlink:href="#s34:lobster-regular:46"/><use x="10232.5" y="4249.6" xlink:href="#s34:lobster-regular:66"/><use x="11266.5" y="4249.6" xlink:href="#s34:lobster-regular:63"/><use x="12052.5" y="4249.6" xlink:href="#s34:lobster-regular:67"/><use x="12599.5" y="4249.6" xlink:href="#s34:lobster-regular:76"/><use x="13369.5" y="4249.6" xlink:href="#s34:lobster-regular:1"/><use x="13813.5" y="4249.6" xlink:href="#s34:lobster-regular:77"/><use x="14595.5" y="4249.6" xlink:href="#s34:lobster-regular:63"/><use x="15381.5" y="4249.6" xlink:href="#s34:lobster-regular:74"/><use x="16339.5" y="4249.6" xlink:href="#s34:lobster-regular:59"/><use x="17416.5" y="4249.6" xlink:href="#s34:lobster-regular:76"/><use x="18186.5" y="4249.6" xlink:href="#s34:lobster-regular:59"/><use x="19263.5" y="4249.6" xlink:href="#s34:lobster-regular:78"/><use x="19810.5" y="4249.6" xlink:href="#s34:lobster-regular:63"/><use x="20596.5" y="4249.6" xlink:href="#s34:lobster-regular:1"/><use x="21040.5" y="4249.6" xlink:href="#s34:lobster-regular:63"/><use x="21826.5" y="4249.6" xlink:href="#s34:lobster-regular:82"/><use x="22895.5" y="4249.6" xlink:href="#s34:lobster-regular:67"/><use x="23442.5" y="4249.6" xlink:href="#s34:lobster-regular:77"/><use x="24224.5" y="4249.6" xlink:href="#s34:lobster-regular:78"/><use x="24771.5" y="4249.6" xlink:href="#s34:lobster-regular:63"/><use x="25557.5" y="4249.6" xlink:href="#s34:lobster-regular:72"/><use x="26591.5" y="4249.6" xlink:href="#s34:lobster-regular:61"/><use x="27377.5" y="4249.6" xlink:href="#s34:lobster-regular:63"/><use x="28163.5" y="4249.6" xlink:href="#s34:lobster-regular:1"/><use x="28607.5" y="4249.6" xlink:href="#s34:lobster-regular:67"/><use x="29154.5" y="4249.6" xlink:href="#s34:lobster-regular:77"/><use x="29936.5" y="4249.6" xlink:href="#s34:lobster-regular:1"/><use x="30380.5" y="4249.6" xlink:href="#s34:lobster-regular:59"/><use x="31457.5" y="4249.6" xlink:href="#s34:lobster-regular:1"/><use x="31901.5" y="4249.6" xlink:href="#s34:lobster-regular:71"/><use x="33441.5" y="4249.6" xlink:href="#s34:lobster-regular:83"/><use x="34436.5" y="4249.6" xlink:href="#s34:lobster-regular:78"/><use x="34983.5" y="4249.6" xlink:href="#s34:lobster-regular:66"/><use x="36017.5" y="4249.6" xlink:href="#s34:lobster-regular:10"/></g><g id="line-2"><use x="11661" y="6707.2" xlink:href="#s34:lobster-regular:32"/><use x="12601" y="6707.2" xlink:href="#s34:lobster-regular:73"/><use x="13500" y="6707.2" xlink:href="#s34:lobster-regular:76"/><use x="14270" y="6707.2" xlink:href="#s34:lobster-regular:1"/><use x="14714" y="6707.2" xlink:href="#s34:lobster-regular:77"/><use x="15496" y="6707.2" xlink:href="#s34:lobster-regular:61"/><use x="16282" y="6707.2" xlink:href="#s34:lobster-regular:67"/><use x="16829" y="6707.2" xlink:href="#s34:lobster-regular:63"/><use x="17615" y="6707.2" xlink:href="#s34:lobster-regular:72"/><use x="18649" y="6707.2" xlink:href="#s34:lobster-regular:61"/><use x="19435" y="6707.2" xlink:href="#s34:lobster-regular:63"/><use x="20221" y="6707.2" xlink:href="#s34:lobster-regular:8"/><use x="20663" y="6707.2" xlink:href="#s34:lobster-regular:1"/><use x="21107" y="6707.2" xlink:href="#s34:lobster-regular:71"/><use x="22647" y="6707.2" xlink:href="#s34:lobster-regular:79"/><use x="23681" y="6707.2" xlink:href="#s34:lobster-regular:77"/><use x="24463" y="6707.2" xlink:href="#s34:lobster-regular:67"/><use x="25010" y="6707.2" xlink:href="#s34:lobster-regular:61"/><use x="25796" y="6707.2" xlink:href="#s34:lobster-regular:8"/><use x="26238" y="6707.2" xlink:href="#s34:lobster-regular:1"/><use x="26682" y="6707.2" xlink:href="#s34:lobster-regular:77"/><use x="27464" y="6707.2" xlink:href="#s34:lobster-regular:74"/><use x="28422" y="6707.2" xlink:href="#s34:lobster-regular:73"/><use x="29321" y="6707.2" xlink:href="#s34:lobster-regular:76"/><use x="30091" y="6707.2" xlink:href="#s34:lobster-regular:78"/><use x="30638" y="6707.2" xlink:href="#s34:lobster-regular:8"/><use x="31080" y="6707.2" xlink:href="#s34:lobster-regular:1"/><use x="31524" y="6707.2" xlink:href="#s34:lobster-regular:63"/><use x="32310" y="6707.2" xlink:href="#s34:lobster-regular:78"/><use x="32857" y="6707.2" xlink:href="#s34:lobster-regular:61"/><use x="33643" y="6707.2" xlink:href="#s34:lobster-regular:8"/></g></svg>