<svg xmlns="http://www.w3.org/2000/svg" xmlns:xlink="http://www.w3.org/1999/xlink" width="540" height="85" viewBox="0 0 22481 3525"><defs><path id="s31:lobstertwo-bolditalic:64" d="M647-620Q612-620 574-626.50Q536-633 495-642L357 0L213 0L355-662L344-662Q305-662 270.50-653Q236-644 210.50-622Q185-600 170-561.50Q155-523 155-465Q155-444 156.50-432Q158-420 160.50-412.50Q163-405 165-400.50Q167-396 169-392Q115-392 88.50-414Q62-436 62-495Q62-543 80.50-588.50Q99-634 140.50-669.50Q182-705 247.50-727Q313-749 408-749Q448-749 479.50-745.50Q511-742 539.50-737.50Q568-733 595-729.50Q622-726 653-726Q695-726 725-732.50Q755-739 775-747Q773-681 741.50-650.50Q710-620 647-620Z"/><path id="s31:lobstertwo-bolditalic:199" d="M305-362Q305-413 269-413Q242-413 222-386Q202-359 191-321L123 0L-21 0L124-680L272-700L218-448Q250-484 281-494Q312-504 335-504Q383-504 414.50-477.50Q446-451 446-391Q446-361 438.50-324.50Q431-288 422-252.50Q413-217 405.50-185.50Q398-154 398-133Q398-114 406.50-102.50Q415-91 438-91Q454-91 466.50-97.50Q479-104 488.50-115.50Q498-127 506-143Q514-159 522-179L564-179Q543-117 519-80.50Q495-44 470-25Q445-6 421.50 0Q398 6 378 6Q345 6 322.50-3.50Q300-13 286-29Q272-45 266-65.50Q260-86 260-107Q260-132 267-166.50Q274-201 282.50-236Q291-271 298-304.50Q305-338 305-362Z"/><path id="s31:lobstertwo-bolditalic:146" d="M152-162Q152-111 170-94.50Q188-78 224-78Q254-78 278-86Q302-94 323-107.50Q344-121 363-139.50Q382-158 401-179L435-179Q414-144 387-111Q360-78 326-52Q292-26 251-10Q210 6 160 6Q89 6 46.50-31Q4-68 4-153Q4-182 10-219Q16-256 28.50-295Q41-334 62-371.50Q83-409 113-439Q143-469 183-487Q223-505 274-505Q307-505 328.50-497Q350-489 362.50-475.50Q375-462 379.50-445Q384-428 384-409Q384-367 365-330Q346-293 314-265.50Q282-238 240.50-221.50Q199-205 154-202Q153-191 152.50-181Q152-171 152-162M307-411Q307-430 301.50-441Q296-452 282-452Q263-452 245-434Q227-416 211-387.50Q195-359 182.50-323Q170-287 162-250Q191-252 217.50-266Q244-280 264-302Q284-324 295.50-352.50Q307-381 307-411Z"/><path id="s31:lobstertwo-bolditalic:313" d=""/><path id="s31:lobstertwo-bolditalic:19" d="M490-170Q470-126 439-91Q408-56 369-32Q330-8 286 5Q242 18 197 18Q149 18 114 3.50Q79-11 56.50-35Q34-59 23.50-91Q13-123 13-158Q13-197 25.50-238.50Q38-280 62-316Q86-352 120.50-379Q155-406 198-417Q166-440 151.50-471.50Q137-503 137-537Q137-576 153-614Q169-652 198.50-683Q228-714 268-733Q308-752 356-752Q386-752 412-744Q438-736 457.50-720Q477-704 488-681Q499-658 499-627Q499-582 477-552.50Q455-523 425-523Q398-523 378-550Q387-553 395-562Q403-571 409-583.50Q415-596 418.50-610Q422-624 422-637Q422-668 404.50-680.50Q387-693 367-693Q345-693 326-681Q307-669 293.50-649Q280-629 272.50-603.50Q265-578 265-552Q265-530 270.50-509Q276-488 288.50-470Q301-452 320-438.50Q339-425 366-418Q326-409 293-383.50Q260-358 236.50-324Q213-290 200-251.50Q187-213 187-179Q187-137 209-107.50Q231-78 282-78Q305-78 331.50-84.50Q358-91 383.50-104Q409-117 431-136Q453-155 467-180L490-170Z"/><path id="s31:lobstertwo-bolditalic:327" d="M476-500L404-160Q400-143 400-128Q400-107 410-99Q420-91 441-91Q470-91 490.50-116Q511-141 522-179L564-179Q543-118 516.50-81.50Q490-45 462.50-25.50Q435-6 409 0Q383 6 363 6Q320 6 294.50-18Q269-42 264-89Q245-58 225.50-39.50Q206-21 187-11Q168-1 150 2.50Q132 6 116 6Q71 6 40-22.50Q9-51 9-114Q9-141 17-179L85-500L229-500L157-160Q154-145 154-132Q154-115 160.50-103Q167-91 184-91Q213-91 233-116Q253-141 264-179L332-500L476-500Z"/><path id="s31:lobstertwo-bolditalic:297" d="M229-500L215-437Q244-465 275.50-485Q307-505 337-505Q371-505 388.50-482Q406-459 406-430Q406-417 401.50-404Q397-391 388-380.50Q379-370 365.50-363.50Q352-357 334-357Q313-357 305.50-367Q298-377 295-388.50Q292-400 289.50-410Q287-420 276-420Q257-420 240-409Q223-398 203-380L123 0L-21 0L85-500L229-500Z"/><path id="s31:lobstertwo-bolditalic:245" d="M277-505Q403-505 405-348Q409-347 416-347Q433-347 453.50-352Q474-357 494.50-365.50Q515-374 534.50-385Q554-396 570-407L579-380Q550-349 503.50-327.50Q457-306 403-297Q397-227 376-171Q355-115 323-75.50Q291-36 250-15Q209 6 163 6Q128 6 98.50-2.50Q69-11 48-30Q27-49 15-79Q3-109 3-152Q3-181 9-218Q15-255 28.50-294.50Q42-334 63-371.50Q84-409 114.50-439Q145-469 185-487Q225-505 277-505M203-88Q221-88 239.50-103.50Q258-119 273.50-146.50Q289-174 301-212Q313-250 319-294Q303-298 297.50-309.50Q292-321 292-336Q292-357 300.50-370.50Q309-384 323-389Q321-420 312.50-432.50Q304-445 285-445Q258-445 234-415.50Q210-386 192-343.50Q174-301 163-253.50Q152-206 152-169Q152-144 154.50-128.50Q157-113 163-104Q169-95 179-91.50Q189-88 203-88Z"/><path id="s31:lobstertwo-bolditalic:274" d="M237-537L221-462Q243-481 271.50-493Q300-505 338-505Q363-505 385.50-497Q408-489 424.50-470.50Q441-452 450.50-422Q460-392 460-347Q460-313 455.50-274Q451-235 439.50-195.50Q428-156 409.50-119.50Q391-83 364-55.50Q337-28 299.50-11Q262 6 214 6Q176 6 156.50-5Q137-16 129-30L77 214L-74 250L93-537L237-537M183-81Q222-81 249-110Q276-139 292.50-180.50Q309-222 316-268.50Q323-315 323-350Q323-379 317.50-395.50Q312-412 304.50-420.50Q297-429 288.50-431Q280-433 273-433Q256-433 237-420.50Q218-408 204-384L145-104Q148-96 157-88.50Q166-81 183-81Z"/><path id="s31:lobstertwo-bolditalic:84" d="M498-500L425-160Q421-143 421-128Q421-107 431-99Q441-91 462-91Q491-91 511.50-116Q532-141 543-179L585-179Q564-118 537.50-82.50Q511-47 483.50-28.50Q456-10 430-5Q404 0 384 0Q343 0 317.50-22Q292-44 286-87Q275-70 260-53Q245-36 226.50-23Q208-10 186-2Q164 6 137 6Q111 6 87.50-2.50Q64-11 45-30Q26-49 15-79.50Q4-110 4-155Q4-189 11-228Q18-267 32-306Q46-345 67-381Q88-417 117-444.50Q146-472 181.50-488.50Q217-505 261-505Q273-505 286.50-503.50Q300-502 311.50-496.50Q323-491 331.50-480.50Q340-470 343-453L353-500L498-500M292-443Q260-443 234-413.50Q208-384 190-341.50Q172-299 162-251.50Q152-204 152-169Q152-140 157.50-124.50Q163-109 170.50-101.50Q178-94 186.50-92.50Q195-91 202-91Q213-91 225.50-96.50Q238-102 250-113Q262-124 271-140.50Q280-157 285-179L333-405Q333-409 330.50-415.50Q328-422 323.50-428Q319-434 311.50-438.50Q304-443 292-443Z"/><path id="s31:lobstertwo-bolditalic:238" d="M305-362Q305-413 269-413Q242-413 222-386Q202-359 191-321L123 0L-21 0L85-500L229-500L218-448Q250-484 281-494Q312-504 335-504Q383-504 414.50-477.50Q446-451 446-391Q446-361 438.50-324.50Q431-288 422-252.50Q413-217 405.50-185.50Q398-154 398-133Q398-114 406.50-102.50Q415-91 438-91Q454-91 466.50-97.50Q479-104 488.50-115.50Q498-127 506-143Q514-159 522-179L564-179Q543-117 519-80.50Q495-44 470-25Q445-6 421.50 0Q398 6 378 6Q345 6 322.50-3.50Q300-13 286-29Q272-45 266-65.50Q260-86 260-107Q260-132 267-166.50Q274-201 282.50-236Q291-271 298-304.50Q305-338 305-362Z"/><path id="s31:lobstertwo-bolditalic:224" d="M272-700L157-160Q153-143 153-128Q153-107 163-99Q173-91 194-91Q223-91 248-116Q273-141 284-179L326-179Q305-118 277-81.50Q249-45 220-25.50Q191-6 163.50 0Q136 6 116 6Q71 6 40-22.50Q9-51 9-114Q9-141 17-179L124-680L272-700Z"/><path id="s31:lobstertwo-bolditalic:186" d="M497-500L398-36Q444-52 473.50-83Q503-114 524-179L566-179Q551-129 530.50-96Q510-63 486-42Q462-21 437-9.50Q412 2 389 8L374 80Q363 134 342.50 167Q322 200 297.50 218.50Q273 237 246 243.50Q219 250 194 250Q148 250 115 226Q82 202 82 153Q82 122 97 98Q112 74 135.50 56Q159 38 188 25.50Q217 13 245 4L264-81Q242-54 211.50-34Q181-14 137-14Q111-14 87.50-22.50Q64-31 45-50Q26-69 15-99.50Q4-130 4-175Q4-207 11-243.50Q18-280 32-317Q46-354 67-388Q88-422 117-448Q146-474 181.50-489.50Q217-505 261-505Q273-505 286.50-503.50Q300-502 311.50-496.50Q323-491 331.50-481Q340-471 343-453L353-500L497-500M292-443Q260-443 234-415.50Q208-388 190-349Q172-310 162-266Q152-222 152-189Q152-160 157.50-144.50Q163-129 170.50-121.50Q178-114 186.50-112.50Q195-111 202-111Q224-111 251.50-133Q279-155 289-199L333-406Q332-415 323.50-429Q315-443 292-443M137 139Q137 150 145.50 161Q154 172 171 172Q187 172 203 150Q219 128 229 83L235 54Q216 61 198 69.50Q180 78 166.50 88.50Q153 99 145 111.50Q137 124 137 139Z"/><path id="s31:lobstertwo-bolditalic:302" d="M441-179Q402-134 362.50-104Q323-74 288-54Q272-37 253-26Q234-15 213-7.50Q192 0 171 3Q150 6 131 6Q93 6 65.50-5.50Q38-17 20-35Q2-53-6.50-76Q-15-99-15-122Q-15-157 1-181Q17-205 38-215Q80-290 109-363.50Q138-437 161-511L309-531Q313-434 317-374Q321-314 324-276.50Q327-239 329-215.50Q331-192 331-167Q331-145 327-129Q370-154 399-179L441-179M109-179Q109-161 97-145.50Q85-130 65-130Q57-130 49.50-132.50Q42-135 38-143Q38-108 52-90.50Q66-73 99-73Q115-73 131-77.50Q147-82 159-93Q171-104 178.50-122Q186-140 186-166Q186-185 184.50-203Q183-221 180.50-246Q178-271 174.50-308Q171-345 167-403Q152-354 131.50-308Q111-262 86-214Q96-209 102.50-200.50Q109-192 109-179Z"/><path id="s31:lobstertwo-bolditalic:231" d="M552-362Q552-413 516-413Q489-413 469-386Q449-359 438-321L370 0L226 0L299-345Q302-357 302-370Q302-387 295.50-400.50Q289-414 272-414Q243-414 222.50-386.50Q202-359 191-321L123 0L-21 0L85-500L229-500L218-448Q250-484 282-494.50Q314-505 340-505Q377-505 404.50-487Q432-469 442-419Q460-447 479-463.50Q498-480 516.50-489Q535-498 551.50-501Q568-504 582-504Q630-504 661.50-477.50Q693-451 693-391Q693-361 685.50-324.50Q678-288 669-252.50Q660-217 652.50-185.50Q645-154 645-133Q645-114 653.50-102.50Q662-91 685-91Q701-91 713.50-97.50Q726-104 735.50-115.50Q745-127 753-143Q761-159 769-179L811-179Q790-117 766-80.50Q742-44 717-25Q692-6 668.50 0Q645 6 625 6Q592 6 569.50-3.50Q547-13 533-29Q519-45 513-65.50Q507-86 507-107Q507-132 514-166.50Q521-201 529.50-236Q538-271 545-304.50Q552-338 552-362Z"/><path id="s31:lobstertwo-bolditalic:104" d="M124-680L272-700L224-475Q255-494 273-499.50Q291-505 306-505Q332-505 354-496Q376-487 391.50-466.50Q407-446 415.50-413Q424-380 424-332Q424-303 418.50-266.50Q413-230 400-192.50Q387-155 366.50-119Q346-83 315.50-55.50Q285-28 244-11Q203 6 150 6Q81 6 45.50-28Q10-62 10-122Q10-150 17-179L124-680M323-336Q323-354 320-371.50Q317-389 310-402.50Q303-416 293-424Q283-432 270-432Q265-432 256.50-431Q248-430 239.50-428Q231-426 223-422.50Q215-419 211-414L156-160Q153-148 153-137Q153-91 206-91Q230-91 251.50-114.50Q273-138 289-174Q305-210 314-253.50Q323-297 323-336Z"/><path id="s31:lobstertwo-bolditalic:166" d="M352-600Q353-608 353.50-614Q354-620 354-627Q354-644 342.50-652.50Q331-661 316-661Q308-661 298-657.50Q288-654 278-645Q268-636 259.50-620Q251-604 246-579L229-500L302-500L295-460L221-460L106 80Q95 134 75 167Q55 200 30 218.50Q5 237-21.50 243.50Q-48 250-73 250Q-96 250-117 242.50Q-138 235-154.50 220.50Q-171 206-181 186Q-191 166-191 142Q-191 108-177.50 84Q-164 60-140.50 43.50Q-117 27-86 15Q-55 3-19-8L102-579Q113-633 133.50-666Q154-699 179.50-717.50Q205-736 232-742.50Q259-749 284-749Q307-749 328-741.50Q349-734 365.50-719.50Q382-705 392-685Q402-665 402-641Q402-618 399-600L352-600M-136 128Q-136 139-124.50 150Q-113 161-96 161Q-80 161-64.50 144.50Q-49 128-39 83L-26 25Q-50 33-70 42.50Q-90 52-104.50 64Q-119 76-127.50 92Q-136 108-136 128Z"/><path id="s31:lobstertwo-bolditalic:315" d="M263-658L229-500L289-500L281-460L221-460L157-160Q153-143 153-128Q153-107 163-99Q173-91 194-91Q223-91 248-116Q273-141 284-179L326-179Q305-118 277-81.50Q249-45 220-25.50Q191-6 163.50 0Q136 6 116 6Q71 6 40-22.50Q9-51 9-114Q9-141 17-179L77-460L44-460L52-500L85-500L115-638L263-658Z"/><path id="s31:lobstertwo-bolditalic:203" d="M105-633Q105-666 128-689.50Q151-713 184-713Q217-713 240.50-689.50Q264-666 264-633Q264-600 240.50-577Q217-554 184-554Q151-554 128-577Q105-600 105-633M229-500L157-160Q153-143 153-128Q153-107 163-99Q173-91 194-91Q223-91 248-116Q273-141 284-179L326-179Q305-118 277-81.50Q249-45 220-25.50Q191-6 163.50 0Q136 6 116 6Q71 6 40-22.50Q9-51 9-114Q9-141 17-179L85-500L229-500Z"/><path id="s31:lobstertwo-bolditalic:344" d="M476-500L377-36Q423-52 452.50-83Q482-114 503-179L545-179Q530-129 509.50-96Q489-63 465-42Q441-21 416-9.50Q391 2 368 8L353 80Q342 134 321.50 167Q301 200 276.50 218.50Q252 237 225 243.50Q198 250 173 250Q127 250 94 226Q61 202 61 153Q61 122 76 98Q91 74 114.50 56Q138 38 167 25.50Q196 13 224 4L236-50Q204-15 173-4.50Q142 6 116 6Q71 6 40-22.50Q9-51 9-114Q9-141 17-179L85-500L229-500L157-160Q154-148 154-135Q154-118 160.50-104.50Q167-91 184-91Q212-91 231.50-114.50Q251-138 262-173L332-500L476-500M116 139Q116 150 124.50 161Q133 172 150 172Q166 172 182 150Q198 128 208 83L214 54Q195 61 177 69.50Q159 78 145.50 88.50Q132 99 124 111.50Q116 124 116 139Z"/><path id="s31:lobstertwo-bolditalic:281" d="M-9-75Q-9-108 14-131.50Q37-155 70-155Q103-155 126.50-131.50Q150-108 150-75Q150-42 126.50-19Q103 4 70 4Q37 4 14-19Q-9-42-9-75Z"/><path id="s31:lobstertwo-bolditalic:342" d="M387-178Q393-129 408-110Q423-91 449-91Q478-91 503-116Q528-141 539-179L581-179Q561-121 534.50-85Q508-49 480.50-28.50Q453-8 426-1Q399 6 377 6Q332 6 301-35Q270-76 255-168L117 0L45 0L247-228L231-340Q223-390 214.50-406.50Q206-423 193-423Q178-423 160.50-408Q143-393 124.50-363Q106-333 89-287Q72-241 59-179L17-179Q29-234 48.50-292Q68-350 96.50-397.50Q125-445 164-475Q203-505 253-505Q283-505 303-493.50Q323-482 335-464.50Q347-447 353-426Q359-405 361-386L370-310Q412-357 433.50-391.50Q455-426 457-454Q452-453 448-452.50Q444-452 440-452Q414-452 403.50-468.50Q393-485 393-508Q393-534 413.50-545.50Q434-557 461-557Q475-557 485.50-549Q496-541 503-528Q510-515 513.50-498.50Q517-482 517-466Q517-442 508.50-419.50Q500-397 482.50-371.50Q465-346 439-316Q413-286 378-248L387-178Z"/><path id="s31:lobstertwo-bolditalic:118" d="M291-345Q299-362 303.50-382Q308-402 308-415Q308-452 280-452Q254-452 230-422Q206-392 188-348Q170-304 159-254Q148-204 148-163Q148-112 168-95Q188-78 224-78Q254-78 278-86Q302-94 323-107.50Q344-121 363-139.50Q382-158 401-179L435-179Q414-144 387-111Q360-78 326-52Q292-26 251-10Q210 6 160 6Q89 6 46.50-31Q4-68 4-153Q4-182 10-219Q16-256 29-295Q42-334 62.50-371.50Q83-409 113-439Q143-469 182.50-487Q222-505 273-505Q306-505 327.50-497.50Q349-490 361.50-477.50Q374-465 379-449Q384-433 384-417Q384-380 368.50-356.50Q353-333 331-333Q323-333 311.50-336Q300-339 291-345Z"/><path id="s31:lobstertwo-bolditalic:29" d="M529-450L513-376L367-376L286 0L142 0L286-668Q259-667 235-657Q211-647 193.50-624.50Q176-602 166-564.50Q156-527 156-470Q156-450 157.50-437Q159-424 161-415.50Q163-407 165.50-402Q168-397 170-393Q116-393 89.50-415Q63-437 63-494Q63-542 82.50-588Q102-634 142.50-670Q183-706 244.50-728Q306-750 390-750Q416-750 437.50-748Q459-746 480-744Q501-742 522.50-740Q544-738 569-738Q594-738 616.50-740.50Q639-743 660-750Q651-710 639-686.50Q627-663 613-650.50Q599-638 582.50-634Q566-630 549-630Q521-630 489.50-635.50Q458-641 425-648L383-450L529-450Z"/><path id="s31:lobstertwo-bolditalic:132" d="M-9-75Q-9-108 14-131.50Q37-155 70-155Q103-155 120.50-133.50Q138-112 138-79Q138-56 129-29.50Q120-3 103.50 24.50Q87 52 63 78.50Q39 105 8 126Q-1 120-1 109Q-1 96 6 84Q13 72 22 61Q31 50 38 38Q45 26 45 12Q45 3 36.50-4.50Q28-12 18-21Q8-30-0.50-42.50Q-9-55-9-75Z"/></defs><g id="line-0"><use x="0" y="875" xlink:href="#s31:lobstertwo-bolditalic:64"/><use x="674" y="875" xlink:href="#s31:lobstertwo-bolditalic:199"/><use x="1179" y="875" xlink:href="#s31:lobstertwo-bolditalic:146"/><use x="1563" y="875" xlink:href="#s31:lobstertwo-bolditalic:313"/><use x="1778" y="875" xlink:href="#s31:lobstertwo-bolditalic:19"/><use x="2227" y="875" xlink:href="#s31:lobstertwo-bolditalic:327"/><use x="2732" y="875" xlink:href="#s31:lobstertwo-bolditalic:297"/><use x="3108" y="875" xlink:href="#s31:lobstertwo-bolditalic:245"/><use x="3547" y="875" xlink:href="#s31:lobstertwo-bolditalic:274"/><use x="4015" y="875" xlink:href="#s31:lobstertwo-bolditalic:146"/><use x="4399" y="875" xlink:href="#s31:lobstertwo-bolditalic:84"/><use x="4925" y="875" xlink:href="#s31:lobstertwo-bolditalic:238"/><use x="5430" y="875" xlink:href="#s31:lobstertwo-bolditalic:313"/><use x="5645" y="875" xlink:href="#s31:lobstertwo-bolditalic:224"/><use x="5912" y="875" xlink:href="#s31:lobstertwo-bolditalic:84"/><use x="6438" y="875" xlink:href="#s31:lobstertwo-bolditalic:238"/><use x="6943" y="875" xlink:href="#s31:lobstertwo-bolditalic:186"/><use x="7450" y="875" xlink:href="#s31:lobstertwo-bolditalic:327"/><use x="7955" y="875" xlink:href="#s31:lobstertwo-bolditalic:84"/><use x="8481" y="875" xlink:href="#s31:lobstertwo-bolditalic:186"/><use x="8988" y="875" xlink:href="#s31:lobstertwo-bolditalic:146"/><use x="9372" y="875" xlink:href="#s31:lobstertwo-bolditalic:302"/><use x="9754" y="875" xlink:href="#s31:lobstertwo-bolditalic:313"/><use x="9969" y="875" xlink:href="#s31:lobstertwo-bolditalic:84"/><use x="10495" y="875" xlink:href="#s31:lobstertwo-bolditalic:297"/><use x="10871" y="875" xlink:href="#s31:lobstertwo-bolditalic:146"/><use x="11255" y="875" xlink:href="#s31:lobstertwo-bolditalic:313"/><use x="11470" y="875" xlink:href="#s31:lobstertwo-bolditalic:231"/><use x="12222" y="875" xlink:href="#s31:lobstertwo-bolditalic:146"/><use x="12606" y="875" xlink:href="#s31:lobstertwo-bolditalic:231"/><use x="13358" y="875" xlink:href="#s31:lobstertwo-bolditalic:104"/><use x="13802" y="875" xlink:href="#s31:lobstertwo-bolditalic:146"/><use x="14186" y="875" xlink:href="#s31:lobstertwo-bolditalic:297"/><use x="14562" y="875" xlink:href="#s31:lobstertwo-bolditalic:302"/><use x="14944" y="875" xlink:href="#s31:lobstertwo-bolditalic:313"/><use x="15159" y="875" xlink:href="#s31:lobstertwo-bolditalic:245"/><use x="15598" y="875" xlink:href="#s31:lobstertwo-bolditalic:166"/><use x="15865" y="875" xlink:href="#s31:lobstertwo-bolditalic:313"/><use x="16080" y="875" xlink:href="#s31:lobstertwo-bolditalic:315"/><use x="16347" y="875" xlink:href="#s31:lobstertwo-bolditalic:199"/><use x="16852" y="875" xlink:href="#s31:lobstertwo-bolditalic:146"/><use x="17236" y="875" xlink:href="#s31:lobstertwo-bolditalic:313"/><use x="17451" y="875" xlink:href="#s31:lobstertwo-bolditalic:302"/><use x="17833" y="875" xlink:href="#s31:lobstertwo-bolditalic:84"/><use x="18359" y="875" xlink:href="#s31:lobstertwo-bolditalic:231"/><use x="19111" y="875" xlink:href="#s31:lobstertwo-bolditalic:146"/><use x="19495" y="875" xlink:href="#s31:lobstertwo-bolditalic:313"/><use x="19710" y="875" xlink:href="#s31:lobstertwo-bolditalic:166"/><use x="19977" y="875" xlink:href="#s31:lobstertwo-bolditalic:84"/><use x="20503" y="875" xlink:href="#s31:lobstertwo-bolditalic:231"/><use x="21255" y="875" xlink:href="#s31:lobstertwo-bolditalic:203"/><use x="21522" y="875" xlink:href="#s31:lobstertwo-bolditalic:224"/><use x="21789" y="875" xlink:href="#s31:lobstertwo-bolditalic:344"/><use x="22331" y="875" xlink:href="#s31:lobstertwo-bolditalic:281"/></g><g id="line-1"><use x="4509" y="2075" xlink:href="#s31:lobstertwo-bolditalic:64"/><use x="5183" y="2075" xlink:href="#s31:lobstertwo-bolditalic:199"/><use x="5688" y="2075" xlink:href="#s31:lobstertwo-bolditalic:146"/><use x="6072" y="2075" xlink:href="#s31:lobstertwo-bolditalic:203"/><use x="6339" y="2075" xlink:href="#s31:lobstertwo-bolditalic:297"/><use x="6715" y="2075" xlink:href="#s31:lobstertwo-bolditalic:313"/><use x="6930" y="2075" xlink:href="#s31:lobstertwo-bolditalic:302"/><use x="7312" y="2075" xlink:href="#s31:lobstertwo-bolditalic:146"/><use x="7696" y="2075" xlink:href="#s31:lobstertwo-bolditalic:274"/><use x="8164" y="2075" xlink:href="#s31:lobstertwo-bolditalic:84"/><use x="8690" y="2075" xlink:href="#s31:lobstertwo-bolditalic:297"/><use x="9066" y="2075" xlink:href="#s31:lobstertwo-bolditalic:84"/><use x="9592" y="2075" xlink:href="#s31:lobstertwo-bolditalic:315"/><use x="9859" y="2075" xlink:href="#s31:lobstertwo-bolditalic:146"/><use x="10243" y="2075" xlink:href="#s31:lobstertwo-bolditalic:313"/><use x="10458" y="2075" xlink:href="#s31:lobstertwo-bolditalic:146"/><use x="10842" y="2075" xlink:href="#s31:lobstertwo-bolditalic:342"/><use x="11364" y="2075" xlink:href="#s31:lobstertwo-bolditalic:203"/><use x="11631" y="2075" xlink:href="#s31:lobstertwo-bolditalic:302"/><use x="12013" y="2075" xlink:href="#s31:lobstertwo-bolditalic:315"/><use x="12280" y="2075" xlink:href="#s31:lobstertwo-bolditalic:146"/><use x="12664" y="2075" xlink:href="#s31:lobstertwo-bolditalic:238"/><use x="13169" y="2075" xlink:href="#s31:lobstertwo-bolditalic:118"/><use x="13553" y="2075" xlink:href="#s31:lobstertwo-bolditalic:146"/><use x="13937" y="2075" xlink:href="#s31:lobstertwo-bolditalic:313"/><use x="14152" y="2075" xlink:href="#s31:lobstertwo-bolditalic:203"/><use x="14419" y="2075" xlink:href="#s31:lobstertwo-bolditalic:302"/><use x="14801" y="2075" xlink:href="#s31:lobstertwo-bolditalic:313"/><use x="15016" y="2075" xlink:href="#s31:lobstertwo-bolditalic:84"/><use x="15542" y="2075" xlink:href="#s31:lobstertwo-bolditalic:313"/><use x="15757" y="2075" xlink:href="#s31:lobstertwo-bolditalic:231"/><use x="16509" y="2075" xlink:href="#s31:lobstertwo-bolditalic:344"/><use x="16995" y="2075" xlink:href="#s31:lobstertwo-bolditalic:315"/><use x="17262" y="2075" xlink:href="#s31:lobstertwo-bolditalic:199"/><use x="17822" y="2075" xlink:href="#s31:lobstertwo-bolditalic:281"/></g><g id="line-2"><use x="5691.5" y="3275" xlink:href="#s31:lobstertwo-bolditalic:29"/><use x="6209.5" y="3275" xlink:href="#s31:lobstertwo-bolditalic:245"/><use x="6648.5" y="3275" xlink:href="#s31:lobstertwo-bolditalic:297"/><use x="7024.5" y="3275" xlink:href="#s31:lobstertwo-bolditalic:313"/><use x="7239.5" y="3275" xlink:href="#s31:lobstertwo-bolditalic:302"/><use x="7621.5" y="3275" xlink:href="#s31:lobstertwo-bolditalic:118"/><use x="8005.5" y="3275" xlink:href="#s31:lobstertwo-bolditalic:203"/><use x="8272.5" y="3275" xlink:href="#s31:lobstertwo-bolditalic:146"/><use x="8656.5" y="3275" xlink:href="#s31:lobstertwo-bolditalic:238"/><use x="9161.5" y="3275" xlink:href="#s31:lobstertwo-bolditalic:118"/><use x="9545.5" y="3275" xlink:href="#s31:lobstertwo-bolditalic:146"/><use x="9971.5" y="3275" xlink:href="#s31:lobstertwo-bolditalic:132"/><use x="10203.5" y="3275" xlink:href="#s31:lobstertwo-bolditalic:313"/><use x="10418.5" y="3275" xlink:href="#s31:lobstertwo-bolditalic:231"/><use x="11170.5" y="3275" xlink:href="#s31:lobstertwo-bolditalic:327"/><use x="11675.5" y="3275" xlink:href="#s31:lobstertwo-bolditalic:302"/><use x="12057.5" y="3275" xlink:href="#s31:lobstertwo-bolditalic:203"/><use x="12324.5" y="3275" xlink:href="#s31:lobstertwo-bolditalic:118"/><use x="12749.5" y="3275" xlink:href="#s31:lobstertwo-bolditalic:132"/><use x="12981.5" y="3275" xlink:href="#s31:lobstertwo-bolditalic:313"/><use x="13196.5" y="3275" xlink:href="#s31:lobstertwo-bolditalic:302"/><use x="13578.5" y="3275" xlink:href="#s31:lobstertwo-bolditalic:274"/><use x="14046.5" y="3275" xlink:href="#s31:lobstertwo-bolditalic:245"/><use x="14485.5" y="3275" xlink:href="#s31:lobstertwo-bolditalic:297"/><use x="14861.5" y="3275" xlink:href="#s31:lobstertwo-bolditalic:315"/><use x="15128.5" y="3275" xlink:href="#s31:lobstertwo-bolditalic:132"/><use x="15360.5" y="3275" xlink:href="#s31:lobstertwo-bolditalic:313"/><use x="15575.5" y="3275" xlink:href="#s31:lobstertwo-bolditalic:146"/><use x="15959.5" y="3275" xlink:href="#s31:lobstertwo-bolditalic:315"/><use x="16226.5" y="3275" xlink:href="#s31:lobstertwo-bolditalic:118"/><use x="16651.5" y="3275" xlink:href="#s31:lobstertwo-bolditalic:132"/></g></svg>