<svg xmlns="http://www.w3.org/2000/svg" xmlns:xlink="http://www.w3.org/1999/xlink" width="503" height="85" viewBox="0 0 20960 3525"><defs><path id="s33:lobstertwo-regular:64" d="M582-630Q546-630 504.50-637Q463-644 418-654L418 0L310 0L310-670Q299-672 289.50-672Q280-672 270-672Q186-672 141.50-641.50Q97-611 97-531Q97-471 110.50-439.50Q124-408 138-392Q113-392 91.50-399.50Q70-407 54-424Q38-441 29-468.50Q20-496 20-537Q20-578 36-616Q52-654 87.50-683.50Q123-713 179.50-731Q236-749 318-749Q358-749 390.50-745.50Q423-742 451.50-737.50Q480-733 508-729.50Q536-726 567-726Q609-726 637.50-732.50Q666-739 685-747Q688-729 688-713Q688-630 582-630Z"/><path id="s33:lobstertwo-regular:199" d="M146-700L146-424Q161-451 176.50-467.50Q192-484 208-492Q224-500 238.50-502.50Q253-505 266-505Q311-505 338.50-488Q366-471 380-444.50Q394-418 398.50-386.50Q403-355 403-326Q403-308 402-286.50Q401-265 400-242.50Q399-220 398-197.50Q397-175 397-156Q397-148 398-133.50Q399-119 403-105Q407-91 416-80.50Q425-70 442-70Q465-70 483.50-96Q502-122 514-179L551-179Q540-116 523-79.50Q506-43 487-24Q468-5 449 0.50Q430 6 414 6Q382 6 360-6.50Q338-19 324-40Q310-61 303.50-89Q297-117 297-147Q297-156 297.50-180.50Q298-205 298.50-233Q299-261 299.50-286Q300-311 300-321Q300-353 295-374Q290-395 281-407Q272-419 260.50-424Q249-429 236-429Q205-429 182.50-404Q160-379 146-320L146 0L46 0L46-686L146-700Z"/><path id="s33:lobstertwo-regular:146" d="M359-375Q359-305 301.50-258Q244-211 142-200Q146-160 156.50-135Q167-110 182-95.50Q197-81 216.50-75.50Q236-70 257-70Q305-70 347-95Q389-120 415-179L447-179Q434-142 411-108.50Q388-75 357-49.50Q326-24 290-9Q254 6 216 6Q181 6 148.50-6Q116-18 91-45.50Q66-73 50.50-117Q35-161 35-225Q35-267 44.50-316Q54-365 76.50-407Q99-449 135.50-477Q172-505 226-505Q251-505 274.50-499.50Q298-494 317-479.50Q336-465 347.50-440Q359-415 359-375M141-239Q212-250 253.50-289Q295-328 295-385Q295-423 282-439.50Q269-456 245-456Q219-456 199.50-436Q180-416 167-384.50Q154-353 147.50-314.50Q141-276 141-239Z"/><path id="s33:lobstertwo-regular:313" d=""/><path id="s33:lobstertwo-regular:19" d="M521-170Q507-125 480-90Q453-55 417-31Q381-7 339 5.50Q297 18 254 18Q197 18 156.50-2.50Q116-23 90.50-55Q65-87 53-127.50Q41-168 41-209Q41-283 76.50-337Q112-391 176-417Q128-447 107-486Q86-525 86-568Q86-601 98-634Q110-667 135-693Q160-719 196.50-735.50Q233-752 283-752Q310-752 337.50-746Q365-740 387-725.50Q409-711 422.50-686.50Q436-662 436-625Q436-587 421-565Q406-543 381-543Q354-543 328-570Q342-576 355.50-594.50Q369-613 369-642Q369-661 362-674.50Q355-688 343.50-697Q332-706 318-710Q304-714 289-714Q262-714 241-702Q220-690 206-670.50Q192-651 184.50-626.50Q177-602 177-577Q177-566 179.50-543.50Q182-521 193.50-496.50Q205-472 227.50-449.50Q250-427 289-418Q223-403 187.50-350.50Q152-298 152-226Q152-154 190.50-107.50Q229-61 309-61Q345-61 375.50-70.50Q406-80 429.50-96.50Q453-113 470-134.50Q487-156 496-180L521-170Z"/><path id="s33:lobstertwo-regular:327" d="M384-500L384-160Q384-150 385-135Q386-120 390.50-105.50Q395-91 404-80.50Q413-70 429-70Q478-70 501-179L538-179Q527-116 510-79.50Q493-43 474-24Q455-5 435 0.50Q415 6 399 6Q376 6 359.50-2Q343-10 331.50-23Q320-36 313-53Q306-70 302-88Q283-39 252-16.50Q221 6 187 6Q158 6 132-2Q106-10 87-28.50Q68-47 57-76.50Q46-106 46-149L46-500L146-500L146-160Q146-111 163-90.50Q180-70 206-70Q220-70 234-77.50Q248-85 259-99Q270-113 277-133Q284-153 284-179L284-500L384-500Z"/><path id="s33:lobstertwo-regular:297" d="M146-500L146-416Q158-434 169.50-450Q181-466 195-478Q209-490 226-497.50Q243-505 264-505Q298-505 314-487.50Q330-470 330-445Q330-430 325-420Q320-410 313-404Q306-398 298-395.50Q290-393 284-393Q275-393 269.50-397Q264-401 258.50-405.50Q253-410 246-414Q239-418 228-418Q205-418 184-402Q163-386 146-368L146 0L46 0L46-500L146-500Z"/><path id="s33:lobstertwo-regular:245" d="M229-505Q268-505 296-493Q324-481 342-459.50Q360-438 370.50-409Q381-380 386-347L392-347Q434-347 469-364Q504-381 529-407L544-380Q524-348 480.50-327Q437-306 391-298Q391-288 391.50-278Q392-268 392-257Q392-134 347-64Q302 6 221 6Q188 6 154.50-6Q121-18 94-46Q67-74 50.50-118Q34-162 34-227Q34-271 43.50-320Q53-369 75.50-410Q98-451 135.50-478Q173-505 229-505M239-70Q292-70 317-122.50Q342-175 342-271Q342-277 342-283Q342-289 341-295Q312-297 299.50-308Q287-319 287-345Q287-368 297-377.50Q307-387 327-388Q315-423 296.50-436.50Q278-450 255-450Q224-450 202.50-429.50Q181-409 167.50-377Q154-345 148-306.50Q142-268 142-231Q142-182 151-151Q160-120 174-102Q188-84 205-77Q222-70 239-70Z"/><path id="s33:lobstertwo-regular:274" d="M147-537L147-460Q166-480 191.50-492.50Q217-505 251-505Q286-505 316-490Q346-475 368.50-444.50Q391-414 404-367.50Q417-321 417-257Q417-132 370-63Q323 6 245 6Q212 6 188.50-6.50Q165-19 147-42L147 225L46 250L46-537L147-537M216-440Q194-440 176.50-427.50Q159-415 147-392L147-92Q161-74 178.50-66Q196-58 213-58Q238-58 257-74Q276-90 289.50-117.50Q303-145 310-182Q317-219 317-261Q317-313 307.50-347.50Q298-382 283-402.50Q268-423 250-431.50Q232-440 216-440Z"/><path id="s33:lobstertwo-regular:84" d="M415-500L415-160Q415-150 416-135Q417-120 421.50-105.50Q426-91 435-80.50Q444-70 460-70Q509-70 532-179L569-179Q558-116 541-79.50Q524-43 505-24Q486-5 466 0.50Q446 6 430 6Q407 6 390.50-2Q374-10 362.50-23Q351-36 344-53Q337-70 333-89Q318-50 284.50-22Q251 6 203 6Q173 6 142.50-6Q112-18 87.50-45.50Q63-73 47.50-116.50Q32-160 32-223Q32-269 42.50-319Q53-369 76-410Q99-451 135-478Q171-505 222-505Q234-505 247.50-502.50Q261-500 273.50-494Q286-488 297-477.50Q308-467 315-452L315-500L415-500M228-70Q243-70 258.50-78.50Q274-87 286.50-101.50Q299-116 307-136Q315-156 315-179L315-407Q308-423 293.50-436.50Q279-450 256-450Q224-450 201-428.50Q178-407 164-374.50Q150-342 143.50-303.50Q137-265 137-230Q137-144 160.50-107Q184-70 228-70Z"/><path id="s33:lobstertwo-regular:238" d="M146-500L146-424Q161-451 176.50-467.50Q192-484 208-492Q224-500 238.50-502.50Q253-505 266-505Q311-505 338.50-488Q366-471 380-444.50Q394-418 398.50-386.50Q403-355 403-326Q403-308 402-286.50Q401-265 400-242.50Q399-220 398-197.50Q397-175 397-156Q397-148 398-133.50Q399-119 403-105Q407-91 416-80.50Q425-70 442-70Q465-70 483.50-96Q502-122 514-179L551-179Q540-116 523-79.50Q506-43 487-24Q468-5 449 0.50Q430 6 414 6Q382 6 360-6.50Q338-19 324-40Q310-61 303.50-89Q297-117 297-147Q297-156 297.50-180.50Q298-205 298.50-233Q299-261 299.50-286Q300-311 300-321Q300-353 295-374Q290-395 281-407Q272-419 260.50-424Q249-429 236-429Q205-429 182.50-404Q160-379 146-320L146 0L46 0L46-500L146-500Z"/><path id="s33:lobstertwo-regular:224" d="M147-700L147-160Q147-150 148-135Q149-120 153.50-105.50Q158-91 167-80.50Q176-70 192-70Q241-70 264-179L301-179Q290-116 273-79.50Q256-43 237-24Q218-5 198 0.50Q178 6 162 6Q127 6 105-7.50Q83-21 70-42Q57-63 52-89Q47-115 47-139L47-686L147-700Z"/><path id="s33:lobstertwo-regular:186" d="M415-500L415-21Q440-29 459.50-39Q479-49 493.50-66Q508-83 517.50-110Q527-137 532-179L569-179Q561-126 548.50-92.50Q536-59 517.50-38.50Q499-18 473.50-6.50Q448 5 415 15L415 79Q415 126 405 158.50Q395 191 377.50 211.50Q360 232 337.50 241Q315 250 290 250Q240 250 212 221.50Q184 193 184 152Q184 126 195.50 105Q207 84 225.50 66.50Q244 49 267.50 35.50Q291 22 315 12L315-74Q296-48 267.50-31Q239-14 203-14Q173-14 142.50-25.50Q112-37 87.50-63Q63-89 47.50-131Q32-173 32-233Q32-278 42.50-326Q53-374 76-413.50Q99-453 135-479Q171-505 222-505Q234-505 247.50-502.50Q261-500 273.50-494Q286-488 297-477.50Q308-467 315-452L315-500L415-500M228-90Q243-90 258.50-98Q274-106 286.50-120Q299-134 307-153Q315-172 315-194L315-407Q308-423 293.50-436.50Q279-450 256-450Q224-450 201-429.50Q178-409 164-378Q150-347 143.50-310Q137-273 137-240Q137-159 160.50-124.50Q184-90 228-90M271 198Q298 198 306.50 177.50Q315 157 315 122L315 52Q265 75 244 97.50Q223 120 223 148Q223 171 235.50 184.50Q248 198 271 198Z"/><path id="s33:lobstertwo-regular:302" d="M431-179Q402-139 371.50-112.50Q341-86 312-66Q301-46 284-32.50Q267-19 247.50-10.50Q228-2 208.50 2Q189 6 173 6Q129 6 100.50-8Q72-22 55-43.50Q38-65 31-91.50Q24-118 24-142Q24-168 34.50-187.50Q45-207 60-215Q86-290 111-363.50Q136-437 144-511L245-531Q269-436 284.50-376Q300-316 309.50-274.50Q319-233 323.50-201.50Q328-170 328-132Q345-143 360-155.50Q375-168 389-179L431-179M222-139Q222-170 218.50-194Q215-218 208-247Q201-276 190.50-317.50Q180-359 166-424Q160-368 141.50-317Q123-266 108-212Q117-206 123.50-195.50Q130-185 130-168Q130-149 120-139Q110-129 98-129Q82-129 71-143Q79-108 99-88.50Q119-69 152-69Q184-69 203-85.50Q222-102 222-139Z"/><path id="s33:lobstertwo-regular:231" d="M146-500L146-431Q172-479 201-492Q230-505 256-505Q282-505 301.50-498Q321-491 335-479Q349-467 358.50-451Q368-435 374-416Q388-446 403-463.50Q418-481 433-490.50Q448-500 462.50-502.50Q477-505 489-505Q534-505 561.50-488Q589-471 603-444.50Q617-418 621.50-386.50Q626-355 626-326Q626-308 625-286.50Q624-265 623-242.50Q622-220 621-197.50Q620-175 620-156Q620-148 621-133.50Q622-119 626-105Q630-91 639-80.50Q648-70 665-70Q688-70 706.50-96Q725-122 737-179L774-179Q763-116 746-79.50Q729-43 710-24Q691-5 672 0.50Q653 6 637 6Q605 6 583-6.50Q561-19 547-40Q533-61 526.50-89Q520-117 520-147Q520-156 520.50-180.50Q521-205 521.50-233Q522-261 522.50-286Q523-311 523-321Q523-353 518-374Q513-395 504-407Q495-419 483.50-424Q472-429 459-429Q428-429 408.50-404Q389-379 381-320L381 0L281 0L281-334Q281-352 279.50-369Q278-386 272-399.50Q266-413 255-421Q244-429 225-429Q193-429 176.50-402.50Q160-376 146-320L146 0L46 0L46-500L146-500Z"/><path id="s33:lobstertwo-regular:104" d="M47-686L147-700L147-463Q164-480 187-491Q210-502 242-502Q269-502 298-492.50Q327-483 352-459Q377-435 393-393Q409-351 409-286Q409-229 395.50-176Q382-123 354.50-82.50Q327-42 286-18Q245 6 190 6Q159 6 132.50-3.50Q106-13 87-34.50Q68-56 57-91.50Q46-127 46-179L47-686M320-263Q320-302 313-336Q306-370 292.50-395.50Q279-421 259.50-435.50Q240-450 215-450Q195-450 178-440.50Q161-431 147-416L147-153Q147-63 206-63Q234-63 255.50-79.50Q277-96 291.50-124Q306-152 313-188Q320-224 320-263Z"/><path id="s33:lobstertwo-regular:166" d="M146-500L227-500L227-465L146-465L146 80Q146 133 135.50 166Q125 199 108 218Q91 237 68.50 243.50Q46 250 21 250Q-33 250-58.50 225Q-84 200-84 153Q-84 128-72.50 107Q-61 86-42.50 68.50Q-24 51-1 37.50Q22 24 46 14L46-576Q46-663 87-706.50Q128-750 192-750Q222-750 247-741Q272-732 291-713Q310-694 320.50-666Q331-638 331-600L292-600Q286-640 270.50-663Q255-686 219-686Q195-686 181-675.50Q167-665 159-647Q151-629 148.50-603.50Q146-578 146-548L146-500M1 198Q30 198 38 167Q46 136 46 82L46 51Q1 73-22 99Q-45 125-45 150Q-45 170-32 184Q-19 198 1 198Z"/><path id="s33:lobstertwo-regular:315" d="M147-652L147-500L224-500L224-465L147-465L147-160Q147-148 148-132.50Q149-117 153.50-103Q158-89 167.50-79.50Q177-70 194-70Q221-70 245.50-97Q270-124 284-179L321-179Q304-116 284.50-79.50Q265-43 244-24Q223-5 202.50 0.50Q182 6 165 6Q129 6 106-7.50Q83-21 70-42Q57-63 52-88.50Q47-114 47-139L47-465L13-465L13-500L47-500L47-638L147-652Z"/><path id="s33:lobstertwo-regular:203" d="M147-500L147-160Q147-150 148-135Q149-120 153.50-105.50Q158-91 167-80.50Q176-70 192-70Q241-70 264-179L301-179Q290-116 273-79.50Q256-43 237-24Q218-5 198 0.50Q178 6 162 6Q127 6 105-7.50Q83-21 70-42Q57-63 52-89Q47-115 47-139L47-500L147-500M29-644Q29-671 48-691Q67-711 95-711Q122-711 142-691Q162-671 162-644Q162-616 142-597Q122-578 95-578Q67-578 48-597Q29-616 29-644Z"/><path id="s33:lobstertwo-regular:344" d="M384-500L384-21Q409-29 428.50-39Q448-49 462.50-66Q477-83 486.50-110Q496-137 501-179L538-179Q530-126 517.50-92.50Q505-59 486.50-38.50Q468-18 442.50-6.50Q417 5 384 15L384 79Q384 126 374 158.50Q364 191 346.50 211.50Q329 232 306.50 241Q284 250 259 250Q209 250 181 221.50Q153 193 153 152Q153 126 164.50 105Q176 84 194.50 66.50Q213 49 236.50 35.50Q260 22 284 12L284-51Q264-22 238.50-8Q213 6 187 6Q158 6 132-2Q106-10 87-28.50Q68-47 57-76.50Q46-106 46-149L46-500L146-500L146-160Q146-111 163-90.50Q180-70 206-70Q220-70 234-77Q248-84 259-97.50Q270-111 277-130Q284-149 284-174L284-500L384-500M240 198Q267 198 275.50 177.50Q284 157 284 122L284 52Q234 75 213 97.50Q192 120 192 148Q192 171 204.50 184.50Q217 198 240 198Z"/><path id="s33:lobstertwo-regular:281" d="M38-61Q38-88 57-108Q76-128 104-128Q131-128 151-108Q171-88 171-61Q171-33 151-14Q131 5 104 5Q76 5 57-14Q38-33 38-61Z"/><path id="s33:lobstertwo-regular:342" d="M352-275Q366-294 379.50-315Q393-336 404-358Q415-380 421.50-401Q428-422 428-442Q428-447 428-451Q428-455 427-459Q418-455 406-455Q384-455 367.50-469.50Q351-484 351-508Q351-530 366-545Q381-560 404-560Q433-560 453-534.50Q473-509 473-461Q473-408 445.50-354Q418-300 368-231L388-178Q406-129 424-99.50Q442-70 468-70Q483-70 496.50-79.50Q510-89 520.50-104Q531-119 537.50-138Q544-157 546-176L576-176Q571-117 553.50-81.50Q536-46 513.50-26.50Q491-7 468-0.50Q445 6 429 6Q384 6 351.50-34.50Q319-75 286-165L181 0L113 0L268-216L224-340Q206-391 194-410.50Q182-430 168-430Q112-430 82-177L45-177Q51-207 56.50-243Q62-279 69-315.50Q76-352 86-386Q96-420 111.50-446.50Q127-473 148-489Q169-505 199-505Q243-505 268-471.50Q293-438 312-386L352-275Z"/><path id="s33:lobstertwo-regular:118" d="M273-347Q281-354 285.50-369.50Q290-385 290-399Q290-422 275.50-437Q261-452 235-452Q208-452 190-432Q172-412 161-381.50Q150-351 145.50-313.50Q141-276 141-240Q141-187 150.50-154Q160-121 176-102.50Q192-84 213.50-77Q235-70 259-70Q312-70 348.50-96.50Q385-123 411-179L445-179Q433-142 411-108.50Q389-75 360-49.50Q331-24 297-9Q263 6 226 6Q191 6 157-6Q123-18 96-45.50Q69-73 52-117.50Q35-162 35-227Q35-269 42.50-317.50Q50-366 70.50-407.50Q91-449 127-477Q163-505 220-505Q283-505 316-474.50Q349-444 349-385Q349-360 339.50-343Q330-326 310-326Q288-326 273-347Z"/><path id="s33:lobstertwo-regular:29" d="M479-646Q447-646 413.50-651.50Q380-657 346-664L346-435L494-435L494-376L346-376L346 0L238 0L238-682Q233-683 228.50-683Q224-683 219-683Q193-683 170-676Q147-669 130.50-652Q114-635 104.50-606.50Q95-578 95-535Q95-481 108.50-444.50Q122-408 140-393Q21-393 21-524Q21-572 37-613Q53-654 87-684.50Q121-715 173.50-732.50Q226-750 299-750Q324-750 346.50-748Q369-746 390-744Q411-742 433-740Q455-738 480-738Q505-738 527-740.50Q549-743 569-750Q567-715 559.50-694.50Q552-674 540-663.50Q528-653 512.50-649.50Q497-646 479-646Z"/><path id="s33:lobstertwo-regular:132" d="M39-69Q39-82 45-93Q51-104 60.50-111.50Q70-119 81.50-123.50Q93-128 104-128Q142-128 158.50-105Q175-82 175-48Q175-24 167.50 2.50Q160 29 147.50 53.50Q135 78 118.50 97.50Q102 117 83 126Q74 121 71.50 114.50Q69 108 69 102Q69 92 72.50 81.50Q76 71 80 61Q84 51 87.50 41Q91 31 91 22Q91 7 87 0.50Q83-6 77.50-9.50Q72-13 65-14.50Q58-16 52.50-21.50Q47-27 43-37.50Q39-48 39-69Z"/></defs><g id="line-0"><use x="0" y="875" xlink:href="#s33:lobstertwo-regular:64"/><use x="671" y="875" xlink:href="#s33:lobstertwo-regular:199"/><use x="1138" y="875" xlink:href="#s33:lobstertwo-regular:146"/><use x="1506" y="875" xlink:href="#s33:lobstertwo-regular:313"/><use x="1721" y="875" xlink:href="#s33:lobstertwo-regular:19"/><use x="2168" y="875" xlink:href="#s33:lobstertwo-regular:327"/><use x="2622" y="875" xlink:href="#s33:lobstertwo-regular:297"/><use x="2958" y="875" xlink:href="#s33:lobstertwo-regular:245"/><use x="3377" y="875" xlink:href="#s33:lobstertwo-regular:274"/><use x="3800" y="875" xlink:href="#s33:lobstertwo-regular:146"/><use x="4168" y="875" xlink:href="#s33:lobstertwo-regular:84"/><use x="4653" y="875" xlink:href="#s33:lobstertwo-regular:238"/><use x="5120" y="875" xlink:href="#s33:lobstertwo-regular:313"/><use x="5335" y="875" xlink:href="#s33:lobstertwo-regular:224"/><use x="5551" y="875" xlink:href="#s33:lobstertwo-regular:84"/><use x="6036" y="875" xlink:href="#s33:lobstertwo-regular:238"/><use x="6503" y="875" xlink:href="#s33:lobstertwo-regular:186"/><use x="6988" y="875" xlink:href="#s33:lobstertwo-regular:327"/><use x="7442" y="875" xlink:href="#s33:lobstertwo-regular:84"/><use x="7927" y="875" xlink:href="#s33:lobstertwo-regular:186"/><use x="8412" y="875" xlink:href="#s33:lobstertwo-regular:146"/><use x="8780" y="875" xlink:href="#s33:lobstertwo-regular:302"/><use x="9122" y="875" xlink:href="#s33:lobstertwo-regular:313"/><use x="9337" y="875" xlink:href="#s33:lobstertwo-regular:84"/><use x="9822" y="875" xlink:href="#s33:lobstertwo-regular:297"/><use x="10158" y="875" xlink:href="#s33:lobstertwo-regular:146"/><use x="10526" y="875" xlink:href="#s33:lobstertwo-regular:313"/><use x="10741" y="875" xlink:href="#s33:lobstertwo-regular:231"/><use x="11434" y="875" xlink:href="#s33:lobstertwo-regular:146"/><use x="11802" y="875" xlink:href="#s33:lobstertwo-regular:231"/><use x="12495" y="875" xlink:href="#s33:lobstertwo-regular:104"/><use x="12913" y="875" xlink:href="#s33:lobstertwo-regular:146"/><use x="13281" y="875" xlink:href="#s33:lobstertwo-regular:297"/><use x="13617" y="875" xlink:href="#s33:lobstertwo-regular:302"/><use x="13959" y="875" xlink:href="#s33:lobstertwo-regular:313"/><use x="14174" y="875" xlink:href="#s33:lobstertwo-regular:245"/><use x="14593" y="875" xlink:href="#s33:lobstertwo-regular:166"/><use x="14832" y="875" xlink:href="#s33:lobstertwo-regular:313"/><use x="15047" y="875" xlink:href="#s33:lobstertwo-regular:315"/><use x="15283" y="875" xlink:href="#s33:lobstertwo-regular:199"/><use x="15750" y="875" xlink:href="#s33:lobstertwo-regular:146"/><use x="16118" y="875" xlink:href="#s33:lobstertwo-regular:313"/><use x="16333" y="875" xlink:href="#s33:lobstertwo-regular:302"/><use x="16675" y="875" xlink:href="#s33:lobstertwo-regular:84"/><use x="17160" y="875" xlink:href="#s33:lobstertwo-regular:231"/><use x="17853" y="875" xlink:href="#s33:lobstertwo-regular:146"/><use x="18221" y="875" xlink:href="#s33:lobstertwo-regular:313"/><use x="18436" y="875" xlink:href="#s33:lobstertwo-regular:166"/><use x="18675" y="875" xlink:href="#s33:lobstertwo-regular:84"/><use x="19160" y="875" xlink:href="#s33:lobstertwo-regular:231"/><use x="19853" y="875" xlink:href="#s33:lobstertwo-regular:203"/><use x="20070" y="875" xlink:href="#s33:lobstertwo-regular:224"/><use x="20286" y="875" xlink:href="#s33:lobstertwo-regular:344"/><use x="20789" y="875" xlink:href="#s33:lobstertwo-regular:281"/></g><g id="line-1"><use x="4221.5" y="2075" xlink:href="#s33:lobstertwo-regular:64"/><use x="4892.5" y="2075" xlink:href="#s33:lobstertwo-regular:199"/><use x="5359.5" y="2075" xlink:href="#s33:lobstertwo-regular:146"/><use x="5727.5" y="2075" xlink:href="#s33:lobstertwo-regular:203"/><use x="5944.5" y="2075" xlink:href="#s33:lobstertwo-regular:297"/><use x="6280.5" y="2075" xlink:href="#s33:lobstertwo-regular:313"/><use x="6495.5" y="2075" xlink:href="#s33:lobstertwo-regular:302"/><use x="6837.5" y="2075" xlink:href="#s33:lobstertwo-regular:146"/><use x="7205.5" y="2075" xlink:href="#s33:lobstertwo-regular:274"/><use x="7628.5" y="2075" xlink:href="#s33:lobstertwo-regular:84"/><use x="8113.5" y="2075" xlink:href="#s33:lobstertwo-regular:297"/><use x="8449.5" y="2075" xlink:href="#s33:lobstertwo-regular:84"/><use x="8934.5" y="2075" xlink:href="#s33:lobstertwo-regular:315"/><use x="9170.5" y="2075" xlink:href="#s33:lobstertwo-regular:146"/><use x="9538.5" y="2075" xlink:href="#s33:lobstertwo-regular:313"/><use x="9753.5" y="2075" xlink:href="#s33:lobstertwo-regular:146"/><use x="10121.5" y="2075" xlink:href="#s33:lobstertwo-regular:342"/><use x="10619.5" y="2075" xlink:href="#s33:lobstertwo-regular:203"/><use x="10836.5" y="2075" xlink:href="#s33:lobstertwo-regular:302"/><use x="11178.5" y="2075" xlink:href="#s33:lobstertwo-regular:315"/><use x="11414.5" y="2075" xlink:href="#s33:lobstertwo-regular:146"/><use x="11782.5" y="2075" xlink:href="#s33:lobstertwo-regular:238"/><use x="12249.5" y="2075" xlink:href="#s33:lobstertwo-regular:118"/><use x="12613.5" y="2075" xlink:href="#s33:lobstertwo-regular:146"/><use x="12981.5" y="2075" xlink:href="#s33:lobstertwo-regular:313"/><use x="13196.5" y="2075" xlink:href="#s33:lobstertwo-regular:203"/><use x="13413.5" y="2075" xlink:href="#s33:lobstertwo-regular:302"/><use x="13755.5" y="2075" xlink:href="#s33:lobstertwo-regular:313"/><use x="13970.5" y="2075" xlink:href="#s33:lobstertwo-regular:84"/><use x="14455.5" y="2075" xlink:href="#s33:lobstertwo-regular:313"/><use x="14670.5" y="2075" xlink:href="#s33:lobstertwo-regular:231"/><use x="15363.5" y="2075" xlink:href="#s33:lobstertwo-regular:344"/><use x="15817.5" y="2075" xlink:href="#s33:lobstertwo-regular:315"/><use x="16053.5" y="2075" xlink:href="#s33:lobstertwo-regular:199"/><use x="16567.5" y="2075" xlink:href="#s33:lobstertwo-regular:281"/></g><g id="line-2"><use x="5339" y="3275" xlink:href="#s33:lobstertwo-regular:29"/><use x="5846" y="3275" xlink:href="#s33:lobstertwo-regular:245"/><use x="6265" y="3275" xlink:href="#s33:lobstertwo-regular:297"/><use x="6601" y="3275" xlink:href="#s33:lobstertwo-regular:313"/><use x="6816" y="3275" xlink:href="#s33:lobstertwo-regular:302"/><use x="7158" y="3275" xlink:href="#s33:lobstertwo-regular:118"/><use x="7522" y="3275" xlink:href="#s33:lobstertwo-regular:203"/><use x="7739" y="3275" xlink:href="#s33:lobstertwo-regular:146"/><use x="8107" y="3275" xlink:href="#s33:lobstertwo-regular:238"/><use x="8574" y="3275" xlink:href="#s33:lobstertwo-regular:118"/><use x="8938" y="3275" xlink:href="#s33:lobstertwo-regular:146"/><use x="9319" y="3275" xlink:href="#s33:lobstertwo-regular:132"/><use x="9535" y="3275" xlink:href="#s33:lobstertwo-regular:313"/><use x="9750" y="3275" xlink:href="#s33:lobstertwo-regular:231"/><use x="10443" y="3275" xlink:href="#s33:lobstertwo-regular:327"/><use x="10897" y="3275" xlink:href="#s33:lobstertwo-regular:302"/><use x="11239" y="3275" xlink:href="#s33:lobstertwo-regular:203"/><use x="11456" y="3275" xlink:href="#s33:lobstertwo-regular:118"/><use x="11840" y="3275" xlink:href="#s33:lobstertwo-regular:132"/><use x="12056" y="3275" xlink:href="#s33:lobstertwo-regular:313"/><use x="12271" y="3275" xlink:href="#s33:lobstertwo-regular:302"/><use x="12613" y="3275" xlink:href="#s33:lobstertwo-regular:274"/><use x="13036" y="3275" xlink:href="#s33:lobstertwo-regular:245"/><use x="13455" y="3275" xlink:href="#s33:lobstertwo-regular:297"/><use x="13791" y="3275" xlink:href="#s33:lobstertwo-regular:315"/><use x="14027" y="3275" xlink:href="#s33:lobstertwo-regular:132"/><use x="14243" y="3275" xlink:href="#s33:lobstertwo-regular:313"/><use x="14458" y="3275" xlink:href="#s33:lobstertwo-regular:146"/><use x="14826" y="3275" xlink:href="#s33:lobstertwo-regular:315"/><use x="15062" y="3275" xlink:href="#s33:lobstertwo-regular:118"/><use x="15446" y="3275" xlink:href="#s33:lobstertwo-regular:132"/></g></svg>