<svg xmlns="http://www.w3.org/2000/svg" xmlns:xlink="http://www.w3.org/1999/xlink" width="502" height="85" viewBox="0 0 20913 3525"><defs><path id="s32:lobstertwo-italic:64" d="M647-630Q611-630 571-637.50Q531-645 488-653L349 0L239 0L383-670Q373-671 363.50-671.50Q354-672 344-672Q294-672 254.50-662.50Q215-653 188-630.50Q161-608 147-570.50Q133-533 133-476Q133-438 139.50-420Q146-402 153-392Q133-392 116.50-397Q100-402 88-414Q76-426 69-446Q62-466 62-495Q62-543 80.50-588.50Q99-634 140.50-669.50Q182-705 247.50-727Q313-749 408-749Q448-749 479.50-745.50Q511-742 539.50-737.50Q568-733 595-729.50Q622-726 653-726Q695-726 725-732.50Q755-739 775-747Q773-687 741.50-658.50Q710-630 647-630Z"/><path id="s32:lobstertwo-italic:199" d="M360-119Q360-98 366-84Q372-70 390-70Q437-70 484-179L521-179Q497-116 473-79Q449-42 426.50-23.50Q404-5 384.50 0.50Q365 6 350 6Q298 6 276-26.50Q254-59 254-107Q254-140 261.50-176Q269-212 278-247Q287-282 294.50-314.50Q302-347 302-374Q302-399 293-414Q284-429 258-429Q194-429 147-322L78 0L-22 0L125-686L228-700L169-425Q188-451 207-467Q226-483 243.50-491.50Q261-500 276.50-502.50Q292-505 305-505Q335-505 355-496Q375-487 387-471.50Q399-456 403.50-435.50Q408-415 408-392Q408-359 400.50-323Q393-287 384-252Q375-217 367.50-183Q360-149 360-119Z"/><path id="s32:lobstertwo-italic:146" d="M368-402Q368-317 301.50-264.50Q235-212 118-200Q117-192 117-184.50Q117-177 117-169Q117-118 136.50-94Q156-70 204-70Q252-70 299-95Q346-120 385-179L417-179Q397-142 369-108.50Q341-75 307-49.50Q273-24 234.50-9Q196 6 156 6Q127 6 100.50-3Q74-12 53.50-31Q33-50 20.50-80.50Q8-111 8-154Q8-182 14-219Q20-256 32.50-295Q45-334 65.50-372Q86-410 114-439.50Q142-469 178.50-487Q215-505 261-505Q282-505 301-500.50Q320-496 335-484.50Q350-473 359-453Q368-433 368-402M270-456Q242-456 218-436.50Q194-417 175.50-386Q157-355 143.50-316.50Q130-278 123-239Q207-252 257-298Q307-344 307-412Q307-429 300.50-442.50Q294-456 270-456Z"/><path id="s32:lobstertwo-italic:313" d=""/><path id="s32:lobstertwo-italic:19" d="M489-170Q469-126 438-91Q407-56 368-32Q329-8 285 5Q241 18 196 18Q148 18 113 3.50Q78-11 55.50-35Q33-59 22.50-91Q12-123 12-158Q12-197 24.50-236Q37-275 61-309.50Q85-344 119.50-371.50Q154-399 197-417Q165-440 150.50-471.50Q136-503 136-537Q136-576 152-614Q168-652 197.50-683Q227-714 267-733Q307-752 355-752Q385-752 411-744Q437-736 456.50-720Q476-704 487-681Q498-658 498-627Q498-582 476-552.50Q454-523 424-523Q397-523 377-550Q396-557 415.50-580Q435-603 435-642Q435-664 428.50-678Q422-692 412.50-700Q403-708 391-711Q379-714 368-714Q345-714 321-703Q297-692 276.50-670.50Q256-649 243-616.50Q230-584 230-542Q230-522 233.50-502Q237-482 246-465Q255-448 270.50-435.50Q286-423 310-418Q266-409 232-386Q198-363 175-331.50Q152-300 140.50-262.50Q129-225 129-186Q129-127 159.50-94Q190-61 255-61Q290-61 322.50-70.50Q355-80 382-96.50Q409-113 430.50-134.50Q452-156 466-180L489-170Z"/><path id="s32:lobstertwo-italic:327" d="M423-500L350-160Q345-140 345-115Q345-98 351-84Q357-70 376-70Q400-70 424.50-99Q449-128 471-179L508-179Q484-116 460-79.50Q436-43 413.50-24Q391-5 370.50 0.50Q350 6 334 6Q302 6 280-16.50Q258-39 254-90Q225-39 189.50-16.50Q154 6 120 6Q97 6 77-3.50Q57-13 42-30Q27-47 18.50-72Q10-97 10-128Q10-152 16-179L84-500L185-500L112-160Q108-144 108-127Q108-98 121-84Q134-70 153-70Q182-70 212.50-98.50Q243-127 254-179L322-500L423-500Z"/><path id="s32:lobstertwo-italic:297" d="M185-500L167-418Q181-434 196-449.50Q211-465 227.50-477.50Q244-490 262-497.50Q280-505 301-505Q331-505 344-491.50Q357-478 357-458Q357-439 350.50-426.50Q344-414 335-406.50Q326-399 316-396Q306-393 299-393Q290-393 285.50-397Q281-401 276.50-405.50Q272-410 266-414Q260-418 249-418Q227-418 202.50-402.50Q178-387 157-369L78 0L-22 0L84-500L185-500Z"/><path id="s32:lobstertwo-italic:245" d="M270-505Q330-505 356-464.50Q382-424 383-347Q472-347 547-407L556-380Q528-348 481.50-326.50Q435-305 381-298Q376-233 359-177.50Q342-122 314-81Q286-40 248-17Q210 6 164 6Q131 6 102.50-2.50Q74-11 53-30Q32-49 20-79Q8-109 8-152Q8-181 13-218Q18-255 30-294.50Q42-334 61.50-371.50Q81-409 110.50-439Q140-469 179-487Q218-505 270-505M202-70Q224-70 245.50-85.50Q267-101 284.50-130Q302-159 314.50-200.50Q327-242 332-295Q307-295 299.50-306.50Q292-318 292-336Q292-362 304-373.50Q316-385 335-387Q331-422 315.50-436Q300-450 275-450Q250-450 228.50-436Q207-422 189.50-399.50Q172-377 158.50-347.50Q145-318 136-287Q127-256 122.50-225.50Q118-195 118-170Q118-118 136.50-94Q155-70 202-70Z"/><path id="s32:lobstertwo-italic:274" d="M193-537L176-460Q199-480 227.50-492.50Q256-505 289-505Q315-505 337-496Q359-487 375-467Q391-447 400-415.50Q409-384 409-338Q409-306 404-268Q399-230 388-191.50Q377-153 358.50-117.50Q340-82 313-54.50Q286-27 250-10.50Q214 6 168 6Q141 6 121.50-7.50Q102-21 88-43L31 225L-75 250L92-537L193-537M241-440Q218-440 198.50-427Q179-414 162-391L98-93Q109-74 124.50-66Q140-58 152-58Q197-58 227-88.50Q257-119 275.50-162.50Q294-206 302-253.50Q310-301 310-336Q310-366 304-386Q298-406 288-418Q278-430 266-435Q254-440 241-440Z"/><path id="s32:lobstertwo-italic:84" d="M454-500L381-160Q376-140 376-115Q376-98 382-84Q388-70 407-70Q431-70 455.50-99Q480-128 502-179L539-179Q515-116 491-79.50Q467-43 444.50-24Q422-5 401.50 0.50Q381 6 365 6Q332 6 310.50-17Q289-40 285-92Q262-51 221.50-22.50Q181 6 133 6Q109 6 86-2.50Q63-11 45-30.50Q27-50 16-80.50Q5-111 5-155Q5-189 12.50-228Q20-267 34-306Q48-345 70-381Q92-417 120-444.50Q148-472 183.50-488.50Q219-505 261-505Q285-505 310-494Q335-483 343-452L353-500L454-500M175-70Q191-70 208-78.50Q225-87 240.50-101.50Q256-116 268-136Q280-156 285-179L333-406Q330-423 318-436.50Q306-450 283-450Q242-450 210-420Q178-390 156-347Q134-304 123-255Q112-206 112-169Q112-112 129-91Q146-70 175-70Z"/><path id="s32:lobstertwo-italic:238" d="M185-500L169-425Q188-451 207-467Q226-483 243.50-491.50Q261-500 276.50-502.50Q292-505 305-505Q335-505 355-496Q375-487 387-471.50Q399-456 403.50-435.50Q408-415 408-392Q408-359 400.50-323Q393-287 384-252Q375-217 367.50-183Q360-149 360-119Q360-98 366-84Q372-70 390-70Q437-70 484-179L521-179Q497-116 473-79Q449-42 426.50-23.50Q404-5 384.50 0.50Q365 6 350 6Q298 6 276-26.50Q254-59 254-107Q254-140 261.50-176Q269-212 278-247Q287-282 294.50-314.50Q302-347 302-374Q302-399 293-414Q284-429 258-429Q196-429 147-322L78 0L-22 0L84-500L185-500Z"/><path id="s32:lobstertwo-italic:224" d="M229-700L112-160Q107-140 107-115Q107-98 113-84Q119-70 138-70Q162-70 186.50-99Q211-128 233-179L270-179Q246-116 222-79.50Q198-43 175.50-24Q153-5 132.50 0.50Q112 6 96 6Q70 6 53-3Q36-12 26-27Q16-42 11.50-62Q7-82 7-105Q7-123 9.50-142Q12-161 16-179L125-686L229-700Z"/><path id="s32:lobstertwo-italic:186" d="M453-500L351-20Q378-29 400.50-40.50Q423-52 441-70.50Q459-89 474-115Q489-141 502-179L539-179Q521-126 501.50-92.50Q482-59 458-37.50Q434-16 405.50-4Q377 8 343 16L330 80Q319 134 305.50 167Q292 200 275.50 218.50Q259 237 239 243.50Q219 250 194 250Q148 250 116 229.50Q84 209 84 160Q84 135 98.50 113.50Q113 92 136 73Q159 54 187.50 39Q216 24 244 13L263-79Q237-51 203.50-33.50Q170-16 133-16Q109-16 86-24.50Q63-33 45-52.50Q27-72 16-102.50Q5-133 5-177Q5-224 21.50-281Q38-338 70-388Q102-438 150-471.50Q198-505 261-505Q285-505 310-494Q335-483 343-452L353-500L453-500M175-92Q189-92 206-99.50Q223-107 238.50-119.50Q254-132 267-149.50Q280-167 286-188L333-407Q330-423 318-436.50Q306-450 283-450Q242-450 210-422.50Q178-395 156-355.50Q134-316 123-271Q112-226 112-191Q112-134 129-113Q146-92 175-92M160 198Q188 198 203 166Q218 134 229 82L236 50Q180 74 151.50 103Q123 132 123 159Q123 176 132.50 187Q142 198 160 198Z"/><path id="s32:lobstertwo-italic:302" d="M401-179Q367-142 333.50-117Q300-92 269-73Q257-51 240.50-36Q224-21 205.50-11.50Q187-2 167.50 2Q148 6 131 6Q93 6 65.50-5.50Q38-17 20-35Q2-53-6.50-76Q-15-99-15-122Q-15-157 1.50-181Q18-205 38-215Q80-290 109-363.50Q138-437 161-511L266-531Q271-435 275.50-375Q280-315 283.50-277Q287-239 289-215.50Q291-192 291-167Q291-158 290.50-149.50Q290-141 289-133Q308-144 326-156Q344-168 359-179L401-179M186-166Q186-187 184.50-205Q183-223 180-250Q177-277 173-318Q169-359 165-424Q151-368 131.50-317Q112-266 85-212Q91-207 95-199Q99-191 99-179Q99-155 85.50-142Q72-129 58-129Q42-129 34-143Q34-108 50-88.50Q66-69 99-69Q137-69 161.50-91Q186-113 186-166Z"/><path id="s32:lobstertwo-italic:231" d="M586-119Q586-98 592-84Q598-70 616-70Q663-70 710-179L747-179Q723-116 699-79Q675-42 652.50-23.50Q630-5 610.50 0.50Q591 6 576 6Q524 6 502-26.50Q480-59 480-107Q480-140 487.50-176Q495-212 504-247Q513-282 520.50-314.50Q528-347 528-374Q528-399 519-414Q510-429 484-429Q452-429 429.50-403Q407-377 383-322L314 0L213 0L284-334Q287-348 288-359Q289-370 289-379Q289-407 278-418Q267-429 248-429Q216-429 193.50-402.50Q171-376 147-322L78 0L-22 0L84-500L185-500L171-436Q206-481 238-493Q270-505 295-505Q345-505 368-481Q391-457 396-421Q414-449 432.50-465.50Q451-482 468.50-491Q486-500 501.50-502.50Q517-505 531-505Q561-505 581-496Q601-487 613-471.50Q625-456 629.50-435.50Q634-415 634-392Q634-359 626.50-323Q619-287 610-252Q601-217 593.50-183Q586-149 586-119Z"/><path id="s32:lobstertwo-italic:104" d="M126-686L228-700L177-463Q198-481 220.50-491.50Q243-502 271-502Q295-502 318.50-496.50Q342-491 361.50-473.50Q381-456 393-424Q405-392 405-339Q405-281 385-220Q365-159 328-108.50Q291-58 240-26Q189 6 127 6Q101 6 79 0.50Q57-5 41.50-17.50Q26-30 17.50-52Q9-74 9-107Q9-139 17-179L126-686M313-328Q313-385 295-417.50Q277-450 241-450Q221-450 204-440.50Q187-431 169-416L110-153Q108-142 106.50-133Q105-124 105-115Q105-63 155-63Q188-63 217-86.50Q246-110 267.50-147.50Q289-185 301-232.50Q313-280 313-328Z"/><path id="s32:lobstertwo-italic:166" d="M185-500L265-500L258-465L177-465L62 80Q51 134 37.50 167Q24 200 7.50 218.50Q-9 237-29 243.50Q-49 250-74 250Q-120 250-152 229.50Q-184 209-184 160Q-184 135-169.50 113.50Q-155 92-132 73Q-109 54-80.50 39Q-52 24-24 13L98-561Q104-591 115-624Q126-657 146.50-684.50Q167-712 199-730.50Q231-749 280-749Q338-749 366.50-715.50Q395-682 395-634Q395-616 392-600L352-600Q355-610 355-624Q355-647 343-666.50Q331-686 304-686Q277-686 259.50-676Q242-666 230-648Q218-630 210-604.50Q202-579 195-548L185-500M-108 198Q-80 198-65 166Q-50 134-39 82L-32 50Q-87 74-116 103Q-145 132-145 159Q-145 176-135.50 187Q-126 198-108 198Z"/><path id="s32:lobstertwo-italic:315" d="M51-500L84-500L114-638L218-652L185-500L262-500L255-465L177-465L112-160Q110-152 107.50-140Q105-128 105-117Q105-99 112.50-84.50Q120-70 143-70Q170-70 199-99Q228-128 253-179L290-179Q264-124 238-88Q212-52 188-31Q164-10 141.50-2Q119 6 101 6Q73 6 55-3.50Q37-13 26.50-28.50Q16-44 11.50-64.50Q7-85 7-106Q7-125 10-144.50Q13-164 16-179L77-465L44-465L51-500Z"/><path id="s32:lobstertwo-italic:203" d="M93-644Q93-671 112-691Q131-711 159-711Q186-711 206-691Q226-671 226-644Q226-616 206-597Q186-578 159-578Q131-578 112-597Q93-616 93-644M186-500L113-160Q108-140 108-115Q108-98 114-84Q120-70 139-70Q163-70 187.50-99Q212-128 234-179L271-179Q247-116 223-79.50Q199-43 176.50-24Q154-5 133.50 0.50Q113 6 97 6Q71 6 54-3Q37-12 27-27Q17-42 12.50-62Q8-82 8-105Q8-123 10.50-142Q13-161 17-179L85-500L186-500Z"/><path id="s32:lobstertwo-italic:344" d="M185-500L112-160Q108-144 108-127Q108-98 121-84Q134-70 153-70Q182-70 212.50-98.50Q243-127 254-179L322-500L422-500L320-20Q347-29 369.50-40.50Q392-52 410-70.50Q428-89 443-115Q458-141 471-179L508-179Q490-126 470.50-92.50Q451-59 427-37.50Q403-16 374.50-4Q346 8 312 16L299 80Q288 134 274.50 167Q261 200 244.50 218.50Q228 237 208 243.50Q188 250 163 250Q117 250 85 229.50Q53 209 53 160Q53 135 67.50 113.50Q82 92 105 73Q128 54 156.50 39Q185 24 213 13L226-50Q201-21 173.50-7.50Q146 6 120 6Q97 6 77-3.50Q57-13 42-30Q27-47 18.50-72Q10-97 10-128Q10-152 16-179L84-500L185-500M129 198Q157 198 172 166Q187 134 198 82L205 50Q149 74 120.50 103Q92 132 92 159Q92 176 101.50 187Q111 198 129 198Z"/><path id="s32:lobstertwo-italic:281" d="M-12-61Q-12-88 7-108Q26-128 54-128Q81-128 101-108Q121-88 121-61Q121-33 101-14Q81 5 54 5Q26 5 7-14Q-12-33-12-61Z"/><path id="s32:lobstertwo-italic:342" d="M343-276Q398-338 426.50-382.50Q455-427 457-459Q452-458 448-457.50Q444-457 440-457Q414-457 404.50-473.50Q395-490 395-513Q395-536 409-546.50Q423-557 448-557Q473-557 488.50-538.50Q504-520 504-480Q504-454 495.50-428Q487-402 468.50-371.50Q450-341 421-305Q392-269 351-224L358-178Q366-129 377.50-99.50Q389-70 415-70Q430-70 445.50-79.50Q461-89 474.50-104Q488-119 499-138Q510-157 516-176L546-176Q530-118 507.50-82Q485-46 459.50-26.50Q434-7 408.50-0.50Q383 6 362 6Q324 6 296.50-36Q269-78 255-173L113 0L45 0L247-223L231-340Q223-391 215-410.50Q207-430 193-430Q164-430 129-366Q94-302 52-177L15-177Q38-232 59-290.50Q80-349 105.50-396.50Q131-444 165-474.50Q199-505 249-505Q268-505 281.50-494Q295-483 304-465.50Q313-448 318.50-427Q324-406 327-386L343-276Z"/><path id="s32:lobstertwo-italic:118" d="M286-347Q299-355 307.50-375Q316-395 316-412Q316-429 305-440.50Q294-452 271-452Q236-452 207.50-423.50Q179-395 159-352.50Q139-310 128-260.50Q117-211 117-169Q117-117 136.50-93.50Q156-70 205-70Q258-70 303-96.50Q348-123 381-179L415-179Q395-142 367-108.50Q339-75 305.50-49.50Q272-24 234-9Q196 6 156 6Q127 6 100.50-3Q74-12 53.50-31Q33-50 20.50-80.50Q8-111 8-155Q8-183 14-220Q20-257 32.50-295.50Q45-334 65-372Q85-410 114-439.50Q143-469 181-487Q219-505 267-505Q318-505 345-482Q372-459 372-410Q372-375 358.50-350.50Q345-326 319-326Q297-326 286-347Z"/><path id="s32:lobstertwo-italic:29" d="M548-646Q516-646 483.50-651.50Q451-657 419-664L370-435L519-435L505-376L357-376L277 0L167 0L314-682Q309-683 304-683Q299-683 294-683Q263-683 234-673.50Q205-664 183-639.50Q161-615 148-574Q135-533 135-470Q135-438 140.50-419.50Q146-401 154-393Q109-393 85.50-415Q62-437 62-494Q62-542 81.50-588Q101-634 141.50-670Q182-706 243.50-728Q305-750 389-750Q415-750 436.50-748Q458-746 479-744Q500-742 521.50-740Q543-738 568-738Q593-738 615.50-740.50Q638-743 659-750Q650-715 638-694.50Q626-674 612-663.50Q598-653 581.50-649.50Q565-646 548-646Z"/><path id="s32:lobstertwo-italic:132" d="M-12-61Q-12-94 8.50-111Q29-128 54-128Q88-128 102.50-111Q117-94 117-68Q117-43 106-13.50Q95 16 77 43.50Q59 71 36.50 93.50Q14 116-9 126Q-18 120-18 109Q-18 97-12 85Q-6 73 1.50 61Q9 49 15.50 37.50Q22 26 22 15Q22 1 16.50-5Q11-11 5-16.50Q-1-22-6.50-31.50Q-12-41-12-61Z"/></defs><g id="line-0"><use x="0" y="875" xlink:href="#s32:lobstertwo-italic:64"/><use x="671" y="875" xlink:href="#s32:lobstertwo-italic:199"/><use x="1138" y="875" xlink:href="#s32:lobstertwo-italic:146"/><use x="1506" y="875" xlink:href="#s32:lobstertwo-italic:313"/><use x="1721" y="875" xlink:href="#s32:lobstertwo-italic:19"/><use x="2168" y="875" xlink:href="#s32:lobstertwo-italic:327"/><use x="2622" y="875" xlink:href="#s32:lobstertwo-italic:297"/><use x="2958" y="875" xlink:href="#s32:lobstertwo-italic:245"/><use x="3377" y="875" xlink:href="#s32:lobstertwo-italic:274"/><use x="3800" y="875" xlink:href="#s32:lobstertwo-italic:146"/><use x="4168" y="875" xlink:href="#s32:lobstertwo-italic:84"/><use x="4653" y="875" xlink:href="#s32:lobstertwo-italic:238"/><use x="5120" y="875" xlink:href="#s32:lobstertwo-italic:313"/><use x="5335" y="875" xlink:href="#s32:lobstertwo-italic:224"/><use x="5551" y="875" xlink:href="#s32:lobstertwo-italic:84"/><use x="6036" y="875" xlink:href="#s32:lobstertwo-italic:238"/><use x="6503" y="875" xlink:href="#s32:lobstertwo-italic:186"/><use x="6988" y="875" xlink:href="#s32:lobstertwo-italic:327"/><use x="7442" y="875" xlink:href="#s32:lobstertwo-italic:84"/><use x="7927" y="875" xlink:href="#s32:lobstertwo-italic:186"/><use x="8412" y="875" xlink:href="#s32:lobstertwo-italic:146"/><use x="8780" y="875" xlink:href="#s32:lobstertwo-italic:302"/><use x="9122" y="875" xlink:href="#s32:lobstertwo-italic:313"/><use x="9337" y="875" xlink:href="#s32:lobstertwo-italic:84"/><use x="9822" y="875" xlink:href="#s32:lobstertwo-italic:297"/><use x="10158" y="875" xlink:href="#s32:lobstertwo-italic:146"/><use x="10526" y="875" xlink:href="#s32:lobstertwo-italic:313"/><use x="10741" y="875" xlink:href="#s32:lobstertwo-italic:231"/><use x="11434" y="875" xlink:href="#s32:lobstertwo-italic:146"/><use x="11802" y="875" xlink:href="#s32:lobstertwo-italic:231"/><use x="12495" y="875" xlink:href="#s32:lobstertwo-italic:104"/><use x="12913" y="875" xlink:href="#s32:lobstertwo-italic:146"/><use x="13281" y="875" xlink:href="#s32:lobstertwo-italic:297"/><use x="13617" y="875" xlink:href="#s32:lobstertwo-italic:302"/><use x="13959" y="875" xlink:href="#s32:lobstertwo-italic:313"/><use x="14174" y="875" xlink:href="#s32:lobstertwo-italic:245"/><use x="14593" y="875" xlink:href="#s32:lobstertwo-italic:166"/><use x="14832" y="875" xlink:href="#s32:lobstertwo-italic:313"/><use x="15047" y="875" xlink:href="#s32:lobstertwo-italic:315"/><use x="15283" y="875" xlink:href="#s32:lobstertwo-italic:199"/><use x="15750" y="875" xlink:href="#s32:lobstertwo-italic:146"/><use x="16118" y="875" xlink:href="#s32:lobstertwo-italic:313"/><use x="16333" y="875" xlink:href="#s32:lobstertwo-italic:302"/><use x="16675" y="875" xlink:href="#s32:lobstertwo-italic:84"/><use x="17160" y="875" xlink:href="#s32:lobstertwo-italic:231"/><use x="17853" y="875" xlink:href="#s32:lobstertwo-italic:146"/><use x="18221" y="875" xlink:href="#s32:lobstertwo-italic:313"/><use x="18436" y="875" xlink:href="#s32:lobstertwo-italic:166"/><use x="18675" y="875" xlink:href="#s32:lobstertwo-italic:84"/><use x="19160" y="875" xlink:href="#s32:lobstertwo-italic:231"/><use x="19853" y="875" xlink:href="#s32:lobstertwo-italic:203"/><use x="20070" y="875" xlink:href="#s32:lobstertwo-italic:224"/><use x="20286" y="875" xlink:href="#s32:lobstertwo-italic:344"/><use x="20792" y="875" xlink:href="#s32:lobstertwo-italic:281"/></g><g id="line-1"><use x="4221.5" y="2075" xlink:href="#s32:lobstertwo-italic:64"/><use x="4892.5" y="2075" xlink:href="#s32:lobstertwo-italic:199"/><use x="5359.5" y="2075" xlink:href="#s32:lobstertwo-italic:146"/><use x="5727.5" y="2075" xlink:href="#s32:lobstertwo-italic:203"/><use x="5944.5" y="2075" xlink:href="#s32:lobstertwo-italic:297"/><use x="6280.5" y="2075" xlink:href="#s32:lobstertwo-italic:313"/><use x="6495.5" y="2075" xlink:href="#s32:lobstertwo-italic:302"/><use x="6837.5" y="2075" xlink:href="#s32:lobstertwo-italic:146"/><use x="7205.5" y="2075" xlink:href="#s32:lobstertwo-italic:274"/><use x="7628.5" y="2075" xlink:href="#s32:lobstertwo-italic:84"/><use x="8113.5" y="2075" xlink:href="#s32:lobstertwo-italic:297"/><use x="8449.5" y="2075" xlink:href="#s32:lobstertwo-italic:84"/><use x="8934.5" y="2075" xlink:href="#s32:lobstertwo-italic:315"/><use x="9170.5" y="2075" xlink:href="#s32:lobstertwo-italic:146"/><use x="9538.5" y="2075" xlink:href="#s32:lobstertwo-italic:313"/><use x="9753.5" y="2075" xlink:href="#s32:lobstertwo-italic:146"/><use x="10121.5" y="2075" xlink:href="#s32:lobstertwo-italic:342"/><use x="10619.5" y="2075" xlink:href="#s32:lobstertwo-italic:203"/><use x="10836.5" y="2075" xlink:href="#s32:lobstertwo-italic:302"/><use x="11178.5" y="2075" xlink:href="#s32:lobstertwo-italic:315"/><use x="11414.5" y="2075" xlink:href="#s32:lobstertwo-italic:146"/><use x="11782.5" y="2075" xlink:href="#s32:lobstertwo-italic:238"/><use x="12249.5" y="2075" xlink:href="#s32:lobstertwo-italic:118"/><use x="12613.5" y="2075" xlink:href="#s32:lobstertwo-italic:146"/><use x="12981.5" y="2075" xlink:href="#s32:lobstertwo-italic:313"/><use x="13196.5" y="2075" xlink:href="#s32:lobstertwo-italic:203"/><use x="13413.5" y="2075" xlink:href="#s32:lobstertwo-italic:302"/><use x="13755.5" y="2075" xlink:href="#s32:lobstertwo-italic:313"/><use x="13970.5" y="2075" xlink:href="#s32:lobstertwo-italic:84"/><use x="14455.5" y="2075" xlink:href="#s32:lobstertwo-italic:313"/><use x="14670.5" y="2075" xlink:href="#s32:lobstertwo-italic:231"/><use x="15363.5" y="2075" xlink:href="#s32:lobstertwo-italic:344"/><use x="15817.5" y="2075" xlink:href="#s32:lobstertwo-italic:315"/><use x="16053.5" y="2075" xlink:href="#s32:lobstertwo-italic:199"/><use x="16570.5" y="2075" xlink:href="#s32:lobstertwo-italic:281"/></g><g id="line-2"><use x="5330" y="3275" xlink:href="#s32:lobstertwo-italic:29"/><use x="5842" y="3275" xlink:href="#s32:lobstertwo-italic:245"/><use x="6261" y="3275" xlink:href="#s32:lobstertwo-italic:297"/><use x="6597" y="3275" xlink:href="#s32:lobstertwo-italic:313"/><use x="6812" y="3275" xlink:href="#s32:lobstertwo-italic:302"/><use x="7154" y="3275" xlink:href="#s32:lobstertwo-italic:118"/><use x="7518" y="3275" xlink:href="#s32:lobstertwo-italic:203"/><use x="7735" y="3275" xlink:href="#s32:lobstertwo-italic:146"/><use x="8103" y="3275" xlink:href="#s32:lobstertwo-italic:238"/><use x="8570" y="3275" xlink:href="#s32:lobstertwo-italic:118"/><use x="8934" y="3275" xlink:href="#s32:lobstertwo-italic:146"/><use x="9329" y="3275" xlink:href="#s32:lobstertwo-italic:132"/><use x="9541" y="3275" xlink:href="#s32:lobstertwo-italic:313"/><use x="9756" y="3275" xlink:href="#s32:lobstertwo-italic:231"/><use x="10449" y="3275" xlink:href="#s32:lobstertwo-italic:327"/><use x="10903" y="3275" xlink:href="#s32:lobstertwo-italic:302"/><use x="11245" y="3275" xlink:href="#s32:lobstertwo-italic:203"/><use x="11462" y="3275" xlink:href="#s32:lobstertwo-italic:118"/><use x="11857" y="3275" xlink:href="#s32:lobstertwo-italic:132"/><use x="12069" y="3275" xlink:href="#s32:lobstertwo-italic:313"/><use x="12284" y="3275" xlink:href="#s32:lobstertwo-italic:302"/><use x="12626" y="3275" xlink:href="#s32:lobstertwo-italic:274"/><use x="13049" y="3275" xlink:href="#s32:lobstertwo-italic:245"/><use x="13468" y="3275" xlink:href="#s32:lobstertwo-italic:297"/><use x="13804" y="3275" xlink:href="#s32:lobstertwo-italic:315"/><use x="14040" y="3275" xlink:href="#s32:lobstertwo-italic:132"/><use x="14252" y="3275" xlink:href="#s32:lobstertwo-italic:313"/><use x="14467" y="3275" xlink:href="#s32:lobstertwo-italic:146"/><use x="14835" y="3275" xlink:href="#s32:lobstertwo-italic:315"/><use x="15071" y="3275" xlink:href="#s32:lobstertwo-italic:118"/><use x="15466" y="3275" xlink:href="#s32:lobstertwo-italic:132"/></g></svg>