<svg xmlns="http://www.w3.org/2000/svg" xmlns:xlink="http://www.w3.org/1999/xlink" width="641" height="83" viewBox="0 0 26720 3478.5"><defs><path id="s19:lora-regular:123" d="M617-489L579-489Q578-552 566.50-589.50Q555-627 527.50-645.50Q500-664 449-664L364-664L363-119Q363-66 360-40L443-44L443 0L208 0L208-33Q251-35 263.50-57Q276-79 276-125L276-156L277-663L174-662Q112-662 85.50-620.50Q59-579 59-489L22-489L28-700L611-700L617-489Z"/><path id="s19:lora-regular:215" d="M180-450Q215-479 259-497.50Q303-516 344-516Q430-516 469-462Q508-408 509-292L510-106Q510-61 506-38L569-41L569 0L365 0L365-30Q394-30 406.50-44.50Q419-59 421.50-81.50Q424-104 424-152L424-292Q424-378 397-420.50Q370-463 312-463Q275-463 238.50-445.50Q202-428 180-401L180-106Q180-67 175-38L238-41L238 0L34 0L34-30Q63-30 76-44.50Q89-59 91.50-82Q94-105 94-152L94-625Q94-663 97-690L26-686L26-728Q86-728 111.50-735Q137-742 151-755L180-755L180-450Z"/><path id="s19:lora-regular:193" d="M294-516Q351-516 397-491Q443-466 470-416.50Q497-367 497-295L145-289Q144-169 184.50-102Q225-35 310-35Q356-35 404.50-59Q453-83 479-118L503-98Q465-40 404.50-12Q344 16 286 16Q217 16 161.50-16.50Q106-49 74-109.50Q42-170 42-249Q42-319 74-380.50Q106-442 163.50-479Q221-516 294-516M295-477Q171-477 148-331L403-331Q403-391 376-434Q349-477 295-477Z"/><path id="s19:lora-regular:3" d=""/><path id="s19:lora-regular:37" d="M541-525L508-525Q508-607 472.50-637Q437-667 373-665L287-663Q251-662 235-649.50Q219-637 215-614.50Q211-592 211-544L211-384L399-383L392-469L436-469L436-259L403-259Q403-296 394-315.50Q385-335 366.50-341.50Q348-348 315-348L284-347L211-344L211-115Q211-63 208-37L399-40Q469-41 506-75.50Q543-110 543-195L577-195L571 0L55 0L55-33Q90-34 105-49Q120-64 122-84.50Q124-105 124-156L124-588Q124-630 127-660L55-656L55-700L536-700L541-525Z"/><path id="s19:lora-regular:285" d="M500-132Q500-74 496-38L568-42L568 0L425 0Q420-31 418-60Q385-27 341-5.50Q297 16 255 16Q170 16 130.50-33Q91-82 91-202L91-380Q91-422 95-445L26-442L26-483L57-483Q96-483 116-490Q136-497 150-510L179-510L179-205Q179-117 203.50-76Q228-35 285-35Q322-35 357.50-57Q393-79 415-112L415-369Q415-416 420-445L348-442L348-483L379-483Q418-483 438-490Q458-497 472-510L501-510L500-132Z"/><path id="s19:lora-regular:270" d="M356-516Q386-516 406-500Q426-484 426-453Q426-437 413.50-421Q401-405 378-405Q356-405 342-421.50Q328-438 331-461Q293-462 254.50-432Q216-402 189-352L190-106Q190-61 186-38L249-41L249 0L44 0L44-30Q73-30 85.50-44.50Q98-59 100.50-81.50Q103-104 103-152L103-380Q103-422 107-445L36-442L36-483L67-483Q105-483 122-489.50Q139-496 154-510L183-510Q187-471 188-411Q213-452 259.50-484Q306-516 356-516Z"/><path id="s19:lora-regular:244" d="M292-516Q361-516 419-482.50Q477-449 510.50-391Q544-333 544-262Q544-186 510.50-122Q477-58 419.50-21Q362 16 292 16Q223 16 165.50-16.50Q108-49 74.50-107Q41-165 41-238Q41-316 74-379.50Q107-443 164.50-479.50Q222-516 292-516M292-478Q218-478 180.50-417Q143-356 143-267Q143-203 160.50-147.50Q178-92 213.50-58Q249-24 300-24Q373-24 407.50-84Q442-144 442-233Q442-334 404.50-406Q367-478 292-478Z"/><path id="s19:lora-regular:267" d="M335-516Q394-516 444-485.50Q494-455 524.50-398.50Q555-342 555-268Q555-185 520-120.50Q485-56 426.50-20Q368 16 300 16Q231 16 180-17L180 149Q180 194 176 217L239 214L239 255L35 255L35 225Q64 225 76.50 210.50Q89 196 91 174.50Q93 153 94 103L96-380Q96-422 100-445L29-441L29-483Q88-483 110-489.50Q132-496 146-510L176-510Q180-461 180-456Q210-483 252-499.50Q294-516 335-516M299-467Q266-467 235-451Q204-435 181-411Q182-404 182-350L181-63Q232-24 298-24Q345-24 379.50-53Q414-82 433-134Q452-186 452-252Q452-342 413.50-404.50Q375-467 299-467Z"/><path id="s19:lora-regular:160" d="M262-516Q346-516 386-471.50Q426-427 425-331L424-106Q424-74 420-38L491-42L491 0L348 0Q345-15 341-57Q268 16 184 16Q111 16 72.50-17Q34-50 34-103Q34-161 80.50-201Q127-241 197.50-260.50Q268-280 339-279L339-341Q339-406 320-442.50Q301-479 239-479Q208-479 180-466Q152-453 139-427Q152-413 152-389Q152-374 141-360.50Q130-347 109-347Q88-347 76-360.50Q64-374 64-396Q64-429 89.50-456.50Q115-484 160.50-500Q206-516 262-516M339-245Q257-242 193-211.50Q129-181 129-118Q129-81 151-61Q173-41 207-41Q245-41 276-55.50Q307-70 339-100Q338-115 338-151L339-245Z"/><path id="s19:lora-regular:238" d="M351-516Q438-516 478-461.50Q518-407 518-292L518-106Q518-61 514-38L577-41L577 0L373 0L373-30Q402-30 414.50-44.50Q427-59 429.50-81.50Q432-104 432-152L432-292Q431-378 404-421.50Q377-465 319-465Q283-465 247.50-447Q212-429 189-400Q190-389 190-361L189-106Q189-61 185-38L248-41L248 0L44 0L44-30Q73-30 85.50-44.50Q98-59 100-80.50Q102-102 103-152L104-380Q104-422 108-445L37-441L37-483Q96-483 118-489.50Q140-496 155-510L184-510Q186-491 188-449Q222-479 265.50-497.50Q309-516 351-516Z"/><path id="s19:lora-regular:232" d="M180-106Q180-67 175-38L238-41L238 0L34 0L34-30Q63-30 75.50-44.50Q88-59 90.50-81.50Q93-104 93-152L93-625Q93-663 96-690L25-686L25-728Q85-728 110.50-735Q136-742 150-755L179-755L180-106Z"/><path id="s19:lora-regular:211" d="M516-576Q541-576 555-562.50Q569-549 569-526Q569-512 558.50-498.50Q548-485 528-485Q511-485 499-495Q487-505 484-520Q460-517 446-498.50Q432-480 426-454Q451-431 465-400Q479-369 479-335Q479-280 450-236Q421-192 372.50-167Q324-142 268-142Q255-142 235-144Q220-147 201-147Q168-147 145.50-132.50Q123-118 123-97Q123-68 159.50-58.50Q196-49 284-46Q407-40 468.50-6.50Q530 27 530 104Q530 155 494.50 193Q459 231 402.50 251Q346 271 285 271Q199 271 143 252Q87 233 61 202Q35 171 35 136Q35 94 63 62.50Q91 31 127 16Q93 5 75.50-14Q58-33 58-63Q58-99 86.50-129Q115-159 158-166Q111-188 84-227.50Q57-267 57-318Q57-376 87.50-421Q118-466 166.50-491Q215-516 268-516Q336-516 395-479Q410-522 443.50-549Q477-576 516-576M266-481Q213-481 183-441.50Q153-402 153-340Q153-267 184.50-222.50Q216-178 271-178Q325-178 353.50-216Q382-254 382-315Q382-385 351.50-433Q321-481 266-481M171 25Q144 43 129 69Q114 95 114 124Q114 173 160.50 202.50Q207 232 284 232Q339 232 380.50 217.50Q422 203 444 178.50Q466 154 466 125Q466 74 417.50 55Q369 36 274 33Q211 31 171 25Z"/><path id="s19:lora-regular:274" d="M223-516Q254-516 286.50-506Q319-496 347-473L345-511L387-511L387-336L355-336Q352-394 319.50-436.50Q287-479 228-479Q183-479 156.50-456.50Q130-434 130-403Q130-374 147.50-354Q165-334 191-320Q217-306 261-289Q313-268 345-250Q377-232 399.50-202.50Q422-173 422-131Q422-83 397.50-50Q373-17 333.50-0.50Q294 16 249 16Q202 16 163 3.50Q124-9 96-28L100 7L58 7L52-165L83-165Q85-124 105.50-92Q126-60 159.50-41.50Q193-23 231-23Q274-23 307.50-43.50Q341-64 341-102Q341-130 324.50-149Q308-168 283.50-180.50Q259-193 215-210Q162-230 130-247.50Q98-265 75-295Q52-325 52-371Q52-404 68-437Q84-470 122-493Q160-516 223-516Z"/><path id="s19:lora-regular:237" d="M637-516Q725-516 765.50-462.50Q806-409 804-292L803-106Q803-61 799-38L862-41L862 0L658 0L658-30Q687-30 699.50-44.50Q712-59 714.50-81.50Q717-104 717-152L717-292Q717-378 690-420.50Q663-463 605-463Q574-463 542.50-449.50Q511-436 487-414Q497-383 497-341L495-106Q495-61 491-38L554-41L554 0L350 0L350-30Q379-30 391.50-44.50Q404-59 406-80.50Q408-102 409-152L410-292Q411-379 385-422Q359-465 302-465Q271-465 240.50-452Q210-439 188-417L189-363L189-106Q189-61 185-38L248-41L248 0L44 0L44-30Q73-30 85.50-44.50Q98-59 100.50-81.50Q103-104 103-152L103-380Q103-422 107-445L36-441L36-483Q95-483 117-489.50Q139-496 154-510L183-510Q185-495 187-457Q218-484 257-500Q296-516 334-516Q383-516 417.50-498.50Q452-481 471-449Q507-478 551.50-497Q596-516 637-516Z"/><path id="s19:lora-regular:183" d="M162-457Q190-485 228.50-500.50Q267-516 313-516Q377-516 429-485Q481-454 510.50-396Q540-338 540-262Q540-179 504-116Q468-53 408-18.50Q348 16 280 16Q240 16 201 2Q162-12 133-45L109 0L74 0L76-625Q76-663 79-690L8-686L8-728Q68-728 93.50-735Q119-742 133-755L162-755L162-457M283-467Q250-467 217.50-451.50Q185-436 162-410L162-157Q162-25 280-25Q352-25 394.50-83.50Q437-142 437-237Q437-342 398-404.50Q359-467 283-467Z"/><path id="s19:lora-regular:210" d="M287-760Q325-760 359.50-741Q394-722 394-686Q394-666 382.50-653.50Q371-641 351-641Q331-641 320.50-654.50Q310-668 310-682Q310-696 315-707Q308-715 296-719.50Q284-724 272-724Q229-724 211-689.50Q193-655 193-605L193-500L328-500L328-461L193-458L194-106Q194-61 190-38L253-41L253 0L49 0L49-30Q78-30 90.50-44.50Q103-59 105.50-81.50Q108-104 108-152L107-457L25-455L25-500L107-500L107-521Q107-637 149.50-698.50Q192-760 287-760Z"/><path id="s19:lora-regular:281" d="M186-500L354-500L354-461L186-459Q185-306 184.50-247Q184-188 184-181Q184-110 201-75.50Q218-41 260-41Q286-41 311.50-57Q337-73 356-101L383-79Q344-21 306-2.50Q268 16 232 16Q95 16 96-168L98-458L21-457L21-500Q69-501 102.50-543.50Q136-586 152-640L186-640L186-500Z"/><path id="s19:lora-regular:217" d="M144-728Q167-728 182.50-710.50Q198-693 198-668Q198-644 181.50-626.50Q165-609 143-609Q122-609 106-626.50Q90-644 90-668Q90-692 106.50-710Q123-728 144-728M189-106Q189-61 185-38L248-41L248 0L44 0L44-30Q73-30 85.50-44.50Q98-59 100.50-81.50Q103-104 103-152L103-380Q103-409 107-445L36-441L36-483Q95-483 120.50-490Q146-497 160-510L189-510L189-106Z"/><path id="s19:lora-regular:307" d="M524-470Q490-457 471.50-428.50Q453-400 431-340L306 9Q270 110 246.50 161.50Q223 213 193.50 242Q164 271 121 271Q88 271 67 255Q46 239 46 210Q46 191 58.50 176.50Q71 162 91 162Q111 162 120.50 176Q130 190 130 205Q130 214 129 219Q132 221 140 221Q153 221 166.50 211Q180 201 191 182Q214 144 261 11L105-323Q63-413 52-461L4-459L4-500L211-500L211-470L207-470Q160-467 160-430Q160-405 184-352L301-101Q331-186 387-352Q421-451 436-463L367-459L367-500L524-500L524-470Z"/><path id="s19:lora-regular:636" d="M123-113Q148-113 164.50-94Q181-75 181-48Q181-21 163.50-2.50Q146 16 122 16Q98 16 81-2.50Q64-21 64-48Q64-75 81.50-94Q99-113 123-113Z"/><path id="s19:lora-regular:306" d="M498-470Q460-459 438-439.50Q416-420 369-363L292-271L430-100Q434-94 448-76Q462-58 474-38L519-41L519 0L326 0L326-30Q363-30 363-51Q363-62 350-79L245-209L161-94Q135-59 115-38L192-41L192 0L24 0L24-30Q52-37 69-53Q86-69 119-111L219-241Q202-263 186.50-284Q171-305 158-323L120-374Q85-420 69-461L22-459L22-500L228-500L228-470Q202-469 189.50-463Q177-457 177-444Q177-423 209-379L267-300L358-410L374-430Q396-456 403-463L334-459L334-500L498-500L498-470Z"/><path id="s19:lora-regular:184" d="M302-516Q356-516 398-499Q440-482 463.50-454Q487-426 487-393Q487-370 474-355Q461-340 438-340Q416-340 405-354.50Q394-369 394-385Q394-410 409-425Q398-456 366.50-467.50Q335-479 304-479Q258-479 221.50-454Q185-429 164-381Q143-333 143-266Q143-199 164.50-147Q186-95 225-65.50Q264-36 315-36Q360-36 403.50-60.50Q447-85 472-122L498-102Q461-44 402.50-14Q344 16 288 16Q220 16 163.50-15Q107-46 74-104Q41-162 41-241Q41-311 74.50-374.50Q108-438 167.50-477Q227-516 302-516Z"/><path id="s19:lora-regular:54" d="M524-525L491-525Q491-607 454-637Q417-667 353-665L280-663Q245-662 230.50-647Q216-632 213.50-610.50Q211-589 211-540L211-368L385-367L378-454L422-454L422-243L390-243Q390-281 381.50-300Q373-319 355-326Q337-333 305-333Q283-333 271-332L211-329L211-119Q211-66 208-40L310-44L310 0L55 0L55-33Q90-34 105-49Q120-64 122-84.50Q124-105 124-156L124-588Q124-630 127-660L55-656L55-700L519-700L524-525Z"/><path id="s19:lora-regular:631" d="M121-101Q154-101 173-75.50Q192-50 192-10Q192 31 170.50 89Q149 147 118 179L91 159Q108 137 123 97Q138 57 138 18Q138 6 137 0Q124 6 112 6Q92 6 79-8Q66-22 66-43Q66-70 82-85.50Q98-101 121-101Z"/></defs><g id="line-0"><use x="0" y="809.5" xlink:href="#s19:lora-regular:123"/><use x="640" y="809.5" xlink:href="#s19:lora-regular:215"/><use x="1239" y="809.5" xlink:href="#s19:lora-regular:193"/><use x="1781" y="809.5" xlink:href="#s19:lora-regular:3"/><use x="2044" y="809.5" xlink:href="#s19:lora-regular:37"/><use x="2666" y="809.5" xlink:href="#s19:lora-regular:285"/><use x="3263" y="809.5" xlink:href="#s19:lora-regular:270"/><use x="3696" y="809.5" xlink:href="#s19:lora-regular:244"/><use x="4281" y="809.5" xlink:href="#s19:lora-regular:267"/><use x="4878" y="809.5" xlink:href="#s19:lora-regular:193"/><use x="5420" y="809.5" xlink:href="#s19:lora-regular:160"/><use x="5936" y="809.5" xlink:href="#s19:lora-regular:238"/><use x="6543" y="809.5" xlink:href="#s19:lora-regular:3"/><use x="6806" y="809.5" xlink:href="#s19:lora-regular:232"/><use x="7078" y="809.5" xlink:href="#s19:lora-regular:160"/><use x="7594" y="809.5" xlink:href="#s19:lora-regular:238"/><use x="8201" y="809.5" xlink:href="#s19:lora-regular:211"/><use x="8754" y="809.5" xlink:href="#s19:lora-regular:285"/><use x="9351" y="809.5" xlink:href="#s19:lora-regular:160"/><use x="9867" y="809.5" xlink:href="#s19:lora-regular:211"/><use x="10420" y="809.5" xlink:href="#s19:lora-regular:193"/><use x="10962" y="809.5" xlink:href="#s19:lora-regular:274"/><use x="11425" y="809.5" xlink:href="#s19:lora-regular:3"/><use x="11688" y="809.5" xlink:href="#s19:lora-regular:160"/><use x="12204" y="809.5" xlink:href="#s19:lora-regular:270"/><use x="12637" y="809.5" xlink:href="#s19:lora-regular:193"/><use x="13179" y="809.5" xlink:href="#s19:lora-regular:3"/><use x="13442" y="809.5" xlink:href="#s19:lora-regular:237"/><use x="14336" y="809.5" xlink:href="#s19:lora-regular:193"/><use x="14878" y="809.5" xlink:href="#s19:lora-regular:237"/><use x="15772" y="809.5" xlink:href="#s19:lora-regular:183"/><use x="16354" y="809.5" xlink:href="#s19:lora-regular:193"/><use x="16896" y="809.5" xlink:href="#s19:lora-regular:270"/><use x="17329" y="809.5" xlink:href="#s19:lora-regular:274"/><use x="17792" y="809.5" xlink:href="#s19:lora-regular:3"/><use x="18055" y="809.5" xlink:href="#s19:lora-regular:244"/><use x="18640" y="809.5" xlink:href="#s19:lora-regular:210"/><use x="18978" y="809.5" xlink:href="#s19:lora-regular:3"/><use x="19241" y="809.5" xlink:href="#s19:lora-regular:281"/><use x="19628" y="809.5" xlink:href="#s19:lora-regular:215"/><use x="20227" y="809.5" xlink:href="#s19:lora-regular:193"/><use x="20769" y="809.5" xlink:href="#s19:lora-regular:3"/><use x="21032" y="809.5" xlink:href="#s19:lora-regular:274"/><use x="21495" y="809.5" xlink:href="#s19:lora-regular:160"/><use x="22011" y="809.5" xlink:href="#s19:lora-regular:237"/><use x="22905" y="809.5" xlink:href="#s19:lora-regular:193"/><use x="23447" y="809.5" xlink:href="#s19:lora-regular:3"/><use x="23710" y="809.5" xlink:href="#s19:lora-regular:210"/><use x="24048" y="809.5" xlink:href="#s19:lora-regular:160"/><use x="24564" y="809.5" xlink:href="#s19:lora-regular:237"/><use x="25458" y="809.5" xlink:href="#s19:lora-regular:217"/><use x="25739" y="809.5" xlink:href="#s19:lora-regular:232"/><use x="26011" y="809.5" xlink:href="#s19:lora-regular:307"/><use x="26539" y="809.5" xlink:href="#s19:lora-regular:636"/></g><g id="line-1"><use x="5319.5" y="2009.5" xlink:href="#s19:lora-regular:123"/><use x="5959.5" y="2009.5" xlink:href="#s19:lora-regular:215"/><use x="6558.5" y="2009.5" xlink:href="#s19:lora-regular:193"/><use x="7100.5" y="2009.5" xlink:href="#s19:lora-regular:217"/><use x="7381.5" y="2009.5" xlink:href="#s19:lora-regular:270"/><use x="7814.5" y="2009.5" xlink:href="#s19:lora-regular:3"/><use x="8077.5" y="2009.5" xlink:href="#s19:lora-regular:274"/><use x="8540.5" y="2009.5" xlink:href="#s19:lora-regular:193"/><use x="9082.5" y="2009.5" xlink:href="#s19:lora-regular:267"/><use x="9679.5" y="2009.5" xlink:href="#s19:lora-regular:160"/><use x="10195.5" y="2009.5" xlink:href="#s19:lora-regular:270"/><use x="10628.5" y="2009.5" xlink:href="#s19:lora-regular:160"/><use x="11144.5" y="2009.5" xlink:href="#s19:lora-regular:281"/><use x="11531.5" y="2009.5" xlink:href="#s19:lora-regular:193"/><use x="12073.5" y="2009.5" xlink:href="#s19:lora-regular:3"/><use x="12336.5" y="2009.5" xlink:href="#s19:lora-regular:193"/><use x="12878.5" y="2009.5" xlink:href="#s19:lora-regular:306"/><use x="13408.5" y="2009.5" xlink:href="#s19:lora-regular:217"/><use x="13689.5" y="2009.5" xlink:href="#s19:lora-regular:274"/><use x="14152.5" y="2009.5" xlink:href="#s19:lora-regular:281"/><use x="14539.5" y="2009.5" xlink:href="#s19:lora-regular:193"/><use x="15081.5" y="2009.5" xlink:href="#s19:lora-regular:238"/><use x="15688.5" y="2009.5" xlink:href="#s19:lora-regular:184"/><use x="16220.5" y="2009.5" xlink:href="#s19:lora-regular:193"/><use x="16762.5" y="2009.5" xlink:href="#s19:lora-regular:3"/><use x="17025.5" y="2009.5" xlink:href="#s19:lora-regular:217"/><use x="17306.5" y="2009.5" xlink:href="#s19:lora-regular:274"/><use x="17769.5" y="2009.5" xlink:href="#s19:lora-regular:3"/><use x="18032.5" y="2009.5" xlink:href="#s19:lora-regular:160"/><use x="18548.5" y="2009.5" xlink:href="#s19:lora-regular:3"/><use x="18811.5" y="2009.5" xlink:href="#s19:lora-regular:237"/><use x="19705.5" y="2009.5" xlink:href="#s19:lora-regular:307"/><use x="20233.5" y="2009.5" xlink:href="#s19:lora-regular:281"/><use x="20620.5" y="2009.5" xlink:href="#s19:lora-regular:215"/><use x="21219.5" y="2009.5" xlink:href="#s19:lora-regular:636"/></g><g id="line-2"><use x="6479.5" y="3209.5" xlink:href="#s19:lora-regular:54"/><use x="7027.5" y="3209.5" xlink:href="#s19:lora-regular:244"/><use x="7612.5" y="3209.5" xlink:href="#s19:lora-regular:270"/><use x="8045.5" y="3209.5" xlink:href="#s19:lora-regular:3"/><use x="8308.5" y="3209.5" xlink:href="#s19:lora-regular:274"/><use x="8771.5" y="3209.5" xlink:href="#s19:lora-regular:184"/><use x="9303.5" y="3209.5" xlink:href="#s19:lora-regular:217"/><use x="9584.5" y="3209.5" xlink:href="#s19:lora-regular:193"/><use x="10126.5" y="3209.5" xlink:href="#s19:lora-regular:238"/><use x="10733.5" y="3209.5" xlink:href="#s19:lora-regular:184"/><use x="11265.5" y="3209.5" xlink:href="#s19:lora-regular:193"/><use x="11807.5" y="3209.5" xlink:href="#s19:lora-regular:631"/><use x="12060.5" y="3209.5" xlink:href="#s19:lora-regular:3"/><use x="12323.5" y="3209.5" xlink:href="#s19:lora-regular:237"/><use x="13217.5" y="3209.5" xlink:href="#s19:lora-regular:285"/><use x="13814.5" y="3209.5" xlink:href="#s19:lora-regular:274"/><use x="14277.5" y="3209.5" xlink:href="#s19:lora-regular:217"/><use x="14558.5" y="3209.5" xlink:href="#s19:lora-regular:184"/><use x="15090.5" y="3209.5" xlink:href="#s19:lora-regular:631"/><use x="15343.5" y="3209.5" xlink:href="#s19:lora-regular:3"/><use x="15606.5" y="3209.5" xlink:href="#s19:lora-regular:274"/><use x="16069.5" y="3209.5" xlink:href="#s19:lora-regular:267"/><use x="16666.5" y="3209.5" xlink:href="#s19:lora-regular:244"/><use x="17251.5" y="3209.5" xlink:href="#s19:lora-regular:270"/><use x="17684.5" y="3209.5" xlink:href="#s19:lora-regular:281"/><use x="18071.5" y="3209.5" xlink:href="#s19:lora-regular:631"/><use x="18324.5" y="3209.5" xlink:href="#s19:lora-regular:3"/><use x="18587.5" y="3209.5" xlink:href="#s19:lora-regular:193"/><use x="19129.5" y="3209.5" xlink:href="#s19:lora-regular:281"/><use x="19516.5" y="3209.5" xlink:href="#s19:lora-regular:184"/><use x="20048.5" y="3209.5" xlink:href="#s19:lora-regular:631"/></g></svg>