<svg xmlns="http://www.w3.org/2000/svg" xmlns:xlink="http://www.w3.org/1999/xlink" width="658" height="85" viewBox="0 0 27413 3543" ><defs><path id="s65:lora-bold:123" d="M633-474L567-474Q567-553 534.50-593.50Q502-634 444-633L396-633L396-164Q396-97 392-74Q425-77 472-77L472 0L180 0L180-66Q207-67 221-72.50Q235-78 243-96Q251-114 251-153L251-632L205-632Q146-631 114-592Q82-553 82-474L16-474L21-700L627-700L633-474Z"/><path id="s65:lora-bold:215" d="M226-460Q255-483 298-499.50Q341-516 372-516Q462-516 501-464Q540-412 541-295L541-161Q541-113 537-73Q569-76 602-76L602 0L339 0L339-65Q377-65 388-86Q399-107 399-154L398-296Q398-362 378.50-393Q359-424 317-424Q293-424 268-413.50Q243-403 226-387L226-161Q226-113 222-73Q255-76 287-76L287 0L25 0L25-65Q52-65 64.50-75.50Q77-86 80.50-104Q84-122 84-154L84-565Q84-613 88-652L18-649L18-725Q81-725 120-734Q159-743 172-755L226-755L226-460Z"/><path id="s65:lora-bold:193" d="M281-516Q378-516 442.50-459Q507-402 506-269L178-263Q178-175 211.50-124Q245-73 319-73Q354-73 394-91Q434-109 466-148L511-106Q426 16 278 16Q205 16 149-16.50Q93-49 62-109Q31-169 31-249Q31-319 62.50-380.50Q94-442 151-479Q208-516 281-516M286-446Q243-446 217.50-415.50Q192-385 184-333L368-333Q365-446 286-446Z"/><path id="s65:lora-bold:3" d=""/><path id="s65:lora-bold:37" d="M556-506L490-506Q490-580 454.50-608.50Q419-637 369-635L333-634Q309-633 295-627.50Q281-622 273.50-603Q266-584 266-547L266-397L383-397Q382-414 379-484L456-484L456-241L390-241Q390-281 377.50-300Q365-319 345-324.50Q325-330 292-329L266-328L266-164Q266-110 262-76L396-76Q447-76 482.50-110.50Q518-145 518-220L583-220L578 0L50 0L50-66Q77-67 91-72.50Q105-78 113-96Q121-114 121-153L121-536Q121-592 125-626L50-623L50-700L550-700L556-506Z"/><path id="s65:lora-bold:285" d="M533-161Q533-113 529-73Q561-76 594-76L594 0L404 0L398-52L397-52Q360-20 325.50-2Q291 16 248 16Q159 16 120.50-36Q82-88 82-205L82-320Q82-362 85-407L15-404L15-480Q78-480 117-489Q156-498 169-510L224-510L224-204Q224-138 241-107Q258-76 295-76Q320-76 346.50-90Q373-104 391-124L391-320Q391-367 395-407L325-404L325-480Q388-480 426.50-489Q465-498 478-510L533-510L533-161Z"/><path id="s65:lora-bold:270" d="M387-516Q425-516 449.50-495Q474-474 474-433Q474-407 457-385Q440-363 406-363Q381-363 361.50-376Q342-389 339-421Q311-421 281.50-388.50Q252-356 242-324L242-161Q242-113 238-73Q270-76 303-76L303 0L41 0L41-65Q79-65 89.50-86Q100-107 100-154L100-322Q100-367 104-407L34-404L34-480Q97-480 136-489Q175-498 188-510L237-510Q239-495 240-471Q241-447 241-424L243-424Q311-516 387-516Z"/><path id="s65:lora-bold:244" d="M283-516Q355-516 412-485Q469-454 502-395.50Q535-337 535-259Q535-176 503.50-114Q472-52 415.50-18Q359 16 286 16Q213 16 155-15Q97-46 64-104Q31-162 31-239Q31-320 65-383Q99-446 156.50-481Q214-516 283-516M283-446Q228-446 203-394Q178-342 178-266Q178-179 205-117Q232-55 288-55Q343-55 365-106Q387-157 387-234Q387-320 362-383Q337-446 283-446Z"/><path id="s65:lora-bold:267" d="M367-516Q427-516 472.50-485Q518-454 543.50-396.50Q569-339 569-263Q569-183 538-119.50Q507-56 450.50-20Q394 16 321 16Q282 16 232-2L232 94Q232 137 229 182Q260 179 293 179L293 255L31 255L31 190Q69 190 80 169Q91 148 91 101L91-322Q91-367 95-407L24-404L24-480Q87-480 126-489Q165-498 178-510L227-510Q229-493 232-462L233-462Q295-516 367-516M316-426Q291-426 268.50-414Q246-402 232-382L232-77Q242-70 261.50-64.50Q281-59 301-59Q422-59 422-248Q422-322 395.50-374Q369-426 316-426Z"/><path id="s65:lora-bold:160" d="M263-516Q448-516 448-325L447-161Q447-113 443-73Q476-76 508-76L508 0L319 0Q317-13 315-46L314-46Q253 16 166 16Q103 16 66.50-21.50Q30-59 30-117Q30-205 112-250.50Q194-296 309-301L309-353Q309-444 241-444Q197-444 169-416Q181-402 181-378Q181-354 164.50-335Q148-316 116-316Q86-316 69-335.50Q52-355 52-384Q52-423 80-453Q108-483 156.50-499.50Q205-516 263-516M308-230Q249-224 210.50-200Q172-176 172-135Q172-108 188.50-95Q205-82 229-82Q274-82 308-118L308-230Z"/><path id="s65:lora-bold:238" d="M387-516Q478-516 517-464Q556-412 556-295L556-161Q556-113 552-73Q585-76 617-76L617 0L355 0L355-65Q393-65 404-86Q415-107 415-154L414-296Q414-362 395.50-393Q377-424 333-424Q309-424 284-413.50Q259-403 242-387L242-161Q242-113 238-73Q270-76 303-76L303 0L41 0L41-65Q79-65 89.50-86Q100-107 100-154L100-322Q100-367 104-407L34-404L34-480Q97-480 136-489Q175-498 188-510L237-510Q237-508 241-460L243-460Q272-483 314.50-499.50Q357-516 387-516Z"/><path id="s65:lora-bold:232" d="M226-161Q226-113 222-73Q255-76 287-76L287 0L25 0L25-65Q52-65 64.50-75.50Q77-86 80.50-104Q84-122 84-154L84-565Q84-613 88-652L18-649L18-725Q81-725 120-734Q159-743 172-755L226-755L226-161Z"/><path id="s65:lora-bold:211" d="M517-606Q550-606 568-589Q586-572 586-542Q586-519 571.50-500Q557-481 526-481Q510-481 494.50-492.50Q479-504 476-520Q463-516 450-494.50Q437-473 435-455Q463-430 478.50-397Q494-364 494-326Q494-270 462-224.50Q430-179 378-153.50Q326-128 267-128L239-129Q217-131 207-131Q185-131 170-123Q155-115 155-101Q155-83 182.50-75.50Q210-68 283-64Q409-57 474-22Q539 13 539 95Q539 149 497.50 189Q456 229 390.50 250Q325 271 256 271Q135 271 81.50 234Q28 197 28 140Q28 105 50.50 74.50Q73 44 123 25Q84 14 66.50-9Q49-32 49-63Q49-93 72.50-124Q96-155 146-170L146-171Q101-189 74.50-227.50Q48-266 48-319Q48-375 79.50-420Q111-465 162.50-490.50Q214-516 271-516Q301-516 334-508.50Q367-501 390-485Q409-537 441-571.50Q473-606 517-606M270-449Q232-449 209-414Q186-379 186-331Q186-275 209-235Q232-195 271-195Q309-195 331.50-229Q354-263 354-308Q354-365 332-407Q310-449 270-449M183 48Q168 60 159.50 79Q151 98 151 117Q151 156 187.50 179Q224 202 285 202Q330 202 362.50 190Q395 178 412 159.50Q429 141 429 122Q429 91 393.50 75Q358 59 285 56Q277 55 259 55Q249 54 224 52.50Q199 51 183 48Z"/><path id="s65:lora-bold:274" d="M227-516Q256-516 290-507Q324-498 347-482L348-482L347-511L423-511L423-334L358-334Q349-386 312-416Q275-446 221-446Q193-446 174-433Q155-420 155-393Q155-365 177-351.50Q199-338 251-321Q257-320 277-313Q362-283 407.50-243Q453-203 453-138Q453-88 427.50-53.50Q402-19 360.50-1.50Q319 16 271 16Q228 16 187 5Q146-6 123-23L122-23L125 7L49 7L45-165L110-165Q115-119 158.50-87.50Q202-56 265-56Q293-56 313.50-69Q334-82 334-106Q334-124 321-136Q308-148 290-156Q272-164 218-185Q154-210 122-226Q90-242 64.50-273.50Q39-305 39-355Q39-396 59.50-432.50Q80-469 122.50-492.50Q165-516 227-516Z"/><path id="s65:lora-bold:237" d="M676-516Q759-516 799.50-468Q840-420 840-308L840-161Q840-113 836-73Q868-76 901-76L901 0L648 0L648-65Q680-65 689-86.50Q698-108 698-154L698-307Q697-370 677-396.50Q657-423 619-423Q575-423 533-390Q542-350 542-295L542-161Q542-113 538-73Q570-76 603-76L603 0L345 0L345-65Q380-65 390-86Q400-107 400-154L399-310Q399-372 381-397.50Q363-423 327-424Q283-424 242-387L242-161Q242-113 238-73Q270-76 298-76L298 0L41 0L41-65Q79-65 89.50-86Q100-107 100-154L100-322Q100-367 104-407L34-404L34-480Q97-480 136-489Q175-498 188-510L237-510Q237-508 241-460L243-460Q274-485 313-500.50Q352-516 389-516Q434-516 464.50-499.50Q495-483 513-450Q549-480 593-498Q637-516 676-516Z"/><path id="s65:lora-bold:183" d="M204-462Q265-516 339-516Q399-516 444.50-485Q490-454 515.50-396.50Q541-339 541-263Q541-182 511.50-119Q482-56 427-20Q372 16 298 16Q263 16 223.50 2.50Q184-11 153-44L152-44L123 0L63 0L63-565Q63-623 66-652L-4-649L-4-725Q59-725 98-734Q137-743 150-755L204-755L204-462M288-426Q263-426 240.50-414.50Q218-403 204-383L204-150Q204-101 226.50-79Q249-57 281-57Q341-57 367.50-111Q394-165 394-248Q394-322 367.50-374Q341-426 288-426Z"/><path id="s65:lora-bold:210" d="M299-755Q364-755 395-729Q426-703 426-667Q426-639 409-619.50Q392-600 362-600Q334-600 318.50-616Q303-632 303-657Q303-670 305-677Q297-685 282-685Q242-684 242-623L242-500L354-500L354-423L243-420L244-163Q244-113 240-73Q273-76 310-76L310 0L43 0L43-65Q81-65 92-86Q103-107 103-154L103-418L30-417L30-500L103-500L103-529Q103-646 154-700.50Q205-755 299-755Z"/><path id="s65:lora-bold:281" d="M227-500L354-500L354-423L227-420L226-174Q226-77 286-77Q334-77 377-137L425-92Q378-23 331-3.50Q284 16 239 16Q83 16 83-176L85-417L17-417L17-500Q49-500 77.50-520Q106-540 126-569Q146-598 154-625L228-625L227-500Z"/><path id="s65:lora-bold:217" d="M181-763Q213-763 234.50-739Q256-715 256-680Q256-645 235.50-622Q215-599 182-599Q148-599 126-622.50Q104-646 104-680Q104-714 127-738.50Q150-763 181-763M242-161Q242-113 238-73Q270-76 303-76L303 0L41 0L41-65Q79-65 89.50-86Q100-107 100-154L100-320Q100-367 104-407L34-404L34-480Q97-480 136-489Q175-498 188-510L242-510L242-161Z"/><path id="s65:lora-bold:307" d="M547-436Q518-429 497-400Q476-371 459-322L334 35Q304 124 279 173Q254 222 223.50 246.50Q193 271 148 271Q109 271 83 248Q57 225 57 189Q57 161 75.50 140.50Q94 120 122 120Q144 120 158.50 135.50Q173 151 173 176Q173 184 172 189L172 190Q191 190 214.50 142Q238 94 257 26L99-291Q73-341 64-369.50Q55-398 51-426L5-424L5-500L254-500L254-436Q212-431 212-397Q212-380 222-358L320-134L321-134L342-201Q353-239 384-333Q406-403 426-427L426-428L369-424L369-500L547-500L547-436Z"/><path id="s65:lora-bold:636" d="M117-140Q148-140 168.50-117Q189-94 189-62Q189-29 169.50-6.50Q150 16 118 16Q86 16 65-6.50Q44-29 44-62Q44-94 66-117Q88-140 117-140Z"/><path id="s65:lora-bold:306" d="M500-436Q444-412 400-356L333-274L449-139Q484-98 497-74L531-76L531 0L295 0L295-64Q329-65 329-82Q329-94 312-113L252-176L251-176L205-120Q197-110 182.50-94Q168-78 160-73L160-72L206-76L206 0L40 0L40-64Q59-72 76-87Q93-102 116-129L203-229L105-344Q102-347 79-376Q56-405 48-426L21-424L21-500L242-500L242-436Q218-435 218-420Q218-405 239-381L285-327L286-327L324-373Q328-377 343-395Q358-413 373-427L373-428L324-424L324-500L500-500L500-436Z"/><path id="s65:lora-bold:184" d="M291-516Q352-516 395.50-497Q439-478 461-446.50Q483-415 483-379Q483-348 464.50-326Q446-304 414-304Q381-304 364.50-324Q348-344 348-369Q348-392 360-413Q351-431 331-438.50Q311-446 291-446Q240-446 208.50-399.50Q177-353 177-268Q177-183 210-128Q243-73 314-73Q354-73 393-94Q432-115 459-150L505-105Q455-36 398-10Q341 16 277 16Q209 16 153-14.50Q97-45 64-102.50Q31-160 31-239Q31-314 64-377.50Q97-441 156.50-478.50Q216-516 291-516Z"/><path id="s65:lora-bold:54" d="M556-506L490-506Q490-580 454.50-608.50Q419-637 369-635L333-634Q309-633 295-627.50Q281-622 273.50-603Q266-584 266-547L266-373L369-373Q368-386 365-459L442-459L442-216L376-216Q376-256 363.50-275.50Q351-295 330.50-300Q310-305 278-304L266-304L266-164Q266-108 262-74Q294-77 351-77L351 0L50 0L50-66Q77-67 91-72.50Q105-78 113-96Q121-114 121-153L121-536Q121-592 125-626L50-623L50-700L550-700L556-506Z"/><path id="s65:lora-bold:631" d="M118-137Q161-137 184.50-107.50Q208-78 208-32Q208 17 184.50 74Q161 131 116 187L77 159Q97 133 116 86.50Q135 40 134 1Q125 4 113 4Q84 4 64-12.50Q44-29 44-62Q44-94 64.50-115.50Q85-137 118-137Z"/></defs><g id="line-0"><use x="0" y="869" xlink:href="#s65:lora-bold:123" /><use x="650" y="869" xlink:href="#s65:lora-bold:215" /><use x="1271" y="869" xlink:href="#s65:lora-bold:193" /><use x="1809" y="869" xlink:href="#s65:lora-bold:3" /><use x="2072" y="869" xlink:href="#s65:lora-bold:37" /><use x="2696" y="869" xlink:href="#s65:lora-bold:285" /><use x="3314" y="869" xlink:href="#s65:lora-bold:270" /><use x="3794" y="869" xlink:href="#s65:lora-bold:244" /><use x="4360" y="869" xlink:href="#s65:lora-bold:267" /><use x="4961" y="869" xlink:href="#s65:lora-bold:193" /><use x="5499" y="869" xlink:href="#s65:lora-bold:160" /><use x="6023" y="869" xlink:href="#s65:lora-bold:238" /><use x="6659" y="869" xlink:href="#s65:lora-bold:3" /><use x="6922" y="869" xlink:href="#s65:lora-bold:232" /><use x="7234" y="869" xlink:href="#s65:lora-bold:160" /><use x="7758" y="869" xlink:href="#s65:lora-bold:238" /><use x="8394" y="869" xlink:href="#s65:lora-bold:211" /><use x="8951" y="869" xlink:href="#s65:lora-bold:285" /><use x="9569" y="869" xlink:href="#s65:lora-bold:160" /><use x="10093" y="869" xlink:href="#s65:lora-bold:211" /><use x="10650" y="869" xlink:href="#s65:lora-bold:193" /><use x="11188" y="869" xlink:href="#s65:lora-bold:274" /><use x="11673" y="869" xlink:href="#s65:lora-bold:3" /><use x="11936" y="869" xlink:href="#s65:lora-bold:160" /><use x="12460" y="869" xlink:href="#s65:lora-bold:270" /><use x="12940" y="869" xlink:href="#s65:lora-bold:193" /><use x="13478" y="869" xlink:href="#s65:lora-bold:3" /><use x="13741" y="869" xlink:href="#s65:lora-bold:237" /><use x="14661" y="869" xlink:href="#s65:lora-bold:193" /><use x="15199" y="869" xlink:href="#s65:lora-bold:237" /><use x="16119" y="869" xlink:href="#s65:lora-bold:183" /><use x="16692" y="869" xlink:href="#s65:lora-bold:193" /><use x="17230" y="869" xlink:href="#s65:lora-bold:270" /><use x="17710" y="869" xlink:href="#s65:lora-bold:274" /><use x="18195" y="869" xlink:href="#s65:lora-bold:3" /><use x="18458" y="869" xlink:href="#s65:lora-bold:244" /><use x="19024" y="869" xlink:href="#s65:lora-bold:210" /><use x="19393" y="869" xlink:href="#s65:lora-bold:3" /><use x="19656" y="869" xlink:href="#s65:lora-bold:281" /><use x="20069" y="869" xlink:href="#s65:lora-bold:215" /><use x="20690" y="869" xlink:href="#s65:lora-bold:193" /><use x="21228" y="869" xlink:href="#s65:lora-bold:3" /><use x="21491" y="869" xlink:href="#s65:lora-bold:274" /><use x="21976" y="869" xlink:href="#s65:lora-bold:160" /><use x="22500" y="869" xlink:href="#s65:lora-bold:237" /><use x="23420" y="869" xlink:href="#s65:lora-bold:193" /><use x="23958" y="869" xlink:href="#s65:lora-bold:3" /><use x="24221" y="869" xlink:href="#s65:lora-bold:210" /><use x="24590" y="869" xlink:href="#s65:lora-bold:160" /><use x="25114" y="869" xlink:href="#s65:lora-bold:237" /><use x="26034" y="869" xlink:href="#s65:lora-bold:217" /><use x="26361" y="869" xlink:href="#s65:lora-bold:232" /><use x="26673" y="869" xlink:href="#s65:lora-bold:307" /><use x="27224" y="869" xlink:href="#s65:lora-bold:636" /></g><g id="line-1"><use x="5404" y="2069" xlink:href="#s65:lora-bold:123" /><use x="6054" y="2069" xlink:href="#s65:lora-bold:215" /><use x="6675" y="2069" xlink:href="#s65:lora-bold:193" /><use x="7213" y="2069" xlink:href="#s65:lora-bold:217" /><use x="7540" y="2069" xlink:href="#s65:lora-bold:270" /><use x="8020" y="2069" xlink:href="#s65:lora-bold:3" /><use x="8283" y="2069" xlink:href="#s65:lora-bold:274" /><use x="8768" y="2069" xlink:href="#s65:lora-bold:193" /><use x="9306" y="2069" xlink:href="#s65:lora-bold:267" /><use x="9907" y="2069" xlink:href="#s65:lora-bold:160" /><use x="10431" y="2069" xlink:href="#s65:lora-bold:270" /><use x="10911" y="2069" xlink:href="#s65:lora-bold:160" /><use x="11435" y="2069" xlink:href="#s65:lora-bold:281" /><use x="11848" y="2069" xlink:href="#s65:lora-bold:193" /><use x="12386" y="2069" xlink:href="#s65:lora-bold:3" /><use x="12649" y="2069" xlink:href="#s65:lora-bold:193" /><use x="13187" y="2069" xlink:href="#s65:lora-bold:306" /><use x="13735" y="2069" xlink:href="#s65:lora-bold:217" /><use x="14062" y="2069" xlink:href="#s65:lora-bold:274" /><use x="14547" y="2069" xlink:href="#s65:lora-bold:281" /><use x="14960" y="2069" xlink:href="#s65:lora-bold:193" /><use x="15498" y="2069" xlink:href="#s65:lora-bold:238" /><use x="16134" y="2069" xlink:href="#s65:lora-bold:184" /><use x="16652" y="2069" xlink:href="#s65:lora-bold:193" /><use x="17190" y="2069" xlink:href="#s65:lora-bold:3" /><use x="17453" y="2069" xlink:href="#s65:lora-bold:217" /><use x="17780" y="2069" xlink:href="#s65:lora-bold:274" /><use x="18265" y="2069" xlink:href="#s65:lora-bold:3" /><use x="18528" y="2069" xlink:href="#s65:lora-bold:160" /><use x="19052" y="2069" xlink:href="#s65:lora-bold:3" /><use x="19315" y="2069" xlink:href="#s65:lora-bold:237" /><use x="20235" y="2069" xlink:href="#s65:lora-bold:307" /><use x="20786" y="2069" xlink:href="#s65:lora-bold:281" /><use x="21199" y="2069" xlink:href="#s65:lora-bold:215" /><use x="21820" y="2069" xlink:href="#s65:lora-bold:636" /></g><g id="line-2"><use x="6672" y="3269" xlink:href="#s65:lora-bold:54" /><use x="7243" y="3269" xlink:href="#s65:lora-bold:244" /><use x="7809" y="3269" xlink:href="#s65:lora-bold:270" /><use x="8289" y="3269" xlink:href="#s65:lora-bold:3" /><use x="8552" y="3269" xlink:href="#s65:lora-bold:274" /><use x="9037" y="3269" xlink:href="#s65:lora-bold:184" /><use x="9555" y="3269" xlink:href="#s65:lora-bold:217" /><use x="9882" y="3269" xlink:href="#s65:lora-bold:193" /><use x="10420" y="3269" xlink:href="#s65:lora-bold:238" /><use x="11056" y="3269" xlink:href="#s65:lora-bold:184" /><use x="11574" y="3269" xlink:href="#s65:lora-bold:193" /><use x="12112" y="3269" xlink:href="#s65:lora-bold:631" /><use x="12362" y="3269" xlink:href="#s65:lora-bold:3" /><use x="12625" y="3269" xlink:href="#s65:lora-bold:237" /><use x="13545" y="3269" xlink:href="#s65:lora-bold:285" /><use x="14163" y="3269" xlink:href="#s65:lora-bold:274" /><use x="14648" y="3269" xlink:href="#s65:lora-bold:217" /><use x="14975" y="3269" xlink:href="#s65:lora-bold:184" /><use x="15493" y="3269" xlink:href="#s65:lora-bold:631" /><use x="15743" y="3269" xlink:href="#s65:lora-bold:3" /><use x="16006" y="3269" xlink:href="#s65:lora-bold:274" /><use x="16491" y="3269" xlink:href="#s65:lora-bold:267" /><use x="17092" y="3269" xlink:href="#s65:lora-bold:244" /><use x="17658" y="3269" xlink:href="#s65:lora-bold:270" /><use x="18138" y="3269" xlink:href="#s65:lora-bold:281" /><use x="18551" y="3269" xlink:href="#s65:lora-bold:631" /><use x="18801" y="3269" xlink:href="#s65:lora-bold:3" /><use x="19064" y="3269" xlink:href="#s65:lora-bold:193" /><use x="19602" y="3269" xlink:href="#s65:lora-bold:281" /><use x="20015" y="3269" xlink:href="#s65:lora-bold:184" /><use x="20533" y="3269" xlink:href="#s65:lora-bold:631" /></g></svg>