<svg xmlns="http://www.w3.org/2000/svg" xmlns:xlink="http://www.w3.org/1999/xlink" width="622" height="84" viewBox="0 0 25911 3495.5"><defs><path id="s67:lora-italic:123" d="M627-489L589-489Q591-552 581.50-589.50Q572-627 545.50-645.50Q519-664 468-664L383-663L350-119Q347-62 343-40L426-44L424 0L193 0L195-33Q226-34 241-50Q256-66 261.50-90Q267-114 269-156L300-663L197-662Q135-662 106.50-620.50Q78-579 73-489L36-489L53-700L632-700L627-489Z"/><path id="s67:lora-italic:215" d="M201-705Q185-609 182-585Q175-534 165.50-437.50Q156-341 152-288L155-288Q202-415 249.50-463Q297-511 352-511Q408-511 435-474.50Q462-438 462-381Q462-314 445-189Q434-110 434-85Q434-63 439.50-51Q445-39 461-39Q480-39 500-62.50Q520-86 534-136L559-129Q550-81 517.50-35Q485 11 432 11Q387 11 369-12.50Q351-36 351-85Q351-123 364-218Q366-231 373-292.50Q380-354 380-403Q380-426 369-445Q358-464 332-464Q289-464 244-400Q199-336 170-239.50Q141-143 141-53Q141-34 143 0L61 0Q60-9 60-26Q60-100 77-314.50Q94-529 110-639Q112-651 119-692L49-688L53-728Q113-728 139-735Q165-742 180-755L209-755L201-705Z"/><path id="s67:lora-italic:193" d="M282-511Q342-511 382-483Q422-455 422-396Q422-322 333-281Q244-240 127-227Q127-133 155-86Q183-39 241-39Q287-39 330-69.50Q373-100 405-160L438-141Q396-62 344-25.50Q292 11 224 11Q132 11 85.50-46.50Q39-104 39-205Q39-286 66.50-355.50Q94-425 149-468Q204-511 282-511M268-477Q204-477 169-415Q134-353 128-263Q215-275 277-311Q339-347 339-401Q339-434 320.50-455.50Q302-477 268-477Z"/><path id="s67:lora-italic:3" d=""/><path id="s67:lora-italic:37" d="M551-525L518-525Q522-607 488-637Q454-667 390-665L304-663Q268-662 251.50-650Q235-638 230-615.50Q225-593 222-544L213-384L285-383Q332-382 357-388Q382-394 395-414Q408-434 410-477L443-477L432-259L399-259Q400-297 392.50-316Q385-335 367-341.50Q349-348 316-348L284-347L211-344L199-115Q196-59 192-37L383-40Q453-41 492-75.50Q531-110 535-195L569-195L553 0L41 0L43-33Q78-34 93.50-49Q109-64 112.50-85Q116-106 118-156L142-588Q143-622 149-660L76-656L78-700L555-700L551-525Z"/><path id="s67:lora-italic:285" d="M133-511Q173-511 193.50-486Q214-461 214-414Q214-378 198-264Q197-255 189-196.50Q181-138 181-99Q181-75 191.50-55.50Q202-36 228-36Q272-36 316-102.50Q360-169 388.50-266Q417-363 417-447Q417-466 415-500L499-500Q500-491 500-474Q500-450 495-400Q490-350 480-270L470-187Q469-174 465-139Q461-104 461-84Q461-40 488-40Q507-40 527-63.50Q547-87 561-136L589-130Q584-102 567.50-69Q551-36 523.50-12.50Q496 11 459 11Q420 11 401-13Q382-37 382-79Q382-123 400-213L397-213Q349-84 305-36.50Q261 11 208 11Q152 11 125.50-25.50Q99-62 99-119Q99-162 104-206Q109-250 119-312Q121-323 126-358.50Q131-394 131-414Q131-437 125.50-449Q120-461 104-461Q86-461 67-437.50Q48-414 34-364L6-370Q15-419 47.50-465Q80-511 133-511Z"/><path id="s67:lora-italic:270" d="M387-511Q418-511 437.50-495.50Q457-480 457-453Q457-434 444-419.50Q431-405 411-405Q393-405 380-416Q367-427 365-447Q361-448 354-448Q312-448 272-381Q232-314 207-218Q182-122 182-43Q182-34 184 0L101 0Q100-9 100-26Q100-87 116-231L129-347Q135-399 135-416Q135-437 129.50-449Q124-461 108-461Q89-461 69-437Q49-413 35-364L7-370Q12-398 28.50-431Q45-464 72.50-487.50Q100-511 137-511Q176-511 193-486Q210-461 210-414Q210-368 195-293L198-293Q239-414 286-462.50Q333-511 387-511Z"/><path id="s67:lora-italic:244" d="M286-511Q340-511 383.50-485Q427-459 451.50-409.50Q476-360 476-292Q476-210 446.50-141Q417-72 361.50-30.50Q306 11 231 11Q136 11 87.50-51.50Q39-114 39-213Q39-295 69-363Q99-431 155-471Q211-511 286-511M270-474Q226-474 193.50-442.50Q161-411 144-356.50Q127-302 127-235Q127-152 154-89.50Q181-27 242-27Q293-27 325.50-66Q358-105 373-162Q388-219 388-273Q388-357 361.50-415.50Q335-474 270-474Z"/><path id="s67:lora-italic:267" d="M391-511Q457-511 491.50-456Q526-401 526-317Q526-219 492-145Q458-71 391.50-30Q325 11 231 11Q207 11 184 8L176 134Q175 141 175 156Q173 195 168 217L231 214L231 255L42 255L42 225Q66 225 78 210Q90 195 94.50 171.50Q99 148 102 105Q102 92 103 85Q112-21 130-218Q146-383 146-408Q146-434 141-447.50Q136-461 119-461Q100-461 80.50-437Q61-413 47-364L18-370Q23-398 39.50-431Q56-464 83.50-487.50Q111-511 148-511Q224-511 224-406Q224-362 210-292L213-292Q251-418 295-464.50Q339-511 391-511M370-464Q335-464 300-415.50Q265-367 238-289.50Q211-212 198-130Q192-95 187-35Q223-23 248-23Q314-23 357.50-64.50Q401-106 420.50-169.50Q440-233 440-299Q440-376 424-420Q408-464 370-464Z"/><path id="s67:lora-italic:160" d="M329-511Q397-511 463-494Q419-168 419-94Q419-68 424-53.50Q429-39 447-39Q466-39 486-63Q506-87 520-136L548-130Q543-102 526.50-69Q510-36 482.50-12.50Q455 11 418 11Q344 11 344-79Q344-123 362-213L359-213Q317-81 267-35Q217 11 164 11Q106 11 71.50-31Q37-73 37-163Q37-259 70-338Q103-417 169-464Q235-511 329-511M298-475Q240-475 200-433.50Q160-392 140.50-324.50Q121-257 121-180Q121-33 186-33Q230-33 274-102Q318-171 347-272.50Q376-374 376-463Q346-475 298-475Z"/><path id="s67:lora-italic:238" d="M396-511Q452-511 478.50-475Q505-439 505-381Q505-314 486-189Q475-110 475-85Q475-63 480.50-51Q486-39 502-39Q521-39 541-62.50Q561-86 575-136L603-129Q598-101 581.50-68.50Q565-36 537.50-12.50Q510 11 473 11Q428 11 410-12.50Q392-36 392-85Q392-122 405-217Q423-339 423-403Q423-426 412.50-445Q402-464 376-464Q332-464 286-397.50Q240-331 209.50-233.50Q179-136 179-53Q179-34 181 0L97 0Q96-9 96-26Q96-50 100.50-93Q105-136 114-206Q114-212 116-226Q117-239 119-253Q121-267 122-281Q129-342 132-370Q135-398 135-416Q135-437 129.50-449Q124-461 108-461Q89-461 69-437Q49-413 35-364L7-370Q12-398 28.50-431Q45-464 72.50-487.50Q100-511 137-511Q212-511 212-408Q212-379 206.50-344.50Q201-310 196-283L199-283Q247-411 294.50-461Q342-511 396-511Z"/><path id="s67:lora-italic:232" d="M203-684Q191-614 188-585Q172-468 157.50-313.50Q143-159 143-91Q143-66 148-52.50Q153-39 170-39Q189-39 209-62.50Q229-86 243-136L271-129Q266-101 250-68.50Q234-36 206.50-12.50Q179 11 142 11Q100 11 81-11Q62-33 62-78Q62-144 79.50-321Q97-498 116-638L125-692L54-688L59-728Q118-728 144-735Q170-742 186-755L214-755L203-684Z"/><path id="s67:lora-italic:211" d="M330-511Q365-511 399.50-506.50Q434-502 457-494Q452-412 431-166L418-14Q406 128 340 199.50Q274 271 162 271Q133 271 99 263Q65 255 40 236Q15 217 14 187Q14 166 27.50 151Q41 136 61 136Q80 136 93 148Q106 160 106 182Q106 195 100 208Q109 222 129 229Q149 236 169 236Q240 236 277.50 187.50Q315 139 328 71Q341 3 350-105Q356-179 361-213L358-213Q320-82 274-35.50Q228 11 173 11Q106 11 72-42Q38-95 38-183Q38-272 70-346.50Q102-421 168-466Q234-511 330-511M314-475Q246-475 202.50-432Q159-389 140.50-326.50Q122-264 122-200Q122-125 139-80.50Q156-36 194-36Q238-36 279.50-104.50Q321-173 348-273.50Q375-374 380-462Q354-475 314-475Z"/><path id="s67:lora-italic:274" d="M227-511Q286-511 330.50-483.50Q375-456 375-413Q375-392 363-379.50Q351-367 333-367Q316-367 304.50-379Q293-391 293-407Q293-424 302-438Q296-456 276-467Q256-478 224-478Q189-478 160.50-455.50Q132-433 132-399Q132-370 158-347Q184-324 238-293Q283-267 311-246.50Q339-226 358.50-198Q378-170 378-135Q378-93 354.50-60Q331-27 288-8Q245 11 190 11Q125 11 77.50-18Q30-47 30-96Q30-117 42.50-131Q55-145 73-145Q92-145 103-132.50Q114-120 114-103Q114-86 105-72Q112-51 136-38.50Q160-26 188-26Q241-26 268.50-50.50Q296-75 296-121Q296-154 268-179Q240-204 183-237Q119-274 86.50-304Q54-334 54-376Q54-412 76-443Q98-474 137.50-492.50Q177-511 227-511Z"/><path id="s67:lora-italic:237" d="M663-511Q719-511 743.50-475Q768-439 768-381Q768-339 763-296.50Q758-254 748-189Q735-109 735-85Q735-63 740.50-51Q746-39 762-39Q781-39 801.50-62.50Q822-86 836-136L864-129Q859-101 842.50-68.50Q826-36 798-12.50Q770 11 733 11Q688 11 670.50-12.50Q653-36 653-85Q653-126 669-217Q670-226 676-266.50Q682-307 685.50-341.50Q689-376 689-403Q689-426 678-445Q667-464 641-464Q596-464 553.50-398Q511-332 484.50-235Q458-138 458-53Q458-34 460 0L376 0Q375-9 375-26Q375-59 381-114Q387-169 394-223Q411-353 411-400Q411-464 363-464Q319-464 276.50-398Q234-332 207-234.50Q180-137 180-53Q180-34 182 0L98 0Q97-9 97-26Q97-51 101.50-98.50Q106-146 116-226L128-330Q132-365 134-383.50Q136-402 136-416Q136-437 130.50-449Q125-461 109-461Q90-461 70-437Q50-413 36-364L8-370Q13-398 29.50-431Q46-464 73.50-487.50Q101-511 138-511Q213-511 213-411Q213-383 207.50-349Q202-315 197-288L200-288Q243-413 289-462Q335-511 383-511Q438-511 464-476Q490-441 490-397Q490-371 487-353.50Q484-336 473-291L476-291Q521-416 568-463.50Q615-511 663-511Z"/><path id="s67:lora-italic:183" d="M195-755Q185-690 173-586L167-523Q161-473 144-298L147-298Q182-427 231.50-469Q281-511 340-511Q405-511 435-459Q465-407 465-327Q465-178 396.50-83.50Q328 11 188 11Q158 11 121.50 6Q85 1 57-10L72-243Q91-524 101-639Q104-675 107-692L35-688L39-728Q99-728 125-735Q151-742 166-755L195-755M313-464Q268-464 226.50-397Q185-330 159-231.50Q133-133 131-47Q142-36 163-30Q184-24 205-24Q301-25 340-109.50Q379-194 379-308Q379-464 313-464Z"/><path id="s67:lora-italic:210" d="M320-760Q355-760 374-746.50Q393-733 393-708Q393-694 383.50-681Q374-668 355-668Q335-668 323.50-682Q312-696 313-718Q307-722 290-722Q243-722 222.50-666Q202-610 193-500L335-500L332-461L190-459L187-403Q180-286 176-236L170-165Q158-18 142 67.50Q126 153 82 212Q38 271-47 271Q-85 271-105 258Q-125 245-125 219Q-125 205-115 191.50Q-105 178-86 178Q-67 178-56 190.50Q-45 203-45 224Q-34 232-16 232Q20 232 39 192.50Q58 153 66 90Q74 27 83-97Q89-197 94-245L100-317Q105-392 112-458L24-457L29-500L117-500Q135-624 180-692Q225-760 320-760Z"/><path id="s67:lora-italic:281" d="M199-500L358-500L355-462L195-460L188-396Q166-206 166-127Q166-88 175-64Q184-40 213-40Q265-40 307-110L333-93Q302-40 268.50-14.50Q235 11 189 11Q134 11 109.50-22Q85-55 85-107Q85-165 92-259.50Q99-354 111-459L22-458L25-500Q85-500 122-535.50Q159-571 179-641L217-641L199-500Z"/><path id="s67:lora-italic:217" d="M190-727Q213-727 228-711Q243-695 243-670Q243-645 227-629.50Q211-614 189-614Q167-614 151.50-629.50Q136-645 136-670Q136-695 152-711Q168-727 190-727M133-511Q174-511 195.50-483Q217-455 217-407Q217-368 200-270Q190-207 184.50-164.50Q179-122 179-81Q179-39 210-39Q229-39 249-63Q269-87 283-136L311-130Q299-76 268-32.50Q237 11 187 11Q97 11 97-83Q97-122 102-159Q107-196 117-251Q127-312 131.50-345.50Q136-379 136-416Q136-433 129.50-447Q123-461 108-461Q89-461 69-437Q49-413 35-364L7-370Q16-419 48-465Q80-511 133-511Z"/><path id="s67:lora-italic:307" d="M386-511Q428-511 447-474Q466-437 466-383Q466-292 430-192.50Q394-93 333 17Q261 149 196 210Q131 271 69 271Q33 271 10.50 253Q-12 235-12 208Q-12 187 1 174.50Q14 162 29 162Q50 162 61.50 175.50Q73 189 72 214Q86 221 94 221Q132 223 175.50 173Q219 123 247 75Q229-48 197-173Q165-298 125-395Q113-421 104-433.50Q95-446 79-446Q62-446 51.50-425Q41-404 41-368Q41-351 42-342L10-338Q9-348 9-368Q9-427 30.50-469Q52-511 101-511Q146-511 171-479.50Q196-448 214-398Q234-344 250-281.50Q266-219 288-121Q294-92 303-19L305-19Q353-103 386-195.50Q419-288 419-363Q419-387 414.50-406Q410-425 404-434Q395-428 379-428Q361-428 350-439.50Q339-451 339-467Q339-488 353-499.50Q367-511 386-511Z"/><path id="s67:lora-italic:619" d="M105-110Q128-110 142.50-93Q157-76 157-51Q157-23 139-3.50Q121 16 97 16Q74 16 58.50-1.50Q43-19 43-45Q43-72 62-91Q81-110 105-110Z"/><path id="s67:lora-italic:306" d="M461-511Q487-511 501-497.50Q515-484 515-462Q515-445 503-432Q491-419 474-419Q455-419 446.50-427Q438-435 428-449Q373-441 302-265L309-247Q350-141 377-95.50Q404-50 428-50Q464-50 479-129L507-125Q489 11 407 11Q373 11 352-4.50Q331-20 309.50-62.50Q288-105 250-202L249-202Q218-110 188-63.50Q158-17 132.50-3Q107 11 77 11Q49 11 32-3Q15-17 15-40Q15-60 27-73Q39-86 56-86Q91-86 94-45Q155-32 230-252Q210-306 204-324Q176-400 162.50-425Q149-450 129-450Q83-450 78-352L49-351Q49-409 72.50-460Q96-511 155-511Q185-511 203.50-495Q222-479 234-451.50Q246-424 266-366Q272-345 284-314L285-314Q331-429 376.50-470Q422-511 461-511Z"/><path id="s67:lora-italic:184" d="M278-511Q320-511 354.50-495.50Q389-480 408.50-453.50Q428-427 428-394Q428-371 416-358Q404-345 384-345Q364-345 353.50-358Q343-371 343-385Q343-409 356-423Q351-450 329.50-463Q308-476 277-476Q198-476 162.50-402Q127-328 127-231Q127-131 159.50-84.50Q192-38 249-38Q293-38 334-67.50Q375-97 402-164L437-147Q401-64 348-26.50Q295 11 232 11Q141 11 90-43.50Q39-98 39-208Q39-278 65.50-348Q92-418 146-464.50Q200-511 278-511Z"/><path id="s67:lora-italic:54" d="M534-525L501-525Q505-607 469.50-637Q434-667 370-665L297-663Q264-662 248.50-649.50Q233-637 228.50-615.50Q224-594 222-552L212-368L290-368Q329-369 350-375.50Q371-382 382-402Q393-422 395-462L428-462L417-243L384-243Q386-283 377-301.50Q368-320 348-325.50Q328-331 288-331Q249-331 210-328L199-119Q198-72 192-40L294-44L292 0L41 0L43-33Q78-34 93.50-49Q109-64 112.50-85Q116-106 118-156L142-588Q143-622 149-660L76-656L78-700L538-700L534-525Z"/><path id="s67:lora-italic:614" d="M99-98Q128-98 145.50-76Q163-54 163-20Q163 22 141.50 79Q120 136 81 179L56 159Q76 135 94 91.50Q112 48 112 8L112 0L110 0Q99 4 87 4Q69 4 56-10Q43-24 43-42Q43-68 59-83Q75-98 99-98Z"/></defs><g id="line-0"><use x="0" y="824.5" xlink:href="#s67:lora-italic:123"/><use x="636" y="824.5" xlink:href="#s67:lora-italic:215"/><use x="1208" y="824.5" xlink:href="#s67:lora-italic:193"/><use x="1685" y="824.5" xlink:href="#s67:lora-italic:3"/><use x="1948" y="824.5" xlink:href="#s67:lora-italic:37"/><use x="2567" y="824.5" xlink:href="#s67:lora-italic:285"/><use x="3160" y="824.5" xlink:href="#s67:lora-italic:270"/><use x="3615" y="824.5" xlink:href="#s67:lora-italic:244"/><use x="4136" y="824.5" xlink:href="#s67:lora-italic:267"/><use x="4707" y="824.5" xlink:href="#s67:lora-italic:193"/><use x="5184" y="824.5" xlink:href="#s67:lora-italic:160"/><use x="5732" y="824.5" xlink:href="#s67:lora-italic:238"/><use x="6347" y="824.5" xlink:href="#s67:lora-italic:3"/><use x="6610" y="824.5" xlink:href="#s67:lora-italic:232"/><use x="6893" y="824.5" xlink:href="#s67:lora-italic:160"/><use x="7441" y="824.5" xlink:href="#s67:lora-italic:238"/><use x="8056" y="824.5" xlink:href="#s67:lora-italic:211"/><use x="8574" y="824.5" xlink:href="#s67:lora-italic:285"/><use x="9167" y="824.5" xlink:href="#s67:lora-italic:160"/><use x="9715" y="824.5" xlink:href="#s67:lora-italic:211"/><use x="10233" y="824.5" xlink:href="#s67:lora-italic:193"/><use x="10710" y="824.5" xlink:href="#s67:lora-italic:274"/><use x="11138" y="824.5" xlink:href="#s67:lora-italic:3"/><use x="11401" y="824.5" xlink:href="#s67:lora-italic:160"/><use x="11949" y="824.5" xlink:href="#s67:lora-italic:270"/><use x="12404" y="824.5" xlink:href="#s67:lora-italic:193"/><use x="12881" y="824.5" xlink:href="#s67:lora-italic:3"/><use x="13144" y="824.5" xlink:href="#s67:lora-italic:237"/><use x="14020" y="824.5" xlink:href="#s67:lora-italic:193"/><use x="14497" y="824.5" xlink:href="#s67:lora-italic:237"/><use x="15373" y="824.5" xlink:href="#s67:lora-italic:183"/><use x="15884" y="824.5" xlink:href="#s67:lora-italic:193"/><use x="16361" y="824.5" xlink:href="#s67:lora-italic:270"/><use x="16816" y="824.5" xlink:href="#s67:lora-italic:274"/><use x="17244" y="824.5" xlink:href="#s67:lora-italic:3"/><use x="17507" y="824.5" xlink:href="#s67:lora-italic:244"/><use x="18028" y="824.5" xlink:href="#s67:lora-italic:210"/><use x="18353" y="824.5" xlink:href="#s67:lora-italic:3"/><use x="18616" y="824.5" xlink:href="#s67:lora-italic:281"/><use x="18980" y="824.5" xlink:href="#s67:lora-italic:215"/><use x="19552" y="824.5" xlink:href="#s67:lora-italic:193"/><use x="20029" y="824.5" xlink:href="#s67:lora-italic:3"/><use x="20292" y="824.5" xlink:href="#s67:lora-italic:274"/><use x="20720" y="824.5" xlink:href="#s67:lora-italic:160"/><use x="21268" y="824.5" xlink:href="#s67:lora-italic:237"/><use x="22144" y="824.5" xlink:href="#s67:lora-italic:193"/><use x="22621" y="824.5" xlink:href="#s67:lora-italic:3"/><use x="22884" y="824.5" xlink:href="#s67:lora-italic:210"/><use x="23209" y="824.5" xlink:href="#s67:lora-italic:160"/><use x="23757" y="824.5" xlink:href="#s67:lora-italic:237"/><use x="24633" y="824.5" xlink:href="#s67:lora-italic:217"/><use x="24957" y="824.5" xlink:href="#s67:lora-italic:232"/><use x="25240" y="824.5" xlink:href="#s67:lora-italic:307"/><use x="25754" y="824.5" xlink:href="#s67:lora-italic:619"/></g><g id="line-1"><use x="5150.5" y="2024.5" xlink:href="#s67:lora-italic:123"/><use x="5786.5" y="2024.5" xlink:href="#s67:lora-italic:215"/><use x="6358.5" y="2024.5" xlink:href="#s67:lora-italic:193"/><use x="6835.5" y="2024.5" xlink:href="#s67:lora-italic:217"/><use x="7159.5" y="2024.5" xlink:href="#s67:lora-italic:270"/><use x="7614.5" y="2024.5" xlink:href="#s67:lora-italic:3"/><use x="7877.5" y="2024.5" xlink:href="#s67:lora-italic:274"/><use x="8305.5" y="2024.5" xlink:href="#s67:lora-italic:193"/><use x="8782.5" y="2024.5" xlink:href="#s67:lora-italic:267"/><use x="9353.5" y="2024.5" xlink:href="#s67:lora-italic:160"/><use x="9901.5" y="2024.5" xlink:href="#s67:lora-italic:270"/><use x="10356.5" y="2024.5" xlink:href="#s67:lora-italic:160"/><use x="10904.5" y="2024.5" xlink:href="#s67:lora-italic:281"/><use x="11268.5" y="2024.5" xlink:href="#s67:lora-italic:193"/><use x="11745.5" y="2024.5" xlink:href="#s67:lora-italic:3"/><use x="12008.5" y="2024.5" xlink:href="#s67:lora-italic:193"/><use x="12485.5" y="2024.5" xlink:href="#s67:lora-italic:306"/><use x="13030.5" y="2024.5" xlink:href="#s67:lora-italic:217"/><use x="13354.5" y="2024.5" xlink:href="#s67:lora-italic:274"/><use x="13782.5" y="2024.5" xlink:href="#s67:lora-italic:281"/><use x="14146.5" y="2024.5" xlink:href="#s67:lora-italic:193"/><use x="14623.5" y="2024.5" xlink:href="#s67:lora-italic:238"/><use x="15238.5" y="2024.5" xlink:href="#s67:lora-italic:184"/><use x="15711.5" y="2024.5" xlink:href="#s67:lora-italic:193"/><use x="16188.5" y="2024.5" xlink:href="#s67:lora-italic:3"/><use x="16451.5" y="2024.5" xlink:href="#s67:lora-italic:217"/><use x="16775.5" y="2024.5" xlink:href="#s67:lora-italic:274"/><use x="17203.5" y="2024.5" xlink:href="#s67:lora-italic:3"/><use x="17466.5" y="2024.5" xlink:href="#s67:lora-italic:160"/><use x="18014.5" y="2024.5" xlink:href="#s67:lora-italic:3"/><use x="18277.5" y="2024.5" xlink:href="#s67:lora-italic:237"/><use x="19153.5" y="2024.5" xlink:href="#s67:lora-italic:307"/><use x="19667.5" y="2024.5" xlink:href="#s67:lora-italic:281"/><use x="20031.5" y="2024.5" xlink:href="#s67:lora-italic:215"/><use x="20603.5" y="2024.5" xlink:href="#s67:lora-italic:619"/></g><g id="line-2"><use x="6427" y="3224.5" xlink:href="#s67:lora-italic:54"/><use x="6968" y="3224.5" xlink:href="#s67:lora-italic:244"/><use x="7489" y="3224.5" xlink:href="#s67:lora-italic:270"/><use x="7944" y="3224.5" xlink:href="#s67:lora-italic:3"/><use x="8207" y="3224.5" xlink:href="#s67:lora-italic:274"/><use x="8635" y="3224.5" xlink:href="#s67:lora-italic:184"/><use x="9108" y="3224.5" xlink:href="#s67:lora-italic:217"/><use x="9432" y="3224.5" xlink:href="#s67:lora-italic:193"/><use x="9909" y="3224.5" xlink:href="#s67:lora-italic:238"/><use x="10524" y="3224.5" xlink:href="#s67:lora-italic:184"/><use x="10997" y="3224.5" xlink:href="#s67:lora-italic:193"/><use x="11474" y="3224.5" xlink:href="#s67:lora-italic:614"/><use x="11711" y="3224.5" xlink:href="#s67:lora-italic:3"/><use x="11974" y="3224.5" xlink:href="#s67:lora-italic:237"/><use x="12850" y="3224.5" xlink:href="#s67:lora-italic:285"/><use x="13443" y="3224.5" xlink:href="#s67:lora-italic:274"/><use x="13871" y="3224.5" xlink:href="#s67:lora-italic:217"/><use x="14195" y="3224.5" xlink:href="#s67:lora-italic:184"/><use x="14668" y="3224.5" xlink:href="#s67:lora-italic:614"/><use x="14905" y="3224.5" xlink:href="#s67:lora-italic:3"/><use x="15168" y="3224.5" xlink:href="#s67:lora-italic:274"/><use x="15596" y="3224.5" xlink:href="#s67:lora-italic:267"/><use x="16167" y="3224.5" xlink:href="#s67:lora-italic:244"/><use x="16688" y="3224.5" xlink:href="#s67:lora-italic:270"/><use x="17143" y="3224.5" xlink:href="#s67:lora-italic:281"/><use x="17507" y="3224.5" xlink:href="#s67:lora-italic:614"/><use x="17744" y="3224.5" xlink:href="#s67:lora-italic:3"/><use x="18007" y="3224.5" xlink:href="#s67:lora-italic:193"/><use x="18484" y="3224.5" xlink:href="#s67:lora-italic:281"/><use x="18848" y="3224.5" xlink:href="#s67:lora-italic:184"/><use x="19321" y="3224.5" xlink:href="#s67:lora-italic:614"/></g></svg>