<svg xmlns="http://www.w3.org/2000/svg" xmlns:xlink="http://www.w3.org/1999/xlink" width="628" height="86" viewBox="0 0 26163 3570"><defs><path id="s36:lora-bolditalic:123" d="M644-474L578-474Q582-553 551.50-593.50Q521-634 463-633L415-633L391-164Q388-107 382-74Q414-77 462-77L458 0L168 0L172-66Q199-67 213.50-72.50Q228-78 237-96Q246-114 248-153L273-632L227-632Q168-631 133.50-592Q99-553 95-474L29-474L46-700L650-700L644-474Z"/><path id="s36:lora-bolditalic:215" d="M228-700Q218-612 210-551Q207-522 199.50-464Q192-406 182-360L183-360Q215-443 259.50-477Q304-511 354-511Q416-511 446-470.50Q476-430 476-357Q476-321 464-233Q451-151 451-108Q451-82 466-82Q492-82 514-161L568-145Q562-112 542.50-76Q523-40 491-14.50Q459 11 417 11Q364 11 343-17Q322-45 322-102Q322-147 336-255Q338-272 342.50-313.50Q347-355 347-377Q347-400 340.50-409.50Q334-419 319-419Q290-419 257-362Q224-305 201.50-222.50Q179-140 179-72Q179-48 182 0L54 0Q51-28 51-48Q51-163 60.50-311Q70-459 82-559Q87-616 95-652L25-649L29-725Q92-725 130-734Q168-743 181-755L235-755L228-700Z"/><path id="s36:lora-bolditalic:193" d="M280-511Q349-511 389.50-480Q430-449 430-385Q430-312 354-275Q278-238 164-222Q164-144 190-112.50Q216-81 254-81Q288-81 324-101.50Q360-122 384-177L440-150Q400-58 346-23.50Q292 11 224 11Q131 11 79-44Q27-99 27-207Q27-277 55-347Q83-417 140-464Q197-511 280-511M269-445Q223-445 198.50-399Q174-353 167-287Q243-301 278-329.50Q313-358 313-397Q313-421 299.50-433Q286-445 269-445Z"/><path id="s36:lora-bolditalic:3" d=""/><path id="s36:lora-bolditalic:37" d="M565-506L500-506Q503-580 469-608.50Q435-637 385-635L349-634Q325-633 310.50-627.50Q296-622 287.50-603Q279-584 277-547L270-397L387-397L387-484L464-484L452-241L386-241Q388-281 376.50-300Q365-319 345-324.50Q325-330 292-329L266-328L257-164Q254-102 249-76L383-76Q434-76 471-110.50Q508-145 512-220L578-220L561 0L35 0L39-66Q65-67 79.50-72.50Q94-78 103-96Q112-114 114-153L134-536Q137-593 143-626L68-623L72-700L570-700L565-506Z"/><path id="s36:lora-bolditalic:285" d="M150-511Q203-511 224-483Q245-455 245-398Q245-353 231-245Q219-149 219-123Q219-101 225.50-91Q232-81 247-81Q274-81 305.50-138Q337-195 358.50-277.50Q380-360 380-428Q380-476 377-500L506-500Q509-472 509-452Q509-420 502-358.50Q495-297 487-238Q472-129 472-108Q472-82 486-82Q512-82 534-161L588-145Q577-86 545-37.50Q513 11 455 11Q418 11 394.50-10Q371-31 371-80Q371-98 373-116.50Q375-135 376-145L375-145Q316 11 211 11Q149 11 120-29.50Q91-70 91-143Q91-175 97-217Q103-259 104-268Q117-350 117-392Q117-418 101-418Q75-418 53-339L-1-355Q5-388 24.50-424Q44-460 76-485.50Q108-511 150-511Z"/><path id="s36:lora-bolditalic:270" d="M381-511Q419-511 442-490Q465-469 465-435Q465-408 446-387.50Q427-367 398-367Q375-367 358.50-381.50Q342-396 343-419Q316-422 287-365.50Q258-309 239-225.50Q220-142 220-72Q220-48 223 0L92 0Q89-28 89-48Q89-80 96-141.50Q103-203 111-262Q113-280 119-327.50Q125-375 125-392Q125-418 111-418Q85-418 63-339L8-355Q21-415 52.50-463Q84-511 142-511Q179-511 202.50-490Q226-469 226-420Q226-385 216-331L217-331Q254-434 295.50-472.50Q337-511 381-511Z"/><path id="s36:lora-bolditalic:244" d="M279-511Q336-511 381.50-484.50Q427-458 453.50-407.50Q480-357 480-288Q480-208 449.50-139.50Q419-71 362-30Q305 11 229 11Q132 11 80-53Q28-117 28-216Q28-296 59-363.50Q90-431 147-471Q204-511 279-511M263-445Q234-445 211.50-418Q189-391 176.50-345Q164-299 164-244Q164-170 183-112.50Q202-55 245-55Q279-55 300.50-90Q322-125 332-175.50Q342-226 342-273Q342-342 324-393.50Q306-445 263-445Z"/><path id="s36:lora-bolditalic:267" d="M393-511Q464-511 502.50-459Q541-407 541-320Q541-223 509.50-148.50Q478-74 415-31.50Q352 11 259 11Q238 11 227 10L223 92Q220 142 215 182Q247 179 281 179L281 255L28 255L28 190Q62 190 74.50 168Q87 146 91 100Q126-278 126-389Q126-418 111-418Q85-418 63-339L9-355Q20-414 52.50-462.50Q85-511 143-511Q180-511 202.50-490Q225-469 225-420Q225-391 221-360L222-360Q254-442 300-476.50Q346-511 393-511M356-420Q307-420 276-329Q245-238 231-61Q252-55 271-55Q323-55 353-100.50Q383-146 394-206.50Q405-267 405-319Q405-420 356-420Z"/><path id="s36:lora-bolditalic:160" d="M327-511Q382-511 471-490L463-437Q461-419 443-291Q425-163 425-111Q425-82 439-82Q468-82 490-161L544-145Q533-88 498.50-38.50Q464 11 405 11Q325 11 325-80Q325-115 329-138L328-138Q294-56 251-22.50Q208 11 158 11Q100 11 62.50-35.50Q25-82 25-171Q25-264 61-341.50Q97-419 165.50-465Q234-511 327-511M290-445Q232-445 197-372.50Q162-300 162-166Q162-125 172-101.50Q182-78 200-78Q234-78 262.50-134.50Q291-191 309-275Q327-359 331-439Q310-445 290-445Z"/><path id="s36:lora-bolditalic:238" d="M392-511Q454-511 483-470.50Q512-430 512-357Q512-321 500-233Q487-151 487-108Q487-82 502-82Q528-82 550-161L604-145Q598-112 578.50-76Q559-40 527-14.50Q495 11 453 11Q400 11 379.50-17Q359-45 359-102Q359-147 373-255Q375-272 379.50-313.50Q384-355 384-377Q384-400 377.50-409.50Q371-419 356-419Q327-419 294.50-362Q262-305 240-223Q218-141 218-72Q218-48 221 0L92 0Q89-28 89-48Q89-80 96-141.50Q103-203 111-262Q113-280 119-327.50Q125-375 125-392Q125-418 111-418Q85-418 63-339L8-355Q21-415 52.50-463Q84-511 142-511Q179-511 202.50-490Q226-469 226-420Q226-401 223.50-384.50Q221-368 220-360L221-360Q280-511 392-511Z"/><path id="s36:lora-bolditalic:232" d="M243-755Q241-734 238-710Q235-686 232-660Q205-422 190.50-286Q176-150 176-111Q176-82 190-82Q217-82 239-161L293-145Q277-81 240.50-35Q204 11 139 11Q100 11 74.50-12.50Q49-36 49-85Q49-165 59.50-272.50Q70-380 91-559Q97-612 104-652L34-649L38-725Q100-725 137.50-734Q175-743 189-755L243-755Z"/><path id="s36:lora-bolditalic:211" d="M317-511Q345-511 387.50-505.50Q430-500 470-490Q465-396 455.50-258.50Q446-121 438-40Q424 111 364.50 191Q305 271 182 271Q106 271 62.50 244Q19 217 19 168Q19 142 36.50 118.50Q54 95 86 95Q113 95 131 112.50Q149 130 149 158Q149 175 143 188Q147 195 162.50 200Q178 205 191 205Q246 205 269 162Q292 119 302 33Q315-66 336-138L335-138Q300-56 257.50-22.50Q215 11 165 11Q106 11 66.50-36Q27-83 27-171Q27-267 58-344Q89-421 154-466Q219-511 317-511M293-445Q226-444 194.50-373.50Q163-303 163-166Q163-126 175-102Q187-78 206-78Q240-78 269-134.50Q298-191 316.50-275.50Q335-360 339-439Q333-441 319-443Q305-445 293-445Z"/><path id="s36:lora-bolditalic:274" d="M233-511Q274-511 313-497.50Q352-484 376.50-459Q401-434 401-401Q401-374 383.50-354.50Q366-335 338-335Q312-335 295-353Q278-371 278-396Q278-412 284-425Q276-435 260-440Q244-445 229-445Q205-445 183.50-430.50Q162-416 162-393Q162-378 168.50-368Q175-358 193.50-345Q212-332 255-307Q306-278 333.50-259Q361-240 382.50-210.50Q404-181 404-143Q404-99 377-64Q350-29 303.50-9Q257 11 200 11Q126 11 73.50-21Q21-53 21-105Q21-135 39.50-155Q58-175 85-175Q112-175 129-157Q146-139 146-113Q146-98 140-83Q145-73 166-64Q187-55 203-55Q244-55 263-72.50Q282-90 282-117Q282-134 268.50-149Q255-164 231-179Q207-194 181-208Q104-252 73.50-284.50Q43-317 43-367Q43-403 65.50-436Q88-469 131.50-490Q175-511 233-511Z"/><path id="s36:lora-bolditalic:237" d="M659-511Q721-511 750.50-470.50Q780-430 780-357Q780-321 768-233Q755-151 755-108Q755-82 770-82Q796-82 818-161L873-145Q866-112 846.50-76Q827-40 795-14.50Q763 11 721 11Q668 11 647.50-17Q627-45 627-102Q627-147 641-255Q643-272 647.50-313.50Q652-355 652-377Q652-400 646-409.50Q640-419 624-419Q595-419 563.50-363.50Q532-308 511-227Q490-146 490-77Q490-38 493 0L364 0Q361-28 361-67Q361-126 367.50-191Q374-256 375-266Q384-347 384-377Q384-400 377.50-409.50Q371-419 356-419Q327-419 294-362Q261-305 239-223Q217-141 217-72Q217-48 220 0L92 0Q89-28 89-48Q89-80 96-141.50Q103-203 111-262Q113-280 119-327.50Q125-375 125-392Q125-418 111-418Q85-418 63-339L8-355Q21-415 52.50-463Q84-511 142-511Q179-511 202.50-490Q226-469 226-420Q226-401 223.50-384.50Q221-368 220-360L221-360Q253-443 299-477Q345-511 395-511Q443-511 468-481Q493-451 493-396Q493-373 491-360L492-360Q551-511 659-511Z"/><path id="s36:lora-bolditalic:183" d="M225-755Q216-689 208-591L204-551L200-513Q193-437 186-393L187-393Q218-453 258.50-482Q299-511 335-511Q406-511 442-456.50Q478-402 478-320Q478-173 412-81Q346 11 207 11Q176 11 129 4Q82-3 47-16Q53-187 62-332.50Q71-478 73-513L76-560Q78-610 84-652L15-649L19-725Q81-725 119-734Q157-743 171-755L225-755M295-419Q263-419 235.50-370Q208-321 191-239.50Q174-158 172-64Q180-60 195.50-57.50Q211-55 221-55Q293-55 317-137.50Q341-220 341-325Q341-375 328-397Q315-419 295-419Z"/><path id="s36:lora-bolditalic:210" d="M329-760Q373-760 398-739.50Q423-719 423-686Q423-665 407.50-645Q392-625 363-625Q342-625 326.50-640Q311-655 311-678L312-687Q308-689 299-689Q269-689 257-637.50Q245-586 237-500L366-500L359-431L233-429Q227-330 216.50-198.50Q206-67 197 11Q167 271-20 271Q-65 271-90 251.50Q-115 232-115 199Q-115 177-99.50 156.50Q-84 136-55 136Q-34 136-18.50 151Q-3 166-3 189L-4 198Q2 200 9 200Q39 200 51 148.50Q63 97 71 11Q79-76 90-244L104-428L24-427L33-500L113-500Q142-760 329-760Z"/><path id="s36:lora-bolditalic:281" d="M233-500L358-500L352-431L227-429Q217-350 209-266.50Q201-183 201-151Q201-124 210.50-104.50Q220-85 249-85Q268-85 293.50-98.50Q319-112 339-148L390-116Q357-53 308-21Q259 11 202 11Q127 11 100-33Q73-77 75-151Q81-278 98-428L18-427L27-500Q97-500 134.50-540Q172-580 186-651L253-651L233-500Z"/><path id="s36:lora-bolditalic:217" d="M191-763Q223-763 243-740.50Q263-718 263-684Q263-648 240.50-623.50Q218-599 185-599Q152-599 131.50-621Q111-643 111-676Q111-711 135.50-737Q160-763 191-763M156-511Q206-511 227.50-481Q249-451 249-395Q249-365 241-304.50Q233-244 231-227Q229-214 223-169.50Q217-125 217-108Q217-82 232-82Q259-82 281-161L335-145Q329-112 309-76Q289-40 257-14.50Q225 11 183 11Q130 11 108.50-17Q87-45 87-102Q87-147 105-261Q120-359 120-392Q120-418 104-418Q78-418 56-339L2-355Q8-387 28.50-423.50Q49-460 81.50-485.50Q114-511 156-511Z"/><path id="s36:lora-bolditalic:307" d="M418-511Q469-511 494.50-470Q520-429 520-371Q520-275 459.50-119Q399 37 307 154Q215 271 123 271Q78 271 53 249.50Q28 228 28 193Q28 162 47.50 142.50Q67 123 92 123Q118 123 133.50 137Q149 151 153 177Q156 178 163 178Q194 178 230.50 137.50Q267 97 284 61Q260-90 141-364Q129-389 118.50-403.50Q108-418 94-418Q57-418 49-343L-7-351Q-1-409 35-460Q71-511 142-511Q221-511 265-407Q342-220 367-73L368-73Q428-207 436-316Q439-368 424-386Q419-385 410-385Q385-385 367-402Q349-419 349-443Q349-475 370-493Q391-511 418-511Z"/><path id="s36:lora-bolditalic:619" d="M105-140Q135-140 154-118.50Q173-97 173-66Q173-32 152-8Q131 16 98 16Q66 16 47-5Q28-26 28-58Q28-91 51.50-115.50Q75-140 105-140Z"/><path id="s36:lora-bolditalic:306" d="M432-511Q467-511 484.50-492.50Q502-474 502-443Q502-418 483.50-399Q465-380 439-380Q408-380 391-401Q377-390 362.50-363.50Q348-337 322-274Q357-177 389-120Q400-99 409-90.50Q418-82 427-82Q442-82 451-97.50Q460-113 465-157L521-149Q515-87 484.50-38Q454 11 383 11Q342 11 315-15.50Q288-42 270-86L238-161L237-161Q213-90 190-52Q167-14 144.50-1.50Q122 11 96 11Q60 11 38-8Q16-27 16-58Q16-88 34.50-108Q53-128 79-128Q101-128 115.50-117Q130-106 135-91Q149-100 165-135.50Q181-171 208-251Q195-287 186-314Q182-324 174.50-346Q167-368 160-384Q151-404 143-411Q135-418 124-418Q91-418 82-343L26-351Q32-410 67-460.50Q102-511 173-511Q212-511 233.50-489Q255-467 271-424Q282-396 293-356Q330-451 363.50-481Q397-511 432-511Z"/><path id="s36:lora-bolditalic:184" d="M273-511Q343-511 389-478Q435-445 435-391Q435-360 417-341Q399-322 369-322Q339-322 324-341Q309-360 309-381Q309-404 319-423Q314-432 301-438.50Q288-445 271-445Q212-445 188-373.50Q164-302 164-220Q164-147 191.50-114Q219-81 256-81Q290-81 324-104Q358-127 384-185L441-157Q401-65 346.50-27.50Q292 10 223 11Q132 10 79.50-44.50Q27-99 27-207Q27-276 55-346.50Q83-417 139-464Q195-511 273-511Z"/><path id="s36:lora-bolditalic:54" d="M565-506L500-506Q503-580 469-608.50Q435-637 385-635L349-634Q325-633 310.50-627.50Q296-622 287.50-603Q279-584 277-547L268-373L372-373Q371-393 371.50-408.50Q372-424 372-434L372-459L449-459L436-216L370-216Q372-256 360.50-275.50Q349-295 329-300Q309-305 277-304L265-304L257-164Q253-99 249-74Q280-77 337-77L333 0L35 0L39-66Q65-67 79.50-72.50Q94-78 103-96Q112-114 114-153L134-536Q137-593 143-626L68-623L72-700L570-700L565-506Z"/><path id="s36:lora-bolditalic:614" d="M105-137Q147-137 168-110.50Q189-84 189-41Q189 10 163 68.50Q137 127 86 187L49 159Q70 133 91.50 86.50Q113 40 114 1Q104 4 93 4Q65 4 46-11.50Q27-27 27-58Q27-91 49.50-114Q72-137 105-137Z"/></defs><g id="line-0"><use x="0" y="896" xlink:href="#s36:lora-bolditalic:123"/><use x="648" y="896" xlink:href="#s36:lora-bolditalic:215"/><use x="1222" y="896" xlink:href="#s36:lora-bolditalic:193"/><use x="1692" y="896" xlink:href="#s36:lora-bolditalic:3"/><use x="1955" y="896" xlink:href="#s36:lora-bolditalic:37"/><use x="2578" y="896" xlink:href="#s36:lora-bolditalic:285"/><use x="3176" y="896" xlink:href="#s36:lora-bolditalic:270"/><use x="3635" y="896" xlink:href="#s36:lora-bolditalic:244"/><use x="4150" y="896" xlink:href="#s36:lora-bolditalic:267"/><use x="4725" y="896" xlink:href="#s36:lora-bolditalic:193"/><use x="5195" y="896" xlink:href="#s36:lora-bolditalic:160"/><use x="5744" y="896" xlink:href="#s36:lora-bolditalic:238"/><use x="6354" y="896" xlink:href="#s36:lora-bolditalic:3"/><use x="6617" y="896" xlink:href="#s36:lora-bolditalic:232"/><use x="6920" y="896" xlink:href="#s36:lora-bolditalic:160"/><use x="7469" y="896" xlink:href="#s36:lora-bolditalic:238"/><use x="8079" y="896" xlink:href="#s36:lora-bolditalic:211"/><use x="8599" y="896" xlink:href="#s36:lora-bolditalic:285"/><use x="9197" y="896" xlink:href="#s36:lora-bolditalic:160"/><use x="9746" y="896" xlink:href="#s36:lora-bolditalic:211"/><use x="10266" y="896" xlink:href="#s36:lora-bolditalic:193"/><use x="10736" y="896" xlink:href="#s36:lora-bolditalic:274"/><use x="11182" y="896" xlink:href="#s36:lora-bolditalic:3"/><use x="11445" y="896" xlink:href="#s36:lora-bolditalic:160"/><use x="11994" y="896" xlink:href="#s36:lora-bolditalic:270"/><use x="12453" y="896" xlink:href="#s36:lora-bolditalic:193"/><use x="12923" y="896" xlink:href="#s36:lora-bolditalic:3"/><use x="13186" y="896" xlink:href="#s36:lora-bolditalic:237"/><use x="14064" y="896" xlink:href="#s36:lora-bolditalic:193"/><use x="14534" y="896" xlink:href="#s36:lora-bolditalic:237"/><use x="15412" y="896" xlink:href="#s36:lora-bolditalic:183"/><use x="15925" y="896" xlink:href="#s36:lora-bolditalic:193"/><use x="16395" y="896" xlink:href="#s36:lora-bolditalic:270"/><use x="16854" y="896" xlink:href="#s36:lora-bolditalic:274"/><use x="17300" y="896" xlink:href="#s36:lora-bolditalic:3"/><use x="17563" y="896" xlink:href="#s36:lora-bolditalic:244"/><use x="18078" y="896" xlink:href="#s36:lora-bolditalic:210"/><use x="18431" y="896" xlink:href="#s36:lora-bolditalic:3"/><use x="18694" y="896" xlink:href="#s36:lora-bolditalic:281"/><use x="19089" y="896" xlink:href="#s36:lora-bolditalic:215"/><use x="19663" y="896" xlink:href="#s36:lora-bolditalic:193"/><use x="20133" y="896" xlink:href="#s36:lora-bolditalic:3"/><use x="20396" y="896" xlink:href="#s36:lora-bolditalic:274"/><use x="20842" y="896" xlink:href="#s36:lora-bolditalic:160"/><use x="21391" y="896" xlink:href="#s36:lora-bolditalic:237"/><use x="22269" y="896" xlink:href="#s36:lora-bolditalic:193"/><use x="22739" y="896" xlink:href="#s36:lora-bolditalic:3"/><use x="23002" y="896" xlink:href="#s36:lora-bolditalic:210"/><use x="23355" y="896" xlink:href="#s36:lora-bolditalic:160"/><use x="23904" y="896" xlink:href="#s36:lora-bolditalic:237"/><use x="24782" y="896" xlink:href="#s36:lora-bolditalic:217"/><use x="25126" y="896" xlink:href="#s36:lora-bolditalic:232"/><use x="25429" y="896" xlink:href="#s36:lora-bolditalic:307"/><use x="25990" y="896" xlink:href="#s36:lora-bolditalic:619"/></g><g id="line-1"><use x="5152.5" y="2096" xlink:href="#s36:lora-bolditalic:123"/><use x="5800.5" y="2096" xlink:href="#s36:lora-bolditalic:215"/><use x="6374.5" y="2096" xlink:href="#s36:lora-bolditalic:193"/><use x="6844.5" y="2096" xlink:href="#s36:lora-bolditalic:217"/><use x="7188.5" y="2096" xlink:href="#s36:lora-bolditalic:270"/><use x="7647.5" y="2096" xlink:href="#s36:lora-bolditalic:3"/><use x="7910.5" y="2096" xlink:href="#s36:lora-bolditalic:274"/><use x="8356.5" y="2096" xlink:href="#s36:lora-bolditalic:193"/><use x="8826.5" y="2096" xlink:href="#s36:lora-bolditalic:267"/><use x="9401.5" y="2096" xlink:href="#s36:lora-bolditalic:160"/><use x="9950.5" y="2096" xlink:href="#s36:lora-bolditalic:270"/><use x="10409.5" y="2096" xlink:href="#s36:lora-bolditalic:160"/><use x="10958.5" y="2096" xlink:href="#s36:lora-bolditalic:281"/><use x="11353.5" y="2096" xlink:href="#s36:lora-bolditalic:193"/><use x="11823.5" y="2096" xlink:href="#s36:lora-bolditalic:3"/><use x="12086.5" y="2096" xlink:href="#s36:lora-bolditalic:193"/><use x="12556.5" y="2096" xlink:href="#s36:lora-bolditalic:306"/><use x="13099.5" y="2096" xlink:href="#s36:lora-bolditalic:217"/><use x="13443.5" y="2096" xlink:href="#s36:lora-bolditalic:274"/><use x="13889.5" y="2096" xlink:href="#s36:lora-bolditalic:281"/><use x="14284.5" y="2096" xlink:href="#s36:lora-bolditalic:193"/><use x="14754.5" y="2096" xlink:href="#s36:lora-bolditalic:238"/><use x="15364.5" y="2096" xlink:href="#s36:lora-bolditalic:184"/><use x="15831.5" y="2096" xlink:href="#s36:lora-bolditalic:193"/><use x="16301.5" y="2096" xlink:href="#s36:lora-bolditalic:3"/><use x="16564.5" y="2096" xlink:href="#s36:lora-bolditalic:217"/><use x="16908.5" y="2096" xlink:href="#s36:lora-bolditalic:274"/><use x="17354.5" y="2096" xlink:href="#s36:lora-bolditalic:3"/><use x="17617.5" y="2096" xlink:href="#s36:lora-bolditalic:160"/><use x="18166.5" y="2096" xlink:href="#s36:lora-bolditalic:3"/><use x="18429.5" y="2096" xlink:href="#s36:lora-bolditalic:237"/><use x="19307.5" y="2096" xlink:href="#s36:lora-bolditalic:307"/><use x="19868.5" y="2096" xlink:href="#s36:lora-bolditalic:281"/><use x="20263.5" y="2096" xlink:href="#s36:lora-bolditalic:215"/><use x="20837.5" y="2096" xlink:href="#s36:lora-bolditalic:619"/></g><g id="line-2"><use x="6453" y="3296" xlink:href="#s36:lora-bolditalic:54"/><use x="7019" y="3296" xlink:href="#s36:lora-bolditalic:244"/><use x="7534" y="3296" xlink:href="#s36:lora-bolditalic:270"/><use x="7993" y="3296" xlink:href="#s36:lora-bolditalic:3"/><use x="8256" y="3296" xlink:href="#s36:lora-bolditalic:274"/><use x="8702" y="3296" xlink:href="#s36:lora-bolditalic:184"/><use x="9169" y="3296" xlink:href="#s36:lora-bolditalic:217"/><use x="9513" y="3296" xlink:href="#s36:lora-bolditalic:193"/><use x="9983" y="3296" xlink:href="#s36:lora-bolditalic:238"/><use x="10593" y="3296" xlink:href="#s36:lora-bolditalic:184"/><use x="11060" y="3296" xlink:href="#s36:lora-bolditalic:193"/><use x="11530" y="3296" xlink:href="#s36:lora-bolditalic:614"/><use x="11779" y="3296" xlink:href="#s36:lora-bolditalic:3"/><use x="12042" y="3296" xlink:href="#s36:lora-bolditalic:237"/><use x="12920" y="3296" xlink:href="#s36:lora-bolditalic:285"/><use x="13518" y="3296" xlink:href="#s36:lora-bolditalic:274"/><use x="13964" y="3296" xlink:href="#s36:lora-bolditalic:217"/><use x="14308" y="3296" xlink:href="#s36:lora-bolditalic:184"/><use x="14775" y="3296" xlink:href="#s36:lora-bolditalic:614"/><use x="15024" y="3296" xlink:href="#s36:lora-bolditalic:3"/><use x="15287" y="3296" xlink:href="#s36:lora-bolditalic:274"/><use x="15733" y="3296" xlink:href="#s36:lora-bolditalic:267"/><use x="16308" y="3296" xlink:href="#s36:lora-bolditalic:244"/><use x="16823" y="3296" xlink:href="#s36:lora-bolditalic:270"/><use x="17282" y="3296" xlink:href="#s36:lora-bolditalic:281"/><use x="17677" y="3296" xlink:href="#s36:lora-bolditalic:614"/><use x="17926" y="3296" xlink:href="#s36:lora-bolditalic:3"/><use x="18189" y="3296" xlink:href="#s36:lora-bolditalic:193"/><use x="18659" y="3296" xlink:href="#s36:lora-bolditalic:281"/><use x="19054" y="3296" xlink:href="#s36:lora-bolditalic:184"/><use x="19521" y="3296" xlink:href="#s36:lora-bolditalic:614"/></g></svg>