<svg xmlns="http://www.w3.org/2000/svg" xmlns:xlink="http://www.w3.org/1999/xlink" width="636" height="84" viewBox="0 0 54275 7209.2" ><defs><path id="s73:merriweather-italic:122" d="M446-117L611-1414L295-1394L199-1053L83-1051L160-1522L1308-1522L1241-1051L1130-1051L1137-1393L816-1414L650-117L900-94L893 0L193 0L202-94L446-117Z"/><path id="s73:merriweather-italic:202" d="M821-480Q843-595 856.50-685Q870-775 870-849Q870-916 855.50-950Q841-984 817.50-993.50Q794-1003 757-1003Q681-1003 587-933Q493-863 417-755L317 0L117 0L310-1482L191-1525L208-1608L480-1650L532-1623L438-912Q522-1024 629-1093.50Q736-1163 848-1163Q959-1163 1017.50-1093Q1076-1023 1076-861Q1076-796 1062.50-712Q1049-628 1025-505L1020-477Q987-286 980-187Q978-149 983-130.50Q988-112 1002-112Q1019-112 1042.50-124Q1066-136 1108-167L1139-114Q1129-96 1091.50-63.50Q1054-31 1001-5.50Q948 20 892 20Q826 20 793.50-11.50Q761-43 765-113Q768-161 776.50-219.50Q785-278 802-374L814-443L821-480Z"/><path id="s73:merriweather-italic:184" d="M677-1163Q771-1163 835.50-1130.50Q900-1098 931.50-1041.50Q963-985 963-913Q963-770 846-669Q729-568 571.50-516Q414-464 300-460Q298-434 298-419Q298-348 320-279.50Q342-211 390.50-165.50Q439-120 514-120Q596-120 684-156Q772-192 852-267L899-183Q867-139 805.50-92Q744-45 661-12.50Q578 20 487 20Q351 20 259.50-43Q168-106 125-208.50Q82-311 85-430Q90-619 169-788Q248-957 382-1060Q516-1163 677-1163M754-896Q753-971 719.50-1008Q686-1045 629-1045Q536-1045 466-966.50Q396-888 356-777.50Q316-667 305-570Q393-574 498.50-615Q604-656 679-729Q754-802 754-896Z"/><path id="s73:merriweather-italic:3" d=""/><path id="s73:merriweather-italic:34" d="M185-116L345-1398L212-1421L224-1522L1158-1522L1150-1210L1039-1210L992-1399L555-1414L483-855L931-863L918-704L471-721L388-117L935-141L1054-352L1163-322L1075 0L25 0L36-87L185-116Z"/><path id="s73:merriweather-italic:274" d="M249-963L149-1023L167-1112L416-1163L464-1139L395-589Q392-565 389.50-546Q387-527 385-511Q374-433 369.50-385Q365-337 365-286Q365-189 400-153.50Q435-118 506-118Q572-118 642-164Q712-210 764-278L880-1155L1079-1155L954-191Q951-172 951-157Q951-115 976-115Q993-115 1016.50-129Q1040-143 1082-181L1113-127Q1100-107 1062.50-72Q1025-37 972-9.50Q919 18 864 18Q808 18 778-11Q748-40 748-92Q748-110 753-137L752-146Q609 20 420 20Q297 20 230-43Q163-106 163-254Q163-312 171.50-389Q180-466 198-597L249-963Z"/><path id="s73:merriweather-italic:255" d="M155-1022L173-1111L419-1163L467-1139L446-910Q471-960 521-1018.50Q571-1077 645.50-1119.50Q720-1162 807-1162Q855-1162 868-1149L823-935Q795-950 720-950Q638-950 556.50-895Q475-840 423-720L333 0L133 0L255-962L155-1022Z"/><path id="s73:merriweather-italic:239" d="M655-1163Q848-1163 951.50-1039Q1055-915 1055-690Q1055-509 981-345Q907-181 776.50-80.50Q646 20 484 20Q291 20 188-103.50Q85-227 85-452Q85-633 159-797Q233-961 363.50-1062Q494-1163 655-1163M840-683Q840-854 784-947Q728-1040 619-1040Q515-1040 443-952.50Q371-865 335-732Q299-599 299-463Q299-289 354-195.50Q409-102 519-102Q623-102 696-190.50Q769-279 804.50-413Q840-547 840-683Z"/><path id="s73:merriweather-italic:251" d="M232 520L37 520L240-980L131-1032L149-1111L407-1163L454-1139L440-1007Q493-1075 569-1119Q645-1163 735-1163Q847-1163 923.50-1108Q1000-1053 1038-955.50Q1076-858 1076-730Q1076-566 997.50-390.50Q919-215 773-97.50Q627 20 436 20Q376 20 303 5L232 520M323-137Q374-102 467-102Q596-102 686.50-199.50Q777-297 821-440Q865-583 865-717Q865-860 820.50-939.50Q776-1019 698-1019Q620-1019 546.50-968.50Q473-918 422-850L323-137Z"/><path id="s73:merriweather-italic:156" d="M732-1163Q778-1163 831-1153Q884-1143 931-1128L1052-1162L921-189Q920-181 920-168Q920-141 929-127Q938-113 951-113Q966-113 986-123Q1006-133 1039-159L1070-105Q1061-88 1027.50-58Q994-28 945.50-4Q897 20 845 20Q781 20 746.50-12.50Q712-45 716-115L723-181Q657-96 571-38Q485 20 394 20Q233 20 157.50-96Q82-212 82-412Q82-575 161.50-751Q241-927 389.50-1045Q538-1163 732-1163M830-1009Q781-1040 701-1040Q568-1040 476-944.50Q384-849 338.50-708.50Q293-568 293-435Q293-123 435-123Q514-123 598.50-192.50Q683-262 744-349L830-1009Z"/><path id="s73:merriweather-italic:231" d="M165-1022L183-1111L430-1163L478-1139L458-927Q543-1032 650.50-1097.50Q758-1163 865-1163Q975-1163 1033.50-1093Q1092-1023 1092-861Q1092-807 1081.50-737.50Q1071-668 1052-566Q1043-520 1041-505Q1021-392 1010.50-323Q1000-254 997-187Q996-179 996-164Q996-138 1001-125Q1006-112 1018-112Q1048-112 1105-158L1136-105Q1126-88 1091.50-57.50Q1057-27 1008.50-3Q960 21 908 21Q842 21 810-11Q778-43 782-113Q785-168 795.50-236Q806-304 825-408L831-443Q832-450 842-502Q864-621 875.50-700.50Q887-780 887-849Q887-918 873.50-951Q860-984 837.50-993.50Q815-1003 774-1003Q700-1003 605.50-934Q511-865 436-759L333 0L133 0L263-963L165-1022Z"/><path id="s73:merriweather-italic:222" d="M329-1482L206-1525L227-1608L495-1650L543-1623L342-189Q340-178 340-159Q340-137 346-125Q352-113 363-113Q381-113 405.50-126.50Q430-140 470-178L501-125Q489-105 453-70Q417-35 365.50-7.50Q314 20 259 20Q197 20 168.50-11.50Q140-43 140-115Q140-155 146-192L329-1482Z"/><path id="s73:merriweather-italic:196" d="M732-1163Q788-1163 845-1151Q902-1139 950-1121L1072-1163L880 77Q857 225 769 322Q681 419 565.50 463.50Q450 508 339 508Q276 508 213 497.50Q150 487 118 473L168 287Q219 311 292.50 330.50Q366 350 436 350Q523 350 567.50 333Q612 316 634 274Q656 232 670 145L715-130Q659-65 581.50-22.50Q504 20 413 20Q304 20 229.50-35Q155-90 118.50-187Q82-284 82-412Q82-575 161.50-751Q241-927 389.50-1045Q538-1163 732-1163M842-1001Q791-1040 701-1040Q568-1040 476-942.50Q384-845 338.50-701.50Q293-558 293-425Q293-282 335-202.50Q377-123 450-123Q532-123 611-176.50Q690-230 740-300L842-1001Z"/><path id="s73:merriweather-italic:259" d="M77-192Q118-164 191-140Q264-116 345-116Q430-116 486-144Q542-172 542-259Q542-310 518-352.50Q494-395 458.50-427Q423-459 366-501Q286-560 221.50-646Q157-732 157-838Q157-934 210.50-1008Q264-1082 353-1122.50Q442-1163 546-1163Q621-1163 697.50-1151Q774-1139 802-1126L764-957Q757-968 725-986.50Q693-1005 644-1019Q595-1033 538-1033Q465-1033 413-1002.50Q361-972 353-899Q352-892 352-878Q352-814 395-758.50Q438-703 512-646Q581-592 626-547Q671-502 703-439.50Q735-377 735-299Q735-199 680.50-126.50Q626-54 534.50-17Q443 20 335 20Q245 20 156 2Q67-16 40-39L77-192Z"/><path id="s73:merriweather-italic:229" d="M841-443Q882-695 882-849Q882-918 870-951Q858-984 836-993.50Q814-1003 774-1003Q700-1003 605.50-934Q511-865 436-759L333 0L133 0L263-963L164-1022L182-1111L429-1163L477-1139L458-927Q543-1032 650-1097.50Q757-1163 864-1163Q964-1163 1020-1105.50Q1076-1048 1085-915Q1166-1025 1270.50-1094Q1375-1163 1481-1163Q1586-1163 1647.50-1089Q1709-1015 1709-861Q1709-808 1700-741.50Q1691-675 1673-564Q1669-544 1663-506Q1645-396 1635.50-326.50Q1626-257 1621-188L1620-166Q1620-113 1642-113Q1660-113 1683.50-126.50Q1707-140 1750-178L1781-125Q1767-103 1731-69Q1695-35 1643.50-7.50Q1592 20 1536 20Q1472 20 1441.50-11.50Q1411-43 1414-111Q1417-176 1427-252Q1437-328 1456-450L1464-499Q1483-609 1493.50-692.50Q1504-776 1504-848Q1504-915 1491-948.50Q1478-982 1457-991.50Q1436-1001 1403-1001Q1332-1001 1245-934Q1158-867 1083-763Q1073-644 1052-505L988 0L785 0L841-443Z"/><path id="s73:merriweather-italic:169" d="M225-1527L246-1611L491-1650L542-1623L459-1002Q513-1071 591-1117Q669-1163 761-1163Q873-1163 949.50-1108Q1026-1053 1063.50-955.50Q1101-858 1101-730Q1101-566 1022.50-390.50Q944-215 798.50-97.50Q653 20 462 20Q405 20 338.50 7Q272-6 223-24L123 20L320-1484L225-1527M343-142Q396-102 493-102Q622-102 712.50-199.50Q803-297 847-440Q891-583 891-717Q891-860 846.50-939.50Q802-1019 724-1019Q641-1019 562.50-961.50Q484-904 436-832L343-142Z"/><path id="s73:merriweather-italic:194" d="M128-1011L143-1087L292-1149L304-1220Q324-1341 388.50-1444.50Q453-1548 542.50-1609Q632-1670 725-1670Q771-1670 809.50-1664.50Q848-1659 883-1644L824-1476Q794-1497 762.50-1510.50Q731-1524 685-1524Q610-1524 565.50-1450Q521-1376 504-1245L492-1155L726-1155L709-1011L474-1011L341 50Q324 186 270 290.50Q216 395 134.50 453.50Q53 512-44 513Q-94 514-140 510Q-186 506-209 500L-156 331Q-136 340-79.50 355Q-23 370 9 369Q55 369 84 304Q113 239 128 128L266-1011L128-1011Z"/><path id="s73:merriweather-italic:268" d="M251-1015L131-1015L151-1103L274-1150Q304-1184 340.50-1258.50Q377-1333 409-1416L507-1416L473-1155L733-1155L713-1015L456-1015L373-390Q356-263 356-214Q356-176 363-156.50Q370-137 387.50-129Q405-121 440-121Q476-121 535.50-148.50Q595-176 631-204L649-126Q625-96 570.50-61.50Q516-27 451-3.50Q386 20 331 20Q248 20 198-21.50Q148-63 148-159Q148-199 161-296L251-1015Z"/><path id="s73:merriweather-italic:205" d="M139-1031L157-1112L463-1163L512-1139L373-189Q371-177 371-158Q371-113 396-113Q413-113 438-127.50Q463-142 502-179L534-125Q520-104 483.50-69.50Q447-35 395-7.50Q343 20 287 20Q160 20 160-96L161-113Q166-178 179-269.50Q192-361 223-562Q270-872 285-979L139-1031M328-1503Q328-1542 350-1576.50Q372-1611 406-1632Q440-1653 474-1653Q530-1653 564-1620.50Q598-1588 598-1541Q598-1501 577-1465Q556-1429 520.50-1407.50Q485-1386 445-1386Q397-1386 362.50-1420.50Q328-1455 328-1503Z"/><path id="s73:merriweather-italic:292" d="M178-963Q173-993 163.50-1006Q154-1019 138-1019Q123-1019 106-1012Q89-1005 57-978L28-1038Q39-1055 72.50-1085Q106-1115 152-1139Q198-1163 246-1163Q316-1163 344.50-1129Q373-1095 381-1026L422-680L468-293L488-21L643-331Q669-394 702-462Q748-561 774-625.50Q800-690 817.50-767Q835-844 835-928Q835-953 818-991Q809-1015 805-1028.50Q801-1042 801-1058Q801-1111 828-1136.50Q855-1162 900-1162Q1030-1162 1030-971Q1030-879 1001.50-781Q973-683 933.50-598Q894-513 830-391L796-325Q557 155 409 336Q361 404 268.50 455Q176 506 48 506Q16 506-39.50 497Q-95 488-126 478L-79 318Q-75 320-52 331Q-29 342 9.50 350.50Q48 359 91 359Q140 359 202.50 329.50Q265 300 330 231.50Q395 163 446 54L350 54L178-963Z"/><path id="s73:merriweather-italic:580" d="M245-254Q306-254 336.50-224.50Q367-195 367-147Q367-98 343-59.50Q319-21 279.50 0.50Q240 22 197 22Q147 22 116-7Q85-36 85-85Q85-131 108-169.50Q131-208 168-231Q205-254 245-254Z"/><path id="s73:merriweather-italic:291" d="M189 0L-25 0L409-590L225-973Q210-1004 197.50-1017Q185-1030 168-1030Q150-1030 130.50-1017.50Q111-1005 99-988L61-1044Q71-1062 100-1090Q129-1118 172-1140.50Q215-1163 265-1163Q329-1163 360-1138.50Q391-1114 409-1059L520-713L814-1155L1030-1155L584-556L783-172Q797-142 808.50-128Q820-114 834-114Q851-114 874.50-128Q898-142 938-179L974-123Q965-105 928.50-70Q892-35 840.50-7.50Q789 20 735 20Q693 20 667.50 7.50Q642-5 627.50-27Q613-49 600-85L472-434L189 0Z"/><path id="s73:merriweather-italic:171" d="M76-431Q76-594 146-764.50Q216-935 350.50-1049Q485-1163 668-1163Q723-1163 785-1149.50Q847-1136 889-1115L830-916Q826-919 807-933Q704-1016 621-1016Q522-1016 447.50-951Q373-886 332-761Q291-636 291-460Q291-288 344.50-204.50Q398-121 494-121Q564-121 619-146Q674-171 762-235L802-153Q748-89 654.50-34.50Q561 20 435 20Q323 20 242-33.50Q161-87 118.50-188.50Q76-290 76-431Z"/><path id="s73:merriweather-italic:44" d="M185-117L345-1398L212-1421L224-1522L1200-1522L1177-1209L1052-1209L1023-1393L551-1412L483-854L954-863L941-702L471-720L389-119L658-88L650 0L28 0L36-88L185-117Z"/><path id="s73:merriweather-italic:574" d="M241-266Q320-231 360-148.50Q400-66 400 33Q400 141 352.50 236.50Q305 332 226 400.50Q147 469 55 502L-8 422L-5 401Q71 360 124 278Q177 196 177 88Q177 24 149-28.50Q121-81 82-97L83-142L241-266Z"/></defs><g id="line-0"><use x="0" y="1734" xlink:href="#s73:merriweather-italic:122" /><use x="1234" y="1734" xlink:href="#s73:merriweather-italic:202" /><use x="2475" y="1734" xlink:href="#s73:merriweather-italic:184" /><use x="3527" y="1734" xlink:href="#s73:merriweather-italic:3" /><use x="4012" y="1734" xlink:href="#s73:merriweather-italic:34" /><use x="5244" y="1734" xlink:href="#s73:merriweather-italic:274" /><use x="6454" y="1734" xlink:href="#s73:merriweather-italic:255" /><use x="7291" y="1734" xlink:href="#s73:merriweather-italic:239" /><use x="8436" y="1734" xlink:href="#s73:merriweather-italic:251" /><use x="9598" y="1734" xlink:href="#s73:merriweather-italic:184" /><use x="10650" y="1734" xlink:href="#s73:merriweather-italic:156" /><use x="11825" y="1734" xlink:href="#s73:merriweather-italic:231" /><use x="13085" y="1734" xlink:href="#s73:merriweather-italic:3" /><use x="13570" y="1734" xlink:href="#s73:merriweather-italic:222" /><use x="14177" y="1734" xlink:href="#s73:merriweather-italic:156" /><use x="15352" y="1734" xlink:href="#s73:merriweather-italic:231" /><use x="16612" y="1734" xlink:href="#s73:merriweather-italic:196" /><use x="17768" y="1734" xlink:href="#s73:merriweather-italic:274" /><use x="18978" y="1734" xlink:href="#s73:merriweather-italic:156" /><use x="20153" y="1734" xlink:href="#s73:merriweather-italic:196" /><use x="21309" y="1734" xlink:href="#s73:merriweather-italic:184" /><use x="22361" y="1734" xlink:href="#s73:merriweather-italic:259" /><use x="23230" y="1734" xlink:href="#s73:merriweather-italic:3" /><use x="23715" y="1734" xlink:href="#s73:merriweather-italic:156" /><use x="24890" y="1734" xlink:href="#s73:merriweather-italic:255" /><use x="25727" y="1734" xlink:href="#s73:merriweather-italic:184" /><use x="26779" y="1734" xlink:href="#s73:merriweather-italic:3" /><use x="27264" y="1734" xlink:href="#s73:merriweather-italic:229" /><use x="29149" y="1734" xlink:href="#s73:merriweather-italic:184" /><use x="30201" y="1734" xlink:href="#s73:merriweather-italic:229" /><use x="32086" y="1734" xlink:href="#s73:merriweather-italic:169" /><use x="33275" y="1734" xlink:href="#s73:merriweather-italic:184" /><use x="34327" y="1734" xlink:href="#s73:merriweather-italic:255" /><use x="35164" y="1734" xlink:href="#s73:merriweather-italic:259" /><use x="36033" y="1734" xlink:href="#s73:merriweather-italic:3" /><use x="36518" y="1734" xlink:href="#s73:merriweather-italic:239" /><use x="37663" y="1734" xlink:href="#s73:merriweather-italic:194" /><use x="38363" y="1734" xlink:href="#s73:merriweather-italic:3" /><use x="38848" y="1734" xlink:href="#s73:merriweather-italic:268" /><use x="39583" y="1734" xlink:href="#s73:merriweather-italic:202" /><use x="40824" y="1734" xlink:href="#s73:merriweather-italic:184" /><use x="41876" y="1734" xlink:href="#s73:merriweather-italic:3" /><use x="42361" y="1734" xlink:href="#s73:merriweather-italic:259" /><use x="43230" y="1734" xlink:href="#s73:merriweather-italic:156" /><use x="44405" y="1734" xlink:href="#s73:merriweather-italic:229" /><use x="46290" y="1734" xlink:href="#s73:merriweather-italic:184" /><use x="47342" y="1734" xlink:href="#s73:merriweather-italic:3" /><use x="47827" y="1734" xlink:href="#s73:merriweather-italic:194" /><use x="48527" y="1734" xlink:href="#s73:merriweather-italic:156" /><use x="49702" y="1734" xlink:href="#s73:merriweather-italic:229" /><use x="51587" y="1734" xlink:href="#s73:merriweather-italic:205" /><use x="52229" y="1734" xlink:href="#s73:merriweather-italic:222" /><use x="52836" y="1734" xlink:href="#s73:merriweather-italic:292" /><use x="53908" y="1734" xlink:href="#s73:merriweather-italic:580" /></g><g id="line-1"><use x="11124" y="4191.6" xlink:href="#s73:merriweather-italic:122" /><use x="12358" y="4191.6" xlink:href="#s73:merriweather-italic:202" /><use x="13599" y="4191.6" xlink:href="#s73:merriweather-italic:184" /><use x="14651" y="4191.6" xlink:href="#s73:merriweather-italic:205" /><use x="15293" y="4191.6" xlink:href="#s73:merriweather-italic:255" /><use x="16130" y="4191.6" xlink:href="#s73:merriweather-italic:3" /><use x="16615" y="4191.6" xlink:href="#s73:merriweather-italic:259" /><use x="17484" y="4191.6" xlink:href="#s73:merriweather-italic:184" /><use x="18536" y="4191.6" xlink:href="#s73:merriweather-italic:251" /><use x="19698" y="4191.6" xlink:href="#s73:merriweather-italic:156" /><use x="20873" y="4191.6" xlink:href="#s73:merriweather-italic:255" /><use x="21710" y="4191.6" xlink:href="#s73:merriweather-italic:156" /><use x="22885" y="4191.6" xlink:href="#s73:merriweather-italic:268" /><use x="23620" y="4191.6" xlink:href="#s73:merriweather-italic:184" /><use x="24672" y="4191.6" xlink:href="#s73:merriweather-italic:3" /><use x="25157" y="4191.6" xlink:href="#s73:merriweather-italic:184" /><use x="26209" y="4191.6" xlink:href="#s73:merriweather-italic:291" /><use x="27218" y="4191.6" xlink:href="#s73:merriweather-italic:205" /><use x="27860" y="4191.6" xlink:href="#s73:merriweather-italic:259" /><use x="28729" y="4191.6" xlink:href="#s73:merriweather-italic:268" /><use x="29464" y="4191.6" xlink:href="#s73:merriweather-italic:184" /><use x="30516" y="4191.6" xlink:href="#s73:merriweather-italic:231" /><use x="31776" y="4191.6" xlink:href="#s73:merriweather-italic:171" /><use x="32658" y="4191.6" xlink:href="#s73:merriweather-italic:184" /><use x="33710" y="4191.6" xlink:href="#s73:merriweather-italic:3" /><use x="34195" y="4191.6" xlink:href="#s73:merriweather-italic:205" /><use x="34837" y="4191.6" xlink:href="#s73:merriweather-italic:259" /><use x="35706" y="4191.6" xlink:href="#s73:merriweather-italic:3" /><use x="36191" y="4191.6" xlink:href="#s73:merriweather-italic:156" /><use x="37366" y="4191.6" xlink:href="#s73:merriweather-italic:3" /><use x="37851" y="4191.6" xlink:href="#s73:merriweather-italic:229" /><use x="39736" y="4191.6" xlink:href="#s73:merriweather-italic:292" /><use x="40808" y="4191.6" xlink:href="#s73:merriweather-italic:268" /><use x="41543" y="4191.6" xlink:href="#s73:merriweather-italic:202" /><use x="42784" y="4191.6" xlink:href="#s73:merriweather-italic:580" /></g><g id="line-2"><use x="13832" y="6649.2" xlink:href="#s73:merriweather-italic:44" /><use x="14996" y="6649.2" xlink:href="#s73:merriweather-italic:239" /><use x="16141" y="6649.2" xlink:href="#s73:merriweather-italic:255" /><use x="16978" y="6649.2" xlink:href="#s73:merriweather-italic:3" /><use x="17463" y="6649.2" xlink:href="#s73:merriweather-italic:259" /><use x="18332" y="6649.2" xlink:href="#s73:merriweather-italic:171" /><use x="19214" y="6649.2" xlink:href="#s73:merriweather-italic:205" /><use x="19856" y="6649.2" xlink:href="#s73:merriweather-italic:184" /><use x="20908" y="6649.2" xlink:href="#s73:merriweather-italic:231" /><use x="22168" y="6649.2" xlink:href="#s73:merriweather-italic:171" /><use x="23050" y="6649.2" xlink:href="#s73:merriweather-italic:184" /><use x="24102" y="6649.2" xlink:href="#s73:merriweather-italic:574" /><use x="24629" y="6649.2" xlink:href="#s73:merriweather-italic:3" /><use x="25114" y="6649.2" xlink:href="#s73:merriweather-italic:229" /><use x="26999" y="6649.2" xlink:href="#s73:merriweather-italic:274" /><use x="28209" y="6649.2" xlink:href="#s73:merriweather-italic:259" /><use x="29078" y="6649.2" xlink:href="#s73:merriweather-italic:205" /><use x="29720" y="6649.2" xlink:href="#s73:merriweather-italic:171" /><use x="30602" y="6649.2" xlink:href="#s73:merriweather-italic:574" /><use x="31129" y="6649.2" xlink:href="#s73:merriweather-italic:3" /><use x="31614" y="6649.2" xlink:href="#s73:merriweather-italic:259" /><use x="32483" y="6649.2" xlink:href="#s73:merriweather-italic:251" /><use x="33645" y="6649.2" xlink:href="#s73:merriweather-italic:239" /><use x="34790" y="6649.2" xlink:href="#s73:merriweather-italic:255" /><use x="35627" y="6649.2" xlink:href="#s73:merriweather-italic:268" /><use x="36362" y="6649.2" xlink:href="#s73:merriweather-italic:574" /><use x="36889" y="6649.2" xlink:href="#s73:merriweather-italic:3" /><use x="37374" y="6649.2" xlink:href="#s73:merriweather-italic:184" /><use x="38426" y="6649.2" xlink:href="#s73:merriweather-italic:268" /><use x="39161" y="6649.2" xlink:href="#s73:merriweather-italic:171" /><use x="40043" y="6649.2" xlink:href="#s73:merriweather-italic:574" /></g></svg>