<svg xmlns="http://www.w3.org/2000/svg" xmlns:xlink="http://www.w3.org/1999/xlink" width="683" height="84" viewBox="0 0 58302 7209.2"><defs><path id="s44:merriweather-light:113" d="M604-107L604-1429L215-1418L149-1001L37-1001L71-1522L1319-1522L1342-1001L1232-1001L1175-1418L781-1429L781-107L1073-88L1073 0L336 0L336-88L604-107Z"/><path id="s44:merriweather-light:191" d="M210-103L210-1549L29-1567L29-1642L331-1677L336-1677L375-1650L375-1164L370-993Q410-1028 477.50-1068Q545-1108 627.50-1136Q710-1164 789-1164Q918-1164 989-1114.50Q1060-1065 1089-961.50Q1118-858 1118-683L1118-104L1268-88L1268 0L809 0L809-88L953-104L953-684Q953-814 935-888Q917-962 866.50-999Q816-1036 717-1036Q636-1036 541.50-996Q447-956 375-901L375-104L527-88L527 0L82 0L82-88L210-103Z"/><path id="s44:merriweather-light:174" d="M96-574Q96-747 164-882Q232-1017 352-1092.50Q472-1168 621-1168Q803-1168 904.50-1064Q1006-960 1013-762L1013-729Q1013-628 1002-582L273-582Q273-565 274-557Q278-404 328-300Q378-196 460-145Q542-94 643-94Q728-94 818-125Q908-156 958-198L991-123Q931-61 818-19Q705 23 590 23Q432 23 320.50-52.50Q209-128 152.50-262.50Q96-397 96-574M830-678Q835-726 835-769Q834-903 771.50-982.50Q709-1062 579-1062Q299-1062 275-678L830-678Z"/><path id="s44:merriweather-light:3" d=""/><path id="s44:merriweather-light:33" d="M278-107L278-1411L107-1434L107-1522L1120-1522L1148-1221L1051-1221L995-1418L447-1427L447-831L824-837L849-1007L953-1007L953-555L849-555L824-730L447-735L447-104L1074-121L1178-377L1275-346L1212 0L103 0L103-88L278-107Z"/><path id="s44:merriweather-light:261" d="M927-148Q854-80 751.50-28.50Q649 23 545 23Q419 23 344-23.50Q269-70 235-167Q201-264 201-422L201-1024L80-1059L80-1135L328-1161L329-1161L366-1137L366-446Q366-317 384.50-244.50Q403-172 452.50-137.50Q502-103 596-103Q686-103 767-142Q848-181 910-233L910-1023L753-1059L753-1135L1027-1161L1029-1161L1075-1137L1075-90L1202-90L1201-12Q1193-10 1161.50-0.50Q1130 9 1097 14Q1064 19 1031 19Q978 19 952.50 0.50Q927-18 927-68L927-148Z"/><path id="s44:merriweather-light:243" d="M265-99L265-1001L107-1037L107-1129L366-1161L371-1161L410-1129L410-1057L409-941L410-941Q413-945 463-1003Q513-1061 612.50-1114.50Q712-1168 814-1168Q848-1168 875-1159L875-979Q867-985 839-991Q811-997 781-997Q664-997 580-961.50Q496-926 431-876L431-100L703-84L703 0L101 0L101-85L265-99Z"/><path id="s44:merriweather-light:228" d="M618-1168Q794-1168 907.50-1088Q1021-1008 1073-873.50Q1125-739 1125-569Q1125-390 1050-255.50Q975-121 853.50-49Q732 23 599 23Q423 23 309.50-57Q196-137 144.50-271.50Q93-406 93-576Q93-754 168-889Q243-1024 364-1096Q485-1168 618-1168M938-558Q938-780 858.50-920.50Q779-1061 610-1061Q452-1061 365.50-940.50Q279-820 279-587Q279-444 313-330.50Q347-217 420.50-150.50Q494-84 608-84Q766-84 852-205Q938-326 938-558Z"/><path id="s44:merriweather-light:239" d="M606 23Q550 23 486 14Q422 5 381-10L385 164L385 384L612 405L612 496L63 496L63 405L221 385L221-1001L61-1037L61-1129L323-1161L328-1161L365-1129L365-1004Q431-1072 524.50-1120Q618-1168 735-1168Q855-1168 956.50-1108Q1058-1048 1120.50-922.50Q1183-797 1183-610Q1183-434 1111.50-289.50Q1040-145 908.50-61Q777 23 606 23M385-144Q395-127 429-111Q463-95 512-84.50Q561-74 615-74Q727-74 814-129Q901-184 952-298Q1003-412 1005-581Q1006-738 961-841.50Q916-945 839.50-993.50Q763-1042 667-1042Q579-1042 503.50-1005.50Q428-969 385-923L385-144Z"/><path id="s44:merriweather-light:147" d="M791-746Q791-851 769.50-911Q748-971 695-999Q642-1027 545-1027Q373-1027 185-917L184-917L139-1007Q162-1029 235-1066Q308-1103 401.50-1131.50Q495-1160 581-1160Q721-1160 802-1121Q883-1082 918.50-996Q954-910 954-764L954-89L1082-89L1082-13Q962 19 890 19Q856 19 839 13.50Q822 8 813-10.50Q804-29 804-68L804-143Q759-103 712.50-69.50Q666-36 595-6.50Q524 23 446 23Q351 23 273.50-12Q196-47 150-119.50Q104-192 104-299Q104-434 200.50-518.50Q297-603 451.50-641Q606-679 791-682L791-746M791-586Q625-585 511.50-551.50Q398-518 342-458Q286-398 286-319Q286-204 346-151.50Q406-99 507-99Q566-99 645.50-135.50Q725-172 791-223L791-586Z"/><path id="s44:merriweather-light:220" d="M222-104L222-1001L63-1037L63-1129L324-1161L329-1161L369-1129L369-1038L367-987Q414-1028 487.50-1069Q561-1110 644-1137Q727-1164 799-1164Q929-1164 1000-1113Q1071-1062 1098.50-959Q1126-856 1126-683L1126-103L1280-88L1280 0L820 0L820-88L961-103L961-684Q961-813 943.50-887Q926-961 876-998.50Q826-1036 729-1036Q647-1036 552.50-995.50Q458-955 387-900L387-104L536-88L536 0L84 0L84-88L222-104Z"/><path id="s44:merriweather-light:211" d="M261-104L261-1549L85-1567L85-1642L386-1678L387-1678L427-1650L427-103L618-88L618 0L80 0L80-88L261-104Z"/><path id="s44:merriweather-light:186" d="M571-407Q487-407 418-426Q381-397 359.50-358.50Q338-320 338-283Q338-229 360-199Q382-169 430.50-156Q479-143 564-143L804-143Q994-143 1085.50-69.50Q1177 4 1177 137Q1177 247 1097 342.50Q1017 438 880 495Q743 552 579 552L578 552Q323 552 209 471Q95 390 95 246Q95 154 151.50 77.50Q208 1 284-41Q188-93 188-211Q188-287 231.50-353Q275-419 341-455Q246-500 192-583Q138-666 138-777Q138-897 203-985.50Q268-1074 373-1121Q478-1168 593-1168L594-1168Q685-1168 763.50-1147Q842-1126 899-1083Q931-1111 995-1139.50Q1059-1168 1133-1168L1200-1168L1200-1016L967-1016Q1026-933 1026-817Q1026-696 965-603Q904-510 800-458.50Q696-407 572-407L571-407M582-1067Q311-1067 311-798Q311-668 380.50-588Q450-508 591-508L592-508Q852-508 852-795Q852-1067 583-1067L582-1067M361-13Q261 83 261 213Q261 291 291 342Q321 393 392.50 420.50Q464 448 587 448L589 448Q699 448 798.50 416Q898 384 959.50 324Q1021 264 1021 184Q1021 121 1002 82Q983 43 926.50 22Q870 1 763 1L509 1Q421 1 361-13Z"/><path id="s44:merriweather-light:247" d="M229-321L260-162Q274-140 312-119.50Q350-99 402-86Q454-73 507-73Q758-73 758-259Q758-317 724.50-359Q691-401 626-435Q561-469 450-509Q340-549 271-597Q202-645 168-711.50Q134-778 134-870Q134-958 187.50-1024Q241-1090 332-1125.50Q423-1161 530-1161Q604-1161 666.50-1150Q729-1139 762.50-1128Q796-1117 846-1098L846-855L745-855L709-1003Q695-1031 637.50-1049Q580-1067 509-1067Q444-1067 393.50-1047Q343-1027 315-990Q287-953 287-905Q287-839 317.50-796Q348-753 394-727.50Q440-702 519-670Q545-660 558-654Q675-607 746-567.50Q817-528 864-463.50Q911-399 911-303Q911-202 858-128.50Q805-55 709-16Q613 23 487 23Q399 23 286.50-5.50Q174-34 119-64L119-321L229-321Z"/><path id="s44:merriweather-light:218" d="M222-104L222-1001L63-1037L63-1129L324-1161L329-1161L369-1129L369-1038L367-987Q414-1028 486.50-1069Q559-1110 639.50-1137Q720-1164 789-1164Q898-1164 964.50-1127Q1031-1090 1066-1012Q1106-1045 1176-1080.50Q1246-1116 1326.50-1140Q1407-1164 1476-1164Q1605-1164 1676-1114Q1747-1064 1776-961.50Q1805-859 1805-686L1805-104L1960-88L1960 0L1502 0L1502-88L1640-104L1640-680Q1640-808 1621-884Q1602-960 1549-999Q1496-1038 1395-1038Q1320-1038 1236.50-1005Q1153-972 1093-928Q1114-836 1114-683L1114-104L1269-88L1269 0L801 0L801-88L949-104L949-684Q949-814 933-887.50Q917-961 868.50-998.50Q820-1036 723-1036Q643-1036 550.50-996Q458-956 387-901L387-104L532-88L532 0L91 0L91-88L222-104Z"/><path id="s44:merriweather-light:159" d="M-6-1567L-6-1642L293-1677L297-1677L335-1648L335-1026Q400-1087 488.50-1127.50Q577-1168 686-1168Q806-1168 908-1108Q1010-1048 1072-923Q1134-798 1134-610Q1134-435 1062.50-290.50Q991-146 858-61.50Q725 23 550 23Q463 23 380.50 9.50Q298-4 241-22.50Q184-41 170-56L170-1549L-6-1567M335-154Q351-120 417-100.50Q483-81 565-81Q680-81 767.50-137.50Q855-194 904.50-309Q954-424 954-593Q954-745 909-846Q864-947 788-994.50Q712-1042 618-1042Q532-1042 455.50-1001Q379-960 335-911L335-154Z"/><path id="s44:merriweather-light:184" d="M271-104L271-1014L63-1014L63-1095L271-1135L271-1234Q271-1357 334-1461.50Q397-1566 499-1627Q601-1688 711-1688Q753-1688 777.50-1684Q802-1680 825-1672L825-1503Q807-1516 757.50-1528Q708-1540 643-1540Q571-1540 526-1516Q481-1492 459-1437Q437-1382 437-1289L437-1135L734-1135L734-1014L437-1014L437-103L670-88L670 0L91 0L91-88L271-104Z"/><path id="s44:merriweather-light:255" d="M72-1015L72-1096Q103-1103 141.50-1112.50Q180-1122 191-1128Q207-1138 217.50-1153Q228-1168 236-1192Q248-1224 270-1310Q292-1396 298-1428L393-1428L393-1136L756-1136L756-1015L393-1015L393-353Q393-233 401.50-184.50Q410-136 434.50-122Q459-108 520-108L521-108Q579-108 652-124.50Q725-141 764-159L765-159L791-82Q761-59 700-34.50Q639-10 569.50 6.50Q500 23 446 23L444 23Q337 23 282-28Q227-79 227-206L227-1015L72-1015Z"/><path id="s44:merriweather-light:194" d="M267-104L267-1001L106-1037L106-1129L387-1161L392-1161L432-1129L432-103L611-88L611 0L87 0L87-88L267-104M228-1488Q228-1544 259.50-1584.50Q291-1625 348-1625L349-1625Q398-1625 426.50-1589.50Q455-1554 455-1507Q455-1448 423.50-1410Q392-1372 332-1372L331-1372Q284-1372 256-1405.50Q228-1439 228-1488Z"/><path id="s44:merriweather-light:279" d="M145 344Q156 350 188 353.50Q220 357 249 357Q313 357 365.50 331Q418 305 473 227Q528 149 582 0L492 0L101-1027L4-1052L4-1136L456-1136L456-1052L291-1028L506-401L613-68L715-403L907-1028L763-1052L763-1136L1157-1136L1157-1052L1050-1028Q858-440 789-232.50Q720-25 695 32Q623 212 567.50 309.50Q512 407 436 458.50Q360 510 245 510Q218 510 187.50 505.50Q157 501 145 496L145 344Z"/><path id="s44:merriweather-light:573" d="M130-93Q130-130 149-161Q168-192 198.50-210Q229-228 262-228Q317-228 345-195Q373-162 373-113Q373-74 354.50-43.50Q336-13 306 4.50Q276 22 241 22Q195 22 162.50-10Q130-42 130-93Z"/><path id="s44:merriweather-light:278" d="M157-104L520-571L170-1028L49-1052L49-1136L522-1136L522-1052L373-1028L575-741L636-651L692-740L908-1028L750-1052L750-1136L1174-1136L1174-1052L1046-1028L697-590L1064-102L1188-87L1188 0L702 0L702-87L848-104L643-406L579-498L522-408L305-105L485-87L485 0L17 0L17-87L157-104Z"/><path id="s44:merriweather-light:161" d="M638-1168Q718-1168 795-1148.50Q872-1129 926-1106L917-814L815-814L772-1009Q758-1071 596-1071Q490-1071 411-1015.50Q332-960 289-856Q246-752 246-611Q246-441 294-325.50Q342-210 425-153.50Q508-97 614-97Q701-97 782.50-125Q864-153 915-191L948-123Q889-63 784.50-20Q680 23 578 23Q416 23 301-53.50Q186-130 127.50-262Q69-394 69-559Q69-725 133.50-863.50Q198-1002 326-1085Q454-1168 638-1168Z"/><path id="s44:merriweather-light:43" d="M278-106L278-1411L99-1434L99-1522L1171-1522L1192-1185L1080-1185L1024-1418L447-1427L447-821L856-827L890-994L985-994L985-541L890-541L856-714L447-722L447-107L767-88L767 0L111 0L111-88L278-106Z"/><path id="s44:merriweather-light:567" d="M356-284Q418-284 453-216.50Q488-149 488-32Q488 80 457 176.50Q426 273 376.50 340.50Q327 408 273 438L271 438L220 398L220 379Q270 339 308 269Q346 199 346 88Q346 32 332.50 0.50Q319-31 292-66Q269-96 258-119.50Q247-143 247-181Q247-228 276.50-256Q306-284 348-284L356-284Z"/></defs><g id="line-0"><use x="0" y="1734" xlink:href="#s44:merriweather-light:113"/><use x="1390" y="1734" xlink:href="#s44:merriweather-light:191"/><use x="2725" y="1734" xlink:href="#s44:merriweather-light:174"/><use x="3830" y="1734" xlink:href="#s44:merriweather-light:3"/><use x="4420" y="1734" xlink:href="#s44:merriweather-light:33"/><use x="5750" y="1734" xlink:href="#s44:merriweather-light:261"/><use x="7036" y="1734" xlink:href="#s44:merriweather-light:243"/><use x="7958" y="1734" xlink:href="#s44:merriweather-light:228"/><use x="9176" y="1734" xlink:href="#s44:merriweather-light:239"/><use x="10454" y="1734" xlink:href="#s44:merriweather-light:174"/><use x="11559" y="1734" xlink:href="#s44:merriweather-light:147"/><use x="12699" y="1734" xlink:href="#s44:merriweather-light:220"/><use x="14036" y="1734" xlink:href="#s44:merriweather-light:3"/><use x="14626" y="1734" xlink:href="#s44:merriweather-light:211"/><use x="15299" y="1734" xlink:href="#s44:merriweather-light:147"/><use x="16439" y="1734" xlink:href="#s44:merriweather-light:220"/><use x="17776" y="1734" xlink:href="#s44:merriweather-light:186"/><use x="18999" y="1734" xlink:href="#s44:merriweather-light:261"/><use x="20285" y="1734" xlink:href="#s44:merriweather-light:147"/><use x="21425" y="1734" xlink:href="#s44:merriweather-light:186"/><use x="22648" y="1734" xlink:href="#s44:merriweather-light:174"/><use x="23753" y="1734" xlink:href="#s44:merriweather-light:247"/><use x="24769" y="1734" xlink:href="#s44:merriweather-light:3"/><use x="25359" y="1734" xlink:href="#s44:merriweather-light:147"/><use x="26499" y="1734" xlink:href="#s44:merriweather-light:243"/><use x="27421" y="1734" xlink:href="#s44:merriweather-light:174"/><use x="28526" y="1734" xlink:href="#s44:merriweather-light:3"/><use x="29116" y="1734" xlink:href="#s44:merriweather-light:218"/><use x="31131" y="1734" xlink:href="#s44:merriweather-light:174"/><use x="32236" y="1734" xlink:href="#s44:merriweather-light:218"/><use x="34251" y="1734" xlink:href="#s44:merriweather-light:159"/><use x="35479" y="1734" xlink:href="#s44:merriweather-light:174"/><use x="36584" y="1734" xlink:href="#s44:merriweather-light:243"/><use x="37506" y="1734" xlink:href="#s44:merriweather-light:247"/><use x="38522" y="1734" xlink:href="#s44:merriweather-light:3"/><use x="39112" y="1734" xlink:href="#s44:merriweather-light:228"/><use x="40330" y="1734" xlink:href="#s44:merriweather-light:184"/><use x="41139" y="1734" xlink:href="#s44:merriweather-light:3"/><use x="41729" y="1734" xlink:href="#s44:merriweather-light:255"/><use x="42560" y="1734" xlink:href="#s44:merriweather-light:191"/><use x="43895" y="1734" xlink:href="#s44:merriweather-light:174"/><use x="45000" y="1734" xlink:href="#s44:merriweather-light:3"/><use x="45590" y="1734" xlink:href="#s44:merriweather-light:247"/><use x="46606" y="1734" xlink:href="#s44:merriweather-light:147"/><use x="47746" y="1734" xlink:href="#s44:merriweather-light:218"/><use x="49761" y="1734" xlink:href="#s44:merriweather-light:174"/><use x="50866" y="1734" xlink:href="#s44:merriweather-light:3"/><use x="51456" y="1734" xlink:href="#s44:merriweather-light:184"/><use x="52265" y="1734" xlink:href="#s44:merriweather-light:147"/><use x="53405" y="1734" xlink:href="#s44:merriweather-light:218"/><use x="55420" y="1734" xlink:href="#s44:merriweather-light:194"/><use x="56084" y="1734" xlink:href="#s44:merriweather-light:211"/><use x="56757" y="1734" xlink:href="#s44:merriweather-light:279"/><use x="57929" y="1734" xlink:href="#s44:merriweather-light:573"/></g><g id="line-1"><use x="11720.5" y="4191.6" xlink:href="#s44:merriweather-light:113"/><use x="13110.5" y="4191.6" xlink:href="#s44:merriweather-light:191"/><use x="14445.5" y="4191.6" xlink:href="#s44:merriweather-light:174"/><use x="15550.5" y="4191.6" xlink:href="#s44:merriweather-light:194"/><use x="16214.5" y="4191.6" xlink:href="#s44:merriweather-light:243"/><use x="17136.5" y="4191.6" xlink:href="#s44:merriweather-light:3"/><use x="17726.5" y="4191.6" xlink:href="#s44:merriweather-light:247"/><use x="18742.5" y="4191.6" xlink:href="#s44:merriweather-light:174"/><use x="19847.5" y="4191.6" xlink:href="#s44:merriweather-light:239"/><use x="21125.5" y="4191.6" xlink:href="#s44:merriweather-light:147"/><use x="22265.5" y="4191.6" xlink:href="#s44:merriweather-light:243"/><use x="23187.5" y="4191.6" xlink:href="#s44:merriweather-light:147"/><use x="24327.5" y="4191.6" xlink:href="#s44:merriweather-light:255"/><use x="25158.5" y="4191.6" xlink:href="#s44:merriweather-light:174"/><use x="26263.5" y="4191.6" xlink:href="#s44:merriweather-light:3"/><use x="26853.5" y="4191.6" xlink:href="#s44:merriweather-light:174"/><use x="27958.5" y="4191.6" xlink:href="#s44:merriweather-light:278"/><use x="29164.5" y="4191.6" xlink:href="#s44:merriweather-light:194"/><use x="29828.5" y="4191.6" xlink:href="#s44:merriweather-light:247"/><use x="30844.5" y="4191.6" xlink:href="#s44:merriweather-light:255"/><use x="31675.5" y="4191.6" xlink:href="#s44:merriweather-light:174"/><use x="32780.5" y="4191.6" xlink:href="#s44:merriweather-light:220"/><use x="34117.5" y="4191.6" xlink:href="#s44:merriweather-light:161"/><use x="35160.5" y="4191.6" xlink:href="#s44:merriweather-light:174"/><use x="36265.5" y="4191.6" xlink:href="#s44:merriweather-light:3"/><use x="36855.5" y="4191.6" xlink:href="#s44:merriweather-light:194"/><use x="37519.5" y="4191.6" xlink:href="#s44:merriweather-light:247"/><use x="38535.5" y="4191.6" xlink:href="#s44:merriweather-light:3"/><use x="39125.5" y="4191.6" xlink:href="#s44:merriweather-light:147"/><use x="40265.5" y="4191.6" xlink:href="#s44:merriweather-light:3"/><use x="40855.5" y="4191.6" xlink:href="#s44:merriweather-light:218"/><use x="42870.5" y="4191.6" xlink:href="#s44:merriweather-light:279"/><use x="44042.5" y="4191.6" xlink:href="#s44:merriweather-light:255"/><use x="44873.5" y="4191.6" xlink:href="#s44:merriweather-light:191"/><use x="46208.5" y="4191.6" xlink:href="#s44:merriweather-light:573"/></g><g id="line-2"><use x="14205.5" y="6649.2" xlink:href="#s44:merriweather-light:43"/><use x="15469.5" y="6649.2" xlink:href="#s44:merriweather-light:228"/><use x="16687.5" y="6649.2" xlink:href="#s44:merriweather-light:243"/><use x="17609.5" y="6649.2" xlink:href="#s44:merriweather-light:3"/><use x="18199.5" y="6649.2" xlink:href="#s44:merriweather-light:247"/><use x="19215.5" y="6649.2" xlink:href="#s44:merriweather-light:161"/><use x="20258.5" y="6649.2" xlink:href="#s44:merriweather-light:194"/><use x="20922.5" y="6649.2" xlink:href="#s44:merriweather-light:174"/><use x="22027.5" y="6649.2" xlink:href="#s44:merriweather-light:220"/><use x="23364.5" y="6649.2" xlink:href="#s44:merriweather-light:161"/><use x="24407.5" y="6649.2" xlink:href="#s44:merriweather-light:174"/><use x="25512.5" y="6649.2" xlink:href="#s44:merriweather-light:567"/><use x="26198.5" y="6649.2" xlink:href="#s44:merriweather-light:3"/><use x="26788.5" y="6649.2" xlink:href="#s44:merriweather-light:218"/><use x="28803.5" y="6649.2" xlink:href="#s44:merriweather-light:261"/><use x="30089.5" y="6649.2" xlink:href="#s44:merriweather-light:247"/><use x="31105.5" y="6649.2" xlink:href="#s44:merriweather-light:194"/><use x="31769.5" y="6649.2" xlink:href="#s44:merriweather-light:161"/><use x="32812.5" y="6649.2" xlink:href="#s44:merriweather-light:567"/><use x="33498.5" y="6649.2" xlink:href="#s44:merriweather-light:3"/><use x="34088.5" y="6649.2" xlink:href="#s44:merriweather-light:247"/><use x="35104.5" y="6649.2" xlink:href="#s44:merriweather-light:239"/><use x="36382.5" y="6649.2" xlink:href="#s44:merriweather-light:228"/><use x="37600.5" y="6649.2" xlink:href="#s44:merriweather-light:243"/><use x="38522.5" y="6649.2" xlink:href="#s44:merriweather-light:255"/><use x="39353.5" y="6649.2" xlink:href="#s44:merriweather-light:567"/><use x="40039.5" y="6649.2" xlink:href="#s44:merriweather-light:3"/><use x="40629.5" y="6649.2" xlink:href="#s44:merriweather-light:174"/><use x="41734.5" y="6649.2" xlink:href="#s44:merriweather-light:255"/><use x="42565.5" y="6649.2" xlink:href="#s44:merriweather-light:161"/><use x="43608.5" y="6649.2" xlink:href="#s44:merriweather-light:567"/></g></svg>