<svg xmlns="http://www.w3.org/2000/svg" xmlns:xlink="http://www.w3.org/1999/xlink" width="648" height="84" viewBox="0 0 55281 7209.2"><defs><path id="s42:merriweather-bolditalic:119" d="M473-127L639-1408L365-1384L232-990L76-989L166-1522L1434-1522L1357-990L1208-989L1201-1384L924-1408L757-127L1025-100L1016 0L214 0L225-100L473-127Z"/><path id="s42:merriweather-bolditalic:198" d="M792-443Q814-556 828-653.50Q842-751 842-830Q842-893 831-926Q820-959 799.50-971Q779-983 748-983Q682-983 600.50-912Q519-841 457-735L364 0L92 0L277-1482L154-1525L171-1608L517-1650L570-1623L480-915Q556-1028 658.50-1095.50Q761-1163 876-1163Q994-1163 1059-1092.50Q1124-1022 1124-861Q1124-772 1074-505L1065-450Q1048-348 1040-296Q1032-244 1031-197Q1030-163 1038-148Q1046-133 1062-133Q1079-133 1100-143.50Q1121-154 1159-183L1189-120Q1175-98 1137.50-65Q1100-32 1041.50-5.50Q983 21 913 21Q820 21 782.50-16.50Q745-54 745-126Q745-168 754.50-230.50Q764-293 783-392L792-443Z"/><path id="s42:merriweather-bolditalic:181" d="M695-1164Q799-1164 868.50-1130.50Q938-1097 971-1039Q1004-981 1004-906Q1004-760 897.50-659.50Q791-559 642-509.50Q493-460 365-457Q362-368 382.50-295Q403-222 448.50-179Q494-136 564-136Q735-136 881-293L937-199Q904-150 842-98.50Q780-47 689.50-11Q599 25 493 25Q350 25 255.50-38Q161-101 116.50-202.50Q72-304 72-424Q72-625 154-794.50Q236-964 379-1064Q522-1164 695-1164M734-885Q734-959 707.50-996.50Q681-1034 633-1034Q551-1034 494-960.50Q437-887 406.50-781.50Q376-676 367-573Q441-577 527.50-615.50Q614-654 674-724Q734-794 734-885Z"/><path id="s42:merriweather-bolditalic:3" d=""/><path id="s42:merriweather-bolditalic:34" d="M159-127L321-1391L182-1416L193-1522L1227-1522L1204-1178L1033-1178L993-1387L609-1407L536-862L990-891L964-693L520-716L440-127L942-157L1060-415L1225-393L1146 0L-8 0L4-97L159-127Z"/><path id="s42:merriweather-bolditalic:269" d="M229-962L116-1033L132-1122L465-1163L515-1139L446-589Q439-529 433-495Q422-416 417-369Q412-322 412-284Q412-201 440.50-167.50Q469-134 528-134Q588-134 647.50-170.50Q707-207 752-262L872-1155L1140-1155L1013-210Q1011-190 1011-184Q1011-134 1045-134Q1062-134 1082-145Q1102-156 1143-190L1172-125Q1160-104 1122-69.50Q1084-35 1027.50-8Q971 19 907 19Q831 19 792-13.50Q753-46 753-103Q753-114 757-140L753-146Q690-73 608-26.50Q526 20 414 20Q298 20 218.50-43Q139-106 138-244Q138-297 146.50-370Q155-443 170-545L177-597L229-962Z"/><path id="s42:merriweather-bolditalic:250" d="M130-1022L147-1111L439-1163L490-1133L473-886Q496-952 544.50-1016Q593-1080 663.50-1121.50Q734-1163 816-1163Q836-1163 854.50-1158Q873-1153 882-1146L824-854Q810-864 782-872Q754-880 715-880Q641-880 576-849Q511-818 473-750L374 0L107 0L234-962L130-1022Z"/><path id="s42:merriweather-bolditalic:235" d="M674-1164Q885-1164 995-1040Q1105-916 1105-682Q1105-493 1028-331Q951-169 812-72Q673 25 495 25Q284 25 174.50-100.50Q65-226 65-460Q65-649 141.50-810.50Q218-972 357-1068Q496-1164 674-1164M810-678Q810-861 767.50-946Q725-1031 638-1031Q546-1031 482.50-946.50Q419-862 388.50-732Q358-602 358-465L358-435Q362-265 405-183Q448-101 536-101Q629-101 690.50-187.50Q752-274 781-406Q810-538 810-678Z"/><path id="s42:merriweather-bolditalic:246" d="M278 520L16 520L217-971L109-1026L126-1111L453-1163L503-1139L491-1035Q544-1092 616.50-1127.50Q689-1163 777-1163Q947-1163 1034.50-1048Q1122-933 1122-730Q1122-542 1040.50-368.50Q959-195 809-87.50Q659 20 464 20Q414 20 349 8L278 520M369-133Q416-111 492-111Q609-111 687-202Q765-293 801.50-433.50Q838-574 838-723Q838-849 798-925.50Q758-1002 684-1002Q622-1002 568-964.50Q514-927 472-869L369-133Z"/><path id="s42:merriweather-bolditalic:153" d="M739-1163Q790-1163 850-1151.50Q910-1140 960-1124L1097-1163L967-209Q966-202 966-189Q966-161 976-147Q986-133 1002-133Q1035-133 1093-179L1123-115Q1109-93 1073.50-61.50Q1038-30 984-5Q930 20 868 20Q796 20 755-14.50Q714-49 717-115L709-128Q649-63 571.50-21.50Q494 20 404 20Q234 20 152-97.50Q70-215 70-406Q70-589 149.50-764Q229-939 381-1051Q533-1163 739-1163M809-1017Q768-1031 712-1031Q589-1031 508.50-937.50Q428-844 391-704.50Q354-565 354-423Q354-288 391-214Q428-140 499-140Q553-140 607.50-176Q662-212 709-267L809-1017Z"/><path id="s42:merriweather-bolditalic:227" d="M133-1022L150-1111L466-1163L516-1139L499-932Q575-1037 676.50-1100Q778-1163 888-1163Q1006-1163 1071-1092.50Q1136-1022 1136-861Q1136-810 1122.50-722Q1109-634 1086-505Q1078-457 1073-432Q1071-418 1062-363.50Q1053-309 1048-266Q1043-223 1043-192Q1043-133 1074-133Q1089-133 1108.50-143Q1128-153 1163-179L1192-115Q1177-93 1141-62Q1105-31 1049-5Q993 21 925 21Q833 21 795-17.50Q757-56 757-123Q757-160 765-215Q773-270 782.50-324.50Q792-379 795-396L804-443Q827-570 840.50-661Q854-752 854-830Q854-893 843.50-926.50Q833-960 813.50-971.50Q794-983 760-983Q695-983 615.50-915Q536-847 475-745L373 0L106 0L236-963L133-1022Z"/><path id="s42:merriweather-bolditalic:218" d="M295-1482L167-1525L187-1608L530-1650L580-1623L388-209Q386-199 386-181Q386-133 417-133Q433-133 455-144.50Q477-156 516-188L545-124Q529-101 493.50-68Q458-35 402.50-7.50Q347 20 282 20Q205 20 158.50-12.50Q112-45 111-115Q111-145 118-192L295-1482Z"/><path id="s42:merriweather-bolditalic:193" d="M739-1163Q796-1163 859-1150Q922-1137 973-1119L1117-1163L939 77Q917 235 826.50 332.50Q736 430 612 472Q488 514 356 514Q290 514 216 501Q142 488 109 473L160 271Q203 297 282.50 326Q362 355 435 355Q514 355 558 338Q602 321 626 276.50Q650 232 662 145L695-95Q640-43 569-11.50Q498 20 413 20Q298 20 221-35.50Q144-91 107-187Q70-283 70-406Q70-589 149.50-764Q229-939 381-1051Q533-1163 739-1163M827-1010Q779-1031 712-1031Q589-1031 508.50-936.50Q428-842 391-701Q354-560 354-419Q354-287 395-213.50Q436-140 506-140Q565-140 620-174Q675-208 718-260L827-1010Z"/><path id="s42:merriweather-bolditalic:254" d="M62-224Q104-188 176.50-157Q249-126 329-126Q401-126 453-156.50Q505-187 505-261Q505-306 482.50-344Q460-382 423-415Q386-448 325-491Q125-633 125-828Q125-926 181-1002.50Q237-1079 335-1121Q433-1163 557-1163Q632-1163 709-1151Q786-1139 815-1126L774-937Q762-953 732-973.50Q702-994 657-1010Q612-1026 560-1026Q487-1026 438-993Q389-960 389-890Q389-830 430.50-780Q472-730 559-665Q627-614 670.50-570Q714-526 742.50-465.50Q771-405 771-326Q771-215 710.50-137Q650-59 549-19.50Q448 20 328 20Q268 20 203 10Q138 0 88-15Q38-30 19-45L62-224Z"/><path id="s42:merriweather-bolditalic:225" d="M822-443Q857-684 857-824Q857-893 846.50-927Q836-961 815-972Q794-983 757-983Q696-983 616-917.50Q536-852 475-755L372 0L105 0L236-962L132-1022L150-1111L465-1163L515-1139L498-929Q573-1034 672.50-1098.50Q772-1163 880-1163Q989-1163 1052.50-1106Q1116-1049 1129-919Q1202-1031 1305.50-1097Q1409-1163 1526-1163Q1641-1163 1707-1090.50Q1773-1018 1773-861Q1773-811 1761-726Q1749-641 1726-505L1717-452Q1700-355 1692-296.50Q1684-238 1684-189Q1684-133 1714-133Q1731-133 1752.50-144.50Q1774-156 1813-188L1842-124Q1824-100 1788.50-67Q1753-34 1695.50-6.50Q1638 21 1568 21Q1476 21 1439-18Q1402-57 1402-125Q1402-174 1413-247.50Q1424-321 1446-446L1450-471Q1470-588 1481-673Q1492-758 1492-830Q1492-892 1481.50-925.50Q1471-959 1452-970.50Q1433-982 1403-982Q1340-982 1264-921.50Q1188-861 1129-766Q1121-648 1101-505L1039 0L765 0L822-443Z"/><path id="s42:merriweather-bolditalic:166" d="M184-1527L205-1611L513-1650L566-1623L488-1036Q543-1092 616-1127.50Q689-1163 778-1163Q947-1163 1034-1048Q1121-933 1121-730Q1121-541 1040-368Q959-195 808-87.50Q657 20 458 20Q401 20 336.50 7.50Q272-5 216-23L92 20L284-1484L184-1527M368-131Q412-111 486-111Q605-111 684.50-202Q764-293 802-433.50Q840-574 840-723Q840-849 799.50-925.50Q759-1002 685-1002Q623-1002 566.50-964Q510-926 466-869L368-131Z"/><path id="s42:merriweather-bolditalic:191" d="M113-996L131-1087L273-1150L285-1225Q306-1349 368.50-1450.50Q431-1552 526-1611Q621-1670 734-1670Q840-1670 903-1644L842-1470Q813-1491 781-1505Q749-1519 704-1518Q654-1518 624-1489Q594-1460 578.50-1409Q563-1358 552-1278L534-1155L752-1155L728-996L512-996L399-63Q380 94 321.50 224.50Q263 355 167 434Q71 513-54 513Q-103 513-154 507Q-205 501-233 494L-176 314Q-154 324-101.50 341Q-49 358-18 358Q30 358 61 302.50Q92 247 106 143L244-996L113-996Z"/><path id="s42:merriweather-bolditalic:263" d="M229-1004L109-1004L132-1103L254-1150Q290-1184 329-1257Q368-1330 403-1416L550-1416L517-1155L749-1155L727-1004L498-1004L415-390Q399-278 399-234Q399-186 416-167Q433-148 477-148Q516-148 568.50-168Q621-188 656-216L678-137Q649-102 594-65.50Q539-29 465.50-4.50Q392 20 312 20Q229 20 176-22Q123-64 123-159Q123-195 144-351L229-1004Z"/><path id="s42:merriweather-bolditalic:201" d="M122-1026L138-1111L495-1163L548-1139L415-209Q413-189 413-181Q413-133 444-133Q461-133 483.50-145.50Q506-158 543-189L572-124Q555-100 518.50-67Q482-34 424.50-7Q367 20 299 20Q218 20 175-11.50Q132-43 132-103Q132-115 133-122Q147-236 190-534L251-968L122-1026M290-1502Q290-1550 313-1590.50Q336-1631 376-1655Q416-1679 464-1679Q508-1679 542-1660Q576-1641 594.50-1609.50Q613-1578 613-1542Q613-1492 591.50-1450.50Q570-1409 528.50-1384.50Q487-1360 431-1360Q394-1360 361.50-1380Q329-1400 309.50-1433Q290-1466 290-1502Z"/><path id="s42:merriweather-bolditalic:287" d="M148-944Q141-974 131.50-987Q122-1000 106-1000Q92-1000 77.50-994.50Q63-989 42-972L13-1042Q25-1060 61-1088.50Q97-1117 148.50-1140Q200-1163 255-1163Q334-1163 371.50-1128.50Q409-1094 419-1026Q429-968 449-823.50Q469-679 478-614Q512-358 527-264L552-34L656-247L667-272Q723-396 755-477.50Q787-559 808.50-648Q830-737 830-825Q830-858 824-882Q818-906 807-937Q796-968 790.50-989.50Q785-1011 785-1040Q785-1097 819.50-1130Q854-1163 916-1163Q993-1163 1034-1106.50Q1075-1050 1075-964Q1075-867 1051-773.50Q1027-680 991.50-599.50Q956-519 896-398L881-367Q795-187 689.50-9.50Q584 168 507 278Q360 512 104 512Q57 512-3.50 500Q-64 488-89 475L-25 293Q-2 311 48.50 327Q99 343 154 343Q242 343 330 276.50Q418 210 499 63L345 63L148-944Z"/><path id="s42:merriweather-bolditalic:576" d="M249-301Q315-301 350-262.50Q385-224 385-166Q385-107 358-65Q331-23 288-1Q245 21 198 21Q143 21 107.50-17Q72-55 72-115Q72-169 97.50-211.50Q123-254 164-277.50Q205-301 249-301Z"/><path id="s42:merriweather-bolditalic:286" d="M209 0L-65 0L386-579L211-934Q194-968 178-986.50Q162-1005 143-1005Q120-1005 102.50-998Q85-991 67-976L29-1047Q41-1064 77-1091.50Q113-1119 168-1141Q223-1163 288-1163Q360-1163 401.50-1136.50Q443-1110 460-1058L557-756L812-1155L1076-1155L631-578L802-241Q819-205 840-177Q861-149 880-149Q898-149 920.50-159Q943-169 980-199L1021-129Q1009-108 969.50-72.50Q930-37 867.50-8.50Q805 20 730 20Q662 20 626.50-6.50Q591-33 572-85L462-401L209 0Z"/><path id="s42:merriweather-bolditalic:168" d="M67-448Q67-619 138.50-784Q210-949 351-1056Q492-1163 688-1163Q748-1163 815-1152Q882-1141 928-1121L856-855Q854-857 827-859Q807-861 806-862Q749-929 705.50-969.50Q662-1010 627-1010Q553-1010 489.50-944.50Q426-879 388-758Q350-637 350-478Q350-305 397-226Q444-147 538-147Q618-147 675-176.50Q732-206 798-268L851-175Q820-131 764-86.50Q708-42 625-11Q542 20 442 20Q325 20 241-34Q157-88 112-193Q67-298 67-448Z"/><path id="s42:merriweather-bolditalic:44" d="M159-127L321-1391L182-1416L195-1522L1256-1522L1223-1171L1046-1171L1016-1384L608-1406L536-857L1012-875L990-680L520-710L443-128L717-98L709 0L6 0L16-98L159-127Z"/><path id="s42:merriweather-bolditalic:570" d="M234-282Q332-252 377.50-169Q423-86 423 17Q423 126 375 223.50Q327 321 242.50 395Q158 469 51 512L-12 428L-9 407Q42 382 86.50 332.50Q131 283 157.50 219Q184 155 184 88Q184 45 170.50 6.50Q157-32 134.50-57.50Q112-83 85-87L89-142L234-282Z"/></defs><g id="line-0"><use x="0" y="1734" xlink:href="#s42:merriweather-bolditalic:119"/><use x="1349" y="1734" xlink:href="#s42:merriweather-bolditalic:198"/><use x="2620" y="1734" xlink:href="#s42:merriweather-bolditalic:181"/><use x="3687" y="1734" xlink:href="#s42:merriweather-bolditalic:3"/><use x="4172" y="1734" xlink:href="#s42:merriweather-bolditalic:34"/><use x="5444" y="1734" xlink:href="#s42:merriweather-bolditalic:269"/><use x="6686" y="1734" xlink:href="#s42:merriweather-bolditalic:250"/><use x="7531" y="1734" xlink:href="#s42:merriweather-bolditalic:235"/><use x="8704" y="1734" xlink:href="#s42:merriweather-bolditalic:246"/><use x="9899" y="1734" xlink:href="#s42:merriweather-bolditalic:181"/><use x="10966" y="1734" xlink:href="#s42:merriweather-bolditalic:153"/><use x="12163" y="1734" xlink:href="#s42:merriweather-bolditalic:227"/><use x="13447" y="1734" xlink:href="#s42:merriweather-bolditalic:3"/><use x="13932" y="1734" xlink:href="#s42:merriweather-bolditalic:218"/><use x="14554" y="1734" xlink:href="#s42:merriweather-bolditalic:153"/><use x="15751" y="1734" xlink:href="#s42:merriweather-bolditalic:227"/><use x="17035" y="1734" xlink:href="#s42:merriweather-bolditalic:193"/><use x="18224" y="1734" xlink:href="#s42:merriweather-bolditalic:269"/><use x="19472" y="1734" xlink:href="#s42:merriweather-bolditalic:153"/><use x="20669" y="1734" xlink:href="#s42:merriweather-bolditalic:193"/><use x="21858" y="1734" xlink:href="#s42:merriweather-bolditalic:181"/><use x="22925" y="1734" xlink:href="#s42:merriweather-bolditalic:254"/><use x="23798" y="1734" xlink:href="#s42:merriweather-bolditalic:3"/><use x="24283" y="1734" xlink:href="#s42:merriweather-bolditalic:153"/><use x="25480" y="1734" xlink:href="#s42:merriweather-bolditalic:250"/><use x="26325" y="1734" xlink:href="#s42:merriweather-bolditalic:181"/><use x="27392" y="1734" xlink:href="#s42:merriweather-bolditalic:3"/><use x="27877" y="1734" xlink:href="#s42:merriweather-bolditalic:225"/><use x="29802" y="1734" xlink:href="#s42:merriweather-bolditalic:181"/><use x="30869" y="1734" xlink:href="#s42:merriweather-bolditalic:225"/><use x="32794" y="1734" xlink:href="#s42:merriweather-bolditalic:166"/><use x="33990" y="1734" xlink:href="#s42:merriweather-bolditalic:181"/><use x="35057" y="1734" xlink:href="#s42:merriweather-bolditalic:250"/><use x="35902" y="1734" xlink:href="#s42:merriweather-bolditalic:254"/><use x="36775" y="1734" xlink:href="#s42:merriweather-bolditalic:3"/><use x="37260" y="1734" xlink:href="#s42:merriweather-bolditalic:235"/><use x="38433" y="1734" xlink:href="#s42:merriweather-bolditalic:191"/><use x="39127" y="1734" xlink:href="#s42:merriweather-bolditalic:3"/><use x="39612" y="1734" xlink:href="#s42:merriweather-bolditalic:263"/><use x="40341" y="1734" xlink:href="#s42:merriweather-bolditalic:198"/><use x="41612" y="1734" xlink:href="#s42:merriweather-bolditalic:181"/><use x="42679" y="1734" xlink:href="#s42:merriweather-bolditalic:3"/><use x="43164" y="1734" xlink:href="#s42:merriweather-bolditalic:254"/><use x="44037" y="1734" xlink:href="#s42:merriweather-bolditalic:153"/><use x="45234" y="1734" xlink:href="#s42:merriweather-bolditalic:225"/><use x="47159" y="1734" xlink:href="#s42:merriweather-bolditalic:181"/><use x="48226" y="1734" xlink:href="#s42:merriweather-bolditalic:3"/><use x="48711" y="1734" xlink:href="#s42:merriweather-bolditalic:191"/><use x="49405" y="1734" xlink:href="#s42:merriweather-bolditalic:153"/><use x="50602" y="1734" xlink:href="#s42:merriweather-bolditalic:225"/><use x="52527" y="1734" xlink:href="#s42:merriweather-bolditalic:201"/><use x="53185" y="1734" xlink:href="#s42:merriweather-bolditalic:218"/><use x="53807" y="1734" xlink:href="#s42:merriweather-bolditalic:287"/><use x="54896" y="1734" xlink:href="#s42:merriweather-bolditalic:576"/></g><g id="line-1"><use x="11339.5" y="4191.6" xlink:href="#s42:merriweather-bolditalic:119"/><use x="12688.5" y="4191.6" xlink:href="#s42:merriweather-bolditalic:198"/><use x="13959.5" y="4191.6" xlink:href="#s42:merriweather-bolditalic:181"/><use x="15026.5" y="4191.6" xlink:href="#s42:merriweather-bolditalic:201"/><use x="15684.5" y="4191.6" xlink:href="#s42:merriweather-bolditalic:250"/><use x="16529.5" y="4191.6" xlink:href="#s42:merriweather-bolditalic:3"/><use x="17014.5" y="4191.6" xlink:href="#s42:merriweather-bolditalic:254"/><use x="17887.5" y="4191.6" xlink:href="#s42:merriweather-bolditalic:181"/><use x="18954.5" y="4191.6" xlink:href="#s42:merriweather-bolditalic:246"/><use x="20149.5" y="4191.6" xlink:href="#s42:merriweather-bolditalic:153"/><use x="21346.5" y="4191.6" xlink:href="#s42:merriweather-bolditalic:250"/><use x="22191.5" y="4191.6" xlink:href="#s42:merriweather-bolditalic:153"/><use x="23388.5" y="4191.6" xlink:href="#s42:merriweather-bolditalic:263"/><use x="24117.5" y="4191.6" xlink:href="#s42:merriweather-bolditalic:181"/><use x="25184.5" y="4191.6" xlink:href="#s42:merriweather-bolditalic:3"/><use x="25669.5" y="4191.6" xlink:href="#s42:merriweather-bolditalic:181"/><use x="26736.5" y="4191.6" xlink:href="#s42:merriweather-bolditalic:286"/><use x="27756.5" y="4191.6" xlink:href="#s42:merriweather-bolditalic:201"/><use x="28414.5" y="4191.6" xlink:href="#s42:merriweather-bolditalic:254"/><use x="29287.5" y="4191.6" xlink:href="#s42:merriweather-bolditalic:263"/><use x="30016.5" y="4191.6" xlink:href="#s42:merriweather-bolditalic:181"/><use x="31083.5" y="4191.6" xlink:href="#s42:merriweather-bolditalic:227"/><use x="32367.5" y="4191.6" xlink:href="#s42:merriweather-bolditalic:168"/><use x="33292.5" y="4191.6" xlink:href="#s42:merriweather-bolditalic:181"/><use x="34359.5" y="4191.6" xlink:href="#s42:merriweather-bolditalic:3"/><use x="34844.5" y="4191.6" xlink:href="#s42:merriweather-bolditalic:201"/><use x="35502.5" y="4191.6" xlink:href="#s42:merriweather-bolditalic:254"/><use x="36375.5" y="4191.6" xlink:href="#s42:merriweather-bolditalic:3"/><use x="36860.5" y="4191.6" xlink:href="#s42:merriweather-bolditalic:153"/><use x="38057.5" y="4191.6" xlink:href="#s42:merriweather-bolditalic:3"/><use x="38542.5" y="4191.6" xlink:href="#s42:merriweather-bolditalic:225"/><use x="40467.5" y="4191.6" xlink:href="#s42:merriweather-bolditalic:287"/><use x="41556.5" y="4191.6" xlink:href="#s42:merriweather-bolditalic:263"/><use x="42285.5" y="4191.6" xlink:href="#s42:merriweather-bolditalic:198"/><use x="43556.5" y="4191.6" xlink:href="#s42:merriweather-bolditalic:576"/></g><g id="line-2"><use x="14055" y="6649.2" xlink:href="#s42:merriweather-bolditalic:44"/><use x="15252" y="6649.2" xlink:href="#s42:merriweather-bolditalic:235"/><use x="16425" y="6649.2" xlink:href="#s42:merriweather-bolditalic:250"/><use x="17270" y="6649.2" xlink:href="#s42:merriweather-bolditalic:3"/><use x="17755" y="6649.2" xlink:href="#s42:merriweather-bolditalic:254"/><use x="18628" y="6649.2" xlink:href="#s42:merriweather-bolditalic:168"/><use x="19553" y="6649.2" xlink:href="#s42:merriweather-bolditalic:201"/><use x="20211" y="6649.2" xlink:href="#s42:merriweather-bolditalic:181"/><use x="21278" y="6649.2" xlink:href="#s42:merriweather-bolditalic:227"/><use x="22562" y="6649.2" xlink:href="#s42:merriweather-bolditalic:168"/><use x="23487" y="6649.2" xlink:href="#s42:merriweather-bolditalic:181"/><use x="24554" y="6649.2" xlink:href="#s42:merriweather-bolditalic:570"/><use x="25097" y="6649.2" xlink:href="#s42:merriweather-bolditalic:3"/><use x="25582" y="6649.2" xlink:href="#s42:merriweather-bolditalic:225"/><use x="27507" y="6649.2" xlink:href="#s42:merriweather-bolditalic:269"/><use x="28755" y="6649.2" xlink:href="#s42:merriweather-bolditalic:254"/><use x="29628" y="6649.2" xlink:href="#s42:merriweather-bolditalic:201"/><use x="30286" y="6649.2" xlink:href="#s42:merriweather-bolditalic:168"/><use x="31211" y="6649.2" xlink:href="#s42:merriweather-bolditalic:570"/><use x="31754" y="6649.2" xlink:href="#s42:merriweather-bolditalic:3"/><use x="32239" y="6649.2" xlink:href="#s42:merriweather-bolditalic:254"/><use x="33112" y="6649.2" xlink:href="#s42:merriweather-bolditalic:246"/><use x="34307" y="6649.2" xlink:href="#s42:merriweather-bolditalic:235"/><use x="35480" y="6649.2" xlink:href="#s42:merriweather-bolditalic:250"/><use x="36325" y="6649.2" xlink:href="#s42:merriweather-bolditalic:263"/><use x="37054" y="6649.2" xlink:href="#s42:merriweather-bolditalic:570"/><use x="37597" y="6649.2" xlink:href="#s42:merriweather-bolditalic:3"/><use x="38082" y="6649.2" xlink:href="#s42:merriweather-bolditalic:181"/><use x="39149" y="6649.2" xlink:href="#s42:merriweather-bolditalic:263"/><use x="39878" y="6649.2" xlink:href="#s42:merriweather-bolditalic:168"/><use x="40803" y="6649.2" xlink:href="#s42:merriweather-bolditalic:570"/></g></svg>