<svg xmlns="http://www.w3.org/2000/svg" xmlns:xlink="http://www.w3.org/1999/xlink" width="658" height="84" viewBox="0 0 56135 7209.2"><defs><path id="s70:merriweather-blackitalic:119" d="M495-136L663-1402L424-1376L259-937L71-937L170-1522L1540-1522L1455-939L1274-937L1256-1376L1016-1402L847-136L1131-106L1121 0L232 0L245-106L495-136Z"/><path id="s70:merriweather-blackitalic:198" d="M774-443Q795-561 807-649.50Q819-738 819-813Q819-872 811-905Q803-938 786-951.50Q769-965 740-965Q700-965 654-929.50Q608-894 564.50-834.50Q521-775 490-705L404 0L71 0L250-1482L123-1525L139-1608L548-1650L603-1623L516-915Q585-1030 683.50-1096.50Q782-1163 900-1163Q1024-1163 1094.50-1091.50Q1165-1020 1165-861Q1165-794 1116-505L1105-439Q1089-351 1081.50-298Q1074-245 1074-206Q1074-173 1084.50-162Q1095-151 1113-151Q1130-151 1148.50-160.50Q1167-170 1203-197L1231-124Q1195-77 1120.50-28Q1046 21 931 21Q846 21 801.50-2Q757-25 742.50-62Q728-99 728-150Q728-183 737.50-239.50Q747-296 767-404L774-443Z"/><path id="s70:merriweather-blackitalic:181" d="M710-1165Q877-1165 958-1091.50Q1039-1018 1039-900Q1039-751 942-652Q845-553 702.50-505.50Q560-458 420-455Q420-302 469-226Q518-150 607-150Q712-150 781-197Q850-244 905-315L969-212Q936-159 873-104Q810-49 714-10Q618 29 499 29Q346 29 248-36.50Q150-102 105.50-206.50Q61-311 61-434Q61-643 146.50-809.50Q232-976 380.50-1070.50Q529-1165 710-1165M718-886Q715-955 695-990Q675-1025 636-1025Q532-1025 481-888.50Q430-752 420-575Q484-579 554.50-617Q625-655 673-724.50Q721-794 718-886Z"/><path id="s70:merriweather-blackitalic:3" d=""/><path id="s70:merriweather-blackitalic:33" d="M137-136L301-1386L156-1412L167-1522L1285-1522L1249-1152L1027-1152L993-1376L654-1402L581-868L1040-914L1003-683L562-712L484-136L947-171L1064-468L1277-454L1207 0L-37 0L-23-106L137-136Z"/><path id="s70:merriweather-blackitalic:271" d="M213-962L87-1042L103-1131L506-1163L558-1139L489-589Q486-563 482-536Q478-509 475-483Q452-324 452-282Q452-211 475-179.50Q498-148 547-148Q602-148 652-175.50Q702-203 741-247L865-1155L1191-1155L1063-227Q1061-211 1061-205Q1061-178 1072.50-164.50Q1084-151 1103-151Q1120-151 1137.50-160Q1155-169 1195-197L1223-124Q1209-101 1171.50-67Q1134-33 1074.50-6.50Q1015 20 943 20Q851 20 804-15.50Q757-51 757-112Q757-127 760-143L756-146Q692-73 610-26.50Q528 20 409 20Q341 20 274-5.50Q207-31 162-90Q117-149 117-241Q117-293 125-360.50Q133-428 150-537L159-597L213-962Z"/><path id="s70:merriweather-blackitalic:252" d="M109-1022L125-1111L456-1163L509-1129L495-866Q518-947 565-1014.50Q612-1082 678.50-1122.50Q745-1163 823-1163Q846-1163 864-1156.50Q882-1150 893-1143L824-786Q815-797 784.50-809Q754-821 711-821Q647-821 594.50-810.50Q542-800 515-779L408 0L85 0L216-962L109-1022Z"/><path id="s70:merriweather-blackitalic:236" d="M690-1165Q915-1165 1031.50-1040.50Q1148-916 1148-677Q1148-481 1068.50-320Q989-159 842.50-65Q696 29 504 29Q278 29 163-98Q48-225 48-465Q48-660 127-820Q206-980 352-1072.50Q498-1165 690-1165M785-711Q782-828 766.50-896Q751-964 723.50-993.50Q696-1023 654-1023Q571-1023 515.50-941.50Q460-860 433.50-733.50Q407-607 407-472L408-431Q412-310 427-238.50Q442-167 472-134Q502-101 551-101Q633-101 685.50-184.50Q738-268 762-397Q786-526 786-668L785-711Z"/><path id="s70:merriweather-blackitalic:248" d="M316 520L-2 520L198-962L91-1022L107-1111L493-1163L545-1139L535-1055Q587-1104 656.50-1133.50Q726-1163 813-1163Q985-1163 1073.50-1050.50Q1162-938 1162-730Q1162-520 1077.50-349Q993-178 840-79Q687 20 488 20Q436 20 387 11L316 520M408-133Q447-119 514-119Q620-119 687.50-204.50Q755-290 785.50-428Q816-566 816-729Q816-841 779.50-914.50Q743-988 672-988Q585-988 514-891L408-133Z"/><path id="s70:merriweather-blackitalic:153" d="M746-1163Q802-1163 867.50-1150.50Q933-1138 984-1120L1136-1163L1007-227Q1006-219 1006-205Q1006-151 1046-151Q1079-151 1139-197L1167-124Q1149-98 1112-65Q1075-32 1016.50-6Q958 20 887 20Q811 20 765-13Q719-46 717-106Q661-50 585-15Q509 20 413 20Q293 20 214-36Q135-92 97.50-187Q60-282 60-402Q60-603 139-777Q218-951 373.50-1057Q529-1163 746-1163M790-1017Q757-1023 722-1023Q608-1023 537.50-931Q467-839 436.50-700.50Q406-562 406-413Q406-291 445.50-222.50Q485-154 554-154Q618-154 680-209L790-1017Z"/><path id="s70:merriweather-blackitalic:227" d="M107-1022L123-1111L497-1163L549-1139L533-929Q602-1038 697.50-1100.50Q793-1163 908-1163Q1032-1163 1102.50-1091.50Q1173-1020 1173-861Q1173-794 1124-505L1113-439Q1097-351 1089.50-298Q1082-245 1082-206Q1082-173 1092.50-162Q1103-151 1121-151Q1138-151 1156.50-160.50Q1175-170 1211-197L1239-124Q1203-77 1128.50-28Q1054 21 939 21Q818 21 777-27Q736-75 736-150Q736-183 745.50-239.50Q755-296 775-404L782-443Q803-561 815-649.50Q827-738 827-813Q827-872 819-905Q811-938 794-951.50Q777-965 748-965Q690-965 622-894Q554-823 506-721L407 0L83 0L214-962L107-1022Z"/><path id="s70:merriweather-blackitalic:218" d="M266-1482L134-1525L154-1608L560-1650L611-1623L427-227Q425-209 425-201Q425-151 462-151Q479-151 498-160Q517-169 554-197L582-124Q546-76 476.50-28Q407 20 302 20Q212 20 150-13Q88-46 87-115Q87-134 90.50-160Q94-186 95-192L266-1482Z"/><path id="s70:merriweather-blackitalic:193" d="M746-1163Q804-1163 873-1149Q942-1135 994-1117L1156-1163L989 77Q959 318 784 418Q609 518 370 518Q300 518 217 503Q134 488 102 473L153 258Q166 270 213 295Q260 320 320 339.50Q380 359 434 359Q506 359 550 341.50Q594 324 619.50 278Q645 232 655 145L680-73Q628-31 561-5.50Q494 20 413 20Q293 20 214-36Q135-92 97.50-187Q60-282 60-402Q60-603 139-777Q218-951 373.50-1057Q529-1163 746-1163M814-1012Q775-1023 722-1023Q608-1023 537.50-931Q467-839 436.50-700.50Q406-562 406-413Q406-291 445.50-222.50Q485-154 554-154Q593-154 630-174Q667-194 699-227L814-1012Z"/><path id="s70:merriweather-blackitalic:256" d="M49-250Q93-208 165-171Q237-134 316-134Q378-134 426-166Q474-198 474-262Q474-318 430-366.50Q386-415 290-482Q204-541 150.50-620.50Q97-700 97-820Q97-920 155-998Q213-1076 319.50-1119.50Q426-1163 566-1163Q642-1163 719.50-1151Q797-1139 826-1126L783-919Q751-956 700-987.50Q649-1019 579-1019Q511-1019 465-989Q419-959 419-902Q419-863 438-829.50Q457-796 494-763Q531-730 599-680Q666-631 708-588Q750-545 775.50-486.50Q801-428 801-348Q801-228 735.50-145Q670-62 561-21Q452 20 322 20Q260 20 192.50 9.50Q125-1 72.50-17.50Q20-34 1-49L49-250Z"/><path id="s70:merriweather-blackitalic:225" d="M805-443Q835-676 835-795Q835-868 826-904Q817-940 797.50-952.50Q778-965 742-965Q708-965 665-935Q622-905 580-854Q538-803 507-742L405 0L82 0L214-962L106-1022L123-1111L495-1163L548-1139L532-927Q598-1033 691.50-1098Q785-1163 894-1163Q1011-1163 1081.50-1105Q1152-1047 1166-916Q1232-1035 1333.50-1099Q1435-1163 1563-1163Q1687-1163 1757.50-1091.50Q1828-1020 1828-861Q1828-794 1779-505L1768-439Q1752-351 1744.50-298Q1737-245 1737-206Q1737-173 1747.50-162Q1758-151 1776-151Q1793-151 1811.50-160.50Q1830-170 1866-197L1894-124Q1858-77 1783.50-28Q1709 21 1594 21Q1473 21 1432-27Q1391-75 1391-150Q1391-183 1400.50-239.50Q1410-296 1430-404L1437-443Q1458-561 1470-649.50Q1482-738 1482-813Q1482-872 1474-905Q1466-938 1449-951.50Q1432-965 1403-965Q1345-965 1279-907.50Q1213-850 1166-758Q1160-630 1142-505L1083 0L748 0L805-443Z"/><path id="s70:merriweather-blackitalic:166" d="M150-1527L171-1611L532-1650L586-1623L512-1059Q635-1163 793-1163Q964-1163 1050.50-1051Q1137-939 1137-730Q1137-519 1053.50-348Q970-177 815.50-78.50Q661 20 455 20Q398 20 333 7.50Q268-5 212-23L66 20L253-1484L150-1527M391-128Q424-119 481-119Q590-119 660.50-204.50Q731-290 763.50-428.50Q796-567 796-729Q796-841 759.50-914.50Q723-988 652-988Q565-988 491-899L391-128Z"/><path id="s70:merriweather-blackitalic:191" d="M100-984L121-1087L257-1150L270-1229Q291-1356 352-1455.50Q413-1555 512.50-1612.50Q612-1670 741-1670Q855-1670 919-1644L857-1466Q828-1487 797-1500.50Q766-1514 723-1514Q673-1514 648.50-1489.50Q624-1465 614.50-1427.50Q605-1390 592-1305L569-1155L774-1155L743-984L545-984L447-158Q426 17 364 169.50Q302 322 194 417.50Q86 513-63 513Q-111 513-165 505Q-219 497-253 489L-194 299Q-161 314-115.50 331Q-70 348-40 348Q10 348 42.50 302Q75 256 88 156L225-984L100-984Z"/><path id="s70:merriweather-blackitalic:265" d="M210-994L91-994L115-1103L237-1150Q278-1184 319.50-1256Q361-1328 398-1416L587-1416L554-1155L762-1155L739-994L533-994L450-390L447-368Q446-360 440.50-319Q435-278 435-251Q435-170 508-170Q551-170 596.50-183.50Q642-197 677-227L702-147Q645-82 543-31Q441 20 295 20Q211 20 156.50-22Q102-64 102-159Q102-198 129-398L210-994Z"/><path id="s70:merriweather-blackitalic:201" d="M107-1022L123-1111L523-1163L578-1139L450-227Q448-209 448-202Q448-177 457.50-164Q467-151 485-151Q502-151 522-161Q542-171 577-197L605-124Q566-75 493.50-27.50Q421 20 309 20Q213 20 160.50-15.50Q108-51 108-109Q108-115 110-129Q132-273 191-724L222-958L107-1022M258-1502Q258-1558 282-1603.50Q306-1649 351-1675Q396-1701 456-1701Q506-1701 545-1678.50Q584-1656 605-1620Q626-1584 626-1544Q626-1453 574.50-1395.50Q523-1338 420-1338Q377-1338 340-1361.50Q303-1385 280.50-1423Q258-1461 258-1502Z"/><path id="s70:merriweather-blackitalic:289" d="M122-927Q115-957 105.50-970Q96-983 80-983Q53-983 30-968L1-1046Q14-1063 52-1091Q90-1119 145.50-1141Q201-1163 262-1163Q350-1163 395.50-1128.50Q441-1094 452-1026Q467-932 505-699L578-240L606-43L667-175Q826-515 826-737Q826-785 818.50-817.50Q811-850 797-890Q784-929 777.50-957Q771-985 771-1025Q771-1086 812-1124.50Q853-1163 929-1163Q987-1163 1028.50-1133Q1070-1103 1091-1055.50Q1112-1008 1112-957Q1112-855 1093-767Q1074-679 1042-599.50Q1010-520 954-403Q905-294 808.50-130Q712 34 591 230Q492 391 383 454.50Q274 518 151 518Q92 518 27.50 503.50Q-37 489-57 473L21 271Q44 294 100.50 311.50Q157 329 207 329Q302 329 379.50 269.50Q457 210 542 71L341 71L122-927Z"/><path id="s70:merriweather-blackitalic:577" d="M252-341Q299-341 332.50-318.50Q366-296 383-259Q400-222 400-180Q400-115 370.50-70Q341-25 294.50-2.50Q248 20 198 20Q161 20 129.50-1Q98-22 79.50-59Q61-96 61-141Q61-201 89-246.50Q117-292 161-316.50Q205-341 252-341Z"/><path id="s70:merriweather-blackitalic:288" d="M226 0L-99 0L366-570L199-901Q158-984 121-984Q92-984 76-980.50Q60-977 41-965L2-1049Q16-1066 57-1093Q98-1120 163.50-1141.50Q229-1163 308-1163Q387-1163 437-1136Q487-1109 503-1058L587-792L810-1155L1115-1155L670-594L817-299Q838-257 867-218Q896-179 919-179Q940-179 960.50-185.50Q981-192 1016-217L1061-133Q1046-110 1004.50-74.50Q963-39 891-9.50Q819 20 726 20Q586 20 548-85L453-374L226 0Z"/><path id="s70:merriweather-blackitalic:168" d="M59-464Q59-640 132-800Q205-960 351-1061.50Q497-1163 705-1163Q771-1163 842-1153Q913-1143 961-1125L878-803L805-803Q744-897 702.50-951.50Q661-1006 633-1006Q579-1006 524.50-939Q470-872 435-753Q400-634 400-488Q400-373 418.50-303Q437-233 475.50-201Q514-169 575-169Q664-169 723.50-203Q783-237 829-297L893-194Q862-144 800.50-95Q739-46 648-13Q557 20 447 20Q327 20 240-35Q153-90 106-198.50Q59-307 59-464Z"/><path id="s70:merriweather-blackitalic:43" d="M137-136L301-1386L156-1412L170-1522L1303-1522L1262-1139L1041-1139L1011-1376L656-1400L581-859L1062-886L1031-662L561-701L489-136L766-106L758 0L-12 0L-1-106L137-136Z"/><path id="s70:merriweather-blackitalic:571" d="M229-295Q342-269 392-185Q442-101 442 4Q442 169 335.50 305Q229 441 48 521L-15 432L-12 411Q42 387 88.50 334Q135 281 162.50 215.50Q190 150 190 88Q190 44 176.50 5.50Q163-33 139.50-56Q116-79 88-78L95-142L229-295Z"/></defs><g id="line-0"><use x="0" y="1734" xlink:href="#s70:merriweather-blackitalic:119"/><use x="1447" y="1734" xlink:href="#s70:merriweather-blackitalic:198"/><use x="2743" y="1734" xlink:href="#s70:merriweather-blackitalic:181"/><use x="3823" y="1734" xlink:href="#s70:merriweather-blackitalic:3"/><use x="4308" y="1734" xlink:href="#s70:merriweather-blackitalic:33"/><use x="5613" y="1734" xlink:href="#s70:merriweather-blackitalic:271"/><use x="6884" y="1734" xlink:href="#s70:merriweather-blackitalic:252"/><use x="7736" y="1734" xlink:href="#s70:merriweather-blackitalic:236"/><use x="8933" y="1734" xlink:href="#s70:merriweather-blackitalic:248"/><use x="10155" y="1734" xlink:href="#s70:merriweather-blackitalic:181"/><use x="11235" y="1734" xlink:href="#s70:merriweather-blackitalic:153"/><use x="12450" y="1734" xlink:href="#s70:merriweather-blackitalic:227"/><use x="13754" y="1734" xlink:href="#s70:merriweather-blackitalic:3"/><use x="14239" y="1734" xlink:href="#s70:merriweather-blackitalic:218"/><use x="14874" y="1734" xlink:href="#s70:merriweather-blackitalic:153"/><use x="16089" y="1734" xlink:href="#s70:merriweather-blackitalic:227"/><use x="17393" y="1734" xlink:href="#s70:merriweather-blackitalic:193"/><use x="18611" y="1734" xlink:href="#s70:merriweather-blackitalic:271"/><use x="19892" y="1734" xlink:href="#s70:merriweather-blackitalic:153"/><use x="21107" y="1734" xlink:href="#s70:merriweather-blackitalic:193"/><use x="22325" y="1734" xlink:href="#s70:merriweather-blackitalic:181"/><use x="23405" y="1734" xlink:href="#s70:merriweather-blackitalic:256"/><use x="24282" y="1734" xlink:href="#s70:merriweather-blackitalic:3"/><use x="24767" y="1734" xlink:href="#s70:merriweather-blackitalic:153"/><use x="25982" y="1734" xlink:href="#s70:merriweather-blackitalic:252"/><use x="26834" y="1734" xlink:href="#s70:merriweather-blackitalic:181"/><use x="27914" y="1734" xlink:href="#s70:merriweather-blackitalic:3"/><use x="28399" y="1734" xlink:href="#s70:merriweather-blackitalic:225"/><use x="30358" y="1734" xlink:href="#s70:merriweather-blackitalic:181"/><use x="31438" y="1734" xlink:href="#s70:merriweather-blackitalic:225"/><use x="33397" y="1734" xlink:href="#s70:merriweather-blackitalic:166"/><use x="34599" y="1734" xlink:href="#s70:merriweather-blackitalic:181"/><use x="35679" y="1734" xlink:href="#s70:merriweather-blackitalic:252"/><use x="36531" y="1734" xlink:href="#s70:merriweather-blackitalic:256"/><use x="37408" y="1734" xlink:href="#s70:merriweather-blackitalic:3"/><use x="37893" y="1734" xlink:href="#s70:merriweather-blackitalic:236"/><use x="39090" y="1734" xlink:href="#s70:merriweather-blackitalic:191"/><use x="39778" y="1734" xlink:href="#s70:merriweather-blackitalic:3"/><use x="40263" y="1734" xlink:href="#s70:merriweather-blackitalic:265"/><use x="40987" y="1734" xlink:href="#s70:merriweather-blackitalic:198"/><use x="42283" y="1734" xlink:href="#s70:merriweather-blackitalic:181"/><use x="43363" y="1734" xlink:href="#s70:merriweather-blackitalic:3"/><use x="43848" y="1734" xlink:href="#s70:merriweather-blackitalic:256"/><use x="44725" y="1734" xlink:href="#s70:merriweather-blackitalic:153"/><use x="45940" y="1734" xlink:href="#s70:merriweather-blackitalic:225"/><use x="47899" y="1734" xlink:href="#s70:merriweather-blackitalic:181"/><use x="48979" y="1734" xlink:href="#s70:merriweather-blackitalic:3"/><use x="49464" y="1734" xlink:href="#s70:merriweather-blackitalic:191"/><use x="50152" y="1734" xlink:href="#s70:merriweather-blackitalic:153"/><use x="51367" y="1734" xlink:href="#s70:merriweather-blackitalic:225"/><use x="53326" y="1734" xlink:href="#s70:merriweather-blackitalic:201"/><use x="53997" y="1734" xlink:href="#s70:merriweather-blackitalic:218"/><use x="54632" y="1734" xlink:href="#s70:merriweather-blackitalic:289"/><use x="55735" y="1734" xlink:href="#s70:merriweather-blackitalic:577"/></g><g id="line-1"><use x="11523.5" y="4191.6" xlink:href="#s70:merriweather-blackitalic:119"/><use x="12970.5" y="4191.6" xlink:href="#s70:merriweather-blackitalic:198"/><use x="14266.5" y="4191.6" xlink:href="#s70:merriweather-blackitalic:181"/><use x="15346.5" y="4191.6" xlink:href="#s70:merriweather-blackitalic:201"/><use x="16017.5" y="4191.6" xlink:href="#s70:merriweather-blackitalic:252"/><use x="16869.5" y="4191.6" xlink:href="#s70:merriweather-blackitalic:3"/><use x="17354.5" y="4191.6" xlink:href="#s70:merriweather-blackitalic:256"/><use x="18231.5" y="4191.6" xlink:href="#s70:merriweather-blackitalic:181"/><use x="19311.5" y="4191.6" xlink:href="#s70:merriweather-blackitalic:248"/><use x="20533.5" y="4191.6" xlink:href="#s70:merriweather-blackitalic:153"/><use x="21748.5" y="4191.6" xlink:href="#s70:merriweather-blackitalic:252"/><use x="22600.5" y="4191.6" xlink:href="#s70:merriweather-blackitalic:153"/><use x="23815.5" y="4191.6" xlink:href="#s70:merriweather-blackitalic:265"/><use x="24539.5" y="4191.6" xlink:href="#s70:merriweather-blackitalic:181"/><use x="25619.5" y="4191.6" xlink:href="#s70:merriweather-blackitalic:3"/><use x="26104.5" y="4191.6" xlink:href="#s70:merriweather-blackitalic:181"/><use x="27184.5" y="4191.6" xlink:href="#s70:merriweather-blackitalic:288"/><use x="28214.5" y="4191.6" xlink:href="#s70:merriweather-blackitalic:201"/><use x="28885.5" y="4191.6" xlink:href="#s70:merriweather-blackitalic:256"/><use x="29762.5" y="4191.6" xlink:href="#s70:merriweather-blackitalic:265"/><use x="30486.5" y="4191.6" xlink:href="#s70:merriweather-blackitalic:181"/><use x="31566.5" y="4191.6" xlink:href="#s70:merriweather-blackitalic:227"/><use x="32870.5" y="4191.6" xlink:href="#s70:merriweather-blackitalic:168"/><use x="33831.5" y="4191.6" xlink:href="#s70:merriweather-blackitalic:181"/><use x="34911.5" y="4191.6" xlink:href="#s70:merriweather-blackitalic:3"/><use x="35396.5" y="4191.6" xlink:href="#s70:merriweather-blackitalic:201"/><use x="36067.5" y="4191.6" xlink:href="#s70:merriweather-blackitalic:256"/><use x="36944.5" y="4191.6" xlink:href="#s70:merriweather-blackitalic:3"/><use x="37429.5" y="4191.6" xlink:href="#s70:merriweather-blackitalic:153"/><use x="38644.5" y="4191.6" xlink:href="#s70:merriweather-blackitalic:3"/><use x="39129.5" y="4191.6" xlink:href="#s70:merriweather-blackitalic:225"/><use x="41088.5" y="4191.6" xlink:href="#s70:merriweather-blackitalic:289"/><use x="42191.5" y="4191.6" xlink:href="#s70:merriweather-blackitalic:265"/><use x="42915.5" y="4191.6" xlink:href="#s70:merriweather-blackitalic:198"/><use x="44211.5" y="4191.6" xlink:href="#s70:merriweather-blackitalic:577"/></g><g id="line-2"><use x="14246" y="6649.2" xlink:href="#s70:merriweather-blackitalic:43"/><use x="15470" y="6649.2" xlink:href="#s70:merriweather-blackitalic:236"/><use x="16667" y="6649.2" xlink:href="#s70:merriweather-blackitalic:252"/><use x="17519" y="6649.2" xlink:href="#s70:merriweather-blackitalic:3"/><use x="18004" y="6649.2" xlink:href="#s70:merriweather-blackitalic:256"/><use x="18881" y="6649.2" xlink:href="#s70:merriweather-blackitalic:168"/><use x="19842" y="6649.2" xlink:href="#s70:merriweather-blackitalic:201"/><use x="20513" y="6649.2" xlink:href="#s70:merriweather-blackitalic:181"/><use x="21593" y="6649.2" xlink:href="#s70:merriweather-blackitalic:227"/><use x="22897" y="6649.2" xlink:href="#s70:merriweather-blackitalic:168"/><use x="23858" y="6649.2" xlink:href="#s70:merriweather-blackitalic:181"/><use x="24938" y="6649.2" xlink:href="#s70:merriweather-blackitalic:571"/><use x="25494" y="6649.2" xlink:href="#s70:merriweather-blackitalic:3"/><use x="25979" y="6649.2" xlink:href="#s70:merriweather-blackitalic:225"/><use x="27938" y="6649.2" xlink:href="#s70:merriweather-blackitalic:271"/><use x="29219" y="6649.2" xlink:href="#s70:merriweather-blackitalic:256"/><use x="30096" y="6649.2" xlink:href="#s70:merriweather-blackitalic:201"/><use x="30767" y="6649.2" xlink:href="#s70:merriweather-blackitalic:168"/><use x="31728" y="6649.2" xlink:href="#s70:merriweather-blackitalic:571"/><use x="32284" y="6649.2" xlink:href="#s70:merriweather-blackitalic:3"/><use x="32769" y="6649.2" xlink:href="#s70:merriweather-blackitalic:256"/><use x="33646" y="6649.2" xlink:href="#s70:merriweather-blackitalic:248"/><use x="34868" y="6649.2" xlink:href="#s70:merriweather-blackitalic:236"/><use x="36065" y="6649.2" xlink:href="#s70:merriweather-blackitalic:252"/><use x="36917" y="6649.2" xlink:href="#s70:merriweather-blackitalic:265"/><use x="37641" y="6649.2" xlink:href="#s70:merriweather-blackitalic:571"/><use x="38197" y="6649.2" xlink:href="#s70:merriweather-blackitalic:3"/><use x="38682" y="6649.2" xlink:href="#s70:merriweather-blackitalic:181"/><use x="39762" y="6649.2" xlink:href="#s70:merriweather-blackitalic:265"/><use x="40486" y="6649.2" xlink:href="#s70:merriweather-blackitalic:168"/><use x="41447" y="6649.2" xlink:href="#s70:merriweather-blackitalic:571"/></g></svg>