<svg xmlns="http://www.w3.org/2000/svg" xmlns:xlink="http://www.w3.org/1999/xlink" width="706" height="84" viewBox="0 0 60262 7209.2"><defs><path id="s71:merriweather-bold:120" d="M565-160L565-1371L307-1361L224-917L34-917L64-1522L1391-1522L1420-917L1237-917L1149-1361L907-1371L907-161L1187-134L1187 0L308 0L308-134L565-160Z"/><path id="s71:merriweather-bold:201" d="M192-153L192-1482L46-1508L46-1631L449-1680L455-1680L514-1636L516-1195L500-1010Q567-1070 669.50-1116Q772-1162 893-1162Q1021-1162 1092.50-1114Q1164-1066 1193-969Q1222-872 1222-710L1222-154L1352-134L1352 0L788 0L788-133L898-153L898-709Q898-807 885.50-862Q873-917 839-944Q805-971 739-971Q680-971 622.50-948.50Q565-926 522-891L522-154L641-134L641 0L84 0L84-134L192-153Z"/><path id="s71:merriweather-bold:183" d="M67-568Q67-753 136.50-888Q206-1023 332-1095Q458-1167 624-1167Q835-1167 947.50-1060Q1060-953 1065-753Q1065-614 1050-542L404-542Q416-358 494.50-269Q573-180 703-180Q778-180 859.50-206Q941-232 992-265L1050-141Q1015-104 946.50-66Q878-28 789.50-2.50Q701 23 612 23Q426 23 304-51Q182-125 124.50-257.50Q67-390 67-568M746-679L747-763Q747-888 711-957Q675-1026 589-1026Q532-1026 492-997Q452-968 428-891.50Q404-815 401-679L746-679Z"/><path id="s71:merriweather-bold:3" d=""/><path id="s71:merriweather-bold:34" d="M233-159L233-1352L74-1381L74-1522L1181-1522L1209-1169L1046-1169L976-1367L572-1387L572-855L826-861L863-1026L1009-1026L1009-517L863-517L828-693L572-699L572-145L1022-172L1147-430L1318-381L1266 0L77 0L77-134L233-159Z"/><path id="s71:merriweather-bold:274" d="M876-140Q844-99 789.50-61.50Q735-24 668-0.50Q601 23 535 23Q403 23 322.50-20Q242-63 203.50-158Q165-253 165-411L165-976L67-1008L67-1134L441-1163L443-1163L489-1135L489-404Q489-312 503.50-259.50Q518-207 552-184.50Q586-162 645-162Q750-162 839-234L839-976L712-1010L712-1135L1105-1163L1109-1163L1163-1135L1163-141L1272-141L1272-12Q1208 3 1149.50 13Q1091 23 1019 23Q945 23 910.50-8.50Q876-40 876-103L876-140Z"/><path id="s71:merriweather-bold:255" d="M219-153L219-922L98-962L98-1120L433-1166L438-1166L497-1122L497-1064L492-906L497-906Q511-951 560.50-1013Q610-1075 687-1121.50Q764-1168 855-1168Q880-1168 900.50-1163.50Q921-1159 933-1152L933-811Q898-835 861.50-846Q825-857 773-857Q699-857 637-841Q575-825 543-801L543-154L779-133L779 0L87 0L87-134L219-153Z"/><path id="s71:merriweather-bold:239" d="M636-1168Q806-1168 928.50-1097.50Q1051-1027 1115.50-894.50Q1180-762 1180-580Q1180-381 1102-245Q1024-109 894-43Q764 23 607 23Q437 23 314.50-47.50Q192-118 127.50-250.50Q63-383 63-565Q63-759 141.50-895Q220-1031 350.50-1099.50Q481-1168 636-1168M827-555Q827-790 778.50-907.50Q730-1025 620-1025Q516-1025 465-919Q414-813 414-590Q414-357 464.50-238.50Q515-120 625-120Q728-120 777.50-225.50Q827-331 827-555Z"/><path id="s71:merriweather-bold:251" d="M635 23Q601 23 563 17Q525 11 500 4L506 170L506 342L684 368L684 496L57 496L57 368L186 343L186-922L64-962L64-1120L419-1166L424-1166L478-1122L478-1015Q528-1078 611.50-1123Q695-1168 797-1168Q923-1168 1023-1109Q1123-1050 1182-924.50Q1241-799 1241-606Q1241-435 1170-291.50Q1099-148 962-62.50Q825 23 635 23M506-159Q519-140 557-126Q595-112 642-112Q756-112 826.50-224Q897-336 897-583Q897-784 836.50-882Q776-980 674-980Q623-980 578-958.50Q533-937 506-908L506-159Z"/><path id="s71:merriweather-bold:155" d="M721-743Q721-818 704.50-862Q688-906 644-928Q600-950 518-950Q416-950 333.50-927.50Q251-905 168-869L167-869L102-1004Q135-1032 211.50-1069.50Q288-1107 390.50-1135.50Q493-1164 600-1164Q760-1164 851.50-1122.50Q943-1081 982-991Q1021-901 1021-748L1021-135L1130-135L1130-8Q1079 3 1002 14Q925 25 867 25Q814 25 785.50 15.50Q757 6 745-18.50Q733-43 733-90L733-121Q684-64 600-20.50Q516 23 407 23Q311 23 231.50-16.50Q152-56 105-133Q58-210 58-319Q58-507 234-602.50Q410-698 721-701L721-743M721-566Q554-565 479.50-506Q405-447 405-356Q405-264 447.50-214.50Q490-165 562-165Q597-165 643.50-183.50Q690-202 721-230L721-566Z"/><path id="s71:merriweather-bold:230" d="M220-152L220-922L97-962L97-1120L458-1166L463-1166L518-1122L518-1049L516-1003Q587-1069 697.50-1115.50Q808-1162 923-1162Q1047-1162 1118.50-1117.50Q1190-1073 1221.50-975Q1253-877 1253-709L1253-154L1373-136L1373 0L817 0L817-134L922-153L922-709Q922-808 909-863.50Q896-919 862-945Q828-971 764-971Q706-971 648.50-946.50Q591-922 550-889L550-153L666-134L666 0L104 0L104-134L220-152Z"/><path id="s71:merriweather-bold:221" d="M196-154L196-1482L49-1508L49-1631L453-1680L458-1680L518-1636L518-154L653-134L653 0L62 0L62-134L196-154Z"/><path id="s71:merriweather-bold:195" d="M587-398Q490-398 423-412Q411-389 404-361Q397-333 397-314Q397-270 419-247.50Q441-225 487.50-216.50Q534-208 618-208L822-208Q1036-208 1142-131Q1248-54 1248 108Q1248 239 1157.50 340Q1067 441 919.50 496.50Q772 552 608 552L607 552Q327 552 198 465.50Q69 379 69 234Q69 148 123 72Q177-4 258-39Q162-95 162-208Q162-277 206-340Q250-403 325-440Q212-485 158-573Q104-661 104-783Q104-900 173-987.50Q242-1075 359-1121.50Q476-1168 616-1168L617-1168Q874-1168 992-1068Q1022-1106 1082.50-1138.50Q1143-1171 1214-1171L1276-1171L1276-924L1081-924Q1096-870 1096-807Q1097-685 1036.50-592.50Q976-500 861-449Q746-398 588-398L587-398M605-1035Q517-1035 474-975.50Q431-916 431-796Q431-671 473-603.50Q515-536 610-536L611-536Q699-536 737-600.50Q775-665 775-785Q775-915 735-975Q695-1035 606-1035L605-1035M415 7Q386 69 386 158Q386 398 642 398L644 398Q711 398 772.50 373Q834 348 872.50 298Q911 248 911 176Q911 115 892.50 80Q874 45 830 29.50Q786 14 708 14L524 14Q473 14 415 7Z"/><path id="s71:merriweather-bold:259" d="M298-332L349-176Q364-151 417.50-130.50Q471-110 528-110Q615-110 656-146.50Q697-183 697-241Q697-284 665.50-318Q634-352 582.50-379.50Q531-407 432-452L380-476Q240-538 172.50-622.50Q105-707 105-837Q105-931 160-1005Q215-1079 317.50-1121.50Q420-1164 559-1164Q654-1164 722-1152Q790-1140 872-1119Q916-1106 942-1102L942-829L762-829L710-976Q699-998 660.50-1015Q622-1032 569-1032Q489-1032 446-998Q403-964 403-909Q403-863 430.50-830.50Q458-798 499.50-775.50Q541-753 617-720L664-700Q773-652 845-606.50Q917-561 964.50-491Q1012-421 1012-322Q1012-224 961-146Q910-68 804.50-22.50Q699 23 544 23Q436 23 347.50 4.50Q259-14 161-44Q141-51 106-60L106-332L298-332Z"/><path id="s71:merriweather-bold:228" d="M220-152L220-922L97-962L97-1120L458-1166L463-1166L517-1122L517-1049L516-1002Q560-1045 633-1082Q706-1119 784.50-1140.50Q863-1162 922-1162Q1033-1162 1101.50-1124.50Q1170-1087 1205-1008Q1273-1072 1380.50-1117Q1488-1162 1596-1162Q1720-1162 1793-1114.50Q1866-1067 1898-968.50Q1930-870 1930-710L1930-152L2055-133L2055 0L1508 0L1508-133L1601-153L1601-702Q1601-804 1586.50-861.50Q1572-919 1536.50-945Q1501-971 1436-971Q1386-971 1333-948.50Q1280-926 1237-895Q1250-817 1250-709L1250-153L1372-133L1372 0L814 0L814-133L920-153L920-709Q920-808 907-863.50Q894-919 860-945Q826-971 762-971Q705-971 647-947.50Q589-924 549-891L549-153L664-133L664 0L109 0L109-133L220-152Z"/><path id="s71:merriweather-bold:168" d="M0-1512L0-1631L396-1680L401-1680L467-1639L467-1042Q519-1096 595.50-1132Q672-1168 762-1168Q888-1168 987.50-1109.50Q1087-1051 1145.50-925Q1204-799 1204-606Q1204-428 1130-285Q1056-142 917-59.50Q778 23 593 23Q475 23 379.50 9Q284-5 224.50-24Q165-43 147-56L147-1487L0-1512M467-153Q477-131 514.50-117.50Q552-104 604-104Q680-104 737-157Q794-210 826-316.50Q858-423 858-579Q858-779 799-875.50Q740-972 636-972Q583-972 538-949Q493-926 467-895L467-153Z"/><path id="s71:merriweather-bold:193" d="M229-155L229-966L65-966L65-1089L229-1134L229-1222Q229-1357 303.50-1469.50Q378-1582 500.50-1647Q623-1712 762-1712Q812-1712 840-1706.50Q868-1701 896-1692L896-1396Q882-1411 848-1428.50Q814-1446 769-1457.50Q724-1469 681-1469Q630-1469 602.50-1456.50Q575-1444 563.50-1413Q552-1382 552-1325L552-1136L805-1136L805-966L552-966L552-153L757-133L757 0L74 0L74-133L229-155Z"/><path id="s71:merriweather-bold:268" d="M50-969L50-1086Q74-1095 118-1114Q162-1133 167-1137Q205-1174 231-1234Q249-1273 270-1332Q291-1391 305-1439L490-1439L499-1138L799-1138L799-969L501-969L501-427Q501-309 506.50-264Q512-219 531-205.50Q550-192 598-192L599-192Q684-192 786-222L787-222L830-98Q794-68 731.50-41.50Q669-15 592.50 2Q516 19 444 19L442 19Q306 19 239.50-42.50Q173-104 173-233L173-969L50-969Z"/><path id="s71:merriweather-bold:204" d="M211-154L211-922L76-963L76-1116L470-1166L475-1166L537-1122L537-153L665-134L665 0L77 0L77-134L211-154M162-1488Q162-1542 184.50-1587Q207-1632 250.50-1658.50Q294-1685 354-1685L355-1685Q412-1685 452.50-1662Q493-1639 514.50-1601Q536-1563 536-1517Q536-1431 484-1376.50Q432-1322 335-1322L334-1322Q284-1322 245-1344Q206-1366 184-1403.50Q162-1441 162-1488Z"/><path id="s71:merriweather-bold:293" d="M136 249Q150 259 196 267.50Q242 276 280 276Q378 276 444 212Q510 148 566 0L439 0L65-981L-26-1007L-26-1138L569-1138L569-1007L428-981L599-425L660-213L711-425L870-983L746-1007L746-1138L1205-1138L1205-1007L1109-983Q1021-710 900-362Q779-14 760 28Q700 191 635 295.50Q570 400 484.50 455Q399 510 284 510Q244 510 199.50 504.50Q155 499 136 490L136 249Z"/><path id="s71:merriweather-bold:588" d="M142-151Q142-204 170-246.50Q198-289 244.50-312.50Q291-336 346-336Q402-336 442.50-313Q483-290 504.50-251.50Q526-213 526-169Q526-83 467-33Q408 17 315 17Q271 17 231-4.50Q191-26 166.50-64Q142-102 142-151Z"/><path id="s71:merriweather-bold:292" d="M132-153L452-558L122-982L17-1007L17-1138L641-1138L641-1007L515-982L659-780L711-693L761-779L908-982L776-1007L776-1138L1233-1138L1233-1007L1115-982L805-599L1151-152L1262-132L1262 0L644 0L644-132L755-153L612-372L551-461L505-373L357-154L505-132L505 0L4 0L4-132L132-153Z"/><path id="s71:merriweather-bold:170" d="M661-1168Q740-1168 799-1156.50Q858-1145 929-1125Q978-1110 1004-1106L990-751L789-751L737-965Q727-994 698-1008Q669-1022 629-1022Q421-1022 421-618Q421-471 454-372Q487-273 546-224.50Q605-176 682-176Q768-176 834-198.50Q900-221 956-257L1011-136Q981-102 920-65Q859-28 776.50-2.50Q694 23 604 23Q424 23 306-51Q188-125 131.50-255Q75-385 74-557Q74-737 146.50-875.50Q219-1014 352-1091Q485-1168 661-1168Z"/><path id="s71:merriweather-bold:44" d="M233-159L233-1353L73-1381L73-1522L1212-1522L1235-1145L1054-1145L975-1363L572-1386L572-824L842-828L885-1006L1034-1006L1034-473L886-473L842-655L572-663L572-160L875-134L875 0L77 0L77-134L233-159Z"/><path id="s71:merriweather-bold:582" d="M355-347Q413-347 456.50-313Q500-279 523.50-215.50Q547-152 547-65Q547 56 503.50 170Q460 284 395 365.50Q330 447 270 476L267 476L174 405L174 373Q233 329 270.50 261.50Q308 194 308 104Q308 62 291.50 36Q275 10 240-25Q215-50 200.50-67.50Q186-85 175.50-111.50Q165-138 165-173Q165-225 188-264.50Q211-304 250.50-325.50Q290-347 338-347L355-347Z"/></defs><g id="line-0"><use x="0" y="1734" xlink:href="#s71:merriweather-bold:120"/><use x="1467" y="1734" xlink:href="#s71:merriweather-bold:201"/><use x="2855" y="1734" xlink:href="#s71:merriweather-bold:183"/><use x="3984" y="1734" xlink:href="#s71:merriweather-bold:3"/><use x="4557" y="1734" xlink:href="#s71:merriweather-bold:34"/><use x="5904" y="1734" xlink:href="#s71:merriweather-bold:274"/><use x="7228" y="1734" xlink:href="#s71:merriweather-bold:255"/><use x="8205" y="1734" xlink:href="#s71:merriweather-bold:239"/><use x="9448" y="1734" xlink:href="#s71:merriweather-bold:251"/><use x="10758" y="1734" xlink:href="#s71:merriweather-bold:183"/><use x="11887" y="1734" xlink:href="#s71:merriweather-bold:155"/><use x="13048" y="1734" xlink:href="#s71:merriweather-bold:230"/><use x="14467" y="1734" xlink:href="#s71:merriweather-bold:3"/><use x="15040" y="1734" xlink:href="#s71:merriweather-bold:221"/><use x="15744" y="1734" xlink:href="#s71:merriweather-bold:155"/><use x="16905" y="1734" xlink:href="#s71:merriweather-bold:230"/><use x="18324" y="1734" xlink:href="#s71:merriweather-bold:195"/><use x="19616" y="1734" xlink:href="#s71:merriweather-bold:274"/><use x="20940" y="1734" xlink:href="#s71:merriweather-bold:155"/><use x="22101" y="1734" xlink:href="#s71:merriweather-bold:195"/><use x="23393" y="1734" xlink:href="#s71:merriweather-bold:183"/><use x="24522" y="1734" xlink:href="#s71:merriweather-bold:259"/><use x="25602" y="1734" xlink:href="#s71:merriweather-bold:3"/><use x="26175" y="1734" xlink:href="#s71:merriweather-bold:155"/><use x="27336" y="1734" xlink:href="#s71:merriweather-bold:255"/><use x="28313" y="1734" xlink:href="#s71:merriweather-bold:183"/><use x="29442" y="1734" xlink:href="#s71:merriweather-bold:3"/><use x="30015" y="1734" xlink:href="#s71:merriweather-bold:228"/><use x="32117" y="1734" xlink:href="#s71:merriweather-bold:183"/><use x="33246" y="1734" xlink:href="#s71:merriweather-bold:228"/><use x="35348" y="1734" xlink:href="#s71:merriweather-bold:168"/><use x="36621" y="1734" xlink:href="#s71:merriweather-bold:183"/><use x="37750" y="1734" xlink:href="#s71:merriweather-bold:255"/><use x="38727" y="1734" xlink:href="#s71:merriweather-bold:259"/><use x="39807" y="1734" xlink:href="#s71:merriweather-bold:3"/><use x="40380" y="1734" xlink:href="#s71:merriweather-bold:239"/><use x="41623" y="1734" xlink:href="#s71:merriweather-bold:193"/><use x="42474" y="1734" xlink:href="#s71:merriweather-bold:3"/><use x="43047" y="1734" xlink:href="#s71:merriweather-bold:268"/><use x="43883" y="1734" xlink:href="#s71:merriweather-bold:201"/><use x="45271" y="1734" xlink:href="#s71:merriweather-bold:183"/><use x="46400" y="1734" xlink:href="#s71:merriweather-bold:3"/><use x="46973" y="1734" xlink:href="#s71:merriweather-bold:259"/><use x="48053" y="1734" xlink:href="#s71:merriweather-bold:155"/><use x="49214" y="1734" xlink:href="#s71:merriweather-bold:228"/><use x="51316" y="1734" xlink:href="#s71:merriweather-bold:183"/><use x="52445" y="1734" xlink:href="#s71:merriweather-bold:3"/><use x="53018" y="1734" xlink:href="#s71:merriweather-bold:193"/><use x="53869" y="1734" xlink:href="#s71:merriweather-bold:155"/><use x="55030" y="1734" xlink:href="#s71:merriweather-bold:228"/><use x="57132" y="1734" xlink:href="#s71:merriweather-bold:204"/><use x="57853" y="1734" xlink:href="#s71:merriweather-bold:221"/><use x="58557" y="1734" xlink:href="#s71:merriweather-bold:293"/><use x="59736" y="1734" xlink:href="#s71:merriweather-bold:588"/></g><g id="line-1"><use x="12095.5" y="4191.6" xlink:href="#s71:merriweather-bold:120"/><use x="13562.5" y="4191.6" xlink:href="#s71:merriweather-bold:201"/><use x="14950.5" y="4191.6" xlink:href="#s71:merriweather-bold:183"/><use x="16079.5" y="4191.6" xlink:href="#s71:merriweather-bold:204"/><use x="16800.5" y="4191.6" xlink:href="#s71:merriweather-bold:255"/><use x="17777.5" y="4191.6" xlink:href="#s71:merriweather-bold:3"/><use x="18350.5" y="4191.6" xlink:href="#s71:merriweather-bold:259"/><use x="19430.5" y="4191.6" xlink:href="#s71:merriweather-bold:183"/><use x="20559.5" y="4191.6" xlink:href="#s71:merriweather-bold:251"/><use x="21869.5" y="4191.6" xlink:href="#s71:merriweather-bold:155"/><use x="23030.5" y="4191.6" xlink:href="#s71:merriweather-bold:255"/><use x="24007.5" y="4191.6" xlink:href="#s71:merriweather-bold:155"/><use x="25168.5" y="4191.6" xlink:href="#s71:merriweather-bold:268"/><use x="26004.5" y="4191.6" xlink:href="#s71:merriweather-bold:183"/><use x="27133.5" y="4191.6" xlink:href="#s71:merriweather-bold:3"/><use x="27706.5" y="4191.6" xlink:href="#s71:merriweather-bold:183"/><use x="28835.5" y="4191.6" xlink:href="#s71:merriweather-bold:292"/><use x="30078.5" y="4191.6" xlink:href="#s71:merriweather-bold:204"/><use x="30799.5" y="4191.6" xlink:href="#s71:merriweather-bold:259"/><use x="31879.5" y="4191.6" xlink:href="#s71:merriweather-bold:268"/><use x="32715.5" y="4191.6" xlink:href="#s71:merriweather-bold:183"/><use x="33844.5" y="4191.6" xlink:href="#s71:merriweather-bold:230"/><use x="35263.5" y="4191.6" xlink:href="#s71:merriweather-bold:170"/><use x="36325.5" y="4191.6" xlink:href="#s71:merriweather-bold:183"/><use x="37454.5" y="4191.6" xlink:href="#s71:merriweather-bold:3"/><use x="38027.5" y="4191.6" xlink:href="#s71:merriweather-bold:204"/><use x="38748.5" y="4191.6" xlink:href="#s71:merriweather-bold:259"/><use x="39828.5" y="4191.6" xlink:href="#s71:merriweather-bold:3"/><use x="40401.5" y="4191.6" xlink:href="#s71:merriweather-bold:155"/><use x="41562.5" y="4191.6" xlink:href="#s71:merriweather-bold:3"/><use x="42135.5" y="4191.6" xlink:href="#s71:merriweather-bold:228"/><use x="44237.5" y="4191.6" xlink:href="#s71:merriweather-bold:293"/><use x="45416.5" y="4191.6" xlink:href="#s71:merriweather-bold:268"/><use x="46252.5" y="4191.6" xlink:href="#s71:merriweather-bold:201"/><use x="47640.5" y="4191.6" xlink:href="#s71:merriweather-bold:588"/></g><g id="line-2"><use x="14752" y="6649.2" xlink:href="#s71:merriweather-bold:44"/><use x="16029" y="6649.2" xlink:href="#s71:merriweather-bold:239"/><use x="17272" y="6649.2" xlink:href="#s71:merriweather-bold:255"/><use x="18249" y="6649.2" xlink:href="#s71:merriweather-bold:3"/><use x="18822" y="6649.2" xlink:href="#s71:merriweather-bold:259"/><use x="19902" y="6649.2" xlink:href="#s71:merriweather-bold:170"/><use x="20964" y="6649.2" xlink:href="#s71:merriweather-bold:204"/><use x="21685" y="6649.2" xlink:href="#s71:merriweather-bold:183"/><use x="22814" y="6649.2" xlink:href="#s71:merriweather-bold:230"/><use x="24233" y="6649.2" xlink:href="#s71:merriweather-bold:170"/><use x="25295" y="6649.2" xlink:href="#s71:merriweather-bold:183"/><use x="26424" y="6649.2" xlink:href="#s71:merriweather-bold:582"/><use x="27110" y="6649.2" xlink:href="#s71:merriweather-bold:3"/><use x="27683" y="6649.2" xlink:href="#s71:merriweather-bold:228"/><use x="29785" y="6649.2" xlink:href="#s71:merriweather-bold:274"/><use x="31109" y="6649.2" xlink:href="#s71:merriweather-bold:259"/><use x="32189" y="6649.2" xlink:href="#s71:merriweather-bold:204"/><use x="32910" y="6649.2" xlink:href="#s71:merriweather-bold:170"/><use x="33972" y="6649.2" xlink:href="#s71:merriweather-bold:582"/><use x="34658" y="6649.2" xlink:href="#s71:merriweather-bold:3"/><use x="35231" y="6649.2" xlink:href="#s71:merriweather-bold:259"/><use x="36311" y="6649.2" xlink:href="#s71:merriweather-bold:251"/><use x="37621" y="6649.2" xlink:href="#s71:merriweather-bold:239"/><use x="38864" y="6649.2" xlink:href="#s71:merriweather-bold:255"/><use x="39841" y="6649.2" xlink:href="#s71:merriweather-bold:268"/><use x="40677" y="6649.2" xlink:href="#s71:merriweather-bold:582"/><use x="41363" y="6649.2" xlink:href="#s71:merriweather-bold:3"/><use x="41936" y="6649.2" xlink:href="#s71:merriweather-bold:183"/><use x="43065" y="6649.2" xlink:href="#s71:merriweather-bold:268"/><use x="43901" y="6649.2" xlink:href="#s71:merriweather-bold:170"/><use x="44963" y="6649.2" xlink:href="#s71:merriweather-bold:582"/></g></svg>