<svg xmlns="http://www.w3.org/2000/svg" xmlns:xlink="http://www.w3.org/1999/xlink" width="635" height="84" viewBox="0 0 54150 7209.2" ><defs><path id="s75:merriweather-lightitalic:119" d="M460-94L632-1435L255-1419L172-1077L84-1075L156-1522L1293-1522L1232-1075L1148-1074L1165-1419L784-1435L611-94L860-75L854 0L210 0L216-75L460-94Z"/><path id="s75:merriweather-lightitalic:198" d="M863-501Q885-613 898-699.50Q911-786 911-859Q911-927 896.50-965.50Q882-1004 852-1020Q822-1036 774-1036Q712-1036 638-996Q564-956 493-889Q422-822 369-743L269 0L122 0L323-1515L208-1548L221-1615L447-1650L488-1627L386-870Q474-996 595-1079.50Q716-1163 838-1163Q949-1163 1006.50-1095Q1064-1027 1064-867Q1064-810 1053-738.50Q1042-667 1020-555L1011-505Q1003-459 1001-450Q964-247 957-157Q954-84 985-84Q1008-84 1030.50-98Q1053-112 1093-147L1119-103Q1109-85 1077.50-55.50Q1046-26 1000.50-3Q955 20 905 20Q799 20 799-83Q799-130 809.50-196.50Q820-263 839-366Q841-377 855-457L863-501Z"/><path id="s75:merriweather-lightitalic:181" d="M676-1163Q768-1163 831-1130.50Q894-1098 925.50-1041.50Q957-985 957-913Q957-769 831.50-669.50Q706-570 539-520Q372-470 251-467Q249-437 249-422Q249-340 274.50-265Q300-190 357-141Q414-92 504-92Q592-92 687-132Q782-172 864-254L901-186Q869-142 806.50-94Q744-46 660-13Q576 20 486 20Q352 20 263.50-41.50Q175-103 133.50-203Q92-303 92-420Q92-611 169-782.50Q246-954 380-1058.50Q514-1163 676-1163M802-900Q802-983 759.50-1026Q717-1069 641-1069Q535-1069 451-989Q367-909 316.50-790Q266-671 255-557Q375-561 502.50-603.50Q630-646 716-723Q802-800 802-900Z"/><path id="s75:merriweather-lightitalic:3" d=""/><path id="s75:merriweather-lightitalic:33" d="M184-93L350-1422L214-1441L223-1522L1141-1522L1134-1212L1051-1212L1017-1424L505-1435L429-840L910-846L901-721L419-734L334-94L955-113L1066-341L1147-316L1058 0L26 0L33-69L184-93Z"/><path id="s75:merriweather-lightitalic:271" d="M255-998L158-1045L171-1116L376-1159L415-1138L347-599Q341-554 337-530Q325-439 319.50-387Q314-335 314-279Q314-204 333-162.50Q352-121 386-105.50Q420-90 472-90Q528-90 591-122Q654-154 710.50-205.50Q767-257 806-314L898-1017L915-1151L1062-1151L932-159Q930-139 930-132Q930-110 937-98.50Q944-87 956-87Q978-87 1005.50-103.50Q1033-120 1069-158L1094-113Q1082-94 1049.50-63Q1017-32 970.50-7Q924 18 874 18Q829 18 804-8Q779-34 779-81Q779-100 783-119L787-158L790-196Q716-103 618.50-41.50Q521 20 409 20Q290 20 227.50-42Q165-104 165-254Q165-314 174-394Q183-474 201-606L255-998Z"/><path id="s75:merriweather-lightitalic:252" d="M164-1044L178-1116L385-1159L421-1140L408-961L396-875Q422-934 479.50-1001Q537-1068 617.50-1115Q698-1162 786-1162Q836-1162 851-1149L818-983Q791-997 722-997Q661-997 594.50-964.50Q528-932 469.50-867.50Q411-803 375-711L286 0L138 0L266-998L164-1044Z"/><path id="s75:merriweather-lightitalic:236" d="M653-1163Q780-1163 868.50-1107.50Q957-1052 1003-946.50Q1049-841 1049-694Q1049-515 976.50-350Q904-185 774.50-82.50Q645 20 484 20Q357 20 268-35Q179-90 133-195Q87-300 87-448Q87-629 160-794Q233-959 362.50-1061Q492-1163 653-1163M890-688Q890-867 823.50-966Q757-1065 626-1065Q507-1065 420-972Q333-879 288.50-737.50Q244-596 244-453Q244-273 312.50-175.50Q381-78 511-78Q628-78 714-171Q800-264 845-405.50Q890-547 890-688Z"/><path id="s75:merriweather-lightitalic:248" d="M195 520L50 520L258-1017L150-1057L163-1121L378-1163L415-1143L396-975Q452-1054 538-1108.50Q624-1163 726-1163Q838-1163 914.50-1108Q991-1053 1028.50-955.50Q1066-858 1066-730Q1066-566 989-390.50Q912-215 768-97.50Q624 20 433 20Q360 20 267-5L195 520M283-126Q347-78 457-78Q597-78 700-177.50Q803-277 856.50-426.50Q910-576 910-719Q910-877 854-962.50Q798-1048 702-1048Q636-1048 573.50-1017Q511-986 462-939.50Q413-893 382-845L283-126Z"/><path id="s75:merriweather-lightitalic:153" d="M1062-100Q1053-84 1025-55Q997-26 955-3Q913 20 867 20Q751 20 751-98L752-117L762-191L764-204Q696-112 601.50-46Q507 20 406 20Q244 20 166-96.50Q88-213 88-412Q88-575 166-750.50Q244-926 390-1044.50Q536-1163 728-1163Q774-1163 827-1152.50Q880-1142 925-1126L927-1128L1039-1162L905-173Q903-155 903-147Q903-115 916-100Q929-85 944-85Q963-85 982-98.50Q1001-112 1035-144L1062-100M871-1017Q839-1041 795.50-1052.50Q752-1064 705-1064Q563-1064 458-966.50Q353-869 298.50-721.50Q244-574 244-431Q244-271 290-182.50Q336-94 433-94Q500-94 568-133.50Q636-173 691-229.50Q746-286 782-342L871-1017Z"/><path id="s75:merriweather-lightitalic:227" d="M173-1049L187-1121L392-1163L430-1143L402-882Q492-1002 613-1082.50Q734-1163 849-1163Q961-1163 1019-1095Q1077-1027 1077-868Q1077-814 1066.50-744Q1056-674 1037-574L1024-505L1013-445Q996-350 985-281.50Q974-213 971-157L970-138Q970-113 976-99Q982-85 994-85Q1034-85 1092-139L1117-95Q1108-79 1077.50-51Q1047-23 1003.50-1Q960 21 914 21Q812 21 812-85Q812-133 823-203Q834-273 854-376L869-457L881-521Q902-634 913.50-712.50Q925-791 925-859Q925-928 911.50-966.50Q898-1005 868-1021Q838-1037 784-1037Q724-1037 651-997.50Q578-958 507.50-891Q437-824 384-745L285 0L137 0L271-1002L173-1049Z"/><path id="s75:merriweather-lightitalic:218" d="M348-1515L230-1548L246-1615L468-1650L507-1627L301-158Q299-142 299-135Q299-111 307-98Q315-85 328-85Q351-85 377-101Q403-117 439-155L464-112Q454-93 422.50-61.50Q391-30 346-5Q301 20 251 20Q200 20 175.50-9Q151-38 152-102Q152-130 158-170L348-1515Z"/><path id="s75:merriweather-lightitalic:193" d="M724-1163Q779-1163 836.50-1151Q894-1139 940-1121L1055-1163L862 77Q841 225 755.50 322Q670 419 556.50 463.50Q443 508 334 508Q272 508 209.50 497.50Q147 487 115 473L153 325Q204 348 271 364.50Q338 381 407 381Q502 381 562 357.50Q622 334 657 280Q692 226 707 131L752-160Q693-84 605.50-32Q518 20 416 20Q307 20 232.50-35Q158-90 121-187Q84-284 84-412Q84-575 162-750.50Q240-926 386-1044.50Q532-1163 724-1163M879-1011Q845-1039 798-1052Q751-1065 701-1065Q555-1065 450.50-963.50Q346-862 293-712Q240-562 240-423Q240-268 292.50-181Q345-94 441-94Q509-94 574.50-126Q640-158 691-205Q742-252 773-299L879-1011Z"/><path id="s75:merriweather-lightitalic:256" d="M70-164Q109-136 185-112.50Q261-89 346-89Q449-89 517.50-127.50Q586-166 586-262Q586-317 555.50-363.50Q525-410 488-440.50Q451-471 384-519Q300-577 232.50-660Q165-743 165-850Q165-944 217-1015Q269-1086 356.50-1124.50Q444-1163 546-1163Q620-1163 697-1149.50Q774-1136 802-1122L772-987Q765-998 731.50-1015.50Q698-1033 647.50-1046Q597-1059 539-1059Q439-1059 378-1018.50Q317-978 310-898Q306-842 331-794.50Q356-747 394-711Q432-675 488-634Q566-575 610.50-535Q655-495 692-432Q729-369 729-291Q729-194 676-123.50Q623-53 533.50-16.50Q444 20 337 20Q247 20 158.50 0.50Q70-19 43-43L70-164Z"/><path id="s75:merriweather-lightitalic:225" d="M876-457Q896-581 908.50-680Q921-779 921-859Q921-929 908.50-967Q896-1005 866.50-1021Q837-1037 784-1037Q724-1037 651-997.50Q578-958 507.50-891.50Q437-825 384-746L285 0L137 0L270-1002L173-1049L186-1121L391-1163L429-1143L402-882Q493-1003 613-1083Q733-1163 849-1163Q959-1163 1013.50-1100Q1068-1037 1072-899Q1155-1014 1262-1088.50Q1369-1163 1475-1163Q1583-1163 1644.50-1091.50Q1706-1020 1706-867Q1706-818 1697-756.50Q1688-695 1670-587L1656-506L1643-428Q1641-414 1630.50-354.50Q1620-295 1613.50-245Q1607-195 1605-158L1604-138Q1604-85 1628-85Q1652-85 1678-101.50Q1704-118 1742-156L1767-112Q1755-92 1723.50-61Q1692-30 1646.50-5Q1601 20 1552 20Q1500 20 1475-7.50Q1450-35 1452-94Q1454-144 1463-209Q1472-274 1488-372Q1496-414 1503-462L1515-531Q1534-642 1544.50-716.50Q1555-791 1555-858Q1555-926 1540.50-964.50Q1526-1003 1497-1019Q1468-1035 1420-1035Q1341-1035 1243.50-959.50Q1146-884 1067-772Q1059-685 1032-505L962 0L812 0L876-457Z"/><path id="s75:merriweather-lightitalic:166" d="M238-1550L254-1618L458-1650L499-1627L411-973Q467-1051 555.50-1107Q644-1163 747-1163Q859-1163 935.50-1108Q1012-1053 1049.50-955.50Q1087-858 1087-730Q1087-567 1010-391.50Q933-216 788.50-98Q644 20 454 20Q393 20 323 4.50Q253-11 208-32L131 5L334-1516L238-1550M297-130Q361-78 478-78Q622-78 724.50-179.50Q827-281 879-430.50Q931-580 931-719Q931-875 876.50-961.50Q822-1048 723-1048Q653-1048 587-1014Q521-980 471-930.50Q421-881 392-833L297-130Z"/><path id="s75:merriweather-lightitalic:191" d="M152-1040L165-1101L311-1150L326-1249Q344-1363 404-1459.50Q464-1556 549.50-1613Q635-1670 725-1670Q771-1670 809.50-1664.50Q848-1659 883-1644L838-1510Q810-1528 776.50-1540.50Q743-1553 696-1553Q607-1553 548.50-1474.50Q490-1396 474-1263L460-1155L725-1155L712-1040L446-1040L303 74Q278 276 187.50 394Q97 512-44 513Q-91 514-137.50 509.50Q-184 505-206 499L-166 365Q-150 372-95 385.50Q-40 399-4 398Q60 398 94.50 328Q129 258 146 127L292-1040L152-1040Z"/><path id="s75:merriweather-lightitalic:265" d="M273-1042L148-1042L163-1112L291-1150Q314-1183 343.50-1259.50Q373-1336 399-1416L473-1416L438-1154L723-1154L708-1042L425-1042L332-344Q317-229 317-188Q317-151 325.50-130.50Q334-110 355-101Q376-92 416-92Q459-92 522-122Q585-152 621-180L636-116Q614-89 563.50-57Q513-25 451.50-2.50Q390 20 338 20Q163 20 163-147Q163-184 173-268L273-1042Z"/><path id="s75:merriweather-lightitalic:201" d="M168-1052L181-1117L431-1159L471-1138L330-158Q328-142 328-136Q328-111 337-98Q346-85 359-85Q382-85 406.50-101Q431-117 467-156L493-112Q479-91 449-60.50Q419-30 374.50-5Q330 20 280 20Q231 20 201.50-4.50Q172-29 172-83Q172-119 189-240.50Q206-362 239-580Q277-825 302-1012L168-1052M340-1497Q340-1531 356.50-1559.50Q373-1588 399-1605Q425-1622 451-1622Q493-1622 518-1596.50Q543-1571 543-1531Q543-1496 527-1466Q511-1436 484.50-1418.50Q458-1401 427-1401Q391-1401 365.50-1428.50Q340-1456 340-1497Z"/><path id="s75:merriweather-lightitalic:289" d="M195-974Q187-1015 175.50-1030Q164-1045 146-1045Q127-1045 107-1032Q87-1019 55-988L31-1038Q42-1056 70.50-1084.50Q99-1113 140-1136Q181-1159 224-1159Q267-1159 291-1143Q315-1127 326.50-1098Q338-1069 345-1022L449-258L477 27Q496-9 564-140Q641-291 649-303L706-418Q765-536 798.50-612.50Q832-689 855-775Q878-861 878-949Q878-979 860-1019Q852-1039 848-1051Q844-1063 844-1076Q844-1118 864-1138Q884-1158 918-1158Q969-1158 997-1111.50Q1025-1065 1025-978Q1025-884 990.50-776.50Q956-669 910-574Q864-479 794-349L762-290Q650-60 557.50 94Q465 248 398 329Q350 397 262 451Q174 505 51 505Q11 505-38.50 496Q-88 487-122 476L-86 349Q-82 351-59.50 361.50Q-37 372 0.50 380Q38 388 81 388Q136 388 199.50 356.50Q263 325 328 256Q393 187 446 79L376 79L195-974Z"/><path id="s75:merriweather-lightitalic:577" d="M239-210Q285-210 307.50-187Q330-164 330-125Q330-112 329-105Q321-49 284-15.50Q247 18 200 18Q162 18 139-5Q116-28 116-70Q116-82 117-88Q124-141 159.50-175.50Q195-210 239-210Z"/><path id="s75:merriweather-lightitalic:288" d="M139 0L-20 0L436-599L272-991Q258-1023 243-1038Q228-1053 200-1053Q172-1053 142.50-1034.50Q113-1016 100-997L69-1043Q79-1060 108-1087.50Q137-1115 179.50-1137Q222-1159 269-1159Q333-1159 363-1134Q393-1109 409-1055L519-689L851-1151L1014-1151L564-566L751-148Q764-116 778.50-100.50Q793-85 815-85Q863-85 934-159L962-114Q955-98 921.50-65Q888-32 841-6Q794 20 746 20Q704 20 679 7.50Q654-5 640-27Q626-49 613-85L481-476L139 0Z"/><path id="s75:merriweather-lightitalic:168" d="M76-430Q76-594 145.50-764.50Q215-935 348-1049Q481-1163 660-1163Q715-1163 776.50-1149.50Q838-1136 880-1115L836-960Q829-966 815-976Q771-1007 721-1026Q671-1045 625-1045Q507-1045 419-970.50Q331-896 283-761.50Q235-627 235-453Q235-276 299-184Q363-92 478-92Q535-92 582.50-107Q630-122 670.50-147.50Q711-173 768-217L799-151Q741-86 651-33Q561 20 437 20Q324 20 243-34Q162-88 119-189.50Q76-291 76-430Z"/><path id="s75:merriweather-lightitalic:43" d="M184-94L350-1422L214-1441L223-1522L1179-1522L1161-1212L1067-1212L1047-1419L502-1434L428-838L936-846L926-718L419-731L334-96L573-70L566 0L27 0L33-70L184-94Z"/><path id="s75:merriweather-lightitalic:571" d="M227-265Q310-232 351.50-150.50Q393-69 393 27Q393 135 345.50 231Q298 327 218 397Q138 467 42 501L-6 438L-3 420Q90 374 157 283.50Q224 193 224 69Q224-4 190-59.50Q156-115 108-132L108-167L227-265Z"/></defs><g id="line-0"><use x="0" y="1734" xlink:href="#s75:merriweather-lightitalic:119" /><use x="1225" y="1734" xlink:href="#s75:merriweather-lightitalic:198" /><use x="2464" y="1734" xlink:href="#s75:merriweather-lightitalic:181" /><use x="3515" y="1734" xlink:href="#s75:merriweather-lightitalic:3" /><use x="4000" y="1734" xlink:href="#s75:merriweather-lightitalic:33" /><use x="5222" y="1734" xlink:href="#s75:merriweather-lightitalic:271" /><use x="6421" y="1734" xlink:href="#s75:merriweather-lightitalic:252" /><use x="7257" y="1734" xlink:href="#s75:merriweather-lightitalic:236" /><use x="8400" y="1734" xlink:href="#s75:merriweather-lightitalic:248" /><use x="9555" y="1734" xlink:href="#s75:merriweather-lightitalic:181" /><use x="10606" y="1734" xlink:href="#s75:merriweather-lightitalic:153" /><use x="11779" y="1734" xlink:href="#s75:merriweather-lightitalic:227" /><use x="13037" y="1734" xlink:href="#s75:merriweather-lightitalic:3" /><use x="13522" y="1734" xlink:href="#s75:merriweather-lightitalic:218" /><use x="14128" y="1734" xlink:href="#s75:merriweather-lightitalic:153" /><use x="15301" y="1734" xlink:href="#s75:merriweather-lightitalic:227" /><use x="16559" y="1734" xlink:href="#s75:merriweather-lightitalic:193" /><use x="17708" y="1734" xlink:href="#s75:merriweather-lightitalic:271" /><use x="18910" y="1734" xlink:href="#s75:merriweather-lightitalic:153" /><use x="20083" y="1734" xlink:href="#s75:merriweather-lightitalic:193" /><use x="21232" y="1734" xlink:href="#s75:merriweather-lightitalic:181" /><use x="22283" y="1734" xlink:href="#s75:merriweather-lightitalic:256" /><use x="23153" y="1734" xlink:href="#s75:merriweather-lightitalic:3" /><use x="23638" y="1734" xlink:href="#s75:merriweather-lightitalic:153" /><use x="24811" y="1734" xlink:href="#s75:merriweather-lightitalic:252" /><use x="25647" y="1734" xlink:href="#s75:merriweather-lightitalic:181" /><use x="26698" y="1734" xlink:href="#s75:merriweather-lightitalic:3" /><use x="27183" y="1734" xlink:href="#s75:merriweather-lightitalic:225" /><use x="29076" y="1734" xlink:href="#s75:merriweather-lightitalic:181" /><use x="30127" y="1734" xlink:href="#s75:merriweather-lightitalic:225" /><use x="32020" y="1734" xlink:href="#s75:merriweather-lightitalic:166" /><use x="33196" y="1734" xlink:href="#s75:merriweather-lightitalic:181" /><use x="34247" y="1734" xlink:href="#s75:merriweather-lightitalic:252" /><use x="35083" y="1734" xlink:href="#s75:merriweather-lightitalic:256" /><use x="35953" y="1734" xlink:href="#s75:merriweather-lightitalic:3" /><use x="36438" y="1734" xlink:href="#s75:merriweather-lightitalic:236" /><use x="37581" y="1734" xlink:href="#s75:merriweather-lightitalic:191" /><use x="38281" y="1734" xlink:href="#s75:merriweather-lightitalic:3" /><use x="38766" y="1734" xlink:href="#s75:merriweather-lightitalic:265" /><use x="39497" y="1734" xlink:href="#s75:merriweather-lightitalic:198" /><use x="40736" y="1734" xlink:href="#s75:merriweather-lightitalic:181" /><use x="41787" y="1734" xlink:href="#s75:merriweather-lightitalic:3" /><use x="42272" y="1734" xlink:href="#s75:merriweather-lightitalic:256" /><use x="43142" y="1734" xlink:href="#s75:merriweather-lightitalic:153" /><use x="44315" y="1734" xlink:href="#s75:merriweather-lightitalic:225" /><use x="46208" y="1734" xlink:href="#s75:merriweather-lightitalic:181" /><use x="47259" y="1734" xlink:href="#s75:merriweather-lightitalic:3" /><use x="47744" y="1734" xlink:href="#s75:merriweather-lightitalic:191" /><use x="48444" y="1734" xlink:href="#s75:merriweather-lightitalic:153" /><use x="49617" y="1734" xlink:href="#s75:merriweather-lightitalic:225" /><use x="51510" y="1734" xlink:href="#s75:merriweather-lightitalic:201" /><use x="52143" y="1734" xlink:href="#s75:merriweather-lightitalic:218" /><use x="52749" y="1734" xlink:href="#s75:merriweather-lightitalic:289" /><use x="53820" y="1734" xlink:href="#s75:merriweather-lightitalic:577" /></g><g id="line-1"><use x="11105" y="4191.6" xlink:href="#s75:merriweather-lightitalic:119" /><use x="12330" y="4191.6" xlink:href="#s75:merriweather-lightitalic:198" /><use x="13569" y="4191.6" xlink:href="#s75:merriweather-lightitalic:181" /><use x="14620" y="4191.6" xlink:href="#s75:merriweather-lightitalic:201" /><use x="15253" y="4191.6" xlink:href="#s75:merriweather-lightitalic:252" /><use x="16089" y="4191.6" xlink:href="#s75:merriweather-lightitalic:3" /><use x="16574" y="4191.6" xlink:href="#s75:merriweather-lightitalic:256" /><use x="17444" y="4191.6" xlink:href="#s75:merriweather-lightitalic:181" /><use x="18495" y="4191.6" xlink:href="#s75:merriweather-lightitalic:248" /><use x="19650" y="4191.6" xlink:href="#s75:merriweather-lightitalic:153" /><use x="20823" y="4191.6" xlink:href="#s75:merriweather-lightitalic:252" /><use x="21659" y="4191.6" xlink:href="#s75:merriweather-lightitalic:153" /><use x="22832" y="4191.6" xlink:href="#s75:merriweather-lightitalic:265" /><use x="23563" y="4191.6" xlink:href="#s75:merriweather-lightitalic:181" /><use x="24614" y="4191.6" xlink:href="#s75:merriweather-lightitalic:3" /><use x="25099" y="4191.6" xlink:href="#s75:merriweather-lightitalic:181" /><use x="26150" y="4191.6" xlink:href="#s75:merriweather-lightitalic:288" /><use x="27166" y="4191.6" xlink:href="#s75:merriweather-lightitalic:201" /><use x="27799" y="4191.6" xlink:href="#s75:merriweather-lightitalic:256" /><use x="28669" y="4191.6" xlink:href="#s75:merriweather-lightitalic:265" /><use x="29400" y="4191.6" xlink:href="#s75:merriweather-lightitalic:181" /><use x="30451" y="4191.6" xlink:href="#s75:merriweather-lightitalic:227" /><use x="31709" y="4191.6" xlink:href="#s75:merriweather-lightitalic:168" /><use x="32599" y="4191.6" xlink:href="#s75:merriweather-lightitalic:181" /><use x="33650" y="4191.6" xlink:href="#s75:merriweather-lightitalic:3" /><use x="34135" y="4191.6" xlink:href="#s75:merriweather-lightitalic:201" /><use x="34768" y="4191.6" xlink:href="#s75:merriweather-lightitalic:256" /><use x="35638" y="4191.6" xlink:href="#s75:merriweather-lightitalic:3" /><use x="36123" y="4191.6" xlink:href="#s75:merriweather-lightitalic:153" /><use x="37296" y="4191.6" xlink:href="#s75:merriweather-lightitalic:3" /><use x="37781" y="4191.6" xlink:href="#s75:merriweather-lightitalic:225" /><use x="39674" y="4191.6" xlink:href="#s75:merriweather-lightitalic:289" /><use x="40745" y="4191.6" xlink:href="#s75:merriweather-lightitalic:265" /><use x="41476" y="4191.6" xlink:href="#s75:merriweather-lightitalic:198" /><use x="42715" y="4191.6" xlink:href="#s75:merriweather-lightitalic:577" /></g><g id="line-2"><use x="13720" y="6649.2" xlink:href="#s75:merriweather-lightitalic:43" /><use x="14870" y="6649.2" xlink:href="#s75:merriweather-lightitalic:236" /><use x="16013" y="6649.2" xlink:href="#s75:merriweather-lightitalic:252" /><use x="16849" y="6649.2" xlink:href="#s75:merriweather-lightitalic:3" /><use x="17334" y="6649.2" xlink:href="#s75:merriweather-lightitalic:256" /><use x="18204" y="6649.2" xlink:href="#s75:merriweather-lightitalic:168" /><use x="19094" y="6649.2" xlink:href="#s75:merriweather-lightitalic:201" /><use x="19727" y="6649.2" xlink:href="#s75:merriweather-lightitalic:181" /><use x="20778" y="6649.2" xlink:href="#s75:merriweather-lightitalic:227" /><use x="22036" y="6649.2" xlink:href="#s75:merriweather-lightitalic:168" /><use x="22926" y="6649.2" xlink:href="#s75:merriweather-lightitalic:181" /><use x="23977" y="6649.2" xlink:href="#s75:merriweather-lightitalic:571" /><use x="24547" y="6649.2" xlink:href="#s75:merriweather-lightitalic:3" /><use x="25032" y="6649.2" xlink:href="#s75:merriweather-lightitalic:225" /><use x="26925" y="6649.2" xlink:href="#s75:merriweather-lightitalic:271" /><use x="28127" y="6649.2" xlink:href="#s75:merriweather-lightitalic:256" /><use x="28997" y="6649.2" xlink:href="#s75:merriweather-lightitalic:201" /><use x="29630" y="6649.2" xlink:href="#s75:merriweather-lightitalic:168" /><use x="30520" y="6649.2" xlink:href="#s75:merriweather-lightitalic:571" /><use x="31090" y="6649.2" xlink:href="#s75:merriweather-lightitalic:3" /><use x="31575" y="6649.2" xlink:href="#s75:merriweather-lightitalic:256" /><use x="32445" y="6649.2" xlink:href="#s75:merriweather-lightitalic:248" /><use x="33600" y="6649.2" xlink:href="#s75:merriweather-lightitalic:236" /><use x="34743" y="6649.2" xlink:href="#s75:merriweather-lightitalic:252" /><use x="35579" y="6649.2" xlink:href="#s75:merriweather-lightitalic:265" /><use x="36310" y="6649.2" xlink:href="#s75:merriweather-lightitalic:571" /><use x="36880" y="6649.2" xlink:href="#s75:merriweather-lightitalic:3" /><use x="37365" y="6649.2" xlink:href="#s75:merriweather-lightitalic:181" /><use x="38416" y="6649.2" xlink:href="#s75:merriweather-lightitalic:265" /><use x="39147" y="6649.2" xlink:href="#s75:merriweather-lightitalic:168" /><use x="40037" y="6649.2" xlink:href="#s75:merriweather-lightitalic:571" /></g></svg>