<svg xmlns="http://www.w3.org/2000/svg" xmlns:xlink="http://www.w3.org/1999/xlink" width="709" height="84" viewBox="0 0 60531 7209.2"><defs><path id="s69:merriweather-black:121" d="M554-176L554-1350L347-1339L252-868L31-868L63-1522L1449-1522L1476-868L1268-868L1167-1339L970-1350L970-176L1253-152L1253 0L297 0L297-152L554-176Z"/><path id="s69:merriweather-black:202" d="M167-172L167-1455L34-1485L34-1627L486-1680L492-1680L560-1630L561-1203L540-1016Q607-1075 704.50-1118.50Q802-1162 929-1162Q1058-1162 1130-1115Q1202-1068 1231-973.50Q1260-879 1260-725L1260-173L1376-152L1376 0L769 0L769-151L864-172L864-723Q864-808 853.50-854.50Q843-901 816-922.50Q789-944 738-944Q688-944 644.50-924Q601-904 571-874L571-173L672-152L672 0L68 0L68-152L167-172Z"/><path id="s69:merriweather-black:184" d="M53-567Q53-759 122.50-893.50Q192-1028 321-1097.50Q450-1167 626-1167Q852-1167 970-1057Q1088-947 1091-747Q1091-622 1072-527L460-527Q475-366 541-290.50Q607-215 729-215Q799-215 877.50-239Q956-263 1013-293L1079-152Q1048-117 977-76Q906-35 812-6Q718 23 622 23Q325 23 189-134Q53-291 53-567M715-676L716-760Q716-886 691-948.50Q666-1011 601-1011Q554-1011 523.50-985.50Q493-960 475-887Q457-814 456-676L715-676Z"/><path id="s69:merriweather-black:3" d=""/><path id="s69:merriweather-black:34" d="M209-175L209-1329L54-1360L54-1522L1210-1522L1238-1138L1053-1138L976-1348L625-1373L625-863L830-868L869-1034L1023-1034L1023-500L869-500L832-679L625-684L625-156L1009-187L1141-454L1342-399L1298 0L60 0L60-152L209-175Z"/><path id="s69:merriweather-black:276" d="M850-149Q823-105 770.50-65.50Q718-26 651-1.50Q584 23 518 23Q379 23 296-19.50Q213-62 175-155Q137-248 137-405L137-963L49-988L49-1136L483-1163L486-1163L532-1135L532-384Q532-307 545-263.50Q558-220 584.50-202Q611-184 655-184Q710-184 744.50-201.50Q779-219 804-243L804-963L686-992L686-1137L1141-1163L1147-1163L1199-1135L1199-160L1300-160L1300-11Q1232 3 1161 13Q1090 23 1004 23Q850 23 850-116L850-149Z"/><path id="s69:merriweather-black:257" d="M195-172L195-895L86-934L86-1118L455-1167L460-1167L526-1120L526-1064L519-889L527-889Q540-946 589.50-1011.50Q639-1077 715-1122.50Q791-1168 879-1168Q909-1168 932.50-1163Q956-1158 968-1150L968-734Q929-763 886.50-779.50Q844-796 774-796Q714-796 664-784Q614-772 590-755L590-173L799-151L799 0L84 0L84-152L195-172Z"/><path id="s69:merriweather-black:240" d="M650-1168Q818-1168 945.50-1102.50Q1073-1037 1144.50-906.50Q1216-776 1216-586Q1216-375 1137-239Q1058-103 923.50-40Q789 23 619 23Q452 23 324.50-42.50Q197-108 125-239Q53-370 53-559Q53-762 132.50-898.50Q212-1035 347-1101.50Q482-1168 650-1168M789-558Q789-722 774-820.50Q759-919 724.50-965Q690-1011 632-1011Q555-1011 516.50-910Q478-809 478-587Q478-425 495-325.50Q512-226 548-180Q584-134 642-134Q718-134 753.50-234Q789-334 789-558Z"/><path id="s69:merriweather-black:253" d="M636 23Q611 23 584.50 18Q558 13 542 7L548 170L548 327L707 354L707 496L49 496L49 354L161 327L161-895L52-934L52-1118L454-1167L459-1167L520-1120L520-1016Q546-1055 591.50-1089.50Q637-1124 696.50-1146Q756-1168 820-1168Q950-1168 1049-1110Q1148-1052 1205-926Q1262-800 1262-604Q1262-436 1192-293.50Q1122-151 980.50-64Q839 23 636 23M548-160Q561-145 586.50-135.50Q612-126 644-126Q735-126 790.50-231Q846-336 846-580Q846-773 801.50-864.50Q757-956 677-956Q638-956 602.50-939.50Q567-923 548-900L548-160Z"/><path id="s69:merriweather-black:157" d="M698-742Q698-807 684.50-843.50Q671-880 631.50-898.50Q592-917 513-917Q408-917 328-895Q248-873 166-840L165-840L86-1008Q124-1037 200-1074Q276-1111 385-1139Q494-1167 615-1167Q788-1167 885-1123.50Q982-1080 1023-987.50Q1064-895 1064-738L1064-152L1164-152L1164-4Q1118 5 1022.50 15.50Q927 26 861 26Q800 26 769.50 14.50Q739 3 728-22.50Q717-48 717-96L717-134Q669-69 586-23Q503 23 389 23Q293 23 213.50-19.50Q134-62 87-142Q40-222 40-330Q40-511 205-610Q370-709 698-710L698-742M698-560Q569-559 511-506Q453-453 453-374Q453-291 487.50-240Q522-189 582-189Q611-189 644-205Q677-221 698-245L698-560Z"/><path id="s69:merriweather-black:231" d="M194-172L194-895L85-934L85-1118L498-1167L503-1167L563-1120L563-1051L561-1003Q631-1072 736.50-1117Q842-1162 966-1162Q1085-1162 1157-1120Q1229-1078 1263-982.50Q1297-887 1297-724L1297-173L1397-154L1397 0L805 0L805-152L890-173L890-723Q890-810 878.50-857Q867-904 840.50-924Q814-944 765-944Q682-944 599-874L599-172L699-152L699 0L91 0L91-152L194-172Z"/><path id="s69:merriweather-black:222" d="M167-173L167-1455L34-1485L34-1627L486-1680L492-1680L560-1630L560-173L671-152L671 0L56 0L56-152L167-173Z"/><path id="s69:merriweather-black:196" d="M589-392Q495-392 421-404Q417-382 414.50-360Q412-338 412-325Q412-286 431.50-265.50Q451-245 497-236.50Q543-228 629-228L829-228Q1054-228 1169-150Q1284-72 1284 95Q1284 238 1185 342Q1086 446 928.50 499Q771 552 599 552L598 552Q305 552 175 461.50Q45 371 45 224Q45 172 70 121Q95 70 139 28.50Q183-13 239-35Q145-94 145-212Q145-276 191-337Q237-398 315-430Q187-474 132.50-565Q78-656 78-787Q78-903 149.50-989.50Q221-1076 345-1122Q469-1168 621-1168L622-1168Q901-1168 1019-1070Q1048-1109 1108.50-1141Q1169-1173 1232-1173L1309-1173L1309-889L1116-889Q1123-850 1123-800Q1124-676 1065.50-584.50Q1007-493 887.50-442.50Q768-392 590-392L589-392M611-1024Q537-1024 505-963Q473-902 473-790Q473-664 505.50-603Q538-542 610-542L611-542Q681-542 710.50-604.50Q740-667 740-780Q740-909 710.50-966.50Q681-1024 612-1024L611-1024M449 18Q432 71 432 152Q432 260 484 320Q536 380 646 380L648 380Q704 380 752 357Q800 334 830 286Q860 238 860 167Q860 86 819.50 53Q779 20 690 20L495 20Q477 20 449 18Z"/><path id="s69:merriweather-black:261" d="M312-336L370-174Q381-155 427-139.50Q473-124 517-124Q584-124 622-155.50Q660-187 660-233Q660-270 634-298.50Q608-327 567-349Q526-371 451-404Q394-430 331-461Q210-522 146-608Q82-694 82-821Q82-918 137.50-996.50Q193-1075 302.50-1120.50Q412-1166 565-1166Q665-1166 737.50-1154.50Q810-1143 888-1124Q951-1107 984-1105L984-815L770-816L712-975Q703-992 670.50-1005.50Q638-1019 594-1019Q525-1019 486.50-989.50Q448-960 448-910Q448-870 475.50-839Q503-808 545.50-785.50Q588-763 663-731L703-713Q809-667 883-620.50Q957-574 1006-502Q1055-430 1055-329Q1055-233 1004-153.50Q953-74 841.50-25.50Q730 23 559 23Q443 23 356 7Q269-9 176-36Q111-54 88-57L88-336L312-336Z"/><path id="s69:merriweather-black:229" d="M194-172L194-895L85-934L85-1118L498-1167L503-1167L562-1120L562-1051L561-1002Q605-1048 680-1084.50Q755-1121 833.50-1141.50Q912-1162 965-1162Q1076-1162 1145-1124Q1214-1086 1250-1007Q1321-1079 1421-1120.50Q1521-1162 1632-1162Q1751-1162 1826-1117Q1901-1072 1937.50-975.50Q1974-879 1974-724L1974-172L2084-151L2084 0L1495 0L1495-151L1570-172L1570-714Q1570-804 1557.50-853.50Q1545-903 1518-923.50Q1491-944 1443-944Q1366-944 1285-874Q1295-810 1295-724L1295-172L1395-151L1395 0L804 0L804-151L889-172L889-723Q889-810 877.50-857Q866-904 839-924Q812-944 763-944Q714-944 672-923.50Q630-903 599-874L599-172L697-151L697 0L94 0L94-151L194-172Z"/><path id="s69:merriweather-black:169" d="M5-1492L5-1627L444-1680L449-1680L525-1634L525-1046Q573-1098 647-1133Q721-1168 803-1168Q933-1168 1031-1110Q1129-1052 1185-926Q1241-800 1241-604Q1241-425 1165.50-282.50Q1090-140 948-58.50Q806 23 614 23Q479 23 378 8Q277-7 219.50-25Q162-43 139-56L139-1462L5-1492M525-147Q533-133 560-123Q587-113 623-113Q716-113 769.50-231Q823-349 823-580Q823-769 779.50-855Q736-941 655-941Q616-941 580.50-924Q545-907 525-882L525-147Z"/><path id="s69:merriweather-black:194" d="M202-173L202-950L59-950L59-1091L202-1134L202-1216Q202-1358 279.50-1474.50Q357-1591 488.50-1658Q620-1725 776-1725Q830-1725 862-1718Q894-1711 922-1702L922-1357Q907-1375 869.50-1395Q832-1415 784.50-1428.50Q737-1442 695-1442Q639-1442 617-1415.50Q595-1389 595-1329L595-1137L826-1137L826-950L595-950L595-172L794-151L794 0L56 0L56-151L202-173Z"/><path id="s69:merriweather-black:270" d="M33-951L33-1082Q32-1083 62.50-1096Q93-1109 111-1117Q132-1126 146-1132Q160-1138 164-1140Q205-1184 235-1255Q266-1321 306-1452L531-1452L546-1138L815-1138L815-951L550-951L550-450Q550-340 555.50-296Q561-252 577.50-238.50Q594-225 635-225L636-225Q678-225 713.50-231.50Q749-238 794-249L795-249L844-105Q781-54 668-19Q555 16 428 16L426 16Q283 16 215.50-50.50Q148-117 148-247L148-951L33-951Z"/><path id="s69:merriweather-black:205" d="M193-172L193-895L62-935L62-1112L518-1167L523-1167L591-1120L591-172L697-152L697 0L81 0L81-152L193-172M138-1486Q138-1548 165-1598.50Q192-1649 243-1678Q294-1707 362-1707L363-1707Q430-1707 477.50-1682.50Q525-1658 549.50-1615.50Q574-1573 574-1520Q574-1457 547.50-1407.50Q521-1358 468.50-1329.50Q416-1301 340-1301L339-1301Q281-1301 235.50-1325Q190-1349 164-1391.50Q138-1434 138-1486Z"/><path id="s69:merriweather-black:294" d="M124 205Q140 218 193 228.50Q246 239 288 239Q363 239 412 207.50Q461 176 490.50 126Q520 76 549 0L420 0L38-967L-49-991L-49-1138L609-1138L609-991L475-967L629-451L673-289L705-451L850-968L733-991L733-1138L1221-1138L1221-991L1127-968Q1071-798 931-401Q791-4 781 22Q721 189 656.50 295Q592 401 505.50 455.50Q419 510 301 510Q252 510 200 503.50Q148 497 124 486L124 205Z"/><path id="s69:merriweather-black:589" d="M121-176Q121-236 151.50-282.50Q182-329 235-354.50Q288-380 352-380Q413-380 460-353Q507-326 532.50-282.50Q558-239 558-189Q558-93 492.50-39.50Q427 14 318 14Q268 14 222.50-10.50Q177-35 149-78.50Q121-122 121-176Z"/><path id="s69:merriweather-black:293" d="M118-173L422-548L94-969L-2-992L-2-1138L696-1138L696-991L578-969L701-793L748-708L798-794L922-969L801-991L801-1138L1262-1138L1262-991L1153-969L854-604L1195-172L1301-150L1301 0L615 0L615-150L715-173L597-361L539-448L494-361L371-173L509-150L509 0L-2 0L-2-150L118-173Z"/><path id="s69:merriweather-black:171" d="M656-1168Q747-1168 810-1156.50Q873-1145 943-1125Q967-1118 989-1112.50Q1011-1107 1028-1106L1011-707L768-707L711-956Q705-980 684-991Q663-1002 636-1002Q589-1002 556-969.50Q523-937 503.50-852.50Q484-768 484-618Q484-419 539.50-314Q595-209 696-209Q782-209 845.50-228.50Q909-248 968-281L1031-142Q1005-111 945.50-72.50Q886-34 798-5.50Q710 23 606 23Q327 23 194.50-135Q62-293 61-563Q61-751 138-887.50Q215-1024 349.50-1096Q484-1168 656-1168Z"/><path id="s69:merriweather-black:44" d="M209-176L209-1330L52-1360L52-1522L1230-1522L1254-1122L1044-1122L952-1341L625-1373L625-820L841-825L885-1015L1047-1015L1047-436L887-436L841-631L625-639L625-176L934-152L934 0L59 0L59-152L209-176Z"/><path id="s69:merriweather-black:583" d="M347-382Q410-382 459-344.50Q508-307 535.50-237Q563-167 563-72Q563 59 515.50 179Q468 299 398.50 382.50Q329 466 267 495L264 495L151 415L151 377Q217 329 255 255.50Q293 182 293 97Q293 64 276.50 41Q260 18 225-13Q195-39 176.50-59.50Q158-80 145-111.50Q132-143 132-186Q132-245 157.50-289.50Q183-334 228-358Q273-382 331-382L347-382Z"/></defs><g id="line-0"><use x="0" y="1734" xlink:href="#s69:merriweather-black:121"/><use x="1517" y="1734" xlink:href="#s69:merriweather-black:202"/><use x="2922" y="1734" xlink:href="#s69:merriweather-black:184"/><use x="4066" y="1734" xlink:href="#s69:merriweather-black:3"/><use x="4569" y="1734" xlink:href="#s69:merriweather-black:34"/><use x="5920" y="1734" xlink:href="#s69:merriweather-black:276"/><use x="7250" y="1734" xlink:href="#s69:merriweather-black:257"/><use x="8254" y="1734" xlink:href="#s69:merriweather-black:240"/><use x="9523" y="1734" xlink:href="#s69:merriweather-black:253"/><use x="10843" y="1734" xlink:href="#s69:merriweather-black:184"/><use x="11987" y="1734" xlink:href="#s69:merriweather-black:157"/><use x="13162" y="1734" xlink:href="#s69:merriweather-black:231"/><use x="14605" y="1734" xlink:href="#s69:merriweather-black:3"/><use x="15108" y="1734" xlink:href="#s69:merriweather-black:222"/><use x="15823" y="1734" xlink:href="#s69:merriweather-black:157"/><use x="16998" y="1734" xlink:href="#s69:merriweather-black:231"/><use x="18441" y="1734" xlink:href="#s69:merriweather-black:196"/><use x="19757" y="1734" xlink:href="#s69:merriweather-black:276"/><use x="21087" y="1734" xlink:href="#s69:merriweather-black:157"/><use x="22262" y="1734" xlink:href="#s69:merriweather-black:196"/><use x="23578" y="1734" xlink:href="#s69:merriweather-black:184"/><use x="24722" y="1734" xlink:href="#s69:merriweather-black:261"/><use x="25826" y="1734" xlink:href="#s69:merriweather-black:3"/><use x="26329" y="1734" xlink:href="#s69:merriweather-black:157"/><use x="27504" y="1734" xlink:href="#s69:merriweather-black:257"/><use x="28508" y="1734" xlink:href="#s69:merriweather-black:184"/><use x="29652" y="1734" xlink:href="#s69:merriweather-black:3"/><use x="30155" y="1734" xlink:href="#s69:merriweather-black:229"/><use x="32280" y="1734" xlink:href="#s69:merriweather-black:184"/><use x="33424" y="1734" xlink:href="#s69:merriweather-black:229"/><use x="35549" y="1734" xlink:href="#s69:merriweather-black:169"/><use x="36848" y="1734" xlink:href="#s69:merriweather-black:184"/><use x="37992" y="1734" xlink:href="#s69:merriweather-black:257"/><use x="38996" y="1734" xlink:href="#s69:merriweather-black:261"/><use x="40100" y="1734" xlink:href="#s69:merriweather-black:3"/><use x="40603" y="1734" xlink:href="#s69:merriweather-black:240"/><use x="41872" y="1734" xlink:href="#s69:merriweather-black:194"/><use x="42731" y="1734" xlink:href="#s69:merriweather-black:3"/><use x="43234" y="1734" xlink:href="#s69:merriweather-black:270"/><use x="44072" y="1734" xlink:href="#s69:merriweather-black:202"/><use x="45477" y="1734" xlink:href="#s69:merriweather-black:184"/><use x="46621" y="1734" xlink:href="#s69:merriweather-black:3"/><use x="47124" y="1734" xlink:href="#s69:merriweather-black:261"/><use x="48228" y="1734" xlink:href="#s69:merriweather-black:157"/><use x="49403" y="1734" xlink:href="#s69:merriweather-black:229"/><use x="51528" y="1734" xlink:href="#s69:merriweather-black:184"/><use x="52672" y="1734" xlink:href="#s69:merriweather-black:3"/><use x="53175" y="1734" xlink:href="#s69:merriweather-black:194"/><use x="54034" y="1734" xlink:href="#s69:merriweather-black:157"/><use x="55209" y="1734" xlink:href="#s69:merriweather-black:229"/><use x="57334" y="1734" xlink:href="#s69:merriweather-black:205"/><use x="58085" y="1734" xlink:href="#s69:merriweather-black:222"/><use x="58800" y="1734" xlink:href="#s69:merriweather-black:294"/><use x="59973" y="1734" xlink:href="#s69:merriweather-black:589"/></g><g id="line-1"><use x="12123" y="4191.6" xlink:href="#s69:merriweather-black:121"/><use x="13640" y="4191.6" xlink:href="#s69:merriweather-black:202"/><use x="15045" y="4191.6" xlink:href="#s69:merriweather-black:184"/><use x="16189" y="4191.6" xlink:href="#s69:merriweather-black:205"/><use x="16940" y="4191.6" xlink:href="#s69:merriweather-black:257"/><use x="17944" y="4191.6" xlink:href="#s69:merriweather-black:3"/><use x="18447" y="4191.6" xlink:href="#s69:merriweather-black:261"/><use x="19551" y="4191.6" xlink:href="#s69:merriweather-black:184"/><use x="20695" y="4191.6" xlink:href="#s69:merriweather-black:253"/><use x="22015" y="4191.6" xlink:href="#s69:merriweather-black:157"/><use x="23190" y="4191.6" xlink:href="#s69:merriweather-black:257"/><use x="24194" y="4191.6" xlink:href="#s69:merriweather-black:157"/><use x="25369" y="4191.6" xlink:href="#s69:merriweather-black:270"/><use x="26207" y="4191.6" xlink:href="#s69:merriweather-black:184"/><use x="27351" y="4191.6" xlink:href="#s69:merriweather-black:3"/><use x="27854" y="4191.6" xlink:href="#s69:merriweather-black:184"/><use x="28998" y="4191.6" xlink:href="#s69:merriweather-black:293"/><use x="30264" y="4191.6" xlink:href="#s69:merriweather-black:205"/><use x="31015" y="4191.6" xlink:href="#s69:merriweather-black:261"/><use x="32119" y="4191.6" xlink:href="#s69:merriweather-black:270"/><use x="32957" y="4191.6" xlink:href="#s69:merriweather-black:184"/><use x="34101" y="4191.6" xlink:href="#s69:merriweather-black:231"/><use x="35544" y="4191.6" xlink:href="#s69:merriweather-black:171"/><use x="36626" y="4191.6" xlink:href="#s69:merriweather-black:184"/><use x="37770" y="4191.6" xlink:href="#s69:merriweather-black:3"/><use x="38273" y="4191.6" xlink:href="#s69:merriweather-black:205"/><use x="39024" y="4191.6" xlink:href="#s69:merriweather-black:261"/><use x="40128" y="4191.6" xlink:href="#s69:merriweather-black:3"/><use x="40631" y="4191.6" xlink:href="#s69:merriweather-black:157"/><use x="41806" y="4191.6" xlink:href="#s69:merriweather-black:3"/><use x="42309" y="4191.6" xlink:href="#s69:merriweather-black:229"/><use x="44434" y="4191.6" xlink:href="#s69:merriweather-black:294"/><use x="45607" y="4191.6" xlink:href="#s69:merriweather-black:270"/><use x="46445" y="4191.6" xlink:href="#s69:merriweather-black:202"/><use x="47850" y="4191.6" xlink:href="#s69:merriweather-black:589"/></g><g id="line-2"><use x="14802" y="6649.2" xlink:href="#s69:merriweather-black:44"/><use x="16085" y="6649.2" xlink:href="#s69:merriweather-black:240"/><use x="17354" y="6649.2" xlink:href="#s69:merriweather-black:257"/><use x="18358" y="6649.2" xlink:href="#s69:merriweather-black:3"/><use x="18861" y="6649.2" xlink:href="#s69:merriweather-black:261"/><use x="19965" y="6649.2" xlink:href="#s69:merriweather-black:171"/><use x="21047" y="6649.2" xlink:href="#s69:merriweather-black:205"/><use x="21798" y="6649.2" xlink:href="#s69:merriweather-black:184"/><use x="22942" y="6649.2" xlink:href="#s69:merriweather-black:231"/><use x="24385" y="6649.2" xlink:href="#s69:merriweather-black:171"/><use x="25467" y="6649.2" xlink:href="#s69:merriweather-black:184"/><use x="26611" y="6649.2" xlink:href="#s69:merriweather-black:583"/><use x="27296" y="6649.2" xlink:href="#s69:merriweather-black:3"/><use x="27799" y="6649.2" xlink:href="#s69:merriweather-black:229"/><use x="29924" y="6649.2" xlink:href="#s69:merriweather-black:276"/><use x="31254" y="6649.2" xlink:href="#s69:merriweather-black:261"/><use x="32358" y="6649.2" xlink:href="#s69:merriweather-black:205"/><use x="33109" y="6649.2" xlink:href="#s69:merriweather-black:171"/><use x="34191" y="6649.2" xlink:href="#s69:merriweather-black:583"/><use x="34876" y="6649.2" xlink:href="#s69:merriweather-black:3"/><use x="35379" y="6649.2" xlink:href="#s69:merriweather-black:261"/><use x="36483" y="6649.2" xlink:href="#s69:merriweather-black:253"/><use x="37803" y="6649.2" xlink:href="#s69:merriweather-black:240"/><use x="39072" y="6649.2" xlink:href="#s69:merriweather-black:257"/><use x="40076" y="6649.2" xlink:href="#s69:merriweather-black:270"/><use x="40914" y="6649.2" xlink:href="#s69:merriweather-black:583"/><use x="41599" y="6649.2" xlink:href="#s69:merriweather-black:3"/><use x="42102" y="6649.2" xlink:href="#s69:merriweather-black:184"/><use x="43246" y="6649.2" xlink:href="#s69:merriweather-black:270"/><use x="44084" y="6649.2" xlink:href="#s69:merriweather-black:171"/><use x="45166" y="6649.2" xlink:href="#s69:merriweather-black:583"/></g></svg>