<svg xmlns="http://www.w3.org/2000/svg" xmlns:xlink="http://www.w3.org/1999/xlink" width="696" height="84" viewBox="0 0 59372 7209.2"><defs><path id="s76:merriweather-regular:122" d="M585-133L585-1403L252-1393L177-975L32-975L67-1522L1333-1522L1365-975L1222-975L1146-1393L826-1403L826-133L1109-109L1109 0L324 0L324-109L585-133Z"/><path id="s76:merriweather-regular:204" d="M209-125L209-1521L44-1541L44-1636L383-1679L388-1679L436-1645L437-1181L428-1002Q496-1062 606-1112.50Q716-1163 832-1163Q960-1163 1031.50-1114Q1103-1065 1131.50-963.50Q1160-862 1160-691L1160-126L1304-109L1304 0L801 0L801-108L932-125L932-692Q932-808 916.50-874.50Q901-941 857-974.50Q813-1008 728-1008Q656-1008 577-978.50Q498-949 438-904L438-126L580-109L580 0L89 0L89-109L209-125Z"/><path id="s76:merriweather-regular:186" d="M85-571Q85-747 154-883Q223-1019 345-1093.50Q467-1168 622-1168Q814-1168 919-1063Q1024-958 1031-760L1031-724Q1031-619 1019-564L326-564Q330-417 376-320Q422-223 497-177Q572-131 666-131Q748-131 834.50-159.50Q921-188 970-225L1012-129Q974-90 907.50-55Q841-20 759.50 1.50Q678 23 598 23Q430 23 314.50-51.50Q199-126 142-259.50Q85-393 85-571M791-680Q795-716 795-766Q794-893 742-970Q690-1047 578-1047Q466-1047 400.50-963.50Q335-880 326-680L791-680Z"/><path id="s76:merriweather-regular:3" d=""/><path id="s76:merriweather-regular:34" d="M264-133L264-1386L99-1411L99-1522L1141-1522L1169-1205L1040-1205L978-1395L499-1408L499-843L824-849L854-1015L983-1015L983-541L854-541L825-717L499-722L499-124L1049-146L1162-397L1290-359L1231 0L96 0L96-109L264-133Z"/><path id="s76:merriweather-regular:279" d="M908-136Q844-74 746-25.50Q648 23 548 23Q423 23 345-21.50Q267-66 230-163Q193-260 193-419L193-999L82-1036L82-1133L378-1163L379-1163L421-1136L421-430Q421-316 438-252Q455-188 498-158.50Q541-129 622-129Q700-129 767-159Q834-189 883-228L883-998L740-1037L740-1134L1056-1163L1058-1163L1111-1136L1111-113L1231-113L1231-13Q1173 4 1130.50 13.50Q1088 23 1033 23Q969 23 938.50-1.50Q908-26 908-84L908-136Z"/><path id="s76:merriweather-regular:260" d="M250-124L250-964L108-1004L108-1124L394-1164L399-1164L447-1125L447-1062L445-932L447-932Q465-965 516.50-1020.50Q568-1076 649.50-1122Q731-1168 827-1168Q866-1168 893-1157L893-911Q874-922 842.50-929.50Q811-937 775-937Q674-937 600.50-912.50Q527-888 478-851L478-125L741-107L741 0L93 0L93-108L250-124Z"/><path id="s76:merriweather-regular:243" d="M621-1168Q795-1168 911-1091Q1027-1014 1083-879.50Q1139-745 1139-572Q1139-387 1062.50-252Q986-117 861.50-47Q737 23 596 23Q422 23 306.50-54Q191-131 135-265.50Q79-400 79-573Q79-756 155.50-891Q232-1026 356.50-1097Q481-1168 621-1168M886-554Q886-779 819.50-911.50Q753-1044 609-1044Q471-1044 401-930.50Q331-817 331-591Q331-366 398.50-233.50Q466-101 609-101Q886-101 886-554Z"/><path id="s76:merriweather-regular:256" d="M626 23Q581 23 527 15.50Q473 8 436-2L442 168L442 366L647 388L647 496L66 496L66 388L215 365L215-964L72-1004L72-1124L367-1164L372-1164L417-1125L417-1011Q477-1077 565-1122.50Q653-1168 764-1168Q886-1168 987-1108.50Q1088-1049 1149-923.50Q1210-798 1210-609Q1210-434 1138.50-290Q1067-146 934.50-61.50Q802 23 626 23M442-154Q456-129 510.50-110Q565-91 633-91Q730-91 804.50-142.50Q879-194 922-305.50Q965-417 965-589Q965-734 926.50-829Q888-924 822-969.50Q756-1015 671-1015Q600-1015 539-986Q478-957 442-918L442-154Z"/><path id="s76:merriweather-regular:158" d="M755-743Q755-837 735.50-891Q716-945 668-970Q620-995 532-995Q363-995 176-900L175-900L125-1004Q152-1028 228.50-1066Q305-1104 402.50-1132.50Q500-1161 588-1161Q734-1161 817.50-1121.50Q901-1082 938-995Q975-908 975-760L975-110L1097-110L1097-12Q951 23 877 23Q835 23 813 16Q791 9 780.50-12.50Q770-34 770-79L770-127Q716-74 628-25.50Q540 23 431 23Q335 23 256.50-12Q178-47 131.50-120Q85-193 85-302Q85-435 177.50-521Q270-607 420.50-647.50Q571-688 755-691L755-743M755-578Q608-578 513.50-544.50Q419-511 376.50-456Q334-401 334-331Q334-226 386-177Q438-128 526-128Q573-128 639.50-154.50Q706-181 755-219L755-578Z"/><path id="s76:merriweather-regular:234" d="M233-126L233-964L90-1004L90-1124L386-1164L391-1164L438-1125L438-1044L437-998Q483-1039 552.50-1077Q622-1115 701.50-1139Q781-1163 852-1163Q982-1163 1053-1114.50Q1124-1066 1152-965Q1180-864 1180-691L1180-126L1324-109L1324 0L822 0L822-109L950-126L950-692Q950-808 934.50-874.50Q919-941 876-974.50Q833-1008 749-1008Q677-1008 599-977Q521-946 462-902L462-126L600-109L600 0L102 0L102-109L233-126Z"/><path id="s76:merriweather-regular:225" d="M235-126L235-1521L71-1541L71-1636L412-1679L414-1679L463-1645L463-126L633-109L633 0L73 0L73-109L235-126Z"/><path id="s76:merriweather-regular:198" d="M581-405Q499-405 428-422Q400-397 384-364.50Q368-332 368-298Q368-248 391.50-221.50Q415-195 462.50-185Q510-175 593-175L811-175Q1202-175 1202 125Q1202 241 1119.50 339Q1037 437 899 494.50Q761 552 603 552L602 552Q334 552 213 470.50Q92 389 92 240Q92 147 146.50 71.50Q201-4 278-43Q181-98 181-211Q181-286 224-349.50Q267-413 337-452Q237-498 183.50-582.50Q130-667 130-780Q130-898 197-986Q264-1074 373-1120.50Q482-1167 606-1168L607-1168Q715-1168 801-1143.50Q887-1119 946-1071Q976-1106 1036-1138Q1096-1170 1177-1170L1231-1170L1231-976L1021-976Q1056-903 1056-815Q1056-695 994-601.50Q932-508 824-456.50Q716-405 582-405L581-405M593-1051Q485-1051 425.50-992.50Q366-934 366-801Q366-675 422.50-599.50Q479-524 603-524L604-524Q718-524 769.50-592Q821-660 821-791Q821-925 765.50-988Q710-1051 594-1051L593-1051M380-8Q316 71 316 181Q316 301 387 363Q458 425 620 425L622 425Q712 425 794 397Q876 369 927 314Q978 259 978 183Q978 118 958.50 80.50Q939 43 887 24Q835 5 736 5L535 5Q453 5 380-8Z"/><path id="s76:merriweather-regular:264" d="M260-325L300-173Q312-152 346.50-133Q381-114 428-102Q475-90 524-90Q637-90 685-132.50Q733-175 733-249Q733-301 700.50-340.50Q668-380 604-415Q540-450 430-494Q271-556 198-640.50Q125-725 125-859Q125-949 179.50-1017.50Q234-1086 329-1124Q424-1162 543-1162Q635-1162 705-1147.50Q775-1133 846-1110L882-1099L882-846L754-846L711-986Q699-1012 646.50-1031Q594-1050 529-1050Q437-1050 387-1011Q337-972 337-909Q337-853 366.50-815Q396-777 440-753Q484-729 563-696L602-679Q716-630 787-587Q858-544 905-477Q952-410 952-313Q952-213 899.50-137Q847-61 747.50-19Q648 23 512 23Q410 23 298-5Q186-33 119-63L119-325L260-325Z"/><path id="s76:merriweather-regular:232" d="M233-125L233-964L90-1004L90-1124L385-1164L390-1164L438-1125L438-1044L436-998Q481-1039 552.50-1077Q624-1115 703.50-1139Q783-1163 848-1163Q958-1163 1025-1126Q1092-1089 1127-1011Q1166-1045 1234.50-1080.50Q1303-1116 1381-1139.50Q1459-1163 1526-1163Q1656-1163 1728-1114.50Q1800-1066 1829-965.50Q1858-865 1858-694L1858-125L2001-108L2001 0L1511 0L1511-108L1629-126L1629-687Q1629-804 1612-872Q1595-940 1548-974.50Q1501-1009 1413-1009Q1352-1009 1280-981Q1208-953 1156-916Q1174-830 1174-691L1174-126L1320-108L1320 0L812 0L812-108L945-126L945-692Q945-809 930-875Q915-941 871.50-974.50Q828-1008 744-1008Q674-1008 597-978Q520-948 462-904L462-126L596-108L596 0L108 0L108-108L233-125Z"/><path id="s76:merriweather-regular:171" d="M-5-1542L-5-1636L332-1679L337-1679L387-1645L387-1034Q446-1092 528-1130Q610-1168 710-1168Q832-1168 933-1109Q1034-1050 1095-924.50Q1156-799 1156-609Q1156-433 1084-288.50Q1012-144 877.50-60.50Q743 23 564 23Q467 23 379.50 9.50Q292-4 233-23Q174-42 160-56L160-1522L-5-1542M387-157Q400-127 454-109.50Q508-92 579-92Q677-92 751.50-147Q826-202 868-312.50Q910-423 910-585Q910-729 872.50-825Q835-921 769-967Q703-1013 618-1013Q546-1013 485-980.50Q424-948 387-907L387-157Z"/><path id="s76:merriweather-regular:196" d="M258-127L258-991L67-991L67-1090L258-1135L258-1230Q258-1357 327-1464Q396-1571 506.50-1633.50Q617-1696 735-1696Q779-1696 804.50-1691.50Q830-1687 855-1680L855-1456Q834-1474 780-1491Q726-1508 661-1508Q594-1508 556.50-1491Q519-1474 502.50-1431Q486-1388 486-1308L487-1135L762-1135L762-991L487-991L487-126L704-108L704 0L89 0L89-108L258-127Z"/><path id="s76:merriweather-regular:273" d="M67-994L67-1089Q95-1096 131.50-1109Q168-1122 179-1129Q212-1153 233-1207Q248-1241 272.50-1315.50Q297-1390 306-1428L436-1428L438-1137L774-1137L774-994L439-994L439-389Q439-267 446-219.50Q453-172 474.50-158.50Q496-145 553-145L554-145Q606-145 671.50-158Q737-171 773-185L774-185L808-88Q778-63 718-37.50Q658-12 589 5Q520 22 462 22L460 22Q336 22 273-32.50Q210-87 210-215L210-994L67-994Z"/><path id="s76:merriweather-regular:207" d="M240-126L240-964L95-1005L95-1123L413-1164L418-1164L469-1125L469-126L629-109L629 0L78 0L78-109L240-126M199-1489Q199-1557 238.50-1604Q278-1651 349-1651L350-1651Q392-1651 423-1631.50Q454-1612 470.50-1580Q487-1548 487-1512Q487-1442 447-1397Q407-1352 331-1352L330-1352Q272-1352 235.50-1391Q199-1430 199-1489Z"/><path id="s76:merriweather-regular:297" d="M146 306Q158 313 195 318.50Q232 324 265 324Q325 324 375.50 299.50Q426 275 478 204Q530 133 579 0L466 0L92-1005L-3-1031L-3-1137L506-1137L506-1031L349-1005L542-401L631-111L711-402L892-1006L758-1031L758-1137L1178-1137L1178-1031L1076-1006Q932-558 841.50-290.50Q751-23 726 34Q658 206 597.50 306Q537 406 457.50 458Q378 510 263 510Q232 510 196 505.50Q160 501 146 495L146 306Z"/><path id="s76:merriweather-regular:592" d="M145-116Q145-160 168.50-196.50Q192-233 230-254Q268-275 310-275Q379-275 415.50-236Q452-197 452-139Q452-92 429.50-55.50Q407-19 368.50 0.50Q330 20 285 20Q248 20 216 3Q184-14 164.50-45Q145-76 145-116Z"/><path id="s76:merriweather-regular:296" d="M151-125L498-568L160-1005L42-1031L42-1137L572-1137L572-1031L434-1005L610-759L669-669L720-758L904-1005L757-1031L757-1137L1198-1137L1198-1031L1073-1005L744-593L1098-124L1215-106L1215 0L682 0L682-106L813-125L570-481L519-392L334-126L499-106L499 0L14 0L14-106L151-125Z"/><path id="s76:merriweather-regular:173" d="M653-1168Q797-1168 961-1106L951-798L812-798L766-985Q752-1018 710.50-1034Q669-1050 611-1050Q523-1050 458-1001.50Q393-953 357-856.50Q321-760 321-618Q321-453 364-344Q407-235 481-183Q555-131 648-131Q735-131 808.50-156.50Q882-182 934-219L977-127Q941-90 881-55.50Q821-21 746.50 1Q672 23 597 23Q428 23 311-52Q194-127 135.50-257.50Q77-388 77-554Q77-725 143-864.50Q209-1004 339-1086Q469-1168 653-1168Z"/><path id="s76:merriweather-regular:44" d="M264-133L264-1386L96-1411L96-1522L1188-1522L1209-1172L1064-1172L998-1394L499-1408L499-825L847-829L887-997L1010-997L1010-520L887-520L847-691L499-700L499-133L803-109L803 0L99 0L99-109L264-133Z"/><path id="s76:merriweather-regular:586" d="M356-304Q431-304 476-236Q521-168 521-50Q521 63 483 167Q445 271 387 346Q329 421 272 451L270 451L203 396L203 372Q254 331 292 264Q330 197 330 98Q330 49 315 21Q300-7 269-40Q241-70 226.50-97Q212-124 212-168Q212-208 230-239Q248-270 278.50-287Q309-304 344-304L356-304Z"/></defs><g id="line-0"><use x="0" y="1734" xlink:href="#s76:merriweather-regular:122"/><use x="1411" y="1734" xlink:href="#s76:merriweather-regular:204"/><use x="2767" y="1734" xlink:href="#s76:merriweather-regular:186"/><use x="3879" y="1734" xlink:href="#s76:merriweather-regular:3"/><use x="4495" y="1734" xlink:href="#s76:merriweather-regular:34"/><use x="5834" y="1734" xlink:href="#s76:merriweather-regular:279"/><use x="7141" y="1734" xlink:href="#s76:merriweather-regular:260"/><use x="8084" y="1734" xlink:href="#s76:merriweather-regular:243"/><use x="9302" y="1734" xlink:href="#s76:merriweather-regular:256"/><use x="10596" y="1734" xlink:href="#s76:merriweather-regular:186"/><use x="11708" y="1734" xlink:href="#s76:merriweather-regular:158"/><use x="12856" y="1734" xlink:href="#s76:merriweather-regular:234"/><use x="14231" y="1734" xlink:href="#s76:merriweather-regular:3"/><use x="14847" y="1734" xlink:href="#s76:merriweather-regular:225"/><use x="15535" y="1734" xlink:href="#s76:merriweather-regular:158"/><use x="16683" y="1734" xlink:href="#s76:merriweather-regular:234"/><use x="18058" y="1734" xlink:href="#s76:merriweather-regular:198"/><use x="19311" y="1734" xlink:href="#s76:merriweather-regular:279"/><use x="20618" y="1734" xlink:href="#s76:merriweather-regular:158"/><use x="21766" y="1734" xlink:href="#s76:merriweather-regular:198"/><use x="23019" y="1734" xlink:href="#s76:merriweather-regular:186"/><use x="24131" y="1734" xlink:href="#s76:merriweather-regular:264"/><use x="25174" y="1734" xlink:href="#s76:merriweather-regular:3"/><use x="25790" y="1734" xlink:href="#s76:merriweather-regular:158"/><use x="26938" y="1734" xlink:href="#s76:merriweather-regular:260"/><use x="27881" y="1734" xlink:href="#s76:merriweather-regular:186"/><use x="28993" y="1734" xlink:href="#s76:merriweather-regular:3"/><use x="29609" y="1734" xlink:href="#s76:merriweather-regular:232"/><use x="31663" y="1734" xlink:href="#s76:merriweather-regular:186"/><use x="32775" y="1734" xlink:href="#s76:merriweather-regular:232"/><use x="34829" y="1734" xlink:href="#s76:merriweather-regular:171"/><use x="36070" y="1734" xlink:href="#s76:merriweather-regular:186"/><use x="37182" y="1734" xlink:href="#s76:merriweather-regular:260"/><use x="38125" y="1734" xlink:href="#s76:merriweather-regular:264"/><use x="39168" y="1734" xlink:href="#s76:merriweather-regular:3"/><use x="39784" y="1734" xlink:href="#s76:merriweather-regular:243"/><use x="41002" y="1734" xlink:href="#s76:merriweather-regular:196"/><use x="41830" y="1734" xlink:href="#s76:merriweather-regular:3"/><use x="42446" y="1734" xlink:href="#s76:merriweather-regular:273"/><use x="43280" y="1734" xlink:href="#s76:merriweather-regular:204"/><use x="44636" y="1734" xlink:href="#s76:merriweather-regular:186"/><use x="45748" y="1734" xlink:href="#s76:merriweather-regular:3"/><use x="46364" y="1734" xlink:href="#s76:merriweather-regular:264"/><use x="47407" y="1734" xlink:href="#s76:merriweather-regular:158"/><use x="48555" y="1734" xlink:href="#s76:merriweather-regular:232"/><use x="50609" y="1734" xlink:href="#s76:merriweather-regular:186"/><use x="51721" y="1734" xlink:href="#s76:merriweather-regular:3"/><use x="52337" y="1734" xlink:href="#s76:merriweather-regular:196"/><use x="53165" y="1734" xlink:href="#s76:merriweather-regular:158"/><use x="54313" y="1734" xlink:href="#s76:merriweather-regular:232"/><use x="56367" y="1734" xlink:href="#s76:merriweather-regular:207"/><use x="57052" y="1734" xlink:href="#s76:merriweather-regular:225"/><use x="57740" y="1734" xlink:href="#s76:merriweather-regular:297"/><use x="58920" y="1734" xlink:href="#s76:merriweather-regular:592"/></g><g id="line-1"><use x="11930.5" y="4191.6" xlink:href="#s76:merriweather-regular:122"/><use x="13341.5" y="4191.6" xlink:href="#s76:merriweather-regular:204"/><use x="14697.5" y="4191.6" xlink:href="#s76:merriweather-regular:186"/><use x="15809.5" y="4191.6" xlink:href="#s76:merriweather-regular:207"/><use x="16494.5" y="4191.6" xlink:href="#s76:merriweather-regular:260"/><use x="17437.5" y="4191.6" xlink:href="#s76:merriweather-regular:3"/><use x="18053.5" y="4191.6" xlink:href="#s76:merriweather-regular:264"/><use x="19096.5" y="4191.6" xlink:href="#s76:merriweather-regular:186"/><use x="20208.5" y="4191.6" xlink:href="#s76:merriweather-regular:256"/><use x="21502.5" y="4191.6" xlink:href="#s76:merriweather-regular:158"/><use x="22650.5" y="4191.6" xlink:href="#s76:merriweather-regular:260"/><use x="23593.5" y="4191.6" xlink:href="#s76:merriweather-regular:158"/><use x="24741.5" y="4191.6" xlink:href="#s76:merriweather-regular:273"/><use x="25575.5" y="4191.6" xlink:href="#s76:merriweather-regular:186"/><use x="26687.5" y="4191.6" xlink:href="#s76:merriweather-regular:3"/><use x="27303.5" y="4191.6" xlink:href="#s76:merriweather-regular:186"/><use x="28415.5" y="4191.6" xlink:href="#s76:merriweather-regular:296"/><use x="29633.5" y="4191.6" xlink:href="#s76:merriweather-regular:207"/><use x="30318.5" y="4191.6" xlink:href="#s76:merriweather-regular:264"/><use x="31361.5" y="4191.6" xlink:href="#s76:merriweather-regular:273"/><use x="32195.5" y="4191.6" xlink:href="#s76:merriweather-regular:186"/><use x="33307.5" y="4191.6" xlink:href="#s76:merriweather-regular:234"/><use x="34682.5" y="4191.6" xlink:href="#s76:merriweather-regular:173"/><use x="35729.5" y="4191.6" xlink:href="#s76:merriweather-regular:186"/><use x="36841.5" y="4191.6" xlink:href="#s76:merriweather-regular:3"/><use x="37457.5" y="4191.6" xlink:href="#s76:merriweather-regular:207"/><use x="38142.5" y="4191.6" xlink:href="#s76:merriweather-regular:264"/><use x="39185.5" y="4191.6" xlink:href="#s76:merriweather-regular:3"/><use x="39801.5" y="4191.6" xlink:href="#s76:merriweather-regular:158"/><use x="40949.5" y="4191.6" xlink:href="#s76:merriweather-regular:3"/><use x="41565.5" y="4191.6" xlink:href="#s76:merriweather-regular:232"/><use x="43619.5" y="4191.6" xlink:href="#s76:merriweather-regular:297"/><use x="44799.5" y="4191.6" xlink:href="#s76:merriweather-regular:273"/><use x="45633.5" y="4191.6" xlink:href="#s76:merriweather-regular:204"/><use x="46989.5" y="4191.6" xlink:href="#s76:merriweather-regular:592"/></g><g id="line-2"><use x="14506.5" y="6649.2" xlink:href="#s76:merriweather-regular:44"/><use x="15776.5" y="6649.2" xlink:href="#s76:merriweather-regular:243"/><use x="16994.5" y="6649.2" xlink:href="#s76:merriweather-regular:260"/><use x="17937.5" y="6649.2" xlink:href="#s76:merriweather-regular:3"/><use x="18553.5" y="6649.2" xlink:href="#s76:merriweather-regular:264"/><use x="19596.5" y="6649.2" xlink:href="#s76:merriweather-regular:173"/><use x="20643.5" y="6649.2" xlink:href="#s76:merriweather-regular:207"/><use x="21328.5" y="6649.2" xlink:href="#s76:merriweather-regular:186"/><use x="22440.5" y="6649.2" xlink:href="#s76:merriweather-regular:234"/><use x="23815.5" y="6649.2" xlink:href="#s76:merriweather-regular:173"/><use x="24862.5" y="6649.2" xlink:href="#s76:merriweather-regular:186"/><use x="25974.5" y="6649.2" xlink:href="#s76:merriweather-regular:586"/><use x="26661.5" y="6649.2" xlink:href="#s76:merriweather-regular:3"/><use x="27277.5" y="6649.2" xlink:href="#s76:merriweather-regular:232"/><use x="29331.5" y="6649.2" xlink:href="#s76:merriweather-regular:279"/><use x="30638.5" y="6649.2" xlink:href="#s76:merriweather-regular:264"/><use x="31681.5" y="6649.2" xlink:href="#s76:merriweather-regular:207"/><use x="32366.5" y="6649.2" xlink:href="#s76:merriweather-regular:173"/><use x="33413.5" y="6649.2" xlink:href="#s76:merriweather-regular:586"/><use x="34100.5" y="6649.2" xlink:href="#s76:merriweather-regular:3"/><use x="34716.5" y="6649.2" xlink:href="#s76:merriweather-regular:264"/><use x="35759.5" y="6649.2" xlink:href="#s76:merriweather-regular:256"/><use x="37053.5" y="6649.2" xlink:href="#s76:merriweather-regular:243"/><use x="38271.5" y="6649.2" xlink:href="#s76:merriweather-regular:260"/><use x="39214.5" y="6649.2" xlink:href="#s76:merriweather-regular:273"/><use x="40048.5" y="6649.2" xlink:href="#s76:merriweather-regular:586"/><use x="40735.5" y="6649.2" xlink:href="#s76:merriweather-regular:3"/><use x="41351.5" y="6649.2" xlink:href="#s76:merriweather-regular:186"/><use x="42463.5" y="6649.2" xlink:href="#s76:merriweather-regular:273"/><use x="43297.5" y="6649.2" xlink:href="#s76:merriweather-regular:173"/><use x="44344.5" y="6649.2" xlink:href="#s76:merriweather-regular:586"/></g></svg>