<svg xmlns="http://www.w3.org/2000/svg" xmlns:xlink="http://www.w3.org/1999/xlink" width="677" height="84" viewBox="0 0 28204 3493.5" ><defs><path id="s83:montserrat-extralight:283" d="M12-699L526-699L526-658L290-658L290 0L248 0L248-658L12-658L12-699Z"/><path id="s83:montserrat-extralight:515" d="M365-522Q460-522 513.50-467.50Q567-413 567-318L567 0L525 0L525-310Q525-390 480-435Q435-480 355-480Q259-478 205-418Q151-358 151-255L151 0L109 0L109-742L151-742L151-385Q177-451 231.50-485.50Q286-520 365-522Z"/><path id="s83:montserrat-extralight:457" d="M302-522Q377-522 432.50-487.50Q488-453 516.50-391Q545-329 544-249L89-249Q92-186 120-138Q148-90 196-63.50Q244-37 304-37Q357-37 402.50-55.50Q448-74 480-109L504-82Q467-42 415-20.50Q363 1 302 1Q229 1 171-32.50Q113-66 80.50-125.50Q48-185 48-260Q48-335 81-395Q114-455 171.50-488.50Q229-522 302-522M506-286Q500-376 445-430Q390-484 302-484Q214-484 156-429.50Q98-375 90-286L506-286Z"/><path id="s83:montserrat-extralight:3" d=""/><path id="s83:montserrat-extralight:75" d="M120-699L571-699L571-658L162-658L162-379L526-379L526-337L162-337L162-41L584-41L584 0L120 0L120-699Z"/><path id="s83:montserrat-extralight:653" d="M536-521L536 0L495 0L495-139Q470-71 416.50-35.50Q363 0 286 1Q192 1 139.50-53Q87-107 87-203L87-521L128-521L128-211Q128-131 172-86Q216-41 295-41Q389-43 442-103Q495-163 495-266L495-521L536-521Z"/><path id="s83:montserrat-extralight:616" d="M146-390Q171-453 220.50-486.50Q270-520 340-522L340-479Q255-479 204-426.50Q153-374 146-282L146 0L104 0L104-521L146-521L146-390Z"/><path id="s83:montserrat-extralight:577" d="M305-522Q379-522 437.50-488.50Q496-455 529-395.50Q562-336 562-261Q562-185 529-125.50Q496-66 437.50-32.50Q379 1 305 1Q232 1 173.50-32.50Q115-66 81.50-125.50Q48-185 48-261Q48-336 81.50-395.50Q115-455 173.50-488.50Q232-522 305-522M305-482Q243-482 194-454Q145-426 117-375.50Q89-325 89-261Q89-196 117-145Q145-94 194-66Q243-38 305-38Q367-38 416.50-66Q466-94 493.50-145Q521-196 521-261Q521-325 493.50-375.50Q466-426 416.50-454Q367-482 305-482Z"/><path id="s83:montserrat-extralight:613" d="M372-522Q444-522 501.50-488.50Q559-455 591-395.50Q623-336 623-260Q623-185 591-125.50Q559-66 502-32.50Q445 1 372 1Q296 1 238.50-35.50Q181-72 151-136L151 194L109 194L109-521L151-521L151-384Q181-449 238.50-485.50Q296-522 372-522M366-38Q428-38 477.50-66.50Q527-95 554.50-145.50Q582-196 582-260Q582-324 554.50-374.50Q527-425 477.50-454Q428-483 366-483Q304-483 255-454Q206-425 178.50-374.50Q151-324 151-260Q151-196 178.50-145.50Q206-95 255-66.50Q304-38 366-38Z"/><path id="s83:montserrat-extralight:387" d="M439 0L438-103Q406-50 352.50-24.50Q299 1 230 1Q179 1 140-19Q101-39 79.50-73.50Q58-108 58-152Q58-217 110-254.50Q162-292 252-292L437-292L437-343Q436-410 397-447Q358-484 281-484Q234-484 192-466.50Q150-449 106-416L86-448Q137-485 184-503.50Q231-522 287-522Q378-522 427.50-475Q477-428 478-346L480 0L439 0M236-37Q311-37 363-70Q415-103 438-170L438-255L256-255Q179-255 138.50-229Q98-203 98-153Q98-101 135.50-69Q173-37 236-37Z"/><path id="s83:montserrat-extralight:566" d="M359-522Q454-522 507.50-467.50Q561-413 561-318L561 0L519 0L519-310Q519-390 474-435Q429-480 349-480Q260-478 206.50-425.50Q153-373 146-282L146 0L104 0L104-521L146-521L146-388Q172-452 226.50-486Q281-520 359-522Z"/><path id="s83:montserrat-extralight:546" d="M109-742L151-742L151 0L109 0L109-742Z"/><path id="s83:montserrat-extralight:508" d="M542-521L542-57Q542 19 511 76Q480 133 423 164Q366 195 290 195Q229 195 177.50 173.50Q126 152 79 110L101 79Q143 117 188.50 136.50Q234 156 289 156Q386 156 444 98.50Q502 41 502-56L502-155Q475-92 419-56.50Q363-21 289-21Q220-21 165-53Q110-85 79-142Q48-199 48-271Q48-343 79-400Q110-457 164.50-489.50Q219-522 288-522Q362-522 418-486Q474-450 502-387L502-521L542-521M294-57Q353-57 400.50-84.50Q448-112 475-160.50Q502-209 502-270Q502-331 475-380Q448-429 400.50-456.50Q353-484 294-484Q235-484 187.50-456.50Q140-429 113.50-380Q87-331 87-270Q87-209 113.50-160.50Q140-112 187-84.50Q234-57 294-57Z"/><path id="s83:montserrat-extralight:624" d="M358-447Q300-484 226-484Q168-484 132-461.50Q96-439 96-394Q96-364 114-344Q132-324 159-313Q186-302 232-288Q287-271 320-256Q353-241 376.50-213Q400-185 400-139Q400-70 348-34.50Q296 1 219 1Q164 1 114-18Q64-37 28-71L47-103Q81-71 126.50-54Q172-37 221-37Q281-37 320.50-62Q360-87 360-135Q360-167 341.50-187.50Q323-208 295-220Q267-232 220-246Q166-263 134-277.50Q102-292 79-319.50Q56-347 56-391Q56-456 104.50-489Q153-522 227-522Q309-522 376-481L358-447Z"/><path id="s83:montserrat-extralight:564" d="M760-522Q853-522 905.50-468Q958-414 958-318L958 0L917 0L917-310Q917-390 873-435Q829-480 750-480Q657-478 604.50-418Q552-358 552-255L552 0L511 0L511-310Q511-390 466.50-435Q422-480 344-480Q251-478 198-417.50Q145-357 145-255L145 0L104 0L104-521L145-521L145-384Q170-451 223.50-485.50Q277-520 355-522Q433-522 483-482.50Q533-443 547-371Q571-444 625.50-482Q680-520 760-522Z"/><path id="s83:montserrat-extralight:441" d="M372-522Q444-522 501.50-488.50Q559-455 591-395.50Q623-336 623-260Q623-185 591-125.50Q559-66 502-32.50Q445 1 372 1Q296 1 238.50-35.50Q181-72 151-136L151 0L109 0L109-742L151-742L151-384Q181-449 238.50-485.50Q296-522 372-522M366-38Q428-38 477.50-66.50Q527-95 554.50-145.50Q582-196 582-260Q582-324 554.50-374.50Q527-425 477.50-454Q428-483 366-483Q304-483 255-454Q206-425 178.50-374.50Q151-324 151-260Q151-196 178.50-145.50Q206-95 255-66.50Q304-38 366-38Z"/><path id="s83:montserrat-extralight:505" d="M270-711Q221-711 188.50-676.50Q156-642 156-587L156-508L317-508L317-472L156-472L156 0L115 0L115-472L49-472L49-508L115-508L115-583Q115-632 135.50-670Q156-708 190.50-729.50Q225-751 265-751Q312-751 354-727L341-691Q301-711 270-711Z"/><path id="s83:montserrat-extralight:637" d="M349-36Q294 1 238 1Q182 1 152-35.50Q122-72 122-144L122-472L46-472L46-508L122-508L122-637L162-637L162-508L339-508L339-472L162-472L162-149Q162-40 243-40Q289-40 333-70L349-36Z"/><path id="s83:montserrat-extralight:520" d="M104-521L145-521L145 0L104 0L104-521M125-707Q139-707 149.50-696.50Q160-686 160-671Q160-655 149.50-644.50Q139-634 125-634Q111-634 100.50-644.50Q90-655 90-671Q90-686 100.50-696.50Q111-707 125-707Z"/><path id="s83:montserrat-extralight:688" d="M232 75Q208 133 171 164Q134 195 88 195Q29 195-11 165L7 129Q42 153 86 153Q121 153 150 129Q179 105 198 59L222 0L7-521L51-521L243-49L430-521L474-521L232 75Z"/><path id="s83:montserrat-extralight:1245" d="M90-64Q104-64 114.50-54Q125-44 125-29Q125-13 114.50-2.50Q104 8 90 8Q76 8 66-2.50Q56-13 56-29Q56-44 66-54Q76-64 90-64Z"/><path id="s83:montserrat-extralight:687" d="M42-521L90-521L251-300L412-521L459-521L277-269L472 0L424 0L250-237L75 0L27 0L224-269L42-521Z"/><path id="s83:montserrat-extralight:442" d="M465-419Q397-482 304-482Q242-482 193-454Q144-426 116.50-375.50Q89-325 89-261Q89-196 116.50-145Q144-94 193-66Q242-38 304-38Q356-38 400-57Q444-76 474-111L499-84Q464-43 413.50-21Q363 1 303 1Q230 1 172-32.50Q114-66 81-125.50Q48-185 48-260Q48-335 81-395Q114-455 172-488.50Q230-522 303-522Q359-522 406.50-503Q454-484 489-449L465-419Z"/><path id="s83:montserrat-extralight:121" d="M120-699L541-699L541-658L162-658L162-356L498-356L498-314L162-314L162 0L120 0L120-699Z"/><path id="s83:montserrat-extralight:1239" d="M92-64Q106-64 116-53.50Q126-43 126-28Q126-19 121.50-9Q117 1 116 4L70 117L42 117L80 5Q70 1 64-8Q58-17 58-28Q58-43 68-53.50Q78-64 92-64Z"/></defs><g id="line-0"><use x="0" y="842.5" xlink:href="#s83:montserrat-extralight:283" /><use x="538" y="842.5" xlink:href="#s83:montserrat-extralight:515" /><use x="1192" y="842.5" xlink:href="#s83:montserrat-extralight:457" /><use x="1781" y="842.5" xlink:href="#s83:montserrat-extralight:3" /><use x="2068" y="842.5" xlink:href="#s83:montserrat-extralight:75" /><use x="2715" y="842.5" xlink:href="#s83:montserrat-extralight:653" /><use x="3356" y="842.5" xlink:href="#s83:montserrat-extralight:616" /><use x="3706" y="842.5" xlink:href="#s83:montserrat-extralight:577" /><use x="4316" y="842.5" xlink:href="#s83:montserrat-extralight:613" /><use x="4987" y="842.5" xlink:href="#s83:montserrat-extralight:457" /><use x="5576" y="842.5" xlink:href="#s83:montserrat-extralight:387" /><use x="6143" y="842.5" xlink:href="#s83:montserrat-extralight:566" /><use x="6791" y="842.5" xlink:href="#s83:montserrat-extralight:3" /><use x="7078" y="842.5" xlink:href="#s83:montserrat-extralight:546" /><use x="7338" y="842.5" xlink:href="#s83:montserrat-extralight:387" /><use x="7905" y="842.5" xlink:href="#s83:montserrat-extralight:566" /><use x="8553" y="842.5" xlink:href="#s83:montserrat-extralight:508" /><use x="9185" y="842.5" xlink:href="#s83:montserrat-extralight:653" /><use x="9826" y="842.5" xlink:href="#s83:montserrat-extralight:387" /><use x="10393" y="842.5" xlink:href="#s83:montserrat-extralight:508" /><use x="11025" y="842.5" xlink:href="#s83:montserrat-extralight:457" /><use x="11614" y="842.5" xlink:href="#s83:montserrat-extralight:624" /><use x="12051" y="842.5" xlink:href="#s83:montserrat-extralight:3" /><use x="12338" y="842.5" xlink:href="#s83:montserrat-extralight:387" /><use x="12905" y="842.5" xlink:href="#s83:montserrat-extralight:616" /><use x="13255" y="842.5" xlink:href="#s83:montserrat-extralight:457" /><use x="13844" y="842.5" xlink:href="#s83:montserrat-extralight:3" /><use x="14131" y="842.5" xlink:href="#s83:montserrat-extralight:564" /><use x="15176" y="842.5" xlink:href="#s83:montserrat-extralight:457" /><use x="15765" y="842.5" xlink:href="#s83:montserrat-extralight:564" /><use x="16810" y="842.5" xlink:href="#s83:montserrat-extralight:441" /><use x="17481" y="842.5" xlink:href="#s83:montserrat-extralight:457" /><use x="18070" y="842.5" xlink:href="#s83:montserrat-extralight:616" /><use x="18420" y="842.5" xlink:href="#s83:montserrat-extralight:624" /><use x="18857" y="842.5" xlink:href="#s83:montserrat-extralight:3" /><use x="19144" y="842.5" xlink:href="#s83:montserrat-extralight:577" /><use x="19754" y="842.5" xlink:href="#s83:montserrat-extralight:505" /><use x="20062" y="842.5" xlink:href="#s83:montserrat-extralight:3" /><use x="20349" y="842.5" xlink:href="#s83:montserrat-extralight:637" /><use x="20721" y="842.5" xlink:href="#s83:montserrat-extralight:515" /><use x="21375" y="842.5" xlink:href="#s83:montserrat-extralight:457" /><use x="21964" y="842.5" xlink:href="#s83:montserrat-extralight:3" /><use x="22251" y="842.5" xlink:href="#s83:montserrat-extralight:624" /><use x="22688" y="842.5" xlink:href="#s83:montserrat-extralight:387" /><use x="23255" y="842.5" xlink:href="#s83:montserrat-extralight:564" /><use x="24300" y="842.5" xlink:href="#s83:montserrat-extralight:457" /><use x="24889" y="842.5" xlink:href="#s83:montserrat-extralight:3" /><use x="25176" y="842.5" xlink:href="#s83:montserrat-extralight:505" /><use x="25484" y="842.5" xlink:href="#s83:montserrat-extralight:387" /><use x="26051" y="842.5" xlink:href="#s83:montserrat-extralight:564" /><use x="27096" y="842.5" xlink:href="#s83:montserrat-extralight:520" /><use x="27346" y="842.5" xlink:href="#s83:montserrat-extralight:546" /><use x="27606" y="842.5" xlink:href="#s83:montserrat-extralight:688" /><use x="28079" y="842.5" xlink:href="#s83:montserrat-extralight:1245" /></g><g id="line-1"><use x="5893.5" y="2042.5" xlink:href="#s83:montserrat-extralight:283" /><use x="6431.5" y="2042.5" xlink:href="#s83:montserrat-extralight:515" /><use x="7085.5" y="2042.5" xlink:href="#s83:montserrat-extralight:457" /><use x="7674.5" y="2042.5" xlink:href="#s83:montserrat-extralight:520" /><use x="7924.5" y="2042.5" xlink:href="#s83:montserrat-extralight:616" /><use x="8274.5" y="2042.5" xlink:href="#s83:montserrat-extralight:3" /><use x="8561.5" y="2042.5" xlink:href="#s83:montserrat-extralight:624" /><use x="8998.5" y="2042.5" xlink:href="#s83:montserrat-extralight:457" /><use x="9587.5" y="2042.5" xlink:href="#s83:montserrat-extralight:613" /><use x="10258.5" y="2042.5" xlink:href="#s83:montserrat-extralight:387" /><use x="10825.5" y="2042.5" xlink:href="#s83:montserrat-extralight:616" /><use x="11175.5" y="2042.5" xlink:href="#s83:montserrat-extralight:387" /><use x="11742.5" y="2042.5" xlink:href="#s83:montserrat-extralight:637" /><use x="12114.5" y="2042.5" xlink:href="#s83:montserrat-extralight:457" /><use x="12703.5" y="2042.5" xlink:href="#s83:montserrat-extralight:3" /><use x="12990.5" y="2042.5" xlink:href="#s83:montserrat-extralight:457" /><use x="13579.5" y="2042.5" xlink:href="#s83:montserrat-extralight:687" /><use x="14082.5" y="2042.5" xlink:href="#s83:montserrat-extralight:520" /><use x="14332.5" y="2042.5" xlink:href="#s83:montserrat-extralight:624" /><use x="14769.5" y="2042.5" xlink:href="#s83:montserrat-extralight:637" /><use x="15141.5" y="2042.5" xlink:href="#s83:montserrat-extralight:457" /><use x="15730.5" y="2042.5" xlink:href="#s83:montserrat-extralight:566" /><use x="16378.5" y="2042.5" xlink:href="#s83:montserrat-extralight:442" /><use x="16937.5" y="2042.5" xlink:href="#s83:montserrat-extralight:457" /><use x="17526.5" y="2042.5" xlink:href="#s83:montserrat-extralight:3" /><use x="17813.5" y="2042.5" xlink:href="#s83:montserrat-extralight:520" /><use x="18063.5" y="2042.5" xlink:href="#s83:montserrat-extralight:624" /><use x="18500.5" y="2042.5" xlink:href="#s83:montserrat-extralight:3" /><use x="18787.5" y="2042.5" xlink:href="#s83:montserrat-extralight:387" /><use x="19354.5" y="2042.5" xlink:href="#s83:montserrat-extralight:3" /><use x="19641.5" y="2042.5" xlink:href="#s83:montserrat-extralight:564" /><use x="20686.5" y="2042.5" xlink:href="#s83:montserrat-extralight:688" /><use x="21159.5" y="2042.5" xlink:href="#s83:montserrat-extralight:637" /><use x="21531.5" y="2042.5" xlink:href="#s83:montserrat-extralight:515" /><use x="22185.5" y="2042.5" xlink:href="#s83:montserrat-extralight:1245" /></g><g id="line-2"><use x="7177.5" y="3242.5" xlink:href="#s83:montserrat-extralight:121" /><use x="7729.5" y="3242.5" xlink:href="#s83:montserrat-extralight:577" /><use x="8339.5" y="3242.5" xlink:href="#s83:montserrat-extralight:616" /><use x="8689.5" y="3242.5" xlink:href="#s83:montserrat-extralight:3" /><use x="8976.5" y="3242.5" xlink:href="#s83:montserrat-extralight:624" /><use x="9413.5" y="3242.5" xlink:href="#s83:montserrat-extralight:442" /><use x="9972.5" y="3242.5" xlink:href="#s83:montserrat-extralight:520" /><use x="10222.5" y="3242.5" xlink:href="#s83:montserrat-extralight:457" /><use x="10811.5" y="3242.5" xlink:href="#s83:montserrat-extralight:566" /><use x="11459.5" y="3242.5" xlink:href="#s83:montserrat-extralight:442" /><use x="12018.5" y="3242.5" xlink:href="#s83:montserrat-extralight:457" /><use x="12607.5" y="3242.5" xlink:href="#s83:montserrat-extralight:1239" /><use x="12787.5" y="3242.5" xlink:href="#s83:montserrat-extralight:3" /><use x="13074.5" y="3242.5" xlink:href="#s83:montserrat-extralight:564" /><use x="14119.5" y="3242.5" xlink:href="#s83:montserrat-extralight:653" /><use x="14760.5" y="3242.5" xlink:href="#s83:montserrat-extralight:624" /><use x="15197.5" y="3242.5" xlink:href="#s83:montserrat-extralight:520" /><use x="15447.5" y="3242.5" xlink:href="#s83:montserrat-extralight:442" /><use x="16006.5" y="3242.5" xlink:href="#s83:montserrat-extralight:1239" /><use x="16186.5" y="3242.5" xlink:href="#s83:montserrat-extralight:3" /><use x="16473.5" y="3242.5" xlink:href="#s83:montserrat-extralight:624" /><use x="16910.5" y="3242.5" xlink:href="#s83:montserrat-extralight:613" /><use x="17581.5" y="3242.5" xlink:href="#s83:montserrat-extralight:577" /><use x="18191.5" y="3242.5" xlink:href="#s83:montserrat-extralight:616" /><use x="18541.5" y="3242.5" xlink:href="#s83:montserrat-extralight:637" /><use x="18913.5" y="3242.5" xlink:href="#s83:montserrat-extralight:1239" /><use x="19093.5" y="3242.5" xlink:href="#s83:montserrat-extralight:3" /><use x="19380.5" y="3242.5" xlink:href="#s83:montserrat-extralight:457" /><use x="19969.5" y="3242.5" xlink:href="#s83:montserrat-extralight:637" /><use x="20341.5" y="3242.5" xlink:href="#s83:montserrat-extralight:442" /><use x="20900.5" y="3242.5" xlink:href="#s83:montserrat-extralight:1239" /></g></svg>