<svg xmlns="http://www.w3.org/2000/svg" xmlns:xlink="http://www.w3.org/1999/xlink" width="735" height="84" viewBox="0 0 30629 3493.5"><defs><path id="s78:montserrat-blackitalic:187" d="M722-701L685-518L485-518L381 0L149 0L253-518L54-518L91-701L722-701Z"/><path id="s78:montserrat-blackitalic:461" d="M488-555Q541-555 581-532Q621-509 643.50-468Q666-427 666-375Q666-353 661-325L596 0L371 0L429-291Q431-305 431-312Q431-338 417.50-352.50Q404-367 380-367Q348-367 320.50-338.50Q293-310 285-267L232 0L7 0L154-742L379-742L327-479Q394-555 488-555Z"/><path id="s78:montserrat-blackitalic:429" d="M324-554Q410-554 474-522.50Q538-491 572.50-433.50Q607-376 607-301Q607-264 598-223L236-223Q247-157 322-157Q379-157 432-198L548-84Q451 7 314 7Q223 7 155.50-23Q88-53 51.50-109Q15-165 15-239Q15-329 54.50-401Q94-473 164.50-513.50Q235-554 324-554M389-327Q394-340 394-350Q394-372 379-387Q364-402 340-402Q314-402 290.50-381.50Q267-361 252-327L389-327Z"/><path id="s78:montserrat-blackitalic:3" d=""/><path id="s78:montserrat-blackitalic:47" d="M693-525L332-525L314-439L643-439L608-263L279-263L261-176L632-176L597 0L-5 0L135-701L728-701L693-525Z"/><path id="s78:montserrat-blackitalic:579" d="M203 8Q150 8 110-15Q70-38 47.50-79Q25-120 25-172Q25-194 30-222L95-547L320-547L262-256Q260-242 260-235Q260-209 273.50-194.50Q287-180 311-180Q343-180 370.50-208.50Q398-237 406-280L459-547L684-547L576 0L351 0L364-68Q297 8 203 8Z"/><path id="s78:montserrat-blackitalic:550" d="M321-476Q393-557 497-557L471-355Q451-358 434-358Q373-358 329.50-328.50Q286-299 277-252L276-252L226 0L1 0L110-547L335-547L321-476Z"/><path id="s78:montserrat-blackitalic:512" d="M356-555Q443-555 506.50-524Q570-493 604-436Q638-379 638-302Q638-210 595.50-139.50Q553-69 476.50-30.50Q400 8 300 8Q213 8 149.50-23.50Q86-55 51.50-112Q17-169 17-246Q17-338 59.50-408Q102-478 179-516.50Q256-555 356-555M338-377Q297-377 271-343.50Q245-310 245-257Q245-215 264-190Q283-165 317-165Q358-165 384-198.50Q410-232 410-285Q410-327 391-352Q372-377 338-377Z"/><path id="s78:montserrat-blackitalic:547" d="M479-555Q538-555 584-525Q630-495 655.50-441Q681-387 681-318Q681-228 643.50-153.50Q606-79 541.50-35.50Q477 8 399 8Q347 8 307.50-12.50Q268-33 245-72L192 194L-33 194L115-547L340-547L329-493Q397-555 479-555M387-387Q360-387 336.50-369.50Q313-352 299.50-322.50Q286-293 286-259Q286-221 305-198.50Q324-176 356-176Q397-176 425.50-213.50Q454-251 454-303Q454-343 436.50-365Q419-387 387-387Z"/><path id="s78:montserrat-blackitalic:387" d="M216 8Q157 8 111-22Q65-52 39.50-106Q14-160 14-229Q14-319 51.50-393.50Q89-468 153.50-511.50Q218-555 296-555Q348-555 387.50-534.50Q427-514 450-475L464-547L689-547L580 0L355 0L366-54Q298 8 216 8M308-160Q335-160 358.50-177.50Q382-195 395.50-224.50Q409-254 409-288Q409-326 390-348.50Q371-371 339-371Q298-371 269.50-333.50Q241-296 241-244Q241-204 258.50-182Q276-160 308-160Z"/><path id="s78:montserrat-blackitalic:501" d="M483-555Q536-555 576-532Q616-509 638.50-468Q661-427 661-375Q661-353 656-325L591 0L366 0L424-291Q426-305 426-312Q426-338 412.50-352.50Q399-367 375-367Q343-367 315.50-338.50Q288-310 280-267L227 0L2 0L110-547L335-547L322-479Q389-555 483-555Z"/><path id="s78:montserrat-blackitalic:490" d="M379-742L231 0L6 0L154-742L379-742Z"/><path id="s78:montserrat-blackitalic:454" d="M229 204Q149 204 81 182Q13 160-34 128L57-13Q89 8 133 19Q177 30 218 30Q268 30 301 5.50Q334-19 341-60L344-78Q281-32 206-32Q151-32 108-59Q65-86 41-134.50Q17-183 17-245Q17-331 52.50-402Q88-473 148.50-514Q209-555 282-555Q330-555 366-537Q402-519 424-484L437-547L662-547L560-36Q539 76 448.50 140Q358 204 229 204M299-200Q334-200 359.50-230Q385-260 385-301Q385-333 369-352Q353-371 327-371Q293-371 268.50-338.50Q244-306 244-260Q244-231 258.50-215.50Q273-200 299-200Z"/><path id="s78:montserrat-blackitalic:558" d="M276 9Q192 9 114-19Q36-47-23-98L67-226Q118-186 168-164Q218-142 259-142Q296-142 296-164Q296-173 282.50-179.50Q269-186 235-199Q184-218 148.50-236Q113-254 86-286.50Q59-319 59-366Q59-421 88-464Q117-507 169.50-531Q222-555 290-555Q362-555 435.50-529.50Q509-504 574-457L478-331Q425-366 378.50-386Q332-406 301-406Q287-406 278-400Q269-394 269-384Q269-373 284.50-365Q300-357 337-342Q388-322 423-304Q458-286 484-254.50Q510-223 510-176Q510-122 480.50-80Q451-38 398-14.50Q345 9 276 9Z"/><path id="s78:montserrat-blackitalic:499" d="M847-555Q900-555 940-532Q980-509 1002.50-468Q1025-427 1025-375Q1025-353 1020-325L955 0L730 0L788-291Q790-305 790-312Q790-338 776.50-352.50Q763-367 739-367Q709-367 683.50-342.50Q658-318 647-280L591 0L366 0L424-291Q426-305 426-312Q426-338 412.50-352.50Q399-367 375-367Q343-367 315.50-338.50Q288-310 280-267L227 0L2 0L110-547L335-547L322-479Q389-555 483-555Q544-555 588.50-523Q633-491 651-438Q737-555 847-555Z"/><path id="s78:montserrat-blackitalic:414" d="M480-555Q539-555 585-525Q631-495 656.50-441Q682-387 682-318Q682-228 644.50-153.50Q607-79 542.50-35.50Q478 8 400 8Q348 8 308.50-12.50Q269-33 246-72L232 0L7 0L154-742L379-742L330-493Q398-555 480-555M388-387Q361-387 337.50-369.50Q314-352 300.50-322.50Q287-293 287-259Q287-221 306-198.50Q325-176 357-176Q398-176 426.50-213.50Q455-251 455-303Q455-343 437.50-365Q420-387 388-387Z"/><path id="s78:montserrat-blackitalic:453" d="M443-578Q417-578 396-561.50Q375-545 370-523L369-517L474-517L446-375L340-375L265 0L41 0L116-375L41-375L69-517L144-517L156-575Q173-659 238.50-705.50Q304-752 402-752Q473-752 540-729L487-569Q475-573 463-575.50Q451-578 443-578Z"/><path id="s78:montserrat-blackitalic:571" d="M293-201Q291-189 291-186Q291-162 317-164Q339-164 381-181L401-20Q372-5 329 2.50Q286 10 244 10Q160 10 111-32.50Q62-75 62-144Q62-166 66-185L104-375L29-375L57-517L132-517L163-670L387-670L356-517L484-517L456-375L328-375L293-201Z"/><path id="s78:montserrat-blackitalic:466" d="M335-547L226 0L1 0L110-547L335-547M276-817Q319-817 344.50-791.50Q370-766 370-724Q370-686 351.50-655Q333-624 301-606.50Q269-589 231-589Q188-589 162.50-614.50Q137-640 137-682Q137-720 155.50-751Q174-782 206-799.50Q238-817 276-817Z"/><path id="s78:montserrat-blackitalic:609" d="M687-547L344 46Q295 130 232 167Q169 204 83 204Q27 204-17 187Q-61 170-102 135L11-2Q25 13 39 18.50Q53 24 71 24Q108 24 141-5L154-17L35-547L262-547L306-235L459-547L687-547Z"/><path id="s78:montserrat-blackitalic:1278" d="M108-197Q151-197 176.50-171.50Q202-146 202-105Q202-56 170.50-24Q139 8 90 8Q48 8 22.50-17.50Q-3-43-3-84Q-3-135 28.50-166Q60-197 108-197Z"/><path id="s78:montserrat-blackitalic:608" d="M319-547L354-419L456-547L707-547L481-281L604 0L350 0L308-142L193 0L-60 0L180-280L66-547L319-547Z"/><path id="s78:montserrat-blackitalic:415" d="M277 8Q197 8 138-22.50Q79-53 47.50-109.50Q16-166 16-242Q16-334 56-405.50Q96-477 168.50-516Q241-555 335-555Q424-555 488-513.50Q552-472 578-397L392-321Q375-373 327-373Q290-373 267-341Q244-309 244-257Q244-217 260.50-193.50Q277-170 307-170Q357-170 380-229L553-145Q516-72 443.50-32Q371 8 277 8Z"/><path id="s78:montserrat-blackitalic:70" d="M664-525L332-525L308-404L619-404L584-228L273-228L227 0L-5 0L135-701L699-701L664-525Z"/><path id="s78:montserrat-blackitalic:1273" d="M98-197Q139-197 165-172.50Q191-148 191-104Q191-63 157-16L48 130L-56 130L17-17Q-15-43-15-84Q-15-133 17.50-165Q50-197 98-197Z"/></defs><g id="line-0"><use x="0" y="842.5" xlink:href="#s78:montserrat-blackitalic:187"/><use x="642" y="842.5" xlink:href="#s78:montserrat-blackitalic:461"/><use x="1333" y="842.5" xlink:href="#s78:montserrat-blackitalic:429"/><use x="1956" y="842.5" xlink:href="#s78:montserrat-blackitalic:3"/><use x="2156" y="842.5" xlink:href="#s78:montserrat-blackitalic:47"/><use x="2846" y="842.5" xlink:href="#s78:montserrat-blackitalic:579"/><use x="3532" y="842.5" xlink:href="#s78:montserrat-blackitalic:550"/><use x="3997" y="842.5" xlink:href="#s78:montserrat-blackitalic:512"/><use x="4651" y="842.5" xlink:href="#s78:montserrat-blackitalic:547"/><use x="5346" y="842.5" xlink:href="#s78:montserrat-blackitalic:429"/><use x="5969" y="842.5" xlink:href="#s78:montserrat-blackitalic:387"/><use x="6659" y="842.5" xlink:href="#s78:montserrat-blackitalic:501"/><use x="7345" y="842.5" xlink:href="#s78:montserrat-blackitalic:3"/><use x="7545" y="842.5" xlink:href="#s78:montserrat-blackitalic:490"/><use x="7891" y="842.5" xlink:href="#s78:montserrat-blackitalic:387"/><use x="8581" y="842.5" xlink:href="#s78:montserrat-blackitalic:501"/><use x="9267" y="842.5" xlink:href="#s78:montserrat-blackitalic:454"/><use x="9927" y="842.5" xlink:href="#s78:montserrat-blackitalic:579"/><use x="10613" y="842.5" xlink:href="#s78:montserrat-blackitalic:387"/><use x="11303" y="842.5" xlink:href="#s78:montserrat-blackitalic:454"/><use x="11963" y="842.5" xlink:href="#s78:montserrat-blackitalic:429"/><use x="12586" y="842.5" xlink:href="#s78:montserrat-blackitalic:558"/><use x="13142" y="842.5" xlink:href="#s78:montserrat-blackitalic:3"/><use x="13342" y="842.5" xlink:href="#s78:montserrat-blackitalic:387"/><use x="14032" y="842.5" xlink:href="#s78:montserrat-blackitalic:550"/><use x="14497" y="842.5" xlink:href="#s78:montserrat-blackitalic:429"/><use x="15120" y="842.5" xlink:href="#s78:montserrat-blackitalic:3"/><use x="15320" y="842.5" xlink:href="#s78:montserrat-blackitalic:499"/><use x="16370" y="842.5" xlink:href="#s78:montserrat-blackitalic:429"/><use x="16993" y="842.5" xlink:href="#s78:montserrat-blackitalic:499"/><use x="18043" y="842.5" xlink:href="#s78:montserrat-blackitalic:414"/><use x="18739" y="842.5" xlink:href="#s78:montserrat-blackitalic:429"/><use x="19362" y="842.5" xlink:href="#s78:montserrat-blackitalic:550"/><use x="19827" y="842.5" xlink:href="#s78:montserrat-blackitalic:558"/><use x="20383" y="842.5" xlink:href="#s78:montserrat-blackitalic:3"/><use x="20583" y="842.5" xlink:href="#s78:montserrat-blackitalic:512"/><use x="21237" y="842.5" xlink:href="#s78:montserrat-blackitalic:453"/><use x="21660" y="842.5" xlink:href="#s78:montserrat-blackitalic:3"/><use x="21860" y="842.5" xlink:href="#s78:montserrat-blackitalic:571"/><use x="22327" y="842.5" xlink:href="#s78:montserrat-blackitalic:461"/><use x="23018" y="842.5" xlink:href="#s78:montserrat-blackitalic:429"/><use x="23641" y="842.5" xlink:href="#s78:montserrat-blackitalic:3"/><use x="23841" y="842.5" xlink:href="#s78:montserrat-blackitalic:558"/><use x="24397" y="842.5" xlink:href="#s78:montserrat-blackitalic:387"/><use x="25087" y="842.5" xlink:href="#s78:montserrat-blackitalic:499"/><use x="26137" y="842.5" xlink:href="#s78:montserrat-blackitalic:429"/><use x="26760" y="842.5" xlink:href="#s78:montserrat-blackitalic:3"/><use x="26960" y="842.5" xlink:href="#s78:montserrat-blackitalic:453"/><use x="27383" y="842.5" xlink:href="#s78:montserrat-blackitalic:387"/><use x="28073" y="842.5" xlink:href="#s78:montserrat-blackitalic:499"/><use x="29123" y="842.5" xlink:href="#s78:montserrat-blackitalic:466"/><use x="29459" y="842.5" xlink:href="#s78:montserrat-blackitalic:490"/><use x="29805" y="842.5" xlink:href="#s78:montserrat-blackitalic:609"/><use x="30427" y="842.5" xlink:href="#s78:montserrat-blackitalic:1278"/></g><g id="line-1"><use x="6152" y="2042.5" xlink:href="#s78:montserrat-blackitalic:187"/><use x="6794" y="2042.5" xlink:href="#s78:montserrat-blackitalic:461"/><use x="7485" y="2042.5" xlink:href="#s78:montserrat-blackitalic:429"/><use x="8108" y="2042.5" xlink:href="#s78:montserrat-blackitalic:466"/><use x="8444" y="2042.5" xlink:href="#s78:montserrat-blackitalic:550"/><use x="8909" y="2042.5" xlink:href="#s78:montserrat-blackitalic:3"/><use x="9109" y="2042.5" xlink:href="#s78:montserrat-blackitalic:558"/><use x="9665" y="2042.5" xlink:href="#s78:montserrat-blackitalic:429"/><use x="10288" y="2042.5" xlink:href="#s78:montserrat-blackitalic:547"/><use x="10983" y="2042.5" xlink:href="#s78:montserrat-blackitalic:387"/><use x="11673" y="2042.5" xlink:href="#s78:montserrat-blackitalic:550"/><use x="12138" y="2042.5" xlink:href="#s78:montserrat-blackitalic:387"/><use x="12828" y="2042.5" xlink:href="#s78:montserrat-blackitalic:571"/><use x="13295" y="2042.5" xlink:href="#s78:montserrat-blackitalic:429"/><use x="13918" y="2042.5" xlink:href="#s78:montserrat-blackitalic:3"/><use x="14118" y="2042.5" xlink:href="#s78:montserrat-blackitalic:429"/><use x="14741" y="2042.5" xlink:href="#s78:montserrat-blackitalic:608"/><use x="15395" y="2042.5" xlink:href="#s78:montserrat-blackitalic:466"/><use x="15731" y="2042.5" xlink:href="#s78:montserrat-blackitalic:558"/><use x="16287" y="2042.5" xlink:href="#s78:montserrat-blackitalic:571"/><use x="16754" y="2042.5" xlink:href="#s78:montserrat-blackitalic:429"/><use x="17377" y="2042.5" xlink:href="#s78:montserrat-blackitalic:501"/><use x="18063" y="2042.5" xlink:href="#s78:montserrat-blackitalic:415"/><use x="18640" y="2042.5" xlink:href="#s78:montserrat-blackitalic:429"/><use x="19263" y="2042.5" xlink:href="#s78:montserrat-blackitalic:3"/><use x="19463" y="2042.5" xlink:href="#s78:montserrat-blackitalic:466"/><use x="19799" y="2042.5" xlink:href="#s78:montserrat-blackitalic:558"/><use x="20355" y="2042.5" xlink:href="#s78:montserrat-blackitalic:3"/><use x="20555" y="2042.5" xlink:href="#s78:montserrat-blackitalic:387"/><use x="21245" y="2042.5" xlink:href="#s78:montserrat-blackitalic:3"/><use x="21445" y="2042.5" xlink:href="#s78:montserrat-blackitalic:499"/><use x="22495" y="2042.5" xlink:href="#s78:montserrat-blackitalic:609"/><use x="23117" y="2042.5" xlink:href="#s78:montserrat-blackitalic:571"/><use x="23584" y="2042.5" xlink:href="#s78:montserrat-blackitalic:461"/><use x="24275" y="2042.5" xlink:href="#s78:montserrat-blackitalic:1278"/></g><g id="line-2"><use x="7715" y="3242.5" xlink:href="#s78:montserrat-blackitalic:70"/><use x="8346" y="3242.5" xlink:href="#s78:montserrat-blackitalic:512"/><use x="9000" y="3242.5" xlink:href="#s78:montserrat-blackitalic:550"/><use x="9465" y="3242.5" xlink:href="#s78:montserrat-blackitalic:3"/><use x="9665" y="3242.5" xlink:href="#s78:montserrat-blackitalic:558"/><use x="10221" y="3242.5" xlink:href="#s78:montserrat-blackitalic:415"/><use x="10798" y="3242.5" xlink:href="#s78:montserrat-blackitalic:466"/><use x="11134" y="3242.5" xlink:href="#s78:montserrat-blackitalic:429"/><use x="11757" y="3242.5" xlink:href="#s78:montserrat-blackitalic:501"/><use x="12443" y="3242.5" xlink:href="#s78:montserrat-blackitalic:415"/><use x="13020" y="3242.5" xlink:href="#s78:montserrat-blackitalic:429"/><use x="13643" y="3242.5" xlink:href="#s78:montserrat-blackitalic:1273"/><use x="13900" y="3242.5" xlink:href="#s78:montserrat-blackitalic:3"/><use x="14100" y="3242.5" xlink:href="#s78:montserrat-blackitalic:499"/><use x="15150" y="3242.5" xlink:href="#s78:montserrat-blackitalic:579"/><use x="15836" y="3242.5" xlink:href="#s78:montserrat-blackitalic:558"/><use x="16392" y="3242.5" xlink:href="#s78:montserrat-blackitalic:466"/><use x="16728" y="3242.5" xlink:href="#s78:montserrat-blackitalic:415"/><use x="17305" y="3242.5" xlink:href="#s78:montserrat-blackitalic:1273"/><use x="17562" y="3242.5" xlink:href="#s78:montserrat-blackitalic:3"/><use x="17762" y="3242.5" xlink:href="#s78:montserrat-blackitalic:558"/><use x="18318" y="3242.5" xlink:href="#s78:montserrat-blackitalic:547"/><use x="19013" y="3242.5" xlink:href="#s78:montserrat-blackitalic:512"/><use x="19667" y="3242.5" xlink:href="#s78:montserrat-blackitalic:550"/><use x="20132" y="3242.5" xlink:href="#s78:montserrat-blackitalic:571"/><use x="20599" y="3242.5" xlink:href="#s78:montserrat-blackitalic:1273"/><use x="20856" y="3242.5" xlink:href="#s78:montserrat-blackitalic:3"/><use x="21056" y="3242.5" xlink:href="#s78:montserrat-blackitalic:429"/><use x="21679" y="3242.5" xlink:href="#s78:montserrat-blackitalic:571"/><use x="22146" y="3242.5" xlink:href="#s78:montserrat-blackitalic:415"/><use x="22723" y="3242.5" xlink:href="#s78:montserrat-blackitalic:1273"/></g></svg>