<svg xmlns="http://www.w3.org/2000/svg" xmlns:xlink="http://www.w3.org/1999/xlink" width="673" height="84" viewBox="0 0 28040 3493.5" ><defs><path id="s93:montserrat-thin:283" d="M13-699L513-699L513-679L273-679L273 0L253 0L253-679L13-679L13-699Z"/><path id="s93:montserrat-thin:515" d="M354-517Q450-517 503.50-463Q557-409 557-313L557 0L537 0L537-313Q537-400 488.50-448.50Q440-497 354-497Q251-495 193-430.50Q135-366 135-253L135 0L115 0L115-742L135-742L135-368Q160-438 216-477Q272-516 354-517Z"/><path id="s93:montserrat-thin:457" d="M301-20Q357-20 404.50-39.50Q452-59 484-95L498-81Q462-42 411-21Q360 0 301 0Q230 0 173.50-33.50Q117-67 84.50-126Q52-185 52-259Q52-333 84.50-392Q117-451 173.50-484Q230-517 301-517Q372-517 426.50-484Q481-451 511-392Q541-333 541-259L72-259Q72-190 101.50-135.50Q131-81 183-50.50Q235-20 301-20M301-497Q238-497 187.50-469.50Q137-442 107-392.50Q77-343 73-279L521-279Q514-377 455-437Q396-497 301-497Z"/><path id="s93:montserrat-thin:3" d=""/><path id="s93:montserrat-thin:75" d="M128-699L565-699L565-679L148-679L148-370L519-370L519-350L148-350L148-20L579-20L579 0L128 0L128-699Z"/><path id="s93:montserrat-thin:653" d="M527-517L527 0L507 0L507-151Q483-79 428-40Q373-1 292 0Q198 0 145-54Q92-108 92-204L92-517L112-517L112-204Q112-117 159.50-68.50Q207-20 292-20Q393-22 450-86.50Q507-151 507-264L507-517L527-517Z"/><path id="s93:montserrat-thin:616" d="M130-376Q153-442 204-479Q255-516 328-517L328-497Q240-495 188.50-438.50Q137-382 130-283L130 0L110 0L110-517L130-517L130-376Z"/><path id="s93:montserrat-thin:577" d="M303-517Q374-517 431.50-484Q489-451 521.50-392Q554-333 554-259Q554-185 521.50-126Q489-67 431.50-33.50Q374 0 303 0Q232 0 174.50-33.50Q117-67 84.50-126Q52-185 52-259Q52-333 84.50-392Q117-451 174.50-484Q232-517 303-517M303-497Q237-497 184-466.50Q131-436 101.50-382Q72-328 72-259Q72-190 101.50-135.50Q131-81 184-50.50Q237-20 303-20Q369-20 422-50.50Q475-81 504.50-135.50Q534-190 534-259Q534-328 504.50-382Q475-436 422-466.50Q369-497 303-497Z"/><path id="s93:montserrat-thin:613" d="M366-517Q438-517 495-483.50Q552-450 584.50-391Q617-332 617-258Q617-184 584.50-125.50Q552-67 495-33.50Q438 0 366 0Q286 0 224.50-41Q163-82 135-152L135 194L115 194L115-517L135-517L135-365Q163-435 224.50-476Q286-517 366-517M366-20Q432-20 484.50-50.50Q537-81 567-135.50Q597-190 597-258Q597-326 567-380.50Q537-435 484.50-466Q432-497 366-497Q300-497 247.50-466Q195-435 165-380.50Q135-326 135-258Q135-190 165-135.50Q195-81 247.50-50.50Q300-20 366-20Z"/><path id="s93:montserrat-thin:387" d="M449 0L448-117Q414-58 358.50-29Q303 0 231 0Q157 0 110-42Q63-84 63-149Q63-212 114.50-247Q166-282 255-282L447-282L447-345Q446-418 404.50-457.50Q363-497 283-497Q234-497 190.50-478.50Q147-460 102-425L90-441Q186-517 283-517Q371-517 418.50-471Q466-425 467-345L469 0L449 0M232-20Q310-20 364-54Q418-88 448-162L447-262L255-262Q173-262 128-232.50Q83-203 83-149Q83-91 123.50-55.50Q164-20 232-20Z"/><path id="s93:montserrat-thin:566" d="M348-517Q444-517 497.50-463Q551-409 551-313L551 0L531 0L531-313Q531-400 482.50-448.50Q434-497 348-497Q252-495 195-438Q138-381 130-281L130 0L110 0L110-517L130-517L130-371Q155-440 211-478Q267-516 348-517Z"/><path id="s93:montserrat-thin:546" d="M115-742L135-742L135 0L115 0L115-742Z"/><path id="s93:montserrat-thin:508" d="M536-517L536-58Q536 18 505.50 75Q475 132 419.50 163Q364 194 290 194Q229 194 178.50 171.50Q128 149 82 104L96 90Q138 132 185.50 153Q233 174 290 174Q358 174 409 145.50Q460 117 488 64.50Q516 12 516-58L516-166Q489-98 429.50-58.50Q370-19 293-19Q224-19 169-51Q114-83 83-139.50Q52-196 52-267Q52-339 83-396Q114-453 169-485Q224-517 293-517Q370-517 429.50-477Q489-437 516-369L516-517L536-517M293-38Q357-38 407.50-67.50Q458-97 487-149.50Q516-202 516-267Q516-333 487-385.50Q458-438 407.50-468Q357-498 293-498Q229-498 178.50-468Q128-438 99.50-385.50Q71-333 71-267Q71-202 99.50-149.50Q128-97 178.50-67.50Q229-38 293-38Z"/><path id="s93:montserrat-thin:624" d="M350-463Q297-497 223-497Q159-497 118.50-471Q78-445 78-395Q78-360 97.50-338Q117-316 145.50-304Q174-292 225-276Q279-260 311.50-245.50Q344-231 366.50-204Q389-177 389-134Q389-68 338.50-34Q288 0 215 0Q161 0 112.50-19Q64-38 30-72L43-87Q76-55 120-37.50Q164-20 215-20Q281-20 325-49Q369-78 369-133Q369-168 349-190.50Q329-213 299.50-226Q270-239 220-254Q167-271 134.50-285.50Q102-300 80-326Q58-352 58-393Q58-454 104.50-485.50Q151-517 222-517Q296-517 360-480L350-463Z"/><path id="s93:montserrat-thin:564" d="M755-517Q849-517 901-463Q953-409 953-313L953 0L933 0L933-313Q933-400 886-448.50Q839-497 755-497Q654-495 598-430.50Q542-366 542-253L542 0L522 0L522-313Q522-400 474.50-448.50Q427-497 343-497Q243-495 186.50-430.50Q130-366 130-253L130 0L110 0L110-517L130-517L130-369Q154-439 209-477.50Q264-516 344-517Q425-517 476-475.50Q527-434 539-359Q562-434 617.50-475Q673-516 755-517Z"/><path id="s93:montserrat-thin:441" d="M366-517Q438-517 495-483.50Q552-450 584.50-391Q617-332 617-258Q617-184 584.50-125.50Q552-67 495-33.50Q438 0 366 0Q286 0 224.50-41Q163-82 135-152L135 0L115 0L115-742L135-742L135-365Q163-435 224.50-476Q286-517 366-517M366-20Q432-20 484.50-50.50Q537-81 567-135.50Q597-190 597-258Q597-326 567-380.50Q537-435 484.50-466Q432-497 366-497Q300-497 247.50-466Q195-435 165-380.50Q135-326 135-258Q135-190 165-135.50Q195-81 247.50-50.50Q300-20 366-20Z"/><path id="s93:montserrat-thin:505" d="M263-732Q209-732 173-691.50Q137-651 137-590L137-507L305-507L305-487L137-487L137 0L117 0L117-487L52-487L52-507L117-507L117-590Q117-634 136-671.50Q155-709 187-730.50Q219-752 258-752Q304-752 346-728L335-711Q299-732 263-732Z"/><path id="s93:montserrat-thin:637" d="M338-37Q288 0 234 0Q181 0 153.50-36Q126-72 126-142L126-487L50-487L50-507L126-507L126-630L146-630L146-507L328-507L328-487L146-487L146-142Q146-82 168.50-51Q191-20 234-20Q284-20 326-53L338-37Z"/><path id="s93:montserrat-thin:520" d="M110-517L130-517L130 0L110 0L110-517M120-692Q130-692 138-684.50Q146-677 146-666Q146-656 138-648Q130-640 120-640Q109-640 101.50-648Q94-656 94-666Q94-677 101.50-684.50Q109-692 120-692Z"/><path id="s93:montserrat-thin:688" d="M214 75Q190 133 155 163.50Q120 194 79 194Q24 194-13 168L-4 151Q30 174 77 174Q115 174 146.50 146.50Q178 119 198 68L224 2L10-517L33-517L234-23L432-517L456-517L214 75Z"/><path id="s93:montserrat-thin:1245" d="M85-45Q96-45 103.50-37.50Q111-30 111-19Q111-9 103.50-1Q96 7 85 7Q75 7 67-1Q59-9 59-19Q59-30 67-37.50Q75-45 85-45Z"/><path id="s93:montserrat-thin:687" d="M46-517L70-517L243-284L416-517L440-517L255-268L454 0L429 0L242-251L56 0L31 0L230-268L46-517Z"/><path id="s93:montserrat-thin:442" d="M466-434Q397-497 303-497Q237-497 184-466.50Q131-436 101-382Q71-328 71-259Q71-190 101-135.50Q131-81 184-50.50Q237-20 303-20Q356-20 400.50-39.50Q445-59 477-95L490-81Q456-42 407.50-21Q359 0 303 0Q232 0 174.50-33.50Q117-67 84.50-126Q52-185 52-259Q52-333 84.50-392Q117-451 174.50-484Q232-517 303-517Q354-517 399.50-499Q445-481 479-448L466-434Z"/><path id="s93:montserrat-thin:121" d="M128-699L535-699L535-679L148-679L148-343L489-343L489-323L148-323L148 0L128 0L128-699Z"/><path id="s93:montserrat-thin:1239" d="M87-45Q98-45 105.50-37.50Q113-30 113-19Q113-11 106 7L63 120L43 120L81 6Q73 4 67-3Q61-10 61-19Q61-30 69-37.50Q77-45 87-45Z"/></defs><g id="line-0"><use x="0" y="842.5" xlink:href="#s93:montserrat-thin:283" /><use x="526" y="842.5" xlink:href="#s93:montserrat-thin:515" /><use x="1176" y="842.5" xlink:href="#s93:montserrat-thin:457" /><use x="1765" y="842.5" xlink:href="#s93:montserrat-thin:3" /><use x="2062" y="842.5" xlink:href="#s93:montserrat-thin:75" /><use x="2706" y="842.5" xlink:href="#s93:montserrat-thin:653" /><use x="3343" y="842.5" xlink:href="#s93:montserrat-thin:616" /><use x="3681" y="842.5" xlink:href="#s93:montserrat-thin:577" /><use x="4287" y="842.5" xlink:href="#s93:montserrat-thin:613" /><use x="4956" y="842.5" xlink:href="#s93:montserrat-thin:457" /><use x="5545" y="842.5" xlink:href="#s93:montserrat-thin:387" /><use x="6107" y="842.5" xlink:href="#s93:montserrat-thin:566" /><use x="6751" y="842.5" xlink:href="#s93:montserrat-thin:3" /><use x="7048" y="842.5" xlink:href="#s93:montserrat-thin:546" /><use x="7298" y="842.5" xlink:href="#s93:montserrat-thin:387" /><use x="7860" y="842.5" xlink:href="#s93:montserrat-thin:566" /><use x="8504" y="842.5" xlink:href="#s93:montserrat-thin:508" /><use x="9134" y="842.5" xlink:href="#s93:montserrat-thin:653" /><use x="9771" y="842.5" xlink:href="#s93:montserrat-thin:387" /><use x="10333" y="842.5" xlink:href="#s93:montserrat-thin:508" /><use x="10963" y="842.5" xlink:href="#s93:montserrat-thin:457" /><use x="11552" y="842.5" xlink:href="#s93:montserrat-thin:624" /><use x="11979" y="842.5" xlink:href="#s93:montserrat-thin:3" /><use x="12276" y="842.5" xlink:href="#s93:montserrat-thin:387" /><use x="12838" y="842.5" xlink:href="#s93:montserrat-thin:616" /><use x="13176" y="842.5" xlink:href="#s93:montserrat-thin:457" /><use x="13765" y="842.5" xlink:href="#s93:montserrat-thin:3" /><use x="14062" y="842.5" xlink:href="#s93:montserrat-thin:564" /><use x="15108" y="842.5" xlink:href="#s93:montserrat-thin:457" /><use x="15697" y="842.5" xlink:href="#s93:montserrat-thin:564" /><use x="16743" y="842.5" xlink:href="#s93:montserrat-thin:441" /><use x="17412" y="842.5" xlink:href="#s93:montserrat-thin:457" /><use x="18001" y="842.5" xlink:href="#s93:montserrat-thin:616" /><use x="18339" y="842.5" xlink:href="#s93:montserrat-thin:624" /><use x="18766" y="842.5" xlink:href="#s93:montserrat-thin:3" /><use x="19063" y="842.5" xlink:href="#s93:montserrat-thin:577" /><use x="19669" y="842.5" xlink:href="#s93:montserrat-thin:505" /><use x="19964" y="842.5" xlink:href="#s93:montserrat-thin:3" /><use x="20261" y="842.5" xlink:href="#s93:montserrat-thin:637" /><use x="20623" y="842.5" xlink:href="#s93:montserrat-thin:515" /><use x="21273" y="842.5" xlink:href="#s93:montserrat-thin:457" /><use x="21862" y="842.5" xlink:href="#s93:montserrat-thin:3" /><use x="22159" y="842.5" xlink:href="#s93:montserrat-thin:624" /><use x="22586" y="842.5" xlink:href="#s93:montserrat-thin:387" /><use x="23148" y="842.5" xlink:href="#s93:montserrat-thin:564" /><use x="24194" y="842.5" xlink:href="#s93:montserrat-thin:457" /><use x="24783" y="842.5" xlink:href="#s93:montserrat-thin:3" /><use x="25080" y="842.5" xlink:href="#s93:montserrat-thin:505" /><use x="25375" y="842.5" xlink:href="#s93:montserrat-thin:387" /><use x="25937" y="842.5" xlink:href="#s93:montserrat-thin:564" /><use x="26983" y="842.5" xlink:href="#s93:montserrat-thin:520" /><use x="27223" y="842.5" xlink:href="#s93:montserrat-thin:546" /><use x="27473" y="842.5" xlink:href="#s93:montserrat-thin:688" /><use x="27929" y="842.5" xlink:href="#s93:montserrat-thin:1245" /></g><g id="line-1"><use x="5887" y="2042.5" xlink:href="#s93:montserrat-thin:283" /><use x="6413" y="2042.5" xlink:href="#s93:montserrat-thin:515" /><use x="7063" y="2042.5" xlink:href="#s93:montserrat-thin:457" /><use x="7652" y="2042.5" xlink:href="#s93:montserrat-thin:520" /><use x="7892" y="2042.5" xlink:href="#s93:montserrat-thin:616" /><use x="8230" y="2042.5" xlink:href="#s93:montserrat-thin:3" /><use x="8527" y="2042.5" xlink:href="#s93:montserrat-thin:624" /><use x="8954" y="2042.5" xlink:href="#s93:montserrat-thin:457" /><use x="9543" y="2042.5" xlink:href="#s93:montserrat-thin:613" /><use x="10212" y="2042.5" xlink:href="#s93:montserrat-thin:387" /><use x="10774" y="2042.5" xlink:href="#s93:montserrat-thin:616" /><use x="11112" y="2042.5" xlink:href="#s93:montserrat-thin:387" /><use x="11674" y="2042.5" xlink:href="#s93:montserrat-thin:637" /><use x="12036" y="2042.5" xlink:href="#s93:montserrat-thin:457" /><use x="12625" y="2042.5" xlink:href="#s93:montserrat-thin:3" /><use x="12922" y="2042.5" xlink:href="#s93:montserrat-thin:457" /><use x="13511" y="2042.5" xlink:href="#s93:montserrat-thin:687" /><use x="14000" y="2042.5" xlink:href="#s93:montserrat-thin:520" /><use x="14240" y="2042.5" xlink:href="#s93:montserrat-thin:624" /><use x="14667" y="2042.5" xlink:href="#s93:montserrat-thin:637" /><use x="15029" y="2042.5" xlink:href="#s93:montserrat-thin:457" /><use x="15618" y="2042.5" xlink:href="#s93:montserrat-thin:566" /><use x="16262" y="2042.5" xlink:href="#s93:montserrat-thin:442" /><use x="16819" y="2042.5" xlink:href="#s93:montserrat-thin:457" /><use x="17408" y="2042.5" xlink:href="#s93:montserrat-thin:3" /><use x="17705" y="2042.5" xlink:href="#s93:montserrat-thin:520" /><use x="17945" y="2042.5" xlink:href="#s93:montserrat-thin:624" /><use x="18372" y="2042.5" xlink:href="#s93:montserrat-thin:3" /><use x="18669" y="2042.5" xlink:href="#s93:montserrat-thin:387" /><use x="19231" y="2042.5" xlink:href="#s93:montserrat-thin:3" /><use x="19528" y="2042.5" xlink:href="#s93:montserrat-thin:564" /><use x="20574" y="2042.5" xlink:href="#s93:montserrat-thin:688" /><use x="21030" y="2042.5" xlink:href="#s93:montserrat-thin:637" /><use x="21392" y="2042.5" xlink:href="#s93:montserrat-thin:515" /><use x="22042" y="2042.5" xlink:href="#s93:montserrat-thin:1245" /></g><g id="line-2"><use x="7160" y="3242.5" xlink:href="#s93:montserrat-thin:121" /><use x="7705" y="3242.5" xlink:href="#s93:montserrat-thin:577" /><use x="8311" y="3242.5" xlink:href="#s93:montserrat-thin:616" /><use x="8649" y="3242.5" xlink:href="#s93:montserrat-thin:3" /><use x="8946" y="3242.5" xlink:href="#s93:montserrat-thin:624" /><use x="9373" y="3242.5" xlink:href="#s93:montserrat-thin:442" /><use x="9930" y="3242.5" xlink:href="#s93:montserrat-thin:520" /><use x="10170" y="3242.5" xlink:href="#s93:montserrat-thin:457" /><use x="10759" y="3242.5" xlink:href="#s93:montserrat-thin:566" /><use x="11403" y="3242.5" xlink:href="#s93:montserrat-thin:442" /><use x="11960" y="3242.5" xlink:href="#s93:montserrat-thin:457" /><use x="12549" y="3242.5" xlink:href="#s93:montserrat-thin:1239" /><use x="12719" y="3242.5" xlink:href="#s93:montserrat-thin:3" /><use x="13016" y="3242.5" xlink:href="#s93:montserrat-thin:564" /><use x="14062" y="3242.5" xlink:href="#s93:montserrat-thin:653" /><use x="14699" y="3242.5" xlink:href="#s93:montserrat-thin:624" /><use x="15126" y="3242.5" xlink:href="#s93:montserrat-thin:520" /><use x="15366" y="3242.5" xlink:href="#s93:montserrat-thin:442" /><use x="15923" y="3242.5" xlink:href="#s93:montserrat-thin:1239" /><use x="16093" y="3242.5" xlink:href="#s93:montserrat-thin:3" /><use x="16390" y="3242.5" xlink:href="#s93:montserrat-thin:624" /><use x="16817" y="3242.5" xlink:href="#s93:montserrat-thin:613" /><use x="17486" y="3242.5" xlink:href="#s93:montserrat-thin:577" /><use x="18092" y="3242.5" xlink:href="#s93:montserrat-thin:616" /><use x="18430" y="3242.5" xlink:href="#s93:montserrat-thin:637" /><use x="18792" y="3242.5" xlink:href="#s93:montserrat-thin:1239" /><use x="18962" y="3242.5" xlink:href="#s93:montserrat-thin:3" /><use x="19259" y="3242.5" xlink:href="#s93:montserrat-thin:457" /><use x="19848" y="3242.5" xlink:href="#s93:montserrat-thin:637" /><use x="20210" y="3242.5" xlink:href="#s93:montserrat-thin:442" /><use x="20767" y="3242.5" xlink:href="#s93:montserrat-thin:1239" /></g></svg>