<svg xmlns="http://www.w3.org/2000/svg" xmlns:xlink="http://www.w3.org/1999/xlink" width="697" height="84" viewBox="0 0 29032 3493.5" ><defs><path id="s84:montserrat-extralightitalic:187" d="M613-699L606-658L369-658L237 0L196 0L328-658L92-658L100-699L613-699Z"/><path id="s84:montserrat-extralightitalic:461" d="M407-523Q491-523 537.50-482Q584-441 584-367Q584-342 578-313L516 0L475 0L536-309Q541-336 541-355Q541-415 503.50-448.50Q466-482 398-482Q306-480 239.50-424.50Q173-369 154-272L101 0L60 0L206-742L247-742L178-391Q215-454 274-487.50Q333-521 407-523Z"/><path id="s84:montserrat-extralightitalic:429" d="M90-249L90-236Q90-147 144-92Q198-37 286-37Q339-37 385-54.50Q431-72 465-105L487-76Q448-39 395-18.50Q342 2 283 2Q214 2 161-28Q108-58 78.50-112Q49-166 49-235Q49-316 86.50-381.50Q124-447 188.50-484.50Q253-522 331-522Q398-522 448-493.50Q498-465 524.50-413.50Q551-362 551-294Q551-272 548-249L90-249M330-483Q240-483 175.50-428.50Q111-374 94-286L514-286Q516-376 467-429.50Q418-483 330-483Z"/><path id="s84:montserrat-extralightitalic:3" d=""/><path id="s84:montserrat-extralightitalic:47" d="M651-658L242-658L185-379L550-379L542-337L177-337L117-42L540-42L532 0L68 0L208-699L659-699L651-658Z"/><path id="s84:montserrat-extralightitalic:579" d="M249 2Q165 2 118.50-39Q72-80 72-154Q72-180 78-208L140-521L181-521L120-212Q115-185 115-166Q115-106 152.50-72.50Q190-39 258-39Q350-41 416.50-96.50Q483-152 502-249L555-521L596-521L493 0L452 0L478-130Q441-67 382-33.50Q323 0 249 2Z"/><path id="s84:montserrat-extralightitalic:550" d="M172-391Q209-453 265-487Q321-521 391-522L387-479Q302-479 239.50-426.50Q177-374 150-282L94 0L53 0L157-521L198-521L172-391Z"/><path id="s84:montserrat-extralightitalic:512" d="M333-522Q402-522 454.50-492Q507-462 536.50-408Q566-354 566-286Q566-204 528.50-138.50Q491-73 426-36Q361 1 282 1Q214 1 161-29Q108-59 78.50-113Q49-167 49-236Q49-317 87-382.50Q125-448 190-485Q255-522 333-522M330-482Q263-482 208.50-451Q154-420 122.50-364Q91-308 91-238Q91-179 115.50-133.50Q140-88 184-63Q228-38 285-38Q352-38 407-69.50Q462-101 493.50-156.50Q525-212 525-283Q525-341 500.50-386Q476-431 432-456.50Q388-482 330-482Z"/><path id="s84:montserrat-extralightitalic:547" d="M402-524Q469-524 521-495Q573-466 602-413.50Q631-361 631-294Q631-212 593.50-144Q556-76 491-36.50Q426 3 349 3Q264 3 206-41Q148-85 131-160L60 194L19 194L162-521L203-521L179-406Q217-462 275.50-493Q334-524 402-524M392-485Q326-485 270.50-451Q215-417 182.50-359Q150-301 150-232Q150-175 175-130.50Q200-86 245-61.50Q290-37 348-37Q413-37 468.50-71Q524-105 556.50-163.50Q589-222 589-291Q589-348 564-392Q539-436 494.50-460.50Q450-485 392-485Z"/><path id="s84:montserrat-extralightitalic:387" d="M276 3Q209 3 157-26Q105-55 76-107.50Q47-160 47-227Q47-309 84.50-377Q122-445 187-484.50Q252-524 329-524Q413-524 471.50-479.50Q530-435 547-360L579-521L620-521L516 0L475 0L499-115Q461-59 402.50-28Q344 3 276 3M286-36Q352-36 407.50-70Q463-104 495.50-162Q528-220 528-289Q528-346 503-390.50Q478-435 433-459.50Q388-484 330-484Q265-484 209.50-450Q154-416 121.50-357.50Q89-299 89-230Q89-173 114-129Q139-85 183.50-60.50Q228-36 286-36Z"/><path id="s84:montserrat-extralightitalic:501" d="M401-523Q485-523 531.50-482Q578-441 578-367Q578-342 572-313L510 0L469 0L530-309Q535-336 535-355Q535-415 497.50-448.50Q460-482 392-482Q300-480 233.50-424.50Q167-369 148-272L95 0L54 0L157-521L198-521L172-391Q209-454 268-487.50Q327-521 401-523Z"/><path id="s84:montserrat-extralightitalic:490" d="M247-742L99 0L58 0L206-742L247-742Z"/><path id="s84:montserrat-extralightitalic:454" d="M223 194Q156 194 104 173Q52 152 6 108L29 79Q104 155 222 155Q314 155 374.50 108Q435 61 453-24L477-138Q440-85 385.50-56.50Q331-28 267-28Q204-28 155-55.50Q106-83 78.50-132Q51-181 51-244Q51-321 86.50-385Q122-449 183-486.50Q244-524 317-524Q396-524 451.50-483Q507-442 522-372L553-521L594-521L494-20Q474 82 403 138Q332 194 223 194M278-67Q340-67 392-98.50Q444-130 474-184Q504-238 504-302Q504-384 453-434Q402-484 319-484Q257-484 205.50-452.50Q154-421 123.50-366.50Q93-312 93-248Q93-167 144-117Q195-67 278-67Z"/><path id="s84:montserrat-extralightitalic:558" d="M207 9Q140 9 83-17Q26-43-7-87L17-117Q48-77 99-54Q150-31 208-31Q270-31 309.50-60Q349-89 349-138Q349-164 333-183Q317-202 293-215Q269-228 227-246Q179-267 151.50-282.50Q124-298 104-323.50Q84-349 84-385Q84-450 133-488.50Q182-527 257-527Q310-527 354.50-511Q399-495 432-468L409-436Q379-460 339-474Q299-488 254-488Q197-488 161-461.50Q125-435 125-389Q125-364 141-345.50Q157-327 180.50-314.50Q204-302 245-285Q292-266 321.50-249.50Q351-233 371.50-207Q392-181 392-144Q392-75 339.50-33.50Q287 8 207 9Z"/><path id="s84:montserrat-extralightitalic:499" d="M816-523Q900-523 946.50-482Q993-441 993-367Q993-342 987-313L925 0L884 0L945-309Q950-336 950-355Q950-415 913-448.50Q876-482 807-482Q719-481 655.50-430.50Q592-380 568-293L510 0L469 0L530-309Q535-336 535-355Q535-415 498-448.50Q461-482 392-482Q298-481 233-424Q168-367 148-272L95 0L54 0L157-521L198-521L172-391Q209-454 268-487.50Q327-521 401-523Q483-523 529-484Q575-445 578-375Q616-446 676.50-483.50Q737-521 816-523Z"/><path id="s84:montserrat-extralightitalic:414" d="M402-523Q469-523 521-494Q573-465 602-413Q631-361 631-294Q631-212 593.50-144Q556-76 491-36.50Q426 3 349 3Q264 3 206-41Q148-85 131-160L99 0L58 0L206-742L247-742L179-406Q217-462 275.50-492.50Q334-523 402-523M392-485Q326-485 270.50-451Q215-417 182.50-358.50Q150-300 150-231Q150-174 175-130Q200-86 245-61.50Q290-37 348-37Q413-37 468.50-71Q524-105 556.50-163Q589-221 589-290Q589-347 564-391.50Q539-436 494.50-460.50Q450-485 392-485Z"/><path id="s84:montserrat-extralightitalic:453" d="M364-711Q314-711 273-675.50Q232-640 221-585L206-508L367-508L360-472L198-472L104 0L63 0L157-472L92-472L98-508L165-508L180-585Q190-634 217-671.50Q244-709 282-730Q320-751 360-751Q410-751 447-726L430-691Q398-711 364-711Z"/><path id="s84:montserrat-extralightitalic:571" d="M140-147Q135-120 135-105Q135-40 195-40Q245-40 294-71L305-36Q250 1 190 1Q144 1 119-24.50Q94-50 94-98Q94-118 99-146L164-472L89-472L96-508L171-508L197-637L238-637L212-508L389-508L382-472L205-472L140-147Z"/><path id="s84:montserrat-extralightitalic:466" d="M198-521L94 0L53 0L157-521L198-521M213-707Q226-707 234-698.50Q242-690 242-677Q242-659 229-646.50Q216-634 199-634Q186-634 178-642.50Q170-651 170-665Q170-682 183-694.50Q196-707 213-707Z"/><path id="s84:montserrat-extralightitalic:609" d="M526-521L165 77Q130 135 87.50 165Q45 195 1 195Q-58 195-95 164L-72 130Q-45 153-1 153Q36 153 70.50 128Q105 103 134 58L171 0L59-521L103-521L199-47L481-521L526-521Z"/><path id="s84:montserrat-extralightitalic:1278" d="M48-64Q62-64 70.50-55Q79-46 79-32Q79-16 68-4Q57 8 42 8Q28 8 19-1.50Q10-11 10-26Q10-42 21-53Q32-64 48-64Z"/><path id="s84:montserrat-extralightitalic:608" d="M141-521L257-300L464-521L511-521L279-269L420 0L372 0L247-237L23 0L-25 0L226-269L94-521L141-521Z"/><path id="s84:montserrat-extralightitalic:415" d="M280 1Q212 1 159.50-29Q107-59 78-112.50Q49-166 49-235Q49-316 86.50-382Q124-448 188.50-485Q253-522 331-522Q386-522 432-503Q478-484 510-449L483-419Q423-482 329-482Q263-482 208-450.50Q153-419 121.50-363.50Q90-308 90-238Q90-180 114.50-134.50Q139-89 183-63.50Q227-38 284-38Q337-38 382.50-57Q428-76 461-111L484-84Q445-43 392.50-21Q340 1 280 1Z"/><path id="s84:montserrat-extralightitalic:70" d="M621-658L242-658L181-356L516-356L509-314L173-314L110 0L68 0L208-699L629-699L621-658Z"/><path id="s84:montserrat-extralightitalic:1273" d="M43-64Q57-64 66-53.50Q75-43 74-28Q72-19 61 4L6 110L-23 110L24 4Q14 0 9-8.50Q4-17 6-28Q7-43 18-53.50Q29-64 43-64Z"/></defs><g id="line-0"><use x="0" y="842.5" xlink:href="#s84:montserrat-extralightitalic:187" /><use x="538" y="842.5" xlink:href="#s84:montserrat-extralightitalic:461" /><use x="1194" y="842.5" xlink:href="#s84:montserrat-extralightitalic:429" /><use x="1789" y="842.5" xlink:href="#s84:montserrat-extralightitalic:3" /><use x="2076" y="842.5" xlink:href="#s84:montserrat-extralightitalic:47" /><use x="2723" y="842.5" xlink:href="#s84:montserrat-extralightitalic:579" /><use x="3373" y="842.5" xlink:href="#s84:montserrat-extralightitalic:550" /><use x="3725" y="842.5" xlink:href="#s84:montserrat-extralightitalic:512" /><use x="4340" y="842.5" xlink:href="#s84:montserrat-extralightitalic:547" /><use x="5018" y="842.5" xlink:href="#s84:montserrat-extralightitalic:429" /><use x="5613" y="842.5" xlink:href="#s84:montserrat-extralightitalic:387" /><use x="6286" y="842.5" xlink:href="#s84:montserrat-extralightitalic:501" /><use x="6936" y="842.5" xlink:href="#s84:montserrat-extralightitalic:3" /><use x="7223" y="842.5" xlink:href="#s84:montserrat-extralightitalic:490" /><use x="7484" y="842.5" xlink:href="#s84:montserrat-extralightitalic:387" /><use x="8157" y="842.5" xlink:href="#s84:montserrat-extralightitalic:501" /><use x="8807" y="842.5" xlink:href="#s84:montserrat-extralightitalic:454" /><use x="9439" y="842.5" xlink:href="#s84:montserrat-extralightitalic:579" /><use x="10089" y="842.5" xlink:href="#s84:montserrat-extralightitalic:387" /><use x="10762" y="842.5" xlink:href="#s84:montserrat-extralightitalic:454" /><use x="11394" y="842.5" xlink:href="#s84:montserrat-extralightitalic:429" /><use x="11989" y="842.5" xlink:href="#s84:montserrat-extralightitalic:558" /><use x="12444" y="842.5" xlink:href="#s84:montserrat-extralightitalic:3" /><use x="12731" y="842.5" xlink:href="#s84:montserrat-extralightitalic:387" /><use x="13404" y="842.5" xlink:href="#s84:montserrat-extralightitalic:550" /><use x="13756" y="842.5" xlink:href="#s84:montserrat-extralightitalic:429" /><use x="14351" y="842.5" xlink:href="#s84:montserrat-extralightitalic:3" /><use x="14638" y="842.5" xlink:href="#s84:montserrat-extralightitalic:499" /><use x="15703" y="842.5" xlink:href="#s84:montserrat-extralightitalic:429" /><use x="16298" y="842.5" xlink:href="#s84:montserrat-extralightitalic:499" /><use x="17363" y="842.5" xlink:href="#s84:montserrat-extralightitalic:414" /><use x="18041" y="842.5" xlink:href="#s84:montserrat-extralightitalic:429" /><use x="18636" y="842.5" xlink:href="#s84:montserrat-extralightitalic:550" /><use x="18988" y="842.5" xlink:href="#s84:montserrat-extralightitalic:558" /><use x="19443" y="842.5" xlink:href="#s84:montserrat-extralightitalic:3" /><use x="19730" y="842.5" xlink:href="#s84:montserrat-extralightitalic:512" /><use x="20345" y="842.5" xlink:href="#s84:montserrat-extralightitalic:453" /><use x="20651" y="842.5" xlink:href="#s84:montserrat-extralightitalic:3" /><use x="20938" y="842.5" xlink:href="#s84:montserrat-extralightitalic:571" /><use x="21311" y="842.5" xlink:href="#s84:montserrat-extralightitalic:461" /><use x="21967" y="842.5" xlink:href="#s84:montserrat-extralightitalic:429" /><use x="22562" y="842.5" xlink:href="#s84:montserrat-extralightitalic:3" /><use x="22849" y="842.5" xlink:href="#s84:montserrat-extralightitalic:558" /><use x="23304" y="842.5" xlink:href="#s84:montserrat-extralightitalic:387" /><use x="23977" y="842.5" xlink:href="#s84:montserrat-extralightitalic:499" /><use x="25042" y="842.5" xlink:href="#s84:montserrat-extralightitalic:429" /><use x="25637" y="842.5" xlink:href="#s84:montserrat-extralightitalic:3" /><use x="25924" y="842.5" xlink:href="#s84:montserrat-extralightitalic:453" /><use x="26230" y="842.5" xlink:href="#s84:montserrat-extralightitalic:387" /><use x="26903" y="842.5" xlink:href="#s84:montserrat-extralightitalic:499" /><use x="27968" y="842.5" xlink:href="#s84:montserrat-extralightitalic:466" /><use x="28219" y="842.5" xlink:href="#s84:montserrat-extralightitalic:490" /><use x="28480" y="842.5" xlink:href="#s84:montserrat-extralightitalic:609" /><use x="28953" y="842.5" xlink:href="#s84:montserrat-extralightitalic:1278" /></g><g id="line-1"><use x="6095" y="2042.5" xlink:href="#s84:montserrat-extralightitalic:187" /><use x="6633" y="2042.5" xlink:href="#s84:montserrat-extralightitalic:461" /><use x="7289" y="2042.5" xlink:href="#s84:montserrat-extralightitalic:429" /><use x="7884" y="2042.5" xlink:href="#s84:montserrat-extralightitalic:466" /><use x="8135" y="2042.5" xlink:href="#s84:montserrat-extralightitalic:550" /><use x="8487" y="2042.5" xlink:href="#s84:montserrat-extralightitalic:3" /><use x="8774" y="2042.5" xlink:href="#s84:montserrat-extralightitalic:558" /><use x="9229" y="2042.5" xlink:href="#s84:montserrat-extralightitalic:429" /><use x="9824" y="2042.5" xlink:href="#s84:montserrat-extralightitalic:547" /><use x="10502" y="2042.5" xlink:href="#s84:montserrat-extralightitalic:387" /><use x="11175" y="2042.5" xlink:href="#s84:montserrat-extralightitalic:550" /><use x="11527" y="2042.5" xlink:href="#s84:montserrat-extralightitalic:387" /><use x="12200" y="2042.5" xlink:href="#s84:montserrat-extralightitalic:571" /><use x="12573" y="2042.5" xlink:href="#s84:montserrat-extralightitalic:429" /><use x="13168" y="2042.5" xlink:href="#s84:montserrat-extralightitalic:3" /><use x="13455" y="2042.5" xlink:href="#s84:montserrat-extralightitalic:429" /><use x="14050" y="2042.5" xlink:href="#s84:montserrat-extralightitalic:608" /><use x="14553" y="2042.5" xlink:href="#s84:montserrat-extralightitalic:466" /><use x="14804" y="2042.5" xlink:href="#s84:montserrat-extralightitalic:558" /><use x="15259" y="2042.5" xlink:href="#s84:montserrat-extralightitalic:571" /><use x="15632" y="2042.5" xlink:href="#s84:montserrat-extralightitalic:429" /><use x="16227" y="2042.5" xlink:href="#s84:montserrat-extralightitalic:501" /><use x="16877" y="2042.5" xlink:href="#s84:montserrat-extralightitalic:415" /><use x="17456" y="2042.5" xlink:href="#s84:montserrat-extralightitalic:429" /><use x="18051" y="2042.5" xlink:href="#s84:montserrat-extralightitalic:3" /><use x="18338" y="2042.5" xlink:href="#s84:montserrat-extralightitalic:466" /><use x="18589" y="2042.5" xlink:href="#s84:montserrat-extralightitalic:558" /><use x="19044" y="2042.5" xlink:href="#s84:montserrat-extralightitalic:3" /><use x="19331" y="2042.5" xlink:href="#s84:montserrat-extralightitalic:387" /><use x="20004" y="2042.5" xlink:href="#s84:montserrat-extralightitalic:3" /><use x="20291" y="2042.5" xlink:href="#s84:montserrat-extralightitalic:499" /><use x="21356" y="2042.5" xlink:href="#s84:montserrat-extralightitalic:609" /><use x="21829" y="2042.5" xlink:href="#s84:montserrat-extralightitalic:571" /><use x="22202" y="2042.5" xlink:href="#s84:montserrat-extralightitalic:461" /><use x="22858" y="2042.5" xlink:href="#s84:montserrat-extralightitalic:1278" /></g><g id="line-2"><use x="7525.5" y="3242.5" xlink:href="#s84:montserrat-extralightitalic:70" /><use x="8076.5" y="3242.5" xlink:href="#s84:montserrat-extralightitalic:512" /><use x="8691.5" y="3242.5" xlink:href="#s84:montserrat-extralightitalic:550" /><use x="9043.5" y="3242.5" xlink:href="#s84:montserrat-extralightitalic:3" /><use x="9330.5" y="3242.5" xlink:href="#s84:montserrat-extralightitalic:558" /><use x="9785.5" y="3242.5" xlink:href="#s84:montserrat-extralightitalic:415" /><use x="10364.5" y="3242.5" xlink:href="#s84:montserrat-extralightitalic:466" /><use x="10615.5" y="3242.5" xlink:href="#s84:montserrat-extralightitalic:429" /><use x="11210.5" y="3242.5" xlink:href="#s84:montserrat-extralightitalic:501" /><use x="11860.5" y="3242.5" xlink:href="#s84:montserrat-extralightitalic:415" /><use x="12439.5" y="3242.5" xlink:href="#s84:montserrat-extralightitalic:429" /><use x="13034.5" y="3242.5" xlink:href="#s84:montserrat-extralightitalic:1273" /><use x="13206.5" y="3242.5" xlink:href="#s84:montserrat-extralightitalic:3" /><use x="13493.5" y="3242.5" xlink:href="#s84:montserrat-extralightitalic:499" /><use x="14558.5" y="3242.5" xlink:href="#s84:montserrat-extralightitalic:579" /><use x="15208.5" y="3242.5" xlink:href="#s84:montserrat-extralightitalic:558" /><use x="15663.5" y="3242.5" xlink:href="#s84:montserrat-extralightitalic:466" /><use x="15914.5" y="3242.5" xlink:href="#s84:montserrat-extralightitalic:415" /><use x="16493.5" y="3242.5" xlink:href="#s84:montserrat-extralightitalic:1273" /><use x="16665.5" y="3242.5" xlink:href="#s84:montserrat-extralightitalic:3" /><use x="16952.5" y="3242.5" xlink:href="#s84:montserrat-extralightitalic:558" /><use x="17407.5" y="3242.5" xlink:href="#s84:montserrat-extralightitalic:547" /><use x="18085.5" y="3242.5" xlink:href="#s84:montserrat-extralightitalic:512" /><use x="18700.5" y="3242.5" xlink:href="#s84:montserrat-extralightitalic:550" /><use x="19052.5" y="3242.5" xlink:href="#s84:montserrat-extralightitalic:571" /><use x="19425.5" y="3242.5" xlink:href="#s84:montserrat-extralightitalic:1273" /><use x="19597.5" y="3242.5" xlink:href="#s84:montserrat-extralightitalic:3" /><use x="19884.5" y="3242.5" xlink:href="#s84:montserrat-extralightitalic:429" /><use x="20479.5" y="3242.5" xlink:href="#s84:montserrat-extralightitalic:571" /><use x="20852.5" y="3242.5" xlink:href="#s84:montserrat-extralightitalic:415" /><use x="21431.5" y="3242.5" xlink:href="#s84:montserrat-extralightitalic:1273" /></g></svg>