<svg xmlns="http://www.w3.org/2000/svg" xmlns:xlink="http://www.w3.org/1999/xlink" width="707" height="84" viewBox="0 0 29444 3493.5"><defs><path id="s79:montserrat-bold:283" d="M7-701L608-701L608-550L398-550L398 0L215 0L215-550L7-550L7-701Z"/><path id="s79:montserrat-bold:515" d="M430-548Q520-548 573.50-492Q627-436 627-341L627 0L449 0L449-290Q449-336 424.50-362.50Q400-389 357-389Q308-388 279.50-354.50Q251-321 251-267L251 0L73 0L73-742L251-742L251-453Q280-500 325.50-524Q371-548 430-548Z"/><path id="s79:montserrat-bold:457" d="M306-547Q438-547 509-469Q580-391 580-255Q580-234 579-223L203-223Q216-177 248-152.50Q280-128 326-128Q361-128 393.50-142Q426-156 453-183L546-90Q504-43 444.50-18.50Q385 6 310 6Q223 6 158-28Q93-62 58.50-124Q24-186 24-268Q24-351 59-414.50Q94-478 158-512.50Q222-547 306-547M407-318Q407-365 379.50-393.50Q352-422 307-422Q265-422 236.50-394Q208-366 199-318L407-318Z"/><path id="s79:montserrat-bold:3" d=""/><path id="s79:montserrat-bold:75" d="M68-701L621-701L621-555L251-555L251-424L585-424L585-279L251-278L251-146L631-146L631 0L68 0L68-701Z"/><path id="s79:montserrat-bold:653" d="M596-541L596 0L418 0L418-88Q363 6 245 8Q157 8 104.50-48.50Q52-105 52-199L52-541L230-541L230-250Q230-204 253.50-178Q277-152 317-152Q364-153 391-186.50Q418-220 418-274L418-541L596-541Z"/><path id="s79:montserrat-bold:616" d="M246-451Q274-498 318.50-523Q363-548 420-548L420-385Q411-386 393-386Q330-386 291-356.50Q252-327 246-276L246 0L68 0L68-541L246-541L246-451Z"/><path id="s79:montserrat-bold:577" d="M319-547Q407-547 474-512.50Q541-478 578-415.50Q615-353 615-271Q615-188 578-125.50Q541-63 474-28.50Q407 6 319 6Q231 6 164-28.50Q97-63 60.50-125.50Q24-188 24-271Q24-353 60.50-415.50Q97-478 164-512.50Q231-547 319-547M319-403Q267-403 235-366Q203-329 203-269Q203-208 235-171Q267-134 319-134Q372-134 404-171Q436-208 436-269Q436-329 403.50-366Q371-403 319-403Z"/><path id="s79:montserrat-bold:613" d="M410-547Q485-547 542-512.50Q599-478 630.50-414.50Q662-351 662-268Q662-186 631.50-124Q601-62 544.50-28Q488 6 414 6Q363 6 321.50-13.50Q280-33 251-70L251 194L73 194L73-541L251-541L251-471Q310-547 410-547M366-138Q418-138 450.50-175Q483-212 483-272Q483-332 450.50-369.50Q418-407 366-407Q315-407 283-369.50Q251-332 251-272Q251-212 283-175Q315-138 366-138Z"/><path id="s79:montserrat-bold:387" d="M312-548Q424-548 486-496.50Q548-445 549-352L549 0L374 0L374-61Q320 8 211 8Q125 8 75.50-38.50Q26-85 26-161Q26-238 79.50-281Q133-324 233-325L374-325L374-331Q374-370 347.50-391Q321-412 271-412Q237-412 194.50-401Q152-390 109-369L60-489Q126-519 186.50-533.50Q247-548 312-548M266-113Q306-113 336-132.50Q366-152 374-183L374-230L268-230Q193-230 193-174Q193-146 212.50-129.50Q232-113 266-113Z"/><path id="s79:montserrat-bold:566" d="M425-548Q514-548 567.50-492Q621-436 621-341L621 0L444 0L444-290Q444-336 419-362.50Q394-389 352-389Q308-388 279.50-360Q251-332 246-286L246 0L68 0L68-541L246-541L246-453Q275-500 320.50-524Q366-548 425-548Z"/><path id="s79:montserrat-bold:546" d="M73-742L251-742L251 0L73 0L73-742Z"/><path id="s79:montserrat-bold:508" d="M586-541L586-48Q586 27 549 83.50Q512 140 445.50 170.50Q379 201 292 201Q224 201 161 182Q98 163 50 131L112 8Q149 33 192 47Q235 61 279 61Q339 61 374 33Q409 5 409-43L409-101Q355-30 255-30Q188-30 135.50-62.50Q83-95 53.50-154.50Q24-214 24-291Q24-367 52.50-425Q81-483 133-515Q185-547 251-547Q301-547 341.50-528.50Q382-510 409-475L409-541L586-541M300-160Q349-160 379-195Q409-230 409-286Q409-343 379-378Q349-413 300-413Q251-413 220.50-377.50Q190-342 190-286Q190-230 220.50-195Q251-160 300-160Z"/><path id="s79:montserrat-bold:624" d="M429-370Q324-425 257-425Q234-425 220-416.50Q206-408 206-391Q206-373 228-362Q250-351 298-338Q356-321 394.50-304.50Q433-288 461-254.50Q489-221 489-167Q489-85 425.50-38.50Q362 8 260 8Q191 8 128-11.50Q65-31 16-69L72-184Q118-152 168.50-134.50Q219-117 264-117Q290-117 305.50-125.50Q321-134 321-150Q321-170 298.50-181Q276-192 228-205Q171-222 134-238.50Q97-255 69.50-288Q42-321 42-374Q42-456 104-502.50Q166-549 264-549Q323-549 380.50-533Q438-517 489-486L429-370Z"/><path id="s79:montserrat-bold:564" d="M790-548Q878-548 931-492Q984-436 984-341L984 0L806 0L806-290Q806-336 782-362.50Q758-389 717-389Q670-388 642.50-354.50Q615-321 615-267L615 0L437 0L437-290Q437-336 413-362.50Q389-389 348-389Q301-388 273-354.50Q245-321 245-267L245 0L68 0L68-541L245-541L245-452Q273-499 317.50-523.50Q362-548 421-548Q487-548 534-516Q581-484 601-427Q627-487 675.50-517.50Q724-548 790-548Z"/><path id="s79:montserrat-bold:441" d="M410-547Q485-547 542-512.50Q599-478 630.50-414.50Q662-351 662-268Q662-186 631.50-124Q601-62 544.50-28Q488 6 414 6Q363 6 321.50-13.50Q280-33 251-70L251 0L73 0L73-742L251-742L251-471Q310-547 410-547M366-138Q418-138 450.50-175Q483-212 483-272Q483-332 450.50-369.50Q418-407 366-407Q315-407 283-369.50Q251-332 251-272Q251-212 283-175Q315-138 366-138Z"/><path id="s79:montserrat-bold:505" d="M338-608Q311-608 294-593Q277-578 277-550L277-515L397-515L397-397L277-397L277 0L100 0L100-397L27-397L27-515L100-515L100-565Q100-651 157.50-700.50Q215-750 305-750Q364-750 421-729L398-594Q358-608 338-608Z"/><path id="s79:montserrat-bold:637" d="M420-28Q390-11 351-1.50Q312 8 272 8Q192 8 142.50-38Q93-84 93-165L93-397L18-397L18-515L93-515L93-665L270-665L270-515L410-515L410-397L270-397L270-193Q270-136 317-136Q346-136 386-154L420-28Z"/><path id="s79:montserrat-bold:520" d="M68-541L245-541L245 0L68 0L68-541M155-790Q196-790 222.50-763.50Q249-737 249-695Q249-654 222.50-627Q196-600 155-600Q114-600 87.50-627Q61-654 61-695Q61-737 87.50-763.50Q114-790 155-790Z"/><path id="s79:montserrat-bold:688" d="M360 53Q329 129 277 165.50Q225 202 148 202Q103 202 64 188.50Q25 175-12 146L62 23Q81 39 98 46Q115 53 134 53Q178 53 199 12L212-13L-12-541L171-541L300-189L415-541L592-541L360 53Z"/><path id="s79:montserrat-bold:1245" d="M122-165Q160-165 184-141Q208-117 208-79Q208-41 184-16.50Q160 8 122 8Q85 8 61-16.50Q37-41 37-79Q37-117 60.50-141Q84-165 122-165Z"/><path id="s79:montserrat-bold:687" d="M15-541L219-541L306-389L400-541L595-541L424-277L607 0L402 0L306-165L199 0L3 0L187-277L15-541Z"/><path id="s79:montserrat-bold:442" d="M417-344Q379-400 311-400Q263-400 233-363.50Q203-327 203-269Q203-210 233-174Q263-138 311-138Q385-138 417-199L548-124Q516-62 452-28Q388 6 302 6Q219 6 156-28Q93-62 58.50-124Q24-186 24-268Q24-351 59-414.50Q94-478 157.50-512.50Q221-547 304-547Q385-547 448-513.50Q511-480 546-419L417-344Z"/><path id="s79:montserrat-bold:121" d="M68-701L592-701L591-555L251-555L251-399L565-399L565-253L251-253L251 0L68 0L68-701Z"/><path id="s79:montserrat-bold:1239" d="M123-164Q159-164 183.50-141.50Q208-119 208-79Q208-49 185-11L105 122L20 122L72-11Q38-35 38-79Q38-116 62-140Q86-164 123-164Z"/></defs><g id="line-0"><use x="0" y="842.5" xlink:href="#s79:montserrat-bold:283"/><use x="614" y="842.5" xlink:href="#s79:montserrat-bold:515"/><use x="1293" y="842.5" xlink:href="#s79:montserrat-bold:457"/><use x="1896" y="842.5" xlink:href="#s79:montserrat-bold:3"/><use x="2118" y="842.5" xlink:href="#s79:montserrat-bold:75"/><use x="2793" y="842.5" xlink:href="#s79:montserrat-bold:653"/><use x="3457" y="842.5" xlink:href="#s79:montserrat-bold:616"/><use x="3887" y="842.5" xlink:href="#s79:montserrat-bold:577"/><use x="4525" y="842.5" xlink:href="#s79:montserrat-bold:613"/><use x="5211" y="842.5" xlink:href="#s79:montserrat-bold:457"/><use x="5814" y="842.5" xlink:href="#s79:montserrat-bold:387"/><use x="6415" y="842.5" xlink:href="#s79:montserrat-bold:566"/><use x="7089" y="842.5" xlink:href="#s79:montserrat-bold:3"/><use x="7311" y="842.5" xlink:href="#s79:montserrat-bold:546"/><use x="7635" y="842.5" xlink:href="#s79:montserrat-bold:387"/><use x="8236" y="842.5" xlink:href="#s79:montserrat-bold:566"/><use x="8910" y="842.5" xlink:href="#s79:montserrat-bold:508"/><use x="9558" y="842.5" xlink:href="#s79:montserrat-bold:653"/><use x="10222" y="842.5" xlink:href="#s79:montserrat-bold:387"/><use x="10823" y="842.5" xlink:href="#s79:montserrat-bold:508"/><use x="11471" y="842.5" xlink:href="#s79:montserrat-bold:457"/><use x="12074" y="842.5" xlink:href="#s79:montserrat-bold:624"/><use x="12591" y="842.5" xlink:href="#s79:montserrat-bold:3"/><use x="12813" y="842.5" xlink:href="#s79:montserrat-bold:387"/><use x="13414" y="842.5" xlink:href="#s79:montserrat-bold:616"/><use x="13844" y="842.5" xlink:href="#s79:montserrat-bold:457"/><use x="14447" y="842.5" xlink:href="#s79:montserrat-bold:3"/><use x="14669" y="842.5" xlink:href="#s79:montserrat-bold:564"/><use x="15706" y="842.5" xlink:href="#s79:montserrat-bold:457"/><use x="16309" y="842.5" xlink:href="#s79:montserrat-bold:564"/><use x="17346" y="842.5" xlink:href="#s79:montserrat-bold:441"/><use x="18032" y="842.5" xlink:href="#s79:montserrat-bold:457"/><use x="18635" y="842.5" xlink:href="#s79:montserrat-bold:616"/><use x="19065" y="842.5" xlink:href="#s79:montserrat-bold:624"/><use x="19582" y="842.5" xlink:href="#s79:montserrat-bold:3"/><use x="19804" y="842.5" xlink:href="#s79:montserrat-bold:577"/><use x="20442" y="842.5" xlink:href="#s79:montserrat-bold:505"/><use x="20838" y="842.5" xlink:href="#s79:montserrat-bold:3"/><use x="21060" y="842.5" xlink:href="#s79:montserrat-bold:637"/><use x="21497" y="842.5" xlink:href="#s79:montserrat-bold:515"/><use x="22176" y="842.5" xlink:href="#s79:montserrat-bold:457"/><use x="22779" y="842.5" xlink:href="#s79:montserrat-bold:3"/><use x="23001" y="842.5" xlink:href="#s79:montserrat-bold:624"/><use x="23518" y="842.5" xlink:href="#s79:montserrat-bold:387"/><use x="24119" y="842.5" xlink:href="#s79:montserrat-bold:564"/><use x="25156" y="842.5" xlink:href="#s79:montserrat-bold:457"/><use x="25759" y="842.5" xlink:href="#s79:montserrat-bold:3"/><use x="25981" y="842.5" xlink:href="#s79:montserrat-bold:505"/><use x="26377" y="842.5" xlink:href="#s79:montserrat-bold:387"/><use x="26978" y="842.5" xlink:href="#s79:montserrat-bold:564"/><use x="28015" y="842.5" xlink:href="#s79:montserrat-bold:520"/><use x="28328" y="842.5" xlink:href="#s79:montserrat-bold:546"/><use x="28652" y="842.5" xlink:href="#s79:montserrat-bold:688"/><use x="29236" y="842.5" xlink:href="#s79:montserrat-bold:1245"/></g><g id="line-1"><use x="5959" y="2042.5" xlink:href="#s79:montserrat-bold:283"/><use x="6573" y="2042.5" xlink:href="#s79:montserrat-bold:515"/><use x="7252" y="2042.5" xlink:href="#s79:montserrat-bold:457"/><use x="7855" y="2042.5" xlink:href="#s79:montserrat-bold:520"/><use x="8168" y="2042.5" xlink:href="#s79:montserrat-bold:616"/><use x="8598" y="2042.5" xlink:href="#s79:montserrat-bold:3"/><use x="8820" y="2042.5" xlink:href="#s79:montserrat-bold:624"/><use x="9337" y="2042.5" xlink:href="#s79:montserrat-bold:457"/><use x="9940" y="2042.5" xlink:href="#s79:montserrat-bold:613"/><use x="10626" y="2042.5" xlink:href="#s79:montserrat-bold:387"/><use x="11227" y="2042.5" xlink:href="#s79:montserrat-bold:616"/><use x="11657" y="2042.5" xlink:href="#s79:montserrat-bold:387"/><use x="12258" y="2042.5" xlink:href="#s79:montserrat-bold:637"/><use x="12695" y="2042.5" xlink:href="#s79:montserrat-bold:457"/><use x="13298" y="2042.5" xlink:href="#s79:montserrat-bold:3"/><use x="13520" y="2042.5" xlink:href="#s79:montserrat-bold:457"/><use x="14123" y="2042.5" xlink:href="#s79:montserrat-bold:687"/><use x="14734" y="2042.5" xlink:href="#s79:montserrat-bold:520"/><use x="15047" y="2042.5" xlink:href="#s79:montserrat-bold:624"/><use x="15564" y="2042.5" xlink:href="#s79:montserrat-bold:637"/><use x="16001" y="2042.5" xlink:href="#s79:montserrat-bold:457"/><use x="16604" y="2042.5" xlink:href="#s79:montserrat-bold:566"/><use x="17278" y="2042.5" xlink:href="#s79:montserrat-bold:442"/><use x="17840" y="2042.5" xlink:href="#s79:montserrat-bold:457"/><use x="18443" y="2042.5" xlink:href="#s79:montserrat-bold:3"/><use x="18665" y="2042.5" xlink:href="#s79:montserrat-bold:520"/><use x="18978" y="2042.5" xlink:href="#s79:montserrat-bold:624"/><use x="19495" y="2042.5" xlink:href="#s79:montserrat-bold:3"/><use x="19717" y="2042.5" xlink:href="#s79:montserrat-bold:387"/><use x="20318" y="2042.5" xlink:href="#s79:montserrat-bold:3"/><use x="20540" y="2042.5" xlink:href="#s79:montserrat-bold:564"/><use x="21577" y="2042.5" xlink:href="#s79:montserrat-bold:688"/><use x="22161" y="2042.5" xlink:href="#s79:montserrat-bold:637"/><use x="22598" y="2042.5" xlink:href="#s79:montserrat-bold:515"/><use x="23277" y="2042.5" xlink:href="#s79:montserrat-bold:1245"/></g><g id="line-2"><use x="7353.5" y="3242.5" xlink:href="#s79:montserrat-bold:121"/><use x="7960.5" y="3242.5" xlink:href="#s79:montserrat-bold:577"/><use x="8598.5" y="3242.5" xlink:href="#s79:montserrat-bold:616"/><use x="9028.5" y="3242.5" xlink:href="#s79:montserrat-bold:3"/><use x="9250.5" y="3242.5" xlink:href="#s79:montserrat-bold:624"/><use x="9767.5" y="3242.5" xlink:href="#s79:montserrat-bold:442"/><use x="10329.5" y="3242.5" xlink:href="#s79:montserrat-bold:520"/><use x="10642.5" y="3242.5" xlink:href="#s79:montserrat-bold:457"/><use x="11245.5" y="3242.5" xlink:href="#s79:montserrat-bold:566"/><use x="11919.5" y="3242.5" xlink:href="#s79:montserrat-bold:442"/><use x="12481.5" y="3242.5" xlink:href="#s79:montserrat-bold:457"/><use x="13084.5" y="3242.5" xlink:href="#s79:montserrat-bold:1239"/><use x="13327.5" y="3242.5" xlink:href="#s79:montserrat-bold:3"/><use x="13549.5" y="3242.5" xlink:href="#s79:montserrat-bold:564"/><use x="14586.5" y="3242.5" xlink:href="#s79:montserrat-bold:653"/><use x="15250.5" y="3242.5" xlink:href="#s79:montserrat-bold:624"/><use x="15767.5" y="3242.5" xlink:href="#s79:montserrat-bold:520"/><use x="16080.5" y="3242.5" xlink:href="#s79:montserrat-bold:442"/><use x="16642.5" y="3242.5" xlink:href="#s79:montserrat-bold:1239"/><use x="16885.5" y="3242.5" xlink:href="#s79:montserrat-bold:3"/><use x="17107.5" y="3242.5" xlink:href="#s79:montserrat-bold:624"/><use x="17624.5" y="3242.5" xlink:href="#s79:montserrat-bold:613"/><use x="18310.5" y="3242.5" xlink:href="#s79:montserrat-bold:577"/><use x="18948.5" y="3242.5" xlink:href="#s79:montserrat-bold:616"/><use x="19378.5" y="3242.5" xlink:href="#s79:montserrat-bold:637"/><use x="19815.5" y="3242.5" xlink:href="#s79:montserrat-bold:1239"/><use x="20058.5" y="3242.5" xlink:href="#s79:montserrat-bold:3"/><use x="20280.5" y="3242.5" xlink:href="#s79:montserrat-bold:457"/><use x="20883.5" y="3242.5" xlink:href="#s79:montserrat-bold:637"/><use x="21320.5" y="3242.5" xlink:href="#s79:montserrat-bold:442"/><use x="21882.5" y="3242.5" xlink:href="#s79:montserrat-bold:1239"/></g></svg>