<svg xmlns="http://www.w3.org/2000/svg" xmlns:xlink="http://www.w3.org/1999/xlink" width="701" height="84" viewBox="0 0 29200 3493.5"><defs><path id="s91:montserrat-semibold:283" d="M8-700L593-700L593-566L379-566L379 0L221 0L221-566L8-566L8-700Z"/><path id="s91:montserrat-semibold:515" d="M419-544Q510-544 563.50-488Q617-432 617-338L617 0L463 0L463-293Q463-344 434.50-373.50Q406-403 357-403Q300-402 266.50-363.50Q233-325 233-265L233 0L79 0L79-742L233-742L233-443Q289-542 419-544Z"/><path id="s91:montserrat-semibold:457" d="M305-543Q435-543 502.50-468Q570-393 570-259Q570-235 569-222L183-222Q196-171 233-142.50Q270-114 322-114Q360-114 395-128.50Q430-143 458-171L539-89Q498-43 439.50-18.50Q381 6 309 6Q224 6 160.50-28Q97-62 62.50-124Q28-186 28-267Q28-349 63-411.50Q98-474 161-508.50Q224-543 305-543M425-313Q423-366 391-398Q359-430 306-430Q256-430 222.50-398.50Q189-367 180-313L425-313Z"/><path id="s91:montserrat-semibold:3" d=""/><path id="s91:montserrat-semibold:75" d="M77-700L610-700L610-569L235-569L235-417L572-417L572-286L235-286L235-131L621-131L621 0L77 0L77-700Z"/><path id="s91:montserrat-semibold:653" d="M585-538L585 0L432 0L432-95Q377 6 252 6Q163 6 110.50-49.50Q58-105 58-200L58-538L212-538L212-244Q212-193 239-164Q266-135 313-135Q368-136 400-174Q432-212 432-272L432-538L585-538Z"/><path id="s91:montserrat-semibold:616" d="M228-441Q256-491 301-517Q346-543 406-544L406-399Q398-400 382-400Q311-400 269.50-361.50Q228-323 228-259L228 0L74 0L74-538L228-538L228-441Z"/><path id="s91:montserrat-semibold:577" d="M317-543Q402-543 467.50-509Q533-475 569-413Q605-351 605-269Q605-188 569-125.50Q533-63 467.50-28.50Q402 6 317 6Q231 6 165.50-28.50Q100-63 64-125.50Q28-188 28-269Q28-351 64-413Q100-475 165.50-509Q231-543 317-543M317-415Q257-415 219.50-374Q182-333 182-267Q182-201 219.50-160Q257-119 317-119Q376-119 413.50-160Q451-201 451-267Q451-333 413.50-374Q376-415 317-415Z"/><path id="s91:montserrat-semibold:613" d="M403-543Q478-543 535.50-508.50Q593-474 624.50-411Q656-348 656-266Q656-185 625-123.50Q594-62 537.50-28Q481 6 406 6Q350 6 306.50-15.50Q263-37 233-78L233 194L79 194L79-538L233-538L233-459Q262-500 305.50-521.50Q349-543 403-543M367-122Q426-122 463-163.50Q500-205 500-271Q500-336 463-377.50Q426-419 367-419Q308-419 270.50-377.50Q233-336 233-271Q233-204 270.50-163Q308-122 367-122Z"/><path id="s91:montserrat-semibold:387" d="M386 0L386-63Q359-29 316-11Q273 7 217 7Q132 7 82-39.50Q32-86 32-161Q32-237 85.50-279.50Q139-322 237-323L385-323L385-333Q385-376 356.50-399.50Q328-423 273-423Q198-423 113-376L65-482Q129-514 185-529Q241-544 308-544Q416-544 475.50-493Q535-442 536-351L537 0L386 0M260-103Q308-103 343-126Q378-149 385-184L385-232L264-232Q219-232 197.50-217.50Q176-203 176-171Q176-140 198.50-121.50Q221-103 260-103Z"/><path id="s91:montserrat-semibold:566" d="M414-544Q504-544 557.50-488Q611-432 611-338L611 0L457 0L457-293Q457-344 428.50-373.50Q400-403 351-403Q294-402 261-363.50Q228-325 228-265L228 0L74 0L74-538L228-538L228-444Q284-542 414-544Z"/><path id="s91:montserrat-semibold:546" d="M79-742L233-742L233 0L79 0L79-742Z"/><path id="s91:montserrat-semibold:508" d="M578-538L578-50Q578 26 542 82.50Q506 139 441 169.50Q376 200 291 200Q225 200 165.50 181Q106 162 57 129L114 21Q190 75 281 75Q347 75 386 42.50Q425 10 425-45L425-106Q398-68 357-48Q316-28 263-28Q194-28 140.50-60.50Q87-93 57.50-152Q28-211 28-288Q28-364 57.50-421.50Q87-479 140.50-511Q194-543 263-543Q315-543 356-522.50Q397-502 425-465L425-538L578-538M299-145Q355-145 390-183.50Q425-222 425-284Q425-346 390-385Q355-424 299-424Q243-424 208-385Q173-346 172-284Q173-222 207.50-183.50Q242-145 299-145Z"/><path id="s91:montserrat-semibold:624" d="M413-380Q369-405 326-418.50Q283-432 249-432Q221-432 204-422Q187-412 187-392Q187-370 210-358Q233-346 285-331Q342-314 379-297.50Q416-281 443-248.50Q470-216 470-163Q470-83 408.50-38.50Q347 6 251 6Q185 6 124-13.50Q63-33 18-69L68-173Q109-141 159.50-123.50Q210-106 255-106Q286-106 304.50-116.50Q323-127 323-148Q323-171 299.50-184Q276-197 224-212Q169-228 132.50-244Q96-260 70-292.50Q44-325 44-377Q44-457 104-501Q164-545 256-545Q311-545 366-529.50Q421-514 466-485L413-380Z"/><path id="s91:montserrat-semibold:564" d="M786-544Q875-544 927.50-488.50Q980-433 980-338L980 0L827 0L827-293Q827-345 799-374Q771-403 723-403Q668-402 636-364Q604-326 604-266L604 0L451 0L451-293Q451-344 423.50-373.50Q396-403 348-403Q293-402 260.50-364Q228-326 228-266L228 0L74 0L74-538L228-538L228-445Q284-542 410-544Q478-544 525-511.50Q572-479 592-420Q618-481 667.50-512Q717-543 786-544Z"/><path id="s91:montserrat-semibold:441" d="M403-543Q478-543 535.50-508.50Q593-474 624.50-411Q656-348 656-266Q656-185 625-123.50Q594-62 537.50-28Q481 6 406 6Q350 6 306.50-15.50Q263-37 233-78L233 0L79 0L79-742L233-742L233-459Q262-500 305.50-521.50Q349-543 403-543M367-122Q426-122 463-163.50Q500-205 500-271Q500-336 463-377.50Q426-419 367-419Q308-419 270.50-377.50Q233-336 233-271Q233-204 270.50-163Q308-122 367-122Z"/><path id="s91:montserrat-semibold:505" d="M320-622Q292-622 274-606Q256-590 256-559L256-514L383-514L383-407L256-407L256 0L103 0L103-407L31-407L31-514L103-514L103-565Q103-623 129.50-664.50Q156-706 201-727.50Q246-749 301-749Q353-749 407-727L384-607Q369-613 352-617.50Q335-622 320-622Z"/><path id="s91:montserrat-semibold:637" d="M407-30Q377-12 340.50-2.50Q304 7 267 7Q192 7 145-36Q98-79 98-159L98-408L23-408L23-514L98-514L98-662L251-662L251-514L397-514L397-407L251-407L251-185Q251-123 300-123Q334-123 375-143L407-30Z"/><path id="s91:montserrat-semibold:520" d="M74-538L228-538L228 0L74 0L74-538M150-777Q187-777 210.50-753Q234-729 234-691Q234-653 210.50-629Q187-605 150-605Q114-605 90.50-629.50Q67-654 67-691Q67-729 90.50-753Q114-777 150-777Z"/><path id="s91:montserrat-semibold:688" d="M335 60Q279 201 138 201Q95 201 60 188.50Q25 176-8 149L57 38Q92 67 127 67Q176 67 198 19L213-11L-10-538L149-538L290-168L417-538L571-538L335 60Z"/><path id="s91:montserrat-semibold:1245" d="M117-150Q151-150 172.50-128Q194-106 194-71Q194-36 172.50-13.50Q151 9 117 9Q84 9 62-14Q40-37 40-71Q40-106 62-128Q84-150 117-150Z"/><path id="s91:montserrat-semibold:687" d="M20-538L196-538L295-375L400-538L568-538L397-276L580 0L403 0L295-176L177 0L7 0L193-275L20-538Z"/><path id="s91:montserrat-semibold:442" d="M433-355Q387-412 313-412Q255-412 218.50-372.50Q182-333 182-268Q182-203 218-162.50Q254-122 310-122Q394-122 435-185L541-113Q507-56 445.50-25Q384 6 302 6Q221 6 159-28Q97-62 62.50-124Q28-186 28-267Q28-349 62.50-411.50Q97-474 159.50-508.50Q222-543 304-543Q381-543 441-513.50Q501-484 537-430L433-355Z"/><path id="s91:montserrat-semibold:121" d="M77-700L580-700L579-569L235-569L235-397L551-397L551-265L235-265L235 0L77 0L77-700Z"/><path id="s91:montserrat-semibold:1239" d="M118-149Q149-149 171-128Q193-107 193-71Q193-55 188-41.50Q183-28 173-9L102 118L27 118L74-8Q41-29 41-71Q41-105 63-127Q85-149 118-149Z"/></defs><g id="line-0"><use x="0" y="842.5" xlink:href="#s91:montserrat-semibold:283"/><use x="601" y="842.5" xlink:href="#s91:montserrat-semibold:515"/><use x="1276" y="842.5" xlink:href="#s91:montserrat-semibold:457"/><use x="1873" y="842.5" xlink:href="#s91:montserrat-semibold:3"/><use x="2107" y="842.5" xlink:href="#s91:montserrat-semibold:75"/><use x="2775" y="842.5" xlink:href="#s91:montserrat-semibold:653"/><use x="3435" y="842.5" xlink:href="#s91:montserrat-semibold:616"/><use x="3851" y="842.5" xlink:href="#s91:montserrat-semibold:577"/><use x="4484" y="842.5" xlink:href="#s91:montserrat-semibold:613"/><use x="5168" y="842.5" xlink:href="#s91:montserrat-semibold:457"/><use x="5765" y="842.5" xlink:href="#s91:montserrat-semibold:387"/><use x="6361" y="842.5" xlink:href="#s91:montserrat-semibold:566"/><use x="7031" y="842.5" xlink:href="#s91:montserrat-semibold:3"/><use x="7265" y="842.5" xlink:href="#s91:montserrat-semibold:546"/><use x="7578" y="842.5" xlink:href="#s91:montserrat-semibold:387"/><use x="8174" y="842.5" xlink:href="#s91:montserrat-semibold:566"/><use x="8844" y="842.5" xlink:href="#s91:montserrat-semibold:508"/><use x="9489" y="842.5" xlink:href="#s91:montserrat-semibold:653"/><use x="10149" y="842.5" xlink:href="#s91:montserrat-semibold:387"/><use x="10745" y="842.5" xlink:href="#s91:montserrat-semibold:508"/><use x="11390" y="842.5" xlink:href="#s91:montserrat-semibold:457"/><use x="11987" y="842.5" xlink:href="#s91:montserrat-semibold:624"/><use x="12486" y="842.5" xlink:href="#s91:montserrat-semibold:3"/><use x="12720" y="842.5" xlink:href="#s91:montserrat-semibold:387"/><use x="13316" y="842.5" xlink:href="#s91:montserrat-semibold:616"/><use x="13732" y="842.5" xlink:href="#s91:montserrat-semibold:457"/><use x="14329" y="842.5" xlink:href="#s91:montserrat-semibold:3"/><use x="14563" y="842.5" xlink:href="#s91:montserrat-semibold:564"/><use x="15602" y="842.5" xlink:href="#s91:montserrat-semibold:457"/><use x="16199" y="842.5" xlink:href="#s91:montserrat-semibold:564"/><use x="17238" y="842.5" xlink:href="#s91:montserrat-semibold:441"/><use x="17922" y="842.5" xlink:href="#s91:montserrat-semibold:457"/><use x="18519" y="842.5" xlink:href="#s91:montserrat-semibold:616"/><use x="18935" y="842.5" xlink:href="#s91:montserrat-semibold:624"/><use x="19434" y="842.5" xlink:href="#s91:montserrat-semibold:3"/><use x="19668" y="842.5" xlink:href="#s91:montserrat-semibold:577"/><use x="20301" y="842.5" xlink:href="#s91:montserrat-semibold:505"/><use x="20681" y="842.5" xlink:href="#s91:montserrat-semibold:3"/><use x="20915" y="842.5" xlink:href="#s91:montserrat-semibold:637"/><use x="21341" y="842.5" xlink:href="#s91:montserrat-semibold:515"/><use x="22016" y="842.5" xlink:href="#s91:montserrat-semibold:457"/><use x="22613" y="842.5" xlink:href="#s91:montserrat-semibold:3"/><use x="22847" y="842.5" xlink:href="#s91:montserrat-semibold:624"/><use x="23346" y="842.5" xlink:href="#s91:montserrat-semibold:387"/><use x="23942" y="842.5" xlink:href="#s91:montserrat-semibold:564"/><use x="24981" y="842.5" xlink:href="#s91:montserrat-semibold:457"/><use x="25578" y="842.5" xlink:href="#s91:montserrat-semibold:3"/><use x="25812" y="842.5" xlink:href="#s91:montserrat-semibold:505"/><use x="26192" y="842.5" xlink:href="#s91:montserrat-semibold:387"/><use x="26788" y="842.5" xlink:href="#s91:montserrat-semibold:564"/><use x="27827" y="842.5" xlink:href="#s91:montserrat-semibold:520"/><use x="28129" y="842.5" xlink:href="#s91:montserrat-semibold:546"/><use x="28442" y="842.5" xlink:href="#s91:montserrat-semibold:688"/><use x="29006" y="842.5" xlink:href="#s91:montserrat-semibold:1245"/></g><g id="line-1"><use x="5946.5" y="2042.5" xlink:href="#s91:montserrat-semibold:283"/><use x="6547.5" y="2042.5" xlink:href="#s91:montserrat-semibold:515"/><use x="7222.5" y="2042.5" xlink:href="#s91:montserrat-semibold:457"/><use x="7819.5" y="2042.5" xlink:href="#s91:montserrat-semibold:520"/><use x="8121.5" y="2042.5" xlink:href="#s91:montserrat-semibold:616"/><use x="8537.5" y="2042.5" xlink:href="#s91:montserrat-semibold:3"/><use x="8771.5" y="2042.5" xlink:href="#s91:montserrat-semibold:624"/><use x="9270.5" y="2042.5" xlink:href="#s91:montserrat-semibold:457"/><use x="9867.5" y="2042.5" xlink:href="#s91:montserrat-semibold:613"/><use x="10551.5" y="2042.5" xlink:href="#s91:montserrat-semibold:387"/><use x="11147.5" y="2042.5" xlink:href="#s91:montserrat-semibold:616"/><use x="11563.5" y="2042.5" xlink:href="#s91:montserrat-semibold:387"/><use x="12159.5" y="2042.5" xlink:href="#s91:montserrat-semibold:637"/><use x="12585.5" y="2042.5" xlink:href="#s91:montserrat-semibold:457"/><use x="13182.5" y="2042.5" xlink:href="#s91:montserrat-semibold:3"/><use x="13416.5" y="2042.5" xlink:href="#s91:montserrat-semibold:457"/><use x="14013.5" y="2042.5" xlink:href="#s91:montserrat-semibold:687"/><use x="14602.5" y="2042.5" xlink:href="#s91:montserrat-semibold:520"/><use x="14904.5" y="2042.5" xlink:href="#s91:montserrat-semibold:624"/><use x="15403.5" y="2042.5" xlink:href="#s91:montserrat-semibold:637"/><use x="15829.5" y="2042.5" xlink:href="#s91:montserrat-semibold:457"/><use x="16426.5" y="2042.5" xlink:href="#s91:montserrat-semibold:566"/><use x="17096.5" y="2042.5" xlink:href="#s91:montserrat-semibold:442"/><use x="17659.5" y="2042.5" xlink:href="#s91:montserrat-semibold:457"/><use x="18256.5" y="2042.5" xlink:href="#s91:montserrat-semibold:3"/><use x="18490.5" y="2042.5" xlink:href="#s91:montserrat-semibold:520"/><use x="18792.5" y="2042.5" xlink:href="#s91:montserrat-semibold:624"/><use x="19291.5" y="2042.5" xlink:href="#s91:montserrat-semibold:3"/><use x="19525.5" y="2042.5" xlink:href="#s91:montserrat-semibold:387"/><use x="20121.5" y="2042.5" xlink:href="#s91:montserrat-semibold:3"/><use x="20355.5" y="2042.5" xlink:href="#s91:montserrat-semibold:564"/><use x="21394.5" y="2042.5" xlink:href="#s91:montserrat-semibold:688"/><use x="21958.5" y="2042.5" xlink:href="#s91:montserrat-semibold:637"/><use x="22384.5" y="2042.5" xlink:href="#s91:montserrat-semibold:515"/><use x="23059.5" y="2042.5" xlink:href="#s91:montserrat-semibold:1245"/></g><g id="line-2"><use x="7316.5" y="3242.5" xlink:href="#s91:montserrat-semibold:121"/><use x="7911.5" y="3242.5" xlink:href="#s91:montserrat-semibold:577"/><use x="8544.5" y="3242.5" xlink:href="#s91:montserrat-semibold:616"/><use x="8960.5" y="3242.5" xlink:href="#s91:montserrat-semibold:3"/><use x="9194.5" y="3242.5" xlink:href="#s91:montserrat-semibold:624"/><use x="9693.5" y="3242.5" xlink:href="#s91:montserrat-semibold:442"/><use x="10256.5" y="3242.5" xlink:href="#s91:montserrat-semibold:520"/><use x="10558.5" y="3242.5" xlink:href="#s91:montserrat-semibold:457"/><use x="11155.5" y="3242.5" xlink:href="#s91:montserrat-semibold:566"/><use x="11825.5" y="3242.5" xlink:href="#s91:montserrat-semibold:442"/><use x="12388.5" y="3242.5" xlink:href="#s91:montserrat-semibold:457"/><use x="12985.5" y="3242.5" xlink:href="#s91:montserrat-semibold:1239"/><use x="13217.5" y="3242.5" xlink:href="#s91:montserrat-semibold:3"/><use x="13451.5" y="3242.5" xlink:href="#s91:montserrat-semibold:564"/><use x="14490.5" y="3242.5" xlink:href="#s91:montserrat-semibold:653"/><use x="15150.5" y="3242.5" xlink:href="#s91:montserrat-semibold:624"/><use x="15649.5" y="3242.5" xlink:href="#s91:montserrat-semibold:520"/><use x="15951.5" y="3242.5" xlink:href="#s91:montserrat-semibold:442"/><use x="16514.5" y="3242.5" xlink:href="#s91:montserrat-semibold:1239"/><use x="16746.5" y="3242.5" xlink:href="#s91:montserrat-semibold:3"/><use x="16980.5" y="3242.5" xlink:href="#s91:montserrat-semibold:624"/><use x="17479.5" y="3242.5" xlink:href="#s91:montserrat-semibold:613"/><use x="18163.5" y="3242.5" xlink:href="#s91:montserrat-semibold:577"/><use x="18796.5" y="3242.5" xlink:href="#s91:montserrat-semibold:616"/><use x="19212.5" y="3242.5" xlink:href="#s91:montserrat-semibold:637"/><use x="19638.5" y="3242.5" xlink:href="#s91:montserrat-semibold:1239"/><use x="19870.5" y="3242.5" xlink:href="#s91:montserrat-semibold:3"/><use x="20104.5" y="3242.5" xlink:href="#s91:montserrat-semibold:457"/><use x="20701.5" y="3242.5" xlink:href="#s91:montserrat-semibold:637"/><use x="21127.5" y="3242.5" xlink:href="#s91:montserrat-semibold:442"/><use x="21690.5" y="3242.5" xlink:href="#s91:montserrat-semibold:1239"/></g></svg>