<svg xmlns="http://www.w3.org/2000/svg" xmlns:xlink="http://www.w3.org/1999/xlink" width="702" height="84" viewBox="0 0 29248 3493.5" ><defs><path id="s87:montserrat-lightitalic:187" d="M629-700L617-636L386-636L258 0L189 0L317-636L87-636L99-700L629-700Z"/><path id="s87:montserrat-lightitalic:461" d="M412-528Q499-528 547.50-485.50Q596-443 596-367Q596-341 590-312L528 0L460 0L521-305Q525-325 525-347Q525-404 490.50-435.50Q456-467 392-467Q311-466 252-415.50Q193-365 175-278L120 0L53 0L199-742L267-742L202-414Q237-469 290.50-498Q344-527 412-528Z"/><path id="s87:montserrat-lightitalic:429" d="M111-239L111-236Q111-153 160.50-103Q210-53 293-53Q341-53 384-69Q427-85 460-115L492-71Q453-35 401-16Q349 3 290 3Q217 3 161.50-27Q106-57 75.50-111Q45-165 45-236Q45-318 83-384.50Q121-451 187.50-489Q254-527 334-527Q438-527 498.50-465Q559-403 559-299Q559-274 554-239L111-239M334-470Q253-470 193.50-421Q134-372 117-292L499-292Q500-375 456.50-422.50Q413-470 334-470Z"/><path id="s87:montserrat-lightitalic:3" d=""/><path id="s87:montserrat-lightitalic:47" d="M654-636L254-636L204-387L561-387L548-324L191-324L139-63L551-63L539 0L58 0L198-700L666-700L654-636Z"/><path id="s87:montserrat-lightitalic:579" d="M250 4Q163 4 114.50-38.50Q66-81 66-157Q66-184 72-212L134-524L202-524L141-219Q137-199 137-177Q137-120 171.50-88.50Q206-57 270-57Q351-58 410-108.50Q469-159 487-246L542-524L609-524L506 0L438 0L460-110Q425-55 371.50-26Q318 3 250 4Z"/><path id="s87:montserrat-lightitalic:550" d="M194-407Q232-465 286-495.50Q340-526 407-527L399-462Q317-463 255.50-413.50Q194-364 169-280L113 0L46 0L150-524L218-524L194-407Z"/><path id="s87:montserrat-lightitalic:512" d="M337-527Q408-527 462.50-496.50Q517-466 547-412Q577-358 577-288Q577-205 538.50-139Q500-73 433-35.50Q366 2 284 2Q213 2 159-28.50Q105-59 75-113Q45-167 45-237Q45-320 83.50-386Q122-452 188.50-489.50Q255-527 337-527M331-468Q270-468 220-438.50Q170-409 141.50-357Q113-305 113-240Q113-158 161.50-107Q210-56 290-56Q351-56 401-85Q451-114 479.50-166Q508-218 508-284Q508-366 459.50-417Q411-468 331-468Z"/><path id="s87:montserrat-lightitalic:547" d="M412-528Q478-528 529.50-498.50Q581-469 609.50-416Q638-363 638-295Q638-212 600-143.50Q562-75 497-35.50Q432 4 353 4Q274 4 219.50-35.50Q165-75 147-144L79 194L12 194L155-524L222-524L201-423Q239-473 294-500.50Q349-528 412-528M391-471Q330-471 279.50-439.50Q229-408 199.50-354.50Q170-301 170-237Q170-156 219-106Q268-56 347-56Q408-56 459-87.50Q510-119 540-173Q570-227 570-291Q570-372 520.50-421.50Q471-471 391-471Z"/><path id="s87:montserrat-lightitalic:387" d="M269 4Q203 4 151.50-25.50Q100-55 71.50-108Q43-161 43-229Q43-312 81-380.50Q119-449 184-488.50Q249-528 328-528Q407-528 461.50-489Q516-450 534-381L563-524L630-524L526 0L459 0L480-101Q442-51 387-23.50Q332 4 269 4M290-53Q350-53 401-84.50Q452-116 481.50-170Q511-224 511-288Q511-368 462-418Q413-468 334-468Q273-468 222-436.50Q171-405 141-351Q111-297 111-233Q111-153 160.50-103Q210-53 290-53Z"/><path id="s87:montserrat-lightitalic:501" d="M406-528Q493-528 541.50-485.50Q590-443 590-367Q590-341 584-312L522 0L454 0L515-305Q519-325 519-347Q519-404 484.50-435.50Q450-467 386-467Q305-466 246-415.50Q187-365 169-278L114 0L47 0L150-524L218-524L196-414Q231-469 284.50-498Q338-527 406-528Z"/><path id="s87:montserrat-lightitalic:490" d="M266-742L118 0L51 0L199-742L266-742Z"/><path id="s87:montserrat-lightitalic:454" d="M220 195Q156 195 103 175Q50 155 2 114L36 69Q106 135 216 138Q305 138 361.50 96.50Q418 55 435-23L457-125Q421-78 369.50-52.50Q318-27 260-27Q198-27 149.50-55Q101-83 74-133Q47-183 47-247Q47-325 82.50-389.50Q118-454 179.50-491Q241-528 315-528Q390-528 441-492Q492-456 509-391L537-524L604-524L502-19Q481 84 408 139.50Q335 195 220 195M281-84Q338-84 385.50-113Q433-142 460.50-192Q488-242 488-301Q488-376 442-422Q396-468 322-468Q265-468 217.50-439Q170-410 142.50-360Q115-310 115-251Q115-176 161-130Q207-84 281-84Z"/><path id="s87:montserrat-lightitalic:558" d="M213 7Q146 7 85-19.50Q24-46-9-90L25-135Q56-97 107-73.50Q158-50 213-50Q266-50 300.50-75.50Q335-101 335-142Q335-176 307-196.50Q279-217 223-240Q177-259 148.50-275Q120-291 100-317Q80-343 80-382Q80-449 130.50-489.50Q181-530 260-530Q315-530 364.50-512.50Q414-495 448-466L414-418Q382-443 340.50-458Q299-473 258-473Q209-473 177.50-450Q146-427 146-389Q146-356 173-336.50Q200-317 257-294Q304-275 333.50-259Q363-243 383.50-216Q404-189 404-149Q404-79 350-36Q296 7 213 7Z"/><path id="s87:montserrat-lightitalic:499" d="M814-528Q902-528 950-485.50Q998-443 998-366Q998-341 992-312L929 0L862 0L922-305Q926-325 926-347Q926-404 891-435.50Q856-467 793-467Q714-466 656.50-418Q599-370 579-289L522 0L454 0L515-305Q519-325 519-347Q519-404 484-435.50Q449-467 386-467Q304-466 245-415Q186-364 169-278L114 0L47 0L150-524L218-524L196-414Q231-469 284.50-498Q338-527 406-528Q486-528 533-492.50Q580-457 588-392Q667-526 814-528Z"/><path id="s87:montserrat-lightitalic:414" d="M412-527Q478-527 529.50-497.50Q581-468 609.50-415Q638-362 638-294Q638-211 600-142.50Q562-74 497-34.50Q432 5 353 5Q274 5 219.50-34.50Q165-74 147-143L118 0L51 0L199-742L266-742L201-422Q239-472 294-499.50Q349-527 412-527M391-470Q330-470 279.50-438.50Q229-407 199.50-353.50Q170-300 170-236Q170-155 219-105Q268-55 347-55Q408-55 459-86.50Q510-118 540-172Q570-226 570-290Q570-370 520.50-420Q471-470 391-470Z"/><path id="s87:montserrat-lightitalic:453" d="M369-689Q325-689 289-659Q253-629 243-580L229-510L382-510L372-457L218-457L127 0L60 0L152-457L84-457L94-510L162-510L176-579Q187-631 216-669.50Q245-708 284.50-728.50Q324-749 366-749Q420-749 457-725L434-671Q403-689 369-689Z"/><path id="s87:montserrat-lightitalic:571" d="M161-153Q157-134 157-116Q157-86 170.50-72.50Q184-59 212-59Q257-61 305-89L319-35Q259 1 198 3Q147 3 118-24Q89-51 89-103Q89-121 94-148L156-457L80-457L90-510L166-510L193-644L260-644L233-510L402-510L392-457L222-457L161-153Z"/><path id="s87:montserrat-lightitalic:466" d="M217-524L113 0L46 0L150-524L217-524M222-723Q239-723 249.50-711.50Q260-700 260-683Q260-660 243-643.50Q226-627 203-627Q187-627 176-638.50Q165-650 165-667Q165-690 182-706.50Q199-723 222-723Z"/><path id="s87:montserrat-lightitalic:609" d="M549-524L187 78Q152 137 107 167Q62 197 13 197Q-48 197-92 159L-56 109Q-28 132 13 132Q80 132 135 48L168-3L55-524L125-524L214-73L478-524L549-524Z"/><path id="s87:montserrat-lightitalic:1278" d="M57-84Q75-84 86.50-72.50Q98-61 98-42Q98-22 83.50-7Q69 8 49 8Q31 8 20-3.50Q9-15 9-34Q9-55 23-69.50Q37-84 57-84Z"/><path id="s87:montserrat-lightitalic:608" d="M167-524L270-317L460-524L536-524L307-270L443 0L366 0L255-223L48 0L-30 0L218-270L90-524L167-524Z"/><path id="s87:montserrat-lightitalic:415" d="M279 2Q210 2 157-28Q104-58 74.50-112Q45-166 45-236Q45-319 83-385.50Q121-452 186.50-489.50Q252-527 332-527Q392-527 441-507Q490-487 522-451L480-405Q421-467 329-467Q269-467 219-438Q169-409 140.50-357.50Q112-306 112-241Q112-159 160.50-108Q209-57 288-57Q340-57 384-74.50Q428-92 460-126L495-86Q455-44 400-21Q345 2 279 2Z"/><path id="s87:montserrat-lightitalic:70" d="M623-636L254-636L200-369L530-369L518-306L188-306L127 0L58 0L198-700L636-700L623-636Z"/><path id="s87:montserrat-lightitalic:1273" d="M50-82Q66-82 78-71Q90-60 90-43Q90-31 86.50-23Q83-15 74 1L14 110L-26 110L23 2Q2-10 2-35Q2-54 16-68Q30-82 50-82Z"/></defs><g id="line-0"><use x="0" y="842.5" xlink:href="#s87:montserrat-lightitalic:187" /><use x="553" y="842.5" xlink:href="#s87:montserrat-lightitalic:461" /><use x="1215" y="842.5" xlink:href="#s87:montserrat-lightitalic:429" /><use x="1814" y="842.5" xlink:href="#s87:montserrat-lightitalic:3" /><use x="2089" y="842.5" xlink:href="#s87:montserrat-lightitalic:47" /><use x="2739" y="842.5" xlink:href="#s87:montserrat-lightitalic:579" /><use x="3395" y="842.5" xlink:href="#s87:montserrat-lightitalic:550" /><use x="3763" y="842.5" xlink:href="#s87:montserrat-lightitalic:512" /><use x="4384" y="842.5" xlink:href="#s87:montserrat-lightitalic:547" /><use x="5065" y="842.5" xlink:href="#s87:montserrat-lightitalic:429" /><use x="5664" y="842.5" xlink:href="#s87:montserrat-lightitalic:387" /><use x="6340" y="842.5" xlink:href="#s87:montserrat-lightitalic:501" /><use x="6996" y="842.5" xlink:href="#s87:montserrat-lightitalic:3" /><use x="7271" y="842.5" xlink:href="#s87:montserrat-lightitalic:490" /><use x="7544" y="842.5" xlink:href="#s87:montserrat-lightitalic:387" /><use x="8220" y="842.5" xlink:href="#s87:montserrat-lightitalic:501" /><use x="8876" y="842.5" xlink:href="#s87:montserrat-lightitalic:454" /><use x="9512" y="842.5" xlink:href="#s87:montserrat-lightitalic:579" /><use x="10168" y="842.5" xlink:href="#s87:montserrat-lightitalic:387" /><use x="10844" y="842.5" xlink:href="#s87:montserrat-lightitalic:454" /><use x="11480" y="842.5" xlink:href="#s87:montserrat-lightitalic:429" /><use x="12079" y="842.5" xlink:href="#s87:montserrat-lightitalic:558" /><use x="12543" y="842.5" xlink:href="#s87:montserrat-lightitalic:3" /><use x="12818" y="842.5" xlink:href="#s87:montserrat-lightitalic:387" /><use x="13494" y="842.5" xlink:href="#s87:montserrat-lightitalic:550" /><use x="13862" y="842.5" xlink:href="#s87:montserrat-lightitalic:429" /><use x="14461" y="842.5" xlink:href="#s87:montserrat-lightitalic:3" /><use x="14736" y="842.5" xlink:href="#s87:montserrat-lightitalic:499" /><use x="15799" y="842.5" xlink:href="#s87:montserrat-lightitalic:429" /><use x="16398" y="842.5" xlink:href="#s87:montserrat-lightitalic:499" /><use x="17461" y="842.5" xlink:href="#s87:montserrat-lightitalic:414" /><use x="18142" y="842.5" xlink:href="#s87:montserrat-lightitalic:429" /><use x="18741" y="842.5" xlink:href="#s87:montserrat-lightitalic:550" /><use x="19109" y="842.5" xlink:href="#s87:montserrat-lightitalic:558" /><use x="19573" y="842.5" xlink:href="#s87:montserrat-lightitalic:3" /><use x="19848" y="842.5" xlink:href="#s87:montserrat-lightitalic:512" /><use x="20469" y="842.5" xlink:href="#s87:montserrat-lightitalic:453" /><use x="20788" y="842.5" xlink:href="#s87:montserrat-lightitalic:3" /><use x="21063" y="842.5" xlink:href="#s87:montserrat-lightitalic:571" /><use x="21449" y="842.5" xlink:href="#s87:montserrat-lightitalic:461" /><use x="22111" y="842.5" xlink:href="#s87:montserrat-lightitalic:429" /><use x="22710" y="842.5" xlink:href="#s87:montserrat-lightitalic:3" /><use x="22985" y="842.5" xlink:href="#s87:montserrat-lightitalic:558" /><use x="23449" y="842.5" xlink:href="#s87:montserrat-lightitalic:387" /><use x="24125" y="842.5" xlink:href="#s87:montserrat-lightitalic:499" /><use x="25188" y="842.5" xlink:href="#s87:montserrat-lightitalic:429" /><use x="25787" y="842.5" xlink:href="#s87:montserrat-lightitalic:3" /><use x="26062" y="842.5" xlink:href="#s87:montserrat-lightitalic:453" /><use x="26381" y="842.5" xlink:href="#s87:montserrat-lightitalic:387" /><use x="27057" y="842.5" xlink:href="#s87:montserrat-lightitalic:499" /><use x="28120" y="842.5" xlink:href="#s87:montserrat-lightitalic:466" /><use x="28383" y="842.5" xlink:href="#s87:montserrat-lightitalic:490" /><use x="28656" y="842.5" xlink:href="#s87:montserrat-lightitalic:609" /><use x="29150" y="842.5" xlink:href="#s87:montserrat-lightitalic:1278" /></g><g id="line-1"><use x="6102" y="2042.5" xlink:href="#s87:montserrat-lightitalic:187" /><use x="6655" y="2042.5" xlink:href="#s87:montserrat-lightitalic:461" /><use x="7317" y="2042.5" xlink:href="#s87:montserrat-lightitalic:429" /><use x="7916" y="2042.5" xlink:href="#s87:montserrat-lightitalic:466" /><use x="8179" y="2042.5" xlink:href="#s87:montserrat-lightitalic:550" /><use x="8547" y="2042.5" xlink:href="#s87:montserrat-lightitalic:3" /><use x="8822" y="2042.5" xlink:href="#s87:montserrat-lightitalic:558" /><use x="9286" y="2042.5" xlink:href="#s87:montserrat-lightitalic:429" /><use x="9885" y="2042.5" xlink:href="#s87:montserrat-lightitalic:547" /><use x="10566" y="2042.5" xlink:href="#s87:montserrat-lightitalic:387" /><use x="11242" y="2042.5" xlink:href="#s87:montserrat-lightitalic:550" /><use x="11610" y="2042.5" xlink:href="#s87:montserrat-lightitalic:387" /><use x="12286" y="2042.5" xlink:href="#s87:montserrat-lightitalic:571" /><use x="12672" y="2042.5" xlink:href="#s87:montserrat-lightitalic:429" /><use x="13271" y="2042.5" xlink:href="#s87:montserrat-lightitalic:3" /><use x="13546" y="2042.5" xlink:href="#s87:montserrat-lightitalic:429" /><use x="14145" y="2042.5" xlink:href="#s87:montserrat-lightitalic:608" /><use x="14667" y="2042.5" xlink:href="#s87:montserrat-lightitalic:466" /><use x="14930" y="2042.5" xlink:href="#s87:montserrat-lightitalic:558" /><use x="15394" y="2042.5" xlink:href="#s87:montserrat-lightitalic:571" /><use x="15780" y="2042.5" xlink:href="#s87:montserrat-lightitalic:429" /><use x="16379" y="2042.5" xlink:href="#s87:montserrat-lightitalic:501" /><use x="17035" y="2042.5" xlink:href="#s87:montserrat-lightitalic:415" /><use x="17616" y="2042.5" xlink:href="#s87:montserrat-lightitalic:429" /><use x="18215" y="2042.5" xlink:href="#s87:montserrat-lightitalic:3" /><use x="18490" y="2042.5" xlink:href="#s87:montserrat-lightitalic:466" /><use x="18753" y="2042.5" xlink:href="#s87:montserrat-lightitalic:558" /><use x="19217" y="2042.5" xlink:href="#s87:montserrat-lightitalic:3" /><use x="19492" y="2042.5" xlink:href="#s87:montserrat-lightitalic:387" /><use x="20168" y="2042.5" xlink:href="#s87:montserrat-lightitalic:3" /><use x="20443" y="2042.5" xlink:href="#s87:montserrat-lightitalic:499" /><use x="21506" y="2042.5" xlink:href="#s87:montserrat-lightitalic:609" /><use x="22000" y="2042.5" xlink:href="#s87:montserrat-lightitalic:571" /><use x="22386" y="2042.5" xlink:href="#s87:montserrat-lightitalic:461" /><use x="23048" y="2042.5" xlink:href="#s87:montserrat-lightitalic:1278" /></g><g id="line-2"><use x="7550.5" y="3242.5" xlink:href="#s87:montserrat-lightitalic:70" /><use x="8110.5" y="3242.5" xlink:href="#s87:montserrat-lightitalic:512" /><use x="8731.5" y="3242.5" xlink:href="#s87:montserrat-lightitalic:550" /><use x="9099.5" y="3242.5" xlink:href="#s87:montserrat-lightitalic:3" /><use x="9374.5" y="3242.5" xlink:href="#s87:montserrat-lightitalic:558" /><use x="9838.5" y="3242.5" xlink:href="#s87:montserrat-lightitalic:415" /><use x="10419.5" y="3242.5" xlink:href="#s87:montserrat-lightitalic:466" /><use x="10682.5" y="3242.5" xlink:href="#s87:montserrat-lightitalic:429" /><use x="11281.5" y="3242.5" xlink:href="#s87:montserrat-lightitalic:501" /><use x="11937.5" y="3242.5" xlink:href="#s87:montserrat-lightitalic:415" /><use x="12518.5" y="3242.5" xlink:href="#s87:montserrat-lightitalic:429" /><use x="13117.5" y="3242.5" xlink:href="#s87:montserrat-lightitalic:1273" /><use x="13301.5" y="3242.5" xlink:href="#s87:montserrat-lightitalic:3" /><use x="13576.5" y="3242.5" xlink:href="#s87:montserrat-lightitalic:499" /><use x="14639.5" y="3242.5" xlink:href="#s87:montserrat-lightitalic:579" /><use x="15295.5" y="3242.5" xlink:href="#s87:montserrat-lightitalic:558" /><use x="15759.5" y="3242.5" xlink:href="#s87:montserrat-lightitalic:466" /><use x="16022.5" y="3242.5" xlink:href="#s87:montserrat-lightitalic:415" /><use x="16603.5" y="3242.5" xlink:href="#s87:montserrat-lightitalic:1273" /><use x="16787.5" y="3242.5" xlink:href="#s87:montserrat-lightitalic:3" /><use x="17062.5" y="3242.5" xlink:href="#s87:montserrat-lightitalic:558" /><use x="17526.5" y="3242.5" xlink:href="#s87:montserrat-lightitalic:547" /><use x="18207.5" y="3242.5" xlink:href="#s87:montserrat-lightitalic:512" /><use x="18828.5" y="3242.5" xlink:href="#s87:montserrat-lightitalic:550" /><use x="19196.5" y="3242.5" xlink:href="#s87:montserrat-lightitalic:571" /><use x="19582.5" y="3242.5" xlink:href="#s87:montserrat-lightitalic:1273" /><use x="19766.5" y="3242.5" xlink:href="#s87:montserrat-lightitalic:3" /><use x="20041.5" y="3242.5" xlink:href="#s87:montserrat-lightitalic:429" /><use x="20640.5" y="3242.5" xlink:href="#s87:montserrat-lightitalic:571" /><use x="21026.5" y="3242.5" xlink:href="#s87:montserrat-lightitalic:415" /><use x="21607.5" y="3242.5" xlink:href="#s87:montserrat-lightitalic:1273" /></g></svg>