<svg xmlns="http://www.w3.org/2000/svg" xmlns:xlink="http://www.w3.org/1999/xlink" width="693" height="84" viewBox="0 0 28872 3493.5" ><defs><path id="s94:montserrat-thinitalic:187" d="M601-699L597-679L357-679L221 0L201 0L337-679L97-679L101-699L601-699Z"/><path id="s94:montserrat-thinitalic:461" d="M403-517Q486-517 530.50-477.50Q575-438 575-366Q575-342 569-313L507 0L487 0L549-313Q554-341 554-362Q554-427 515-462Q476-497 403-497Q302-495 230.50-434Q159-373 138-266L86 0L66 0L212-742L232-742L159-368Q197-438 260-476.50Q323-515 403-517Z"/><path id="s94:montserrat-thinitalic:429" d="M74-259Q73-251 73-235Q73-172 99-123Q125-74 172-47Q219-20 280-20Q336-20 385.50-39.50Q435-59 470-95L483-81Q444-42 390.50-21Q337 0 278 0Q212 0 161-30Q110-60 81.50-113Q53-166 53-234Q53-314 90-378.50Q127-443 190-480Q253-517 329-517Q395-517 444-488.50Q493-460 519-408.50Q545-357 545-291Q545-270 544-259L74-259M327-497Q263-497 209.50-469.50Q156-442 120.50-392.50Q85-343 76-279L526-279Q528-377 475-437Q422-497 327-497Z"/><path id="s94:montserrat-thinitalic:3" d=""/><path id="s94:montserrat-thinitalic:47" d="M649-679L232-679L170-370L541-370L537-350L166-350L100-20L531-20L527 0L76 0L216-699L653-699L649-679Z"/><path id="s94:montserrat-thinitalic:579" d="M249 0Q166 0 121.50-39.50Q77-79 77-151Q77-176 83-204L145-517L165-517L103-204Q98-176 98-155Q98-90 137-55Q176-20 249-20Q350-22 421.50-83Q493-144 514-251L566-517L586-517L484 0L464 0L493-149Q455-79 392-40.50Q329-2 249 0Z"/><path id="s94:montserrat-thinitalic:550" d="M154-377Q191-443 248.50-479.50Q306-516 379-517L377-497Q290-495 226.50-439Q163-383 136-284L79 0L59 0L162-517L182-517L154-377Z"/><path id="s94:montserrat-thinitalic:512" d="M331-517Q397-517 448.50-487Q500-457 529-404Q558-351 558-284Q558-204 521-139Q484-74 420-37Q356 0 280 0Q214 0 162.50-30Q111-60 82-113Q53-166 53-234Q53-314 90-378.50Q127-443 191-480Q255-517 331-517M329-497Q258-497 199.50-463.50Q141-430 107-370Q73-310 73-235Q73-172 99-123Q125-74 172.50-47Q220-20 282-20Q353-20 411.50-53.50Q470-87 504-147Q538-207 538-283Q538-345 512-394Q486-443 438.50-470Q391-497 329-497Z"/><path id="s94:montserrat-thinitalic:547" d="M394-519Q461-519 513.50-490.50Q566-462 595.50-410.50Q625-359 625-293Q625-212 587.50-144.50Q550-77 486-37.50Q422 2 346 2Q258 2 196-47Q134-96 119-177L45 194L25 194L167-517L187-517L161-389Q200-451 261.50-485Q323-519 394-519M392-499Q322-499 263-462.50Q204-426 169.50-363.50Q135-301 135-227Q135-166 162-118.50Q189-71 237.50-44.50Q286-18 348-18Q418-18 477-54.50Q536-91 570.50-153.50Q605-216 605-290Q605-351 578-398.50Q551-446 502.50-472.50Q454-499 392-499Z"/><path id="s94:montserrat-thinitalic:387" d="M282 2Q215 2 162.50-26.50Q110-55 80.50-106.50Q51-158 51-224Q51-305 88.50-372.50Q126-440 190-479.50Q254-519 330-519Q418-519 480-470Q542-421 557-340L592-517L612-517L509 0L489 0L515-128Q476-66 414.50-32Q353 2 282 2M284-18Q354-18 413-54.50Q472-91 506.50-153.50Q541-216 541-290Q541-351 514-398.50Q487-446 438.50-472.50Q390-499 328-499Q258-499 199-462.50Q140-426 105.50-363.50Q71-301 71-227Q71-166 98-118.50Q125-71 173.50-44.50Q222-18 284-18Z"/><path id="s94:montserrat-thinitalic:501" d="M397-517Q480-517 524.50-477.50Q569-438 569-366Q569-342 563-313L501 0L481 0L543-313Q548-341 548-362Q548-427 509-462Q470-497 397-497Q296-495 224.50-434Q153-373 132-266L80 0L60 0L162-517L182-517L153-368Q191-438 254-476.50Q317-515 397-517Z"/><path id="s94:montserrat-thinitalic:490" d="M232-742L84 0L64 0L212-742L232-742Z"/><path id="s94:montserrat-thinitalic:454" d="M222 193Q154 191 103 169Q52 147 9 102L24 90Q62 131 110 151Q158 171 222 173Q319 174 384 122Q449 70 468-24L493-151Q456-93 398-61Q340-29 273-29Q210-29 160.50-56Q111-83 83-131.50Q55-180 55-242Q55-318 90.50-381.50Q126-445 186.50-482Q247-519 319-519Q402-519 460.50-473.50Q519-428 533-352L566-517L586-517L488-22Q468 80 398 137Q328 194 222 193M276-49Q342-49 397.50-83Q453-117 485.50-175.50Q518-234 518-303Q518-361 492.50-405.50Q467-450 421.50-474.50Q376-499 317-499Q251-499 195.50-465Q140-431 107.50-372.50Q75-314 75-245Q75-188 100.50-143.50Q126-99 171.50-74Q217-49 276-49Z"/><path id="s94:montserrat-thinitalic:558" d="M202 10Q136 10 81-15.50Q26-41-5-85L11-99Q42-58 92-35.50Q142-13 204-13Q272-13 316-46Q360-79 360-135Q360-176 327.50-200Q295-224 230-252Q182-273 154-288.50Q126-304 106.50-328.50Q87-353 87-387Q87-451 134.50-487.50Q182-524 255-524Q346-524 419-470L406-454Q379-477 339.50-489.50Q300-502 252-502Q188-502 148-472.50Q108-443 108-390Q108-349 140.50-325.50Q173-302 238-275Q286-255 314.50-239.50Q343-224 362.50-199Q382-174 382-139Q382-71 331-31Q280 9 202 10Z"/><path id="s94:montserrat-thinitalic:499" d="M818-517Q901-517 945.50-477.50Q990-438 990-366Q990-342 984-313L922 0L902 0L964-313Q969-341 969-362Q969-426 930-461.50Q891-497 818-497Q721-495 652.50-439.50Q584-384 558-289L501 0L481 0L543-313Q548-341 548-362Q548-426 509-461.50Q470-497 397-497Q294-495 223-433Q152-371 132-266L80 0L60 0L162-517L182-517L153-368Q191-438 254-476.50Q317-515 397-517Q481-517 525.50-475.50Q570-434 568-359Q606-434 670-474.50Q734-515 818-517Z"/><path id="s94:montserrat-thinitalic:414" d="M394-519Q461-519 513.50-490.50Q566-462 595.50-410.50Q625-359 625-293Q625-212 587.50-144.50Q550-77 486-37.50Q422 2 346 2Q258 2 196-47Q134-96 119-177L84 0L64 0L212-742L232-742L161-389Q200-451 261.50-485Q323-519 394-519M392-499Q322-499 263-462.50Q204-426 169.50-363.50Q135-301 135-227Q135-166 162-118.50Q189-71 237.50-44.50Q286-18 348-18Q418-18 477-54.50Q536-91 570.50-153.50Q605-216 605-290Q605-351 578-398.50Q551-446 502.50-472.50Q454-499 392-499Z"/><path id="s94:montserrat-thinitalic:453" d="M355-752Q402-752 439-728L427-712Q394-732 360-732Q306-732 261-691Q216-650 204-589L188-507L355-507L351-487L184-487L86 0L66 0L163-487L98-487L102-507L167-507L184-591Q193-635 218.50-672Q244-709 280.50-730.50Q317-752 355-752Z"/><path id="s94:montserrat-thinitalic:571" d="M123-141Q118-113 118-95Q118-20 184-20Q237-20 285-53L295-37Q239 0 185 0Q142 0 120-23.50Q98-47 98-92Q98-115 104-143L173-487L96-487L100-507L177-507L201-630L221-630L196-507L378-507L374-487L192-487L123-141Z"/><path id="s94:montserrat-thinitalic:466" d="M182-517L79 0L59 0L162-517L182-517M207-692Q216-692 222-685.50Q228-679 228-670Q228-658 218-649Q208-640 196-640Q187-640 181-646.50Q175-653 175-662Q175-674 185-683Q195-692 207-692Z"/><path id="s94:montserrat-thinitalic:609" d="M508-517L148 76Q113 133 72.50 163.50Q32 194-9 194Q-64 194-98 168L-86 151Q-57 174-11 174Q27 174 64.50 146Q102 118 133 67L173 2L62-517L85-517L188-23L484-517L508-517Z"/><path id="s94:montserrat-thinitalic:1278" d="M40-45Q51-45 57.50-38.50Q64-32 64-21Q64-10 55.50-1.50Q47 7 36 7Q26 7 19 0Q12-7 12-17Q12-28 20.50-36.50Q29-45 40-45Z"/><path id="s94:montserrat-thinitalic:608" d="M121-517L247-284L467-517L491-517L257-268L402 0L377 0L241-251L4 0L-21 0L232-268L97-517L121-517Z"/><path id="s94:montserrat-thinitalic:415" d="M280 0Q214 0 162.50-30Q111-60 82-113Q53-166 53-234Q53-314 90-378.50Q127-443 191-480Q255-517 331-517Q382-517 425.50-499Q469-481 500-448L486-434Q423-497 329-497Q258-497 199-463.50Q140-430 106-370Q72-310 72-235Q72-172 98.50-123Q125-74 172.50-47Q220-20 282-20Q335-20 381.50-39.50Q428-59 463-95L475-81Q437-42 386.50-21Q336 0 280 0Z"/><path id="s94:montserrat-thinitalic:70" d="M619-679L232-679L165-343L506-343L502-323L161-323L96 0L76 0L216-699L623-699L619-679Z"/><path id="s94:montserrat-thinitalic:1273" d="M37-45Q47-45 54-38.50Q61-32 61-22Q61-11 51 7L-1 110L-21 110L26 6Q19 5 14-2Q9-9 9-17Q9-28 17.50-36.50Q26-45 37-45Z"/></defs><g id="line-0"><use x="0" y="842.5" xlink:href="#s94:montserrat-thinitalic:187" /><use x="526" y="842.5" xlink:href="#s94:montserrat-thinitalic:461" /><use x="1178" y="842.5" xlink:href="#s94:montserrat-thinitalic:429" /><use x="1770" y="842.5" xlink:href="#s94:montserrat-thinitalic:3" /><use x="2067" y="842.5" xlink:href="#s94:montserrat-thinitalic:47" /><use x="2711" y="842.5" xlink:href="#s94:montserrat-thinitalic:579" /><use x="3357" y="842.5" xlink:href="#s94:montserrat-thinitalic:550" /><use x="3696" y="842.5" xlink:href="#s94:montserrat-thinitalic:512" /><use x="4307" y="842.5" xlink:href="#s94:montserrat-thinitalic:547" /><use x="4983" y="842.5" xlink:href="#s94:montserrat-thinitalic:429" /><use x="5575" y="842.5" xlink:href="#s94:montserrat-thinitalic:387" /><use x="6246" y="842.5" xlink:href="#s94:montserrat-thinitalic:501" /><use x="6892" y="842.5" xlink:href="#s94:montserrat-thinitalic:3" /><use x="7189" y="842.5" xlink:href="#s94:montserrat-thinitalic:490" /><use x="7440" y="842.5" xlink:href="#s94:montserrat-thinitalic:387" /><use x="8111" y="842.5" xlink:href="#s94:montserrat-thinitalic:501" /><use x="8757" y="842.5" xlink:href="#s94:montserrat-thinitalic:454" /><use x="9386" y="842.5" xlink:href="#s94:montserrat-thinitalic:579" /><use x="10032" y="842.5" xlink:href="#s94:montserrat-thinitalic:387" /><use x="10703" y="842.5" xlink:href="#s94:montserrat-thinitalic:454" /><use x="11332" y="842.5" xlink:href="#s94:montserrat-thinitalic:429" /><use x="11924" y="842.5" xlink:href="#s94:montserrat-thinitalic:558" /><use x="12371" y="842.5" xlink:href="#s94:montserrat-thinitalic:3" /><use x="12668" y="842.5" xlink:href="#s94:montserrat-thinitalic:387" /><use x="13339" y="842.5" xlink:href="#s94:montserrat-thinitalic:550" /><use x="13678" y="842.5" xlink:href="#s94:montserrat-thinitalic:429" /><use x="14270" y="842.5" xlink:href="#s94:montserrat-thinitalic:3" /><use x="14567" y="842.5" xlink:href="#s94:montserrat-thinitalic:499" /><use x="15634" y="842.5" xlink:href="#s94:montserrat-thinitalic:429" /><use x="16226" y="842.5" xlink:href="#s94:montserrat-thinitalic:499" /><use x="17293" y="842.5" xlink:href="#s94:montserrat-thinitalic:414" /><use x="17969" y="842.5" xlink:href="#s94:montserrat-thinitalic:429" /><use x="18561" y="842.5" xlink:href="#s94:montserrat-thinitalic:550" /><use x="18900" y="842.5" xlink:href="#s94:montserrat-thinitalic:558" /><use x="19347" y="842.5" xlink:href="#s94:montserrat-thinitalic:3" /><use x="19644" y="842.5" xlink:href="#s94:montserrat-thinitalic:512" /><use x="20255" y="842.5" xlink:href="#s94:montserrat-thinitalic:453" /><use x="20551" y="842.5" xlink:href="#s94:montserrat-thinitalic:3" /><use x="20848" y="842.5" xlink:href="#s94:montserrat-thinitalic:571" /><use x="21211" y="842.5" xlink:href="#s94:montserrat-thinitalic:461" /><use x="21863" y="842.5" xlink:href="#s94:montserrat-thinitalic:429" /><use x="22455" y="842.5" xlink:href="#s94:montserrat-thinitalic:3" /><use x="22752" y="842.5" xlink:href="#s94:montserrat-thinitalic:558" /><use x="23199" y="842.5" xlink:href="#s94:montserrat-thinitalic:387" /><use x="23870" y="842.5" xlink:href="#s94:montserrat-thinitalic:499" /><use x="24937" y="842.5" xlink:href="#s94:montserrat-thinitalic:429" /><use x="25529" y="842.5" xlink:href="#s94:montserrat-thinitalic:3" /><use x="25826" y="842.5" xlink:href="#s94:montserrat-thinitalic:453" /><use x="26122" y="842.5" xlink:href="#s94:montserrat-thinitalic:387" /><use x="26793" y="842.5" xlink:href="#s94:montserrat-thinitalic:499" /><use x="27860" y="842.5" xlink:href="#s94:montserrat-thinitalic:466" /><use x="28101" y="842.5" xlink:href="#s94:montserrat-thinitalic:490" /><use x="28352" y="842.5" xlink:href="#s94:montserrat-thinitalic:609" /><use x="28808" y="842.5" xlink:href="#s94:montserrat-thinitalic:1278" /></g><g id="line-1"><use x="6093" y="2042.5" xlink:href="#s94:montserrat-thinitalic:187" /><use x="6619" y="2042.5" xlink:href="#s94:montserrat-thinitalic:461" /><use x="7271" y="2042.5" xlink:href="#s94:montserrat-thinitalic:429" /><use x="7863" y="2042.5" xlink:href="#s94:montserrat-thinitalic:466" /><use x="8104" y="2042.5" xlink:href="#s94:montserrat-thinitalic:550" /><use x="8443" y="2042.5" xlink:href="#s94:montserrat-thinitalic:3" /><use x="8740" y="2042.5" xlink:href="#s94:montserrat-thinitalic:558" /><use x="9187" y="2042.5" xlink:href="#s94:montserrat-thinitalic:429" /><use x="9779" y="2042.5" xlink:href="#s94:montserrat-thinitalic:547" /><use x="10455" y="2042.5" xlink:href="#s94:montserrat-thinitalic:387" /><use x="11126" y="2042.5" xlink:href="#s94:montserrat-thinitalic:550" /><use x="11465" y="2042.5" xlink:href="#s94:montserrat-thinitalic:387" /><use x="12136" y="2042.5" xlink:href="#s94:montserrat-thinitalic:571" /><use x="12499" y="2042.5" xlink:href="#s94:montserrat-thinitalic:429" /><use x="13091" y="2042.5" xlink:href="#s94:montserrat-thinitalic:3" /><use x="13388" y="2042.5" xlink:href="#s94:montserrat-thinitalic:429" /><use x="13980" y="2042.5" xlink:href="#s94:montserrat-thinitalic:608" /><use x="14469" y="2042.5" xlink:href="#s94:montserrat-thinitalic:466" /><use x="14710" y="2042.5" xlink:href="#s94:montserrat-thinitalic:558" /><use x="15157" y="2042.5" xlink:href="#s94:montserrat-thinitalic:571" /><use x="15520" y="2042.5" xlink:href="#s94:montserrat-thinitalic:429" /><use x="16112" y="2042.5" xlink:href="#s94:montserrat-thinitalic:501" /><use x="16758" y="2042.5" xlink:href="#s94:montserrat-thinitalic:415" /><use x="17335" y="2042.5" xlink:href="#s94:montserrat-thinitalic:429" /><use x="17927" y="2042.5" xlink:href="#s94:montserrat-thinitalic:3" /><use x="18224" y="2042.5" xlink:href="#s94:montserrat-thinitalic:466" /><use x="18465" y="2042.5" xlink:href="#s94:montserrat-thinitalic:558" /><use x="18912" y="2042.5" xlink:href="#s94:montserrat-thinitalic:3" /><use x="19209" y="2042.5" xlink:href="#s94:montserrat-thinitalic:387" /><use x="19880" y="2042.5" xlink:href="#s94:montserrat-thinitalic:3" /><use x="20177" y="2042.5" xlink:href="#s94:montserrat-thinitalic:499" /><use x="21244" y="2042.5" xlink:href="#s94:montserrat-thinitalic:609" /><use x="21700" y="2042.5" xlink:href="#s94:montserrat-thinitalic:571" /><use x="22063" y="2042.5" xlink:href="#s94:montserrat-thinitalic:461" /><use x="22715" y="2042.5" xlink:href="#s94:montserrat-thinitalic:1278" /></g><g id="line-2"><use x="7510.5" y="3242.5" xlink:href="#s94:montserrat-thinitalic:70" /><use x="8055.5" y="3242.5" xlink:href="#s94:montserrat-thinitalic:512" /><use x="8666.5" y="3242.5" xlink:href="#s94:montserrat-thinitalic:550" /><use x="9005.5" y="3242.5" xlink:href="#s94:montserrat-thinitalic:3" /><use x="9302.5" y="3242.5" xlink:href="#s94:montserrat-thinitalic:558" /><use x="9749.5" y="3242.5" xlink:href="#s94:montserrat-thinitalic:415" /><use x="10326.5" y="3242.5" xlink:href="#s94:montserrat-thinitalic:466" /><use x="10567.5" y="3242.5" xlink:href="#s94:montserrat-thinitalic:429" /><use x="11159.5" y="3242.5" xlink:href="#s94:montserrat-thinitalic:501" /><use x="11805.5" y="3242.5" xlink:href="#s94:montserrat-thinitalic:415" /><use x="12382.5" y="3242.5" xlink:href="#s94:montserrat-thinitalic:429" /><use x="12974.5" y="3242.5" xlink:href="#s94:montserrat-thinitalic:1273" /><use x="13137.5" y="3242.5" xlink:href="#s94:montserrat-thinitalic:3" /><use x="13434.5" y="3242.5" xlink:href="#s94:montserrat-thinitalic:499" /><use x="14501.5" y="3242.5" xlink:href="#s94:montserrat-thinitalic:579" /><use x="15147.5" y="3242.5" xlink:href="#s94:montserrat-thinitalic:558" /><use x="15594.5" y="3242.5" xlink:href="#s94:montserrat-thinitalic:466" /><use x="15835.5" y="3242.5" xlink:href="#s94:montserrat-thinitalic:415" /><use x="16412.5" y="3242.5" xlink:href="#s94:montserrat-thinitalic:1273" /><use x="16575.5" y="3242.5" xlink:href="#s94:montserrat-thinitalic:3" /><use x="16872.5" y="3242.5" xlink:href="#s94:montserrat-thinitalic:558" /><use x="17319.5" y="3242.5" xlink:href="#s94:montserrat-thinitalic:547" /><use x="17995.5" y="3242.5" xlink:href="#s94:montserrat-thinitalic:512" /><use x="18606.5" y="3242.5" xlink:href="#s94:montserrat-thinitalic:550" /><use x="18945.5" y="3242.5" xlink:href="#s94:montserrat-thinitalic:571" /><use x="19308.5" y="3242.5" xlink:href="#s94:montserrat-thinitalic:1273" /><use x="19471.5" y="3242.5" xlink:href="#s94:montserrat-thinitalic:3" /><use x="19768.5" y="3242.5" xlink:href="#s94:montserrat-thinitalic:429" /><use x="20360.5" y="3242.5" xlink:href="#s94:montserrat-thinitalic:571" /><use x="20723.5" y="3242.5" xlink:href="#s94:montserrat-thinitalic:415" /><use x="21300.5" y="3242.5" xlink:href="#s94:montserrat-thinitalic:1273" /></g></svg>