<svg xmlns="http://www.w3.org/2000/svg" xmlns:xlink="http://www.w3.org/1999/xlink" width="695" height="84" viewBox="0 0 28959 3493.5" ><defs><path id="s88:montserrat-medium:283" d="M8-700L579-700L579-581L361-581L361 0L226 0L226-581L8-581L8-700Z"/><path id="s88:montserrat-medium:515" d="M409-540Q501-540 554-484.50Q607-429 607-334L607 0L476 0L476-296Q476-352 444-384.50Q412-417 357-417Q292-416 254-373Q216-330 216-263L216 0L86 0L86-742L216-742L216-433Q271-538 409-540Z"/><path id="s88:montserrat-medium:457" d="M304-539Q432-539 496.50-466Q561-393 561-261Q561-235 560-222L165-222Q178-165 218.50-132.50Q259-100 318-100Q359-100 396.50-115.50Q434-131 462-160L532-87Q492-43 434.50-19Q377 5 307 5Q225 5 162.50-29Q100-63 66-124.50Q32-186 32-266Q32-346 66.50-408Q101-470 163-504.50Q225-539 304-539M442-309Q440-368 403-403Q366-438 305-438Q248-438 209.50-403.50Q171-369 162-309L442-309Z"/><path id="s88:montserrat-medium:3" d=""/><path id="s88:montserrat-medium:75" d="M86-700L599-700L599-583L220-583L220-410L560-410L560-293L220-293L220-117L611-117L611 0L86 0L86-700Z"/><path id="s88:montserrat-medium:653" d="M575-535L575 0L444 0L444-99Q390 5 258 5Q168 5 116-50Q64-105 64-200L64-535L195-535L195-238Q195-182 225.50-150Q256-118 310-118Q372-119 408-162Q444-205 444-271L444-535L575-535Z"/><path id="s88:montserrat-medium:616" d="M211-432Q238-484 284.50-511.50Q331-539 393-540L393-414Q310-419 260.50-375.50Q211-332 211-258L211 0L81 0L81-535L211-535L211-432Z"/><path id="s88:montserrat-medium:577" d="M315-539Q398-539 461.50-505Q525-471 560.50-409.50Q596-348 596-268Q596-187 560.50-125Q525-63 461.50-29Q398 5 315 5Q231 5 167-29Q103-63 67.50-125Q32-187 32-268Q32-348 67.50-409.50Q103-471 167-505Q231-539 315-539M315-428Q247-428 205-383Q163-338 163-266Q163-194 205-149Q247-104 315-104Q381-104 423-149Q465-194 465-266Q465-338 423-383Q381-428 315-428Z"/><path id="s88:montserrat-medium:613" d="M396-539Q471-539 528.50-504.50Q586-470 617.50-408Q649-346 649-265Q649-185 618-124Q587-63 530-29Q473 5 398 5Q338 5 292-18.50Q246-42 216-87L216 194L86 194L86-535L216-535L216-447Q245-492 290.50-515.50Q336-539 396-539M367-107Q433-107 475-152.50Q517-198 517-269Q517-340 475-385Q433-430 367-430Q300-430 258-385Q216-340 216-269Q216-197 258-152Q300-107 367-107Z"/><path id="s88:montserrat-medium:387" d="M397 0L397-65Q369-30 325-12Q281 6 224 6Q168 6 125.50-15.50Q83-37 60-75Q37-113 37-160Q37-235 90-277.50Q143-320 240-321L396-321L396-335Q396-382 365-408Q334-434 275-434Q199-434 116-384L69-474Q132-509 183.50-524.50Q235-540 304-540Q408-540 465.50-490Q523-440 524-350L525 0L397 0M255-94Q311-94 351-120.50Q391-147 396-186L396-234L261-234Q209-234 184.50-218.50Q160-203 160-168Q160-134 185.50-114Q211-94 255-94Z"/><path id="s88:montserrat-medium:566" d="M403-540Q495-540 548-484.50Q601-429 601-334L601 0L470 0L470-296Q470-352 438-384.50Q406-417 351-417Q286-416 248.50-373Q211-330 211-263L211 0L81 0L81-535L211-535L211-435Q266-538 403-540Z"/><path id="s88:montserrat-medium:546" d="M86-742L216-742L216 0L86 0L86-742Z"/><path id="s88:montserrat-medium:508" d="M570-535L570-51Q570 25 535.50 81.50Q501 138 437.50 168.50Q374 199 290 199Q168 199 64 128L116 34Q192 90 283 90Q355 90 397.50 53Q440 16 440-48L440-111Q413-70 370-48.50Q327-27 270-27Q200-27 146-59.50Q92-92 62-150.50Q32-209 32-285Q32-360 62-417.50Q92-475 146-507Q200-539 270-539Q326-539 369.50-517Q413-495 440-455L440-535L570-535M298-129Q361-129 400.50-171.50Q440-214 440-282Q440-350 400.50-392.50Q361-435 298-435Q235-435 195.50-392Q156-349 155-282Q156-214 195.50-171.50Q235-129 298-129Z"/><path id="s88:montserrat-medium:624" d="M398-390Q359-413 317.50-426Q276-439 241-439Q208-439 188.50-427.50Q169-416 169-392Q169-367 193.50-353.50Q218-340 271-325Q327-308 363-291.50Q399-275 425.50-242.50Q452-210 452-157Q452-79 392-37Q332 5 241 5Q179 5 120-14.50Q61-34 20-70L65-161Q101-130 151-112.50Q201-95 246-95Q282-95 303.50-107.50Q325-120 325-145Q325-173 300-187Q275-201 219-218Q165-234 131-249.50Q97-265 72-296.50Q47-328 47-379Q47-458 104.50-499.50Q162-541 249-541Q302-541 353.50-526Q405-511 445-484L398-390Z"/><path id="s88:montserrat-medium:564" d="M782-540Q873-540 925-484.50Q977-429 977-334L977 0L846 0L846-296Q846-353 814.50-385.50Q783-418 729-418Q667-416 630.50-373Q594-330 594-264L594 0L463 0L463-296Q463-353 432-385.50Q401-418 347-418Q284-416 247.50-373Q211-330 211-264L211 0L81 0L81-535L211-535L211-436Q264-538 399-540Q469-540 516.50-506.50Q564-473 583-412Q634-538 782-540Z"/><path id="s88:montserrat-medium:441" d="M396-539Q471-539 528.50-504.50Q586-470 617.50-408Q649-346 649-265Q649-185 618-124Q587-63 530-29Q473 5 398 5Q338 5 292-18.50Q246-42 216-87L216 0L86 0L86-742L216-742L216-447Q245-492 290.50-515.50Q336-539 396-539M367-107Q433-107 475-152.50Q517-198 517-269Q517-340 475-385Q433-430 367-430Q300-430 258-385Q216-340 216-269Q216-197 258-152Q300-107 367-107Z"/><path id="s88:montserrat-medium:505" d="M304-636Q274-636 254.50-619Q235-602 235-568L235-513L369-513L369-418L235-418L235 0L105 0L105-418L35-418L35-513L105-513L105-564Q105-623 131-664.50Q157-706 200.50-727Q244-748 295-748Q345-748 393-725L370-620Q330-636 304-636Z"/><path id="s88:montserrat-medium:637" d="M394-33Q330 6 260 6Q191 6 147-34.50Q103-75 103-154L103-418L28-418L27-513L103-513L103-660L232-660L232-513L385-513L385-418L232-418L232-177Q232-140 246-124.50Q260-109 288-109Q318-109 364-131L394-33Z"/><path id="s88:montserrat-medium:520" d="M81-535L211-535L211 0L81 0L81-535M145-765Q177-765 198-743Q219-721 219-687Q219-654 198-632Q177-610 145-610Q113-610 92-632Q71-654 71-687Q71-721 92-743Q113-765 145-765Z"/><path id="s88:montserrat-medium:688" d="M310 67Q285 133 238.50 166.50Q192 200 128 200Q89 200 57.50 188.50Q26 177-5 152L51 53Q70 67 86 73.50Q102 80 120 80Q173 80 198 26L214-9L-7-535L128-535L280-146L419-535L550-535L310 67Z"/><path id="s88:montserrat-medium:1245" d="M112-135Q142-135 161.50-115Q181-95 181-64Q181-32 161.50-11.50Q142 9 112 9Q83 9 63.50-12Q44-33 44-64Q44-95 63.50-115Q83-135 112-135Z"/><path id="s88:montserrat-medium:687" d="M24-535L174-535L285-361L399-535L542-535L372-274L554 0L404 0L285-187L156 0L11 0L198-274L24-535Z"/><path id="s88:montserrat-medium:442" d="M449-366Q395-425 309-425Q244-425 203.50-381Q163-337 163-267Q163-195 203.50-151Q244-107 309-107Q405-107 453-170L534-103Q498-51 439-23Q380 5 302 5Q223 5 161.50-29Q100-63 66-124.50Q32-186 32-266Q32-347 66.50-409Q101-471 162.50-505Q224-539 304-539Q377-539 434.50-513.50Q492-488 528-441L449-366Z"/><path id="s88:montserrat-medium:121" d="M86-700L569-700L568-583L220-583L220-394L537-394L537-277L220-277L220 0L86 0L86-700Z"/><path id="s88:montserrat-medium:1239" d="M112-133Q140-133 159.50-114Q179-95 179-63Q179-48 174.50-36Q170-24 161-7L98 114L33 114L75-5Q45-25 45-63Q45-94 64-113.50Q83-133 112-133Z"/></defs><g id="line-0"><use x="0" y="842.5" xlink:href="#s88:montserrat-medium:283" /><use x="588" y="842.5" xlink:href="#s88:montserrat-medium:515" /><use x="1260" y="842.5" xlink:href="#s88:montserrat-medium:457" /><use x="1852" y="842.5" xlink:href="#s88:montserrat-medium:3" /><use x="2097" y="842.5" xlink:href="#s88:montserrat-medium:75" /><use x="2758" y="842.5" xlink:href="#s88:montserrat-medium:653" /><use x="3414" y="842.5" xlink:href="#s88:montserrat-medium:616" /><use x="3817" y="842.5" xlink:href="#s88:montserrat-medium:577" /><use x="4445" y="842.5" xlink:href="#s88:montserrat-medium:613" /><use x="5126" y="842.5" xlink:href="#s88:montserrat-medium:457" /><use x="5718" y="842.5" xlink:href="#s88:montserrat-medium:387" /><use x="6308" y="842.5" xlink:href="#s88:montserrat-medium:566" /><use x="6974" y="842.5" xlink:href="#s88:montserrat-medium:3" /><use x="7219" y="842.5" xlink:href="#s88:montserrat-medium:546" /><use x="7521" y="842.5" xlink:href="#s88:montserrat-medium:387" /><use x="8111" y="842.5" xlink:href="#s88:montserrat-medium:566" /><use x="8777" y="842.5" xlink:href="#s88:montserrat-medium:508" /><use x="9419" y="842.5" xlink:href="#s88:montserrat-medium:653" /><use x="10075" y="842.5" xlink:href="#s88:montserrat-medium:387" /><use x="10665" y="842.5" xlink:href="#s88:montserrat-medium:508" /><use x="11307" y="842.5" xlink:href="#s88:montserrat-medium:457" /><use x="11899" y="842.5" xlink:href="#s88:montserrat-medium:624" /><use x="12381" y="842.5" xlink:href="#s88:montserrat-medium:3" /><use x="12626" y="842.5" xlink:href="#s88:montserrat-medium:387" /><use x="13216" y="842.5" xlink:href="#s88:montserrat-medium:616" /><use x="13619" y="842.5" xlink:href="#s88:montserrat-medium:457" /><use x="14211" y="842.5" xlink:href="#s88:montserrat-medium:3" /><use x="14456" y="842.5" xlink:href="#s88:montserrat-medium:564" /><use x="15497" y="842.5" xlink:href="#s88:montserrat-medium:457" /><use x="16089" y="842.5" xlink:href="#s88:montserrat-medium:564" /><use x="17130" y="842.5" xlink:href="#s88:montserrat-medium:441" /><use x="17811" y="842.5" xlink:href="#s88:montserrat-medium:457" /><use x="18403" y="842.5" xlink:href="#s88:montserrat-medium:616" /><use x="18806" y="842.5" xlink:href="#s88:montserrat-medium:624" /><use x="19288" y="842.5" xlink:href="#s88:montserrat-medium:3" /><use x="19533" y="842.5" xlink:href="#s88:montserrat-medium:577" /><use x="20161" y="842.5" xlink:href="#s88:montserrat-medium:505" /><use x="20526" y="842.5" xlink:href="#s88:montserrat-medium:3" /><use x="20771" y="842.5" xlink:href="#s88:montserrat-medium:637" /><use x="21186" y="842.5" xlink:href="#s88:montserrat-medium:515" /><use x="21858" y="842.5" xlink:href="#s88:montserrat-medium:457" /><use x="22450" y="842.5" xlink:href="#s88:montserrat-medium:3" /><use x="22695" y="842.5" xlink:href="#s88:montserrat-medium:624" /><use x="23177" y="842.5" xlink:href="#s88:montserrat-medium:387" /><use x="23767" y="842.5" xlink:href="#s88:montserrat-medium:564" /><use x="24808" y="842.5" xlink:href="#s88:montserrat-medium:457" /><use x="25400" y="842.5" xlink:href="#s88:montserrat-medium:3" /><use x="25645" y="842.5" xlink:href="#s88:montserrat-medium:505" /><use x="26010" y="842.5" xlink:href="#s88:montserrat-medium:387" /><use x="26600" y="842.5" xlink:href="#s88:montserrat-medium:564" /><use x="27641" y="842.5" xlink:href="#s88:montserrat-medium:520" /><use x="27932" y="842.5" xlink:href="#s88:montserrat-medium:546" /><use x="28234" y="842.5" xlink:href="#s88:montserrat-medium:688" /><use x="28778" y="842.5" xlink:href="#s88:montserrat-medium:1245" /></g><g id="line-1"><use x="5932.5" y="2042.5" xlink:href="#s88:montserrat-medium:283" /><use x="6520.5" y="2042.5" xlink:href="#s88:montserrat-medium:515" /><use x="7192.5" y="2042.5" xlink:href="#s88:montserrat-medium:457" /><use x="7784.5" y="2042.5" xlink:href="#s88:montserrat-medium:520" /><use x="8075.5" y="2042.5" xlink:href="#s88:montserrat-medium:616" /><use x="8478.5" y="2042.5" xlink:href="#s88:montserrat-medium:3" /><use x="8723.5" y="2042.5" xlink:href="#s88:montserrat-medium:624" /><use x="9205.5" y="2042.5" xlink:href="#s88:montserrat-medium:457" /><use x="9797.5" y="2042.5" xlink:href="#s88:montserrat-medium:613" /><use x="10478.5" y="2042.5" xlink:href="#s88:montserrat-medium:387" /><use x="11068.5" y="2042.5" xlink:href="#s88:montserrat-medium:616" /><use x="11471.5" y="2042.5" xlink:href="#s88:montserrat-medium:387" /><use x="12061.5" y="2042.5" xlink:href="#s88:montserrat-medium:637" /><use x="12476.5" y="2042.5" xlink:href="#s88:montserrat-medium:457" /><use x="13068.5" y="2042.5" xlink:href="#s88:montserrat-medium:3" /><use x="13313.5" y="2042.5" xlink:href="#s88:montserrat-medium:457" /><use x="13905.5" y="2042.5" xlink:href="#s88:montserrat-medium:687" /><use x="14473.5" y="2042.5" xlink:href="#s88:montserrat-medium:520" /><use x="14764.5" y="2042.5" xlink:href="#s88:montserrat-medium:624" /><use x="15246.5" y="2042.5" xlink:href="#s88:montserrat-medium:637" /><use x="15661.5" y="2042.5" xlink:href="#s88:montserrat-medium:457" /><use x="16253.5" y="2042.5" xlink:href="#s88:montserrat-medium:566" /><use x="16919.5" y="2042.5" xlink:href="#s88:montserrat-medium:442" /><use x="17483.5" y="2042.5" xlink:href="#s88:montserrat-medium:457" /><use x="18075.5" y="2042.5" xlink:href="#s88:montserrat-medium:3" /><use x="18320.5" y="2042.5" xlink:href="#s88:montserrat-medium:520" /><use x="18611.5" y="2042.5" xlink:href="#s88:montserrat-medium:624" /><use x="19093.5" y="2042.5" xlink:href="#s88:montserrat-medium:3" /><use x="19338.5" y="2042.5" xlink:href="#s88:montserrat-medium:387" /><use x="19928.5" y="2042.5" xlink:href="#s88:montserrat-medium:3" /><use x="20173.5" y="2042.5" xlink:href="#s88:montserrat-medium:564" /><use x="21214.5" y="2042.5" xlink:href="#s88:montserrat-medium:688" /><use x="21758.5" y="2042.5" xlink:href="#s88:montserrat-medium:637" /><use x="22173.5" y="2042.5" xlink:href="#s88:montserrat-medium:515" /><use x="22845.5" y="2042.5" xlink:href="#s88:montserrat-medium:1245" /></g><g id="line-2"><use x="7279" y="3242.5" xlink:href="#s88:montserrat-medium:121" /><use x="7862" y="3242.5" xlink:href="#s88:montserrat-medium:577" /><use x="8490" y="3242.5" xlink:href="#s88:montserrat-medium:616" /><use x="8893" y="3242.5" xlink:href="#s88:montserrat-medium:3" /><use x="9138" y="3242.5" xlink:href="#s88:montserrat-medium:624" /><use x="9620" y="3242.5" xlink:href="#s88:montserrat-medium:442" /><use x="10184" y="3242.5" xlink:href="#s88:montserrat-medium:520" /><use x="10475" y="3242.5" xlink:href="#s88:montserrat-medium:457" /><use x="11067" y="3242.5" xlink:href="#s88:montserrat-medium:566" /><use x="11733" y="3242.5" xlink:href="#s88:montserrat-medium:442" /><use x="12297" y="3242.5" xlink:href="#s88:montserrat-medium:457" /><use x="12889" y="3242.5" xlink:href="#s88:montserrat-medium:1239" /><use x="13110" y="3242.5" xlink:href="#s88:montserrat-medium:3" /><use x="13355" y="3242.5" xlink:href="#s88:montserrat-medium:564" /><use x="14396" y="3242.5" xlink:href="#s88:montserrat-medium:653" /><use x="15052" y="3242.5" xlink:href="#s88:montserrat-medium:624" /><use x="15534" y="3242.5" xlink:href="#s88:montserrat-medium:520" /><use x="15825" y="3242.5" xlink:href="#s88:montserrat-medium:442" /><use x="16389" y="3242.5" xlink:href="#s88:montserrat-medium:1239" /><use x="16610" y="3242.5" xlink:href="#s88:montserrat-medium:3" /><use x="16855" y="3242.5" xlink:href="#s88:montserrat-medium:624" /><use x="17337" y="3242.5" xlink:href="#s88:montserrat-medium:613" /><use x="18018" y="3242.5" xlink:href="#s88:montserrat-medium:577" /><use x="18646" y="3242.5" xlink:href="#s88:montserrat-medium:616" /><use x="19049" y="3242.5" xlink:href="#s88:montserrat-medium:637" /><use x="19464" y="3242.5" xlink:href="#s88:montserrat-medium:1239" /><use x="19685" y="3242.5" xlink:href="#s88:montserrat-medium:3" /><use x="19930" y="3242.5" xlink:href="#s88:montserrat-medium:457" /><use x="20522" y="3242.5" xlink:href="#s88:montserrat-medium:637" /><use x="20937" y="3242.5" xlink:href="#s88:montserrat-medium:442" /><use x="21501" y="3242.5" xlink:href="#s88:montserrat-medium:1239" /></g></svg>