<svg xmlns="http://www.w3.org/2000/svg" xmlns:xlink="http://www.w3.org/1999/xlink" width="687" height="84" viewBox="0 0 28625 3493.5" ><defs><path id="s90:montserrat-regular:283" d="M10-700L557-700L557-612L331-612L331 0L235 0L235-612L10-612L10-700Z"/><path id="s90:montserrat-regular:515" d="M391-532Q484-532 537-477.50Q590-423 590-327L590 0L497 0L497-302Q497-369 459.50-406.50Q422-444 356-444Q279-443 234-392Q189-341 189-260L189 0L96 0L96-742L189-742L189-415Q242-530 391-532Z"/><path id="s90:montserrat-regular:457" d="M303-532Q426-532 489-459.50Q552-387 552-258Q552-238 551-228L133-228Q144-157 192.50-115Q241-73 312-73Q359-73 399.50-90Q440-107 470-138L521-85Q482-43 427-20Q372 3 305 3Q227 3 166.50-30.50Q106-64 72.50-125Q39-186 39-264Q39-342 72.50-402.50Q106-463 166-497.50Q226-532 303-532M468-300Q464-372 420-413.50Q376-455 304-455Q234-455 187.50-413Q141-371 132-300L468-300Z"/><path id="s90:montserrat-regular:3" d=""/><path id="s90:montserrat-regular:75" d="M100-700L586-700L586-613L196-613L196-397L545-397L545-310L196-310L196-87L598-87L598 0L100 0L100-700Z"/><path id="s90:montserrat-regular:653" d="M559-529L559 0L465 0L465-112Q413 1 269 3Q177 3 125-51.50Q73-106 73-202L73-529L167-529L167-227Q167-160 203.50-122.50Q240-85 304-85Q378-86 421.50-137.50Q465-189 465-269L465-529L559-529Z"/><path id="s90:montserrat-regular:616" d="M184-415Q210-472 258-501.50Q306-531 372-532L372-442Q291-445 241-400Q191-355 184-279L184 0L91 0L91-529L184-529L184-415Z"/><path id="s90:montserrat-regular:577" d="M311-532Q390-532 451.50-498Q513-464 547.50-403.50Q582-343 582-265Q582-187 547.50-126Q513-65 451.50-31Q390 3 311 3Q231 3 169.50-31Q108-65 73.50-125.50Q39-186 39-265Q39-343 73.50-403.50Q108-464 169.50-498Q231-532 311-532M311-451Q259-451 218.50-427Q178-403 155.50-360.50Q133-318 133-264Q133-209 155.50-166Q178-123 218.50-99.50Q259-76 311-76Q362-76 402.50-99.50Q443-123 465.50-166Q488-209 488-264Q488-318 465.50-360.50Q443-403 402.50-427Q362-451 311-451Z"/><path id="s90:montserrat-regular:613" d="M385-532Q459-532 517-498Q575-464 607-403Q639-342 639-263Q639-185 607.50-124.50Q576-64 518.50-30.50Q461 3 387 3Q320 3 269-25Q218-53 189-105L189 194L96 194L96-529L189-529L189-424Q218-476 268.50-504Q319-532 385-532M367-78Q418-78 458.50-102Q499-126 521.50-169Q544-212 544-266Q544-319 521-362Q498-405 458-429Q418-453 367-453Q316-453 275.50-429Q235-405 212-362Q189-319 189-266Q189-211 212-168.50Q235-126 275.50-102Q316-78 367-78Z"/><path id="s90:montserrat-regular:387" d="M414 0L414-74Q355 4 229 4Q174 4 132.50-17Q91-38 68.50-75Q46-112 46-158Q46-229 98.50-270.50Q151-312 245-313L413-313L413-338Q413-394 378.50-424.50Q344-455 278-455Q198-455 115-398L76-462Q133-499 181.50-515.50Q230-532 297-532Q396-532 450-483.50Q504-435 505-348L506 0L414 0M248-73Q313-73 358.50-104.50Q404-136 413-188L413-241L258-241Q195-241 164.50-222Q134-203 134-162Q134-121 165-97Q196-73 248-73Z"/><path id="s90:montserrat-regular:566" d="M385-532Q478-532 531-477.50Q584-423 584-327L584 0L491 0L491-302Q491-369 453.50-406.50Q416-444 350-444Q279-443 234.50-398.50Q190-354 184-283L184 0L91 0L91-529L184-529L184-417Q237-530 385-532Z"/><path id="s90:montserrat-regular:546" d="M96-742L189-742L189 0L96 0L96-742Z"/><path id="s90:montserrat-regular:508" d="M559-529L559-54Q559 22 525.50 79Q492 136 431 166.50Q370 197 289 197Q172 197 71 123L112 55Q151 87 193 102.50Q235 118 285 118Q367 118 416 72Q465 26 465-51L465-125Q437-77 389-50.50Q341-24 279-24Q208-24 153.50-56.50Q99-89 69-147Q39-205 39-280Q39-354 69-411Q99-468 153.50-500Q208-532 279-532Q342-532 389.50-506Q437-480 465-432L465-529L559-529M297-99Q346-99 384-122Q422-145 443.50-185.50Q465-226 465-277Q465-329 443.50-369.50Q422-410 384-433Q346-456 297-456Q248-456 209.50-433Q171-410 149-369.50Q127-329 127-277Q128-199 175-149Q222-99 297-99Z"/><path id="s90:montserrat-regular:624" d="M380-412Q347-432 307.50-444Q268-456 232-456Q190-456 164.50-440.50Q139-425 139-393Q139-361 167.50-344.50Q196-328 254-311Q309-295 344-279Q379-263 403.50-232Q428-201 428-150Q428-75 371.50-36Q315 3 231 3Q172 3 116.50-16Q61-35 23-70L58-138Q91-108 139.50-90Q188-72 234-72Q280-72 308-89Q336-106 336-141Q336-177 306.50-195Q277-213 217-231Q164-246 130.50-261.50Q97-277 73.50-307Q50-337 50-385Q50-459 104-496Q158-533 239-533Q287-533 333.50-519.50Q380-506 414-483L380-412Z"/><path id="s90:montserrat-regular:564" d="M774-532Q865-532 917-477Q969-422 969-327L969 0L875 0L875-302Q875-369 838.50-407Q802-445 738-445Q663-443 620-392Q577-341 577-261L577 0L483 0L483-302Q483-369 447-407Q411-445 346-445Q271-443 227.50-392Q184-341 184-261L184 0L91 0L91-529L184-529L184-418Q236-530 381-532Q454-532 502.50-497Q551-462 568-399Q617-530 774-532Z"/><path id="s90:montserrat-regular:441" d="M385-532Q459-532 517-498Q575-464 607-403Q639-342 639-263Q639-185 607.50-124.50Q576-64 518.50-30.50Q461 3 387 3Q320 3 269-25Q218-53 189-105L189 0L96 0L96-742L189-742L189-424Q218-476 268.50-504Q319-532 385-532M367-78Q418-78 458.50-102Q499-126 521.50-169Q544-212 544-266Q544-319 521-362Q498-405 458-429Q418-453 367-453Q316-453 275.50-429Q235-405 212-362Q189-319 189-266Q189-211 212-168.50Q235-126 275.50-102Q316-78 367-78Z"/><path id="s90:montserrat-regular:505" d="M286-665Q250-665 226-643Q202-621 202-580L202-511L348-511L348-440L202-440L202 0L109 0L109-440L40-440L40-511L109-511L109-568Q109-626 133.50-666.50Q158-707 198-727.50Q238-748 284-748Q328-748 376-724L354-648Q318-665 286-665Z"/><path id="s90:montserrat-regular:637" d="M375-35Q314 4 251 4Q188 4 149-33.50Q110-71 110-147L110-440L35-440L35-511L110-511L110-653L204-653L204-511L366-511L366-440L204-440L204-164Q204-120 220-101Q236-82 268-82Q306-82 350-107L375-35Z"/><path id="s90:montserrat-regular:520" d="M91-529L184-529L184 0L91 0L91-529M137-740Q162-740 178.50-723Q195-706 195-680Q195-654 178.50-637Q162-620 137-620Q112-620 95.50-637Q79-654 79-680Q79-706 95.50-723Q112-740 137-740Z"/><path id="s90:montserrat-regular:688" d="M276 75Q251 136 209.50 167Q168 198 112 198Q78 198 50 188Q22 178-4 157L36 84Q71 109 107 109Q167 109 197 41L217-6L-2-529L96-529L264-105L423-529L518-529L276 75Z"/><path id="s90:montserrat-regular:1245" d="M104-106Q127-106 142.50-90Q158-74 158-49Q158-24 142.50-7.50Q127 9 104 9Q81 9 65-7.50Q49-24 49-49Q49-74 65-90Q81-106 104-106Z"/><path id="s90:montserrat-regular:687" d="M31-529L139-529L270-335L403-529L506-529L332-271L519 0L410 0L270-208L123 0L18 0L208-271L31-529Z"/><path id="s90:montserrat-regular:442" d="M462-388Q399-449 311-449Q259-449 218.50-426Q178-403 155-361Q132-319 132-264Q132-209 154.50-167Q177-125 216.50-101.50Q256-78 307-78Q358-78 399-95Q440-112 467-144L520-90Q484-45 428.50-21Q373 3 303 3Q226 3 166-31Q106-65 72.50-125.50Q39-186 39-264Q39-342 72.50-403Q106-464 166-498Q226-532 303-532Q370-532 423.50-511.50Q477-491 513-452L462-388Z"/><path id="s90:montserrat-regular:121" d="M100-700L556-700L555-613L196-613L196-383L519-383L519-296L196-296L196 0L100 0L100-700Z"/><path id="s90:montserrat-regular:1239" d="M104-103Q126-103 141.50-88Q157-73 157-48Q157-37 152.50-25Q148-13 143-2L89 112L38 112L78-1Q64-8 57-20.50Q50-33 50-48Q50-72 65.50-87.50Q81-103 104-103Z"/></defs><g id="line-0"><use x="0" y="842.5" xlink:href="#s90:montserrat-regular:283" /><use x="567" y="842.5" xlink:href="#s90:montserrat-regular:515" /><use x="1232" y="842.5" xlink:href="#s90:montserrat-regular:457" /><use x="1820" y="842.5" xlink:href="#s90:montserrat-regular:3" /><use x="2082" y="842.5" xlink:href="#s90:montserrat-regular:75" /><use x="2735" y="842.5" xlink:href="#s90:montserrat-regular:653" /><use x="3384" y="842.5" xlink:href="#s90:montserrat-regular:616" /><use x="3766" y="842.5" xlink:href="#s90:montserrat-regular:577" /><use x="4387" y="842.5" xlink:href="#s90:montserrat-regular:613" /><use x="5065" y="842.5" xlink:href="#s90:montserrat-regular:457" /><use x="5653" y="842.5" xlink:href="#s90:montserrat-regular:387" /><use x="6234" y="842.5" xlink:href="#s90:montserrat-regular:566" /><use x="6893" y="842.5" xlink:href="#s90:montserrat-regular:3" /><use x="7155" y="842.5" xlink:href="#s90:montserrat-regular:546" /><use x="7440" y="842.5" xlink:href="#s90:montserrat-regular:387" /><use x="8021" y="842.5" xlink:href="#s90:montserrat-regular:566" /><use x="8680" y="842.5" xlink:href="#s90:montserrat-regular:508" /><use x="9318" y="842.5" xlink:href="#s90:montserrat-regular:653" /><use x="9967" y="842.5" xlink:href="#s90:montserrat-regular:387" /><use x="10548" y="842.5" xlink:href="#s90:montserrat-regular:508" /><use x="11186" y="842.5" xlink:href="#s90:montserrat-regular:457" /><use x="11774" y="842.5" xlink:href="#s90:montserrat-regular:624" /><use x="12234" y="842.5" xlink:href="#s90:montserrat-regular:3" /><use x="12496" y="842.5" xlink:href="#s90:montserrat-regular:387" /><use x="13077" y="842.5" xlink:href="#s90:montserrat-regular:616" /><use x="13459" y="842.5" xlink:href="#s90:montserrat-regular:457" /><use x="14047" y="842.5" xlink:href="#s90:montserrat-regular:3" /><use x="14309" y="842.5" xlink:href="#s90:montserrat-regular:564" /><use x="15353" y="842.5" xlink:href="#s90:montserrat-regular:457" /><use x="15941" y="842.5" xlink:href="#s90:montserrat-regular:564" /><use x="16985" y="842.5" xlink:href="#s90:montserrat-regular:441" /><use x="17663" y="842.5" xlink:href="#s90:montserrat-regular:457" /><use x="18251" y="842.5" xlink:href="#s90:montserrat-regular:616" /><use x="18633" y="842.5" xlink:href="#s90:montserrat-regular:624" /><use x="19093" y="842.5" xlink:href="#s90:montserrat-regular:3" /><use x="19355" y="842.5" xlink:href="#s90:montserrat-regular:577" /><use x="19976" y="842.5" xlink:href="#s90:montserrat-regular:505" /><use x="20318" y="842.5" xlink:href="#s90:montserrat-regular:3" /><use x="20580" y="842.5" xlink:href="#s90:montserrat-regular:637" /><use x="20977" y="842.5" xlink:href="#s90:montserrat-regular:515" /><use x="21642" y="842.5" xlink:href="#s90:montserrat-regular:457" /><use x="22230" y="842.5" xlink:href="#s90:montserrat-regular:3" /><use x="22492" y="842.5" xlink:href="#s90:montserrat-regular:624" /><use x="22952" y="842.5" xlink:href="#s90:montserrat-regular:387" /><use x="23533" y="842.5" xlink:href="#s90:montserrat-regular:564" /><use x="24577" y="842.5" xlink:href="#s90:montserrat-regular:457" /><use x="25165" y="842.5" xlink:href="#s90:montserrat-regular:3" /><use x="25427" y="842.5" xlink:href="#s90:montserrat-regular:505" /><use x="25769" y="842.5" xlink:href="#s90:montserrat-regular:387" /><use x="26350" y="842.5" xlink:href="#s90:montserrat-regular:564" /><use x="27394" y="842.5" xlink:href="#s90:montserrat-regular:520" /><use x="27668" y="842.5" xlink:href="#s90:montserrat-regular:546" /><use x="27953" y="842.5" xlink:href="#s90:montserrat-regular:688" /><use x="28467" y="842.5" xlink:href="#s90:montserrat-regular:1245" /></g><g id="line-1"><use x="5917.5" y="2042.5" xlink:href="#s90:montserrat-regular:283" /><use x="6484.5" y="2042.5" xlink:href="#s90:montserrat-regular:515" /><use x="7149.5" y="2042.5" xlink:href="#s90:montserrat-regular:457" /><use x="7737.5" y="2042.5" xlink:href="#s90:montserrat-regular:520" /><use x="8011.5" y="2042.5" xlink:href="#s90:montserrat-regular:616" /><use x="8393.5" y="2042.5" xlink:href="#s90:montserrat-regular:3" /><use x="8655.5" y="2042.5" xlink:href="#s90:montserrat-regular:624" /><use x="9115.5" y="2042.5" xlink:href="#s90:montserrat-regular:457" /><use x="9703.5" y="2042.5" xlink:href="#s90:montserrat-regular:613" /><use x="10381.5" y="2042.5" xlink:href="#s90:montserrat-regular:387" /><use x="10962.5" y="2042.5" xlink:href="#s90:montserrat-regular:616" /><use x="11344.5" y="2042.5" xlink:href="#s90:montserrat-regular:387" /><use x="11925.5" y="2042.5" xlink:href="#s90:montserrat-regular:637" /><use x="12322.5" y="2042.5" xlink:href="#s90:montserrat-regular:457" /><use x="12910.5" y="2042.5" xlink:href="#s90:montserrat-regular:3" /><use x="13172.5" y="2042.5" xlink:href="#s90:montserrat-regular:457" /><use x="13760.5" y="2042.5" xlink:href="#s90:montserrat-regular:687" /><use x="14300.5" y="2042.5" xlink:href="#s90:montserrat-regular:520" /><use x="14574.5" y="2042.5" xlink:href="#s90:montserrat-regular:624" /><use x="15034.5" y="2042.5" xlink:href="#s90:montserrat-regular:637" /><use x="15431.5" y="2042.5" xlink:href="#s90:montserrat-regular:457" /><use x="16019.5" y="2042.5" xlink:href="#s90:montserrat-regular:566" /><use x="16678.5" y="2042.5" xlink:href="#s90:montserrat-regular:442" /><use x="17240.5" y="2042.5" xlink:href="#s90:montserrat-regular:457" /><use x="17828.5" y="2042.5" xlink:href="#s90:montserrat-regular:3" /><use x="18090.5" y="2042.5" xlink:href="#s90:montserrat-regular:520" /><use x="18364.5" y="2042.5" xlink:href="#s90:montserrat-regular:624" /><use x="18824.5" y="2042.5" xlink:href="#s90:montserrat-regular:3" /><use x="19086.5" y="2042.5" xlink:href="#s90:montserrat-regular:387" /><use x="19667.5" y="2042.5" xlink:href="#s90:montserrat-regular:3" /><use x="19929.5" y="2042.5" xlink:href="#s90:montserrat-regular:564" /><use x="20973.5" y="2042.5" xlink:href="#s90:montserrat-regular:688" /><use x="21487.5" y="2042.5" xlink:href="#s90:montserrat-regular:637" /><use x="21884.5" y="2042.5" xlink:href="#s90:montserrat-regular:515" /><use x="22549.5" y="2042.5" xlink:href="#s90:montserrat-regular:1245" /></g><g id="line-2"><use x="7235" y="3242.5" xlink:href="#s90:montserrat-regular:121" /><use x="7803" y="3242.5" xlink:href="#s90:montserrat-regular:577" /><use x="8424" y="3242.5" xlink:href="#s90:montserrat-regular:616" /><use x="8806" y="3242.5" xlink:href="#s90:montserrat-regular:3" /><use x="9068" y="3242.5" xlink:href="#s90:montserrat-regular:624" /><use x="9528" y="3242.5" xlink:href="#s90:montserrat-regular:442" /><use x="10090" y="3242.5" xlink:href="#s90:montserrat-regular:520" /><use x="10364" y="3242.5" xlink:href="#s90:montserrat-regular:457" /><use x="10952" y="3242.5" xlink:href="#s90:montserrat-regular:566" /><use x="11611" y="3242.5" xlink:href="#s90:montserrat-regular:442" /><use x="12173" y="3242.5" xlink:href="#s90:montserrat-regular:457" /><use x="12761" y="3242.5" xlink:href="#s90:montserrat-regular:1239" /><use x="12965" y="3242.5" xlink:href="#s90:montserrat-regular:3" /><use x="13227" y="3242.5" xlink:href="#s90:montserrat-regular:564" /><use x="14271" y="3242.5" xlink:href="#s90:montserrat-regular:653" /><use x="14920" y="3242.5" xlink:href="#s90:montserrat-regular:624" /><use x="15380" y="3242.5" xlink:href="#s90:montserrat-regular:520" /><use x="15654" y="3242.5" xlink:href="#s90:montserrat-regular:442" /><use x="16216" y="3242.5" xlink:href="#s90:montserrat-regular:1239" /><use x="16420" y="3242.5" xlink:href="#s90:montserrat-regular:3" /><use x="16682" y="3242.5" xlink:href="#s90:montserrat-regular:624" /><use x="17142" y="3242.5" xlink:href="#s90:montserrat-regular:613" /><use x="17820" y="3242.5" xlink:href="#s90:montserrat-regular:577" /><use x="18441" y="3242.5" xlink:href="#s90:montserrat-regular:616" /><use x="18823" y="3242.5" xlink:href="#s90:montserrat-regular:637" /><use x="19220" y="3242.5" xlink:href="#s90:montserrat-regular:1239" /><use x="19424" y="3242.5" xlink:href="#s90:montserrat-regular:3" /><use x="19686" y="3242.5" xlink:href="#s90:montserrat-regular:457" /><use x="20274" y="3242.5" xlink:href="#s90:montserrat-regular:637" /><use x="20671" y="3242.5" xlink:href="#s90:montserrat-regular:442" /><use x="21233" y="3242.5" xlink:href="#s90:montserrat-regular:1239" /></g></svg>