<svg xmlns="http://www.w3.org/2000/svg" xmlns:xlink="http://www.w3.org/1999/xlink" width="706" height="84" viewBox="0 0 29429 3493.5"><defs><path id="s85:montserrat-italic:187" d="M645-700L628-612L402-612L279 0L182 0L305-612L81-612L97-700L645-700Z"/><path id="s85:montserrat-italic:461" d="M417-535Q507-535 557.50-490Q608-445 608-367Q608-341 602-312L539 0L445 0L505-301Q509-318 509-338Q509-390 476.50-420Q444-450 385-450Q315-450 263.50-405Q212-360 196-284L139 0L45 0L191-742L286-742L226-440Q292-533 417-535Z"/><path id="s85:montserrat-italic:429" d="M337-532Q444-532 505.50-470Q567-408 567-304Q567-270 559-228L132-228Q135-156 179.50-114Q224-72 299-72Q343-72 383-86Q423-100 454-126L497-65Q416 5 296 5Q219 5 161-25Q103-55 71.50-110Q40-165 40-237Q40-320 79-387.50Q118-455 186-493.50Q254-532 337-532M483-300Q484-374 446-414.50Q408-455 337-455Q267-455 213-412Q159-369 140-300L483-300Z"/><path id="s85:montserrat-italic:3" d=""/><path id="s85:montserrat-italic:47" d="M656-612L265-612L222-397L571-397L554-310L205-310L161-88L562-88L546 0L47 0L187-700L672-700L656-612Z"/><path id="s85:montserrat-italic:579" d="M250 6Q160 6 109.50-39Q59-84 59-162Q59-189 65-217L128-529L222-529L162-228Q158-211 158-191Q158-139 190.50-109Q223-79 282-79Q352-79 403.50-124Q455-169 471-245L528-529L622-529L518 0L423 0L441-89Q375 4 250 6Z"/><path id="s85:montserrat-italic:550" d="M215-420Q288-530 422-532L410-442Q330-445 269.50-398Q209-351 186-273L132 0L38 0L143-529L237-529L215-420Z"/><path id="s85:montserrat-italic:512" d="M340-532Q413-532 469-501.50Q525-471 556-416Q587-361 587-291Q587-206 547.50-139Q508-72 439.50-34.50Q371 3 286 3Q212 3 156.50-27.50Q101-58 70.50-113Q40-168 40-239Q40-323 79-390Q118-457 186.50-494.50Q255-532 340-532M332-451Q276-451 231-424.50Q186-398 160-350.50Q134-303 134-243Q134-168 178-122Q222-76 294-76Q350-76 394.50-102.50Q439-129 465-176.50Q491-224 491-284Q491-358 447.50-404.50Q404-451 332-451Z"/><path id="s85:montserrat-italic:547" d="M421-533Q487-533 537.50-503.50Q588-474 616-420Q644-366 644-296Q644-213 606.50-144Q569-75 503-35Q437 5 357 5Q283 5 232.50-29Q182-63 162-125L97 194L4 194L148-529L241-529L223-442Q260-485 311-509Q362-533 421-533M390-456Q335-456 289-427.50Q243-399 216-350Q189-301 189-242Q189-168 232.50-123Q276-78 346-78Q402-78 448.50-107Q495-136 522.50-185Q550-234 550-292Q550-365 505.50-410.50Q461-456 390-456Z"/><path id="s85:montserrat-italic:387" d="M262 5Q196 5 145.50-25Q95-55 67-108.50Q39-162 39-232Q39-316 76.50-385Q114-454 180-493.50Q246-533 326-533Q400-533 450.50-499Q501-465 521-403L547-529L640-529L535 0L442 0L460-86Q423-43 372-19Q321 5 262 5M293-73Q348-73 394-101.50Q440-130 467-179Q494-228 494-287Q494-361 450.50-406Q407-451 337-451Q281-451 234.50-422Q188-393 160.50-344Q133-295 133-237Q133-164 177.50-118.50Q222-73 293-73Z"/><path id="s85:montserrat-italic:501" d="M411-535Q501-535 551.50-490Q602-445 602-367Q602-341 596-312L533 0L439 0L499-301Q503-318 503-338Q503-390 470.50-420Q438-450 379-450Q309-450 257.50-405Q206-360 190-284L133 0L39 0L143-529L238-529L220-440Q286-533 411-535Z"/><path id="s85:montserrat-italic:490" d="M285-742L137 0L43 0L191-742L285-742Z"/><path id="s85:montserrat-italic:454" d="M216 196Q154 196 101 177.50Q48 159-2 120L43 57Q115 118 213 118Q296 118 348.50 82Q401 46 417-23L437-111Q402-70 354-48.50Q306-27 252-27Q190-27 142.50-55Q95-83 68.50-133.50Q42-184 42-250Q42-328 78-393Q114-458 176-495.50Q238-533 313-533Q383-533 430-502.50Q477-472 496-414L520-529L613-529L509-17Q487 87 412 141.50Q337 196 216 196M284-104Q335-104 378-130.50Q421-157 446-202Q471-247 471-301Q471-368 430.50-409.50Q390-451 324-451Q273-451 230-424.50Q187-398 161.50-353Q136-308 136-254Q136-187 177-145.50Q218-104 284-104Z"/><path id="s85:montserrat-italic:558" d="M219 6Q151 6 87-21.50Q23-49-11-93L32-156Q63-119 115-95Q167-71 217-71Q262-71 291-91.50Q320-112 320-146Q320-177 295-195Q270-213 218-233Q171-252 143-268Q115-284 95-311.50Q75-339 75-380Q75-449 127-491.50Q179-534 263-534Q320-534 374-514.50Q428-495 464-463L418-398Q384-424 341-440.50Q298-457 261-457Q220-457 193.50-438Q167-419 167-388Q167-360 192-343Q217-326 267-306Q313-287 343-270.50Q373-254 394-225.50Q415-197 415-155Q415-108 390-71.50Q365-35 320.50-14.50Q276 6 219 6Z"/><path id="s85:montserrat-italic:499" d="M811-535Q901-535 951.50-490Q1002-445 1002-367Q1002-341 996-312L933 0L839 0L899-301Q903-318 903-338Q903-390 870.50-420Q838-450 779-450Q712-450 661.50-408.50Q611-367 593-297L533 0L439 0L499-301Q503-318 503-338Q503-390 470.50-420Q438-450 379-450Q309-450 257-404.50Q205-359 190-284L133 0L39 0L143-529L238-529L220-440Q286-533 411-535Q489-535 537.50-501.50Q586-468 598-407Q672-533 811-535Z"/><path id="s85:montserrat-italic:414" d="M421-532Q487-532 537.50-502Q588-472 616-418.50Q644-365 644-295Q644-211 606.50-142Q569-73 503-33.50Q437 6 357 6Q283 6 232.50-28Q182-62 162-124L136 0L43 0L191-742L284-742L223-441Q260-484 311-508Q362-532 421-532M390-454Q335-454 289-425.50Q243-397 216-348Q189-299 189-240Q189-166 232.50-121Q276-76 346-76Q402-76 448.50-105Q495-134 522.50-183Q550-232 550-290Q550-363 505.50-408.50Q461-454 390-454Z"/><path id="s85:montserrat-italic:453" d="M373-665Q335-665 304.50-641Q274-617 265-576L252-511L397-511L384-440L238-440L150 0L57 0L145-440L76-440L90-511L160-511L172-573Q183-630 214.50-669.50Q246-709 288-728.50Q330-748 375-748Q428-748 467-723L438-648Q424-656 406-660.50Q388-665 373-665Z"/><path id="s85:montserrat-italic:571" d="M182-159Q178-142 178-126Q178-102 189.50-92Q201-82 225-82Q264-82 315-109L332-34Q266 4 203 4Q149 4 116.50-24.50Q84-53 84-108Q84-131 88-151L146-440L71-440L84-511L160-511L188-653L281-653L253-511L415-511L402-440L238-440L182-159Z"/><path id="s85:montserrat-italic:466" d="M236-529L131 0L38 0L143-529L236-529M231-740Q253-740 266-726.50Q279-713 279-691Q279-662 257.50-641Q236-620 208-620Q187-620 174-634.50Q161-649 161-670Q161-699 182-719.50Q203-740 231-740Z"/><path id="s85:montserrat-italic:609" d="M571-529L208 79Q137 198 24 198Q-11 198-37.50 187.50Q-64 177-88 155L-39 86Q-11 109 26 109Q86 109 135 38L164-6L51-529L147-529L229-101L475-529L571-529Z"/><path id="s85:montserrat-italic:1278" d="M66-106Q88-106 102-91.50Q116-77 116-54Q116-28 98.50-9.50Q81 9 56 9Q34 9 20.50-6Q7-21 7-44Q7-70 24-88Q41-106 66-106Z"/><path id="s85:montserrat-italic:608" d="M192-529L282-335L455-529L560-529L334-271L466 0L359 0L263-208L72 0L-35 0L210-271L85-529L192-529Z"/><path id="s85:montserrat-italic:415" d="M278 3Q207 3 153-27.50Q99-58 69.50-112.50Q40-167 40-237Q40-322 78-389.50Q116-457 183-494.50Q250-532 333-532Q399-532 450-511.50Q501-491 534-452L477-388Q420-450 328-450Q273-450 228.50-423.50Q184-397 158.50-350Q133-303 133-244Q133-170 177-124Q221-78 291-78Q342-78 385-94.50Q428-111 458-144L505-89Q464-45 406.50-21Q349 3 278 3Z"/><path id="s85:montserrat-italic:70" d="M625-612L265-612L219-383L543-383L526-296L202-296L143 0L47 0L187-700L642-700L625-612Z"/><path id="s85:montserrat-italic:1273" d="M56-103Q78-103 93-88Q108-73 105-48Q104-37 100-27.50Q96-18 86-2L22 110L-28 110L21-1Q-4-14-2-48Q0-73 16.50-88Q33-103 56-103Z"/></defs><g id="line-0"><use x="0" y="842.5" xlink:href="#s85:montserrat-italic:187"/><use x="567" y="842.5" xlink:href="#s85:montserrat-italic:461"/><use x="1234" y="842.5" xlink:href="#s85:montserrat-italic:429"/><use x="1836" y="842.5" xlink:href="#s85:montserrat-italic:3"/><use x="2098" y="842.5" xlink:href="#s85:montserrat-italic:47"/><use x="2751" y="842.5" xlink:href="#s85:montserrat-italic:579"/><use x="3412" y="842.5" xlink:href="#s85:montserrat-italic:550"/><use x="3796" y="842.5" xlink:href="#s85:montserrat-italic:512"/><use x="4423" y="842.5" xlink:href="#s85:montserrat-italic:547"/><use x="5106" y="842.5" xlink:href="#s85:montserrat-italic:429"/><use x="5708" y="842.5" xlink:href="#s85:montserrat-italic:387"/><use x="6386" y="842.5" xlink:href="#s85:montserrat-italic:501"/><use x="7047" y="842.5" xlink:href="#s85:montserrat-italic:3"/><use x="7309" y="842.5" xlink:href="#s85:montserrat-italic:490"/><use x="7594" y="842.5" xlink:href="#s85:montserrat-italic:387"/><use x="8272" y="842.5" xlink:href="#s85:montserrat-italic:501"/><use x="8933" y="842.5" xlink:href="#s85:montserrat-italic:454"/><use x="9573" y="842.5" xlink:href="#s85:montserrat-italic:579"/><use x="10234" y="842.5" xlink:href="#s85:montserrat-italic:387"/><use x="10912" y="842.5" xlink:href="#s85:montserrat-italic:454"/><use x="11552" y="842.5" xlink:href="#s85:montserrat-italic:429"/><use x="12154" y="842.5" xlink:href="#s85:montserrat-italic:558"/><use x="12627" y="842.5" xlink:href="#s85:montserrat-italic:3"/><use x="12889" y="842.5" xlink:href="#s85:montserrat-italic:387"/><use x="13567" y="842.5" xlink:href="#s85:montserrat-italic:550"/><use x="13951" y="842.5" xlink:href="#s85:montserrat-italic:429"/><use x="14553" y="842.5" xlink:href="#s85:montserrat-italic:3"/><use x="14815" y="842.5" xlink:href="#s85:montserrat-italic:499"/><use x="15876" y="842.5" xlink:href="#s85:montserrat-italic:429"/><use x="16478" y="842.5" xlink:href="#s85:montserrat-italic:499"/><use x="17539" y="842.5" xlink:href="#s85:montserrat-italic:414"/><use x="18223" y="842.5" xlink:href="#s85:montserrat-italic:429"/><use x="18825" y="842.5" xlink:href="#s85:montserrat-italic:550"/><use x="19209" y="842.5" xlink:href="#s85:montserrat-italic:558"/><use x="19682" y="842.5" xlink:href="#s85:montserrat-italic:3"/><use x="19944" y="842.5" xlink:href="#s85:montserrat-italic:512"/><use x="20571" y="842.5" xlink:href="#s85:montserrat-italic:453"/><use x="20902" y="842.5" xlink:href="#s85:montserrat-italic:3"/><use x="21164" y="842.5" xlink:href="#s85:montserrat-italic:571"/><use x="21563" y="842.5" xlink:href="#s85:montserrat-italic:461"/><use x="22230" y="842.5" xlink:href="#s85:montserrat-italic:429"/><use x="22832" y="842.5" xlink:href="#s85:montserrat-italic:3"/><use x="23094" y="842.5" xlink:href="#s85:montserrat-italic:558"/><use x="23567" y="842.5" xlink:href="#s85:montserrat-italic:387"/><use x="24245" y="842.5" xlink:href="#s85:montserrat-italic:499"/><use x="25306" y="842.5" xlink:href="#s85:montserrat-italic:429"/><use x="25908" y="842.5" xlink:href="#s85:montserrat-italic:3"/><use x="26170" y="842.5" xlink:href="#s85:montserrat-italic:453"/><use x="26501" y="842.5" xlink:href="#s85:montserrat-italic:387"/><use x="27179" y="842.5" xlink:href="#s85:montserrat-italic:499"/><use x="28240" y="842.5" xlink:href="#s85:montserrat-italic:466"/><use x="28514" y="842.5" xlink:href="#s85:montserrat-italic:490"/><use x="28799" y="842.5" xlink:href="#s85:montserrat-italic:609"/><use x="29313" y="842.5" xlink:href="#s85:montserrat-italic:1278"/></g><g id="line-1"><use x="6104.5" y="2042.5" xlink:href="#s85:montserrat-italic:187"/><use x="6671.5" y="2042.5" xlink:href="#s85:montserrat-italic:461"/><use x="7338.5" y="2042.5" xlink:href="#s85:montserrat-italic:429"/><use x="7940.5" y="2042.5" xlink:href="#s85:montserrat-italic:466"/><use x="8214.5" y="2042.5" xlink:href="#s85:montserrat-italic:550"/><use x="8598.5" y="2042.5" xlink:href="#s85:montserrat-italic:3"/><use x="8860.5" y="2042.5" xlink:href="#s85:montserrat-italic:558"/><use x="9333.5" y="2042.5" xlink:href="#s85:montserrat-italic:429"/><use x="9935.5" y="2042.5" xlink:href="#s85:montserrat-italic:547"/><use x="10618.5" y="2042.5" xlink:href="#s85:montserrat-italic:387"/><use x="11296.5" y="2042.5" xlink:href="#s85:montserrat-italic:550"/><use x="11680.5" y="2042.5" xlink:href="#s85:montserrat-italic:387"/><use x="12358.5" y="2042.5" xlink:href="#s85:montserrat-italic:571"/><use x="12757.5" y="2042.5" xlink:href="#s85:montserrat-italic:429"/><use x="13359.5" y="2042.5" xlink:href="#s85:montserrat-italic:3"/><use x="13621.5" y="2042.5" xlink:href="#s85:montserrat-italic:429"/><use x="14223.5" y="2042.5" xlink:href="#s85:montserrat-italic:608"/><use x="14763.5" y="2042.5" xlink:href="#s85:montserrat-italic:466"/><use x="15037.5" y="2042.5" xlink:href="#s85:montserrat-italic:558"/><use x="15510.5" y="2042.5" xlink:href="#s85:montserrat-italic:571"/><use x="15909.5" y="2042.5" xlink:href="#s85:montserrat-italic:429"/><use x="16511.5" y="2042.5" xlink:href="#s85:montserrat-italic:501"/><use x="17172.5" y="2042.5" xlink:href="#s85:montserrat-italic:415"/><use x="17754.5" y="2042.5" xlink:href="#s85:montserrat-italic:429"/><use x="18356.5" y="2042.5" xlink:href="#s85:montserrat-italic:3"/><use x="18618.5" y="2042.5" xlink:href="#s85:montserrat-italic:466"/><use x="18892.5" y="2042.5" xlink:href="#s85:montserrat-italic:558"/><use x="19365.5" y="2042.5" xlink:href="#s85:montserrat-italic:3"/><use x="19627.5" y="2042.5" xlink:href="#s85:montserrat-italic:387"/><use x="20305.5" y="2042.5" xlink:href="#s85:montserrat-italic:3"/><use x="20567.5" y="2042.5" xlink:href="#s85:montserrat-italic:499"/><use x="21628.5" y="2042.5" xlink:href="#s85:montserrat-italic:609"/><use x="22142.5" y="2042.5" xlink:href="#s85:montserrat-italic:571"/><use x="22541.5" y="2042.5" xlink:href="#s85:montserrat-italic:461"/><use x="23208.5" y="2042.5" xlink:href="#s85:montserrat-italic:1278"/></g><g id="line-2"><use x="7565" y="3242.5" xlink:href="#s85:montserrat-italic:70"/><use x="8133" y="3242.5" xlink:href="#s85:montserrat-italic:512"/><use x="8760" y="3242.5" xlink:href="#s85:montserrat-italic:550"/><use x="9144" y="3242.5" xlink:href="#s85:montserrat-italic:3"/><use x="9406" y="3242.5" xlink:href="#s85:montserrat-italic:558"/><use x="9879" y="3242.5" xlink:href="#s85:montserrat-italic:415"/><use x="10461" y="3242.5" xlink:href="#s85:montserrat-italic:466"/><use x="10735" y="3242.5" xlink:href="#s85:montserrat-italic:429"/><use x="11337" y="3242.5" xlink:href="#s85:montserrat-italic:501"/><use x="11998" y="3242.5" xlink:href="#s85:montserrat-italic:415"/><use x="12580" y="3242.5" xlink:href="#s85:montserrat-italic:429"/><use x="13182" y="3242.5" xlink:href="#s85:montserrat-italic:1273"/><use x="13378" y="3242.5" xlink:href="#s85:montserrat-italic:3"/><use x="13640" y="3242.5" xlink:href="#s85:montserrat-italic:499"/><use x="14701" y="3242.5" xlink:href="#s85:montserrat-italic:579"/><use x="15362" y="3242.5" xlink:href="#s85:montserrat-italic:558"/><use x="15835" y="3242.5" xlink:href="#s85:montserrat-italic:466"/><use x="16109" y="3242.5" xlink:href="#s85:montserrat-italic:415"/><use x="16691" y="3242.5" xlink:href="#s85:montserrat-italic:1273"/><use x="16887" y="3242.5" xlink:href="#s85:montserrat-italic:3"/><use x="17149" y="3242.5" xlink:href="#s85:montserrat-italic:558"/><use x="17622" y="3242.5" xlink:href="#s85:montserrat-italic:547"/><use x="18305" y="3242.5" xlink:href="#s85:montserrat-italic:512"/><use x="18932" y="3242.5" xlink:href="#s85:montserrat-italic:550"/><use x="19316" y="3242.5" xlink:href="#s85:montserrat-italic:571"/><use x="19715" y="3242.5" xlink:href="#s85:montserrat-italic:1273"/><use x="19911" y="3242.5" xlink:href="#s85:montserrat-italic:3"/><use x="20173" y="3242.5" xlink:href="#s85:montserrat-italic:429"/><use x="20775" y="3242.5" xlink:href="#s85:montserrat-italic:571"/><use x="21174" y="3242.5" xlink:href="#s85:montserrat-italic:415"/><use x="21756" y="3242.5" xlink:href="#s85:montserrat-italic:1273"/></g></svg>