<svg xmlns="http://www.w3.org/2000/svg" xmlns:xlink="http://www.w3.org/1999/xlink" width="719" height="84" viewBox="0 0 29938 3493.5" ><defs><path id="s77:montserrat-black:283" d="M5-701L636-701L636-518L436-518L436 0L204 0L204-518L5-518L5-701Z"/><path id="s77:montserrat-black:515" d="M451-557Q508-557 552.50-531Q597-505 622-458Q647-411 647-349L647 0L422 0L422-284Q422-318 404-338.50Q386-359 357-359Q324-359 304.50-335Q285-311 285-271L285 0L60 0L60-742L285-742L285-469Q313-512 355.50-534.50Q398-557 451-557Z"/><path id="s77:montserrat-black:457" d="M307-555Q397-555 463-518Q529-481 564-412.50Q599-344 599-252Q599-233 598-223L242-223Q253-191 276.50-174.50Q300-158 333-158Q392-158 444-207L561-92Q517-43 454.50-17.50Q392 8 313 8Q221 8 153.50-26.50Q86-61 50.50-124Q15-187 15-271Q15-357 51-421Q87-485 153.50-520Q220-555 307-555M373-327Q375-361 356.50-383Q338-405 309-405Q281-405 262.50-384Q244-363 237-327L373-327Z"/><path id="s77:montserrat-black:3" d=""/><path id="s77:montserrat-black:75" d="M50-701L643-701L643-525L282-525L282-439L610-439L610-263L282-263L282-176L652-176L652 0L50 0L50-701Z"/><path id="s77:montserrat-black:653" d="M617-547L617 0L392 0L392-76Q365-34 324-12Q283 10 231 10Q175 10 132-16Q89-42 64.50-89Q40-136 40-198L40-547L265-547L265-263Q265-229 281.50-208.50Q298-188 325-188Q356-188 374-212Q392-236 392-276L392-547L617-547Z"/><path id="s77:montserrat-black:616" d="M280-467Q309-510 351.50-533.50Q394-557 447-557L447-354Q425-357 404-357Q346-357 313-331.50Q280-306 280-261L280 0L55 0L55-547L280-547L280-467Z"/><path id="s77:montserrat-black:577" d="M324-555Q417-555 487-520.50Q557-486 595-422.50Q633-359 633-274Q633-189 595-125.50Q557-62 487-27Q417 8 324 8Q231 8 161-27Q91-62 53-125.50Q15-189 15-274Q15-359 53-422.50Q91-486 161-520.50Q231-555 324-555M324-377Q287-377 264.50-348Q242-319 242-271Q242-223 264.50-194Q287-165 324-165Q361-165 383.50-194Q406-223 406-271Q406-319 383.50-348Q361-377 324-377Z"/><path id="s77:montserrat-black:613" d="M424-555Q499-555 556-520Q613-485 644-420.50Q675-356 675-270Q675-186 645-123Q615-60 559.50-26Q504 8 430 8Q386 8 349-8.50Q312-25 285-56L285 194L60 194L60-547L285-547L285-492Q339-555 424-555M366-170Q403-170 425.50-199Q448-228 448-276Q448-324 425.50-353Q403-382 366-382Q329-382 307-353Q285-324 285-276Q285-228 307-199Q329-170 366-170Z"/><path id="s77:montserrat-black:387" d="M321-557Q440-557 506.50-503.50Q573-450 573-354L573 0L352 0L352-59Q302 10 198 10Q112 10 63.50-36.50Q15-83 15-162Q15-243 69-285Q123-327 227-329L352-329Q351-358 329.50-373.50Q308-389 267-389Q235-389 190.50-380Q146-371 101-354L51-504Q121-530 190.50-543.50Q260-557 321-557M276-133Q298-133 318.50-144Q339-155 352-175L352-225L274-225Q226-225 226-181Q226-158 239-145.50Q252-133 276-133Z"/><path id="s77:montserrat-black:566" d="M446-557Q503-557 547.50-531Q592-505 617-458Q642-411 642-349L642 0L417 0L417-284Q417-318 399-338.50Q381-359 352-359Q319-359 299.50-335Q280-311 280-271L280 0L55 0L55-547L280-547L280-469Q308-512 350.50-534.50Q393-557 446-557Z"/><path id="s77:montserrat-black:546" d="M60-742L285-742L285 0L60 0L60-742Z"/><path id="s77:montserrat-black:508" d="M601-547L601-45Q601 30 562.50 86.50Q524 143 454.50 173.50Q385 204 295 204Q220 204 151.50 184Q83 164 37 133L108-18Q143 4 189 17Q235 30 275 30Q324 30 350.50 11.50Q377-7 377-39L377-91Q325-33 240-33Q176-33 124.50-65.50Q73-98 44-158Q15-218 15-297Q15-374 43-432.50Q71-491 121.50-523Q172-555 236-555Q324-555 377-496L377-547L601-547M301-193Q335-193 356-220Q377-247 377-291Q377-336 356.50-363Q336-390 301-390Q266-390 245.50-363Q225-336 225-291Q225-247 246-220Q267-193 301-193Z"/><path id="s77:montserrat-black:624" d="M459-349Q337-409 274-409Q260-409 251.50-404Q243-399 243-391Q243-379 261-371Q279-363 321-352Q380-336 422-319Q464-302 495.50-267Q527-232 527-176Q527-120 496.50-78Q466-36 410-13Q354 10 279 10Q126 10 12-68L80-208Q190-140 282-140Q298-140 307-144.50Q316-149 316-156Q316-167 298.50-174.50Q281-182 242-192Q183-207 142-224Q101-241 69.50-276Q38-311 38-368Q38-425 68-467.50Q98-510 152.50-533.50Q207-557 279-557Q410-557 533-488L459-349Z"/><path id="s77:montserrat-black:564" d="M799-557Q855-557 899-531Q943-505 967.50-458Q992-411 992-349L992 0L767 0L767-284Q767-318 750-338.50Q733-359 705-359Q674-359 655-335Q636-311 636-271L636 0L411 0L411-284Q411-318 394-338.50Q377-359 349-359Q318-359 299-335Q280-311 280-271L280 0L55 0L55-547L280-547L280-470Q308-512 349.50-534.50Q391-557 443-557Q505-557 551.50-526Q598-495 620-440Q647-496 692.50-526.50Q738-557 799-557Z"/><path id="s77:montserrat-black:441" d="M424-555Q499-555 556-520Q613-485 644-420.50Q675-356 675-270Q675-186 645-123Q615-60 559.50-26Q504 8 430 8Q386 8 349-8.50Q312-25 285-56L285 0L60 0L60-742L285-742L285-492Q339-555 424-555M366-170Q403-170 425.50-199Q448-228 448-276Q448-324 425.50-353Q403-382 366-382Q329-382 307-353Q285-324 285-276Q285-228 307-199Q329-170 366-170Z"/><path id="s77:montserrat-black:505" d="M368-578Q346-578 332.50-565.50Q319-553 319-532L319-517L425-517L425-375L319-375L319 0L95 0L95-375L20-375L20-517L95-517L95-566Q95-651 156-701.50Q217-752 319-752Q386-752 449-733L427-567Q387-578 368-578Z"/><path id="s77:montserrat-black:637" d="M445-24Q418-8 374.50 1Q331 10 286 10Q194 10 138.50-40.50Q83-91 83-176L83-375L8-375L8-517L83-517L83-670L307-670L307-517L435-517L435-375L307-375L307-210Q307-188 319-175.50Q331-163 351-164Q370-164 407-178L445-24Z"/><path id="s77:montserrat-black:520" d="M55-547L280-547L280 0L55 0L55-547M165-817Q215-817 247-785Q279-753 279-703Q279-653 247-621Q215-589 165-589Q115-589 83-621Q51-653 51-703Q51-753 83-785Q115-817 165-817Z"/><path id="s77:montserrat-black:688" d="M409 38Q375 123 316 163.50Q257 204 169 204Q115 204 69.50 188.50Q24 173-20 140L74-8Q109 24 147 24Q185 24 201-4L209-17L-18-547L213-547L321-235L410-547L634-547L409 38Z"/><path id="s77:montserrat-black:1245" d="M132-197Q178-197 206.50-168.50Q235-140 235-95Q235-49 206.50-20.50Q178 8 132 8Q87 8 58.50-20.50Q30-49 30-95Q30-140 58.50-168.50Q87-197 132-197Z"/><path id="s77:montserrat-black:687" d="M6-547L264-547L327-419L401-547L647-547L477-281L659 0L400 0L327-142L242 0L-5 0L176-280L6-547Z"/><path id="s77:montserrat-black:442" d="M384-321Q362-373 314-373Q281-373 261.50-345.50Q242-318 242-272Q242-225 261.50-197.50Q281-170 314-170Q364-170 381-229L563-145Q533-72 464.50-32Q396 8 302 8Q216 8 151-26.50Q86-61 50.50-124Q15-187 15-271Q15-356 50.50-420.50Q86-485 151.50-520Q217-555 304-555Q393-555 461-513.50Q529-472 563-397L384-321Z"/><path id="s77:montserrat-black:121" d="M50-701L614-701L614-525L282-525L282-404L593-404L593-228L282-228L282 0L50 0L50-701Z"/><path id="s77:montserrat-black:1239" d="M134-197Q177-197 206.50-170Q236-143 236-96Q236-57 209-16L112 130L8 130L69-17Q31-45 31-95Q31-140 60-168.50Q89-197 134-197Z"/></defs><g id="line-0"><use x="0" y="842.5" xlink:href="#s77:montserrat-black:283" /><use x="641" y="842.5" xlink:href="#s77:montserrat-black:515" /><use x="1328" y="842.5" xlink:href="#s77:montserrat-black:457" /><use x="1942" y="842.5" xlink:href="#s77:montserrat-black:3" /><use x="2142" y="842.5" xlink:href="#s77:montserrat-black:75" /><use x="2832" y="842.5" xlink:href="#s77:montserrat-black:653" /><use x="3504" y="842.5" xlink:href="#s77:montserrat-black:616" /><use x="3961" y="842.5" xlink:href="#s77:montserrat-black:577" /><use x="4609" y="842.5" xlink:href="#s77:montserrat-black:613" /><use x="5299" y="842.5" xlink:href="#s77:montserrat-black:457" /><use x="5913" y="842.5" xlink:href="#s77:montserrat-black:387" /><use x="6526" y="842.5" xlink:href="#s77:montserrat-black:566" /><use x="7208" y="842.5" xlink:href="#s77:montserrat-black:3" /><use x="7408" y="842.5" xlink:href="#s77:montserrat-black:546" /><use x="7753" y="842.5" xlink:href="#s77:montserrat-black:387" /><use x="8366" y="842.5" xlink:href="#s77:montserrat-black:566" /><use x="9048" y="842.5" xlink:href="#s77:montserrat-black:508" /><use x="9702" y="842.5" xlink:href="#s77:montserrat-black:653" /><use x="10374" y="842.5" xlink:href="#s77:montserrat-black:387" /><use x="10987" y="842.5" xlink:href="#s77:montserrat-black:508" /><use x="11641" y="842.5" xlink:href="#s77:montserrat-black:457" /><use x="12255" y="842.5" xlink:href="#s77:montserrat-black:624" /><use x="12807" y="842.5" xlink:href="#s77:montserrat-black:3" /><use x="13007" y="842.5" xlink:href="#s77:montserrat-black:387" /><use x="13620" y="842.5" xlink:href="#s77:montserrat-black:616" /><use x="14077" y="842.5" xlink:href="#s77:montserrat-black:457" /><use x="14691" y="842.5" xlink:href="#s77:montserrat-black:3" /><use x="14891" y="842.5" xlink:href="#s77:montserrat-black:564" /><use x="15923" y="842.5" xlink:href="#s77:montserrat-black:457" /><use x="16537" y="842.5" xlink:href="#s77:montserrat-black:564" /><use x="17569" y="842.5" xlink:href="#s77:montserrat-black:441" /><use x="18259" y="842.5" xlink:href="#s77:montserrat-black:457" /><use x="18873" y="842.5" xlink:href="#s77:montserrat-black:616" /><use x="19330" y="842.5" xlink:href="#s77:montserrat-black:624" /><use x="19882" y="842.5" xlink:href="#s77:montserrat-black:3" /><use x="20082" y="842.5" xlink:href="#s77:montserrat-black:577" /><use x="20730" y="842.5" xlink:href="#s77:montserrat-black:505" /><use x="21156" y="842.5" xlink:href="#s77:montserrat-black:3" /><use x="21356" y="842.5" xlink:href="#s77:montserrat-black:637" /><use x="21816" y="842.5" xlink:href="#s77:montserrat-black:515" /><use x="22503" y="842.5" xlink:href="#s77:montserrat-black:457" /><use x="23117" y="842.5" xlink:href="#s77:montserrat-black:3" /><use x="23317" y="842.5" xlink:href="#s77:montserrat-black:624" /><use x="23869" y="842.5" xlink:href="#s77:montserrat-black:387" /><use x="24482" y="842.5" xlink:href="#s77:montserrat-black:564" /><use x="25514" y="842.5" xlink:href="#s77:montserrat-black:457" /><use x="26128" y="842.5" xlink:href="#s77:montserrat-black:3" /><use x="26328" y="842.5" xlink:href="#s77:montserrat-black:505" /><use x="26754" y="842.5" xlink:href="#s77:montserrat-black:387" /><use x="27367" y="842.5" xlink:href="#s77:montserrat-black:564" /><use x="28399" y="842.5" xlink:href="#s77:montserrat-black:520" /><use x="28734" y="842.5" xlink:href="#s77:montserrat-black:546" /><use x="29079" y="842.5" xlink:href="#s77:montserrat-black:688" /><use x="29703" y="842.5" xlink:href="#s77:montserrat-black:1245" /></g><g id="line-1"><use x="5983.5" y="2042.5" xlink:href="#s77:montserrat-black:283" /><use x="6624.5" y="2042.5" xlink:href="#s77:montserrat-black:515" /><use x="7311.5" y="2042.5" xlink:href="#s77:montserrat-black:457" /><use x="7925.5" y="2042.5" xlink:href="#s77:montserrat-black:520" /><use x="8260.5" y="2042.5" xlink:href="#s77:montserrat-black:616" /><use x="8717.5" y="2042.5" xlink:href="#s77:montserrat-black:3" /><use x="8917.5" y="2042.5" xlink:href="#s77:montserrat-black:624" /><use x="9469.5" y="2042.5" xlink:href="#s77:montserrat-black:457" /><use x="10083.5" y="2042.5" xlink:href="#s77:montserrat-black:613" /><use x="10773.5" y="2042.5" xlink:href="#s77:montserrat-black:387" /><use x="11386.5" y="2042.5" xlink:href="#s77:montserrat-black:616" /><use x="11843.5" y="2042.5" xlink:href="#s77:montserrat-black:387" /><use x="12456.5" y="2042.5" xlink:href="#s77:montserrat-black:637" /><use x="12916.5" y="2042.5" xlink:href="#s77:montserrat-black:457" /><use x="13530.5" y="2042.5" xlink:href="#s77:montserrat-black:3" /><use x="13730.5" y="2042.5" xlink:href="#s77:montserrat-black:457" /><use x="14344.5" y="2042.5" xlink:href="#s77:montserrat-black:687" /><use x="14998.5" y="2042.5" xlink:href="#s77:montserrat-black:520" /><use x="15333.5" y="2042.5" xlink:href="#s77:montserrat-black:624" /><use x="15885.5" y="2042.5" xlink:href="#s77:montserrat-black:637" /><use x="16345.5" y="2042.5" xlink:href="#s77:montserrat-black:457" /><use x="16959.5" y="2042.5" xlink:href="#s77:montserrat-black:566" /><use x="17641.5" y="2042.5" xlink:href="#s77:montserrat-black:442" /><use x="18202.5" y="2042.5" xlink:href="#s77:montserrat-black:457" /><use x="18816.5" y="2042.5" xlink:href="#s77:montserrat-black:3" /><use x="19016.5" y="2042.5" xlink:href="#s77:montserrat-black:520" /><use x="19351.5" y="2042.5" xlink:href="#s77:montserrat-black:624" /><use x="19903.5" y="2042.5" xlink:href="#s77:montserrat-black:3" /><use x="20103.5" y="2042.5" xlink:href="#s77:montserrat-black:387" /><use x="20716.5" y="2042.5" xlink:href="#s77:montserrat-black:3" /><use x="20916.5" y="2042.5" xlink:href="#s77:montserrat-black:564" /><use x="21948.5" y="2042.5" xlink:href="#s77:montserrat-black:688" /><use x="22572.5" y="2042.5" xlink:href="#s77:montserrat-black:637" /><use x="23032.5" y="2042.5" xlink:href="#s77:montserrat-black:515" /><use x="23719.5" y="2042.5" xlink:href="#s77:montserrat-black:1245" /></g><g id="line-2"><use x="7429" y="3242.5" xlink:href="#s77:montserrat-black:121" /><use x="8060" y="3242.5" xlink:href="#s77:montserrat-black:577" /><use x="8708" y="3242.5" xlink:href="#s77:montserrat-black:616" /><use x="9165" y="3242.5" xlink:href="#s77:montserrat-black:3" /><use x="9365" y="3242.5" xlink:href="#s77:montserrat-black:624" /><use x="9917" y="3242.5" xlink:href="#s77:montserrat-black:442" /><use x="10478" y="3242.5" xlink:href="#s77:montserrat-black:520" /><use x="10813" y="3242.5" xlink:href="#s77:montserrat-black:457" /><use x="11427" y="3242.5" xlink:href="#s77:montserrat-black:566" /><use x="12109" y="3242.5" xlink:href="#s77:montserrat-black:442" /><use x="12670" y="3242.5" xlink:href="#s77:montserrat-black:457" /><use x="13284" y="3242.5" xlink:href="#s77:montserrat-black:1239" /><use x="13549" y="3242.5" xlink:href="#s77:montserrat-black:3" /><use x="13749" y="3242.5" xlink:href="#s77:montserrat-black:564" /><use x="14781" y="3242.5" xlink:href="#s77:montserrat-black:653" /><use x="15453" y="3242.5" xlink:href="#s77:montserrat-black:624" /><use x="16005" y="3242.5" xlink:href="#s77:montserrat-black:520" /><use x="16340" y="3242.5" xlink:href="#s77:montserrat-black:442" /><use x="16901" y="3242.5" xlink:href="#s77:montserrat-black:1239" /><use x="17166" y="3242.5" xlink:href="#s77:montserrat-black:3" /><use x="17366" y="3242.5" xlink:href="#s77:montserrat-black:624" /><use x="17918" y="3242.5" xlink:href="#s77:montserrat-black:613" /><use x="18608" y="3242.5" xlink:href="#s77:montserrat-black:577" /><use x="19256" y="3242.5" xlink:href="#s77:montserrat-black:616" /><use x="19713" y="3242.5" xlink:href="#s77:montserrat-black:637" /><use x="20173" y="3242.5" xlink:href="#s77:montserrat-black:1239" /><use x="20438" y="3242.5" xlink:href="#s77:montserrat-black:3" /><use x="20638" y="3242.5" xlink:href="#s77:montserrat-black:457" /><use x="21252" y="3242.5" xlink:href="#s77:montserrat-black:637" /><use x="21712" y="3242.5" xlink:href="#s77:montserrat-black:442" /><use x="22273" y="3242.5" xlink:href="#s77:montserrat-black:1239" /></g></svg>