<svg xmlns="http://www.w3.org/2000/svg" xmlns:xlink="http://www.w3.org/1999/xlink" width="730" height="84" viewBox="0 0 30412 3493.5"><defs><path id="s82:montserrat-extrabolditalic:187" d="M708-701L675-535L470-535L363 0L155 0L262-535L59-535L92-701L708-701Z"/><path id="s82:montserrat-extrabolditalic:461" d="M474-551Q556-551 606-501Q656-451 656-372Q656-350 651-322L586 0L384 0L442-292Q445-306 445-316Q445-347 427.50-365Q410-383 380-383Q341-383 310-351.50Q279-320 270-271L216 0L14 0L160-742L363-742L310-474Q376-551 474-551Z"/><path id="s82:montserrat-extrabolditalic:429" d="M327-550Q410-550 472-519Q534-488 567-432Q600-376 600-302Q600-264 591-223L218-223Q223-183 249-162Q275-141 318-141Q381-141 436-184L538-79Q443 7 311 7Q223 7 157-23Q91-53 55-109Q19-165 19-239Q19-328 59-399Q99-470 169-510Q239-550 327-550M406-322Q409-334 409-344Q409-374 390-392.50Q371-411 340-411Q306-411 277-386.50Q248-362 232-322L406-322Z"/><path id="s82:montserrat-extrabolditalic:3" d=""/><path id="s82:montserrat-extrabolditalic:47" d="M686-541L320-541L298-431L630-431L598-271L266-271L243-160L619-160L587 0L4 0L144-701L718-701L686-541Z"/><path id="s82:montserrat-extrabolditalic:579" d="M213 7Q131 7 81.50-42.50Q32-92 32-171Q32-200 37-222L101-544L303-544L245-252Q242-239 242-228Q242-197 259.50-179Q277-161 307-161Q346-161 377-192.50Q408-224 418-273L472-544L674-544L566 0L364 0L377-70Q312 7 213 7Z"/><path id="s82:montserrat-extrabolditalic:550" d="M303-467Q376-552 484-552L460-371Q440-373 430-373Q365-373 317.50-339Q270-305 260-252L209 0L7 0L116-544L318-544L303-467Z"/><path id="s82:montserrat-extrabolditalic:512" d="M353-551Q437-551 499.50-520Q562-489 595.50-432.50Q629-376 629-300Q629-209 587-139.50Q545-70 469.50-31.50Q394 7 297 7Q213 7 150.50-24Q88-55 54.50-112Q21-169 21-245Q21-335 63-404.50Q105-474 180.50-512.50Q256-551 353-551M337-391Q288-391 257-353Q226-315 226-254Q226-206 249.50-177.50Q273-149 313-149Q362-149 393-186.50Q424-224 424-285Q424-333 400.50-362Q377-391 337-391Z"/><path id="s82:montserrat-extrabolditalic:547" d="M469-551Q529-551 576-521Q623-491 649-437Q675-383 675-314Q675-225 637.50-151.50Q600-78 534.50-35.50Q469 7 391 7Q335 7 294-15.50Q253-38 230-81L175 194L-27 194L121-544L323-544L311-485Q382-551 469-551M388-400Q356-400 328.50-380.50Q301-361 285-328Q269-295 269-256Q269-211 292-184.50Q315-158 354-158Q386-158 412.50-177.50Q439-197 455-229.50Q471-262 471-301Q471-347 448.50-373.50Q426-400 388-400Z"/><path id="s82:montserrat-extrabolditalic:387" d="M224 7Q164 7 117-23Q70-53 44-106.50Q18-160 18-230Q18-319 55.50-392.50Q93-466 158.50-508.50Q224-551 302-551Q358-551 399-528.50Q440-506 463-463L479-544L680-544L572 0L370 0L382-59Q313 7 224 7M305-144Q337-144 364.50-163.50Q392-183 408-216Q424-249 424-288Q424-332 401-359Q378-386 339-386Q307-386 280.50-366.50Q254-347 238-314.50Q222-282 222-243Q222-197 244.50-170.50Q267-144 305-144Z"/><path id="s82:montserrat-extrabolditalic:501" d="M469-551Q551-551 600.50-501.50Q650-452 650-373Q650-345 645-322L581 0L379 0L437-292Q440-306 440-316Q440-347 422.50-365Q405-383 375-383Q337-383 305.50-351.50Q274-320 264-271L210 0L8 0L116-544L318-544L305-474Q370-551 469-551Z"/><path id="s82:montserrat-extrabolditalic:490" d="M362-742L214 0L12 0L160-742L362-742Z"/><path id="s82:montserrat-extrabolditalic:454" d="M225 203Q150 203 85 182Q20 161-28 127L55 0Q87 23 130.50 34.50Q174 46 216 46Q272 46 308.50 19.50Q345-7 354-52L360-83Q295-31 214-31Q158-31 114-58.50Q70-86 45.50-134.50Q21-183 21-246Q21-331 56.50-400.50Q92-470 153.50-510.50Q215-551 288-551Q339-551 377-531Q415-511 437-472L452-544L653-544L551-32Q530 79 442 141Q354 203 225 203M296-182Q339-182 369.50-217Q400-252 400-301Q400-340 380-363Q360-386 327-386Q285-386 255-348.50Q225-311 225-259Q225-223 244-202.50Q263-182 296-182Z"/><path id="s82:montserrat-extrabolditalic:558" d="M265 8Q184 8 108.50-19.50Q33-47-21-97L61-214Q108-175 158.50-152Q209-129 251-129Q274-129 286.50-137.50Q299-146 299-161Q299-173 282-182.50Q265-192 228-206Q177-226 144.50-243Q112-260 87-291.50Q62-323 62-369Q62-422 90-463.50Q118-505 168.50-528Q219-551 285-551Q354-551 424.50-526.50Q495-502 554-458L466-343Q417-376 370.50-395.50Q324-415 293-415Q275-415 263-406.50Q251-398 251-385Q251-372 268.50-361.50Q286-351 325-336Q376-316 409-298Q442-280 467-249Q492-218 492-172Q492-119 463.50-78Q435-37 383.50-14.50Q332 8 265 8Z"/><path id="s82:montserrat-extrabolditalic:499" d="M839-551Q921-551 971-501Q1021-451 1021-372Q1021-350 1016-322L951 0L749 0L807-292Q810-306 810-316Q810-347 792.50-365Q775-383 745-383Q706-383 675-351.50Q644-320 635-271L581 0L379 0L437-292Q440-306 440-316Q440-347 422.50-365Q405-383 375-383Q337-383 305.50-351.50Q274-320 264-271L210 0L8 0L116-544L318-544L305-474Q370-551 469-551Q533-551 578.50-519.50Q624-488 642-434Q724-551 839-551Z"/><path id="s82:montserrat-extrabolditalic:414" d="M469-551Q529-551 576-521Q623-491 649-437Q675-383 675-313Q675-224 637.50-150.50Q600-77 535-34.50Q470 8 392 8Q336 8 295-14.50Q254-37 231-81L215 0L13 0L160-742L362-742L311-484Q345-516 385-533.50Q425-551 469-551M388-399Q356-399 329-379.50Q302-360 286-327Q270-294 270-256Q270-211 293-184.50Q316-158 355-158Q386-158 413-177Q440-196 456-229Q472-262 472-300Q472-346 449.50-372.50Q427-399 388-399Z"/><path id="s82:montserrat-extrabolditalic:453" d="M431-594Q402-594 379.50-576.50Q357-559 352-533L349-516L460-516L435-387L323-387L245 0L44 0L122-387L47-387L73-516L147-516L159-574Q176-659 240-705Q304-751 397-751Q464-751 526-728L477-583Q467-587 453-590.50Q439-594 431-594Z"/><path id="s82:montserrat-extrabolditalic:571" d="M273-193Q271-179 271-175Q271-161 278.50-155Q286-149 300-149Q314-149 329.50-154Q345-159 369-168L389-23Q358-7 317 1Q276 9 236 9Q157 9 111.50-30.50Q66-70 66-137Q66-159 70-178L111-387L36-387L62-516L137-516L167-667L368-667L338-516L472-516L446-387L312-387L273-193Z"/><path id="s82:montserrat-extrabolditalic:466" d="M318-544L209 0L7 0L116-544L318-544M268-803Q307-803 330.50-779.50Q354-756 354-718Q354-666 317-630.50Q280-595 227-595Q188-595 164.50-618.50Q141-642 141-680Q141-732 178-767.50Q215-803 268-803Z"/><path id="s82:montserrat-extrabolditalic:609" d="M666-544L319 53Q273 132 212.50 167.50Q152 203 73 203Q20 203-20 187Q-60 171-98 139L3 14Q18 29 32 34Q46 39 64 39Q106 39 140 3L156-15L38-544L242-544L292-209L462-544L666-544Z"/><path id="s82:montserrat-extrabolditalic:1278" d="M101-180Q140-180 163.50-157Q187-134 187-96Q187-51 158-21.50Q129 8 84 8Q46 8 22.50-15.50Q-1-39-1-77Q-1-123 28-151.50Q57-180 101-180Z"/><path id="s82:montserrat-extrabolditalic:608" d="M297-544L341-403L455-544L680-544L455-279L579 0L351 0L300-154L172 0L-56 0L185-278L69-544L297-544Z"/><path id="s82:montserrat-extrabolditalic:415" d="M277 7Q199 7 141-23.50Q83-54 51.50-110Q20-166 20-241Q20-332 60-402.50Q100-473 171.50-512Q243-551 335-551Q420-551 481.50-514Q543-477 571-409L409-333Q398-359 377-373Q356-387 327-387Q283-387 254-350Q225-313 225-255Q225-208 246-180.50Q267-153 304-153Q365-153 396-213L545-134Q508-67 437.50-30Q367 7 277 7Z"/><path id="s82:montserrat-extrabolditalic:70" d="M656-541L320-541L292-401L605-401L573-241L260-241L212 0L4 0L144-701L688-701L656-541Z"/><path id="s82:montserrat-extrabolditalic:1273" d="M90-180Q128-180 152-158Q176-136 176-95Q176-56 144-13L44 126L-51 126L18-14Q-13-36-13-75Q-13-120 16.50-150Q46-180 90-180Z"/></defs><g id="line-0"><use x="0" y="842.5" xlink:href="#s82:montserrat-extrabolditalic:187"/><use x="629" y="842.5" xlink:href="#s82:montserrat-extrabolditalic:461"/><use x="1316" y="842.5" xlink:href="#s82:montserrat-extrabolditalic:429"/><use x="1935" y="842.5" xlink:href="#s82:montserrat-extrabolditalic:3"/><use x="2146" y="842.5" xlink:href="#s82:montserrat-extrabolditalic:47"/><use x="2829" y="842.5" xlink:href="#s82:montserrat-extrabolditalic:579"/><use x="3511" y="842.5" xlink:href="#s82:montserrat-extrabolditalic:550"/><use x="3962" y="842.5" xlink:href="#s82:montserrat-extrabolditalic:512"/><use x="4611" y="842.5" xlink:href="#s82:montserrat-extrabolditalic:547"/><use x="5304" y="842.5" xlink:href="#s82:montserrat-extrabolditalic:429"/><use x="5923" y="842.5" xlink:href="#s82:montserrat-extrabolditalic:387"/><use x="6611" y="842.5" xlink:href="#s82:montserrat-extrabolditalic:501"/><use x="7293" y="842.5" xlink:href="#s82:montserrat-extrabolditalic:3"/><use x="7504" y="842.5" xlink:href="#s82:montserrat-extrabolditalic:490"/><use x="7839" y="842.5" xlink:href="#s82:montserrat-extrabolditalic:387"/><use x="8527" y="842.5" xlink:href="#s82:montserrat-extrabolditalic:501"/><use x="9209" y="842.5" xlink:href="#s82:montserrat-extrabolditalic:454"/><use x="9865" y="842.5" xlink:href="#s82:montserrat-extrabolditalic:579"/><use x="10547" y="842.5" xlink:href="#s82:montserrat-extrabolditalic:387"/><use x="11235" y="842.5" xlink:href="#s82:montserrat-extrabolditalic:454"/><use x="11891" y="842.5" xlink:href="#s82:montserrat-extrabolditalic:429"/><use x="12510" y="842.5" xlink:href="#s82:montserrat-extrabolditalic:558"/><use x="13050" y="842.5" xlink:href="#s82:montserrat-extrabolditalic:3"/><use x="13261" y="842.5" xlink:href="#s82:montserrat-extrabolditalic:387"/><use x="13949" y="842.5" xlink:href="#s82:montserrat-extrabolditalic:550"/><use x="14400" y="842.5" xlink:href="#s82:montserrat-extrabolditalic:429"/><use x="15019" y="842.5" xlink:href="#s82:montserrat-extrabolditalic:3"/><use x="15230" y="842.5" xlink:href="#s82:montserrat-extrabolditalic:499"/><use x="16282" y="842.5" xlink:href="#s82:montserrat-extrabolditalic:429"/><use x="16901" y="842.5" xlink:href="#s82:montserrat-extrabolditalic:499"/><use x="17953" y="842.5" xlink:href="#s82:montserrat-extrabolditalic:414"/><use x="18647" y="842.5" xlink:href="#s82:montserrat-extrabolditalic:429"/><use x="19266" y="842.5" xlink:href="#s82:montserrat-extrabolditalic:550"/><use x="19717" y="842.5" xlink:href="#s82:montserrat-extrabolditalic:558"/><use x="20257" y="842.5" xlink:href="#s82:montserrat-extrabolditalic:3"/><use x="20468" y="842.5" xlink:href="#s82:montserrat-extrabolditalic:512"/><use x="21117" y="842.5" xlink:href="#s82:montserrat-extrabolditalic:453"/><use x="21523" y="842.5" xlink:href="#s82:montserrat-extrabolditalic:3"/><use x="21734" y="842.5" xlink:href="#s82:montserrat-extrabolditalic:571"/><use x="22189" y="842.5" xlink:href="#s82:montserrat-extrabolditalic:461"/><use x="22876" y="842.5" xlink:href="#s82:montserrat-extrabolditalic:429"/><use x="23495" y="842.5" xlink:href="#s82:montserrat-extrabolditalic:3"/><use x="23706" y="842.5" xlink:href="#s82:montserrat-extrabolditalic:558"/><use x="24246" y="842.5" xlink:href="#s82:montserrat-extrabolditalic:387"/><use x="24934" y="842.5" xlink:href="#s82:montserrat-extrabolditalic:499"/><use x="25986" y="842.5" xlink:href="#s82:montserrat-extrabolditalic:429"/><use x="26605" y="842.5" xlink:href="#s82:montserrat-extrabolditalic:3"/><use x="26816" y="842.5" xlink:href="#s82:montserrat-extrabolditalic:453"/><use x="27222" y="842.5" xlink:href="#s82:montserrat-extrabolditalic:387"/><use x="27910" y="842.5" xlink:href="#s82:montserrat-extrabolditalic:499"/><use x="28962" y="842.5" xlink:href="#s82:montserrat-extrabolditalic:466"/><use x="29287" y="842.5" xlink:href="#s82:montserrat-extrabolditalic:490"/><use x="29622" y="842.5" xlink:href="#s82:montserrat-extrabolditalic:609"/><use x="30225" y="842.5" xlink:href="#s82:montserrat-extrabolditalic:1278"/></g><g id="line-1"><use x="6143" y="2042.5" xlink:href="#s82:montserrat-extrabolditalic:187"/><use x="6772" y="2042.5" xlink:href="#s82:montserrat-extrabolditalic:461"/><use x="7459" y="2042.5" xlink:href="#s82:montserrat-extrabolditalic:429"/><use x="8078" y="2042.5" xlink:href="#s82:montserrat-extrabolditalic:466"/><use x="8403" y="2042.5" xlink:href="#s82:montserrat-extrabolditalic:550"/><use x="8854" y="2042.5" xlink:href="#s82:montserrat-extrabolditalic:3"/><use x="9065" y="2042.5" xlink:href="#s82:montserrat-extrabolditalic:558"/><use x="9605" y="2042.5" xlink:href="#s82:montserrat-extrabolditalic:429"/><use x="10224" y="2042.5" xlink:href="#s82:montserrat-extrabolditalic:547"/><use x="10917" y="2042.5" xlink:href="#s82:montserrat-extrabolditalic:387"/><use x="11605" y="2042.5" xlink:href="#s82:montserrat-extrabolditalic:550"/><use x="12056" y="2042.5" xlink:href="#s82:montserrat-extrabolditalic:387"/><use x="12744" y="2042.5" xlink:href="#s82:montserrat-extrabolditalic:571"/><use x="13199" y="2042.5" xlink:href="#s82:montserrat-extrabolditalic:429"/><use x="13818" y="2042.5" xlink:href="#s82:montserrat-extrabolditalic:3"/><use x="14029" y="2042.5" xlink:href="#s82:montserrat-extrabolditalic:429"/><use x="14648" y="2042.5" xlink:href="#s82:montserrat-extrabolditalic:608"/><use x="15281" y="2042.5" xlink:href="#s82:montserrat-extrabolditalic:466"/><use x="15606" y="2042.5" xlink:href="#s82:montserrat-extrabolditalic:558"/><use x="16146" y="2042.5" xlink:href="#s82:montserrat-extrabolditalic:571"/><use x="16601" y="2042.5" xlink:href="#s82:montserrat-extrabolditalic:429"/><use x="17220" y="2042.5" xlink:href="#s82:montserrat-extrabolditalic:501"/><use x="17902" y="2042.5" xlink:href="#s82:montserrat-extrabolditalic:415"/><use x="18480" y="2042.5" xlink:href="#s82:montserrat-extrabolditalic:429"/><use x="19099" y="2042.5" xlink:href="#s82:montserrat-extrabolditalic:3"/><use x="19310" y="2042.5" xlink:href="#s82:montserrat-extrabolditalic:466"/><use x="19635" y="2042.5" xlink:href="#s82:montserrat-extrabolditalic:558"/><use x="20175" y="2042.5" xlink:href="#s82:montserrat-extrabolditalic:3"/><use x="20386" y="2042.5" xlink:href="#s82:montserrat-extrabolditalic:387"/><use x="21074" y="2042.5" xlink:href="#s82:montserrat-extrabolditalic:3"/><use x="21285" y="2042.5" xlink:href="#s82:montserrat-extrabolditalic:499"/><use x="22337" y="2042.5" xlink:href="#s82:montserrat-extrabolditalic:609"/><use x="22940" y="2042.5" xlink:href="#s82:montserrat-extrabolditalic:571"/><use x="23395" y="2042.5" xlink:href="#s82:montserrat-extrabolditalic:461"/><use x="24082" y="2042.5" xlink:href="#s82:montserrat-extrabolditalic:1278"/></g><g id="line-2"><use x="7688.5" y="3242.5" xlink:href="#s82:montserrat-extrabolditalic:70"/><use x="8307.5" y="3242.5" xlink:href="#s82:montserrat-extrabolditalic:512"/><use x="8956.5" y="3242.5" xlink:href="#s82:montserrat-extrabolditalic:550"/><use x="9407.5" y="3242.5" xlink:href="#s82:montserrat-extrabolditalic:3"/><use x="9618.5" y="3242.5" xlink:href="#s82:montserrat-extrabolditalic:558"/><use x="10158.5" y="3242.5" xlink:href="#s82:montserrat-extrabolditalic:415"/><use x="10736.5" y="3242.5" xlink:href="#s82:montserrat-extrabolditalic:466"/><use x="11061.5" y="3242.5" xlink:href="#s82:montserrat-extrabolditalic:429"/><use x="11680.5" y="3242.5" xlink:href="#s82:montserrat-extrabolditalic:501"/><use x="12362.5" y="3242.5" xlink:href="#s82:montserrat-extrabolditalic:415"/><use x="12940.5" y="3242.5" xlink:href="#s82:montserrat-extrabolditalic:429"/><use x="13559.5" y="3242.5" xlink:href="#s82:montserrat-extrabolditalic:1273"/><use x="13805.5" y="3242.5" xlink:href="#s82:montserrat-extrabolditalic:3"/><use x="14016.5" y="3242.5" xlink:href="#s82:montserrat-extrabolditalic:499"/><use x="15068.5" y="3242.5" xlink:href="#s82:montserrat-extrabolditalic:579"/><use x="15750.5" y="3242.5" xlink:href="#s82:montserrat-extrabolditalic:558"/><use x="16290.5" y="3242.5" xlink:href="#s82:montserrat-extrabolditalic:466"/><use x="16615.5" y="3242.5" xlink:href="#s82:montserrat-extrabolditalic:415"/><use x="17193.5" y="3242.5" xlink:href="#s82:montserrat-extrabolditalic:1273"/><use x="17439.5" y="3242.5" xlink:href="#s82:montserrat-extrabolditalic:3"/><use x="17650.5" y="3242.5" xlink:href="#s82:montserrat-extrabolditalic:558"/><use x="18190.5" y="3242.5" xlink:href="#s82:montserrat-extrabolditalic:547"/><use x="18883.5" y="3242.5" xlink:href="#s82:montserrat-extrabolditalic:512"/><use x="19532.5" y="3242.5" xlink:href="#s82:montserrat-extrabolditalic:550"/><use x="19983.5" y="3242.5" xlink:href="#s82:montserrat-extrabolditalic:571"/><use x="20438.5" y="3242.5" xlink:href="#s82:montserrat-extrabolditalic:1273"/><use x="20684.5" y="3242.5" xlink:href="#s82:montserrat-extrabolditalic:3"/><use x="20895.5" y="3242.5" xlink:href="#s82:montserrat-extrabolditalic:429"/><use x="21514.5" y="3242.5" xlink:href="#s82:montserrat-extrabolditalic:571"/><use x="21969.5" y="3242.5" xlink:href="#s82:montserrat-extrabolditalic:415"/><use x="22547.5" y="3242.5" xlink:href="#s82:montserrat-extrabolditalic:1273"/></g></svg>