<svg xmlns="http://www.w3.org/2000/svg" xmlns:xlink="http://www.w3.org/1999/xlink" width="682" height="84" viewBox="0 0 28433 3493.5" ><defs><path id="s86:montserrat-light:283" d="M11-700L542-700L542-637L311-637L311 0L242 0L242-637L11-637L11-700Z"/><path id="s86:montserrat-light:515" d="M378-526Q472-526 525.50-471.50Q579-417 579-322L579 0L511 0L511-306Q511-380 470-422Q429-464 356-464Q269-463 219.50-406.50Q170-350 170-257L170 0L103 0L103-742L170-742L170-400Q223-524 378-526Z"/><path id="s86:montserrat-light:457" d="M302-526Q424-526 488-448.50Q552-371 547-240L110-240Q117-156 172-104.50Q227-53 308-53Q358-53 401-71Q444-89 475-122L513-84Q475-43 421.50-20.50Q368 2 304 2Q228 2 169-31.50Q110-65 76.50-125Q43-185 43-262Q43-338 76.50-398.50Q110-459 169-492.50Q228-526 302-526M487-292Q482-374 432.50-422.50Q383-471 303-471Q224-471 171-422Q118-373 110-292L487-292Z"/><path id="s86:montserrat-light:3" d=""/><path id="s86:montserrat-light:75" d="M110-699L578-699L578-637L179-637L179-387L536-387L536-325L179-325L179-62L591-62L591 0L110 0L110-699Z"/><path id="s86:montserrat-light:653" d="M548-524L548 0L480 0L480-125Q454-63 402.50-31Q351 1 278 2Q185 2 132.50-52.50Q80-107 80-202L80-524L148-524L148-218Q148-144 188.50-102.50Q229-61 300-61Q384-62 432-118.50Q480-175 480-267L480-524L548-524Z"/><path id="s86:montserrat-light:616" d="M165-402Q191-462 239.50-493.50Q288-525 356-526L356-463Q273-464 222.50-414.50Q172-365 165-280L165 0L98 0L98-524L165-524L165-402Z"/><path id="s86:montserrat-light:577" d="M308-526Q384-526 444-492.50Q504-459 538-399Q572-339 572-263Q572-186 538-125.50Q504-65 444-31.50Q384 2 308 2Q232 2 172-31.50Q112-65 78-125.50Q44-186 44-263Q44-339 78-399Q112-459 172-492.50Q232-526 308-526M308-468Q251-468 206-442Q161-416 136-369Q111-322 111-262Q111-201 136-154Q161-107 206-81Q251-55 308-55Q365-55 410-81Q455-107 480-154Q505-201 505-262Q505-322 480-369Q455-416 410-442Q365-468 308-468Z"/><path id="s86:montserrat-light:613" d="M379-526Q452-526 509.50-492.50Q567-459 599-398.50Q631-338 631-261Q631-185 599-125Q567-65 510-31.50Q453 2 380 2Q308 2 254-30.50Q200-63 170-121L170 194L103 194L103-524L170-524L170-403Q199-461 253.50-493.50Q308-526 379-526M367-56Q423-56 468-82.50Q513-109 538-156Q563-203 563-263Q563-322 538-369Q513-416 468-442.50Q423-469 367-469Q310-469 265.50-442.50Q221-416 195.50-369Q170-322 170-263Q170-203 195-156Q220-109 265-82.50Q310-56 367-56Z"/><path id="s86:montserrat-light:387" d="M427 0L426-88Q395-42 345-19.50Q295 3 230 3Q177 3 136.50-17.50Q96-38 74-74Q52-110 52-155Q52-223 104.50-262Q157-301 249-301L425-301L425-341Q425-403 388-437Q351-471 280-471Q196-471 111-408L81-454Q134-491 182-508.50Q230-526 292-526Q387-526 439-478.50Q491-431 492-347L493 0L427 0M242-53Q312-53 360.50-85.50Q409-118 426-177L426-249L257-249Q188-249 152-226Q116-203 116-157Q116-110 150.50-81.50Q185-53 242-53Z"/><path id="s86:montserrat-light:566" d="M372-526Q466-526 519.50-471.50Q573-417 573-322L573 0L505 0L505-306Q505-380 464-422Q423-464 350-464Q269-463 220.50-414Q172-365 165-282L165 0L98 0L98-524L165-524L165-402Q192-463 244.50-494Q297-525 372-526Z"/><path id="s86:montserrat-light:546" d="M103-742L170-742L170 0L103 0L103-742Z"/><path id="s86:montserrat-light:508" d="M551-524L551-55Q551 21 519 78Q487 135 427.50 165.50Q368 196 290 196Q174 196 75 116L107 68Q147 103 191 121Q235 139 287 139Q377 139 430.50 86.50Q484 34 484-54L484-139Q456-84 404-53Q352-22 284-22Q214-22 159.50-54.50Q105-87 74.50-144.50Q44-202 44-275Q44-348 74.50-405Q105-462 160-494Q215-526 285-526Q353-526 404-495.50Q455-465 484-409L484-524L551-524M296-76Q350-76 393-101.50Q436-127 460-172Q484-217 484-273Q484-330 460-375Q436-420 393-445.50Q350-471 296-471Q242-471 199-445.50Q156-420 131.50-375Q107-330 107-273Q107-216 131.50-171.50Q156-127 198.50-101.50Q241-76 296-76Z"/><path id="s86:montserrat-light:624" d="M369-431Q339-450 302-460.50Q265-471 229-471Q179-471 148.50-451.50Q118-432 118-393Q118-366 134.50-349Q151-332 175.50-321.50Q200-311 244-298Q298-282 332-266.50Q366-251 390-221.50Q414-192 414-144Q414-73 360-35.50Q306 2 225 2Q168 2 115-17Q62-36 26-71L53-119Q87-88 133.50-70Q180-52 228-52Q281-52 314.50-74Q348-96 348-138Q348-167 331-185.50Q314-204 288.50-214.50Q263-225 218-239Q165-255 132-270Q99-285 76-313.50Q53-342 53-388Q53-457 104.50-492Q156-527 233-527Q278-527 320-515Q362-503 395-482L369-431Z"/><path id="s86:montserrat-light:564" d="M767-526Q860-526 912-472Q964-418 964-322L964 0L896 0L896-306Q896-381 855.50-422.50Q815-464 744-464Q660-462 612.50-406Q565-350 565-258L565 0L497 0L497-306Q497-381 456.50-422.50Q416-464 345-464Q261-462 213-406Q165-350 165-258L165 0L98 0L98-524L165-524L165-401Q191-463 242.50-494Q294-525 368-526Q443-526 492.50-489Q542-452 558-385Q582-455 635.50-490Q689-525 767-526Z"/><path id="s86:montserrat-light:441" d="M379-526Q452-526 509.50-492.50Q567-459 599-398.50Q631-338 631-261Q631-185 599-125Q567-65 510-31.50Q453 2 380 2Q308 2 254-30.50Q200-63 170-121L170 0L103 0L103-742L170-742L170-403Q199-461 253.50-493.50Q308-526 379-526M367-56Q423-56 468-82.50Q513-109 538-156Q563-203 563-263Q563-322 538-369Q513-416 468-442.50Q423-469 367-469Q310-469 265.50-442.50Q221-416 195.50-369Q170-322 170-263Q170-203 195-156Q220-109 265-82.50Q310-56 367-56Z"/><path id="s86:montserrat-light:505" d="M278-690Q236-690 207.50-661Q179-632 179-584L179-510L333-510L333-457L179-457L179 0L112 0L112-457L45-457L45-510L112-510L112-576Q112-628 134-667.50Q156-707 193-728Q230-749 273-749Q322-749 365-725L348-671Q312-690 278-690Z"/><path id="s86:montserrat-light:637" d="M362-36Q308 1 246 3Q186 3 151-34Q116-71 116-145L116-457L41-457L40-509L116-509L116-644L183-644L183-509L353-510L353-457L183-457L183-156Q183-59 255-59Q295-59 342-87L362-36Z"/><path id="s86:montserrat-light:520" d="M98-524L165-524L165 0L98 0L98-524M132-722Q152-722 165-708.50Q178-695 178-675Q178-655 164.50-641Q151-627 132-627Q112-627 98.50-641Q85-655 85-675Q85-695 98.50-708.50Q112-722 132-722Z"/><path id="s86:montserrat-light:688" d="M254 75Q230 135 190.50 166Q151 197 100 197Q39 197-8 161L22 109Q57 133 97 133Q129 133 155 112Q181 91 198 51L220-3L3-524L74-524L254-74L427-524L496-524L254 75Z"/><path id="s86:montserrat-light:1245" d="M97-83Q116-83 129-70Q142-57 142-38Q142-19 129-5.50Q116 8 97 8Q78 8 65.50-5Q53-18 53-38Q53-57 65.50-70Q78-83 97-83Z"/><path id="s86:montserrat-light:687" d="M37-524L115-524L261-316L408-524L483-524L305-270L496 0L417 0L260-224L99 0L23 0L216-270L37-524Z"/><path id="s86:montserrat-light:442" d="M463-405Q399-467 306-467Q250-467 205-441Q160-415 135-368.50Q110-322 110-262Q110-202 135-155Q160-108 205-82Q250-56 306-56Q357-56 399.50-74Q442-92 471-126L509-86Q474-44 421-21Q368 2 303 2Q228 2 169-31.50Q110-65 76.50-125.50Q43-186 43-262Q43-338 76.50-398.50Q110-459 169-492.50Q228-526 303-526Q364-526 414.50-506Q465-486 501-450L463-405Z"/><path id="s86:montserrat-light:121" d="M110-699L548-699L548-637L179-637L179-368L508-368L508-306L179-306L179 0L110 0L110-699Z"/><path id="s86:montserrat-light:1239" d="M98-82Q116-82 128.50-69.50Q141-57 141-37Q141-23 130 1L80 115L40 115L79 2Q67-3 60.50-14Q54-25 54-37Q54-56 66.50-69Q79-82 98-82Z"/></defs><g id="line-0"><use x="0" y="842.5" xlink:href="#s86:montserrat-light:283" /><use x="553" y="842.5" xlink:href="#s86:montserrat-light:515" /><use x="1213" y="842.5" xlink:href="#s86:montserrat-light:457" /><use x="1802" y="842.5" xlink:href="#s86:montserrat-light:3" /><use x="2077" y="842.5" xlink:href="#s86:montserrat-light:75" /><use x="2727" y="842.5" xlink:href="#s86:montserrat-light:653" /><use x="3372" y="842.5" xlink:href="#s86:montserrat-light:616" /><use x="3738" y="842.5" xlink:href="#s86:montserrat-light:577" /><use x="4354" y="842.5" xlink:href="#s86:montserrat-light:613" /><use x="5029" y="842.5" xlink:href="#s86:montserrat-light:457" /><use x="5618" y="842.5" xlink:href="#s86:montserrat-light:387" /><use x="6192" y="842.5" xlink:href="#s86:montserrat-light:566" /><use x="6846" y="842.5" xlink:href="#s86:montserrat-light:3" /><use x="7121" y="842.5" xlink:href="#s86:montserrat-light:546" /><use x="7394" y="842.5" xlink:href="#s86:montserrat-light:387" /><use x="7968" y="842.5" xlink:href="#s86:montserrat-light:566" /><use x="8622" y="842.5" xlink:href="#s86:montserrat-light:508" /><use x="9257" y="842.5" xlink:href="#s86:montserrat-light:653" /><use x="9902" y="842.5" xlink:href="#s86:montserrat-light:387" /><use x="10476" y="842.5" xlink:href="#s86:montserrat-light:508" /><use x="11111" y="842.5" xlink:href="#s86:montserrat-light:457" /><use x="11700" y="842.5" xlink:href="#s86:montserrat-light:624" /><use x="12149" y="842.5" xlink:href="#s86:montserrat-light:3" /><use x="12424" y="842.5" xlink:href="#s86:montserrat-light:387" /><use x="12998" y="842.5" xlink:href="#s86:montserrat-light:616" /><use x="13364" y="842.5" xlink:href="#s86:montserrat-light:457" /><use x="13953" y="842.5" xlink:href="#s86:montserrat-light:3" /><use x="14228" y="842.5" xlink:href="#s86:montserrat-light:564" /><use x="15273" y="842.5" xlink:href="#s86:montserrat-light:457" /><use x="15862" y="842.5" xlink:href="#s86:montserrat-light:564" /><use x="16907" y="842.5" xlink:href="#s86:montserrat-light:441" /><use x="17582" y="842.5" xlink:href="#s86:montserrat-light:457" /><use x="18171" y="842.5" xlink:href="#s86:montserrat-light:616" /><use x="18537" y="842.5" xlink:href="#s86:montserrat-light:624" /><use x="18986" y="842.5" xlink:href="#s86:montserrat-light:3" /><use x="19261" y="842.5" xlink:href="#s86:montserrat-light:577" /><use x="19877" y="842.5" xlink:href="#s86:montserrat-light:505" /><use x="20202" y="842.5" xlink:href="#s86:montserrat-light:3" /><use x="20477" y="842.5" xlink:href="#s86:montserrat-light:637" /><use x="20862" y="842.5" xlink:href="#s86:montserrat-light:515" /><use x="21522" y="842.5" xlink:href="#s86:montserrat-light:457" /><use x="22111" y="842.5" xlink:href="#s86:montserrat-light:3" /><use x="22386" y="842.5" xlink:href="#s86:montserrat-light:624" /><use x="22835" y="842.5" xlink:href="#s86:montserrat-light:387" /><use x="23409" y="842.5" xlink:href="#s86:montserrat-light:564" /><use x="24454" y="842.5" xlink:href="#s86:montserrat-light:457" /><use x="25043" y="842.5" xlink:href="#s86:montserrat-light:3" /><use x="25318" y="842.5" xlink:href="#s86:montserrat-light:505" /><use x="25643" y="842.5" xlink:href="#s86:montserrat-light:387" /><use x="26217" y="842.5" xlink:href="#s86:montserrat-light:564" /><use x="27262" y="842.5" xlink:href="#s86:montserrat-light:520" /><use x="27524" y="842.5" xlink:href="#s86:montserrat-light:546" /><use x="27797" y="842.5" xlink:href="#s86:montserrat-light:688" /><use x="28291" y="842.5" xlink:href="#s86:montserrat-light:1245" /></g><g id="line-1"><use x="5908" y="2042.5" xlink:href="#s86:montserrat-light:283" /><use x="6461" y="2042.5" xlink:href="#s86:montserrat-light:515" /><use x="7121" y="2042.5" xlink:href="#s86:montserrat-light:457" /><use x="7710" y="2042.5" xlink:href="#s86:montserrat-light:520" /><use x="7972" y="2042.5" xlink:href="#s86:montserrat-light:616" /><use x="8338" y="2042.5" xlink:href="#s86:montserrat-light:3" /><use x="8613" y="2042.5" xlink:href="#s86:montserrat-light:624" /><use x="9062" y="2042.5" xlink:href="#s86:montserrat-light:457" /><use x="9651" y="2042.5" xlink:href="#s86:montserrat-light:613" /><use x="10326" y="2042.5" xlink:href="#s86:montserrat-light:387" /><use x="10900" y="2042.5" xlink:href="#s86:montserrat-light:616" /><use x="11266" y="2042.5" xlink:href="#s86:montserrat-light:387" /><use x="11840" y="2042.5" xlink:href="#s86:montserrat-light:637" /><use x="12225" y="2042.5" xlink:href="#s86:montserrat-light:457" /><use x="12814" y="2042.5" xlink:href="#s86:montserrat-light:3" /><use x="13089" y="2042.5" xlink:href="#s86:montserrat-light:457" /><use x="13678" y="2042.5" xlink:href="#s86:montserrat-light:687" /><use x="14200" y="2042.5" xlink:href="#s86:montserrat-light:520" /><use x="14462" y="2042.5" xlink:href="#s86:montserrat-light:624" /><use x="14911" y="2042.5" xlink:href="#s86:montserrat-light:637" /><use x="15296" y="2042.5" xlink:href="#s86:montserrat-light:457" /><use x="15885" y="2042.5" xlink:href="#s86:montserrat-light:566" /><use x="16539" y="2042.5" xlink:href="#s86:montserrat-light:442" /><use x="17100" y="2042.5" xlink:href="#s86:montserrat-light:457" /><use x="17689" y="2042.5" xlink:href="#s86:montserrat-light:3" /><use x="17964" y="2042.5" xlink:href="#s86:montserrat-light:520" /><use x="18226" y="2042.5" xlink:href="#s86:montserrat-light:624" /><use x="18675" y="2042.5" xlink:href="#s86:montserrat-light:3" /><use x="18950" y="2042.5" xlink:href="#s86:montserrat-light:387" /><use x="19524" y="2042.5" xlink:href="#s86:montserrat-light:3" /><use x="19799" y="2042.5" xlink:href="#s86:montserrat-light:564" /><use x="20844" y="2042.5" xlink:href="#s86:montserrat-light:688" /><use x="21338" y="2042.5" xlink:href="#s86:montserrat-light:637" /><use x="21723" y="2042.5" xlink:href="#s86:montserrat-light:515" /><use x="22383" y="2042.5" xlink:href="#s86:montserrat-light:1245" /></g><g id="line-2"><use x="7210.5" y="3242.5" xlink:href="#s86:montserrat-light:121" /><use x="7770.5" y="3242.5" xlink:href="#s86:montserrat-light:577" /><use x="8386.5" y="3242.5" xlink:href="#s86:montserrat-light:616" /><use x="8752.5" y="3242.5" xlink:href="#s86:montserrat-light:3" /><use x="9027.5" y="3242.5" xlink:href="#s86:montserrat-light:624" /><use x="9476.5" y="3242.5" xlink:href="#s86:montserrat-light:442" /><use x="10037.5" y="3242.5" xlink:href="#s86:montserrat-light:520" /><use x="10299.5" y="3242.5" xlink:href="#s86:montserrat-light:457" /><use x="10888.5" y="3242.5" xlink:href="#s86:montserrat-light:566" /><use x="11542.5" y="3242.5" xlink:href="#s86:montserrat-light:442" /><use x="12103.5" y="3242.5" xlink:href="#s86:montserrat-light:457" /><use x="12692.5" y="3242.5" xlink:href="#s86:montserrat-light:1239" /><use x="12884.5" y="3242.5" xlink:href="#s86:montserrat-light:3" /><use x="13159.5" y="3242.5" xlink:href="#s86:montserrat-light:564" /><use x="14204.5" y="3242.5" xlink:href="#s86:montserrat-light:653" /><use x="14849.5" y="3242.5" xlink:href="#s86:montserrat-light:624" /><use x="15298.5" y="3242.5" xlink:href="#s86:montserrat-light:520" /><use x="15560.5" y="3242.5" xlink:href="#s86:montserrat-light:442" /><use x="16121.5" y="3242.5" xlink:href="#s86:montserrat-light:1239" /><use x="16313.5" y="3242.5" xlink:href="#s86:montserrat-light:3" /><use x="16588.5" y="3242.5" xlink:href="#s86:montserrat-light:624" /><use x="17037.5" y="3242.5" xlink:href="#s86:montserrat-light:613" /><use x="17712.5" y="3242.5" xlink:href="#s86:montserrat-light:577" /><use x="18328.5" y="3242.5" xlink:href="#s86:montserrat-light:616" /><use x="18694.5" y="3242.5" xlink:href="#s86:montserrat-light:637" /><use x="19079.5" y="3242.5" xlink:href="#s86:montserrat-light:1239" /><use x="19271.5" y="3242.5" xlink:href="#s86:montserrat-light:3" /><use x="19546.5" y="3242.5" xlink:href="#s86:montserrat-light:457" /><use x="20135.5" y="3242.5" xlink:href="#s86:montserrat-light:637" /><use x="20520.5" y="3242.5" xlink:href="#s86:montserrat-light:442" /><use x="21081.5" y="3242.5" xlink:href="#s86:montserrat-light:1239" /></g></svg>