<svg xmlns="http://www.w3.org/2000/svg" xmlns:xlink="http://www.w3.org/1999/xlink" width="713" height="84" viewBox="0 0 29700 3493.5" ><defs><path id="s81:montserrat-extrabold:283" d="M6-701L622-701L622-535L418-535L418 0L209 0L209-535L6-535L6-701Z"/><path id="s81:montserrat-extrabold:515" d="M441-552Q529-552 583-495.50Q637-439 637-345L637 0L435 0L435-287Q435-328 414-351.50Q393-375 357-375Q316-374 292-345Q268-316 268-269L268 0L66 0L66-742L268-742L268-460Q297-505 340.50-528.50Q384-552 441-552Z"/><path id="s81:montserrat-extrabold:457" d="M306-551Q440-551 515-471.50Q590-392 590-254Q590-233 589-223L223-223Q235-184 262.50-163Q290-142 329-142Q392-142 449-194L554-91Q511-43 449.50-18Q388 7 312 7Q222 7 156-27.50Q90-62 54.50-124.50Q19-187 19-270Q19-354 55-417.50Q91-481 156-516Q221-551 306-551M390-322Q391-362 368-388Q345-414 308-414Q273-414 250-389Q227-364 219-322L390-322Z"/><path id="s81:montserrat-extrabold:3" d=""/><path id="s81:montserrat-extrabold:75" d="M59-701L632-701L632-541L267-541L267-431L598-431L598-271L267-271L267-160L642-160L642 0L59 0L59-701Z"/><path id="s81:montserrat-extrabold:653" d="M607-544L607 0L405 0L405-81Q377-37 334.50-14Q292 9 238 9Q181 9 137.50-16.50Q94-42 70-89Q46-136 46-199L46-544L248-544L248-256Q248-216 268-192.50Q288-169 321-169Q360-170 382.50-199Q405-228 405-275L405-544L607-544Z"/><path id="s81:montserrat-extrabold:616" d="M263-458Q292-503 335.50-527.50Q379-552 434-552L434-370Q422-372 399-372Q336-372 299.50-342Q263-312 263-260L263 0L61 0L61-544L263-544L263-458Z"/><path id="s81:montserrat-extrabold:577" d="M322-551Q413-551 481-516.50Q549-482 586.50-419Q624-356 624-272Q624-189 586.50-125.50Q549-62 481-27.50Q413 7 322 7Q231 7 162.50-27.50Q94-62 56.50-125.50Q19-189 19-272Q19-356 56.50-419Q94-482 162.50-516.50Q231-551 322-551M322-391Q277-391 250-357.50Q223-324 223-270Q223-215 250-182Q277-149 322-149Q366-149 393-182Q420-215 420-270Q420-324 393-357.50Q366-391 322-391Z"/><path id="s81:montserrat-extrabold:613" d="M417-551Q492-551 549-516Q606-481 637.50-417Q669-353 669-269Q669-186 638.50-123.50Q608-61 552-27Q496 7 422 7Q374 7 335-11Q296-29 268-63L268 194L66 194L66-544L268-544L268-481Q295-515 333-533Q371-551 417-551M366-153Q411-153 438-186.50Q465-220 465-274Q465-328 438-361.50Q411-395 366-395Q322-395 295-361.50Q268-328 268-274Q268-220 295-186.50Q322-153 366-153Z"/><path id="s81:montserrat-extrabold:387" d="M317-552Q432-552 496.50-499.50Q561-447 561-353L561 0L363 0L363-60Q338-27 297.50-9Q257 9 204 9Q118 9 69-37.50Q20-84 20-162Q20-241 73.50-283.50Q127-326 230-327L363-327L363-329Q363-363 339-382Q315-401 269-401Q236-401 192.50-391Q149-381 105-362L55-496Q193-552 317-552M271-123Q302-123 327-138Q352-153 363-179L363-228L271-228Q210-228 210-177Q210-151 226-137Q242-123 271-123Z"/><path id="s81:montserrat-extrabold:566" d="M436-552Q494-552 538.50-526.50Q583-501 607.50-454Q632-407 632-345L632 0L430 0L430-287Q430-327 408.50-351Q387-375 352-375Q311-374 287-345Q263-316 263-269L263 0L61 0L61-544L263-544L263-460Q292-505 335.50-528.50Q379-552 436-552Z"/><path id="s81:montserrat-extrabold:546" d="M66-742L268-742L268 0L66 0L66-742Z"/><path id="s81:montserrat-extrabold:508" d="M593-544L593-47Q593 28 555.50 85Q518 142 450.50 172.50Q383 203 294 203Q222 203 156 183Q90 163 43 132L110-4Q146 20 190 33Q234 46 277 46Q331 46 362 22.50Q393-1 393-41L393-96Q339-31 247-31Q181-31 129.50-63.50Q78-96 48.50-156Q19-216 19-294Q19-370 47.50-428.50Q76-487 127-519Q178-551 243-551Q338-551 393-485L393-544L593-544M300-176Q342-176 367.50-207Q393-238 393-288Q393-340 367.50-371Q342-402 300-402Q259-402 233.50-370.50Q208-339 208-288Q208-238 233.50-207Q259-176 300-176Z"/><path id="s81:montserrat-extrabold:624" d="M444-360Q333-417 266-417Q247-417 236-410.50Q225-404 225-391Q225-376 245.50-366.50Q266-357 311-345Q371-328 410.50-311Q450-294 479.50-259.50Q509-225 509-171Q509-88 443.50-39.50Q378 9 270 9Q198 9 132.50-10.50Q67-30 14-68L76-195Q127-162 177.50-145Q228-128 273-128Q294-128 306-134.50Q318-141 318-153Q318-168 298.50-177.50Q279-187 234-199Q176-215 137-232Q98-249 69-283Q40-317 40-371Q40-455 104-504Q168-553 272-553Q397-553 511-487L444-360Z"/><path id="s81:montserrat-extrabold:564" d="M795-552Q852-552 896-526.50Q940-501 964-454Q988-407 988-345L988 0L786 0L786-287Q786-327 765.50-351Q745-375 711-375Q672-374 649-345Q626-316 626-269L626 0L424 0L424-287Q424-327 403.50-351Q383-375 349-375Q310-374 286.50-345Q263-316 263-269L263 0L61 0L61-544L263-544L263-461Q291-505 334-528.50Q377-552 432-552Q495-552 542-521Q589-490 611-434Q637-491 684.50-521.50Q732-552 795-552Z"/><path id="s81:montserrat-extrabold:441" d="M417-551Q492-551 549-516Q606-481 637.50-417Q669-353 669-269Q669-186 638.50-123.50Q608-61 552-27Q496 7 422 7Q374 7 335-11Q296-29 268-63L268 0L66 0L66-742L268-742L268-481Q295-515 333-533Q371-551 417-551M366-153Q411-153 438-186.50Q465-220 465-274Q465-328 438-361.50Q411-395 366-395Q322-395 295-361.50Q268-328 268-274Q268-220 295-186.50Q322-153 366-153Z"/><path id="s81:montserrat-extrabold:505" d="M355-594Q329-594 313.50-580Q298-566 298-542L298-516L411-516L411-387L298-387L298 0L98 0L98-387L24-387L24-516L98-516L98-566Q98-651 157-701Q216-751 312-751Q373-751 435-731L413-581Q374-594 355-594Z"/><path id="s81:montserrat-extrabold:637" d="M433-26Q404-10 362.50-0.50Q321 9 279 9Q192 9 140-39Q88-87 88-170L88-387L13-387L13-516L88-516L88-667L289-667L289-516L423-516L423-387L289-387L289-201Q289-175 301-162Q313-149 335-149Q354-149 397-165L433-26Z"/><path id="s81:montserrat-extrabold:520" d="M61-544L263-544L263 0L61 0L61-544M161-803Q207-803 236-774Q265-745 265-699Q265-653 236-624Q207-595 161-595Q115-595 85.50-624Q56-653 56-699Q56-745 85.50-774Q115-803 161-803Z"/><path id="s81:montserrat-extrabold:688" d="M385 46Q353 126 297 164.50Q241 203 159 203Q109 203 67 188.50Q25 174-16 143L68 8Q87 25 104 32Q121 39 141 39Q183 39 200 4L210-15L-15-544L192-544L311-211L412-544L613-544L385 46Z"/><path id="s81:montserrat-extrabold:1245" d="M127-180Q169-180 195.50-154Q222-128 222-87Q222-45 195.50-18.50Q169 8 127 8Q86 8 59.50-18.50Q33-45 33-87Q33-128 59.50-154Q86-180 127-180Z"/><path id="s81:montserrat-extrabold:687" d="M10-544L242-544L317-403L401-544L621-544L451-279L633 0L401 0L317-154L221 0L-1 0L181-278L10-544Z"/><path id="s81:montserrat-extrabold:442" d="M400-333Q386-359 363.50-373Q341-387 313-387Q273-387 248-355Q223-323 223-271Q223-218 247.50-185.50Q272-153 313-153Q374-153 399-213L556-134Q525-67 458.50-30Q392 7 302 7Q217 7 153-27.50Q89-62 54-124.50Q19-187 19-270Q19-354 54.50-417.50Q90-481 154.50-516Q219-551 304-551Q389-551 454.50-514Q520-477 555-409L400-333Z"/><path id="s81:montserrat-extrabold:121" d="M59-701L603-701L603-541L267-541L267-401L579-401L579-241L267-241L267 0L59 0L59-701Z"/><path id="s81:montserrat-extrabold:1239" d="M129-180Q168-180 195-155Q222-130 222-87Q222-52 197-13L109 126L14 126L71-14Q53-26 43.50-45Q34-64 34-86Q34-127 61-153.50Q88-180 129-180Z"/></defs><g id="line-0"><use x="0" y="842.5" xlink:href="#s81:montserrat-extrabold:283" /><use x="628" y="842.5" xlink:href="#s81:montserrat-extrabold:515" /><use x="1311" y="842.5" xlink:href="#s81:montserrat-extrabold:457" /><use x="1920" y="842.5" xlink:href="#s81:montserrat-extrabold:3" /><use x="2131" y="842.5" xlink:href="#s81:montserrat-extrabold:75" /><use x="2814" y="842.5" xlink:href="#s81:montserrat-extrabold:653" /><use x="3482" y="842.5" xlink:href="#s81:montserrat-extrabold:616" /><use x="3926" y="842.5" xlink:href="#s81:montserrat-extrabold:577" /><use x="4569" y="842.5" xlink:href="#s81:montserrat-extrabold:613" /><use x="5257" y="842.5" xlink:href="#s81:montserrat-extrabold:457" /><use x="5866" y="842.5" xlink:href="#s81:montserrat-extrabold:387" /><use x="6473" y="842.5" xlink:href="#s81:montserrat-extrabold:566" /><use x="7151" y="842.5" xlink:href="#s81:montserrat-extrabold:3" /><use x="7362" y="842.5" xlink:href="#s81:montserrat-extrabold:546" /><use x="7697" y="842.5" xlink:href="#s81:montserrat-extrabold:387" /><use x="8304" y="842.5" xlink:href="#s81:montserrat-extrabold:566" /><use x="8982" y="842.5" xlink:href="#s81:montserrat-extrabold:508" /><use x="9633" y="842.5" xlink:href="#s81:montserrat-extrabold:653" /><use x="10301" y="842.5" xlink:href="#s81:montserrat-extrabold:387" /><use x="10908" y="842.5" xlink:href="#s81:montserrat-extrabold:508" /><use x="11559" y="842.5" xlink:href="#s81:montserrat-extrabold:457" /><use x="12168" y="842.5" xlink:href="#s81:montserrat-extrabold:624" /><use x="12703" y="842.5" xlink:href="#s81:montserrat-extrabold:3" /><use x="12914" y="842.5" xlink:href="#s81:montserrat-extrabold:387" /><use x="13521" y="842.5" xlink:href="#s81:montserrat-extrabold:616" /><use x="13965" y="842.5" xlink:href="#s81:montserrat-extrabold:457" /><use x="14574" y="842.5" xlink:href="#s81:montserrat-extrabold:3" /><use x="14785" y="842.5" xlink:href="#s81:montserrat-extrabold:564" /><use x="15819" y="842.5" xlink:href="#s81:montserrat-extrabold:457" /><use x="16428" y="842.5" xlink:href="#s81:montserrat-extrabold:564" /><use x="17462" y="842.5" xlink:href="#s81:montserrat-extrabold:441" /><use x="18150" y="842.5" xlink:href="#s81:montserrat-extrabold:457" /><use x="18759" y="842.5" xlink:href="#s81:montserrat-extrabold:616" /><use x="19203" y="842.5" xlink:href="#s81:montserrat-extrabold:624" /><use x="19738" y="842.5" xlink:href="#s81:montserrat-extrabold:3" /><use x="19949" y="842.5" xlink:href="#s81:montserrat-extrabold:577" /><use x="20592" y="842.5" xlink:href="#s81:montserrat-extrabold:505" /><use x="21003" y="842.5" xlink:href="#s81:montserrat-extrabold:3" /><use x="21214" y="842.5" xlink:href="#s81:montserrat-extrabold:637" /><use x="21663" y="842.5" xlink:href="#s81:montserrat-extrabold:515" /><use x="22346" y="842.5" xlink:href="#s81:montserrat-extrabold:457" /><use x="22955" y="842.5" xlink:href="#s81:montserrat-extrabold:3" /><use x="23166" y="842.5" xlink:href="#s81:montserrat-extrabold:624" /><use x="23701" y="842.5" xlink:href="#s81:montserrat-extrabold:387" /><use x="24308" y="842.5" xlink:href="#s81:montserrat-extrabold:564" /><use x="25342" y="842.5" xlink:href="#s81:montserrat-extrabold:457" /><use x="25951" y="842.5" xlink:href="#s81:montserrat-extrabold:3" /><use x="26162" y="842.5" xlink:href="#s81:montserrat-extrabold:505" /><use x="26573" y="842.5" xlink:href="#s81:montserrat-extrabold:387" /><use x="27180" y="842.5" xlink:href="#s81:montserrat-extrabold:564" /><use x="28214" y="842.5" xlink:href="#s81:montserrat-extrabold:520" /><use x="28538" y="842.5" xlink:href="#s81:montserrat-extrabold:546" /><use x="28873" y="842.5" xlink:href="#s81:montserrat-extrabold:688" /><use x="29478" y="842.5" xlink:href="#s81:montserrat-extrabold:1245" /></g><g id="line-1"><use x="5971" y="2042.5" xlink:href="#s81:montserrat-extrabold:283" /><use x="6599" y="2042.5" xlink:href="#s81:montserrat-extrabold:515" /><use x="7282" y="2042.5" xlink:href="#s81:montserrat-extrabold:457" /><use x="7891" y="2042.5" xlink:href="#s81:montserrat-extrabold:520" /><use x="8215" y="2042.5" xlink:href="#s81:montserrat-extrabold:616" /><use x="8659" y="2042.5" xlink:href="#s81:montserrat-extrabold:3" /><use x="8870" y="2042.5" xlink:href="#s81:montserrat-extrabold:624" /><use x="9405" y="2042.5" xlink:href="#s81:montserrat-extrabold:457" /><use x="10014" y="2042.5" xlink:href="#s81:montserrat-extrabold:613" /><use x="10702" y="2042.5" xlink:href="#s81:montserrat-extrabold:387" /><use x="11309" y="2042.5" xlink:href="#s81:montserrat-extrabold:616" /><use x="11753" y="2042.5" xlink:href="#s81:montserrat-extrabold:387" /><use x="12360" y="2042.5" xlink:href="#s81:montserrat-extrabold:637" /><use x="12809" y="2042.5" xlink:href="#s81:montserrat-extrabold:457" /><use x="13418" y="2042.5" xlink:href="#s81:montserrat-extrabold:3" /><use x="13629" y="2042.5" xlink:href="#s81:montserrat-extrabold:457" /><use x="14238" y="2042.5" xlink:href="#s81:montserrat-extrabold:687" /><use x="14871" y="2042.5" xlink:href="#s81:montserrat-extrabold:520" /><use x="15195" y="2042.5" xlink:href="#s81:montserrat-extrabold:624" /><use x="15730" y="2042.5" xlink:href="#s81:montserrat-extrabold:637" /><use x="16179" y="2042.5" xlink:href="#s81:montserrat-extrabold:457" /><use x="16788" y="2042.5" xlink:href="#s81:montserrat-extrabold:566" /><use x="17466" y="2042.5" xlink:href="#s81:montserrat-extrabold:442" /><use x="18028" y="2042.5" xlink:href="#s81:montserrat-extrabold:457" /><use x="18637" y="2042.5" xlink:href="#s81:montserrat-extrabold:3" /><use x="18848" y="2042.5" xlink:href="#s81:montserrat-extrabold:520" /><use x="19172" y="2042.5" xlink:href="#s81:montserrat-extrabold:624" /><use x="19707" y="2042.5" xlink:href="#s81:montserrat-extrabold:3" /><use x="19918" y="2042.5" xlink:href="#s81:montserrat-extrabold:387" /><use x="20525" y="2042.5" xlink:href="#s81:montserrat-extrabold:3" /><use x="20736" y="2042.5" xlink:href="#s81:montserrat-extrabold:564" /><use x="21770" y="2042.5" xlink:href="#s81:montserrat-extrabold:688" /><use x="22375" y="2042.5" xlink:href="#s81:montserrat-extrabold:637" /><use x="22824" y="2042.5" xlink:href="#s81:montserrat-extrabold:515" /><use x="23507" y="2042.5" xlink:href="#s81:montserrat-extrabold:1245" /></g><g id="line-2"><use x="7392.5" y="3242.5" xlink:href="#s81:montserrat-extrabold:121" /><use x="8011.5" y="3242.5" xlink:href="#s81:montserrat-extrabold:577" /><use x="8654.5" y="3242.5" xlink:href="#s81:montserrat-extrabold:616" /><use x="9098.5" y="3242.5" xlink:href="#s81:montserrat-extrabold:3" /><use x="9309.5" y="3242.5" xlink:href="#s81:montserrat-extrabold:624" /><use x="9844.5" y="3242.5" xlink:href="#s81:montserrat-extrabold:442" /><use x="10406.5" y="3242.5" xlink:href="#s81:montserrat-extrabold:520" /><use x="10730.5" y="3242.5" xlink:href="#s81:montserrat-extrabold:457" /><use x="11339.5" y="3242.5" xlink:href="#s81:montserrat-extrabold:566" /><use x="12017.5" y="3242.5" xlink:href="#s81:montserrat-extrabold:442" /><use x="12579.5" y="3242.5" xlink:href="#s81:montserrat-extrabold:457" /><use x="13188.5" y="3242.5" xlink:href="#s81:montserrat-extrabold:1239" /><use x="13442.5" y="3242.5" xlink:href="#s81:montserrat-extrabold:3" /><use x="13653.5" y="3242.5" xlink:href="#s81:montserrat-extrabold:564" /><use x="14687.5" y="3242.5" xlink:href="#s81:montserrat-extrabold:653" /><use x="15355.5" y="3242.5" xlink:href="#s81:montserrat-extrabold:624" /><use x="15890.5" y="3242.5" xlink:href="#s81:montserrat-extrabold:520" /><use x="16214.5" y="3242.5" xlink:href="#s81:montserrat-extrabold:442" /><use x="16776.5" y="3242.5" xlink:href="#s81:montserrat-extrabold:1239" /><use x="17030.5" y="3242.5" xlink:href="#s81:montserrat-extrabold:3" /><use x="17241.5" y="3242.5" xlink:href="#s81:montserrat-extrabold:624" /><use x="17776.5" y="3242.5" xlink:href="#s81:montserrat-extrabold:613" /><use x="18464.5" y="3242.5" xlink:href="#s81:montserrat-extrabold:577" /><use x="19107.5" y="3242.5" xlink:href="#s81:montserrat-extrabold:616" /><use x="19551.5" y="3242.5" xlink:href="#s81:montserrat-extrabold:637" /><use x="20000.5" y="3242.5" xlink:href="#s81:montserrat-extrabold:1239" /><use x="20254.5" y="3242.5" xlink:href="#s81:montserrat-extrabold:3" /><use x="20465.5" y="3242.5" xlink:href="#s81:montserrat-extrabold:457" /><use x="21074.5" y="3242.5" xlink:href="#s81:montserrat-extrabold:637" /><use x="21523.5" y="3242.5" xlink:href="#s81:montserrat-extrabold:442" /><use x="22085.5" y="3242.5" xlink:href="#s81:montserrat-extrabold:1239" /></g></svg>