<svg xmlns="http://www.w3.org/2000/svg" xmlns:xlink="http://www.w3.org/1999/xlink" width="719" height="84" viewBox="0 0 29956 3493.5"><defs><path id="s92:montserrat-semibolditalic:187" d="M680-700L654-566L440-566L325 0L167 0L281-566L68-566L94-700L680-700Z"/><path id="s92:montserrat-semibolditalic:461" d="M445-545Q532-545 583-497.50Q634-450 634-370Q634-340 629-317L565 0L411 0L470-295Q473-310 473-324Q473-364 448-387.50Q423-411 380-411Q329-411 289.50-374.50Q250-338 238-279L181 0L28 0L174-742L328-742L274-464Q338-545 445-545Z"/><path id="s92:montserrat-semibolditalic:429" d="M334-543Q411-543 467.50-513.50Q524-484 554.50-430.50Q585-377 585-306Q585-265 575-222L180-222Q185-170 219-141.50Q253-113 311-113Q346-113 380.50-125Q415-137 443-159L518-71Q432 6 306 6Q222 6 159.50-24Q97-54 63-109.50Q29-165 29-238Q29-324 68.50-394Q108-464 177.50-503.50Q247-543 334-543M442-313Q446-366 419-397Q392-428 340-428Q290-428 250-396.50Q210-365 192-313L442-313Z"/><path id="s92:montserrat-semibolditalic:3" d=""/><path id="s92:montserrat-semibolditalic:47" d="M670-569L295-569L264-417L602-417L576-286L238-286L207-132L592-132L567 0L23 0L163-700L696-700L670-569Z"/><path id="s92:montserrat-semibolditalic:579" d="M233 7Q145 7 94-40.50Q43-88 43-168Q43-193 49-221L113-538L266-538L208-243Q205-228 205-214Q205-174 229.50-150.50Q254-127 298-127Q349-127 388.50-163.50Q428-200 440-259L496-538L650-538L544 0L389 0L404-74Q338 7 233 7Z"/><path id="s92:montserrat-semibolditalic:550" d="M264-448Q300-495 349-519Q398-543 456-544L438-400Q431-401 418-401Q347-401 294-360.50Q241-320 226-258L175 0L21 0L128-538L282-538L264-448Z"/><path id="s92:montserrat-semibolditalic:512" d="M347-543Q427-543 486.50-512Q546-481 578-425.50Q610-370 610-296Q610-208 569-139Q528-70 456-32Q384 6 292 6Q213 6 153-25Q93-56 61-112Q29-168 29-242Q29-330 70-398.50Q111-467 183-505Q255-543 347-543M335-415Q292-415 258-394Q224-373 204.50-335.50Q185-298 185-250Q185-191 217-155Q249-119 304-119Q347-119 381-140Q415-161 434.50-198.50Q454-236 454-284Q454-343 421.50-379Q389-415 335-415Z"/><path id="s92:montserrat-semibolditalic:547" d="M447-544Q510-544 558.50-514Q607-484 634-430Q661-376 661-306Q661-219 623-147.50Q585-76 519.50-35Q454 6 374 6Q310 6 265.50-20.50Q221-47 199-97L140 194L-13 194L133-538L286-538L272-469Q307-505 352-524.50Q397-544 447-544M389-422Q346-422 310.50-399Q275-376 254-337Q233-298 233-251Q233-194 265-159.50Q297-125 350-125Q392-125 428-148Q464-171 485-210.50Q506-250 506-297Q506-354 474-388Q442-422 389-422Z"/><path id="s92:montserrat-semibolditalic:387" d="M242 6Q179 6 130.50-24Q82-54 55-108Q28-162 28-232Q28-319 65.50-390.50Q103-462 169-503Q235-544 315-544Q379-544 423-517.50Q467-491 490-440L509-538L662-538L555 0L402 0L417-68Q343 6 242 6M300-115Q342-115 378-138Q414-161 435-200.50Q456-240 456-287Q456-344 424-378Q392-412 339-412Q297-412 261-389Q225-366 204-326.50Q183-287 183-241Q183-183 215-149Q247-115 300-115Z"/><path id="s92:montserrat-semibolditalic:501" d="M439-545Q527-545 578-497.50Q629-450 629-370Q629-346 623-317L559 0L406 0L464-295Q467-310 467-324Q467-364 442.50-387.50Q418-411 374-411Q323-411 283.50-374.50Q244-338 232-279L176 0L22 0L128-538L283-538L268-464Q334-545 439-545Z"/><path id="s92:montserrat-semibolditalic:490" d="M328-742L180 0L26 0L174-742L328-742Z"/><path id="s92:montserrat-semibolditalic:454" d="M217 200Q90 200-15 126L51 24Q84 49 126.50 62Q169 75 213 75Q282 75 325 46Q368 17 381-38L394-93Q324-28 232-28Q173-28 127-56Q81-84 56-134Q31-184 31-249Q31-331 66.50-398.50Q102-466 164-505Q226-544 301-544Q360-544 401.50-520Q443-496 464-450L482-538L635-538L531-24Q509 84 427 142Q345 200 217 200M291-150Q329-150 361.50-170Q394-190 413-224.50Q432-259 432-300Q432-351 403-381.50Q374-412 326-412Q288-412 256-391.50Q224-371 205-335.50Q186-300 186-258Q186-208 214.50-179Q243-150 291-150Z"/><path id="s92:montserrat-semibolditalic:558" d="M242 7Q168 7 97.50-21Q27-49-17-96L48-191Q86-154 138-130.50Q190-107 234-107Q266-107 285-120Q304-133 304-155Q304-175 283-188Q262-201 219-218Q172-237 141.50-253.50Q111-270 89-299.50Q67-329 67-373Q67-423 93-462Q119-501 166-522.50Q213-544 274-544Q337-544 401-521.50Q465-499 511-460L441-364Q399-395 354.50-413Q310-431 276-431Q250-431 232-418Q214-405 214-386Q214-367 235-354Q256-341 299-324Q347-304 378-287Q409-270 432-239.50Q455-209 455-165Q455-115 428-76Q401-37 352.50-15Q304 7 242 7Z"/><path id="s92:montserrat-semibolditalic:499" d="M822-545Q910-545 961-497.50Q1012-450 1012-371Q1012-346 1006-317L943 0L789 0L848-295Q851-310 851-324Q851-364 826-387.50Q801-411 758-411Q707-411 667.50-374.50Q628-338 616-279L559 0L406 0L464-295Q467-310 467-324Q467-364 442.50-387.50Q418-411 374-411Q323-411 283.50-374.50Q244-338 232-279L176 0L22 0L128-538L283-538L268-464Q334-545 439-545Q510-545 557.50-513.50Q605-482 621-426Q699-545 822-545Z"/><path id="s92:montserrat-semibolditalic:414" d="M447-543Q510-543 558.50-513Q607-483 634-428.50Q661-374 661-304Q661-218 623.50-146.50Q586-75 520-34Q454 7 374 7Q310 7 265.50-19.50Q221-46 199-96L180 0L26 0L174-742L327-742L272-468Q308-504 352.50-523.50Q397-543 447-543M389-421Q347-421 311-398Q275-375 254-335.50Q233-296 233-250Q233-193 265-158.50Q297-124 350-124Q392-124 428-147Q464-170 485-209.50Q506-249 506-295Q506-353 474-387Q442-421 389-421Z"/><path id="s92:montserrat-semibolditalic:453" d="M401-622Q370-622 345-603Q320-584 313-553L305-514L432-514L412-407L284-407L202 0L49 0L131-407L60-407L80-514L153-514L164-571Q181-658 243.50-703.50Q306-749 388-749Q448-749 498-725L457-608Q445-614 428.50-618Q412-622 401-622Z"/><path id="s92:montserrat-semibolditalic:571" d="M232-179Q229-164 229-154Q229-137 237-130Q245-123 261-123Q297-123 344-145L363-28Q330-11 293-2Q256 7 221 7Q154 7 113.50-28Q73-63 73-125Q73-147 77-166L126-407L52-407L72-514L147-514L177-662L329-662L299-514L446-514L426-407L278-407L232-179Z"/><path id="s92:montserrat-semibolditalic:466" d="M281-538L174 0L21 0L128-538L281-538M250-777Q282-777 301-757.50Q320-738 320-707Q320-664 290-634.50Q260-605 218-605Q187-605 168-625Q149-645 149-676Q149-719 178.50-748Q208-777 250-777Z"/><path id="s92:montserrat-semibolditalic:609" d="M624-538L267 65Q227 136 173.50 168.50Q120 201 51 201Q7 201-26 187Q-59 173-91 145L-12 42Q14 67 48 67Q97 67 138 17L159-11L43-538L199-538L264-163L467-538L624-538Z"/><path id="s92:montserrat-semibolditalic:1278" d="M86-150Q118-150 137-130.50Q156-111 156-79Q156-41 132-16Q108 9 72 9Q41 9 21.50-11Q2-31 2-63Q2-101 26-125.50Q50-150 86-150Z"/><path id="s92:montserrat-semibolditalic:608" d="M250-538L314-375L453-538L625-538L400-276L526 0L353 0L283-176L127 0L-46 0L196-275L76-538L250-538Z"/><path id="s92:montserrat-semibolditalic:415" d="M278 6Q203 6 146.50-24.50Q90-55 59.50-111Q29-167 29-240Q29-328 68-397Q107-466 176.50-504.50Q246-543 334-543Q411-543 468-513.50Q525-484 556-430L445-355Q426-383 396-398Q366-413 328-413Q287-413 254.50-392.50Q222-372 203-335Q184-298 184-251Q184-193 215-157.50Q246-122 298-122Q382-122 429-185L528-113Q489-56 424.50-25Q360 6 278 6Z"/><path id="s92:montserrat-semibolditalic:70" d="M640-569L295-569L261-396L576-396L551-265L235-265L182 0L23 0L163-700L666-700L640-569Z"/><path id="s92:montserrat-semibolditalic:1273" d="M75-149Q104-149 124-130Q144-111 144-79Q144-60 137-44.50Q130-29 117-9L36 118L-39 118L19-8Q-8-26-8-63Q-8-101 15.50-125Q39-149 75-149Z"/></defs><g id="line-0"><use x="0" y="842.5" xlink:href="#s92:montserrat-semibolditalic:187"/><use x="601" y="842.5" xlink:href="#s92:montserrat-semibolditalic:461"/><use x="1279" y="842.5" xlink:href="#s92:montserrat-semibolditalic:429"/><use x="1890" y="842.5" xlink:href="#s92:montserrat-semibolditalic:3"/><use x="2124" y="842.5" xlink:href="#s92:montserrat-semibolditalic:47"/><use x="2792" y="842.5" xlink:href="#s92:montserrat-semibolditalic:579"/><use x="3464" y="842.5" xlink:href="#s92:montserrat-semibolditalic:550"/><use x="3885" y="842.5" xlink:href="#s92:montserrat-semibolditalic:512"/><use x="4524" y="842.5" xlink:href="#s92:montserrat-semibolditalic:547"/><use x="5213" y="842.5" xlink:href="#s92:montserrat-semibolditalic:429"/><use x="5824" y="842.5" xlink:href="#s92:montserrat-semibolditalic:387"/><use x="6508" y="842.5" xlink:href="#s92:montserrat-semibolditalic:501"/><use x="7180" y="842.5" xlink:href="#s92:montserrat-semibolditalic:3"/><use x="7414" y="842.5" xlink:href="#s92:montserrat-semibolditalic:490"/><use x="7727" y="842.5" xlink:href="#s92:montserrat-semibolditalic:387"/><use x="8411" y="842.5" xlink:href="#s92:montserrat-semibolditalic:501"/><use x="9083" y="842.5" xlink:href="#s92:montserrat-semibolditalic:454"/><use x="9732" y="842.5" xlink:href="#s92:montserrat-semibolditalic:579"/><use x="10404" y="842.5" xlink:href="#s92:montserrat-semibolditalic:387"/><use x="11088" y="842.5" xlink:href="#s92:montserrat-semibolditalic:454"/><use x="11737" y="842.5" xlink:href="#s92:montserrat-semibolditalic:429"/><use x="12348" y="842.5" xlink:href="#s92:montserrat-semibolditalic:558"/><use x="12855" y="842.5" xlink:href="#s92:montserrat-semibolditalic:3"/><use x="13089" y="842.5" xlink:href="#s92:montserrat-semibolditalic:387"/><use x="13773" y="842.5" xlink:href="#s92:montserrat-semibolditalic:550"/><use x="14194" y="842.5" xlink:href="#s92:montserrat-semibolditalic:429"/><use x="14805" y="842.5" xlink:href="#s92:montserrat-semibolditalic:3"/><use x="15039" y="842.5" xlink:href="#s92:montserrat-semibolditalic:499"/><use x="16095" y="842.5" xlink:href="#s92:montserrat-semibolditalic:429"/><use x="16706" y="842.5" xlink:href="#s92:montserrat-semibolditalic:499"/><use x="17762" y="842.5" xlink:href="#s92:montserrat-semibolditalic:414"/><use x="18452" y="842.5" xlink:href="#s92:montserrat-semibolditalic:429"/><use x="19063" y="842.5" xlink:href="#s92:montserrat-semibolditalic:550"/><use x="19484" y="842.5" xlink:href="#s92:montserrat-semibolditalic:558"/><use x="19991" y="842.5" xlink:href="#s92:montserrat-semibolditalic:3"/><use x="20225" y="842.5" xlink:href="#s92:montserrat-semibolditalic:512"/><use x="20864" y="842.5" xlink:href="#s92:montserrat-semibolditalic:453"/><use x="21234" y="842.5" xlink:href="#s92:montserrat-semibolditalic:3"/><use x="21468" y="842.5" xlink:href="#s92:montserrat-semibolditalic:571"/><use x="21897" y="842.5" xlink:href="#s92:montserrat-semibolditalic:461"/><use x="22575" y="842.5" xlink:href="#s92:montserrat-semibolditalic:429"/><use x="23186" y="842.5" xlink:href="#s92:montserrat-semibolditalic:3"/><use x="23420" y="842.5" xlink:href="#s92:montserrat-semibolditalic:558"/><use x="23927" y="842.5" xlink:href="#s92:montserrat-semibolditalic:387"/><use x="24611" y="842.5" xlink:href="#s92:montserrat-semibolditalic:499"/><use x="25667" y="842.5" xlink:href="#s92:montserrat-semibolditalic:429"/><use x="26278" y="842.5" xlink:href="#s92:montserrat-semibolditalic:3"/><use x="26512" y="842.5" xlink:href="#s92:montserrat-semibolditalic:453"/><use x="26882" y="842.5" xlink:href="#s92:montserrat-semibolditalic:387"/><use x="27566" y="842.5" xlink:href="#s92:montserrat-semibolditalic:499"/><use x="28622" y="842.5" xlink:href="#s92:montserrat-semibolditalic:466"/><use x="28924" y="842.5" xlink:href="#s92:montserrat-semibolditalic:490"/><use x="29237" y="842.5" xlink:href="#s92:montserrat-semibolditalic:609"/><use x="29800" y="842.5" xlink:href="#s92:montserrat-semibolditalic:1278"/></g><g id="line-1"><use x="6124" y="2042.5" xlink:href="#s92:montserrat-semibolditalic:187"/><use x="6725" y="2042.5" xlink:href="#s92:montserrat-semibolditalic:461"/><use x="7403" y="2042.5" xlink:href="#s92:montserrat-semibolditalic:429"/><use x="8014" y="2042.5" xlink:href="#s92:montserrat-semibolditalic:466"/><use x="8316" y="2042.5" xlink:href="#s92:montserrat-semibolditalic:550"/><use x="8737" y="2042.5" xlink:href="#s92:montserrat-semibolditalic:3"/><use x="8971" y="2042.5" xlink:href="#s92:montserrat-semibolditalic:558"/><use x="9478" y="2042.5" xlink:href="#s92:montserrat-semibolditalic:429"/><use x="10089" y="2042.5" xlink:href="#s92:montserrat-semibolditalic:547"/><use x="10778" y="2042.5" xlink:href="#s92:montserrat-semibolditalic:387"/><use x="11462" y="2042.5" xlink:href="#s92:montserrat-semibolditalic:550"/><use x="11883" y="2042.5" xlink:href="#s92:montserrat-semibolditalic:387"/><use x="12567" y="2042.5" xlink:href="#s92:montserrat-semibolditalic:571"/><use x="12996" y="2042.5" xlink:href="#s92:montserrat-semibolditalic:429"/><use x="13607" y="2042.5" xlink:href="#s92:montserrat-semibolditalic:3"/><use x="13841" y="2042.5" xlink:href="#s92:montserrat-semibolditalic:429"/><use x="14452" y="2042.5" xlink:href="#s92:montserrat-semibolditalic:608"/><use x="15041" y="2042.5" xlink:href="#s92:montserrat-semibolditalic:466"/><use x="15343" y="2042.5" xlink:href="#s92:montserrat-semibolditalic:558"/><use x="15850" y="2042.5" xlink:href="#s92:montserrat-semibolditalic:571"/><use x="16279" y="2042.5" xlink:href="#s92:montserrat-semibolditalic:429"/><use x="16890" y="2042.5" xlink:href="#s92:montserrat-semibolditalic:501"/><use x="17562" y="2042.5" xlink:href="#s92:montserrat-semibolditalic:415"/><use x="18144" y="2042.5" xlink:href="#s92:montserrat-semibolditalic:429"/><use x="18755" y="2042.5" xlink:href="#s92:montserrat-semibolditalic:3"/><use x="18989" y="2042.5" xlink:href="#s92:montserrat-semibolditalic:466"/><use x="19291" y="2042.5" xlink:href="#s92:montserrat-semibolditalic:558"/><use x="19798" y="2042.5" xlink:href="#s92:montserrat-semibolditalic:3"/><use x="20032" y="2042.5" xlink:href="#s92:montserrat-semibolditalic:387"/><use x="20716" y="2042.5" xlink:href="#s92:montserrat-semibolditalic:3"/><use x="20950" y="2042.5" xlink:href="#s92:montserrat-semibolditalic:499"/><use x="22006" y="2042.5" xlink:href="#s92:montserrat-semibolditalic:609"/><use x="22569" y="2042.5" xlink:href="#s92:montserrat-semibolditalic:571"/><use x="22998" y="2042.5" xlink:href="#s92:montserrat-semibolditalic:461"/><use x="23676" y="2042.5" xlink:href="#s92:montserrat-semibolditalic:1278"/></g><g id="line-2"><use x="7630" y="3242.5" xlink:href="#s92:montserrat-semibolditalic:70"/><use x="8224" y="3242.5" xlink:href="#s92:montserrat-semibolditalic:512"/><use x="8863" y="3242.5" xlink:href="#s92:montserrat-semibolditalic:550"/><use x="9284" y="3242.5" xlink:href="#s92:montserrat-semibolditalic:3"/><use x="9518" y="3242.5" xlink:href="#s92:montserrat-semibolditalic:558"/><use x="10025" y="3242.5" xlink:href="#s92:montserrat-semibolditalic:415"/><use x="10607" y="3242.5" xlink:href="#s92:montserrat-semibolditalic:466"/><use x="10909" y="3242.5" xlink:href="#s92:montserrat-semibolditalic:429"/><use x="11520" y="3242.5" xlink:href="#s92:montserrat-semibolditalic:501"/><use x="12192" y="3242.5" xlink:href="#s92:montserrat-semibolditalic:415"/><use x="12774" y="3242.5" xlink:href="#s92:montserrat-semibolditalic:429"/><use x="13385" y="3242.5" xlink:href="#s92:montserrat-semibolditalic:1273"/><use x="13608" y="3242.5" xlink:href="#s92:montserrat-semibolditalic:3"/><use x="13842" y="3242.5" xlink:href="#s92:montserrat-semibolditalic:499"/><use x="14898" y="3242.5" xlink:href="#s92:montserrat-semibolditalic:579"/><use x="15570" y="3242.5" xlink:href="#s92:montserrat-semibolditalic:558"/><use x="16077" y="3242.5" xlink:href="#s92:montserrat-semibolditalic:466"/><use x="16379" y="3242.5" xlink:href="#s92:montserrat-semibolditalic:415"/><use x="16961" y="3242.5" xlink:href="#s92:montserrat-semibolditalic:1273"/><use x="17184" y="3242.5" xlink:href="#s92:montserrat-semibolditalic:3"/><use x="17418" y="3242.5" xlink:href="#s92:montserrat-semibolditalic:558"/><use x="17925" y="3242.5" xlink:href="#s92:montserrat-semibolditalic:547"/><use x="18614" y="3242.5" xlink:href="#s92:montserrat-semibolditalic:512"/><use x="19253" y="3242.5" xlink:href="#s92:montserrat-semibolditalic:550"/><use x="19674" y="3242.5" xlink:href="#s92:montserrat-semibolditalic:571"/><use x="20103" y="3242.5" xlink:href="#s92:montserrat-semibolditalic:1273"/><use x="20326" y="3242.5" xlink:href="#s92:montserrat-semibolditalic:3"/><use x="20560" y="3242.5" xlink:href="#s92:montserrat-semibolditalic:429"/><use x="21171" y="3242.5" xlink:href="#s92:montserrat-semibolditalic:571"/><use x="21600" y="3242.5" xlink:href="#s92:montserrat-semibolditalic:415"/><use x="22182" y="3242.5" xlink:href="#s92:montserrat-semibolditalic:1273"/></g></svg>