<svg xmlns="http://www.w3.org/2000/svg" xmlns:xlink="http://www.w3.org/1999/xlink" width="714" height="84" viewBox="0 0 29742 3493.5"><defs><path id="s89:montserrat-mediumitalic:187" d="M666-700L644-581L425-581L307 0L173 0L291-581L73-581L95-700L666-700Z"/><path id="s89:montserrat-mediumitalic:461" d="M431-542Q521-542 572.50-495.50Q624-449 624-370Q624-344 618-315L555 0L424 0L483-296Q486-313 486-328Q486-373 458-399Q430-425 380-425Q323-425 279-386Q235-347 222-283L165 0L34 0L181-742L312-742L257-459Q320-542 431-542Z"/><path id="s89:montserrat-mediumitalic:429" d="M337-539Q449-539 513.50-476.50Q578-414 578-307Q578-265 568-222L162-222Q167-164 205-131Q243-98 307-98Q383-98 447-146L508-67Q424 6 303 6Q222 6 161-24Q100-54 66.50-109.50Q33-165 33-238Q33-323 72.50-391.50Q112-460 181.50-499.50Q251-539 337-539M459-309Q461-369 430-402.50Q399-436 340-436Q282-436 236.50-401Q191-366 172-309L459-309Z"/><path id="s89:montserrat-mediumitalic:3" d=""/><path id="s89:montserrat-mediumitalic:47" d="M663-583L283-583L248-410L589-410L566-293L225-293L190-117L580-117L558 0L33 0L173-700L685-700L663-583Z"/><path id="s89:montserrat-mediumitalic:579" d="M243 7Q153 7 101.50-39.50Q50-86 50-165Q50-192 56-220L119-535L250-535L191-239Q188-223 188-207Q188-162 216-136Q244-110 294-110Q351-110 394.50-149Q438-188 451-252L509-535L639-535L534 0L402 0L417-76Q354 7 243 7Z"/><path id="s89:montserrat-mediumitalic:550" d="M246-439Q282-488 332-513.50Q382-539 443-540L427-414L410-415Q337-415 283-372.50Q229-330 211-263L158 0L28 0L134-535L265-535L246-439Z"/><path id="s89:montserrat-mediumitalic:512" d="M344-539Q421-539 479.50-508.50Q538-478 569.50-422Q601-366 601-294Q601-207 560.50-139Q520-71 449.50-33Q379 5 290 5Q213 5 154.50-26Q96-57 64.50-112.50Q33-168 33-241Q33-328 73-395.50Q113-463 184-501Q255-539 344-539M334-428Q286-428 247.50-405Q209-382 187-341Q165-300 165-248Q165-183 202-143.50Q239-104 300-104Q348-104 386-127Q424-150 446-191Q468-232 468-284Q468-348 431.50-388Q395-428 334-428Z"/><path id="s89:montserrat-mediumitalic:547" d="M436-540Q500-540 549.50-510Q599-480 626.50-426Q654-372 654-302Q654-216 616-145.50Q578-75 512.50-34.50Q447 6 366 6Q298 6 252-22.50Q206-51 184-106L123 194L-6 194L139-535L269-535L254-462Q290-499 336.50-519.50Q383-540 436-540M390-434Q342-434 302-409Q262-384 239-341.50Q216-299 216-248Q216-185 252-147Q288-109 347-109Q395-109 435.50-134Q476-159 499.50-201.50Q523-244 523-294Q523-357 486.50-395.50Q450-434 390-434Z"/><path id="s89:montserrat-mediumitalic:387" d="M250 6Q186 6 136.50-24Q87-54 59.50-108.50Q32-163 32-233Q32-319 70-389Q108-459 174-499.50Q240-540 321-540Q388-540 434.50-511.50Q481-483 502-429L524-535L654-535L547 0L418 0L433-73Q397-35 350-14.50Q303 6 250 6M297-101Q345-101 385-126Q425-151 448-193.50Q471-236 471-286Q471-349 435-387.50Q399-426 339-426Q291-426 251-401Q211-376 187.50-333Q164-290 164-240Q164-177 200.50-139Q237-101 297-101Z"/><path id="s89:montserrat-mediumitalic:501" d="M425-542Q515-542 566.50-495.50Q618-449 618-370Q618-344 612-315L549 0L418 0L477-296Q480-313 480-328Q480-373 452-399Q424-425 374-425Q317-425 273.50-386Q230-347 217-283L159 0L29 0L134-535L266-535L251-459Q314-542 425-542Z"/><path id="s89:montserrat-mediumitalic:490" d="M311-742L163 0L33 0L181-742L311-742Z"/><path id="s89:montserrat-mediumitalic:454" d="M214 199Q96 199-9 125L49 36Q118 90 211 90Q287 90 333 59Q379 28 393-31L410-98Q375-63 332-45Q289-27 240-27Q180-27 133.50-55Q87-83 61-134Q35-185 35-250Q35-331 71-397.50Q107-464 169-502Q231-540 307-540Q370-540 413.50-514Q457-488 476-439L497-535L627-535L521-20Q499 86 420.50 142.50Q342 199 214 199M288-134Q331-134 367.50-156.50Q404-179 425.50-217Q447-255 447-300Q447-357 414-391.50Q381-426 326-426Q283-426 246.50-403Q210-380 188.50-341.50Q167-303 167-257Q167-201 200-167.50Q233-134 288-134Z"/><path id="s89:montserrat-mediumitalic:558" d="M231 6Q160 6 92-22Q24-50-14-95L42-180Q76-143 128-119Q180-95 226-95Q263-95 285-110.50Q307-126 307-152Q307-175 285-190Q263-205 217-223Q171-242 141.50-258Q112-274 91-303Q70-332 70-375Q70-424 95-461Q120-498 165-519Q210-540 269-540Q329-540 389.50-518.50Q450-497 491-461L429-375Q390-404 346-421.50Q302-439 268-439Q237-439 216.50-424Q196-409 196-387Q196-365 217-351.50Q238-338 285-318Q333-298 363-281.50Q393-265 415-235.50Q437-206 437-162Q437-113 411-75Q385-37 338-15.50Q291 6 231 6Z"/><path id="s89:montserrat-mediumitalic:499" d="M814-542Q904-542 956-495.50Q1008-449 1008-369Q1008-344 1002-315L939 0L808 0L867-296Q870-313 870-328Q870-373 842-399Q814-425 764-425Q706-425 663-386Q620-347 606-283L549 0L418 0L477-296Q480-313 480-328Q480-373 452-399Q424-425 374-425Q317-425 273.50-386Q230-347 217-283L159 0L29 0L134-535L266-535L251-459Q314-542 425-542Q498-542 546.50-510.50Q595-479 611-423Q686-542 814-542Z"/><path id="s89:montserrat-mediumitalic:414" d="M436-539Q500-539 550-509Q600-479 627.50-424.50Q655-370 655-300Q655-214 617-144Q579-74 513-33.50Q447 7 366 7Q298 7 252-21.50Q206-50 184-104L163 0L33 0L181-742L310-742L254-460Q290-498 336.50-518.50Q383-539 436-539M390-432Q342-432 302-407Q262-382 239-339.50Q216-297 216-247Q216-184 252-145.50Q288-107 348-107Q395-107 435.50-132Q476-157 499.50-200Q523-243 523-293Q523-356 486-394Q449-432 390-432Z"/><path id="s89:montserrat-mediumitalic:453" d="M387-636Q354-636 328-616Q302-596 295-562L285-513L418-513L401-418L266-418L182 0L52 0L136-418L66-418L84-513L155-513L166-570Q184-657 245-702.50Q306-748 383-748Q439-748 484-724L448-621Q434-627 416.50-631.50Q399-636 387-636Z"/><path id="s89:montserrat-mediumitalic:571" d="M212-171Q209-155 209-144Q209-124 218.50-116.50Q228-109 248-109Q279-109 332-133L350-30Q284 6 213 6Q152 6 114.50-26.50Q77-59 77-119Q77-140 81-160L133-418L59-418L77-513L152-513L181-660L311-660L281-513L434-513L417-418L262-418L212-171Z"/><path id="s89:montserrat-mediumitalic:466" d="M264-535L157 0L28 0L134-535L264-535M243-765Q270-765 287-747Q304-729 304-701Q304-663 277-636.50Q250-610 214-610Q187-610 170-628Q153-646 153-674Q153-712 180-738.50Q207-765 243-765Z"/><path id="s89:montserrat-mediumitalic:609" d="M603-535L242 72Q168 200 41 200Q1 200-29 187Q-59 174-87 148L-20 57Q8 80 41 80Q95 80 137 24L161-9L46-535L179-535L250-141L470-535L603-535Z"/><path id="s89:montserrat-mediumitalic:1278" d="M79-135Q107-135 124-117.50Q141-100 141-71Q141-37 119.50-14Q98 9 66 9Q38 9 21-9.50Q4-28 4-57Q4-91 25.50-113Q47-135 79-135Z"/><path id="s89:montserrat-mediumitalic:608" d="M227-535L301-361L453-535L598-535L374-274L501 0L353 0L275-187L106 0L-42 0L201-274L80-535L227-535Z"/><path id="s89:montserrat-mediumitalic:415" d="M278 5Q205 5 149.50-25.50Q94-56 63.50-111.50Q33-167 33-239Q33-326 72-394.50Q111-463 179.50-501Q248-539 333-539Q406-539 461-513.50Q516-488 549-441L462-366Q414-425 328-425Q282-425 244.50-402.50Q207-380 185.50-340Q164-300 164-248Q164-185 200-146Q236-107 295-107Q391-107 445-170L520-103Q479-51 417.50-23Q356 5 278 5Z"/><path id="s89:montserrat-mediumitalic:70" d="M632-583L283-583L245-394L562-394L540-277L222-277L167 0L33 0L173-700L655-700L632-583Z"/><path id="s89:montserrat-mediumitalic:1273" d="M67-133Q93-133 110.50-116.50Q128-100 128-71Q128-54 122-39Q116-24 105-7L32 114L-34 114L19-5Q-6-22-6-56Q-6-89 15-111Q36-133 67-133Z"/></defs><g id="line-0"><use x="0" y="842.5" xlink:href="#s89:montserrat-mediumitalic:187"/><use x="588" y="842.5" xlink:href="#s89:montserrat-mediumitalic:461"/><use x="1262" y="842.5" xlink:href="#s89:montserrat-mediumitalic:429"/><use x="1870" y="842.5" xlink:href="#s89:montserrat-mediumitalic:3"/><use x="2115" y="842.5" xlink:href="#s89:montserrat-mediumitalic:47"/><use x="2776" y="842.5" xlink:href="#s89:montserrat-mediumitalic:579"/><use x="3444" y="842.5" xlink:href="#s89:montserrat-mediumitalic:550"/><use x="3851" y="842.5" xlink:href="#s89:montserrat-mediumitalic:512"/><use x="4485" y="842.5" xlink:href="#s89:montserrat-mediumitalic:547"/><use x="5171" y="842.5" xlink:href="#s89:montserrat-mediumitalic:429"/><use x="5779" y="842.5" xlink:href="#s89:montserrat-mediumitalic:387"/><use x="6460" y="842.5" xlink:href="#s89:montserrat-mediumitalic:501"/><use x="7128" y="842.5" xlink:href="#s89:montserrat-mediumitalic:3"/><use x="7373" y="842.5" xlink:href="#s89:montserrat-mediumitalic:490"/><use x="7675" y="842.5" xlink:href="#s89:montserrat-mediumitalic:387"/><use x="8356" y="842.5" xlink:href="#s89:montserrat-mediumitalic:501"/><use x="9024" y="842.5" xlink:href="#s89:montserrat-mediumitalic:454"/><use x="9669" y="842.5" xlink:href="#s89:montserrat-mediumitalic:579"/><use x="10337" y="842.5" xlink:href="#s89:montserrat-mediumitalic:387"/><use x="11018" y="842.5" xlink:href="#s89:montserrat-mediumitalic:454"/><use x="11663" y="842.5" xlink:href="#s89:montserrat-mediumitalic:429"/><use x="12271" y="842.5" xlink:href="#s89:montserrat-mediumitalic:558"/><use x="12763" y="842.5" xlink:href="#s89:montserrat-mediumitalic:3"/><use x="13008" y="842.5" xlink:href="#s89:montserrat-mediumitalic:387"/><use x="13689" y="842.5" xlink:href="#s89:montserrat-mediumitalic:550"/><use x="14096" y="842.5" xlink:href="#s89:montserrat-mediumitalic:429"/><use x="14704" y="842.5" xlink:href="#s89:montserrat-mediumitalic:3"/><use x="14949" y="842.5" xlink:href="#s89:montserrat-mediumitalic:499"/><use x="16007" y="842.5" xlink:href="#s89:montserrat-mediumitalic:429"/><use x="16615" y="842.5" xlink:href="#s89:montserrat-mediumitalic:499"/><use x="17673" y="842.5" xlink:href="#s89:montserrat-mediumitalic:414"/><use x="18360" y="842.5" xlink:href="#s89:montserrat-mediumitalic:429"/><use x="18968" y="842.5" xlink:href="#s89:montserrat-mediumitalic:550"/><use x="19375" y="842.5" xlink:href="#s89:montserrat-mediumitalic:558"/><use x="19867" y="842.5" xlink:href="#s89:montserrat-mediumitalic:3"/><use x="20112" y="842.5" xlink:href="#s89:montserrat-mediumitalic:512"/><use x="20746" y="842.5" xlink:href="#s89:montserrat-mediumitalic:453"/><use x="21099" y="842.5" xlink:href="#s89:montserrat-mediumitalic:3"/><use x="21344" y="842.5" xlink:href="#s89:montserrat-mediumitalic:571"/><use x="21761" y="842.5" xlink:href="#s89:montserrat-mediumitalic:461"/><use x="22435" y="842.5" xlink:href="#s89:montserrat-mediumitalic:429"/><use x="23043" y="842.5" xlink:href="#s89:montserrat-mediumitalic:3"/><use x="23288" y="842.5" xlink:href="#s89:montserrat-mediumitalic:558"/><use x="23780" y="842.5" xlink:href="#s89:montserrat-mediumitalic:387"/><use x="24461" y="842.5" xlink:href="#s89:montserrat-mediumitalic:499"/><use x="25519" y="842.5" xlink:href="#s89:montserrat-mediumitalic:429"/><use x="26127" y="842.5" xlink:href="#s89:montserrat-mediumitalic:3"/><use x="26372" y="842.5" xlink:href="#s89:montserrat-mediumitalic:453"/><use x="26725" y="842.5" xlink:href="#s89:montserrat-mediumitalic:387"/><use x="27406" y="842.5" xlink:href="#s89:montserrat-mediumitalic:499"/><use x="28464" y="842.5" xlink:href="#s89:montserrat-mediumitalic:466"/><use x="28755" y="842.5" xlink:href="#s89:montserrat-mediumitalic:490"/><use x="29057" y="842.5" xlink:href="#s89:montserrat-mediumitalic:609"/><use x="29601" y="842.5" xlink:href="#s89:montserrat-mediumitalic:1278"/></g><g id="line-1"><use x="6114" y="2042.5" xlink:href="#s89:montserrat-mediumitalic:187"/><use x="6702" y="2042.5" xlink:href="#s89:montserrat-mediumitalic:461"/><use x="7376" y="2042.5" xlink:href="#s89:montserrat-mediumitalic:429"/><use x="7984" y="2042.5" xlink:href="#s89:montserrat-mediumitalic:466"/><use x="8275" y="2042.5" xlink:href="#s89:montserrat-mediumitalic:550"/><use x="8682" y="2042.5" xlink:href="#s89:montserrat-mediumitalic:3"/><use x="8927" y="2042.5" xlink:href="#s89:montserrat-mediumitalic:558"/><use x="9419" y="2042.5" xlink:href="#s89:montserrat-mediumitalic:429"/><use x="10027" y="2042.5" xlink:href="#s89:montserrat-mediumitalic:547"/><use x="10713" y="2042.5" xlink:href="#s89:montserrat-mediumitalic:387"/><use x="11394" y="2042.5" xlink:href="#s89:montserrat-mediumitalic:550"/><use x="11801" y="2042.5" xlink:href="#s89:montserrat-mediumitalic:387"/><use x="12482" y="2042.5" xlink:href="#s89:montserrat-mediumitalic:571"/><use x="12899" y="2042.5" xlink:href="#s89:montserrat-mediumitalic:429"/><use x="13507" y="2042.5" xlink:href="#s89:montserrat-mediumitalic:3"/><use x="13752" y="2042.5" xlink:href="#s89:montserrat-mediumitalic:429"/><use x="14360" y="2042.5" xlink:href="#s89:montserrat-mediumitalic:608"/><use x="14928" y="2042.5" xlink:href="#s89:montserrat-mediumitalic:466"/><use x="15219" y="2042.5" xlink:href="#s89:montserrat-mediumitalic:558"/><use x="15711" y="2042.5" xlink:href="#s89:montserrat-mediumitalic:571"/><use x="16128" y="2042.5" xlink:href="#s89:montserrat-mediumitalic:429"/><use x="16736" y="2042.5" xlink:href="#s89:montserrat-mediumitalic:501"/><use x="17404" y="2042.5" xlink:href="#s89:montserrat-mediumitalic:415"/><use x="17987" y="2042.5" xlink:href="#s89:montserrat-mediumitalic:429"/><use x="18595" y="2042.5" xlink:href="#s89:montserrat-mediumitalic:3"/><use x="18840" y="2042.5" xlink:href="#s89:montserrat-mediumitalic:466"/><use x="19131" y="2042.5" xlink:href="#s89:montserrat-mediumitalic:558"/><use x="19623" y="2042.5" xlink:href="#s89:montserrat-mediumitalic:3"/><use x="19868" y="2042.5" xlink:href="#s89:montserrat-mediumitalic:387"/><use x="20549" y="2042.5" xlink:href="#s89:montserrat-mediumitalic:3"/><use x="20794" y="2042.5" xlink:href="#s89:montserrat-mediumitalic:499"/><use x="21852" y="2042.5" xlink:href="#s89:montserrat-mediumitalic:609"/><use x="22396" y="2042.5" xlink:href="#s89:montserrat-mediumitalic:571"/><use x="22813" y="2042.5" xlink:href="#s89:montserrat-mediumitalic:461"/><use x="23487" y="2042.5" xlink:href="#s89:montserrat-mediumitalic:1278"/></g><g id="line-2"><use x="7603" y="3242.5" xlink:href="#s89:montserrat-mediumitalic:70"/><use x="8185" y="3242.5" xlink:href="#s89:montserrat-mediumitalic:512"/><use x="8819" y="3242.5" xlink:href="#s89:montserrat-mediumitalic:550"/><use x="9226" y="3242.5" xlink:href="#s89:montserrat-mediumitalic:3"/><use x="9471" y="3242.5" xlink:href="#s89:montserrat-mediumitalic:558"/><use x="9963" y="3242.5" xlink:href="#s89:montserrat-mediumitalic:415"/><use x="10546" y="3242.5" xlink:href="#s89:montserrat-mediumitalic:466"/><use x="10837" y="3242.5" xlink:href="#s89:montserrat-mediumitalic:429"/><use x="11445" y="3242.5" xlink:href="#s89:montserrat-mediumitalic:501"/><use x="12113" y="3242.5" xlink:href="#s89:montserrat-mediumitalic:415"/><use x="12696" y="3242.5" xlink:href="#s89:montserrat-mediumitalic:429"/><use x="13304" y="3242.5" xlink:href="#s89:montserrat-mediumitalic:1273"/><use x="13516" y="3242.5" xlink:href="#s89:montserrat-mediumitalic:3"/><use x="13761" y="3242.5" xlink:href="#s89:montserrat-mediumitalic:499"/><use x="14819" y="3242.5" xlink:href="#s89:montserrat-mediumitalic:579"/><use x="15487" y="3242.5" xlink:href="#s89:montserrat-mediumitalic:558"/><use x="15979" y="3242.5" xlink:href="#s89:montserrat-mediumitalic:466"/><use x="16270" y="3242.5" xlink:href="#s89:montserrat-mediumitalic:415"/><use x="16853" y="3242.5" xlink:href="#s89:montserrat-mediumitalic:1273"/><use x="17065" y="3242.5" xlink:href="#s89:montserrat-mediumitalic:3"/><use x="17310" y="3242.5" xlink:href="#s89:montserrat-mediumitalic:558"/><use x="17802" y="3242.5" xlink:href="#s89:montserrat-mediumitalic:547"/><use x="18488" y="3242.5" xlink:href="#s89:montserrat-mediumitalic:512"/><use x="19122" y="3242.5" xlink:href="#s89:montserrat-mediumitalic:550"/><use x="19529" y="3242.5" xlink:href="#s89:montserrat-mediumitalic:571"/><use x="19946" y="3242.5" xlink:href="#s89:montserrat-mediumitalic:1273"/><use x="20158" y="3242.5" xlink:href="#s89:montserrat-mediumitalic:3"/><use x="20403" y="3242.5" xlink:href="#s89:montserrat-mediumitalic:429"/><use x="21011" y="3242.5" xlink:href="#s89:montserrat-mediumitalic:571"/><use x="21428" y="3242.5" xlink:href="#s89:montserrat-mediumitalic:415"/><use x="22011" y="3242.5" xlink:href="#s89:montserrat-mediumitalic:1273"/></g></svg>