<svg xmlns="http://www.w3.org/2000/svg" xmlns:xlink="http://www.w3.org/1999/xlink" width="690" height="87" viewBox="0 0 58915 7404.2"><defs><path id="s47:opensans-bold:55" d="M748 0L438 0L438-1204L41-1204L41-1462L1145-1462L1145-1204L748-1204L748 0Z"/><path id="s47:opensans-bold:75" d="M1192 0L887 0L887-653Q887-895 707-895Q579-895 522-808Q465-721 465-526L465 0L160 0L160-1556L465-1556L465-1239Q465-1202 458-1065L451-975L467-975Q569-1139 791-1139Q988-1139 1090-1033Q1192-927 1192-729L1192 0Z"/><path id="s47:opensans-bold:72" d="M623-922Q526-922 471-860.50Q416-799 408-686L836-686Q834-799 777-860.50Q720-922 623-922M666 20Q396 20 244-129Q92-278 92-551Q92-832 232.50-985.50Q373-1139 621-1139Q858-1139 990-1004Q1122-869 1122-631L1122-483L401-483Q406-353 478-280Q550-207 680-207Q781-207 871-228Q961-249 1059-295L1059-59Q979-19 888 0.50Q797 20 666 20Z"/><path id="s47:opensans-bold:3" d=""/><path id="s47:opensans-bold:40" d="M1026 0L184 0L184-1462L1026-1462L1026-1208L494-1208L494-887L989-887L989-633L494-633L494-256L1026-256L1026 0Z"/><path id="s47:opensans-bold:88" d="M952 0L911-143L895-143Q846-65 756-22.50Q666 20 551 20Q354 20 254-85.50Q154-191 154-389L154-1118L459-1118L459-465Q459-344 502-283.50Q545-223 639-223Q767-223 824-308.50Q881-394 881-592L881-1118L1186-1118L1186 0L952 0Z"/><path id="s47:opensans-bold:85" d="M784-1139Q846-1139 887-1130L864-844Q827-854 774-854Q628-854 546.50-779Q465-704 465-569L465 0L160 0L160-1118L391-1118L436-930L451-930Q503-1024 591.50-1081.50Q680-1139 784-1139Z"/><path id="s47:opensans-bold:82" d="M403-561Q403-395 457.50-310Q512-225 635-225Q757-225 810.50-309.50Q864-394 864-561Q864-727 810-810Q756-893 633-893Q511-893 457-810.50Q403-728 403-561M1176-561Q1176-288 1032-134Q888 20 631 20Q470 20 347-50.50Q224-121 158-253Q92-385 92-561Q92-835 235-987Q378-1139 637-1139Q798-1139 921-1069Q1044-999 1110-868Q1176-737 1176-561Z"/><path id="s47:opensans-bold:83" d="M774 20Q577 20 465-123L449-123Q465 17 465 39L465 492L160 492L160-1118L408-1118L451-973L465-973Q572-1139 782-1139Q980-1139 1092-986Q1204-833 1204-561Q1204-382 1151.50-250Q1099-118 1002-49Q905 20 774 20M684-895Q571-895 519-825.50Q467-756 465-596L465-563Q465-383 518.50-305Q572-227 688-227Q893-227 893-565Q893-730 842.50-812.50Q792-895 684-895Z"/><path id="s47:opensans-bold:68" d="M870 0L811-152L803-152Q726-55 644.50-17.50Q563 20 432 20Q271 20 178.50-72Q86-164 86-334Q86-512 210.50-596.50Q335-681 586-690L780-696L780-745Q780-915 606-915Q472-915 291-834L190-1040Q383-1141 618-1141Q843-1141 963-1043Q1083-945 1083-745L1083 0L870 0M780-518L662-514Q529-510 464-466Q399-422 399-332Q399-203 547-203Q653-203 716.50-264Q780-325 780-426L780-518Z"/><path id="s47:opensans-bold:81" d="M1192 0L887 0L887-653Q887-774 844-834.50Q801-895 707-895Q579-895 522-809.50Q465-724 465-526L465 0L160 0L160-1118L393-1118L434-975L451-975Q502-1056 591.50-1097.50Q681-1139 795-1139Q990-1139 1091-1033.50Q1192-928 1192-729L1192 0Z"/><path id="s47:opensans-bold:79" d="M465 0L160 0L160-1556L465-1556L465 0Z"/><path id="s47:opensans-bold:74" d="M1133-1118L1133-963L958-918Q1006-843 1006-750Q1006-570 880.50-469.50Q755-369 532-369L477-372L432-377Q385-341 385-297Q385-231 553-231L743-231Q927-231 1023.50-152Q1120-73 1120 80Q1120 276 956.50 384Q793 492 487 492Q253 492 129.50 410.50Q6 329 6 182Q6 81 69 13Q132-55 254-84Q207-104 172-149.50Q137-195 137-246Q137-310 174-352.50Q211-395 281-436Q193-474 141.50-558Q90-642 90-756Q90-939 209-1039Q328-1139 549-1139Q596-1139 660.50-1130.50Q725-1122 743-1118L1133-1118M270 158Q270 221 330.50 257Q391 293 500 293Q664 293 757 248Q850 203 850 125Q850 62 795 38Q740 14 625 14L467 14Q383 14 326.50 53.50Q270 93 270 158M381-752Q381-661 422.50-608Q464-555 549-555Q635-555 675-608Q715-661 715-752Q715-954 549-954Q381-954 381-752Z"/><path id="s47:opensans-bold:86" d="M940-332Q940-160 820.50-70Q701 20 463 20Q341 20 255 3.50Q169-13 94-45L94-297Q179-257 285.50-230Q392-203 473-203Q639-203 639-299Q639-335 617-357.50Q595-380 541-408.50Q487-437 397-475Q268-529 207.50-575Q147-621 119.50-680.50Q92-740 92-827Q92-976 207.50-1057.50Q323-1139 535-1139Q737-1139 928-1051L836-831Q752-867 679-890Q606-913 530-913Q395-913 395-840Q395-799 438.50-769Q482-739 629-680Q760-627 821-581Q882-535 911-475Q940-415 940-332Z"/><path id="s47:opensans-bold:80" d="M1161 0L856 0L856-653Q856-774 815.50-834.50Q775-895 688-895Q571-895 518-809Q465-723 465-526L465 0L160 0L160-1118L393-1118L434-975L451-975Q496-1052 581-1095.50Q666-1139 776-1139Q1027-1139 1116-975L1143-975Q1188-1053 1275.50-1096Q1363-1139 1473-1139Q1663-1139 1760.50-1041.50Q1858-944 1858-729L1858 0L1552 0L1552-653Q1552-774 1511.50-834.50Q1471-895 1384-895Q1272-895 1216.50-815Q1161-735 1161-561L1161 0Z"/><path id="s47:opensans-bold:69" d="M782-1139Q980-1139 1092-984.50Q1204-830 1204-561Q1204-284 1088.50-132Q973 20 774 20Q577 20 465-123L444-123L393 0L160 0L160-1556L465-1556L465-1194Q465-1125 453-973L465-973Q572-1139 782-1139M684-895Q571-895 519-825.50Q467-756 465-596L465-563Q465-383 518.50-305Q572-227 688-227Q782-227 837.50-313.50Q893-400 893-565Q893-730 837-812.50Q781-895 684-895Z"/><path id="s47:opensans-bold:73" d="M778-889L514-889L514 0L209 0L209-889L41-889L41-1036L209-1118L209-1200Q209-1391 303-1479Q397-1567 604-1567Q762-1567 885-1520L807-1296Q715-1325 637-1325Q572-1325 543-1286.50Q514-1248 514-1188L514-1118L778-1118L778-889Z"/><path id="s47:opensans-bold:87" d="M631-223Q711-223 823-258L823-31Q709 20 543 20Q360 20 276.50-72.50Q193-165 193-350L193-889L47-889L47-1018L215-1120L303-1356L498-1356L498-1118L811-1118L811-889L498-889L498-350Q498-285 534.50-254Q571-223 631-223Z"/><path id="s47:opensans-bold:76" d="M147-1407Q147-1556 313-1556Q479-1556 479-1407Q479-1336 437.50-1296.50Q396-1257 313-1257Q147-1257 147-1407M465 0L160 0L160-1118L465-1118L465 0Z"/><path id="s47:opensans-bold:92" d="M0-1118L334-1118L545-489Q572-407 582-295L588-295Q599-398 631-489L838-1118L1165-1118L692 143Q627 318 506.50 405Q386 492 225 492Q146 492 70 475L70 233Q125 246 190 246Q271 246 331.50 196.50Q392 147 426 47L444-8L0-1118Z"/><path id="s47:opensans-bold:17" d="M117-143Q117-227 162-270Q207-313 293-313Q376-313 421.50-269Q467-225 467-143Q467-64 421-18.50Q375 27 293 27Q209 27 163-17.50Q117-62 117-143Z"/><path id="s47:opensans-bold:91" d="M389-571L29-1118L375-1118L592-762L811-1118L1157-1118L793-571L1174 0L827 0L592-383L356 0L10 0L389-571Z"/><path id="s47:opensans-bold:70" d="M614 20Q92 20 92-553Q92-838 234-988.50Q376-1139 641-1139Q835-1139 989-1063L899-827Q827-856 765-874.50Q703-893 641-893Q403-893 403-555Q403-227 641-227Q729-227 804-250.50Q879-274 954-324L954-63Q880-16 804.50 2Q729 20 614 20Z"/><path id="s47:opensans-bold:41" d="M489 0L184 0L184-1462L1022-1462L1022-1208L489-1208L489-831L985-831L985-578L489-578L489 0Z"/><path id="s47:opensans-bold:15" d="M459-215Q407-13 283 264L63 264Q128-2 164-238L444-238L459-215Z"/></defs><g id="line-0"><use x="0" y="1889" xlink:href="#s47:opensans-bold:55"/><use x="1186" y="1889" xlink:href="#s47:opensans-bold:75"/><use x="2532" y="1889" xlink:href="#s47:opensans-bold:72"/><use x="3742" y="1889" xlink:href="#s47:opensans-bold:3"/><use x="4274" y="1889" xlink:href="#s47:opensans-bold:40"/><use x="5421" y="1889" xlink:href="#s47:opensans-bold:88"/><use x="6767" y="1889" xlink:href="#s47:opensans-bold:85"/><use x="7656" y="1889" xlink:href="#s47:opensans-bold:82"/><use x="8924" y="1889" xlink:href="#s47:opensans-bold:83"/><use x="10220" y="1889" xlink:href="#s47:opensans-bold:72"/><use x="11430" y="1889" xlink:href="#s47:opensans-bold:68"/><use x="12667" y="1889" xlink:href="#s47:opensans-bold:81"/><use x="14013" y="1889" xlink:href="#s47:opensans-bold:3"/><use x="14545" y="1889" xlink:href="#s47:opensans-bold:79"/><use x="15170" y="1889" xlink:href="#s47:opensans-bold:68"/><use x="16407" y="1889" xlink:href="#s47:opensans-bold:81"/><use x="17753" y="1889" xlink:href="#s47:opensans-bold:74"/><use x="18910" y="1889" xlink:href="#s47:opensans-bold:88"/><use x="20256" y="1889" xlink:href="#s47:opensans-bold:68"/><use x="21493" y="1889" xlink:href="#s47:opensans-bold:74"/><use x="22650" y="1889" xlink:href="#s47:opensans-bold:72"/><use x="23860" y="1889" xlink:href="#s47:opensans-bold:86"/><use x="24878" y="1889" xlink:href="#s47:opensans-bold:3"/><use x="25410" y="1889" xlink:href="#s47:opensans-bold:68"/><use x="26647" y="1889" xlink:href="#s47:opensans-bold:85"/><use x="27536" y="1889" xlink:href="#s47:opensans-bold:72"/><use x="28746" y="1889" xlink:href="#s47:opensans-bold:3"/><use x="29278" y="1889" xlink:href="#s47:opensans-bold:80"/><use x="31289" y="1889" xlink:href="#s47:opensans-bold:72"/><use x="32499" y="1889" xlink:href="#s47:opensans-bold:80"/><use x="34510" y="1889" xlink:href="#s47:opensans-bold:69"/><use x="35806" y="1889" xlink:href="#s47:opensans-bold:72"/><use x="37016" y="1889" xlink:href="#s47:opensans-bold:85"/><use x="37946" y="1889" xlink:href="#s47:opensans-bold:86"/><use x="38964" y="1889" xlink:href="#s47:opensans-bold:3"/><use x="39496" y="1889" xlink:href="#s47:opensans-bold:82"/><use x="40764" y="1889" xlink:href="#s47:opensans-bold:73"/><use x="41557" y="1889" xlink:href="#s47:opensans-bold:3"/><use x="42089" y="1889" xlink:href="#s47:opensans-bold:87"/><use x="42978" y="1889" xlink:href="#s47:opensans-bold:75"/><use x="44324" y="1889" xlink:href="#s47:opensans-bold:72"/><use x="45534" y="1889" xlink:href="#s47:opensans-bold:3"/><use x="46066" y="1889" xlink:href="#s47:opensans-bold:86"/><use x="47084" y="1889" xlink:href="#s47:opensans-bold:68"/><use x="48321" y="1889" xlink:href="#s47:opensans-bold:80"/><use x="50332" y="1889" xlink:href="#s47:opensans-bold:72"/><use x="51542" y="1889" xlink:href="#s47:opensans-bold:3"/><use x="52074" y="1889" xlink:href="#s47:opensans-bold:73"/><use x="52867" y="1889" xlink:href="#s47:opensans-bold:68"/><use x="54104" y="1889" xlink:href="#s47:opensans-bold:80"/><use x="56115" y="1889" xlink:href="#s47:opensans-bold:76"/><use x="56740" y="1889" xlink:href="#s47:opensans-bold:79"/><use x="57365" y="1889" xlink:href="#s47:opensans-bold:92"/><use x="58448" y="1889" xlink:href="#s47:opensans-bold:17"/></g><g id="line-1"><use x="11755" y="4346.6" xlink:href="#s47:opensans-bold:55"/><use x="12941" y="4346.6" xlink:href="#s47:opensans-bold:75"/><use x="14287" y="4346.6" xlink:href="#s47:opensans-bold:72"/><use x="15497" y="4346.6" xlink:href="#s47:opensans-bold:76"/><use x="16122" y="4346.6" xlink:href="#s47:opensans-bold:85"/><use x="17052" y="4346.6" xlink:href="#s47:opensans-bold:3"/><use x="17584" y="4346.6" xlink:href="#s47:opensans-bold:86"/><use x="18602" y="4346.6" xlink:href="#s47:opensans-bold:72"/><use x="19812" y="4346.6" xlink:href="#s47:opensans-bold:83"/><use x="21108" y="4346.6" xlink:href="#s47:opensans-bold:68"/><use x="22345" y="4346.6" xlink:href="#s47:opensans-bold:85"/><use x="23234" y="4346.6" xlink:href="#s47:opensans-bold:68"/><use x="24471" y="4346.6" xlink:href="#s47:opensans-bold:87"/><use x="25360" y="4346.6" xlink:href="#s47:opensans-bold:72"/><use x="26570" y="4346.6" xlink:href="#s47:opensans-bold:3"/><use x="27102" y="4346.6" xlink:href="#s47:opensans-bold:72"/><use x="28271" y="4346.6" xlink:href="#s47:opensans-bold:91"/><use x="29455" y="4346.6" xlink:href="#s47:opensans-bold:76"/><use x="30080" y="4346.6" xlink:href="#s47:opensans-bold:86"/><use x="31098" y="4346.6" xlink:href="#s47:opensans-bold:87"/><use x="31987" y="4346.6" xlink:href="#s47:opensans-bold:72"/><use x="33197" y="4346.6" xlink:href="#s47:opensans-bold:81"/><use x="34543" y="4346.6" xlink:href="#s47:opensans-bold:70"/><use x="35596" y="4346.6" xlink:href="#s47:opensans-bold:72"/><use x="36806" y="4346.6" xlink:href="#s47:opensans-bold:3"/><use x="37338" y="4346.6" xlink:href="#s47:opensans-bold:76"/><use x="37963" y="4346.6" xlink:href="#s47:opensans-bold:86"/><use x="38981" y="4346.6" xlink:href="#s47:opensans-bold:3"/><use x="39513" y="4346.6" xlink:href="#s47:opensans-bold:68"/><use x="40750" y="4346.6" xlink:href="#s47:opensans-bold:3"/><use x="41282" y="4346.6" xlink:href="#s47:opensans-bold:80"/><use x="43293" y="4346.6" xlink:href="#s47:opensans-bold:92"/><use x="44458" y="4346.6" xlink:href="#s47:opensans-bold:87"/><use x="45347" y="4346.6" xlink:href="#s47:opensans-bold:75"/><use x="46693" y="4346.6" xlink:href="#s47:opensans-bold:17"/></g><g id="line-2"><use x="14551.5" y="6804.2" xlink:href="#s47:opensans-bold:41"/><use x="15675.5" y="6804.2" xlink:href="#s47:opensans-bold:82"/><use x="16943.5" y="6804.2" xlink:href="#s47:opensans-bold:85"/><use x="17873.5" y="6804.2" xlink:href="#s47:opensans-bold:3"/><use x="18405.5" y="6804.2" xlink:href="#s47:opensans-bold:86"/><use x="19423.5" y="6804.2" xlink:href="#s47:opensans-bold:70"/><use x="20476.5" y="6804.2" xlink:href="#s47:opensans-bold:76"/><use x="21101.5" y="6804.2" xlink:href="#s47:opensans-bold:72"/><use x="22311.5" y="6804.2" xlink:href="#s47:opensans-bold:81"/><use x="23657.5" y="6804.2" xlink:href="#s47:opensans-bold:70"/><use x="24710.5" y="6804.2" xlink:href="#s47:opensans-bold:72"/><use x="25920.5" y="6804.2" xlink:href="#s47:opensans-bold:15"/><use x="26514.5" y="6804.2" xlink:href="#s47:opensans-bold:3"/><use x="27046.5" y="6804.2" xlink:href="#s47:opensans-bold:80"/><use x="29057.5" y="6804.2" xlink:href="#s47:opensans-bold:88"/><use x="30403.5" y="6804.2" xlink:href="#s47:opensans-bold:86"/><use x="31421.5" y="6804.2" xlink:href="#s47:opensans-bold:76"/><use x="32046.5" y="6804.2" xlink:href="#s47:opensans-bold:70"/><use x="33099.5" y="6804.2" xlink:href="#s47:opensans-bold:15"/><use x="33693.5" y="6804.2" xlink:href="#s47:opensans-bold:3"/><use x="34225.5" y="6804.2" xlink:href="#s47:opensans-bold:86"/><use x="35243.5" y="6804.2" xlink:href="#s47:opensans-bold:83"/><use x="36539.5" y="6804.2" xlink:href="#s47:opensans-bold:82"/><use x="37807.5" y="6804.2" xlink:href="#s47:opensans-bold:85"/><use x="38737.5" y="6804.2" xlink:href="#s47:opensans-bold:87"/><use x="39626.5" y="6804.2" xlink:href="#s47:opensans-bold:15"/><use x="40220.5" y="6804.2" xlink:href="#s47:opensans-bold:3"/><use x="40752.5" y="6804.2" xlink:href="#s47:opensans-bold:72"/><use x="41962.5" y="6804.2" xlink:href="#s47:opensans-bold:87"/><use x="42851.5" y="6804.2" xlink:href="#s47:opensans-bold:70"/><use x="43904.5" y="6804.2" xlink:href="#s47:opensans-bold:15"/></g></svg>