<svg xmlns="http://www.w3.org/2000/svg" xmlns:xlink="http://www.w3.org/1999/xlink" width="669" height="87" viewBox="0 0 57098 7404.2"><defs><path id="s55:opensans-semibold:55" d="M698 0L459 0L459-1257L29-1257L29-1462L1128-1462L1128-1257L698-1257L698 0Z"/><path id="s55:opensans-semibold:75" d="M1141 0L905 0L905-680Q905-808 853.50-871Q802-934 690-934Q542-934 472.50-845.50Q403-757 403-549L403 0L168 0L168-1556L403-1556L403-1161Q403-1066 391-958L406-958Q454-1038 539.50-1082Q625-1126 739-1126Q1141-1126 1141-721L1141 0Z"/><path id="s55:opensans-semibold:72" d="M651 20Q393 20 247.50-130.50Q102-281 102-545Q102-816 237-971Q372-1126 608-1126Q827-1126 954-993Q1081-860 1081-627L1081-500L344-500Q349-339 431-252.50Q513-166 662-166Q760-166 844.50-184.50Q929-203 1026-246L1026-55Q940-14 852 3Q764 20 651 20M608-948Q496-948 428.50-877Q361-806 348-670L850-670Q848-807 784-877.50Q720-948 608-948Z"/><path id="s55:opensans-semibold:3" d=""/><path id="s55:opensans-semibold:40" d="M1020 0L193 0L193-1462L1020-1462L1020-1260L432-1260L432-862L983-862L983-662L432-662L432-203L1020-203L1020 0Z"/><path id="s55:opensans-semibold:88" d="M948 0L915-145L903-145Q854-68 763.50-24Q673 20 557 20Q356 20 257-80Q158-180 158-383L158-1106L395-1106L395-424Q395-297 447-233.50Q499-170 610-170Q758-170 827.50-258.50Q897-347 897-555L897-1106L1133-1106L1133 0L948 0Z"/><path id="s55:opensans-semibold:85" d="M729-1126Q800-1126 846-1116L823-897Q773-909 719-909Q578-909 490.50-817Q403-725 403-578L403 0L168 0L168-1106L352-1106L383-911L395-911Q450-1010 538.50-1068Q627-1126 729-1126Z"/><path id="s55:opensans-semibold:82" d="M1149-555Q1149-284 1010-132Q871 20 623 20Q468 20 349-50Q230-120 166-251Q102-382 102-555Q102-824 240-975Q378-1126 629-1126Q869-1126 1009-971.50Q1149-817 1149-555M344-555Q344-172 627-172Q907-172 907-555Q907-934 625-934Q477-934 410.50-836Q344-738 344-555Z"/><path id="s55:opensans-semibold:83" d="M729 20Q519 20 403-131L389-131Q403 9 403 39L403 492L168 492L168-1106L358-1106Q366-1075 391-958L403-958Q513-1126 733-1126Q940-1126 1055.50-976Q1171-826 1171-555Q1171-284 1053.50-132Q936 20 729 20M672-934Q532-934 467.50-852Q403-770 403-590L403-555Q403-353 467-262.50Q531-172 676-172Q798-172 864-272Q930-372 930-557Q930-743 864.50-838.50Q799-934 672-934Z"/><path id="s55:opensans-semibold:68" d="M860 0L813-154L805-154Q725-53 644-16.50Q563 20 436 20Q273 20 181.50-68Q90-156 90-317Q90-488 217-575Q344-662 604-670L795-676L795-735Q795-841 745.50-893.50Q696-946 592-946Q507-946 429-921Q351-896 279-862L203-1030Q293-1077 400-1101.50Q507-1126 602-1126Q813-1126 920.50-1034Q1028-942 1028-745L1028 0L860 0M510-160Q638-160 715.50-231.50Q793-303 793-432L793-528L651-522Q485-516 409.50-466.50Q334-417 334-315Q334-241 378-200.50Q422-160 510-160Z"/><path id="s55:opensans-semibold:81" d="M1141 0L905 0L905-680Q905-808 853.50-871Q802-934 690-934Q541-934 472-846Q403-758 403-551L403 0L168 0L168-1106L352-1106L385-961L397-961Q447-1040 539-1083Q631-1126 743-1126Q1141-1126 1141-721L1141 0Z"/><path id="s55:opensans-semibold:79" d="M403 0L168 0L168-1556L403-1556L403 0Z"/><path id="s55:opensans-semibold:74" d="M1102-1106L1102-977L913-942Q939-907 956-856Q973-805 973-748Q973-577 855-479Q737-381 530-381Q477-381 434-389Q358-342 358-279Q358-241 393.50-222Q429-203 524-203L717-203Q900-203 995-125Q1090-47 1090 100Q1090 288 935 390Q780 492 487 492Q261 492 142 412Q23 332 23 184Q23 82 87.50 12.50Q152-57 268-84Q221-104 190.50-148.50Q160-193 160-242Q160-304 195-347Q230-390 299-432Q213-469 159.50-552.50Q106-636 106-748Q106-928 219.50-1027Q333-1126 543-1126Q590-1126 641.50-1119.50Q693-1113 719-1106L1102-1106M233 172Q233 248 301.50 289Q370 330 494 330Q686 330 780 275Q874 220 874 129Q874 57 822.50 26.50Q771-4 631-4L453-4Q352-4 292.50 43.50Q233 91 233 172M334-748Q334-644 387.50-588Q441-532 541-532Q745-532 745-750Q745-858 694.50-916.50Q644-975 541-975Q439-975 386.50-917Q334-859 334-748Z"/><path id="s55:opensans-semibold:86" d="M911-315Q911-153 793-66.50Q675 20 455 20Q234 20 100-47L100-250Q295-160 463-160Q680-160 680-291Q680-333 656-361Q632-389 577-419Q522-449 424-487Q233-561 165.50-635Q98-709 98-827Q98-969 212.50-1047.50Q327-1126 524-1126Q719-1126 893-1047L817-870Q638-944 516-944Q330-944 330-838Q330-786 378.50-750Q427-714 590-651Q727-598 789-554Q851-510 881-452.50Q911-395 911-315Z"/><path id="s55:opensans-semibold:80" d="M1100 0L864 0L864-682Q864-809 816-871.50Q768-934 666-934Q530-934 466.50-845.50Q403-757 403-551L403 0L168 0L168-1106L352-1106L385-961L397-961Q443-1040 530.50-1083Q618-1126 723-1126Q978-1126 1061-952L1077-952Q1126-1034 1215-1080Q1304-1126 1419-1126Q1617-1126 1707.50-1026Q1798-926 1798-721L1798 0L1563 0L1563-682Q1563-809 1514.50-871.50Q1466-934 1364-934Q1227-934 1163.50-848.50Q1100-763 1100-586L1100 0Z"/><path id="s55:opensans-semibold:69" d="M733-1126Q940-1126 1055.50-976Q1171-826 1171-555Q1171-283 1054-131.50Q937 20 729 20Q519 20 403-131L387-131L344 0L168 0L168-1556L403-1556L403-1186Q403-1145 399-1064Q395-983 393-961L403-961Q515-1126 733-1126M672-934Q530-934 467.50-850.50Q405-767 403-571L403-555Q403-353 467-262.50Q531-172 676-172Q801-172 865.50-271Q930-370 930-557Q930-934 672-934Z"/><path id="s55:opensans-semibold:73" d="M723-928L453-928L453 0L217 0L217-928L35-928L35-1038L217-1110L217-1182Q217-1378 309-1472.50Q401-1567 590-1567Q714-1567 834-1526L772-1348Q685-1376 606-1376Q526-1376 489.50-1326.50Q453-1277 453-1178L453-1106L723-1106L723-928Z"/><path id="s55:opensans-semibold:87" d="M580-170Q666-170 752-197L752-20Q713-3 651.50 8.50Q590 20 524 20Q190 20 190-332L190-928L39-928L39-1032L201-1118L281-1352L426-1352L426-1106L741-1106L741-928L426-928L426-336Q426-251 468.50-210.50Q511-170 580-170Z"/><path id="s55:opensans-semibold:76" d="M403 0L168 0L168-1106L403-1106L403 0M154-1399Q154-1462 188.50-1496Q223-1530 287-1530Q349-1530 383.50-1496Q418-1462 418-1399Q418-1339 383.50-1304.50Q349-1270 287-1270Q223-1270 188.50-1304.50Q154-1339 154-1399Z"/><path id="s55:opensans-semibold:92" d="M0-1106L256-1106L481-479Q532-345 549-227L557-227Q566-282 590-360.50Q614-439 844-1106L1098-1106L625 147Q496 492 195 492Q117 492 43 475L43 289Q96 301 164 301Q334 301 403 104L444 0L0-1106Z"/><path id="s55:opensans-semibold:17" d="M133-125Q133-198 171-237Q209-276 281-276Q354-276 392-235.50Q430-195 430-125Q430-54 391.50-12.50Q353 29 281 29Q209 29 171-12Q133-53 133-125Z"/><path id="s55:opensans-semibold:91" d="M414-565L43-1106L311-1106L563-719L817-1106L1083-1106L711-565L1102 0L836 0L563-414L291 0L25 0L414-565Z"/><path id="s55:opensans-semibold:70" d="M614 20Q363 20 232.50-126.50Q102-273 102-547Q102-826 238.50-976Q375-1126 633-1126Q808-1126 948-1061L877-872Q728-930 631-930Q344-930 344-549Q344-363 415.50-269.50Q487-176 625-176Q782-176 922-254L922-49Q859-12 787.50 4Q716 20 614 20Z"/><path id="s55:opensans-semibold:41" d="M430 0L193 0L193-1462L1018-1462L1018-1260L430-1260L430-803L981-803L981-600L430-600L430 0Z"/><path id="s55:opensans-semibold:15" d="M412-215Q364-29 236 264L63 264Q132-6 166-238L397-238L412-215Z"/></defs><g id="line-0"><use x="0" y="1889" xlink:href="#s55:opensans-semibold:55"/><use x="1159" y="1889" xlink:href="#s55:opensans-semibold:75"/><use x="2459" y="1889" xlink:href="#s55:opensans-semibold:72"/><use x="3639" y="1889" xlink:href="#s55:opensans-semibold:3"/><use x="4171" y="1889" xlink:href="#s55:opensans-semibold:40"/><use x="5314" y="1889" xlink:href="#s55:opensans-semibold:88"/><use x="6614" y="1889" xlink:href="#s55:opensans-semibold:85"/><use x="7456" y="1889" xlink:href="#s55:opensans-semibold:82"/><use x="8707" y="1889" xlink:href="#s55:opensans-semibold:83"/><use x="9983" y="1889" xlink:href="#s55:opensans-semibold:72"/><use x="11163" y="1889" xlink:href="#s55:opensans-semibold:68"/><use x="12351" y="1889" xlink:href="#s55:opensans-semibold:81"/><use x="13651" y="1889" xlink:href="#s55:opensans-semibold:3"/><use x="14183" y="1889" xlink:href="#s55:opensans-semibold:79"/><use x="14754" y="1889" xlink:href="#s55:opensans-semibold:68"/><use x="15942" y="1889" xlink:href="#s55:opensans-semibold:81"/><use x="17242" y="1889" xlink:href="#s55:opensans-semibold:74"/><use x="18381" y="1889" xlink:href="#s55:opensans-semibold:88"/><use x="19681" y="1889" xlink:href="#s55:opensans-semibold:68"/><use x="20869" y="1889" xlink:href="#s55:opensans-semibold:74"/><use x="22008" y="1889" xlink:href="#s55:opensans-semibold:72"/><use x="23188" y="1889" xlink:href="#s55:opensans-semibold:86"/><use x="24185" y="1889" xlink:href="#s55:opensans-semibold:3"/><use x="24717" y="1889" xlink:href="#s55:opensans-semibold:68"/><use x="25905" y="1889" xlink:href="#s55:opensans-semibold:85"/><use x="26747" y="1889" xlink:href="#s55:opensans-semibold:72"/><use x="27927" y="1889" xlink:href="#s55:opensans-semibold:3"/><use x="28459" y="1889" xlink:href="#s55:opensans-semibold:80"/><use x="30417" y="1889" xlink:href="#s55:opensans-semibold:72"/><use x="31597" y="1889" xlink:href="#s55:opensans-semibold:80"/><use x="33555" y="1889" xlink:href="#s55:opensans-semibold:69"/><use x="34831" y="1889" xlink:href="#s55:opensans-semibold:72"/><use x="36011" y="1889" xlink:href="#s55:opensans-semibold:85"/><use x="36894" y="1889" xlink:href="#s55:opensans-semibold:86"/><use x="37891" y="1889" xlink:href="#s55:opensans-semibold:3"/><use x="38423" y="1889" xlink:href="#s55:opensans-semibold:82"/><use x="39674" y="1889" xlink:href="#s55:opensans-semibold:73"/><use x="40417" y="1889" xlink:href="#s55:opensans-semibold:3"/><use x="40949" y="1889" xlink:href="#s55:opensans-semibold:87"/><use x="41754" y="1889" xlink:href="#s55:opensans-semibold:75"/><use x="43054" y="1889" xlink:href="#s55:opensans-semibold:72"/><use x="44234" y="1889" xlink:href="#s55:opensans-semibold:3"/><use x="44766" y="1889" xlink:href="#s55:opensans-semibold:86"/><use x="45763" y="1889" xlink:href="#s55:opensans-semibold:68"/><use x="46951" y="1889" xlink:href="#s55:opensans-semibold:80"/><use x="48909" y="1889" xlink:href="#s55:opensans-semibold:72"/><use x="50089" y="1889" xlink:href="#s55:opensans-semibold:3"/><use x="50621" y="1889" xlink:href="#s55:opensans-semibold:73"/><use x="51364" y="1889" xlink:href="#s55:opensans-semibold:68"/><use x="52552" y="1889" xlink:href="#s55:opensans-semibold:80"/><use x="54510" y="1889" xlink:href="#s55:opensans-semibold:76"/><use x="55081" y="1889" xlink:href="#s55:opensans-semibold:79"/><use x="55652" y="1889" xlink:href="#s55:opensans-semibold:92"/><use x="56668" y="1889" xlink:href="#s55:opensans-semibold:17"/></g><g id="line-1"><use x="11514" y="4346.6" xlink:href="#s55:opensans-semibold:55"/><use x="12673" y="4346.6" xlink:href="#s55:opensans-semibold:75"/><use x="13973" y="4346.6" xlink:href="#s55:opensans-semibold:72"/><use x="15153" y="4346.6" xlink:href="#s55:opensans-semibold:76"/><use x="15724" y="4346.6" xlink:href="#s55:opensans-semibold:85"/><use x="16607" y="4346.6" xlink:href="#s55:opensans-semibold:3"/><use x="17139" y="4346.6" xlink:href="#s55:opensans-semibold:86"/><use x="18136" y="4346.6" xlink:href="#s55:opensans-semibold:72"/><use x="19316" y="4346.6" xlink:href="#s55:opensans-semibold:83"/><use x="20592" y="4346.6" xlink:href="#s55:opensans-semibold:68"/><use x="21780" y="4346.6" xlink:href="#s55:opensans-semibold:85"/><use x="22622" y="4346.6" xlink:href="#s55:opensans-semibold:68"/><use x="23810" y="4346.6" xlink:href="#s55:opensans-semibold:87"/><use x="24615" y="4346.6" xlink:href="#s55:opensans-semibold:72"/><use x="25795" y="4346.6" xlink:href="#s55:opensans-semibold:3"/><use x="26327" y="4346.6" xlink:href="#s55:opensans-semibold:72"/><use x="27466" y="4346.6" xlink:href="#s55:opensans-semibold:91"/><use x="28594" y="4346.6" xlink:href="#s55:opensans-semibold:76"/><use x="29165" y="4346.6" xlink:href="#s55:opensans-semibold:86"/><use x="30162" y="4346.6" xlink:href="#s55:opensans-semibold:87"/><use x="30967" y="4346.6" xlink:href="#s55:opensans-semibold:72"/><use x="32147" y="4346.6" xlink:href="#s55:opensans-semibold:81"/><use x="33447" y="4346.6" xlink:href="#s55:opensans-semibold:70"/><use x="34461" y="4346.6" xlink:href="#s55:opensans-semibold:72"/><use x="35641" y="4346.6" xlink:href="#s55:opensans-semibold:3"/><use x="36173" y="4346.6" xlink:href="#s55:opensans-semibold:76"/><use x="36744" y="4346.6" xlink:href="#s55:opensans-semibold:86"/><use x="37741" y="4346.6" xlink:href="#s55:opensans-semibold:3"/><use x="38273" y="4346.6" xlink:href="#s55:opensans-semibold:68"/><use x="39461" y="4346.6" xlink:href="#s55:opensans-semibold:3"/><use x="39993" y="4346.6" xlink:href="#s55:opensans-semibold:80"/><use x="41951" y="4346.6" xlink:href="#s55:opensans-semibold:92"/><use x="43049" y="4346.6" xlink:href="#s55:opensans-semibold:87"/><use x="43854" y="4346.6" xlink:href="#s55:opensans-semibold:75"/><use x="45154" y="4346.6" xlink:href="#s55:opensans-semibold:17"/></g><g id="line-2"><use x="14193" y="6804.2" xlink:href="#s55:opensans-semibold:41"/><use x="15283" y="6804.2" xlink:href="#s55:opensans-semibold:82"/><use x="16534" y="6804.2" xlink:href="#s55:opensans-semibold:85"/><use x="17417" y="6804.2" xlink:href="#s55:opensans-semibold:3"/><use x="17949" y="6804.2" xlink:href="#s55:opensans-semibold:86"/><use x="18946" y="6804.2" xlink:href="#s55:opensans-semibold:70"/><use x="19960" y="6804.2" xlink:href="#s55:opensans-semibold:76"/><use x="20531" y="6804.2" xlink:href="#s55:opensans-semibold:72"/><use x="21711" y="6804.2" xlink:href="#s55:opensans-semibold:81"/><use x="23011" y="6804.2" xlink:href="#s55:opensans-semibold:70"/><use x="24025" y="6804.2" xlink:href="#s55:opensans-semibold:72"/><use x="25205" y="6804.2" xlink:href="#s55:opensans-semibold:15"/><use x="25752" y="6804.2" xlink:href="#s55:opensans-semibold:3"/><use x="26284" y="6804.2" xlink:href="#s55:opensans-semibold:80"/><use x="28242" y="6804.2" xlink:href="#s55:opensans-semibold:88"/><use x="29542" y="6804.2" xlink:href="#s55:opensans-semibold:86"/><use x="30539" y="6804.2" xlink:href="#s55:opensans-semibold:76"/><use x="31110" y="6804.2" xlink:href="#s55:opensans-semibold:70"/><use x="32124" y="6804.2" xlink:href="#s55:opensans-semibold:15"/><use x="32671" y="6804.2" xlink:href="#s55:opensans-semibold:3"/><use x="33203" y="6804.2" xlink:href="#s55:opensans-semibold:86"/><use x="34200" y="6804.2" xlink:href="#s55:opensans-semibold:83"/><use x="35476" y="6804.2" xlink:href="#s55:opensans-semibold:82"/><use x="36727" y="6804.2" xlink:href="#s55:opensans-semibold:85"/><use x="37610" y="6804.2" xlink:href="#s55:opensans-semibold:87"/><use x="38415" y="6804.2" xlink:href="#s55:opensans-semibold:15"/><use x="38962" y="6804.2" xlink:href="#s55:opensans-semibold:3"/><use x="39494" y="6804.2" xlink:href="#s55:opensans-semibold:72"/><use x="40674" y="6804.2" xlink:href="#s55:opensans-semibold:87"/><use x="41479" y="6804.2" xlink:href="#s55:opensans-semibold:70"/><use x="42493" y="6804.2" xlink:href="#s55:opensans-semibold:15"/></g></svg>