<svg xmlns="http://www.w3.org/2000/svg" xmlns:xlink="http://www.w3.org/1999/xlink" width="630" height="87" viewBox="0 0 53801 7404.2"><defs><path id="s56:opensans-semibolditalic:55" d="M528 0L291 0L555-1257L176-1257L221-1462L1219-1462L1176-1257L795-1257L528 0Z"/><path id="s56:opensans-semibolditalic:75" d="M702 0L844-672Q862-762 862-799Q862-934 733-934Q621-934 523.50-809Q426-684 381-467L283 0L47 0L377-1556L612-1556L555-1294Q528-1168 482-1001L463-926L471-926Q555-1032 639.50-1079Q724-1126 817-1126Q953-1126 1025.50-1048.50Q1098-971 1098-827Q1098-751 1075-653L936 0L702 0Z"/><path id="s56:opensans-semibolditalic:72" d="M664-946Q568-946 483.50-860Q399-774 362-633L391-633Q579-633 685-686.50Q791-740 791-838Q791-889 759-917.50Q727-946 664-946M512 20Q315 20 204.50-91Q94-202 94-401Q94-599 171.50-769.50Q249-940 381.50-1033Q514-1126 678-1126Q839-1126 928.50-1053.50Q1018-981 1018-848Q1018-666 851.50-563.50Q685-461 377-461L334-461L332-430L332-401Q332-290 388.50-227Q445-164 557-164Q629-164 700-183Q771-202 868-248L868-61Q772-17 691.50 1.50Q611 20 512 20Z"/><path id="s56:opensans-semibolditalic:3" d=""/><path id="s56:opensans-semibolditalic:40" d="M846 0L70 0L379-1462L1155-1462L1112-1257L573-1257L489-862L991-862L950-659L446-659L350-203L889-203L846 0Z"/><path id="s56:opensans-semibolditalic:88" d="M506-1106L377-496Q346-355 346-303Q346-170 473-170Q545-170 616-227Q687-284 742-389.50Q797-495 827-637L926-1106L1159-1106L926 0L741 0L762-205L754-205Q672-89 583-34.50Q494 20 391 20Q257 20 184-56Q111-132 111-274Q111-337 123-398.50Q135-460 147-522L270-1106L506-1106Z"/><path id="s56:opensans-semibolditalic:85" d="M797-1126Q859-1126 905-1114L854-895Q800-909 752-909Q626-909 527-796Q428-683 389-500L283 0L47 0L283-1106L467-1106L446-901L455-901Q538-1021 621-1073.50Q704-1126 797-1126Z"/><path id="s56:opensans-semibolditalic:82" d="M842-702Q842-809 793-869.50Q744-930 653-930Q560-930 486.50-858.50Q413-787 372.50-664.50Q332-542 332-403Q332-292 381.50-233Q431-174 528-174Q618-174 690-242Q762-310 802-432.50Q842-555 842-702M1079-692Q1079-490 1006-324.50Q933-159 805.50-70.50Q678 18 512 18Q320 18 207-96.50Q94-211 94-408Q94-607 165.50-773Q237-939 366-1031.50Q495-1124 664-1124Q859-1124 969-1008Q1079-892 1079-692Z"/><path id="s56:opensans-semibolditalic:83" d="M578 20Q397 20 309-156L299-156Q292-59 274 29L178 492L-55 492L283-1106L467-1106L446-918L455-918Q612-1126 799-1126Q942-1126 1023-1023Q1104-920 1104-737Q1104-533 1034-355.50Q964-178 843.50-79Q723 20 578 20M711-934Q630-934 550-854.50Q470-775 419.50-644Q369-513 369-373Q369-277 415.50-223.50Q462-170 547-170Q632-170 706-248.50Q780-327 823-458.50Q866-590 866-733Q866-934 711-934Z"/><path id="s56:opensans-semibolditalic:68" d="M399 20Q258 20 176-81.50Q94-183 94-367Q94-569 163.50-745Q233-921 355-1023.50Q477-1126 623-1126Q720-1126 790-1080.50Q860-1035 899-948L909-948L971-1106L1151-1106L915 0L733 0L754-176L748-176Q590 20 399 20M485-170Q567-170 646-247.50Q725-325 776-455Q827-585 827-739Q827-827 780-880.50Q733-934 657-934Q572-934 497-857Q422-780 377-647.50Q332-515 332-373Q332-271 372.50-220.50Q413-170 485-170Z"/><path id="s56:opensans-semibolditalic:81" d="M702 0L844-672Q862-762 862-803Q862-934 733-934Q661-934 591-877Q521-820 465-712.50Q409-605 381-469L283 0L47 0L283-1106L467-1106L446-901L455-901Q538-1019 626-1072.50Q714-1126 817-1126Q951-1126 1024.50-1050Q1098-974 1098-834Q1098-765 1075-653L938 0L702 0Z"/><path id="s56:opensans-semibolditalic:79" d="M281 0L47 0L377-1556L612-1556L281 0Z"/><path id="s56:opensans-semibolditalic:74" d="M1143-1106L1112-969L920-936Q948-878 948-799Q948-606 829-492.50Q710-379 510-379Q458-379 418-387Q307-347 307-283Q307-245 338.50-231Q370-217 430-209L557-193Q733-171 809-105.50Q885-40 885 82Q885 278 734 385Q583 492 305 492Q102 492-9.50 417Q-121 342-121 211Q-121 108-51.50 33Q18-42 172-94Q96-139 96-221Q96-290 142.50-340.50Q189-391 289-438Q154-519 154-690Q154-886 276.50-1006Q399-1126 600-1126Q680-1126 760-1106L1143-1106M324-18Q212 0 152 53Q92 106 92 184Q92 249 147.50 287.50Q203 326 317 326Q480 326 572 272Q664 218 664 117Q664 66 619 37Q574 8 461-4L324-18M594-969Q529-969 480-930.50Q431-892 404-825.50Q377-759 377-680Q377-609 412.50-570.50Q448-532 514-532Q579-532 626.50-571Q674-610 700.50-678Q727-746 727-827Q727-969 594-969Z"/><path id="s56:opensans-semibolditalic:86" d="M782-340Q782-167 664-73.50Q546 20 336 20Q146 20 14-47L14-250Q167-160 326-160Q423-160 483-200Q543-240 543-309Q543-360 508.50-396.50Q474-433 367-494Q242-561 190.50-630.50Q139-700 139-795Q139-950 246-1038Q353-1126 535-1126Q731-1126 881-1042L805-866Q665-942 539-942Q466-942 420.50-909Q375-876 375-817Q375-772 408-737Q441-702 543-647Q648-588 692-546Q736-504 759-454.50Q782-405 782-340Z"/><path id="s56:opensans-semibolditalic:80" d="M807-1126Q1027-1126 1061-891L1069-891Q1144-1007 1239.50-1066.50Q1335-1126 1438-1126Q1571-1126 1640.50-1049.50Q1710-973 1710-834Q1710-770 1688-653L1548 0L1313 0L1456-672Q1475-767 1475-805Q1475-934 1354-934Q1246-934 1152.50-810Q1059-686 1016-481L915 0L680 0L823-672Q840-754 840-799Q840-934 723-934Q613-934 519.50-807Q426-680 381-469L283 0L47 0L283-1106L467-1106L446-901L455-901Q603-1126 807-1126Z"/><path id="s56:opensans-semibolditalic:69" d="M578 20Q480 20 409.50-25Q339-70 299-156L289-156L225 0L47 0L377-1556L612-1556L541-1223Q528-1160 503-1066.50Q478-973 463-926L471-926Q561-1039 636-1082.50Q711-1126 797-1126Q942-1126 1023-1022.50Q1104-919 1104-737Q1104-535 1034.50-357.50Q965-180 844-80Q723 20 578 20M711-934Q630-934 549-854Q468-774 418.50-643.50Q369-513 369-373Q369-277 415.50-223.50Q462-170 547-170Q632-170 706-248.50Q780-327 823-458.50Q866-590 866-733Q866-934 711-934Z"/><path id="s56:opensans-semibolditalic:73" d="M-76 492Q-166 492-225 469L-225 279Q-161 299-111 299Q23 299 66 94L283-928L104-928L125-1034L319-1110L340-1202Q384-1400 474.50-1483.50Q565-1567 731-1567Q846-1567 942-1524L881-1348Q807-1376 745-1376Q676-1376 634.50-1333Q593-1290 571-1192L553-1106L782-1106L745-928L516-928L293 125Q253 314 162 403Q71 492-76 492Z"/><path id="s56:opensans-semibolditalic:87" d="M455-170Q523-170 606-201L606-23Q571-6 511 7Q451 20 391 20Q117 20 117-227Q117-284 133-358L254-928L92-928L113-1038L303-1120L432-1352L578-1352L526-1106L805-1106L766-928L489-928L367-356Q354-301 354-264Q354-221 379-195.50Q404-170 455-170Z"/><path id="s56:opensans-semibolditalic:76" d="M330-1378Q330-1446 369-1488Q408-1530 479-1530Q532-1530 565-1503.50Q598-1477 598-1423Q598-1352 558-1311Q518-1270 453-1270Q400-1270 365-1296Q330-1322 330-1378M283 0L47 0L283-1106L518-1106L283 0Z"/><path id="s56:opensans-semibolditalic:92" d="M100-1106L332-1106L395-575Q404-513 411-400.50Q418-288 418-219L424-219Q510-434 559-532L852-1106L1106-1106L418 174Q328 339 222 415.50Q116 492-27 492Q-103 492-170 473L-170 285Q-95 301-45 301Q29 301 89 257.50Q149 214 213 102L264 10L100-1106Z"/><path id="s56:opensans-semibolditalic:17" d="M33-94Q33-177 80-226.50Q127-276 211-276Q267-276 300.50-244.50Q334-213 334-152Q334-74 286.50-22.50Q239 29 162 29Q96 29 64.50-6.50Q33-42 33-94Z"/><path id="s56:opensans-semibolditalic:91" d="M489-387L184 0L-86 0L389-569L158-1106L403-1106L547-733L834-1106L1108-1106L647-557L895 0L649 0L489-387Z"/><path id="s56:opensans-semibolditalic:70" d="M506 20Q310 20 202-86Q94-192 94-389Q94-596 167.50-765.50Q241-935 374-1030.50Q507-1126 676-1126Q840-1126 973-1065L903-881Q781-934 682-934Q532-934 432-780.50Q332-627 332-401Q332-290 388-230Q444-170 543-170Q617-170 681.50-192Q746-214 811-246L811-51Q671 20 506 20Z"/><path id="s56:opensans-semibolditalic:41" d="M307 0L70 0L379-1462L1153-1462L1110-1257L573-1257L477-803L979-803L934-600L434-600L307 0Z"/><path id="s56:opensans-semibolditalic:15" d="M334-238L342-215Q217 45 76 264L-102 264Q3 26 98-238L334-238Z"/></defs><g id="line-0"><use x="0" y="1889" xlink:href="#s56:opensans-semibolditalic:55"/><use x="1053" y="1889" xlink:href="#s56:opensans-semibolditalic:75"/><use x="2261" y="1889" xlink:href="#s56:opensans-semibolditalic:72"/><use x="3336" y="1889" xlink:href="#s56:opensans-semibolditalic:3"/><use x="3868" y="1889" xlink:href="#s56:opensans-semibolditalic:40"/><use x="4945" y="1889" xlink:href="#s56:opensans-semibolditalic:88"/><use x="6153" y="1889" xlink:href="#s56:opensans-semibolditalic:85"/><use x="6948" y="1889" xlink:href="#s56:opensans-semibolditalic:82"/><use x="8122" y="1889" xlink:href="#s56:opensans-semibolditalic:83"/><use x="9322" y="1889" xlink:href="#s56:opensans-semibolditalic:72"/><use x="10397" y="1889" xlink:href="#s56:opensans-semibolditalic:68"/><use x="11583" y="1889" xlink:href="#s56:opensans-semibolditalic:81"/><use x="12791" y="1889" xlink:href="#s56:opensans-semibolditalic:3"/><use x="13323" y="1889" xlink:href="#s56:opensans-semibolditalic:79"/><use x="13886" y="1889" xlink:href="#s56:opensans-semibolditalic:68"/><use x="15072" y="1889" xlink:href="#s56:opensans-semibolditalic:81"/><use x="16280" y="1889" xlink:href="#s56:opensans-semibolditalic:74"/><use x="17347" y="1889" xlink:href="#s56:opensans-semibolditalic:88"/><use x="18555" y="1889" xlink:href="#s56:opensans-semibolditalic:68"/><use x="19741" y="1889" xlink:href="#s56:opensans-semibolditalic:74"/><use x="20808" y="1889" xlink:href="#s56:opensans-semibolditalic:72"/><use x="21883" y="1889" xlink:href="#s56:opensans-semibolditalic:86"/><use x="22805" y="1889" xlink:href="#s56:opensans-semibolditalic:3"/><use x="23337" y="1889" xlink:href="#s56:opensans-semibolditalic:68"/><use x="24523" y="1889" xlink:href="#s56:opensans-semibolditalic:85"/><use x="25318" y="1889" xlink:href="#s56:opensans-semibolditalic:72"/><use x="26393" y="1889" xlink:href="#s56:opensans-semibolditalic:3"/><use x="26925" y="1889" xlink:href="#s56:opensans-semibolditalic:80"/><use x="28744" y="1889" xlink:href="#s56:opensans-semibolditalic:72"/><use x="29819" y="1889" xlink:href="#s56:opensans-semibolditalic:80"/><use x="31638" y="1889" xlink:href="#s56:opensans-semibolditalic:69"/><use x="32838" y="1889" xlink:href="#s56:opensans-semibolditalic:72"/><use x="33913" y="1889" xlink:href="#s56:opensans-semibolditalic:85"/><use x="34749" y="1889" xlink:href="#s56:opensans-semibolditalic:86"/><use x="35671" y="1889" xlink:href="#s56:opensans-semibolditalic:3"/><use x="36203" y="1889" xlink:href="#s56:opensans-semibolditalic:82"/><use x="37377" y="1889" xlink:href="#s56:opensans-semibolditalic:73"/><use x="38079" y="1889" xlink:href="#s56:opensans-semibolditalic:3"/><use x="38611" y="1889" xlink:href="#s56:opensans-semibolditalic:87"/><use x="39363" y="1889" xlink:href="#s56:opensans-semibolditalic:75"/><use x="40571" y="1889" xlink:href="#s56:opensans-semibolditalic:72"/><use x="41646" y="1889" xlink:href="#s56:opensans-semibolditalic:3"/><use x="42178" y="1889" xlink:href="#s56:opensans-semibolditalic:86"/><use x="43100" y="1889" xlink:href="#s56:opensans-semibolditalic:68"/><use x="44286" y="1889" xlink:href="#s56:opensans-semibolditalic:80"/><use x="46105" y="1889" xlink:href="#s56:opensans-semibolditalic:72"/><use x="47180" y="1889" xlink:href="#s56:opensans-semibolditalic:3"/><use x="47712" y="1889" xlink:href="#s56:opensans-semibolditalic:73"/><use x="48414" y="1889" xlink:href="#s56:opensans-semibolditalic:68"/><use x="49600" y="1889" xlink:href="#s56:opensans-semibolditalic:80"/><use x="51419" y="1889" xlink:href="#s56:opensans-semibolditalic:76"/><use x="51982" y="1889" xlink:href="#s56:opensans-semibolditalic:79"/><use x="52545" y="1889" xlink:href="#s56:opensans-semibolditalic:92"/><use x="53467" y="1889" xlink:href="#s56:opensans-semibolditalic:17"/></g><g id="line-1"><use x="10906" y="4346.6" xlink:href="#s56:opensans-semibolditalic:55"/><use x="11959" y="4346.6" xlink:href="#s56:opensans-semibolditalic:75"/><use x="13167" y="4346.6" xlink:href="#s56:opensans-semibolditalic:72"/><use x="14242" y="4346.6" xlink:href="#s56:opensans-semibolditalic:76"/><use x="14805" y="4346.6" xlink:href="#s56:opensans-semibolditalic:85"/><use x="15641" y="4346.6" xlink:href="#s56:opensans-semibolditalic:3"/><use x="16173" y="4346.6" xlink:href="#s56:opensans-semibolditalic:86"/><use x="17095" y="4346.6" xlink:href="#s56:opensans-semibolditalic:72"/><use x="18170" y="4346.6" xlink:href="#s56:opensans-semibolditalic:83"/><use x="19370" y="4346.6" xlink:href="#s56:opensans-semibolditalic:68"/><use x="20556" y="4346.6" xlink:href="#s56:opensans-semibolditalic:85"/><use x="21351" y="4346.6" xlink:href="#s56:opensans-semibolditalic:68"/><use x="22537" y="4346.6" xlink:href="#s56:opensans-semibolditalic:87"/><use x="23289" y="4346.6" xlink:href="#s56:opensans-semibolditalic:72"/><use x="24364" y="4346.6" xlink:href="#s56:opensans-semibolditalic:3"/><use x="24896" y="4346.6" xlink:href="#s56:opensans-semibolditalic:72"/><use x="25930" y="4346.6" xlink:href="#s56:opensans-semibolditalic:91"/><use x="26962" y="4346.6" xlink:href="#s56:opensans-semibolditalic:76"/><use x="27525" y="4346.6" xlink:href="#s56:opensans-semibolditalic:86"/><use x="28447" y="4346.6" xlink:href="#s56:opensans-semibolditalic:87"/><use x="29199" y="4346.6" xlink:href="#s56:opensans-semibolditalic:72"/><use x="30274" y="4346.6" xlink:href="#s56:opensans-semibolditalic:81"/><use x="31482" y="4346.6" xlink:href="#s56:opensans-semibolditalic:70"/><use x="32436" y="4346.6" xlink:href="#s56:opensans-semibolditalic:72"/><use x="33511" y="4346.6" xlink:href="#s56:opensans-semibolditalic:3"/><use x="34043" y="4346.6" xlink:href="#s56:opensans-semibolditalic:76"/><use x="34606" y="4346.6" xlink:href="#s56:opensans-semibolditalic:86"/><use x="35528" y="4346.6" xlink:href="#s56:opensans-semibolditalic:3"/><use x="36060" y="4346.6" xlink:href="#s56:opensans-semibolditalic:68"/><use x="37246" y="4346.6" xlink:href="#s56:opensans-semibolditalic:3"/><use x="37778" y="4346.6" xlink:href="#s56:opensans-semibolditalic:80"/><use x="39597" y="4346.6" xlink:href="#s56:opensans-semibolditalic:92"/><use x="40601" y="4346.6" xlink:href="#s56:opensans-semibolditalic:87"/><use x="41353" y="4346.6" xlink:href="#s56:opensans-semibolditalic:75"/><use x="42561" y="4346.6" xlink:href="#s56:opensans-semibolditalic:17"/></g><g id="line-2"><use x="13411.5" y="6804.2" xlink:href="#s56:opensans-semibolditalic:41"/><use x="14437.5" y="6804.2" xlink:href="#s56:opensans-semibolditalic:82"/><use x="15611.5" y="6804.2" xlink:href="#s56:opensans-semibolditalic:85"/><use x="16447.5" y="6804.2" xlink:href="#s56:opensans-semibolditalic:3"/><use x="16979.5" y="6804.2" xlink:href="#s56:opensans-semibolditalic:86"/><use x="17901.5" y="6804.2" xlink:href="#s56:opensans-semibolditalic:70"/><use x="18855.5" y="6804.2" xlink:href="#s56:opensans-semibolditalic:76"/><use x="19418.5" y="6804.2" xlink:href="#s56:opensans-semibolditalic:72"/><use x="20493.5" y="6804.2" xlink:href="#s56:opensans-semibolditalic:81"/><use x="21701.5" y="6804.2" xlink:href="#s56:opensans-semibolditalic:70"/><use x="22655.5" y="6804.2" xlink:href="#s56:opensans-semibolditalic:72"/><use x="23730.5" y="6804.2" xlink:href="#s56:opensans-semibolditalic:15"/><use x="24260.5" y="6804.2" xlink:href="#s56:opensans-semibolditalic:3"/><use x="24792.5" y="6804.2" xlink:href="#s56:opensans-semibolditalic:80"/><use x="26611.5" y="6804.2" xlink:href="#s56:opensans-semibolditalic:88"/><use x="27819.5" y="6804.2" xlink:href="#s56:opensans-semibolditalic:86"/><use x="28741.5" y="6804.2" xlink:href="#s56:opensans-semibolditalic:76"/><use x="29304.5" y="6804.2" xlink:href="#s56:opensans-semibolditalic:70"/><use x="30258.5" y="6804.2" xlink:href="#s56:opensans-semibolditalic:15"/><use x="30788.5" y="6804.2" xlink:href="#s56:opensans-semibolditalic:3"/><use x="31320.5" y="6804.2" xlink:href="#s56:opensans-semibolditalic:86"/><use x="32242.5" y="6804.2" xlink:href="#s56:opensans-semibolditalic:83"/><use x="33442.5" y="6804.2" xlink:href="#s56:opensans-semibolditalic:82"/><use x="34616.5" y="6804.2" xlink:href="#s56:opensans-semibolditalic:85"/><use x="35452.5" y="6804.2" xlink:href="#s56:opensans-semibolditalic:87"/><use x="36204.5" y="6804.2" xlink:href="#s56:opensans-semibolditalic:15"/><use x="36734.5" y="6804.2" xlink:href="#s56:opensans-semibolditalic:3"/><use x="37266.5" y="6804.2" xlink:href="#s56:opensans-semibolditalic:72"/><use x="38341.5" y="6804.2" xlink:href="#s56:opensans-semibolditalic:87"/><use x="39093.5" y="6804.2" xlink:href="#s56:opensans-semibolditalic:70"/><use x="40047.5" y="6804.2" xlink:href="#s56:opensans-semibolditalic:15"/></g></svg>