<svg xmlns="http://www.w3.org/2000/svg" xmlns:xlink="http://www.w3.org/1999/xlink" width="714" height="87" viewBox="0 0 60896 7404.2"><defs><path id="s49:opensans-extrabold:55" d="M803 0L408 0L408-1139L51-1139L51-1462L1159-1462L1159-1139L803-1139L803 0Z"/><path id="s49:opensans-extrabold:75" d="M848 0L848-618Q848-846 713-846Q617-846 571.50-765.50Q526-685 526-498L526 0L135 0L135-1556L526-1556L526-1335Q526-1185 510-993L528-993Q584-1081 661-1117Q738-1153 840-1153Q1030-1153 1135.50-1043.50Q1241-934 1241-737L1241 0L848 0Z"/><path id="s49:opensans-extrabold:72" d="M682 20Q399 20 242.50-130.50Q86-281 86-559Q86-846 231-999.50Q376-1153 645-1153Q901-1153 1040.50-1019.50Q1180-886 1180-635L1180-461L481-461Q485-366 550.50-312Q616-258 729-258Q832-258 918.50-277.50Q1005-297 1106-344L1106-63Q1014-16 916 2Q818 20 682 20M659-887Q590-887 543.50-843.50Q497-800 489-707L825-707Q823-789 778.50-838Q734-887 659-887Z"/><path id="s49:opensans-extrabold:3" d=""/><path id="s49:opensans-extrabold:40" d="M1026 0L158 0L158-1462L1026-1462L1026-1145L553-1145L553-915L991-915L991-598L553-598L553-322L1026-322L1026 0Z"/><path id="s49:opensans-extrabold:88" d="M942 0L893-141L870-141Q821-63 733.50-21.50Q646 20 528 20Q341 20 237-88.50Q133-197 133-395L133-1133L524-1133L524-514Q524-403 555.50-346Q587-289 659-289Q760-289 803-368.50Q846-448 846-637L846-1133L1237-1133L1237 0L942 0Z"/><path id="s49:opensans-extrabold:85" d="M819-1153Q870-1153 916-1145L938-1141L903-772Q855-784 770-784Q642-784 584-725.50Q526-667 526-557L526 0L135 0L135-1133L426-1133L487-952L506-952Q555-1042 642.50-1097.50Q730-1153 819-1153Z"/><path id="s49:opensans-extrabold:82" d="M1217-569Q1217-291 1067.50-135.50Q918 20 649 20Q391 20 238.50-139Q86-298 86-569Q86-846 235.50-999.50Q385-1153 655-1153Q822-1153 950-1082Q1078-1011 1147.50-878.50Q1217-746 1217-569M483-569Q483-423 522-346.50Q561-270 653-270Q744-270 781.50-346.50Q819-423 819-569Q819-714 781-788Q743-862 651-862Q561-862 522-788.50Q483-715 483-569Z"/><path id="s49:opensans-extrabold:83" d="M815 20Q729 20 661-8.50Q593-37 526-111L508-111Q526 8 526 37L526 492L135 492L135-1133L453-1133L508-989L526-989Q635-1153 827-1153Q1015-1153 1122-997Q1229-841 1229-569Q1229-295 1117.50-137.50Q1006 20 815 20M684-846Q598-846 563.50-784.50Q529-723 526-602L526-571Q526-425 565-360Q604-295 688-295Q763-295 797-359.50Q831-424 831-573Q831-719 797-782.50Q763-846 684-846Z"/><path id="s49:opensans-extrabold:68" d="M874 0L799-150L791-150Q712-52 630-16Q548 20 418 20Q258 20 166-76Q74-172 74-346Q74-527 200-615.50Q326-704 565-715L754-721L754-737Q754-877 616-877Q492-877 301-793L188-1051Q386-1153 688-1153Q906-1153 1025.50-1045Q1145-937 1145-743L1145 0L874 0M584-256Q655-256 705.50-301Q756-346 756-418L756-506L666-502Q473-495 473-360Q473-256 584-256Z"/><path id="s49:opensans-extrabold:81" d="M850 0L850-618Q850-731 817.50-788.50Q785-846 713-846Q614-846 570-767Q526-688 526-496L526 0L135 0L135-1133L430-1133L479-993L502-993Q552-1073 640.50-1113Q729-1153 844-1153Q1032-1153 1136.50-1044Q1241-935 1241-737L1241 0L850 0Z"/><path id="s49:opensans-extrabold:79" d="M526 0L135 0L135-1556L526-1556L526 0Z"/><path id="s49:opensans-extrabold:74" d="M1204-1133L1204-944L1049-887Q1081-829 1081-752Q1081-569 952.50-468Q824-367 569-367Q506-367 469-375Q455-349 455-326Q455-297 502-281.50Q549-266 625-266L813-266Q1194-266 1194 55Q1194 262 1017.50 377Q841 492 522 492Q281 492 150.50 411.50Q20 331 20 180Q20-23 272-82Q220-104 181.50-153Q143-202 143-250Q143-303 172-343.50Q201-384 293-440Q205-479 154.50-562Q104-645 104-764Q104-949 230-1051Q356-1153 590-1153Q621-1153 697-1146Q773-1139 809-1133L1204-1133M350 141Q350 189 402 218.50Q454 248 541 248Q683 248 768.50 212.50Q854 177 854 121Q854 76 802 57.50Q750 39 653 39L500 39Q437 39 393.50 68.50Q350 98 350 141M473-762Q473-588 594-588Q650-588 680.50-631Q711-674 711-760Q711-936 594-936Q473-936 473-762Z"/><path id="s49:opensans-extrabold:86" d="M1010-348Q1010-166 886-73Q762 20 530 20Q404 20 311 6.50Q218-7 121-43L121-356Q212-316 320.50-290Q429-264 514-264Q641-264 641-322Q641-352 605.50-375.50Q570-399 399-467Q243-531 181-612.50Q119-694 119-819Q119-977 241-1065Q363-1153 586-1153Q698-1153 796.50-1128.50Q895-1104 1001-1057L895-805Q817-840 730-864.50Q643-889 588-889Q492-889 492-842Q492-813 525.50-792.50Q559-772 719-709Q838-660 896.50-613Q955-566 982.50-502.50Q1010-439 1010-348Z"/><path id="s49:opensans-extrabold:80" d="M1526 0L1526-616Q1526-731 1494.50-788.50Q1463-846 1395-846Q1305-846 1263-769Q1221-692 1221-528L1221 0L829 0L829-616Q829-731 799-788.50Q769-846 702-846Q610-846 568-764Q526-682 526-496L526 0L135 0L135-1133L430-1133L479-993L502-993Q547-1071 632.50-1112Q718-1153 827-1153Q1072-1153 1171-1004L1202-1004Q1250-1074 1335.50-1113.50Q1421-1153 1524-1153Q1725-1153 1821-1050Q1917-947 1917-737L1917 0L1526 0Z"/><path id="s49:opensans-extrabold:69" d="M827-1153Q1012-1153 1120.50-998Q1229-843 1229-569Q1229-293 1119.50-136.50Q1010 20 815 20Q752 20 703 6.50Q654-7 615.50-31Q577-55 526-111L502-111L440 0L135 0L135-1556L526-1556L526-1204Q526-1141 512-987L526-987Q583-1075 657.50-1114Q732-1153 827-1153M684-846Q602-846 564-789Q526-732 526-610L526-555Q526-416 564-355.50Q602-295 688-295Q757-295 794-365.50Q831-436 831-573Q831-846 684-846Z"/><path id="s49:opensans-extrabold:73" d="M827-840L586-840L586 0L195 0L195-840L45-840L45-1032L203-1128L203-1147Q203-1371 294.50-1469Q386-1567 588-1567Q666-1567 735.50-1555Q805-1543 897-1513L813-1260Q741-1280 672-1280Q627-1280 606.50-1252.50Q586-1225 586-1163L586-1133L827-1133L827-840Z"/><path id="s49:opensans-extrabold:87" d="M690-289Q769-289 879-328L879-43Q800-9 728.50 5.50Q657 20 561 20Q364 20 277-76.50Q190-173 190-373L190-840L53-840L53-999L227-1122L328-1360L584-1360L584-1133L862-1133L862-840L584-840L584-399Q584-289 690-289Z"/><path id="s49:opensans-extrabold:76" d="M528 0L137 0L137-1133L528-1133L528 0M127-1415Q127-1503 176-1546Q225-1589 334-1589Q443-1589 493-1545Q543-1501 543-1415Q543-1243 334-1243Q127-1243 127-1415Z"/><path id="s49:opensans-extrabold:92" d="M-2-1133L410-1133L602-483Q616-432 621-360L629-360Q637-429 653-481L850-1133L1249-1133L801 72Q715 302 589.50 397Q464 492 262 492Q184 492 102 475L102 168Q155 180 223 180Q275 180 314 160Q353 140 382 103.50Q411 67 444-16L-2-1133Z"/><path id="s49:opensans-extrabold:17" d="M86-166Q86-258 140.50-308Q195-358 299-358Q398-358 451-308Q504-258 504-166Q504-76 449.50-25.50Q395 25 299 25Q200 25 143-25Q86-75 86-166Z"/><path id="s49:opensans-extrabold:91" d="M375-578L29-1133L473-1133L645-815L821-1133L1266-1133L911-578L1280 0L836 0L645-344L455 0L10 0L375-578Z"/><path id="s49:opensans-extrabold:70" d="M651 20Q373 20 229.50-130Q86-280 86-561Q86-843 241-998Q396-1153 682-1153Q879-1153 1053-1067L938-778Q867-809 807-827.50Q747-846 682-846Q587-846 535-772Q483-698 483-563Q483-291 684-291Q856-291 1014-391L1014-80Q863 20 651 20Z"/><path id="s49:opensans-extrabold:41" d="M547 0L158 0L158-1462L1022-1462L1022-1145L547-1145L547-866L985-866L985-549L547-549L547 0Z"/><path id="s49:opensans-extrabold:15" d="M498-299L512-276Q415 105 336 285L57 285Q86 147 115.50-24.50Q145-196 156-299L498-299Z"/></defs><g id="line-0"><use x="0" y="1889" xlink:href="#s49:opensans-extrabold:55"/><use x="1210" y="1889" xlink:href="#s49:opensans-extrabold:75"/><use x="2582" y="1889" xlink:href="#s49:opensans-extrabold:72"/><use x="3848" y="1889" xlink:href="#s49:opensans-extrabold:3"/><use x="4380" y="1889" xlink:href="#s49:opensans-extrabold:40"/><use x="5504" y="1889" xlink:href="#s49:opensans-extrabold:88"/><use x="6876" y="1889" xlink:href="#s49:opensans-extrabold:85"/><use x="7796" y="1889" xlink:href="#s49:opensans-extrabold:82"/><use x="9101" y="1889" xlink:href="#s49:opensans-extrabold:83"/><use x="10418" y="1889" xlink:href="#s49:opensans-extrabold:72"/><use x="11684" y="1889" xlink:href="#s49:opensans-extrabold:68"/><use x="12960" y="1889" xlink:href="#s49:opensans-extrabold:81"/><use x="14332" y="1889" xlink:href="#s49:opensans-extrabold:3"/><use x="14864" y="1889" xlink:href="#s49:opensans-extrabold:79"/><use x="15526" y="1889" xlink:href="#s49:opensans-extrabold:68"/><use x="16802" y="1889" xlink:href="#s49:opensans-extrabold:81"/><use x="18174" y="1889" xlink:href="#s49:opensans-extrabold:74"/><use x="19415" y="1889" xlink:href="#s49:opensans-extrabold:88"/><use x="20787" y="1889" xlink:href="#s49:opensans-extrabold:68"/><use x="22063" y="1889" xlink:href="#s49:opensans-extrabold:74"/><use x="23304" y="1889" xlink:href="#s49:opensans-extrabold:72"/><use x="24570" y="1889" xlink:href="#s49:opensans-extrabold:86"/><use x="25662" y="1889" xlink:href="#s49:opensans-extrabold:3"/><use x="26194" y="1889" xlink:href="#s49:opensans-extrabold:68"/><use x="27470" y="1889" xlink:href="#s49:opensans-extrabold:85"/><use x="28390" y="1889" xlink:href="#s49:opensans-extrabold:72"/><use x="29656" y="1889" xlink:href="#s49:opensans-extrabold:3"/><use x="30188" y="1889" xlink:href="#s49:opensans-extrabold:80"/><use x="32236" y="1889" xlink:href="#s49:opensans-extrabold:72"/><use x="33502" y="1889" xlink:href="#s49:opensans-extrabold:80"/><use x="35550" y="1889" xlink:href="#s49:opensans-extrabold:69"/><use x="36867" y="1889" xlink:href="#s49:opensans-extrabold:72"/><use x="38133" y="1889" xlink:href="#s49:opensans-extrabold:85"/><use x="39094" y="1889" xlink:href="#s49:opensans-extrabold:86"/><use x="40186" y="1889" xlink:href="#s49:opensans-extrabold:3"/><use x="40718" y="1889" xlink:href="#s49:opensans-extrabold:82"/><use x="42023" y="1889" xlink:href="#s49:opensans-extrabold:73"/><use x="42869" y="1889" xlink:href="#s49:opensans-extrabold:3"/><use x="43401" y="1889" xlink:href="#s49:opensans-extrabold:87"/><use x="44343" y="1889" xlink:href="#s49:opensans-extrabold:75"/><use x="45715" y="1889" xlink:href="#s49:opensans-extrabold:72"/><use x="46981" y="1889" xlink:href="#s49:opensans-extrabold:3"/><use x="47513" y="1889" xlink:href="#s49:opensans-extrabold:86"/><use x="48605" y="1889" xlink:href="#s49:opensans-extrabold:68"/><use x="49881" y="1889" xlink:href="#s49:opensans-extrabold:80"/><use x="51929" y="1889" xlink:href="#s49:opensans-extrabold:72"/><use x="53195" y="1889" xlink:href="#s49:opensans-extrabold:3"/><use x="53727" y="1889" xlink:href="#s49:opensans-extrabold:73"/><use x="54573" y="1889" xlink:href="#s49:opensans-extrabold:68"/><use x="55849" y="1889" xlink:href="#s49:opensans-extrabold:80"/><use x="57897" y="1889" xlink:href="#s49:opensans-extrabold:76"/><use x="58563" y="1889" xlink:href="#s49:opensans-extrabold:79"/><use x="59225" y="1889" xlink:href="#s49:opensans-extrabold:92"/><use x="60392" y="1889" xlink:href="#s49:opensans-extrabold:17"/></g><g id="line-1"><use x="12017" y="4346.6" xlink:href="#s49:opensans-extrabold:55"/><use x="13227" y="4346.6" xlink:href="#s49:opensans-extrabold:75"/><use x="14599" y="4346.6" xlink:href="#s49:opensans-extrabold:72"/><use x="15865" y="4346.6" xlink:href="#s49:opensans-extrabold:76"/><use x="16531" y="4346.6" xlink:href="#s49:opensans-extrabold:85"/><use x="17492" y="4346.6" xlink:href="#s49:opensans-extrabold:3"/><use x="18024" y="4346.6" xlink:href="#s49:opensans-extrabold:86"/><use x="19116" y="4346.6" xlink:href="#s49:opensans-extrabold:72"/><use x="20382" y="4346.6" xlink:href="#s49:opensans-extrabold:83"/><use x="21699" y="4346.6" xlink:href="#s49:opensans-extrabold:68"/><use x="22975" y="4346.6" xlink:href="#s49:opensans-extrabold:85"/><use x="23895" y="4346.6" xlink:href="#s49:opensans-extrabold:68"/><use x="25171" y="4346.6" xlink:href="#s49:opensans-extrabold:87"/><use x="26113" y="4346.6" xlink:href="#s49:opensans-extrabold:72"/><use x="27379" y="4346.6" xlink:href="#s49:opensans-extrabold:3"/><use x="27911" y="4346.6" xlink:href="#s49:opensans-extrabold:72"/><use x="29136" y="4346.6" xlink:href="#s49:opensans-extrabold:91"/><use x="30426" y="4346.6" xlink:href="#s49:opensans-extrabold:76"/><use x="31092" y="4346.6" xlink:href="#s49:opensans-extrabold:86"/><use x="32184" y="4346.6" xlink:href="#s49:opensans-extrabold:87"/><use x="33126" y="4346.6" xlink:href="#s49:opensans-extrabold:72"/><use x="34392" y="4346.6" xlink:href="#s49:opensans-extrabold:81"/><use x="35764" y="4346.6" xlink:href="#s49:opensans-extrabold:70"/><use x="36868" y="4346.6" xlink:href="#s49:opensans-extrabold:72"/><use x="38134" y="4346.6" xlink:href="#s49:opensans-extrabold:3"/><use x="38666" y="4346.6" xlink:href="#s49:opensans-extrabold:76"/><use x="39332" y="4346.6" xlink:href="#s49:opensans-extrabold:86"/><use x="40424" y="4346.6" xlink:href="#s49:opensans-extrabold:3"/><use x="40956" y="4346.6" xlink:href="#s49:opensans-extrabold:68"/><use x="42232" y="4346.6" xlink:href="#s49:opensans-extrabold:3"/><use x="42764" y="4346.6" xlink:href="#s49:opensans-extrabold:80"/><use x="44812" y="4346.6" xlink:href="#s49:opensans-extrabold:92"/><use x="46061" y="4346.6" xlink:href="#s49:opensans-extrabold:87"/><use x="47003" y="4346.6" xlink:href="#s49:opensans-extrabold:75"/><use x="48375" y="4346.6" xlink:href="#s49:opensans-extrabold:17"/></g><g id="line-2"><use x="14953" y="6804.2" xlink:href="#s49:opensans-extrabold:41"/><use x="16057" y="6804.2" xlink:href="#s49:opensans-extrabold:82"/><use x="17362" y="6804.2" xlink:href="#s49:opensans-extrabold:85"/><use x="18323" y="6804.2" xlink:href="#s49:opensans-extrabold:3"/><use x="18855" y="6804.2" xlink:href="#s49:opensans-extrabold:86"/><use x="19947" y="6804.2" xlink:href="#s49:opensans-extrabold:70"/><use x="21051" y="6804.2" xlink:href="#s49:opensans-extrabold:76"/><use x="21717" y="6804.2" xlink:href="#s49:opensans-extrabold:72"/><use x="22983" y="6804.2" xlink:href="#s49:opensans-extrabold:81"/><use x="24355" y="6804.2" xlink:href="#s49:opensans-extrabold:70"/><use x="25459" y="6804.2" xlink:href="#s49:opensans-extrabold:72"/><use x="26725" y="6804.2" xlink:href="#s49:opensans-extrabold:15"/><use x="27358" y="6804.2" xlink:href="#s49:opensans-extrabold:3"/><use x="27890" y="6804.2" xlink:href="#s49:opensans-extrabold:80"/><use x="29938" y="6804.2" xlink:href="#s49:opensans-extrabold:88"/><use x="31310" y="6804.2" xlink:href="#s49:opensans-extrabold:86"/><use x="32402" y="6804.2" xlink:href="#s49:opensans-extrabold:76"/><use x="33068" y="6804.2" xlink:href="#s49:opensans-extrabold:70"/><use x="34172" y="6804.2" xlink:href="#s49:opensans-extrabold:15"/><use x="34805" y="6804.2" xlink:href="#s49:opensans-extrabold:3"/><use x="35337" y="6804.2" xlink:href="#s49:opensans-extrabold:86"/><use x="36429" y="6804.2" xlink:href="#s49:opensans-extrabold:83"/><use x="37746" y="6804.2" xlink:href="#s49:opensans-extrabold:82"/><use x="39051" y="6804.2" xlink:href="#s49:opensans-extrabold:85"/><use x="40012" y="6804.2" xlink:href="#s49:opensans-extrabold:87"/><use x="40954" y="6804.2" xlink:href="#s49:opensans-extrabold:15"/><use x="41587" y="6804.2" xlink:href="#s49:opensans-extrabold:3"/><use x="42119" y="6804.2" xlink:href="#s49:opensans-extrabold:72"/><use x="43385" y="6804.2" xlink:href="#s49:opensans-extrabold:87"/><use x="44327" y="6804.2" xlink:href="#s49:opensans-extrabold:70"/><use x="45431" y="6804.2" xlink:href="#s49:opensans-extrabold:15"/></g></svg>