<svg xmlns="http://www.w3.org/2000/svg" xmlns:xlink="http://www.w3.org/1999/xlink" width="622" height="87" viewBox="0 0 53077 7404.2"><defs><path id="s52:opensans-light:55" d="M588 0L485 0L485-1366L10-1366L10-1462L1063-1462L1063-1366L588-1366L588 0Z"/><path id="s52:opensans-light:75" d="M940 0L940-705Q940-869 871-943.50Q802-1018 657-1018Q462-1018 371.50-919.50Q281-821 281-600L281 0L182 0L182-1556L281-1556L281-1061L276-922L283-922Q344-1020 437-1064Q530-1108 668-1108Q1038-1108 1038-711L1038 0L940 0Z"/><path id="s52:opensans-light:72" d="M621 20Q384 20 251.50-126Q119-272 119-535Q119-795 247-951.50Q375-1108 592-1108Q784-1108 895-974Q1006-840 1006-610L1006-530L223-530Q225-306 327.50-188Q430-70 621-70Q714-70 784.50-83Q855-96 963-139L963-49Q871-9 793 5.50Q715 20 621 20M592-1020Q435-1020 340-916.50Q245-813 229-618L901-618Q901-807 819-913.50Q737-1020 592-1020Z"/><path id="s52:opensans-light:3" d=""/><path id="s52:opensans-light:40" d="M1006 0L207 0L207-1462L1006-1462L1006-1368L309-1368L309-815L967-815L967-721L309-721L309-94L1006-94L1006 0Z"/><path id="s52:opensans-light:88" d="M268-1087L268-383Q268-219 337-144.50Q406-70 551-70Q745-70 836.50-168Q928-266 928-487L928-1087L1026-1087L1026 0L942 0L924-150L918-150Q812 20 541 20Q170 20 170-377L170-1087L268-1087Z"/><path id="s52:opensans-light:85" d="M610-1108Q679-1108 758-1094L739-999Q671-1016 598-1016Q459-1016 370-898Q281-780 281-600L281 0L182 0L182-1087L266-1087L276-891L283-891Q350-1011 426-1059.50Q502-1108 610-1108Z"/><path id="s52:opensans-light:82" d="M1081-545Q1081-279 952-129.50Q823 20 596 20Q453 20 344-49Q235-118 177-247Q119-376 119-545Q119-811 248-959.50Q377-1108 602-1108Q826-1108 953.50-957.50Q1081-807 1081-545M223-545Q223-321 321.50-195.50Q420-70 600-70Q780-70 878.50-195.50Q977-321 977-545Q977-770 877.50-894Q778-1018 598-1018Q418-1018 320.50-894.50Q223-771 223-545Z"/><path id="s52:opensans-light:83" d="M647 20Q396 20 281-168L274-168L277-84Q281-10 281 78L281 492L182 492L182-1087L266-1087L285-932L291-932Q403-1108 649-1108Q869-1108 984.50-963.50Q1100-819 1100-543Q1100-275 978.50-127.50Q857 20 647 20M645-68Q812-68 903.50-192Q995-316 995-539Q995-1018 649-1018Q459-1018 370-913.50Q281-809 281-573L281-541Q281-286 366.50-177Q452-68 645-68Z"/><path id="s52:opensans-light:68" d="M842 0L817-172L809-172Q727-67 640.50-23.50Q554 20 436 20Q276 20 187-62Q98-144 98-289Q98-448 230.50-536Q363-624 614-629L821-635L821-707Q821-862 758-941Q695-1020 555-1020Q404-1020 242-936L205-1022Q384-1106 559-1106Q738-1106 826.50-1013Q915-920 915-723L915 0L842 0M442-70Q616-70 716.50-169.50Q817-269 817-446L817-553L627-545Q398-534 300.50-473.50Q203-413 203-285Q203-183 265.50-126.50Q328-70 442-70Z"/><path id="s52:opensans-light:81" d="M940 0L940-705Q940-869 871-943.50Q802-1018 657-1018Q462-1018 371.50-919.50Q281-821 281-600L281 0L182 0L182-1087L266-1087L285-938L291-938Q397-1108 668-1108Q1038-1108 1038-711L1038 0L940 0Z"/><path id="s52:opensans-light:79" d="M281 0L182 0L182-1556L281-1556L281 0Z"/><path id="s52:opensans-light:74" d="M1030-1087L1030-1018L805-1004Q895-892 895-758Q895-601 790.50-503.50Q686-406 510-406Q436-406 406-412Q347-381 316-339Q285-297 285-250Q285-198 324.50-174Q364-150 457-150L647-150Q824-150 918-78.50Q1012-7 1012 133Q1012 305 872.50 398.50Q733 492 475 492Q270 492 157.50 413Q45 334 45 193Q45 81 114.50 7Q184-67 303-94Q254-115 224.50-153.50Q195-192 195-242Q195-351 334-434Q239-473 186-556.50Q133-640 133-748Q133-911 236.50-1009.50Q340-1108 516-1108Q623-1108 682-1087L1030-1087M150 184Q150 408 483 408Q911 408 911 135Q911 37 844-7Q777-51 627-51L449-51Q150-51 150 184M233-748Q233-622 309.50-552.50Q386-483 514-483Q650-483 722.50-552Q795-621 795-752Q795-891 720.50-960.50Q646-1030 512-1030Q382-1030 307.50-955.50Q233-881 233-748Z"/><path id="s52:opensans-light:86" d="M856-283Q856-137 745-58.50Q634 20 430 20Q212 20 84-47L84-154Q248-72 430-72Q591-72 674.50-125.50Q758-179 758-268Q758-350 691.50-406Q625-462 473-516Q310-575 244-617.50Q178-660 144.50-713.50Q111-767 111-844Q111-966 213.50-1037Q316-1108 500-1108Q676-1108 834-1042L797-952Q637-1018 500-1018Q367-1018 289-974Q211-930 211-852Q211-767 271.50-716Q332-665 508-602Q655-549 722-506.50Q789-464 822.50-410Q856-356 856-283Z"/><path id="s52:opensans-light:80" d="M1540 0L1540-713Q1540-872 1478-945Q1416-1018 1288-1018Q1121-1018 1041-926Q961-834 961-637L961 0L860 0L860-743Q860-1018 608-1018Q437-1018 359-918.50Q281-819 281-600L281 0L182 0L182-1087L264-1087L285-938L291-938Q336-1019 419-1063.50Q502-1108 602-1108Q859-1108 932-915L936-915Q989-1008 1078.50-1058Q1168-1108 1282-1108Q1460-1108 1549-1013Q1638-918 1638-711L1638 0L1540 0Z"/><path id="s52:opensans-light:69" d="M641-1108Q869-1108 984.50-964.50Q1100-821 1100-545Q1100-274 978.50-127Q857 20 637 20Q521 20 428-28Q335-76 281-164L272-164L244 0L182 0L182-1556L281-1556L281-1165Q281-1077 277-1003L274-918L281-918Q343-1016 430.50-1062Q518-1108 641-1108M639-1018Q447-1018 364-908Q281-798 281-545L281-528Q281-282 367.50-175Q454-68 637-68Q815-68 905-192.50Q995-317 995-547Q995-1018 639-1018Z"/><path id="s52:opensans-light:73" d="M586-1001L330-1001L330 0L231 0L231-1001L29-1001L29-1059L231-1096L231-1180Q231-1380 304.50-1473.50Q378-1567 545-1567Q635-1567 725-1540L702-1454Q622-1479 543-1479Q427-1479 378.50-1410.50Q330-1342 330-1188L330-1087L586-1087L586-1001Z"/><path id="s52:opensans-light:87" d="M469-68Q563-68 633-84L633-4Q561 20 467 20Q323 20 254.50-57Q186-134 186-299L186-1001L25-1001L25-1059L186-1104L236-1350L287-1350L287-1087L606-1087L606-1001L287-1001L287-313Q287-188 331-128Q375-68 469-68Z"/><path id="s52:opensans-light:76" d="M281 0L182 0L182-1087L281-1087L281 0M168-1389Q168-1485 231-1485Q262-1485 279.50-1460Q297-1435 297-1389Q297-1344 279.50-1318Q262-1292 231-1292Q168-1292 168-1389Z"/><path id="s52:opensans-light:92" d="M0-1087L102-1087L332-477Q437-196 465-98L471-98Q513-227 608-483L838-1087L940-1087L453 176Q394 330 354 384Q314 438 260.50 465Q207 492 131 492Q74 492 4 471L4 385Q62 401 129 401Q180 401 219 377Q258 353 289.50 302.50Q321 252 362.50 142.50Q404 33 416 0L0-1087Z"/><path id="s52:opensans-light:17" d="M162-78Q162-176 242-176Q324-176 324-78Q324 20 242 20Q162 20 162-78Z"/><path id="s52:opensans-light:91" d="M449-559L70-1087L184-1087L508-629L829-1087L938-1087L565-559L965 0L850 0L508-485L164 0L55 0L449-559Z"/><path id="s52:opensans-light:70" d="M616 20Q383 20 251-127Q119-274 119-537Q119-807 256-957.50Q393-1108 631-1108Q772-1108 901-1059L874-971Q733-1018 629-1018Q429-1018 326-894.50Q223-771 223-539Q223-319 326-194.50Q429-70 614-70Q762-70 889-123L889-31Q785 20 616 20Z"/><path id="s52:opensans-light:41" d="M309 0L207 0L207-1462L1008-1462L1008-1368L309-1368L309-748L969-748L969-653L309-653L309 0Z"/><path id="s52:opensans-light:15" d="M295-238L307-217Q232 48 133 264L68 264Q145-11 178-238L295-238Z"/></defs><g id="line-0"><use x="0" y="1889" xlink:href="#s52:opensans-light:55"/><use x="1073" y="1889" xlink:href="#s52:opensans-light:75"/><use x="2281" y="1889" xlink:href="#s52:opensans-light:72"/><use x="3405" y="1889" xlink:href="#s52:opensans-light:3"/><use x="3937" y="1889" xlink:href="#s52:opensans-light:40"/><use x="5067" y="1889" xlink:href="#s52:opensans-light:88"/><use x="6275" y="1889" xlink:href="#s52:opensans-light:85"/><use x="7031" y="1889" xlink:href="#s52:opensans-light:82"/><use x="8231" y="1889" xlink:href="#s52:opensans-light:83"/><use x="9450" y="1889" xlink:href="#s52:opensans-light:72"/><use x="10574" y="1889" xlink:href="#s52:opensans-light:68"/><use x="11659" y="1889" xlink:href="#s52:opensans-light:81"/><use x="12867" y="1889" xlink:href="#s52:opensans-light:3"/><use x="13399" y="1889" xlink:href="#s52:opensans-light:79"/><use x="13862" y="1889" xlink:href="#s52:opensans-light:68"/><use x="14947" y="1889" xlink:href="#s52:opensans-light:81"/><use x="16155" y="1889" xlink:href="#s52:opensans-light:74"/><use x="17226" y="1889" xlink:href="#s52:opensans-light:88"/><use x="18434" y="1889" xlink:href="#s52:opensans-light:68"/><use x="19519" y="1889" xlink:href="#s52:opensans-light:74"/><use x="20590" y="1889" xlink:href="#s52:opensans-light:72"/><use x="21714" y="1889" xlink:href="#s52:opensans-light:86"/><use x="22668" y="1889" xlink:href="#s52:opensans-light:3"/><use x="23200" y="1889" xlink:href="#s52:opensans-light:68"/><use x="24285" y="1889" xlink:href="#s52:opensans-light:85"/><use x="25041" y="1889" xlink:href="#s52:opensans-light:72"/><use x="26165" y="1889" xlink:href="#s52:opensans-light:3"/><use x="26697" y="1889" xlink:href="#s52:opensans-light:80"/><use x="28505" y="1889" xlink:href="#s52:opensans-light:72"/><use x="29629" y="1889" xlink:href="#s52:opensans-light:80"/><use x="31437" y="1889" xlink:href="#s52:opensans-light:69"/><use x="32656" y="1889" xlink:href="#s52:opensans-light:72"/><use x="33780" y="1889" xlink:href="#s52:opensans-light:85"/><use x="34577" y="1889" xlink:href="#s52:opensans-light:86"/><use x="35531" y="1889" xlink:href="#s52:opensans-light:3"/><use x="36063" y="1889" xlink:href="#s52:opensans-light:82"/><use x="37263" y="1889" xlink:href="#s52:opensans-light:73"/><use x="37877" y="1889" xlink:href="#s52:opensans-light:3"/><use x="38409" y="1889" xlink:href="#s52:opensans-light:87"/><use x="39095" y="1889" xlink:href="#s52:opensans-light:75"/><use x="40303" y="1889" xlink:href="#s52:opensans-light:72"/><use x="41427" y="1889" xlink:href="#s52:opensans-light:3"/><use x="41959" y="1889" xlink:href="#s52:opensans-light:86"/><use x="42913" y="1889" xlink:href="#s52:opensans-light:68"/><use x="43998" y="1889" xlink:href="#s52:opensans-light:80"/><use x="45806" y="1889" xlink:href="#s52:opensans-light:72"/><use x="46930" y="1889" xlink:href="#s52:opensans-light:3"/><use x="47462" y="1889" xlink:href="#s52:opensans-light:73"/><use x="48076" y="1889" xlink:href="#s52:opensans-light:68"/><use x="49161" y="1889" xlink:href="#s52:opensans-light:80"/><use x="50969" y="1889" xlink:href="#s52:opensans-light:76"/><use x="51432" y="1889" xlink:href="#s52:opensans-light:79"/><use x="51895" y="1889" xlink:href="#s52:opensans-light:92"/><use x="52753" y="1889" xlink:href="#s52:opensans-light:17"/></g><g id="line-1"><use x="10808" y="4346.6" xlink:href="#s52:opensans-light:55"/><use x="11881" y="4346.6" xlink:href="#s52:opensans-light:75"/><use x="13089" y="4346.6" xlink:href="#s52:opensans-light:72"/><use x="14213" y="4346.6" xlink:href="#s52:opensans-light:76"/><use x="14676" y="4346.6" xlink:href="#s52:opensans-light:85"/><use x="15473" y="4346.6" xlink:href="#s52:opensans-light:3"/><use x="16005" y="4346.6" xlink:href="#s52:opensans-light:86"/><use x="16959" y="4346.6" xlink:href="#s52:opensans-light:72"/><use x="18083" y="4346.6" xlink:href="#s52:opensans-light:83"/><use x="19302" y="4346.6" xlink:href="#s52:opensans-light:68"/><use x="20387" y="4346.6" xlink:href="#s52:opensans-light:85"/><use x="21143" y="4346.6" xlink:href="#s52:opensans-light:68"/><use x="22228" y="4346.6" xlink:href="#s52:opensans-light:87"/><use x="22914" y="4346.6" xlink:href="#s52:opensans-light:72"/><use x="24038" y="4346.6" xlink:href="#s52:opensans-light:3"/><use x="24570" y="4346.6" xlink:href="#s52:opensans-light:72"/><use x="25653" y="4346.6" xlink:href="#s52:opensans-light:91"/><use x="26673" y="4346.6" xlink:href="#s52:opensans-light:76"/><use x="27136" y="4346.6" xlink:href="#s52:opensans-light:86"/><use x="28090" y="4346.6" xlink:href="#s52:opensans-light:87"/><use x="28776" y="4346.6" xlink:href="#s52:opensans-light:72"/><use x="29900" y="4346.6" xlink:href="#s52:opensans-light:81"/><use x="31108" y="4346.6" xlink:href="#s52:opensans-light:70"/><use x="32081" y="4346.6" xlink:href="#s52:opensans-light:72"/><use x="33205" y="4346.6" xlink:href="#s52:opensans-light:3"/><use x="33737" y="4346.6" xlink:href="#s52:opensans-light:76"/><use x="34200" y="4346.6" xlink:href="#s52:opensans-light:86"/><use x="35154" y="4346.6" xlink:href="#s52:opensans-light:3"/><use x="35686" y="4346.6" xlink:href="#s52:opensans-light:68"/><use x="36771" y="4346.6" xlink:href="#s52:opensans-light:3"/><use x="37303" y="4346.6" xlink:href="#s52:opensans-light:80"/><use x="39111" y="4346.6" xlink:href="#s52:opensans-light:92"/><use x="40051" y="4346.6" xlink:href="#s52:opensans-light:87"/><use x="40737" y="4346.6" xlink:href="#s52:opensans-light:75"/><use x="41945" y="4346.6" xlink:href="#s52:opensans-light:17"/></g><g id="line-2"><use x="13216.5" y="6804.2" xlink:href="#s52:opensans-light:41"/><use x="14244.5" y="6804.2" xlink:href="#s52:opensans-light:82"/><use x="15444.5" y="6804.2" xlink:href="#s52:opensans-light:85"/><use x="16241.5" y="6804.2" xlink:href="#s52:opensans-light:3"/><use x="16773.5" y="6804.2" xlink:href="#s52:opensans-light:86"/><use x="17727.5" y="6804.2" xlink:href="#s52:opensans-light:70"/><use x="18700.5" y="6804.2" xlink:href="#s52:opensans-light:76"/><use x="19163.5" y="6804.2" xlink:href="#s52:opensans-light:72"/><use x="20287.5" y="6804.2" xlink:href="#s52:opensans-light:81"/><use x="21495.5" y="6804.2" xlink:href="#s52:opensans-light:70"/><use x="22468.5" y="6804.2" xlink:href="#s52:opensans-light:72"/><use x="23592.5" y="6804.2" xlink:href="#s52:opensans-light:15"/><use x="24032.5" y="6804.2" xlink:href="#s52:opensans-light:3"/><use x="24564.5" y="6804.2" xlink:href="#s52:opensans-light:80"/><use x="26372.5" y="6804.2" xlink:href="#s52:opensans-light:88"/><use x="27580.5" y="6804.2" xlink:href="#s52:opensans-light:86"/><use x="28534.5" y="6804.2" xlink:href="#s52:opensans-light:76"/><use x="28997.5" y="6804.2" xlink:href="#s52:opensans-light:70"/><use x="29970.5" y="6804.2" xlink:href="#s52:opensans-light:15"/><use x="30410.5" y="6804.2" xlink:href="#s52:opensans-light:3"/><use x="30942.5" y="6804.2" xlink:href="#s52:opensans-light:86"/><use x="31896.5" y="6804.2" xlink:href="#s52:opensans-light:83"/><use x="33115.5" y="6804.2" xlink:href="#s52:opensans-light:82"/><use x="34315.5" y="6804.2" xlink:href="#s52:opensans-light:85"/><use x="35112.5" y="6804.2" xlink:href="#s52:opensans-light:87"/><use x="35798.5" y="6804.2" xlink:href="#s52:opensans-light:15"/><use x="36238.5" y="6804.2" xlink:href="#s52:opensans-light:3"/><use x="36770.5" y="6804.2" xlink:href="#s52:opensans-light:72"/><use x="37894.5" y="6804.2" xlink:href="#s52:opensans-light:87"/><use x="38580.5" y="6804.2" xlink:href="#s52:opensans-light:70"/><use x="39553.5" y="6804.2" xlink:href="#s52:opensans-light:15"/></g></svg>