<svg xmlns="http://www.w3.org/2000/svg" xmlns:xlink="http://www.w3.org/1999/xlink" width="609" height="87" viewBox="0 0 51938 7404.2"><defs><path id="s51:opensans-italic:55" d="M487 0L315 0L592-1311L186-1311L219-1462L1204-1462L1174-1311L766-1311L487 0Z"/><path id="s51:opensans-italic:75" d="M729 0L877-692Q895-786 895-827Q895-975 748-975Q659-975 574.50-916Q490-857 425.50-744.50Q361-632 328-473L227 0L59 0L389-1556L557-1556Q539-1474 522.50-1397Q506-1320 488.50-1240.50Q471-1161 450.50-1074Q430-987 403-885L414-885Q508-1008 599.50-1061Q691-1114 791-1114Q922-1114 993.50-1042Q1065-970 1065-838Q1065-776 1042-672Q1003-479 897 0L729 0Z"/><path id="s51:opensans-italic:72" d="M492 20Q308 20 203-89Q98-198 98-391Q98-579 172.50-751.50Q247-924 370-1020Q493-1116 641-1116Q794-1116 871-1049.50Q948-983 948-864Q948-684 782-581.50Q616-479 307-479L274-479L270-399Q270-268 331.50-194.50Q393-121 522-121Q585-121 651.50-139Q718-157 817-205L817-59Q723-15 651 2.50Q579 20 492 20M631-973Q528-973 437.50-879Q347-785 299-618L311-618Q539-618 660.50-677.50Q782-737 782-850Q782-903 745.50-938Q709-973 631-973Z"/><path id="s51:opensans-italic:3" d=""/><path id="s51:opensans-italic:40" d="M821 0L86 0L395-1462L1130-1462L1098-1309L532-1309L434-840L961-840L932-688L403-688L289-152L854-152L821 0Z"/><path id="s51:opensans-italic:88" d="M451-1096L301-401Q283-312 283-262Q283-119 430-119Q518-119 603-179Q688-239 753-351Q818-463 852-621L952-1096L1118-1096L887 0L748 0L770-203L758-203Q660-78 571-29Q482 20 387 20Q259 20 186-49.50Q113-119 113-248Q113-310 135-420L281-1096L451-1096Z"/><path id="s51:opensans-italic:85" d="M752-1116Q821-1116 872-1102L836-952Q783-965 731-965Q640-965 560.50-905Q481-845 421.50-738.50Q362-632 334-502L227 0L59 0L293-1096L432-1096L410-893L420-893Q492-988 539-1029.50Q586-1071 637.50-1093.50Q689-1116 752-1116Z"/><path id="s51:opensans-italic:82" d="M643-1110Q833-1110 943-997.50Q1053-885 1053-688Q1053-500 981-333Q909-166 786-75Q663 16 508 16Q316 16 207-97Q98-210 98-406Q98-596 171-763.50Q244-931 368-1020.50Q492-1110 643-1110M879-711Q879-826 816.50-897.50Q754-969 647-969Q538-969 451.50-895Q365-821 317.50-689.50Q270-558 270-397Q270-266 333.50-194.50Q397-123 516-123Q620-123 703-196Q786-269 832.50-403.50Q879-538 879-711Z"/><path id="s51:opensans-italic:83" d="M545 20Q448 20 375-30Q302-80 262-170L252-170L248-132Q245-107 237.50-62Q230-17 123 492L-43 492L293-1096L432-1096L406-887L414-887Q593-1114 786-1114Q923-1114 1002-1016.50Q1081-919 1081-743Q1081-531 1012-354Q943-177 821-78.50Q699 20 545 20M731-975Q635-975 535.50-880Q436-785 377.50-641Q319-497 319-346Q319-236 374.50-177.50Q430-119 535-119Q634-119 719.50-200Q805-281 857-430.50Q909-580 909-748Q909-975 731-975Z"/><path id="s51:opensans-italic:68" d="M639-1116Q731-1116 803-1066.50Q875-1017 915-924L926-924L993-1096L1120-1096L887 0L754 0L780-209L772-209Q593 20 395 20Q256 20 177-79Q98-178 98-350Q98-558 169-736Q240-914 365-1015Q490-1116 639-1116M449-119Q546-119 642-211.50Q738-304 798-452.50Q858-601 858-750Q858-853 802-914Q746-975 655-975Q551-975 461.50-889Q372-803 321-656Q270-509 270-346Q270-232 317-175.50Q364-119 449-119Z"/><path id="s51:opensans-italic:81" d="M729 0L877-692Q897-796 897-836Q897-899 861.50-937Q826-975 748-975Q659-975 574.50-915Q490-855 425.50-744Q361-633 328-475L227 0L59 0L293-1096L432-1096L410-893L420-893Q516-1015 605.50-1065.50Q695-1116 791-1116Q918-1116 991.50-1046.50Q1065-977 1065-852Q1065-773 1042-672L899 0L729 0Z"/><path id="s51:opensans-italic:79" d="M225 0L57 0L389-1556L557-1556L225 0Z"/><path id="s51:opensans-italic:74" d="M1100-1096L1075-989L864-965Q905-903 905-807Q905-616 788.50-502.50Q672-389 477-389Q422-389 393-397Q254-344 254-266Q254-225 287-211.50Q320-198 383-190L500-176Q681-154 762.50-88Q844-22 844 106Q844 290 698 391Q552 492 287 492Q93 492-17 418.50Q-127 345-127 211Q-127 106-55 29Q17-48 178-102Q100-143 100-223Q100-292 151-341.50Q202-391 293-434Q230-466 190-528.50Q150-591 150-674Q150-868 269.50-992Q389-1116 575-1116Q653-1116 729-1096L1100-1096M35 195Q35 272 100 317Q165 362 293 362Q475 362 577.50 298.50Q680 235 680 119Q680 57 626 21Q572-15 442-29L283-45Q163-20 99 43Q35 106 35 195M313-680Q313-595 358-550.50Q403-506 483-506Q562-506 621-548Q680-590 711.50-663.50Q743-737 743-823Q743-905 699-948Q655-991 573-991Q495-991 436.50-950.50Q378-910 345.50-837.50Q313-765 313-680Z"/><path id="s51:opensans-italic:86" d="M735-311Q735-155 624.50-67.50Q514 20 313 20Q144 20 8-49L8-207Q78-165 159-142Q240-119 309-119Q435-119 499-169Q563-219 563-297Q563-354 528-393Q493-432 377-500Q247-573 193-643Q139-713 139-809Q139-947 240-1031.50Q341-1116 506-1116Q677-1116 836-1042L782-905L726-930Q625-973 506-973Q413-973 360-929.50Q307-886 307-817Q307-761 342.50-721Q378-681 489-618Q596-558 642.50-515Q689-472 712-422.50Q735-373 735-311Z"/><path id="s51:opensans-italic:80" d="M696 0L844-692Q862-786 862-827Q862-897 831-936Q800-975 725-975Q641-975 561.50-915Q482-855 421.50-743.50Q361-632 328-475L227 0L59 0L293-1096L432-1096L410-893L420-893Q507-1012 593.50-1064Q680-1116 772-1116Q885-1116 946-1051Q1007-986 1018-870L1026-870Q1112-995 1209-1055.50Q1306-1116 1405-1116Q1532-1116 1601.50-1048Q1671-980 1671-850Q1671-782 1649-672L1505 0L1335 0L1483-692Q1503-796 1503-838Q1503-900 1468.50-937.50Q1434-975 1360-975Q1279-975 1200-917Q1121-859 1061.50-752.50Q1002-646 971-500L864 0L696 0Z"/><path id="s51:opensans-italic:69" d="M545 20Q448 20 374.50-31Q301-82 264-170L254-170L184 0L59 0L389-1556L557-1556Q506-1314 478.50-1185.50Q451-1057 403-885L412-885Q505-1003 595.50-1058.50Q686-1114 782-1114Q923-1114 1002-1015Q1081-916 1081-743Q1081-534 1012.50-356.50Q944-179 821.50-79.50Q699 20 545 20M731-975Q635-975 535.50-880Q436-785 377.50-641Q319-497 319-346Q319-236 374.50-177.50Q430-119 535-119Q634-119 719.50-200Q805-281 857-430.50Q909-580 909-748Q909-975 731-975Z"/><path id="s51:opensans-italic:73" d="M-104 492Q-173 492-229 471L-229 330Q-165 352-117 352Q-41 352 0 290Q41 228 66 113L293-969L100-969L113-1036L319-1102L342-1202Q388-1402 469.50-1484.50Q551-1567 711-1567Q751-1567 809-1555.50Q867-1544 899-1530L856-1401Q780-1430 719-1430Q632-1430 585.50-1381.50Q539-1333 510-1204L485-1096L723-1096L698-969L461-969L229 129Q190 318 109 405Q28 492-104 492Z"/><path id="s51:opensans-italic:87" d="M395-117Q450-117 539-143L539-14Q505 0 455 10Q405 20 375 20Q250 20 183.50-39.50Q117-99 117-217Q117-283 135-367L262-969L90-969L104-1042L289-1120L414-1348L512-1348L457-1096L731-1096L705-969L432-969L303-365Q285-278 285-233Q285-177 314-147Q343-117 395-117Z"/><path id="s51:opensans-italic:76" d="M227 0L59 0L293-1096L461-1096L227 0M340-1376Q340-1432 372-1467.50Q404-1503 455-1503Q543-1503 543-1413Q543-1358 509.50-1320Q476-1282 432-1282Q392-1282 366-1306.50Q340-1331 340-1376Z"/><path id="s51:opensans-italic:92" d="M98-1096L266-1096L340-551Q350-482 359.50-347.50Q369-213 369-131L375-131Q410-218 462-331Q514-444 539-487L864-1096L1042-1096L346 186Q253 358 162 425Q71 492-57 492Q-129 492-197 471L-197 336Q-134 354-66 354Q16 354 74.50 303.50Q133 253 188 154L264 18L98-1096Z"/><path id="s51:opensans-italic:17" d="M43-74Q43-151 83.50-196.50Q124-242 195-242Q238-242 264.50-216Q291-190 291-137Q291-66 251-18.50Q211 29 143 29Q97 29 70 3Q43-23 43-74Z"/><path id="s51:opensans-italic:91" d="M467-434L121 0L-74 0L401-565L162-1096L332-1096L506-684L836-1096L1030-1096L575-557L827 0L659 0L467-434Z"/><path id="s51:opensans-italic:70" d="M506 20Q312 20 205-87Q98-194 98-389Q98-589 172-758Q246-927 376.50-1021.50Q507-1116 670-1116Q807-1116 938-1065L891-924Q771-975 672-975Q560-975 467.50-898.50Q375-822 322.50-685.50Q270-549 270-389Q270-261 336.50-190Q403-119 520-119Q592-119 656-139Q720-159 782-186L782-43Q658 20 506 20Z"/><path id="s51:opensans-italic:41" d="M258 0L86 0L395-1462L1130-1462L1100-1309L532-1309L422-776L950-776L918-623L389-623L258 0Z"/><path id="s51:opensans-italic:15" d="M291-238L299-215Q186 20 29 264L-100 264Q26-22 104-238L291-238Z"/></defs><g id="line-0"><use x="0" y="1889" xlink:href="#s51:opensans-italic:55"/><use x="1020" y="1889" xlink:href="#s51:opensans-italic:75"/><use x="2202" y="1889" xlink:href="#s51:opensans-italic:72"/><use x="3212" y="1889" xlink:href="#s51:opensans-italic:3"/><use x="3744" y="1889" xlink:href="#s51:opensans-italic:40"/><use x="4791" y="1889" xlink:href="#s51:opensans-italic:88"/><use x="5973" y="1889" xlink:href="#s51:opensans-italic:85"/><use x="6743" y="1889" xlink:href="#s51:opensans-italic:82"/><use x="7892" y="1889" xlink:href="#s51:opensans-italic:83"/><use x="9074" y="1889" xlink:href="#s51:opensans-italic:72"/><use x="10084" y="1889" xlink:href="#s51:opensans-italic:68"/><use x="11241" y="1889" xlink:href="#s51:opensans-italic:81"/><use x="12423" y="1889" xlink:href="#s51:opensans-italic:3"/><use x="12955" y="1889" xlink:href="#s51:opensans-italic:79"/><use x="13475" y="1889" xlink:href="#s51:opensans-italic:68"/><use x="14632" y="1889" xlink:href="#s51:opensans-italic:81"/><use x="15814" y="1889" xlink:href="#s51:opensans-italic:74"/><use x="16840" y="1889" xlink:href="#s51:opensans-italic:88"/><use x="18022" y="1889" xlink:href="#s51:opensans-italic:68"/><use x="19179" y="1889" xlink:href="#s51:opensans-italic:74"/><use x="20205" y="1889" xlink:href="#s51:opensans-italic:72"/><use x="21215" y="1889" xlink:href="#s51:opensans-italic:86"/><use x="22092" y="1889" xlink:href="#s51:opensans-italic:3"/><use x="22624" y="1889" xlink:href="#s51:opensans-italic:68"/><use x="23781" y="1889" xlink:href="#s51:opensans-italic:85"/><use x="24551" y="1889" xlink:href="#s51:opensans-italic:72"/><use x="25561" y="1889" xlink:href="#s51:opensans-italic:3"/><use x="26093" y="1889" xlink:href="#s51:opensans-italic:80"/><use x="27879" y="1889" xlink:href="#s51:opensans-italic:72"/><use x="28889" y="1889" xlink:href="#s51:opensans-italic:80"/><use x="30675" y="1889" xlink:href="#s51:opensans-italic:69"/><use x="31857" y="1889" xlink:href="#s51:opensans-italic:72"/><use x="32867" y="1889" xlink:href="#s51:opensans-italic:85"/><use x="33678" y="1889" xlink:href="#s51:opensans-italic:86"/><use x="34555" y="1889" xlink:href="#s51:opensans-italic:3"/><use x="35087" y="1889" xlink:href="#s51:opensans-italic:82"/><use x="36236" y="1889" xlink:href="#s51:opensans-italic:73"/><use x="36877" y="1889" xlink:href="#s51:opensans-italic:3"/><use x="37409" y="1889" xlink:href="#s51:opensans-italic:87"/><use x="38073" y="1889" xlink:href="#s51:opensans-italic:75"/><use x="39255" y="1889" xlink:href="#s51:opensans-italic:72"/><use x="40265" y="1889" xlink:href="#s51:opensans-italic:3"/><use x="40797" y="1889" xlink:href="#s51:opensans-italic:86"/><use x="41674" y="1889" xlink:href="#s51:opensans-italic:68"/><use x="42831" y="1889" xlink:href="#s51:opensans-italic:80"/><use x="44617" y="1889" xlink:href="#s51:opensans-italic:72"/><use x="45627" y="1889" xlink:href="#s51:opensans-italic:3"/><use x="46159" y="1889" xlink:href="#s51:opensans-italic:73"/><use x="46800" y="1889" xlink:href="#s51:opensans-italic:68"/><use x="47957" y="1889" xlink:href="#s51:opensans-italic:80"/><use x="49743" y="1889" xlink:href="#s51:opensans-italic:76"/><use x="50263" y="1889" xlink:href="#s51:opensans-italic:79"/><use x="50783" y="1889" xlink:href="#s51:opensans-italic:92"/><use x="51647" y="1889" xlink:href="#s51:opensans-italic:17"/></g><g id="line-1"><use x="10676" y="4346.6" xlink:href="#s51:opensans-italic:55"/><use x="11696" y="4346.6" xlink:href="#s51:opensans-italic:75"/><use x="12878" y="4346.6" xlink:href="#s51:opensans-italic:72"/><use x="13888" y="4346.6" xlink:href="#s51:opensans-italic:76"/><use x="14408" y="4346.6" xlink:href="#s51:opensans-italic:85"/><use x="15219" y="4346.6" xlink:href="#s51:opensans-italic:3"/><use x="15751" y="4346.6" xlink:href="#s51:opensans-italic:86"/><use x="16628" y="4346.6" xlink:href="#s51:opensans-italic:72"/><use x="17638" y="4346.6" xlink:href="#s51:opensans-italic:83"/><use x="18820" y="4346.6" xlink:href="#s51:opensans-italic:68"/><use x="19977" y="4346.6" xlink:href="#s51:opensans-italic:85"/><use x="20747" y="4346.6" xlink:href="#s51:opensans-italic:68"/><use x="21904" y="4346.6" xlink:href="#s51:opensans-italic:87"/><use x="22568" y="4346.6" xlink:href="#s51:opensans-italic:72"/><use x="23578" y="4346.6" xlink:href="#s51:opensans-italic:3"/><use x="24110" y="4346.6" xlink:href="#s51:opensans-italic:72"/><use x="25079" y="4346.6" xlink:href="#s51:opensans-italic:91"/><use x="26058" y="4346.6" xlink:href="#s51:opensans-italic:76"/><use x="26578" y="4346.6" xlink:href="#s51:opensans-italic:86"/><use x="27455" y="4346.6" xlink:href="#s51:opensans-italic:87"/><use x="28119" y="4346.6" xlink:href="#s51:opensans-italic:72"/><use x="29129" y="4346.6" xlink:href="#s51:opensans-italic:81"/><use x="30311" y="4346.6" xlink:href="#s51:opensans-italic:70"/><use x="31233" y="4346.6" xlink:href="#s51:opensans-italic:72"/><use x="32243" y="4346.6" xlink:href="#s51:opensans-italic:3"/><use x="32775" y="4346.6" xlink:href="#s51:opensans-italic:76"/><use x="33295" y="4346.6" xlink:href="#s51:opensans-italic:86"/><use x="34172" y="4346.6" xlink:href="#s51:opensans-italic:3"/><use x="34704" y="4346.6" xlink:href="#s51:opensans-italic:68"/><use x="35861" y="4346.6" xlink:href="#s51:opensans-italic:3"/><use x="36393" y="4346.6" xlink:href="#s51:opensans-italic:80"/><use x="38179" y="4346.6" xlink:href="#s51:opensans-italic:92"/><use x="39125" y="4346.6" xlink:href="#s51:opensans-italic:87"/><use x="39789" y="4346.6" xlink:href="#s51:opensans-italic:75"/><use x="40971" y="4346.6" xlink:href="#s51:opensans-italic:17"/></g><g id="line-2"><use x="13049.5" y="6804.2" xlink:href="#s51:opensans-italic:41"/><use x="14016.5" y="6804.2" xlink:href="#s51:opensans-italic:82"/><use x="15165.5" y="6804.2" xlink:href="#s51:opensans-italic:85"/><use x="15976.5" y="6804.2" xlink:href="#s51:opensans-italic:3"/><use x="16508.5" y="6804.2" xlink:href="#s51:opensans-italic:86"/><use x="17385.5" y="6804.2" xlink:href="#s51:opensans-italic:70"/><use x="18307.5" y="6804.2" xlink:href="#s51:opensans-italic:76"/><use x="18827.5" y="6804.2" xlink:href="#s51:opensans-italic:72"/><use x="19837.5" y="6804.2" xlink:href="#s51:opensans-italic:81"/><use x="21019.5" y="6804.2" xlink:href="#s51:opensans-italic:70"/><use x="21941.5" y="6804.2" xlink:href="#s51:opensans-italic:72"/><use x="22951.5" y="6804.2" xlink:href="#s51:opensans-italic:15"/><use x="23443.5" y="6804.2" xlink:href="#s51:opensans-italic:3"/><use x="23975.5" y="6804.2" xlink:href="#s51:opensans-italic:80"/><use x="25761.5" y="6804.2" xlink:href="#s51:opensans-italic:88"/><use x="26943.5" y="6804.2" xlink:href="#s51:opensans-italic:86"/><use x="27820.5" y="6804.2" xlink:href="#s51:opensans-italic:76"/><use x="28340.5" y="6804.2" xlink:href="#s51:opensans-italic:70"/><use x="29262.5" y="6804.2" xlink:href="#s51:opensans-italic:15"/><use x="29754.5" y="6804.2" xlink:href="#s51:opensans-italic:3"/><use x="30286.5" y="6804.2" xlink:href="#s51:opensans-italic:86"/><use x="31163.5" y="6804.2" xlink:href="#s51:opensans-italic:83"/><use x="32345.5" y="6804.2" xlink:href="#s51:opensans-italic:82"/><use x="33494.5" y="6804.2" xlink:href="#s51:opensans-italic:85"/><use x="34305.5" y="6804.2" xlink:href="#s51:opensans-italic:87"/><use x="34969.5" y="6804.2" xlink:href="#s51:opensans-italic:15"/><use x="35461.5" y="6804.2" xlink:href="#s51:opensans-italic:3"/><use x="35993.5" y="6804.2" xlink:href="#s51:opensans-italic:72"/><use x="37003.5" y="6804.2" xlink:href="#s51:opensans-italic:87"/><use x="37667.5" y="6804.2" xlink:href="#s51:opensans-italic:70"/><use x="38589.5" y="6804.2" xlink:href="#s51:opensans-italic:15"/></g></svg>