<svg xmlns="http://www.w3.org/2000/svg" xmlns:xlink="http://www.w3.org/1999/xlink" width="585" height="87" viewBox="0 0 49952 7404.2"><defs><path id="s53:opensans-lightitalic:55" d="M438 0L336 0L625-1368L193-1368L213-1462L1186-1462L1167-1368L727-1368L438 0Z"/><path id="s53:opensans-lightitalic:75" d="M764 0L913-692Q934-784 934-848Q934-928 890.50-973Q847-1018 756-1018Q644-1018 545.50-951Q447-884 379.50-763Q312-642 276-477L174 0L76 0L408-1556L504-1556L418-1145Q374-945 352-866L358-866Q436-979 544.50-1041.50Q653-1104 774-1104Q898-1104 966-1039Q1034-974 1034-856Q1034-786 1010-674L862 0L764 0Z"/><path id="s53:opensans-lightitalic:72" d="M469 20Q296 20 199-89.50Q102-199 102-395Q102-576 173-742Q244-908 368.50-1006Q493-1104 643-1104Q757-1104 825-1043Q893-982 893-877Q893-696 729.50-601Q566-506 244-506L211-506Q205-462 205-408Q205-243 279-156.50Q353-70 492-70Q624-70 768-143L768-49Q628 20 469 20M631-1018Q500-1018 387.50-902.50Q275-787 225-594L274-594Q791-594 791-864Q791-931 747.50-974.50Q704-1018 631-1018Z"/><path id="s53:opensans-lightitalic:3" d=""/><path id="s53:opensans-lightitalic:40" d="M829 0L102 0L412-1462L1139-1462L1118-1368L494-1368L377-815L967-815L946-721L358-721L223-94L850-94L829 0Z"/><path id="s53:opensans-lightitalic:88" d="M381-1087L229-389Q207-283 207-231Q207-157 254.50-113.50Q302-70 393-70Q503-70 600.50-135.50Q698-201 764.50-322.50Q831-444 864-602L969-1087L1067-1087L836 0L756 0L784-205L778-205Q611 16 375 16Q244 16 176.50-46Q109-108 109-227Q109-287 131-397L281-1087L381-1087Z"/><path id="s53:opensans-lightitalic:85" d="M713-1106Q782-1106 836-1092L815-999Q768-1014 702-1014Q608-1014 523-950Q438-886 370-758Q302-630 270-481L170 0L72 0L303-1087L383-1087L354-883L360-883Q433-977 483-1018.50Q533-1060 589.50-1083Q646-1106 713-1106Z"/><path id="s53:opensans-lightitalic:82" d="M649-1108Q829-1108 927.50-999.50Q1026-891 1026-700Q1026-503 954.50-331.50Q883-160 759-70Q635 20 473 20Q289 20 193.50-89.50Q98-199 98-403Q98-594 171-761Q244-928 368-1018Q492-1108 649-1108M641-1022Q517-1022 418-943.50Q319-865 260-718.50Q201-572 201-408Q201-66 483-66Q610-66 708.50-143.50Q807-221 865.50-371.50Q924-522 924-702Q924-856 851-939Q778-1022 641-1022Z"/><path id="s53:opensans-lightitalic:83" d="M498 16Q268 16 219-203L215-203Q202-131 66 492L-33 492L303-1087L385-1087L340-813L346-813Q437-966 541.50-1037Q646-1108 770-1108Q905-1108 978-1015.50Q1051-923 1051-733Q1051-538 979-362Q907-186 781.50-85Q656 16 498 16M748-1018Q661-1018 574-959.50Q487-901 412.50-792Q338-683 302-554.50Q266-426 266-346Q266-221 327.50-145.50Q389-70 496-70Q620-70 721-154Q822-238 885-397.50Q948-557 948-723Q948-1018 748-1018Z"/><path id="s53:opensans-lightitalic:68" d="M655-1104Q887-1104 934-885L940-885L999-1087L1079-1087L850 0L768 0L813-274L807-274Q723-132 620-56Q517 20 383 20Q102 20 102-354Q102-551 177-730Q252-909 377.50-1006.50Q503-1104 655-1104M406-70Q495-70 583.50-132Q672-194 742.50-298Q813-402 850-528Q887-654 887-741Q887-820 861-882.50Q835-945 784-981.50Q733-1018 657-1018Q533-1018 433-936Q333-854 269-690.50Q205-527 205-365Q205-213 255-141.50Q305-70 406-70Z"/><path id="s53:opensans-lightitalic:81" d="M764 0L913-692Q934-784 934-848Q934-928 890.50-973Q847-1018 756-1018Q644-1018 545.50-951Q447-884 379.50-763.50Q312-643 276-477L174 0L76 0L307-1087L389-1087L352-866L358-866Q522-1104 774-1104Q904-1104 969-1040Q1034-976 1034-856Q1034-786 1010-674L862 0L764 0Z"/><path id="s53:opensans-lightitalic:79" d="M170 0L76 0L410-1556L504-1556L170 0Z"/><path id="s53:opensans-lightitalic:74" d="M1100-1087L1083-1008L840-997Q866-969 883.50-913Q901-857 901-799Q901-690 846.50-592.50Q792-495 698.50-447Q605-399 485-399Q422-399 408-408Q328-375 284-335Q240-295 240-254Q240-213 271.50-189.50Q303-166 385-158L506-147Q852-116 852 117Q852 229 787 314.50Q722 400 600 446Q478 492 309 492Q123 492 17.50 420Q-88 348-88 217Q-88-19 221-117Q143-159 143-240Q143-363 334-442Q263-478 223.50-547.50Q184-617 184-705Q184-816 237.50-909Q291-1002 385.50-1055Q480-1108 592-1108Q661-1108 739-1087L1100-1087M14 207Q14 308 95 357Q176 406 319 406Q522 406 636 331.50Q750 257 750 127Q750 42 687.50-3.50Q625-49 469-61L309-76Q152-31 83 38.50Q14 108 14 207M285-711Q285-599 343.50-541Q402-483 508-483Q596-483 662-520Q728-557 764.50-634Q801-711 801-803Q801-907 745-964.50Q689-1022 588-1022Q495-1022 427-979Q359-936 322-863Q285-790 285-711Z"/><path id="s53:opensans-lightitalic:86" d="M713-295Q713-151 610-65.50Q507 20 330 20Q157 20 25-55L25-162Q99-116 178-91Q257-66 326-66Q464-66 537-123.50Q610-181 610-287Q610-329 594.50-361Q579-393 544.50-422.50Q510-452 412-508Q264-588 212-653.50Q160-719 160-813Q160-941 258.50-1022.50Q357-1104 518-1104Q593-1104 676.50-1086.50Q760-1069 817-1040L782-952Q646-1016 518-1016Q402-1016 332-963Q262-910 262-825Q262-770 279-737Q296-704 339.50-668.50Q383-633 459-592Q573-529 620.50-488.50Q668-448 690.50-402Q713-356 713-295Z"/><path id="s53:opensans-lightitalic:80" d="M711 0L858-674Q883-799 883-836Q883-1018 729-1018Q623-1018 529-950.50Q435-883 370-762Q305-641 270-475L170 0L72 0L303-1087L383-1087L350-877L356-877Q436-990 537.50-1047Q639-1104 750-1104Q856-1104 913-1037Q970-970 973-842L979-842Q1056-971 1160-1037.50Q1264-1104 1382-1104Q1499-1104 1564.50-1042.50Q1630-981 1630-866Q1630-837 1627.50-809.50Q1625-782 1608-690L1456 0L1356 0L1505-680Q1530-800 1530-856Q1530-933 1487-975.50Q1444-1018 1368-1018Q1211-1018 1090.50-880.50Q970-743 922-518L813 0L711 0Z"/><path id="s53:opensans-lightitalic:69" d="M500 16Q387 16 314-43Q241-102 217-209L211-209L156 0L76 0L403-1556L498-1556Q367-928 336-805L342-805Q435-961 541-1034.50Q647-1108 772-1108Q1053-1108 1053-733Q1053-530 977-353Q901-176 776-80Q651 16 500 16M750-1018Q659-1018 570-956.50Q481-895 409.50-787Q338-679 303-552Q268-425 268-346Q268-217 332-143.50Q396-70 498-70Q622-70 722-153Q822-236 886-398Q950-560 950-723Q950-875 901-946.50Q852-1018 750-1018Z"/><path id="s53:opensans-lightitalic:73" d="M-131 492Q-179 492-233 473L-233 383Q-180 399-133 399Q-45 399 1 346Q47 293 76 160L322-1006L117-1006L131-1073L336-1087L371-1247Q406-1415 487.50-1491Q569-1567 715-1567Q788-1567 881-1536L856-1456Q769-1483 709-1483Q613-1483 555.50-1429.50Q498-1376 471-1251L436-1087L684-1087L668-1006L420-1006L168 184Q135 345 64 418.50Q-7 492-131 492Z"/><path id="s53:opensans-lightitalic:87" d="M694-1087L676-1006L393-1006L258-371Q236-272 236-207Q236-68 362-68Q430-68 514-94L514-8Q413 20 344 20Q245 20 191-34.50Q137-89 137-193Q137-266 166-399L295-1006L113-1006L127-1073L311-1090L408-1343L463-1343L408-1087L694-1087Z"/><path id="s53:opensans-lightitalic:76" d="M174 0L76 0L307-1087L403-1087L174 0M350-1366Q350-1421 372-1454Q394-1487 432-1487Q489-1487 489-1415Q489-1358 467-1325Q445-1292 410-1292Q381-1292 365.50-1311.50Q350-1331 350-1366Z"/><path id="s53:opensans-lightitalic:92" d="M123-1087L223-1087L305-539Q356-188 360-90L371-90Q414-195 557-457L905-1087L1008-1087L295 203Q223 330 172.50 381Q122 432 58.50 462Q-5 492-88 492Q-156 492-217 471L-217 379Q-146 406-80 406Q0 406 67 356.50Q134 307 197 192Q260 77 297 8L123-1087Z"/><path id="s53:opensans-lightitalic:17" d="M82-55Q82-111 107-143.50Q132-176 176-176Q242-176 242-104Q242-51 217-16.50Q192 18 150 18Q82 18 82-55Z"/><path id="s53:opensans-lightitalic:91" d="M442-483L49 0L-72 0L399-559L154-1087L254-1087L461-625L834-1087L954-1087L506-553L764 0L666 0L442-483Z"/><path id="s53:opensans-lightitalic:70" d="M477 20Q303 20 202.50-90.50Q102-201 102-397Q102-590 175.50-758.50Q249-927 374-1015.50Q499-1104 664-1104Q798-1104 905-1061L877-971Q770-1018 659-1018Q530-1018 426.50-941Q323-864 264-719Q205-574 205-399Q205-241 278.50-155.50Q352-70 487-70Q558-70 618.50-83Q679-96 750-129L750-37Q634 20 477 20Z"/><path id="s53:opensans-lightitalic:41" d="M205 0L102 0L412-1462L1120-1462L1100-1368L496-1368L362-748L932-748L911-653L342-653L205 0Z"/><path id="s53:opensans-lightitalic:15" d="M250-238L258-215Q224-123 144 18.50Q64 160-16 264L-90 264Q-11 132 51-7Q113-146 139-238L250-238Z"/></defs><g id="line-0"><use x="0" y="1889" xlink:href="#s53:opensans-lightitalic:55"/><use x="985" y="1889" xlink:href="#s53:opensans-lightitalic:75"/><use x="2128" y="1889" xlink:href="#s53:opensans-lightitalic:72"/><use x="3056" y="1889" xlink:href="#s53:opensans-lightitalic:3"/><use x="3588" y="1889" xlink:href="#s53:opensans-lightitalic:40"/><use x="4655" y="1889" xlink:href="#s53:opensans-lightitalic:88"/><use x="5798" y="1889" xlink:href="#s53:opensans-lightitalic:85"/><use x="6509" y="1889" xlink:href="#s53:opensans-lightitalic:82"/><use x="7633" y="1889" xlink:href="#s53:opensans-lightitalic:83"/><use x="8782" y="1889" xlink:href="#s53:opensans-lightitalic:72"/><use x="9710" y="1889" xlink:href="#s53:opensans-lightitalic:68"/><use x="10843" y="1889" xlink:href="#s53:opensans-lightitalic:81"/><use x="11986" y="1889" xlink:href="#s53:opensans-lightitalic:3"/><use x="12518" y="1889" xlink:href="#s53:opensans-lightitalic:79"/><use x="12993" y="1889" xlink:href="#s53:opensans-lightitalic:68"/><use x="14126" y="1889" xlink:href="#s53:opensans-lightitalic:81"/><use x="15269" y="1889" xlink:href="#s53:opensans-lightitalic:74"/><use x="16309" y="1889" xlink:href="#s53:opensans-lightitalic:88"/><use x="17452" y="1889" xlink:href="#s53:opensans-lightitalic:68"/><use x="18585" y="1889" xlink:href="#s53:opensans-lightitalic:74"/><use x="19625" y="1889" xlink:href="#s53:opensans-lightitalic:72"/><use x="20553" y="1889" xlink:href="#s53:opensans-lightitalic:86"/><use x="21380" y="1889" xlink:href="#s53:opensans-lightitalic:3"/><use x="21912" y="1889" xlink:href="#s53:opensans-lightitalic:68"/><use x="23045" y="1889" xlink:href="#s53:opensans-lightitalic:85"/><use x="23756" y="1889" xlink:href="#s53:opensans-lightitalic:72"/><use x="24684" y="1889" xlink:href="#s53:opensans-lightitalic:3"/><use x="25216" y="1889" xlink:href="#s53:opensans-lightitalic:80"/><use x="26967" y="1889" xlink:href="#s53:opensans-lightitalic:72"/><use x="27895" y="1889" xlink:href="#s53:opensans-lightitalic:80"/><use x="29646" y="1889" xlink:href="#s53:opensans-lightitalic:69"/><use x="30797" y="1889" xlink:href="#s53:opensans-lightitalic:72"/><use x="31725" y="1889" xlink:href="#s53:opensans-lightitalic:85"/><use x="32477" y="1889" xlink:href="#s53:opensans-lightitalic:86"/><use x="33304" y="1889" xlink:href="#s53:opensans-lightitalic:3"/><use x="33836" y="1889" xlink:href="#s53:opensans-lightitalic:82"/><use x="34960" y="1889" xlink:href="#s53:opensans-lightitalic:73"/><use x="35538" y="1889" xlink:href="#s53:opensans-lightitalic:3"/><use x="36070" y="1889" xlink:href="#s53:opensans-lightitalic:87"/><use x="36686" y="1889" xlink:href="#s53:opensans-lightitalic:75"/><use x="37829" y="1889" xlink:href="#s53:opensans-lightitalic:72"/><use x="38757" y="1889" xlink:href="#s53:opensans-lightitalic:3"/><use x="39289" y="1889" xlink:href="#s53:opensans-lightitalic:86"/><use x="40116" y="1889" xlink:href="#s53:opensans-lightitalic:68"/><use x="41249" y="1889" xlink:href="#s53:opensans-lightitalic:80"/><use x="43000" y="1889" xlink:href="#s53:opensans-lightitalic:72"/><use x="43928" y="1889" xlink:href="#s53:opensans-lightitalic:3"/><use x="44460" y="1889" xlink:href="#s53:opensans-lightitalic:73"/><use x="45038" y="1889" xlink:href="#s53:opensans-lightitalic:68"/><use x="46171" y="1889" xlink:href="#s53:opensans-lightitalic:80"/><use x="47922" y="1889" xlink:href="#s53:opensans-lightitalic:76"/><use x="48397" y="1889" xlink:href="#s53:opensans-lightitalic:79"/><use x="48872" y="1889" xlink:href="#s53:opensans-lightitalic:92"/><use x="49710" y="1889" xlink:href="#s53:opensans-lightitalic:17"/></g><g id="line-1"><use x="10432" y="4346.6" xlink:href="#s53:opensans-lightitalic:55"/><use x="11417" y="4346.6" xlink:href="#s53:opensans-lightitalic:75"/><use x="12560" y="4346.6" xlink:href="#s53:opensans-lightitalic:72"/><use x="13488" y="4346.6" xlink:href="#s53:opensans-lightitalic:76"/><use x="13963" y="4346.6" xlink:href="#s53:opensans-lightitalic:85"/><use x="14715" y="4346.6" xlink:href="#s53:opensans-lightitalic:3"/><use x="15247" y="4346.6" xlink:href="#s53:opensans-lightitalic:86"/><use x="16074" y="4346.6" xlink:href="#s53:opensans-lightitalic:72"/><use x="17002" y="4346.6" xlink:href="#s53:opensans-lightitalic:83"/><use x="18151" y="4346.6" xlink:href="#s53:opensans-lightitalic:68"/><use x="19284" y="4346.6" xlink:href="#s53:opensans-lightitalic:85"/><use x="19995" y="4346.6" xlink:href="#s53:opensans-lightitalic:68"/><use x="21128" y="4346.6" xlink:href="#s53:opensans-lightitalic:87"/><use x="21744" y="4346.6" xlink:href="#s53:opensans-lightitalic:72"/><use x="22672" y="4346.6" xlink:href="#s53:opensans-lightitalic:3"/><use x="23204" y="4346.6" xlink:href="#s53:opensans-lightitalic:72"/><use x="24091" y="4346.6" xlink:href="#s53:opensans-lightitalic:91"/><use x="25013" y="4346.6" xlink:href="#s53:opensans-lightitalic:76"/><use x="25488" y="4346.6" xlink:href="#s53:opensans-lightitalic:86"/><use x="26315" y="4346.6" xlink:href="#s53:opensans-lightitalic:87"/><use x="26931" y="4346.6" xlink:href="#s53:opensans-lightitalic:72"/><use x="27859" y="4346.6" xlink:href="#s53:opensans-lightitalic:81"/><use x="29002" y="4346.6" xlink:href="#s53:opensans-lightitalic:70"/><use x="29889" y="4346.6" xlink:href="#s53:opensans-lightitalic:72"/><use x="30817" y="4346.6" xlink:href="#s53:opensans-lightitalic:3"/><use x="31349" y="4346.6" xlink:href="#s53:opensans-lightitalic:76"/><use x="31824" y="4346.6" xlink:href="#s53:opensans-lightitalic:86"/><use x="32651" y="4346.6" xlink:href="#s53:opensans-lightitalic:3"/><use x="33183" y="4346.6" xlink:href="#s53:opensans-lightitalic:68"/><use x="34316" y="4346.6" xlink:href="#s53:opensans-lightitalic:3"/><use x="34848" y="4346.6" xlink:href="#s53:opensans-lightitalic:80"/><use x="36599" y="4346.6" xlink:href="#s53:opensans-lightitalic:92"/><use x="37519" y="4346.6" xlink:href="#s53:opensans-lightitalic:87"/><use x="38135" y="4346.6" xlink:href="#s53:opensans-lightitalic:75"/><use x="39278" y="4346.6" xlink:href="#s53:opensans-lightitalic:17"/></g><g id="line-2"><use x="12649.5" y="6804.2" xlink:href="#s53:opensans-lightitalic:41"/><use x="13630.5" y="6804.2" xlink:href="#s53:opensans-lightitalic:82"/><use x="14754.5" y="6804.2" xlink:href="#s53:opensans-lightitalic:85"/><use x="15506.5" y="6804.2" xlink:href="#s53:opensans-lightitalic:3"/><use x="16038.5" y="6804.2" xlink:href="#s53:opensans-lightitalic:86"/><use x="16865.5" y="6804.2" xlink:href="#s53:opensans-lightitalic:70"/><use x="17752.5" y="6804.2" xlink:href="#s53:opensans-lightitalic:76"/><use x="18227.5" y="6804.2" xlink:href="#s53:opensans-lightitalic:72"/><use x="19155.5" y="6804.2" xlink:href="#s53:opensans-lightitalic:81"/><use x="20298.5" y="6804.2" xlink:href="#s53:opensans-lightitalic:70"/><use x="21185.5" y="6804.2" xlink:href="#s53:opensans-lightitalic:72"/><use x="22113.5" y="6804.2" xlink:href="#s53:opensans-lightitalic:15"/><use x="22564.5" y="6804.2" xlink:href="#s53:opensans-lightitalic:3"/><use x="23096.5" y="6804.2" xlink:href="#s53:opensans-lightitalic:80"/><use x="24847.5" y="6804.2" xlink:href="#s53:opensans-lightitalic:88"/><use x="25990.5" y="6804.2" xlink:href="#s53:opensans-lightitalic:86"/><use x="26817.5" y="6804.2" xlink:href="#s53:opensans-lightitalic:76"/><use x="27292.5" y="6804.2" xlink:href="#s53:opensans-lightitalic:70"/><use x="28179.5" y="6804.2" xlink:href="#s53:opensans-lightitalic:15"/><use x="28630.5" y="6804.2" xlink:href="#s53:opensans-lightitalic:3"/><use x="29162.5" y="6804.2" xlink:href="#s53:opensans-lightitalic:86"/><use x="29989.5" y="6804.2" xlink:href="#s53:opensans-lightitalic:83"/><use x="31138.5" y="6804.2" xlink:href="#s53:opensans-lightitalic:82"/><use x="32262.5" y="6804.2" xlink:href="#s53:opensans-lightitalic:85"/><use x="33014.5" y="6804.2" xlink:href="#s53:opensans-lightitalic:87"/><use x="33630.5" y="6804.2" xlink:href="#s53:opensans-lightitalic:15"/><use x="34081.5" y="6804.2" xlink:href="#s53:opensans-lightitalic:3"/><use x="34613.5" y="6804.2" xlink:href="#s53:opensans-lightitalic:72"/><use x="35541.5" y="6804.2" xlink:href="#s53:opensans-lightitalic:87"/><use x="36157.5" y="6804.2" xlink:href="#s53:opensans-lightitalic:70"/><use x="37044.5" y="6804.2" xlink:href="#s53:opensans-lightitalic:15"/></g></svg>