<svg xmlns="http://www.w3.org/2000/svg" xmlns:xlink="http://www.w3.org/1999/xlink" width="648" height="87" viewBox="0 0 55309 7404.2"><defs><path id="s54:opensans-regular:55" d="M651 0L481 0L481-1311L18-1311L18-1462L1114-1462L1114-1311L651-1311L651 0Z"/><path id="s54:opensans-regular:75" d="M926 0L926-709Q926-843 865-909Q804-975 674-975Q501-975 421.50-881Q342-787 342-573L342 0L176 0L176-1556L342-1556L342-1085Q342-1000 334-944L344-944Q393-1023 483.50-1068.50Q574-1114 690-1114Q891-1114 991.50-1018.50Q1092-923 1092-715L1092 0L926 0Z"/><path id="s54:opensans-regular:72" d="M639 20Q396 20 255.50-128Q115-276 115-539Q115-804 245.50-960Q376-1116 596-1116Q802-1116 922-980.50Q1042-845 1042-623L1042-518L287-518Q292-325 384.50-225Q477-125 645-125Q822-125 995-199L995-51Q907-13 828.50 3.50Q750 20 639 20M594-977Q462-977 383.50-891Q305-805 291-653L864-653Q864-810 794-893.50Q724-977 594-977Z"/><path id="s54:opensans-regular:3" d=""/><path id="s54:opensans-regular:40" d="M1016 0L201 0L201-1462L1016-1462L1016-1311L371-1311L371-840L977-840L977-690L371-690L371-152L1016-152L1016 0Z"/><path id="s54:opensans-regular:88" d="M332-1096L332-385Q332-251 393-185Q454-119 584-119Q756-119 835.50-213Q915-307 915-520L915-1096L1081-1096L1081 0L944 0L920-147L911-147Q860-66 769.50-23Q679 20 563 20Q363 20 263.50-75Q164-170 164-379L164-1096L332-1096Z"/><path id="s54:opensans-regular:85" d="M676-1116Q749-1116 807-1104L784-950Q716-965 664-965Q531-965 436.50-857Q342-749 342-588L342 0L176 0L176-1096L313-1096L332-893L340-893Q401-1000 487-1058Q573-1116 676-1116Z"/><path id="s54:opensans-regular:82" d="M1122-549Q1122-281 987-130.50Q852 20 614 20Q467 20 353-49Q239-118 177-247Q115-376 115-549Q115-817 249-966.50Q383-1116 621-1116Q851-1116 986.50-963Q1122-810 1122-549M287-549Q287-339 371-229Q455-119 618-119Q781-119 865.50-228.50Q950-338 950-549Q950-758 865.50-866.50Q781-975 616-975Q453-975 370-868Q287-761 287-549Z"/><path id="s54:opensans-regular:83" d="M686 20Q579 20 490.50-19.50Q402-59 342-141L330-141Q342-45 342 41L342 492L176 492L176-1096L311-1096L334-946L342-946Q406-1036 491-1076Q576-1116 686-1116Q904-1116 1022.50-967Q1141-818 1141-549Q1141-279 1020.50-129.50Q900 20 686 20M662-975Q494-975 419-882Q344-789 342-586L342-549Q342-318 419-218.50Q496-119 666-119Q808-119 888.50-234Q969-349 969-551Q969-756 888.50-865.50Q808-975 662-975Z"/><path id="s54:opensans-regular:68" d="M850 0L817-156L809-156Q727-53 645.50-16.50Q564 20 442 20Q279 20 186.50-64Q94-148 94-303Q94-635 625-651L811-657L811-725Q811-854 755.50-915.50Q700-977 578-977Q441-977 268-893L217-1020Q298-1064 394.50-1089Q491-1114 588-1114Q784-1114 878.50-1027Q973-940 973-748L973 0L850 0M475-117Q630-117 718.50-202Q807-287 807-440L807-539L641-532Q443-525 355.50-470.50Q268-416 268-301Q268-211 322.50-164Q377-117 475-117Z"/><path id="s54:opensans-regular:81" d="M926 0L926-709Q926-843 865-909Q804-975 674-975Q502-975 422-882Q342-789 342-575L342 0L176 0L176-1096L311-1096L338-946L346-946Q397-1027 489-1071.50Q581-1116 694-1116Q892-1116 992-1020.50Q1092-925 1092-715L1092 0L926 0Z"/><path id="s54:opensans-regular:79" d="M342 0L176 0L176-1556L342-1556L342 0Z"/><path id="s54:opensans-regular:74" d="M1073-1096L1073-991L870-967Q898-932 920-875.50Q942-819 942-748Q942-587 832-491Q722-395 530-395Q481-395 438-403Q332-347 332-262Q332-217 369-195.50Q406-174 496-174L690-174Q868-174 963.50-99Q1059-24 1059 119Q1059 301 913 396.50Q767 492 487 492Q272 492 155.50 412Q39 332 39 186Q39 86 103 13Q167-60 283-86Q241-105 212.50-145Q184-185 184-238Q184-298 216-343Q248-388 317-430Q232-465 178.50-549Q125-633 125-741Q125-921 233-1018.50Q341-1116 539-1116Q625-1116 694-1096L1073-1096M199 184Q199 273 274 319Q349 365 489 365Q698 365 798.50 302.50Q899 240 899 133Q899 44 844 9.50Q789-25 637-25L438-25Q325-25 262 29Q199 83 199 184M289-745Q289-630 354-571Q419-512 535-512Q778-512 778-748Q778-995 532-995Q415-995 352-932Q289-869 289-745Z"/><path id="s54:opensans-regular:86" d="M883-299Q883-146 769-63Q655 20 449 20Q231 20 109-49L109-203Q188-163 278.50-140Q369-117 453-117Q583-117 653-158.50Q723-200 723-285Q723-349 667.50-394.50Q612-440 451-502Q298-559 233.50-601.50Q169-644 137.50-698Q106-752 106-827Q106-961 215-1038.50Q324-1116 514-1116Q691-1116 860-1044L801-909Q636-977 502-977Q384-977 324-940Q264-903 264-838Q264-794 286.50-763Q309-732 359-704Q409-676 551-623Q746-552 814.50-480Q883-408 883-299Z"/><path id="s54:opensans-regular:80" d="M1573 0L1573-713Q1573-844 1517-909.50Q1461-975 1343-975Q1188-975 1114-886Q1040-797 1040-612L1040 0L874 0L874-713Q874-844 818-909.50Q762-975 643-975Q487-975 414.50-881.50Q342-788 342-575L342 0L176 0L176-1096L311-1096L338-946L346-946Q393-1026 478.50-1071Q564-1116 670-1116Q927-1116 1006-930L1014-930Q1063-1016 1156-1066Q1249-1116 1368-1116Q1554-1116 1646.50-1020.50Q1739-925 1739-715L1739 0L1573 0Z"/><path id="s54:opensans-regular:69" d="M686-1114Q902-1114 1021.50-966.50Q1141-819 1141-549Q1141-279 1020.50-129.50Q900 20 686 20Q579 20 490.50-19.50Q402-59 342-141L330-141L295 0L176 0L176-1556L342-1556L342-1178Q342-1051 334-950L342-950Q458-1114 686-1114M662-975Q492-975 417-877.50Q342-780 342-549Q342-318 419-218.50Q496-119 666-119Q819-119 894-230.50Q969-342 969-551Q969-765 894-870Q819-975 662-975Z"/><path id="s54:opensans-regular:73" d="M670-967L391-967L391 0L225 0L225-967L29-967L29-1042L225-1102L225-1163Q225-1567 578-1567Q665-1567 782-1532L739-1399Q643-1430 575-1430Q481-1430 436-1367.50Q391-1305 391-1167L391-1096L670-1096L670-967Z"/><path id="s54:opensans-regular:87" d="M530-117Q574-117 615-123.50Q656-130 680-137L680-10Q653 3 600.50 11.50Q548 20 506 20Q188 20 188-315L188-967L31-967L31-1047L188-1116L258-1350L354-1350L354-1096L672-1096L672-967L354-967L354-322Q354-223 401-170Q448-117 530-117Z"/><path id="s54:opensans-regular:76" d="M342 0L176 0L176-1096L342-1096L342 0M162-1393Q162-1450 190-1476.50Q218-1503 260-1503Q300-1503 329-1476Q358-1449 358-1393Q358-1337 329-1309.50Q300-1282 260-1282Q218-1282 190-1309.50Q162-1337 162-1393Z"/><path id="s54:opensans-regular:92" d="M2-1096L180-1096L420-471Q499-257 518-162L526-162Q539-213 580.50-336.50Q622-460 852-1096L1030-1096L559 152Q489 337 395.50 414.50Q302 492 166 492Q90 492 16 475L16 342Q71 354 139 354Q310 354 383 162L444 6L2-1096Z"/><path id="s54:opensans-regular:17" d="M152-106Q152-173 182.50-207.50Q213-242 270-242Q328-242 360.50-207.50Q393-173 393-106Q393-41 360-6Q327 29 270 29Q219 29 185.50-2.50Q152-34 152-106Z"/><path id="s54:opensans-regular:91" d="M440-561L59-1096L248-1096L537-676L825-1096L1012-1096L631-561L1032 0L844 0L537-444L227 0L39 0L440-561Z"/><path id="s54:opensans-regular:70" d="M614 20Q376 20 245.50-126.50Q115-273 115-541Q115-816 247.50-966Q380-1116 625-1116Q704-1116 783-1099Q862-1082 907-1059L856-918Q801-940 736-954.50Q671-969 621-969Q287-969 287-543Q287-341 368.50-233Q450-125 610-125Q747-125 891-184L891-37Q781 20 614 20Z"/><path id="s54:opensans-regular:41" d="M371 0L201 0L201-1462L1016-1462L1016-1311L371-1311L371-776L977-776L977-625L371-625L371 0Z"/><path id="s54:opensans-regular:15" d="M350-238L365-215Q339-115 290 17.50Q241 150 188 264L63 264Q90 160 122.50 7Q155-146 168-238L350-238Z"/></defs><g id="line-0"><use x="0" y="1889" xlink:href="#s54:opensans-regular:55"/><use x="1133" y="1889" xlink:href="#s54:opensans-regular:75"/><use x="2390" y="1889" xlink:href="#s54:opensans-regular:72"/><use x="3539" y="1889" xlink:href="#s54:opensans-regular:3"/><use x="4071" y="1889" xlink:href="#s54:opensans-regular:40"/><use x="5210" y="1889" xlink:href="#s54:opensans-regular:88"/><use x="6467" y="1889" xlink:href="#s54:opensans-regular:85"/><use x="7262" y="1889" xlink:href="#s54:opensans-regular:82"/><use x="8499" y="1889" xlink:href="#s54:opensans-regular:83"/><use x="9754" y="1889" xlink:href="#s54:opensans-regular:72"/><use x="10903" y="1889" xlink:href="#s54:opensans-regular:68"/><use x="12042" y="1889" xlink:href="#s54:opensans-regular:81"/><use x="13299" y="1889" xlink:href="#s54:opensans-regular:3"/><use x="13831" y="1889" xlink:href="#s54:opensans-regular:79"/><use x="14349" y="1889" xlink:href="#s54:opensans-regular:68"/><use x="15488" y="1889" xlink:href="#s54:opensans-regular:81"/><use x="16745" y="1889" xlink:href="#s54:opensans-regular:74"/><use x="17867" y="1889" xlink:href="#s54:opensans-regular:88"/><use x="19124" y="1889" xlink:href="#s54:opensans-regular:68"/><use x="20263" y="1889" xlink:href="#s54:opensans-regular:74"/><use x="21385" y="1889" xlink:href="#s54:opensans-regular:72"/><use x="22534" y="1889" xlink:href="#s54:opensans-regular:86"/><use x="23511" y="1889" xlink:href="#s54:opensans-regular:3"/><use x="24043" y="1889" xlink:href="#s54:opensans-regular:68"/><use x="25182" y="1889" xlink:href="#s54:opensans-regular:85"/><use x="25977" y="1889" xlink:href="#s54:opensans-regular:72"/><use x="27126" y="1889" xlink:href="#s54:opensans-regular:3"/><use x="27658" y="1889" xlink:href="#s54:opensans-regular:80"/><use x="29563" y="1889" xlink:href="#s54:opensans-regular:72"/><use x="30712" y="1889" xlink:href="#s54:opensans-regular:80"/><use x="32617" y="1889" xlink:href="#s54:opensans-regular:69"/><use x="33872" y="1889" xlink:href="#s54:opensans-regular:72"/><use x="35021" y="1889" xlink:href="#s54:opensans-regular:85"/><use x="35857" y="1889" xlink:href="#s54:opensans-regular:86"/><use x="36834" y="1889" xlink:href="#s54:opensans-regular:3"/><use x="37366" y="1889" xlink:href="#s54:opensans-regular:82"/><use x="38603" y="1889" xlink:href="#s54:opensans-regular:73"/><use x="39297" y="1889" xlink:href="#s54:opensans-regular:3"/><use x="39829" y="1889" xlink:href="#s54:opensans-regular:87"/><use x="40552" y="1889" xlink:href="#s54:opensans-regular:75"/><use x="41809" y="1889" xlink:href="#s54:opensans-regular:72"/><use x="42958" y="1889" xlink:href="#s54:opensans-regular:3"/><use x="43490" y="1889" xlink:href="#s54:opensans-regular:86"/><use x="44467" y="1889" xlink:href="#s54:opensans-regular:68"/><use x="45606" y="1889" xlink:href="#s54:opensans-regular:80"/><use x="47511" y="1889" xlink:href="#s54:opensans-regular:72"/><use x="48660" y="1889" xlink:href="#s54:opensans-regular:3"/><use x="49192" y="1889" xlink:href="#s54:opensans-regular:73"/><use x="49886" y="1889" xlink:href="#s54:opensans-regular:68"/><use x="51025" y="1889" xlink:href="#s54:opensans-regular:80"/><use x="52930" y="1889" xlink:href="#s54:opensans-regular:76"/><use x="53448" y="1889" xlink:href="#s54:opensans-regular:79"/><use x="53966" y="1889" xlink:href="#s54:opensans-regular:92"/><use x="54916" y="1889" xlink:href="#s54:opensans-regular:17"/></g><g id="line-1"><use x="11278.5" y="4346.6" xlink:href="#s54:opensans-regular:55"/><use x="12411.5" y="4346.6" xlink:href="#s54:opensans-regular:75"/><use x="13668.5" y="4346.6" xlink:href="#s54:opensans-regular:72"/><use x="14817.5" y="4346.6" xlink:href="#s54:opensans-regular:76"/><use x="15335.5" y="4346.6" xlink:href="#s54:opensans-regular:85"/><use x="16171.5" y="4346.6" xlink:href="#s54:opensans-regular:3"/><use x="16703.5" y="4346.6" xlink:href="#s54:opensans-regular:86"/><use x="17680.5" y="4346.6" xlink:href="#s54:opensans-regular:72"/><use x="18829.5" y="4346.6" xlink:href="#s54:opensans-regular:83"/><use x="20084.5" y="4346.6" xlink:href="#s54:opensans-regular:68"/><use x="21223.5" y="4346.6" xlink:href="#s54:opensans-regular:85"/><use x="22018.5" y="4346.6" xlink:href="#s54:opensans-regular:68"/><use x="23157.5" y="4346.6" xlink:href="#s54:opensans-regular:87"/><use x="23880.5" y="4346.6" xlink:href="#s54:opensans-regular:72"/><use x="25029.5" y="4346.6" xlink:href="#s54:opensans-regular:3"/><use x="25561.5" y="4346.6" xlink:href="#s54:opensans-regular:72"/><use x="26669.5" y="4346.6" xlink:href="#s54:opensans-regular:91"/><use x="27742.5" y="4346.6" xlink:href="#s54:opensans-regular:76"/><use x="28260.5" y="4346.6" xlink:href="#s54:opensans-regular:86"/><use x="29237.5" y="4346.6" xlink:href="#s54:opensans-regular:87"/><use x="29960.5" y="4346.6" xlink:href="#s54:opensans-regular:72"/><use x="31109.5" y="4346.6" xlink:href="#s54:opensans-regular:81"/><use x="32366.5" y="4346.6" xlink:href="#s54:opensans-regular:70"/><use x="33341.5" y="4346.6" xlink:href="#s54:opensans-regular:72"/><use x="34490.5" y="4346.6" xlink:href="#s54:opensans-regular:3"/><use x="35022.5" y="4346.6" xlink:href="#s54:opensans-regular:76"/><use x="35540.5" y="4346.6" xlink:href="#s54:opensans-regular:86"/><use x="36517.5" y="4346.6" xlink:href="#s54:opensans-regular:3"/><use x="37049.5" y="4346.6" xlink:href="#s54:opensans-regular:68"/><use x="38188.5" y="4346.6" xlink:href="#s54:opensans-regular:3"/><use x="38720.5" y="4346.6" xlink:href="#s54:opensans-regular:80"/><use x="40625.5" y="4346.6" xlink:href="#s54:opensans-regular:92"/><use x="41657.5" y="4346.6" xlink:href="#s54:opensans-regular:87"/><use x="42380.5" y="4346.6" xlink:href="#s54:opensans-regular:75"/><use x="43637.5" y="4346.6" xlink:href="#s54:opensans-regular:17"/></g><g id="line-2"><use x="13836.5" y="6804.2" xlink:href="#s54:opensans-regular:41"/><use x="14893.5" y="6804.2" xlink:href="#s54:opensans-regular:82"/><use x="16130.5" y="6804.2" xlink:href="#s54:opensans-regular:85"/><use x="16966.5" y="6804.2" xlink:href="#s54:opensans-regular:3"/><use x="17498.5" y="6804.2" xlink:href="#s54:opensans-regular:86"/><use x="18475.5" y="6804.2" xlink:href="#s54:opensans-regular:70"/><use x="19450.5" y="6804.2" xlink:href="#s54:opensans-regular:76"/><use x="19968.5" y="6804.2" xlink:href="#s54:opensans-regular:72"/><use x="21117.5" y="6804.2" xlink:href="#s54:opensans-regular:81"/><use x="22374.5" y="6804.2" xlink:href="#s54:opensans-regular:70"/><use x="23349.5" y="6804.2" xlink:href="#s54:opensans-regular:72"/><use x="24498.5" y="6804.2" xlink:href="#s54:opensans-regular:15"/><use x="25000.5" y="6804.2" xlink:href="#s54:opensans-regular:3"/><use x="25532.5" y="6804.2" xlink:href="#s54:opensans-regular:80"/><use x="27437.5" y="6804.2" xlink:href="#s54:opensans-regular:88"/><use x="28694.5" y="6804.2" xlink:href="#s54:opensans-regular:86"/><use x="29671.5" y="6804.2" xlink:href="#s54:opensans-regular:76"/><use x="30189.5" y="6804.2" xlink:href="#s54:opensans-regular:70"/><use x="31164.5" y="6804.2" xlink:href="#s54:opensans-regular:15"/><use x="31666.5" y="6804.2" xlink:href="#s54:opensans-regular:3"/><use x="32198.5" y="6804.2" xlink:href="#s54:opensans-regular:86"/><use x="33175.5" y="6804.2" xlink:href="#s54:opensans-regular:83"/><use x="34430.5" y="6804.2" xlink:href="#s54:opensans-regular:82"/><use x="35667.5" y="6804.2" xlink:href="#s54:opensans-regular:85"/><use x="36503.5" y="6804.2" xlink:href="#s54:opensans-regular:87"/><use x="37226.5" y="6804.2" xlink:href="#s54:opensans-regular:15"/><use x="37728.5" y="6804.2" xlink:href="#s54:opensans-regular:3"/><use x="38260.5" y="6804.2" xlink:href="#s54:opensans-regular:72"/><use x="39409.5" y="6804.2" xlink:href="#s54:opensans-regular:87"/><use x="40132.5" y="6804.2" xlink:href="#s54:opensans-regular:70"/><use x="41107.5" y="6804.2" xlink:href="#s54:opensans-regular:15"/></g></svg>