<svg xmlns="http://www.w3.org/2000/svg" xmlns:xlink="http://www.w3.org/1999/xlink" width="677" height="87" viewBox="0 0 57730 7404.2"><defs><path id="s50:opensans-extrabolditalic:55" d="M627 0L236 0L473-1139L156-1139L225-1462L1253-1462L1182-1139L864-1139L627 0Z"/><path id="s50:opensans-extrabolditalic:75" d="M639 0L768-618Q786-696 786-760Q786-803 764-824.50Q742-846 711-846Q586-846 526-553L410 0L23 0L352-1556L739-1556L686-1307Q651-1149 598-1024L606-1024Q707-1153 879-1153Q1020-1153 1099-1067.50Q1178-982 1178-831Q1178-725 1153-602L1026 0L639 0Z"/><path id="s50:opensans-extrabolditalic:72" d="M532 20Q320 20 202-98.50Q84-217 84-428Q84-639 167.50-808.50Q251-978 396.50-1065.50Q542-1153 733-1153Q923-1153 1032-1067Q1141-981 1141-838Q1141-637 984.50-529.50Q828-422 532-422L473-422L473-406Q473-258 637-258Q716-258 792-281.50Q868-305 965-356L965-82Q853-25 756-2.50Q659 20 532 20M690-891Q629-891 576-821.50Q523-752 512-664L541-664Q650-664 712-705.50Q774-747 774-815Q774-847 754-869Q734-891 690-891Z"/><path id="s50:opensans-extrabolditalic:3" d=""/><path id="s50:opensans-extrabolditalic:40" d="M901 0L33 0L342-1462L1210-1462L1145-1145L668-1145L621-915L1065-915L993-598L549-598L492-322L969-322L901 0Z"/><path id="s50:opensans-extrabolditalic:88" d="M487-375Q487-331 509.50-310Q532-289 563-289Q622-289 670.50-367.50Q719-446 748-582L864-1133L1251-1133L1012 0L702 0L715-158L707-158Q653-65 578.50-22.50Q504 20 395 20Q254 20 175-65.50Q96-151 96-301Q96-407 121-530L248-1133L635-1133L506-516Q487-434 487-375Z"/><path id="s50:opensans-extrabolditalic:85" d="M901-1153Q957-1153 981-1145L897-762Q843-784 774-784Q671-784 609.50-713.50Q548-643 516-498L410 0L23 0L262-1133L571-1133L553-944L561-944Q626-1056 702-1104.50Q778-1153 901-1153Z"/><path id="s50:opensans-extrabolditalic:82" d="M520 20Q311 20 197.50-93Q84-206 84-416Q84-626 163.50-795.50Q243-965 387-1059Q531-1153 723-1153Q932-1153 1045.50-1040Q1159-927 1159-717Q1159-507 1079.50-337.50Q1000-168 856-74Q712 20 520 20M678-862Q596-862 537.50-722.50Q479-583 479-403Q479-270 563-270Q644-270 704-409Q764-548 764-729Q764-795 741-828.50Q718-862 678-862Z"/><path id="s50:opensans-extrabolditalic:83" d="M651 20Q508 20 420-125L412-125Q400 41 356 246L305 492L-82 492L262-1133L571-1133L559-1006L567-1006Q663-1153 825-1153Q981-1153 1070-1041.50Q1159-930 1159-735Q1159-532 1089-352.50Q1019-173 903.50-76.50Q788 20 651 20M678-842Q628-842 583-785Q538-728 511.50-631Q485-534 485-434Q485-369 508-330Q531-291 573-291Q621-291 665-348Q709-405 736.50-501Q764-597 764-698Q764-842 678-842Z"/><path id="s50:opensans-extrabolditalic:68" d="M565-291Q615-291 660.50-349.50Q706-408 733-506Q760-604 760-698Q760-763 740-802.50Q720-842 678-842Q602-842 540.50-715.50Q479-589 479-434Q479-291 565-291M981 0L672 0L682-123L674-123Q618-45 553-12.50Q488 20 406 20Q248 20 166-91.50Q84-203 84-412Q84-591 157-777Q230-963 341.50-1058Q453-1153 588-1153Q672-1153 736-1115.50Q800-1078 850-993L858-993L911-1133L1221-1133L981 0Z"/><path id="s50:opensans-extrabolditalic:81" d="M786-760Q786-803 764-824.50Q742-846 711-846Q654-846 605.50-775Q557-704 526-553L410 0L23 0L262-1133L571-1133L559-975L567-975Q622-1070 696.50-1111.50Q771-1153 879-1153Q1020-1153 1099-1067.50Q1178-982 1178-831Q1178-725 1153-602L1026 0L639 0L768-618Q786-696 786-760Z"/><path id="s50:opensans-extrabolditalic:79" d="M410 0L23 0L352-1556L739-1556L410 0Z"/><path id="s50:opensans-extrabolditalic:74" d="M1235-1133L1194-926L1034-874Q1044-834 1044-780Q1044-589 914-471.50Q784-354 575-354Q499-354 451-367Q431-356 417-345Q403-334 403-315Q403-272 514-256L651-238Q825-213 901-146.50Q977-80 977 43Q977 258 808.50 375Q640 492 330 492Q118 492-7.50 416.50Q-133 341-133 207Q-133 109-65 38Q3-33 147-80Q110-103 86.50-140Q63-177 63-219Q63-290 114-345Q165-400 266-446Q135-549 135-727Q135-923 271-1038Q407-1153 639-1153Q690-1153 746.50-1147Q803-1141 836-1133L1235-1133M197 152Q197 238 367 238Q492 238 557.50 209Q623 180 623 127Q623 91 590 72.50Q557 54 475 45L360 33Q282 44 239.50 74.50Q197 105 197 152M500-692Q500-598 567-598Q619-598 652.50-666.50Q686-735 686-825Q686-920 625-920Q587-920 559-886.50Q531-853 515.50-799Q500-745 500-692Z"/><path id="s50:opensans-extrabolditalic:86" d="M891-393Q891-194 761-87Q631 20 387 20Q165 20 31-43L31-354Q123-304 202-284Q281-264 362-264Q430-264 464-282.50Q498-301 498-334Q498-369 472-394.50Q446-420 342-479Q236-537 187.50-612Q139-687 139-795Q139-967 260-1060Q381-1153 604-1153Q716-1153 808-1127Q900-1101 987-1047L866-795Q800-838 729.50-863.50Q659-889 608-889Q532-889 532-821Q532-792 563.50-770Q595-748 666-713Q891-601 891-393Z"/><path id="s50:opensans-extrabolditalic:80" d="M645 0L776-631Q791-721 791-752Q791-846 719-846Q651-846 605.50-771.50Q560-697 528-551L410 0L23 0L262-1133L571-1133L555-946L563-946Q624-1060 700-1106.50Q776-1153 891-1153Q1008-1153 1071.50-1099.50Q1135-1046 1161-946L1169-946Q1234-1052 1318-1102.50Q1402-1153 1513-1153Q1654-1153 1727-1068.50Q1800-984 1800-819Q1800-722 1778-614L1653 0L1266 0L1395-631Q1409-687 1409-764Q1409-804 1390-825Q1371-846 1339-846Q1265-846 1219.50-770Q1174-694 1143-543L1032 0L645 0Z"/><path id="s50:opensans-extrabolditalic:69" d="M657 20Q574 20 512-12Q450-44 387-125L379-125L330 0L23 0L352-1556L739-1556L690-1325Q652-1150 600-1024L608-1024Q656-1083 685.50-1105.50Q715-1128 752-1140.50Q789-1153 838-1153Q993-1153 1076-1041.50Q1159-930 1159-721Q1159-543 1088.50-359Q1018-175 906-77.50Q794 20 657 20M678-842Q628-842 583-785Q538-728 511.50-631Q485-534 485-434Q485-369 504-330Q523-291 563-291Q612-291 659-350Q706-409 735-506Q764-603 764-698Q764-842 678-842Z"/><path id="s50:opensans-extrabolditalic:73" d="M-2 492Q-112 492-209 465L-209 162Q-146 180-92 180Q-18 180 20 150Q58 120 72 55L262-842L96-842L139-1032L328-1128L344-1202Q387-1394 490.50-1480.50Q594-1567 766-1567Q846-1567 921-1551Q996-1535 1049-1509L950-1245Q886-1276 821-1276Q786-1276 761.50-1257.50Q737-1239 729-1204L713-1133L924-1133L858-842L649-842L444 117Q401 309 290.50 400.50Q180 492-2 492Z"/><path id="s50:opensans-extrabolditalic:87" d="M567-291Q633-291 750-338L750-47Q614 20 410 20Q262 20 185.50-43.50Q109-107 109-252Q109-328 133-440L217-842L63-842L104-1032L322-1120L459-1360L717-1360L668-1133L956-1133L893-842L604-842L520-459Q504-382 504-354Q504-291 567-291Z"/><path id="s50:opensans-extrabolditalic:76" d="M410 0L23 0L262-1133L651-1133L410 0M309-1382Q309-1485 368.50-1538Q428-1591 535-1591Q626-1591 675.50-1554.50Q725-1518 725-1450Q725-1350 667-1295.50Q609-1241 500-1241Q309-1241 309-1382Z"/><path id="s50:opensans-extrabolditalic:92" d="M82-1133L471-1133L514-571L516-509L516-422L524-422Q561-554 574-587.50Q587-621 813-1133L1229-1133L559 143Q463 328 336 410Q209 492 25 492Q-67 492-129 475L-129 168Q-83 180-20 180Q67 180 122.50 143.50Q178 107 221 29L244-12L82-1133Z"/><path id="s50:opensans-extrabolditalic:17" d="M0-127Q0-236 65-298Q130-360 244-360Q328-360 376-320Q424-280 424-205Q424-87 364-31Q304 25 174 25Q96 25 48-12Q0-49 0-127Z"/><path id="s50:opensans-extrabolditalic:91" d="M545-328L334 0L-119 0L354-578L147-1133L569-1133L645-819L831-1133L1290-1133L825-557L1053 0L625 0L545-328Z"/><path id="s50:opensans-extrabolditalic:70" d="M506 20Q307 20 195.50-100.50Q84-221 84-442Q84-643 160.50-806.50Q237-970 375.50-1061.50Q514-1153 690-1153Q885-1153 1057-1073L934-786Q801-846 709-846Q647-846 594-798Q541-750 507-654.50Q473-559 473-467Q473-376 503-333.50Q533-291 598-291Q670-291 737.50-314Q805-337 881-377L881-70Q801-26 712.50-3Q624 20 506 20Z"/><path id="s50:opensans-extrabolditalic:41" d="M424 0L33 0L342-1462L1204-1462L1137-1145L666-1145L608-866L1044-866L975-547L537-547L424 0Z"/><path id="s50:opensans-extrabolditalic:15" d="M432-238L440-215Q324 47 184 264L-104 264Q-51 143 43-123L84-238L432-238Z"/></defs><g id="line-0"><use x="0" y="1889" xlink:href="#s50:opensans-extrabolditalic:55"/><use x="1130" y="1889" xlink:href="#s50:opensans-extrabolditalic:75"/><use x="2404" y="1889" xlink:href="#s50:opensans-extrabolditalic:72"/><use x="3590" y="1889" xlink:href="#s50:opensans-extrabolditalic:3"/><use x="4122" y="1889" xlink:href="#s50:opensans-extrabolditalic:40"/><use x="5273" y="1889" xlink:href="#s50:opensans-extrabolditalic:88"/><use x="6547" y="1889" xlink:href="#s50:opensans-extrabolditalic:85"/><use x="7401" y="1889" xlink:href="#s50:opensans-extrabolditalic:82"/><use x="8644" y="1889" xlink:href="#s50:opensans-extrabolditalic:83"/><use x="9887" y="1889" xlink:href="#s50:opensans-extrabolditalic:72"/><use x="11073" y="1889" xlink:href="#s50:opensans-extrabolditalic:68"/><use x="12316" y="1889" xlink:href="#s50:opensans-extrabolditalic:81"/><use x="13590" y="1889" xlink:href="#s50:opensans-extrabolditalic:3"/><use x="14122" y="1889" xlink:href="#s50:opensans-extrabolditalic:79"/><use x="14788" y="1889" xlink:href="#s50:opensans-extrabolditalic:68"/><use x="16031" y="1889" xlink:href="#s50:opensans-extrabolditalic:81"/><use x="17305" y="1889" xlink:href="#s50:opensans-extrabolditalic:74"/><use x="18450" y="1889" xlink:href="#s50:opensans-extrabolditalic:88"/><use x="19724" y="1889" xlink:href="#s50:opensans-extrabolditalic:68"/><use x="20967" y="1889" xlink:href="#s50:opensans-extrabolditalic:74"/><use x="22112" y="1889" xlink:href="#s50:opensans-extrabolditalic:72"/><use x="23298" y="1889" xlink:href="#s50:opensans-extrabolditalic:86"/><use x="24326" y="1889" xlink:href="#s50:opensans-extrabolditalic:3"/><use x="24858" y="1889" xlink:href="#s50:opensans-extrabolditalic:68"/><use x="26101" y="1889" xlink:href="#s50:opensans-extrabolditalic:85"/><use x="26955" y="1889" xlink:href="#s50:opensans-extrabolditalic:72"/><use x="28141" y="1889" xlink:href="#s50:opensans-extrabolditalic:3"/><use x="28673" y="1889" xlink:href="#s50:opensans-extrabolditalic:80"/><use x="30569" y="1889" xlink:href="#s50:opensans-extrabolditalic:72"/><use x="31755" y="1889" xlink:href="#s50:opensans-extrabolditalic:80"/><use x="33651" y="1889" xlink:href="#s50:opensans-extrabolditalic:69"/><use x="34894" y="1889" xlink:href="#s50:opensans-extrabolditalic:72"/><use x="36080" y="1889" xlink:href="#s50:opensans-extrabolditalic:85"/><use x="36975" y="1889" xlink:href="#s50:opensans-extrabolditalic:86"/><use x="38003" y="1889" xlink:href="#s50:opensans-extrabolditalic:3"/><use x="38535" y="1889" xlink:href="#s50:opensans-extrabolditalic:82"/><use x="39778" y="1889" xlink:href="#s50:opensans-extrabolditalic:73"/><use x="40618" y="1889" xlink:href="#s50:opensans-extrabolditalic:3"/><use x="41150" y="1889" xlink:href="#s50:opensans-extrabolditalic:87"/><use x="42086" y="1889" xlink:href="#s50:opensans-extrabolditalic:75"/><use x="43360" y="1889" xlink:href="#s50:opensans-extrabolditalic:72"/><use x="44546" y="1889" xlink:href="#s50:opensans-extrabolditalic:3"/><use x="45078" y="1889" xlink:href="#s50:opensans-extrabolditalic:86"/><use x="46106" y="1889" xlink:href="#s50:opensans-extrabolditalic:68"/><use x="47349" y="1889" xlink:href="#s50:opensans-extrabolditalic:80"/><use x="49245" y="1889" xlink:href="#s50:opensans-extrabolditalic:72"/><use x="50431" y="1889" xlink:href="#s50:opensans-extrabolditalic:3"/><use x="50963" y="1889" xlink:href="#s50:opensans-extrabolditalic:73"/><use x="51803" y="1889" xlink:href="#s50:opensans-extrabolditalic:68"/><use x="53046" y="1889" xlink:href="#s50:opensans-extrabolditalic:80"/><use x="54942" y="1889" xlink:href="#s50:opensans-extrabolditalic:76"/><use x="55608" y="1889" xlink:href="#s50:opensans-extrabolditalic:79"/><use x="56274" y="1889" xlink:href="#s50:opensans-extrabolditalic:92"/><use x="57306" y="1889" xlink:href="#s50:opensans-extrabolditalic:17"/></g><g id="line-1"><use x="11403.5" y="4346.6" xlink:href="#s50:opensans-extrabolditalic:55"/><use x="12533.5" y="4346.6" xlink:href="#s50:opensans-extrabolditalic:75"/><use x="13807.5" y="4346.6" xlink:href="#s50:opensans-extrabolditalic:72"/><use x="14993.5" y="4346.6" xlink:href="#s50:opensans-extrabolditalic:76"/><use x="15659.5" y="4346.6" xlink:href="#s50:opensans-extrabolditalic:85"/><use x="16554.5" y="4346.6" xlink:href="#s50:opensans-extrabolditalic:3"/><use x="17086.5" y="4346.6" xlink:href="#s50:opensans-extrabolditalic:86"/><use x="18114.5" y="4346.6" xlink:href="#s50:opensans-extrabolditalic:72"/><use x="19300.5" y="4346.6" xlink:href="#s50:opensans-extrabolditalic:83"/><use x="20543.5" y="4346.6" xlink:href="#s50:opensans-extrabolditalic:68"/><use x="21786.5" y="4346.6" xlink:href="#s50:opensans-extrabolditalic:85"/><use x="22640.5" y="4346.6" xlink:href="#s50:opensans-extrabolditalic:68"/><use x="23883.5" y="4346.6" xlink:href="#s50:opensans-extrabolditalic:87"/><use x="24819.5" y="4346.6" xlink:href="#s50:opensans-extrabolditalic:72"/><use x="26005.5" y="4346.6" xlink:href="#s50:opensans-extrabolditalic:3"/><use x="26537.5" y="4346.6" xlink:href="#s50:opensans-extrabolditalic:72"/><use x="27682.5" y="4346.6" xlink:href="#s50:opensans-extrabolditalic:91"/><use x="28841.5" y="4346.6" xlink:href="#s50:opensans-extrabolditalic:76"/><use x="29507.5" y="4346.6" xlink:href="#s50:opensans-extrabolditalic:86"/><use x="30535.5" y="4346.6" xlink:href="#s50:opensans-extrabolditalic:87"/><use x="31471.5" y="4346.6" xlink:href="#s50:opensans-extrabolditalic:72"/><use x="32657.5" y="4346.6" xlink:href="#s50:opensans-extrabolditalic:81"/><use x="33931.5" y="4346.6" xlink:href="#s50:opensans-extrabolditalic:70"/><use x="34963.5" y="4346.6" xlink:href="#s50:opensans-extrabolditalic:72"/><use x="36149.5" y="4346.6" xlink:href="#s50:opensans-extrabolditalic:3"/><use x="36681.5" y="4346.6" xlink:href="#s50:opensans-extrabolditalic:76"/><use x="37347.5" y="4346.6" xlink:href="#s50:opensans-extrabolditalic:86"/><use x="38375.5" y="4346.6" xlink:href="#s50:opensans-extrabolditalic:3"/><use x="38907.5" y="4346.6" xlink:href="#s50:opensans-extrabolditalic:68"/><use x="40150.5" y="4346.6" xlink:href="#s50:opensans-extrabolditalic:3"/><use x="40682.5" y="4346.6" xlink:href="#s50:opensans-extrabolditalic:80"/><use x="42578.5" y="4346.6" xlink:href="#s50:opensans-extrabolditalic:92"/><use x="43692.5" y="4346.6" xlink:href="#s50:opensans-extrabolditalic:87"/><use x="44628.5" y="4346.6" xlink:href="#s50:opensans-extrabolditalic:75"/><use x="45902.5" y="4346.6" xlink:href="#s50:opensans-extrabolditalic:17"/></g><g id="line-2"><use x="14089.5" y="6804.2" xlink:href="#s50:opensans-extrabolditalic:41"/><use x="15254.5" y="6804.2" xlink:href="#s50:opensans-extrabolditalic:82"/><use x="16497.5" y="6804.2" xlink:href="#s50:opensans-extrabolditalic:85"/><use x="17392.5" y="6804.2" xlink:href="#s50:opensans-extrabolditalic:3"/><use x="17924.5" y="6804.2" xlink:href="#s50:opensans-extrabolditalic:86"/><use x="18952.5" y="6804.2" xlink:href="#s50:opensans-extrabolditalic:70"/><use x="19984.5" y="6804.2" xlink:href="#s50:opensans-extrabolditalic:76"/><use x="20650.5" y="6804.2" xlink:href="#s50:opensans-extrabolditalic:72"/><use x="21836.5" y="6804.2" xlink:href="#s50:opensans-extrabolditalic:81"/><use x="23110.5" y="6804.2" xlink:href="#s50:opensans-extrabolditalic:70"/><use x="24142.5" y="6804.2" xlink:href="#s50:opensans-extrabolditalic:72"/><use x="25328.5" y="6804.2" xlink:href="#s50:opensans-extrabolditalic:15"/><use x="25955.5" y="6804.2" xlink:href="#s50:opensans-extrabolditalic:3"/><use x="26487.5" y="6804.2" xlink:href="#s50:opensans-extrabolditalic:80"/><use x="28383.5" y="6804.2" xlink:href="#s50:opensans-extrabolditalic:88"/><use x="29657.5" y="6804.2" xlink:href="#s50:opensans-extrabolditalic:86"/><use x="30685.5" y="6804.2" xlink:href="#s50:opensans-extrabolditalic:76"/><use x="31351.5" y="6804.2" xlink:href="#s50:opensans-extrabolditalic:70"/><use x="32383.5" y="6804.2" xlink:href="#s50:opensans-extrabolditalic:15"/><use x="33010.5" y="6804.2" xlink:href="#s50:opensans-extrabolditalic:3"/><use x="33542.5" y="6804.2" xlink:href="#s50:opensans-extrabolditalic:86"/><use x="34570.5" y="6804.2" xlink:href="#s50:opensans-extrabolditalic:83"/><use x="35813.5" y="6804.2" xlink:href="#s50:opensans-extrabolditalic:82"/><use x="37056.5" y="6804.2" xlink:href="#s50:opensans-extrabolditalic:85"/><use x="37951.5" y="6804.2" xlink:href="#s50:opensans-extrabolditalic:87"/><use x="38887.5" y="6804.2" xlink:href="#s50:opensans-extrabolditalic:15"/><use x="39514.5" y="6804.2" xlink:href="#s50:opensans-extrabolditalic:3"/><use x="40046.5" y="6804.2" xlink:href="#s50:opensans-extrabolditalic:72"/><use x="41232.5" y="6804.2" xlink:href="#s50:opensans-extrabolditalic:87"/><use x="42168.5" y="6804.2" xlink:href="#s50:opensans-extrabolditalic:70"/><use x="43200.5" y="6804.2" xlink:href="#s50:opensans-extrabolditalic:15"/></g></svg>