<svg xmlns="http://www.w3.org/2000/svg" xmlns:xlink="http://www.w3.org/1999/xlink" width="653" height="87" viewBox="0 0 55730 7404.2"><defs><path id="s48:opensans-bolditalic:55" d="M571 0L266 0L520-1204L168-1204L223-1462L1233-1462L1178-1204L825-1204L571 0Z"/><path id="s48:opensans-bolditalic:75" d="M977 0L676 0L813-653Q829-721 829-772Q829-895 721-895Q629-895 554-781Q479-667 436-463L338 0L37 0L367-1556L668-1556Q629-1375 608-1278Q587-1181 522-969L530-969Q592-1046 668-1092.50Q744-1139 844-1139Q982-1139 1057.50-1055.50Q1133-972 1133-817Q1133-744 1110-637L977 0Z"/><path id="s48:opensans-bolditalic:72" d="M696-922Q608-922 530-842Q452-762 428-647L473-647Q628-647 714.50-695.50Q801-744 801-827Q801-922 696-922M532 20Q322 20 206-93Q90-206 90-412Q90-619 172.50-789.50Q255-960 396-1049.50Q537-1139 715-1139Q892-1139 991-1057.50Q1090-976 1090-834Q1090-647 923-545.50Q756-444 446-444L395-444L393-423L393-403Q393-312 444.50-259.50Q496-207 592-207Q679-207 750-226Q821-245 922-293L922-66Q750 20 532 20Z"/><path id="s48:opensans-bolditalic:3" d=""/><path id="s48:opensans-bolditalic:40" d="M870 0L53 0L362-1462L1180-1462L1126-1208L614-1208L547-887L1024-887L969-633L492-633L412-256L924-256L870 0Z"/><path id="s48:opensans-bolditalic:88" d="M262-1118L563-1118L426-465Q410-397 410-346Q410-223 518-223Q610-223 685-337Q760-451 803-655L901-1118L1202-1118L965 0L735 0L756-207L750-207Q605 20 395 20Q257 20 184-62.50Q111-145 111-301Q111-394 135-514L262-1118Z"/><path id="s48:opensans-bolditalic:85" d="M842-1139Q901-1139 938-1128L872-838Q827-854 772-854Q656-854 568.50-762.50Q481-671 444-500L338 0L37 0L274-1118L504-1118L483-911L489-911Q636-1139 842-1139Z"/><path id="s48:opensans-bolditalic:82" d="M805-696Q805-893 662-893Q587-893 527.50-832Q468-771 430.50-653Q393-535 393-410Q393-225 543-225Q618-225 678-286.50Q738-348 771.50-457.50Q805-567 805-696M1108-696Q1108-485 1037.50-322Q967-159 834-69.50Q701 20 518 20Q323 20 206.50-97.50Q90-215 90-410Q90-623 161.50-789.50Q233-956 368-1047.50Q503-1139 684-1139Q880-1139 994-1021Q1108-903 1108-696Z"/><path id="s48:opensans-bolditalic:83" d="M813-1139Q959-1139 1043.50-1031.50Q1128-924 1128-731Q1128-540 1059.50-363.50Q991-187 872-83.50Q753 20 610 20Q527 20 467-17Q407-54 356-143L348-143Q336 16 305 152L233 492L-68 492L274-1118L504-1118L487-948L496-948Q634-1139 813-1139M692-895Q624-895 560.50-827.50Q497-760 458.50-647.50Q420-535 420-399Q420-319 457-271Q494-223 559-223Q626-223 687-292Q748-361 785.50-481.50Q823-602 823-719Q823-895 692-895Z"/><path id="s48:opensans-bolditalic:68" d="M406 20Q259 20 174.50-86.50Q90-193 90-385Q90-583 162-762.50Q234-942 351-1040.50Q468-1139 608-1139Q705-1139 775.50-1097Q846-1055 885-975L893-975L950-1118L1182-1118L944 0L715 0L729-145L725-145Q591 20 406 20M524-223Q593-223 657-290Q721-357 760-471.50Q799-586 799-731Q799-802 760.50-848.50Q722-895 659-895Q591-895 529.50-823Q468-751 431.50-633Q395-515 395-399Q395-311 428.50-267Q462-223 524-223Z"/><path id="s48:opensans-bolditalic:81" d="M977 0L676 0L813-653Q829-721 829-772Q829-895 721-895Q629-895 554-781Q479-667 436-463L338 0L37 0L274-1118L504-1118L483-911L489-911Q635-1139 844-1139Q982-1139 1057.50-1055.50Q1133-972 1133-817Q1133-744 1110-637L977 0Z"/><path id="s48:opensans-bolditalic:79" d="M338 0L37 0L367-1556L668-1556L338 0Z"/><path id="s48:opensans-bolditalic:74" d="M1186-1116L1151-950L977-909Q993-857 993-791Q993-596 872-482.50Q751-369 543-369Q484-369 444-379Q360-352 360-301Q360-267 390-252Q420-237 479-229L616-211Q779-190 853.50-126.50Q928-63 928 57Q928 268 772 380Q616 492 326 492Q118 492 1.50 416.50Q-115 341-115 209Q-115 107-46.50 33.50Q22-40 168-88Q94-135 94-221Q94-292 138.50-343.50Q183-395 285-442Q220-491 189-554Q158-617 158-707Q158-906 283.50-1022.50Q409-1139 625-1139Q708-1139 791-1116L1186-1116M365 6Q259 20 204.50 63Q150 106 150 172Q150 287 344 287Q495 287 572 242Q649 197 649 115Q649 76 616.50 55Q584 34 479 20L365 6M614-948Q537-948 489.50-871.50Q442-795 442-680Q442-561 545-561Q620-561 666.50-637.50Q713-714 713-831Q713-948 614-948Z"/><path id="s48:opensans-bolditalic:86" d="M829-369Q829-181 704.50-80.50Q580 20 358 20Q251 20 171.50 5Q92-10 23-45L23-293Q180-203 342-203Q422-203 473-235.50Q524-268 524-324Q524-367 487-401Q450-435 356-487Q235-555 187-622.50Q139-690 139-782Q139-952 249.50-1045.50Q360-1139 565-1139Q766-1139 928-1044L829-829Q689-913 571-913Q514-913 479-887.50Q444-862 444-819Q444-780 476-750.50Q508-721 596-676Q719-613 774-539Q829-465 829-369Z"/><path id="s48:opensans-bolditalic:80" d="M844-1139Q1063-1139 1106-911L1112-911Q1180-1021 1272.50-1080Q1365-1139 1470-1139Q1606-1139 1677.50-1054Q1749-969 1749-817Q1749-741 1726-637L1593 0L1292 0L1430-653Q1446-721 1446-772Q1446-895 1348-895Q1256-895 1181.50-783Q1107-671 1063-465L967 0L666 0L803-653Q819-721 819-772Q819-895 721-895Q629-895 554-781Q479-667 436-463L338 0L37 0L274-1118L504-1118L483-911L489-911Q635-1139 844-1139Z"/><path id="s48:opensans-bolditalic:69" d="M813-1139Q959-1139 1043.50-1031Q1128-923 1128-733Q1128-543 1060-365.50Q992-188 873-84Q754 20 610 20Q416 20 334-143L326-143L268 0L37 0L367-1556L668-1556L606-1268Q565-1086 522-969L530-969Q608-1067 672.50-1103Q737-1139 813-1139M692-895Q624-895 562-830Q500-765 460-649.50Q420-534 420-399Q420-319 457-271Q494-223 559-223Q626-223 687-292Q748-361 785.50-481.50Q823-602 823-719Q823-895 692-895Z"/><path id="s48:opensans-bolditalic:73" d="M-45 492Q-149 492-219 467L-219 225Q-158 246-104 246Q-43 246 3 206Q49 166 68 76L272-889L109-889L139-1034L322-1118L340-1202Q381-1392 478.50-1479.50Q576-1567 752-1567Q883-1567 987-1518L907-1294Q838-1325 774-1325Q717-1325 682-1285Q647-1245 635-1180L623-1118L842-1118L793-889L573-889L358 121Q281 492-45 492Z"/><path id="s48:opensans-bolditalic:87" d="M514-223Q579-223 676-258L676-33Q565 20 410 20Q260 20 189.50-43Q119-106 119-238Q119-288 131-350L246-889L94-889L123-1036L319-1120L451-1356L645-1356L596-1118L879-1118L829-889L547-889L432-350Q426-320 426-297Q426-223 514-223Z"/><path id="s48:opensans-bolditalic:76" d="M322-1380Q322-1467 369.50-1511.50Q417-1556 504-1556Q577-1556 615-1525Q653-1494 653-1436Q653-1356 609-1306.50Q565-1257 473-1257Q322-1257 322-1380M338 0L37 0L274-1118L575-1118L338 0Z"/><path id="s48:opensans-bolditalic:92" d="M102-1118L397-1118L453-600Q467-478 467-307L473-307Q493-358 517-426.50Q541-495 582-580L842-1118L1169-1118L489 160Q312 492 6 492Q-84 492-141 473L-141 233Q-73 246-25 246Q59 246 122.50 198Q186 150 240 49L266 0L102-1118Z"/><path id="s48:opensans-bolditalic:17" d="M25-115Q25-205 78.50-259Q132-313 229-313Q297-313 338-275Q379-237 379-168Q379-81 324-27Q269 27 180 27Q107 27 66-10.50Q25-48 25-115Z"/><path id="s48:opensans-bolditalic:91" d="M379-573L154-1118L475-1118L590-784L834-1118L1188-1118L721-557L965 0L639 0L514-342L250 0L-100 0L379-573Z"/><path id="s48:opensans-bolditalic:70" d="M506 20Q305 20 197.50-87.50Q90-195 90-391Q90-603 164.50-776.50Q239-950 374-1044.50Q509-1139 682-1139Q864-1139 1010-1067L918-838Q864-861 812-878Q760-895 694-895Q609-895 540.50-831Q472-767 433.50-655.50Q395-544 395-416Q395-320 440.50-271.50Q486-223 567-223Q643-223 708-246.50Q773-270 842-305L842-59Q690 20 506 20Z"/><path id="s48:opensans-bolditalic:41" d="M358 0L53 0L362-1462L1176-1462L1122-1208L614-1208L535-831L1008-831L952-578L479-578L358 0Z"/><path id="s48:opensans-bolditalic:15" d="M377-238L385-215Q267 40 123 264L-102 264Q-28 97 92-238L377-238Z"/></defs><g id="line-0"><use x="0" y="1889" xlink:href="#s48:opensans-bolditalic:55"/><use x="1087" y="1889" xlink:href="#s48:opensans-bolditalic:75"/><use x="2324" y="1889" xlink:href="#s48:opensans-bolditalic:72"/><use x="3465" y="1889" xlink:href="#s48:opensans-bolditalic:3"/><use x="3997" y="1889" xlink:href="#s48:opensans-bolditalic:40"/><use x="5107" y="1889" xlink:href="#s48:opensans-bolditalic:88"/><use x="6344" y="1889" xlink:href="#s48:opensans-bolditalic:85"/><use x="7165" y="1889" xlink:href="#s48:opensans-bolditalic:82"/><use x="8363" y="1889" xlink:href="#s48:opensans-bolditalic:83"/><use x="9582" y="1889" xlink:href="#s48:opensans-bolditalic:72"/><use x="10723" y="1889" xlink:href="#s48:opensans-bolditalic:68"/><use x="11940" y="1889" xlink:href="#s48:opensans-bolditalic:81"/><use x="13177" y="1889" xlink:href="#s48:opensans-bolditalic:3"/><use x="13709" y="1889" xlink:href="#s48:opensans-bolditalic:79"/><use x="14317" y="1889" xlink:href="#s48:opensans-bolditalic:68"/><use x="15534" y="1889" xlink:href="#s48:opensans-bolditalic:81"/><use x="16771" y="1889" xlink:href="#s48:opensans-bolditalic:74"/><use x="17879" y="1889" xlink:href="#s48:opensans-bolditalic:88"/><use x="19116" y="1889" xlink:href="#s48:opensans-bolditalic:68"/><use x="20333" y="1889" xlink:href="#s48:opensans-bolditalic:74"/><use x="21441" y="1889" xlink:href="#s48:opensans-bolditalic:72"/><use x="22582" y="1889" xlink:href="#s48:opensans-bolditalic:86"/><use x="23551" y="1889" xlink:href="#s48:opensans-bolditalic:3"/><use x="24083" y="1889" xlink:href="#s48:opensans-bolditalic:68"/><use x="25300" y="1889" xlink:href="#s48:opensans-bolditalic:85"/><use x="26121" y="1889" xlink:href="#s48:opensans-bolditalic:72"/><use x="27262" y="1889" xlink:href="#s48:opensans-bolditalic:3"/><use x="27794" y="1889" xlink:href="#s48:opensans-bolditalic:80"/><use x="29647" y="1889" xlink:href="#s48:opensans-bolditalic:72"/><use x="30788" y="1889" xlink:href="#s48:opensans-bolditalic:80"/><use x="32641" y="1889" xlink:href="#s48:opensans-bolditalic:69"/><use x="33860" y="1889" xlink:href="#s48:opensans-bolditalic:72"/><use x="35001" y="1889" xlink:href="#s48:opensans-bolditalic:85"/><use x="35863" y="1889" xlink:href="#s48:opensans-bolditalic:86"/><use x="36832" y="1889" xlink:href="#s48:opensans-bolditalic:3"/><use x="37364" y="1889" xlink:href="#s48:opensans-bolditalic:82"/><use x="38562" y="1889" xlink:href="#s48:opensans-bolditalic:73"/><use x="39326" y="1889" xlink:href="#s48:opensans-bolditalic:3"/><use x="39858" y="1889" xlink:href="#s48:opensans-bolditalic:87"/><use x="40698" y="1889" xlink:href="#s48:opensans-bolditalic:75"/><use x="41935" y="1889" xlink:href="#s48:opensans-bolditalic:72"/><use x="43076" y="1889" xlink:href="#s48:opensans-bolditalic:3"/><use x="43608" y="1889" xlink:href="#s48:opensans-bolditalic:86"/><use x="44577" y="1889" xlink:href="#s48:opensans-bolditalic:68"/><use x="45794" y="1889" xlink:href="#s48:opensans-bolditalic:80"/><use x="47647" y="1889" xlink:href="#s48:opensans-bolditalic:72"/><use x="48788" y="1889" xlink:href="#s48:opensans-bolditalic:3"/><use x="49320" y="1889" xlink:href="#s48:opensans-bolditalic:73"/><use x="50084" y="1889" xlink:href="#s48:opensans-bolditalic:68"/><use x="51301" y="1889" xlink:href="#s48:opensans-bolditalic:80"/><use x="53154" y="1889" xlink:href="#s48:opensans-bolditalic:76"/><use x="53762" y="1889" xlink:href="#s48:opensans-bolditalic:79"/><use x="54370" y="1889" xlink:href="#s48:opensans-bolditalic:92"/><use x="55351" y="1889" xlink:href="#s48:opensans-bolditalic:17"/></g><g id="line-1"><use x="11146" y="4346.6" xlink:href="#s48:opensans-bolditalic:55"/><use x="12233" y="4346.6" xlink:href="#s48:opensans-bolditalic:75"/><use x="13470" y="4346.6" xlink:href="#s48:opensans-bolditalic:72"/><use x="14611" y="4346.6" xlink:href="#s48:opensans-bolditalic:76"/><use x="15219" y="4346.6" xlink:href="#s48:opensans-bolditalic:85"/><use x="16081" y="4346.6" xlink:href="#s48:opensans-bolditalic:3"/><use x="16613" y="4346.6" xlink:href="#s48:opensans-bolditalic:86"/><use x="17582" y="4346.6" xlink:href="#s48:opensans-bolditalic:72"/><use x="18723" y="4346.6" xlink:href="#s48:opensans-bolditalic:83"/><use x="19942" y="4346.6" xlink:href="#s48:opensans-bolditalic:68"/><use x="21159" y="4346.6" xlink:href="#s48:opensans-bolditalic:85"/><use x="21980" y="4346.6" xlink:href="#s48:opensans-bolditalic:68"/><use x="23197" y="4346.6" xlink:href="#s48:opensans-bolditalic:87"/><use x="24037" y="4346.6" xlink:href="#s48:opensans-bolditalic:72"/><use x="25178" y="4346.6" xlink:href="#s48:opensans-bolditalic:3"/><use x="25710" y="4346.6" xlink:href="#s48:opensans-bolditalic:72"/><use x="26810" y="4346.6" xlink:href="#s48:opensans-bolditalic:91"/><use x="27897" y="4346.6" xlink:href="#s48:opensans-bolditalic:76"/><use x="28505" y="4346.6" xlink:href="#s48:opensans-bolditalic:86"/><use x="29474" y="4346.6" xlink:href="#s48:opensans-bolditalic:87"/><use x="30314" y="4346.6" xlink:href="#s48:opensans-bolditalic:72"/><use x="31455" y="4346.6" xlink:href="#s48:opensans-bolditalic:81"/><use x="32692" y="4346.6" xlink:href="#s48:opensans-bolditalic:70"/><use x="33681" y="4346.6" xlink:href="#s48:opensans-bolditalic:72"/><use x="34822" y="4346.6" xlink:href="#s48:opensans-bolditalic:3"/><use x="35354" y="4346.6" xlink:href="#s48:opensans-bolditalic:76"/><use x="35962" y="4346.6" xlink:href="#s48:opensans-bolditalic:86"/><use x="36931" y="4346.6" xlink:href="#s48:opensans-bolditalic:3"/><use x="37463" y="4346.6" xlink:href="#s48:opensans-bolditalic:68"/><use x="38680" y="4346.6" xlink:href="#s48:opensans-bolditalic:3"/><use x="39212" y="4346.6" xlink:href="#s48:opensans-bolditalic:80"/><use x="41065" y="4346.6" xlink:href="#s48:opensans-bolditalic:92"/><use x="42128" y="4346.6" xlink:href="#s48:opensans-bolditalic:87"/><use x="42968" y="4346.6" xlink:href="#s48:opensans-bolditalic:75"/><use x="44205" y="4346.6" xlink:href="#s48:opensans-bolditalic:17"/></g><g id="line-2"><use x="13787.5" y="6804.2" xlink:href="#s48:opensans-bolditalic:41"/><use x="14874.5" y="6804.2" xlink:href="#s48:opensans-bolditalic:82"/><use x="16072.5" y="6804.2" xlink:href="#s48:opensans-bolditalic:85"/><use x="16934.5" y="6804.2" xlink:href="#s48:opensans-bolditalic:3"/><use x="17466.5" y="6804.2" xlink:href="#s48:opensans-bolditalic:86"/><use x="18435.5" y="6804.2" xlink:href="#s48:opensans-bolditalic:70"/><use x="19424.5" y="6804.2" xlink:href="#s48:opensans-bolditalic:76"/><use x="20032.5" y="6804.2" xlink:href="#s48:opensans-bolditalic:72"/><use x="21173.5" y="6804.2" xlink:href="#s48:opensans-bolditalic:81"/><use x="22410.5" y="6804.2" xlink:href="#s48:opensans-bolditalic:70"/><use x="23399.5" y="6804.2" xlink:href="#s48:opensans-bolditalic:72"/><use x="24540.5" y="6804.2" xlink:href="#s48:opensans-bolditalic:15"/><use x="25109.5" y="6804.2" xlink:href="#s48:opensans-bolditalic:3"/><use x="25641.5" y="6804.2" xlink:href="#s48:opensans-bolditalic:80"/><use x="27494.5" y="6804.2" xlink:href="#s48:opensans-bolditalic:88"/><use x="28731.5" y="6804.2" xlink:href="#s48:opensans-bolditalic:86"/><use x="29700.5" y="6804.2" xlink:href="#s48:opensans-bolditalic:76"/><use x="30308.5" y="6804.2" xlink:href="#s48:opensans-bolditalic:70"/><use x="31297.5" y="6804.2" xlink:href="#s48:opensans-bolditalic:15"/><use x="31866.5" y="6804.2" xlink:href="#s48:opensans-bolditalic:3"/><use x="32398.5" y="6804.2" xlink:href="#s48:opensans-bolditalic:86"/><use x="33367.5" y="6804.2" xlink:href="#s48:opensans-bolditalic:83"/><use x="34586.5" y="6804.2" xlink:href="#s48:opensans-bolditalic:82"/><use x="35784.5" y="6804.2" xlink:href="#s48:opensans-bolditalic:85"/><use x="36646.5" y="6804.2" xlink:href="#s48:opensans-bolditalic:87"/><use x="37486.5" y="6804.2" xlink:href="#s48:opensans-bolditalic:15"/><use x="38055.5" y="6804.2" xlink:href="#s48:opensans-bolditalic:3"/><use x="38587.5" y="6804.2" xlink:href="#s48:opensans-bolditalic:72"/><use x="39728.5" y="6804.2" xlink:href="#s48:opensans-bolditalic:87"/><use x="40568.5" y="6804.2" xlink:href="#s48:opensans-bolditalic:70"/><use x="41557.5" y="6804.2" xlink:href="#s48:opensans-bolditalic:15"/></g></svg>