<svg xmlns="http://www.w3.org/2000/svg" xmlns:xlink="http://www.w3.org/1999/xlink" width="465" height="90" viewBox="0 0 19394 3737.5"><defs><path id="s59:oswald-light:167" d="M158-751L-5-751L-5-810L393-810L393-751L234-751L234 0L158 0L158-751Z"/><path id="s59:oswald-light:286" d="M57-810L130-810L130-517Q195-587 271-587Q314-587 337-555Q360-523 360-464L360 0L286 0L286-448Q286-492 272.50-511Q259-530 231-530Q207-530 180.50-515Q154-500 130-475L130 0L57 0L57-810Z"/><path id="s59:oswald-light:256" d="M201 9Q145 9 111-13Q77-35 61-84Q45-133 45-217L45-363Q45-448 61.50-496.50Q78-545 112.50-566Q147-587 202-587Q262-587 294.50-561.50Q327-536 339.50-485Q352-434 352-348L351-296L118-296L118-210Q118-149 125-114Q132-79 150-62.50Q168-46 201-46Q239-46 259.50-70Q280-94 280-157L280-197L351-197L351-165Q351-81 316-36Q281 9 201 9M280-338L280-386Q280-438 274.50-468Q269-498 252-515Q235-532 201-532Q170-532 152-518.50Q134-505 126-471.50Q118-438 118-377L118-338L280-338Z"/><path id="s59:oswald-light:3" d=""/><path id="s59:oswald-light:48" d="M70-810L363-810L363-751L147-751L147-447L323-447L323-391L147-391L147-57L365-57L365 0L70 0L70-810Z"/><path id="s59:oswald-light:383" d="M141 9Q97 9 74-23Q51-55 51-114L51-578L125-578L125-130Q125-86 138.50-67.50Q152-49 180-49Q205-49 231.50-64.50Q258-80 282-106L282-578L355-578L355 0L282 0L282-64Q253-30 217-10.50Q181 9 141 9Z"/><path id="s59:oswald-light:363" d="M61-578L135-578L135-499Q161-542 196.50-563Q232-584 268-584Q277-584 281-583L281-505Q263-511 245-511Q176-511 135-444L135 0L61 0L61-578Z"/><path id="s59:oswald-light:328" d="M199 9Q113 9 79-44.50Q45-98 45-209L45-369Q45-480 79-533.50Q113-587 199-587Q285-587 319-533.50Q353-480 353-369L353-209Q353-98 319-44.50Q285 9 199 9M199-46Q235-46 252.50-65Q270-84 275-117Q280-150 280-205L280-373Q280-428 275-461Q270-494 252.50-513Q235-532 199-532Q163-532 145.50-513Q128-494 123-461.50Q118-429 118-373L118-205Q118-149 123-116.50Q128-84 145.50-65Q163-46 199-46Z"/><path id="s59:oswald-light:359" d="M56-578L129-578L129-530Q174-587 240-587Q316-587 343.50-524.50Q371-462 371-357L371-235Q371-116 340-53.50Q309 9 232 9Q178 9 129-46L129 190L56 190L56-578M221-49Q267-49 282.50-92Q298-135 298-233L298-357Q298-450 282.50-490Q267-530 219-530Q174-530 129-485L129-91Q169-49 221-49Z"/><path id="s59:oswald-light:214" d="M156 9Q104 9 72-28Q40-65 40-120Q40-177 62-213.50Q84-250 131-279Q178-308 273-351L273-392Q273-446 266.50-476Q260-506 244.50-519Q229-532 201-532Q120-532 120-433L120-412L48-414L49-431Q52-513 91-550Q130-587 205-587Q281-587 313.50-541Q346-495 346-396L346-115Q346-87 347.50-51Q349-15 351 0L286 0L275-80Q262-42 230.50-16.50Q199 9 156 9M179-53Q209-53 233.50-73.50Q258-94 273-122L273-302Q203-265 174-246.50Q145-228 129-203Q113-178 113-138Q113-95 131.50-74Q150-53 179-53Z"/><path id="s59:oswald-light:320" d="M56-578L129-578L129-518Q158-550 193.50-568.50Q229-587 268-587Q311-587 334-555Q357-523 357-464L357 0L284 0L284-448Q284-492 270.50-511Q257-530 229-530Q205-530 179-515.50Q153-501 129-476L129 0L56 0L56-578Z"/><path id="s59:oswald-light:311" d="M66-810L139-810L139 0L66 0L66-810Z"/><path id="s59:oswald-light:279" d="M214 190Q120 190 68.50 167.50Q17 145 17 92Q17 50 44.50 15Q72-20 112-41Q86-48 67-62Q48-76 48-91Q48-119 67-148Q86-177 117-209Q79-237 61.50-280.50Q44-324 44-385Q44-473 85-530Q126-587 206-587Q294-587 330-515Q339-530 361-549.50Q383-569 408-580L423-585L443-534Q419-530 389.50-514Q360-498 348-484Q355-465 360.50-434.50Q366-404 366-383Q366-290 328-235.50Q290-181 207-181Q192-181 175.50-183.50Q159-186 148-190Q144-184 133.50-168.50Q123-153 116-139Q109-125 109-116Q109-101 157-93Q165-90 190-86.50Q215-83 228-81Q245-79 249-78Q321-66 357.50-33.50Q394-1 394 56Q394 125 345.50 157.50Q297 190 214 190M207-234Q264-234 283-276Q302-318 302-385Q302-535 207-535Q152-535 131-491Q110-447 110-385Q110-234 207-234M213 131Q270 131 303 112.50Q336 94 336 57Q336 26 313.50 8Q291-10 227-21L153-31Q79 15 79 68Q79 101 110 116Q141 131 213 131Z"/><path id="s59:oswald-light:369" d="M188 9Q120 9 78.50-35Q37-79 31-155L92-174Q98-108 122.50-77Q147-46 191-46Q229-46 250.50-68Q272-90 272-128Q272-184 202-244L123-312Q83-345 63.50-378Q44-411 44-454Q44-517 81-552Q118-587 182-587Q246-587 280.50-546Q315-505 319-435L267-418Q261-532 185-532Q151-532 130.50-513.50Q110-495 111-462Q111-435 121-414.50Q131-394 158-371L240-298Q286-257 311-220.50Q336-184 336-130Q336-64 296-27.50Q256 9 188 9Z"/><path id="s59:oswald-light:318" d="M56-578L124-578L124-519Q152-553 187-570.50Q222-588 260-588Q332-588 352-513Q381-550 417.50-569Q454-588 494-588Q537-588 564.50-557Q592-526 592-456L592 0L524 0L524-454Q524-501 509-519.50Q494-538 466-538Q440-538 411-522Q382-506 357-478Q359-464 359-456L359 0L290 0L290-454Q290-502 275-520Q260-538 232-538Q206-538 178-522Q150-506 124-479L124 0L56 0L56-578Z"/><path id="s59:oswald-light:241" d="M233 9Q177 9 130-46L130 0L57 0L57-810L130-810L130-530Q149-555 177-571Q205-587 240-587Q316-587 344-524Q372-461 372-357L372-235Q372-116 341-53.50Q310 9 233 9M220-49Q267-49 282.50-92Q298-135 298-233L298-357Q298-450 282.50-490Q267-530 219-530Q175-530 130-485L130-91Q168-49 220-49Z"/><path id="s59:oswald-light:277" d="M92-525L18-525L18-578L92-578L92-638Q92-687 99.50-718Q107-749 130-767Q153-785 198-785Q227-785 257-779L257-724Q249-725 236-727Q223-729 216-729Q185-729 175.50-710.50Q166-692 166-645L166-578L259-578L259-525L166-525L166 0L92 0L92-525Z"/><path id="s59:oswald-light:377" d="M193 7Q133 7 111-25.50Q89-58 89-120L89-530L18-530L18-578L89-578L89-757L162-757L162-578L258-578L258-530L162-530L162-127Q162-83 172-66.50Q182-50 213-50Q232-50 255-55L255 1Q224 7 193 7Z"/><path id="s59:oswald-light:289" d="M64-757L137-757L137-658L64-658L64-757M64-578L137-578L137 0L64 0L64-578Z"/><path id="s59:oswald-light:411" d="M40 87Q108 87 132.50 74Q157 61 157 30Q157 18 156 11Q154-5 144-47L139-69Q121-145 96-251Q71-357 49-451Q20-576 20-578L93-578L193-86L290-578L364-578L224 41Q211 96 172 120Q133 144 59 144L40 144L40 87Z"/><path id="s59:oswald-light:567" d="M60-110L137-110L137 0L60 0L60-110Z"/><path id="s59:oswald-light:410" d="M153-302L23-578L95-578L194-366L289-578L363-578L228-294L365 0L295 0L187-227L86 0L16 0L153-302Z"/><path id="s59:oswald-light:243" d="M200 9Q136 9 102-19.50Q68-48 56.50-96.50Q45-145 45-219L45-354Q45-438 58.50-488Q72-538 105.50-562.50Q139-587 200-587Q285-587 316-540.50Q347-494 347-402L347-374L279-374L279-402Q279-453 271.50-481Q264-509 247-520.50Q230-532 200-532Q166-532 148.50-516Q131-500 124.50-465.50Q118-431 118-366L118-204Q118-144 125-110Q132-76 150-61Q168-46 201-46Q235-46 251.50-60.50Q268-75 273.50-104Q279-133 279-185L279-217L347-217L347-189Q347-124 335.50-81.50Q324-39 292-15Q260 9 200 9Z"/><path id="s59:oswald-light:68" d="M71-810L362-810L362-753L147-753L147-448L326-448L326-392L147-392L147 0L71 0L71-810Z"/><path id="s59:oswald-light:562" d="M49 84Q75 69 86 49.50Q97 30 97 0L54 0L54-109L135-109L135-8Q135 41 119 69Q103 97 65 116L49 84Z"/></defs><g id="line-0"><use x="0" y="1048.5" xlink:href="#s59:oswald-light:167"/><use x="388" y="1048.5" xlink:href="#s59:oswald-light:286"/><use x="800" y="1048.5" xlink:href="#s59:oswald-light:256"/><use x="1195" y="1048.5" xlink:href="#s59:oswald-light:3"/><use x="1399" y="1048.5" xlink:href="#s59:oswald-light:48"/><use x="1797" y="1048.5" xlink:href="#s59:oswald-light:383"/><use x="2209" y="1048.5" xlink:href="#s59:oswald-light:363"/><use x="2503" y="1048.5" xlink:href="#s59:oswald-light:328"/><use x="2901" y="1048.5" xlink:href="#s59:oswald-light:359"/><use x="3318" y="1048.5" xlink:href="#s59:oswald-light:256"/><use x="3713" y="1048.5" xlink:href="#s59:oswald-light:214"/><use x="4110" y="1048.5" xlink:href="#s59:oswald-light:320"/><use x="4519" y="1048.5" xlink:href="#s59:oswald-light:3"/><use x="4723" y="1048.5" xlink:href="#s59:oswald-light:311"/><use x="4925" y="1048.5" xlink:href="#s59:oswald-light:214"/><use x="5322" y="1048.5" xlink:href="#s59:oswald-light:320"/><use x="5731" y="1048.5" xlink:href="#s59:oswald-light:279"/><use x="6162" y="1048.5" xlink:href="#s59:oswald-light:383"/><use x="6574" y="1048.5" xlink:href="#s59:oswald-light:214"/><use x="6971" y="1048.5" xlink:href="#s59:oswald-light:279"/><use x="7402" y="1048.5" xlink:href="#s59:oswald-light:256"/><use x="7797" y="1048.5" xlink:href="#s59:oswald-light:369"/><use x="8160" y="1048.5" xlink:href="#s59:oswald-light:3"/><use x="8364" y="1048.5" xlink:href="#s59:oswald-light:214"/><use x="8761" y="1048.5" xlink:href="#s59:oswald-light:363"/><use x="9055" y="1048.5" xlink:href="#s59:oswald-light:256"/><use x="9450" y="1048.5" xlink:href="#s59:oswald-light:3"/><use x="9654" y="1048.5" xlink:href="#s59:oswald-light:318"/><use x="10298" y="1048.5" xlink:href="#s59:oswald-light:256"/><use x="10693" y="1048.5" xlink:href="#s59:oswald-light:318"/><use x="11337" y="1048.5" xlink:href="#s59:oswald-light:241"/><use x="11753" y="1048.5" xlink:href="#s59:oswald-light:256"/><use x="12148" y="1048.5" xlink:href="#s59:oswald-light:363"/><use x="12445" y="1048.5" xlink:href="#s59:oswald-light:369"/><use x="12808" y="1048.5" xlink:href="#s59:oswald-light:3"/><use x="13012" y="1048.5" xlink:href="#s59:oswald-light:328"/><use x="13410" y="1048.5" xlink:href="#s59:oswald-light:277"/><use x="13678" y="1048.5" xlink:href="#s59:oswald-light:3"/><use x="13882" y="1048.5" xlink:href="#s59:oswald-light:377"/><use x="14162" y="1048.5" xlink:href="#s59:oswald-light:286"/><use x="14574" y="1048.5" xlink:href="#s59:oswald-light:256"/><use x="14969" y="1048.5" xlink:href="#s59:oswald-light:3"/><use x="15173" y="1048.5" xlink:href="#s59:oswald-light:369"/><use x="15536" y="1048.5" xlink:href="#s59:oswald-light:214"/><use x="15933" y="1048.5" xlink:href="#s59:oswald-light:318"/><use x="16577" y="1048.5" xlink:href="#s59:oswald-light:256"/><use x="16972" y="1048.5" xlink:href="#s59:oswald-light:3"/><use x="17176" y="1048.5" xlink:href="#s59:oswald-light:277"/><use x="17444" y="1048.5" xlink:href="#s59:oswald-light:214"/><use x="17841" y="1048.5" xlink:href="#s59:oswald-light:318"/><use x="18485" y="1048.5" xlink:href="#s59:oswald-light:289"/><use x="18689" y="1048.5" xlink:href="#s59:oswald-light:311"/><use x="18891" y="1048.5" xlink:href="#s59:oswald-light:411"/><use x="19257" y="1048.5" xlink:href="#s59:oswald-light:567"/></g><g id="line-1"><use x="3860" y="2248.5" xlink:href="#s59:oswald-light:167"/><use x="4248" y="2248.5" xlink:href="#s59:oswald-light:286"/><use x="4660" y="2248.5" xlink:href="#s59:oswald-light:256"/><use x="5055" y="2248.5" xlink:href="#s59:oswald-light:289"/><use x="5259" y="2248.5" xlink:href="#s59:oswald-light:363"/><use x="5556" y="2248.5" xlink:href="#s59:oswald-light:3"/><use x="5760" y="2248.5" xlink:href="#s59:oswald-light:369"/><use x="6123" y="2248.5" xlink:href="#s59:oswald-light:256"/><use x="6518" y="2248.5" xlink:href="#s59:oswald-light:359"/><use x="6935" y="2248.5" xlink:href="#s59:oswald-light:214"/><use x="7332" y="2248.5" xlink:href="#s59:oswald-light:363"/><use x="7627" y="2248.5" xlink:href="#s59:oswald-light:214"/><use x="8019" y="2248.5" xlink:href="#s59:oswald-light:377"/><use x="8299" y="2248.5" xlink:href="#s59:oswald-light:256"/><use x="8694" y="2248.5" xlink:href="#s59:oswald-light:3"/><use x="8898" y="2248.5" xlink:href="#s59:oswald-light:256"/><use x="9289" y="2248.5" xlink:href="#s59:oswald-light:410"/><use x="9669" y="2248.5" xlink:href="#s59:oswald-light:289"/><use x="9873" y="2248.5" xlink:href="#s59:oswald-light:369"/><use x="10236" y="2248.5" xlink:href="#s59:oswald-light:377"/><use x="10516" y="2248.5" xlink:href="#s59:oswald-light:256"/><use x="10911" y="2248.5" xlink:href="#s59:oswald-light:320"/><use x="11320" y="2248.5" xlink:href="#s59:oswald-light:243"/><use x="11709" y="2248.5" xlink:href="#s59:oswald-light:256"/><use x="12104" y="2248.5" xlink:href="#s59:oswald-light:3"/><use x="12308" y="2248.5" xlink:href="#s59:oswald-light:289"/><use x="12512" y="2248.5" xlink:href="#s59:oswald-light:369"/><use x="12875" y="2248.5" xlink:href="#s59:oswald-light:3"/><use x="13079" y="2248.5" xlink:href="#s59:oswald-light:214"/><use x="13476" y="2248.5" xlink:href="#s59:oswald-light:3"/><use x="13680" y="2248.5" xlink:href="#s59:oswald-light:318"/><use x="14324" y="2248.5" xlink:href="#s59:oswald-light:411"/><use x="14705" y="2248.5" xlink:href="#s59:oswald-light:377"/><use x="14985" y="2248.5" xlink:href="#s59:oswald-light:286"/><use x="15397" y="2248.5" xlink:href="#s59:oswald-light:567"/></g><g id="line-2"><use x="4726.5" y="3448.5" xlink:href="#s59:oswald-light:68"/><use x="5107.5" y="3448.5" xlink:href="#s59:oswald-light:328"/><use x="5505.5" y="3448.5" xlink:href="#s59:oswald-light:363"/><use x="5802.5" y="3448.5" xlink:href="#s59:oswald-light:3"/><use x="6006.5" y="3448.5" xlink:href="#s59:oswald-light:369"/><use x="6369.5" y="3448.5" xlink:href="#s59:oswald-light:243"/><use x="6758.5" y="3448.5" xlink:href="#s59:oswald-light:289"/><use x="6962.5" y="3448.5" xlink:href="#s59:oswald-light:256"/><use x="7357.5" y="3448.5" xlink:href="#s59:oswald-light:320"/><use x="7766.5" y="3448.5" xlink:href="#s59:oswald-light:243"/><use x="8155.5" y="3448.5" xlink:href="#s59:oswald-light:256"/><use x="8550.5" y="3448.5" xlink:href="#s59:oswald-light:562"/><use x="8731.5" y="3448.5" xlink:href="#s59:oswald-light:3"/><use x="8935.5" y="3448.5" xlink:href="#s59:oswald-light:318"/><use x="9579.5" y="3448.5" xlink:href="#s59:oswald-light:383"/><use x="9991.5" y="3448.5" xlink:href="#s59:oswald-light:369"/><use x="10354.5" y="3448.5" xlink:href="#s59:oswald-light:289"/><use x="10558.5" y="3448.5" xlink:href="#s59:oswald-light:243"/><use x="10945.5" y="3448.5" xlink:href="#s59:oswald-light:562"/><use x="11126.5" y="3448.5" xlink:href="#s59:oswald-light:3"/><use x="11330.5" y="3448.5" xlink:href="#s59:oswald-light:369"/><use x="11693.5" y="3448.5" xlink:href="#s59:oswald-light:359"/><use x="12110.5" y="3448.5" xlink:href="#s59:oswald-light:328"/><use x="12508.5" y="3448.5" xlink:href="#s59:oswald-light:363"/><use x="12805.5" y="3448.5" xlink:href="#s59:oswald-light:377"/><use x="13085.5" y="3448.5" xlink:href="#s59:oswald-light:562"/><use x="13266.5" y="3448.5" xlink:href="#s59:oswald-light:3"/><use x="13470.5" y="3448.5" xlink:href="#s59:oswald-light:256"/><use x="13865.5" y="3448.5" xlink:href="#s59:oswald-light:377"/><use x="14145.5" y="3448.5" xlink:href="#s59:oswald-light:243"/><use x="14532.5" y="3448.5" xlink:href="#s59:oswald-light:562"/></g></svg>