<svg xmlns="http://www.w3.org/2000/svg" xmlns:xlink="http://www.w3.org/1999/xlink" width="446" height="90" viewBox="0 0 18584 3737.5"><defs><path id="s58:oswald-extralight:167" d="M165-766L-7-766L-7-810L387-810L387-766L219-766L219 0L165 0L165-766Z"/><path id="s58:oswald-extralight:286" d="M57-810L110-810L110-517Q139-550 174.50-568.50Q210-587 248-587Q289-587 314-556.50Q339-526 339-461L339 0L285 0L285-455Q285-506 270-526Q255-546 225-546Q197-546 167-529Q137-512 110-482L110 0L57 0L57-810Z"/><path id="s58:oswald-extralight:256" d="M193 9Q144 9 112-10Q80-29 63-78Q46-127 46-214L46-368Q46-455 63.50-503Q81-551 113-569Q145-587 194-587Q248-587 279-564Q310-541 323-491.50Q336-442 336-357L335-302L99-302L99-210Q99-141 108.50-102Q118-63 138-47Q158-31 193-31Q234-31 259-54.50Q284-78 284-152L284-195L336-195L336-157Q336-77 303.50-34Q271 9 193 9M284-334L284-379Q284-438 278-473Q272-508 252.50-527.50Q233-547 194-547Q160-547 139.50-533Q119-519 109-482Q99-445 99-378L99-334L284-334Z"/><path id="s58:oswald-extralight:3" d=""/><path id="s58:oswald-extralight:48" d="M74-810L354-810L354-766L129-766L129-441L314-441L314-399L129-399L129-43L357-43L357 0L74 0L74-810Z"/><path id="s58:oswald-extralight:383" d="M143 9Q101 9 76.50-21.50Q52-52 52-117L52-578L105-578L105-123Q105-73 120.50-52.50Q136-32 166-32Q196-32 227-51Q258-70 285-102L285-578L337-578L337 0L285 0L285-68Q257-32 220-11.50Q183 9 143 9Z"/><path id="s58:oswald-extralight:363" d="M64-578L117-578L117-500Q141-540 179.50-562Q218-584 254-584L264-583L264-528Q257-531 242-531Q162-531 117-457L117 0L64 0L64-578Z"/><path id="s58:oswald-extralight:328" d="M191 9Q108 9 77-43.50Q46-96 46-211L46-367Q46-481 77-534Q108-587 191-587Q274-587 305.50-534.50Q337-482 337-367L337-211Q337-96 305.50-43.50Q274 9 191 9M191-31Q231-31 251.50-51.50Q272-72 278-109Q284-146 284-209L284-369Q284-432 278-469Q272-506 251.50-526.50Q231-547 191-547Q151-547 131-526.50Q111-506 105-469.50Q99-433 99-369L99-209Q99-145 105-108.50Q111-72 131-51.50Q151-31 191-31Z"/><path id="s58:oswald-extralight:359" d="M57-578L110-578L110-529Q156-587 221-587Q296-587 324-527.50Q352-468 352-349L352-238Q352-111 321.50-51Q291 9 216 9Q156 9 110-48L110 190L57 190L57-578M210-32Q246-32 265-53Q284-74 291.50-118Q299-162 299-236L299-349Q299-423 292-464.50Q285-506 266-526Q247-546 210-546Q159-546 110-492L110-84Q129-61 155-46.50Q181-32 210-32Z"/><path id="s58:oswald-extralight:214" d="M154 9Q102 9 70-26Q38-61 38-117Q38-168 56-200.50Q74-233 122.50-264.50Q171-296 274-345L274-386Q274-449 266.50-484Q259-519 241.50-533Q224-547 194-547Q153-547 127.50-524Q102-501 102-438L102-422L50-423L50-438Q52-517 88.50-552Q125-587 196-587Q268-587 297.50-541.50Q327-496 327-392L327-101Q327-80 328-43.50Q329-7 330 0L284 0L275-77Q262-40 229-15.50Q196 9 154 9M167-35Q202-35 229.50-58Q257-81 274-116L274-306Q187-261 154.50-240.50Q122-220 106.50-194.50Q91-169 91-125Q91-77 113-56Q135-35 167-35Z"/><path id="s58:oswald-extralight:320" d="M57-578L110-578L110-516Q138-549 173-568Q208-587 247-587Q288-587 313-556.50Q338-526 338-461L338 0L285 0L285-455Q285-505 269.50-525.50Q254-546 224-546Q196-546 166.50-529Q137-512 110-482L110 0L57 0L57-578Z"/><path id="s58:oswald-extralight:311" d="M67-810L120-810L120 0L67 0L67-810Z"/><path id="s58:oswald-extralight:279" d="M202 196Q15 196 15 94Q15 53 45.50 17Q76-19 118-41Q91-47 69.50-58.50Q48-70 48-84Q48-110 69-142Q90-174 120-209Q44-264 44-388Q44-439 61-484Q78-529 114.50-558Q151-587 205-587Q292-587 333-510Q343-529 364.50-548.50Q386-568 411-578L425-583L440-543Q414-537 388-520.50Q362-504 347-485Q354-466 360-435.50Q366-405 366-387Q366-295 327-239.50Q288-184 207-184Q190-184 172.50-187Q155-190 145-194L131-172Q94-120 94-101Q94-90 142-81Q160-76 177.50-72.50Q195-69 209-66L236-61Q311-45 349.50-15Q388 15 388 68Q388 132 335.50 164Q283 196 202 196M207-223Q317-223 317-388Q317-449 292-498.50Q267-548 206-548Q145-548 119-496.50Q93-445 93-388Q93-324 117-273.50Q141-223 207-223M202 153Q265 153 304 132Q343 111 343 69Q343 46 333 30.50Q323 15 295.50 2.50Q268-10 216-21L153-32Q115-10 88 17.50Q61 45 61 81Q61 118 96.50 135.50Q132 153 202 153Z"/><path id="s58:oswald-extralight:369" d="M188 9Q120 9 80-35Q40-79 34-156L79-169Q84-98 112-64.50Q140-31 190-31Q234-31 258-55.50Q282-80 282-125Q280-189 197-260L130-317Q86-354 66.50-387Q47-420 47-461Q47-521 82-554Q117-587 178-587Q241-587 274-547Q307-507 309-436L270-424Q266-547 181-547Q142-547 118.50-527Q95-507 96-470Q96-436 108-412.50Q120-389 155-360L224-299Q275-255 301.50-217.50Q328-180 329-124Q329-62 291-26.50Q253 9 188 9Z"/><path id="s58:oswald-extralight:318" d="M57-578L107-578L107-517Q135-551 170-569.50Q205-588 243-588Q315-588 333-511Q362-548 398-568Q434-588 474-588Q516-588 543-558.50Q570-529 570-457L570 0L519 0L519-458Q519-510 503-530Q487-550 457-550Q427-550 396-532Q365-514 337-482Q339-468 339-457L339 0L288 0L288-458Q288-510 272-530Q256-550 226-550Q197-550 166-532Q135-514 107-483L107 0L57 0L57-578Z"/><path id="s58:oswald-extralight:241" d="M216 9Q156 9 110-48L110 0L57 0L57-810L110-810L110-529Q128-554 156.50-570.50Q185-587 221-587Q296-587 324-527.50Q352-468 352-349L352-238Q352-111 321.50-51Q291 9 216 9M209-32Q245-32 264-53Q283-74 290.50-117.50Q298-161 298-236L298-349Q298-423 291.50-464.50Q285-506 266-526Q247-546 210-546Q159-546 110-492L110-84Q154-32 209-32Z"/><path id="s58:oswald-extralight:277" d="M95-541L17-541L17-578L95-578L95-656Q95-699 101-726.50Q107-754 127.50-770.50Q148-787 189-787Q220-787 242-780L242-740Q236-741 222.50-743.50Q209-746 200-746Q168-746 158-726.50Q148-707 148-657L148-578L245-578L245-541L148-541L148 0L95 0L95-541Z"/><path id="s58:oswald-extralight:377" d="M184 6Q128 6 110-24.50Q92-55 92-114L92-543L16-543L16-578L92-578L92-763L145-763L145-578L243-578L243-543L145-543L145-121Q145-72 154.50-54Q164-36 195-36Q215-36 238-41L238 0Q214 6 184 6Z"/><path id="s58:oswald-extralight:289" d="M65-746L119-746L119-654L65-654L65-746M65-578L119-578L119 0L65 0L65-578Z"/><path id="s58:oswald-extralight:411" d="M37 101Q92 101 119.50 92Q147 83 155.50 66.50Q164 50 162 21Q161 12 157.50-5Q154-22 152-30Q150-37 145-59L24-578L76-578L190-50L300-578L353-578L212 47Q200 98 164.50 121Q129 144 59 144L37 144L37 101Z"/><path id="s58:oswald-extralight:567" d="M66-104L125-104L125 0L66 0L66-104Z"/><path id="s58:oswald-extralight:410" d="M161-301L29-578L83-578L191-349L298-578L353-578L216-296L355 0L305 0L187-246L72 0L20 0L161-301Z"/><path id="s58:oswald-extralight:243" d="M192 9Q130 9 98.50-19.50Q67-48 56.50-96Q46-144 46-217L46-353Q46-441 59-491Q72-541 103.50-564Q135-587 192-587Q275-587 304-539Q333-491 333-400L333-377L283-377L283-400Q283-458 273.50-490Q264-522 244.50-534.50Q225-547 192-547Q153-547 133-529Q113-511 106-471.50Q99-432 99-359L99-209Q99-143 107-105Q115-67 135-49Q155-31 193-31Q231-31 250.50-47.50Q270-64 276.50-98Q283-132 283-194L283-216L333-216L333-195Q333-128 323-85Q313-42 282.50-16.50Q252 9 192 9Z"/><path id="s58:oswald-extralight:68" d="M75-810L354-810L354-767L129-767L129-441L323-441L323-399L129-399L129 0L75 0L75-810Z"/><path id="s58:oswald-extralight:562" d="M55 84Q80 66 88.50 48.50Q97 31 97 0L61 0L61-105L125-105L125-11Q125 36 113 61.50Q101 87 69 107L55 84Z"/></defs><g id="line-0"><use x="0" y="1048.5" xlink:href="#s58:oswald-extralight:167"/><use x="380" y="1048.5" xlink:href="#s58:oswald-extralight:286"/><use x="772" y="1048.5" xlink:href="#s58:oswald-extralight:256"/><use x="1151" y="1048.5" xlink:href="#s58:oswald-extralight:3"/><use x="1340" y="1048.5" xlink:href="#s58:oswald-extralight:48"/><use x="1733" y="1048.5" xlink:href="#s58:oswald-extralight:383"/><use x="2128" y="1048.5" xlink:href="#s58:oswald-extralight:363"/><use x="2407" y="1048.5" xlink:href="#s58:oswald-extralight:328"/><use x="2790" y="1048.5" xlink:href="#s58:oswald-extralight:359"/><use x="3190" y="1048.5" xlink:href="#s58:oswald-extralight:256"/><use x="3569" y="1048.5" xlink:href="#s58:oswald-extralight:214"/><use x="3948" y="1048.5" xlink:href="#s58:oswald-extralight:320"/><use x="4339" y="1048.5" xlink:href="#s58:oswald-extralight:3"/><use x="4528" y="1048.5" xlink:href="#s58:oswald-extralight:311"/><use x="4714" y="1048.5" xlink:href="#s58:oswald-extralight:214"/><use x="5093" y="1048.5" xlink:href="#s58:oswald-extralight:320"/><use x="5484" y="1048.5" xlink:href="#s58:oswald-extralight:279"/><use x="5913" y="1048.5" xlink:href="#s58:oswald-extralight:383"/><use x="6308" y="1048.5" xlink:href="#s58:oswald-extralight:214"/><use x="6687" y="1048.5" xlink:href="#s58:oswald-extralight:279"/><use x="7116" y="1048.5" xlink:href="#s58:oswald-extralight:256"/><use x="7495" y="1048.5" xlink:href="#s58:oswald-extralight:369"/><use x="7851" y="1048.5" xlink:href="#s58:oswald-extralight:3"/><use x="8040" y="1048.5" xlink:href="#s58:oswald-extralight:214"/><use x="8419" y="1048.5" xlink:href="#s58:oswald-extralight:363"/><use x="8698" y="1048.5" xlink:href="#s58:oswald-extralight:256"/><use x="9077" y="1048.5" xlink:href="#s58:oswald-extralight:3"/><use x="9266" y="1048.5" xlink:href="#s58:oswald-extralight:318"/><use x="9889" y="1048.5" xlink:href="#s58:oswald-extralight:256"/><use x="10268" y="1048.5" xlink:href="#s58:oswald-extralight:318"/><use x="10891" y="1048.5" xlink:href="#s58:oswald-extralight:241"/><use x="11288" y="1048.5" xlink:href="#s58:oswald-extralight:256"/><use x="11667" y="1048.5" xlink:href="#s58:oswald-extralight:363"/><use x="11950" y="1048.5" xlink:href="#s58:oswald-extralight:369"/><use x="12306" y="1048.5" xlink:href="#s58:oswald-extralight:3"/><use x="12495" y="1048.5" xlink:href="#s58:oswald-extralight:328"/><use x="12878" y="1048.5" xlink:href="#s58:oswald-extralight:277"/><use x="13134" y="1048.5" xlink:href="#s58:oswald-extralight:3"/><use x="13323" y="1048.5" xlink:href="#s58:oswald-extralight:377"/><use x="13586" y="1048.5" xlink:href="#s58:oswald-extralight:286"/><use x="13978" y="1048.5" xlink:href="#s58:oswald-extralight:256"/><use x="14357" y="1048.5" xlink:href="#s58:oswald-extralight:3"/><use x="14546" y="1048.5" xlink:href="#s58:oswald-extralight:369"/><use x="14902" y="1048.5" xlink:href="#s58:oswald-extralight:214"/><use x="15281" y="1048.5" xlink:href="#s58:oswald-extralight:318"/><use x="15904" y="1048.5" xlink:href="#s58:oswald-extralight:256"/><use x="16283" y="1048.5" xlink:href="#s58:oswald-extralight:3"/><use x="16472" y="1048.5" xlink:href="#s58:oswald-extralight:277"/><use x="16728" y="1048.5" xlink:href="#s58:oswald-extralight:214"/><use x="17107" y="1048.5" xlink:href="#s58:oswald-extralight:318"/><use x="17730" y="1048.5" xlink:href="#s58:oswald-extralight:289"/><use x="17919" y="1048.5" xlink:href="#s58:oswald-extralight:311"/><use x="18105" y="1048.5" xlink:href="#s58:oswald-extralight:411"/><use x="18459" y="1048.5" xlink:href="#s58:oswald-extralight:567"/></g><g id="line-1"><use x="3710.5" y="2248.5" xlink:href="#s58:oswald-extralight:167"/><use x="4090.5" y="2248.5" xlink:href="#s58:oswald-extralight:286"/><use x="4482.5" y="2248.5" xlink:href="#s58:oswald-extralight:256"/><use x="4861.5" y="2248.5" xlink:href="#s58:oswald-extralight:289"/><use x="5050.5" y="2248.5" xlink:href="#s58:oswald-extralight:363"/><use x="5333.5" y="2248.5" xlink:href="#s58:oswald-extralight:3"/><use x="5522.5" y="2248.5" xlink:href="#s58:oswald-extralight:369"/><use x="5878.5" y="2248.5" xlink:href="#s58:oswald-extralight:256"/><use x="6257.5" y="2248.5" xlink:href="#s58:oswald-extralight:359"/><use x="6657.5" y="2248.5" xlink:href="#s58:oswald-extralight:214"/><use x="7036.5" y="2248.5" xlink:href="#s58:oswald-extralight:363"/><use x="7316.5" y="2248.5" xlink:href="#s58:oswald-extralight:214"/><use x="7693.5" y="2248.5" xlink:href="#s58:oswald-extralight:377"/><use x="7956.5" y="2248.5" xlink:href="#s58:oswald-extralight:256"/><use x="8335.5" y="2248.5" xlink:href="#s58:oswald-extralight:3"/><use x="8524.5" y="2248.5" xlink:href="#s58:oswald-extralight:256"/><use x="8897.5" y="2248.5" xlink:href="#s58:oswald-extralight:410"/><use x="9272.5" y="2248.5" xlink:href="#s58:oswald-extralight:289"/><use x="9461.5" y="2248.5" xlink:href="#s58:oswald-extralight:369"/><use x="9817.5" y="2248.5" xlink:href="#s58:oswald-extralight:377"/><use x="10080.5" y="2248.5" xlink:href="#s58:oswald-extralight:256"/><use x="10459.5" y="2248.5" xlink:href="#s58:oswald-extralight:320"/><use x="10850.5" y="2248.5" xlink:href="#s58:oswald-extralight:243"/><use x="11225.5" y="2248.5" xlink:href="#s58:oswald-extralight:256"/><use x="11604.5" y="2248.5" xlink:href="#s58:oswald-extralight:3"/><use x="11793.5" y="2248.5" xlink:href="#s58:oswald-extralight:289"/><use x="11982.5" y="2248.5" xlink:href="#s58:oswald-extralight:369"/><use x="12338.5" y="2248.5" xlink:href="#s58:oswald-extralight:3"/><use x="12527.5" y="2248.5" xlink:href="#s58:oswald-extralight:214"/><use x="12906.5" y="2248.5" xlink:href="#s58:oswald-extralight:3"/><use x="13095.5" y="2248.5" xlink:href="#s58:oswald-extralight:318"/><use x="13718.5" y="2248.5" xlink:href="#s58:oswald-extralight:411"/><use x="14093.5" y="2248.5" xlink:href="#s58:oswald-extralight:377"/><use x="14356.5" y="2248.5" xlink:href="#s58:oswald-extralight:286"/><use x="14748.5" y="2248.5" xlink:href="#s58:oswald-extralight:567"/></g><g id="line-2"><use x="4525" y="3448.5" xlink:href="#s58:oswald-extralight:68"/><use x="4901" y="3448.5" xlink:href="#s58:oswald-extralight:328"/><use x="5284" y="3448.5" xlink:href="#s58:oswald-extralight:363"/><use x="5567" y="3448.5" xlink:href="#s58:oswald-extralight:3"/><use x="5756" y="3448.5" xlink:href="#s58:oswald-extralight:369"/><use x="6112" y="3448.5" xlink:href="#s58:oswald-extralight:243"/><use x="6487" y="3448.5" xlink:href="#s58:oswald-extralight:289"/><use x="6676" y="3448.5" xlink:href="#s58:oswald-extralight:256"/><use x="7055" y="3448.5" xlink:href="#s58:oswald-extralight:320"/><use x="7446" y="3448.5" xlink:href="#s58:oswald-extralight:243"/><use x="7821" y="3448.5" xlink:href="#s58:oswald-extralight:256"/><use x="8200" y="3448.5" xlink:href="#s58:oswald-extralight:562"/><use x="8377" y="3448.5" xlink:href="#s58:oswald-extralight:3"/><use x="8566" y="3448.5" xlink:href="#s58:oswald-extralight:318"/><use x="9189" y="3448.5" xlink:href="#s58:oswald-extralight:383"/><use x="9584" y="3448.5" xlink:href="#s58:oswald-extralight:369"/><use x="9940" y="3448.5" xlink:href="#s58:oswald-extralight:289"/><use x="10129" y="3448.5" xlink:href="#s58:oswald-extralight:243"/><use x="10502" y="3448.5" xlink:href="#s58:oswald-extralight:562"/><use x="10679" y="3448.5" xlink:href="#s58:oswald-extralight:3"/><use x="10868" y="3448.5" xlink:href="#s58:oswald-extralight:369"/><use x="11224" y="3448.5" xlink:href="#s58:oswald-extralight:359"/><use x="11624" y="3448.5" xlink:href="#s58:oswald-extralight:328"/><use x="12007" y="3448.5" xlink:href="#s58:oswald-extralight:363"/><use x="12290" y="3448.5" xlink:href="#s58:oswald-extralight:377"/><use x="12553" y="3448.5" xlink:href="#s58:oswald-extralight:562"/><use x="12730" y="3448.5" xlink:href="#s58:oswald-extralight:3"/><use x="12919" y="3448.5" xlink:href="#s58:oswald-extralight:256"/><use x="13298" y="3448.5" xlink:href="#s58:oswald-extralight:377"/><use x="13561" y="3448.5" xlink:href="#s58:oswald-extralight:243"/><use x="13934" y="3448.5" xlink:href="#s58:oswald-extralight:562"/></g></svg>