<svg xmlns="http://www.w3.org/2000/svg" xmlns:xlink="http://www.w3.org/1999/xlink" width="531" height="90" viewBox="0 0 22126 3737.5"><defs><path id="s60:oswald-medium:167" d="M140-701L5-701L5-810L420-810L420-701L287-701L287 0L140 0L140-701Z"/><path id="s60:oswald-medium:286" d="M54-810L190-810L190-522Q255-587 333-587Q382-587 405.50-551Q429-515 429-460L429 0L294 0L294-433Q294-461 285.50-474Q277-487 255-487Q226-486 190-458L190 0L54 0L54-810Z"/><path id="s60:oswald-medium:256" d="M227 9Q131 9 86-44.50Q41-98 41-203L41-375Q41-481 86.50-534Q132-587 227-587Q325-587 365.50-532Q406-477 406-366L406-283L176-283L176-193Q176-139 185.50-114Q195-89 227-89Q254-89 265.50-107.50Q277-126 277-164L277-213L405-213L405-173Q405-84 360-37.50Q315 9 227 9M277-350L277-405Q277-450 266-469.50Q255-489 227-489Q198-489 187-468Q176-447 176-390L176-350L277-350Z"/><path id="s60:oswald-medium:3" d=""/><path id="s60:oswald-medium:48" d="M61-810L401-810L401-706L208-706L208-473L360-473L360-370L208-370L208-101L403-101L403 0L61 0L61-810Z"/><path id="s60:oswald-medium:383" d="M145 9Q96 9 72-27Q48-63 48-118L48-578L183-578L183-143Q183-116 192-102Q201-88 223-88Q248-89 284-115L284-578L420-578L420 0L284 0L284-55Q217 9 145 9Z"/><path id="s60:oswald-medium:363" d="M55-578L191-578L191-489Q245-585 312-585Q320-585 333-582L333-452Q312-459 291-459Q260-458 236-443Q212-428 191-395L191 0L55 0L55-578Z"/><path id="s60:oswald-medium:328" d="M227 9Q134 9 87.50-42.50Q41-94 41-192L41-386Q41-484 87.50-535.50Q134-587 227-587Q320-587 366.50-535Q413-483 413-386L413-192Q413-95 366.50-43Q320 9 227 9M227-85Q258-85 268-109.50Q278-134 278-182L278-395Q278-443 268-468Q258-493 227-493Q196-493 186-468Q176-443 176-395L176-182Q176-134 186-109.50Q196-85 227-85Z"/><path id="s60:oswald-medium:359" d="M52-578L188-578L188-534Q243-587 303-587Q375-587 404.50-529.50Q434-472 434-394L434-198Q434-105 401.50-48Q369 9 299 9Q243 9 188-43L188 190L52 190L52-578M248-86Q277-86 287.50-114Q298-142 298-193L298-401Q298-496 247-496Q221-496 188-471L188-106Q216-86 248-86Z"/><path id="s60:oswald-medium:214" d="M164 9Q127 9 98.50-11Q70-31 54.50-62.50Q39-94 39-128Q39-193 68-234.50Q97-276 139-299.50Q181-323 249-350L272-359L272-409Q272-449 262.50-467.50Q253-486 226-486Q180-486 178-422L176-387L47-392L48-412Q54-502 101.50-544.50Q149-587 237-587Q322-587 363-540.50Q404-494 404-409L404-142Q404-83 414 0L292 0Q282-54 278-83Q266-44 237.50-17.50Q209 9 164 9M214-92Q231-92 247-104Q263-116 272-130L272-292Q167-235 167-161Q167-129 179.50-110.50Q192-92 214-92Z"/><path id="s60:oswald-medium:320" d="M52-578L188-578L188-521Q257-587 328-587Q377-587 401.50-551Q426-515 426-460L426 0L290 0L290-433Q290-461 281.50-474Q273-487 251-487Q225-486 188-459L188 0L52 0L52-578Z"/><path id="s60:oswald-medium:311" d="M61-810L196-810L196 0L61 0L61-810Z"/><path id="s60:oswald-medium:279" d="M252 176Q151 176 86.50 156.50Q22 137 22 75Q22 37 46 6Q70-25 105-47Q70-59 55-77Q40-95 40-119Q40-146 56.50-168Q73-190 108-220Q76-245 59.50-281.50Q43-318 43-378Q43-482 90.50-534.50Q138-587 227-587Q318-587 352-530Q389-573 431-593L450-601L482-528Q464-523 431-509Q398-495 385-486Q394-468 401.50-438Q409-408 409-377Q409-283 366.50-230.50Q324-178 233-178Q192-178 158-190Q137-162 139-148Q139-130 190-124Q204-121 262-115Q273-114 299-111Q374-102 408-68Q442-34 442 29Q442 103 397 139.50Q352 176 252 176M228-264Q263-264 274-291Q285-318 285-382Q285-447 275-474Q265-501 229-501Q193-501 182-473Q171-445 171-382Q171-323 182.50-293.50Q194-264 228-264M250 84Q294 84 314.50 73Q335 62 336 37Q338 10 323-2.50Q308-15 266-19L178-29Q163-12 153.50 4Q144 20 144 38Q144 63 166 73.50Q188 84 250 84Z"/><path id="s60:oswald-medium:369" d="M205 9Q133 9 87-30Q41-69 22-144L123-183Q146-86 204-86Q227-86 241-99.50Q255-113 255-136Q255-154 238.50-175Q222-196 191-223L122-283Q79-319 57.50-352.50Q36-386 36-433Q36-503 82-545Q128-587 200-587Q268-587 311-546.50Q354-506 367-437L278-399Q270-439 251.50-464.50Q233-490 204-490Q183-490 170.50-477Q158-464 158-444Q158-428 171.50-410Q185-392 214-368L284-304Q329-265 353.50-229.50Q378-194 378-144Q378-71 329-31Q280 9 205 9Z"/><path id="s60:oswald-medium:318" d="M52-578L183-578L183-527Q241-588 319-588Q354-588 379-570.50Q404-553 416-518Q476-588 562-588Q610-588 639.50-553Q669-518 669-452L669 0L539 0L539-439Q539-470 529-483.50Q519-497 499-497Q483-497 463-488Q443-479 426-463L426-452L426 0L297 0L297-439Q297-470 286.50-483.50Q276-497 256-497Q240-497 220.50-488Q201-479 183-463L183 0L52 0L52-578Z"/><path id="s60:oswald-medium:241" d="M301 9Q244 9 189-43L189 0L54 0L54-810L189-810L189-534Q244-587 304-587Q376-587 405.50-529.50Q435-472 435-394L435-198Q435-105 402.50-48Q370 9 301 9M249-86Q279-86 289-114Q299-142 299-193L299-401Q299-496 248-496Q223-496 189-472L189-106Q217-86 249-86Z"/><path id="s60:oswald-medium:277" d="M80-483L18-483L18-578L80-578L80-615Q80-674 90-710Q100-746 131-766Q162-786 222-786Q248-786 296-781L296-680Q289-681 277.50-683Q266-685 259-685Q235-685 225-670Q215-655 215-625L215-578L296-578L296-483L215-483L215 0L80 0L80-483Z"/><path id="s60:oswald-medium:377" d="M211 7Q134 6 105-39.50Q76-85 75-168L75-489L17-489L17-578L75-578L75-751L212-751L212-578L299-578L299-489L212-489L212-156Q212-127 224.50-114.50Q237-102 264-101Q282-100 306-105L306 0Q257 8 211 7Z"/><path id="s60:oswald-medium:289" d="M56-783L192-783L192-670L56-670L56-783M56-578L192-578L192 0L56 0L56-578Z"/><path id="s60:oswald-medium:411" d="M56 59Q111 59 132.50 50Q154 41 154 14Q154 3 153-3Q152-13 140-62L134-89L79-301Q17-535 7-578L139-578L214-196L279-578L410-578L273 32Q257 100 206.50 128.50Q156 157 74 157L56 157L56 59Z"/><path id="s60:oswald-medium:567" d="M47-137L179-137L179 0L47 0L47-137Z"/><path id="s60:oswald-medium:410" d="M136-311L15-578L148-578L222-418L286-578L402-578L279-292L411 0L277 0L196-177L128 0L10 0L136-311Z"/><path id="s60:oswald-medium:243" d="M226 9Q129 9 85-45.50Q41-100 41-202L41-376Q41-479 85-533Q129-587 226-587Q318-587 360.50-543Q403-499 403-409L403-361L275-361L275-412Q275-457 264.50-474Q254-491 227-491Q198-491 187.50-470Q177-449 177-393L177-181Q177-127 188.50-107Q200-87 227-87Q255-87 265-105.50Q275-124 275-165L275-227L403-227L403-172Q403-83 360-37Q317 9 226 9Z"/><path id="s60:oswald-medium:68" d="M61-810L394-810L394-708L208-708L208-472L360-472L360-369L208-369L208 0L61 0L61-810Z"/><path id="s60:oswald-medium:562" d="M49 86Q78 78 96 56.50Q114 35 114 0L42 0L42-135L175-135L175-12Q175 52 147.50 88Q120 124 63 135L49 86Z"/></defs><g id="line-0"><use x="0" y="1048.5" xlink:href="#s60:oswald-medium:167"/><use x="424" y="1048.5" xlink:href="#s60:oswald-medium:286"/><use x="902" y="1048.5" xlink:href="#s60:oswald-medium:256"/><use x="1348" y="1048.5" xlink:href="#s60:oswald-medium:3"/><use x="1591" y="1048.5" xlink:href="#s60:oswald-medium:48"/><use x="2019" y="1048.5" xlink:href="#s60:oswald-medium:383"/><use x="2492" y="1048.5" xlink:href="#s60:oswald-medium:363"/><use x="2839" y="1048.5" xlink:href="#s60:oswald-medium:328"/><use x="3293" y="1048.5" xlink:href="#s60:oswald-medium:359"/><use x="3769" y="1048.5" xlink:href="#s60:oswald-medium:256"/><use x="4215" y="1048.5" xlink:href="#s60:oswald-medium:214"/><use x="4667" y="1048.5" xlink:href="#s60:oswald-medium:320"/><use x="5141" y="1048.5" xlink:href="#s60:oswald-medium:3"/><use x="5384" y="1048.5" xlink:href="#s60:oswald-medium:311"/><use x="5636" y="1048.5" xlink:href="#s60:oswald-medium:214"/><use x="6088" y="1048.5" xlink:href="#s60:oswald-medium:320"/><use x="6562" y="1048.5" xlink:href="#s60:oswald-medium:279"/><use x="7031" y="1048.5" xlink:href="#s60:oswald-medium:383"/><use x="7504" y="1048.5" xlink:href="#s60:oswald-medium:214"/><use x="7956" y="1048.5" xlink:href="#s60:oswald-medium:279"/><use x="8425" y="1048.5" xlink:href="#s60:oswald-medium:256"/><use x="8871" y="1048.5" xlink:href="#s60:oswald-medium:369"/><use x="9271" y="1048.5" xlink:href="#s60:oswald-medium:3"/><use x="9514" y="1048.5" xlink:href="#s60:oswald-medium:214"/><use x="9966" y="1048.5" xlink:href="#s60:oswald-medium:363"/><use x="10311" y="1048.5" xlink:href="#s60:oswald-medium:256"/><use x="10757" y="1048.5" xlink:href="#s60:oswald-medium:3"/><use x="11000" y="1048.5" xlink:href="#s60:oswald-medium:318"/><use x="11718" y="1048.5" xlink:href="#s60:oswald-medium:256"/><use x="12164" y="1048.5" xlink:href="#s60:oswald-medium:318"/><use x="12882" y="1048.5" xlink:href="#s60:oswald-medium:241"/><use x="13359" y="1048.5" xlink:href="#s60:oswald-medium:256"/><use x="13805" y="1048.5" xlink:href="#s60:oswald-medium:363"/><use x="14152" y="1048.5" xlink:href="#s60:oswald-medium:369"/><use x="14552" y="1048.5" xlink:href="#s60:oswald-medium:3"/><use x="14795" y="1048.5" xlink:href="#s60:oswald-medium:328"/><use x="15249" y="1048.5" xlink:href="#s60:oswald-medium:277"/><use x="15553" y="1048.5" xlink:href="#s60:oswald-medium:3"/><use x="15796" y="1048.5" xlink:href="#s60:oswald-medium:377"/><use x="16128" y="1048.5" xlink:href="#s60:oswald-medium:286"/><use x="16606" y="1048.5" xlink:href="#s60:oswald-medium:256"/><use x="17052" y="1048.5" xlink:href="#s60:oswald-medium:3"/><use x="17295" y="1048.5" xlink:href="#s60:oswald-medium:369"/><use x="17695" y="1048.5" xlink:href="#s60:oswald-medium:214"/><use x="18147" y="1048.5" xlink:href="#s60:oswald-medium:318"/><use x="18865" y="1048.5" xlink:href="#s60:oswald-medium:256"/><use x="19311" y="1048.5" xlink:href="#s60:oswald-medium:3"/><use x="19554" y="1048.5" xlink:href="#s60:oswald-medium:277"/><use x="19858" y="1048.5" xlink:href="#s60:oswald-medium:214"/><use x="20310" y="1048.5" xlink:href="#s60:oswald-medium:318"/><use x="21028" y="1048.5" xlink:href="#s60:oswald-medium:289"/><use x="21276" y="1048.5" xlink:href="#s60:oswald-medium:311"/><use x="21528" y="1048.5" xlink:href="#s60:oswald-medium:411"/><use x="21947" y="1048.5" xlink:href="#s60:oswald-medium:567"/></g><g id="line-1"><use x="4376" y="2248.5" xlink:href="#s60:oswald-medium:167"/><use x="4800" y="2248.5" xlink:href="#s60:oswald-medium:286"/><use x="5278" y="2248.5" xlink:href="#s60:oswald-medium:256"/><use x="5724" y="2248.5" xlink:href="#s60:oswald-medium:289"/><use x="5972" y="2248.5" xlink:href="#s60:oswald-medium:363"/><use x="6319" y="2248.5" xlink:href="#s60:oswald-medium:3"/><use x="6562" y="2248.5" xlink:href="#s60:oswald-medium:369"/><use x="6962" y="2248.5" xlink:href="#s60:oswald-medium:256"/><use x="7408" y="2248.5" xlink:href="#s60:oswald-medium:359"/><use x="7884" y="2248.5" xlink:href="#s60:oswald-medium:214"/><use x="8336" y="2248.5" xlink:href="#s60:oswald-medium:363"/><use x="8681" y="2248.5" xlink:href="#s60:oswald-medium:214"/><use x="9128" y="2248.5" xlink:href="#s60:oswald-medium:377"/><use x="9460" y="2248.5" xlink:href="#s60:oswald-medium:256"/><use x="9906" y="2248.5" xlink:href="#s60:oswald-medium:3"/><use x="10149" y="2248.5" xlink:href="#s60:oswald-medium:256"/><use x="10590" y="2248.5" xlink:href="#s60:oswald-medium:410"/><use x="11007" y="2248.5" xlink:href="#s60:oswald-medium:289"/><use x="11255" y="2248.5" xlink:href="#s60:oswald-medium:369"/><use x="11655" y="2248.5" xlink:href="#s60:oswald-medium:377"/><use x="11987" y="2248.5" xlink:href="#s60:oswald-medium:256"/><use x="12433" y="2248.5" xlink:href="#s60:oswald-medium:320"/><use x="12907" y="2248.5" xlink:href="#s60:oswald-medium:243"/><use x="13348" y="2248.5" xlink:href="#s60:oswald-medium:256"/><use x="13794" y="2248.5" xlink:href="#s60:oswald-medium:3"/><use x="14037" y="2248.5" xlink:href="#s60:oswald-medium:289"/><use x="14285" y="2248.5" xlink:href="#s60:oswald-medium:369"/><use x="14685" y="2248.5" xlink:href="#s60:oswald-medium:3"/><use x="14928" y="2248.5" xlink:href="#s60:oswald-medium:214"/><use x="15380" y="2248.5" xlink:href="#s60:oswald-medium:3"/><use x="15623" y="2248.5" xlink:href="#s60:oswald-medium:318"/><use x="16340" y="2248.5" xlink:href="#s60:oswald-medium:411"/><use x="16761" y="2248.5" xlink:href="#s60:oswald-medium:377"/><use x="17093" y="2248.5" xlink:href="#s60:oswald-medium:286"/><use x="17571" y="2248.5" xlink:href="#s60:oswald-medium:567"/></g><g id="line-2"><use x="5361.5" y="3448.5" xlink:href="#s60:oswald-medium:68"/><use x="5773.5" y="3448.5" xlink:href="#s60:oswald-medium:328"/><use x="6227.5" y="3448.5" xlink:href="#s60:oswald-medium:363"/><use x="6574.5" y="3448.5" xlink:href="#s60:oswald-medium:3"/><use x="6817.5" y="3448.5" xlink:href="#s60:oswald-medium:369"/><use x="7217.5" y="3448.5" xlink:href="#s60:oswald-medium:243"/><use x="7658.5" y="3448.5" xlink:href="#s60:oswald-medium:289"/><use x="7906.5" y="3448.5" xlink:href="#s60:oswald-medium:256"/><use x="8352.5" y="3448.5" xlink:href="#s60:oswald-medium:320"/><use x="8826.5" y="3448.5" xlink:href="#s60:oswald-medium:243"/><use x="9267.5" y="3448.5" xlink:href="#s60:oswald-medium:256"/><use x="9713.5" y="3448.5" xlink:href="#s60:oswald-medium:562"/><use x="9926.5" y="3448.5" xlink:href="#s60:oswald-medium:3"/><use x="10169.5" y="3448.5" xlink:href="#s60:oswald-medium:318"/><use x="10887.5" y="3448.5" xlink:href="#s60:oswald-medium:383"/><use x="11360.5" y="3448.5" xlink:href="#s60:oswald-medium:369"/><use x="11760.5" y="3448.5" xlink:href="#s60:oswald-medium:289"/><use x="12008.5" y="3448.5" xlink:href="#s60:oswald-medium:243"/><use x="12449.5" y="3448.5" xlink:href="#s60:oswald-medium:562"/><use x="12662.5" y="3448.5" xlink:href="#s60:oswald-medium:3"/><use x="12905.5" y="3448.5" xlink:href="#s60:oswald-medium:369"/><use x="13305.5" y="3448.5" xlink:href="#s60:oswald-medium:359"/><use x="13781.5" y="3448.5" xlink:href="#s60:oswald-medium:328"/><use x="14235.5" y="3448.5" xlink:href="#s60:oswald-medium:363"/><use x="14582.5" y="3448.5" xlink:href="#s60:oswald-medium:377"/><use x="14914.5" y="3448.5" xlink:href="#s60:oswald-medium:562"/><use x="15127.5" y="3448.5" xlink:href="#s60:oswald-medium:3"/><use x="15370.5" y="3448.5" xlink:href="#s60:oswald-medium:256"/><use x="15816.5" y="3448.5" xlink:href="#s60:oswald-medium:377"/><use x="16148.5" y="3448.5" xlink:href="#s60:oswald-medium:243"/><use x="16589.5" y="3448.5" xlink:href="#s60:oswald-medium:562"/></g></svg>