<svg xmlns="http://www.w3.org/2000/svg" xmlns:xlink="http://www.w3.org/1999/xlink" width="562" height="90" viewBox="0 0 23425 3737.5"><defs><path id="s57:oswald-bold:167" d="M134-677L10-677L10-810L437-810L437-677L314-677L314 0L134 0L134-677Z"/><path id="s57:oswald-bold:286" d="M52-810L214-810L214-527Q275-588 356-588Q406-588 434-550.50Q462-513 462-453L462 0L300 0L300-430Q300-452 292.50-462.50Q285-473 267-473Q244-471 214-452L214 0L52 0L52-810Z"/><path id="s57:oswald-bold:256" d="M240 10Q145 10 92-40.50Q39-91 39-183L39-395Q39-487 92-537.50Q145-588 240-588Q336-588 384-539Q432-490 432-395L432-279L200-279L200-177Q200-106 239-106Q282-106 282-162L282-223L432-223L432-167Q432-80 381.50-35Q331 10 240 10M282-355L282-413Q282-445 270.50-458.50Q259-472 239-472Q220-472 210-457Q200-442 200-404L200-355L282-355Z"/><path id="s57:oswald-bold:3" d=""/><path id="s57:oswald-bold:48" d="M60-810L424-810L424-688L239-688L239-487L380-487L380-363L239-363L239-121L426-121L426 0L60 0L60-810Z"/><path id="s57:oswald-bold:383" d="M153 10Q101 10 73-27.50Q45-65 45-125L45-578L208-578L208-144Q208-100 240-100Q256-100 290-118L290-578L452-578L452 0L290 0L290-53Q222 10 153 10Z"/><path id="s57:oswald-bold:363" d="M53-578L216-578L216-482Q269-585 332-585Q337-585 355-581L355-439Q351-440 345-441Q339-442 330-442Q294-439 266.50-421.50Q239-404 216-370L216 0L53 0L53-578Z"/><path id="s57:oswald-bold:328" d="M241 10Q146 10 92.50-38Q39-86 39-179L39-399Q39-492 92.50-540Q146-588 241-588Q336-588 390-539.50Q444-491 444-399L444-179Q444-87 390-38.50Q336 10 241 10M241-98Q265-98 274-115.50Q283-133 283-168L283-410Q283-445 274-462.50Q265-480 241-480Q219-480 209.50-462Q200-444 200-410L200-168Q200-133 209.50-115.50Q219-98 241-98Z"/><path id="s57:oswald-bold:359" d="M51-578L214-578L214-536Q242-561 274-574.50Q306-588 336-588Q400-588 431.50-541Q463-494 463-418L463-169Q463-86 430-38Q397 10 337 10Q276 10 214-44L214 190L51 190L51-578M257-95Q279-95 289.50-113Q300-131 300-160L300-430Q300-455 290-472.50Q280-490 260-490Q239-490 214-470L214-110Q237-95 257-95Z"/><path id="s57:oswald-bold:214" d="M170 10Q128 10 97.50-10.50Q67-31 51.50-63.50Q36-96 36-131Q36-194 66.50-235.50Q97-277 138-299.50Q179-322 242-346L274-358L274-416Q274-441 266.50-454Q259-467 240-467Q221-467 213-455Q205-443 204-421L200-379L48-385L49-404Q56-499 107.50-543.50Q159-588 255-588Q340-588 385-540.50Q430-493 430-414L430-144Q430-70 440 0L294 0Q285-67 281-82Q269-42 241-16Q213 10 170 10M228-100Q241-100 253-108.50Q265-117 274-129L274-287Q234-267 208.50-231.50Q183-196 183-163Q183-134 196-117Q209-100 228-100Z"/><path id="s57:oswald-bold:320" d="M51-578L214-578L214-520Q282-588 353-588Q405-588 432.50-550.50Q460-513 460-453L460 0L298 0L298-430Q298-452 290.50-462.50Q283-473 265-473Q242-471 214-452L214 0L51 0L51-578Z"/><path id="s57:oswald-bold:311" d="M58-810L220-810L220 0L58 0L58-810Z"/><path id="s57:oswald-bold:279" d="M269 174Q169 174 97 152.50Q25 131 25 63Q25 30 48.50 2Q72-26 108-52Q66-68 50-86Q34-104 34-131Q34-158 52.50-181.50Q71-205 106-232Q75-255 58.50-289Q42-323 42-375Q42-482 95-535Q148-588 245-588Q289-588 323.50-575Q358-562 377-538Q416-581 456-603L477-613L515-535Q499-530 468-515.50Q437-501 418-489Q430-472 439-443Q448-414 448-376Q448-283 400.50-231Q353-179 257-179Q205-179 163-196Q141-171 144-155Q145-147 158-142Q171-137 198-133L324-116Q409-104 443-71.50Q477-39 477 23Q477 94 429 134Q381 174 269 174M248-276Q276-276 285-300Q294-324 294-383Q294-425 291-447Q288-469 278.50-480Q269-491 248-491Q218-491 211-467.50Q204-444 204-383Q204-326 212.50-301Q221-276 248-276M268 73Q313 73 331.50 62.50Q350 52 350 27Q350 6 335.50-3.50Q321-13 287-17L202-28Q177 4 177 30Q177 52 197.50 62.50Q218 73 268 73Z"/><path id="s57:oswald-bold:369" d="M221 10Q147 10 98.50-24.50Q50-59 20-135L131-184Q147-144 168.50-122Q190-100 215-100Q234-100 244-110.50Q254-121 254-139Q253-156 235-174.50Q217-193 174-228L132-263Q80-307 56.50-343Q33-379 33-429Q33-475 57.50-511Q82-547 123-567.50Q164-588 211-588Q282-588 329.50-549.50Q377-511 397-439L292-391Q282-423 261-448.50Q240-474 215-474Q199-474 189.50-465Q180-456 180-441Q180-423 198.50-403Q217-383 261-347L302-311Q336-281 356.50-260Q377-239 391.50-210Q406-181 406-147Q406-98 380.50-62.50Q355-27 312.50-8.50Q270 10 221 10Z"/><path id="s57:oswald-bold:318" d="M51-578L211-578L211-532Q269-589 348-589Q383-589 408.50-571.50Q434-554 447-520Q508-589 594-589Q645-589 675.50-551.50Q706-514 706-449L706 0L546 0L546-432Q546-455 538.50-466Q531-477 514-477Q503-477 487-471.50Q471-466 458-456L458-449L458 0L300 0L300-432Q300-477 267-477Q241-477 211-456L211 0L51 0L51-578Z"/><path id="s57:oswald-bold:241" d="M338 10Q276 10 214-44L214 0L51 0L51-810L214-810L214-536Q243-561 274-574.50Q305-588 334-588Q400-588 432-541.50Q464-495 464-418L464-169Q464-86 431-38Q398 10 338 10M259-95Q281-95 291-113Q301-131 301-160L301-430Q301-455 291-472.50Q281-490 262-490Q243-490 214-471L214-111Q236-95 259-95Z"/><path id="s57:oswald-bold:277" d="M72-468L17-468L17-578L72-578L72-621Q72-679 83-714.50Q94-750 128.50-770Q163-790 230-790Q270-790 308-785L308-664Q286-669 273-669Q235-669 235-624L235-578L308-578L308-468L235-468L235 0L72 0L72-468Z"/><path id="s57:oswald-bold:377" d="M214 6Q153 4 121-24Q89-52 78.50-96.50Q68-141 68-204L68-471L12-471L12-578L68-578L68-754L233-754L233-578L315-578L315-471L233-471L233-173Q233-126 289-126Q302-126 313.50-128Q325-130 328-130L328-2Q277 7 239 7L214 6Z"/><path id="s57:oswald-bold:289" d="M51-789L215-789L215-676L51-676L51-789M52-578L215-578L215 0L52 0L52-578Z"/><path id="s57:oswald-bold:411" d="M67 55Q120 55 141 44.50Q162 34 159 0Q158-14 139-91L97-240Q6-562 3-578L156-578L229-244L284-578L438-578L301 32Q270 170 90 168L67 168L67 55Z"/><path id="s57:oswald-bold:567" d="M46-154L200-154L200 0L46 0L46-154Z"/><path id="s57:oswald-bold:410" d="M134-317L17-578L181-578L243-439L298-578L423-578L309-293L440 0L274 0L204-159L146 0L11 0L134-317Z"/><path id="s57:oswald-bold:243" d="M239 10Q145 10 92-41Q39-92 39-183L39-395Q39-487 91.50-537.50Q144-588 239-588Q333-588 383.50-544Q434-500 434-414L434-353L277-353L277-419Q277-452 267.50-464.50Q258-477 239-477Q220-477 211.50-461.50Q203-446 203-409L203-169Q203-132 212-117Q221-102 240-102Q259-102 268-115Q277-128 277-159L277-236L434-236L434-166Q434-80 383-35Q332 10 239 10Z"/><path id="s57:oswald-bold:68" d="M60-810L410-810L410-689L239-689L239-485L388-485L388-360L239-360L239 0L60 0L60-810Z"/><path id="s57:oswald-bold:562" d="M58 87Q90 79 109.50 59.50Q129 40 129 0L43 0L43-154L198-154L198-21Q196 130 68 140L58 87Z"/></defs><g id="line-0"><use x="0" y="1048.5" xlink:href="#s57:oswald-bold:167"/><use x="447" y="1048.5" xlink:href="#s57:oswald-bold:286"/><use x="956" y="1048.5" xlink:href="#s57:oswald-bold:256"/><use x="1426" y="1048.5" xlink:href="#s57:oswald-bold:3"/><use x="1682" y="1048.5" xlink:href="#s57:oswald-bold:48"/><use x="2129" y="1048.5" xlink:href="#s57:oswald-bold:383"/><use x="2633" y="1048.5" xlink:href="#s57:oswald-bold:363"/><use x="3004" y="1048.5" xlink:href="#s57:oswald-bold:328"/><use x="3487" y="1048.5" xlink:href="#s57:oswald-bold:359"/><use x="3992" y="1048.5" xlink:href="#s57:oswald-bold:256"/><use x="4462" y="1048.5" xlink:href="#s57:oswald-bold:214"/><use x="4938" y="1048.5" xlink:href="#s57:oswald-bold:320"/><use x="5445" y="1048.5" xlink:href="#s57:oswald-bold:3"/><use x="5701" y="1048.5" xlink:href="#s57:oswald-bold:311"/><use x="5975" y="1048.5" xlink:href="#s57:oswald-bold:214"/><use x="6451" y="1048.5" xlink:href="#s57:oswald-bold:320"/><use x="6958" y="1048.5" xlink:href="#s57:oswald-bold:279"/><use x="7459" y="1048.5" xlink:href="#s57:oswald-bold:383"/><use x="7963" y="1048.5" xlink:href="#s57:oswald-bold:214"/><use x="8439" y="1048.5" xlink:href="#s57:oswald-bold:279"/><use x="8940" y="1048.5" xlink:href="#s57:oswald-bold:256"/><use x="9410" y="1048.5" xlink:href="#s57:oswald-bold:369"/><use x="9834" y="1048.5" xlink:href="#s57:oswald-bold:3"/><use x="10090" y="1048.5" xlink:href="#s57:oswald-bold:214"/><use x="10566" y="1048.5" xlink:href="#s57:oswald-bold:363"/><use x="10934" y="1048.5" xlink:href="#s57:oswald-bold:256"/><use x="11404" y="1048.5" xlink:href="#s57:oswald-bold:3"/><use x="11660" y="1048.5" xlink:href="#s57:oswald-bold:318"/><use x="12413" y="1048.5" xlink:href="#s57:oswald-bold:256"/><use x="12883" y="1048.5" xlink:href="#s57:oswald-bold:318"/><use x="13636" y="1048.5" xlink:href="#s57:oswald-bold:241"/><use x="14142" y="1048.5" xlink:href="#s57:oswald-bold:256"/><use x="14612" y="1048.5" xlink:href="#s57:oswald-bold:363"/><use x="14983" y="1048.5" xlink:href="#s57:oswald-bold:369"/><use x="15407" y="1048.5" xlink:href="#s57:oswald-bold:3"/><use x="15663" y="1048.5" xlink:href="#s57:oswald-bold:328"/><use x="16146" y="1048.5" xlink:href="#s57:oswald-bold:277"/><use x="16466" y="1048.5" xlink:href="#s57:oswald-bold:3"/><use x="16722" y="1048.5" xlink:href="#s57:oswald-bold:377"/><use x="17076" y="1048.5" xlink:href="#s57:oswald-bold:286"/><use x="17585" y="1048.5" xlink:href="#s57:oswald-bold:256"/><use x="18055" y="1048.5" xlink:href="#s57:oswald-bold:3"/><use x="18311" y="1048.5" xlink:href="#s57:oswald-bold:369"/><use x="18735" y="1048.5" xlink:href="#s57:oswald-bold:214"/><use x="19211" y="1048.5" xlink:href="#s57:oswald-bold:318"/><use x="19964" y="1048.5" xlink:href="#s57:oswald-bold:256"/><use x="20434" y="1048.5" xlink:href="#s57:oswald-bold:3"/><use x="20690" y="1048.5" xlink:href="#s57:oswald-bold:277"/><use x="21010" y="1048.5" xlink:href="#s57:oswald-bold:214"/><use x="21486" y="1048.5" xlink:href="#s57:oswald-bold:318"/><use x="22239" y="1048.5" xlink:href="#s57:oswald-bold:289"/><use x="22504" y="1048.5" xlink:href="#s57:oswald-bold:311"/><use x="22778" y="1048.5" xlink:href="#s57:oswald-bold:411"/><use x="23225" y="1048.5" xlink:href="#s57:oswald-bold:567"/></g><g id="line-1"><use x="4628" y="2248.5" xlink:href="#s57:oswald-bold:167"/><use x="5075" y="2248.5" xlink:href="#s57:oswald-bold:286"/><use x="5584" y="2248.5" xlink:href="#s57:oswald-bold:256"/><use x="6054" y="2248.5" xlink:href="#s57:oswald-bold:289"/><use x="6319" y="2248.5" xlink:href="#s57:oswald-bold:363"/><use x="6690" y="2248.5" xlink:href="#s57:oswald-bold:3"/><use x="6946" y="2248.5" xlink:href="#s57:oswald-bold:369"/><use x="7370" y="2248.5" xlink:href="#s57:oswald-bold:256"/><use x="7840" y="2248.5" xlink:href="#s57:oswald-bold:359"/><use x="8345" y="2248.5" xlink:href="#s57:oswald-bold:214"/><use x="8821" y="2248.5" xlink:href="#s57:oswald-bold:363"/><use x="9188" y="2248.5" xlink:href="#s57:oswald-bold:214"/><use x="9662" y="2248.5" xlink:href="#s57:oswald-bold:377"/><use x="10016" y="2248.5" xlink:href="#s57:oswald-bold:256"/><use x="10486" y="2248.5" xlink:href="#s57:oswald-bold:3"/><use x="10742" y="2248.5" xlink:href="#s57:oswald-bold:256"/><use x="11202" y="2248.5" xlink:href="#s57:oswald-bold:410"/><use x="11644" y="2248.5" xlink:href="#s57:oswald-bold:289"/><use x="11909" y="2248.5" xlink:href="#s57:oswald-bold:369"/><use x="12333" y="2248.5" xlink:href="#s57:oswald-bold:377"/><use x="12687" y="2248.5" xlink:href="#s57:oswald-bold:256"/><use x="13157" y="2248.5" xlink:href="#s57:oswald-bold:320"/><use x="13664" y="2248.5" xlink:href="#s57:oswald-bold:243"/><use x="14132" y="2248.5" xlink:href="#s57:oswald-bold:256"/><use x="14602" y="2248.5" xlink:href="#s57:oswald-bold:3"/><use x="14858" y="2248.5" xlink:href="#s57:oswald-bold:289"/><use x="15123" y="2248.5" xlink:href="#s57:oswald-bold:369"/><use x="15547" y="2248.5" xlink:href="#s57:oswald-bold:3"/><use x="15803" y="2248.5" xlink:href="#s57:oswald-bold:214"/><use x="16279" y="2248.5" xlink:href="#s57:oswald-bold:3"/><use x="16535" y="2248.5" xlink:href="#s57:oswald-bold:318"/><use x="17286" y="2248.5" xlink:href="#s57:oswald-bold:411"/><use x="17734" y="2248.5" xlink:href="#s57:oswald-bold:377"/><use x="18088" y="2248.5" xlink:href="#s57:oswald-bold:286"/><use x="18597" y="2248.5" xlink:href="#s57:oswald-bold:567"/></g><g id="line-2"><use x="5643" y="3448.5" xlink:href="#s57:oswald-bold:68"/><use x="6077" y="3448.5" xlink:href="#s57:oswald-bold:328"/><use x="6560" y="3448.5" xlink:href="#s57:oswald-bold:363"/><use x="6931" y="3448.5" xlink:href="#s57:oswald-bold:3"/><use x="7187" y="3448.5" xlink:href="#s57:oswald-bold:369"/><use x="7611" y="3448.5" xlink:href="#s57:oswald-bold:243"/><use x="8079" y="3448.5" xlink:href="#s57:oswald-bold:289"/><use x="8344" y="3448.5" xlink:href="#s57:oswald-bold:256"/><use x="8814" y="3448.5" xlink:href="#s57:oswald-bold:320"/><use x="9321" y="3448.5" xlink:href="#s57:oswald-bold:243"/><use x="9789" y="3448.5" xlink:href="#s57:oswald-bold:256"/><use x="10259" y="3448.5" xlink:href="#s57:oswald-bold:562"/><use x="10497" y="3448.5" xlink:href="#s57:oswald-bold:3"/><use x="10753" y="3448.5" xlink:href="#s57:oswald-bold:318"/><use x="11506" y="3448.5" xlink:href="#s57:oswald-bold:383"/><use x="12010" y="3448.5" xlink:href="#s57:oswald-bold:369"/><use x="12434" y="3448.5" xlink:href="#s57:oswald-bold:289"/><use x="12699" y="3448.5" xlink:href="#s57:oswald-bold:243"/><use x="13167" y="3448.5" xlink:href="#s57:oswald-bold:562"/><use x="13405" y="3448.5" xlink:href="#s57:oswald-bold:3"/><use x="13661" y="3448.5" xlink:href="#s57:oswald-bold:369"/><use x="14085" y="3448.5" xlink:href="#s57:oswald-bold:359"/><use x="14590" y="3448.5" xlink:href="#s57:oswald-bold:328"/><use x="15073" y="3448.5" xlink:href="#s57:oswald-bold:363"/><use x="15444" y="3448.5" xlink:href="#s57:oswald-bold:377"/><use x="15798" y="3448.5" xlink:href="#s57:oswald-bold:562"/><use x="16036" y="3448.5" xlink:href="#s57:oswald-bold:3"/><use x="16292" y="3448.5" xlink:href="#s57:oswald-bold:256"/><use x="16762" y="3448.5" xlink:href="#s57:oswald-bold:377"/><use x="17116" y="3448.5" xlink:href="#s57:oswald-bold:243"/><use x="17584" y="3448.5" xlink:href="#s57:oswald-bold:562"/></g></svg>