<svg xmlns="http://www.w3.org/2000/svg" xmlns:xlink="http://www.w3.org/1999/xlink" width="548" height="90" viewBox="0 0 22850 3737.5"><defs><path id="s62:oswald-semibold:167" d="M137-688L8-688L8-810L429-810L429-688L302-688L302 0L137 0L137-688Z"/><path id="s62:oswald-semibold:286" d="M53-810L204-810L204-525Q267-588 346-588Q395-588 421-551Q447-514 447-456L447 0L297 0L297-432Q297-456 289-467.50Q281-479 262-479Q235-477 204-454L204 0L53 0L53-810Z"/><path id="s62:oswald-semibold:256" d="M234 10Q139 10 89.50-42Q40-94 40-192L40-386Q40-484 90-536Q140-588 234-588Q331-588 376-536Q421-484 421-382L421-281L190-281L190-184Q190-141 199.50-119.50Q209-98 234-98Q257-98 268.50-113.50Q280-129 280-163L280-219L420-219L420-169Q420-82 372-36Q324 10 234 10M280-353L280-409Q280-447 269-463.50Q258-480 234-480Q211-480 200.50-462Q190-444 190-398L190-353L280-353Z"/><path id="s62:oswald-semibold:3" d=""/><path id="s62:oswald-semibold:48" d="M61-810L414-810L414-696L225-696L225-481L371-481L371-366L225-366L225-112L416-112L416 0L61 0L61-810Z"/><path id="s62:oswald-semibold:383" d="M149 10Q99 10 72.50-27Q46-64 46-122L46-578L197-578L197-143Q197-95 232-95Q256-95 287-117L287-578L438-578L438 0L287 0L287-54Q218 10 149 10Z"/><path id="s62:oswald-semibold:363" d="M54-578L205-578L205-485Q259-585 323-585Q331-585 345-582L345-445Q327-449 313-449Q279-448 253.50-431.50Q228-415 205-381L205 0L54 0L54-578Z"/><path id="s62:oswald-semibold:328" d="M235 10Q141 10 90.50-40Q40-90 40-185L40-393Q40-488 90.50-538Q141-588 235-588Q329-588 379.50-538Q430-488 430-393L430-185Q430-90 379.50-40Q329 10 235 10M235-92Q262-92 271.50-112.50Q281-133 281-174L281-403Q281-444 271.50-465Q262-486 235-486Q209-486 199-464.50Q189-443 189-403L189-174Q189-134 198.50-113Q208-92 235-92Z"/><path id="s62:oswald-semibold:359" d="M52-578L202-578L202-535Q260-588 325-588Q390-586 420-534.50Q450-483 450-407L450-181Q450-95 417-42.50Q384 10 320 10Q263 10 202-44L202 190L52 190L52-578M253-91Q299-91 299-175L299-417Q299-451 288.50-472Q278-493 255-493Q231-493 202-471L202-108Q229-91 253-91Z"/><path id="s62:oswald-semibold:214" d="M168 10Q128 10 98-10.50Q68-31 52.50-63Q37-95 37-130Q37-194 66.50-235.50Q96-277 137.50-300Q179-323 243-347L273-359L273-413Q273-444 264.50-460Q256-476 234-476Q212-476 203-462Q194-448 192-422L189-382L47-388L48-407Q55-501 105-544.50Q155-588 247-588Q332-588 375-541Q418-494 418-412L418-143Q418-88 422.50-48.50Q427-9 428 0L293 0Q289-29 280-83Q268-43 239.50-16.50Q211 10 168 10M222-97Q236-97 250-107Q264-117 273-130L273-289Q230-268 203-233Q176-198 176-162Q176-132 188.50-114.50Q201-97 222-97Z"/><path id="s62:oswald-semibold:320" d="M52-578L202-578L202-520Q272-588 342-588Q392-588 418.50-551Q445-514 445-456L445 0L294 0L294-432Q294-456 286-467.50Q278-479 259-479Q233-477 202-455L202 0L52 0L52-578Z"/><path id="s62:oswald-semibold:311" d="M59-810L209-810L209 0L59 0L59-810Z"/><path id="s62:oswald-semibold:279" d="M261 175Q161 175 92.50 154Q24 133 24 68Q24 7 107-50Q69-64 52.50-82Q36-100 36-124Q36-152 54-175.50Q72-199 107-227Q76-250 59.50-285Q43-320 43-376Q43-482 93.50-535Q144-588 237-588Q281-588 314-574Q347-560 366-534Q381-551 402-569Q423-587 445-598L465-608L501-532Q484-527 452-513Q420-499 403-488Q414-471 422-441Q430-411 430-376Q430-283 385-231Q340-179 246-179Q199-179 161-194Q140-167 142-152Q143-135 194-129Q215-125 313-114Q394-104 428-70.50Q462-37 462 26Q462 98 415.50 136.50Q369 175 261 175M239-271Q271-271 280.50-296Q290-321 290-382Q290-446 281-471Q272-496 240-496Q207-496 198-470Q189-444 189-382Q189-324 199-297.50Q209-271 239-271M260 78Q302 78 322 68.50Q342 59 343 37Q346 11 331.50-1Q317-13 278-18L191-28Q178-12 170 2.50Q162 17 162 33Q162 57 183.50 67.50Q205 78 260 78Z"/><path id="s62:oswald-semibold:369" d="M214 10Q141 10 93.50-26.50Q46-63 21-139L127-183Q157-94 210-94Q230-94 242-105.50Q254-117 254-137Q254-154 236-174.50Q218-195 182-226L128-272Q80-313 57-348Q34-383 34-432Q34-478 57.50-513.50Q81-549 120-568.50Q159-588 206-588Q276-588 321.50-548.50Q367-509 384-438L286-394Q277-430 257-455.50Q237-481 210-481Q192-481 181-470.50Q170-460 170-443Q170-425 186.50-406Q203-387 240-356L294-308Q342-266 368-230Q394-194 394-145Q394-97 369.50-62Q345-27 304-8.50Q263 10 214 10Z"/><path id="s62:oswald-semibold:318" d="M52-578L199-578L199-530Q257-589 335-589Q369-589 394.50-571.50Q420-554 433-519Q495-589 580-589Q630-589 659.50-552.50Q689-516 689-450L689 0L543 0L543-435Q543-462 534-474Q525-486 507-486Q493-486 476-479Q459-472 444-459L444-450L444 0L298 0L298-435Q298-462 289-474Q280-486 262-486Q249-486 231.50-479Q214-472 199-459L199 0L52 0L52-578Z"/><path id="s62:oswald-semibold:241" d="M321 10Q263 10 203-43L203 0L52 0L52-810L203-810L203-535Q261-588 323-588Q390-588 420.50-536Q451-484 451-407L451-181Q451-95 418-42.50Q385 10 321 10M255-91Q280-91 290-113.50Q300-136 300-175L300-417Q300-493 256-493Q232-493 203-471L203-109Q228-91 255-91Z"/><path id="s62:oswald-semibold:277" d="M75-475L17-475L17-578L75-578L75-618Q75-676 86-712Q97-748 129.50-768Q162-788 226-788Q265-788 303-783L303-671Q278-676 267-676Q226-676 226-625L226-578L303-578L303-475L226-475L226 0L75 0L75-475Z"/><path id="s62:oswald-semibold:377" d="M213 7Q130 4 100.50-46.50Q71-97 71-188L71-479L14-479L14-578L71-578L71-752L224-752L224-578L308-578L308-479L224-479L224-166Q224-139 238.50-127Q253-115 281-115Q298-115 318-119L318-1Q312 0 283 4.50Q254 9 213 7Z"/><path id="s62:oswald-semibold:289" d="M53-786L205-786L205-673L53-673L53-786M54-578L205-578L205 0L54 0L54-578Z"/><path id="s62:oswald-semibold:411" d="M62 57Q114 57 135.50 48Q157 39 157 11Q157 3 156-1Q154-17 137-90L80-299Q13-544 5-578L149-578L222-223L282-578L426-578L289 32Q272 104 218.50 134Q165 164 83 163L62 163L62 57Z"/><path id="s62:oswald-semibold:567" d="M47-146L191-146L191 0L47 0L47-146Z"/><path id="s62:oswald-semibold:410" d="M135-314L16-578L166-578L234-430L293-578L414-578L296-292L427 0L275 0L200-167L138 0L10 0L135-314Z"/><path id="s62:oswald-semibold:243" d="M233 10Q138 10 89-43Q40-96 40-192L40-387Q40-484 89-536Q138-588 233-588Q326-588 373.50-544Q421-500 421-412L421-357L276-357L276-416Q276-454 266-468.50Q256-483 234-483Q210-483 200.50-465Q191-447 191-402L191-174Q191-129 201.50-112Q212-95 234-95Q257-95 266.50-111Q276-127 276-162L276-232L421-232L421-168Q421-81 373-35.50Q325 10 233 10Z"/><path id="s62:oswald-semibold:68" d="M61-810L403-810L403-697L225-697L225-479L376-479L376-364L225-364L225 0L61 0L61-810Z"/><path id="s62:oswald-semibold:562" d="M54 87Q122 68 122 0L43 0L43-146L188-146L188-17Q186 123 66 138L54 87Z"/></defs><g id="line-0"><use x="0" y="1048.5" xlink:href="#s62:oswald-semibold:167"/><use x="437" y="1048.5" xlink:href="#s62:oswald-semibold:286"/><use x="933" y="1048.5" xlink:href="#s62:oswald-semibold:256"/><use x="1392" y="1048.5" xlink:href="#s62:oswald-semibold:3"/><use x="1642" y="1048.5" xlink:href="#s62:oswald-semibold:48"/><use x="2081" y="1048.5" xlink:href="#s62:oswald-semibold:383"/><use x="2571" y="1048.5" xlink:href="#s62:oswald-semibold:363"/><use x="2932" y="1048.5" xlink:href="#s62:oswald-semibold:328"/><use x="3402" y="1048.5" xlink:href="#s62:oswald-semibold:359"/><use x="3894" y="1048.5" xlink:href="#s62:oswald-semibold:256"/><use x="4353" y="1048.5" xlink:href="#s62:oswald-semibold:214"/><use x="4819" y="1048.5" xlink:href="#s62:oswald-semibold:320"/><use x="5312" y="1048.5" xlink:href="#s62:oswald-semibold:3"/><use x="5562" y="1048.5" xlink:href="#s62:oswald-semibold:311"/><use x="5826" y="1048.5" xlink:href="#s62:oswald-semibold:214"/><use x="6292" y="1048.5" xlink:href="#s62:oswald-semibold:320"/><use x="6785" y="1048.5" xlink:href="#s62:oswald-semibold:279"/><use x="7272" y="1048.5" xlink:href="#s62:oswald-semibold:383"/><use x="7762" y="1048.5" xlink:href="#s62:oswald-semibold:214"/><use x="8228" y="1048.5" xlink:href="#s62:oswald-semibold:279"/><use x="8715" y="1048.5" xlink:href="#s62:oswald-semibold:256"/><use x="9174" y="1048.5" xlink:href="#s62:oswald-semibold:369"/><use x="9587" y="1048.5" xlink:href="#s62:oswald-semibold:3"/><use x="9837" y="1048.5" xlink:href="#s62:oswald-semibold:214"/><use x="10303" y="1048.5" xlink:href="#s62:oswald-semibold:363"/><use x="10661" y="1048.5" xlink:href="#s62:oswald-semibold:256"/><use x="11120" y="1048.5" xlink:href="#s62:oswald-semibold:3"/><use x="11370" y="1048.5" xlink:href="#s62:oswald-semibold:318"/><use x="12107" y="1048.5" xlink:href="#s62:oswald-semibold:256"/><use x="12566" y="1048.5" xlink:href="#s62:oswald-semibold:318"/><use x="13303" y="1048.5" xlink:href="#s62:oswald-semibold:241"/><use x="13796" y="1048.5" xlink:href="#s62:oswald-semibold:256"/><use x="14255" y="1048.5" xlink:href="#s62:oswald-semibold:363"/><use x="14616" y="1048.5" xlink:href="#s62:oswald-semibold:369"/><use x="15029" y="1048.5" xlink:href="#s62:oswald-semibold:3"/><use x="15279" y="1048.5" xlink:href="#s62:oswald-semibold:328"/><use x="15749" y="1048.5" xlink:href="#s62:oswald-semibold:277"/><use x="16062" y="1048.5" xlink:href="#s62:oswald-semibold:3"/><use x="16312" y="1048.5" xlink:href="#s62:oswald-semibold:377"/><use x="16656" y="1048.5" xlink:href="#s62:oswald-semibold:286"/><use x="17152" y="1048.5" xlink:href="#s62:oswald-semibold:256"/><use x="17611" y="1048.5" xlink:href="#s62:oswald-semibold:3"/><use x="17861" y="1048.5" xlink:href="#s62:oswald-semibold:369"/><use x="18274" y="1048.5" xlink:href="#s62:oswald-semibold:214"/><use x="18740" y="1048.5" xlink:href="#s62:oswald-semibold:318"/><use x="19477" y="1048.5" xlink:href="#s62:oswald-semibold:256"/><use x="19936" y="1048.5" xlink:href="#s62:oswald-semibold:3"/><use x="20186" y="1048.5" xlink:href="#s62:oswald-semibold:277"/><use x="20499" y="1048.5" xlink:href="#s62:oswald-semibold:214"/><use x="20965" y="1048.5" xlink:href="#s62:oswald-semibold:318"/><use x="21702" y="1048.5" xlink:href="#s62:oswald-semibold:289"/><use x="21960" y="1048.5" xlink:href="#s62:oswald-semibold:311"/><use x="22224" y="1048.5" xlink:href="#s62:oswald-semibold:411"/><use x="22659" y="1048.5" xlink:href="#s62:oswald-semibold:567"/></g><g id="line-1"><use x="4516" y="2248.5" xlink:href="#s62:oswald-semibold:167"/><use x="4953" y="2248.5" xlink:href="#s62:oswald-semibold:286"/><use x="5449" y="2248.5" xlink:href="#s62:oswald-semibold:256"/><use x="5908" y="2248.5" xlink:href="#s62:oswald-semibold:289"/><use x="6166" y="2248.5" xlink:href="#s62:oswald-semibold:363"/><use x="6527" y="2248.5" xlink:href="#s62:oswald-semibold:3"/><use x="6777" y="2248.5" xlink:href="#s62:oswald-semibold:369"/><use x="7190" y="2248.5" xlink:href="#s62:oswald-semibold:256"/><use x="7649" y="2248.5" xlink:href="#s62:oswald-semibold:359"/><use x="8141" y="2248.5" xlink:href="#s62:oswald-semibold:214"/><use x="8607" y="2248.5" xlink:href="#s62:oswald-semibold:363"/><use x="8965" y="2248.5" xlink:href="#s62:oswald-semibold:214"/><use x="9427" y="2248.5" xlink:href="#s62:oswald-semibold:377"/><use x="9771" y="2248.5" xlink:href="#s62:oswald-semibold:256"/><use x="10230" y="2248.5" xlink:href="#s62:oswald-semibold:3"/><use x="10480" y="2248.5" xlink:href="#s62:oswald-semibold:256"/><use x="10931" y="2248.5" xlink:href="#s62:oswald-semibold:410"/><use x="11362" y="2248.5" xlink:href="#s62:oswald-semibold:289"/><use x="11620" y="2248.5" xlink:href="#s62:oswald-semibold:369"/><use x="12033" y="2248.5" xlink:href="#s62:oswald-semibold:377"/><use x="12377" y="2248.5" xlink:href="#s62:oswald-semibold:256"/><use x="12836" y="2248.5" xlink:href="#s62:oswald-semibold:320"/><use x="13329" y="2248.5" xlink:href="#s62:oswald-semibold:243"/><use x="13785" y="2248.5" xlink:href="#s62:oswald-semibold:256"/><use x="14244" y="2248.5" xlink:href="#s62:oswald-semibold:3"/><use x="14494" y="2248.5" xlink:href="#s62:oswald-semibold:289"/><use x="14752" y="2248.5" xlink:href="#s62:oswald-semibold:369"/><use x="15165" y="2248.5" xlink:href="#s62:oswald-semibold:3"/><use x="15415" y="2248.5" xlink:href="#s62:oswald-semibold:214"/><use x="15881" y="2248.5" xlink:href="#s62:oswald-semibold:3"/><use x="16131" y="2248.5" xlink:href="#s62:oswald-semibold:318"/><use x="16867" y="2248.5" xlink:href="#s62:oswald-semibold:411"/><use x="17303" y="2248.5" xlink:href="#s62:oswald-semibold:377"/><use x="17647" y="2248.5" xlink:href="#s62:oswald-semibold:286"/><use x="18143" y="2248.5" xlink:href="#s62:oswald-semibold:567"/></g><g id="line-2"><use x="5519" y="3448.5" xlink:href="#s62:oswald-semibold:68"/><use x="5944" y="3448.5" xlink:href="#s62:oswald-semibold:328"/><use x="6414" y="3448.5" xlink:href="#s62:oswald-semibold:363"/><use x="6775" y="3448.5" xlink:href="#s62:oswald-semibold:3"/><use x="7025" y="3448.5" xlink:href="#s62:oswald-semibold:369"/><use x="7438" y="3448.5" xlink:href="#s62:oswald-semibold:243"/><use x="7894" y="3448.5" xlink:href="#s62:oswald-semibold:289"/><use x="8152" y="3448.5" xlink:href="#s62:oswald-semibold:256"/><use x="8611" y="3448.5" xlink:href="#s62:oswald-semibold:320"/><use x="9104" y="3448.5" xlink:href="#s62:oswald-semibold:243"/><use x="9560" y="3448.5" xlink:href="#s62:oswald-semibold:256"/><use x="10019" y="3448.5" xlink:href="#s62:oswald-semibold:562"/><use x="10246" y="3448.5" xlink:href="#s62:oswald-semibold:3"/><use x="10496" y="3448.5" xlink:href="#s62:oswald-semibold:318"/><use x="11233" y="3448.5" xlink:href="#s62:oswald-semibold:383"/><use x="11723" y="3448.5" xlink:href="#s62:oswald-semibold:369"/><use x="12136" y="3448.5" xlink:href="#s62:oswald-semibold:289"/><use x="12394" y="3448.5" xlink:href="#s62:oswald-semibold:243"/><use x="12850" y="3448.5" xlink:href="#s62:oswald-semibold:562"/><use x="13077" y="3448.5" xlink:href="#s62:oswald-semibold:3"/><use x="13327" y="3448.5" xlink:href="#s62:oswald-semibold:369"/><use x="13740" y="3448.5" xlink:href="#s62:oswald-semibold:359"/><use x="14232" y="3448.5" xlink:href="#s62:oswald-semibold:328"/><use x="14702" y="3448.5" xlink:href="#s62:oswald-semibold:363"/><use x="15063" y="3448.5" xlink:href="#s62:oswald-semibold:377"/><use x="15407" y="3448.5" xlink:href="#s62:oswald-semibold:562"/><use x="15634" y="3448.5" xlink:href="#s62:oswald-semibold:3"/><use x="15884" y="3448.5" xlink:href="#s62:oswald-semibold:256"/><use x="16343" y="3448.5" xlink:href="#s62:oswald-semibold:377"/><use x="16687" y="3448.5" xlink:href="#s62:oswald-semibold:243"/><use x="17143" y="3448.5" xlink:href="#s62:oswald-semibold:562"/></g></svg>