<svg xmlns="http://www.w3.org/2000/svg" xmlns:xlink="http://www.w3.org/1999/xlink" width="498" height="90" viewBox="0 0 20741 3737.5"><defs><path id="s61:oswald-regular:167" d="M146-726L-1-726L-1-810L402-810L402-726L259-726L259 0L146 0L146-726Z"/><path id="s61:oswald-regular:286" d="M57-810L164-810L164-518Q236-586 309-586Q356-586 375.50-552Q395-518 395-468L395 0L288 0L288-437Q288-470 278-486Q268-502 242-502Q207-502 164-464L164 0L57 0L57-810Z"/><path id="s61:oswald-regular:256" d="M214 8Q147 8 110-17.50Q73-43 58-93Q43-143 43-223L43-355Q43-475 80.50-530.50Q118-586 214-586Q284-586 319.50-557Q355-528 366.50-475.50Q378-423 378-334L378-287L150-287L150-210Q150-158 152.50-132Q155-106 168.50-88.50Q182-71 213-71Q248-71 260.50-94.50Q273-118 273-166L273-201L377-201L377-179Q377-88 338-40Q299 8 214 8M273-345L273-397Q273-456 261.50-481.50Q250-507 213-507Q187-507 173.50-495Q160-483 155-455.50Q150-428 150-376L150-345L273-345Z"/><path id="s61:oswald-regular:3" d=""/><path id="s61:oswald-regular:48" d="M63-810L377-810L377-726L176-726L176-458L339-458L339-378L176-378L176-81L379-81L379 0L63 0L63-810Z"/><path id="s61:oswald-regular:383" d="M137 8Q90 8 70-26Q50-60 50-110L50-578L157-578L157-142Q157-109 167-92.50Q177-76 203-76Q235-76 278-112L278-578L385-578L385 0L278 0L278-57Q209 8 137 8Z"/><path id="s61:oswald-regular:363" d="M57-578L164-578L164-496Q194-545 225.50-565Q257-585 292-585Q301-585 309-584L309-466Q277-478 250-478Q224-478 203.50-465.50Q183-453 164-422L164 0L57 0L57-578Z"/><path id="s61:oswald-regular:328" d="M212 8Q120 8 81.50-46.50Q43-101 43-205L43-373Q43-477 81.50-531.50Q120-586 212-586Q303-586 341.50-531.50Q380-477 380-373L380-205Q380-101 341.50-46.50Q303 8 212 8M212-71Q241-71 254-88Q267-105 270-130Q273-155 273-198L273-379Q273-422 270-447.50Q267-473 254-490Q241-507 212-507Q183-507 169.50-490Q156-473 153-447.50Q150-422 150-379L150-198Q150-155 153-130Q156-105 169.50-88Q183-71 212-71Z"/><path id="s61:oswald-regular:359" d="M54-578L161-578L161-532Q208-586 271-586Q350-586 376.50-518.50Q403-451 403-369L403-229Q403-123 370.50-57.50Q338 8 259 8Q208 8 161-43L161 190L54 190L54-578M238-76Q275-76 285.50-113.50Q296-151 296-229L296-369Q296-433 284-467.50Q272-502 234-502Q197-502 161-472L161-102Q196-76 238-76Z"/><path id="s61:oswald-regular:214" d="M158 8Q125 8 98.50-11Q72-30 57-61Q42-92 42-126Q42-194 71-236.50Q100-279 144.50-303.50Q189-328 270-361L270-402Q270-459 258.50-482.50Q247-506 212-506Q151-506 151-424L151-395L45-399L46-420Q51-507 94.50-546.50Q138-586 219-586Q302-586 339.50-540.50Q377-495 377-403L377-139Q377-74 387 0L289 0Q278-57 275-85Q263-46 233.50-19Q204 8 158 8M200-84Q221-84 241-100.50Q261-117 270-132L270-296Q226-270 204-255.50Q182-241 165.50-216.50Q149-192 149-159Q149-123 162-103.50Q175-84 200-84Z"/><path id="s61:oswald-regular:320" d="M54-578L161-578L161-521Q230-586 302-586Q349-586 369-552Q389-518 389-468L389 0L282 0L282-437Q282-470 272-486Q262-502 236-502Q204-502 161-466L161 0L54 0L54-578Z"/><path id="s61:oswald-regular:311" d="M64-810L171-810L171 0L64 0L64-810Z"/><path id="s61:oswald-regular:279" d="M234 179Q131 179 75.50 162Q20 145 20 89Q20 44 43.50 11Q67-22 103-41Q76-49 61.50-66Q47-83 47-103Q47-133 62-155Q77-177 111-208Q77-234 60.50-273.50Q44-313 44-380Q44-481 85.50-533.50Q127-586 207-586Q253-586 282-570Q311-554 326-522Q333-533 355.50-551.50Q378-570 404-582L420-589L447-520Q427-516 391.50-503Q356-490 349-483Q356-465 361.50-433Q367-401 367-377Q367-282 330-229.50Q293-177 207-177Q180-177 152-184Q150-181 141.50-167Q133-153 133-140Q133-129 144.50-122.50Q156-116 181-114Q196-112 226.50-109.50Q257-107 271-106Q405-94 405 35Q405 112 363.50 145.50Q322 179 234 179M207-252Q250-252 263-282Q276-312 276-380Q276-449 263-480.50Q250-512 208-512Q166-512 151.50-480.50Q137-449 137-380Q137-318 151.50-285Q166-252 207-252M232 95Q279 95 301 81.50Q323 68 323 38Q323 10 306-3.50Q289-17 244-21L153-29Q138-17 124 3Q110 23 110 46Q110 64 119 74.50Q128 85 154.50 90Q181 95 232 95Z"/><path id="s61:oswald-regular:369" d="M188 8Q118 8 74.50-36Q31-80 25-154L114-181Q121-125 139.50-98Q158-71 192-71Q220-71 238-88.50Q256-106 256-133Q256-178 209-218L110-303Q76-332 57.50-363.50Q39-395 39-441Q39-510 79-548Q119-586 188-586Q254-586 291.50-543.50Q329-501 335-434L263-407Q256-456 240-481.50Q224-507 192-507Q166-507 150-490Q134-473 135-448Q135-415 164-390L266-296Q304-262 326-226Q348-190 348-140Q348-68 305-30Q262 8 188 8Z"/><path id="s61:oswald-regular:318" d="M54-578L153-578L153-523Q182-555 216.50-571.50Q251-588 289-588Q363-588 383-515Q443-588 527-588Q572-588 600.50-555Q629-522 629-454L629 0L531 0L531-447Q531-485 519-501.50Q507-518 484-518Q461-518 436.50-505.50Q412-493 391-471L391-454L391 0L293 0L293-447Q293-485 281-501.50Q269-518 246-518Q223-518 199-505.50Q175-493 153-471L153 0L54 0L54-578Z"/><path id="s61:oswald-regular:241" d="M261 8Q209 8 163-42L163 0L56 0L56-810L163-810L163-532Q210-586 272-586Q351-586 377.50-518.50Q404-451 404-369L404-229Q404 8 261 8M239-76Q276-76 286.50-113.50Q297-151 297-229L297-369Q297-433 285-467.50Q273-502 235-502Q200-502 163-473L163-102Q196-76 239-76Z"/><path id="s61:oswald-regular:277" d="M88-499L19-499L19-578L88-578L88-608Q88-668 97-704.50Q106-741 133.50-761Q161-781 213-781Q236-781 283-776L283-696Q275-697 262.50-699Q250-701 243-701Q214-701 204.50-682.50Q195-664 195-626L195-578L283-578L283-499L195-499L195 0L88 0L88-499Z"/><path id="s61:oswald-regular:377" d="M208 8Q142 8 113-26.50Q84-61 83-130L83-507L22-507L22-578L83-578L83-747L190-747L190-578L283-578L283-507L190-507L190-137Q190-102 201-88Q212-74 243-74Q263-74 282-77L282 2Q242 8 208 8Z"/><path id="s61:oswald-regular:289" d="M61-776L168-776L168-664L61-664L61-776M61-578L168-578L168 0L61 0L61-578Z"/><path id="s61:oswald-regular:411" d="M45 63Q105 63 127.50 54Q150 45 150 20Q150 14 146-6L133-66L128-86Q78-294 12-578L120-578L198-146L273-578L381-578L243 32Q229 93 184 119Q139 145 58 145L45 145L45 63Z"/><path id="s61:oswald-regular:567" d="M49-119L156-119L156 0L49 0L49-119Z"/><path id="s61:oswald-regular:410" d="M139-304L12-578L114-578L199-395L274-578L379-578L247-291L381 0L279 0L188-196L110 0L9 0L139-304Z"/><path id="s61:oswald-regular:243" d="M212 8Q144 8 107-19.50Q70-47 56.50-96.50Q43-146 43-222L43-355Q43-433 56.50-483Q70-533 107-559.50Q144-586 212-586Q274-586 308.50-566Q343-546 356.50-506.50Q370-467 370-404L370-370L273-370L273-405Q273-462 260.50-484.50Q248-507 213-507Q186-507 173-495Q160-483 155-456Q150-429 150-377L150-195Q150-145 156-118.50Q162-92 175.50-81.50Q189-71 214-71Q251-71 262-95.50Q273-120 273-171L273-218L370-218L370-178Q370-84 335.50-38Q301 8 212 8Z"/><path id="s61:oswald-regular:68" d="M63-810L376-810L376-729L176-729L176-459L331-459L331-379L176-379L176 0L63 0L63-810Z"/><path id="s61:oswald-regular:562" d="M40 85Q67 76 82.50 53.50Q98 31 98 0L41 0L41-115L151-115L151-2Q151 51 128 82.50Q105 114 57 131L40 85Z"/></defs><g id="line-0"><use x="0" y="1048.5" xlink:href="#s61:oswald-regular:167"/><use x="400" y="1048.5" xlink:href="#s61:oswald-regular:286"/><use x="845" y="1048.5" xlink:href="#s61:oswald-regular:256"/><use x="1266" y="1048.5" xlink:href="#s61:oswald-regular:3"/><use x="1495" y="1048.5" xlink:href="#s61:oswald-regular:48"/><use x="1902" y="1048.5" xlink:href="#s61:oswald-regular:383"/><use x="2342" y="1048.5" xlink:href="#s61:oswald-regular:363"/><use x="2663" y="1048.5" xlink:href="#s61:oswald-regular:328"/><use x="3087" y="1048.5" xlink:href="#s61:oswald-regular:359"/><use x="3533" y="1048.5" xlink:href="#s61:oswald-regular:256"/><use x="3954" y="1048.5" xlink:href="#s61:oswald-regular:214"/><use x="4380" y="1048.5" xlink:href="#s61:oswald-regular:320"/><use x="4819" y="1048.5" xlink:href="#s61:oswald-regular:3"/><use x="5048" y="1048.5" xlink:href="#s61:oswald-regular:311"/><use x="5277" y="1048.5" xlink:href="#s61:oswald-regular:214"/><use x="5703" y="1048.5" xlink:href="#s61:oswald-regular:320"/><use x="6142" y="1048.5" xlink:href="#s61:oswald-regular:279"/><use x="6577" y="1048.5" xlink:href="#s61:oswald-regular:383"/><use x="7017" y="1048.5" xlink:href="#s61:oswald-regular:214"/><use x="7443" y="1048.5" xlink:href="#s61:oswald-regular:279"/><use x="7878" y="1048.5" xlink:href="#s61:oswald-regular:256"/><use x="8299" y="1048.5" xlink:href="#s61:oswald-regular:369"/><use x="8673" y="1048.5" xlink:href="#s61:oswald-regular:3"/><use x="8902" y="1048.5" xlink:href="#s61:oswald-regular:214"/><use x="9328" y="1048.5" xlink:href="#s61:oswald-regular:363"/><use x="9649" y="1048.5" xlink:href="#s61:oswald-regular:256"/><use x="10070" y="1048.5" xlink:href="#s61:oswald-regular:3"/><use x="10299" y="1048.5" xlink:href="#s61:oswald-regular:318"/><use x="10979" y="1048.5" xlink:href="#s61:oswald-regular:256"/><use x="11400" y="1048.5" xlink:href="#s61:oswald-regular:318"/><use x="12080" y="1048.5" xlink:href="#s61:oswald-regular:241"/><use x="12527" y="1048.5" xlink:href="#s61:oswald-regular:256"/><use x="12948" y="1048.5" xlink:href="#s61:oswald-regular:363"/><use x="13269" y="1048.5" xlink:href="#s61:oswald-regular:369"/><use x="13643" y="1048.5" xlink:href="#s61:oswald-regular:3"/><use x="13872" y="1048.5" xlink:href="#s61:oswald-regular:328"/><use x="14296" y="1048.5" xlink:href="#s61:oswald-regular:277"/><use x="14583" y="1048.5" xlink:href="#s61:oswald-regular:3"/><use x="14812" y="1048.5" xlink:href="#s61:oswald-regular:377"/><use x="15120" y="1048.5" xlink:href="#s61:oswald-regular:286"/><use x="15565" y="1048.5" xlink:href="#s61:oswald-regular:256"/><use x="15986" y="1048.5" xlink:href="#s61:oswald-regular:3"/><use x="16215" y="1048.5" xlink:href="#s61:oswald-regular:369"/><use x="16589" y="1048.5" xlink:href="#s61:oswald-regular:214"/><use x="17015" y="1048.5" xlink:href="#s61:oswald-regular:318"/><use x="17695" y="1048.5" xlink:href="#s61:oswald-regular:256"/><use x="18116" y="1048.5" xlink:href="#s61:oswald-regular:3"/><use x="18345" y="1048.5" xlink:href="#s61:oswald-regular:277"/><use x="18632" y="1048.5" xlink:href="#s61:oswald-regular:214"/><use x="19058" y="1048.5" xlink:href="#s61:oswald-regular:318"/><use x="19738" y="1048.5" xlink:href="#s61:oswald-regular:289"/><use x="19967" y="1048.5" xlink:href="#s61:oswald-regular:311"/><use x="20196" y="1048.5" xlink:href="#s61:oswald-regular:411"/><use x="20585" y="1048.5" xlink:href="#s61:oswald-regular:567"/></g><g id="line-1"><use x="4112" y="2248.5" xlink:href="#s61:oswald-regular:167"/><use x="4512" y="2248.5" xlink:href="#s61:oswald-regular:286"/><use x="4957" y="2248.5" xlink:href="#s61:oswald-regular:256"/><use x="5378" y="2248.5" xlink:href="#s61:oswald-regular:289"/><use x="5607" y="2248.5" xlink:href="#s61:oswald-regular:363"/><use x="5928" y="2248.5" xlink:href="#s61:oswald-regular:3"/><use x="6157" y="2248.5" xlink:href="#s61:oswald-regular:369"/><use x="6531" y="2248.5" xlink:href="#s61:oswald-regular:256"/><use x="6952" y="2248.5" xlink:href="#s61:oswald-regular:359"/><use x="7398" y="2248.5" xlink:href="#s61:oswald-regular:214"/><use x="7824" y="2248.5" xlink:href="#s61:oswald-regular:363"/><use x="8145" y="2248.5" xlink:href="#s61:oswald-regular:214"/><use x="8562" y="2248.5" xlink:href="#s61:oswald-regular:377"/><use x="8870" y="2248.5" xlink:href="#s61:oswald-regular:256"/><use x="9291" y="2248.5" xlink:href="#s61:oswald-regular:3"/><use x="9520" y="2248.5" xlink:href="#s61:oswald-regular:256"/><use x="9940" y="2248.5" xlink:href="#s61:oswald-regular:410"/><use x="10329" y="2248.5" xlink:href="#s61:oswald-regular:289"/><use x="10558" y="2248.5" xlink:href="#s61:oswald-regular:369"/><use x="10932" y="2248.5" xlink:href="#s61:oswald-regular:377"/><use x="11240" y="2248.5" xlink:href="#s61:oswald-regular:256"/><use x="11661" y="2248.5" xlink:href="#s61:oswald-regular:320"/><use x="12100" y="2248.5" xlink:href="#s61:oswald-regular:243"/><use x="12511" y="2248.5" xlink:href="#s61:oswald-regular:256"/><use x="12932" y="2248.5" xlink:href="#s61:oswald-regular:3"/><use x="13161" y="2248.5" xlink:href="#s61:oswald-regular:289"/><use x="13390" y="2248.5" xlink:href="#s61:oswald-regular:369"/><use x="13764" y="2248.5" xlink:href="#s61:oswald-regular:3"/><use x="13993" y="2248.5" xlink:href="#s61:oswald-regular:214"/><use x="14419" y="2248.5" xlink:href="#s61:oswald-regular:3"/><use x="14648" y="2248.5" xlink:href="#s61:oswald-regular:318"/><use x="15328" y="2248.5" xlink:href="#s61:oswald-regular:411"/><use x="15720" y="2248.5" xlink:href="#s61:oswald-regular:377"/><use x="16028" y="2248.5" xlink:href="#s61:oswald-regular:286"/><use x="16473" y="2248.5" xlink:href="#s61:oswald-regular:567"/></g><g id="line-2"><use x="5062.5" y="3448.5" xlink:href="#s61:oswald-regular:68"/><use x="5452.5" y="3448.5" xlink:href="#s61:oswald-regular:328"/><use x="5876.5" y="3448.5" xlink:href="#s61:oswald-regular:363"/><use x="6197.5" y="3448.5" xlink:href="#s61:oswald-regular:3"/><use x="6426.5" y="3448.5" xlink:href="#s61:oswald-regular:369"/><use x="6800.5" y="3448.5" xlink:href="#s61:oswald-regular:243"/><use x="7211.5" y="3448.5" xlink:href="#s61:oswald-regular:289"/><use x="7440.5" y="3448.5" xlink:href="#s61:oswald-regular:256"/><use x="7861.5" y="3448.5" xlink:href="#s61:oswald-regular:320"/><use x="8300.5" y="3448.5" xlink:href="#s61:oswald-regular:243"/><use x="8711.5" y="3448.5" xlink:href="#s61:oswald-regular:256"/><use x="9132.5" y="3448.5" xlink:href="#s61:oswald-regular:562"/><use x="9319.5" y="3448.5" xlink:href="#s61:oswald-regular:3"/><use x="9548.5" y="3448.5" xlink:href="#s61:oswald-regular:318"/><use x="10228.5" y="3448.5" xlink:href="#s61:oswald-regular:383"/><use x="10668.5" y="3448.5" xlink:href="#s61:oswald-regular:369"/><use x="11042.5" y="3448.5" xlink:href="#s61:oswald-regular:289"/><use x="11271.5" y="3448.5" xlink:href="#s61:oswald-regular:243"/><use x="11682.5" y="3448.5" xlink:href="#s61:oswald-regular:562"/><use x="11869.5" y="3448.5" xlink:href="#s61:oswald-regular:3"/><use x="12098.5" y="3448.5" xlink:href="#s61:oswald-regular:369"/><use x="12472.5" y="3448.5" xlink:href="#s61:oswald-regular:359"/><use x="12918.5" y="3448.5" xlink:href="#s61:oswald-regular:328"/><use x="13342.5" y="3448.5" xlink:href="#s61:oswald-regular:363"/><use x="13663.5" y="3448.5" xlink:href="#s61:oswald-regular:377"/><use x="13971.5" y="3448.5" xlink:href="#s61:oswald-regular:562"/><use x="14158.5" y="3448.5" xlink:href="#s61:oswald-regular:3"/><use x="14387.5" y="3448.5" xlink:href="#s61:oswald-regular:256"/><use x="14808.5" y="3448.5" xlink:href="#s61:oswald-regular:377"/><use x="15116.5" y="3448.5" xlink:href="#s61:oswald-regular:243"/><use x="15527.5" y="3448.5" xlink:href="#s61:oswald-regular:562"/></g></svg>