<svg xmlns="http://www.w3.org/2000/svg" xmlns:xlink="http://www.w3.org/1999/xlink" width="565" height="94" viewBox="0 0 23549 3933.5"><defs><path id="s63:pacifico-regular:157" d="M841-830Q872-824 887.50-809Q903-794 903-774Q903-741 884.50-726Q866-711 826-714Q736-721 685.50-723.50Q635-726 553-727Q516-543 485-357Q474-289 462-199.50Q450-110 446-55Q444-26 422-10.50Q400 5 369 5Q336 5 318-11Q300-27 300-53Q300-77 307.50-132.50Q315-188 325-249Q336-310 342-355Q353-431 367-506Q381-581 395-648Q398-663 402-682.50Q406-702 411-726Q313-723 257-710Q201-697 177.50-673.50Q154-650 154-613Q154-579 174-548Q178-541 178-533Q178-514 155.50-497.50Q133-481 109-481Q92-481 81-491Q61-508 48-539.50Q35-571 35-611Q35-696 90.50-747.50Q146-799 259.50-823Q373-847 551-847Q661-847 726.50-843Q792-839 841-830Z"/><path id="s63:pacifico-regular:432" d="M603-223Q616-223 623.50-211Q631-199 631-178Q631-138 612-116Q566-63 517.50-29Q469 5 407 5Q356 5 330-24.50Q304-54 304-110Q304-138 318-210Q331-273 331-297Q331-313 320-313Q307-313 283-279.50Q259-246 235-191Q211-136 196-75Q177 5 102 5Q72 5 62.50-16.50Q53-38 53-94Q53-126 54-145L55-225Q55-379 86.50-546Q118-713 179.50-826.50Q241-940 327-940Q373-940 401.50-900.50Q430-861 430-798Q430-697 371-588.50Q312-480 179-335Q176-283 176-228Q209-313 249.50-366.50Q290-420 329.50-443Q369-466 402-466Q467-466 467-401Q467-362 445-260Q426-173 426-145Q426-105 455-105Q475-105 502.50-129.50Q530-154 576-209Q588-223 603-223M306-841Q288-841 266-789.50Q244-738 223.50-650.50Q203-563 190-460Q252-533 292.50-619Q333-705 333-775Q333-807 326-824Q319-841 306-841Z"/><path id="s63:pacifico-regular:404" d="M494-223Q507-223 514.50-211Q522-199 522-178Q522-138 503-116Q466-71 398.50-33Q331 5 254 5Q149 5 91-52Q33-109 33-208Q33-277 62-336.50Q91-396 142.50-431Q194-466 259-466Q317-466 352-431.50Q387-397 387-338Q387-269 337.50-219.50Q288-170 170-141Q195-95 265-95Q310-95 367.50-126.50Q425-158 467-209Q479-223 494-223M242-368Q205-368 179.50-325Q154-282 154-221L154-219Q213-233 247-261Q281-289 281-326Q281-345 270.50-356.50Q260-368 242-368Z"/><path id="s63:pacifico-regular:3" d=""/><path id="s63:pacifico-regular:44" d="M755-182Q770-188 780-188Q796-188 804-176Q812-164 812-145Q812-115 797.50-94Q783-73 748-56Q689-28 595-11.50Q501 5 410 5Q284 5 199-23.50Q114-52 72.50-102Q31-152 31-215Q31-301 86.50-361.50Q142-422 250-449Q191-466 159.50-509Q128-552 128-605Q128-677 173.50-732.50Q219-788 296-818Q373-848 465-848Q589-848 651-794.50Q713-741 713-656Q713-597 691.50-560.50Q670-524 630-524Q602-524 586-536.50Q570-549 570-574Q570-591 575-611Q580-644 580-656Q580-692 553-714.50Q526-737 463-737Q378-737 327-701Q276-665 276-604Q276-557 314.50-526.50Q353-496 440-493Q462-492 471-483Q480-474 480-453Q480-387 420-386Q337-384 282.50-363Q228-342 203.50-309.50Q179-277 179-240Q179-178 237-146.50Q295-115 421-115Q504-115 596.50-134.50Q689-154 755-182Z"/><path id="s63:pacifico-regular:524" d="M150 5Q105 5 76.50-36.50Q48-78 48-140Q48-215 58-277.50Q68-340 91-410Q101-440 119-453Q137-466 176-466Q198-466 206.50-459Q215-452 215-438Q215-430 204-384Q194-347 188-317Q168-212 168-177Q168-156 173-147.50Q178-139 189-139Q204-139 226.50-169Q249-199 274.50-260Q300-321 324-410Q332-440 348.50-453Q365-466 398-466Q421-466 430-460.50Q439-455 439-440Q439-415 414-303Q386-175 386-145Q386-126 394-115.50Q402-105 415-105Q435-105 462.50-129.50Q490-154 536-209Q548-223 563-223Q576-223 583.50-211Q591-199 591-178Q591-138 572-116Q529-63 479.50-29Q430 5 367 5Q319 5 296.50-32Q274-69 274-136Q257-68 223-31.50Q189 5 150 5Z"/><path id="s63:pacifico-regular:506" d="M119 5Q81 5 65.50-35Q50-75 50-163Q50-293 87-410Q96-439 116.50-452.50Q137-466 174-466Q194-466 202-461Q210-456 210-442Q210-426 195-370Q185-330 179-300Q173-270 169-226Q202-312 243-366Q284-420 323.50-443Q363-466 396-466Q461-466 461-401Q461-388 452-338Q444-298 444-288Q444-253 469-253Q497-253 541-297Q554-310 568-310Q581-310 588.50-298.50Q596-287 596-268Q596-231 576-210Q548-181 510.50-160.50Q473-140 431-140Q378-140 350.50-167Q323-194 323-240Q323-255 326-270Q328-290 328-297Q328-313 317-313Q302-313 277.50-279.50Q253-246 229-191Q205-136 190-75Q179-28 164.50-11.50Q150 5 119 5Z"/><path id="s63:pacifico-regular:472" d="M558-307Q571-307 578-294Q585-281 585-261Q585-213 556-204Q496-183 424-180Q405-96 349-45.50Q293 5 222 5Q162 5 119.50-24Q77-53 55-101Q33-149 33-205Q33-281 62-340.50Q91-400 142-433.50Q193-467 255-467Q331-467 377.50-414.50Q424-362 432-285Q479-288 544-305Q552-307 558-307M230-101Q262-101 285.50-127Q309-153 317-202Q286-223 269.50-257Q253-291 253-329Q253-345 256-361L251-361Q211-361 184.50-322.50Q158-284 158-214Q158-159 179.50-130Q201-101 230-101Z"/><path id="s63:pacifico-regular:503" d="M582-223Q595-223 602.50-211Q610-199 610-178Q610-138 591-116Q548-63 498.50-29Q449 5 386 5Q333 5 300-33Q243 4 181 5Q168 198 122 327.50Q76 457-13 457Q-67 457-93 418Q-119 379-119 310Q-119 212-74 81.50Q-29-49 65-206Q65-352 63-409Q62-438 86-455Q110-472 146-472Q167-472 176.50-463.50Q186-455 187-430Q187-405 188-393Q220-433 251-450.50Q282-468 317-468Q373-468 408.50-423Q444-378 444-305Q444-252 427-202Q410-152 380-111Q401-105 415-105Q448-105 478-129Q508-153 555-209Q567-223 582-223M186-91Q222-99 252.50-130.50Q283-162 301-208.50Q319-255 319-306Q319-336 307-351.50Q295-367 275-367Q239-367 188-291Q187-247 187-162Q187-116 186-91M-5 359Q22 359 40 241.50Q58 124 63-51Q20 49-5 140Q-30 231-30 293Q-30 325-22.50 342Q-15 359-5 359Z"/><path id="s63:pacifico-regular:365" d="M171 5Q109 5 72-40Q35-85 35-158Q35-238 72-309.50Q109-381 170.50-424.50Q232-468 301-468Q323-468 330.50-459.50Q338-451 343-429Q364-433 387-433Q436-433 436-398Q436-377 421-298Q398-183 398-138Q398-123 405.50-114Q413-105 425-105Q444-105 471-129.50Q498-154 544-209Q556-223 571-223Q584-223 591.50-211Q599-199 599-178Q599-138 580-116Q539-65 493-30Q447 5 404 5Q371 5 343.50-17.50Q316-40 302-79Q250 5 171 5M207-96Q229-96 249-122Q269-148 278-191L315-375Q273-374 237.50-343.50Q202-313 181-263Q160-213 160-157Q160-126 172.50-111Q185-96 207-96Z"/><path id="s63:pacifico-regular:464" d="M119 5Q81 5 65.50-35Q50-75 50-163Q50-293 87-410Q96-439 116.50-452.50Q137-466 174-466Q194-466 202-461Q210-456 210-442Q210-426 195-370Q185-330 179-300Q173-270 169-226Q202-312 243-366Q284-420 323.50-443Q363-466 396-466Q461-466 461-401Q461-362 439-260Q420-173 420-145Q420-105 449-105Q469-105 496.50-129.50Q524-154 570-209Q582-223 597-223Q610-223 617.50-211Q625-199 625-178Q625-138 606-116Q563-63 513.50-29Q464 5 401 5Q350 5 324-24.50Q298-54 298-110Q298-138 312-210Q325-273 325-297Q325-313 314-313Q301-313 277.50-279.50Q254-246 229.50-191Q205-136 190-75Q179-28 164.50-11.50Q150 5 119 5Z"/><path id="s63:pacifico-regular:456" d="M427-223Q440-223 447.50-211Q455-199 455-178Q455-138 436-116Q393-63 342.50-29Q292 5 228 5Q140 5 97.50-75Q55-155 55-282Q55-404 86.50-560Q118-716 179.50-828Q241-940 326-940Q374-940 401.50-895.50Q429-851 429-768Q429-649 363-492Q297-335 184-181Q191-140 207-122.50Q223-105 249-105Q290-105 321-128.50Q352-152 400-209Q412-223 427-223M304-841Q281-841 252-758Q223-675 201-552Q179-429 177-316Q248-433 290-550.50Q332-668 332-765Q332-841 304-841Z"/><path id="s63:pacifico-regular:426" d="M560-221Q573-221 580.50-208.50Q588-196 588-177Q588-154 581-141Q574-128 559-118Q473-60 433-32L369 11Q331 218 269.50 336.50Q208 455 113 455Q62 455 30 423.50Q-2 392-2 341Q-2 270 54 188.50Q110 107 264-12L270-51Q253-24 225.50-9.50Q198 5 171 5Q109 5 72-40Q35-85 35-158Q35-238 72-309.50Q109-381 170.50-424.50Q232-468 301-468Q323-468 330.50-459.50Q338-451 343-429Q362-433 387-433Q412-433 422.50-425.50Q433-418 433-396Q433-384 432-377Q428-346 407-220Q403-196 398.50-167.50Q394-139 389-107Q466-167 537-213Q550-221 560-221M207-96Q230-96 251-124Q272-152 281-204L313-375Q272-374 237-343.50Q202-313 181-263Q160-213 160-157Q160-126 172.50-111Q185-96 207-96M124 358Q149 358 180.50 298Q212 238 241 107Q164 173 130 226Q96 279 96 319Q96 336 102.50 347Q109 358 124 358Z"/><path id="s63:pacifico-regular:512" d="M234 27Q182 27 154.50 3Q127-21 127-51Q127-77 146-96Q165-115 202-115Q215-115 232.50-112.50Q250-110 259-109Q258-135 247.50-158Q237-181 221-202.50Q205-224 191-240Q160-181 129.50-142Q99-103 63-68Q45-50 25-50Q9-50-1-61.50Q-11-73-11-90Q-11-110 3-127L16-143Q71-211 99-255Q116-284 139-332.50Q162-381 184-433Q203-477 263-477Q291-477 302-472Q313-467 313-456Q313-450 309-437Q305-424 298-411Q280-375 280-350Q280-335 290.50-317Q301-299 323-272Q355-230 371.50-200.50Q388-171 388-136Q388-126 386-108Q435-127 501-209Q513-223 528-223Q541-223 548.50-211Q556-199 556-178Q556-140 537-116Q487-54 441.50-31.50Q396-9 329-7Q289 27 234 27Z"/><path id="s63:pacifico-regular:463" d="M119 5Q81 5 65.50-35Q50-75 50-163Q50-293 87-410Q96-439 116.50-452.50Q137-466 174-466Q194-466 202-461Q210-456 210-442Q210-426 195-370Q185-330 179-300.50Q173-271 169-227Q196-305 233.50-359Q271-413 310.50-439.50Q350-466 385-466Q420-466 434.50-450Q449-434 449-401Q449-369 430-285Q422-249 419-231Q469-354 530-410Q591-466 644-466Q709-466 709-401Q709-362 687-260Q668-173 668-145Q668-105 697-105Q717-105 744.50-129.50Q772-154 818-209Q830-223 845-223Q858-223 865.50-211Q873-199 873-178Q873-138 854-116Q811-63 761.50-29Q712 5 649 5Q598 5 572-24.50Q546-54 546-110Q546-138 560-210Q573-273 573-297Q573-313 562-313Q549-313 525-279.50Q501-246 477-191Q453-136 438-75Q427-27 412.50-11Q398 5 366 5Q333 5 316.50-26.50Q300-58 300-103Q300-141 310-213Q318-277 318-297Q318-313 307-313Q292-313 269-277Q246-241 224.50-185Q203-129 190-75Q179-28 164.50-11.50Q150 5 119 5Z"/><path id="s63:pacifico-regular:392" d="M580-307Q593-307 600-294Q607-281 607-261Q607-236 600-222.50Q593-209 578-204Q518-183 446-180Q426-97 370.50-46Q315 5 248 5Q147 5 101-72Q55-149 55-295Q55-424 87-575.50Q119-727 180.50-833.50Q242-940 327-940Q373-940 401-900.50Q429-861 429-798Q429-716 398-635Q367-554 295-465Q362-460 404-409.50Q446-359 454-285Q501-288 566-305Q572-307 580-307M304-841Q284-841 260.50-781.50Q237-722 217-620Q197-518 187-397Q253-518 292.50-610.50Q332-703 332-775Q332-807 324.50-824Q317-841 304-841M252-101Q283-101 307-127Q331-153 339-202Q308-223 291.50-257Q275-291 275-329Q275-343 279-367L276-367Q235-367 207.50-326.50Q180-286 180-218Q180-161 201.50-131Q223-101 252-101Z"/><path id="s63:pacifico-regular:425" d="M447-280Q475-280 475-238Q475-159 351-159Q327-159 282-168Q295-106 303.50-30.50Q312 45 312 94Q312 202 277 259Q242 316 185 316Q113 316 82.50 214Q52 112 52-94Q52-286 93.50-483.50Q135-681 207.50-810.50Q280-940 367-940Q414-940 440.50-898Q467-856 467-785Q467-550 186-273Q176-175 176-101Q176 2 183 110.50Q190 219 206 219Q236 219 236 115Q236 37 225.50-36Q215-109 197-190Q196-203 205.50-223Q215-243 229-258Q243-273 254-273Q274-273 302-271Q311-270 323-270Q363-270 412-277Q420-278 429-279Q438-280 447-280M346-841Q328-841 301.50-780Q275-719 249-618.50Q223-518 204-406Q284-497 327-595.50Q370-694 371-780Q371-841 346-841Z"/><path id="s63:pacifico-regular:519" d="M494-223Q507-223 514.50-211Q522-199 522-178Q522-138 503-116Q460-63 409-29Q358 5 292 5Q88 5 88-282Q88-326 91-371L52-371Q22-371 11.50-382Q1-393 1-417Q1-473 46-473L103-473Q120-583 155-674Q190-765 239.50-819Q289-873 346-873Q388-873 412-836Q436-799 436-743Q436-588 306-473L418-473Q434-473 441-466Q448-459 448-440Q448-371 335-371L213-371Q211-321 211-293Q211-189 235.50-147Q260-105 313-105Q356-105 389-131Q422-157 467-209Q479-223 494-223M319-777Q304-777 285.50-739.50Q267-702 250.50-635.50Q234-569 223-488Q282-539 311.50-602.50Q341-666 341-718Q341-777 319-777Z"/><path id="s63:pacifico-regular:435" d="M179-532Q137-532 116-551.50Q95-571 95-606Q95-641 122.50-664.50Q150-688 191-688Q228-688 251-670Q274-652 274-619Q274-579 248-555.50Q222-532 179-532M171 5Q106 5 76.50-41Q47-87 47-163Q47-208 58.50-278.50Q70-349 88-410Q97-442 112-454Q127-466 160-466Q211-466 211-432Q211-407 192-316Q168-206 168-167Q168-137 176-121Q184-105 203-105Q221-105 248-130Q275-155 320-209Q332-223 347-223Q360-223 367.50-211Q375-199 375-178Q375-138 356-116Q257 5 171 5Z"/><path id="s63:pacifico-regular:552" d="M560-221Q573-221 580.50-208.50Q588-196 588-177Q588-154 581-141Q574-128 559-118L367 11Q329 218 267.50 336.50Q206 455 111 455Q60 455 28 423.50Q-4 392-4 341Q-4 294 17.50 245Q39 196 97.50 132.50Q156 69 263-13L266-36Q273-73 282-142Q262-70 226-32.50Q190 5 150 5Q105 5 76.50-36.50Q48-78 48-140Q48-215 58-277.50Q68-340 91-410Q101-440 119-453Q137-466 176-466Q198-466 206.50-459Q215-452 215-438Q215-430 204-384Q194-347 188-317Q180-276 174-238.50Q168-201 168-177Q168-139 189-139Q204-139 226.50-169Q249-199 274.50-260Q300-321 324-410Q332-440 348.50-453Q365-466 398-466Q421-466 430-460Q439-454 439-440Q439-415 413-268L387-107Q464-165 537-213Q550-221 560-221M122 358Q147 358 178 300Q209 242 240 107Q163 172 128.50 225.50Q94 279 94 319Q94 336 100.50 347Q107 358 122 358Z"/><path id="s63:pacifico-regular:868" d="M117 5Q73 5 50.50-19Q28-43 28-82Q28-127 53.50-154Q79-181 125-181Q169-181 191.50-159.50Q214-138 214-96Q214-50 188-22.50Q162 5 117 5Z"/><path id="s63:pacifico-regular:551" d="M630-223Q643-223 650.50-211Q658-199 658-178Q658-138 639-116Q595-64 542.50-29.50Q490 5 424 5Q373 5 333.50-14Q294-33 271-68Q214 4 136 4Q81 4 49-28Q17-60 17-113Q17-163 40-194Q63-225 105-225Q141-225 141-198Q141-191 139-173Q136-137 136-132Q136-102 162-102Q181-102 198.50-124.50Q216-147 227.50-186Q239-225 239-272Q239-308 230-332.50Q221-357 208-357Q197-357 192-351.50Q187-346 182-333Q176-317 166-307.50Q156-298 131-298Q109-298 96-313.50Q83-329 83-361Q83-412 114-441Q145-470 194-470Q236-470 270-449.50Q304-429 322-390Q352-430 389.50-450Q427-470 463-470Q502-470 522.50-452Q543-434 543-394Q543-349 526-323.50Q509-298 485-298Q463-298 455-307Q447-316 443-333Q441-345 437-351Q433-357 423-357Q411-357 397.50-334.50Q384-312 374.50-275Q365-238 365-198Q365-151 387.50-125.50Q410-100 449-100Q488-100 522.50-126.50Q557-153 603-209Q615-223 630-223Z"/><path id="s63:pacifico-regular:393" d="M239 5Q141 5 86.50-50.50Q32-106 32-197Q32-278 64-339Q96-400 147-433Q198-466 254-466Q309-466 339.50-433.50Q370-401 370-350Q370-308 351.50-279Q333-250 303-250Q284-250 272.50-259Q261-268 261-284Q261-291 263-300Q265-309 266-313Q271-328 271-341Q271-354 264.50-361Q258-368 246-368Q223-368 203-347.50Q183-327 171-292Q159-257 159-215Q159-99 260-99Q301-99 348.50-126.50Q396-154 442-209Q454-223 469-223Q482-223 489.50-211Q497-199 497-178Q497-140 478-116Q431-58 365.50-26.50Q300 5 239 5Z"/><path id="s63:pacifico-regular:64" d="M887-829Q915-825 925.50-812Q936-799 936-778Q936-709 862-714L827-717Q768-722 709.50-725Q651-728 587-728L542-728Q530-580 517-458L689-461Q726-461 738.50-448Q751-435 751-413Q751-379 731-359.50Q711-340 674-340L503-340L497-297Q476-132 407.50-62Q339 8 219 8Q151 8 94-21.50Q37-51 10-93Q-1-110-1-134Q-1-158 10.50-176Q22-194 39-194Q51-194 62.50-186Q74-178 92-155Q140-92 211-92Q268-92 306.50-138.50Q345-185 356-285L362-340L314-340Q291-340 274.50-353Q258-366 258-390Q258-421 274-437.50Q290-454 321-454Q349-454 376-455Q388-565 402-722Q294-712 250-687Q206-662 206-613Q206-579 226-548Q232-539 232-530Q232-512 212-498.50Q192-485 167-485Q140-485 121-501Q109-511 98-542Q87-573 87-611Q87-735 214.50-791Q342-847 587-847Q757-847 887-829Z"/><path id="s63:pacifico-regular:863" d="M64 158Q42 158 29 148Q16 138 16 116Q16 107 19 95Q30 49 35.50 10Q41-29 41-77Q41-127 64.50-154Q88-181 125-181Q161-181 179.50-161.50Q198-142 198-109Q198-74 177-16Q156 42 126 97Q106 134 94.50 146Q83 158 64 158Z"/></defs><g id="line-0"><use x="0" y="1076.5" xlink:href="#s63:pacifico-regular:157"/><use x="697" y="1076.5" xlink:href="#s63:pacifico-regular:432"/><use x="1199" y="1076.5" xlink:href="#s63:pacifico-regular:404"/><use x="1592" y="1076.5" xlink:href="#s63:pacifico-regular:3"/><use x="1857" y="1076.5" xlink:href="#s63:pacifico-regular:44"/><use x="2543" y="1076.5" xlink:href="#s63:pacifico-regular:524"/><use x="3005" y="1076.5" xlink:href="#s63:pacifico-regular:506"/><use x="3460" y="1076.5" xlink:href="#s63:pacifico-regular:472"/><use x="3911" y="1076.5" xlink:href="#s63:pacifico-regular:503"/><use x="4392" y="1076.5" xlink:href="#s63:pacifico-regular:404"/><use x="4785" y="1076.5" xlink:href="#s63:pacifico-regular:365"/><use x="5255" y="1076.5" xlink:href="#s63:pacifico-regular:464"/><use x="5751" y="1076.5" xlink:href="#s63:pacifico-regular:3"/><use x="6016" y="1076.5" xlink:href="#s63:pacifico-regular:456"/><use x="6342" y="1076.5" xlink:href="#s63:pacifico-regular:365"/><use x="6812" y="1076.5" xlink:href="#s63:pacifico-regular:464"/><use x="7308" y="1076.5" xlink:href="#s63:pacifico-regular:426"/><use x="7787" y="1076.5" xlink:href="#s63:pacifico-regular:524"/><use x="8249" y="1076.5" xlink:href="#s63:pacifico-regular:365"/><use x="8719" y="1076.5" xlink:href="#s63:pacifico-regular:426"/><use x="9198" y="1076.5" xlink:href="#s63:pacifico-regular:404"/><use x="9591" y="1076.5" xlink:href="#s63:pacifico-regular:512"/><use x="10018" y="1076.5" xlink:href="#s63:pacifico-regular:3"/><use x="10283" y="1076.5" xlink:href="#s63:pacifico-regular:365"/><use x="10753" y="1076.5" xlink:href="#s63:pacifico-regular:506"/><use x="11208" y="1076.5" xlink:href="#s63:pacifico-regular:404"/><use x="11601" y="1076.5" xlink:href="#s63:pacifico-regular:3"/><use x="11866" y="1076.5" xlink:href="#s63:pacifico-regular:463"/><use x="12610" y="1076.5" xlink:href="#s63:pacifico-regular:404"/><use x="13003" y="1076.5" xlink:href="#s63:pacifico-regular:463"/><use x="13747" y="1076.5" xlink:href="#s63:pacifico-regular:392"/><use x="14220" y="1076.5" xlink:href="#s63:pacifico-regular:404"/><use x="14613" y="1076.5" xlink:href="#s63:pacifico-regular:506"/><use x="15068" y="1076.5" xlink:href="#s63:pacifico-regular:512"/><use x="15495" y="1076.5" xlink:href="#s63:pacifico-regular:3"/><use x="15760" y="1076.5" xlink:href="#s63:pacifico-regular:472"/><use x="16211" y="1076.5" xlink:href="#s63:pacifico-regular:425"/><use x="16582" y="1076.5" xlink:href="#s63:pacifico-regular:3"/><use x="16847" y="1076.5" xlink:href="#s63:pacifico-regular:519"/><use x="17240" y="1076.5" xlink:href="#s63:pacifico-regular:432"/><use x="17742" y="1076.5" xlink:href="#s63:pacifico-regular:404"/><use x="18135" y="1076.5" xlink:href="#s63:pacifico-regular:3"/><use x="18400" y="1076.5" xlink:href="#s63:pacifico-regular:512"/><use x="18827" y="1076.5" xlink:href="#s63:pacifico-regular:365"/><use x="19297" y="1076.5" xlink:href="#s63:pacifico-regular:463"/><use x="20041" y="1076.5" xlink:href="#s63:pacifico-regular:404"/><use x="20434" y="1076.5" xlink:href="#s63:pacifico-regular:3"/><use x="20699" y="1076.5" xlink:href="#s63:pacifico-regular:425"/><use x="21070" y="1076.5" xlink:href="#s63:pacifico-regular:365"/><use x="21540" y="1076.5" xlink:href="#s63:pacifico-regular:463"/><use x="22284" y="1076.5" xlink:href="#s63:pacifico-regular:435"/><use x="22530" y="1076.5" xlink:href="#s63:pacifico-regular:456"/><use x="22856" y="1076.5" xlink:href="#s63:pacifico-regular:552"/><use x="23335" y="1076.5" xlink:href="#s63:pacifico-regular:868"/></g><g id="line-1"><use x="4668" y="2276.5" xlink:href="#s63:pacifico-regular:157"/><use x="5365" y="2276.5" xlink:href="#s63:pacifico-regular:432"/><use x="5867" y="2276.5" xlink:href="#s63:pacifico-regular:404"/><use x="6260" y="2276.5" xlink:href="#s63:pacifico-regular:435"/><use x="6506" y="2276.5" xlink:href="#s63:pacifico-regular:506"/><use x="6961" y="2276.5" xlink:href="#s63:pacifico-regular:3"/><use x="7226" y="2276.5" xlink:href="#s63:pacifico-regular:512"/><use x="7653" y="2276.5" xlink:href="#s63:pacifico-regular:404"/><use x="8046" y="2276.5" xlink:href="#s63:pacifico-regular:503"/><use x="8527" y="2276.5" xlink:href="#s63:pacifico-regular:365"/><use x="8997" y="2276.5" xlink:href="#s63:pacifico-regular:506"/><use x="9452" y="2276.5" xlink:href="#s63:pacifico-regular:365"/><use x="9922" y="2276.5" xlink:href="#s63:pacifico-regular:519"/><use x="10315" y="2276.5" xlink:href="#s63:pacifico-regular:404"/><use x="10708" y="2276.5" xlink:href="#s63:pacifico-regular:3"/><use x="10973" y="2276.5" xlink:href="#s63:pacifico-regular:404"/><use x="11366" y="2276.5" xlink:href="#s63:pacifico-regular:551"/><use x="11895" y="2276.5" xlink:href="#s63:pacifico-regular:435"/><use x="12141" y="2276.5" xlink:href="#s63:pacifico-regular:512"/><use x="12568" y="2276.5" xlink:href="#s63:pacifico-regular:519"/><use x="12961" y="2276.5" xlink:href="#s63:pacifico-regular:404"/><use x="13354" y="2276.5" xlink:href="#s63:pacifico-regular:464"/><use x="13850" y="2276.5" xlink:href="#s63:pacifico-regular:393"/><use x="14218" y="2276.5" xlink:href="#s63:pacifico-regular:404"/><use x="14611" y="2276.5" xlink:href="#s63:pacifico-regular:3"/><use x="14876" y="2276.5" xlink:href="#s63:pacifico-regular:435"/><use x="15122" y="2276.5" xlink:href="#s63:pacifico-regular:512"/><use x="15549" y="2276.5" xlink:href="#s63:pacifico-regular:3"/><use x="15814" y="2276.5" xlink:href="#s63:pacifico-regular:365"/><use x="16284" y="2276.5" xlink:href="#s63:pacifico-regular:3"/><use x="16549" y="2276.5" xlink:href="#s63:pacifico-regular:463"/><use x="17293" y="2276.5" xlink:href="#s63:pacifico-regular:552"/><use x="17772" y="2276.5" xlink:href="#s63:pacifico-regular:519"/><use x="18165" y="2276.5" xlink:href="#s63:pacifico-regular:432"/><use x="18667" y="2276.5" xlink:href="#s63:pacifico-regular:868"/></g><g id="line-2"><use x="5801.5" y="3476.5" xlink:href="#s63:pacifico-regular:64"/><use x="6513.5" y="3476.5" xlink:href="#s63:pacifico-regular:472"/><use x="6964.5" y="3476.5" xlink:href="#s63:pacifico-regular:506"/><use x="7419.5" y="3476.5" xlink:href="#s63:pacifico-regular:3"/><use x="7684.5" y="3476.5" xlink:href="#s63:pacifico-regular:512"/><use x="8111.5" y="3476.5" xlink:href="#s63:pacifico-regular:393"/><use x="8479.5" y="3476.5" xlink:href="#s63:pacifico-regular:435"/><use x="8725.5" y="3476.5" xlink:href="#s63:pacifico-regular:404"/><use x="9118.5" y="3476.5" xlink:href="#s63:pacifico-regular:464"/><use x="9614.5" y="3476.5" xlink:href="#s63:pacifico-regular:393"/><use x="9982.5" y="3476.5" xlink:href="#s63:pacifico-regular:404"/><use x="10375.5" y="3476.5" xlink:href="#s63:pacifico-regular:863"/><use x="10632.5" y="3476.5" xlink:href="#s63:pacifico-regular:3"/><use x="10897.5" y="3476.5" xlink:href="#s63:pacifico-regular:463"/><use x="11641.5" y="3476.5" xlink:href="#s63:pacifico-regular:524"/><use x="12103.5" y="3476.5" xlink:href="#s63:pacifico-regular:512"/><use x="12530.5" y="3476.5" xlink:href="#s63:pacifico-regular:435"/><use x="12776.5" y="3476.5" xlink:href="#s63:pacifico-regular:393"/><use x="13144.5" y="3476.5" xlink:href="#s63:pacifico-regular:863"/><use x="13401.5" y="3476.5" xlink:href="#s63:pacifico-regular:3"/><use x="13666.5" y="3476.5" xlink:href="#s63:pacifico-regular:512"/><use x="14093.5" y="3476.5" xlink:href="#s63:pacifico-regular:503"/><use x="14574.5" y="3476.5" xlink:href="#s63:pacifico-regular:472"/><use x="15025.5" y="3476.5" xlink:href="#s63:pacifico-regular:506"/><use x="15480.5" y="3476.5" xlink:href="#s63:pacifico-regular:519"/><use x="15873.5" y="3476.5" xlink:href="#s63:pacifico-regular:863"/><use x="16130.5" y="3476.5" xlink:href="#s63:pacifico-regular:3"/><use x="16395.5" y="3476.5" xlink:href="#s63:pacifico-regular:404"/><use x="16788.5" y="3476.5" xlink:href="#s63:pacifico-regular:519"/><use x="17181.5" y="3476.5" xlink:href="#s63:pacifico-regular:393"/><use x="17549.5" y="3476.5" xlink:href="#s63:pacifico-regular:863"/></g></svg>