<svg xmlns="http://www.w3.org/2000/svg" xmlns:xlink="http://www.w3.org/1999/xlink" width="608" height="84" viewBox="0 0 25322 3495.5"><defs><path id="s64:patuaone-regular:55" d="M568-689L568-546L505-538Q492-548 480-580L360-580L360-116Q400-100 415-83L405 0L171 0L161-83Q174-100 216-116L216-580L96-580Q84-548 71-538L8-546L8-689L568-689Z"/><path id="s64:patuaone-regular:75" d="M24-710Q80-723 128-723Q176-723 209-720L209-470Q233-486 273-497Q313-508 344-508Q443-508 481-460Q519-412 519-314L519-111Q558-96 574-77L564 0L334 0L324-77Q338-96 379-111L379-309Q379-363 361.50-381.50Q344-400 298-400Q252-400 209-368L209-111Q248-96 264-77L254 0L24 0L14-77Q28-96 69-111L69-599Q34-611 14-633L24-710Z"/><path id="s64:patuaone-regular:72" d="M266 8Q146 8 85.50-56Q25-120 25-242Q25-316 46-369.50Q67-423 103-452Q173-508 266-508Q359-508 408.50-460.50Q458-413 458-290Q458-218 387-218L170-218Q174-155 202.50-129Q231-103 293-103Q327-103 358-111Q389-119 403-127L417-135L447-55Q441-48 429.50-37.50Q418-27 371.50-9.50Q325 8 266 8M329-307Q331-321 331-341Q331-361 315-383.50Q299-406 259.50-406Q220-406 199-382Q178-358 171-301L329-307Z"/><path id="s64:patuaone-regular:3" d=""/><path id="s64:patuaone-regular:40" d="M506 0L42 0L32-83Q45-100 87-116L87-573Q46-588 32-607L42-690L498-690L498-516L424-507Q401-527 387-581L231-581L231-409L370-409Q382-439 395-451L458-444L458-266L395-258Q382-268 370-300L231-300L231-109L395-109Q408-161 432-183L506-174L506 0Z"/><path id="s64:patuaone-regular:88" d="M395-42Q326 8 232.50 8Q139 8 102-31Q65-70 65-158L65-389Q30-401 10-423L20-500Q76-513 124-513Q172-513 205-510L205-191Q205-137 221.50-119.50Q238-102 287-102Q336-102 378-134L378-389Q343-401 323-423L333-500Q389-513 437-513Q485-513 518-510L518-120Q553-113 573-103L573-24Q513 8 422 8Q397-10 395-42Z"/><path id="s64:patuaone-regular:85" d="M326-377Q250-377 221-348L221-119Q302-104 332-77L322 0L36 0L26-77Q40-96 81-111L81-389Q46-401 26-423L36-500Q91-512 135-512Q179-512 208-510L208-447Q231-474 267-491.50Q303-509 332.50-509Q362-509 373-504L370-374Q350-377 326-377Z"/><path id="s64:patuaone-regular:82" d="M257.50 8Q257.50 8 198.25 8Q139 8 82-55Q25-118 25-245.50Q25-373 88.50-440.50Q152-508 271-508Q390-508 447.50-448Q505-388 505-260.50Q505-133 440.50-62.50Q376 8 257.50 8M169-254Q169-94 265-94Q314-94 337.50-130.50Q361-167 361-250Q361-406 263-406Q215-406 192-371.50Q169-337 169-254Z"/><path id="s64:patuaone-regular:83" d="M25-500Q80-512 124-512Q168-512 197-510L197-461Q264-508 340-508Q440-508 485-451Q530-394 530-261Q530-190 509-136Q488-82 452-52Q383 8 288 8Q247 8 210 0L210 86Q269 102 286 123L276 200L25 200L15 123Q28 105 70 89L70-389Q35-401 15-423L25-500M278-94Q328-94 357-138.50Q386-183 386-261.50Q386-340 370-369Q354-398 312-398Q248-398 210-368L210-102Q241-94 278-94Z"/><path id="s64:patuaone-regular:68" d="M46-426Q46-441 47-458Q140-508 247-508Q354-508 400.50-467.50Q447-427 447-333L447-120Q482-113 502-103L502-16Q451 8 356 8Q346-18 339-55Q296 8 183 8Q116 8 68.50-31Q21-70 21-137Q21-204 65.50-242.50Q110-281 198-281L307-281L307-329Q307-407 224-407Q193-407 173-401Q171-359 161-336L63-336Q46-371 46-426M226-94Q277-94 307-124L307-206L237-206Q165-206 165-151Q165-126 180.50-110Q196-94 226-94Z"/><path id="s64:patuaone-regular:81" d="M36-500Q91-512 135-512Q179-512 208-510L208-460Q233-481 274.50-494.50Q316-508 354-508Q452-508 491.50-462Q531-416 531-303L531-111Q570-96 586-77L576 0L346 0L336-77Q350-96 391-111L391-309Q391-363 373.50-381.50Q356-400 311-400Q266-400 221-368L221-111Q260-96 276-77L266 0L36 0L26-77Q40-96 81-111L81-389Q46-401 26-423L36-500Z"/><path id="s64:patuaone-regular:79" d="M24-710Q80-723 128-723Q176-723 209-720L209-111Q248-96 264-77L254 0L24 0L14-77Q28-96 69-111L69-599Q34-611 14-633L24-710Z"/><path id="s64:patuaone-regular:74" d="M256 106Q345 106 345-1L345-45Q296-15 222-15Q128-15 77.50-70Q27-125 27-253Q27-508 261-508Q321-508 373-482Q383-500 403-500L485-500L485-8Q485 102 430.50 155Q376 208 262 208Q202 208 138 194Q74 180 41 159Q40 150 40 141Q40 86 66 35L154 35Q165 56 170 91Q208 106 256 106M165-259Q165-184 185.50-154Q206-124 255.50-124Q305-124 345-152L345-389Q305-406 258-406Q165-406 165-259Z"/><path id="s64:patuaone-regular:86" d="M226-418Q160-418 160-379Q160-342 229-324L308-303Q430-271 430-162Q430-87 377.50-39.50Q325 8 210.50 8Q96 8 32-24Q31-35 31-46Q31-101 53-145L136-145Q149-121 153-95Q173-89 210-89Q298-89 298-139Q298-155 286-165.50Q274-176 239-186L160-209Q99-226 65-259.50Q31-293 31-358.50Q31-424 84-466Q137-508 235.50-508Q334-508 402-479Q403-469 403-459Q403-407 381-363L299-363Q286-386 282-411Q254-418 226-418Z"/><path id="s64:patuaone-regular:80" d="M36-500Q91-512 135-512Q179-512 208-510L208-460Q232-480 268-494Q304-508 333-508Q447-508 485-451Q510-475 551-491.50Q592-508 627-508Q737-508 775-458.50Q813-409 813-273L813-111Q852-96 868-77L858 0L628 0L618-77Q632-96 673-111L673-309Q673-364 658-382Q643-400 598.50-400Q554-400 514-367Q519-333 519-273L519-111Q558-96 574-77L564 0L334 0L324-77Q338-96 379-111L379-309Q379-364 364-382Q349-400 305-400Q261-400 221-368L221-111Q260-96 276-77L266 0L36 0L26-77Q40-96 81-111L81-389Q46-401 26-423L36-500Z"/><path id="s64:patuaone-regular:69" d="M5-710Q61-723 109-723Q157-723 190-720L190-470Q211-485 246-496.50Q281-508 313-508Q422-508 466-452Q510-396 510-261Q510-186 489.50-131.50Q469-77 434-48Q368 8 278 8Q210 8 144-26Q125 0 100 0L50 0L50-599Q15-611-5-633L5-710M270-94Q366-94 366-255Q366-340 349.50-370.50Q333-401 292-401Q230-401 190-368L190-111Q233-94 270-94Z"/><path id="s64:patuaone-regular:73" d="M81-519Q81-623 126-675.50Q171-728 269-728Q367-728 439-675Q440-668 440-654.50Q440-641 433-610Q426-579 414-560L330-560Q312-594 311-624Q299-626 291-626Q253-626 237-605Q221-584 221-529L221-491L374-491L374-399L221-399L221-116Q296-101 323-77L313 0L36 0L26-77Q40-96 81-111L81-399L37-399L26-468Q48-488 81-491L81-519Z"/><path id="s64:patuaone-regular:87" d="M208-626L208-500L351-500L351-416L208-416L208-163Q208-131 217-116.50Q226-102 260-102Q294-102 333-117L363-39Q286 0 205.50 0Q125 0 96.50-34.50Q68-69 68-135L68-416L23-416L12-477Q28-496 78-515Q90-597 135-626L208-626Z"/><path id="s64:patuaone-regular:76" d="M38-500Q94-513 142-513Q190-513 223-510L223-111Q262-96 278-77L268 0L38 0L28-77Q42-96 83-111L83-389Q48-401 28-423L38-500M151.50-569Q151.50-569 109.75-569Q68-569 68-644.50Q68-720 151.50-720Q235-720 235-644.50Q235-569 151.50-569Z"/><path id="s64:patuaone-regular:92" d="M161 116Q179 116 199.50 82.50Q220 49 228 3L64-385Q15-401-2-423L8-500L238-500L248-423Q235-407 204-394L259-243Q277-196 284-150L287-136L301-136Q309-186 329-241L382-389Q345-403 330-423L340-500L560-500L570-423Q552-400 504-384L339 6Q292 117 267 149Q223 208 144.50 208Q66 208 25 167Q24 157 24 147Q24 92 47 43L130 43Q145 70 147 116L161 116Z"/><path id="s64:patuaone-regular:17" d="M120.50 10Q120.50 10 78.75 10Q37 10 37-65.50Q37-141 120.50-141Q204-141 204-65.50Q204 10 120.50 10Z"/><path id="s64:patuaone-regular:91" d="M294-304Q301-331 323-366L341-394Q312-407 300-423L310-500L530-500L540-423Q520-396 459-380L371-257L465-118Q520-103 541-77L531 0L301 0L291-77Q301-90 328-103L303-144Q286-172 277-203L274-213L260-213Q251-178 231-146L207-108Q241-93 253-77L243 0L23 0L13-77Q32-102 88-118L183-257L95-380Q35-396 14-423L24-500L254-500L264-423Q250-407 230-398L251-368Q271-338 280-304L294-304Z"/><path id="s64:patuaone-regular:70" d="M261-406Q169-406 169-248Q169-168 194.50-136.50Q220-105 268-105Q344-105 402-119L432-42Q400-21 346-6.50Q292 8 241 8Q25 8 25-242Q25-388 100-452Q167-508 263-508Q359-508 423-472Q424-462 424-453Q424-396 398-345L310-345Q296-370 293-405Q281-406 261-406Z"/><path id="s64:patuaone-regular:41" d="M498-690L498-516L424-507Q401-527 387-581L231-581L231-399L370-399Q382-429 395-441L458-434L458-256L395-248Q382-258 370-290L231-290L231-124Q298-109 328-83L318 0L42 0L32-83Q45-100 87-116L87-573Q46-588 32-607L42-690L498-690Z"/><path id="s64:patuaone-regular:15" d="M36-65Q36-141 121-141Q206-141 206-65Q206 2 172 59.50Q138 117 90 151L48 125Q81 70 81 17Q81 9 80 2Q61-4 48.50-22.50Q36-41 36-65Z"/></defs><g id="line-0"><use x="0" y="848.5" xlink:href="#s64:patuaone-regular:55"/><use x="576" y="848.5" xlink:href="#s64:patuaone-regular:75"/><use x="1159" y="848.5" xlink:href="#s64:patuaone-regular:72"/><use x="1642" y="848.5" xlink:href="#s64:patuaone-regular:3"/><use x="1867" y="848.5" xlink:href="#s64:patuaone-regular:40"/><use x="2406" y="848.5" xlink:href="#s64:patuaone-regular:88"/><use x="2994" y="848.5" xlink:href="#s64:patuaone-regular:85"/><use x="3382" y="848.5" xlink:href="#s64:patuaone-regular:82"/><use x="3912" y="848.5" xlink:href="#s64:patuaone-regular:83"/><use x="4468" y="848.5" xlink:href="#s64:patuaone-regular:72"/><use x="4951" y="848.5" xlink:href="#s64:patuaone-regular:68"/><use x="5463" y="848.5" xlink:href="#s64:patuaone-regular:81"/><use x="6058" y="848.5" xlink:href="#s64:patuaone-regular:3"/><use x="6283" y="848.5" xlink:href="#s64:patuaone-regular:79"/><use x="6562" y="848.5" xlink:href="#s64:patuaone-regular:68"/><use x="7074" y="848.5" xlink:href="#s64:patuaone-regular:81"/><use x="7669" y="848.5" xlink:href="#s64:patuaone-regular:74"/><use x="8204" y="848.5" xlink:href="#s64:patuaone-regular:88"/><use x="8792" y="848.5" xlink:href="#s64:patuaone-regular:68"/><use x="9304" y="848.5" xlink:href="#s64:patuaone-regular:74"/><use x="9839" y="848.5" xlink:href="#s64:patuaone-regular:72"/><use x="10322" y="848.5" xlink:href="#s64:patuaone-regular:86"/><use x="10773" y="848.5" xlink:href="#s64:patuaone-regular:3"/><use x="10998" y="848.5" xlink:href="#s64:patuaone-regular:68"/><use x="11510" y="848.5" xlink:href="#s64:patuaone-regular:85"/><use x="11898" y="848.5" xlink:href="#s64:patuaone-regular:72"/><use x="12381" y="848.5" xlink:href="#s64:patuaone-regular:3"/><use x="12606" y="848.5" xlink:href="#s64:patuaone-regular:80"/><use x="13482" y="848.5" xlink:href="#s64:patuaone-regular:72"/><use x="13965" y="848.5" xlink:href="#s64:patuaone-regular:80"/><use x="14841" y="848.5" xlink:href="#s64:patuaone-regular:69"/><use x="15378" y="848.5" xlink:href="#s64:patuaone-regular:72"/><use x="15861" y="848.5" xlink:href="#s64:patuaone-regular:85"/><use x="16249" y="848.5" xlink:href="#s64:patuaone-regular:86"/><use x="16700" y="848.5" xlink:href="#s64:patuaone-regular:3"/><use x="16925" y="848.5" xlink:href="#s64:patuaone-regular:82"/><use x="17455" y="848.5" xlink:href="#s64:patuaone-regular:73"/><use x="17837" y="848.5" xlink:href="#s64:patuaone-regular:3"/><use x="18062" y="848.5" xlink:href="#s64:patuaone-regular:87"/><use x="18434" y="848.5" xlink:href="#s64:patuaone-regular:75"/><use x="19017" y="848.5" xlink:href="#s64:patuaone-regular:72"/><use x="19500" y="848.5" xlink:href="#s64:patuaone-regular:3"/><use x="19725" y="848.5" xlink:href="#s64:patuaone-regular:86"/><use x="20176" y="848.5" xlink:href="#s64:patuaone-regular:68"/><use x="20688" y="848.5" xlink:href="#s64:patuaone-regular:80"/><use x="21564" y="848.5" xlink:href="#s64:patuaone-regular:72"/><use x="22047" y="848.5" xlink:href="#s64:patuaone-regular:3"/><use x="22272" y="848.5" xlink:href="#s64:patuaone-regular:73"/><use x="22654" y="848.5" xlink:href="#s64:patuaone-regular:68"/><use x="23166" y="848.5" xlink:href="#s64:patuaone-regular:80"/><use x="24042" y="848.5" xlink:href="#s64:patuaone-regular:76"/><use x="24334" y="848.5" xlink:href="#s64:patuaone-regular:79"/><use x="24602" y="848.5" xlink:href="#s64:patuaone-regular:92"/><use x="25118" y="848.5" xlink:href="#s64:patuaone-regular:17"/></g><g id="line-1"><use x="5048.5" y="2048.5" xlink:href="#s64:patuaone-regular:55"/><use x="5624.5" y="2048.5" xlink:href="#s64:patuaone-regular:75"/><use x="6207.5" y="2048.5" xlink:href="#s64:patuaone-regular:72"/><use x="6690.5" y="2048.5" xlink:href="#s64:patuaone-regular:76"/><use x="6982.5" y="2048.5" xlink:href="#s64:patuaone-regular:85"/><use x="7370.5" y="2048.5" xlink:href="#s64:patuaone-regular:3"/><use x="7595.5" y="2048.5" xlink:href="#s64:patuaone-regular:86"/><use x="8046.5" y="2048.5" xlink:href="#s64:patuaone-regular:72"/><use x="8529.5" y="2048.5" xlink:href="#s64:patuaone-regular:83"/><use x="9085.5" y="2048.5" xlink:href="#s64:patuaone-regular:68"/><use x="9597.5" y="2048.5" xlink:href="#s64:patuaone-regular:85"/><use x="9985.5" y="2048.5" xlink:href="#s64:patuaone-regular:68"/><use x="10497.5" y="2048.5" xlink:href="#s64:patuaone-regular:87"/><use x="10869.5" y="2048.5" xlink:href="#s64:patuaone-regular:72"/><use x="11352.5" y="2048.5" xlink:href="#s64:patuaone-regular:3"/><use x="11577.5" y="2048.5" xlink:href="#s64:patuaone-regular:72"/><use x="12060.5" y="2048.5" xlink:href="#s64:patuaone-regular:91"/><use x="12614.5" y="2048.5" xlink:href="#s64:patuaone-regular:76"/><use x="12906.5" y="2048.5" xlink:href="#s64:patuaone-regular:86"/><use x="13357.5" y="2048.5" xlink:href="#s64:patuaone-regular:87"/><use x="13729.5" y="2048.5" xlink:href="#s64:patuaone-regular:72"/><use x="14212.5" y="2048.5" xlink:href="#s64:patuaone-regular:81"/><use x="14807.5" y="2048.5" xlink:href="#s64:patuaone-regular:70"/><use x="15257.5" y="2048.5" xlink:href="#s64:patuaone-regular:72"/><use x="15740.5" y="2048.5" xlink:href="#s64:patuaone-regular:3"/><use x="15965.5" y="2048.5" xlink:href="#s64:patuaone-regular:76"/><use x="16257.5" y="2048.5" xlink:href="#s64:patuaone-regular:86"/><use x="16708.5" y="2048.5" xlink:href="#s64:patuaone-regular:3"/><use x="16933.5" y="2048.5" xlink:href="#s64:patuaone-regular:68"/><use x="17445.5" y="2048.5" xlink:href="#s64:patuaone-regular:3"/><use x="17670.5" y="2048.5" xlink:href="#s64:patuaone-regular:80"/><use x="18546.5" y="2048.5" xlink:href="#s64:patuaone-regular:92"/><use x="19114.5" y="2048.5" xlink:href="#s64:patuaone-regular:87"/><use x="19486.5" y="2048.5" xlink:href="#s64:patuaone-regular:75"/><use x="20069.5" y="2048.5" xlink:href="#s64:patuaone-regular:17"/></g><g id="line-2"><use x="6297.5" y="3248.5" xlink:href="#s64:patuaone-regular:41"/><use x="6805.5" y="3248.5" xlink:href="#s64:patuaone-regular:82"/><use x="7335.5" y="3248.5" xlink:href="#s64:patuaone-regular:85"/><use x="7723.5" y="3248.5" xlink:href="#s64:patuaone-regular:3"/><use x="7948.5" y="3248.5" xlink:href="#s64:patuaone-regular:86"/><use x="8399.5" y="3248.5" xlink:href="#s64:patuaone-regular:70"/><use x="8849.5" y="3248.5" xlink:href="#s64:patuaone-regular:76"/><use x="9141.5" y="3248.5" xlink:href="#s64:patuaone-regular:72"/><use x="9624.5" y="3248.5" xlink:href="#s64:patuaone-regular:81"/><use x="10219.5" y="3248.5" xlink:href="#s64:patuaone-regular:70"/><use x="10669.5" y="3248.5" xlink:href="#s64:patuaone-regular:72"/><use x="11152.5" y="3248.5" xlink:href="#s64:patuaone-regular:15"/><use x="11396.5" y="3248.5" xlink:href="#s64:patuaone-regular:3"/><use x="11621.5" y="3248.5" xlink:href="#s64:patuaone-regular:80"/><use x="12497.5" y="3248.5" xlink:href="#s64:patuaone-regular:88"/><use x="13085.5" y="3248.5" xlink:href="#s64:patuaone-regular:86"/><use x="13536.5" y="3248.5" xlink:href="#s64:patuaone-regular:76"/><use x="13828.5" y="3248.5" xlink:href="#s64:patuaone-regular:70"/><use x="14278.5" y="3248.5" xlink:href="#s64:patuaone-regular:15"/><use x="14522.5" y="3248.5" xlink:href="#s64:patuaone-regular:3"/><use x="14747.5" y="3248.5" xlink:href="#s64:patuaone-regular:86"/><use x="15198.5" y="3248.5" xlink:href="#s64:patuaone-regular:83"/><use x="15754.5" y="3248.5" xlink:href="#s64:patuaone-regular:82"/><use x="16284.5" y="3248.5" xlink:href="#s64:patuaone-regular:85"/><use x="16672.5" y="3248.5" xlink:href="#s64:patuaone-regular:87"/><use x="17044.5" y="3248.5" xlink:href="#s64:patuaone-regular:15"/><use x="17288.5" y="3248.5" xlink:href="#s64:patuaone-regular:3"/><use x="17513.5" y="3248.5" xlink:href="#s64:patuaone-regular:72"/><use x="17996.5" y="3248.5" xlink:href="#s64:patuaone-regular:87"/><use x="18368.5" y="3248.5" xlink:href="#s64:patuaone-regular:70"/><use x="18818.5" y="3248.5" xlink:href="#s64:patuaone-regular:15"/></g></svg>