<svg xmlns="http://www.w3.org/2000/svg" xmlns:xlink="http://www.w3.org/1999/xlink" width="683" height="88" viewBox="0 0 29128 3756.1"><defs><path id="s96:permanentmarker:73" d="M22-564Q21-572 18.50-578.50Q16-585 13-593Q8-605 4-619Q0-633 0-652Q2-662 5-666.50Q8-671 11-674L15-692L30-692Q38-691 46.50-691Q55-691 63-691Q101-691 141-694Q181-697 223-701Q269-707 322-710Q327-721 328.50-724Q330-727 332-731L343-737Q366-738 375-731.50Q384-725 389-719Q415-721 442-724.50Q469-728 498-732Q538-737 579-742Q620-747 659-747Q676-747 691-746Q706-745 720-743L732-734Q736-727 742-721Q748-715 756-709Q771-697 785.50-679Q800-661 796-626L791-616Q787-612 781-608L771-595L760-595Q750-595 745-593.50Q740-592 733-589Q729-587 724-585.50Q719-584 713-582Q702-583 696-583Q690-583 682-583Q652-583 617-579Q582-575 549-570Q525-567 503-564.50Q481-562 463-560Q453-534 445-514Q437-494 428-474Q419-454 411-433.50Q403-413 396-388Q384-370 376-353.50Q368-337 363-316Q348-299 341.50-279Q335-259 330-245L326-230Q319-223 317.50-219Q316-215 312-210Q309-197 304-185Q302-180 300-174.50Q298-169 299-166Q297-155 293-149Q293-143 292-137Q291-131 290-125Q288-118 287-112.50Q286-107 288-102Q291-98 294-94Q297-90 299-84Q301-82 304-81Q307-80 309-78Q317-71 324-70L334-58Q340-22 323-2Q305 21 263 21L249 20Q242 13 241 11Q232 7 226 4.50Q220 2 215-5Q213-7 210-7.50Q207-8 205-10Q195-13 189-17L178-23Q179-33 179-37Q171-48 166.50-61Q162-74 159-88Q156-99 153.50-108Q151-117 146-124Q144-194 159-241.50Q174-289 192-334Q202-358 211-383Q220-408 227-434L238-445Q245-451 247-452Q247-465 252-477.50Q257-490 263-503Q267-511 270.50-519Q274-527 275-533Q268-533 262.50-532.50Q257-532 251-531Q238-528 226-528Q217-528 213-529Q205-525 198-524.50Q191-524 184-524L172-524L160-524Q148-524 141-521Q127-521 123-521Q119-521 114-521L102-521L90-521Q82-521 72-522.50Q62-524 51-530L44-538Q38-549 33-550L22-553L22-564Z"/><path id="s96:permanentmarker:93" d="M512-97Q514-71 506-54Q498-37 484-25Q470-13 452-6Q434 1 417 7Q409 2 401.50-3.50Q394-9 384-12Q371-36 359-54.50Q347-73 348-97Q348-98 349.50-108Q351-118 353.50-130Q356-142 357.50-152.50Q359-163 359-164Q336-162 311-154Q286-146 262.50-135Q239-124 218.50-113Q198-102 185-94Q185-91 181-79.50Q177-68 171-55.50Q165-43 158-33Q151-23 144-23Q145-20 147-17Q149-14 147-9Q133-5 122 1.50Q111 8 99 12.50Q87 17 73 17Q59 17 40 7Q40 1 35-3.50Q30-8 24.50-11.50Q19-15 15-17.50Q11-20 11-22Q6-21 7-29Q8-37 15-33Q4-47 1.50-57.50Q-1-68-10-84Q-8-86-6.50-91Q-5-96-4-100Q-3-104-1-106Q1-108 4-105Q2-114 4-120Q6-126 8-131Q10-136 11-141Q12-146 8-152Q24-174 29-199.50Q34-225 35-246Q42-253 47.50-266Q53-279 56-292.50Q59-306 58.50-318.50Q58-331 55-339Q56-344 66-342Q72-375 74.50-416.50Q77-458 83-495.50Q89-533 103-561.50Q117-590 148-599Q154-578 163.50-562Q173-546 184.50-531.50Q196-517 207.50-502Q219-487 229-468Q228-449 225-424Q222-399 217.50-373Q213-347 208.50-323Q204-299 200-282Q201-277 205.50-276Q210-275 207-267Q231-273 257-278Q283-283 309-289Q335-295 359.50-302.50Q384-310 405-321Q410-360 418-399Q426-438 420-479Q425-483 428-489Q431-495 438-497Q433-516 434-537Q435-558 441.50-577Q448-596 460.50-609.50Q473-623 491-627Q502-611 510-592.50Q518-574 526.50-555.50Q535-537 544.50-520.50Q554-504 569-492Q572-463 573.50-432Q575-401 576-369Q568-331 558.50-295.50Q549-260 545-220Q538-212 534-202Q530-192 526-181.50Q522-171 517-161.50Q512-152 505-145Q509-133 506.50-122.50Q504-112 512-97Z"/><path id="s96:permanentmarker:90" d="M558-563Q559-556 558.50-552.50Q558-549 557.50-546Q557-543 557-539.50Q557-536 559-529Q538-495 510.50-482.50Q483-470 451-464.50Q419-459 385.50-453Q352-447 319-427Q306-432 295.50-427Q285-422 265-424Q259-418 250-415.50Q241-413 232-410Q236-401 235.50-391.50Q235-382 238-376Q273-373 315.50-377Q358-381 399-382Q400-377 398-375.50Q396-374 397-370Q404-365 411-357.50Q418-350 425-343Q432-336 439.50-331.50Q447-327 457-328Q461-320 462.50-310.50Q464-301 460-291Q444-280 428-268.50Q412-257 394.50-248Q377-239 357.50-233.50Q338-228 314-229Q309-229 306.50-229Q304-229 300-232Q292-227 277.50-229Q263-231 255-226Q244-231 228.50-230.50Q213-230 201-234Q185-213 172-189Q159-165 149-138Q183-133 205.50-134Q228-135 248-137.50Q268-140 289-142.50Q310-145 342-144Q362-155 389.50-158.50Q417-162 440-170Q448-167 454-159.50Q460-152 465.50-145.50Q471-139 477-134Q483-129 492-130Q496-126 497.50-120.50Q499-115 500-110Q501-105 503.50-101.50Q506-98 512-99Q497-66 477.50-48.50Q458-31 433-22Q408-13 377.50-8Q347-3 310 4Q301 6 295 3.50Q289 1 281 1Q258 6 226 10Q194 14 161 13Q128 12 98 4.50Q68-3 49-22Q41-29 38.50-38.50Q36-48 25-53Q24-66 21-82Q18-98 15-115.50Q12-133 10.50-150Q9-167 12-181Q15-196 24.50-208Q34-220 31-234Q36-235 37-239.50Q38-244 45-243Q51-261 58-277Q65-293 72.50-308Q80-323 87.50-338.50Q95-354 102-373Q88-386 81.50-401.50Q75-417 72-432.50Q69-448 67-464.50Q65-481 60-498Q70-513 84.50-522.50Q99-532 116-538Q133-544 153-548Q173-552 195-557Q235-570 266.50-577Q298-584 328.50-588.50Q359-593 392-597Q425-601 467-609Q476-600 484-600Q488-609 493.50-605.50Q499-602 498-611Q508-594 523.50-582.50Q539-571 558-563Z"/><path id="s96:permanentmarker:21" d=""/><path id="s96:permanentmarker:58" d="M56-34Q48-42 44.50-53Q41-64 28-71Q26-86 22.50-105.50Q19-125 15.50-145.50Q12-166 10.50-186.50Q9-207 12-224Q14-233 18.50-241Q23-249 27.50-256.50Q32-264 34.50-272Q37-280 35-288Q41-289 42.50-294.50Q44-300 52-298Q59-320 67-339Q75-358 84-376Q93-394 102.50-412.50Q112-431 120-454Q103-470 95.50-488.50Q88-507 84-526Q80-545 78-564.50Q76-584 70-604Q82-622 99-633.50Q116-645 136.50-652.50Q157-660 181-664.50Q205-669 232-675Q280-690 318-698.50Q356-707 392-712.50Q428-718 467-722.50Q506-727 557-736Q558-733 560.50-733Q563-733 567-733Q570-726 578-726Q578-729 577.50-731.50Q577-734 577-736Q579-736 582.50-735Q586-734 588.50-733Q591-732 593-733.50Q595-735 594-740Q606-719 625-705.50Q644-692 667-682Q668-673 667.50-669Q667-665 666-661.50Q665-658 665-653.50Q665-649 667-641Q651-614 630.50-599Q610-584 587-576Q564-568 538.50-564Q513-560 486.50-555.50Q460-551 433-543Q406-535 380-519Q372-522 365.50-521.50Q359-521 352-519Q345-517 336.50-515Q328-513 316-515Q308-508 297.50-505Q287-502 276-499Q281-488 280.50-477Q280-466 283-458Q325-454 376-458.50Q427-463 476-465Q477-460 475-458Q473-456 473-451Q482-445 490-436Q498-427 506.50-418.50Q515-410 524-404.50Q533-399 545-400Q550-390 552-379Q554-368 549-356Q529-343 510-329.50Q491-316 470.50-305Q450-294 426-287Q402-280 374-281Q369-281 365.50-281Q362-281 357-285Q347-280 330.50-281.50Q314-283 303-278Q289-283 270.50-283Q252-283 238-288Q220-262 204-233.50Q188-205 176-173Q217-167 244-168Q271-169 295-172Q319-175 344.50-178Q370-181 407-180Q432-192 464.50-196.50Q497-201 525-210Q535-207 542-198.50Q549-190 555.50-181.50Q562-173 569-167Q576-161 587-163Q592-158 593.50-151Q595-144 596.50-138Q598-132 601-128.50Q604-125 612-126Q593-87 569.50-66Q546-45 516.50-33.50Q487-22 450.50-16.50Q414-11 369-3Q358-1 350.50-3.50Q343-6 335-6Q307-1 268.50 4Q230 9 191 8Q152 7 116-2Q80-11 56-34Z"/><path id="s96:permanentmarker:106" d="M590-569Q592-547 597-531Q602-515 608-500Q613-486 617.50-472.50Q622-459 624-440Q616-414 612.50-392Q609-370 605-346Q589-311 574-284Q559-257 550-237Q545-232 541.50-225.50Q538-219 534-212Q532-209 529-203Q526-197 524-195L504-202L500-177L486-173L476-161Q457-128 436-105.50Q415-83 388.50-65.50Q362-48 328.50-33Q295-18 253 0Q236-2 223.50-2.50Q211-3 200-4Q181-4 153-7Q150-15 144-18Q138-21 133-21Q116-29 107.50-44.50Q99-60 91-78Q86-89 81-98.50Q76-108 70-118L87-123L65-147Q63-150 60-152.50Q57-155 55-158L54-174Q51-243 51.50-300.50Q52-358 67-403L67-414Q70-436 73-450.50Q76-465 78-478Q81-500 87-519Q101-522 108-530.50Q115-539 120-546Q134-547 139-542Q144-537 149-526Q154-517 161.50-506Q169-495 184-489Q186-481 189.50-472.50Q193-464 197-454Q205-437 211.50-418.50Q218-400 219-383Q209-364 203.50-339Q198-314 196.50-288.50Q195-263 197.50-239.50Q200-216 206-200L212-187L229-189Q259-197 283.50-206.50Q308-216 329-229Q350-242 369-259.50Q388-277 409-300Q430-323 445.50-352.50Q461-382 471.50-414Q482-446 487.50-477.50Q493-509 495-537Q512-543 512-561L510-572Q506-578 510-586Q516-605 538-615Q554-605 566.50-593Q579-581 590-569Z"/><path id="s96:permanentmarker:103" d="M161-104Q150-64 141.50-43.50Q133-23 116-1Q103-3 98 2Q93 7 87 11Q78 13 74 11Q70 9 67 6.50Q64 4 59.50 1.50Q55-1 46-1Q44-9 41.50-16Q39-23 28-21Q30-29 29-34.50Q28-40 26.50-44.50Q25-49 24-53.50Q23-58 25-65Q20-65 17-72Q14-79 10-86Q13-104 16-120Q19-136 23.50-150Q28-164 31-178Q34-192 28-207Q32-204 34-208.50Q36-213 37-220.50Q38-228 38-235.50Q38-243 37-248Q47-274 53.50-301.50Q60-329 65.50-356Q71-383 77-409Q83-435 93-457Q104-459 117.50-454.50Q131-450 134-443Q160-463 180-491.50Q200-520 221-547Q242-574 267.50-595Q293-616 332-620Q352-605 376.50-589.50Q401-574 417-549Q425-545 430.50-540.50Q436-536 444-531L444-519Q456-508 463.50-493.50Q471-479 477-462.50Q483-446 489-429.50Q495-413 503-398Q501-393 501-389.50Q501-386 502.50-382Q504-378 505-374Q506-370 505-363Q502-319 476.50-292Q451-265 415-247.50Q379-230 338-218Q297-206 264-192Q264-188 267.50-188Q271-188 270-183Q294-168 308-159Q322-150 334.50-144Q347-138 361.50-133.50Q376-129 402-123Q428-117 442.50-113.50Q457-110 469-107.50Q481-105 493.50-103.50Q506-102 529-100Q538-91 544.50-78.50Q551-66 553-53.50Q555-41 554-29.50Q553-18 547-11Q548-8 551.50-8.50Q555-9 559-8Q553-4 549 2Q545 8 541 14Q537 20 532 24.50Q527 29 518 30Q487 42 440 31.50Q393 21 321-7Q285-21 262.50-31.50Q240-42 223.50-52.50Q207-63 193.50-75Q180-87 161-104M304-447Q293-431 279.50-418Q266-405 253.50-391.50Q241-378 231-361.50Q221-345 217-323Q252-327 290-342.50Q328-358 362-372Q358-403 340.50-422Q323-441 304-447Z"/><path id="s96:permanentmarker:100" d="M583-300Q582-288 585-277Q588-266 592.50-255.50Q597-245 601-234Q605-223 607-212Q609-198 607-181.50Q605-165 600-149.50Q595-134 587-121.50Q579-109 568-103Q554-85 534-75Q514-65 497-51Q486-44 472.50-41Q459-38 445-35Q434-29 419-22.50Q404-16 388-10.50Q372-5 356-2.50Q340 0 328-1Q298 10 269.50 13.50Q241 17 203 9Q167 14 136.50 6Q106-2 82.50-19.50Q59-37 41.50-61.50Q24-86 13-113Q5-170 17-216.50Q29-263 51.50-302.50Q74-342 103-375.50Q132-409 159-441Q165-439 168.50-441.50Q172-444 175-448.50Q178-453 181.50-457Q185-461 190-462Q197-477 210.50-484.50Q224-492 232-506Q241-508 247-512Q253-516 258.50-521Q264-526 270-530.50Q276-535 284-537L284-548Q302-556 310.50-566.50Q319-577 331-592Q340-593 345.50-593Q351-593 362-595Q370-609 376.50-616Q383-623 396-631Q408-625 422.50-623Q437-621 448-610Q449-600 454-594.50Q459-589 465-584.50Q471-580 476.50-575Q482-570 484-561Q488-560 489.50-562Q491-564 495-563Q498-549 502-544.50Q506-540 510-527Q505-517 502.50-506.50Q500-496 490-491Q489-484 494-483.50Q499-483 500-478Q501-469 497-465Q521-426 540-382.50Q559-339 583-300M458-205Q462-216 468.50-223Q475-230 476-244Q471-252 470-256.50Q469-261 469-271Q447-302 431-337.50Q415-373 395-404Q393-400 388-396Q383-392 377-398Q375-390 370-386.50Q365-383 359-383.50Q353-384 346.50-386.50Q340-389 335-393Q306-370 277-348Q248-326 225-297Q221-295 220-295.50Q219-296 214-294Q206-275 194.50-259.50Q183-244 172-228Q161-212 153-194Q145-176 144-152Q161-138 184-135Q207-132 231.50-134Q256-136 279.50-140.50Q303-145 323-145Q365-155 395-171.50Q425-188 458-205Z"/><path id="s96:permanentmarker:101" d="M377-620Q419-615 452-603Q485-591 508-571Q524-546 538.50-517Q553-488 560.50-456.50Q568-425 567.50-392Q567-359 553-325Q524-289 482.50-266.50Q441-244 393-230Q345-216 293.50-206Q242-196 193-186Q194-163 193.50-137.50Q193-112 188.50-86.50Q184-61 175-37Q166-13 151 7Q134 7 116 11.50Q98 16 84 19Q77 15 71.50 11.50Q66 8 56 7Q58-3 51-13.50Q44-24 37-35Q30-46 27.50-56Q25-66 37-75Q30-82 30-93Q37-105 42.50-126Q48-147 51.50-167.50Q55-188 53-205Q51-222 33-230Q34-232 37-232Q40-232 43-233Q35-239 33.50-250Q32-261 26-269Q28-274 29-278Q30-282 36-281Q33-299 36.50-315Q40-331 47-345.50Q54-360 64-374Q74-388 83-402Q90-403 91.50-400Q93-397 98-401Q111-411 116-422Q121-433 121-447Q128-468 138-489.50Q148-511 160-529Q172-547 186.50-561Q201-575 217-582Q229-592 247-600.50Q265-609 286-613.50Q307-618 328.50-618.50Q350-619 368-614Q373-612 373.50-616Q374-620 377-620M336-381Q361-392 389.50-398.50Q418-405 437-423Q425-434 402-442.50Q379-451 352-453Q325-455 297.50-448.50Q270-442 250-424Q244-406 240-395.50Q236-385 229-370Q231-365 235.50-362.50Q240-360 242-355Q265-367 288.50-368.50Q312-370 336-381Z"/><path id="s96:permanentmarker:86" d="M529-84Q523-67 511.50-49.50Q500-32 484.50-18.50Q469-5 450 4Q431 13 410 14Q397 11 392.50 7.50Q388 4 383 1Q380-1 377.50-2.50Q375-4 373-5L361-10L365-23Q367-31 364-35.50Q361-40 352-48Q349-51 346-54Q343-57 341-60L324-79L351-86Q376-93 384.50-104Q393-115 391-141Q371-145 357.50-142Q344-139 330-135Q312-130 293.50-126.50Q275-123 253-123Q245-123 238-123.50Q231-124 223-125L213-127Q211-138 209-139.50Q207-141 205-143Q200-148 194.50-156.50Q189-165 192-178Q187-187 186-196Q180-184 177-171L173-161L163-159Q161-158 160-154.50Q159-151 159-149L154-132Q152-130 150-128.50Q148-127 146-125Q144-116 141-107Q138-98 135-90Q130-77 126.50-64.50Q123-52 124-40L120-29Q115-23 109-19.50Q103-16 97-13Q95-11 91.50-9.50Q88-8 86-7L83 4L71 6Q60 8 55.50 9Q51 10 45 10L35 9Q24 0 18-5.50Q12-11 4-16Q-5-28-6-34Q-7-40-8-45Q-10-51-10.50-55Q-11-59-13-61L-26-73L-15-82L-14-99Q6-150 28.50-197Q51-244 75-293Q83-309 90.50-325Q98-341 106-357Q105-360 105-364Q105-368 107-373Q118-390 125-403.50Q132-417 139-431Q147-448 155.50-464Q164-480 177-497L193-504Q196-505 200-506.50Q204-508 209-508L224-506Q252-519 273-542.50Q294-566 316-599L326-613L339-605Q344-602 353-599.50Q362-597 372-594Q390-590 406-585Q422-580 432-570Q438-554 439-546Q440-538 442-530Q445-513 447.50-496Q450-479 451-458Q456-441 459.50-424.50Q463-408 466-391Q471-367 476-344.50Q481-322 489-302Q497-302 499-301Q504-303 509.50-304Q515-305 522-306L533-307L537-297Q538-292 547-287Q560-286 566-281.50Q572-277 577-272Q581-268 585-266L600-260L592-245Q582-227 563.50-210.50Q545-194 522-183Q523-177 523.50-171.50Q524-166 526-160Q529-143 531-125Q533-107 531-88L529-84M240-257Q270-259 294.50-261.50Q319-264 349-270Q342-300 334-332.50Q326-365 317-397L311-387Q291-366 272.50-340Q254-314 241-291Q235-282 229-273Q223-264 218-255Q224-256 229.50-256Q235-256 240-257Z"/><path id="s96:permanentmarker:99" d="M205-182Q196-180 192-171.50Q188-163 184.50-154Q181-145 177.50-137.50Q174-130 167-130Q166-122 161.50-116Q157-110 153-103.50Q149-97 147-89.50Q145-82 149-72Q141-66 139-55Q137-44 134.50-34Q132-24 126-17Q120-10 104-11Q101-7 103-6Q105-5 106 1Q95-1 89.50 2.50Q84 6 76 7Q57 1 44.50-14Q32-29 22.50-47.50Q13-66 5.50-85Q-2-104-9-118Q-6-129-8-139.50Q-10-150-15-157Q34-261 92-379Q150-497 202-612Q225-603 247.50-591.50Q270-580 288.50-565Q307-550 320-530.50Q333-511 337-487Q335-481 332.50-482.50Q330-484 328-481Q332-476 332.50-474Q333-472 332.50-470Q332-468 332-464.50Q332-461 335-455Q331-456 329.50-454Q328-452 323-454Q327-443 325.50-436Q324-429 321-423.50Q318-418 316-411.50Q314-405 317-395Q314-395 312.50-393.50Q311-392 310-390.50Q309-389 307.50-387.50Q306-386 303-387Q306-365 305-343Q304-321 303.50-298.50Q303-276 304-251.50Q305-227 311-201Q347-222 368.50-255Q390-288 403.50-329Q417-370 424-417Q431-464 439-513Q448-522 453-535Q458-548 462-562.50Q466-577 470-591.50Q474-606 480-618Q495-616 505.50-608.50Q516-601 525-592.50Q534-584 544-576.50Q554-569 569-567Q581-550 591-534Q601-518 604-500Q599-492 596.50-482Q594-472 591-462Q588-452 583-443.50Q578-435 569-429Q566-403 561.50-381.50Q557-360 552.50-339Q548-318 545-295.50Q542-273 543-246Q535-223 526-197Q517-171 512-150Q496-137 487-119Q478-101 468-83Q464-79 463-81Q462-83 456-84Q457-80 456-78Q455-76 453.50-74.50Q452-73 451.50-70Q451-67 453-62Q439-56 428-45Q417-34 404.50-25Q392-16 374.50-13Q357-10 329-20Q288-50 256.50-89Q225-128 205-182Z"/><path id="s96:permanentmarker:97" d="M264-11Q236-2 203 7Q170 16 137 16Q87 16 58-9Q53-20 49-24Q46-28 43.50-32.50Q41-37 40-45Q28-59 21-77.50Q14-96 11.50-115.50Q9-135 10.50-155Q12-175 17-193Q19-197 19.50-201Q20-205 21-210Q25-226 29.50-241Q34-256 42-267Q38-276 42-287Q46-298 51-307Q65-345 74.50-371.50Q84-398 94-424Q111-469 126-513Q141-557 153-608Q161-613 165-615Q171-617 175-618Q193-609 217-600.50Q241-592 257-592Q265-587 267-584.50Q269-582 271-580Q282-567 290-553.50Q298-540 295-518Q289-509 286-509Q281-489 275.50-475Q270-461 264-447Q257-432 251-417Q245-402 241-380Q237-375 235.50-371Q234-367 232-362Q230-357 227.50-351.50Q225-346 220-342Q217-316 210.50-300Q204-284 197-268Q185-239 175.50-210Q166-181 164-144Q169-146 173.50-146Q178-146 182-146Q191-146 203-143Q233-159 268.50-162Q304-165 339-166Q353-166 367-166Q381-166 393-168Q402-163 404.50-162.50Q407-162 412-162Q419-162 424-161Q436-150 447-145Q458-140 470-136Q481-132 491.50-127.50Q502-123 512-115L519-72Q526-63 525-60Q525-52 521-48L523-37Q508-34 502.50-30Q497-26 492-21Q484-20 480.50-20Q477-20 474-20Q460-20 440-15Q413-24 384-24Q373-24 361-23Q349-22 337-21Q325-19 312.50-18Q300-17 287-17L264-11Z"/><path id="s96:permanentmarker:92" d="M709-180Q685-137 646-113.50Q607-90 560-74.50Q513-59 461.50-47Q410-35 362-16Q348-16 337.50-15Q327-14 317.50-12.50Q308-11 299-9.50Q290-8 279-7Q275-8 274-5.50Q273-3 271-1Q254 2 240.50 2Q227 2 218 2Q206 2 193.50 5.50Q181 9 171 8Q96 4 53.50-45.50Q11-95 6-183Q7-188 4.50-189Q2-190 0-192Q0-202 2.50-209Q5-216 3-227Q29-282 62-329.50Q95-377 141-413Q148-419 153-425Q158-431 162.50-437Q167-443 173-447.50Q179-452 188-454Q209-478 238-498Q267-518 299-536.50Q331-555 362.50-573.50Q394-592 420-615Q431-610 436-612Q441-614 447-612Q454-597 466.50-591Q479-585 491.50-578.50Q504-572 515-563Q526-554 532-539Q526-539 526.50-534.50Q527-530 529-525.50Q531-521 530.50-516.50Q530-512 523-512Q524-507 529.50-506.50Q535-506 535-501Q535-496 532.50-493Q530-490 532-483Q512-470 487.50-458Q463-446 436.50-432.50Q410-419 381.50-403.50Q353-388 326-368Q299-348 271-323.50Q243-299 217-272Q191-245 168-216.50Q145-188 129-160Q131-155 133.50-152.50Q136-150 138-145Q170-143 197.50-145.50Q225-148 253-142Q256-144 257-148Q258-152 262-154Q319-160 368-172.50Q417-185 468-199Q460-202 453.50-204.50Q447-207 441-209Q436-214 441.50-217.50Q447-221 451-225Q437-233 428.50-245Q420-257 418-277Q424-282 424-289Q424-296 418-300Q414-301 413-300Q412-299 411.50-297Q411-295 410-293.50Q409-292 405-294Q406-303 409.50-309Q413-315 415-323L484-369Q495-361 511-351.50Q527-342 544.50-332.50Q562-323 580.50-313.50Q599-304 615-295Q629-289 640-279Q651-269 661-258.50Q671-248 681.50-238Q692-228 706-221Q704-208 707-200Q710-192 709-180Z"/><path id="s96:permanentmarker:104" d="M16-450Q23-471 38.50-486Q54-501 72.50-511.50Q91-522 111-529Q131-536 149-541Q189-558 234.50-573.50Q280-589 327.50-601Q375-613 425-616.50Q475-620 530-604Q533-594 539-585Q545-576 551.50-567Q558-558 563-549.50Q568-541 569-532Q579-523 585-512.50Q591-502 587-485Q577-477 567.50-470.50Q558-464 547-459Q510-468 472-465Q434-462 404-460Q395-469 382.50-469Q370-469 356.50-465Q343-461 329.50-457Q316-453 304-455Q294-447 279.50-444.50Q265-442 248-440Q247-435 250-433.50Q253-432 251-427Q257-420 266.50-417Q276-414 286.50-411Q297-408 305-403.50Q313-399 316-389Q331-389 342-382Q353-375 360-365Q367-355 370.50-343.50Q374-332 374-323Q377-315 381-316Q385-317 390-312Q393-299 405-285.50Q417-272 424-256Q426-231 427-211.50Q428-192 420-172Q405-135 378.50-106Q352-77 318.50-54.50Q285-32 247-16Q209 0 173 11Q169 10 165 11Q161 12 163 6Q155 13 145.50 15Q136 17 125 16.50Q114 16 102.50 15Q91 14 81 16Q74 9 68.50 2.50Q63-4 60-14Q55-14 55.50-19Q56-24 52-24Q58-34 57.50-35.50Q57-37 54.50-38Q52-39 50-40.50Q48-42 49-45Q53-53 52-63.50Q51-74 50-85Q49-96 51.50-106Q54-116 66-122Q100-118 130.50-124.50Q161-131 188-143Q215-155 239.50-169Q264-183 288-194Q291-203 296.50-209Q302-215 308-220Q314-225 319-231Q324-237 326-246Q327-253 322.50-254.50Q318-256 318-262L307-265Q288-276 264-283.50Q240-291 223-300Q212-294 202.50-297Q193-300 178-303Q144-305 112.50-310Q81-315 52-328Q50-333 47-337Q44-341 36-339Q30-347 24-354.50Q18-362 13-371Q15-383 16-391.50Q17-400 10-408Q14-421 16-429Q18-437 16-450Z"/><path id="s96:permanentmarker:98" d="M692-18Q682-13 673.50-9Q665-5 654-5Q615-34 613.50-106Q612-178 644-289Q649-292 649-301L640-311Q636-311 632.50-310Q629-309 627-303Q601-284 570-263.50Q539-243 505.50-225.50Q472-208 437.50-197Q403-186 370-186Q286-186 244-271L236-286L228-273Q225-269 219-256.50Q213-244 207-228Q201-212 196.50-195.50Q192-179 193-167Q184-158 174-146Q164-134 159-119Q157-111 161-104Q159-95 152-90Q148-85 143.50-80.50Q139-76 136-71Q134-66 133.50-61Q133-56 132-51Q132-44 130-38Q113-3 103 7.50Q93 18 76 18Q68 18 50 15Q37 1 26.50-23.50Q16-48 10.50-76Q5-104 5.50-132.50Q6-161 15-182Q15-183 23-202Q31-221 43.50-251Q56-281 72-317.50Q88-354 104-388.50Q120-423 134.50-452Q149-481 159-496Q167-508 173.50-518.50Q180-529 186-539Q204-570 220.50-590.50Q237-611 269-623Q291-614 301-602L303-591Q307-581 315-581Q326-578 333.50-575.50Q341-573 350-571Q357-563 363-552Q371-540 378.50-528.50Q386-517 390.50-505.50Q395-494 395.50-482Q396-470 391-457L392-447Q397-438 394-422Q393-415 393-407.50Q393-400 395-391Q413-377 427-377Q443-377 456.50-384.50Q470-392 482-400Q490-406 498-410.50Q506-415 514-416Q532-433 546.50-446Q561-459 577-472Q607-496 635-524Q663-552 680-594Q690-600 701-600Q712-600 724-595Q736-590 747-585Q750-583 752.50-582Q755-581 757-580Q757-570 765-563Q769-560 770-559Q771-558 773-557Q788-549 792-541Q799-518 817-506Q815-496 817.50-487.50Q820-479 824-470Q825-467 826-464Q827-461 829-457L810-459L813-440Q815-426 810.50-409Q806-392 800-382Q801-356 801.50-341.50Q802-327 800-314.50Q798-302 794.50-291Q791-280 785-267Q789-203 770.50-150.50Q752-98 732-52Q730-47 727.50-42Q725-37 723-32Q714-29 707-25.50Q700-22 692-18Z"/><path id="s96:permanentmarker:87" d="M549-163Q555-160 556-153Q557-146 556-142Q538-119 531-110Q524-101 521-96.50Q518-92 514.50-89Q511-86 499-76Q454-49 406.50-28Q359-7 307 1Q299 12 276.50 16.50Q254 21 235 25Q231 23 230.50 19.50Q230 16 226 14Q225 24 217 24.50Q209 25 197.50 20.50Q186 16 173.50 8.50Q161 1 152-5Q147 3 141.50 11Q136 19 128 22Q117 20 111.50 19Q106 18 101 23Q95 20 91.50 16Q88 12 84.50 8.50Q81 5 76.50 2Q72-1 64-3Q66-7 62-15.50Q58-24 50-26Q54-33 46.50-43.50Q39-54 35-67Q37-78 38-91Q39-104 50-106Q49-113 47-118Q45-123 43-128Q50-134 53-142.50Q56-151 58-160Q60-169 63-178Q66-187 74-193Q83-223 88-237.50Q93-252 95.50-266Q98-280 101.50-296Q105-312 114-336Q113-351 117-362.50Q121-374 125.50-385.50Q130-397 133-409.50Q136-422 132-439Q118-438 112-429.50Q106-421 104-407Q96-399 84.50-399.50Q73-400 64-397Q29-411 6-437Q-17-463-31-498Q-22-521-4-536.50Q14-552 37-562.50Q60-573 86-579.50Q112-586 136-592Q175-599 214-608Q253-617 298-614Q304-617 312.50-617.50Q321-618 330-618Q339-618 347.50-618.50Q356-619 362-622Q367-616 376.50-614.50Q386-613 397-605Q409-614 417.50-609Q426-604 433-598Q440-592 446.50-587Q453-582 460-582Q467-573 477.50-565Q488-557 497.50-548.50Q507-540 513.50-530Q520-520 520-507Q519-502 523-501Q527-500 529-497Q530-466 519.50-443.50Q509-421 493.50-402Q478-383 459.50-366Q441-349 426-330Q436-317 449-307Q462-297 475.50-287Q489-277 501-266Q513-255 521-240Q523-238 526-236.50Q529-235 532-233Q535-223 540-212.50Q545-202 548.50-192.50Q552-183 553-175.50Q554-168 549-163M373-497Q322-499 271.50-488Q221-477 187-457Q204-443 221.50-432Q239-421 249-402Q288-418 318-442.50Q348-467 373-497M386-178Q389-188 397-194Q405-200 413-205.50Q421-211 427-217.50Q433-224 432-236Q400-253 373.50-256.50Q347-260 323.50-256.50Q300-253 278.50-246Q257-239 235-236Q224-207 212-173Q200-139 189-107Q219-111 244-119.50Q269-128 292.50-138Q316-148 338.50-158.50Q361-169 386-178Z"/><path id="s96:permanentmarker:91" d="M140-34Q134 0 106 13Q93 14 86.50 12Q80 10 73 7Q64 3 57 2L46-6Q44-11 41-16Q38-21 34-26Q26-36 18-51Q12-80 16-99.50Q20-119 26-138Q28-144 30-150.50Q32-157 34-163Q8-177-5-203Q-18-229-20-253Q-17-272-9-283.50Q-1-295 9.50-302Q20-309 31.50-313Q43-317 54-320L67-315Q76-306 85-301Q92-304 94.50-310.50Q97-317 99-325Q102-334 105.50-343Q109-352 114-361Q113-374 118-385Q111-390 103-391Q101-391 93-393Q81-402 76.50-408.50Q72-415 68-421Q62-434 53-442L43-449L48-459Q50-461 50-464Q50-467 46-473Q44-484 46-488L48-498Q56-509 56-510L65-519Q85-524 104.50-530.50Q124-537 144-544Q163-550 182.50-556.50Q202-563 222-568Q229-573 237-574.50Q245-576 252-577Q258-578 263-578.50Q268-579 270-582Q282-586 298-591Q323-598 364-606.50Q405-615 456-620L473-621Q478-620 483-620.50Q488-621 493-621Q538-621 550-594Q559-589 566-583Q573-577 579-571Q582-567 585.50-564Q589-561 591-560Q608-534 602-514Q593-501 579-499L568-493Q557-494 551.50-494Q546-494 540-494Q515-494 482-491Q449-488 414.50-482.50Q380-477 348-469Q316-461 292-452L274-443Q267-432 266-425.50Q265-419 264-413Q263-409 262.50-405Q262-401 261-396Q244-375 244-346Q237-334 235-328.50Q233-323 235-315Q254-307 271-309Q288-311 305-314Q328-318 352.50-321Q377-324 403-324L435-324L427-316L432-302Q438-299 440.50-298Q443-297 446-295L451-286Q455-284 458.50-279Q462-274 463-264L422-206L408-202Q391-203 378-198Q371-196 364-194.50Q357-193 349-193Q329-189 315.50-187Q302-185 288-183Q270-181 253-177.50Q236-174 221-168Q211-168 207-168Q199-168 190.50-165.50Q182-163 175-161Q170-157 168-152.50Q166-148 164-143Q160-129 153-120L153-105Q145-95 143.50-89.50Q142-84 140-79Q138-76 137-73.50Q136-71 136-68Q144-53 140-34Z"/><path id="s96:permanentmarker:105" d="M569-481Q544-481 515-477.50Q486-474 458-470Q438-467 419.50-465Q401-463 386-462Q379-440 372-423Q365-406 357-390Q349-373 342.50-355.50Q336-338 330-318Q320-302 313.50-288.50Q307-275 303-258Q291-243 285-226.50Q279-210 276-198L272-186Q266-180 265-176.50Q264-173 260-170Q259-159 253-148Q251-143 250-138.50Q249-134 249-132Q249-122 244-119Q245-114 244-108.50Q243-103 242-98Q239-86 240-79Q243-75 245.50-72Q248-69 249-64Q255-60 258-59Q262-56 270-52L279-42Q284-13 270 4Q255 23 219 23L207 23Q202 18 201 15Q193 12 188 10Q183 8 179 2Q166-4 158-8L149-13Q149-24 149-25Q142-34 138.50-45Q135-56 133-67Q131-76 128.50-84Q126-92 122-98Q120-156 133-196Q146-236 160-273Q168-293 176-313.50Q184-334 190-356L199-366Q206-382 210.50-392.50Q215-403 220-414Q223-421 225.50-427.50Q228-434 230-439Q224-439 219-438.50Q214-438 209-437Q203-436 198-435.50Q193-435 188-435Q181-435 178-436Q167-431 154-431L144-431Q141-431 138.50-431.50Q136-432 134-432Q124-432 118-429Q106-429 95-429L85-429Q83-429 80-428.50Q77-428 75-428Q68-428 60-429.50Q52-431 43-436Q31-452 27-453L18-465Q17-471 15-476.50Q13-482 11-489Q7-499 3.50-510.50Q0-522 0-538Q1-546 4-550Q7-554 9-557L12-572L25-571L53-571Q85-571 118-573.50Q151-576 186-579Q206-581 226.50-583Q247-585 269-587Q273-596 277-604L287-609Q305-610 312.50-604.50Q320-599 325-594Q347-596 369.50-598.50Q392-601 415-605Q449-610 483.50-614Q518-618 550-618Q564-618 577-617Q590-616 601-614L611-607Q614-601 619.50-596Q625-591 631-586Q643-575 655-560Q667-545 664-516Q656-504 652-502L643-490L633-491Q627-491 622-489.50Q617-488 612-486Q608-484 604-482.50Q600-481 595-480Q586-480 580.50-480.50Q575-481 569-481Z"/><path id="s96:permanentmarker:94" d="M212-70Q217-40 208.50-23Q200-6 184.50 2.50Q169 11 149 12Q129 13 111 10Q101-4 93-25Q85-46 78-68.50Q71-91 65.50-113Q60-135 56-152Q61-164 62.50-179.50Q64-195 64.50-211Q65-227 65.50-243.50Q66-260 68-275Q75-317 88.50-355Q102-393 110-434Q112-443 108.50-451Q105-459 107-466Q108-470 113-471.50Q118-473 119-478Q122-489 120.50-496Q119-503 124-513Q129-521 136.50-536.50Q144-552 142-569Q151-575 159-583Q167-591 175.50-597.50Q184-604 194.50-609Q205-614 220-614Q228-604 230.50-592Q233-580 235.50-568Q238-556 243-545.50Q248-535 260-529Q260-521 260-509Q260-497 261-485.50Q262-474 265.50-464.50Q269-455 277-452Q259-404 243.50-357Q228-310 218-262.50Q208-215 205.50-167Q203-119 212-70Z"/><path id="s96:permanentmarker:110" d="M320-262Q313-256 308-247.50Q303-239 298-230Q293-219 287-209Q281-199 272-191Q267-176 262-167.50Q257-159 246-148Q236-108 199-61Q198-52 193.50-43.50Q189-35 184-27Q182-24 180-20.50Q178-17 177-15L175-5Q170 3 164 9Q158 15 153 20Q151 23 146 28L131 34Q58 24 42-44L43-54Q45-59 46.50-64.50Q48-70 50-76Q54-90 59.50-104Q65-118 76-129Q78-136 85-151.50Q92-167 109-198Q123-222 131-236Q139-250 144-258Q134-274 120-287Q107-312 97.50-335Q88-358 83-376Q82-389 80-398Q78-407 76-417Q73-428 71-439Q69-450 69-462Q64-469 63-476L65-486Q68-493 66-504.50Q64-516 61-528Q59-538 56.50-550Q54-562 55-574Q56-586 61.50-596.50Q67-607 80-615L97-616Q106-611 114.50-606.50Q123-602 131-597Q142-592 152-587Q162-582 173-574L180-560L193-549L193-538Q194-534 194-527Q194-514 198-511L202-499Q202-485 205-472.50Q208-460 211-449Q214-438 217-426Q220-414 218-400Q224-403 228-407Q230-409 232-410Q234-411 236-413L295-493L293-503L314-523Q322-531 329.50-538Q337-545 342-553L353-561Q385-611 444-623L458-625L462-612Q466-601 478.50-592Q491-583 505-575L514-569Q519-559 519-554Q519-549 518-545L522-535Q514-511 502.50-500Q491-489 480-480Q471-472 463.50-465.50Q456-459 452-449L445-441Q424-429 418-409L415-397L403-397Q402-397 398.50-393.50Q395-390 388-376Q381-366 378-363Q375-360 373-358Q372-354 370.50-350.50Q369-347 367-342Q354-329 351-322.50Q348-316 344-308Q340-300 336.50-292.50Q333-285 325-277L320-262Z"/><path id="s96:permanentmarker:35" d="M146-119Q148-111 149-104Q150-97 152-89Q148-79 145-69.50Q142-60 139-51Q136-44 135-42Q134-40 134-39Q134-38 134.50-36.50Q135-35 135-28L131-16Q126-9 119-5Q112-1 105 2Q103 4 99 5.50Q95 7 93 9L90 21L77 23Q60 27 48 27L36 27Q24 16 17 10Q10 4 2-1Q-8-15-9-21.50Q-10-28-12-34Q-14-47-17-51L-31-65L-19-74L-30-93Q-18-102-12-106Q-6-110-2-114.50Q2-119 7-126Q12-133 23-149L32-162L45-155Q49-152 62.50-149.50Q76-147 86-145Q103-140 118-137.50Q133-135 142-127L146-119Z"/><path id="s96:permanentmarker:109" d="M347-26Q332-76 303.50-122Q275-168 249-201Q208-170 171.50-132.50Q135-95 105-52Q103-31 100-17.50Q97-4 89.50 5Q82 14 70.50 20.50Q59 27 41 34Q8 10-7-25.50Q-22-61-11-96Q-10-121 1.50-145Q13-169 29.50-190.50Q46-212 65-231.50Q84-251 101-268Q104-278 112.50-285.50Q121-293 130.50-300Q140-307 149.50-315Q159-323 165-334Q158-357 138-380.50Q118-404 101-429Q99-434 93.50-432Q88-430 86-433Q88-446 80.50-461Q73-476 62-487Q65-498 69-513.50Q73-529 67-548Q67-556 70-563.50Q73-571 76-577.50Q79-584 81-590.50Q83-597 80-603Q93-605 103-602Q113-599 122-595Q131-591 138.50-589Q146-587 154-590Q153-585 154-583Q155-581 157-580Q159-579 161-577.50Q163-576 163-573Q179-568 198-551.50Q217-535 234.50-515Q252-495 266-475Q280-455 287-445Q311-460 339-480.50Q367-501 397-523Q427-545 457.50-564.50Q488-584 517-596Q534-588 543.50-576.50Q553-565 559.50-552.50Q566-540 571-526.50Q576-513 585-503Q577-486 567.50-474.50Q558-463 554-448Q533-439 504-421Q478-405 440.50-378Q403-351 350-306Q362-292 370-279Q378-266 383-257Q388-246 392-237Q401-230 407-221Q413-212 418.50-202.50Q424-193 431-184.50Q438-176 449-171Q455-141 466-117.50Q477-94 476-69Q469-46 455.50-31Q442-16 436 0Q427 3 418 6Q409 9 404 15L347-26Z"/><path id="s96:permanentmarker:88" d="M416 2Q400 3 376.50 1Q353-1 333 8Q280 6 225-5Q170-16 124-32Q114-43 104-52.50Q94-62 77-66Q53-85 38-112.50Q23-140 14-171Q5-202 2-234.50Q-1-267 0-297Q15-342 42.50-374.50Q70-407 99-439Q112-445 118.50-451.50Q125-458 132.50-463.50Q140-469 147.50-474.50Q155-480 161-488Q182-493 197.50-502.50Q213-512 228-522.50Q243-533 259-542Q275-551 296-556Q304-565 315-570.50Q326-576 337.50-581.50Q349-587 359.50-593Q370-599 376-609Q381-601 390-603.50Q399-606 407-609Q412-610 415.50-607Q419-604 422-601Q425-598 427.50-597.50Q430-597 432-602Q437-602 435-597Q433-592 432-590Q440-591 445.50-586.50Q451-582 463-581Q467-576 465-573.50Q463-571 463-565Q493-556 501-536.50Q509-517 502-496Q495-475 477-457Q459-439 438-433Q390-420 347.50-404.50Q305-389 278-359Q254-352 235.50-340.50Q217-329 200.50-314.50Q184-300 169.50-284.50Q155-269 139-254Q140-240 134.50-232.50Q129-225 124-217Q126-202 131-190.50Q136-179 142-168Q208-148 282.50-143Q357-138 432-137Q439-127 448.50-118.50Q458-110 466-100.50Q474-91 479-79.50Q484-68 481-51Q467-36 450-23.50Q433-11 416 2Z"/><path id="s96:permanentmarker:59" d="M44-203Q14-220-2-251Q-18-282-20-310Q-17-334-7.50-347.50Q2-361 15-369.50Q28-378 42-382.50Q56-387 69-390L84-385Q89-380 94.50-376Q100-372 105-368Q115-372 117.50-380Q120-388 123-396Q126-407 130-418Q134-429 140-440Q139-449 141-456Q143-463 145-468Q139-473 136.50-473.50Q134-474 128-476Q125-476 122-476.50Q119-477 115-478Q100-489 95.50-496.50Q91-504 86-512Q81-520 77-526Q73-532 68-537L56-545L62-557Q64-559 64-562.50Q64-566 60-573Q57-586 59-592L61-604Q71-617 72-619L82-629Q105-635 129-642.50Q153-650 176-658Q199-666 223-674Q247-682 271-688Q279-695 288.50-696.50Q298-698 306-699Q313-699 319-700Q325-701 328-705Q345-711 361-715Q391-723 440-734Q489-745 550-750L571-751Q577-750 583-750.50Q589-751 595-751Q647-751 664-719Q674-714 682-706.50Q690-699 697-692Q702-687 706-683.50Q710-680 713-678L721-670Q732-646 725-623Q719-611 712-609Q705-607 698-605L685-598Q672-599 665.50-599Q659-599 651-599Q621-599 581.50-595.50Q542-592 501-585.50Q460-579 421-569.50Q382-560 353-549Q345-543 332-538Q329-537 323-533Q324-525 323-517.50Q322-510 320-503Q319-498 318.50-492.50Q318-487 317-481Q296-456 297-422L292-412Q288-408 285.50-400.50Q283-393 285-385L289-373Q309-375 328.50-377.50Q348-380 370-383Q398-388 426.50-391.50Q455-395 486-395L525-395L516-386L527-385L521-369Q528-366 531.50-364.50Q535-363 538-361L545-351Q550-348 554-341.50Q558-335 559-324L556-314L509-254L503-246L493-249Q474-250 457-245Q449-243 440-240.50Q431-238 422-238Q398-234 382-231.50Q366-229 350-227Q328-223 307.50-219.50Q287-216 269-209Q258-208 256-208.50Q254-209 252-209Q242-209 232-206Q222-203 213-200Q207-195 205-189.50Q203-184 201-178Q199-171 195.50-164.50Q192-158 187-151L188-133Q179-131 179-130.50Q179-130 178-130Q178-122 175.50-115Q173-108 171-102Q169-98 168-95Q167-92 167-89Q177-71 172-48Q168-29 157-14.50Q146 0 131 8Q115 10 107.50 7Q100 4 92 1Q87-1 82-2.50Q77-4 72-5L60-15Q57-21 53-26.50Q49-32 45-38Q40-45 35-52Q30-59 26-68Q19-103 23.50-126.50Q28-150 36-173Q38-181 40-188Q42-195 44-203Z"/><path id="s96:permanentmarker:33" d="M9-149Q15-144 29.50-137.50Q44-131 60-124.50Q76-118 90-113Q104-108 110-107Q121-87 122.50-71.50Q124-56 127-39Q122-34 120.50-22.50Q119-11 119-6Q118 2 115 3.50Q112 5 110 12Q109 14 111 18Q113 22 112 24Q111 29 107.50 29.50Q104 30 102 35Q98 46 96.50 48.50Q95 51 94.50 51.50Q94 52 92.50 53.50Q91 55 86 65Q79 80 69 94.50Q59 109 56 123Q42 135 21.50 153.50Q1 172-17 179Q-26 175-45.50 166Q-65 157-82.50 146Q-100 135-109 122Q-118 109-107 98Q-89 79-75.50 52.50Q-62 26-52-4.50Q-42-35-34.50-67.50Q-27-100-20-130Q-16-126-12-127.50Q-8-129-4-132.50Q0-136 3-141Q6-146 9-149Z"/></defs><g id="line-0"><use x="0" y="973.5" xlink:href="#s96:permanentmarker:73"/><use x="622" y="973.5" xlink:href="#s96:permanentmarker:93"/><use x="1218" y="973.5" xlink:href="#s96:permanentmarker:90"/><use x="1752" y="973.5" xlink:href="#s96:permanentmarker:21"/><use x="2131" y="973.5" xlink:href="#s96:permanentmarker:58"/><use x="2763" y="973.5" xlink:href="#s96:permanentmarker:106"/><use x="3362" y="973.5" xlink:href="#s96:permanentmarker:103"/><use x="3916" y="973.5" xlink:href="#s96:permanentmarker:100"/><use x="4540" y="973.5" xlink:href="#s96:permanentmarker:101"/><use x="5077" y="973.5" xlink:href="#s96:permanentmarker:90"/><use x="5611" y="973.5" xlink:href="#s96:permanentmarker:86"/><use x="6206" y="973.5" xlink:href="#s96:permanentmarker:99"/><use x="6784" y="973.5" xlink:href="#s96:permanentmarker:21"/><use x="7163" y="973.5" xlink:href="#s96:permanentmarker:97"/><use x="7709" y="973.5" xlink:href="#s96:permanentmarker:86"/><use x="8304" y="973.5" xlink:href="#s96:permanentmarker:99"/><use x="8882" y="973.5" xlink:href="#s96:permanentmarker:92"/><use x="9550" y="973.5" xlink:href="#s96:permanentmarker:106"/><use x="10118" y="973.5" xlink:href="#s96:permanentmarker:86"/><use x="10713" y="973.5" xlink:href="#s96:permanentmarker:92"/><use x="11381" y="973.5" xlink:href="#s96:permanentmarker:90"/><use x="11915" y="973.5" xlink:href="#s96:permanentmarker:104"/><use x="12390" y="973.5" xlink:href="#s96:permanentmarker:21"/><use x="12769" y="973.5" xlink:href="#s96:permanentmarker:86"/><use x="13364" y="973.5" xlink:href="#s96:permanentmarker:103"/><use x="13918" y="973.5" xlink:href="#s96:permanentmarker:90"/><use x="14452" y="973.5" xlink:href="#s96:permanentmarker:21"/><use x="14831" y="973.5" xlink:href="#s96:permanentmarker:98"/><use x="15665" y="973.5" xlink:href="#s96:permanentmarker:90"/><use x="16199" y="973.5" xlink:href="#s96:permanentmarker:98"/><use x="17033" y="973.5" xlink:href="#s96:permanentmarker:87"/><use x="17620" y="973.5" xlink:href="#s96:permanentmarker:90"/><use x="18144" y="973.5" xlink:href="#s96:permanentmarker:103"/><use x="18698" y="973.5" xlink:href="#s96:permanentmarker:104"/><use x="19173" y="973.5" xlink:href="#s96:permanentmarker:21"/><use x="19552" y="973.5" xlink:href="#s96:permanentmarker:100"/><use x="20196" y="973.5" xlink:href="#s96:permanentmarker:91"/><use x="20662" y="973.5" xlink:href="#s96:permanentmarker:21"/><use x="21041" y="973.5" xlink:href="#s96:permanentmarker:105"/><use x="21532" y="973.5" xlink:href="#s96:permanentmarker:93"/><use x="22128" y="973.5" xlink:href="#s96:permanentmarker:90"/><use x="22662" y="973.5" xlink:href="#s96:permanentmarker:21"/><use x="23041" y="973.5" xlink:href="#s96:permanentmarker:104"/><use x="23516" y="973.5" xlink:href="#s96:permanentmarker:86"/><use x="24111" y="973.5" xlink:href="#s96:permanentmarker:98"/><use x="24945" y="973.5" xlink:href="#s96:permanentmarker:90"/><use x="25479" y="973.5" xlink:href="#s96:permanentmarker:21"/><use x="25858" y="973.5" xlink:href="#s96:permanentmarker:91"/><use x="26314" y="973.5" xlink:href="#s96:permanentmarker:86"/><use x="26909" y="973.5" xlink:href="#s96:permanentmarker:98"/><use x="27743" y="973.5" xlink:href="#s96:permanentmarker:94"/><use x="28071" y="973.5" xlink:href="#s96:permanentmarker:97"/><use x="28586" y="973.5" xlink:href="#s96:permanentmarker:110"/><use x="28976" y="973.5" xlink:href="#s96:permanentmarker:35"/></g><g id="line-1"><use x="5982.5" y="2202.3" xlink:href="#s96:permanentmarker:73"/><use x="6604.5" y="2202.3" xlink:href="#s96:permanentmarker:93"/><use x="7200.5" y="2202.3" xlink:href="#s96:permanentmarker:90"/><use x="7734.5" y="2202.3" xlink:href="#s96:permanentmarker:94"/><use x="8062.5" y="2202.3" xlink:href="#s96:permanentmarker:103"/><use x="8616.5" y="2202.3" xlink:href="#s96:permanentmarker:21"/><use x="8995.5" y="2202.3" xlink:href="#s96:permanentmarker:104"/><use x="9470.5" y="2202.3" xlink:href="#s96:permanentmarker:90"/><use x="10004.5" y="2202.3" xlink:href="#s96:permanentmarker:101"/><use x="10521.5" y="2202.3" xlink:href="#s96:permanentmarker:86"/><use x="11116.5" y="2202.3" xlink:href="#s96:permanentmarker:103"/><use x="11670.5" y="2202.3" xlink:href="#s96:permanentmarker:86"/><use x="12214.5" y="2202.3" xlink:href="#s96:permanentmarker:105"/><use x="12705.5" y="2202.3" xlink:href="#s96:permanentmarker:90"/><use x="13239.5" y="2202.3" xlink:href="#s96:permanentmarker:21"/><use x="13618.5" y="2202.3" xlink:href="#s96:permanentmarker:90"/><use x="14152.5" y="2202.3" xlink:href="#s96:permanentmarker:109"/><use x="14671.5" y="2202.3" xlink:href="#s96:permanentmarker:94"/><use x="14999.5" y="2202.3" xlink:href="#s96:permanentmarker:104"/><use x="15474.5" y="2202.3" xlink:href="#s96:permanentmarker:105"/><use x="15965.5" y="2202.3" xlink:href="#s96:permanentmarker:90"/><use x="16499.5" y="2202.3" xlink:href="#s96:permanentmarker:99"/><use x="17077.5" y="2202.3" xlink:href="#s96:permanentmarker:88"/><use x="17593.5" y="2202.3" xlink:href="#s96:permanentmarker:90"/><use x="18127.5" y="2202.3" xlink:href="#s96:permanentmarker:21"/><use x="18506.5" y="2202.3" xlink:href="#s96:permanentmarker:94"/><use x="18834.5" y="2202.3" xlink:href="#s96:permanentmarker:104"/><use x="19309.5" y="2202.3" xlink:href="#s96:permanentmarker:21"/><use x="19688.5" y="2202.3" xlink:href="#s96:permanentmarker:86"/><use x="20283.5" y="2202.3" xlink:href="#s96:permanentmarker:21"/><use x="20662.5" y="2202.3" xlink:href="#s96:permanentmarker:98"/><use x="21496.5" y="2202.3" xlink:href="#s96:permanentmarker:110"/><use x="21906.5" y="2202.3" xlink:href="#s96:permanentmarker:105"/><use x="22397.5" y="2202.3" xlink:href="#s96:permanentmarker:93"/><use x="22993.5" y="2202.3" xlink:href="#s96:permanentmarker:35"/></g><g id="line-2"><use x="7313.5" y="3431.1" xlink:href="#s96:permanentmarker:59"/><use x="7882.5" y="3431.1" xlink:href="#s96:permanentmarker:100"/><use x="8526.5" y="3431.1" xlink:href="#s96:permanentmarker:103"/><use x="9080.5" y="3431.1" xlink:href="#s96:permanentmarker:21"/><use x="9459.5" y="3431.1" xlink:href="#s96:permanentmarker:104"/><use x="9934.5" y="3431.1" xlink:href="#s96:permanentmarker:88"/><use x="10460.5" y="3431.1" xlink:href="#s96:permanentmarker:94"/><use x="10788.5" y="3431.1" xlink:href="#s96:permanentmarker:90"/><use x="11322.5" y="3431.1" xlink:href="#s96:permanentmarker:99"/><use x="11900.5" y="3431.1" xlink:href="#s96:permanentmarker:88"/><use x="12416.5" y="3431.1" xlink:href="#s96:permanentmarker:90"/><use x="12950.5" y="3431.1" xlink:href="#s96:permanentmarker:33"/><use x="13159.5" y="3431.1" xlink:href="#s96:permanentmarker:21"/><use x="13538.5" y="3431.1" xlink:href="#s96:permanentmarker:98"/><use x="14372.5" y="3431.1" xlink:href="#s96:permanentmarker:106"/><use x="14971.5" y="3431.1" xlink:href="#s96:permanentmarker:104"/><use x="15446.5" y="3431.1" xlink:href="#s96:permanentmarker:94"/><use x="15774.5" y="3431.1" xlink:href="#s96:permanentmarker:88"/><use x="16300.5" y="3431.1" xlink:href="#s96:permanentmarker:33"/><use x="16509.5" y="3431.1" xlink:href="#s96:permanentmarker:21"/><use x="16888.5" y="3431.1" xlink:href="#s96:permanentmarker:104"/><use x="17353.5" y="3431.1" xlink:href="#s96:permanentmarker:101"/><use x="17890.5" y="3431.1" xlink:href="#s96:permanentmarker:100"/><use x="18534.5" y="3431.1" xlink:href="#s96:permanentmarker:103"/><use x="19057.5" y="3431.1" xlink:href="#s96:permanentmarker:105"/><use x="19548.5" y="3431.1" xlink:href="#s96:permanentmarker:33"/><use x="19757.5" y="3431.1" xlink:href="#s96:permanentmarker:21"/><use x="20136.5" y="3431.1" xlink:href="#s96:permanentmarker:90"/><use x="20670.5" y="3431.1" xlink:href="#s96:permanentmarker:105"/><use x="21161.5" y="3431.1" xlink:href="#s96:permanentmarker:88"/><use x="21687.5" y="3431.1" xlink:href="#s96:permanentmarker:33"/></g></svg>