<svg xmlns="http://www.w3.org/2000/svg" xmlns:xlink="http://www.w3.org/1999/xlink" width="581" height="87" viewBox="0 0 49588 7388.2"><defs><path id="s70:playfairdisplay-italic:97" d="M852-1398Q686-1421 588-1421Q410-1421 358-1386Q374-1365 384.50-1331.50Q395-1298 395-1268Q395-1221 369-1185Q343-1149 293-1149Q249-1149 226-1176.50Q203-1204 203-1251Q203-1358 311-1411Q407-1458 586-1458Q667-1458 742-1451Q817-1444 979.50-1422.50Q1142-1401 1260-1401Q1351-1401 1412.50-1411Q1474-1421 1523-1446Q1473-1497 1473-1561Q1473-1607 1498.50-1640Q1524-1673 1573-1673Q1618-1673 1641.50-1645Q1665-1617 1665-1575Q1665-1530 1638.50-1492Q1612-1454 1569-1427Q1460-1360 1245-1360Q1154-1360 1035-1374L733-238Q715-174 715-134Q715-99 732-79.50Q749-60 785.50-51.50Q822-43 887-41L879 0Q771-6 573-6Q373-6 274 0L283-41Q370-44 417.50-62Q465-80 492-120Q519-160 543-238L852-1398Z"/><path id="s70:playfairdisplay-italic:168" d="M944-182Q872 29 696 29Q552 29 552-97Q552-159 586-258L780-844Q802-906 802-946Q802-1016 735-1016Q660-1016 573-921.50Q486-827 398.50-655Q311-483 235-257L160 0L-18 0L387-1366Q397-1401 397-1422Q397-1463 364-1482Q331-1501 256-1501L268-1544Q481-1547 637-1628L340-613Q416-782 489.50-885Q563-988 639.50-1034.50Q716-1081 803-1081Q968-1081 968-926Q968-864 938-772L739-174Q724-124 724-96Q724-47 772-47Q813-47 851-93.50Q889-140 930-256L956-332L995-332L944-182Z"/><path id="s70:playfairdisplay-italic:151" d="M707-246Q665-174 601-111.50Q537-49 457.50-10Q378 29 295 29Q168 29 96.50-45.50Q25-120 25-260Q25-415 116-610.50Q207-806 362.50-943.50Q518-1081 700-1081Q766-1081 809-1046Q852-1011 852-946Q852-780 667-657Q482-534 240-452Q217-350 217-254Q217-57 358-57Q533-57 674-262L707-246M655-1042Q589-1042 508-965.50Q427-889 356.50-761.50Q286-634 249-491Q451-562 528-623Q604-682 646-766.50Q688-851 688-950Q688-1005 680-1023.50Q672-1042 655-1042Z"/><path id="s70:playfairdisplay-italic:1" d=""/><path id="s70:playfairdisplay-italic:24" d="M313-1450Q514-1444 907-1444Q1194-1444 1315-1450Q1261-1302 1237-1208Q1214-1128 1208-1081L1161-1081Q1179-1191 1179-1246Q1179-1305 1160-1338.50Q1141-1372 1096.50-1387.50Q1052-1403 973-1403L823-1403Q750-1403 713.50-1391Q677-1379 655-1344.50Q633-1310 612-1233L483-750L618-750Q720-750 771-811Q822-872 847-936Q872-1000 881-1020L928-1020Q886-891 867.50-819Q849-747 844-729Q817-633 778-438L731-438Q733-452 740-497Q747-542 747-577Q747-640 716-674.50Q685-709 606-709L472-709L340-217Q322-153 322-118Q322-88 336-73Q350-58 379-52.50Q408-47 461-47L610-47Q738-47 813.50-81Q889-115 939-190Q989-265 1042-410L1090-410Q1070-360 1044-262Q1014-152 989 0Q850-6 520-6Q127-6-72 0L-61-41Q13-44 49-57Q85-70 107-105Q129-140 150-217L422-1233Q440-1298 440-1333Q440-1363 426.50-1378.50Q413-1394 384.50-1400.50Q356-1407 303-1409L313-1450Z"/><path id="s70:playfairdisplay-italic:232" d="M1061-332L1010-182Q936 29 762 29Q728 29 699.50 14.50Q671 0 657-27Q645-52 645-90Q645-144 674-258L739-515Q657-317 580.50-197.50Q504-78 426.50-24.50Q349 29 260 29Q87 29 87-129Q87-193 117-281L315-879Q331-929 331-956Q331-1006 283-1006Q241-1006 203-959.50Q165-913 125-797L98-721L59-721L111-870Q183-1081 358-1081Q502-1081 502-954Q502-898 469-795L274-209Q254-149 254-107Q254-37 319-37Q397-37 492.50-151Q588-265 680.50-469Q773-673 843-931L874-1053Q991-1056 1061-1081L807-174Q792-122 792-94Q792-47 836-47Q881-47 918.50-95.50Q956-144 995-256L1022-332L1061-332Z"/><path id="s70:playfairdisplay-italic:216" d="M383-535Q458-736 524.50-855Q591-974 659.50-1027.50Q728-1081 809-1081Q865-1081 897.50-1048.50Q930-1016 930-965Q930-925 910-891Q890-857 857-837Q824-817 786-817Q750-817 727.50-836.50Q705-856 705-891Q705-983 797-1022Q789-1030 774-1030Q701-1030 618-922Q535-814 451-620Q367-426 291-171L248 0L70 0L315-879Q330-930 330-959Q330-1006 287-1006Q241-1006 203.50-957.50Q166-909 127-797L100-721L61-721L113-870Q185-1081 360-1081Q478-1081 478-962Q478-929 471-893Q464-857 449-795L383-535Z"/><path id="s70:playfairdisplay-italic:202" d="M43-293Q43-454 114.50-639.50Q186-825 321-953Q456-1081 635-1081Q766-1081 840.50-1000Q915-919 915-760Q915-599 843.50-413.50Q772-228 637.50-99.50Q503 29 324 29Q193 29 118-52.50Q43-134 43-293M623-1040Q518-1040 424.50-907Q331-774 275-574Q219-374 219-190Q219-12 336-12Q441-12 534-145Q627-278 683-477.50Q739-677 739-862Q739-954 710.50-997Q682-1040 623-1040Z"/><path id="s70:playfairdisplay-italic:213" d="M443-646Q540-874 635-977.50Q730-1081 838-1081Q937-1081 994-1008Q1051-935 1051-793Q1051-627 977.50-433.50Q904-240 767-105.50Q630 29 451 29Q395 29 350-2Q305-33 284-89L207 180Q199 209 199 229Q199 283 244 305.50Q289 328 373 328L360 371Q336 370 252.50 366Q169 362 86 362Q20 362-52 366Q-124 370-141 371L-129 328Q-79 328-49.50 316.50Q-20 305-1.50 277.50Q17 250 31 201L414-1164Q353-1028 269.50-922.50Q186-817 68-705L45-731Q142-826 205.50-899Q269-972 334-1078Q399-1184 463-1336L471-1366Q583-1369 657-1395L443-646M299-141Q325-74 361-46Q397-18 449-18Q558-18 656-154Q754-290 814-485Q874-680 874-838Q874-926 849-971Q824-1016 778-1016Q720-1016 643.50-922.50Q567-829 489.50-671.50Q412-514 352-328L299-141Z"/><path id="s70:playfairdisplay-italic:129" d="M971-334L920-184Q878-70 815-20.50Q752 29 684 29Q646 29 616.50 14.50Q587 0 571-25Q554-55 554-97Q554-127 561-159.50Q568-192 576-221.50Q584-251 586-260L623-409Q525-179 423.50-75Q322 29 211 29Q117 29 67.50-38.50Q18-106 18-219Q18-385 106.50-590Q195-795 335.50-938Q476-1081 623-1081Q677-1081 712.50-1041Q748-1001 754-928L786-1053Q900-1056 975-1081L719-176Q704-122 704-100Q704-49 750-49Q840-49 907-258L932-334L971-334M727-819Q729-851 729-864Q729-946 699.50-994Q670-1042 616-1042Q529-1042 430.50-906.50Q332-771 265.50-571Q199-371 199-195Q199-110 217-73.50Q235-37 270-37Q327-37 406.50-124.50Q486-212 562.50-358Q639-504 689-670L727-819Z"/><path id="s70:playfairdisplay-italic:195" d="M1034-182Q962 29 786 29Q694 29 657-31Q641-57 641-98Q641-156 676-258L870-844Q891-905 891-945Q891-1016 825-1016Q746-1016 647-901.50Q548-787 452.50-587Q357-387 286-143L250 0L72 0L317-879Q332-928 332-956Q332-1006 287-1006Q256-1006 231.50-986.50Q207-967 182.50-922Q158-877 129-797L102-721L63-721L115-870Q187-1081 358-1081Q479-1081 479-960Q479-905 451-795L380-515Q468-723 549.50-847Q631-971 714-1026Q797-1081 893-1081Q1058-1081 1058-927Q1058-866 1028-772L829-174Q813-126 813-97Q813-47 862-47Q904-47 942-93.50Q980-140 1020-256L1047-332L1085-332L1034-182Z"/><path id="s70:playfairdisplay-italic:188" d="M209-174Q196-129 196-102Q196-47 244-47Q285-47 321-94.50Q357-142 397-256L424-332L463-332L412-182Q338 29 166 29Q25 29 25-104Q25-163 53-258L387-1366Q397-1403 397-1423Q397-1464 365-1482.50Q333-1501 258-1501L272-1544Q381-1545 467.50-1566Q554-1587 637-1628L209-174Z"/><path id="s70:playfairdisplay-italic:162" d="M489-156Q567-135 616.50-113.50Q666-92 693.50-60Q721-28 721 20Q721 100 651.50 188.50Q582 277 444 338Q306 399 113 399Q-41 399-119 358.50Q-197 318-197 250Q-197 90 152-47Q74-80 74-154Q74-198 98.50-237.50Q123-277 191.50-325Q260-373 389-436Q260-439 185.50-495Q111-551 111-659Q111-745 159-843.50Q207-942 311-1011.50Q415-1081 573-1081Q631-1081 678-1071Q743-1175 811-1225Q878-1270 944-1270Q1032-1270 1032-1198Q1032-1169 1016-1141.50Q1000-1114 974-1096.50Q948-1079 918-1079Q892-1079 876-1095Q860-1111 860-1139Q860-1180 887-1212Q883-1216 875-1216Q858-1216 825-1196Q771-1161 713-1062Q866-1015 866-852Q866-758 815-667.50Q764-577 671-514.50Q578-452 460-439Q427-421 356.50-383Q286-345 251.50-317Q217-289 217-264Q217-226 340-195L489-156M412-473Q517-473 578-544.50Q639-616 661.50-714.50Q684-813 684-911Q684-1044 563-1044Q459-1044 398-957.50Q337-871 313-767Q289-663 289-606Q289-535 320.50-504Q352-473 412-473M184-37Q-25 75-25 215Q-25 287 29 326Q83 365 170 365Q264 365 360.50 329Q457 293 519.50 232Q582 171 582 98Q582 75 562 65Q542 55 507 46Q472 37 459 33L184-37Z"/><path id="s70:playfairdisplay-italic:220" d="M121-31Q159-12 215-12Q308-12 365-67.50Q422-123 422-223Q422-288 397.50-351Q373-414 315-494Q266-561 242.50-597Q219-633 200.50-683Q182-733 182-791Q182-876 224.50-942Q267-1008 340-1044.50Q413-1081 500-1081Q606-1081 678-1041.50Q750-1002 750-903Q750-881 740-856.50Q730-832 708.50-814.50Q687-797 655-797Q620-797 596.50-821Q573-845 573-883Q573-949 631-1020Q590-1044 528-1044Q450-1044 400-992Q350-940 350-850Q350-796 368-757.50Q386-719 420-670.50Q454-622 473-594Q534-499 564-432Q594-365 594-293Q594-200 546-126.50Q498-53 417.50-12Q337 29 242 29Q124 29 44.50-21Q-35-71-35-174Q-35-210-15.50-238Q4-266 45-266Q91-266 113-229Q135-192 135-137Q135-101 121-31Z"/><path id="s70:playfairdisplay-italic:194" d="M1503-182Q1431 29 1255 29Q1164 29 1128-27Q1111-54 1111-97Q1111-153 1145-258L1339-844Q1360-911 1360-952Q1360-1016 1315-1016Q1236-1016 1142.50-892Q1049-768 953-548Q857-328 768-41L770-51L756 0L571 0L827-844Q848-909 848-949Q848-1016 791-1016Q716-1016 623.50-899Q531-782 440.50-579.50Q350-377 281-132L248 0L70 0L315-879Q330-930 330-954Q330-1006 287-1006Q241-1006 203.50-957.50Q166-909 127-797L100-721L61-721L113-870Q185-1081 360-1081Q479-1081 479-958Q479-897 449-795L384-537Q466-738 541-857Q616-976 692.50-1028.50Q769-1081 858-1081Q992-1081 992-937Q992-872 965-772L892-501Q978-715 1053.50-840.50Q1129-966 1207.50-1023.50Q1286-1081 1382-1081Q1458-1081 1492-1039.50Q1526-998 1526-928Q1526-859 1497-772L1298-174Q1283-126 1283-96Q1283-47 1331-47Q1373-47 1411-93.50Q1449-140 1489-256L1516-332L1554-332L1503-182Z"/><path id="s70:playfairdisplay-italic:140" d="M351-661Q447-881 541.50-981Q636-1081 741-1081Q840-1081 897-1008Q954-935 954-793Q954-627 880.50-433.50Q807-240 670-105.50Q533 29 354 29Q293 29 246.50-7Q200-43 182-108L8 33L-23 18Q2-30 16-100L375-1366Q383-1400 383-1421Q383-1463 352-1482Q321-1501 246-1501L256-1544Q365-1545 451-1566Q537-1587 616-1628L351-661M206-132Q232-71 267.50-44.50Q303-18 352-18Q461-18 559.50-154Q658-290 718-485Q778-680 778-838Q778-926 752.50-971Q727-1016 682-1016Q627-1016 555.50-932.50Q484-849 410.50-705.50Q337-562 277-389L206-132Z"/><path id="s70:playfairdisplay-italic:161" d="M334-1055Q378-1222 427-1327.50Q476-1433 543-1499Q590-1547 658-1574.50Q726-1602 799-1602Q890-1602 941.50-1561Q993-1520 993-1456Q993-1421 975-1388.50Q957-1356 925.50-1335.50Q894-1315 856-1315Q817-1315 795-1333Q773-1351 774-1384Q774-1433 806-1469.50Q838-1506 891-1522Q891-1541 863.50-1556Q836-1571 797-1571Q737-1571 678-1518Q636-1478 606-1391.50Q576-1305 549.50-1202Q523-1099 512-1055L511-1053L754-1053L741-1012L500-1012L133 356Q25 359-51 385L323-1012L137-1012L150-1053L333-1053L334-1055Z"/><path id="s70:playfairdisplay-italic:227" d="M248-174Q241-150 241-128Q241-87 265.50-67Q290-47 330-47Q381-47 425.50-91Q470-135 512-252L541-332L580-332L537-203Q494-76 425-23.50Q356 29 256 29Q164 29 118.50-16Q73-61 73-141Q73-190 92-258L309-1012L125-1012L135-1053L321-1053L410-1364Q523-1367 594-1393L497-1053L768-1053L762-1012L486-1012L248-174Z"/><path id="s70:playfairdisplay-italic:171" d="M384-1399Q384-1439 406-1475.50Q428-1512 463.50-1534Q499-1556 537-1556Q583-1556 612-1525.50Q641-1495 641-1449Q641-1409 619.50-1373.50Q598-1338 562-1316Q526-1294 487-1294Q442-1294 413-1324Q384-1354 384-1399M324-879Q339-924 339-954Q339-1006 295-1006Q248-1006 211-956.50Q174-907 133-797L104-721L66-721L119-870Q161-987 229-1034Q297-1081 373-1081Q509-1081 509-953Q509-893 475-795L256-174Q240-130 240-99Q240-47 289-47Q331-47 368-93.50Q405-140 449-256L477-332L516-332L463-182Q423-71 356-21Q289 29 211 29Q68 29 68-96Q68-159 104-258L324-879Z"/><path id="s70:playfairdisplay-italic:250" d="M574-123Q686-277 768-449Q850-621 883-788Q820-821 773.50-869Q727-917 727-977Q727-1026 756-1053.50Q785-1081 831-1081Q938-1081 938-915Q938-784 880-620Q822-456 729.50-295Q637-134 535-6Q343 233 131 334Q24 385-47 385Q-91 385-120.50 363Q-150 341-150 301Q-150 259-117 234Q-84 209-39 209Q4 209 44 230Q84 251 131 289Q292 204 438 44L287-874Q276-937 261.50-962Q247-987 221-987Q195-987 167-947Q139-907 100-799L74-723L35-723L86-872Q158-1081 322-1081Q365-1081 394-1064Q423-1047 441-1006Q459-965 469-893L574-123Z"/><path id="s70:playfairdisplay-italic:648" d="M-3-76Q-3-116 19-152.50Q41-189 76.50-211Q112-233 150-233Q196-233 225-202.50Q254-172 254-126Q254-86 232.50-50.50Q211-15 175 7Q139 29 100 29Q55 29 26-1Q-3-31-3-76Z"/><path id="s70:playfairdisplay-italic:249" d="M601-682Q670-840 774-956Q832-1023 879.50-1052Q927-1081 979-1081Q1018-1081 1043.50-1060.50Q1069-1040 1069-1006Q1069-966 1038.50-936.50Q1008-907 961-907Q892-907 831-956Q704-839 611-598L659-160Q667-108 684-87Q701-66 729-66Q764-66 796-105.50Q828-145 866-254L893-330L932-330L881-180Q805 29 647 29Q499 29 477-160L447-426Q366-244 229-98Q166-32 117.50-1.50Q69 29 23 29Q-23 29-46.50 9Q-70-11-70-47Q-70-86-39-115.50Q-8-145 37-145Q103-145 166-96Q250-174 321.50-282.50Q393-391 439-498L395-893Q382-987 326-987Q292-987 259.50-947Q227-907 188-799L162-723L123-723L174-872Q215-987 274.50-1034Q334-1081 408-1081Q483-1081 524.50-1038.50Q566-996 578-893L601-682Z"/><path id="s70:playfairdisplay-italic:141" d="M719-246Q677-174 613-111.50Q549-49 469.50-10Q390 29 307 29Q181 29 109-48Q37-125 37-272Q37-438 115-629Q193-820 334-950.50Q475-1081 655-1081Q716-1081 766.50-1060Q817-1039 847-999.50Q877-960 877-907Q877-867 859-829Q841-791 807.50-767Q774-743 731-743Q690-743 668.50-766Q647-789 647-823Q647-881 692.50-923.50Q738-966 801-977Q757-1040 662-1040Q559-1040 457.50-929.50Q356-819 291.50-637Q227-455 227-254Q227-154 265-105.50Q303-57 371-57Q537-57 678-262L719-246Z"/><path id="s70:playfairdisplay-italic:34" d="M313-1450Q514-1444 907-1444Q1194-1444 1315-1450Q1262-1301 1231-1188Q1209-1112 1192-1020L1145-1020Q1168-1156 1168-1224Q1168-1291 1146.50-1329.50Q1125-1368 1074-1385.50Q1023-1403 932-1403L823-1403Q750-1403 713.50-1391Q677-1379 655-1344.50Q633-1310 612-1233L477-729L627-729Q731-729 782-791.50Q833-854 857.50-917.50Q882-981 889-999L936-999Q895-874 876-801.50Q857-729 852-709Q809-528 786-418L739-418Q742-436 749-481.50Q756-527 756-560Q756-621 725-654.50Q694-688 616-688L466-688L340-217Q324-156 324-126Q324-92 341-74.50Q358-57 395-50Q432-43 500-41L489 0Q383-6 188-6Q15-6-72 0L-61-41Q13-44 49-57Q85-70 107-105Q129-140 150-217L422-1233Q440-1298 440-1333Q440-1363 426.50-1378.50Q413-1394 384.50-1400.50Q356-1407 303-1409L313-1450Z"/><path id="s70:playfairdisplay-italic:643" d="M-47 246Q50 187 107 117Q164 47 170-23Q111 29 63 29Q27 29 6.50 9.50Q-14-10-14-43Q-14-86 13.50-130.50Q41-175 85-204Q129-233 174-233Q219-233 241.50-198Q264-163 264-113Q264-42 228 30Q192 102 124 165.50Q56 229-37 274L-47 246Z"/></defs><g id="line-0"><use x="0" y="1959" xlink:href="#s70:playfairdisplay-italic:97"/><use x="1350" y="1959" xlink:href="#s70:playfairdisplay-italic:168"/><use x="2448" y="1959" xlink:href="#s70:playfairdisplay-italic:151"/><use x="3327" y="1959" xlink:href="#s70:playfairdisplay-italic:1"/><use x="3845" y="1959" xlink:href="#s70:playfairdisplay-italic:24"/><use x="5094" y="1959" xlink:href="#s70:playfairdisplay-italic:232"/><use x="6255" y="1959" xlink:href="#s70:playfairdisplay-italic:216"/><use x="7086" y="1959" xlink:href="#s70:playfairdisplay-italic:202"/><use x="8085" y="1959" xlink:href="#s70:playfairdisplay-italic:213"/><use x="9213" y="1959" xlink:href="#s70:playfairdisplay-italic:151"/><use x="10092" y="1959" xlink:href="#s70:playfairdisplay-italic:129"/><use x="11163" y="1959" xlink:href="#s70:playfairdisplay-italic:195"/><use x="12351" y="1959" xlink:href="#s70:playfairdisplay-italic:1"/><use x="12869" y="1959" xlink:href="#s70:playfairdisplay-italic:188"/><use x="13436" y="1959" xlink:href="#s70:playfairdisplay-italic:129"/><use x="14507" y="1959" xlink:href="#s70:playfairdisplay-italic:195"/><use x="15695" y="1959" xlink:href="#s70:playfairdisplay-italic:162"/><use x="16615" y="1959" xlink:href="#s70:playfairdisplay-italic:232"/><use x="17776" y="1959" xlink:href="#s70:playfairdisplay-italic:129"/><use x="18847" y="1959" xlink:href="#s70:playfairdisplay-italic:162"/><use x="19767" y="1959" xlink:href="#s70:playfairdisplay-italic:151"/><use x="20646" y="1959" xlink:href="#s70:playfairdisplay-italic:220"/><use x="21426" y="1959" xlink:href="#s70:playfairdisplay-italic:1"/><use x="21944" y="1959" xlink:href="#s70:playfairdisplay-italic:129"/><use x="23015" y="1959" xlink:href="#s70:playfairdisplay-italic:216"/><use x="23846" y="1959" xlink:href="#s70:playfairdisplay-italic:151"/><use x="24725" y="1959" xlink:href="#s70:playfairdisplay-italic:1"/><use x="25243" y="1959" xlink:href="#s70:playfairdisplay-italic:194"/><use x="26900" y="1959" xlink:href="#s70:playfairdisplay-italic:151"/><use x="27779" y="1959" xlink:href="#s70:playfairdisplay-italic:194"/><use x="29436" y="1959" xlink:href="#s70:playfairdisplay-italic:140"/><use x="30468" y="1959" xlink:href="#s70:playfairdisplay-italic:151"/><use x="31347" y="1959" xlink:href="#s70:playfairdisplay-italic:216"/><use x="32219" y="1959" xlink:href="#s70:playfairdisplay-italic:220"/><use x="32999" y="1959" xlink:href="#s70:playfairdisplay-italic:1"/><use x="33517" y="1959" xlink:href="#s70:playfairdisplay-italic:202"/><use x="34516" y="1959" xlink:href="#s70:playfairdisplay-italic:161"/><use x="35173" y="1959" xlink:href="#s70:playfairdisplay-italic:1"/><use x="35691" y="1959" xlink:href="#s70:playfairdisplay-italic:227"/><use x="36379" y="1959" xlink:href="#s70:playfairdisplay-italic:168"/><use x="37477" y="1959" xlink:href="#s70:playfairdisplay-italic:151"/><use x="38356" y="1959" xlink:href="#s70:playfairdisplay-italic:1"/><use x="38874" y="1959" xlink:href="#s70:playfairdisplay-italic:220"/><use x="39654" y="1959" xlink:href="#s70:playfairdisplay-italic:129"/><use x="40725" y="1959" xlink:href="#s70:playfairdisplay-italic:194"/><use x="42382" y="1959" xlink:href="#s70:playfairdisplay-italic:151"/><use x="43261" y="1959" xlink:href="#s70:playfairdisplay-italic:1"/><use x="43779" y="1959" xlink:href="#s70:playfairdisplay-italic:161"/><use x="44436" y="1959" xlink:href="#s70:playfairdisplay-italic:129"/><use x="45507" y="1959" xlink:href="#s70:playfairdisplay-italic:194"/><use x="47164" y="1959" xlink:href="#s70:playfairdisplay-italic:171"/><use x="47782" y="1959" xlink:href="#s70:playfairdisplay-italic:188"/><use x="48349" y="1959" xlink:href="#s70:playfairdisplay-italic:250"/><use x="49334" y="1959" xlink:href="#s70:playfairdisplay-italic:648"/></g><g id="line-1"><use x="9915" y="4416.6" xlink:href="#s70:playfairdisplay-italic:97"/><use x="11265" y="4416.6" xlink:href="#s70:playfairdisplay-italic:168"/><use x="12363" y="4416.6" xlink:href="#s70:playfairdisplay-italic:151"/><use x="13242" y="4416.6" xlink:href="#s70:playfairdisplay-italic:171"/><use x="13860" y="4416.6" xlink:href="#s70:playfairdisplay-italic:216"/><use x="14732" y="4416.6" xlink:href="#s70:playfairdisplay-italic:1"/><use x="15250" y="4416.6" xlink:href="#s70:playfairdisplay-italic:220"/><use x="16030" y="4416.6" xlink:href="#s70:playfairdisplay-italic:151"/><use x="16909" y="4416.6" xlink:href="#s70:playfairdisplay-italic:213"/><use x="18037" y="4416.6" xlink:href="#s70:playfairdisplay-italic:129"/><use x="19108" y="4416.6" xlink:href="#s70:playfairdisplay-italic:216"/><use x="19939" y="4416.6" xlink:href="#s70:playfairdisplay-italic:129"/><use x="21010" y="4416.6" xlink:href="#s70:playfairdisplay-italic:227"/><use x="21698" y="4416.6" xlink:href="#s70:playfairdisplay-italic:151"/><use x="22577" y="4416.6" xlink:href="#s70:playfairdisplay-italic:1"/><use x="23095" y="4416.6" xlink:href="#s70:playfairdisplay-italic:151"/><use x="23974" y="4416.6" xlink:href="#s70:playfairdisplay-italic:249"/><use x="25051" y="4416.6" xlink:href="#s70:playfairdisplay-italic:171"/><use x="25669" y="4416.6" xlink:href="#s70:playfairdisplay-italic:220"/><use x="26449" y="4416.6" xlink:href="#s70:playfairdisplay-italic:227"/><use x="27137" y="4416.6" xlink:href="#s70:playfairdisplay-italic:151"/><use x="28016" y="4416.6" xlink:href="#s70:playfairdisplay-italic:195"/><use x="29204" y="4416.6" xlink:href="#s70:playfairdisplay-italic:141"/><use x="30089" y="4416.6" xlink:href="#s70:playfairdisplay-italic:151"/><use x="30968" y="4416.6" xlink:href="#s70:playfairdisplay-italic:1"/><use x="31486" y="4416.6" xlink:href="#s70:playfairdisplay-italic:171"/><use x="32104" y="4416.6" xlink:href="#s70:playfairdisplay-italic:220"/><use x="32884" y="4416.6" xlink:href="#s70:playfairdisplay-italic:1"/><use x="33402" y="4416.6" xlink:href="#s70:playfairdisplay-italic:129"/><use x="34473" y="4416.6" xlink:href="#s70:playfairdisplay-italic:1"/><use x="34991" y="4416.6" xlink:href="#s70:playfairdisplay-italic:194"/><use x="36648" y="4416.6" xlink:href="#s70:playfairdisplay-italic:250"/><use x="37633" y="4416.6" xlink:href="#s70:playfairdisplay-italic:227"/><use x="38321" y="4416.6" xlink:href="#s70:playfairdisplay-italic:168"/><use x="39419" y="4416.6" xlink:href="#s70:playfairdisplay-italic:648"/></g><g id="line-2"><use x="12313" y="6874.2" xlink:href="#s70:playfairdisplay-italic:34"/><use x="13386" y="6874.2" xlink:href="#s70:playfairdisplay-italic:202"/><use x="14385" y="6874.2" xlink:href="#s70:playfairdisplay-italic:216"/><use x="15257" y="6874.2" xlink:href="#s70:playfairdisplay-italic:1"/><use x="15775" y="6874.2" xlink:href="#s70:playfairdisplay-italic:220"/><use x="16555" y="6874.2" xlink:href="#s70:playfairdisplay-italic:141"/><use x="17440" y="6874.2" xlink:href="#s70:playfairdisplay-italic:171"/><use x="18058" y="6874.2" xlink:href="#s70:playfairdisplay-italic:151"/><use x="18937" y="6874.2" xlink:href="#s70:playfairdisplay-italic:195"/><use x="20125" y="6874.2" xlink:href="#s70:playfairdisplay-italic:141"/><use x="21010" y="6874.2" xlink:href="#s70:playfairdisplay-italic:151"/><use x="21889" y="6874.2" xlink:href="#s70:playfairdisplay-italic:643"/><use x="22405" y="6874.2" xlink:href="#s70:playfairdisplay-italic:1"/><use x="22923" y="6874.2" xlink:href="#s70:playfairdisplay-italic:194"/><use x="24580" y="6874.2" xlink:href="#s70:playfairdisplay-italic:232"/><use x="25741" y="6874.2" xlink:href="#s70:playfairdisplay-italic:220"/><use x="26521" y="6874.2" xlink:href="#s70:playfairdisplay-italic:171"/><use x="27139" y="6874.2" xlink:href="#s70:playfairdisplay-italic:141"/><use x="28024" y="6874.2" xlink:href="#s70:playfairdisplay-italic:643"/><use x="28540" y="6874.2" xlink:href="#s70:playfairdisplay-italic:1"/><use x="29058" y="6874.2" xlink:href="#s70:playfairdisplay-italic:220"/><use x="29838" y="6874.2" xlink:href="#s70:playfairdisplay-italic:213"/><use x="30966" y="6874.2" xlink:href="#s70:playfairdisplay-italic:202"/><use x="31965" y="6874.2" xlink:href="#s70:playfairdisplay-italic:216"/><use x="32837" y="6874.2" xlink:href="#s70:playfairdisplay-italic:227"/><use x="33525" y="6874.2" xlink:href="#s70:playfairdisplay-italic:643"/><use x="34041" y="6874.2" xlink:href="#s70:playfairdisplay-italic:1"/><use x="34559" y="6874.2" xlink:href="#s70:playfairdisplay-italic:151"/><use x="35438" y="6874.2" xlink:href="#s70:playfairdisplay-italic:227"/><use x="36126" y="6874.2" xlink:href="#s70:playfairdisplay-italic:141"/><use x="37011" y="6874.2" xlink:href="#s70:playfairdisplay-italic:643"/></g></svg>