<svg xmlns="http://www.w3.org/2000/svg" xmlns:xlink="http://www.w3.org/1999/xlink" width="633" height="87" viewBox="0 0 54038 7388.2"><defs><path id="s68:playfairdisplay-bold:97" d="M59-946Q66-1014 66-1102Q66-1242 51-1450Q238-1444 684-1444Q1130-1444 1315-1450Q1300-1242 1300-1102Q1300-1014 1307-946L1260-946Q1226-1117 1177-1216.50Q1128-1316 1059.50-1359.50Q991-1403 893-1403L846-1403L846-233Q846-148 863.50-109Q881-70 925.50-56Q970-42 1065-41L1065 0Q807-6 676-6Q547-6 301 0L301-41Q397-42 441.50-56Q486-70 503-109Q520-148 520-233L520-1403L475-1403Q376-1403 307.50-1360Q239-1317 190-1217.50Q141-1118 106-946L59-946Z"/><path id="s68:playfairdisplay-bold:168" d="M465-897Q557-1087 799-1087Q958-1087 1024-1008Q1058-968 1074-906Q1090-844 1090-741L1090-190Q1090-133 1102.50-101Q1115-69 1143-56Q1171-43 1221-43L1221 0Q1005-8 950-8Q880-8 684 0L684-43Q725-43 749-56Q773-69 784-101Q795-133 795-190L795-827Q795-911 767.50-954Q740-997 668-997Q612-997 565.50-966.50Q519-936 492-882.50Q465-829 465-762L465-190Q465-133 475.50-101Q486-69 509.50-56Q533-43 575-43L575 0Q379-8 322-8Q251-8 39 0L39-43Q88-43 116-56Q144-69 157-101Q170-133 170-190L170-1356Q170-1451 140.50-1493.50Q111-1536 39-1536L39-1579Q104-1573 166-1573Q346-1573 465-1602L465-897Z"/><path id="s68:playfairdisplay-bold:151" d="M388-633Q385-603 385-537Q385-401 423-311.50Q461-222 521.50-180.50Q582-139 651-139Q820-139 922-303L958-291Q932-207 877.50-134.50Q823-62 739.50-16.50Q656 29 549 29Q408 29 301.50-31Q195-91 135.50-213.50Q76-336 76-518Q76-704 140-831.50Q204-959 317-1023Q430-1087 578-1087Q963-1087 963-633L388-633M705-672Q708-832 672.50-938Q637-1044 565-1044Q492-1044 443.50-953.50Q395-863 384-672L705-672Z"/><path id="s68:playfairdisplay-bold:1" d=""/><path id="s68:playfairdisplay-bold:24" d="M1198-483Q1192-416 1192-311Q1192-123 1206 0Q1067-6 737-6Q291-6 70 0L70-41Q138-44 169-57Q200-70 211.50-105Q223-140 223-217L223-1233Q223-1310 211.50-1345Q200-1380 169-1393Q138-1406 70-1409L70-1450Q291-1444 737-1444Q1038-1444 1165-1450Q1151-1281 1151-1147Q1151-1056 1157-1008L1110-1008Q1089-1157 1046-1243Q1003-1329 937-1366Q871-1403 774-1403L690-1403Q626-1403 597.50-1392.50Q569-1382 559-1352.50Q549-1323 549-1257L549-750L614-750Q724-750 780-830Q836-910 858-1020L905-1020Q898-919 898-827L899-729Q899-625 911-438L864-438Q823-709 614-709L549-709L549-193Q549-127 559-97.50Q569-68 597.50-57.50Q626-47 690-47L791-47Q935-47 1024.50-147Q1114-247 1151-483L1198-483Z"/><path id="s68:playfairdisplay-bold:232" d="M1069-223Q1069-128 1098.50-85.50Q1128-43 1200-43L1200 0Q1136-6 1073-6Q893-6 774 23L774-162Q681 29 444 29Q291 29 221-51Q187-89 172.50-152Q158-215 158-317L158-836Q158-930 128.50-973Q99-1016 27-1016L27-1059Q92-1053 154-1053Q333-1053 453-1081L453-233Q453-148 478.50-104.50Q504-61 575-61Q629-61 674.50-92.50Q720-124 747-178.50Q774-233 774-299L774-836Q774-930 744.50-973Q715-1016 643-1016L643-1059Q708-1053 770-1053Q949-1053 1069-1081L1069-223Z"/><path id="s68:playfairdisplay-bold:216" d="M475-891Q514-978 587.50-1032.50Q661-1087 754-1087Q816-1087 858-1060Q900-1033 920-990.50Q940-948 940-899Q940-823 896-775Q852-727 780-727Q710-727 669.50-762.50Q629-798 629-858Q629-956 719-1018Q706-1021 694-1021Q680-1021 662-1016Q610-1008 567-966.50Q524-925 499.50-867Q475-809 475-754L475-211Q475-116 521-79.50Q567-43 668-43L668 0Q412-8 342-8Q277-8 49 0L49-43Q98-43 126.50-56Q155-69 167.50-101Q180-133 180-190L180-836Q180-931 151-973.50Q122-1016 49-1016L49-1059Q114-1053 176-1053Q357-1053 475-1081L475-891Z"/><path id="s68:playfairdisplay-bold:202" d="M578-1087Q812-1087 945.50-953Q1079-819 1079-528Q1079-238 945.50-104.50Q812 29 578 29Q344 29 210-104.50Q76-238 76-528Q76-818 210-952.50Q344-1087 578-1087M578-1047Q490-1047 437.50-919Q385-791 385-528Q385-266 437.50-139Q490-12 578-12Q667-12 718.50-138.50Q770-265 770-528Q770-792 718.50-919.50Q667-1047 578-1047Z"/><path id="s68:playfairdisplay-bold:213" d="M467-891Q510-987 592.50-1037Q675-1087 784-1087Q890-1087 973-1029.50Q1056-972 1103.50-857.50Q1151-743 1151-578Q1151-382 1092.50-245.50Q1034-109 927.50-40Q821 29 676 29Q544 29 467-36L467 168Q467 258 512.50 293Q558 328 651 328L651 371Q621 370 515 366Q409 362 307 362Q229 362 148.50 366Q68 370 49 371L49 328Q95 328 121 315.50Q147 303 159.50 272.50Q172 242 172 188L172-836Q172-930 142.50-973Q113-1016 41-1016L41-1059Q106-1053 168-1053Q347-1053 467-1081L467-891M467-81Q513-27 596-27Q727-27 784.50-157.50Q842-288 842-537Q842-786 796-892.50Q750-999 664-999Q594-999 539-952Q484-905 467-822L467-81Z"/><path id="s68:playfairdisplay-bold:129" d="M616-864Q616-949 575.50-998Q535-1047 449-1047Q409-1047 369-1034.50Q329-1022 303-997Q360-978 392-937.50Q424-897 424-836Q424-794 403.50-760.50Q383-727 345-707.50Q307-688 258-688Q192-688 152.50-733Q113-778 113-846Q113-952 227-1018Q352-1087 539-1087Q749-1087 838-995Q881-952 896-888Q911-824 911-709L911-152Q911-102 920.50-81.50Q930-61 954-61Q987-61 1030-96L1051-61Q1004-22 949-4Q894 14 817 14Q713 14 667-32Q621-78 621-152Q571-69 490-27.50Q409 14 317 14Q200 14 129.50-47.50Q59-109 59-219Q59-326 129-396Q199-466 346-520Q362-526 450-559.50Q538-593 577-628Q616-663 616-705L616-864M616-621Q603-599 573.50-575.50Q544-552 489-518Q424-473 387-416.50Q350-360 350-276Q350-196 385-156.50Q420-117 477-117Q558-117 616-201L616-621Z"/><path id="s68:playfairdisplay-bold:195" d="M475-897Q568-1087 811-1087Q895-1087 948.50-1067Q1002-1047 1036-1008Q1070-969 1085-907Q1100-845 1100-741L1100-190Q1100-133 1113-101Q1126-69 1154-56Q1182-43 1231-43L1231 0Q1027-8 961-8Q898-8 694 0L694-43Q736-43 760-56Q784-69 794.50-101Q805-133 805-190L805-827Q805-911 777.50-954Q750-997 678-997Q622-997 575.50-966Q529-935 502-880.50Q475-826 475-760L475-190Q475-133 486-101Q497-69 521-56Q545-43 586-43L586 0Q398-8 332-8Q269-8 49 0L49-43Q98-43 126.50-56Q155-69 167.50-101Q180-133 180-190L180-836Q180-931 151-973.50Q122-1016 49-1016L49-1059Q114-1053 176-1053Q357-1053 475-1081L475-897Z"/><path id="s68:playfairdisplay-bold:188" d="M467-190Q467-133 479.50-101Q492-69 520.50-56Q549-43 598-43L598 0Q386-8 324-8Q253-8 41 0L41-43Q90-43 118-56Q146-69 159-101Q172-133 172-190L172-1358Q172-1453 142.50-1495.50Q113-1538 41-1538L41-1581Q106-1575 168-1575Q348-1575 467-1604L467-190Z"/><path id="s68:playfairdisplay-bold:162" d="M811-262Q934-262 1010.50-210.50Q1087-159 1087-43Q1087 62 1021 160.50Q955 259 821 322Q687 385 494 385Q344 385 242.50 361.50Q141 338 91 298Q41 258 41 207Q41 152 82.50 125Q124 98 218 68Q312 38 351 10L303 10Q218 10 146-31Q74-72 74-180Q74-239 98.50-286.50Q123-334 179.50-377.50Q236-421 332-467Q227-503 168-576.50Q109-650 109-762Q109-924 229.50-1005.50Q350-1087 549-1087Q631-1087 701-1073Q698-1125 709-1176Q719-1261 767-1312.50Q815-1364 903-1364Q968-1364 1010.50-1329.50Q1053-1295 1053-1239Q1053-1187 1012.50-1153.50Q972-1120 911-1120Q849-1120 814-1149Q779-1178 760-1235Q738-1198 729-1130Q728-1120 728-1100Q728-1078 729-1067Q851-1036 920-959.50Q989-883 989-762Q989-653 932.50-580Q876-507 777-471.50Q678-436 549-436Q452-436 372-456Q313-422 284.50-394Q256-366 256-330Q256-262 338-262L811-262M549-1051Q482-1051 447-985Q412-919 412-762Q412-605 447-539Q482-473 549-473Q617-473 651.50-539Q686-605 686-762Q686-919 651.50-985Q617-1051 549-1051M390 10Q356 42 337.50 89Q319 136 319 174Q319 259 383.50 304.50Q448 350 549 350Q632 350 703.50 319.50Q775 289 817.50 231Q860 173 860 96Q860 52 834 31Q808 10 741 10L390 10Z"/><path id="s68:playfairdisplay-bold:220" d="M145-395Q165-218 231.50-118Q298-18 420-18Q480-18 522.50-54.50Q565-91 565-164Q565-221 539.50-266Q514-311 475-346Q436-381 358-442Q263-519 215.50-563Q168-607 134-667.50Q100-728 100-805Q100-893 148-957Q196-1021 277-1054Q358-1087 453-1087Q531-1087 596-1068Q661-1049 698-1024Q718-1010 734-1010Q772-1010 782-1085L827-1085Q819-982 819-725L774-725Q756-859 693.50-950.50Q631-1042 512-1042Q451-1042 412-1007Q373-972 373-911Q373-842 419-792Q465-742 530-696Q595-650 625-627Q709-564 758.50-517Q808-470 839-410.50Q870-351 870-274Q870-184 817.50-115Q765-46 676-8.50Q587 29 481 29Q372 29 291-14Q230-45 195-57Q189-59 185-59Q152-59 137 14L92 14Q100-103 100-395L145-395Z"/><path id="s68:playfairdisplay-bold:194" d="M1696-190Q1696-133 1709-101Q1722-69 1750-56Q1778-43 1827-43L1827 0Q1623-8 1556-8Q1499-8 1303 0L1303-43Q1340-43 1361-56Q1382-69 1391.50-100.50Q1401-132 1401-190L1401-827Q1401-912 1375.50-954.50Q1350-997 1278-997Q1228-997 1185-968Q1142-939 1113.50-889Q1085-839 1079-777L1079-741L1079-190Q1079-133 1090.50-101Q1102-69 1127.50-56Q1153-43 1198-43L1198 0Q1002-8 940-8Q882-8 686 0L686-43Q723-43 744-56Q765-69 774.50-101Q784-133 784-190L784-827Q784-913 762-955Q740-997 674-997Q620-997 574.50-966Q529-935 502-880.50Q475-826 475-760L475-190Q475-133 484.50-101Q494-69 515-56Q536-43 573-43L573 0Q393-8 332-8Q269-8 49 0L49-43Q98-43 126.50-56Q155-69 167.50-101Q180-133 180-190L180-836Q180-931 151-973.50Q122-1016 49-1016L49-1059Q114-1053 176-1053Q357-1053 475-1081L475-897Q567-1087 793-1087Q949-1087 1018-1008Q1056-964 1070-884Q1122-995 1208.50-1041Q1295-1087 1409-1087Q1565-1087 1634-1008Q1667-969 1681.50-906.50Q1696-844 1696-741L1696-190Z"/><path id="s68:playfairdisplay-bold:140" d="M438-892Q480-987 562-1037Q644-1087 752-1087Q860-1087 943.50-1028Q1027-969 1074.50-850Q1122-731 1122-557Q1122-353 1059.50-222Q997-91 891.50-31Q786 29 653 29Q511 29 424-43Q413-44 392-44Q325-44 261.50-22.50Q198-1 160 33L129 14Q143-38 143-100L143-1356Q143-1451 113.50-1493.50Q84-1536 12-1536L12-1579Q76-1573 139-1573Q319-1573 438-1602L438-892M438-69Q505-14 590-14Q813-14 813-528Q813-780 766.50-889.50Q720-999 631-999Q564-999 509.50-951Q455-903 438-821L438-69Z"/><path id="s68:playfairdisplay-bold:161" d="M180-1057Q180-1178 192.50-1258.50Q205-1339 233-1395.50Q261-1452 309-1499Q355-1545 430.50-1573.50Q506-1602 590-1602Q718-1602 809-1534Q840-1509 859.50-1469Q879-1429 879-1380Q879-1343 860.50-1310.50Q842-1278 808.50-1258.50Q775-1239 733-1239Q663-1239 620.50-1277.50Q578-1316 578-1384Q578-1438 609-1478.50Q640-1519 698-1536Q692-1549 672.50-1557Q653-1565 625-1565Q548-1565 514-1511Q492-1480 483.50-1421.50Q475-1363 475-1243L475-1057L694-1057L694-1016L475-1016L475-211Q475-116 523-79.50Q571-43 668-43L668 0Q380-8 315-8Q253-8 49 0L49-43Q98-43 126.50-56Q155-69 167.50-101Q180-133 180-190L180-1016L41-1016L41-1057L180-1057Z"/><path id="s68:playfairdisplay-bold:227" d="M707-1057L707-1016L465-1016L465-190Q465-129 487-103.50Q509-78 555-78Q642-78 694-201L729-182Q652 29 449 29Q314 29 244-41Q201-83 185.50-147.50Q170-212 170-326L170-1016L-2-1016L-2-1057L170-1057L170-1329Q339-1329 465-1395L465-1057L707-1057Z"/><path id="s68:playfairdisplay-bold:171" d="M315-1587Q400-1587 450.50-1545Q501-1503 501-1430Q501-1356 450.50-1314Q400-1272 315-1272Q228-1272 178-1314Q128-1356 128-1430Q128-1503 178-1545Q228-1587 315-1587M475-190Q475-133 488-101Q501-69 529-56Q557-43 606-43L606 0Q402-8 334-8Q269-8 49 0L49-43Q98-43 126.50-56Q155-69 167.50-101Q180-133 180-190L180-836Q180-931 151-973.50Q122-1016 49-1016L49-1059Q114-1053 176-1053Q357-1053 475-1081L475-190Z"/><path id="s68:playfairdisplay-bold:250" d="M694-1059Q790-1053 893-1053Q996-1053 1051-1059L1051-1018Q1008-1007 973.50-967Q939-927 909-842L543 188Q502 295 453 334Q393 385 274 385Q221 385 169.50 367.50Q118 350 84.50 313Q51 276 51 221Q51 158 96 120Q141 82 215 82Q284 82 326.50 116Q369 150 369 211Q369 253 341.50 289.50Q314 326 266 344Q281 346 313 346Q441 346 500 184L533 86L98-901Q66-972 34.50-994Q3-1016-29-1016L-29-1059Q106-1047 252-1047Q373-1047 537-1059L537-1016Q493-1016 468-1013Q443-1010 425.50-998Q408-986 408-959Q408-935 422-901L673-296L813-690Q846-788 846-854Q846-932 806-972.50Q766-1013 694-1018L694-1059Z"/><path id="s68:playfairdisplay-bold:648" d="M276-287Q357-287 404-244.50Q451-202 451-129Q451-56 404-13.50Q357 29 276 29Q196 29 149-13.50Q102-56 102-129Q102-202 149-244.50Q196-287 276-287Z"/><path id="s68:playfairdisplay-bold:249" d="M983-145Q1016-98 1040.50-73Q1065-48 1098-43L1098 0Q934-8 879-8Q820-8 612 0L612-43Q644-43 662.50-54Q681-65 681-84Q681-97 672-113L458-430L387-340Q319-252 319-177Q319-119 359-82.50Q399-46 467-41L467 0Q347-6 172-6Q88-6 29 0L29-41Q74-57 117.50-94Q161-131 215-199L434-466L133-913Q95-968 72-990Q49-1012 18-1016L18-1059Q198-1051 262-1051Q316-1051 504-1059L504-1016Q473-1016 453.50-1005Q434-994 434-975Q434-962 444-946L637-659L715-762Q786-854 786-919Q786-962 754.50-988Q723-1014 662-1018L662-1059Q780-1053 893-1053Q980-1053 1038-1059L1038-1018Q952-989 850-860L661-623L983-145Z"/><path id="s68:playfairdisplay-bold:141" d="M958-295Q932-211 880-137.50Q828-64 745-17.50Q662 29 551 29Q414 29 306.50-31Q199-91 136.50-215Q74-339 74-524Q74-705 139.50-831.50Q205-958 319.50-1022.50Q434-1087 582-1087Q658-1087 725-1070.50Q792-1054 838-1026Q891-993 920.50-943.50Q950-894 950-834Q950-761 904.50-715.50Q859-670 788-670Q716-670 673.50-711Q631-752 631-821Q631-883 670-928Q709-973 766-989Q750-1011 716.50-1024.50Q683-1038 643-1038Q560-1038 501.50-975.50Q443-913 413-803.50Q383-694 383-553Q383-403 421-311Q459-219 520-180Q581-141 655-141Q725-141 796-177.50Q867-214 924-307L958-295Z"/><path id="s68:playfairdisplay-bold:34" d="M70-1450Q291-1444 737-1444Q1038-1444 1165-1450Q1151-1275 1151-1139Q1151-1042 1157-983L1110-983Q1083-1140 1037-1232Q991-1324 923.50-1363.50Q856-1403 758-1403L690-1403Q626-1403 597.50-1392.50Q569-1382 559-1352.50Q549-1323 549-1257L549-741L621-741Q730-741 786-821.50Q842-902 864-1012L911-1012Q904-911 904-819L905-721Q905-614 918-430L870-430Q828-700 621-700L549-700L549-229Q549-147 566-109.50Q583-72 627.50-59Q672-46 768-45L768 0Q516-6 393-6Q334-6 70 0L70-41Q138-44 169-57Q200-70 211.50-105Q223-140 223-217L223-1233Q223-1310 211.50-1345Q200-1380 169-1393Q138-1406 70-1409L70-1450Z"/><path id="s68:playfairdisplay-bold:643" d="M225 246Q284 221 328 170Q372 119 381 66Q386 38 386 18Q386-5 381-20Q334 29 262 29Q190 29 145-13Q100-55 100-129Q100-199 147.50-243Q195-287 268-287Q368-287 414-215Q435-184 447-138.50Q459-93 459-45Q459 60 405 147Q351 234 244 283L225 246Z"/></defs><g id="line-0"><use x="0" y="1959" xlink:href="#s68:playfairdisplay-bold:97"/><use x="1356" y="1959" xlink:href="#s68:playfairdisplay-bold:168"/><use x="2601" y="1959" xlink:href="#s68:playfairdisplay-bold:151"/><use x="3633" y="1959" xlink:href="#s68:playfairdisplay-bold:1"/><use x="4110" y="1959" xlink:href="#s68:playfairdisplay-bold:24"/><use x="5408" y="1959" xlink:href="#s68:playfairdisplay-bold:232"/><use x="6649" y="1959" xlink:href="#s68:playfairdisplay-bold:216"/><use x="7576" y="1959" xlink:href="#s68:playfairdisplay-bold:202"/><use x="8733" y="1959" xlink:href="#s68:playfairdisplay-bold:213"/><use x="9962" y="1959" xlink:href="#s68:playfairdisplay-bold:151"/><use x="10994" y="1959" xlink:href="#s68:playfairdisplay-bold:129"/><use x="12055" y="1959" xlink:href="#s68:playfairdisplay-bold:195"/><use x="13312" y="1959" xlink:href="#s68:playfairdisplay-bold:1"/><use x="13764" y="1959" xlink:href="#s68:playfairdisplay-bold:188"/><use x="14401" y="1959" xlink:href="#s68:playfairdisplay-bold:129"/><use x="15462" y="1959" xlink:href="#s68:playfairdisplay-bold:195"/><use x="16719" y="1959" xlink:href="#s68:playfairdisplay-bold:162"/><use x="17831" y="1959" xlink:href="#s68:playfairdisplay-bold:232"/><use x="19072" y="1959" xlink:href="#s68:playfairdisplay-bold:129"/><use x="20133" y="1959" xlink:href="#s68:playfairdisplay-bold:162"/><use x="21245" y="1959" xlink:href="#s68:playfairdisplay-bold:151"/><use x="22277" y="1959" xlink:href="#s68:playfairdisplay-bold:220"/><use x="23223" y="1959" xlink:href="#s68:playfairdisplay-bold:1"/><use x="23700" y="1959" xlink:href="#s68:playfairdisplay-bold:129"/><use x="24761" y="1959" xlink:href="#s68:playfairdisplay-bold:216"/><use x="25688" y="1959" xlink:href="#s68:playfairdisplay-bold:151"/><use x="26720" y="1959" xlink:href="#s68:playfairdisplay-bold:1"/><use x="27197" y="1959" xlink:href="#s68:playfairdisplay-bold:194"/><use x="29050" y="1959" xlink:href="#s68:playfairdisplay-bold:151"/><use x="30070" y="1959" xlink:href="#s68:playfairdisplay-bold:194"/><use x="31923" y="1959" xlink:href="#s68:playfairdisplay-bold:140"/><use x="33123" y="1959" xlink:href="#s68:playfairdisplay-bold:151"/><use x="34143" y="1959" xlink:href="#s68:playfairdisplay-bold:216"/><use x="35099" y="1959" xlink:href="#s68:playfairdisplay-bold:220"/><use x="36045" y="1959" xlink:href="#s68:playfairdisplay-bold:1"/><use x="36522" y="1959" xlink:href="#s68:playfairdisplay-bold:202"/><use x="37679" y="1959" xlink:href="#s68:playfairdisplay-bold:161"/><use x="38400" y="1959" xlink:href="#s68:playfairdisplay-bold:1"/><use x="38852" y="1959" xlink:href="#s68:playfairdisplay-bold:227"/><use x="39573" y="1959" xlink:href="#s68:playfairdisplay-bold:168"/><use x="40818" y="1959" xlink:href="#s68:playfairdisplay-bold:151"/><use x="41850" y="1959" xlink:href="#s68:playfairdisplay-bold:1"/><use x="42327" y="1959" xlink:href="#s68:playfairdisplay-bold:220"/><use x="43273" y="1959" xlink:href="#s68:playfairdisplay-bold:129"/><use x="44334" y="1959" xlink:href="#s68:playfairdisplay-bold:194"/><use x="46187" y="1959" xlink:href="#s68:playfairdisplay-bold:151"/><use x="47219" y="1959" xlink:href="#s68:playfairdisplay-bold:1"/><use x="47696" y="1959" xlink:href="#s68:playfairdisplay-bold:161"/><use x="48417" y="1959" xlink:href="#s68:playfairdisplay-bold:129"/><use x="49478" y="1959" xlink:href="#s68:playfairdisplay-bold:194"/><use x="51331" y="1959" xlink:href="#s68:playfairdisplay-bold:171"/><use x="51976" y="1959" xlink:href="#s68:playfairdisplay-bold:188"/><use x="52613" y="1959" xlink:href="#s68:playfairdisplay-bold:250"/><use x="53588" y="1959" xlink:href="#s68:playfairdisplay-bold:648"/></g><g id="line-1"><use x="10877.5" y="4416.6" xlink:href="#s68:playfairdisplay-bold:97"/><use x="12233.5" y="4416.6" xlink:href="#s68:playfairdisplay-bold:168"/><use x="13478.5" y="4416.6" xlink:href="#s68:playfairdisplay-bold:151"/><use x="14510.5" y="4416.6" xlink:href="#s68:playfairdisplay-bold:171"/><use x="15155.5" y="4416.6" xlink:href="#s68:playfairdisplay-bold:216"/><use x="16068.5" y="4416.6" xlink:href="#s68:playfairdisplay-bold:1"/><use x="16545.5" y="4416.6" xlink:href="#s68:playfairdisplay-bold:220"/><use x="17491.5" y="4416.6" xlink:href="#s68:playfairdisplay-bold:151"/><use x="18523.5" y="4416.6" xlink:href="#s68:playfairdisplay-bold:213"/><use x="19752.5" y="4416.6" xlink:href="#s68:playfairdisplay-bold:129"/><use x="20813.5" y="4416.6" xlink:href="#s68:playfairdisplay-bold:216"/><use x="21769.5" y="4416.6" xlink:href="#s68:playfairdisplay-bold:129"/><use x="22830.5" y="4416.6" xlink:href="#s68:playfairdisplay-bold:227"/><use x="23543.5" y="4416.6" xlink:href="#s68:playfairdisplay-bold:151"/><use x="24575.5" y="4416.6" xlink:href="#s68:playfairdisplay-bold:1"/><use x="25052.5" y="4416.6" xlink:href="#s68:playfairdisplay-bold:151"/><use x="26051.5" y="4416.6" xlink:href="#s68:playfairdisplay-bold:249"/><use x="27149.5" y="4416.6" xlink:href="#s68:playfairdisplay-bold:171"/><use x="27794.5" y="4416.6" xlink:href="#s68:playfairdisplay-bold:220"/><use x="28740.5" y="4416.6" xlink:href="#s68:playfairdisplay-bold:227"/><use x="29453.5" y="4416.6" xlink:href="#s68:playfairdisplay-bold:151"/><use x="30473.5" y="4416.6" xlink:href="#s68:playfairdisplay-bold:195"/><use x="31730.5" y="4416.6" xlink:href="#s68:playfairdisplay-bold:141"/><use x="32746.5" y="4416.6" xlink:href="#s68:playfairdisplay-bold:151"/><use x="33778.5" y="4416.6" xlink:href="#s68:playfairdisplay-bold:1"/><use x="34255.5" y="4416.6" xlink:href="#s68:playfairdisplay-bold:171"/><use x="34900.5" y="4416.6" xlink:href="#s68:playfairdisplay-bold:220"/><use x="35846.5" y="4416.6" xlink:href="#s68:playfairdisplay-bold:1"/><use x="36323.5" y="4416.6" xlink:href="#s68:playfairdisplay-bold:129"/><use x="37374.5" y="4416.6" xlink:href="#s68:playfairdisplay-bold:1"/><use x="37851.5" y="4416.6" xlink:href="#s68:playfairdisplay-bold:194"/><use x="39681.5" y="4416.6" xlink:href="#s68:playfairdisplay-bold:250"/><use x="40744.5" y="4416.6" xlink:href="#s68:playfairdisplay-bold:227"/><use x="41465.5" y="4416.6" xlink:href="#s68:playfairdisplay-bold:168"/><use x="42710.5" y="4416.6" xlink:href="#s68:playfairdisplay-bold:648"/></g><g id="line-2"><use x="13186.5" y="6874.2" xlink:href="#s68:playfairdisplay-bold:34"/><use x="14347.5" y="6874.2" xlink:href="#s68:playfairdisplay-bold:202"/><use x="15504.5" y="6874.2" xlink:href="#s68:playfairdisplay-bold:216"/><use x="16417.5" y="6874.2" xlink:href="#s68:playfairdisplay-bold:1"/><use x="16894.5" y="6874.2" xlink:href="#s68:playfairdisplay-bold:220"/><use x="17840.5" y="6874.2" xlink:href="#s68:playfairdisplay-bold:141"/><use x="18856.5" y="6874.2" xlink:href="#s68:playfairdisplay-bold:171"/><use x="19501.5" y="6874.2" xlink:href="#s68:playfairdisplay-bold:151"/><use x="20521.5" y="6874.2" xlink:href="#s68:playfairdisplay-bold:195"/><use x="21778.5" y="6874.2" xlink:href="#s68:playfairdisplay-bold:141"/><use x="22794.5" y="6874.2" xlink:href="#s68:playfairdisplay-bold:151"/><use x="23826.5" y="6874.2" xlink:href="#s68:playfairdisplay-bold:643"/><use x="24381.5" y="6874.2" xlink:href="#s68:playfairdisplay-bold:1"/><use x="24858.5" y="6874.2" xlink:href="#s68:playfairdisplay-bold:194"/><use x="26711.5" y="6874.2" xlink:href="#s68:playfairdisplay-bold:232"/><use x="27952.5" y="6874.2" xlink:href="#s68:playfairdisplay-bold:220"/><use x="28898.5" y="6874.2" xlink:href="#s68:playfairdisplay-bold:171"/><use x="29543.5" y="6874.2" xlink:href="#s68:playfairdisplay-bold:141"/><use x="30559.5" y="6874.2" xlink:href="#s68:playfairdisplay-bold:643"/><use x="31114.5" y="6874.2" xlink:href="#s68:playfairdisplay-bold:1"/><use x="31591.5" y="6874.2" xlink:href="#s68:playfairdisplay-bold:220"/><use x="32537.5" y="6874.2" xlink:href="#s68:playfairdisplay-bold:213"/><use x="33766.5" y="6874.2" xlink:href="#s68:playfairdisplay-bold:202"/><use x="34923.5" y="6874.2" xlink:href="#s68:playfairdisplay-bold:216"/><use x="35879.5" y="6874.2" xlink:href="#s68:playfairdisplay-bold:227"/><use x="36600.5" y="6874.2" xlink:href="#s68:playfairdisplay-bold:643"/><use x="37155.5" y="6874.2" xlink:href="#s68:playfairdisplay-bold:1"/><use x="37632.5" y="6874.2" xlink:href="#s68:playfairdisplay-bold:151"/><use x="38664.5" y="6874.2" xlink:href="#s68:playfairdisplay-bold:227"/><use x="39377.5" y="6874.2" xlink:href="#s68:playfairdisplay-bold:141"/><use x="40393.5" y="6874.2" xlink:href="#s68:playfairdisplay-bold:643"/></g></svg>