<svg xmlns="http://www.w3.org/2000/svg" xmlns:xlink="http://www.w3.org/1999/xlink" width="644" height="87" viewBox="0 0 54937 7388.2"><defs><path id="s66:playfairdisplay-black:97" d="M55-897Q61-950 61-1044Q61-1223 47-1450Q242-1444 717-1444Q1190-1444 1384-1450Q1370-1223 1370-1044Q1370-950 1376-897L1329-897Q1262-1166 1155.50-1284.50Q1049-1403 926-1403L924-1403L924-231Q924-145 941.50-106Q959-67 1005-54Q1051-41 1151-41L1151 0Q863-6 702-6Q557-6 281 0L281-41Q381-41 427-54Q473-67 490.50-106Q508-145 508-231L508-1403L506-1403Q381-1403 275.50-1285.50Q170-1168 102-897L55-897Z"/><path id="s66:playfairdisplay-black:168" d="M520-938Q613-1092 846-1092Q1009-1092 1077-1010Q1108-973 1122.50-910.50Q1137-848 1137-745L1137-190Q1137-133 1148-101Q1159-69 1183.50-56Q1208-43 1251-43L1251 0Q1031-8 965-8Q894-8 674 0L674-43Q710-43 730-56Q750-69 759-101Q768-133 768-190L768-856Q768-922 744-953.50Q720-985 668-985Q630-985 596-966Q562-947 541-913.50Q520-880 520-838L520-190Q520-133 529-101Q538-69 558-56Q578-43 614-43L614 0Q410-8 344-8Q273-8 37 0L37-43Q80-43 105-56Q130-69 141-101Q152-133 152-190L152-1356Q152-1451 126-1493.50Q100-1536 37-1536L37-1579Q101-1573 164-1573Q379-1573 520-1602L520-938Z"/><path id="s66:playfairdisplay-black:151" d="M448-633Q446-609 446-559Q446-362 514.50-278.50Q583-195 682-195Q831-195 930-332L965-319Q936-228 881-149.50Q826-71 739-21Q652 29 537 29Q322 29 192.50-104.50Q63-238 63-530Q63-720 131-846Q199-972 317.50-1032Q436-1092 590-1092Q977-1092 977-633L448-633M678-672Q680-835 654.50-939.50Q629-1044 575-1044Q519-1044 485-956Q451-868 441-672L678-672Z"/><path id="s66:playfairdisplay-black:1" d=""/><path id="s66:playfairdisplay-black:24" d="M1235-532Q1229-459 1229-344Q1229-135 1243 0Q1104-6 774-6Q295-6 57 0L57-41Q123-44 152.50-57Q182-70 192.50-105Q203-140 203-217L203-1233Q203-1310 192-1345Q181-1380 151.50-1393Q122-1406 57-1409L57-1450Q295-1444 774-1444Q1075-1444 1202-1450Q1188-1258 1188-1106Q1188-1011 1194-958L1147-958Q1111-1196 1010.50-1299.50Q910-1403 770-1403L743-1403Q687-1403 662-1394Q637-1385 627.50-1358.50Q618-1332 618-1274L618-750L639-750Q712-750 770.50-791Q829-832 867-894Q905-956 918-1020L965-1020Q957-900 957-821L958-729Q958-641 971-438L924-438Q911-515 872.50-576.50Q834-638 774-673.50Q714-709 639-709L618-709L618-176Q618-117 627.50-91Q637-65 662-56Q687-47 743-47L811-47Q885-47 959.50-94Q1034-141 1095.50-249.50Q1157-358 1188-532L1235-532Z"/><path id="s66:playfairdisplay-black:232" d="M1122-223Q1122-128 1148-85.50Q1174-43 1237-43L1237 0Q1173-6 1110-6Q895-6 754 23L754-125Q661 29 428 29Q265 29 197-53Q166-90 151.50-152Q137-214 137-317L137-840Q137-935 111.50-977.50Q86-1020 23-1020L23-1063Q87-1057 150-1057Q362-1057 506-1085L506-207Q506-141 530-109.50Q554-78 606-78Q644-78 678-97Q712-116 733-149.50Q754-183 754-225L754-840Q754-935 728-977.50Q702-1020 639-1020L639-1063Q703-1057 766-1057Q979-1057 1122-1085L1122-223Z"/><path id="s66:playfairdisplay-black:216" d="M526-938Q606-1092 791-1092Q891-1092 935-1030.50Q979-969 979-885Q979-793 927.50-738.50Q876-684 791-684Q702-684 655-723.50Q608-763 608-831Q608-953 713-1022Q676-1022 647-1008Q595-986 560.50-935.50Q526-885 526-825L526-211Q526-146 544-109.50Q562-73 600-58Q638-43 702-43L702 0Q450-8 371-8Q295-8 43 0L43-43Q86-43 111-56Q136-69 147-101Q158-133 158-190L158-840Q158-935 132-977.50Q106-1020 43-1020L43-1063Q108-1057 170-1057Q383-1057 526-1085L526-938Z"/><path id="s66:playfairdisplay-black:202" d="M590-1092Q842-1092 979-959.50Q1116-827 1116-530Q1116-234 979-102.50Q842 29 590 29Q337 29 200-102.50Q63-234 63-530Q63-827 200.50-959.50Q338-1092 590-1092M590-1051Q525-1051 485.50-922Q446-793 446-530Q446-268 485.50-140Q525-12 590-12Q655-12 694-140Q733-268 733-530Q733-793 694-922Q655-1051 590-1051Z"/><path id="s66:playfairdisplay-black:213" d="M520-938Q615-1092 831-1092Q935-1092 1015.50-1035Q1096-978 1142-862.50Q1188-747 1188-578Q1188-253 1056.50-112Q925 29 711 29Q589 29 520-10L520 160Q520 255 563.50 291.50Q607 328 696 328L696 371Q664 370 548.50 366Q433 362 319 362Q236 362 148 366Q60 370 37 371L37 328Q80 328 105 315Q130 302 141 270Q152 238 152 180L152-838Q152-933 126-975.50Q100-1018 37-1018L37-1061Q101-1055 164-1055Q377-1055 520-1083L520-938M520-50Q548-33 592-33Q704-33 754.50-155.50Q805-278 805-530Q805-783 768-884Q731-985 668-985Q630-985 596-966Q562-947 541-913.50Q520-880 520-838L520-50Z"/><path id="s66:playfairdisplay-black:129" d="M590-883Q590-948 557.50-999.50Q525-1051 438-1051Q412-1051 382.50-1041Q353-1031 330-1016Q467-965 467-831Q467-783 442.50-744Q418-705 373-682Q328-659 270-659Q220-659 182-682.50Q144-706 123-747Q102-788 102-838Q102-900 136.50-947.50Q171-995 229-1026Q358-1092 557-1092Q674-1092 755-1069.50Q836-1047 891-989Q931-947 944.50-882.50Q958-818 958-702L958-154Q958-105 965-85.50Q972-66 989-66Q1005-66 1018.50-73.50Q1032-81 1053-96L1073-61Q1025-21 961-3.50Q897 14 807 14Q699 14 648.50-29.50Q598-73 596-141Q553-70 475-28Q397 14 303 14Q182 14 113.50-50Q45-114 45-221Q45-326 108-396Q171-466 305-510Q414-549 466.50-571.50Q519-594 554.50-625.50Q590-657 590-700L590-883M590-616Q575-591 510-526Q410-429 410-295Q410-150 514-150Q557-150 590-184L590-616Z"/><path id="s66:playfairdisplay-black:195" d="M526-938Q619-1092 852-1092Q1015-1092 1083-1010Q1114-973 1128.50-910.50Q1143-848 1143-745L1143-190Q1143-133 1154-101Q1165-69 1189.50-56Q1214-43 1257-43L1257 0Q1037-8 971-8Q900-8 680 0L680-43Q716-43 736-56Q756-69 765-100.50Q774-132 774-190L774-856Q774-922 750-953.50Q726-985 674-985Q636-985 602-966Q568-947 547-913.50Q526-880 526-838L526-190Q526-133 535-101Q544-69 564.50-56Q585-43 621-43L621 0Q413-8 350-8Q279-8 43 0L43-43Q86-43 111-56Q136-69 147-101Q158-133 158-190L158-840Q158-935 132-977.50Q106-1020 43-1020L43-1063Q108-1057 170-1057Q383-1057 526-1085L526-938Z"/><path id="s66:playfairdisplay-black:188" d="M520-190Q520-133 531-101Q542-69 567-56Q592-43 635-43L635 0Q415-8 344-8Q273-8 37 0L37-43Q80-43 105-56Q130-69 141-101Q152-133 152-190L152-1356Q152-1451 126-1493.50Q100-1536 37-1536L37-1579Q101-1573 164-1573Q379-1573 520-1602L520-190Z"/><path id="s66:playfairdisplay-black:162" d="M827-287Q962-287 1045-230.50Q1128-174 1128-47Q1128 62 1060 161Q992 260 855.50 322.50Q719 385 522 385Q345 385 237.50 360.50Q130 336 85.50 298Q41 260 41 215Q41 159 81.50 140.50Q122 122 231.50 110Q341 98 378 53L311 53Q259 53 203.50 35.50Q148 18 107-29.50Q66-77 66-160Q66-228 91.50-279Q117-330 174-374.50Q231-419 331-466Q213-502 147.50-576.50Q82-651 82-764Q82-873 143.50-946.50Q205-1020 313-1056Q421-1092 563-1092Q628-1092 686-1084Q684-1105 684-1126Q684-1248 741.50-1322.50Q799-1397 915-1397Q991-1397 1041.50-1360.50Q1092-1324 1092-1260Q1092-1222 1069.50-1191.50Q1047-1161 1009-1143.50Q971-1126 924-1126Q854-1126 811.50-1152.50Q769-1179 741-1233Q727-1192 727-1126Q727-1102 730-1078Q877-1050 960.50-971Q1044-892 1044-764Q1044-655 982.50-581.50Q921-508 813-472Q705-436 563-436Q456-436 369-456Q326-428 307.50-406Q289-384 289-354Q289-287 362-287L827-287M563-1055Q512-1055 485.50-988Q459-921 459-764Q459-606 485.50-539.50Q512-473 563-473Q615-473 641.50-539.50Q668-606 668-764Q668-922 641.50-988.50Q615-1055 563-1055M419 53Q405 83 399 121.50Q393 160 393 186Q393 264 440 307Q487 350 578 350Q657 350 717 321Q777 292 810.50 239.50Q844 187 844 119Q844 86 822.50 69.50Q801 53 750 53L419 53Z"/><path id="s66:playfairdisplay-black:220" d="M129-395Q142-285 177.50-201Q213-117 269.50-70Q326-23 399-23Q451-23 484.50-51.50Q518-80 518-135Q518-192 494.50-237.50Q471-283 437-318.50Q403-354 328-422Q241-502 196.50-549Q152-596 120-658.50Q88-721 88-797Q88-885 141-952Q194-1019 282-1055.50Q370-1092 473-1092Q554-1092 623.50-1074.50Q693-1057 731-1036Q752-1024 768-1024Q809-1024 819-1090L860-1090Q852-983 852-721L811-721Q795-855 734.50-948.50Q674-1042 559-1042Q507-1042 472.50-1011Q438-980 438-928Q438-859 484-806.50Q530-754 592.50-705.50Q655-657 684-633Q760-570 805-524Q850-478 877.50-419.50Q905-361 905-287Q905-196 849.50-123.50Q794-51 699.50-11Q605 29 492 29Q364 29 281-23Q215-57 178-57Q139-57 121 14L80 14Q88-103 88-395L129-395Z"/><path id="s66:playfairdisplay-black:194" d="M1739-190Q1739-133 1750-101Q1761-69 1785.50-56Q1810-43 1853-43L1853 0Q1633-8 1567-8Q1504-8 1296 0L1296-43Q1325-43 1340.50-56Q1356-69 1363-100.50Q1370-132 1370-190L1370-856Q1370-922 1346-953.50Q1322-985 1270-985Q1235-985 1202-964Q1169-943 1146.50-908.50Q1124-874 1119-834Q1122-795 1122-745L1122-190Q1122-132 1131-100.50Q1140-69 1160-56Q1180-43 1217-43L1217 0Q1009-8 950-8Q884-8 680 0L680-43Q707-43 723-56Q739-69 746.50-101Q754-133 754-190L754-856Q754-922 735-953.50Q716-985 674-985Q636-985 602-966Q568-947 547-913.50Q526-880 526-838L526-190Q526-132 533-100.50Q540-69 556-56Q572-43 600-43L600 0Q412-8 350-8Q279-8 43 0L43-43Q86-43 111-56Q136-69 147-101Q158-133 158-190L158-840Q158-935 132-977.50Q106-1020 43-1020L43-1063Q107-1057 170-1057Q383-1057 526-1085L526-938Q614-1092 831-1092Q995-1092 1063-1010Q1094-973 1107-914Q1160-1012 1245-1052Q1330-1092 1448-1092Q1611-1092 1679-1010Q1710-973 1724.50-910.50Q1739-848 1739-745L1739-190Z"/><path id="s66:playfairdisplay-black:140" d="M498-938Q591-1092 809-1092Q913-1092 993-1035Q1073-978 1119-862.50Q1165-747 1165-578Q1165-253 1033.50-112Q902 29 688 29Q619 29 573.50 23.50Q528 18 487 0Q417-26 340-26Q278-26 224.50-10Q171 6 143 33L115 12Q129-31 129-100L129-1356Q129-1451 103-1493.50Q77-1536 14-1536L14-1579Q78-1573 141-1573Q356-1573 498-1602L498-938M498-36Q543-12 594-12Q782-12 782-530Q782-783 745.50-884Q709-985 645-985Q607-985 573-966Q539-947 518.50-913.50Q498-880 498-838L498-36Z"/><path id="s66:playfairdisplay-black:161" d="M156-1061Q156-1183 170-1262.50Q184-1342 215-1397Q246-1452 301-1499Q352-1543 434.50-1572.50Q517-1602 606-1602Q753-1602 852-1526Q884-1500 906-1456Q928-1412 928-1356Q928-1314 906-1275.50Q884-1237 845-1213.50Q806-1190 758-1190Q673-1190 623-1235Q573-1280 573-1360Q573-1421 609-1470.50Q645-1520 715-1542Q700-1561 659-1561Q597-1561 563-1522Q544-1497 534-1454.50Q524-1412 524-1335L524-1061L743-1061L743-1020L524-1020L524-211Q524-116 567.50-79.50Q611-43 700-43L700 0Q400-8 324-8Q261-8 41 0L41-43Q84-43 109-56Q134-69 145-101Q156-133 156-190L156-1020L33-1020L33-1061L156-1061Z"/><path id="s66:playfairdisplay-black:227" d="M717-1061L717-1020L516-1020L516-172Q516-132 530-115Q544-98 578-98Q603-98 633-112.50Q663-127 688-158L719-133Q625 29 428 29Q287 29 217-41Q175-83 161-147Q147-211 147-326L147-1020L-8-1020L-8-1061L147-1061L147-1305Q258-1305 347-1326.50Q436-1348 516-1395L516-1061L717-1061Z"/><path id="s66:playfairdisplay-black:171" d="M330-1602Q437-1602 495-1557Q553-1512 553-1425Q553-1339 495-1294Q437-1249 330-1249Q221-1249 164-1293.50Q107-1338 107-1425Q107-1512 164-1557Q221-1602 330-1602M526-190Q526-133 537-101Q548-69 573-56Q598-43 641-43L641 0Q421-8 350-8Q279-8 43 0L43-43Q86-43 111-56Q136-69 147-101Q158-133 158-190L158-840Q158-935 132-977.50Q106-1020 43-1020L43-1063Q108-1057 170-1057Q383-1057 526-1085L526-190Z"/><path id="s66:playfairdisplay-black:250" d="M702-1063Q779-1055 918-1055Q1034-1055 1075-1063L1075-1020Q1033-1004 997.50-959Q962-914 930-821L674-59L588 188Q550 295 498 336Q435 385 307 385Q244 385 180 365.50Q116 346 72.50 303Q29 260 29 193Q29 121 83.50 78Q138 35 229 35Q316 35 365 73.50Q414 112 414 186Q414 235 380 279Q346 323 281 344Q301 348 350 348Q491 348 545 184L556 151L78-905Q47-975 17.50-997.50Q-12-1020-41-1020L-41-1063Q122-1051 293-1051Q426-1051 590-1063L590-1020Q529-1020 498-1012Q467-1004 467-974Q467-959 475-942L728-342L813-604Q852-720 852-814Q852-910 810.50-962.50Q769-1015 702-1020L702-1063Z"/><path id="s66:playfairdisplay-black:648" d="M289-324Q387-324 439.50-279Q492-234 492-147Q492-61 439.50-16Q387 29 289 29Q190 29 138-15.50Q86-60 86-147Q86-234 138-279Q190-324 289-324Z"/><path id="s66:playfairdisplay-black:249" d="M1032-145Q1037-138 1056.50-111Q1076-84 1097.50-65.50Q1119-47 1139-43L1139 0Q931-8 870-8Q808-8 588 0L588-43Q617-43 633.50-53Q650-63 650-80Q650-97 639-113L438-416L420-393Q343-294 343-202Q343-135 383-90.50Q423-46 489-41L489 0Q365-6 156-6Q74-6 18 0L18-41Q69-66 113.50-105.50Q158-145 211-209L417-447L104-918Q72-968 49.50-991Q27-1014-2-1020L-2-1063Q234-1055 307-1055Q361-1055 549-1063L549-1020Q520-1020 503.50-1010Q487-1000 487-983Q487-967 498-950L676-681L711-723Q787-815 787-897Q787-950 753-983.50Q719-1017 657-1022L657-1063Q783-1057 930-1057Q1012-1057 1067-1063L1067-1022Q982-984 874-854L697-649L1032-145Z"/><path id="s66:playfairdisplay-black:141" d="M983-319Q955-229 899.50-150Q844-71 757-21Q670 29 555 29Q331 29 196-104.50Q61-238 61-530Q61-720 129-846Q197-972 315.50-1032Q434-1092 588-1092Q672-1092 742.50-1074.50Q813-1057 858-1030Q915-997 948-941.50Q981-886 981-817Q981-761 955.50-715.50Q930-670 885-644Q840-618 784-618Q696-618 646-669Q596-720 596-803Q596-877 644.50-932.50Q693-988 764-1008Q731-1032 682-1032Q550-1032 497-891.50Q444-751 444-559Q444-362 518.50-278.50Q593-195 700-195Q849-195 948-332L983-319Z"/><path id="s66:playfairdisplay-black:34" d="M57-1450Q295-1444 774-1444Q1075-1444 1202-1450Q1188-1258 1188-1106Q1188-1011 1194-958L1147-958Q1097-1195 996-1299Q895-1403 770-1403L743-1403Q687-1403 662-1394Q637-1385 627.50-1358.50Q618-1332 618-1274L618-750L639-750Q712-750 770.50-791Q829-832 867-894Q905-956 918-1020L965-1020Q957-900 957-821L958-729Q958-641 971-438L924-438Q911-515 872.50-576.50Q834-638 774-673.50Q714-709 639-709L618-709L618-238Q618-152 635.50-112.50Q653-73 699.50-60Q746-47 846-47L846 0Q570-6 424-6Q390-6 57 0L57-41Q123-44 152.50-57Q182-70 192.50-105Q203-140 203-217L203-1233Q203-1310 192-1345Q181-1380 151.50-1393Q122-1406 57-1409L57-1450Z"/><path id="s66:playfairdisplay-black:643" d="M254 246Q308 221 350 175Q392 129 408 78Q419 42 419 10Q419-10 414-35Q359 29 264 29Q182 29 133-17.50Q84-64 84-147Q84-227 137-275.50Q190-324 276-324Q330-324 372-304.50Q414-285 438-248Q461-218 475-166Q489-114 489-53Q489 54 434 144Q379 234 272 283L254 246Z"/></defs><g id="line-0"><use x="0" y="1959" xlink:href="#s66:playfairdisplay-black:97"/><use x="1420" y="1959" xlink:href="#s66:playfairdisplay-black:168"/><use x="2694" y="1959" xlink:href="#s66:playfairdisplay-black:151"/><use x="3724" y="1959" xlink:href="#s66:playfairdisplay-black:1"/><use x="4181" y="1959" xlink:href="#s66:playfairdisplay-black:24"/><use x="5512" y="1959" xlink:href="#s66:playfairdisplay-black:232"/><use x="6786" y="1959" xlink:href="#s66:playfairdisplay-black:216"/><use x="7751" y="1959" xlink:href="#s66:playfairdisplay-black:202"/><use x="8931" y="1959" xlink:href="#s66:playfairdisplay-black:213"/><use x="10184" y="1959" xlink:href="#s66:playfairdisplay-black:151"/><use x="11214" y="1959" xlink:href="#s66:playfairdisplay-black:129"/><use x="12301" y="1959" xlink:href="#s66:playfairdisplay-black:195"/><use x="13581" y="1959" xlink:href="#s66:playfairdisplay-black:1"/><use x="14038" y="1959" xlink:href="#s66:playfairdisplay-black:188"/><use x="14710" y="1959" xlink:href="#s66:playfairdisplay-black:129"/><use x="15797" y="1959" xlink:href="#s66:playfairdisplay-black:195"/><use x="17077" y="1959" xlink:href="#s66:playfairdisplay-black:162"/><use x="18224" y="1959" xlink:href="#s66:playfairdisplay-black:232"/><use x="19498" y="1959" xlink:href="#s66:playfairdisplay-black:129"/><use x="20585" y="1959" xlink:href="#s66:playfairdisplay-black:162"/><use x="21732" y="1959" xlink:href="#s66:playfairdisplay-black:151"/><use x="22762" y="1959" xlink:href="#s66:playfairdisplay-black:220"/><use x="23729" y="1959" xlink:href="#s66:playfairdisplay-black:1"/><use x="24186" y="1959" xlink:href="#s66:playfairdisplay-black:129"/><use x="25273" y="1959" xlink:href="#s66:playfairdisplay-black:216"/><use x="26238" y="1959" xlink:href="#s66:playfairdisplay-black:151"/><use x="27268" y="1959" xlink:href="#s66:playfairdisplay-black:1"/><use x="27725" y="1959" xlink:href="#s66:playfairdisplay-black:194"/><use x="29601" y="1959" xlink:href="#s66:playfairdisplay-black:151"/><use x="30611" y="1959" xlink:href="#s66:playfairdisplay-black:194"/><use x="32487" y="1959" xlink:href="#s66:playfairdisplay-black:140"/><use x="33718" y="1959" xlink:href="#s66:playfairdisplay-black:151"/><use x="34728" y="1959" xlink:href="#s66:playfairdisplay-black:216"/><use x="35713" y="1959" xlink:href="#s66:playfairdisplay-black:220"/><use x="36680" y="1959" xlink:href="#s66:playfairdisplay-black:1"/><use x="37137" y="1959" xlink:href="#s66:playfairdisplay-black:202"/><use x="38317" y="1959" xlink:href="#s66:playfairdisplay-black:161"/><use x="39065" y="1959" xlink:href="#s66:playfairdisplay-black:1"/><use x="39499" y="1959" xlink:href="#s66:playfairdisplay-black:227"/><use x="40216" y="1959" xlink:href="#s66:playfairdisplay-black:168"/><use x="41490" y="1959" xlink:href="#s66:playfairdisplay-black:151"/><use x="42520" y="1959" xlink:href="#s66:playfairdisplay-black:1"/><use x="42977" y="1959" xlink:href="#s66:playfairdisplay-black:220"/><use x="43944" y="1959" xlink:href="#s66:playfairdisplay-black:129"/><use x="45031" y="1959" xlink:href="#s66:playfairdisplay-black:194"/><use x="46907" y="1959" xlink:href="#s66:playfairdisplay-black:151"/><use x="47937" y="1959" xlink:href="#s66:playfairdisplay-black:1"/><use x="48394" y="1959" xlink:href="#s66:playfairdisplay-black:161"/><use x="49142" y="1959" xlink:href="#s66:playfairdisplay-black:129"/><use x="50229" y="1959" xlink:href="#s66:playfairdisplay-black:194"/><use x="52105" y="1959" xlink:href="#s66:playfairdisplay-black:171"/><use x="52781" y="1959" xlink:href="#s66:playfairdisplay-black:188"/><use x="53453" y="1959" xlink:href="#s66:playfairdisplay-black:250"/><use x="54446" y="1959" xlink:href="#s66:playfairdisplay-black:648"/></g><g id="line-1"><use x="11102.5" y="4416.6" xlink:href="#s66:playfairdisplay-black:97"/><use x="12522.5" y="4416.6" xlink:href="#s66:playfairdisplay-black:168"/><use x="13796.5" y="4416.6" xlink:href="#s66:playfairdisplay-black:151"/><use x="14826.5" y="4416.6" xlink:href="#s66:playfairdisplay-black:171"/><use x="15502.5" y="4416.6" xlink:href="#s66:playfairdisplay-black:216"/><use x="16444.5" y="4416.6" xlink:href="#s66:playfairdisplay-black:1"/><use x="16901.5" y="4416.6" xlink:href="#s66:playfairdisplay-black:220"/><use x="17868.5" y="4416.6" xlink:href="#s66:playfairdisplay-black:151"/><use x="18898.5" y="4416.6" xlink:href="#s66:playfairdisplay-black:213"/><use x="20151.5" y="4416.6" xlink:href="#s66:playfairdisplay-black:129"/><use x="21238.5" y="4416.6" xlink:href="#s66:playfairdisplay-black:216"/><use x="22223.5" y="4416.6" xlink:href="#s66:playfairdisplay-black:129"/><use x="23310.5" y="4416.6" xlink:href="#s66:playfairdisplay-black:227"/><use x="24015.5" y="4416.6" xlink:href="#s66:playfairdisplay-black:151"/><use x="25045.5" y="4416.6" xlink:href="#s66:playfairdisplay-black:1"/><use x="25502.5" y="4416.6" xlink:href="#s66:playfairdisplay-black:151"/><use x="26499.5" y="4416.6" xlink:href="#s66:playfairdisplay-black:249"/><use x="27619.5" y="4416.6" xlink:href="#s66:playfairdisplay-black:171"/><use x="28295.5" y="4416.6" xlink:href="#s66:playfairdisplay-black:220"/><use x="29262.5" y="4416.6" xlink:href="#s66:playfairdisplay-black:227"/><use x="29967.5" y="4416.6" xlink:href="#s66:playfairdisplay-black:151"/><use x="30977.5" y="4416.6" xlink:href="#s66:playfairdisplay-black:195"/><use x="32257.5" y="4416.6" xlink:href="#s66:playfairdisplay-black:141"/><use x="33287.5" y="4416.6" xlink:href="#s66:playfairdisplay-black:151"/><use x="34317.5" y="4416.6" xlink:href="#s66:playfairdisplay-black:1"/><use x="34774.5" y="4416.6" xlink:href="#s66:playfairdisplay-black:171"/><use x="35450.5" y="4416.6" xlink:href="#s66:playfairdisplay-black:220"/><use x="36417.5" y="4416.6" xlink:href="#s66:playfairdisplay-black:1"/><use x="36874.5" y="4416.6" xlink:href="#s66:playfairdisplay-black:129"/><use x="37961.5" y="4416.6" xlink:href="#s66:playfairdisplay-black:1"/><use x="38418.5" y="4416.6" xlink:href="#s66:playfairdisplay-black:194"/><use x="40269.5" y="4416.6" xlink:href="#s66:playfairdisplay-black:250"/><use x="41352.5" y="4416.6" xlink:href="#s66:playfairdisplay-black:227"/><use x="42069.5" y="4416.6" xlink:href="#s66:playfairdisplay-black:168"/><use x="43343.5" y="4416.6" xlink:href="#s66:playfairdisplay-black:648"/></g><g id="line-2"><use x="13442.5" y="6874.2" xlink:href="#s66:playfairdisplay-black:34"/><use x="14636.5" y="6874.2" xlink:href="#s66:playfairdisplay-black:202"/><use x="15816.5" y="6874.2" xlink:href="#s66:playfairdisplay-black:216"/><use x="16758.5" y="6874.2" xlink:href="#s66:playfairdisplay-black:1"/><use x="17215.5" y="6874.2" xlink:href="#s66:playfairdisplay-black:220"/><use x="18182.5" y="6874.2" xlink:href="#s66:playfairdisplay-black:141"/><use x="19212.5" y="6874.2" xlink:href="#s66:playfairdisplay-black:171"/><use x="19888.5" y="6874.2" xlink:href="#s66:playfairdisplay-black:151"/><use x="20898.5" y="6874.2" xlink:href="#s66:playfairdisplay-black:195"/><use x="22178.5" y="6874.2" xlink:href="#s66:playfairdisplay-black:141"/><use x="23208.5" y="6874.2" xlink:href="#s66:playfairdisplay-black:151"/><use x="24238.5" y="6874.2" xlink:href="#s66:playfairdisplay-black:643"/><use x="24807.5" y="6874.2" xlink:href="#s66:playfairdisplay-black:1"/><use x="25264.5" y="6874.2" xlink:href="#s66:playfairdisplay-black:194"/><use x="27140.5" y="6874.2" xlink:href="#s66:playfairdisplay-black:232"/><use x="28414.5" y="6874.2" xlink:href="#s66:playfairdisplay-black:220"/><use x="29381.5" y="6874.2" xlink:href="#s66:playfairdisplay-black:171"/><use x="30057.5" y="6874.2" xlink:href="#s66:playfairdisplay-black:141"/><use x="31087.5" y="6874.2" xlink:href="#s66:playfairdisplay-black:643"/><use x="31656.5" y="6874.2" xlink:href="#s66:playfairdisplay-black:1"/><use x="32113.5" y="6874.2" xlink:href="#s66:playfairdisplay-black:220"/><use x="33080.5" y="6874.2" xlink:href="#s66:playfairdisplay-black:213"/><use x="34333.5" y="6874.2" xlink:href="#s66:playfairdisplay-black:202"/><use x="35513.5" y="6874.2" xlink:href="#s66:playfairdisplay-black:216"/><use x="36498.5" y="6874.2" xlink:href="#s66:playfairdisplay-black:227"/><use x="37215.5" y="6874.2" xlink:href="#s66:playfairdisplay-black:643"/><use x="37784.5" y="6874.2" xlink:href="#s66:playfairdisplay-black:1"/><use x="38241.5" y="6874.2" xlink:href="#s66:playfairdisplay-black:151"/><use x="39271.5" y="6874.2" xlink:href="#s66:playfairdisplay-black:227"/><use x="39976.5" y="6874.2" xlink:href="#s66:playfairdisplay-black:141"/><use x="41006.5" y="6874.2" xlink:href="#s66:playfairdisplay-black:643"/></g></svg>