<svg xmlns="http://www.w3.org/2000/svg" xmlns:xlink="http://www.w3.org/1999/xlink" width="644" height="87" viewBox="0 0 54992 7388.2"><defs><path id="s67:playfairdisplay-blackitalic:97" d="M827-1390Q678-1401 594-1401Q433-1401 360-1366Q441-1355 492-1302.50Q543-1250 543-1167Q543-1109 516.50-1062.50Q490-1016 444.50-989.50Q399-963 344-963Q287-963 245-990Q203-1017 181.50-1062.50Q160-1108 160-1161Q160-1226 194.50-1287.50Q229-1349 309-1389Q410-1438 584-1438Q674-1438 766-1433Q858-1428 1038.50-1414.50Q1219-1401 1313-1401Q1418-1401 1497-1416Q1461-1449 1438-1499Q1415-1549 1415-1610Q1415-1672 1441-1718Q1467-1764 1513-1789.50Q1559-1815 1618-1815Q1677-1815 1723-1790Q1769-1765 1794-1724.50Q1819-1684 1819-1638Q1819-1488 1647-1415Q1512-1360 1292-1360L1233-1361L936-238Q921-184 921-149Q921-95 959.50-71Q998-47 1090-41L1081 0Q937-6 653-6Q381-6 252 0L260-41Q348-44 396.50-62Q445-80 472.50-120Q500-160 520-238L827-1390Z"/><path id="s67:playfairdisplay-blackitalic:168" d="M1128-332L1077-182Q1005 29 784 29Q673 29 621-23Q569-75 569-166Q569-239 598-324L774-854Q792-906 792-934Q792-965 770-965Q724-965 655.50-859Q587-753 512-579Q437-405 374-209L317-14L315-6L315-8L313 0L-49 0L356-1366Q366-1403 366-1423Q366-1464 334-1482.50Q302-1501 227-1501L242-1544Q404-1545 534.50-1566Q665-1587 791-1628L526-724Q593-869 658-949Q723-1029 790-1060.50Q857-1092 942-1092Q1143-1092 1143-922Q1143-863 1116-782L913-174Q903-144 903-126Q903-88 938-88Q999-88 1047-217L1090-332L1128-332Z"/><path id="s67:playfairdisplay-blackitalic:151" d="M866-246Q788-129 655-50Q522 29 348 29Q250 29 169.50-4.50Q89-38 41.50-103Q-6-168-6-260Q-6-461 97.50-654Q201-847 380.50-969.50Q560-1092 776-1092Q891-1092 960.50-1046Q1030-1000 1030-911Q1030-794 937-696Q844-598 697-529Q550-460 384-422Q377-367 377-317Q377-205 420-162Q463-119 547-119Q598-119 678.50-154Q759-189 834-262L866-246M731-1053Q674-1053 603-964.50Q532-876 473-737.50Q414-599 390-459Q496-518 578-598Q764-782 764-1001Q764-1053 731-1053Z"/><path id="s67:playfairdisplay-blackitalic:1" d=""/><path id="s67:playfairdisplay-blackitalic:24" d="M281-1450Q516-1444 991-1444Q1286-1444 1415-1450Q1365-1321 1337-1208Q1326-1162 1311-1081L1266-1081Q1267-1200 1239.50-1271Q1212-1342 1157.50-1372.50Q1103-1403 1018-1403L1012-1403Q941-1403 905.50-1391Q870-1379 848.50-1344.50Q827-1310 807-1233L679-750L715-750Q779-750 838-781.50Q897-813 941-865.50Q985-918 1008-979L1053-979Q1027-900 1009.50-830.50Q992-761 983-729Q956-627 930-479L885-479Q885-533 866-585.50Q847-638 802.50-673.50Q758-709 686-709L668-709L537-217Q519-147 519-117Q519-88 532.50-73Q546-58 574-52.50Q602-47 653-47L680-47Q780-47 855.50-81.50Q931-116 996-194.50Q1061-273 1128-410L1174-410Q1160-374 1130-262Q1098-145 1077 0Q938-6 614-6Q139-6-98 0L-90-41Q-16-44 20.50-57Q57-70 79-105Q101-140 121-217L391-1233Q408-1298 408-1331Q408-1362 394.50-1378Q381-1394 352-1400.50Q323-1407 270-1409L281-1450Z"/><path id="s67:playfairdisplay-blackitalic:232" d="M1188-342L1130-182Q1091-73 1014-22Q937 29 838 29Q702 29 655-51Q631-92 631-150Q631-199 647-258L693-434Q615-247 543-146.50Q471-46 396.50-8.50Q322 29 225 29Q132 29 82.50-14.50Q33-58 33-142Q33-200 59-281L258-889Q268-919 268-938Q268-975 233-975Q173-975 125-846L82-731L43-731L94-881Q168-1092 387-1092Q490-1092 546.50-1043.50Q603-995 603-899Q603-828 573-739L397-209Q380-155 380-129Q380-98 401-98Q451-98 528-223Q605-348 687-547.50Q769-747 831-959L858-1063Q1084-1066 1229-1092L971-174Q958-132 958-115Q958-88 989-88Q1021-88 1048-117Q1075-146 1102-217L1149-342L1188-342Z"/><path id="s67:playfairdisplay-blackitalic:216" d="M96-881Q173-1092 401-1092Q502-1092 546.50-1037.50Q591-983 591-897Q591-885 589-859Q629-946 672.50-997Q716-1048 766.50-1070Q817-1092 883-1092Q945-1092 989.50-1066Q1034-1040 1057.50-994.50Q1081-949 1081-893Q1081-825 1051-766Q1021-707 968.50-672Q916-637 850-637Q775-637 735.50-676Q696-715 696-791Q696-850 726.50-904Q757-958 808.50-995.50Q860-1033 920-1044Q899-1051 891-1051Q825-1051 772.50-1024.50Q720-998 655-894Q590-790 520-575L369 0L6 0L256-889Q265-922 265-942Q265-975 238-975Q206-975 179-946Q152-917 125-846L78-721L39-721L96-881Z"/><path id="s67:playfairdisplay-blackitalic:202" d="M12-319Q12-493 92-672Q172-851 333-971.50Q494-1092 725-1092Q903-1092 996.50-1002Q1090-912 1090-743Q1090-570 1010-391Q930-212 768.50-91.50Q607 29 377 29Q199 29 105.50-61Q12-151 12-319M715-1051Q657-1051 569.50-897Q482-743 417-525Q352-307 352-127Q352-64 361.50-38Q371-12 391-12Q446-12 533-160Q620-308 685-523.50Q750-739 750-932Q750-1003 740.50-1027Q731-1051 715-1051Z"/><path id="s67:playfairdisplay-blackitalic:213" d="M610-859Q671-979 744-1035.50Q817-1092 907-1092Q1048-1092 1118-1006Q1188-920 1188-758Q1188-589 1112-404.50Q1036-220 894.50-95.50Q753 29 567 29Q452 29 372-13L330 137Q314 196 314 227Q314 285 354 305.50Q394 326 483 328L471 371Q440 370 330.50 366Q221 362 115 362Q18 362-86 366Q-190 370-215 371L-203 328Q-153 328-123 316.50Q-93 305-75 278Q-57 251-43 201L322-1116Q268-991 198-890.50Q128-790 29-682L6-709Q94-808 151-883Q208-958 266.50-1067.50Q325-1177 383-1335Q584-1353 766-1413L610-859M382-47Q408-39 434-39Q523-39 610-154.50Q697-270 752-446Q807-622 807-788Q807-858 801-894Q795-930 784.50-942Q774-954 758-954Q713-954 661.50-884.50Q610-815 565-699L382-47Z"/><path id="s67:playfairdisplay-blackitalic:129" d="M1106-332L1055-182Q981 29 762 29Q636 29 584-43Q550-91 550-169Q550-192 551-205Q502-78 424-24.50Q346 29 240 29Q113 29 49.50-36.50Q-14-102-14-227Q-14-420 89-622.50Q192-825 347-958.50Q502-1092 643-1092Q759-1092 771-974L797-1061Q1000-1064 1167-1092L891-174Q882-147 882-124Q882-88 915-88Q976-88 1024-217L1067-332L1106-332M750-904Q752-924 752-934Q752-991 713-991Q655-991 572.50-872.50Q490-754 430.50-574Q371-394 371-219Q371-159 381-135Q391-111 418-111Q458-111 499-168.50Q540-226 590-374L750-904Z"/><path id="s67:playfairdisplay-blackitalic:195" d="M1184-332L1133-182Q1059 29 840 29Q708 29 655-45Q621-91 621-160Q621-225 653-324L829-854Q847-906 847-934Q847-965 825-965Q772-965 687.50-821.50Q603-678 516.50-454.50Q430-231 371-6L372-10L369 0L6 0L256-889Q268-934 268-948Q268-975 238-975Q206-975 179-946Q152-917 125-846L78-721L39-721L96-881Q134-989 203-1040.50Q272-1092 377-1092Q492-1092 542.50-1038Q593-984 593-899Q593-855 580-805L524-592Q604-792 677.50-900.50Q751-1009 826-1050.50Q901-1092 997-1092Q1198-1092 1198-922Q1198-863 1171-782L969-174Q959-144 959-125Q959-88 993-88Q1054-88 1102-217L1145-332L1184-332Z"/><path id="s67:playfairdisplay-blackitalic:188" d="M346-174Q340-152 340-136Q340-111 351.50-99.50Q363-88 379-88Q399-88 426.50-113.50Q454-139 483-217L526-332L565-332L514-182Q473-63 393-17Q313 29 223 29Q121 29 64-24Q7-77 7-179Q7-242 31-324L344-1366Q354-1403 354-1423Q354-1464 322-1482.50Q290-1501 215-1501L229-1544Q392-1545 522-1566Q652-1587 778-1628L346-174Z"/><path id="s67:playfairdisplay-blackitalic:162" d="M145-16Q88-35 51-71Q14-107 14-158Q14-215 64.50-262.50Q115-310 197-350Q279-390 414-444Q261-447 168.50-505.50Q76-564 76-680Q76-780 146-874.50Q216-969 345-1029.50Q474-1090 643-1090Q691-1090 734-1085Q782-1188 825-1257Q868-1326 918-1366Q976-1413 1047-1413Q1116-1413 1157-1376.50Q1198-1340 1198-1272Q1198-1219 1172.50-1169.50Q1147-1120 1102.50-1089.50Q1058-1059 1006-1059Q950-1059 916.50-1092Q883-1125 883-1176Q883-1217 908-1260.50Q933-1304 981-1343Q971-1348 964-1348Q945-1348 930-1331Q897-1301 851.50-1229Q806-1157 773-1079Q877-1059 936-1003.50Q995-948 995-856Q995-762 934.50-673Q874-584 762-522.50Q650-461 503-447Q334-387 334-338Q334-322 351-311.50Q368-301 406-287L592-217Q825-130 825 23Q825 145 722.50 226.50Q620 308 472 346.50Q324 385 188 385Q61 385-30.50 365Q-122 345-170.50 308.50Q-219 272-219 223Q-219 150-151.50 117.50Q-84 85 45.50 57Q175 29 226 9L145-16M469-481Q519-481 560-545.50Q601-610 624.50-713Q648-816 649-926Q649-991 638.50-1022Q628-1053 596-1053Q551-1053 509.50-989Q468-925 443-821Q418-717 418-602Q418-533 429.50-507Q441-481 469-481M257 19Q198 99 171.50 170Q145 241 145 291Q145 323 162 336.50Q179 350 213 350Q285 350 362.50 326.50Q440 303 491.50 260Q543 217 543 162Q543 135 527 118.50Q511 102 490 94Q469 86 424 72L257 19Z"/><path id="s67:playfairdisplay-blackitalic:220" d="M172-29Q203-14 244-14Q308-14 349.50-56.50Q391-99 391-170Q391-234 360.50-307.50Q330-381 272-475Q224-553 202.50-592Q181-631 165.50-680Q150-729 150-782Q150-871 195.50-941Q241-1011 332.50-1051.50Q424-1092 557-1092Q708-1092 808.50-1038Q909-984 909-856Q909-812 892-770Q875-728 842.50-701Q810-674 764-674Q703-674 668-721.50Q633-769 633-846Q633-906 653-958.50Q673-1011 698-1038Q680-1047 647-1047Q575-1047 538.50-1005Q502-963 502-883Q502-833 524-784Q546-735 577-684.50Q608-634 623-608Q691-492 718-420Q745-348 745-279Q745-193 698-123Q651-53 558.50-12Q466 29 336 29Q171 29 64-32Q-43-93-43-233Q-43-311-5-363.50Q33-416 96-416Q156-416 192.50-366.50Q229-317 229-236Q229-196 219.50-157.50Q210-119 196.50-85.50Q183-52 172-29Z"/><path id="s67:playfairdisplay-blackitalic:194" d="M1731-332L1679-182Q1607 29 1386 29Q1249 29 1196-57Q1169-103 1169-165Q1169-234 1200-324L1376-854Q1391-898 1391-920Q1391-944 1374-944Q1334-944 1279-882.50Q1224-821 1154-674.50Q1084-528 1010-290L926 0L561 0L807-854Q823-909 823-924Q823-944 803-944Q730-944 639.50-779Q549-614 451-317L369 0L6 0L256-889Q265-922 265-940Q265-975 233-975Q174-975 125-846L78-721L39-721L96-881Q136-990 213.50-1041Q291-1092 391-1092Q497-1092 544-1040.50Q591-989 591-905Q591-859 578-805L555-715Q613-849 677.50-932Q742-1015 819.50-1053.50Q897-1092 995-1092Q1175-1092 1175-929Q1175-866 1151-782L1140-745Q1202-878 1269-954.50Q1336-1031 1407-1061.50Q1478-1092 1563-1092Q1747-1092 1747-931Q1747-867 1718-782L1516-174Q1506-144 1506-125Q1506-88 1540-88Q1601-88 1649-217L1692-332L1731-332Z"/><path id="s67:playfairdisplay-blackitalic:140" d="M571-886Q631-993 698-1042.50Q765-1092 850-1092Q990-1092 1060-1006Q1130-920 1130-758Q1130-589 1049-404.50Q968-220 817-95.50Q666 29 469 29Q372 29 308-15Q266-26 226-26Q124-26-35 33L-66 18Q-43-25-20-102L356-1366Q366-1403 366-1423Q366-1464 334-1482.50Q302-1501 227-1501L242-1544Q404-1545 534.50-1566Q665-1587 791-1628L571-886M323-48Q350-39 377-39Q465-39 552-167Q639-295 694.50-484Q750-673 750-838Q750-905 738-929.50Q726-954 700-954Q662-954 619-903Q576-852 535-764L323-48Z"/><path id="s67:playfairdisplay-blackitalic:161" d="M268-1053Q357-1386 526-1511Q648-1602 836-1602Q935-1602 1007.50-1574Q1080-1546 1118.50-1494Q1157-1442 1157-1372Q1157-1323 1129-1275.50Q1101-1228 1050.50-1197.50Q1000-1167 936-1167Q860-1167 816-1203.50Q772-1240 772-1307Q772-1386 820.50-1451Q869-1516 954-1548Q925-1561 901-1561Q839-1561 801-1528Q743-1479 702-1325L629-1053L836-1053L823-1012L618-1012L252 356Q49 359-119 385L257-1012L96-1012L109-1053L268-1053Z"/><path id="s67:playfairdisplay-blackitalic:227" d="M395-174Q389-152 389-135Q389-88 432-88Q472-88 513.50-132.50Q555-177 580-244L612-332L651-332L612-219Q572-101 488-36Q404 29 287 29Q173 29 116.50-31Q60-91 60-193Q60-253 80-324L278-1012L90-1012L100-1053L290-1053L379-1364Q597-1367 752-1393L652-1053L856-1053L850-1012L640-1012L395-174Z"/><path id="s67:playfairdisplay-blackitalic:171" d="M346-1384Q346-1491 415-1546.50Q484-1602 596-1602Q685-1602 731.50-1566.50Q778-1531 778-1462Q778-1399 745-1350.50Q712-1302 654.50-1275.50Q597-1249 526-1249Q438-1249 392-1283.50Q346-1318 346-1384M260-889Q271-918 271-940Q271-975 242-975Q210-975 183-946Q156-917 129-846L82-721L43-721L100-881Q177-1092 406-1092Q516-1092 567.50-1039Q619-986 619-903Q619-854 602-805L389-174Q379-144 379-124Q379-88 414-88Q474-88 522-217L565-332L604-332L553-182Q481 29 260 29Q156 29 99-20Q42-69 42-165Q42-233 72-324L260-889Z"/><path id="s67:playfairdisplay-blackitalic:250" d="M657-192Q795-401 870-614Q773-668 715-749.50Q657-831 657-924Q657-1001 699-1046.50Q741-1092 817-1092Q973-1092 973-893Q973-774 918.50-617Q864-460 771.50-299Q679-138 569-8Q440 145 299.50 240.50Q159 336 20 369Q-49 385-100 385Q-182 385-226 349.50Q-270 314-270 250Q-270 209-250 175Q-230 141-193 120.50Q-156 100-106 100Q41 100 145 281Q272 224 384 127L217-887Q207-940 199.50-957.50Q192-975 174-975Q160-975 149.50-965Q139-955 126-928.50Q113-902 92-846L49-731L10-731L61-881Q102-999 166.50-1045.50Q231-1092 326-1092Q429-1092 488-1038Q547-984 567-848L657-192Z"/><path id="s67:playfairdisplay-blackitalic:648" d="M-2-106Q-2-169 28-218.50Q58-268 110-296Q162-324 227-324Q306-324 347.50-288.50Q389-253 389-184Q389-130 358-81Q327-32 274-1.50Q221 29 158 29Q79 29 38.50-5.50Q-2-40-2-106Z"/><path id="s67:playfairdisplay-blackitalic:249" d="M741-801Q786-899 836-967Q927-1092 1073-1092Q1158-1092 1211-1045.50Q1264-999 1264-918Q1264-865 1240.50-823.50Q1217-782 1175-758.50Q1133-735 1079-735Q1007-735 948-782Q889-829 862-934Q800-850 750-723L811-180Q820-129 837-107.50Q854-86 881-86Q910-86 937-121.50Q964-157 997-254L1024-330L1063-330L1012-180Q973-58 892-14.50Q811 29 709 29Q593 29 524.50-18.50Q456-66 444-180L434-270Q386-165 334-96Q237 29 94 29Q7 29-43.50-15.50Q-94-60-94-135Q-94-194-68.50-237.50Q-43-281-0.50-304.50Q42-328 94-328Q245-328 307-129Q372-217 424-352L362-883Q355-931 337-947Q319-963 289-963Q270-963 253.50-952.50Q237-942 217.50-908.50Q198-875 176-809L150-733L111-733L162-883Q201-1005 283.50-1048.50Q366-1092 475-1092Q555-1092 608-1071.50Q661-1051 693-999Q725-947 735-854L741-801Z"/><path id="s67:playfairdisplay-blackitalic:141" d="M838-246Q661 29 369 29Q262 29 179.50-6.50Q97-42 50.50-114.50Q4-187 4-295Q4-477 98.50-663Q193-849 365-970.50Q537-1092 756-1092Q838-1092 898.50-1063Q959-1034 990.50-985.50Q1022-937 1022-879Q1022-814 989-751.50Q956-689 900.50-649.50Q845-610 782-610Q745-610 713.50-626.50Q682-643 662.50-675.50Q643-708 643-754Q643-818 672-874Q701-930 748.50-969.50Q796-1009 852-1026Q824-1051 782-1051Q683-1051 591.50-941.50Q500-832 443.50-659Q387-486 387-307Q387-201 430.50-149.50Q474-98 551-98Q616-98 676-135Q736-172 797-262L838-246Z"/><path id="s67:playfairdisplay-blackitalic:34" d="M281-1450Q516-1444 991-1444Q1286-1444 1415-1450Q1374-1342 1337-1208Q1301-1078 1290-1020L1245-1020Q1248-1059 1248-1093Q1248-1259 1182-1331Q1116-1403 997-1403L991-1403Q927-1403 895-1391Q863-1379 844-1344.50Q825-1310 807-1233L679-750L735-750Q827-750 904-811.50Q981-873 1028-979L1073-979Q1035-864 1004-729Q979-630 940-418L895-418Q895-559 846-634Q797-709 707-709L668-709L537-217Q522-160 522-126Q522-92 539-74.50Q556-57 592.50-50Q629-43 698-41L690 0Q552-6 283-6Q25-6-98 0L-90-41Q-16-44 20.50-57Q57-70 79-105Q101-140 121-217L391-1233Q408-1298 408-1331Q408-1362 394.50-1378Q381-1394 352-1400.50Q323-1407 270-1409L281-1450Z"/><path id="s67:playfairdisplay-blackitalic:643" d="M76 246Q166 208 230.50 133Q295 58 301-35Q240 29 158 29Q81 29 39.50-5.50Q-2-40-2-106Q-2-169 28-218.50Q58-268 110-296Q162-324 227-324Q393-324 393-156Q393-12 311 104.50Q229 221 86 283L76 246Z"/></defs><g id="line-0"><use x="0" y="1959" xlink:href="#s67:playfairdisplay-blackitalic:97"/><use x="1423" y="1959" xlink:href="#s67:playfairdisplay-blackitalic:168"/><use x="2635" y="1959" xlink:href="#s67:playfairdisplay-blackitalic:151"/><use x="3651" y="1959" xlink:href="#s67:playfairdisplay-blackitalic:1"/><use x="4177" y="1959" xlink:href="#s67:playfairdisplay-blackitalic:24"/><use x="5482" y="1959" xlink:href="#s67:playfairdisplay-blackitalic:232"/><use x="6746" y="1959" xlink:href="#s67:playfairdisplay-blackitalic:216"/><use x="7748" y="1959" xlink:href="#s67:playfairdisplay-blackitalic:202"/><use x="8889" y="1959" xlink:href="#s67:playfairdisplay-blackitalic:213"/><use x="10128" y="1959" xlink:href="#s67:playfairdisplay-blackitalic:151"/><use x="11144" y="1959" xlink:href="#s67:playfairdisplay-blackitalic:129"/><use x="12336" y="1959" xlink:href="#s67:playfairdisplay-blackitalic:195"/><use x="13604" y="1959" xlink:href="#s67:playfairdisplay-blackitalic:1"/><use x="14130" y="1959" xlink:href="#s67:playfairdisplay-blackitalic:188"/><use x="14777" y="1959" xlink:href="#s67:playfairdisplay-blackitalic:129"/><use x="15969" y="1959" xlink:href="#s67:playfairdisplay-blackitalic:195"/><use x="17237" y="1959" xlink:href="#s67:playfairdisplay-blackitalic:162"/><use x="18234" y="1959" xlink:href="#s67:playfairdisplay-blackitalic:232"/><use x="19498" y="1959" xlink:href="#s67:playfairdisplay-blackitalic:129"/><use x="20690" y="1959" xlink:href="#s67:playfairdisplay-blackitalic:162"/><use x="21687" y="1959" xlink:href="#s67:playfairdisplay-blackitalic:151"/><use x="22703" y="1959" xlink:href="#s67:playfairdisplay-blackitalic:220"/><use x="23616" y="1959" xlink:href="#s67:playfairdisplay-blackitalic:1"/><use x="24142" y="1959" xlink:href="#s67:playfairdisplay-blackitalic:129"/><use x="25334" y="1959" xlink:href="#s67:playfairdisplay-blackitalic:216"/><use x="26336" y="1959" xlink:href="#s67:playfairdisplay-blackitalic:151"/><use x="27352" y="1959" xlink:href="#s67:playfairdisplay-blackitalic:1"/><use x="27878" y="1959" xlink:href="#s67:playfairdisplay-blackitalic:194"/><use x="29695" y="1959" xlink:href="#s67:playfairdisplay-blackitalic:151"/><use x="30711" y="1959" xlink:href="#s67:playfairdisplay-blackitalic:194"/><use x="32528" y="1959" xlink:href="#s67:playfairdisplay-blackitalic:140"/><use x="33706" y="1959" xlink:href="#s67:playfairdisplay-blackitalic:151"/><use x="34722" y="1959" xlink:href="#s67:playfairdisplay-blackitalic:216"/><use x="35744" y="1959" xlink:href="#s67:playfairdisplay-blackitalic:220"/><use x="36657" y="1959" xlink:href="#s67:playfairdisplay-blackitalic:1"/><use x="37183" y="1959" xlink:href="#s67:playfairdisplay-blackitalic:202"/><use x="38324" y="1959" xlink:href="#s67:playfairdisplay-blackitalic:161"/><use x="39051" y="1959" xlink:href="#s67:playfairdisplay-blackitalic:1"/><use x="39577" y="1959" xlink:href="#s67:playfairdisplay-blackitalic:227"/><use x="40325" y="1959" xlink:href="#s67:playfairdisplay-blackitalic:168"/><use x="41537" y="1959" xlink:href="#s67:playfairdisplay-blackitalic:151"/><use x="42553" y="1959" xlink:href="#s67:playfairdisplay-blackitalic:1"/><use x="43079" y="1959" xlink:href="#s67:playfairdisplay-blackitalic:220"/><use x="43992" y="1959" xlink:href="#s67:playfairdisplay-blackitalic:129"/><use x="45184" y="1959" xlink:href="#s67:playfairdisplay-blackitalic:194"/><use x="47001" y="1959" xlink:href="#s67:playfairdisplay-blackitalic:151"/><use x="48017" y="1959" xlink:href="#s67:playfairdisplay-blackitalic:1"/><use x="48543" y="1959" xlink:href="#s67:playfairdisplay-blackitalic:161"/><use x="49270" y="1959" xlink:href="#s67:playfairdisplay-blackitalic:129"/><use x="50462" y="1959" xlink:href="#s67:playfairdisplay-blackitalic:194"/><use x="52279" y="1959" xlink:href="#s67:playfairdisplay-blackitalic:171"/><use x="52967" y="1959" xlink:href="#s67:playfairdisplay-blackitalic:188"/><use x="53614" y="1959" xlink:href="#s67:playfairdisplay-blackitalic:250"/><use x="54603" y="1959" xlink:href="#s67:playfairdisplay-blackitalic:648"/></g><g id="line-1"><use x="10934.5" y="4416.6" xlink:href="#s67:playfairdisplay-blackitalic:97"/><use x="12357.5" y="4416.6" xlink:href="#s67:playfairdisplay-blackitalic:168"/><use x="13569.5" y="4416.6" xlink:href="#s67:playfairdisplay-blackitalic:151"/><use x="14585.5" y="4416.6" xlink:href="#s67:playfairdisplay-blackitalic:171"/><use x="15273.5" y="4416.6" xlink:href="#s67:playfairdisplay-blackitalic:216"/><use x="16295.5" y="4416.6" xlink:href="#s67:playfairdisplay-blackitalic:1"/><use x="16821.5" y="4416.6" xlink:href="#s67:playfairdisplay-blackitalic:220"/><use x="17734.5" y="4416.6" xlink:href="#s67:playfairdisplay-blackitalic:151"/><use x="18750.5" y="4416.6" xlink:href="#s67:playfairdisplay-blackitalic:213"/><use x="19989.5" y="4416.6" xlink:href="#s67:playfairdisplay-blackitalic:129"/><use x="21181.5" y="4416.6" xlink:href="#s67:playfairdisplay-blackitalic:216"/><use x="22183.5" y="4416.6" xlink:href="#s67:playfairdisplay-blackitalic:129"/><use x="23375.5" y="4416.6" xlink:href="#s67:playfairdisplay-blackitalic:227"/><use x="24123.5" y="4416.6" xlink:href="#s67:playfairdisplay-blackitalic:151"/><use x="25139.5" y="4416.6" xlink:href="#s67:playfairdisplay-blackitalic:1"/><use x="25665.5" y="4416.6" xlink:href="#s67:playfairdisplay-blackitalic:151"/><use x="26681.5" y="4416.6" xlink:href="#s67:playfairdisplay-blackitalic:249"/><use x="27891.5" y="4416.6" xlink:href="#s67:playfairdisplay-blackitalic:171"/><use x="28579.5" y="4416.6" xlink:href="#s67:playfairdisplay-blackitalic:220"/><use x="29492.5" y="4416.6" xlink:href="#s67:playfairdisplay-blackitalic:227"/><use x="30240.5" y="4416.6" xlink:href="#s67:playfairdisplay-blackitalic:151"/><use x="31256.5" y="4416.6" xlink:href="#s67:playfairdisplay-blackitalic:195"/><use x="32524.5" y="4416.6" xlink:href="#s67:playfairdisplay-blackitalic:141"/><use x="33515.5" y="4416.6" xlink:href="#s67:playfairdisplay-blackitalic:151"/><use x="34531.5" y="4416.6" xlink:href="#s67:playfairdisplay-blackitalic:1"/><use x="35057.5" y="4416.6" xlink:href="#s67:playfairdisplay-blackitalic:171"/><use x="35745.5" y="4416.6" xlink:href="#s67:playfairdisplay-blackitalic:220"/><use x="36658.5" y="4416.6" xlink:href="#s67:playfairdisplay-blackitalic:1"/><use x="37184.5" y="4416.6" xlink:href="#s67:playfairdisplay-blackitalic:129"/><use x="38376.5" y="4416.6" xlink:href="#s67:playfairdisplay-blackitalic:1"/><use x="38902.5" y="4416.6" xlink:href="#s67:playfairdisplay-blackitalic:194"/><use x="40719.5" y="4416.6" xlink:href="#s67:playfairdisplay-blackitalic:250"/><use x="41708.5" y="4416.6" xlink:href="#s67:playfairdisplay-blackitalic:227"/><use x="42456.5" y="4416.6" xlink:href="#s67:playfairdisplay-blackitalic:168"/><use x="43668.5" y="4416.6" xlink:href="#s67:playfairdisplay-blackitalic:648"/></g><g id="line-2"><use x="13470.5" y="6874.2" xlink:href="#s67:playfairdisplay-blackitalic:34"/><use x="14582.5" y="6874.2" xlink:href="#s67:playfairdisplay-blackitalic:202"/><use x="15723.5" y="6874.2" xlink:href="#s67:playfairdisplay-blackitalic:216"/><use x="16745.5" y="6874.2" xlink:href="#s67:playfairdisplay-blackitalic:1"/><use x="17271.5" y="6874.2" xlink:href="#s67:playfairdisplay-blackitalic:220"/><use x="18184.5" y="6874.2" xlink:href="#s67:playfairdisplay-blackitalic:141"/><use x="19175.5" y="6874.2" xlink:href="#s67:playfairdisplay-blackitalic:171"/><use x="19863.5" y="6874.2" xlink:href="#s67:playfairdisplay-blackitalic:151"/><use x="20879.5" y="6874.2" xlink:href="#s67:playfairdisplay-blackitalic:195"/><use x="22147.5" y="6874.2" xlink:href="#s67:playfairdisplay-blackitalic:141"/><use x="23138.5" y="6874.2" xlink:href="#s67:playfairdisplay-blackitalic:151"/><use x="24154.5" y="6874.2" xlink:href="#s67:playfairdisplay-blackitalic:643"/><use x="24789.5" y="6874.2" xlink:href="#s67:playfairdisplay-blackitalic:1"/><use x="25315.5" y="6874.2" xlink:href="#s67:playfairdisplay-blackitalic:194"/><use x="27132.5" y="6874.2" xlink:href="#s67:playfairdisplay-blackitalic:232"/><use x="28396.5" y="6874.2" xlink:href="#s67:playfairdisplay-blackitalic:220"/><use x="29309.5" y="6874.2" xlink:href="#s67:playfairdisplay-blackitalic:171"/><use x="29997.5" y="6874.2" xlink:href="#s67:playfairdisplay-blackitalic:141"/><use x="30988.5" y="6874.2" xlink:href="#s67:playfairdisplay-blackitalic:643"/><use x="31623.5" y="6874.2" xlink:href="#s67:playfairdisplay-blackitalic:1"/><use x="32149.5" y="6874.2" xlink:href="#s67:playfairdisplay-blackitalic:220"/><use x="33062.5" y="6874.2" xlink:href="#s67:playfairdisplay-blackitalic:213"/><use x="34301.5" y="6874.2" xlink:href="#s67:playfairdisplay-blackitalic:202"/><use x="35442.5" y="6874.2" xlink:href="#s67:playfairdisplay-blackitalic:216"/><use x="36464.5" y="6874.2" xlink:href="#s67:playfairdisplay-blackitalic:227"/><use x="37212.5" y="6874.2" xlink:href="#s67:playfairdisplay-blackitalic:643"/><use x="37847.5" y="6874.2" xlink:href="#s67:playfairdisplay-blackitalic:1"/><use x="38373.5" y="6874.2" xlink:href="#s67:playfairdisplay-blackitalic:151"/><use x="39389.5" y="6874.2" xlink:href="#s67:playfairdisplay-blackitalic:227"/><use x="40137.5" y="6874.2" xlink:href="#s67:playfairdisplay-blackitalic:141"/><use x="41128.5" y="6874.2" xlink:href="#s67:playfairdisplay-blackitalic:643"/></g></svg>