<svg xmlns="http://www.w3.org/2000/svg" xmlns:xlink="http://www.w3.org/1999/xlink" width="619" height="87" viewBox="0 0 52813 7388.2"><defs><path id="s69:playfairdisplay-bolditalic:97" d="M837-1394Q682-1409 592-1409Q422-1409 360-1374Q414-1359 448.50-1314Q483-1269 483-1208Q483-1161 462.50-1121.50Q442-1082 406-1059Q370-1036 324-1036Q255-1036 215.50-1082.50Q176-1129 176-1198Q176-1255 207.50-1309Q239-1363 309-1397Q410-1446 584-1446Q671-1446 756-1440Q841-1434 1014.50-1417.50Q1188-1401 1292-1401Q1429-1401 1509-1428Q1478-1457 1458-1498.50Q1438-1540 1438-1589Q1438-1664 1482-1710.50Q1526-1757 1599-1757Q1648-1757 1683.50-1737Q1719-1717 1738-1684.50Q1757-1652 1757-1614Q1757-1488 1616-1419Q1492-1360 1274-1360Q1222-1360 1154-1364L854-238Q839-181 839-144Q839-107 855.50-85.50Q872-64 908.50-54Q945-44 1008-41L999 0Q870-6 621-6Q377-6 260 0L268-41Q356-44 404-62Q452-80 479.50-120Q507-160 528-238L837-1394Z"/><path id="s69:playfairdisplay-bolditalic:168" d="M1024-182Q952 29 750 29Q563 29 563-138Q563-207 594-297L776-850Q795-907 795-940Q795-985 756-985Q698-985 619.50-878.50Q541-772 459.50-592Q378-412 310-199L259-26L258-20L258-21L252 0L-37 0L369-1366Q379-1403 379-1423Q379-1464 347-1482.50Q315-1501 240-1501L252-1544Q519-1547 729-1628L450-677Q522-833 590.50-922.50Q659-1012 730-1049.50Q801-1087 887-1087Q983-1087 1027.50-1043Q1072-999 1072-923Q1072-857 1044-778L844-174Q832-137 832-115Q832-72 872-72Q941-72 999-233L1036-332L1075-332L1024-182Z"/><path id="s69:playfairdisplay-bolditalic:151" d="M803-246Q756-173 685.50-110.50Q615-48 523.50-9.50Q432 29 328 29Q235 29 162-4Q89-37 47.50-102.50Q6-168 6-260Q6-442 104.50-636Q203-830 373-958.50Q543-1087 745-1087Q840-1087 899-1045.50Q958-1004 958-926Q958-809 863-711Q768-613 624.50-543.50Q481-474 325-433Q313-359 313-293Q313-185 353.50-139.50Q394-94 471-94Q535-94 615.50-134.50Q696-175 770-262L803-246M700-1049Q639-1049 564-965Q489-881 425-747Q361-613 332-471Q475-534 557-608Q639-682 686-777Q733-872 733-981Q733-1019 725-1034Q717-1049 700-1049Z"/><path id="s69:playfairdisplay-bolditalic:1" d=""/><path id="s69:playfairdisplay-bolditalic:24" d="M293-1450Q516-1444 958-1444Q1249-1444 1374-1450Q1320-1303 1296-1208Q1285-1162 1270-1081L1225-1081Q1228-1120 1228-1154Q1228-1247 1205.50-1301Q1183-1355 1133.50-1379Q1084-1403 999-1403L936-1403Q864-1403 828-1391Q792-1379 770.50-1344.50Q749-1310 729-1233L601-750L676-750Q778-750 847-821.50Q916-893 956-995L1004-995Q980-925 966.50-877Q953-829 943-788.50Q933-748 928-729Q903-638 868-463L823-463Q825-491 825-507Q825-709 653-709L590-709L459-217Q440-149 440-117Q440-88 453.50-73Q467-58 495.50-52.50Q524-47 575-47L651-47Q763-47 838.50-81.50Q914-116 973.50-193.50Q1033-271 1094-410L1141-410Q1119-356 1096-262Q1064-154 1042 0Q903-6 578-6Q135-6-88 0L-78-41Q-4-44 32-57Q68-70 90-105Q112-140 133-217L403-1233Q420-1298 420-1332Q420-1362 406.50-1378Q393-1394 364.50-1400.50Q336-1407 283-1409L293-1450Z"/><path id="s69:playfairdisplay-bolditalic:232" d="M1137-338L1081-182Q1043-69 970.50-20Q898 29 807 29Q753 29 713.50 10.50Q674-8 655-41Q636-76 636-125Q636-176 657-258L711-467Q632-274 558.50-166Q485-58 409-14.50Q333 29 240 29Q148 29 101.50-14.50Q55-58 55-139Q55-200 82-281L281-885Q293-923 293-944Q293-987 254-987Q221-987 190-952.50Q159-918 125-825L88-727L49-727L100-877Q173-1087 375-1087Q562-1087 562-918Q562-855 532-762L348-209Q330-154 330-122Q330-74 369-74Q429-74 512.50-193Q596-312 681-509.50Q766-707 832-934L864-1059Q1045-1062 1161-1087L905-174Q892-127 892-106Q892-72 928-72Q966-72 997-108.50Q1028-145 1059-233L1098-338L1137-338Z"/><path id="s69:playfairdisplay-bolditalic:216" d="M508-730Q560-864 611.50-942Q663-1020 721-1053.50Q779-1087 854-1087Q932-1087 976-1041Q1020-995 1020-922Q1020-865 994.50-816Q969-767 924-738Q879-709 825-709Q765-709 732.50-740.50Q700-772 700-831Q700-879 722.50-922Q745-965 784-995Q823-1025 870-1036Q846-1042 844-1042Q736-1042 627.50-887Q519-732 404-331L319 0L31 0L281-885Q292-926 292-947Q292-987 258-987Q220-987 189-950.50Q158-914 125-825L86-721L47-721L102-877Q178-1087 385-1087Q542-1087 542-922Q542-865 526-801L508-730Z"/><path id="s69:playfairdisplay-bolditalic:202" d="M25-309Q25-478 101.50-659.50Q178-841 328.50-964Q479-1087 688-1087Q848-1087 934-1001Q1020-915 1020-750Q1020-581 943.50-399.50Q867-218 716-94.50Q565 29 356 29Q197 29 111-57.50Q25-144 25-309M678-1047Q601-1047 511.50-901.50Q422-756 360.50-544.50Q299-333 299-152Q299-78 316-45Q333-12 369-12Q444-12 533-153.50Q622-295 683.50-504.50Q745-714 745-903Q745-984 728.50-1015.50Q712-1047 678-1047Z"/><path id="s69:playfairdisplay-bolditalic:213" d="M546-781Q621-940 702-1013.50Q783-1087 879-1087Q1003-1087 1068-1006.50Q1133-926 1133-772Q1133-605 1058-417Q983-229 843-100Q703 29 520 29Q463 29 414.50 10Q366-9 336-42L281 154Q269 197 269 227Q269 283 310 304.50Q351 326 438 328L426 371Q399 370 299.50 366Q200 362 102 362Q18 362-73 366Q-164 370-186 371L-174 328Q-124 328-94.50 316.50Q-65 305-46.50 277.50Q-28 250-14 201L357-1129Q300-1002 225-900.50Q150-799 45-690L23-717Q112-812 171-885.50Q230-959 290.50-1064.50Q351-1170 410-1321L418-1348Q587-1360 723-1405L546-781M347-78Q383-31 440-31Q537-31 628.50-155Q720-279 777-462.50Q834-646 834-809Q834-904 816.50-941.50Q799-979 766-979Q725-979 675.50-924.50Q626-870 576-775.50Q526-681 484-562L347-78Z"/><path id="s69:playfairdisplay-bolditalic:129" d="M1053-332L1001-182Q961-67 888-19Q815 29 731 29Q624 29 580-35Q552-76 552-139Q552-187 570-261Q440 29 227 29Q114 29 56-37.50Q-2-104-2-223Q-2-405 95.50-609Q193-813 342.50-950Q492-1087 635-1087Q690-1087 724-1054.50Q758-1022 765-956L793-1057Q956-1060 1090-1087L821-174Q811-139 811-118Q811-72 850-72Q922-72 977-233L1014-332L1053-332M741-873Q743-885 743-908Q743-958 725-985Q707-1012 674-1012Q604-1012 515-886.50Q426-761 363.50-573Q301-385 301-209Q301-141 314.50-111.50Q328-82 358-82Q402-82 457-144Q512-206 566-324.50Q620-443 662-604L652-554L741-873Z"/><path id="s69:playfairdisplay-bolditalic:195" d="M1094-182Q1020 29 819 29Q704 29 655-39Q629-79 629-134Q629-196 662-297L846-850Q865-909 865-938Q865-985 825-985Q764-985 677-861Q590-737 502-534Q414-331 349-106L322 0L33 0L281-885Q293-928 293-950Q293-987 258-987Q220-987 190-951Q160-915 127-825L88-721L49-721L104-877Q143-989 209-1038Q275-1087 369-1087Q545-1087 545-919Q545-867 528-801L464-552Q548-760 625-876.50Q702-993 780.50-1040Q859-1087 956-1087Q1141-1087 1141-923Q1141-861 1114-778L913-174Q901-141 901-114Q901-72 940-72Q973-72 1004-106Q1035-140 1069-233L1106-332L1145-332L1094-182Z"/><path id="s69:playfairdisplay-bolditalic:188" d="M291-174Q282-143 282-122Q282-72 326-72Q389-72 449-233L485-332L524-332L473-182Q434-67 360.50-19Q287 29 201 29Q107 29 61-19Q15-67 15-154Q15-218 39-297L360-1366Q370-1403 370-1424Q370-1464 338-1482.50Q306-1501 231-1501L246-1544Q387-1545 500-1566Q613-1587 721-1628L291-174Z"/><path id="s69:playfairdisplay-bolditalic:162" d="M162-25Q107-41 73-75Q39-109 39-156Q39-207 79-251.50Q119-296 196.50-340Q274-384 404-440Q260-443 175-500.50Q90-558 90-672Q90-765 151-861Q212-957 331-1021Q450-1085 614-1085Q666-1085 711-1078Q798-1248 874-1309Q934-1356 1006-1356Q1064-1356 1098.50-1327Q1133-1298 1133-1243Q1133-1199 1111-1158.50Q1089-1118 1052-1092.50Q1015-1067 971-1067Q927-1067 900.50-1093Q874-1119 874-1161Q874-1193 892-1227.50Q910-1262 944-1290Q937-1294 929-1294Q909-1294 889-1278Q859-1253 819-1195Q779-1137 749-1071Q841-1050 892.50-996Q944-942 944-854Q944-760 887-670.50Q830-581 725.50-519Q621-457 485-443Q388-401 337.50-369.50Q287-338 287-309Q287-291 309-278Q331-265 379-250L551-193Q660-157 722-107.50Q784-58 784 23Q784 127 694 211Q604 295 459 343Q314 391 158 391Q41 391-42 371.50Q-125 352-168 316.50Q-211 281-211 233Q-211 165-146.50 126Q-82 87 35 45.50Q152 4 198-15L162-25M446-477Q518-477 567-544Q616-611 639.50-712.50Q663-814 664-920Q664-982 646-1015.50Q628-1049 584-1049Q514-1049 465-976.50Q416-904 391.50-800Q367-696 367-604Q367-534 386-505.50Q405-477 446-477M232-5Q78 124 78 260Q78 356 197 356Q277 356 362 327.50Q447 299 503 248.50Q559 198 559 137Q559 114 544 100Q529 86 509 78.50Q489 71 438 55L232-5Z"/><path id="s69:playfairdisplay-bolditalic:220" d="M152-29Q182-14 231-14Q308-14 355.50-61Q403-108 403-190Q403-255 375-324.50Q347-394 289-483Q281-495 241-556.50Q201-618 181.50-674.50Q162-731 162-786Q162-874 206.50-942Q251-1010 335-1048.50Q419-1087 535-1087Q667-1087 756.50-1038.50Q846-990 846-874Q846-839 832-804Q818-769 789.50-746Q761-723 721-723Q670-723 639-761.50Q608-800 608-860Q608-910 626.50-954.50Q645-999 672-1030Q643-1047 600-1047Q526-1047 483.50-1001Q441-955 440-872Q440-819 461.50-772.50Q483-726 515-676.50Q547-627 563-602Q628-494 656-424.50Q684-355 684-285Q684-195 637-124Q590-53 502.50-12Q415 29 299 29Q153 29 57-27.50Q-39-84-39-209Q-39-270-8.50-313Q22-356 76-356Q130-356 161.50-311Q193-266 193-197Q193-156 183-120Q173-84 163.50-59.50Q154-35 152-29Z"/><path id="s69:playfairdisplay-bolditalic:194" d="M1610-182Q1536 29 1333 29Q1215 29 1169-45Q1147-82 1147-136Q1147-201 1178-297L1362-850Q1378-901 1378-932Q1378-973 1350-973Q1295-973 1224-885.50Q1153-798 1072-620.50Q991-443 911-184L911-189L858 0L565 0L815-850Q833-908 833-934Q833-973 799-973Q738-973 664-875.50Q590-778 515-604Q440-430 373-205L373-210L319 0L31 0L281-885Q291-920 291-943Q291-987 254-987Q218-987 187.50-949Q157-911 125-825L86-721L47-721L102-877Q178-1087 379-1087Q544-1087 544-923Q544-866 526-801L479-621Q547-790 615.50-892Q684-994 762.50-1040.50Q841-1087 940-1087Q1102-1087 1102-928Q1102-868 1077-778L1040-647Q1110-813 1180.50-909.50Q1251-1006 1326-1046.50Q1401-1087 1491-1087Q1658-1087 1658-927Q1658-862 1630-778L1430-174Q1417-136 1417-113Q1417-72 1456-72Q1527-72 1585-233L1622-332L1661-332L1610-182Z"/><path id="s69:playfairdisplay-bolditalic:140" d="M482-796Q556-948 634.50-1017.50Q713-1087 807-1087Q931-1087 996-1006.50Q1061-926 1061-772Q1061-605 982.50-417Q904-229 758.50-100Q613 29 424 29Q366 29 320 5.50Q274-18 250-58Q150-49-18 33L-49 18Q-21-38-6-102L365-1366Q374-1398 374-1422Q374-1463 342.50-1482Q311-1501 236-1501L248-1544Q388-1545 501.50-1566Q615-1587 721-1628L482-796M275-76Q311-31 367-31Q463-31 555-162.50Q647-294 704.50-485Q762-676 762-838Q762-914 744.50-946.50Q727-979 692-979Q636-979 564.50-877.50Q493-776 429-614L275-76Z"/><path id="s69:playfairdisplay-bolditalic:161" d="M294-1053Q338-1221 396-1331.50Q454-1442 532-1507Q648-1602 821-1602Q905-1602 966-1577.50Q1027-1553 1059.50-1508.50Q1092-1464 1092-1405Q1092-1362 1068-1321Q1044-1280 1000.50-1253.50Q957-1227 903-1227Q842-1227 807-1255.50Q772-1284 772-1337Q772-1404 814.50-1458Q857-1512 930-1538Q920-1549 901-1557Q882-1565 860-1565Q800-1565 752-1524Q715-1492 689-1421.50Q663-1351 627-1217L583-1053L803-1053L791-1012L572-1012L205 356Q39 359-92 385L283-1012L113-1012L125-1053L294-1053Z"/><path id="s69:playfairdisplay-bolditalic:227" d="M336-174Q330-152 330-133Q330-72 391-72Q436-72 478-116Q520-160 553-248L584-332L623-332L582-213Q500 29 274 29Q170 29 117.50-25.50Q65-80 65-174Q65-227 84-297L290-1012L104-1012L115-1053L302-1053L391-1364Q568-1367 688-1393L590-1053L821-1053L815-1012L578-1012L336-174Z"/><path id="s69:playfairdisplay-bolditalic:171" d="M362-1389Q362-1450 389.50-1493.50Q417-1537 464.50-1560Q512-1583 571-1583Q644-1583 683.50-1549.50Q723-1516 723-1456Q723-1402 694.50-1359Q666-1316 617.50-1292Q569-1268 510-1268Q440-1268 401-1300.50Q362-1333 362-1389M285-885Q298-921 298-947Q298-987 262-987Q225-987 194-949.50Q163-912 131-825L90-721L51-721L109-877Q183-1087 393-1087Q488-1087 531-1041.50Q574-996 574-922Q574-865 551-801L336-174Q324-138 324-115Q324-72 365-72Q396-72 427-106.50Q458-141 494-233L530-332L569-332L516-182Q444 29 240 29Q54 29 54-140Q54-209 84-297L285-885Z"/><path id="s69:playfairdisplay-bolditalic:250" d="M624-165Q711-292 776.50-426Q842-560 874-684Q791-730 737-799Q683-868 686-948Q686-1012 723-1049.50Q760-1087 823-1087Q958-1087 958-901Q958-778 902-618Q846-458 753.50-297Q661-136 555-8Q451 117 325.50 213Q200 309 66 354Q-15 385-80 385Q-146 385-183.50 354.50Q-221 324-221 270Q-221 216-181.50 179.50Q-142 143-80 143Q41 143 139 285Q282 215 406 96L246-883Q234-939 223.50-959Q213-979 193-979Q170-979 149-948.50Q128-918 96-827L59-727L20-727L72-877Q112-993 175-1040Q238-1087 324-1087Q411-1087 460-1038.50Q509-990 528-866L624-165Z"/><path id="s69:playfairdisplay-bolditalic:648" d="M-2-95Q-2-149 24.50-193Q51-237 97-262Q143-287 197-287Q261-287 297.50-254.50Q334-222 334-165Q334-115 307.50-70Q281-25 235 2Q189 29 135 29Q70 29 34-4Q-2-37-2-95Z"/><path id="s69:playfairdisplay-bolditalic:249" d="M685-750Q742-875 811-963Q909-1087 1036-1087Q1102-1087 1144-1051Q1186-1015 1186-952Q1186-889 1142.50-847Q1099-805 1032-805Q971-805 922.50-839Q874-873 850-942Q762-841 694-669L750-172Q759-120 775.50-99Q792-78 819-78Q851-78 880.50-115Q910-152 944-254L971-330L1010-330L958-180Q890 29 684 29Q587 29 527.50-17Q468-63 457-172L438-336Q374-193 293-96Q184 29 66 29Q-5 29-44.50-5.50Q-84-40-84-100Q-84-145-63-180Q-42-215-6.50-234.50Q29-254 72-254Q192-254 250-117Q352-233 429-418L375-887Q368-935 350-954Q332-973 303-973Q272-973 243.50-939Q215-905 180-805L154-729L115-729L166-879Q206-998 280-1042.50Q354-1087 449-1087Q550-1087 604-1039.50Q658-992 672-870L685-750Z"/><path id="s69:playfairdisplay-bolditalic:141" d="M791-246Q717-128 603.50-49.50Q490 29 344 29Q247 29 173-6Q99-41 57.50-111.50Q16-182 16-287Q16-462 104.50-649.50Q193-837 353-962Q513-1087 715-1087Q789-1087 846-1061Q903-1035 934-990.50Q965-946 965-891Q965-835 938-782.50Q911-730 864-697Q817-664 762-664Q711-664 678-696Q645-728 645-782Q645-835 671-882Q697-929 739.50-961Q782-993 831-1006Q796-1047 733-1047Q633-1047 538-937Q443-827 383.50-650.50Q324-474 324-287Q324-82 479-82Q625-82 750-262L791-246Z"/><path id="s69:playfairdisplay-bolditalic:34" d="M293-1450Q516-1444 958-1444Q1249-1444 1374-1450Q1331-1333 1294-1200Q1261-1070 1251-1020L1204-1020Q1212-1095 1212-1146Q1212-1241 1187-1297Q1162-1353 1109.50-1378Q1057-1403 971-1403L924-1403Q857-1403 823-1391Q789-1379 768.50-1344.50Q748-1310 729-1233L598-741L692-741Q792-741 859-809Q926-877 973-987L1018-987Q986-886 967-815.50Q948-745 942-721Q918-616 879-418L834-418Q835-432 835-460Q835-578 799.50-639Q764-700 670-700L587-700L459-217Q443-156 443-126Q443-92 460-74.50Q477-57 513.50-50Q550-43 618-41L610 0Q484-6 246-6Q20-6-88 0L-78-41Q-4-44 32-57Q68-70 90-105Q112-140 133-217L403-1233Q420-1298 420-1332Q420-1362 406.50-1378Q393-1394 364.50-1400.50Q336-1407 283-1409L293-1450Z"/><path id="s69:playfairdisplay-bolditalic:643" d="M27 246Q120 199 181 126Q242 53 248-31Q191 29 121 29Q59 29 26.50 0.50Q-6-28-6-82Q-6-137 23-184Q52-231 101-259Q150-287 207-287Q273-287 307.50-249.50Q342-212 342-139Q342-10 260.50 102.50Q179 215 37 279L27 246Z"/></defs><g id="line-0"><use x="0" y="1959" xlink:href="#s69:playfairdisplay-bolditalic:97"/><use x="1395" y="1959" xlink:href="#s69:playfairdisplay-bolditalic:168"/><use x="2562" y="1959" xlink:href="#s69:playfairdisplay-bolditalic:151"/><use x="3523" y="1959" xlink:href="#s69:playfairdisplay-bolditalic:1"/><use x="4045" y="1959" xlink:href="#s69:playfairdisplay-bolditalic:24"/><use x="5327" y="1959" xlink:href="#s69:playfairdisplay-bolditalic:232"/><use x="6550" y="1959" xlink:href="#s69:playfairdisplay-bolditalic:216"/><use x="7484" y="1959" xlink:href="#s69:playfairdisplay-bolditalic:202"/><use x="8567" y="1959" xlink:href="#s69:playfairdisplay-bolditalic:213"/><use x="9761" y="1959" xlink:href="#s69:playfairdisplay-bolditalic:151"/><use x="10722" y="1959" xlink:href="#s69:playfairdisplay-bolditalic:129"/><use x="11865" y="1959" xlink:href="#s69:playfairdisplay-bolditalic:195"/><use x="13100" y="1959" xlink:href="#s69:playfairdisplay-bolditalic:1"/><use x="13622" y="1959" xlink:href="#s69:playfairdisplay-bolditalic:188"/><use x="14236" y="1959" xlink:href="#s69:playfairdisplay-bolditalic:129"/><use x="15379" y="1959" xlink:href="#s69:playfairdisplay-bolditalic:195"/><use x="16614" y="1959" xlink:href="#s69:playfairdisplay-bolditalic:162"/><use x="17581" y="1959" xlink:href="#s69:playfairdisplay-bolditalic:232"/><use x="18804" y="1959" xlink:href="#s69:playfairdisplay-bolditalic:129"/><use x="19947" y="1959" xlink:href="#s69:playfairdisplay-bolditalic:162"/><use x="20914" y="1959" xlink:href="#s69:playfairdisplay-bolditalic:151"/><use x="21875" y="1959" xlink:href="#s69:playfairdisplay-bolditalic:220"/><use x="22735" y="1959" xlink:href="#s69:playfairdisplay-bolditalic:1"/><use x="23257" y="1959" xlink:href="#s69:playfairdisplay-bolditalic:129"/><use x="24400" y="1959" xlink:href="#s69:playfairdisplay-bolditalic:216"/><use x="25334" y="1959" xlink:href="#s69:playfairdisplay-bolditalic:151"/><use x="26295" y="1959" xlink:href="#s69:playfairdisplay-bolditalic:1"/><use x="26817" y="1959" xlink:href="#s69:playfairdisplay-bolditalic:194"/><use x="28570" y="1959" xlink:href="#s69:playfairdisplay-bolditalic:151"/><use x="29531" y="1959" xlink:href="#s69:playfairdisplay-bolditalic:194"/><use x="31284" y="1959" xlink:href="#s69:playfairdisplay-bolditalic:140"/><use x="32404" y="1959" xlink:href="#s69:playfairdisplay-bolditalic:151"/><use x="33365" y="1959" xlink:href="#s69:playfairdisplay-bolditalic:216"/><use x="34328" y="1959" xlink:href="#s69:playfairdisplay-bolditalic:220"/><use x="35188" y="1959" xlink:href="#s69:playfairdisplay-bolditalic:1"/><use x="35710" y="1959" xlink:href="#s69:playfairdisplay-bolditalic:202"/><use x="36793" y="1959" xlink:href="#s69:playfairdisplay-bolditalic:161"/><use x="37491" y="1959" xlink:href="#s69:playfairdisplay-bolditalic:1"/><use x="38013" y="1959" xlink:href="#s69:playfairdisplay-bolditalic:227"/><use x="38736" y="1959" xlink:href="#s69:playfairdisplay-bolditalic:168"/><use x="39903" y="1959" xlink:href="#s69:playfairdisplay-bolditalic:151"/><use x="40864" y="1959" xlink:href="#s69:playfairdisplay-bolditalic:1"/><use x="41386" y="1959" xlink:href="#s69:playfairdisplay-bolditalic:220"/><use x="42246" y="1959" xlink:href="#s69:playfairdisplay-bolditalic:129"/><use x="43389" y="1959" xlink:href="#s69:playfairdisplay-bolditalic:194"/><use x="45142" y="1959" xlink:href="#s69:playfairdisplay-bolditalic:151"/><use x="46103" y="1959" xlink:href="#s69:playfairdisplay-bolditalic:1"/><use x="46625" y="1959" xlink:href="#s69:playfairdisplay-bolditalic:161"/><use x="47323" y="1959" xlink:href="#s69:playfairdisplay-bolditalic:129"/><use x="48466" y="1959" xlink:href="#s69:playfairdisplay-bolditalic:194"/><use x="50219" y="1959" xlink:href="#s69:playfairdisplay-bolditalic:171"/><use x="50878" y="1959" xlink:href="#s69:playfairdisplay-bolditalic:188"/><use x="51492" y="1959" xlink:href="#s69:playfairdisplay-bolditalic:250"/><use x="52479" y="1959" xlink:href="#s69:playfairdisplay-bolditalic:648"/></g><g id="line-1"><use x="10524" y="4416.6" xlink:href="#s69:playfairdisplay-bolditalic:97"/><use x="11919" y="4416.6" xlink:href="#s69:playfairdisplay-bolditalic:168"/><use x="13086" y="4416.6" xlink:href="#s69:playfairdisplay-bolditalic:151"/><use x="14047" y="4416.6" xlink:href="#s69:playfairdisplay-bolditalic:171"/><use x="14706" y="4416.6" xlink:href="#s69:playfairdisplay-bolditalic:216"/><use x="15669" y="4416.6" xlink:href="#s69:playfairdisplay-bolditalic:1"/><use x="16191" y="4416.6" xlink:href="#s69:playfairdisplay-bolditalic:220"/><use x="17051" y="4416.6" xlink:href="#s69:playfairdisplay-bolditalic:151"/><use x="18012" y="4416.6" xlink:href="#s69:playfairdisplay-bolditalic:213"/><use x="19206" y="4416.6" xlink:href="#s69:playfairdisplay-bolditalic:129"/><use x="20349" y="4416.6" xlink:href="#s69:playfairdisplay-bolditalic:216"/><use x="21283" y="4416.6" xlink:href="#s69:playfairdisplay-bolditalic:129"/><use x="22426" y="4416.6" xlink:href="#s69:playfairdisplay-bolditalic:227"/><use x="23149" y="4416.6" xlink:href="#s69:playfairdisplay-bolditalic:151"/><use x="24110" y="4416.6" xlink:href="#s69:playfairdisplay-bolditalic:1"/><use x="24632" y="4416.6" xlink:href="#s69:playfairdisplay-bolditalic:151"/><use x="25593" y="4416.6" xlink:href="#s69:playfairdisplay-bolditalic:249"/><use x="26750" y="4416.6" xlink:href="#s69:playfairdisplay-bolditalic:171"/><use x="27409" y="4416.6" xlink:href="#s69:playfairdisplay-bolditalic:220"/><use x="28269" y="4416.6" xlink:href="#s69:playfairdisplay-bolditalic:227"/><use x="28992" y="4416.6" xlink:href="#s69:playfairdisplay-bolditalic:151"/><use x="29953" y="4416.6" xlink:href="#s69:playfairdisplay-bolditalic:195"/><use x="31188" y="4416.6" xlink:href="#s69:playfairdisplay-bolditalic:141"/><use x="32136" y="4416.6" xlink:href="#s69:playfairdisplay-bolditalic:151"/><use x="33097" y="4416.6" xlink:href="#s69:playfairdisplay-bolditalic:1"/><use x="33619" y="4416.6" xlink:href="#s69:playfairdisplay-bolditalic:171"/><use x="34278" y="4416.6" xlink:href="#s69:playfairdisplay-bolditalic:220"/><use x="35138" y="4416.6" xlink:href="#s69:playfairdisplay-bolditalic:1"/><use x="35660" y="4416.6" xlink:href="#s69:playfairdisplay-bolditalic:129"/><use x="36803" y="4416.6" xlink:href="#s69:playfairdisplay-bolditalic:1"/><use x="37325" y="4416.6" xlink:href="#s69:playfairdisplay-bolditalic:194"/><use x="39078" y="4416.6" xlink:href="#s69:playfairdisplay-bolditalic:250"/><use x="40065" y="4416.6" xlink:href="#s69:playfairdisplay-bolditalic:227"/><use x="40788" y="4416.6" xlink:href="#s69:playfairdisplay-bolditalic:168"/><use x="41955" y="4416.6" xlink:href="#s69:playfairdisplay-bolditalic:648"/></g><g id="line-2"><use x="13004" y="6874.2" xlink:href="#s69:playfairdisplay-bolditalic:34"/><use x="14099" y="6874.2" xlink:href="#s69:playfairdisplay-bolditalic:202"/><use x="15182" y="6874.2" xlink:href="#s69:playfairdisplay-bolditalic:216"/><use x="16145" y="6874.2" xlink:href="#s69:playfairdisplay-bolditalic:1"/><use x="16667" y="6874.2" xlink:href="#s69:playfairdisplay-bolditalic:220"/><use x="17527" y="6874.2" xlink:href="#s69:playfairdisplay-bolditalic:141"/><use x="18475" y="6874.2" xlink:href="#s69:playfairdisplay-bolditalic:171"/><use x="19134" y="6874.2" xlink:href="#s69:playfairdisplay-bolditalic:151"/><use x="20095" y="6874.2" xlink:href="#s69:playfairdisplay-bolditalic:195"/><use x="21330" y="6874.2" xlink:href="#s69:playfairdisplay-bolditalic:141"/><use x="22278" y="6874.2" xlink:href="#s69:playfairdisplay-bolditalic:151"/><use x="23239" y="6874.2" xlink:href="#s69:playfairdisplay-bolditalic:643"/><use x="23827" y="6874.2" xlink:href="#s69:playfairdisplay-bolditalic:1"/><use x="24349" y="6874.2" xlink:href="#s69:playfairdisplay-bolditalic:194"/><use x="26102" y="6874.2" xlink:href="#s69:playfairdisplay-bolditalic:232"/><use x="27325" y="6874.2" xlink:href="#s69:playfairdisplay-bolditalic:220"/><use x="28185" y="6874.2" xlink:href="#s69:playfairdisplay-bolditalic:171"/><use x="28844" y="6874.2" xlink:href="#s69:playfairdisplay-bolditalic:141"/><use x="29792" y="6874.2" xlink:href="#s69:playfairdisplay-bolditalic:643"/><use x="30380" y="6874.2" xlink:href="#s69:playfairdisplay-bolditalic:1"/><use x="30902" y="6874.2" xlink:href="#s69:playfairdisplay-bolditalic:220"/><use x="31762" y="6874.2" xlink:href="#s69:playfairdisplay-bolditalic:213"/><use x="32956" y="6874.2" xlink:href="#s69:playfairdisplay-bolditalic:202"/><use x="34039" y="6874.2" xlink:href="#s69:playfairdisplay-bolditalic:216"/><use x="35002" y="6874.2" xlink:href="#s69:playfairdisplay-bolditalic:227"/><use x="35725" y="6874.2" xlink:href="#s69:playfairdisplay-bolditalic:643"/><use x="36313" y="6874.2" xlink:href="#s69:playfairdisplay-bolditalic:1"/><use x="36835" y="6874.2" xlink:href="#s69:playfairdisplay-bolditalic:151"/><use x="37796" y="6874.2" xlink:href="#s69:playfairdisplay-bolditalic:227"/><use x="38519" y="6874.2" xlink:href="#s69:playfairdisplay-bolditalic:141"/><use x="39467" y="6874.2" xlink:href="#s69:playfairdisplay-bolditalic:643"/></g></svg>