<svg xmlns="http://www.w3.org/2000/svg" xmlns:xlink="http://www.w3.org/1999/xlink" width="618" height="87" viewBox="0 0 52705 7388.2"><defs><path id="s71:playfairdisplay-regular:97" d="M68-1020Q74-1085 74-1188Q74-1308 59-1450Q229-1444 637-1444Q1042-1444 1212-1450Q1198-1304 1198-1188Q1198-1085 1204-1020L1157-1020Q1141-1179 1116.50-1255.50Q1092-1332 1030.50-1367.50Q969-1403 842-1403L731-1403L731-238Q731-153 747-113.50Q763-74 805-59Q847-44 938-41L938 0Q830-6 637-6Q432-6 334 0L334-41Q425-44 467-59Q509-74 525-113.50Q541-153 541-238L541-1403L430-1403Q303-1403 241.50-1367.50Q180-1332 155.50-1255.50Q131-1179 115-1020L68-1020Z"/><path id="s71:playfairdisplay-regular:168" d="M381-838Q432-968 523.50-1025.50Q615-1083 729-1083Q872-1083 946-1006Q985-964 1001.50-902.50Q1018-841 1018-737L1018-190Q1018-133 1033.50-101Q1049-69 1082.50-56Q1116-43 1174-43L1174 0Q982-8 928-8Q870-8 698 0L698-43Q749-43 778-56Q807-69 820.50-101Q834-133 834-190L834-782Q834-856 822-906Q810-956 773.50-987Q737-1018 668-1018Q585-1018 519.50-970.50Q454-923 417.50-838.50Q381-754 381-647L381-190Q381-133 394.50-101Q408-69 436.50-56Q465-43 516-43L516 0Q344-8 287-8Q229-8 41 0L41-43Q99-43 132.50-56Q166-69 181.50-101Q197-133 197-190L197-1358Q197-1453 162.50-1495.50Q128-1538 41-1538L41-1581Q106-1575 168-1575Q300-1575 381-1604L381-838Z"/><path id="s71:playfairdisplay-regular:151" d="M948-246Q924-174 871.50-111.50Q819-49 740.50-10Q662 29 565 29Q419 29 312.50-37.50Q206-104 150-224.50Q94-345 94-502Q94-680 151-811Q208-942 312.50-1012.50Q417-1083 557-1083Q741-1083 840.50-971.50Q940-860 940-633L300-633Q293-580 293-502Q293-367 337.50-266Q382-165 454-111Q526-57 606-57Q812-57 907-262L948-246M743-672Q747-774 726-859Q705-944 660-994Q615-1044 549-1044Q486-1044 433-1003.50Q380-963 343.50-879.50Q307-796 297-672L743-672Z"/><path id="s71:playfairdisplay-regular:1" d=""/><path id="s71:playfairdisplay-regular:24" d="M1141-410Q1135-355 1135-262Q1135-146 1149 0Q1010-6 680-6Q287-6 86 0L86-41Q160-44 193.50-57Q227-70 239.50-105Q252-140 252-217L252-1233Q252-1310 239.50-1345Q227-1380 193.50-1393Q160-1406 86-1409L86-1450Q287-1444 680-1444Q981-1444 1108-1450Q1094-1316 1094-1208Q1094-1128 1100-1081L1053-1081Q1038-1214 1015.50-1279Q993-1344 939.50-1373.50Q886-1403 778-1403L608-1403Q534-1403 500.50-1391Q467-1379 454.50-1344.50Q442-1310 442-1233L442-750L578-750Q681-750 715-811.50Q749-873 757-937Q765-1001 768-1020L815-1020Q808-919 808-827L809-729Q809-625 821-438L774-438Q772-452 762.50-537Q753-622 707-665.50Q661-709 578-709L442-709L442-217Q442-140 454.50-105.50Q467-71 500.50-59Q534-47 608-47L758-47Q886-47 952.50-81Q1019-115 1048.50-190Q1078-265 1094-410L1141-410Z"/><path id="s71:playfairdisplay-regular:232" d="M989-221Q989-126 1023.50-83.50Q1058-41 1145-41L1145 2Q1081-4 1018-4Q886-4 805 25L805-217Q755-91 665.50-31Q576 29 469 29Q331 29 256-49Q219-89 203.50-153Q188-217 188-317L188-831Q188-926 154-969Q120-1012 33-1012L33-1055Q97-1049 160-1049Q289-1049 373-1077L373-272Q373-194 382-146Q391-98 425-67.50Q459-37 528-37Q607-37 670-86Q733-135 769-220Q805-305 805-408L805-831Q805-926 770.50-969Q736-1012 649-1012L649-1055Q713-1049 776-1049Q906-1049 989-1077L989-221Z"/><path id="s71:playfairdisplay-regular:216" d="M399-821Q422-885 465.50-945Q509-1005 569-1044Q629-1083 696-1083Q750-1083 792.50-1061.50Q835-1040 859-1003Q883-966 883-922Q883-868 851-830.50Q819-793 766-793Q721-793 689-821.50Q657-850 657-899Q657-966 727-1010Q713-1030 684-1030Q603-1030 538-968Q473-906 436-815Q399-724 399-645L399-211Q399-116 453-79.50Q507-43 616-43L616 0Q364-8 301-8Q247-8 59 0L59-43Q117-43 150.50-56Q184-69 199.50-101Q215-133 215-190L215-831Q215-926 180.50-969Q146-1012 59-1012L59-1055Q123-1049 186-1049Q316-1049 399-1077L399-821Z"/><path id="s71:playfairdisplay-regular:202" d="M561-1083Q696-1083 800.50-1024Q905-965 965.50-840.50Q1026-716 1026-526Q1026-336 965.50-212Q905-88 800.50-29.50Q696 29 561 29Q426 29 321.50-29.50Q217-88 156.50-212Q96-336 96-526Q96-716 156.50-840.50Q217-965 321.50-1024Q426-1083 561-1083M561-1042Q438-1042 366.50-916Q295-790 295-526Q295-263 366.50-137.50Q438-12 561-12Q684-12 755.50-137.50Q827-263 827-526Q827-790 755.50-916Q684-1042 561-1042Z"/><path id="s71:playfairdisplay-regular:213" d="M385-861Q431-967 517-1025Q603-1083 713-1083Q822-1083 908.50-1024Q995-965 1044.50-850Q1094-735 1094-575Q1094-418 1044-280.50Q994-143 888.50-57Q783 29 625 29Q547 29 483.50-1.50Q420-32 385-82L385 180Q385 263 434 295.50Q483 328 582 328L582 371Q556 370 465.50 366Q375 362 287 362Q222 362 153 366Q84 370 66 371L66 328Q141 328 171 300.50Q201 273 201 201L201-831Q201-926 166.50-969Q132-1012 45-1012L45-1055Q109-1049 172-1049Q302-1049 385-1077L385-861M385-150Q415-89 470-53.50Q525-18 602-18Q895-18 895-547Q895-1022 657-1022Q564-1022 490.50-955.50Q417-889 385-763L385-150Z"/><path id="s71:playfairdisplay-regular:129" d="M655-836Q655-955 605.50-998.50Q556-1042 465-1042Q320-1042 262-969Q303-959 330.50-925.50Q358-892 358-844Q358-792 325.50-762.50Q293-733 238-733Q186-733 156.50-768Q127-803 127-860Q127-940 223-1006Q273-1039 346.50-1061Q420-1083 510-1083Q594-1083 658-1062.50Q722-1042 758-1006Q805-958 822.50-894.50Q840-831 840-719L840-150Q840-99 854.50-76Q869-53 903-53Q928-53 949-64Q970-75 995-96L1018-61Q982-34 958-19Q934-4 903 5Q872 14 831 14Q732 14 693.50-35.50Q655-85 655-168Q595-69 511-27.50Q427 14 340 14Q269 14 210-10.50Q151-35 115.50-86.50Q80-138 80-215Q80-293 118-348Q156-403 225-444.50Q294-486 410-535Q430-543 508-575Q586-607 620.50-639Q655-671 655-709L655-836M655-625Q640-602 605-582Q570-562 459-508Q400-480 359-450.50Q318-421 289-371Q260-321 260-248Q260-159 305-113.50Q350-68 424-68Q560-68 655-223L655-625Z"/><path id="s71:playfairdisplay-regular:195" d="M399-836Q450-966 541.50-1024.50Q633-1083 748-1083Q891-1083 965-1006Q1003-964 1019.50-902.50Q1036-841 1036-737L1036-190Q1036-133 1051.50-101Q1067-69 1100.50-56Q1134-43 1192-43L1192 0Q1004-8 946-8Q889-8 717 0L717-43Q768-43 796.50-56Q825-69 838.50-101Q852-133 852-190L852-782Q852-856 840.50-906Q829-956 792.50-987Q756-1018 686-1018Q602-1018 536.50-969Q471-920 435-834.50Q399-749 399-645L399-190Q399-133 412.50-101Q426-69 455-56Q484-43 535-43L535 0Q363-8 305-8Q247-8 59 0L59-43Q117-43 150.50-56Q184-69 199.50-101Q215-133 215-190L215-831Q215-926 180.50-969Q146-1012 59-1012L59-1055Q123-1049 186-1049Q316-1049 399-1077L399-836Z"/><path id="s71:playfairdisplay-regular:188" d="M385-190Q385-133 400.50-101Q416-69 449.50-56Q483-43 541-43L541 0Q353-8 293-8Q233-8 45 0L45-43Q103-43 136.50-56Q170-69 185.50-101Q201-133 201-190L201-1360Q201-1455 166.50-1497.50Q132-1540 45-1540L45-1583Q109-1577 172-1577Q304-1577 385-1606L385-190Z"/><path id="s71:playfairdisplay-regular:162" d="M784-225Q891-225 957.50-180Q1024-135 1024-35Q1024 63 960.50 160Q897 257 767.50 321Q638 385 451 385Q344 385 249.50 363.50Q155 342 97 299.50Q39 257 39 197Q39 127 112.50 61.50Q186-4 296-53L289-53Q211-53 147.50-86Q84-119 84-209Q84-279 142-342Q200-405 340-468Q250-503 200-576Q150-649 150-760Q150-922 253.50-1002.50Q357-1083 528-1083Q608-1083 673-1065Q693-1179 745-1247Q800-1315 885-1315Q936-1315 964.50-1285Q993-1255 993-1208Q993-1166 965-1138Q937-1110 895-1110Q843-1110 820-1141.50Q797-1173 786-1239Q756-1212 731-1139Q716-1094 710-1054Q803-1020 855-946.50Q907-873 907-760Q907-651 858-578.50Q809-506 724-471Q639-436 528-436Q445-436 377-455Q294-411 249.50-373.50Q205-336 205-293Q205-259 228-242Q251-225 303-225L784-225M528-1047Q437-1047 389.50-981.50Q342-916 342-760Q342-604 389.50-538.50Q437-473 528-473Q620-473 667.50-538Q715-603 715-760Q715-917 667.50-982Q620-1047 528-1047M346-53Q280-19 243.50 38Q207 95 207 154Q207 220 251 264Q295 308 364 329Q433 350 506 350Q597 350 684 317.50Q771 285 827 219.50Q883 154 883 61Q883 21 869.50-3.50Q856-28 822-40.50Q788-53 727-53L346-53Z"/><path id="s71:playfairdisplay-regular:220" d="M168-395Q183-268 211-186Q239-104 297-58Q355-12 453-12Q498-12 539.50-31.50Q581-51 608-94.50Q635-138 635-207Q635-263 606.50-307.50Q578-352 532-387.50Q486-423 403-475Q302-539 248.50-580Q195-621 158-680Q121-739 121-819Q121-906 162-965.50Q203-1025 271.50-1054Q340-1083 424-1083Q496-1083 553.50-1060Q611-1037 647-1008Q669-991 683-991Q719-991 729-1081L776-1081Q768-981 768-733L721-733Q699-868 634-956Q569-1044 442-1044Q368-1044 321-1002.50Q274-961 274-887Q274-816 322.50-768.50Q371-721 439.50-678Q508-635 537-616Q631-555 688.50-507.50Q746-460 781.50-398.50Q817-337 817-258Q817-167 769.50-102.50Q722-38 642-4.50Q562 29 467 29Q376 29 305 0Q265-20 221-55Q213-63 202-63Q172-63 160 14L113 14Q121-103 121-395L168-395Z"/><path id="s71:playfairdisplay-regular:194" d="M1632-190Q1632-133 1647.50-101Q1663-69 1696.50-56Q1730-43 1788-43L1788 0Q1600-8 1542-8Q1485-8 1313 0L1313-43Q1364-43 1392.50-56Q1421-69 1434.50-101Q1448-133 1448-190L1448-782Q1448-860 1439-908.50Q1430-957 1396-987.50Q1362-1018 1292-1018Q1214-1018 1151-969Q1088-920 1052-835Q1016-750 1016-647L1016-190Q1016-133 1031.50-101Q1047-69 1080-56Q1113-43 1171-43L1171 0Q983-8 926-8Q868-8 696 0L696-43Q747-43 776-56Q805-69 818-101Q831-133 831-190L831-782Q831-860 822-908.50Q813-957 779-987.50Q745-1018 676-1018Q597-1018 534-968.50Q471-919 435-833.50Q399-748 399-645L399-190Q399-133 412.50-101Q426-69 455-56Q484-43 535-43L535 0Q363-8 305-8Q247-8 59 0L59-43Q117-43 150.50-56Q184-69 199.50-101Q215-133 215-190L215-831Q215-926 180.50-969Q146-1012 59-1012L59-1055Q123-1049 186-1049Q316-1049 399-1077L399-836Q449-962 539-1022.50Q629-1083 735-1083Q874-1083 948-1006Q999-950 1011-841Q1062-970 1152-1026.50Q1242-1083 1352-1083Q1491-1083 1565-1006Q1602-965 1617-901.50Q1632-838 1632-737L1632-190Z"/><path id="s71:playfairdisplay-regular:140" d="M348-864Q394-968 478-1025.50Q562-1083 668-1083Q782-1083 869.50-1020.50Q957-958 1007-832.50Q1057-707 1057-526Q1057-349 995.50-223.50Q934-98 830-34.50Q726 29 600 29Q525 29 454-1.50Q383-32 330-91L184 33L150 18Q164-32 164-100L164-1358Q164-1453 129.50-1495.50Q95-1538 8-1538L8-1581Q73-1575 135-1575Q267-1575 348-1604L348-864M348-120Q396-70 457.50-44Q519-18 584-18Q722-18 790-142.50Q858-267 858-526Q858-776 796.50-899Q735-1022 608-1022Q553-1022 501-992.50Q449-963 408.50-905.50Q368-848 348-767L348-120Z"/><path id="s71:playfairdisplay-regular:161" d="M217-1053Q217-1175 227-1256.50Q237-1338 259.50-1395Q282-1452 322-1499Q362-1547 426-1574.50Q490-1602 565-1602Q670-1602 743-1546Q807-1494 807-1419Q807-1372 776.50-1341.50Q746-1311 698-1311Q651-1311 618.50-1341Q586-1371 586-1421Q586-1463 609.50-1490.50Q633-1518 672-1526Q666-1545 639-1558Q612-1571 571-1571Q480-1571 438-1495Q415-1454 408-1372.50Q401-1291 401-1106L401-1053L621-1053L621-1012L401-1012L401-211Q401-116 455-79.50Q509-43 618-43L618 0Q366-8 303-8Q253-8 61 0L61-43Q119-43 152.50-56Q186-69 201.50-101Q217-133 217-190L217-1012L53-1012L53-1053L217-1053Z"/><path id="s71:playfairdisplay-regular:227" d="M692-1053L692-1012L389-1012L389-219Q389-126 422-85.50Q455-45 520-45Q584-45 629-96Q674-147 705-264L745-254Q695 29 479 29Q410 29 365 12.50Q320-4 285-39Q241-84 223-149.50Q205-215 205-326L205-1012L8-1012L8-1053L205-1053L205-1366Q320-1369 389-1395L389-1053L692-1053Z"/><path id="s71:playfairdisplay-regular:171" d="M293-1567Q328-1567 358-1549Q388-1531 406-1501Q424-1471 424-1436Q424-1401 406-1370.50Q388-1340 358-1322.50Q328-1305 293-1305Q258-1305 227.50-1322.50Q197-1340 179.50-1370.50Q162-1401 162-1436Q162-1471 179.50-1501Q197-1531 227.50-1549Q258-1567 293-1567M399-190Q399-133 414.50-101Q430-69 463.50-56Q497-43 555-43L555 0Q367-8 307-8Q247-8 59 0L59-43Q117-43 150.50-56Q184-69 199.50-101Q215-133 215-190L215-831Q215-926 180.50-969Q146-1012 59-1012L59-1055Q123-1049 186-1049Q316-1049 399-1077L399-190Z"/><path id="s71:playfairdisplay-regular:250" d="M684-1055Q792-1049 856-1049Q947-1049 1012-1055L1012-1014Q971-1009 939-977Q907-945 879-870L543 10L473 188Q434 289 385 332Q327 385 225 385Q164 385 125 352.50Q86 320 86 262Q86 213 115 183.50Q144 154 195 154Q240 154 269.50 179Q299 204 299 250Q299 311 244 342Q248 344 256 344Q369 344 430 184L503-3L131-897Q96-968 61.50-990Q27-1012-8-1012L-8-1055Q88-1042 193-1042Q281-1042 459-1055L459-1012Q409-1012 381-1008.50Q353-1005 334.50-989.50Q316-974 316-941Q316-904 342-840L589-228L815-821Q837-881 837-915Q837-963 800.50-986Q764-1009 684-1014L684-1055Z"/><path id="s71:playfairdisplay-regular:648" d="M258-233Q293-233 323.50-215.50Q354-198 371.50-167.50Q389-137 389-102Q389-67 371.50-37Q354-7 323.50 11Q293 29 258 29Q223 29 192.50 11Q162-7 144.50-37Q127-67 127-102Q127-137 144.50-167.50Q162-198 192.50-215.50Q223-233 258-233Z"/><path id="s71:playfairdisplay-regular:249" d="M909-145Q945-93 971-71.50Q997-50 1036-43L1036 0Q932-8 891-8Q821-8 649 0L649-43Q682-43 706-56Q730-69 730-89Q730-99 721-113L488-453L338-258Q281-185 281-135Q281-51 432-41L432 0Q324-6 199-6Q108-6 43 0L43-41Q83-46 125-78Q167-110 223-184L459-495L174-909Q146-950 127-970.50Q108-991 90.50-1000Q73-1009 47-1012L47-1055Q155-1047 193-1047Q262-1047 434-1055L434-1012Q401-1012 377.50-999.50Q354-987 354-966Q354-954 362-942L581-623L723-821Q785-908 785-950Q785-979 757-994.50Q729-1010 668-1014L668-1055Q774-1049 840-1049Q930-1049 995-1055L995-1014Q912-1004 815-870L608-584L909-145Z"/><path id="s71:playfairdisplay-regular:141" d="M924-256Q901-183 853-118.50Q805-54 727.50-12.50Q650 29 547 29Q419 29 316-37Q213-103 153.50-226Q94-349 94-514Q94-680 154.50-809.50Q215-939 324-1011Q433-1083 571-1083Q709-1083 809-1018Q905-953 905-860Q905-806 874.50-775.50Q844-745 797-745Q749-745 716.50-772.50Q684-800 684-848Q684-892 708.50-921.50Q733-951 770-961Q750-998 697-1022.50Q644-1047 586-1047Q511-1047 445-999Q379-951 336-839Q293-727 293-545Q293-290 375-174.50Q457-59 588-59Q675-59 754.50-110Q834-161 885-270L924-256Z"/><path id="s71:playfairdisplay-regular:34" d="M86-1450Q287-1444 680-1444Q981-1444 1108-1450Q1094-1304 1094-1188Q1094-1085 1100-1020L1053-1020Q1037-1179 1012-1255.50Q987-1332 925.50-1367.50Q864-1403 737-1403L608-1403Q534-1403 500.50-1391Q467-1379 454.50-1344.50Q442-1310 442-1233L442-729L592-729Q695-729 729-790.50Q763-852 771-916Q779-980 782-999L829-999Q822-899 822-806L823-709Q823-601 836-418L788-418Q786-432 776.50-517Q767-602 721-645Q675-688 592-688L442-688L442-217Q442-140 458-105Q474-70 516-57Q558-44 649-41L649 0Q543-6 348-6Q172-6 86 0L86-41Q160-44 193.50-57Q227-70 239.50-105Q252-140 252-217L252-1233Q252-1310 239.50-1345Q227-1380 193.50-1393Q160-1406 86-1409L86-1450Z"/><path id="s71:playfairdisplay-regular:643" d="M184 246Q248 219 294 161.50Q340 104 340 45Q340 20 334 2Q299 29 258 29Q202 29 164.50-6.50Q127-42 127-102Q127-158 165-195.50Q203-233 258-233Q337-233 379-168Q414-114 414-33Q414 70 361.50 151.50Q309 233 203 283L184 246Z"/></defs><g id="line-0"><use x="0" y="1959" xlink:href="#s71:playfairdisplay-regular:97"/><use x="1260" y="1959" xlink:href="#s71:playfairdisplay-regular:168"/><use x="2464" y="1959" xlink:href="#s71:playfairdisplay-regular:151"/><use x="3500" y="1959" xlink:href="#s71:playfairdisplay-regular:1"/><use x="4010" y="1959" xlink:href="#s71:playfairdisplay-regular:24"/><use x="5257" y="1959" xlink:href="#s71:playfairdisplay-regular:232"/><use x="6447" y="1959" xlink:href="#s71:playfairdisplay-regular:216"/><use x="7317" y="1959" xlink:href="#s71:playfairdisplay-regular:202"/><use x="8439" y="1959" xlink:href="#s71:playfairdisplay-regular:213"/><use x="9629" y="1959" xlink:href="#s71:playfairdisplay-regular:151"/><use x="10665" y="1959" xlink:href="#s71:playfairdisplay-regular:129"/><use x="11685" y="1959" xlink:href="#s71:playfairdisplay-regular:195"/><use x="12908" y="1959" xlink:href="#s71:playfairdisplay-regular:1"/><use x="13357" y="1959" xlink:href="#s71:playfairdisplay-regular:188"/><use x="13943" y="1959" xlink:href="#s71:playfairdisplay-regular:129"/><use x="14963" y="1959" xlink:href="#s71:playfairdisplay-regular:195"/><use x="16186" y="1959" xlink:href="#s71:playfairdisplay-regular:162"/><use x="17247" y="1959" xlink:href="#s71:playfairdisplay-regular:232"/><use x="18437" y="1959" xlink:href="#s71:playfairdisplay-regular:129"/><use x="19457" y="1959" xlink:href="#s71:playfairdisplay-regular:162"/><use x="20518" y="1959" xlink:href="#s71:playfairdisplay-regular:151"/><use x="21554" y="1959" xlink:href="#s71:playfairdisplay-regular:220"/><use x="22467" y="1959" xlink:href="#s71:playfairdisplay-regular:1"/><use x="22977" y="1959" xlink:href="#s71:playfairdisplay-regular:129"/><use x="23997" y="1959" xlink:href="#s71:playfairdisplay-regular:216"/><use x="24867" y="1959" xlink:href="#s71:playfairdisplay-regular:151"/><use x="25903" y="1959" xlink:href="#s71:playfairdisplay-regular:1"/><use x="26413" y="1959" xlink:href="#s71:playfairdisplay-regular:194"/><use x="28232" y="1959" xlink:href="#s71:playfairdisplay-regular:151"/><use x="29268" y="1959" xlink:href="#s71:playfairdisplay-regular:194"/><use x="31087" y="1959" xlink:href="#s71:playfairdisplay-regular:140"/><use x="32240" y="1959" xlink:href="#s71:playfairdisplay-regular:151"/><use x="33276" y="1959" xlink:href="#s71:playfairdisplay-regular:216"/><use x="34187" y="1959" xlink:href="#s71:playfairdisplay-regular:220"/><use x="35100" y="1959" xlink:href="#s71:playfairdisplay-regular:1"/><use x="35610" y="1959" xlink:href="#s71:playfairdisplay-regular:202"/><use x="36732" y="1959" xlink:href="#s71:playfairdisplay-regular:161"/><use x="37412" y="1959" xlink:href="#s71:playfairdisplay-regular:1"/><use x="37895" y="1959" xlink:href="#s71:playfairdisplay-regular:227"/><use x="38620" y="1959" xlink:href="#s71:playfairdisplay-regular:168"/><use x="39824" y="1959" xlink:href="#s71:playfairdisplay-regular:151"/><use x="40860" y="1959" xlink:href="#s71:playfairdisplay-regular:1"/><use x="41370" y="1959" xlink:href="#s71:playfairdisplay-regular:220"/><use x="42283" y="1959" xlink:href="#s71:playfairdisplay-regular:129"/><use x="43303" y="1959" xlink:href="#s71:playfairdisplay-regular:194"/><use x="45122" y="1959" xlink:href="#s71:playfairdisplay-regular:151"/><use x="46158" y="1959" xlink:href="#s71:playfairdisplay-regular:1"/><use x="46668" y="1959" xlink:href="#s71:playfairdisplay-regular:161"/><use x="47348" y="1959" xlink:href="#s71:playfairdisplay-regular:129"/><use x="48368" y="1959" xlink:href="#s71:playfairdisplay-regular:194"/><use x="50187" y="1959" xlink:href="#s71:playfairdisplay-regular:171"/><use x="50787" y="1959" xlink:href="#s71:playfairdisplay-regular:188"/><use x="51373" y="1959" xlink:href="#s71:playfairdisplay-regular:250"/><use x="52317" y="1959" xlink:href="#s71:playfairdisplay-regular:648"/></g><g id="line-1"><use x="10540" y="4416.6" xlink:href="#s71:playfairdisplay-regular:97"/><use x="11800" y="4416.6" xlink:href="#s71:playfairdisplay-regular:168"/><use x="13004" y="4416.6" xlink:href="#s71:playfairdisplay-regular:151"/><use x="14040" y="4416.6" xlink:href="#s71:playfairdisplay-regular:171"/><use x="14640" y="4416.6" xlink:href="#s71:playfairdisplay-regular:216"/><use x="15508" y="4416.6" xlink:href="#s71:playfairdisplay-regular:1"/><use x="16018" y="4416.6" xlink:href="#s71:playfairdisplay-regular:220"/><use x="16931" y="4416.6" xlink:href="#s71:playfairdisplay-regular:151"/><use x="17967" y="4416.6" xlink:href="#s71:playfairdisplay-regular:213"/><use x="19157" y="4416.6" xlink:href="#s71:playfairdisplay-regular:129"/><use x="20177" y="4416.6" xlink:href="#s71:playfairdisplay-regular:216"/><use x="21088" y="4416.6" xlink:href="#s71:playfairdisplay-regular:129"/><use x="22108" y="4416.6" xlink:href="#s71:playfairdisplay-regular:227"/><use x="22833" y="4416.6" xlink:href="#s71:playfairdisplay-regular:151"/><use x="23869" y="4416.6" xlink:href="#s71:playfairdisplay-regular:1"/><use x="24379" y="4416.6" xlink:href="#s71:playfairdisplay-regular:151"/><use x="25386" y="4416.6" xlink:href="#s71:playfairdisplay-regular:249"/><use x="26449" y="4416.6" xlink:href="#s71:playfairdisplay-regular:171"/><use x="27049" y="4416.6" xlink:href="#s71:playfairdisplay-regular:220"/><use x="27962" y="4416.6" xlink:href="#s71:playfairdisplay-regular:227"/><use x="28687" y="4416.6" xlink:href="#s71:playfairdisplay-regular:151"/><use x="29723" y="4416.6" xlink:href="#s71:playfairdisplay-regular:195"/><use x="30946" y="4416.6" xlink:href="#s71:playfairdisplay-regular:141"/><use x="31941" y="4416.6" xlink:href="#s71:playfairdisplay-regular:151"/><use x="32977" y="4416.6" xlink:href="#s71:playfairdisplay-regular:1"/><use x="33487" y="4416.6" xlink:href="#s71:playfairdisplay-regular:171"/><use x="34087" y="4416.6" xlink:href="#s71:playfairdisplay-regular:220"/><use x="35000" y="4416.6" xlink:href="#s71:playfairdisplay-regular:1"/><use x="35510" y="4416.6" xlink:href="#s71:playfairdisplay-regular:129"/><use x="36505" y="4416.6" xlink:href="#s71:playfairdisplay-regular:1"/><use x="37015" y="4416.6" xlink:href="#s71:playfairdisplay-regular:194"/><use x="38816" y="4416.6" xlink:href="#s71:playfairdisplay-regular:250"/><use x="39848" y="4416.6" xlink:href="#s71:playfairdisplay-regular:227"/><use x="40573" y="4416.6" xlink:href="#s71:playfairdisplay-regular:168"/><use x="41777" y="4416.6" xlink:href="#s71:playfairdisplay-regular:648"/></g><g id="line-2"><use x="12804.5" y="6874.2" xlink:href="#s71:playfairdisplay-regular:34"/><use x="13920.5" y="6874.2" xlink:href="#s71:playfairdisplay-regular:202"/><use x="15042.5" y="6874.2" xlink:href="#s71:playfairdisplay-regular:216"/><use x="15910.5" y="6874.2" xlink:href="#s71:playfairdisplay-regular:1"/><use x="16420.5" y="6874.2" xlink:href="#s71:playfairdisplay-regular:220"/><use x="17333.5" y="6874.2" xlink:href="#s71:playfairdisplay-regular:141"/><use x="18328.5" y="6874.2" xlink:href="#s71:playfairdisplay-regular:171"/><use x="18928.5" y="6874.2" xlink:href="#s71:playfairdisplay-regular:151"/><use x="19964.5" y="6874.2" xlink:href="#s71:playfairdisplay-regular:195"/><use x="21187.5" y="6874.2" xlink:href="#s71:playfairdisplay-regular:141"/><use x="22182.5" y="6874.2" xlink:href="#s71:playfairdisplay-regular:151"/><use x="23218.5" y="6874.2" xlink:href="#s71:playfairdisplay-regular:643"/><use x="23753.5" y="6874.2" xlink:href="#s71:playfairdisplay-regular:1"/><use x="24263.5" y="6874.2" xlink:href="#s71:playfairdisplay-regular:194"/><use x="26082.5" y="6874.2" xlink:href="#s71:playfairdisplay-regular:232"/><use x="27272.5" y="6874.2" xlink:href="#s71:playfairdisplay-regular:220"/><use x="28185.5" y="6874.2" xlink:href="#s71:playfairdisplay-regular:171"/><use x="28785.5" y="6874.2" xlink:href="#s71:playfairdisplay-regular:141"/><use x="29780.5" y="6874.2" xlink:href="#s71:playfairdisplay-regular:643"/><use x="30315.5" y="6874.2" xlink:href="#s71:playfairdisplay-regular:1"/><use x="30825.5" y="6874.2" xlink:href="#s71:playfairdisplay-regular:220"/><use x="31738.5" y="6874.2" xlink:href="#s71:playfairdisplay-regular:213"/><use x="32928.5" y="6874.2" xlink:href="#s71:playfairdisplay-regular:202"/><use x="34050.5" y="6874.2" xlink:href="#s71:playfairdisplay-regular:216"/><use x="34961.5" y="6874.2" xlink:href="#s71:playfairdisplay-regular:227"/><use x="35686.5" y="6874.2" xlink:href="#s71:playfairdisplay-regular:643"/><use x="36221.5" y="6874.2" xlink:href="#s71:playfairdisplay-regular:1"/><use x="36731.5" y="6874.2" xlink:href="#s71:playfairdisplay-regular:151"/><use x="37767.5" y="6874.2" xlink:href="#s71:playfairdisplay-regular:227"/><use x="38492.5" y="6874.2" xlink:href="#s71:playfairdisplay-regular:141"/><use x="39487.5" y="6874.2" xlink:href="#s71:playfairdisplay-regular:643"/></g></svg>