<svg xmlns="http://www.w3.org/2000/svg" xmlns:xlink="http://www.w3.org/1999/xlink" width="772" height="82" viewBox="0 0 32167 3402.5"><defs><path id="s72:ptm55ft:55" d="M40-700L560-700L560-517L486-517L486-626L341-626L341-74L451-74L451 0L148 0L148-74L258-74L258-626L114-626L114-517L40-517L40-700Z"/><path id="s72:ptm55ft:75" d="M4-700L160-700L160-438L165-438Q196-473 237-492.50Q278-512 339-512Q387-512 422.50-502Q458-492 480.50-467Q503-442 514-398.50Q525-355 525-288L525 0L447 0L447-273Q447-316 442-348Q437-380 422.50-401.50Q408-423 383-434Q358-445 319-445Q292-445 266-435.50Q240-426 218.50-409.50Q197-393 181.50-369.50Q166-346 160-318L160 0L83 0L83-633L4-633L4-700Z"/><path id="s72:ptm55ft:72" d="M529-63Q511-47 486.50-33Q462-19 433-9Q404 1 372.50 6.50Q341 12 309 12Q249 12 203-6.50Q157-25 126-59.50Q95-94 79-142Q63-190 63-250Q63-313 80.50-362Q98-411 131-444Q164-477 211-494.50Q258-512 316-512Q358-512 399-501Q440-490 471.50-459.50Q503-429 520-375.50Q537-322 532-237L145-237Q145-147 193.50-102.50Q242-58 323-58Q350-58 376.50-64.50Q403-71 427-80Q451-89 469.50-100Q488-111 498-120L529-63M318-446Q285-446 255.50-439Q226-432 203.50-415.50Q181-399 166.50-372.50Q152-346 148-307L459-307Q454-373 416.50-409.50Q379-446 318-446Z"/><path id="s72:ptm55ft:3" d=""/><path id="s72:ptm55ft:40" d="M107-700L518-700L518-626L190-626L190-397L493-397L493-323L190-323L190-74L523-74L523 0L107 0L107-700Z"/><path id="s72:ptm55ft:88" d="M363-500L505-500L505-159Q505-110 511-65L578-65L578 0L445 0L442-85L438-85Q412-42 369-15Q326 12 265 12Q219 12 186.50 1.50Q154-9 133-35Q112-61 102-104.50Q92-148 92-213L92-433L25-433L25-500L170-500L170-229Q170-188 173.50-155.50Q177-123 188-100.50Q199-78 220.50-66.50Q242-55 278-55Q330-55 368.50-89Q407-123 427-174L427-433L363-433L363-500Z"/><path id="s72:ptm55ft:85" d="M66 0L66-67L201-67L201-433L66-433L66-500L253-500L269-435L274-435Q308-466 350-488Q392-510 450-510Q484-510 504.50-497Q525-484 536.50-459Q548-434 552-398.50Q556-363 556-318L486-317Q486-381 473.50-411Q461-441 428-441Q397-441 372-432Q347-423 328.50-410Q310-397 297-384Q284-371 278-362L278-67L470-67L470 0L66 0Z"/><path id="s72:ptm55ft:82" d="M57-250Q57-371 120-441.50Q183-512 300-512Q363-512 408.50-491.50Q454-471 484-436Q514-401 528.50-353Q543-305 543-250Q543-190 527-141.50Q511-93 480-59Q449-25 403.50-6.50Q358 12 300 12Q238 12 192-8.50Q146-29 116-64Q86-99 71.50-147Q57-195 57-250M140-250Q140-215 148.50-180Q157-145 176-117Q195-89 225.50-72Q256-55 300-55Q380-55 420.50-104.50Q461-154 461-250Q461-286 452.50-320.50Q444-355 424.50-383Q405-411 374.50-428Q344-445 300-445Q220-445 180-396Q140-347 140-250Z"/><path id="s72:ptm55ft:83" d="M96-325Q96-334 95.50-348.50Q95-363 94-378.50Q93-394 91.50-409Q90-424 88-435L21-435L21-500L154-500L164-430L169-430Q196-465 237.50-488.50Q279-512 339-512Q446-512 500-453Q554-394 554-260Q554-197 535.50-146.50Q517-96 483-61Q449-26 401-7Q353 12 295 12Q274 12 257.50 10.50Q241 9 227.50 6.50Q214 4 201 0Q188-4 173-10L173 200L96 200L96-325M326-439Q296-439 269.50-428Q243-417 222.50-399Q202-381 189-359Q176-337 173-315L173-87Q195-72 222.50-63.50Q250-55 295-55Q375-55 423-107.50Q471-160 471-261Q471-346 437.50-392.50Q404-439 326-439Z"/><path id="s72:ptm55ft:68" d="M108-461Q151-486 205-497Q259-508 311-508Q362-508 394.50-492Q427-476 445.50-450.50Q464-425 470.50-392.50Q477-360 477-327Q477-289 475-246Q473-203 472-160Q472-110 478-65L545-65L545 0L412 0L403-75L398-75Q392-66 380-52Q368-38 348.50-24.50Q329-11 301-1Q273 9 235 9Q161 9 118-29Q75-67 75-133Q75-184 97.50-218Q120-252 162-270Q204-288 263.50-291Q323-294 397-283Q402-329 398.50-359.50Q395-390 382.50-408Q370-426 347.50-433.50Q325-441 292-441Q247-441 206-428.50Q165-416 133-403L108-461M255-58Q283-58 307-67Q331-76 349-90Q367-104 379-120.50Q391-137 397-152L397-222Q345-231 301-231Q257-231 225-221.50Q193-212 175-192Q157-172 157-140Q157-107 179.50-82.50Q202-58 255-58Z"/><path id="s72:ptm55ft:81" d="M93-325Q93-334 92.50-348.50Q92-363 91-378.50Q90-394 88.50-409Q87-424 85-435L18-435L18-500L152-500L161-419L166-419Q176-436 192.50-452.50Q209-469 231-482.50Q253-496 280-504Q307-512 337-512Q383-512 418.50-502Q454-492 477.50-466.50Q501-441 513-397.50Q525-354 525-287L525 0L447 0L447-272Q447-355 420-397Q393-439 322-439Q296-439 271.50-428.50Q247-418 227-401Q207-384 192-361.50Q177-339 170-314L170 0L93 0L93-325Z"/><path id="s72:ptm55ft:79" d="M70-700L236-700L236-168Q236-107 256.50-82Q277-57 317-57Q345-57 374-68Q403-79 427-99L463-46Q447-32 428-21Q409-10 389-2.50Q369 5 349 9Q329 13 312 13Q275 13 246 3.50Q217-6 197.50-27Q178-48 168-82.50Q158-117 158-168L158-633L70-633L70-700Z"/><path id="s72:ptm55ft:74" d="M524 25Q524 72 506 107.50Q488 143 456.50 166Q425 189 383 200.50Q341 212 292 212Q233 212 189 200Q145 188 113 169L151 98Q160 106 174.50 113.50Q189 121 208 127.50Q227 134 248.50 138Q270 142 291 142Q335 142 364.50 134Q394 126 412 109Q430 92 438 65Q446 38 446-1L446-57L442-57Q419-24 383-6Q347 12 290 12Q176 12 122.50-51.50Q69-115 69-249Q69-377 137-442.50Q205-508 339-508Q401-508 444.50-499.50Q488-491 524-478L524 25M301-55Q362-55 397-86.50Q432-118 446-183L446-420Q402-441 323-441Q243-441 197-394Q151-347 151-250Q151-207 159-171.50Q167-136 184.50-110Q202-84 230.50-69.50Q259-55 301-55Z"/><path id="s72:ptm55ft:86" d="M438-135Q438-167 413-184.50Q388-202 351-212.50Q314-223 270.50-232Q227-241 190-256Q153-271 128-296.50Q103-322 103-368Q103-406 119.50-433Q136-460 163-477.50Q190-495 226-503.50Q262-512 301-512Q371-512 421.50-494.50Q472-477 502-458L470-395Q437-413 398.50-429.50Q360-446 302-446Q280-446 258.50-441.50Q237-437 219.50-428Q202-419 191.50-404.50Q181-390 181-369Q181-343 206-329Q231-315 268-305.50Q305-296 348.50-287.50Q392-279 429-263Q466-247 491-220Q516-193 516-147Q516-78 461.50-33Q407 12 298 12Q265 12 233 6Q201 0 173-10Q145-20 122-32.50Q99-45 84-58L124-123Q136-111 156-98.50Q176-86 200-76Q224-66 251.50-60Q279-54 307-54Q334-54 357.50-58.50Q381-63 399-72.50Q417-82 427.50-97.50Q438-113 438-135Z"/><path id="s72:ptm55ft:80" d="M262 0L262-333Q262-354 260.50-373.50Q259-393 253.50-408.50Q248-424 237.50-433Q227-442 210-442Q176-442 152.50-414Q129-386 117-344L117 0L41 0L41-500L93-500L108-439L112-439Q122-454 131.50-467.50Q141-481 153.50-491Q166-501 183-506.50Q200-512 226-512Q241-512 257-507.50Q273-503 286.50-493.50Q300-484 310-468Q320-452 323-429Q346-468 374.50-490Q403-512 453-512Q486-512 506.50-501Q527-490 538.50-469.50Q550-449 554.50-420.50Q559-392 559-357L559 0L483 0L483-340Q483-361 481-379.50Q479-398 473.50-412Q468-426 458.50-434Q449-442 433-442Q398-442 374-414Q350-386 338-334L338 0L262 0Z"/><path id="s72:ptm55ft:69" d="M2-700L162-700L162-443L167-443Q193-476 234-494Q275-512 323-512Q543-512 543-258Q543-129 472-60.50Q401 8 270 8Q208 8 158-4Q108-16 85-32L85-633L2-633L2-700M313-445Q253-445 216-411Q179-377 162-315L162-85Q185-73 217-66Q249-59 284-59Q324-59 356.50-70.50Q389-82 412-106.50Q435-131 447.50-169Q460-207 460-259Q460-297 452-331Q444-365 426.50-390.50Q409-416 381-430.50Q353-445 313-445Z"/><path id="s72:ptm55ft:73" d="M88 0L88-67L207-67L207-433L88-433L88-500L207-500L207-528Q207-622 256-664Q305-706 396-706Q429-706 455-702Q481-698 511-686L493-621Q467-632 443-635.50Q419-639 399-639Q333-639 309-606.50Q285-574 285-500L492-500L492-433L285-433L285-67L492-67L492 0L88 0Z"/><path id="s72:ptm55ft:87" d="M31-500L150-500L150-599L228-621L228-500L495-500L495-433L228-433L228-197Q228-124 263.50-89Q299-54 365-54Q410-54 443.50-71Q477-88 504-108L530-49Q495-21 446.50-4Q398 13 347 13Q307 13 271.50 1.50Q236-10 209-34Q182-58 166-95.50Q150-133 150-185L150-433L31-433L31-500Z"/><path id="s72:ptm55ft:76" d="M105 0L105-67L279-67L279-433L105-433L105-500L359-500L359-67L529-67L529 0L105 0M252-642Q252-669 270-688.50Q288-708 316-708Q345-708 364.50-688.50Q384-669 384-642Q384-616 364.50-598Q345-580 316-580Q288-580 270-598Q252-616 252-642Z"/><path id="s72:ptm55ft:92" d="M311-77L349-77L473-500L554-500L415-51Q404-16 392.50 28.50Q381 73 360 112Q339 151 303 178Q267 205 209 205Q196 205 181.50 202Q167 199 153 194.50Q139 190 127 184Q115 178 109 172L137 100Q143 105 153.50 110Q164 115 176.50 118.50Q189 122 201 124.50Q213 127 221 127Q296 127 323 0L256 0L46-500L136-500L311-77Z"/><path id="s72:ptm55ft:17" d="M233-55Q233-87 251-104.50Q269-122 299-122Q331-122 349-104.50Q367-87 367-55Q367-26 349-7Q331 12 299 12Q269 12 251-7Q233-26 233-55Z"/><path id="s72:ptm55ft:91" d="M253-256L60-500L160-500L304-312L452-500L542-500L349-260L554 0L458 0L299-205L137 0L46 0L253-256Z"/><path id="s72:ptm55ft:70" d="M439-423Q416-431 389.50-436.50Q363-442 337-442Q239-442 191-396Q143-350 143-250Q143-206 157-171.50Q171-137 197-113Q223-89 259.50-76Q296-63 340-63Q387-63 431.50-79Q476-95 506-121L541-63Q527-51 506-38Q485-25 457.50-13.50Q430-2 396.50 5Q363 12 324 12Q259 12 209.50-6.50Q160-25 127-59.50Q94-94 77-142.50Q60-191 60-250Q60-313 77.50-362Q95-411 128-444Q161-477 208-494.50Q255-512 313-512Q387-512 433.50-499Q480-486 512-470L511-467L511-328L439-328L439-423Z"/><path id="s72:ptm55ft:41" d="M117-700L518-700L518-626L200-626L200-387L498-387L498-313L200-313L200 0L117 0L117-700Z"/><path id="s72:ptm55ft:15" d="M229-55Q229-85 248.50-103.50Q268-122 299-122Q337-122 358-95.50Q379-69 379-21Q379 18 366 47.50Q353 77 333.50 97.50Q314 118 291.50 130.50Q269 143 250 149L225 110Q261 96 287 70Q313 44 313 7Q299 10 291 10Q262 10 245.50-6.50Q229-23 229-55Z"/></defs><g id="line-0"><use x="0" y="767.5" xlink:href="#s72:ptm55ft:55"/><use x="600" y="767.5" xlink:href="#s72:ptm55ft:75"/><use x="1200" y="767.5" xlink:href="#s72:ptm55ft:72"/><use x="1800" y="767.5" xlink:href="#s72:ptm55ft:3"/><use x="2400" y="767.5" xlink:href="#s72:ptm55ft:40"/><use x="3000" y="767.5" xlink:href="#s72:ptm55ft:88"/><use x="3600" y="767.5" xlink:href="#s72:ptm55ft:85"/><use x="4200" y="767.5" xlink:href="#s72:ptm55ft:82"/><use x="4800" y="767.5" xlink:href="#s72:ptm55ft:83"/><use x="5400" y="767.5" xlink:href="#s72:ptm55ft:72"/><use x="6000" y="767.5" xlink:href="#s72:ptm55ft:68"/><use x="6600" y="767.5" xlink:href="#s72:ptm55ft:81"/><use x="7200" y="767.5" xlink:href="#s72:ptm55ft:3"/><use x="7800" y="767.5" xlink:href="#s72:ptm55ft:79"/><use x="8400" y="767.5" xlink:href="#s72:ptm55ft:68"/><use x="9000" y="767.5" xlink:href="#s72:ptm55ft:81"/><use x="9600" y="767.5" xlink:href="#s72:ptm55ft:74"/><use x="10200" y="767.5" xlink:href="#s72:ptm55ft:88"/><use x="10800" y="767.5" xlink:href="#s72:ptm55ft:68"/><use x="11400" y="767.5" xlink:href="#s72:ptm55ft:74"/><use x="12000" y="767.5" xlink:href="#s72:ptm55ft:72"/><use x="12600" y="767.5" xlink:href="#s72:ptm55ft:86"/><use x="13200" y="767.5" xlink:href="#s72:ptm55ft:3"/><use x="13800" y="767.5" xlink:href="#s72:ptm55ft:68"/><use x="14400" y="767.5" xlink:href="#s72:ptm55ft:85"/><use x="15000" y="767.5" xlink:href="#s72:ptm55ft:72"/><use x="15600" y="767.5" xlink:href="#s72:ptm55ft:3"/><use x="16200" y="767.5" xlink:href="#s72:ptm55ft:80"/><use x="16800" y="767.5" xlink:href="#s72:ptm55ft:72"/><use x="17400" y="767.5" xlink:href="#s72:ptm55ft:80"/><use x="18000" y="767.5" xlink:href="#s72:ptm55ft:69"/><use x="18600" y="767.5" xlink:href="#s72:ptm55ft:72"/><use x="19200" y="767.5" xlink:href="#s72:ptm55ft:85"/><use x="19800" y="767.5" xlink:href="#s72:ptm55ft:86"/><use x="20400" y="767.5" xlink:href="#s72:ptm55ft:3"/><use x="21000" y="767.5" xlink:href="#s72:ptm55ft:82"/><use x="21600" y="767.5" xlink:href="#s72:ptm55ft:73"/><use x="22200" y="767.5" xlink:href="#s72:ptm55ft:3"/><use x="22800" y="767.5" xlink:href="#s72:ptm55ft:87"/><use x="23400" y="767.5" xlink:href="#s72:ptm55ft:75"/><use x="24000" y="767.5" xlink:href="#s72:ptm55ft:72"/><use x="24600" y="767.5" xlink:href="#s72:ptm55ft:3"/><use x="25200" y="767.5" xlink:href="#s72:ptm55ft:86"/><use x="25800" y="767.5" xlink:href="#s72:ptm55ft:68"/><use x="26400" y="767.5" xlink:href="#s72:ptm55ft:80"/><use x="27000" y="767.5" xlink:href="#s72:ptm55ft:72"/><use x="27600" y="767.5" xlink:href="#s72:ptm55ft:3"/><use x="28200" y="767.5" xlink:href="#s72:ptm55ft:73"/><use x="28800" y="767.5" xlink:href="#s72:ptm55ft:68"/><use x="29400" y="767.5" xlink:href="#s72:ptm55ft:80"/><use x="30000" y="767.5" xlink:href="#s72:ptm55ft:76"/><use x="30600" y="767.5" xlink:href="#s72:ptm55ft:79"/><use x="31200" y="767.5" xlink:href="#s72:ptm55ft:92"/><use x="31800" y="767.5" xlink:href="#s72:ptm55ft:17"/></g><g id="line-1"><use x="5700" y="1967.5" xlink:href="#s72:ptm55ft:55"/><use x="6300" y="1967.5" xlink:href="#s72:ptm55ft:75"/><use x="6900" y="1967.5" xlink:href="#s72:ptm55ft:72"/><use x="7500" y="1967.5" xlink:href="#s72:ptm55ft:76"/><use x="8100" y="1967.5" xlink:href="#s72:ptm55ft:85"/><use x="8700" y="1967.5" xlink:href="#s72:ptm55ft:3"/><use x="9300" y="1967.5" xlink:href="#s72:ptm55ft:86"/><use x="9900" y="1967.5" xlink:href="#s72:ptm55ft:72"/><use x="10500" y="1967.5" xlink:href="#s72:ptm55ft:83"/><use x="11100" y="1967.5" xlink:href="#s72:ptm55ft:68"/><use x="11700" y="1967.5" xlink:href="#s72:ptm55ft:85"/><use x="12300" y="1967.5" xlink:href="#s72:ptm55ft:68"/><use x="12900" y="1967.5" xlink:href="#s72:ptm55ft:87"/><use x="13500" y="1967.5" xlink:href="#s72:ptm55ft:72"/><use x="14100" y="1967.5" xlink:href="#s72:ptm55ft:3"/><use x="14700" y="1967.5" xlink:href="#s72:ptm55ft:72"/><use x="15300" y="1967.5" xlink:href="#s72:ptm55ft:91"/><use x="15900" y="1967.5" xlink:href="#s72:ptm55ft:76"/><use x="16500" y="1967.5" xlink:href="#s72:ptm55ft:86"/><use x="17100" y="1967.5" xlink:href="#s72:ptm55ft:87"/><use x="17700" y="1967.5" xlink:href="#s72:ptm55ft:72"/><use x="18300" y="1967.5" xlink:href="#s72:ptm55ft:81"/><use x="18900" y="1967.5" xlink:href="#s72:ptm55ft:70"/><use x="19500" y="1967.5" xlink:href="#s72:ptm55ft:72"/><use x="20100" y="1967.5" xlink:href="#s72:ptm55ft:3"/><use x="20700" y="1967.5" xlink:href="#s72:ptm55ft:76"/><use x="21300" y="1967.5" xlink:href="#s72:ptm55ft:86"/><use x="21900" y="1967.5" xlink:href="#s72:ptm55ft:3"/><use x="22500" y="1967.5" xlink:href="#s72:ptm55ft:68"/><use x="23100" y="1967.5" xlink:href="#s72:ptm55ft:3"/><use x="23700" y="1967.5" xlink:href="#s72:ptm55ft:80"/><use x="24300" y="1967.5" xlink:href="#s72:ptm55ft:92"/><use x="24900" y="1967.5" xlink:href="#s72:ptm55ft:87"/><use x="25500" y="1967.5" xlink:href="#s72:ptm55ft:75"/><use x="26100" y="1967.5" xlink:href="#s72:ptm55ft:17"/></g><g id="line-2"><use x="6894" y="3167.5" xlink:href="#s72:ptm55ft:41"/><use x="7494" y="3167.5" xlink:href="#s72:ptm55ft:82"/><use x="8094" y="3167.5" xlink:href="#s72:ptm55ft:85"/><use x="8694" y="3167.5" xlink:href="#s72:ptm55ft:3"/><use x="9294" y="3167.5" xlink:href="#s72:ptm55ft:86"/><use x="9894" y="3167.5" xlink:href="#s72:ptm55ft:70"/><use x="10494" y="3167.5" xlink:href="#s72:ptm55ft:76"/><use x="11094" y="3167.5" xlink:href="#s72:ptm55ft:72"/><use x="11694" y="3167.5" xlink:href="#s72:ptm55ft:81"/><use x="12294" y="3167.5" xlink:href="#s72:ptm55ft:70"/><use x="12894" y="3167.5" xlink:href="#s72:ptm55ft:72"/><use x="13494" y="3167.5" xlink:href="#s72:ptm55ft:15"/><use x="14094" y="3167.5" xlink:href="#s72:ptm55ft:3"/><use x="14694" y="3167.5" xlink:href="#s72:ptm55ft:80"/><use x="15294" y="3167.5" xlink:href="#s72:ptm55ft:88"/><use x="15894" y="3167.5" xlink:href="#s72:ptm55ft:86"/><use x="16494" y="3167.5" xlink:href="#s72:ptm55ft:76"/><use x="17094" y="3167.5" xlink:href="#s72:ptm55ft:70"/><use x="17694" y="3167.5" xlink:href="#s72:ptm55ft:15"/><use x="18294" y="3167.5" xlink:href="#s72:ptm55ft:3"/><use x="18894" y="3167.5" xlink:href="#s72:ptm55ft:86"/><use x="19494" y="3167.5" xlink:href="#s72:ptm55ft:83"/><use x="20094" y="3167.5" xlink:href="#s72:ptm55ft:82"/><use x="20694" y="3167.5" xlink:href="#s72:ptm55ft:85"/><use x="21294" y="3167.5" xlink:href="#s72:ptm55ft:87"/><use x="21894" y="3167.5" xlink:href="#s72:ptm55ft:15"/><use x="22494" y="3167.5" xlink:href="#s72:ptm55ft:3"/><use x="23094" y="3167.5" xlink:href="#s72:ptm55ft:72"/><use x="23694" y="3167.5" xlink:href="#s72:ptm55ft:87"/><use x="24294" y="3167.5" xlink:href="#s72:ptm55ft:70"/><use x="24894" y="3167.5" xlink:href="#s72:ptm55ft:15"/></g></svg>