<svg xmlns="http://www.w3.org/2000/svg" xmlns:xlink="http://www.w3.org/1999/xlink" width="641" height="84" viewBox="0 0 54710 7195.2"><defs><path id="s73:righteous-regular:31" d="M735 0L449 0L449-1147L18-1147L18-1434L1165-1434L1165-1147L735-1147L735 0Z"/><path id="s73:righteous-regular:48" d="M377 0L104 0L104-1497L377-1497L377-1024Q426-1061 478-1076.50Q530-1092 584-1092Q683-1092 770-1054.50Q857-1017 921.50-951.50Q986-886 1023.50-798.50Q1061-711 1061-612L1061 0L786 0L786-612L788-612Q788-654 772-691.50Q756-729 728-757Q700-785 663-801Q626-817 584-817Q541-817 503-801Q465-785 437-757Q409-729 393-691.50Q377-654 377-612L377 0Z"/><path id="s73:righteous-regular:45" d="M530-262Q546-257 562-255.50Q578-254 594-254Q634-254 671-265Q708-276 740.50-296.50Q773-317 798.50-346.50Q824-376 840-412L1040-211Q1002-157 952.50-114Q903-71 845.50-41Q788-11 724.50 4.50Q661 20 594 20Q481 20 381.50-22Q282-64 207.50-139Q133-214 90-317.50Q47-421 47-545Q47-672 90-777Q133-882 207.50-956Q282-1030 381.50-1071Q481-1112 594-1112Q661-1112 725-1096Q789-1080 846.50-1050Q904-1020 954-976.50Q1004-933 1042-879L530-262M670-825Q651-832 632.50-834Q614-836 594-836Q538-836 488.50-815.50Q439-795 402.50-757Q366-719 345-665.50Q324-612 324-545Q324-530 325.50-511Q327-492 330.50-472.50Q334-453 339-435Q344-417 352-403L670-825Z"/><path id="s73:righteous-regular:3" d=""/><path id="s73:righteous-regular:16" d="M1116 0L133 0L133-1434L1116-1434L1116-1147L420-1147L420-860L891-860L891-573L420-573L420-287L1116-287L1116 0Z"/><path id="s73:righteous-regular:61" d="M891-125Q858-95 820.50-68.50Q783-42 742-22.50Q701-3 657.50 8.50Q614 20 569 20Q470 20 383-15Q296-50 230.50-114.50Q165-179 127.50-271.50Q90-364 90-479L90-1071L362-1071L362-479Q362-425 378.50-382.50Q395-340 423-311Q451-282 488.50-267Q526-252 569-252Q611-252 648.50-271.50Q686-291 714-323Q742-355 758-395.50Q774-436 774-479L774-1071L1047-1071L1047 0L981 0L891-125Z"/><path id="s73:righteous-regular:58" d="M377 0L104 0L104-1071L170-1071L260-944Q326-1004 410-1036.50Q494-1069 584-1069L825-1069L825-797L584-797Q541-797 503-781Q465-765 437-737Q409-709 393-671Q377-633 377-590L377 0Z"/><path id="s73:righteous-regular:55" d="M1139-545Q1139-425 1096-321.50Q1053-218 979-142.50Q905-67 805.50-23.50Q706 20 592 20Q479 20 379.50-23.50Q280-67 205.50-142.50Q131-218 88-321.50Q45-425 45-545Q45-667 88-771Q131-875 205.50-950.50Q280-1026 379.50-1069Q479-1112 592-1112Q706-1112 805.50-1071.50Q905-1031 979-956.50Q1053-882 1096-777.50Q1139-673 1139-545M864-545Q864-611 842.50-664.50Q821-718 784-756.50Q747-795 697.50-815.50Q648-836 592-836Q536-836 486.50-815.50Q437-795 400.50-756.50Q364-718 343-664.50Q322-611 322-545Q322-483 343-430Q364-377 400.50-338Q437-299 486.50-276.50Q536-254 592-254Q648-254 697.50-275Q747-296 784-334Q821-372 842.50-426Q864-480 864-545Z"/><path id="s73:righteous-regular:56" d="M379 408L104 408L104-1071L170-1071L279-942Q316-977 360-1008Q404-1039 451.50-1061.50Q499-1084 550-1097Q601-1110 653-1110Q766-1110 865.50-1069.50Q965-1029 1039.50-955Q1114-881 1157-776.50Q1200-672 1200-545Q1200-413 1157-307.50Q1114-202 1039.50-128.50Q965-55 865.50-16Q766 23 653 23Q617 23 581.50 15Q546 7 511.50-6.50Q477-20 443.50-37Q410-54 379-72L379 408M926-545Q926-613 904.50-667Q883-721 846-758.50Q809-796 759-816Q709-836 653-836Q597-836 547.50-816Q498-796 461-758.50Q424-721 402.50-667Q381-613 381-545Q381-480 402.50-426Q424-372 461-334Q498-296 547.50-275Q597-254 653-254Q709-254 759-275Q809-296 846-334Q883-372 904.50-426Q926-480 926-545Z"/><path id="s73:righteous-regular:41" d="M1141 0L1075 0L969-147Q930-112 886.50-81.50Q843-51 795-28.50Q747-6 696.50 7Q646 20 594 20Q481 20 381.50-18Q282-56 207.50-128.50Q133-201 90-306Q47-411 47-545Q47-670 90-774.50Q133-879 207.50-954Q282-1029 381.50-1070.50Q481-1112 594-1112Q646-1112 697-1099Q748-1086 796-1063Q844-1040 887.50-1009Q931-978 969-942L1075-1069L1141-1069L1141 0M866-545Q866-601 844.50-653.50Q823-706 786-746.50Q749-787 699.50-811.50Q650-836 594-836Q538-836 488.50-817Q439-798 402.50-761Q366-724 345-669.50Q324-615 324-545Q324-475 345-420.50Q366-366 402.50-329Q439-292 488.50-273Q538-254 594-254Q650-254 699.50-278.50Q749-303 786-343.50Q823-384 844.50-436.50Q866-489 866-545Z"/><path id="s73:righteous-regular:54" d="M377 0L104 0L104-1071L170-1071L260-967Q326-1027 409.50-1059.50Q493-1092 584-1092Q682-1092 769-1054.50Q856-1017 921-951.50Q986-886 1023.50-798.50Q1061-711 1061-612L1061 0L788 0L788-612Q788-654 772-691.50Q756-729 728-757Q700-785 663-801Q626-817 584-817Q541-817 503-801Q465-785 437-757Q409-729 393-691.50Q377-654 377-612L377 0Z"/><path id="s73:righteous-regular:52" d="M379 0L104 0L104-1497L379-1497L379 0Z"/><path id="s73:righteous-regular:47" d="M866-545Q866-601 844.50-653.50Q823-706 786-746.50Q749-787 699.50-811.50Q650-836 594-836Q538-836 488.50-817Q439-798 402.50-761Q366-724 345-669.50Q324-615 324-545Q324-478 345-424.50Q366-371 402.50-333Q439-295 488.50-274.50Q538-254 594-254Q650-254 699.50-278.50Q749-303 786-343.50Q823-384 844.50-436.50Q866-489 866-545M1141-135Q1141-22 1098 77Q1055 176 980.50 250Q906 324 806.50 367Q707 410 594 410L457 408L457 135L592 137Q656 137 701 120.50Q746 104 777 75.50Q808 47 826.50 10Q845-27 856-68Q840-42 810-25.50Q780-9 743.50 1.50Q707 12 667.50 16Q628 20 594 20Q481 20 381.50-19Q282-58 207.50-130.50Q133-203 90-308Q47-413 47-545Q47-666 90-770Q133-874 207.50-950Q282-1026 381.50-1069Q481-1112 594-1112Q646-1112 697-1099Q748-1086 796-1063Q844-1040 887.50-1009Q931-978 969-942L1075-1069L1141-1069L1141-135Z"/><path id="s73:righteous-regular:59" d="M692 0L68 0L68-272L692-272Q720-272 740-292Q760-312 760-340Q760-369 740-378Q720-387 692-387L408-387Q337-387 275-414Q213-441 167-487.50Q121-534 94.50-596Q68-658 68-729Q68-800 94.50-862Q121-924 167-970Q213-1016 275-1042.50Q337-1069 408-1069L961-1069L961-797L408-797Q380-797 360-777Q340-757 340-729Q340-700 360-679.50Q380-659 408-659L692-659Q762-659 824-635.50Q886-612 932-570Q978-528 1005-469Q1032-410 1032-340Q1032-269 1005-207.50Q978-146 932-99.50Q886-53 824-26.50Q762 0 692 0Z"/><path id="s73:righteous-regular:53" d="M1466 0L1194 0L1194-680Q1194-708 1183.50-733Q1173-758 1154-777Q1135-796 1110-806.50Q1085-817 1057-817Q1029-817 1004.50-806.50Q980-796 961.50-777Q943-758 932.50-733Q922-708 922-680L922 0L649 0L649-680Q649-708 638.50-733Q628-758 609-777Q590-796 565-806.50Q540-817 512-817Q484-817 459.50-806.50Q435-796 416.50-777Q398-758 387.50-733Q377-708 377-680L377 0L104 0L104-1071L170-1071L244-989Q301-1037 369.50-1063.50Q438-1090 512-1090Q587-1090 658.50-1062Q730-1034 784-965Q809-999 841-1023Q873-1047 908.50-1062Q944-1077 982-1083.50Q1020-1090 1057-1090Q1142-1090 1216.50-1058Q1291-1026 1346.50-970.50Q1402-915 1434-840Q1466-765 1466-680L1466 0Z"/><path id="s73:righteous-regular:42" d="M1176-545Q1176-419 1133-315Q1090-211 1016-136.50Q942-62 842.50-21Q743 20 629 20Q516 20 416.50-22Q317-64 242.50-139Q168-214 125-317.50Q82-421 82-545L82-1497L356-1497L356-997Q378-1025 409.50-1047Q441-1069 477.50-1083Q514-1097 553-1104.50Q592-1112 629-1112Q743-1112 842.50-1069.50Q942-1027 1016-951Q1090-875 1133-771.50Q1176-668 1176-545M901-545Q901-607 879.50-660.50Q858-714 821-753Q784-792 734.50-814Q685-836 629-836Q573-836 523.50-811.50Q474-787 437-746.50Q400-706 379-653.50Q358-601 358-545Q358-483 379-430Q400-377 437-338Q474-299 523.50-276.50Q573-254 629-254Q685-254 734.50-276.50Q784-299 821-338Q858-377 879.50-430Q901-483 901-545Z"/><path id="s73:righteous-regular:46" d="M451 0L178 0L178-799L45-799L45-1071L178-1071L178-1122Q178-1221 215.50-1308Q253-1395 318.50-1459.50Q384-1524 471-1561.50Q558-1599 657-1599L862-1599L862-1327L657-1327Q613-1327 575.50-1311.50Q538-1296 510.50-1268.50Q483-1241 467-1203.50Q451-1166 451-1122L451-1071L786-1071L786-799L451-799L451 0Z"/><path id="s73:righteous-regular:60" d="M641 0Q542 0 455-37.50Q368-75 302.50-140.50Q237-206 199.50-293Q162-380 162-479L162-797L29-797L29-1069L162-1069L162-1497L434-1497L434-1069L848-1069L848-797L434-797L434-479Q434-436 450-398.50Q466-361 494-333Q522-305 560-288.50Q598-272 641-272L848-272L848 0L641 0Z"/><path id="s73:righteous-regular:49" d="M426-1362Q426-1324 411.50-1291Q397-1258 372-1233.50Q347-1209 313.50-1194.50Q280-1180 242-1180Q204-1180 170.50-1194.50Q137-1209 112.50-1233.50Q88-1258 73.50-1291Q59-1324 59-1362Q59-1399 73.50-1432.50Q88-1466 112.50-1490.50Q137-1515 170.50-1529.50Q204-1544 242-1544Q280-1544 313.50-1529.50Q347-1515 372-1490.50Q397-1466 411.50-1432.50Q426-1399 426-1362M379 0L104 0L104-1071L379-1071L379 0Z"/><path id="s73:righteous-regular:65" d="M362 408L362 133L514 135Q554 135 591 122Q628 109 659.50 86Q691 63 715 31.50Q739 0 754-37Q709-18 662.50 1Q616 20 569 20Q470 20 383-15Q296-50 230.50-114.50Q165-179 127.50-271.50Q90-364 90-479L90-1071L362-1071L362-479Q362-422 378.50-379.50Q395-337 423-308.50Q451-280 488.50-266Q526-252 569-252Q611-252 648.50-271.50Q686-291 714-323Q742-355 758-395.50Q774-436 774-479L774-1071L1049-1071L1049-135Q1048-22 1005 77Q962 176 887.50 250Q813 324 714 367Q615 410 502 410L362 408Z"/><path id="s73:righteous-regular:70" d="M440-102Q440-66 427-34.50Q414-3 391 20Q368 43 337 56.50Q306 70 270 70Q235 70 203.50 56.50Q172 43 148.50 20Q125-3 111.50-34.50Q98-66 98-102Q98-137 111.50-168Q125-199 148.50-222Q172-245 203.50-258.50Q235-272 270-272Q306-272 337-258.50Q368-245 391-222Q414-199 427-168Q440-137 440-102Z"/><path id="s73:righteous-regular:64" d="M1090 0L756 0L543-328L328 0L-6 0L385-549L-6-1077L328-1077L543-770L756-1077L1090-1077L698-549L1090 0Z"/><path id="s73:righteous-regular:43" d="M1040-858L840-657Q825-699 799-732.50Q773-766 740.50-789Q708-812 670-824Q632-836 592-836Q536-836 486.50-813Q437-790 400.50-748.50Q364-707 343-650Q322-593 322-524Q322-468 343-419Q364-370 400.50-333Q437-296 486.50-275Q536-254 592-254Q632-254 669-265Q706-276 738.50-296.50Q771-317 796.50-346.50Q822-376 838-412L1038-211Q1000-157 950.50-114Q901-71 843.50-41Q786-11 722.50 4.50Q659 20 592 20Q479 20 379.50-22.50Q280-65 205.50-139Q131-213 88-312Q45-411 45-524Q45-647 88-754Q131-861 205.50-940.50Q280-1020 379.50-1066Q479-1112 592-1112Q659-1112 723.50-1095Q788-1078 846.50-1045.50Q905-1013 954.50-966Q1004-919 1040-858Z"/><path id="s73:righteous-regular:17" d="M420 0L133 0L133-1434L1137-1434L1137-1147L420-1147L420-860L850-860L850-573L420-573L420 0Z"/><path id="s73:righteous-regular:71" d="M440-102Q440-58 431.50-7.50Q423 43 404.50 92.50Q386 142 356.50 186.50Q327 231 285 262L176 186Q204 154 218 125.50Q232 97 240 68Q210 62 184 47Q158 32 139 9.50Q120-13 109-41.50Q98-70 98-102Q98-137 111.50-168Q125-199 148.50-222Q172-245 202.50-258.50Q233-272 268-272Q304-272 335.50-258.50Q367-245 390.50-222Q414-199 427-168Q440-137 440-102Z"/></defs><g id="line-0"><use x="0" y="1754" xlink:href="#s73:righteous-regular:31"/><use x="1184" y="1754" xlink:href="#s73:righteous-regular:48"/><use x="2335" y="1754" xlink:href="#s73:righteous-regular:45"/><use x="3410" y="1754" xlink:href="#s73:righteous-regular:3"/><use x="3983" y="1754" xlink:href="#s73:righteous-regular:16"/><use x="5149" y="1754" xlink:href="#s73:righteous-regular:61"/><use x="6300" y="1754" xlink:href="#s73:righteous-regular:58"/><use x="7128" y="1754" xlink:href="#s73:righteous-regular:55"/><use x="8314" y="1754" xlink:href="#s73:righteous-regular:56"/><use x="9561" y="1754" xlink:href="#s73:righteous-regular:45"/><use x="10628" y="1754" xlink:href="#s73:righteous-regular:41"/><use x="11873" y="1754" xlink:href="#s73:righteous-regular:54"/><use x="13024" y="1754" xlink:href="#s73:righteous-regular:3"/><use x="13597" y="1754" xlink:href="#s73:righteous-regular:52"/><use x="14080" y="1754" xlink:href="#s73:righteous-regular:41"/><use x="15325" y="1754" xlink:href="#s73:righteous-regular:54"/><use x="16476" y="1754" xlink:href="#s73:righteous-regular:47"/><use x="17721" y="1754" xlink:href="#s73:righteous-regular:61"/><use x="18872" y="1754" xlink:href="#s73:righteous-regular:41"/><use x="20117" y="1754" xlink:href="#s73:righteous-regular:47"/><use x="21362" y="1754" xlink:href="#s73:righteous-regular:45"/><use x="22437" y="1754" xlink:href="#s73:righteous-regular:59"/><use x="23510" y="1754" xlink:href="#s73:righteous-regular:3"/><use x="24083" y="1754" xlink:href="#s73:righteous-regular:41"/><use x="25328" y="1754" xlink:href="#s73:righteous-regular:58"/><use x="26156" y="1754" xlink:href="#s73:righteous-regular:45"/><use x="27231" y="1754" xlink:href="#s73:righteous-regular:3"/><use x="27804" y="1754" xlink:href="#s73:righteous-regular:53"/><use x="29365" y="1754" xlink:href="#s73:righteous-regular:45"/><use x="30440" y="1754" xlink:href="#s73:righteous-regular:53"/><use x="31993" y="1754" xlink:href="#s73:righteous-regular:42"/><use x="33216" y="1754" xlink:href="#s73:righteous-regular:45"/><use x="34291" y="1754" xlink:href="#s73:righteous-regular:58"/><use x="35127" y="1754" xlink:href="#s73:righteous-regular:59"/><use x="36200" y="1754" xlink:href="#s73:righteous-regular:3"/><use x="36773" y="1754" xlink:href="#s73:righteous-regular:55"/><use x="37947" y="1754" xlink:href="#s73:righteous-regular:46"/><use x="38758" y="1754" xlink:href="#s73:righteous-regular:3"/><use x="39331" y="1754" xlink:href="#s73:righteous-regular:60"/><use x="40228" y="1754" xlink:href="#s73:righteous-regular:48"/><use x="41379" y="1754" xlink:href="#s73:righteous-regular:45"/><use x="42454" y="1754" xlink:href="#s73:righteous-regular:3"/><use x="43027" y="1754" xlink:href="#s73:righteous-regular:59"/><use x="44100" y="1754" xlink:href="#s73:righteous-regular:41"/><use x="45345" y="1754" xlink:href="#s73:righteous-regular:53"/><use x="46906" y="1754" xlink:href="#s73:righteous-regular:45"/><use x="47981" y="1754" xlink:href="#s73:righteous-regular:3"/><use x="48554" y="1754" xlink:href="#s73:righteous-regular:46"/><use x="49345" y="1754" xlink:href="#s73:righteous-regular:41"/><use x="50590" y="1754" xlink:href="#s73:righteous-regular:53"/><use x="52151" y="1754" xlink:href="#s73:righteous-regular:49"/><use x="52634" y="1754" xlink:href="#s73:righteous-regular:52"/><use x="53117" y="1754" xlink:href="#s73:righteous-regular:65"/><use x="54270" y="1754" xlink:href="#s73:righteous-regular:70"/></g><g id="line-1"><use x="10730.5" y="4211.6" xlink:href="#s73:righteous-regular:31"/><use x="11914.5" y="4211.6" xlink:href="#s73:righteous-regular:48"/><use x="13065.5" y="4211.6" xlink:href="#s73:righteous-regular:45"/><use x="14140.5" y="4211.6" xlink:href="#s73:righteous-regular:49"/><use x="14623.5" y="4211.6" xlink:href="#s73:righteous-regular:58"/><use x="15471.5" y="4211.6" xlink:href="#s73:righteous-regular:3"/><use x="16044.5" y="4211.6" xlink:href="#s73:righteous-regular:59"/><use x="17117.5" y="4211.6" xlink:href="#s73:righteous-regular:45"/><use x="18192.5" y="4211.6" xlink:href="#s73:righteous-regular:56"/><use x="19439.5" y="4211.6" xlink:href="#s73:righteous-regular:41"/><use x="20684.5" y="4211.6" xlink:href="#s73:righteous-regular:58"/><use x="21512.5" y="4211.6" xlink:href="#s73:righteous-regular:41"/><use x="22757.5" y="4211.6" xlink:href="#s73:righteous-regular:60"/><use x="23654.5" y="4211.6" xlink:href="#s73:righteous-regular:45"/><use x="24729.5" y="4211.6" xlink:href="#s73:righteous-regular:3"/><use x="25302.5" y="4211.6" xlink:href="#s73:righteous-regular:45"/><use x="26367.5" y="4211.6" xlink:href="#s73:righteous-regular:64"/><use x="27450.5" y="4211.6" xlink:href="#s73:righteous-regular:49"/><use x="27933.5" y="4211.6" xlink:href="#s73:righteous-regular:59"/><use x="29006.5" y="4211.6" xlink:href="#s73:righteous-regular:60"/><use x="29903.5" y="4211.6" xlink:href="#s73:righteous-regular:45"/><use x="30978.5" y="4211.6" xlink:href="#s73:righteous-regular:54"/><use x="32129.5" y="4211.6" xlink:href="#s73:righteous-regular:43"/><use x="33182.5" y="4211.6" xlink:href="#s73:righteous-regular:45"/><use x="34257.5" y="4211.6" xlink:href="#s73:righteous-regular:3"/><use x="34830.5" y="4211.6" xlink:href="#s73:righteous-regular:49"/><use x="35313.5" y="4211.6" xlink:href="#s73:righteous-regular:59"/><use x="36386.5" y="4211.6" xlink:href="#s73:righteous-regular:3"/><use x="36959.5" y="4211.6" xlink:href="#s73:righteous-regular:41"/><use x="38204.5" y="4211.6" xlink:href="#s73:righteous-regular:3"/><use x="38777.5" y="4211.6" xlink:href="#s73:righteous-regular:53"/><use x="40338.5" y="4211.6" xlink:href="#s73:righteous-regular:65"/><use x="41491.5" y="4211.6" xlink:href="#s73:righteous-regular:60"/><use x="42388.5" y="4211.6" xlink:href="#s73:righteous-regular:48"/><use x="43539.5" y="4211.6" xlink:href="#s73:righteous-regular:70"/></g><g id="line-2"><use x="13343.5" y="6669.2" xlink:href="#s73:righteous-regular:17"/><use x="14369.5" y="6669.2" xlink:href="#s73:righteous-regular:55"/><use x="15555.5" y="6669.2" xlink:href="#s73:righteous-regular:58"/><use x="16403.5" y="6669.2" xlink:href="#s73:righteous-regular:3"/><use x="16976.5" y="6669.2" xlink:href="#s73:righteous-regular:59"/><use x="18049.5" y="6669.2" xlink:href="#s73:righteous-regular:43"/><use x="19118.5" y="6669.2" xlink:href="#s73:righteous-regular:49"/><use x="19601.5" y="6669.2" xlink:href="#s73:righteous-regular:45"/><use x="20676.5" y="6669.2" xlink:href="#s73:righteous-regular:54"/><use x="21827.5" y="6669.2" xlink:href="#s73:righteous-regular:43"/><use x="22880.5" y="6669.2" xlink:href="#s73:righteous-regular:45"/><use x="23955.5" y="6669.2" xlink:href="#s73:righteous-regular:71"/><use x="24496.5" y="6669.2" xlink:href="#s73:righteous-regular:3"/><use x="25069.5" y="6669.2" xlink:href="#s73:righteous-regular:53"/><use x="26630.5" y="6669.2" xlink:href="#s73:righteous-regular:61"/><use x="27781.5" y="6669.2" xlink:href="#s73:righteous-regular:59"/><use x="28854.5" y="6669.2" xlink:href="#s73:righteous-regular:49"/><use x="29337.5" y="6669.2" xlink:href="#s73:righteous-regular:43"/><use x="30406.5" y="6669.2" xlink:href="#s73:righteous-regular:71"/><use x="30947.5" y="6669.2" xlink:href="#s73:righteous-regular:3"/><use x="31520.5" y="6669.2" xlink:href="#s73:righteous-regular:59"/><use x="32593.5" y="6669.2" xlink:href="#s73:righteous-regular:56"/><use x="33840.5" y="6669.2" xlink:href="#s73:righteous-regular:55"/><use x="35026.5" y="6669.2" xlink:href="#s73:righteous-regular:58"/><use x="35874.5" y="6669.2" xlink:href="#s73:righteous-regular:60"/><use x="36771.5" y="6669.2" xlink:href="#s73:righteous-regular:71"/><use x="37312.5" y="6669.2" xlink:href="#s73:righteous-regular:3"/><use x="37885.5" y="6669.2" xlink:href="#s73:righteous-regular:45"/><use x="38960.5" y="6669.2" xlink:href="#s73:righteous-regular:60"/><use x="39857.5" y="6669.2" xlink:href="#s73:righteous-regular:43"/><use x="40926.5" y="6669.2" xlink:href="#s73:righteous-regular:71"/></g></svg>