<svg xmlns="http://www.w3.org/2000/svg" xmlns:xlink="http://www.w3.org/1999/xlink" width="754" height="86" viewBox="0 0 64302 7338.7"><defs><path id="s89:robotomono-thinitalic:54" d="M1230-1402L765-1402L523 0L469 0L713-1402L248-1402L256-1456L1238-1456L1230-1402Z"/><path id="s89:robotomono-thinitalic:74" d="M295-821Q331-879 377.50-930Q424-981 479.50-1019Q535-1057 599-1079.50Q663-1102 734-1102Q823-1102 883.50-1069Q944-1036 978.50-980.50Q1013-925 1022.50-852Q1032-779 1020-700L900 0L845 0L966-700Q977-767 971.50-830.50Q966-894 939-942.50Q912-991 861.50-1020.50Q811-1050 732-1049Q661-1048 589.50-1019.50Q518-991 455.50-943Q393-895 346.50-832.50Q300-770 279-702L158 0L103 0L368-1536L422-1536L295-821Z"/><path id="s89:robotomono-thinitalic:71" d="M536 20Q464 20 404-2Q344-24 297-62Q250-100 217-151.50Q184-203 164.50-262.50Q145-322 139.50-387.50Q134-453 144-518L152-562Q164-628 189-693.50Q214-759 251-819Q288-879 335.50-931Q383-983 440-1021Q497-1059 562-1080.50Q627-1102 700-1102Q796-1102 866-1062.50Q936-1023 979.50-958Q1023-893 1038.50-810Q1054-727 1042-640L1032-577L211-577L208-562L199-518Q184-432 198-345.50Q212-259 255-190Q298-121 368.50-77.50Q439-34 535-33Q638-32 726-72Q814-112 888-181L925-152Q847-71 748.50-25.50Q650 20 536 20M701-1048Q611-1048 535-1012Q459-976 398.50-917.50Q338-859 293.50-784Q249-709 221-631L983-631L986-644Q1001-717 988.50-789.50Q976-862 939.50-919Q903-976 842.50-1012Q782-1048 701-1048Z"/><path id="s89:robotomono-thinitalic:3" d=""/><path id="s89:robotomono-thinitalic:39" d="M945-722L287-722L171-54L919-54L912 0L109 0L361-1456L1162-1456L1155-1402L405-1402L296-776L952-776L945-722Z"/><path id="s89:robotomono-thinitalic:87" d="M831 0L869-193Q797-91 692.50-35.50Q588 20 461 20Q371 20 310-15Q249-50 214.50-108Q180-166 171-240.50Q162-315 174-395L292-1082L346-1082L227-393Q216-327 221.50-262.50Q227-198 254-147.50Q281-97 331-66Q381-35 459-34Q528-34 596-54.50Q664-75 722.50-114Q781-153 825-208.50Q869-264 889-333L1017-1082L1073-1082L887 0L831 0Z"/><path id="s89:robotomono-thinitalic:84" d="M990-1102Q1025-1102 1059.50-1097Q1094-1092 1128-1086L1116-1036Q1084-1041 1052.50-1045Q1021-1049 989-1049Q905-1049 820-1025.50Q735-1002 662-956Q589-910 533.50-843.50Q478-777 453-691L336 0L275 0L461-1082L514-1082L486-894L471-825Q515-892 571.50-944Q628-996 694-1031Q760-1066 835-1084Q910-1102 990-1102Z"/><path id="s89:robotomono-thinitalic:81" d="M129-562Q148-663 194.50-760Q241-857 311.50-933Q382-1009 474.50-1055.50Q567-1102 678-1102Q752-1102 811-1080Q870-1058 914.50-1019.50Q959-981 989.50-928.50Q1020-876 1036.50-816Q1053-756 1056.50-691Q1060-626 1050-562L1043-520Q1025-419 978.50-322Q932-225 861.50-149Q791-73 698.50-26.50Q606 20 495 20Q421 20 362-2Q303-24 258.50-62.50Q214-101 183.50-153.50Q153-206 136-266Q119-326 115.50-391Q112-456 122-520L129-562M176-520Q162-436 173.50-349.50Q185-263 223.50-193Q262-123 329-78.50Q396-34 495-34Q594-34 676.50-76.50Q759-119 822.50-188Q886-257 928-344Q970-431 988-520L996-562Q1005-618 1003-675.50Q1001-733 987.50-787Q974-841 948.50-888.50Q923-936 884.50-971.50Q846-1007 794.50-1027.50Q743-1048 678-1048Q580-1048 497-1005.50Q414-963 350.50-894Q287-825 244.50-738Q202-651 184-562L176-520Z"/><path id="s89:robotomono-thinitalic:82" d="M1007-531Q995-467 974-401Q953-335 921.50-274Q890-213 848.50-159.50Q807-106 754.50-66Q702-26 639-3Q576 20 502 20Q454 20 408 8Q362-4 321.50-26.50Q281-49 247.50-82Q214-115 192-158L91 416L38 416L296-1082L350-1082L315-902Q348-944 389-980.50Q430-1017 477.50-1044Q525-1071 577-1086.50Q629-1102 685-1102Q760-1102 816.50-1078Q873-1054 912-1013.50Q951-973 975-918.50Q999-864 1010-802.50Q1021-741 1020-677Q1019-613 1010-552L1007-531M955-552Q964-604 966-661Q968-718 960.50-773Q953-828 934.50-878Q916-928 883.50-965.50Q851-1003 802-1025.50Q753-1048 686-1048Q623-1048 566-1027.50Q509-1007 459.50-972Q410-937 370-890Q330-843 301-790L206-256Q218-203 246-162Q274-121 313.50-92.50Q353-64 401.50-49Q450-34 503-34Q569-34 625.50-55.50Q682-77 728-113Q774-149 810.50-197Q847-245 875-300Q903-355 922-414Q941-473 952-531L955-552Z"/><path id="s89:robotomono-thinitalic:67" d="M856 0Q854-52 859-101.50Q864-151 874-202Q831-150 778.50-108.50Q726-67 666.50-38.50Q607-10 542 5.50Q477 21 409 20Q346 19 289-1.50Q232-22 191.50-60Q151-98 130.50-152Q110-206 121-274Q131-339 160.50-388.50Q190-438 233.50-474.50Q277-511 330.50-535.50Q384-560 442-575Q500-590 560-596.50Q620-603 676-604L939-604L967-762Q977-831 959.50-884Q942-937 904-973.50Q866-1010 810.50-1029Q755-1048 690-1048Q625-1048 562.50-1031Q500-1014 446.50-980.50Q393-947 353-898Q313-849 294-785L240-787Q259-862 303.50-920.50Q348-979 409-1019Q470-1059 542-1080.50Q614-1102 689-1102Q765-1102 830.50-1079Q896-1056 942-1011.50Q988-967 1009.50-903.50Q1031-840 1020-760L926-218Q918-165 918.50-113.50Q919-62 919-9L918 0L856 0M408-33Q481-31 549.50-49.50Q618-68 678.50-102.50Q739-137 791-185.50Q843-234 884-293L930-549L679-549Q631-549 578-543.50Q525-538 472-526Q419-514 370-494Q321-474 280.50-443Q240-412 212-369.50Q184-327 174-270Q164-215 181-171.50Q198-128 231.50-97.50Q265-67 311.50-50.50Q358-34 408-33Z"/><path id="s89:robotomono-thinitalic:80" d="M294-822Q330-880 376.50-930.50Q423-981 478.50-1019Q534-1057 597.50-1079.50Q661-1102 732-1102Q821-1102 881.50-1069Q942-1036 976-980Q1010-924 1019-851.50Q1028-779 1016-700L897 0L842 0L963-700Q974-767 968.50-830.50Q963-894 936-942.50Q909-991 858.50-1020.50Q808-1050 730-1049Q659-1048 587.50-1019.50Q516-991 454-943Q392-895 345.50-832.50Q299-770 278-702L157 0L102 0L288-1082L343-1082L294-822L294-822Z"/><path id="s89:robotomono-thinitalic:78" d="M393-1536L837-1536L580-54L947-54L940 0L128 0L136-54L525-54L773-1482L385-1482L393-1536Z"/><path id="s89:robotomono-thinitalic:73" d="M164-552Q175-617 196.50-683Q218-749 249.50-810Q281-871 322.50-924.50Q364-978 416.50-1017.50Q469-1057 532-1079.50Q595-1102 670-1102Q721-1102 767-1087.50Q813-1073 852-1046Q891-1019 921.50-981Q952-943 972-897L1006-1082L1061-1082L877-15Q860 74 820.50 155.50Q781 237 721 299Q661 361 581.50 398.50Q502 436 406 436Q303 436 223 386.50Q143 337 88 252L129 218Q177 292 244.50 337.50Q312 383 403 383Q489 383 559 350Q629 317 682 262Q735 207 770.50 135Q806 63 822-15L851-160Q817-120 775.50-87Q734-54 687-30Q640-6 588.50 7Q537 20 484 20Q409 20 353.50-4Q298-28 259-69.50Q220-111 196-165.50Q172-220 161-281.50Q150-343 150.50-407Q151-471 160-531L164-552M215-531Q206-479 204-422Q202-365 209-310Q216-255 234.50-205.50Q253-156 285.50-118Q318-80 366.50-57.50Q415-35 482-34Q541-34 597-50.50Q653-67 702.50-97.50Q752-128 793-170Q834-212 863-262L956-783Q948-839 924-887.50Q900-936 863.50-971.50Q827-1007 778-1027.50Q729-1048 670-1048Q570-1048 493-1003Q416-958 360.50-886.50Q305-815 270-726.50Q235-638 219-552L215-531Z"/><path id="s89:robotomono-thinitalic:85" d="M920-265Q928-309 918-343.50Q908-378 885-405Q862-432 829-452.50Q796-473 759.50-488Q723-503 685-513.50Q647-524 615-532Q576-541 533-552.50Q490-564 449.50-579.50Q409-595 373-617Q337-639 312-669Q287-699 275-738.50Q263-778 271-829Q281-901 324-953Q367-1005 426.50-1038Q486-1071 555.50-1086.50Q625-1102 690-1102Q763-1102 830.50-1084Q898-1066 949-1028Q1000-990 1029.50-932Q1059-874 1056-793L1001-793Q1006-860 980.50-908.50Q955-957 910.50-988Q866-1019 808-1033.50Q750-1048 691-1048Q638-1048 578.50-1036.50Q519-1025 466.50-999.50Q414-974 375.50-932.50Q337-891 325-831Q317-786 327-752.50Q337-719 360-693.50Q383-668 416-650Q449-632 486-618.50Q523-605 560.50-596Q598-587 630-579Q670-569 713.50-556.50Q757-544 797.50-526.50Q838-509 874-485Q910-461 934.50-429Q959-397 970.50-356.50Q982-316 974-264Q963-187 918-133.50Q873-80 810-45.50Q747-11 673.50 4.50Q600 20 533 20Q462 20 392.50 4.50Q323-11 267.50-46.50Q212-82 178-138Q144-194 146-275L200-275Q200-206 229.50-159.50Q259-113 306.50-85Q354-57 413-45.50Q472-34 532-34Q588-34 651-46.50Q714-59 770-86.50Q826-114 867-158Q908-202 920-265Z"/><path id="s89:robotomono-thinitalic:79" d="M215-1082L188-940Q236-1013 304.50-1057Q373-1101 464-1102Q547-1103 599.50-1060.50Q652-1018 661-935Q712-1009 786.50-1055Q861-1101 953-1102Q1021-1102 1063-1076Q1105-1050 1126.50-1007.50Q1148-965 1151.50-910.50Q1155-856 1146-800L1006 0L957 0L1094-800Q1101-844 1101-888.50Q1101-933 1086.50-969Q1072-1005 1040-1027Q1008-1049 952-1048Q899-1048 855.50-1031Q812-1014 776.50-985.50Q741-957 712.50-918.50Q684-880 662-836Q662-832 661.50-828Q661-824 661-820L516 0L467 0L607-820Q614-863 612-904.50Q610-946 594.50-978.50Q579-1011 547-1030Q515-1049 462-1049Q406-1048 358.50-1026.50Q311-1005 273.50-969Q236-933 209-886Q182-839 167-788L28 0L-21 0L166-1082L215-1082Z"/><path id="s89:robotomono-thinitalic:68" d="M1011-531Q999-467 978-401Q957-335 925.50-274Q894-213 852.50-159.50Q811-106 758.50-66Q706-26 643-3Q580 20 506 20Q458 20 412 8Q366-4 325.50-27Q285-50 252-83.50Q219-117 197-160L167 0L114 0L378-1536L432-1536L318-898Q351-941 392-978Q433-1015 480.50-1042.50Q528-1070 580-1086Q632-1102 688-1102Q764-1102 820-1078Q876-1054 915.50-1013.50Q955-973 979-918.50Q1003-864 1014-802.50Q1025-741 1024-677Q1023-613 1014-552L1011-531M958-552Q967-604 969-661Q971-718 964-773Q957-828 938.50-878Q920-928 887.50-965.50Q855-1003 806-1025.50Q757-1048 690-1048Q633-1048 573-1027.50Q513-1007 459.50-971.50Q406-936 364.50-888Q323-840 304-785L210-261Q221-208 249-165.50Q277-123 316-94Q355-65 404-49.50Q453-34 506-34Q573-34 629-55.50Q685-77 731-113Q777-149 814-197Q851-245 878.50-300Q906-355 924.50-414Q943-473 954-531L958-552Z"/><path id="s89:robotomono-thinitalic:72" d="M1050-1027L618-1027L444 0L381 0L561-1027L278-1027L286-1082L571-1082L588-1177Q606-1271 647-1342Q688-1413 748.50-1460.50Q809-1508 887.50-1532.50Q966-1557 1060-1557Q1152-1557 1242-1539L1227-1489Q1186-1497 1145-1500Q1104-1503 1062-1503Q980-1502 911-1482Q842-1462 788-1421.50Q734-1381 697.50-1320Q661-1259 644-1177L627-1082L1057-1082L1050-1027Z"/><path id="s89:robotomono-thinitalic:86" d="M690-1374L639-1082L1017-1082L1009-1027L630-1027L496-259Q487-201 500-159Q513-117 542.50-89.50Q572-62 616-48.50Q660-35 714-34Q755-33 794.50-36Q834-39 874-43L878 9Q838 16 798.50 18.50Q759 21 719 20Q652 19 596.50 2.50Q541-14 503-48Q465-82 447.50-134.50Q430-187 440-259L573-1027L266-1027L273-1082L582-1082L633-1374L690-1374Z"/><path id="s89:robotomono-thinitalic:75" d="M314-1082L754-1082L576-54L947-54L940 0L128 0L136-54L521-54L691-1028L307-1028L314-1082M709-1391Q713-1423 734-1443.50Q755-1464 787-1464Q821-1464 836.50-1442Q852-1420 847-1389Q842-1359 820.50-1338.50Q799-1318 767-1319Q735-1321 719.50-1340.50Q704-1360 709-1391Z"/><path id="s89:robotomono-thinitalic:91" d="M510-74L528-105L1125-1081L1191-1081L423 180Q392 231 354.50 277.50Q317 324 272 359Q227 394 173.50 415.50Q120 437 56 437Q33 437 11.50 434Q-10 431-33 426L-28 375Q-9 378 10 381Q29 384 49 384Q102 384 148.50 367Q195 350 234 320.50Q273 291 306 252Q339 213 365 170L471-7L164-1083L225-1083L510-74Z"/><path id="s89:robotomono-thinitalic:16" d="M476-54Q477-64 483.50-74.50Q490-85 499-93.50Q508-102 519-107Q530-112 541-112Q553-112 563-106.50Q573-101 580-92Q587-83 590.50-72Q594-61 592-50Q588-29 567.50-11.50Q547 6 525 6Q502 5 487-13.50Q472-32 476-54Z"/><path id="s89:robotomono-thinitalic:90" d="M607-603L1053-1081L1127-1080L635-552L980 0L913 0L597-507L124 0L51 0L569-558L241-1083L310-1083L607-603Z"/><path id="s89:robotomono-thinitalic:69" d="M508-34Q579-34 642-55Q705-76 756.50-114.50Q808-153 846.50-207Q885-261 907-327L961-327Q939-250 896-186Q853-122 794-76.50Q735-31 662.50-5.50Q590 20 509 20Q435 20 377.50-2.50Q320-25 277.50-64Q235-103 208-155.50Q181-208 166.50-268Q152-328 150.50-392.50Q149-457 159-520L166-562Q184-661 227-757.50Q270-854 336-930.50Q402-1007 491-1054.50Q580-1102 691-1102Q774-1102 839-1073Q904-1044 948.50-993.50Q993-943 1014-874Q1035-805 1031-725L978-725Q982-794 965-853Q948-912 911-955.50Q874-999 818.50-1023.50Q763-1048 692-1048Q625-1048 567.50-1028.50Q510-1009 461.50-974.50Q413-940 373.50-893.50Q334-847 304-793Q274-739 253-680Q232-621 221-562L213-520Q204-465 203.50-407.50Q203-350 213.50-296Q224-242 246-194.50Q268-147 304-111.50Q340-76 390.50-55Q441-34 508-34Z"/><path id="s89:robotomono-thinitalic:40" d="M957-716L295-716L171 0L119 0L371-1456L1174-1456L1166-1402L414-1402L304-772L965-772L957-716Z"/><path id="s89:robotomono-thinitalic:14" d="M444-27Q414 136 294 255L260 221Q308 166 341.50 106.50Q375 47 389-25L412-159L466-159L444-27Z"/></defs><g id="line-0"><use x="0" y="1868.5" xlink:href="#s89:robotomono-thinitalic:54"/><use x="1202" y="1868.5" xlink:href="#s89:robotomono-thinitalic:74"/><use x="2404" y="1868.5" xlink:href="#s89:robotomono-thinitalic:71"/><use x="3606" y="1868.5" xlink:href="#s89:robotomono-thinitalic:3"/><use x="4808" y="1868.5" xlink:href="#s89:robotomono-thinitalic:39"/><use x="6010" y="1868.5" xlink:href="#s89:robotomono-thinitalic:87"/><use x="7212" y="1868.5" xlink:href="#s89:robotomono-thinitalic:84"/><use x="8414" y="1868.5" xlink:href="#s89:robotomono-thinitalic:81"/><use x="9616" y="1868.5" xlink:href="#s89:robotomono-thinitalic:82"/><use x="10818" y="1868.5" xlink:href="#s89:robotomono-thinitalic:71"/><use x="12020" y="1868.5" xlink:href="#s89:robotomono-thinitalic:67"/><use x="13222" y="1868.5" xlink:href="#s89:robotomono-thinitalic:80"/><use x="14424" y="1868.5" xlink:href="#s89:robotomono-thinitalic:3"/><use x="15626" y="1868.5" xlink:href="#s89:robotomono-thinitalic:78"/><use x="16828" y="1868.5" xlink:href="#s89:robotomono-thinitalic:67"/><use x="18030" y="1868.5" xlink:href="#s89:robotomono-thinitalic:80"/><use x="19232" y="1868.5" xlink:href="#s89:robotomono-thinitalic:73"/><use x="20434" y="1868.5" xlink:href="#s89:robotomono-thinitalic:87"/><use x="21636" y="1868.5" xlink:href="#s89:robotomono-thinitalic:67"/><use x="22838" y="1868.5" xlink:href="#s89:robotomono-thinitalic:73"/><use x="24040" y="1868.5" xlink:href="#s89:robotomono-thinitalic:71"/><use x="25242" y="1868.5" xlink:href="#s89:robotomono-thinitalic:85"/><use x="26444" y="1868.5" xlink:href="#s89:robotomono-thinitalic:3"/><use x="27646" y="1868.5" xlink:href="#s89:robotomono-thinitalic:67"/><use x="28848" y="1868.5" xlink:href="#s89:robotomono-thinitalic:84"/><use x="30050" y="1868.5" xlink:href="#s89:robotomono-thinitalic:71"/><use x="31252" y="1868.5" xlink:href="#s89:robotomono-thinitalic:3"/><use x="32454" y="1868.5" xlink:href="#s89:robotomono-thinitalic:79"/><use x="33656" y="1868.5" xlink:href="#s89:robotomono-thinitalic:71"/><use x="34858" y="1868.5" xlink:href="#s89:robotomono-thinitalic:79"/><use x="36060" y="1868.5" xlink:href="#s89:robotomono-thinitalic:68"/><use x="37262" y="1868.5" xlink:href="#s89:robotomono-thinitalic:71"/><use x="38464" y="1868.5" xlink:href="#s89:robotomono-thinitalic:84"/><use x="39666" y="1868.5" xlink:href="#s89:robotomono-thinitalic:85"/><use x="40868" y="1868.5" xlink:href="#s89:robotomono-thinitalic:3"/><use x="42070" y="1868.5" xlink:href="#s89:robotomono-thinitalic:81"/><use x="43272" y="1868.5" xlink:href="#s89:robotomono-thinitalic:72"/><use x="44475" y="1868.5" xlink:href="#s89:robotomono-thinitalic:3"/><use x="45677" y="1868.5" xlink:href="#s89:robotomono-thinitalic:86"/><use x="46879" y="1868.5" xlink:href="#s89:robotomono-thinitalic:74"/><use x="48081" y="1868.5" xlink:href="#s89:robotomono-thinitalic:71"/><use x="49283" y="1868.5" xlink:href="#s89:robotomono-thinitalic:3"/><use x="50485" y="1868.5" xlink:href="#s89:robotomono-thinitalic:85"/><use x="51687" y="1868.5" xlink:href="#s89:robotomono-thinitalic:67"/><use x="52889" y="1868.5" xlink:href="#s89:robotomono-thinitalic:79"/><use x="54091" y="1868.5" xlink:href="#s89:robotomono-thinitalic:71"/><use x="55293" y="1868.5" xlink:href="#s89:robotomono-thinitalic:3"/><use x="56495" y="1868.5" xlink:href="#s89:robotomono-thinitalic:72"/><use x="57698" y="1868.5" xlink:href="#s89:robotomono-thinitalic:67"/><use x="58900" y="1868.5" xlink:href="#s89:robotomono-thinitalic:79"/><use x="60102" y="1868.5" xlink:href="#s89:robotomono-thinitalic:75"/><use x="61304" y="1868.5" xlink:href="#s89:robotomono-thinitalic:78"/><use x="62506" y="1868.5" xlink:href="#s89:robotomono-thinitalic:91"/><use x="63708" y="1868.5" xlink:href="#s89:robotomono-thinitalic:16"/></g><g id="line-1"><use x="11420" y="4326.1" xlink:href="#s89:robotomono-thinitalic:54"/><use x="12622" y="4326.1" xlink:href="#s89:robotomono-thinitalic:74"/><use x="13824" y="4326.1" xlink:href="#s89:robotomono-thinitalic:71"/><use x="15026" y="4326.1" xlink:href="#s89:robotomono-thinitalic:75"/><use x="16228" y="4326.1" xlink:href="#s89:robotomono-thinitalic:84"/><use x="17430" y="4326.1" xlink:href="#s89:robotomono-thinitalic:3"/><use x="18632" y="4326.1" xlink:href="#s89:robotomono-thinitalic:85"/><use x="19834" y="4326.1" xlink:href="#s89:robotomono-thinitalic:71"/><use x="21036" y="4326.1" xlink:href="#s89:robotomono-thinitalic:82"/><use x="22238" y="4326.1" xlink:href="#s89:robotomono-thinitalic:67"/><use x="23440" y="4326.1" xlink:href="#s89:robotomono-thinitalic:84"/><use x="24642" y="4326.1" xlink:href="#s89:robotomono-thinitalic:67"/><use x="25844" y="4326.1" xlink:href="#s89:robotomono-thinitalic:86"/><use x="27046" y="4326.1" xlink:href="#s89:robotomono-thinitalic:71"/><use x="28248" y="4326.1" xlink:href="#s89:robotomono-thinitalic:3"/><use x="29450" y="4326.1" xlink:href="#s89:robotomono-thinitalic:71"/><use x="30652" y="4326.1" xlink:href="#s89:robotomono-thinitalic:90"/><use x="31854" y="4326.1" xlink:href="#s89:robotomono-thinitalic:75"/><use x="33056" y="4326.1" xlink:href="#s89:robotomono-thinitalic:85"/><use x="34258" y="4326.1" xlink:href="#s89:robotomono-thinitalic:86"/><use x="35460" y="4326.1" xlink:href="#s89:robotomono-thinitalic:71"/><use x="36662" y="4326.1" xlink:href="#s89:robotomono-thinitalic:80"/><use x="37864" y="4326.1" xlink:href="#s89:robotomono-thinitalic:69"/><use x="39066" y="4326.1" xlink:href="#s89:robotomono-thinitalic:71"/><use x="40268" y="4326.1" xlink:href="#s89:robotomono-thinitalic:3"/><use x="41470" y="4326.1" xlink:href="#s89:robotomono-thinitalic:75"/><use x="42672" y="4326.1" xlink:href="#s89:robotomono-thinitalic:85"/><use x="43874" y="4326.1" xlink:href="#s89:robotomono-thinitalic:3"/><use x="45076" y="4326.1" xlink:href="#s89:robotomono-thinitalic:67"/><use x="46278" y="4326.1" xlink:href="#s89:robotomono-thinitalic:3"/><use x="47480" y="4326.1" xlink:href="#s89:robotomono-thinitalic:79"/><use x="48682" y="4326.1" xlink:href="#s89:robotomono-thinitalic:91"/><use x="49884" y="4326.1" xlink:href="#s89:robotomono-thinitalic:86"/><use x="51086" y="4326.1" xlink:href="#s89:robotomono-thinitalic:74"/><use x="52288" y="4326.1" xlink:href="#s89:robotomono-thinitalic:16"/></g><g id="line-2"><use x="13888" y="6783.7" xlink:href="#s89:robotomono-thinitalic:40"/><use x="15090" y="6783.7" xlink:href="#s89:robotomono-thinitalic:81"/><use x="16292" y="6783.7" xlink:href="#s89:robotomono-thinitalic:84"/><use x="17494" y="6783.7" xlink:href="#s89:robotomono-thinitalic:3"/><use x="18696" y="6783.7" xlink:href="#s89:robotomono-thinitalic:85"/><use x="19898" y="6783.7" xlink:href="#s89:robotomono-thinitalic:69"/><use x="21100" y="6783.7" xlink:href="#s89:robotomono-thinitalic:75"/><use x="22302" y="6783.7" xlink:href="#s89:robotomono-thinitalic:71"/><use x="23504" y="6783.7" xlink:href="#s89:robotomono-thinitalic:80"/><use x="24706" y="6783.7" xlink:href="#s89:robotomono-thinitalic:69"/><use x="25908" y="6783.7" xlink:href="#s89:robotomono-thinitalic:71"/><use x="27110" y="6783.7" xlink:href="#s89:robotomono-thinitalic:14"/><use x="28312" y="6783.7" xlink:href="#s89:robotomono-thinitalic:3"/><use x="29514" y="6783.7" xlink:href="#s89:robotomono-thinitalic:79"/><use x="30716" y="6783.7" xlink:href="#s89:robotomono-thinitalic:87"/><use x="31918" y="6783.7" xlink:href="#s89:robotomono-thinitalic:85"/><use x="33120" y="6783.7" xlink:href="#s89:robotomono-thinitalic:75"/><use x="34322" y="6783.7" xlink:href="#s89:robotomono-thinitalic:69"/><use x="35524" y="6783.7" xlink:href="#s89:robotomono-thinitalic:14"/><use x="36726" y="6783.7" xlink:href="#s89:robotomono-thinitalic:3"/><use x="37928" y="6783.7" xlink:href="#s89:robotomono-thinitalic:85"/><use x="39130" y="6783.7" xlink:href="#s89:robotomono-thinitalic:82"/><use x="40332" y="6783.7" xlink:href="#s89:robotomono-thinitalic:81"/><use x="41534" y="6783.7" xlink:href="#s89:robotomono-thinitalic:84"/><use x="42736" y="6783.7" xlink:href="#s89:robotomono-thinitalic:86"/><use x="43938" y="6783.7" xlink:href="#s89:robotomono-thinitalic:14"/><use x="45140" y="6783.7" xlink:href="#s89:robotomono-thinitalic:3"/><use x="46342" y="6783.7" xlink:href="#s89:robotomono-thinitalic:71"/><use x="47544" y="6783.7" xlink:href="#s89:robotomono-thinitalic:86"/><use x="48746" y="6783.7" xlink:href="#s89:robotomono-thinitalic:69"/><use x="49948" y="6783.7" xlink:href="#s89:robotomono-thinitalic:14"/></g></svg>