<svg xmlns="http://www.w3.org/2000/svg" xmlns:xlink="http://www.w3.org/1999/xlink" width="609" height="83" viewBox="0 0 51957 7065.2" ><defs><path id="HJYreo5V6x:roboto-light:56" d="M1172-1351L673-1351L673 0L550 0L550-1351L52-1351L52-1456L1172-1456L1172-1351Z"/><path id="HJYreo5V6x:roboto-light:76" d="M275-899Q334-996 426-1049Q518-1102 627-1102Q801-1102 886-1004Q971-906 972-710L972 0L853 0L853-711Q852-856 791.50-927Q731-998 598-998Q487-998 401.50-928.50Q316-859 275-741L275 0L156 0L156-1536L275-1536L275-899Z"/><path id="HJYreo5V6x:roboto-light:73" d="M575 20Q437 20 325.50-48Q214-116 152-237.50Q90-359 90-510L90-553Q90-709 150.50-834Q211-959 319-1030.50Q427-1102 553-1102Q750-1102 865.50-967.50Q981-833 981-600L981-533L209-533L209-510Q209-326 314.50-203.50Q420-81 580-81Q676-81 749.50-116Q823-151 883-228L958-171Q826 20 575 20M553-1000Q418-1000 325.50-901Q233-802 213-635L862-635L862-648Q857-804 773-902Q689-1000 553-1000Z"/><path id="HJYreo5V6x:roboto-light:4" d=""/><path id="HJYreo5V6x:roboto-light:41" d="M988-698L307-698L307-104L1090-104L1090 0L184 0L184-1456L1085-1456L1085-1351L307-1351L307-802L988-802L988-698Z"/><path id="HJYreo5V6x:roboto-light:89" d="M852-137Q744 20 507 20Q334 20 244-80.50Q154-181 152-378L152-1082L271-1082L271-393Q271-84 521-84Q781-84 850-299L850-1082L970-1082L970 0L854 0L852-137Z"/><path id="HJYreo5V6x:roboto-light:86" d="M656-980Q618-987 575-987Q463-987 385.50-924.50Q308-862 275-743L275 0L156 0L156-1082L273-1082L275-910Q370-1102 580-1102Q630-1102 659-1089L656-980Z"/><path id="HJYreo5V6x:roboto-light:83" d="M90-557Q90-713 150.50-838Q211-963 321.50-1032.50Q432-1102 572-1102Q788-1102 922-950.50Q1056-799 1056-549L1056-524Q1056-367 995.50-241.50Q935-116 825-48Q715 20 574 20Q359 20 224.50-131.50Q90-283 90-533L90-557M210-524Q210-330 310.50-205.50Q411-81 574-81Q736-81 836.50-205.50Q937-330 937-534L937-557Q937-681 891-784Q845-887 762-943.50Q679-1000 572-1000Q412-1000 311-874.50Q210-749 210-546L210-524Z"/><path id="HJYreo5V6x:roboto-light:84" d="M1026-530Q1026-277 914-128.50Q802 20 614 20Q392 20 274-136L274 416L155 416L155-1082L266-1082L272-929Q389-1102 611-1102Q805-1102 915.50-955Q1026-808 1026-547L1026-530M906-551Q906-758 821-878Q736-998 584-998Q474-998 395-945Q316-892 274-791L274-272Q317-179 397-130Q477-81 586-81Q737-81 821.50-201.50Q906-322 906-551Z"/><path id="HJYreo5V6x:roboto-light:69" d="M839 0Q821-51 816-151Q753-69 655.50-24.50Q558 20 449 20Q293 20 196.50-67Q100-154 100-287Q100-445 231.50-537Q363-629 598-629L815-629L815-752Q815-868 743.50-934.50Q672-1001 535-1001Q410-1001 328-937Q246-873 246-783L126-784Q126-913 246-1007.50Q366-1102 541-1102Q722-1102 826.50-1011.50Q931-921 934-759L934-247Q934-90 967-12L967 0L839 0M463-86Q583-86 677.50-144Q772-202 815-299L815-537L601-537Q422-535 321-471.50Q220-408 220-297Q220-206 287.50-146Q355-86 463-86Z"/><path id="HJYreo5V6x:roboto-light:82" d="M270-1082L274-897Q335-997 426-1049.50Q517-1102 627-1102Q801-1102 886-1004Q971-906 972-710L972 0L853 0L853-711Q852-856 791.50-927Q731-998 598-998Q487-998 401.50-928.50Q316-859 275-741L275 0L156 0L156-1082L270-1082Z"/><path id="HJYreo5V6x:roboto-light:80" d="M290 0L170 0L170-1536L290-1536L290 0Z"/><path id="HJYreo5V6x:roboto-light:75" d="M108-551Q108-805 220.50-953.50Q333-1102 526-1102Q747-1102 862-926L868-1082L980-1082L980-22Q980 187 863 309Q746 431 546 431Q433 431 330.50 380.50Q228 330 169 246L236 174Q363 330 538 330Q688 330 772 241.50Q856 153 859-4L859-140Q744 20 524 20Q336 20 222-130Q108-280 108-535L108-551M229-530Q229-323 312-203.50Q395-84 546-84Q767-84 859-282L859-785Q817-889 738-943.50Q659-998 548-998Q397-998 313-879.50Q229-761 229-530Z"/><path id="HJYreo5V6x:roboto-light:87" d="M804-275Q804-364 732.50-418Q661-472 517-502.50Q373-533 293.50-572.50Q214-612 175.50-669Q137-726 137-807Q137-935 244-1018.50Q351-1102 518-1102Q699-1102 808.50-1012.50Q918-923 918-779L798-779Q798-874 718.50-937Q639-1000 518-1000Q400-1000 328.50-947.50Q257-895 257-811Q257-730 316.50-685.50Q376-641 533.50-604Q691-567 769.50-525Q848-483 886-424Q924-365 924-281Q924-144 813.50-62Q703 20 525 20Q336 20 218.50-71.50Q101-163 101-303L221-303Q228-198 309.50-139.50Q391-81 525-81Q650-81 727-136Q804-191 804-275Z"/><path id="HJYreo5V6x:roboto-light:81" d="M265-1082L269-906Q329-1004 419-1053Q509-1102 619-1102Q875-1102 944-892Q1002-993 1099-1047.50Q1196-1102 1313-1102Q1661-1102 1668-722L1668 0L1548 0L1548-713Q1547-858 1485.50-928Q1424-998 1285-998Q1156-996 1067-914.50Q978-833 968-716L968 0L848 0L848-722Q847-861 782.50-929.50Q718-998 584-998Q471-998 390-933.50Q309-869 270-742L270 0L150 0L150-1082L265-1082Z"/><path id="HJYreo5V6x:roboto-light:70" d="M1027-530Q1027-277 915-128.50Q803 20 614 20Q388 20 272-148L267 0L155 0L155-1536L274-1536L274-925Q388-1102 612-1102Q804-1102 915.50-955.50Q1027-809 1027-548L1027-530M907-551Q907-765 824-881.50Q741-998 590-998Q475-998 395-941.50Q315-885 274-776L274-288Q364-84 592-84Q740-84 823.50-201Q907-318 907-551Z"/><path id="HJYreo5V6x:roboto-light:74" d="M242 0L242-984L63-984L63-1082L242-1082L242-1213Q242-1379 326.50-1468Q411-1557 562-1557Q630-1557 689-1540L680-1440Q630-1452 571-1452Q472-1452 417-1390.50Q362-1329 362-1216L362-1082L620-1082L620-984L362-984L362 0L242 0Z"/><path id="HJYreo5V6x:roboto-light:88" d="M342-1359L342-1082L566-1082L566-984L342-984L342-263Q342-173 374.50-129Q407-85 483-85Q513-85 580-95L585 3Q538 20 457 20Q334 20 278-51.50Q222-123 222-262L222-984L23-984L23-1082L222-1082L222-1359L342-1359Z"/><path id="HJYreo5V6x:roboto-light:77" d="M290 0L170 0L170-1082L290-1082L290 0M149-1395Q149-1429 171-1452.50Q193-1476 231-1476Q269-1476 291.50-1452.50Q314-1429 314-1395Q314-1361 291.50-1338Q269-1315 231-1315Q193-1315 171-1338Q149-1361 149-1395Z"/><path id="HJYreo5V6x:roboto-light:93" d="M499-172L815-1082L944-1082L482 184L458 240Q369 437 183 437Q140 437 91 423L90 324L152 330Q240 330 294.50 286.50Q349 243 387 137L440-9L32-1082L163-1082L499-172Z"/><path id="HJYreo5V6x:roboto-light:18" d="M145-72Q145-107 167.50-131.50Q190-156 230-156Q270-156 293-131.50Q316-107 316-72Q316-37 293-14.50Q270 8 230 8Q190 8 167.50-14.50Q145-37 145-72Z"/><path id="HJYreo5V6x:roboto-light:92" d="M496-643L788-1082L930-1082L563-551L946 0L805 0L497-458L189 0L48 0L430-551L63-1082L204-1082L496-643Z"/><path id="HJYreo5V6x:roboto-light:71" d="M556-81Q681-81 765.50-151.50Q850-222 857-334L972-334Q967-235 910-153.50Q853-72 758.50-26Q664 20 556 20Q343 20 218.50-128Q94-276 94-526L94-562Q94-722 150-845Q206-968 310.50-1035Q415-1102 555-1102Q733-1102 848.50-996Q964-890 972-717L857-717Q849-844 765.50-922Q682-1000 555-1000Q393-1000 303.50-883Q214-766 214-555L214-520Q214-313 303.50-197Q393-81 556-81Z"/><path id="HJYreo5V6x:roboto-light:42" d="M986-680L307-680L307 0L184 0L184-1456L1086-1456L1086-1351L307-1351L307-785L986-785L986-680Z"/><path id="HJYreo5V6x:roboto-light:16" d="M131 272L60 220Q151 98 154-33L154-188L271-188L271-63Q271 145 131 272Z"/></defs><g id="line-0"><use x="0" y="1650" xlink:href="#HJYreo5V6x:roboto-light:56" /><use x="1223" y="1650" xlink:href="#HJYreo5V6x:roboto-light:76" /><use x="2347" y="1650" xlink:href="#HJYreo5V6x:roboto-light:73" /><use x="3405" y="1650" xlink:href="#HJYreo5V6x:roboto-light:4" /><use x="3903" y="1650" xlink:href="#HJYreo5V6x:roboto-light:41" /><use x="5051" y="1650" xlink:href="#HJYreo5V6x:roboto-light:89" /><use x="6176" y="1650" xlink:href="#HJYreo5V6x:roboto-light:86" /><use x="6845" y="1650" xlink:href="#HJYreo5V6x:roboto-light:83" /><use x="7992" y="1650" xlink:href="#HJYreo5V6x:roboto-light:84" /><use x="9127" y="1650" xlink:href="#HJYreo5V6x:roboto-light:73" /><use x="10185" y="1650" xlink:href="#HJYreo5V6x:roboto-light:69" /><use x="11282" y="1650" xlink:href="#HJYreo5V6x:roboto-light:82" /><use x="12407" y="1650" xlink:href="#HJYreo5V6x:roboto-light:4" /><use x="12905" y="1650" xlink:href="#HJYreo5V6x:roboto-light:80" /><use x="13364" y="1650" xlink:href="#HJYreo5V6x:roboto-light:69" /><use x="14461" y="1650" xlink:href="#HJYreo5V6x:roboto-light:82" /><use x="15586" y="1650" xlink:href="#HJYreo5V6x:roboto-light:75" /><use x="16722" y="1650" xlink:href="#HJYreo5V6x:roboto-light:89" /><use x="17847" y="1650" xlink:href="#HJYreo5V6x:roboto-light:69" /><use x="18944" y="1650" xlink:href="#HJYreo5V6x:roboto-light:75" /><use x="20080" y="1650" xlink:href="#HJYreo5V6x:roboto-light:73" /><use x="21138" y="1650" xlink:href="#HJYreo5V6x:roboto-light:87" /><use x="22175" y="1650" xlink:href="#HJYreo5V6x:roboto-light:4" /><use x="22673" y="1650" xlink:href="#HJYreo5V6x:roboto-light:69" /><use x="23770" y="1650" xlink:href="#HJYreo5V6x:roboto-light:86" /><use x="24440" y="1650" xlink:href="#HJYreo5V6x:roboto-light:73" /><use x="25498" y="1650" xlink:href="#HJYreo5V6x:roboto-light:4" /><use x="25996" y="1650" xlink:href="#HJYreo5V6x:roboto-light:81" /><use x="27811" y="1650" xlink:href="#HJYreo5V6x:roboto-light:73" /><use x="28869" y="1650" xlink:href="#HJYreo5V6x:roboto-light:81" /><use x="30684" y="1650" xlink:href="#HJYreo5V6x:roboto-light:70" /><use x="31819" y="1650" xlink:href="#HJYreo5V6x:roboto-light:73" /><use x="32877" y="1650" xlink:href="#HJYreo5V6x:roboto-light:86" /><use x="33566" y="1650" xlink:href="#HJYreo5V6x:roboto-light:87" /><use x="34603" y="1650" xlink:href="#HJYreo5V6x:roboto-light:4" /><use x="35101" y="1650" xlink:href="#HJYreo5V6x:roboto-light:83" /><use x="36248" y="1650" xlink:href="#HJYreo5V6x:roboto-light:74" /><use x="36926" y="1650" xlink:href="#HJYreo5V6x:roboto-light:4" /><use x="37424" y="1650" xlink:href="#HJYreo5V6x:roboto-light:88" /><use x="38082" y="1650" xlink:href="#HJYreo5V6x:roboto-light:76" /><use x="39206" y="1650" xlink:href="#HJYreo5V6x:roboto-light:73" /><use x="40264" y="1650" xlink:href="#HJYreo5V6x:roboto-light:4" /><use x="40762" y="1650" xlink:href="#HJYreo5V6x:roboto-light:87" /><use x="41799" y="1650" xlink:href="#HJYreo5V6x:roboto-light:69" /><use x="42896" y="1650" xlink:href="#HJYreo5V6x:roboto-light:81" /><use x="44711" y="1650" xlink:href="#HJYreo5V6x:roboto-light:73" /><use x="45769" y="1650" xlink:href="#HJYreo5V6x:roboto-light:4" /><use x="46267" y="1650" xlink:href="#HJYreo5V6x:roboto-light:74" /><use x="46945" y="1650" xlink:href="#HJYreo5V6x:roboto-light:69" /><use x="48042" y="1650" xlink:href="#HJYreo5V6x:roboto-light:81" /><use x="49857" y="1650" xlink:href="#HJYreo5V6x:roboto-light:77" /><use x="50316" y="1650" xlink:href="#HJYreo5V6x:roboto-light:80" /><use x="50775" y="1650" xlink:href="#HJYreo5V6x:roboto-light:93" /><use x="51641" y="1650" xlink:href="#HJYreo5V6x:roboto-light:18" /></g><g id="line-1"><use x="10571" y="4107.6" xlink:href="#HJYreo5V6x:roboto-light:56" /><use x="11794" y="4107.6" xlink:href="#HJYreo5V6x:roboto-light:76" /><use x="12918" y="4107.6" xlink:href="#HJYreo5V6x:roboto-light:73" /><use x="13976" y="4107.6" xlink:href="#HJYreo5V6x:roboto-light:77" /><use x="14435" y="4107.6" xlink:href="#HJYreo5V6x:roboto-light:86" /><use x="15124" y="4107.6" xlink:href="#HJYreo5V6x:roboto-light:4" /><use x="15622" y="4107.6" xlink:href="#HJYreo5V6x:roboto-light:87" /><use x="16659" y="4107.6" xlink:href="#HJYreo5V6x:roboto-light:73" /><use x="17717" y="4107.6" xlink:href="#HJYreo5V6x:roboto-light:84" /><use x="18852" y="4107.6" xlink:href="#HJYreo5V6x:roboto-light:69" /><use x="19949" y="4107.6" xlink:href="#HJYreo5V6x:roboto-light:86" /><use x="20598" y="4107.6" xlink:href="#HJYreo5V6x:roboto-light:69" /><use x="21695" y="4107.6" xlink:href="#HJYreo5V6x:roboto-light:88" /><use x="22353" y="4107.6" xlink:href="#HJYreo5V6x:roboto-light:73" /><use x="23411" y="4107.6" xlink:href="#HJYreo5V6x:roboto-light:4" /><use x="23909" y="4107.6" xlink:href="#HJYreo5V6x:roboto-light:73" /><use x="24967" y="4107.6" xlink:href="#HJYreo5V6x:roboto-light:92" /><use x="25963" y="4107.6" xlink:href="#HJYreo5V6x:roboto-light:77" /><use x="26422" y="4107.6" xlink:href="#HJYreo5V6x:roboto-light:87" /><use x="27459" y="4107.6" xlink:href="#HJYreo5V6x:roboto-light:88" /><use x="28117" y="4107.6" xlink:href="#HJYreo5V6x:roboto-light:73" /><use x="29175" y="4107.6" xlink:href="#HJYreo5V6x:roboto-light:82" /><use x="30300" y="4107.6" xlink:href="#HJYreo5V6x:roboto-light:71" /><use x="31355" y="4107.6" xlink:href="#HJYreo5V6x:roboto-light:73" /><use x="32413" y="4107.6" xlink:href="#HJYreo5V6x:roboto-light:4" /><use x="32911" y="4107.6" xlink:href="#HJYreo5V6x:roboto-light:77" /><use x="33370" y="4107.6" xlink:href="#HJYreo5V6x:roboto-light:87" /><use x="34407" y="4107.6" xlink:href="#HJYreo5V6x:roboto-light:4" /><use x="34905" y="4107.6" xlink:href="#HJYreo5V6x:roboto-light:69" /><use x="36002" y="4107.6" xlink:href="#HJYreo5V6x:roboto-light:4" /><use x="36500" y="4107.6" xlink:href="#HJYreo5V6x:roboto-light:81" /><use x="38315" y="4107.6" xlink:href="#HJYreo5V6x:roboto-light:93" /><use x="39288" y="4107.6" xlink:href="#HJYreo5V6x:roboto-light:88" /><use x="39946" y="4107.6" xlink:href="#HJYreo5V6x:roboto-light:76" /><use x="41070" y="4107.6" xlink:href="#HJYreo5V6x:roboto-light:18" /></g><g id="line-2"><use x="12888" y="6565.2" xlink:href="#HJYreo5V6x:roboto-light:42" /><use x="14019" y="6565.2" xlink:href="#HJYreo5V6x:roboto-light:83" /><use x="15166" y="6565.2" xlink:href="#HJYreo5V6x:roboto-light:86" /><use x="15855" y="6565.2" xlink:href="#HJYreo5V6x:roboto-light:4" /><use x="16353" y="6565.2" xlink:href="#HJYreo5V6x:roboto-light:87" /><use x="17390" y="6565.2" xlink:href="#HJYreo5V6x:roboto-light:71" /><use x="18445" y="6565.2" xlink:href="#HJYreo5V6x:roboto-light:77" /><use x="18904" y="6565.2" xlink:href="#HJYreo5V6x:roboto-light:73" /><use x="19962" y="6565.2" xlink:href="#HJYreo5V6x:roboto-light:82" /><use x="21087" y="6565.2" xlink:href="#HJYreo5V6x:roboto-light:71" /><use x="22142" y="6565.2" xlink:href="#HJYreo5V6x:roboto-light:73" /><use x="23200" y="6565.2" xlink:href="#HJYreo5V6x:roboto-light:16" /><use x="23592" y="6565.2" xlink:href="#HJYreo5V6x:roboto-light:4" /><use x="24090" y="6565.2" xlink:href="#HJYreo5V6x:roboto-light:81" /><use x="25905" y="6565.2" xlink:href="#HJYreo5V6x:roboto-light:89" /><use x="27030" y="6565.2" xlink:href="#HJYreo5V6x:roboto-light:87" /><use x="28067" y="6565.2" xlink:href="#HJYreo5V6x:roboto-light:77" /><use x="28526" y="6565.2" xlink:href="#HJYreo5V6x:roboto-light:71" /><use x="29581" y="6565.2" xlink:href="#HJYreo5V6x:roboto-light:16" /><use x="29973" y="6565.2" xlink:href="#HJYreo5V6x:roboto-light:4" /><use x="30471" y="6565.2" xlink:href="#HJYreo5V6x:roboto-light:87" /><use x="31508" y="6565.2" xlink:href="#HJYreo5V6x:roboto-light:84" /><use x="32643" y="6565.2" xlink:href="#HJYreo5V6x:roboto-light:83" /><use x="33790" y="6565.2" xlink:href="#HJYreo5V6x:roboto-light:86" /><use x="34479" y="6565.2" xlink:href="#HJYreo5V6x:roboto-light:88" /><use x="35137" y="6565.2" xlink:href="#HJYreo5V6x:roboto-light:16" /><use x="35529" y="6565.2" xlink:href="#HJYreo5V6x:roboto-light:4" /><use x="36027" y="6565.2" xlink:href="#HJYreo5V6x:roboto-light:73" /><use x="37085" y="6565.2" xlink:href="#HJYreo5V6x:roboto-light:88" /><use x="37743" y="6565.2" xlink:href="#HJYreo5V6x:roboto-light:71" /><use x="38798" y="6565.2" xlink:href="#HJYreo5V6x:roboto-light:16" /></g></svg>