<svg xmlns="http://www.w3.org/2000/svg" xmlns:xlink="http://www.w3.org/1999/xlink" width="656" height="86" viewBox="0 0 55977 7338.7"><defs><path id="s90:robotoslab-bold:54" d="M1338-1456L1338-1068L1114-1068L1102-1231L834-1231L834-205L990-175L990 0L386 0L386-175L542-205L542-1231L275-1231L263-1068L40-1068L40-1456L1338-1456Z"/><path id="s90:robotoslab-bold:74" d="M47-175L188-205L188-1354L32-1384L32-1560L479-1560L479-944Q530-1019 604-1060.50Q678-1102 768-1102Q938-1102 1034.50-989.50Q1131-877 1131-642L1131-205L1271-175L1271 0L713 0L713-175L839-205L839-644Q839-770 794.50-822.50Q750-875 662-875Q601-875 555.50-853Q510-831 479-791L479-205L605-175L605 0L47 0L47-175Z"/><path id="s90:robotoslab-bold:71" d="M581 21Q347 21 207-129Q67-279 67-510L67-550Q67-791 199.50-947Q332-1103 555-1102Q774-1102 895-970Q1016-838 1016-613L1016-454L370-454L368-448Q376-341 439.50-272Q503-203 612-203Q709-203 773-222.50Q837-242 913-284L992-104Q925-51 818.50-15Q712 21 581 21M555-877Q474-877 427-815Q380-753 369-652L372-647L730-647L730-673Q730-766 686.50-821.50Q643-877 555-877Z"/><path id="s90:robotoslab-bold:3" d=""/><path id="s90:robotoslab-bold:39" d="M996-640L503-640L503-224L973-224L986-398L1208-398L1208 0L56 0L56-175L211-205L211-1250L56-1280L56-1456L211-1456L1206-1456L1206-1057L982-1057L969-1231L503-1231L503-865L996-865L996-640Z"/><path id="s90:robotoslab-bold:87" d="M820-137Q768-61 691.50-20Q615 21 517 21Q346 21 249-88.50Q152-198 152-429L152-876L33-906L33-1082L152-1082L444-1082L444-427Q444-309 483.50-257.50Q523-206 601-206Q670-206 720.50-228.50Q771-251 803-293L803-876L675-906L675-1082L803-1082L1095-1082L1095-205L1226-175L1226 0L839 0L820-137Z"/><path id="s90:robotoslab-bold:84" d="M85-175L225-205L225-876L70-906L70-1082L497-1082L510-924Q548-1008 608-1055Q668-1102 747-1102Q770-1102 795.50-1098.50Q821-1095 838-1090L807-824L687-827Q623-827 581-802Q539-777 517-731L517-205L657-175L657 0L85 0L85-175Z"/><path id="s90:robotoslab-bold:81" d="M63-551Q63-793 198.50-947.50Q334-1102 573-1102Q813-1102 948.50-948Q1084-794 1084-551L1084-530Q1084-286 948.50-132.50Q813 21 575 21Q334 21 198.50-132.50Q63-286 63-530L63-551M355-530Q355-382 407-292.50Q459-203 575-203Q688-203 740.50-293Q793-383 793-530L793-551Q793-695 740-786Q687-877 573-877Q459-877 407-786Q355-695 355-551L355-530Z"/><path id="s90:robotoslab-bold:82" d="M41-906L41-1082L465-1082L479-956Q527-1026 594-1064Q661-1102 750-1102Q951-1102 1062-945Q1173-788 1173-532L1173-511Q1173-271 1062-125Q951 21 752 21Q667 21 601-10.50Q535-42 488-103L488 210L629 240L629 416L56 416L56 240L197 210L197-876L41-906M881-532Q881-685 830-780Q779-875 674-875Q608-875 561.50-848Q515-821 488-771L488-297Q515-251 561.50-227Q608-203 676-203Q782-203 831.50-286Q881-369 881-511L881-532Z"/><path id="s90:robotoslab-bold:67" d="M752 0Q740-27 731-55.50Q722-84 717-113Q665-53 590.50-16Q516 21 420 21Q261 21 167.50-65.50Q74-152 74-301Q74-453 196-536Q318-619 554-619L703-619L703-725Q703-803 658-846Q613-889 525-889Q475-889 436-877.50Q397-866 373-850L354-734L134-734L135-974Q215-1028 318.50-1065Q422-1102 544-1102Q745-1102 870.50-1003.50Q996-905 996-723L996-276Q996-251 996.50-229Q997-207 1000-187L1089-175L1089 0L752 0M499-195Q565-195 619-223.50Q673-252 703-295L703-460L554-460Q461-460 413-416.50Q365-373 365-312Q365-257 400.50-226Q436-195 499-195Z"/><path id="s90:robotoslab-bold:80" d="M47-175L187-205L187-876L32-906L32-1082L459-1082L472-927Q526-1010 605-1056Q684-1102 782-1102Q946-1102 1038-999Q1130-896 1130-676L1130-205L1270-175L1270 0L712 0L712-175L837-205L837-675Q837-784 793-829.50Q749-875 660-875Q602-875 556-851.50Q510-828 479-785L479-205L597-175L597 0L47 0L47-175Z"/><path id="s90:robotoslab-bold:78" d="M32-1384L32-1560L480-1560L480-205L621-175L621 0L47 0L47-175L188-205L188-1354L32-1384Z"/><path id="s90:robotoslab-bold:73" d="M81-532Q81-788 192.50-945Q304-1102 505-1102Q596-1102 665-1061.50Q734-1021 783-946L804-1082L1058-1082L1058-32Q1058 182 923.50 309.50Q789 437 554 437Q472 437 380 414.50Q288 392 210 353L264 148Q334 178 404 195.50Q474 213 552 213Q659 213 712 148Q765 83 765-33L765-104Q717-43 652-11Q587 21 503 21Q304 21 192.50-125.50Q81-272 81-511L81-532M373-511Q373-369 421-287.50Q469-206 577-206Q644-206 690.50-230.50Q737-255 765-302L765-772Q737-821 690.50-848Q644-875 579-875Q472-875 422.50-780Q373-685 373-532L373-511Z"/><path id="s90:robotoslab-bold:85" d="M946-710L750-710L719-845Q689-869 643.50-885Q598-901 543-901Q466-901 421-866.50Q376-832 376-780Q376-731 419-698.50Q462-666 591-641Q792-601 889-523.50Q986-446 986-310Q986-164 860.50-71.50Q735 21 530 21Q405 21 300.50-15.50Q196-52 115-120L112-363L316-363L356-222Q382-200 427-189.50Q472-179 521-179Q610-179 656.50-211Q703-243 703-298Q703-346 656-381Q609-416 483-443Q292-482 194.50-558.50Q97-635 97-767Q97-903 209-1001.50Q321-1100 528-1100Q654-1100 766.50-1066Q879-1032 943-979L946-710Z"/><path id="s90:robotoslab-bold:79" d="M29-906L29-1082L456-1082L468-939Q520-1017 598.50-1059.50Q677-1102 780-1102Q884-1102 958-1056Q1032-1010 1070-917Q1120-1004 1200-1053Q1280-1102 1388-1102Q1548-1102 1640.50-991.50Q1733-881 1733-655L1733-205L1874-175L1874 0L1315 0L1315-175L1441-205L1441-656Q1441-779 1401-827Q1361-875 1282-875Q1220-875 1174.50-847.50Q1129-820 1102-771Q1102-752 1103-738.50Q1104-725 1104-711L1104-205L1222-175L1222 0L695 0L695-175L813-205L813-656Q813-776 773-825.50Q733-875 653-875Q594-875 549.50-852.50Q505-830 476-789L476-205L602-175L602 0L44 0L44-175L185-205L185-876L29-906Z"/><path id="s90:robotoslab-bold:68" d="M1109-511Q1109-269 1001-124Q893 21 689 21Q594 21 524-18.50Q454-58 406-133L385 0L133 0L133-1354L-22-1384L-22-1560L424-1560L424-967Q471-1032 536.50-1067Q602-1102 687-1102Q893-1102 1001-946.50Q1109-791 1109-532L1109-511M818-532Q818-690 771.50-782.50Q725-875 613-875Q545-875 498-846.50Q451-818 424-765L424-308Q451-258 498.50-232Q546-206 615-206Q728-206 773-285.50Q818-365 818-511L818-532Z"/><path id="s90:robotoslab-bold:72" d="M79-175L220-205L220-877L59-877L59-1082L220-1082L220-1202Q220-1384 325-1482.50Q430-1581 620-1581Q657-1581 695.50-1575.50Q734-1570 780-1560L755-1343Q731-1347 708.50-1350Q686-1353 656-1353Q585-1353 548.50-1314Q512-1275 512-1202L512-1082L727-1082L727-877L512-877L512-205L653-175L653 0L79 0L79-175Z"/><path id="s90:robotoslab-bold:86" d="M494-1347L494-1082L684-1082L684-877L494-877L494-326Q494-263 520-236Q546-209 590-209Q620-209 642.50-211.50Q665-214 693-220L718-9Q669 6 621 13.50Q573 21 517 21Q366 21 284.50-62Q203-145 203-325L203-877L44-877L44-1082L203-1082L203-1347L494-1347Z"/><path id="s90:robotoslab-bold:75" d="M54-175L195-205L195-876L39-906L39-1082L487-1082L487-205L627-175L627 0L54 0L54-175M487-1341L195-1341L195-1560L487-1560L487-1341Z"/><path id="s90:robotoslab-bold:91" d="M1183-906L1082-891L684 162Q637 279 558.50 358Q480 437 322 437Q285 437 252.50 431Q220 425 176 414L210 201Q224 203 239 205Q254 207 265 207Q338 207 377 171.50Q416 136 437 83L470 1L127-890L26-906L26-1082L556-1082L556-906L435-886L583-454L598-376L604-375L775-886L653-906L653-1082L1183-1082L1183-906Z"/><path id="s90:robotoslab-bold:16" d="M420 0L129 0L129-256L420-256L420 0Z"/><path id="s90:robotoslab-bold:90" d="M32-175L133-191L427-547L143-889L42-906L42-1082L529-1082L529-913L430-901L594-693L755-901L654-913L654-1082L1143-1082L1143-906L1045-889L767-547L1060-191L1162-175L1162 0L667 0L667-168L766-180L598-398L427-179L514-168L514 0L32 0L32-175Z"/><path id="s90:robotoslab-bold:69" d="M571-203Q649-203 696-248.50Q743-294 743-370L1007-370L1010-364Q1014-200 887-89.50Q760 21 571 21Q329 21 198-132Q67-285 67-525L67-555Q67-794 201.50-948Q336-1102 585-1102Q716-1102 820-1063Q924-1024 993-953L997-664L760-664L712-833Q690-852 658-864.50Q626-877 585-877Q461-877 410-787Q359-697 359-555L359-525Q359-380 406-291.50Q453-203 571-203Z"/><path id="s90:robotoslab-bold:40" d="M56-175L211-205L211-1250L56-1280L56-1456L1215-1456L1215-1057L991-1057L978-1231L503-1231L503-830L1013-830L1013-605L503-605L503-205L659-175L659 0L56 0L56-175Z"/><path id="s90:robotoslab-bold:14" d="M400-39Q400 63 342.50 177Q285 291 202 364L58 286Q97 216 118 141.50Q139 67 139-25L139-243L401-243L400-39Z"/></defs><g id="line-0"><use x="0" y="1868.5" xlink:href="#s90:robotoslab-bold:54"/><use x="1377" y="1868.5" xlink:href="#s90:robotoslab-bold:74"/><use x="2669" y="1868.5" xlink:href="#s90:robotoslab-bold:71"/><use x="3760" y="1868.5" xlink:href="#s90:robotoslab-bold:3"/><use x="4262" y="1868.5" xlink:href="#s90:robotoslab-bold:39"/><use x="5553" y="1868.5" xlink:href="#s90:robotoslab-bold:87"/><use x="6831" y="1868.5" xlink:href="#s90:robotoslab-bold:84"/><use x="7673" y="1868.5" xlink:href="#s90:robotoslab-bold:81"/><use x="8821" y="1868.5" xlink:href="#s90:robotoslab-bold:82"/><use x="10061" y="1868.5" xlink:href="#s90:robotoslab-bold:71"/><use x="11152" y="1868.5" xlink:href="#s90:robotoslab-bold:67"/><use x="12277" y="1868.5" xlink:href="#s90:robotoslab-bold:80"/><use x="13577" y="1868.5" xlink:href="#s90:robotoslab-bold:3"/><use x="14079" y="1868.5" xlink:href="#s90:robotoslab-bold:78"/><use x="14732" y="1868.5" xlink:href="#s90:robotoslab-bold:67"/><use x="15857" y="1868.5" xlink:href="#s90:robotoslab-bold:80"/><use x="17147" y="1868.5" xlink:href="#s90:robotoslab-bold:73"/><use x="18317" y="1868.5" xlink:href="#s90:robotoslab-bold:87"/><use x="19595" y="1868.5" xlink:href="#s90:robotoslab-bold:67"/><use x="20720" y="1868.5" xlink:href="#s90:robotoslab-bold:73"/><use x="21890" y="1868.5" xlink:href="#s90:robotoslab-bold:71"/><use x="22981" y="1868.5" xlink:href="#s90:robotoslab-bold:85"/><use x="24035" y="1868.5" xlink:href="#s90:robotoslab-bold:3"/><use x="24537" y="1868.5" xlink:href="#s90:robotoslab-bold:67"/><use x="25662" y="1868.5" xlink:href="#s90:robotoslab-bold:84"/><use x="26505" y="1868.5" xlink:href="#s90:robotoslab-bold:71"/><use x="27596" y="1868.5" xlink:href="#s90:robotoslab-bold:3"/><use x="28098" y="1868.5" xlink:href="#s90:robotoslab-bold:79"/><use x="29993" y="1868.5" xlink:href="#s90:robotoslab-bold:71"/><use x="31084" y="1868.5" xlink:href="#s90:robotoslab-bold:79"/><use x="32989" y="1868.5" xlink:href="#s90:robotoslab-bold:68"/><use x="34170" y="1868.5" xlink:href="#s90:robotoslab-bold:71"/><use x="35261" y="1868.5" xlink:href="#s90:robotoslab-bold:84"/><use x="36123" y="1868.5" xlink:href="#s90:robotoslab-bold:85"/><use x="37177" y="1868.5" xlink:href="#s90:robotoslab-bold:3"/><use x="37679" y="1868.5" xlink:href="#s90:robotoslab-bold:81"/><use x="38827" y="1868.5" xlink:href="#s90:robotoslab-bold:72"/><use x="39589" y="1868.5" xlink:href="#s90:robotoslab-bold:3"/><use x="40091" y="1868.5" xlink:href="#s90:robotoslab-bold:86"/><use x="40855" y="1868.5" xlink:href="#s90:robotoslab-bold:74"/><use x="42147" y="1868.5" xlink:href="#s90:robotoslab-bold:71"/><use x="43238" y="1868.5" xlink:href="#s90:robotoslab-bold:3"/><use x="43740" y="1868.5" xlink:href="#s90:robotoslab-bold:85"/><use x="44794" y="1868.5" xlink:href="#s90:robotoslab-bold:67"/><use x="45919" y="1868.5" xlink:href="#s90:robotoslab-bold:79"/><use x="47814" y="1868.5" xlink:href="#s90:robotoslab-bold:71"/><use x="48905" y="1868.5" xlink:href="#s90:robotoslab-bold:3"/><use x="49407" y="1868.5" xlink:href="#s90:robotoslab-bold:72"/><use x="50169" y="1868.5" xlink:href="#s90:robotoslab-bold:67"/><use x="51294" y="1868.5" xlink:href="#s90:robotoslab-bold:79"/><use x="53199" y="1868.5" xlink:href="#s90:robotoslab-bold:75"/><use x="53859" y="1868.5" xlink:href="#s90:robotoslab-bold:78"/><use x="54512" y="1868.5" xlink:href="#s90:robotoslab-bold:91"/><use x="55557" y="1868.5" xlink:href="#s90:robotoslab-bold:16"/></g><g id="line-1"><use x="11050" y="4326.1" xlink:href="#s90:robotoslab-bold:54"/><use x="12427" y="4326.1" xlink:href="#s90:robotoslab-bold:74"/><use x="13719" y="4326.1" xlink:href="#s90:robotoslab-bold:71"/><use x="14810" y="4326.1" xlink:href="#s90:robotoslab-bold:75"/><use x="15470" y="4326.1" xlink:href="#s90:robotoslab-bold:84"/><use x="16332" y="4326.1" xlink:href="#s90:robotoslab-bold:3"/><use x="16834" y="4326.1" xlink:href="#s90:robotoslab-bold:85"/><use x="17888" y="4326.1" xlink:href="#s90:robotoslab-bold:71"/><use x="18979" y="4326.1" xlink:href="#s90:robotoslab-bold:82"/><use x="20219" y="4326.1" xlink:href="#s90:robotoslab-bold:67"/><use x="21344" y="4326.1" xlink:href="#s90:robotoslab-bold:84"/><use x="22186" y="4326.1" xlink:href="#s90:robotoslab-bold:67"/><use x="23311" y="4326.1" xlink:href="#s90:robotoslab-bold:86"/><use x="24075" y="4326.1" xlink:href="#s90:robotoslab-bold:71"/><use x="25166" y="4326.1" xlink:href="#s90:robotoslab-bold:3"/><use x="25668" y="4326.1" xlink:href="#s90:robotoslab-bold:71"/><use x="26759" y="4326.1" xlink:href="#s90:robotoslab-bold:90"/><use x="27950" y="4326.1" xlink:href="#s90:robotoslab-bold:75"/><use x="28610" y="4326.1" xlink:href="#s90:robotoslab-bold:85"/><use x="29664" y="4326.1" xlink:href="#s90:robotoslab-bold:86"/><use x="30428" y="4326.1" xlink:href="#s90:robotoslab-bold:71"/><use x="31519" y="4326.1" xlink:href="#s90:robotoslab-bold:80"/><use x="32809" y="4326.1" xlink:href="#s90:robotoslab-bold:69"/><use x="33888" y="4326.1" xlink:href="#s90:robotoslab-bold:71"/><use x="34979" y="4326.1" xlink:href="#s90:robotoslab-bold:3"/><use x="35481" y="4326.1" xlink:href="#s90:robotoslab-bold:75"/><use x="36141" y="4326.1" xlink:href="#s90:robotoslab-bold:85"/><use x="37195" y="4326.1" xlink:href="#s90:robotoslab-bold:3"/><use x="37697" y="4326.1" xlink:href="#s90:robotoslab-bold:67"/><use x="38822" y="4326.1" xlink:href="#s90:robotoslab-bold:3"/><use x="39324" y="4326.1" xlink:href="#s90:robotoslab-bold:79"/><use x="41229" y="4326.1" xlink:href="#s90:robotoslab-bold:91"/><use x="42441" y="4326.1" xlink:href="#s90:robotoslab-bold:86"/><use x="43205" y="4326.1" xlink:href="#s90:robotoslab-bold:74"/><use x="44507" y="4326.1" xlink:href="#s90:robotoslab-bold:16"/></g><g id="line-2"><use x="13741.5" y="6783.7" xlink:href="#s90:robotoslab-bold:40"/><use x="14985.5" y="6783.7" xlink:href="#s90:robotoslab-bold:81"/><use x="16133.5" y="6783.7" xlink:href="#s90:robotoslab-bold:84"/><use x="16995.5" y="6783.7" xlink:href="#s90:robotoslab-bold:3"/><use x="17497.5" y="6783.7" xlink:href="#s90:robotoslab-bold:85"/><use x="18551.5" y="6783.7" xlink:href="#s90:robotoslab-bold:69"/><use x="19630.5" y="6783.7" xlink:href="#s90:robotoslab-bold:75"/><use x="20290.5" y="6783.7" xlink:href="#s90:robotoslab-bold:71"/><use x="21381.5" y="6783.7" xlink:href="#s90:robotoslab-bold:80"/><use x="22671.5" y="6783.7" xlink:href="#s90:robotoslab-bold:69"/><use x="23750.5" y="6783.7" xlink:href="#s90:robotoslab-bold:71"/><use x="24841.5" y="6783.7" xlink:href="#s90:robotoslab-bold:14"/><use x="25344.5" y="6783.7" xlink:href="#s90:robotoslab-bold:3"/><use x="25846.5" y="6783.7" xlink:href="#s90:robotoslab-bold:79"/><use x="27751.5" y="6783.7" xlink:href="#s90:robotoslab-bold:87"/><use x="29029.5" y="6783.7" xlink:href="#s90:robotoslab-bold:85"/><use x="30083.5" y="6783.7" xlink:href="#s90:robotoslab-bold:75"/><use x="30743.5" y="6783.7" xlink:href="#s90:robotoslab-bold:69"/><use x="31822.5" y="6783.7" xlink:href="#s90:robotoslab-bold:14"/><use x="32325.5" y="6783.7" xlink:href="#s90:robotoslab-bold:3"/><use x="32827.5" y="6783.7" xlink:href="#s90:robotoslab-bold:85"/><use x="33881.5" y="6783.7" xlink:href="#s90:robotoslab-bold:82"/><use x="35121.5" y="6783.7" xlink:href="#s90:robotoslab-bold:81"/><use x="36269.5" y="6783.7" xlink:href="#s90:robotoslab-bold:84"/><use x="37131.5" y="6783.7" xlink:href="#s90:robotoslab-bold:86"/><use x="37895.5" y="6783.7" xlink:href="#s90:robotoslab-bold:14"/><use x="38398.5" y="6783.7" xlink:href="#s90:robotoslab-bold:3"/><use x="38900.5" y="6783.7" xlink:href="#s90:robotoslab-bold:71"/><use x="39991.5" y="6783.7" xlink:href="#s90:robotoslab-bold:86"/><use x="40755.5" y="6783.7" xlink:href="#s90:robotoslab-bold:69"/><use x="41834.5" y="6783.7" xlink:href="#s90:robotoslab-bold:14"/></g></svg>