<svg xmlns="http://www.w3.org/2000/svg" xmlns:xlink="http://www.w3.org/1999/xlink" width="614" height="83" viewBox="0 0 52418 7065.2"><defs><path id="s98:roboto-blackitalic:56" d="M1318-1185L894-1185L689 0L346 0L552-1185L135-1185L183-1456L1365-1456L1318-1185Z"/><path id="s98:roboto-blackitalic:76" d="M463-964Q584-1105 742-1103Q905-1099 983.50-984Q1062-869 1040-672L928 0L599 0L712-676Q716-710 714-740Q707-839 604-842Q515-844 446-777L308 0L-21 0L246-1536L575-1536L463-964Z"/><path id="s98:roboto-blackitalic:73" d="M525 20Q380 19 266.50-48.50Q153-116 95-236.50Q37-357 49-502L52-530Q79-797 237.50-952.50Q396-1108 626-1102Q765-1100 864-1031.50Q963-963 1009-842.50Q1055-722 1039-572L1020-435L376-435Q378-350 424-297Q470-244 558-241Q701-237 815-351L953-168Q892-81 782.50-31.50Q673 18 543 20L525 20M605-843Q535-845 483.50-799Q432-753 394-645L723-645L729-674Q735-709 731-740Q714-840 605-843Z"/><path id="s98:roboto-blackitalic:4" d=""/><path id="s98:roboto-blackitalic:41" d="M987-617L452-617L391-270L1024-270L977 0L2 0L254-1456L1231-1456L1184-1185L550-1185L496-878L1032-878L987-617Z"/><path id="s98:roboto-blackitalic:89" d="M656-118Q535 25 364 21Q205 19 124.50-90Q44-199 62-382L179-1082L508-1082L389-378Q386-349 389-325Q396-243 486-240Q590-236 663-322L797-1082L1128-1082L940 0L634 0L656-118Z"/><path id="s98:roboto-blackitalic:86" d="M768-777Q715-785 666-787Q518-791 440-685L318 0L-11 0L177-1082L484-1083L459-941Q565-1105 709-1105Q750-1105 811-1091L768-777Z"/><path id="s98:roboto-blackitalic:83" d="M618-1102Q763-1100 869-1029.50Q975-959 1024.50-833Q1074-707 1060-553L1058-531Q1030-282 873-129Q716 24 485 20Q341 18 236-51.50Q131-121 80.50-246Q30-371 44-524Q69-790 226.50-948Q384-1106 618-1102M373-524L370-465Q356-242 506-238Q700-232 731-553L735-644Q737-734 701.50-787.50Q666-841 597-843Q506-846 447.50-768.50Q389-691 373-524Z"/><path id="s98:roboto-blackitalic:84" d="M1056-540Q1035-370 967-237.50Q899-105 798.50-40.50Q698 24 574 21Q432 17 344-91L246 416L-83 416L177-1082L481-1083L464-980Q573-1106 721-1102Q879-1100 967.50-989Q1056-878 1062-686Q1064-624 1056-540M736-674Q731-839 624-842Q520-848 451-757L374-328Q405-241 512-239Q687-236 727-540Q736-636 736-674Z"/><path id="s98:roboto-blackitalic:69" d="M597 0Q583-39 583-98Q472 24 318 20Q177 18 84-74Q-9-166-3-297Q2-473 144-567.50Q286-662 532-662L642-660L654-721L658-774Q654-865 567-868Q459-870 434-749L104-748Q109-857 175-937.50Q241-1018 354.50-1061.50Q468-1105 596-1102Q719-1099 811.50-1050.50Q904-1002 950-915.50Q996-829 985-716L904-207L899-145Q895-71 918-19L917 0L597 0M409-218Q510-214 586-307L619-481L534-482Q455-480 398-435.50Q341-391 331-314Q326-273 346.50-246.50Q367-220 409-218Z"/><path id="s98:roboto-blackitalic:82" d="M475-1083L452-953Q582-1107 765-1103Q915-1100 988.50-991.50Q1062-883 1042-681L928 0L598 0L713-683Q717-718 715-747Q708-842 603-842Q516-844 444-765L309 0L-20 0L168-1082L475-1083Z"/><path id="s98:roboto-blackitalic:80" d="M334 0L4 0L270-1536L600-1536L334 0Z"/><path id="s98:roboto-blackitalic:75" d="M43-543Q62-706 132.50-838Q203-970 309-1037.50Q415-1105 549-1103Q712-1099 795-986L830-1083L1134-1082L957-42Q927 178 764 305Q601 432 358 426Q250 424 149 383Q48 342-24 259L132 65Q219 175 358 178Q577 182 636-55L644-88Q532 22 397 20Q293 19 214-32.50Q135-84 90-181Q45-278 39-397Q35-457 43-543M368-436Q368-344 401-293Q434-242 497-240Q590-236 666-312L751-771Q711-841 617-843Q521-845 456-761.50Q391-678 374-542Q368-479 368-436Z"/><path id="s98:roboto-blackitalic:87" d="M597-310Q610-376 495-409L424-427Q250-473 169-556Q88-639 93-753Q98-909 231.50-1006.50Q365-1104 557-1102Q748-1100 866.50-1005Q985-910 987-749L659-750Q663-878 546-878Q496-878 453-848.50Q410-819 402-770Q385-689 545-659Q684-626 760-582.50Q836-539 876-475Q916-411 913-321Q910-223 849-146Q788-69 672.50-23Q557 23 422 20Q305 19 204.50-29Q104-77 47.50-159.50Q-9-242-11-349L295-347Q297-203 439-205Q500-205 543-232.50Q586-260 597-310Z"/><path id="s98:roboto-blackitalic:81" d="M483-1083L461-953Q591-1106 777-1102Q875-1100 938-1056Q1001-1012 1022-939Q1165-1106 1351-1102Q1501-1099 1573.50-989.50Q1646-880 1626-681L1513 0L1183 0L1298-682L1302-741Q1302-840 1209-843Q1122-843 1047-754L916 0L586 0L700-680L704-740Q704-843 611-843Q526-843 451-754L318 0L-11 0L177-1082L483-1083Z"/><path id="s98:roboto-blackitalic:70" d="M1055-539Q1024-276 900-125Q776 26 574 21Q414 17 328-113L287 0L-11 0L256-1536L585-1536L478-993Q587-1104 721-1102Q880-1100 969-988.50Q1058-877 1063-685Q1064-621 1058-560L1055-539M728-559Q736-620 737-675Q737-836 622-843Q520-847 451-756L373-324Q404-241 509-239Q670-234 712-449L726-538L728-559Z"/><path id="s98:roboto-blackitalic:74" d="M59 0L206-848L54-848L94-1082L246-1083L259-1178Q284-1351 397-1453Q518-1561 712-1559Q762-1559 875-1537L850-1288Q804-1300 772-1300Q699-1300 651.50-1266.50Q604-1233 591-1170L576-1082L781-1082L741-848L536-848L389 0L59 0Z"/><path id="s98:roboto-blackitalic:88" d="M604-1351L557-1082L730-1082L689-848L516-848L432-351Q425-300 438.50-274Q452-248 506-246Q527-245 592-251L568-7Q485 20 391 18Q238 16 162-72Q86-160 100-311L188-848L54-848L94-1082L228-1082L275-1351L604-1351Z"/><path id="s98:roboto-blackitalic:77" d="M334 0L4 0L192-1082L522-1082L334 0M221-1355Q219-1428 272.50-1477Q326-1526 402-1526Q479-1526 530.50-1482Q582-1438 584-1367Q586-1293 533-1244.50Q480-1196 403-1196Q328-1196 275.50-1239.50Q223-1283 221-1355Z"/><path id="s98:roboto-blackitalic:93" d="M484-476L764-1082L1127-1082L493 162Q422 309 329.50 374.50Q237 440 109 440Q52 440-36 418L-11 177L27 177Q88 177 134 157.50Q180 138 211 82L258-8L85-1082L425-1082L484-476Z"/><path id="s98:roboto-blackitalic:18" d="M38-152Q36-228 90-278Q144-328 219-328Q293-328 345-282.50Q397-237 399-164Q401-89 348-38.50Q295 12 218 12Q142 12 91-34Q40-80 38-152Z"/><path id="s98:roboto-blackitalic:92" d="M538-786L737-1082L1093-1082L724-540L922 0L594 0L480-318L269 0L-91 0L297-570L108-1082L439-1082L538-786Z"/><path id="s98:roboto-blackitalic:71" d="M488-239Q559-237 599-278.50Q639-320 650-386L958-387Q952-268 887.50-174Q823-80 713.50-28.50Q604 23 479 20Q263 16 146-135.50Q29-287 51-527L54-551Q72-715 146-841.50Q220-968 340.50-1037Q461-1106 610-1102Q799-1098 908.50-981.50Q1018-865 1014-667L706-668Q711-840 583-843Q409-849 383-550L374-448L373-410Q373-242 488-239Z"/><path id="s98:roboto-blackitalic:42" d="M994-580L445-580L344 0L2 0L254-1456L1201-1456L1154-1185L550-1185L492-850L1041-850L994-580Z"/><path id="s98:roboto-blackitalic:16" d="M52 391L-113 312L-21 149Q31 54 44-21L85-254L349-254L314-46Q269 221 52 391Z"/></defs><g id="line-0"><use x="0" y="1650" xlink:href="#s98:roboto-blackitalic:56"/><use x="1262" y="1650" xlink:href="#s98:roboto-blackitalic:76"/><use x="2393" y="1650" xlink:href="#s98:roboto-blackitalic:73"/><use x="3485" y="1650" xlink:href="#s98:roboto-blackitalic:4"/><use x="3990" y="1650" xlink:href="#s98:roboto-blackitalic:41"/><use x="5095" y="1650" xlink:href="#s98:roboto-blackitalic:89"/><use x="6225" y="1650" xlink:href="#s98:roboto-blackitalic:86"/><use x="6952" y="1650" xlink:href="#s98:roboto-blackitalic:83"/><use x="8078" y="1650" xlink:href="#s98:roboto-blackitalic:84"/><use x="9206" y="1650" xlink:href="#s98:roboto-blackitalic:73"/><use x="10298" y="1650" xlink:href="#s98:roboto-blackitalic:69"/><use x="11362" y="1650" xlink:href="#s98:roboto-blackitalic:82"/><use x="12492" y="1650" xlink:href="#s98:roboto-blackitalic:4"/><use x="12997" y="1650" xlink:href="#s98:roboto-blackitalic:80"/><use x="13553" y="1650" xlink:href="#s98:roboto-blackitalic:69"/><use x="14617" y="1650" xlink:href="#s98:roboto-blackitalic:82"/><use x="15747" y="1650" xlink:href="#s98:roboto-blackitalic:75"/><use x="16900" y="1650" xlink:href="#s98:roboto-blackitalic:89"/><use x="18030" y="1650" xlink:href="#s98:roboto-blackitalic:69"/><use x="19094" y="1650" xlink:href="#s98:roboto-blackitalic:75"/><use x="20247" y="1650" xlink:href="#s98:roboto-blackitalic:73"/><use x="21339" y="1650" xlink:href="#s98:roboto-blackitalic:87"/><use x="22367" y="1650" xlink:href="#s98:roboto-blackitalic:4"/><use x="22872" y="1650" xlink:href="#s98:roboto-blackitalic:69"/><use x="23936" y="1650" xlink:href="#s98:roboto-blackitalic:86"/><use x="24680" y="1650" xlink:href="#s98:roboto-blackitalic:73"/><use x="25772" y="1650" xlink:href="#s98:roboto-blackitalic:4"/><use x="26277" y="1650" xlink:href="#s98:roboto-blackitalic:81"/><use x="27998" y="1650" xlink:href="#s98:roboto-blackitalic:73"/><use x="29090" y="1650" xlink:href="#s98:roboto-blackitalic:81"/><use x="30811" y="1650" xlink:href="#s98:roboto-blackitalic:70"/><use x="31939" y="1650" xlink:href="#s98:roboto-blackitalic:73"/><use x="33031" y="1650" xlink:href="#s98:roboto-blackitalic:86"/><use x="33794" y="1650" xlink:href="#s98:roboto-blackitalic:87"/><use x="34822" y="1650" xlink:href="#s98:roboto-blackitalic:4"/><use x="35327" y="1650" xlink:href="#s98:roboto-blackitalic:83"/><use x="36453" y="1650" xlink:href="#s98:roboto-blackitalic:74"/><use x="37183" y="1650" xlink:href="#s98:roboto-blackitalic:4"/><use x="37688" y="1650" xlink:href="#s98:roboto-blackitalic:88"/><use x="38380" y="1650" xlink:href="#s98:roboto-blackitalic:76"/><use x="39511" y="1650" xlink:href="#s98:roboto-blackitalic:73"/><use x="40603" y="1650" xlink:href="#s98:roboto-blackitalic:4"/><use x="41108" y="1650" xlink:href="#s98:roboto-blackitalic:87"/><use x="42136" y="1650" xlink:href="#s98:roboto-blackitalic:69"/><use x="43200" y="1650" xlink:href="#s98:roboto-blackitalic:81"/><use x="44921" y="1650" xlink:href="#s98:roboto-blackitalic:73"/><use x="46013" y="1650" xlink:href="#s98:roboto-blackitalic:4"/><use x="46518" y="1650" xlink:href="#s98:roboto-blackitalic:74"/><use x="47248" y="1650" xlink:href="#s98:roboto-blackitalic:69"/><use x="48312" y="1650" xlink:href="#s98:roboto-blackitalic:81"/><use x="50033" y="1650" xlink:href="#s98:roboto-blackitalic:77"/><use x="50589" y="1650" xlink:href="#s98:roboto-blackitalic:80"/><use x="51145" y="1650" xlink:href="#s98:roboto-blackitalic:93"/><use x="52017" y="1650" xlink:href="#s98:roboto-blackitalic:18"/></g><g id="line-1"><use x="10404" y="4107.6" xlink:href="#s98:roboto-blackitalic:56"/><use x="11666" y="4107.6" xlink:href="#s98:roboto-blackitalic:76"/><use x="12797" y="4107.6" xlink:href="#s98:roboto-blackitalic:73"/><use x="13889" y="4107.6" xlink:href="#s98:roboto-blackitalic:77"/><use x="14445" y="4107.6" xlink:href="#s98:roboto-blackitalic:86"/><use x="15208" y="4107.6" xlink:href="#s98:roboto-blackitalic:4"/><use x="15713" y="4107.6" xlink:href="#s98:roboto-blackitalic:87"/><use x="16741" y="4107.6" xlink:href="#s98:roboto-blackitalic:73"/><use x="17833" y="4107.6" xlink:href="#s98:roboto-blackitalic:84"/><use x="18961" y="4107.6" xlink:href="#s98:roboto-blackitalic:69"/><use x="20025" y="4107.6" xlink:href="#s98:roboto-blackitalic:86"/><use x="20758" y="4107.6" xlink:href="#s98:roboto-blackitalic:69"/><use x="21822" y="4107.6" xlink:href="#s98:roboto-blackitalic:88"/><use x="22514" y="4107.6" xlink:href="#s98:roboto-blackitalic:73"/><use x="23606" y="4107.6" xlink:href="#s98:roboto-blackitalic:4"/><use x="24111" y="4107.6" xlink:href="#s98:roboto-blackitalic:73"/><use x="25203" y="4107.6" xlink:href="#s98:roboto-blackitalic:92"/><use x="26235" y="4107.6" xlink:href="#s98:roboto-blackitalic:77"/><use x="26791" y="4107.6" xlink:href="#s98:roboto-blackitalic:87"/><use x="27819" y="4107.6" xlink:href="#s98:roboto-blackitalic:88"/><use x="28511" y="4107.6" xlink:href="#s98:roboto-blackitalic:73"/><use x="29603" y="4107.6" xlink:href="#s98:roboto-blackitalic:82"/><use x="30733" y="4107.6" xlink:href="#s98:roboto-blackitalic:71"/><use x="31775" y="4107.6" xlink:href="#s98:roboto-blackitalic:73"/><use x="32867" y="4107.6" xlink:href="#s98:roboto-blackitalic:4"/><use x="33372" y="4107.6" xlink:href="#s98:roboto-blackitalic:77"/><use x="33928" y="4107.6" xlink:href="#s98:roboto-blackitalic:87"/><use x="34956" y="4107.6" xlink:href="#s98:roboto-blackitalic:4"/><use x="35461" y="4107.6" xlink:href="#s98:roboto-blackitalic:69"/><use x="36525" y="4107.6" xlink:href="#s98:roboto-blackitalic:4"/><use x="37030" y="4107.6" xlink:href="#s98:roboto-blackitalic:81"/><use x="38751" y="4107.6" xlink:href="#s98:roboto-blackitalic:93"/><use x="39790" y="4107.6" xlink:href="#s98:roboto-blackitalic:88"/><use x="40482" y="4107.6" xlink:href="#s98:roboto-blackitalic:76"/><use x="41613" y="4107.6" xlink:href="#s98:roboto-blackitalic:18"/></g><g id="line-2"><use x="12714" y="6565.2" xlink:href="#s98:roboto-blackitalic:42"/><use x="13789" y="6565.2" xlink:href="#s98:roboto-blackitalic:83"/><use x="14915" y="6565.2" xlink:href="#s98:roboto-blackitalic:86"/><use x="15678" y="6565.2" xlink:href="#s98:roboto-blackitalic:4"/><use x="16183" y="6565.2" xlink:href="#s98:roboto-blackitalic:87"/><use x="17211" y="6565.2" xlink:href="#s98:roboto-blackitalic:71"/><use x="18253" y="6565.2" xlink:href="#s98:roboto-blackitalic:77"/><use x="18809" y="6565.2" xlink:href="#s98:roboto-blackitalic:73"/><use x="19901" y="6565.2" xlink:href="#s98:roboto-blackitalic:82"/><use x="21031" y="6565.2" xlink:href="#s98:roboto-blackitalic:71"/><use x="22073" y="6565.2" xlink:href="#s98:roboto-blackitalic:73"/><use x="23165" y="6565.2" xlink:href="#s98:roboto-blackitalic:16"/><use x="23710" y="6565.2" xlink:href="#s98:roboto-blackitalic:4"/><use x="24215" y="6565.2" xlink:href="#s98:roboto-blackitalic:81"/><use x="25936" y="6565.2" xlink:href="#s98:roboto-blackitalic:89"/><use x="27066" y="6565.2" xlink:href="#s98:roboto-blackitalic:87"/><use x="28094" y="6565.2" xlink:href="#s98:roboto-blackitalic:77"/><use x="28650" y="6565.2" xlink:href="#s98:roboto-blackitalic:71"/><use x="29692" y="6565.2" xlink:href="#s98:roboto-blackitalic:16"/><use x="30237" y="6565.2" xlink:href="#s98:roboto-blackitalic:4"/><use x="30742" y="6565.2" xlink:href="#s98:roboto-blackitalic:87"/><use x="31770" y="6565.2" xlink:href="#s98:roboto-blackitalic:84"/><use x="32898" y="6565.2" xlink:href="#s98:roboto-blackitalic:83"/><use x="34024" y="6565.2" xlink:href="#s98:roboto-blackitalic:86"/><use x="34787" y="6565.2" xlink:href="#s98:roboto-blackitalic:88"/><use x="35479" y="6565.2" xlink:href="#s98:roboto-blackitalic:16"/><use x="36024" y="6565.2" xlink:href="#s98:roboto-blackitalic:4"/><use x="36529" y="6565.2" xlink:href="#s98:roboto-blackitalic:73"/><use x="37621" y="6565.2" xlink:href="#s98:roboto-blackitalic:88"/><use x="38313" y="6565.2" xlink:href="#s98:roboto-blackitalic:71"/><use x="39355" y="6565.2" xlink:href="#s98:roboto-blackitalic:16"/></g></svg>