<svg xmlns="http://www.w3.org/2000/svg" xmlns:xlink="http://www.w3.org/1999/xlink" width="527" height="83" viewBox="0 0 44980 7065.2"><defs><path id="s78:robotocondensed-lightitalic:56" d="M1106-1348L705-1348L471 0L356 0L590-1348L189-1348L209-1456L1125-1456L1106-1348Z"/><path id="s78:robotocondensed-lightitalic:76" d="M300-912Q434-1105 604-1102Q814-1098 833-840L835-795L829-704L711 0L602 0L719-706L724-771Q731-994 570-998Q480-1000 394-926Q308-852 277-752L149 0L38 0L305-1536L416-1536L300-912Z"/><path id="s78:robotocondensed-lightitalic:73" d="M410 20Q235 17 149-116.50Q63-250 88-470L100-570Q131-824 253-965.50Q375-1107 559-1102Q690-1098 763.50-1016.50Q837-935 846-792Q851-707 841-626L828-531L209-531L199-469Q190-405 194-338Q199-223 258-154Q317-85 419-82Q500-80 564.50-112Q629-144 686-198L738-122Q614 24 410 20M552-999Q427-1004 342-913.50Q257-823 217-635L732-635L737-665Q744-720 741-778Q736-878 687-936.50Q638-995 552-999Z"/><path id="s78:robotocondensed-lightitalic:4" d=""/><path id="s78:robotocondensed-lightitalic:41" d="M844-697L296-697L193-106L824-106L805 0L62 0L314-1456L1053-1456L1034-1348L409-1348L314-803L863-803L844-697Z"/><path id="s78:robotocondensed-lightitalic:89" d="M631-128Q518 25 336 21Q224 19 163-61Q102-141 102-297L107-389L223-1082L333-1082L217-386Q212-343 213-292Q213-198 251-142.50Q289-87 360-85Q458-81 541-139.50Q624-198 651-289L787-1082L898-1082L711 0L603 0L631-128Z"/><path id="s78:robotocondensed-lightitalic:86" d="M625-980Q580-988 557-988Q465-990 385-921.50Q305-853 276-748L149 0L38 0L226-1082L335-1082L300-920Q411-1112 571-1105Q594-1104 641-1090L625-980Z"/><path id="s78:robotocondensed-lightitalic:83" d="M560-1103Q707-1099 789-995.50Q871-892 874-713Q876-622 854-479Q818-241 697.50-107.50Q577 26 396 21Q261 17 179.50-72Q98-161 83-328L81-368Q78-449 101.50-603.50Q125-758 186.50-871Q248-984 342.50-1045Q437-1106 560-1103M192-398Q189-250 243.50-168Q298-86 404-82Q534-77 622.50-176.50Q711-276 742-470L759-597L764-682Q767-827 712.50-911Q658-995 552-999Q418-1004 327-892Q236-780 210-582L194-455L192-398Z"/><path id="s78:robotocondensed-lightitalic:84" d="M429 20Q346 18 279-19Q212-56 174-131L76 416L-34 416L226-1082L328-1083L299-935Q419-1106 593-1102Q847-1098 864-772L865-703Q860-602 840-471Q802-221 698-98Q594 25 429 20M747-593Q758-703 754-767Q739-994 560-997Q476-999 406.50-951.50Q337-904 288-817L192-245Q246-88 408-82Q666-73 729-454L747-593Z"/><path id="s78:robotocondensed-lightitalic:69" d="M604 0Q600-38 604-75L613-150Q480 25 302 21Q174 19 108-63.50Q42-146 52-276Q63-440 188-535.50Q313-631 503-631L687-630L709-782Q720-882 676.50-939.50Q633-997 529-999Q431-1001 360.50-942Q290-883 269-784L160-785Q180-925 286.50-1015Q393-1105 540-1103Q684-1101 758-1015Q832-929 818-779L727-227Q718-171 718-119L720-12L718 0L604 0M322-85Q415-83 494.50-133.50Q574-184 626-273L671-537L517-538Q366-538 272-470.50Q178-403 166-285Q157-192 197.50-139.50Q238-87 322-85Z"/><path id="s78:robotocondensed-lightitalic:82" d="M332-1082L297-910Q430-1106 604-1103Q808-1099 832-853L835-795L829-704L711 0L602 0L719-706L724-771Q731-994 569-998Q480-1000 394-926Q308-852 277-752L149 0L38 0L226-1082L332-1082Z"/><path id="s78:robotocondensed-lightitalic:80" d="M161 0L50 0L317-1536L428-1536L161 0Z"/><path id="s78:robotocondensed-lightitalic:75" d="M520-1102Q608-1099 672-1055Q736-1011 769-930L805-1082L908-1082L719 26Q691 226 583 331.50Q475 437 305 432Q221 430 140.50 388Q60 346 11 277L72 199Q166 325 303 329Q431 333 508 256.50Q585 180 608 32L640-134Q523 25 353 21Q218 19 147-84Q76-187 82-381Q83-463 104-605Q141-857 245-982Q349-1107 520-1102M199-488Q188-380 192-317Q202-88 381-85Q549-81 655-256L747-811Q699-989 536-996Q274-1005 215-612L199-488Z"/><path id="s78:robotocondensed-lightitalic:87" d="M615-274Q630-383 483-468L426-499L326-555Q162-652 172-806Q179-933 278-1018.50Q377-1104 520-1102Q662-1098 740-1010.50Q818-923 808-785L698-785Q704-879 654-937Q604-995 514-997Q423-999 357-947Q291-895 280-810Q268-711 390-641L565-544Q736-442 726-280Q717-144 614-60Q511 24 362 20Q218 18 130.50-68.50Q43-155 53-296L164-295Q160-195 213-139.50Q266-84 367-83Q466-83 535-135Q604-187 615-274Z"/><path id="s78:robotocondensed-lightitalic:81" d="M328-1082L295-920Q420-1106 600-1102Q695-1100 756.50-1048.50Q818-997 833-903Q968-1105 1157-1102Q1275-1100 1336-1021Q1397-942 1397-797L1392-705L1274 0L1163 0L1281-707Q1286-755 1285-807Q1283-897 1241.50-947Q1200-997 1123-998Q1019-1000 935.50-916Q852-832 830-704L709 0L598 0L717-716Q722-764 721-814L719-838Q700-993 558-998Q464-1000 383.50-928.50Q303-857 274-754L145 0L34 0L222-1082L328-1082Z"/><path id="s78:robotocondensed-lightitalic:70" d="M429 20Q342 18 276-23.50Q210-65 175-146L141 0L38 0L305-1536L415-1536L302-931Q417-1106 594-1102Q738-1098 805.50-993.50Q873-889 866-703Q862-615 843-484Q807-231 702.50-103Q598 25 429 20M748-594Q759-702 756-767Q748-886 700-940.50Q652-995 565-997Q390-1001 285-801L195-263Q246-92 415-86Q673-77 731-461L748-594Z"/><path id="s78:robotocondensed-lightitalic:74" d="M109 0L279-982L135-982L152-1082L297-1082L316-1214Q340-1385 424-1473.50Q508-1562 636-1560Q683-1558 747-1540L727-1439Q681-1452 637-1453Q463-1453 425-1197L408-1082L614-1082L596-982L391-982L220 0L109 0Z"/><path id="s78:robotocondensed-lightitalic:88" d="M439-1358L391-1082L570-1082L553-982L374-982L254-262L250-209Q246-92 328-90L406-97L399 3Q351 20 299 18Q225 17 186-32.50Q147-82 143-170Q141-219 145-264L263-982L101-982L118-1082L280-1082L329-1358L439-1358Z"/><path id="s78:robotocondensed-lightitalic:77" d="M161 0L50 0L238-1082L349-1082L161 0M276-1394Q281-1460 353-1477Q427-1464 421-1394Q417-1330 344-1312Q272-1325 276-1394Z"/><path id="s78:robotocondensed-lightitalic:93" d="M349-188L754-1082L876-1082L291 174Q230 318 159.50 379.50Q89 441 2 440Q-28 440-84 424L-72 323L-22 331Q106 337 186 177L272-15L128-1082L245-1082L349-188Z"/><path id="s78:robotocondensed-lightitalic:18" d="M51-73Q53-108 78.50-133Q104-158 139-159Q176-160 198.50-134.50Q221-109 219-73Q216-38 190.50-15Q165 8 130 9Q92 9 69.50-16Q47-41 51-73Z"/><path id="s78:robotocondensed-lightitalic:92" d="M429-647L726-1082L862-1082L476-545L698 0L576 0L407-452L94 0L-41 0L358-557L146-1082L268-1082L429-647Z"/><path id="s78:robotocondensed-lightitalic:71" d="M390-82Q607-75 668-334L772-334Q744-172 639.50-73.50Q535 25 384 21Q235 19 153.50-80Q72-179 71-361Q69-452 96-622Q134-863 251-985Q368-1107 548-1102Q693-1097 769.50-995.50Q846-894 837-717L730-717Q738-852 689-923Q640-994 540-999Q269-1008 208-623L187-463L182-391L181-359Q178-90 390-82Z"/><path id="s78:robotocondensed-lightitalic:42" d="M836-678L293-678L175 0L61 0L314-1456L1052-1456L1033-1348L409-1348L311-786L855-786L836-678Z"/><path id="s78:robotocondensed-lightitalic:16" d="M-8 275L-83 217Q24 94 50-31L78-190L194-190L171-45Q142 143-8 275Z"/></defs><g id="line-0"><use x="0" y="1650" xlink:href="#s78:robotocondensed-lightitalic:56"/><use x="1045" y="1650" xlink:href="#s78:robotocondensed-lightitalic:76"/><use x="2010" y="1650" xlink:href="#s78:robotocondensed-lightitalic:73"/><use x="2929" y="1650" xlink:href="#s78:robotocondensed-lightitalic:4"/><use x="3385" y="1650" xlink:href="#s78:robotocondensed-lightitalic:41"/><use x="4365" y="1650" xlink:href="#s78:robotocondensed-lightitalic:89"/><use x="5331" y="1650" xlink:href="#s78:robotocondensed-lightitalic:86"/><use x="5921" y="1650" xlink:href="#s78:robotocondensed-lightitalic:83"/><use x="6906" y="1650" xlink:href="#s78:robotocondensed-lightitalic:84"/><use x="7882" y="1650" xlink:href="#s78:robotocondensed-lightitalic:73"/><use x="8801" y="1650" xlink:href="#s78:robotocondensed-lightitalic:69"/><use x="9746" y="1650" xlink:href="#s78:robotocondensed-lightitalic:82"/><use x="10712" y="1650" xlink:href="#s78:robotocondensed-lightitalic:4"/><use x="11168" y="1650" xlink:href="#s78:robotocondensed-lightitalic:80"/><use x="11596" y="1650" xlink:href="#s78:robotocondensed-lightitalic:69"/><use x="12541" y="1650" xlink:href="#s78:robotocondensed-lightitalic:82"/><use x="13507" y="1650" xlink:href="#s78:robotocondensed-lightitalic:75"/><use x="14483" y="1650" xlink:href="#s78:robotocondensed-lightitalic:89"/><use x="15449" y="1650" xlink:href="#s78:robotocondensed-lightitalic:69"/><use x="16394" y="1650" xlink:href="#s78:robotocondensed-lightitalic:75"/><use x="17370" y="1650" xlink:href="#s78:robotocondensed-lightitalic:73"/><use x="18289" y="1650" xlink:href="#s78:robotocondensed-lightitalic:87"/><use x="19186" y="1650" xlink:href="#s78:robotocondensed-lightitalic:4"/><use x="19642" y="1650" xlink:href="#s78:robotocondensed-lightitalic:69"/><use x="20587" y="1650" xlink:href="#s78:robotocondensed-lightitalic:86"/><use x="21178" y="1650" xlink:href="#s78:robotocondensed-lightitalic:73"/><use x="22097" y="1650" xlink:href="#s78:robotocondensed-lightitalic:4"/><use x="22553" y="1650" xlink:href="#s78:robotocondensed-lightitalic:81"/><use x="24077" y="1650" xlink:href="#s78:robotocondensed-lightitalic:73"/><use x="24996" y="1650" xlink:href="#s78:robotocondensed-lightitalic:81"/><use x="26520" y="1650" xlink:href="#s78:robotocondensed-lightitalic:70"/><use x="27496" y="1650" xlink:href="#s78:robotocondensed-lightitalic:73"/><use x="28415" y="1650" xlink:href="#s78:robotocondensed-lightitalic:86"/><use x="29025" y="1650" xlink:href="#s78:robotocondensed-lightitalic:87"/><use x="29922" y="1650" xlink:href="#s78:robotocondensed-lightitalic:4"/><use x="30378" y="1650" xlink:href="#s78:robotocondensed-lightitalic:83"/><use x="31363" y="1650" xlink:href="#s78:robotocondensed-lightitalic:74"/><use x="31970" y="1650" xlink:href="#s78:robotocondensed-lightitalic:4"/><use x="32426" y="1650" xlink:href="#s78:robotocondensed-lightitalic:88"/><use x="33012" y="1650" xlink:href="#s78:robotocondensed-lightitalic:76"/><use x="33977" y="1650" xlink:href="#s78:robotocondensed-lightitalic:73"/><use x="34896" y="1650" xlink:href="#s78:robotocondensed-lightitalic:4"/><use x="35352" y="1650" xlink:href="#s78:robotocondensed-lightitalic:87"/><use x="36249" y="1650" xlink:href="#s78:robotocondensed-lightitalic:69"/><use x="37194" y="1650" xlink:href="#s78:robotocondensed-lightitalic:81"/><use x="38718" y="1650" xlink:href="#s78:robotocondensed-lightitalic:73"/><use x="39637" y="1650" xlink:href="#s78:robotocondensed-lightitalic:4"/><use x="40093" y="1650" xlink:href="#s78:robotocondensed-lightitalic:74"/><use x="40700" y="1650" xlink:href="#s78:robotocondensed-lightitalic:69"/><use x="41645" y="1650" xlink:href="#s78:robotocondensed-lightitalic:81"/><use x="43169" y="1650" xlink:href="#s78:robotocondensed-lightitalic:77"/><use x="43597" y="1650" xlink:href="#s78:robotocondensed-lightitalic:80"/><use x="44025" y="1650" xlink:href="#s78:robotocondensed-lightitalic:93"/><use x="44759" y="1650" xlink:href="#s78:robotocondensed-lightitalic:18"/></g><g id="line-1"><use x="9080" y="4107.6" xlink:href="#s78:robotocondensed-lightitalic:56"/><use x="10125" y="4107.6" xlink:href="#s78:robotocondensed-lightitalic:76"/><use x="11090" y="4107.6" xlink:href="#s78:robotocondensed-lightitalic:73"/><use x="12009" y="4107.6" xlink:href="#s78:robotocondensed-lightitalic:77"/><use x="12437" y="4107.6" xlink:href="#s78:robotocondensed-lightitalic:86"/><use x="13047" y="4107.6" xlink:href="#s78:robotocondensed-lightitalic:4"/><use x="13503" y="4107.6" xlink:href="#s78:robotocondensed-lightitalic:87"/><use x="14400" y="4107.6" xlink:href="#s78:robotocondensed-lightitalic:73"/><use x="15319" y="4107.6" xlink:href="#s78:robotocondensed-lightitalic:84"/><use x="16295" y="4107.6" xlink:href="#s78:robotocondensed-lightitalic:69"/><use x="17240" y="4107.6" xlink:href="#s78:robotocondensed-lightitalic:86"/><use x="17810" y="4107.6" xlink:href="#s78:robotocondensed-lightitalic:69"/><use x="18755" y="4107.6" xlink:href="#s78:robotocondensed-lightitalic:88"/><use x="19341" y="4107.6" xlink:href="#s78:robotocondensed-lightitalic:73"/><use x="20260" y="4107.6" xlink:href="#s78:robotocondensed-lightitalic:4"/><use x="20716" y="4107.6" xlink:href="#s78:robotocondensed-lightitalic:73"/><use x="21635" y="4107.6" xlink:href="#s78:robotocondensed-lightitalic:92"/><use x="22499" y="4107.6" xlink:href="#s78:robotocondensed-lightitalic:77"/><use x="22927" y="4107.6" xlink:href="#s78:robotocondensed-lightitalic:87"/><use x="23824" y="4107.6" xlink:href="#s78:robotocondensed-lightitalic:88"/><use x="24410" y="4107.6" xlink:href="#s78:robotocondensed-lightitalic:73"/><use x="25329" y="4107.6" xlink:href="#s78:robotocondensed-lightitalic:82"/><use x="26295" y="4107.6" xlink:href="#s78:robotocondensed-lightitalic:71"/><use x="27206" y="4107.6" xlink:href="#s78:robotocondensed-lightitalic:73"/><use x="28125" y="4107.6" xlink:href="#s78:robotocondensed-lightitalic:4"/><use x="28581" y="4107.6" xlink:href="#s78:robotocondensed-lightitalic:77"/><use x="29009" y="4107.6" xlink:href="#s78:robotocondensed-lightitalic:87"/><use x="29906" y="4107.6" xlink:href="#s78:robotocondensed-lightitalic:4"/><use x="30362" y="4107.6" xlink:href="#s78:robotocondensed-lightitalic:69"/><use x="31307" y="4107.6" xlink:href="#s78:robotocondensed-lightitalic:4"/><use x="31763" y="4107.6" xlink:href="#s78:robotocondensed-lightitalic:81"/><use x="33287" y="4107.6" xlink:href="#s78:robotocondensed-lightitalic:93"/><use x="34128" y="4107.6" xlink:href="#s78:robotocondensed-lightitalic:88"/><use x="34714" y="4107.6" xlink:href="#s78:robotocondensed-lightitalic:76"/><use x="35679" y="4107.6" xlink:href="#s78:robotocondensed-lightitalic:18"/></g><g id="line-2"><use x="11043.5" y="6565.2" xlink:href="#s78:robotocondensed-lightitalic:42"/><use x="12006.5" y="6565.2" xlink:href="#s78:robotocondensed-lightitalic:83"/><use x="12991.5" y="6565.2" xlink:href="#s78:robotocondensed-lightitalic:86"/><use x="13601.5" y="6565.2" xlink:href="#s78:robotocondensed-lightitalic:4"/><use x="14057.5" y="6565.2" xlink:href="#s78:robotocondensed-lightitalic:87"/><use x="14954.5" y="6565.2" xlink:href="#s78:robotocondensed-lightitalic:71"/><use x="15865.5" y="6565.2" xlink:href="#s78:robotocondensed-lightitalic:77"/><use x="16293.5" y="6565.2" xlink:href="#s78:robotocondensed-lightitalic:73"/><use x="17212.5" y="6565.2" xlink:href="#s78:robotocondensed-lightitalic:82"/><use x="18178.5" y="6565.2" xlink:href="#s78:robotocondensed-lightitalic:71"/><use x="19089.5" y="6565.2" xlink:href="#s78:robotocondensed-lightitalic:73"/><use x="20008.5" y="6565.2" xlink:href="#s78:robotocondensed-lightitalic:16"/><use x="20398.5" y="6565.2" xlink:href="#s78:robotocondensed-lightitalic:4"/><use x="20854.5" y="6565.2" xlink:href="#s78:robotocondensed-lightitalic:81"/><use x="22378.5" y="6565.2" xlink:href="#s78:robotocondensed-lightitalic:89"/><use x="23344.5" y="6565.2" xlink:href="#s78:robotocondensed-lightitalic:87"/><use x="24241.5" y="6565.2" xlink:href="#s78:robotocondensed-lightitalic:77"/><use x="24669.5" y="6565.2" xlink:href="#s78:robotocondensed-lightitalic:71"/><use x="25580.5" y="6565.2" xlink:href="#s78:robotocondensed-lightitalic:16"/><use x="25970.5" y="6565.2" xlink:href="#s78:robotocondensed-lightitalic:4"/><use x="26426.5" y="6565.2" xlink:href="#s78:robotocondensed-lightitalic:87"/><use x="27323.5" y="6565.2" xlink:href="#s78:robotocondensed-lightitalic:84"/><use x="28299.5" y="6565.2" xlink:href="#s78:robotocondensed-lightitalic:83"/><use x="29284.5" y="6565.2" xlink:href="#s78:robotocondensed-lightitalic:86"/><use x="29894.5" y="6565.2" xlink:href="#s78:robotocondensed-lightitalic:88"/><use x="30480.5" y="6565.2" xlink:href="#s78:robotocondensed-lightitalic:16"/><use x="30870.5" y="6565.2" xlink:href="#s78:robotocondensed-lightitalic:4"/><use x="31326.5" y="6565.2" xlink:href="#s78:robotocondensed-lightitalic:73"/><use x="32245.5" y="6565.2" xlink:href="#s78:robotocondensed-lightitalic:88"/><use x="32831.5" y="6565.2" xlink:href="#s78:robotocondensed-lightitalic:71"/><use x="33742.5" y="6565.2" xlink:href="#s78:robotocondensed-lightitalic:16"/></g></svg>