<svg xmlns="http://www.w3.org/2000/svg" xmlns:xlink="http://www.w3.org/1999/xlink" width="655" height="86" viewBox="0 0 55921 7338.7"><defs><path id="s92:robotoslab-regular:54" d="M1247-1456L1247-1134L1079-1134L1064-1301L741-1301L741-154L904-126L904 0L381 0L381-126L544-154L544-1301L220-1301L206-1134L37-1134L37-1456L1247-1456Z"/><path id="s92:robotoslab-regular:74" d="M62-126L225-154L225-1405L62-1433L62-1560L422-1560L422-938Q478-1016 559-1059Q640-1102 739-1102Q913-1102 1009-998Q1105-894 1105-678L1105-154L1268-126L1268 0L745 0L745-126L908-154L908-680Q908-814 850.50-878Q793-942 679-942Q598-942 531.50-903.50Q465-865 422-799L422-154L585-126L585 0L62 0L62-126Z"/><path id="s92:robotoslab-regular:71" d="M583 21Q357 21 223.50-129.50Q90-280 90-520L90-564Q90-795 227.50-948.50Q365-1102 553-1102Q771-1102 883.50-970Q996-838 996-618L996-495L294-495L291-490Q294-334 370-233.50Q446-133 583-133Q683-133 758.50-161.50Q834-190 889-240L966-112Q908-56 812.50-17.50Q717 21 583 21M553-947Q454-947 384-863.50Q314-780 298-654L300-649L799-649L799-675Q799-791 737-869Q675-947 553-947Z"/><path id="s92:robotoslab-regular:3" d=""/><path id="s92:robotoslab-regular:39" d="M71 0L71-126L234-154L234-1301L71-1329L71-1456L1189-1456L1189-1106L1020-1106L1004-1301L431-1301L431-830L988-830L988-675L431-675L431-154L1016-154L1032-349L1200-349L1200 0L71 0Z"/><path id="s92:robotoslab-regular:87" d="M863-160Q812-73 731.50-26Q651 21 546 21Q370 21 271-92Q172-205 172-444L172-927L48-955L48-1082L172-1082L369-1082L369-442Q369-269 420-204Q471-139 579-139Q684-139 752.50-181.50Q821-224 856-302L856-927L711-955L711-1082L856-1082L1053-1082L1053-154L1177-126L1177 0L876 0L863-160Z"/><path id="s92:robotoslab-regular:84" d="M89-955L89-1082L428-1082L447-925Q493-1008 560.50-1055Q628-1102 715-1102Q738-1102 762.50-1098.50Q787-1095 800-1091L774-908L662-914Q584-914 531-877.50Q478-841 449-775L449-154L612-126L612 0L89 0L89-126L252-154L252-927L89-955Z"/><path id="s92:robotoslab-regular:81" d="M90-551Q90-791 220-946.50Q350-1102 573-1102Q797-1102 927.50-947Q1058-792 1058-551L1058-529Q1058-287 928-133Q798 21 575 21Q350 21 220-133.50Q90-288 90-529L90-551M287-529Q287-357 359.50-245Q432-133 575-133Q715-133 788-245Q861-357 861-529L861-551Q861-721 788-834Q715-947 573-947Q431-947 359-834Q287-721 287-551L287-529Z"/><path id="s92:robotoslab-regular:82" d="M65 289L228 261L228-927L65-955L65-1082L397-1082L415-950Q469-1024 546.50-1063Q624-1102 726-1102Q927-1102 1038.50-942.50Q1150-783 1150-521L1150-500Q1150-266 1038-122.50Q926 21 729 21Q629 21 553.50-12.50Q478-46 425-112L425 261L588 289L588 416L65 416L65 289M952-521Q952-706 880-824Q808-942 666-942Q582-942 522-904Q462-866 425-800L425-273Q462-206 521.50-169.50Q581-133 668-133Q808-133 880-235Q952-337 952-500L952-521Z"/><path id="s92:robotoslab-regular:67" d="M795 0Q786-44 781-79Q776-114 774-149Q717-76 631.50-27.50Q546 21 449 21Q280 21 192-61.50Q104-144 104-294Q104-448 228.50-531.50Q353-615 570-615L773-615L773-741Q773-836 713-891.50Q653-947 546-947Q472-947 415.50-928Q359-909 324-876L303-762L151-762L151-972Q225-1031 330-1066.50Q435-1102 558-1102Q742-1102 856-1008Q970-914 970-739L970-218Q970-197 970.50-177Q971-157 973-137L1053-126L1053 0L795 0M478-144Q576-144 657-191Q738-238 773-304L773-482L563-482Q442-482 371.50-426Q301-370 301-290Q301-219 345-181.50Q389-144 478-144Z"/><path id="s92:robotoslab-regular:80" d="M60-126L223-154L223-927L60-955L60-1082L399-1082L413-921Q467-1007 548.50-1054.50Q630-1102 734-1102Q909-1102 1005-999.50Q1101-897 1101-683L1101-154L1264-126L1264 0L741 0L741-126L904-154L904-679Q904-822 847.50-882Q791-942 675-942Q590-942 524.50-901Q459-860 420-789L420-154L583-126L583 0L60 0L60-126Z"/><path id="s92:robotoslab-regular:78" d="M62-1433L62-1560L422-1560L422-154L585-126L585 0L62 0L62-126L225-154L225-1405L62-1433Z"/><path id="s92:robotoslab-regular:73" d="M90-521Q90-782 204-942Q318-1102 519-1102Q621-1102 698-1062Q775-1022 827-946L845-1082L1011-1082L1011-14Q1011 196 894 316.50Q777 437 561 437Q483 437 392 415.50Q301 394 232 357L283 204Q338 233 413 252Q488 271 559 271Q691 271 752.50 197Q814 123 814-14L814-117Q761-49 687-14Q613 21 517 21Q318 21 204-123Q90-267 90-500L90-521M287-500Q287-337 356-238Q425-139 566-139Q655-139 715-179.50Q775-220 814-294L814-792Q776-861 715-901.50Q654-942 568-942Q427-942 357-824Q287-706 287-521L287-500Z"/><path id="s92:robotoslab-regular:85" d="M917-742L769-742L737-872Q701-906 646.50-926.50Q592-947 523-947Q418-947 367-901Q316-855 316-790Q316-726 361-689Q406-652 544-623Q749-579 849-503.50Q949-428 949-301Q949-157 832.50-68Q716 21 528 21Q405 21 307-7.50Q209-36 132-90L131-337L279-337L316-192Q350-161 408.50-147Q467-133 528-133Q633-133 692.50-175.50Q752-218 752-287Q752-352 702.50-394Q653-436 515-467Q318-510 218-584Q118-658 118-784Q118-916 230.50-1009Q343-1102 523-1102Q646-1102 744-1070Q842-1038 907-981L917-742Z"/><path id="s92:robotoslab-regular:79" d="M50-126L213-154L213-927L50-955L50-1082L390-1082L403-941Q455-1018 537-1060Q619-1102 727-1102Q835-1102 912.50-1052Q990-1002 1029-902Q1080-994 1164-1048Q1248-1102 1360-1102Q1526-1102 1622-988.50Q1718-875 1718-647L1718-154L1881-126L1881 0L1357 0L1357-126L1520-154L1520-649Q1520-809 1465-875.50Q1410-942 1302-942Q1199-942 1136.50-869.50Q1074-797 1064-687L1064-154L1227-126L1227 0L704 0L704-126L867-154L867-649Q867-801 810.50-871.50Q754-942 647-942Q557-942 499-905Q441-868 410-801L410-154L573-126L573 0L50 0L50-126Z"/><path id="s92:robotoslab-regular:68" d="M1079-500Q1079-266 966.50-122.50Q854 21 657 21Q551 21 473-19.50Q395-60 343-139L325 0L155 0L155-1405L-8-1433L-8-1560L352-1560L352-954Q403-1026 478.50-1064Q554-1102 655-1102Q855-1102 967-942Q1079-782 1079-521L1079-500M881-521Q881-708 813-825Q745-942 605-942Q514-942 451.50-898Q389-854 352-780L352-302Q389-227 452.50-183Q516-139 607-139Q746-139 813.50-238Q881-337 881-500L881-521Z"/><path id="s92:robotoslab-regular:72" d="M70-936L70-1082L239-1082L239-1219Q239-1392 329.50-1486.50Q420-1581 582-1581Q616-1581 650.50-1575.50Q685-1570 727-1560L703-1410Q685-1414 659.50-1417Q634-1420 607-1420Q520-1420 478-1368.50Q436-1317 436-1219L436-1082L662-1082L662-936L436-936L436-154L599-126L599 0L76 0L76-126L239-154L239-936L70-936Z"/><path id="s92:robotoslab-regular:86" d="M433-1343L433-1082L638-1082L638-936L433-936L433-279Q433-203 464.50-172Q496-141 548-141Q574-141 606.50-145.50Q639-150 661-155L688-20Q660-2 606 9.50Q552 21 498 21Q378 21 307-51.50Q236-124 236-279L236-936L65-936L65-1082L236-1082L236-1343L433-1343Z"/><path id="s92:robotoslab-regular:75" d="M89-126L252-154L252-927L89-955L89-1082L449-1082L449-154L612-126L612 0L89 0L89-126M449-1359L252-1359L252-1560L449-1560L449-1359Z"/><path id="s92:robotoslab-regular:91" d="M1117-955L1020-940L608 166Q567 275 490 356Q413 437 283 437Q260 437 223 431.50Q186 426 166 421L186 266Q180 265 221.50 268Q263 271 274 271Q337 271 376 216.50Q415 162 444 91L491-21L134-939L35-955L35-1082L472-1082L472-955L350-935L537-401L573-263L579-263L804-935L681-955L681-1082L1117-1082L1117-955Z"/><path id="s92:robotoslab-regular:16" d="M342 0L145 0L145-202L342-202L342 0Z"/><path id="s92:robotoslab-regular:90" d="M62-126L178-149L497-547L188-932L72-955L72-1082L496-1082L496-955L398-943L600-683L803-944L706-955L706-1082L1133-1082L1133-955L1017-932L708-547L1026-149L1143-126L1143 0L719 0L719-126L815-137L603-409L391-137L488-126L488 0L62 0L62-126Z"/><path id="s92:robotoslab-regular:69" d="M575-133Q673-133 747.50-193.50Q822-254 822-342L999-342L1001-336Q1006-196 876.50-87.50Q747 21 575 21Q339 21 214.50-133Q90-287 90-520L90-562Q90-793 215-947.50Q340-1102 575-1102Q705-1102 808.50-1059Q912-1016 980-941L989-701L832-701L789-871Q754-905 699-926Q644-947 575-947Q420-947 353.50-835.50Q287-724 287-562L287-520Q287-354 353-243.50Q419-133 575-133Z"/><path id="s92:robotoslab-regular:40" d="M71-126L234-154L234-1301L71-1329L71-1456L1196-1456L1196-1106L1028-1106L1012-1301L431-1301L431-799L994-799L994-644L431-644L431-154L594-126L594 0L71 0L71-126Z"/><path id="s92:robotoslab-regular:14" d="M315-72Q315 26 266 133Q217 240 134 311L23 237Q70 165 94 90Q118 15 118-69L118-221L315-221L315-72Z"/></defs><g id="line-0"><use x="0" y="1868.5" xlink:href="#s92:robotoslab-regular:54"/><use x="1284" y="1868.5" xlink:href="#s92:robotoslab-regular:74"/><use x="2596" y="1868.5" xlink:href="#s92:robotoslab-regular:71"/><use x="3697" y="1868.5" xlink:href="#s92:robotoslab-regular:3"/><use x="4206" y="1868.5" xlink:href="#s92:robotoslab-regular:39"/><use x="5495" y="1868.5" xlink:href="#s92:robotoslab-regular:87"/><use x="6739" y="1868.5" xlink:href="#s92:robotoslab-regular:84"/><use x="7566" y="1868.5" xlink:href="#s92:robotoslab-regular:81"/><use x="8715" y="1868.5" xlink:href="#s92:robotoslab-regular:82"/><use x="9955" y="1868.5" xlink:href="#s92:robotoslab-regular:71"/><use x="11056" y="1868.5" xlink:href="#s92:robotoslab-regular:67"/><use x="12184" y="1868.5" xlink:href="#s92:robotoslab-regular:80"/><use x="13502" y="1868.5" xlink:href="#s92:robotoslab-regular:3"/><use x="14011" y="1868.5" xlink:href="#s92:robotoslab-regular:78"/><use x="14656" y="1868.5" xlink:href="#s92:robotoslab-regular:67"/><use x="15784" y="1868.5" xlink:href="#s92:robotoslab-regular:80"/><use x="17092" y="1868.5" xlink:href="#s92:robotoslab-regular:73"/><use x="18251" y="1868.5" xlink:href="#s92:robotoslab-regular:87"/><use x="19495" y="1868.5" xlink:href="#s92:robotoslab-regular:67"/><use x="20623" y="1868.5" xlink:href="#s92:robotoslab-regular:73"/><use x="21782" y="1868.5" xlink:href="#s92:robotoslab-regular:71"/><use x="22883" y="1868.5" xlink:href="#s92:robotoslab-regular:85"/><use x="23927" y="1868.5" xlink:href="#s92:robotoslab-regular:3"/><use x="24436" y="1868.5" xlink:href="#s92:robotoslab-regular:67"/><use x="25564" y="1868.5" xlink:href="#s92:robotoslab-regular:84"/><use x="26392" y="1868.5" xlink:href="#s92:robotoslab-regular:71"/><use x="27493" y="1868.5" xlink:href="#s92:robotoslab-regular:3"/><use x="28002" y="1868.5" xlink:href="#s92:robotoslab-regular:79"/><use x="29927" y="1868.5" xlink:href="#s92:robotoslab-regular:71"/><use x="31028" y="1868.5" xlink:href="#s92:robotoslab-regular:79"/><use x="32963" y="1868.5" xlink:href="#s92:robotoslab-regular:68"/><use x="34149" y="1868.5" xlink:href="#s92:robotoslab-regular:71"/><use x="35250" y="1868.5" xlink:href="#s92:robotoslab-regular:84"/><use x="36097" y="1868.5" xlink:href="#s92:robotoslab-regular:85"/><use x="37141" y="1868.5" xlink:href="#s92:robotoslab-regular:3"/><use x="37650" y="1868.5" xlink:href="#s92:robotoslab-regular:81"/><use x="38799" y="1868.5" xlink:href="#s92:robotoslab-regular:72"/><use x="39527" y="1868.5" xlink:href="#s92:robotoslab-regular:3"/><use x="40036" y="1868.5" xlink:href="#s92:robotoslab-regular:86"/><use x="40786" y="1868.5" xlink:href="#s92:robotoslab-regular:74"/><use x="42098" y="1868.5" xlink:href="#s92:robotoslab-regular:71"/><use x="43199" y="1868.5" xlink:href="#s92:robotoslab-regular:3"/><use x="43708" y="1868.5" xlink:href="#s92:robotoslab-regular:85"/><use x="44752" y="1868.5" xlink:href="#s92:robotoslab-regular:67"/><use x="45880" y="1868.5" xlink:href="#s92:robotoslab-regular:79"/><use x="47805" y="1868.5" xlink:href="#s92:robotoslab-regular:71"/><use x="48906" y="1868.5" xlink:href="#s92:robotoslab-regular:3"/><use x="49415" y="1868.5" xlink:href="#s92:robotoslab-regular:72"/><use x="50143" y="1868.5" xlink:href="#s92:robotoslab-regular:67"/><use x="51271" y="1868.5" xlink:href="#s92:robotoslab-regular:79"/><use x="53206" y="1868.5" xlink:href="#s92:robotoslab-regular:75"/><use x="53879" y="1868.5" xlink:href="#s92:robotoslab-regular:78"/><use x="54524" y="1868.5" xlink:href="#s92:robotoslab-regular:91"/><use x="55579" y="1868.5" xlink:href="#s92:robotoslab-regular:16"/></g><g id="line-1"><use x="11045" y="4326.1" xlink:href="#s92:robotoslab-regular:54"/><use x="12329" y="4326.1" xlink:href="#s92:robotoslab-regular:74"/><use x="13641" y="4326.1" xlink:href="#s92:robotoslab-regular:71"/><use x="14742" y="4326.1" xlink:href="#s92:robotoslab-regular:75"/><use x="15415" y="4326.1" xlink:href="#s92:robotoslab-regular:84"/><use x="16262" y="4326.1" xlink:href="#s92:robotoslab-regular:3"/><use x="16771" y="4326.1" xlink:href="#s92:robotoslab-regular:85"/><use x="17815" y="4326.1" xlink:href="#s92:robotoslab-regular:71"/><use x="18916" y="4326.1" xlink:href="#s92:robotoslab-regular:82"/><use x="20156" y="4326.1" xlink:href="#s92:robotoslab-regular:67"/><use x="21284" y="4326.1" xlink:href="#s92:robotoslab-regular:84"/><use x="22131" y="4326.1" xlink:href="#s92:robotoslab-regular:67"/><use x="23259" y="4326.1" xlink:href="#s92:robotoslab-regular:86"/><use x="24009" y="4326.1" xlink:href="#s92:robotoslab-regular:71"/><use x="25110" y="4326.1" xlink:href="#s92:robotoslab-regular:3"/><use x="25619" y="4326.1" xlink:href="#s92:robotoslab-regular:71"/><use x="26720" y="4326.1" xlink:href="#s92:robotoslab-regular:90"/><use x="27912" y="4326.1" xlink:href="#s92:robotoslab-regular:75"/><use x="28585" y="4326.1" xlink:href="#s92:robotoslab-regular:85"/><use x="29629" y="4326.1" xlink:href="#s92:robotoslab-regular:86"/><use x="30379" y="4326.1" xlink:href="#s92:robotoslab-regular:71"/><use x="31480" y="4326.1" xlink:href="#s92:robotoslab-regular:80"/><use x="32788" y="4326.1" xlink:href="#s92:robotoslab-regular:69"/><use x="33892" y="4326.1" xlink:href="#s92:robotoslab-regular:71"/><use x="34993" y="4326.1" xlink:href="#s92:robotoslab-regular:3"/><use x="35502" y="4326.1" xlink:href="#s92:robotoslab-regular:75"/><use x="36175" y="4326.1" xlink:href="#s92:robotoslab-regular:85"/><use x="37219" y="4326.1" xlink:href="#s92:robotoslab-regular:3"/><use x="37728" y="4326.1" xlink:href="#s92:robotoslab-regular:67"/><use x="38856" y="4326.1" xlink:href="#s92:robotoslab-regular:3"/><use x="39365" y="4326.1" xlink:href="#s92:robotoslab-regular:79"/><use x="41300" y="4326.1" xlink:href="#s92:robotoslab-regular:91"/><use x="42462" y="4326.1" xlink:href="#s92:robotoslab-regular:86"/><use x="43212" y="4326.1" xlink:href="#s92:robotoslab-regular:74"/><use x="44534" y="4326.1" xlink:href="#s92:robotoslab-regular:16"/></g><g id="line-2"><use x="13845" y="6783.7" xlink:href="#s92:robotoslab-regular:40"/><use x="15097" y="6783.7" xlink:href="#s92:robotoslab-regular:81"/><use x="16246" y="6783.7" xlink:href="#s92:robotoslab-regular:84"/><use x="17093" y="6783.7" xlink:href="#s92:robotoslab-regular:3"/><use x="17602" y="6783.7" xlink:href="#s92:robotoslab-regular:85"/><use x="18646" y="6783.7" xlink:href="#s92:robotoslab-regular:69"/><use x="19750" y="6783.7" xlink:href="#s92:robotoslab-regular:75"/><use x="20423" y="6783.7" xlink:href="#s92:robotoslab-regular:71"/><use x="21524" y="6783.7" xlink:href="#s92:robotoslab-regular:80"/><use x="22832" y="6783.7" xlink:href="#s92:robotoslab-regular:69"/><use x="23936" y="6783.7" xlink:href="#s92:robotoslab-regular:71"/><use x="25037" y="6783.7" xlink:href="#s92:robotoslab-regular:14"/><use x="25441" y="6783.7" xlink:href="#s92:robotoslab-regular:3"/><use x="25950" y="6783.7" xlink:href="#s92:robotoslab-regular:79"/><use x="27885" y="6783.7" xlink:href="#s92:robotoslab-regular:87"/><use x="29129" y="6783.7" xlink:href="#s92:robotoslab-regular:85"/><use x="30173" y="6783.7" xlink:href="#s92:robotoslab-regular:75"/><use x="30846" y="6783.7" xlink:href="#s92:robotoslab-regular:69"/><use x="31950" y="6783.7" xlink:href="#s92:robotoslab-regular:14"/><use x="32354" y="6783.7" xlink:href="#s92:robotoslab-regular:3"/><use x="32863" y="6783.7" xlink:href="#s92:robotoslab-regular:85"/><use x="33907" y="6783.7" xlink:href="#s92:robotoslab-regular:82"/><use x="35147" y="6783.7" xlink:href="#s92:robotoslab-regular:81"/><use x="36296" y="6783.7" xlink:href="#s92:robotoslab-regular:84"/><use x="37143" y="6783.7" xlink:href="#s92:robotoslab-regular:86"/><use x="37893" y="6783.7" xlink:href="#s92:robotoslab-regular:14"/><use x="38297" y="6783.7" xlink:href="#s92:robotoslab-regular:3"/><use x="38806" y="6783.7" xlink:href="#s92:robotoslab-regular:71"/><use x="39907" y="6783.7" xlink:href="#s92:robotoslab-regular:86"/><use x="40657" y="6783.7" xlink:href="#s92:robotoslab-regular:69"/><use x="41761" y="6783.7" xlink:href="#s92:robotoslab-regular:14"/></g></svg>