<svg xmlns="http://www.w3.org/2000/svg" xmlns:xlink="http://www.w3.org/1999/xlink" width="601" height="83" viewBox="0 0 51253 7065.2" ><defs><path id="rkWergj5Vae:roboto-thin:56" d="M1169-1402L639-1402L639 0L585 0L585-1402L55-1402L55-1456L1169-1456L1169-1402Z"/><path id="rkWergj5Vae:roboto-thin:76" d="M226-830Q279-956 382-1029Q485-1102 610-1102Q784-1102 868.50-1003.50Q953-905 954-706L954 0L900 0L900-708Q899-882 829-965.50Q759-1049 607-1049Q467-1049 364.50-949.50Q262-850 226-693L226 0L172 0L172-1536L226-1536L226-830Z"/><path id="rkWergj5Vae:roboto-thin:73" d="M561 20Q430 20 320.50-50.50Q211-121 149-244Q87-367 87-517L87-562Q87-712 147-837Q207-962 312-1032Q417-1102 541-1102Q722-1102 837-973Q952-844 952-634L952-577L141-577L141-518Q141-386 196.50-273.50Q252-161 349.50-97Q447-33 561-33Q670-33 746.50-69.50Q823-106 882-182L920-155Q799 20 561 20M541-1048Q383-1048 273-930.50Q163-813 144-631L898-631L898-644Q898-754 851.50-848.50Q805-943 723.50-995.50Q642-1048 541-1048Z"/><path id="rkWergj5Vae:roboto-thin:4" d=""/><path id="rkWergj5Vae:roboto-thin:41" d="M984-722L254-722L254-54L1086-54L1086 0L200 0L200-1456L1086-1456L1086-1402L254-1402L254-776L984-776L984-722Z"/><path id="rkWergj5Vae:roboto-thin:89" d="M897 0L897-175Q849-85 757-32.50Q665 20 524 20Q347 20 258.50-83.50Q170-187 168-385L168-1082L222-1082L222-383Q224-211 300-122.50Q376-34 522-34Q677-34 774-107Q871-180 897-321L897-1082L952-1082L952 0L897 0Z"/><path id="rkWergj5Vae:roboto-thin:86" d="M649-1043L579-1049Q441-1049 348-959.50Q255-870 226-709L226 0L172 0L172-1082L226-1082L226-857Q270-970 358-1036Q446-1102 579-1102Q626-1102 655-1091L649-1043Z"/><path id="rkWergj5Vae:roboto-thin:83" d="M90-562Q90-717 149.50-840.50Q209-964 317.50-1033Q426-1102 563-1102Q699-1102 807-1035Q915-968 975.50-845Q1036-722 1037-568L1037-520Q1037-364 978-241Q919-118 810.50-49Q702 20 565 20Q428 20 319.50-48Q211-116 151-238.50Q91-361 90-514L90-562M144-520Q144-385 197.50-272.50Q251-160 346.50-97Q442-34 565-34Q750-34 866.50-173Q983-312 983-531L983-562Q983-695 929-808Q875-921 779.50-984.50Q684-1048 563-1048Q378-1048 261-907Q144-766 144-552L144-520Z"/><path id="rkWergj5Vae:roboto-thin:84" d="M999-531Q999-278 890-129Q781 20 593 20Q470 20 374-30Q278-80 224-168L224 416L170 416L170-1082L224-1082L224-889Q280-992 375-1047Q470-1102 591-1102Q781-1102 890-956.50Q999-811 999-548L999-531M944-552Q944-785 851.50-916.50Q759-1048 592-1048Q456-1048 361-977.50Q266-907 224-775L224-269Q266-157 361.50-95.50Q457-34 594-34Q760-34 852-166Q944-298 944-552Z"/><path id="rkWergj5Vae:roboto-thin:69" d="M871 0Q851-69 851-198Q787-94 676-37Q565 20 425 20Q275 20 183.50-61.50Q92-143 92-274Q92-423 226.50-512.50Q361-602 584-604L851-604L851-762Q851-898 765.50-973Q680-1048 521-1048Q373-1048 274-972Q175-896 175-784L121-786Q121-918 237-1010Q353-1102 521-1102Q696-1102 799-1014.50Q902-927 905-768L905-251Q905-73 933-9L933 0L871 0M425-33Q577-33 686.50-101Q796-169 851-292L851-549L601-549Q369-549 246-457Q146-382 146-270Q146-171 225-102Q304-33 425-33Z"/><path id="rkWergj5Vae:roboto-thin:82" d="M226-830Q279-956 382-1029Q485-1102 610-1102Q784-1102 868.50-1003.50Q953-905 954-706L954 0L900 0L900-708Q899-882 829-965.50Q759-1049 607-1049Q467-1049 364.50-949.50Q262-850 226-693L226 0L172 0L172-1082L226-1082L226-830Z"/><path id="rkWergj5Vae:roboto-thin:80" d="M239 0L185 0L185-1536L239-1536L239 0Z"/><path id="rkWergj5Vae:roboto-thin:75" d="M121-552Q121-811 230-956.50Q339-1102 529-1102Q650-1102 744-1046.50Q838-991 895-884L895-1082L950-1082L950-19Q950 195 840 315.50Q730 436 541 436Q432 436 341.50 389Q251 342 187 254L225 218Q288 298 363 340.50Q438 383 539 383Q706 383 799 281.50Q892 180 895-5L895-171Q839-79 743.50-29.50Q648 20 527 20Q339 20 230-129Q121-278 121-538L121-552M176-531Q176-299 268-166.50Q360-34 526-34Q663-34 759-97.50Q855-161 895-276L895-767Q807-1048 528-1048Q361-1048 268.50-917Q176-786 176-531Z"/><path id="rkWergj5Vae:roboto-thin:87" d="M839-265Q839-462 503-533Q301-576 222-643.50Q143-711 143-829Q143-948 243.50-1025Q344-1102 505-1102Q680-1102 786-1018.50Q892-935 892-793L837-793Q837-902 745-975Q653-1048 505-1048Q363-1048 280-986Q197-924 197-831Q197-758 228-716.50Q259-675 329-641.50Q399-608 533-577Q667-546 745-504Q823-462 858-404.50Q893-347 893-264Q893-136 788-58Q683 20 513 20Q331 20 219.50-62.50Q108-145 108-275L162-275Q170-161 262.50-97.50Q355-34 513-34Q658-34 748.50-101.50Q839-169 839-265Z"/><path id="rkWergj5Vae:roboto-thin:81" d="M946 0L892 0L892-727Q891-890 820.50-969.50Q750-1049 596-1049Q418-1049 305-892Q238-798 216-684L216 0L161 0L161-1082L216-1082L216-826Q271-958 373-1030Q475-1102 599-1102Q735-1102 821.50-1042Q908-982 935-846Q983-963 1091-1032.50Q1199-1102 1333-1102Q1508-1102 1593.50-1003Q1679-904 1680-706L1680 0L1626 0L1626-702Q1626-880 1554.50-965.50Q1483-1051 1330-1049Q1133-1046 1018-892Q952-803 946-720L946 0Z"/><path id="rkWergj5Vae:roboto-thin:70" d="M999-531Q999-278 890-129Q781 20 593 20Q471 20 375-30.50Q279-81 224-171L224 0L170 0L170-1536L224-1536L224-885Q281-992 374.50-1047Q468-1102 591-1102Q781-1102 890-956.50Q999-811 999-548L999-531M943-552Q943-785 850.50-916.50Q758-1048 592-1048Q456-1048 361.50-978Q267-908 224-770L224-274Q267-159 361.50-96.50Q456-34 594-34Q761-34 852-167Q943-300 943-552Z"/><path id="rkWergj5Vae:roboto-thin:74" d="M254 0L254-1027L66-1027L66-1082L254-1082L254-1240Q255-1390 329.50-1473.50Q404-1557 537-1557Q611-1557 665-1540L657-1488Q605-1503 538-1503Q431-1503 369.50-1433.50Q308-1364 308-1236L308-1082L594-1082L594-1027L308-1027L308 0L254 0Z"/><path id="rkWergj5Vae:roboto-thin:88" d="M293-1374L293-1082L539-1082L539-1027L293-1027L293-259Q293-144 330.50-89Q368-34 456-34Q500-34 563-43L572 8Q539 20 459 20Q341 20 290-45.50Q239-111 238-252L238-1027L38-1027L38-1082L238-1082L238-1374L293-1374Z"/><path id="rkWergj5Vae:roboto-thin:77" d="M239 0L185 0L185-1082L239-1082L239 0M157-1420Q157-1443 173-1459.50Q189-1476 212-1476Q235-1476 251.50-1459.50Q268-1443 268-1420Q268-1397 251.50-1381Q235-1365 212-1365Q189-1365 173-1381Q157-1397 157-1420Z"/><path id="rkWergj5Vae:roboto-thin:93" d="M503-84L510-104L884-1082L944-1082L460 188L436 248Q358 437 178 437Q120 437 98 426L97 375Q129 384 170 384Q255 384 311 334.50Q367 285 408 173L474-6L43-1082L102-1082L503-84Z"/><path id="rkWergj5Vae:roboto-thin:18" d="M147-49Q147-72 163-88.50Q179-105 202-105Q225-105 241.50-88.50Q258-72 258-49Q258-26 241.50-10Q225 6 202 6Q179 6 163-10Q147-26 147-49Z"/><path id="rkWergj5Vae:roboto-thin:92" d="M489-602L834-1082L902-1082L522-555L922 0L855 0L488-508L122 0L55 0L455-555L75-1082L143-1082L489-602Z"/><path id="rkWergj5Vae:roboto-thin:71" d="M539-34Q686-34 781.50-112Q877-190 886-328L940-328Q932-171 819-75.50Q706 20 539 20Q336 20 216.50-127Q97-274 97-526L97-562Q97-808 216.50-955Q336-1102 537-1102Q709-1102 821-999Q933-896 940-725L886-725Q879-871 783.50-959.50Q688-1048 537-1048Q356-1048 253.50-917.50Q151-787 151-555L151-520Q151-293 254.50-163.50Q358-34 539-34Z"/><path id="rkWergj5Vae:roboto-thin:42" d="M1000-716L254-716L254 0L200 0L200-1456L1102-1456L1102-1402L254-1402L254-772L1000-772L1000-716Z"/><path id="rkWergj5Vae:roboto-thin:16" d="M129 255L92 223Q173 119 180 8L181-159L235-159L235-13Q231 146 129 255Z"/></defs><g id="line-0"><use x="0" y="1650" xlink:href="#rkWergj5Vae:roboto-thin:56" /><use x="1224" y="1650" xlink:href="#rkWergj5Vae:roboto-thin:76" /><use x="2345" y="1650" xlink:href="#rkWergj5Vae:roboto-thin:73" /><use x="3377" y="1650" xlink:href="#rkWergj5Vae:roboto-thin:4" /><use x="3867" y="1650" xlink:href="#rkWergj5Vae:roboto-thin:41" /><use x="5016" y="1650" xlink:href="#rkWergj5Vae:roboto-thin:89" /><use x="6137" y="1650" xlink:href="#rkWergj5Vae:roboto-thin:86" /><use x="6802" y="1650" xlink:href="#rkWergj5Vae:roboto-thin:83" /><use x="7929" y="1650" xlink:href="#rkWergj5Vae:roboto-thin:84" /><use x="9050" y="1650" xlink:href="#rkWergj5Vae:roboto-thin:73" /><use x="10082" y="1650" xlink:href="#rkWergj5Vae:roboto-thin:69" /><use x="11163" y="1650" xlink:href="#rkWergj5Vae:roboto-thin:82" /><use x="12284" y="1650" xlink:href="#rkWergj5Vae:roboto-thin:4" /><use x="12774" y="1650" xlink:href="#rkWergj5Vae:roboto-thin:80" /><use x="13196" y="1650" xlink:href="#rkWergj5Vae:roboto-thin:69" /><use x="14277" y="1650" xlink:href="#rkWergj5Vae:roboto-thin:82" /><use x="15398" y="1650" xlink:href="#rkWergj5Vae:roboto-thin:75" /><use x="16521" y="1650" xlink:href="#rkWergj5Vae:roboto-thin:89" /><use x="17642" y="1650" xlink:href="#rkWergj5Vae:roboto-thin:69" /><use x="18723" y="1650" xlink:href="#rkWergj5Vae:roboto-thin:75" /><use x="19846" y="1650" xlink:href="#rkWergj5Vae:roboto-thin:73" /><use x="20878" y="1650" xlink:href="#rkWergj5Vae:roboto-thin:87" /><use x="21897" y="1650" xlink:href="#rkWergj5Vae:roboto-thin:4" /><use x="22387" y="1650" xlink:href="#rkWergj5Vae:roboto-thin:69" /><use x="23468" y="1650" xlink:href="#rkWergj5Vae:roboto-thin:86" /><use x="24134" y="1650" xlink:href="#rkWergj5Vae:roboto-thin:73" /><use x="25166" y="1650" xlink:href="#rkWergj5Vae:roboto-thin:4" /><use x="25656" y="1650" xlink:href="#rkWergj5Vae:roboto-thin:81" /><use x="27492" y="1650" xlink:href="#rkWergj5Vae:roboto-thin:73" /><use x="28524" y="1650" xlink:href="#rkWergj5Vae:roboto-thin:81" /><use x="30360" y="1650" xlink:href="#rkWergj5Vae:roboto-thin:70" /><use x="31481" y="1650" xlink:href="#rkWergj5Vae:roboto-thin:73" /><use x="32513" y="1650" xlink:href="#rkWergj5Vae:roboto-thin:86" /><use x="33198" y="1650" xlink:href="#rkWergj5Vae:roboto-thin:87" /><use x="34217" y="1650" xlink:href="#rkWergj5Vae:roboto-thin:4" /><use x="34707" y="1650" xlink:href="#rkWergj5Vae:roboto-thin:83" /><use x="35834" y="1650" xlink:href="#rkWergj5Vae:roboto-thin:74" /><use x="36479" y="1650" xlink:href="#rkWergj5Vae:roboto-thin:4" /><use x="36969" y="1650" xlink:href="#rkWergj5Vae:roboto-thin:88" /><use x="37617" y="1650" xlink:href="#rkWergj5Vae:roboto-thin:76" /><use x="38738" y="1650" xlink:href="#rkWergj5Vae:roboto-thin:73" /><use x="39770" y="1650" xlink:href="#rkWergj5Vae:roboto-thin:4" /><use x="40260" y="1650" xlink:href="#rkWergj5Vae:roboto-thin:87" /><use x="41279" y="1650" xlink:href="#rkWergj5Vae:roboto-thin:69" /><use x="42360" y="1650" xlink:href="#rkWergj5Vae:roboto-thin:81" /><use x="44196" y="1650" xlink:href="#rkWergj5Vae:roboto-thin:73" /><use x="45228" y="1650" xlink:href="#rkWergj5Vae:roboto-thin:4" /><use x="45718" y="1650" xlink:href="#rkWergj5Vae:roboto-thin:74" /><use x="46363" y="1650" xlink:href="#rkWergj5Vae:roboto-thin:69" /><use x="47444" y="1650" xlink:href="#rkWergj5Vae:roboto-thin:81" /><use x="49280" y="1650" xlink:href="#rkWergj5Vae:roboto-thin:77" /><use x="49702" y="1650" xlink:href="#rkWergj5Vae:roboto-thin:80" /><use x="50124" y="1650" xlink:href="#rkWergj5Vae:roboto-thin:93" /><use x="50995" y="1650" xlink:href="#rkWergj5Vae:roboto-thin:18" /></g><g id="line-1"><use x="10487" y="4107.6" xlink:href="#rkWergj5Vae:roboto-thin:56" /><use x="11711" y="4107.6" xlink:href="#rkWergj5Vae:roboto-thin:76" /><use x="12832" y="4107.6" xlink:href="#rkWergj5Vae:roboto-thin:73" /><use x="13864" y="4107.6" xlink:href="#rkWergj5Vae:roboto-thin:77" /><use x="14286" y="4107.6" xlink:href="#rkWergj5Vae:roboto-thin:86" /><use x="14971" y="4107.6" xlink:href="#rkWergj5Vae:roboto-thin:4" /><use x="15461" y="4107.6" xlink:href="#rkWergj5Vae:roboto-thin:87" /><use x="16480" y="4107.6" xlink:href="#rkWergj5Vae:roboto-thin:73" /><use x="17512" y="4107.6" xlink:href="#rkWergj5Vae:roboto-thin:84" /><use x="18633" y="4107.6" xlink:href="#rkWergj5Vae:roboto-thin:69" /><use x="19714" y="4107.6" xlink:href="#rkWergj5Vae:roboto-thin:86" /><use x="20359" y="4107.6" xlink:href="#rkWergj5Vae:roboto-thin:69" /><use x="21440" y="4107.6" xlink:href="#rkWergj5Vae:roboto-thin:88" /><use x="22088" y="4107.6" xlink:href="#rkWergj5Vae:roboto-thin:73" /><use x="23120" y="4107.6" xlink:href="#rkWergj5Vae:roboto-thin:4" /><use x="23610" y="4107.6" xlink:href="#rkWergj5Vae:roboto-thin:73" /><use x="24642" y="4107.6" xlink:href="#rkWergj5Vae:roboto-thin:92" /><use x="25620" y="4107.6" xlink:href="#rkWergj5Vae:roboto-thin:77" /><use x="26042" y="4107.6" xlink:href="#rkWergj5Vae:roboto-thin:87" /><use x="27061" y="4107.6" xlink:href="#rkWergj5Vae:roboto-thin:88" /><use x="27709" y="4107.6" xlink:href="#rkWergj5Vae:roboto-thin:73" /><use x="28741" y="4107.6" xlink:href="#rkWergj5Vae:roboto-thin:82" /><use x="29862" y="4107.6" xlink:href="#rkWergj5Vae:roboto-thin:71" /><use x="30901" y="4107.6" xlink:href="#rkWergj5Vae:roboto-thin:73" /><use x="31933" y="4107.6" xlink:href="#rkWergj5Vae:roboto-thin:4" /><use x="32423" y="4107.6" xlink:href="#rkWergj5Vae:roboto-thin:77" /><use x="32845" y="4107.6" xlink:href="#rkWergj5Vae:roboto-thin:87" /><use x="33864" y="4107.6" xlink:href="#rkWergj5Vae:roboto-thin:4" /><use x="34354" y="4107.6" xlink:href="#rkWergj5Vae:roboto-thin:69" /><use x="35435" y="4107.6" xlink:href="#rkWergj5Vae:roboto-thin:4" /><use x="35925" y="4107.6" xlink:href="#rkWergj5Vae:roboto-thin:81" /><use x="37761" y="4107.6" xlink:href="#rkWergj5Vae:roboto-thin:93" /><use x="38739" y="4107.6" xlink:href="#rkWergj5Vae:roboto-thin:88" /><use x="39387" y="4107.6" xlink:href="#rkWergj5Vae:roboto-thin:76" /><use x="40508" y="4107.6" xlink:href="#rkWergj5Vae:roboto-thin:18" /></g><g id="line-2"><use x="12743" y="6565.2" xlink:href="#rkWergj5Vae:roboto-thin:42" /><use x="13894" y="6565.2" xlink:href="#rkWergj5Vae:roboto-thin:83" /><use x="15021" y="6565.2" xlink:href="#rkWergj5Vae:roboto-thin:86" /><use x="15706" y="6565.2" xlink:href="#rkWergj5Vae:roboto-thin:4" /><use x="16196" y="6565.2" xlink:href="#rkWergj5Vae:roboto-thin:87" /><use x="17215" y="6565.2" xlink:href="#rkWergj5Vae:roboto-thin:71" /><use x="18254" y="6565.2" xlink:href="#rkWergj5Vae:roboto-thin:77" /><use x="18676" y="6565.2" xlink:href="#rkWergj5Vae:roboto-thin:73" /><use x="19708" y="6565.2" xlink:href="#rkWergj5Vae:roboto-thin:82" /><use x="20829" y="6565.2" xlink:href="#rkWergj5Vae:roboto-thin:71" /><use x="21868" y="6565.2" xlink:href="#rkWergj5Vae:roboto-thin:73" /><use x="22900" y="6565.2" xlink:href="#rkWergj5Vae:roboto-thin:16" /><use x="23283" y="6565.2" xlink:href="#rkWergj5Vae:roboto-thin:4" /><use x="23773" y="6565.2" xlink:href="#rkWergj5Vae:roboto-thin:81" /><use x="25609" y="6565.2" xlink:href="#rkWergj5Vae:roboto-thin:89" /><use x="26730" y="6565.2" xlink:href="#rkWergj5Vae:roboto-thin:87" /><use x="27749" y="6565.2" xlink:href="#rkWergj5Vae:roboto-thin:77" /><use x="28171" y="6565.2" xlink:href="#rkWergj5Vae:roboto-thin:71" /><use x="29210" y="6565.2" xlink:href="#rkWergj5Vae:roboto-thin:16" /><use x="29593" y="6565.2" xlink:href="#rkWergj5Vae:roboto-thin:4" /><use x="30083" y="6565.2" xlink:href="#rkWergj5Vae:roboto-thin:87" /><use x="31102" y="6565.2" xlink:href="#rkWergj5Vae:roboto-thin:84" /><use x="32223" y="6565.2" xlink:href="#rkWergj5Vae:roboto-thin:83" /><use x="33350" y="6565.2" xlink:href="#rkWergj5Vae:roboto-thin:86" /><use x="34035" y="6565.2" xlink:href="#rkWergj5Vae:roboto-thin:88" /><use x="34683" y="6565.2" xlink:href="#rkWergj5Vae:roboto-thin:16" /><use x="35066" y="6565.2" xlink:href="#rkWergj5Vae:roboto-thin:4" /><use x="35556" y="6565.2" xlink:href="#rkWergj5Vae:roboto-thin:73" /><use x="36588" y="6565.2" xlink:href="#rkWergj5Vae:roboto-thin:88" /><use x="37236" y="6565.2" xlink:href="#rkWergj5Vae:roboto-thin:71" /><use x="38275" y="6565.2" xlink:href="#rkWergj5Vae:roboto-thin:16" /></g></svg>