<svg xmlns="http://www.w3.org/2000/svg" xmlns:xlink="http://www.w3.org/1999/xlink" width="554" height="83" viewBox="0 0 47243 7065.2"><defs><path id="s74:robotocondensed-bold:56" d="M1060-1211L700-1211L700 0L405 0L405-1211L51-1211L51-1456L1060-1456L1060-1211Z"/><path id="s74:robotocondensed-bold:76" d="M379-987Q471-1102 605-1102Q753-1102 830-998Q907-894 908-688L908 0L624 0L624-685Q624-780 594.50-822.50Q565-865 499-865Q422-865 379-794L379 0L96 0L96-1536L379-1536L379-987Z"/><path id="s74:robotocondensed-bold:73" d="M540 20Q322 20 200-110Q78-240 78-482L78-568Q78-824 190-963Q302-1102 511-1102Q715-1102 818-971.50Q921-841 923-585L923-446L360-446Q366-326 413-270.50Q460-215 558-215Q700-215 795-312L906-141Q854-69 755-24.50Q656 20 540 20M362-644L645-644L645-670Q643-767 613-817Q583-867 509-867Q435-867 401.50-814Q368-761 362-644Z"/><path id="s74:robotocondensed-bold:4" d=""/><path id="s74:robotocondensed-bold:41" d="M869-630L411-630L411-244L953-244L953 0L117 0L117-1456L951-1456L951-1211L411-1211L411-867L869-867L869-630Z"/><path id="s74:robotocondensed-bold:89" d="M635-99Q547 20 399 20Q250 20 173-82.50Q96-185 96-381L96-1082L379-1082L379-374Q381-216 484-216Q581-216 624-300L624-1082L909-1082L909 0L643 0L635-99Z"/><path id="s74:robotocondensed-bold:86" d="M637-809L543-817Q427-817 386-715L386 0L102 0L102-1082L369-1082L377-965Q444-1102 562-1102Q610-1102 640-1089L637-809Z"/><path id="s74:robotocondensed-bold:83" d="M70-576Q70-822 186-962Q302-1102 507-1102Q714-1102 830-962Q946-822 946-574L946-505Q946-258 831-119Q716 20 509 20Q301 20 185.50-119.50Q70-259 70-507L70-576M354-505Q354-215 509-215Q652-215 663-457L664-576Q664-724 623-795.50Q582-867 507-867Q435-867 394.50-795.50Q354-724 354-576L354-505Z"/><path id="s74:robotocondensed-bold:84" d="M946-507Q946-252 858.50-116Q771 20 598 20Q466 20 386-87L386 416L103 416L103-1082L365-1082L375-983Q456-1102 596-1102Q769-1102 856.50-976Q944-850 946-590L946-507M664-578Q664-735 629.50-800Q595-865 513-865Q426-865 386-792L386-285Q424-215 515-215Q599-215 631.50-286Q664-357 664-507L664-578Z"/><path id="s74:robotocondensed-bold:69" d="M617 0Q605-25 593-84Q517 20 387 20Q251 20 161.50-70Q72-160 72-303Q72-473 180.50-566Q289-659 493-661L579-661L579-748Q579-821 554-851Q529-881 481-881Q375-881 375-757L92-757Q92-907 204.50-1004.50Q317-1102 489-1102Q667-1102 764.50-1009.50Q862-917 862-745L862-236Q864-96 902-17L902 0L617 0M450-202Q497-202 530-221Q563-240 579-266L579-491L511-491Q439-491 397.50-445Q356-399 356-322Q356-202 450-202Z"/><path id="s74:robotocondensed-bold:82" d="M362-1082L370-975Q466-1102 621-1102Q900-1102 908-711L908 0L624 0L624-690Q624-782 596.50-823.50Q569-865 500-865Q423-865 380-786L380 0L96 0L96-1082L362-1082Z"/><path id="s74:robotocondensed-bold:80" d="M400 0L116 0L116-1536L400-1536L400 0Z"/><path id="s74:robotocondensed-bold:75" d="M69-574Q69-840 165-971Q261-1102 434-1102Q581-1102 661-986L672-1082L927-1082L927 0Q927 207 811 316.50Q695 426 478 426Q389 426 291 390.50Q193 355 145 300L240 104Q280 146 344 172.50Q408 199 465 199Q560 199 601.50 153.50Q643 108 644 7L644-86Q563 20 433 20Q260 20 165.50-114.50Q71-249 69-494L69-574M352-503Q352-353 391-284.50Q430-216 515-216Q602-216 644-279L644-796Q600-865 517-865Q433-865 392.50-796Q352-727 352-574L352-503Z"/><path id="s74:robotocondensed-bold:87" d="M582-290Q582-326 547.50-356.50Q513-387 394-439Q219-510 153.50-586Q88-662 88-775Q88-917 190.50-1009.50Q293-1102 462-1102Q640-1102 747-1010Q854-918 854-763L571-763Q571-895 461-895Q416-895 387-867Q358-839 358-789Q358-753 390-725.50Q422-698 541-647Q714-583 785.50-504.50Q857-426 857-301Q857-156 748-68Q639 20 462 20Q343 20 252-26.50Q161-73 109.50-156Q58-239 58-335L327-335Q329-261 361.50-224Q394-187 468-187Q582-187 582-290Z"/><path id="s74:robotocondensed-bold:81" d="M369-1082L377-982Q472-1102 628-1102Q790-1102 857-956Q950-1102 1122-1102Q1406-1102 1413-709L1413 0L1130 0L1130-691Q1130-785 1104-825Q1078-865 1016-865Q937-865 898-768L900-734L900 0L617 0L617-689Q617-782 592-823.50Q567-865 503-865Q430-865 387-786L387 0L104 0L104-1082L369-1082Z"/><path id="s74:robotocondensed-bold:70" d="M947-506Q947-243 863-111.50Q779 20 599 20Q458 20 373-107L364 0L103 0L103-1536L386-1536L386-994Q466-1102 597-1102Q777-1102 861-971.50Q945-841 947-589L947-506M664-577Q664-748 631-806.50Q598-865 516-865Q427-865 386-784L386-291Q424-215 518-215Q599-215 630.50-268Q662-321 664-474L664-577Z"/><path id="s74:robotocondensed-bold:74" d="M168 0L168-869L37-869L37-1082L168-1082L168-1179Q169-1358 262.50-1457.50Q356-1557 521-1557Q571-1557 649-1537L647-1311Q618-1320 578-1320Q452-1320 452-1170L452-1082L621-1082L621-869L452-869L452 0L168 0Z"/><path id="s74:robotocondensed-bold:88" d="M432-1348L432-1082L577-1082L577-869L432-869L432-332Q432-268 449.50-244Q467-220 517-220Q558-220 584-227L582-7Q510 20 426 20Q152 20 149-294L149-869L24-869L24-1082L149-1082L149-1348L432-1348Z"/><path id="s74:robotocondensed-bold:77" d="M400 0L116 0L116-1082L400-1082L400 0M103-1362Q103-1428 145-1470Q187-1512 257-1512Q327-1512 369-1470Q411-1428 411-1362Q411-1297 369.50-1254Q328-1211 257-1211Q186-1211 144.50-1254Q103-1297 103-1362Z"/><path id="s74:robotocondensed-bold:93" d="M450-471L594-1082L896-1082L540 162Q460 437 239 437Q188 437 123 418L123 197L156 198Q222 198 255.50 172.50Q289 147 306 84L328 11L16-1082L320-1082L450-471Z"/><path id="s74:robotocondensed-bold:18" d="M126-144Q126-212 171.50-256Q217-300 290-300Q361-300 408-256.50Q455-213 455-144Q455-74 407.50-31.50Q360 11 290 11Q219 11 172.50-32Q126-75 126-144Z"/><path id="s74:robotocondensed-bold:92" d="M465-761L591-1082L891-1082L644-553L900 0L599 0L466-339L334 0L32 0L288-553L43-1082L344-1082L465-761Z"/><path id="s74:robotocondensed-bold:71" d="M494-215Q617-215 619-375L885-375Q883-198 776-89Q669 20 500 20Q291 20 181-110Q71-240 69-493L69-579Q69-834 177.50-968Q286-1102 498-1102Q677-1102 780-991.50Q883-881 885-678L619-678Q618-769 589-818Q560-867 493-867Q419-867 387-814.50Q355-762 353-611L353-501Q353-369 366-316.50Q379-264 409-239.50Q439-215 494-215Z"/><path id="s74:robotocondensed-bold:42" d="M868-594L411-594L411 0L117 0L117-1456L923-1456L923-1211L411-1211L411-838L868-838L868-594Z"/><path id="s74:robotocondensed-bold:16" d="M187 367L36 288L74 217Q138 99 140-21L140-246L386-246L385-45Q384 61 331 175Q278 289 187 367Z"/></defs><g id="line-0"><use x="0" y="1650" xlink:href="#s74:robotocondensed-bold:56"/><use x="1112" y="1650" xlink:href="#s74:robotocondensed-bold:76"/><use x="2120" y="1650" xlink:href="#s74:robotocondensed-bold:73"/><use x="3100" y="1650" xlink:href="#s74:robotocondensed-bold:4"/><use x="3572" y="1650" xlink:href="#s74:robotocondensed-bold:41"/><use x="4560" y="1650" xlink:href="#s74:robotocondensed-bold:89"/><use x="5568" y="1650" xlink:href="#s74:robotocondensed-bold:86"/><use x="6211" y="1650" xlink:href="#s74:robotocondensed-bold:83"/><use x="7230" y="1650" xlink:href="#s74:robotocondensed-bold:84"/><use x="8244" y="1650" xlink:href="#s74:robotocondensed-bold:73"/><use x="9224" y="1650" xlink:href="#s74:robotocondensed-bold:69"/><use x="10188" y="1650" xlink:href="#s74:robotocondensed-bold:82"/><use x="11196" y="1650" xlink:href="#s74:robotocondensed-bold:4"/><use x="11668" y="1650" xlink:href="#s74:robotocondensed-bold:80"/><use x="12184" y="1650" xlink:href="#s74:robotocondensed-bold:69"/><use x="13148" y="1650" xlink:href="#s74:robotocondensed-bold:82"/><use x="14156" y="1650" xlink:href="#s74:robotocondensed-bold:75"/><use x="15186" y="1650" xlink:href="#s74:robotocondensed-bold:89"/><use x="16194" y="1650" xlink:href="#s74:robotocondensed-bold:69"/><use x="17158" y="1650" xlink:href="#s74:robotocondensed-bold:75"/><use x="18188" y="1650" xlink:href="#s74:robotocondensed-bold:73"/><use x="19168" y="1650" xlink:href="#s74:robotocondensed-bold:87"/><use x="20098" y="1650" xlink:href="#s74:robotocondensed-bold:4"/><use x="20570" y="1650" xlink:href="#s74:robotocondensed-bold:69"/><use x="21534" y="1650" xlink:href="#s74:robotocondensed-bold:86"/><use x="22194" y="1650" xlink:href="#s74:robotocondensed-bold:73"/><use x="23174" y="1650" xlink:href="#s74:robotocondensed-bold:4"/><use x="23646" y="1650" xlink:href="#s74:robotocondensed-bold:81"/><use x="25165" y="1650" xlink:href="#s74:robotocondensed-bold:73"/><use x="26145" y="1650" xlink:href="#s74:robotocondensed-bold:81"/><use x="27664" y="1650" xlink:href="#s74:robotocondensed-bold:70"/><use x="28678" y="1650" xlink:href="#s74:robotocondensed-bold:73"/><use x="29658" y="1650" xlink:href="#s74:robotocondensed-bold:86"/><use x="30337" y="1650" xlink:href="#s74:robotocondensed-bold:87"/><use x="31267" y="1650" xlink:href="#s74:robotocondensed-bold:4"/><use x="31739" y="1650" xlink:href="#s74:robotocondensed-bold:83"/><use x="32758" y="1650" xlink:href="#s74:robotocondensed-bold:74"/><use x="33429" y="1650" xlink:href="#s74:robotocondensed-bold:4"/><use x="33901" y="1650" xlink:href="#s74:robotocondensed-bold:88"/><use x="34530" y="1650" xlink:href="#s74:robotocondensed-bold:76"/><use x="35538" y="1650" xlink:href="#s74:robotocondensed-bold:73"/><use x="36518" y="1650" xlink:href="#s74:robotocondensed-bold:4"/><use x="36990" y="1650" xlink:href="#s74:robotocondensed-bold:87"/><use x="37920" y="1650" xlink:href="#s74:robotocondensed-bold:69"/><use x="38884" y="1650" xlink:href="#s74:robotocondensed-bold:81"/><use x="40403" y="1650" xlink:href="#s74:robotocondensed-bold:73"/><use x="41383" y="1650" xlink:href="#s74:robotocondensed-bold:4"/><use x="41855" y="1650" xlink:href="#s74:robotocondensed-bold:74"/><use x="42526" y="1650" xlink:href="#s74:robotocondensed-bold:69"/><use x="43490" y="1650" xlink:href="#s74:robotocondensed-bold:81"/><use x="45009" y="1650" xlink:href="#s74:robotocondensed-bold:77"/><use x="45525" y="1650" xlink:href="#s74:robotocondensed-bold:80"/><use x="46041" y="1650" xlink:href="#s74:robotocondensed-bold:93"/><use x="46788" y="1650" xlink:href="#s74:robotocondensed-bold:18"/></g><g id="line-1"><use x="9325.5" y="4107.6" xlink:href="#s74:robotocondensed-bold:56"/><use x="10437.5" y="4107.6" xlink:href="#s74:robotocondensed-bold:76"/><use x="11445.5" y="4107.6" xlink:href="#s74:robotocondensed-bold:73"/><use x="12425.5" y="4107.6" xlink:href="#s74:robotocondensed-bold:77"/><use x="12941.5" y="4107.6" xlink:href="#s74:robotocondensed-bold:86"/><use x="13620.5" y="4107.6" xlink:href="#s74:robotocondensed-bold:4"/><use x="14092.5" y="4107.6" xlink:href="#s74:robotocondensed-bold:87"/><use x="15022.5" y="4107.6" xlink:href="#s74:robotocondensed-bold:73"/><use x="16002.5" y="4107.6" xlink:href="#s74:robotocondensed-bold:84"/><use x="17016.5" y="4107.6" xlink:href="#s74:robotocondensed-bold:69"/><use x="17980.5" y="4107.6" xlink:href="#s74:robotocondensed-bold:86"/><use x="18629.5" y="4107.6" xlink:href="#s74:robotocondensed-bold:69"/><use x="19593.5" y="4107.6" xlink:href="#s74:robotocondensed-bold:88"/><use x="20222.5" y="4107.6" xlink:href="#s74:robotocondensed-bold:73"/><use x="21202.5" y="4107.6" xlink:href="#s74:robotocondensed-bold:4"/><use x="21674.5" y="4107.6" xlink:href="#s74:robotocondensed-bold:73"/><use x="22654.5" y="4107.6" xlink:href="#s74:robotocondensed-bold:92"/><use x="23581.5" y="4107.6" xlink:href="#s74:robotocondensed-bold:77"/><use x="24097.5" y="4107.6" xlink:href="#s74:robotocondensed-bold:87"/><use x="25027.5" y="4107.6" xlink:href="#s74:robotocondensed-bold:88"/><use x="25656.5" y="4107.6" xlink:href="#s74:robotocondensed-bold:73"/><use x="26636.5" y="4107.6" xlink:href="#s74:robotocondensed-bold:82"/><use x="27644.5" y="4107.6" xlink:href="#s74:robotocondensed-bold:71"/><use x="28586.5" y="4107.6" xlink:href="#s74:robotocondensed-bold:73"/><use x="29566.5" y="4107.6" xlink:href="#s74:robotocondensed-bold:4"/><use x="30038.5" y="4107.6" xlink:href="#s74:robotocondensed-bold:77"/><use x="30554.5" y="4107.6" xlink:href="#s74:robotocondensed-bold:87"/><use x="31484.5" y="4107.6" xlink:href="#s74:robotocondensed-bold:4"/><use x="31956.5" y="4107.6" xlink:href="#s74:robotocondensed-bold:69"/><use x="32920.5" y="4107.6" xlink:href="#s74:robotocondensed-bold:4"/><use x="33392.5" y="4107.6" xlink:href="#s74:robotocondensed-bold:81"/><use x="34911.5" y="4107.6" xlink:href="#s74:robotocondensed-bold:93"/><use x="35825.5" y="4107.6" xlink:href="#s74:robotocondensed-bold:88"/><use x="36454.5" y="4107.6" xlink:href="#s74:robotocondensed-bold:76"/><use x="37462.5" y="4107.6" xlink:href="#s74:robotocondensed-bold:18"/></g><g id="line-2"><use x="11387" y="6565.2" xlink:href="#s74:robotocondensed-bold:42"/><use x="12340" y="6565.2" xlink:href="#s74:robotocondensed-bold:83"/><use x="13359" y="6565.2" xlink:href="#s74:robotocondensed-bold:86"/><use x="14038" y="6565.2" xlink:href="#s74:robotocondensed-bold:4"/><use x="14510" y="6565.2" xlink:href="#s74:robotocondensed-bold:87"/><use x="15440" y="6565.2" xlink:href="#s74:robotocondensed-bold:71"/><use x="16382" y="6565.2" xlink:href="#s74:robotocondensed-bold:77"/><use x="16898" y="6565.2" xlink:href="#s74:robotocondensed-bold:73"/><use x="17878" y="6565.2" xlink:href="#s74:robotocondensed-bold:82"/><use x="18886" y="6565.2" xlink:href="#s74:robotocondensed-bold:71"/><use x="19828" y="6565.2" xlink:href="#s74:robotocondensed-bold:73"/><use x="20808" y="6565.2" xlink:href="#s74:robotocondensed-bold:16"/><use x="21311" y="6565.2" xlink:href="#s74:robotocondensed-bold:4"/><use x="21783" y="6565.2" xlink:href="#s74:robotocondensed-bold:81"/><use x="23302" y="6565.2" xlink:href="#s74:robotocondensed-bold:89"/><use x="24310" y="6565.2" xlink:href="#s74:robotocondensed-bold:87"/><use x="25240" y="6565.2" xlink:href="#s74:robotocondensed-bold:77"/><use x="25756" y="6565.2" xlink:href="#s74:robotocondensed-bold:71"/><use x="26698" y="6565.2" xlink:href="#s74:robotocondensed-bold:16"/><use x="27201" y="6565.2" xlink:href="#s74:robotocondensed-bold:4"/><use x="27673" y="6565.2" xlink:href="#s74:robotocondensed-bold:87"/><use x="28603" y="6565.2" xlink:href="#s74:robotocondensed-bold:84"/><use x="29617" y="6565.2" xlink:href="#s74:robotocondensed-bold:83"/><use x="30636" y="6565.2" xlink:href="#s74:robotocondensed-bold:86"/><use x="31315" y="6565.2" xlink:href="#s74:robotocondensed-bold:88"/><use x="31944" y="6565.2" xlink:href="#s74:robotocondensed-bold:16"/><use x="32447" y="6565.2" xlink:href="#s74:robotocondensed-bold:4"/><use x="32919" y="6565.2" xlink:href="#s74:robotocondensed-bold:73"/><use x="33899" y="6565.2" xlink:href="#s74:robotocondensed-bold:88"/><use x="34528" y="6565.2" xlink:href="#s74:robotocondensed-bold:71"/><use x="35470" y="6565.2" xlink:href="#s74:robotocondensed-bold:16"/></g></svg>