<svg xmlns="http://www.w3.org/2000/svg" xmlns:xlink="http://www.w3.org/1999/xlink" width="645" height="86" viewBox="0 0 55063 7338.7"><defs><path id="s93:robotoslab-thin:54" d="M1194-1456L1194-1163L1140-1163L1140-1402L664-1402L664-54L827-54L827 0L447 0L447-54L610-54L610-1402L134-1402L134-1163L80-1163L80-1456L1194-1456Z"/><path id="s93:robotoslab-thin:74" d="M62-1506L62-1560L279-1560L279-854Q329-972 426-1037Q523-1102 663-1102Q832-1102 919.50-995Q1007-888 1007-658L1007-54L1170-54L1170 0L789 0L789-54L952-54L952-660Q952-873 873.50-960.50Q795-1048 664-1048Q489-1048 396-943.50Q303-839 279-676L279-54L442-54L442 0L62 0L62-54L225-54L225-1506L62-1506Z"/><path id="s93:robotoslab-thin:71" d="M566 21Q381 21 246.50-128.50Q112-278 112-500L112-564Q112-797 242-949.50Q372-1102 563-1102Q746-1102 861.50-982Q977-862 977-660L977-577L166-577L166-564L166-500Q166-304 281-168.50Q396-33 566-33Q687-33 768.50-66Q850-99 908-165L937-123Q873-52 781.50-15.50Q690 21 566 21M563-1048Q402-1048 295-930.50Q188-813 174-637L177-631L923-631L923-664Q923-829 823-938.50Q723-1048 563-1048Z"/><path id="s93:robotoslab-thin:3" d=""/><path id="s93:robotoslab-thin:39" d="M71 0L71-54L234-54L234-1402L71-1402L71-1456L1120-1456L1120-1163L1066-1163L1066-1402L288-1402L288-786L918-786L918-732L288-732L288-54L1066-54L1066-293L1120-293L1120 0L71 0Z"/><path id="s93:robotoslab-thin:87" d="M918-194Q867-91 772.50-35Q678 21 543 21Q376 21 281.50-97.50Q187-216 187-465L187-1028L44-1028L44-1082L187-1082L241-1082L241-463Q241-243 322-138Q403-33 541-33Q710-33 800.50-116Q891-199 916-336L916-1028L753-1028L753-1082L916-1082L971-1082L971-54L1134-54L1134 0L926 0L918-194Z"/><path id="s93:robotoslab-thin:84" d="M296-1082L306-894L306-857Q351-973 440-1037.50Q529-1102 659-1102Q682-1102 701.50-1098.50Q721-1095 735-1091L729-1043L659-1049Q514-1049 423.50-955.50Q333-862 306-709L306-54L469-54L469 0L89 0L89-54L252-54L252-1028L89-1028L89-1082L252-1082L296-1082Z"/><path id="s93:robotoslab-thin:81" d="M104-562Q104-800 235.50-951Q367-1102 577-1102Q788-1102 919.50-951Q1051-800 1051-562L1051-520Q1051-281 919.50-130Q788 21 579 21Q368 21 236-130Q104-281 104-520L104-562M158-520Q158-316 272-174.50Q386-33 579-33Q769-33 883-175Q997-317 997-520L997-562Q997-761 882-904.50Q767-1048 577-1048Q386-1048 272-904.50Q158-761 158-562L158-520Z"/><path id="s93:robotoslab-thin:82" d="M65 362L228 362L228-1028L65-1028L65-1082L270-1082L281-888Q335-988 428-1045Q521-1102 649-1102Q840-1102 948.50-950.50Q1057-799 1057-542L1057-521Q1057-271 949-125Q841 21 651 21Q524 21 429.50-30Q335-81 282-168L282 362L445 362L445 416L65 416L65 362M1002-542Q1002-767 911.50-907.50Q821-1048 650-1048Q493-1048 406-969Q319-890 282-775L282-269Q322-161 416-97Q510-33 652-33Q823-33 912.50-165Q1002-297 1002-521L1002-542Z"/><path id="s93:robotoslab-thin:67" d="M885 0Q872-71 867.50-106.50Q863-142 863-183L863-199Q801-102 689.50-40.50Q578 21 427 21Q277 21 190.50-60.50Q104-142 104-274Q104-420 237-512Q370-604 594-604L863-604L863-762Q863-897 776.50-972.50Q690-1048 533-1048Q430-1048 340.50-1019Q251-990 188-939L187-766L133-766L134-972Q211-1029 315.50-1065.50Q420-1102 533-1102Q707-1102 812-1014Q917-926 917-760L917-218Q917-176 920.50-135Q924-94 932-54L1062-54L1062 0L885 0M427-32Q580-32 693-101Q806-170 863-292L863-549L597-549Q398-549 278-471.50Q158-394 158-270Q158-169 232-100.50Q306-32 427-32Z"/><path id="s93:robotoslab-thin:80" d="M89-54L252-54L252-1028L89-1028L89-1082L298-1082L305-859Q354-975 448-1038.50Q542-1102 680-1102Q857-1102 945.50-990.50Q1034-879 1034-637L1034-54L1197-54L1197 0L817 0L817-54L980-54L980-639Q980-864 899.50-956Q819-1048 681-1048Q506-1048 417-943.50Q328-839 306-676L306-54L469-54L469 0L89 0L89-54Z"/><path id="s93:robotoslab-thin:78" d="M82-1506L82-1560L299-1560L299-54L462-54L462 0L82 0L82-54L245-54L245-1506L82-1506Z"/><path id="s93:robotoslab-thin:73" d="M112-542Q112-799 220-950.50Q328-1102 520-1102Q648-1102 740.50-1043Q833-984 887-882L895-1082L941-1082L941-14Q941 194 831.50 315.50Q722 437 532 437Q453 437 367.50 420.50Q282 404 218 375L234 321Q307 353 375 368.50Q443 384 530 384Q703 384 794.50 277.50Q886 171 886-14L886-171Q832-83 738.50-31Q645 21 518 21Q327 21 219.50-125Q112-271 112-521L112-542M167-521Q167-297 256-165Q345-33 517-33Q661-33 753.50-99Q846-165 886-276L886-767Q848-886 762.50-967Q677-1048 519-1048Q347-1048 257-907.50Q167-767 167-542L167-521Z"/><path id="s93:robotoslab-thin:85" d="M852-753L798-753L798-928Q746-986 665.50-1017Q585-1048 479-1048Q327-1048 249-982.50Q171-917 171-831Q171-746 237-686Q303-626 499-581Q680-539 773.50-466.50Q867-394 867-264Q867-137 763-58Q659 21 487 21Q369 21 269.50-17Q170-55 103-122L103-315L157-315L157-152Q216-89 303-61Q390-33 487-33Q637-33 725-103Q813-173 813-265Q813-351 739.50-421.50Q666-492 483-532Q292-572 204.50-638.50Q117-705 117-829Q117-945 215-1023.50Q313-1102 479-1102Q595-1102 693.50-1062Q792-1022 852-955L852-753Z"/><path id="s93:robotoslab-thin:79" d="M89-54L252-54L252-1028L89-1028L89-1082L299-1082L306-859Q355-974 447-1038Q539-1102 671-1102Q811-1102 898.50-1030.50Q986-959 1019-810Q1062-948 1159.50-1025.50Q1257-1103 1403-1103Q1582-1103 1675-986Q1768-869 1768-618L1768-55L1931-55L1931-1L1550-1L1550-55L1713-55L1713-620Q1713-855 1629-952Q1545-1049 1405-1049Q1233-1049 1145-945.50Q1057-842 1035-678Q1035-658 1036-643.50Q1037-629 1037-615L1037-54L1200-54L1200 0L819 0L819-54L982-54L982-619Q982-855 898-951.50Q814-1048 673-1048Q505-1048 418-949.50Q331-851 307-694L307-54L470-54L470 0L89 0L89-54Z"/><path id="s93:robotoslab-thin:68" d="M984-521Q984-271 876-125Q768 21 578 21Q449 21 354.50-31.50Q260-84 207-173L200 0L155 0L155-1506L-8-1506L-8-1560L209-1560L209-885Q263-986 355-1044Q447-1102 576-1102Q767-1102 875.50-950.50Q984-799 984-542L984-521M928-542Q928-767 838-907.50Q748-1048 577-1048Q419-1048 332.50-967.50Q246-887 209-770L209-274Q248-164 341.50-98.50Q435-33 579-33Q750-33 839-165Q928-297 928-521L928-542Z"/><path id="s93:robotoslab-thin:72" d="M114-54L277-54L277-1027L89-1027L89-1082L277-1082L277-1260Q277-1413 351.50-1497Q426-1581 560-1581Q593-1581 625.50-1577Q658-1573 688-1564L680-1512Q648-1520 623.50-1523.50Q599-1527 561-1527Q453-1527 392-1456Q331-1385 331-1260L331-1082L617-1082L617-1027L331-1027L331-54L494-54L494 0L114 0L114-54Z"/><path id="s93:robotoslab-thin:86" d="M320-1374L320-1082L586-1082L586-1027L320-1027L320-279Q320-146 365-89.50Q410-33 484-33Q516-33 541-35Q566-37 610-42L620 7Q590 15 558.50 18Q527 21 487 21Q378 21 321.50-50Q265-121 265-279L265-1027L65-1027L65-1082L265-1082L265-1374L320-1374Z"/><path id="s93:robotoslab-thin:75" d="M89-54L252-54L252-1028L89-1028L89-1082L306-1082L306-54L469-54L469 0L89 0L89-54M306-1422L252-1422L252-1560L306-1560L306-1422Z"/><path id="s93:robotoslab-thin:91" d="M374-1028L232-1028L567-196L607-88L613-88L619-104L972-1028L830-1028L830-1082L1150-1082L1150-1028L1032-1028L572 180Q528 294 469.50 365.50Q411 437 283 437Q264 437 241 433.50Q218 430 207 426L216 375Q227 378 249 381Q271 384 283 384Q375 384 426.50 330Q478 276 518 170L583-6L173-1028L55-1028L55-1082L374-1082L374-1028Z"/><path id="s93:robotoslab-thin:16" d="M231 0L145 0L145-130L231-130L231 0Z"/><path id="s93:robotoslab-thin:90" d="M82-54L208-54L569-555L228-1028L102-1028L102-1082L420-1082L420-1028L296-1028L603-602L909-1028L785-1028L785-1082L1103-1082L1103-1028L977-1028L636-555L997-54L1123-54L1123 0L806 0L806-54L930-54L602-508L275-54L399-54L399 0L82 0L82-54Z"/><path id="s93:robotoslab-thin:69" d="M546-33Q683-33 788-108Q893-183 893-333L939-333L941-327Q945-168 824.50-73.50Q704 21 546 21Q339 21 221.50-128Q104-277 104-520L104-562Q104-804 221-953Q338-1102 544-1102Q666-1102 770-1051.50Q874-1001 937-915L937-683L883-683L883-895Q826-965 739.50-1006.50Q653-1048 544-1048Q354-1048 256-912Q158-776 158-562L158-520Q158-304 256-168.50Q354-33 546-33Z"/><path id="s93:robotoslab-thin:40" d="M71-54L234-54L234-1402L71-1402L71-1456L1136-1456L1136-1163L1082-1163L1082-1402L288-1402L288-772L934-772L934-716L288-716L288-54L451-54L451 0L71 0L71-54Z"/><path id="s93:robotoslab-thin:14" d="M235-27Q235 61 207 131Q179 201 129 255L92 223Q138 162 159.50 105.50Q181 49 181-25L181-159L235-159L235-27Z"/></defs><g id="line-0"><use x="0" y="1868.5" xlink:href="#s93:robotoslab-thin:54"/><use x="1277" y="1868.5" xlink:href="#s93:robotoslab-thin:74"/><use x="2545" y="1868.5" xlink:href="#s93:robotoslab-thin:71"/><use x="3649" y="1868.5" xlink:href="#s93:robotoslab-thin:3"/><use x="4139" y="1868.5" xlink:href="#s93:robotoslab-thin:39"/><use x="5392" y="1868.5" xlink:href="#s93:robotoslab-thin:87"/><use x="6614" y="1868.5" xlink:href="#s93:robotoslab-thin:84"/><use x="7397" y="1868.5" xlink:href="#s93:robotoslab-thin:81"/><use x="8552" y="1868.5" xlink:href="#s93:robotoslab-thin:82"/><use x="9713" y="1868.5" xlink:href="#s93:robotoslab-thin:71"/><use x="10817" y="1868.5" xlink:href="#s93:robotoslab-thin:67"/><use x="11949" y="1868.5" xlink:href="#s93:robotoslab-thin:80"/><use x="13269" y="1868.5" xlink:href="#s93:robotoslab-thin:3"/><use x="13759" y="1868.5" xlink:href="#s93:robotoslab-thin:78"/><use x="14340" y="1868.5" xlink:href="#s93:robotoslab-thin:67"/><use x="15472" y="1868.5" xlink:href="#s93:robotoslab-thin:80"/><use x="16782" y="1868.5" xlink:href="#s93:robotoslab-thin:73"/><use x="17922" y="1868.5" xlink:href="#s93:robotoslab-thin:87"/><use x="19144" y="1868.5" xlink:href="#s93:robotoslab-thin:67"/><use x="20276" y="1868.5" xlink:href="#s93:robotoslab-thin:73"/><use x="21416" y="1868.5" xlink:href="#s93:robotoslab-thin:71"/><use x="22520" y="1868.5" xlink:href="#s93:robotoslab-thin:85"/><use x="23529" y="1868.5" xlink:href="#s93:robotoslab-thin:3"/><use x="24019" y="1868.5" xlink:href="#s93:robotoslab-thin:67"/><use x="25151" y="1868.5" xlink:href="#s93:robotoslab-thin:84"/><use x="25935" y="1868.5" xlink:href="#s93:robotoslab-thin:71"/><use x="27039" y="1868.5" xlink:href="#s93:robotoslab-thin:3"/><use x="27529" y="1868.5" xlink:href="#s93:robotoslab-thin:79"/><use x="29499" y="1868.5" xlink:href="#s93:robotoslab-thin:71"/><use x="30603" y="1868.5" xlink:href="#s93:robotoslab-thin:79"/><use x="32583" y="1868.5" xlink:href="#s93:robotoslab-thin:68"/><use x="33671" y="1868.5" xlink:href="#s93:robotoslab-thin:71"/><use x="34775" y="1868.5" xlink:href="#s93:robotoslab-thin:84"/><use x="35578" y="1868.5" xlink:href="#s93:robotoslab-thin:85"/><use x="36587" y="1868.5" xlink:href="#s93:robotoslab-thin:3"/><use x="37077" y="1868.5" xlink:href="#s93:robotoslab-thin:81"/><use x="38232" y="1868.5" xlink:href="#s93:robotoslab-thin:72"/><use x="38954" y="1868.5" xlink:href="#s93:robotoslab-thin:3"/><use x="39444" y="1868.5" xlink:href="#s93:robotoslab-thin:86"/><use x="40163" y="1868.5" xlink:href="#s93:robotoslab-thin:74"/><use x="41431" y="1868.5" xlink:href="#s93:robotoslab-thin:71"/><use x="42535" y="1868.5" xlink:href="#s93:robotoslab-thin:3"/><use x="43025" y="1868.5" xlink:href="#s93:robotoslab-thin:85"/><use x="44034" y="1868.5" xlink:href="#s93:robotoslab-thin:67"/><use x="45166" y="1868.5" xlink:href="#s93:robotoslab-thin:79"/><use x="47136" y="1868.5" xlink:href="#s93:robotoslab-thin:71"/><use x="48240" y="1868.5" xlink:href="#s93:robotoslab-thin:3"/><use x="48730" y="1868.5" xlink:href="#s93:robotoslab-thin:72"/><use x="49452" y="1868.5" xlink:href="#s93:robotoslab-thin:67"/><use x="50584" y="1868.5" xlink:href="#s93:robotoslab-thin:79"/><use x="52564" y="1868.5" xlink:href="#s93:robotoslab-thin:75"/><use x="53173" y="1868.5" xlink:href="#s93:robotoslab-thin:78"/><use x="53754" y="1868.5" xlink:href="#s93:robotoslab-thin:91"/><use x="54832" y="1868.5" xlink:href="#s93:robotoslab-thin:16"/></g><g id="line-1"><use x="11004" y="4326.1" xlink:href="#s93:robotoslab-thin:54"/><use x="12281" y="4326.1" xlink:href="#s93:robotoslab-thin:74"/><use x="13549" y="4326.1" xlink:href="#s93:robotoslab-thin:71"/><use x="14653" y="4326.1" xlink:href="#s93:robotoslab-thin:75"/><use x="15262" y="4326.1" xlink:href="#s93:robotoslab-thin:84"/><use x="16065" y="4326.1" xlink:href="#s93:robotoslab-thin:3"/><use x="16555" y="4326.1" xlink:href="#s93:robotoslab-thin:85"/><use x="17564" y="4326.1" xlink:href="#s93:robotoslab-thin:71"/><use x="18668" y="4326.1" xlink:href="#s93:robotoslab-thin:82"/><use x="19829" y="4326.1" xlink:href="#s93:robotoslab-thin:67"/><use x="20961" y="4326.1" xlink:href="#s93:robotoslab-thin:84"/><use x="21764" y="4326.1" xlink:href="#s93:robotoslab-thin:67"/><use x="22896" y="4326.1" xlink:href="#s93:robotoslab-thin:86"/><use x="23615" y="4326.1" xlink:href="#s93:robotoslab-thin:71"/><use x="24719" y="4326.1" xlink:href="#s93:robotoslab-thin:3"/><use x="25209" y="4326.1" xlink:href="#s93:robotoslab-thin:71"/><use x="26313" y="4326.1" xlink:href="#s93:robotoslab-thin:90"/><use x="27505" y="4326.1" xlink:href="#s93:robotoslab-thin:75"/><use x="28114" y="4326.1" xlink:href="#s93:robotoslab-thin:85"/><use x="29123" y="4326.1" xlink:href="#s93:robotoslab-thin:86"/><use x="29842" y="4326.1" xlink:href="#s93:robotoslab-thin:71"/><use x="30946" y="4326.1" xlink:href="#s93:robotoslab-thin:80"/><use x="32256" y="4326.1" xlink:href="#s93:robotoslab-thin:69"/><use x="33342" y="4326.1" xlink:href="#s93:robotoslab-thin:71"/><use x="34446" y="4326.1" xlink:href="#s93:robotoslab-thin:3"/><use x="34936" y="4326.1" xlink:href="#s93:robotoslab-thin:75"/><use x="35545" y="4326.1" xlink:href="#s93:robotoslab-thin:85"/><use x="36554" y="4326.1" xlink:href="#s93:robotoslab-thin:3"/><use x="37044" y="4326.1" xlink:href="#s93:robotoslab-thin:67"/><use x="38176" y="4326.1" xlink:href="#s93:robotoslab-thin:3"/><use x="38666" y="4326.1" xlink:href="#s93:robotoslab-thin:79"/><use x="40646" y="4326.1" xlink:href="#s93:robotoslab-thin:91"/><use x="41831" y="4326.1" xlink:href="#s93:robotoslab-thin:86"/><use x="42550" y="4326.1" xlink:href="#s93:robotoslab-thin:74"/><use x="43828" y="4326.1" xlink:href="#s93:robotoslab-thin:16"/></g><g id="line-2"><use x="13783" y="6783.7" xlink:href="#s93:robotoslab-thin:40"/><use x="15008" y="6783.7" xlink:href="#s93:robotoslab-thin:81"/><use x="16163" y="6783.7" xlink:href="#s93:robotoslab-thin:84"/><use x="16966" y="6783.7" xlink:href="#s93:robotoslab-thin:3"/><use x="17456" y="6783.7" xlink:href="#s93:robotoslab-thin:85"/><use x="18465" y="6783.7" xlink:href="#s93:robotoslab-thin:69"/><use x="19551" y="6783.7" xlink:href="#s93:robotoslab-thin:75"/><use x="20160" y="6783.7" xlink:href="#s93:robotoslab-thin:71"/><use x="21264" y="6783.7" xlink:href="#s93:robotoslab-thin:80"/><use x="22574" y="6783.7" xlink:href="#s93:robotoslab-thin:69"/><use x="23660" y="6783.7" xlink:href="#s93:robotoslab-thin:71"/><use x="24764" y="6783.7" xlink:href="#s93:robotoslab-thin:14"/><use x="25147" y="6783.7" xlink:href="#s93:robotoslab-thin:3"/><use x="25637" y="6783.7" xlink:href="#s93:robotoslab-thin:79"/><use x="27617" y="6783.7" xlink:href="#s93:robotoslab-thin:87"/><use x="28839" y="6783.7" xlink:href="#s93:robotoslab-thin:85"/><use x="29848" y="6783.7" xlink:href="#s93:robotoslab-thin:75"/><use x="30457" y="6783.7" xlink:href="#s93:robotoslab-thin:69"/><use x="31543" y="6783.7" xlink:href="#s93:robotoslab-thin:14"/><use x="31926" y="6783.7" xlink:href="#s93:robotoslab-thin:3"/><use x="32416" y="6783.7" xlink:href="#s93:robotoslab-thin:85"/><use x="33425" y="6783.7" xlink:href="#s93:robotoslab-thin:82"/><use x="34586" y="6783.7" xlink:href="#s93:robotoslab-thin:81"/><use x="35741" y="6783.7" xlink:href="#s93:robotoslab-thin:84"/><use x="36544" y="6783.7" xlink:href="#s93:robotoslab-thin:86"/><use x="37263" y="6783.7" xlink:href="#s93:robotoslab-thin:14"/><use x="37646" y="6783.7" xlink:href="#s93:robotoslab-thin:3"/><use x="38136" y="6783.7" xlink:href="#s93:robotoslab-thin:71"/><use x="39240" y="6783.7" xlink:href="#s93:robotoslab-thin:86"/><use x="39959" y="6783.7" xlink:href="#s93:robotoslab-thin:69"/><use x="41045" y="6783.7" xlink:href="#s93:robotoslab-thin:14"/></g></svg>