<svg xmlns="http://www.w3.org/2000/svg" xmlns:xlink="http://www.w3.org/1999/xlink" width="604" height="83" viewBox="0 0 51559 7065.2"><defs><path id="s98:roboto-italic:56" d="M1261-1298L808-1298L583 0L396 0L621-1298L168-1298L196-1456L1289-1456L1261-1298Z"/><path id="s98:roboto-italic:76" d="M369-950Q511-1105 696-1101Q848-1099 921.50-996.50Q995-894 976-709L858 0L677 0L796-712Q802-761 797-803Q780-943 632-946Q466-950 346-772L212 0L31 0L298-1536L479-1536L369-950Z"/><path id="s98:roboto-italic:73" d="M499 20Q297 16 183-129Q69-274 87-500L92-543Q109-704 187.50-837Q266-970 379-1037.50Q492-1105 623-1102Q790-1098 885-991Q980-884 989-701Q992-636 985-571L974-488L267-488Q249-341 315.50-238Q382-135 514-131Q674-127 810-275L914-187Q846-89 738.50-33.50Q631 22 499 20M614-951Q502-954 418.50-875Q335-796 286-640L812-639L816-655Q832-781 775.50-864.50Q719-948 614-951Z"/><path id="s98:roboto-italic:4" d=""/><path id="s98:roboto-italic:41" d="M976-673L364-673L274-157L986-157L958 0L59 0L312-1456L1201-1456L1173-1298L472-1298L391-830L1003-830L976-673Z"/><path id="s98:roboto-italic:89" d="M718-107Q591 24 395 20Q240 16 165.50-91Q91-198 110-383L226-1082L407-1082L290-380Q285-336 288-294Q293-222 331-181Q369-140 437-137Q631-131 737-294L873-1082L1054-1082L866 0L695 0L718-107Z"/><path id="s98:roboto-italic:86" d="M704-917L619-926Q445-926 345-769L212 0L31 0L219-1082L394-1083L367-957Q482-1108 638-1104Q671-1104 724-1089L704-917Z"/><path id="s98:roboto-italic:83" d="M632-1102Q768-1100 865-1028Q962-956 1008.50-829.50Q1055-703 1040-553L1038-531Q1019-373 944-245.50Q869-118 750-47Q631 24 489 20Q354 18 256.50-54Q159-126 114-250Q69-374 82-523Q97-691 173-825Q249-959 368.50-1032.50Q488-1106 632-1102M264-522Q257-459 264-391Q274-273 334.50-203Q395-133 496-130Q586-127 662-174.50Q738-222 790-318Q842-414 857-531Q865-623 860-686Q848-807 787-877Q726-947 625-951Q485-954 387-841Q289-728 266-545L264-522Z"/><path id="s98:roboto-italic:84" d="M1011-536Q991-371 922-239Q853-107 751-41.50Q649 24 525 21Q337 17 237-106L140 416L-41 416L219-1082L383-1083L363-962Q497-1106 684-1102Q840-1098 927-987Q1014-876 1019-681Q1020-617 1014-557L1011-536M833-557L838-641Q838-787 782.50-864.50Q727-942 622-946Q465-950 351-797L260-278Q321-134 479-130Q614-127 708.50-235.50Q803-344 833-557Z"/><path id="s98:roboto-italic:69" d="M693 0Q686-29 686-57L689-114Q540 24 373 20Q230 18 140.50-70.50Q51-159 59-292Q69-464 209.50-560.50Q350-657 579-657L768-656L780-742Q790-839 742.50-895.50Q695-952 600-954Q507-956 435.50-908.50Q364-861 348-783L166-782Q175-877 240-950.50Q305-1024 407-1064.50Q509-1105 618-1103Q787-1099 881-1000.50Q975-902 960-739L872-203L867-126Q865-71 879-17L877 0L693 0M409-140Q496-138 573.50-181.50Q651-225 707-302L746-525L609-526Q438-526 347-472Q256-418 244-319Q235-243 279.50-192.50Q324-142 409-140Z"/><path id="s98:roboto-italic:82" d="M390-1083L364-946Q510-1106 696-1102Q849-1098 922-996Q995-894 976-709L858 0L677 0L796-712Q802-761 797-803Q780-943 632-946Q469-949 346-772L212 0L31 0L219-1082L390-1083Z"/><path id="s98:roboto-italic:80" d="M227 0L47 0L313-1536L494-1536L227 0Z"/><path id="s98:roboto-italic:75" d="M84-543Q108-720 179.50-850.50Q251-981 353.50-1043.50Q456-1106 578-1103Q766-1099 862-961L898-1082L1064-1082L884-23Q855 184 716 308.50Q577 433 373 427Q263 425 162.50 375Q62 325 4 238L107 127Q205 272 366 276Q495 280 584.50 204Q674 128 703-12L723-108Q591 24 414 20Q313 17 238.50-34.50Q164-86 123-183.50Q82-281 78-401Q76-460 84-543M259-440Q256-297 308.50-218.50Q361-140 467-136Q629-132 746-295L831-792Q771-940 614-946Q467-950 372.50-826Q278-702 261-491L259-440Z"/><path id="s98:roboto-italic:87" d="M701-293Q716-405 578-451L390-506Q152-588 160-778Q167-921 290.50-1012.50Q414-1104 581-1102Q745-1100 847.50-1006.50Q950-913 946-763L766-764Q768-845 715-896Q662-947 574-949Q480-951 412-903Q349-858 339-785Q326-691 454-648L545-623Q731-575 809-498Q887-421 881-307Q875-206 815-131Q755-56 655-16.50Q555 23 442 20Q270 18 158-80.50Q46-179 50-334L231-333Q231-242 289-187Q347-132 448-132Q547-130 619-173.50Q691-217 701-293Z"/><path id="s98:roboto-italic:81" d="M388-1083L365-962Q501-1106 694-1102Q797-1100 868.50-1055Q940-1010 967-928Q1119-1106 1326-1102Q1488-1098 1565-993Q1642-888 1622-711L1503 0L1323 0L1441-713Q1447-765 1441-808Q1422-944 1263-947Q1164-949 1083.50-885.50Q1003-822 980-719L857 0L675 0L795-712Q808-823 761.50-883Q715-943 617-945Q448-949 348-791L211 0L30 0L218-1082L388-1083Z"/><path id="s98:roboto-italic:70" d="M1013-536Q993-370 922-237Q851-104 750-40Q649 24 526 21Q330 17 235-126L198 0L31 0L298-1536L479-1536L370-962Q500-1106 686-1102Q842-1098 929-987Q1016-876 1021-681Q1022-617 1015-557L1013-536M841-641Q844-787 792-864.50Q740-942 633-946Q464-950 347-776L266-305Q326-140 491-136Q597-132 676.50-199Q756-266 797-386.50Q838-507 841-641Z"/><path id="s98:roboto-italic:74" d="M119 0L283-939L116-939L141-1082L307-1082L325-1210Q351-1373 451-1465Q556-1561 719-1559Q770-1559 848-1542L826-1391Q778-1401 729-1403Q635-1403 576.50-1344.50Q518-1286 504-1189L488-1082L712-1082L687-939L463-939L300 0L119 0Z"/><path id="s98:roboto-italic:88" d="M509-1344L463-1082L660-1082L635-939L439-939L326-266Q323-240 325-218Q332-140 410-140Q443-140 498-150L484 1Q419 19 352 19Q244 17 190-60.50Q136-138 148-269L258-939L67-939L92-1082L283-1082L329-1344L509-1344Z"/><path id="s98:roboto-italic:77" d="M227 0L47 0L235-1082L415-1082L227 0M376-1477Q422-1479 452.50-1449.50Q483-1420 483-1372Q482-1325 452.50-1295Q423-1265 376-1263Q329-1261 299-1290Q269-1319 270-1366Q271-1413 300-1444Q329-1475 376-1477Z"/><path id="s98:roboto-italic:93" d="M419-273L804-1082L1004-1082L362 180Q228 443 18 440Q-19 439-91 422L-75 272L-28 277Q58 281 120.50 238.50Q183 196 231 101L296-23L109-1082L298-1082L419-273Z"/><path id="s98:roboto-italic:18" d="M164-210Q213-211 245-180Q277-149 276-100Q275-51 243-20.50Q211 10 163 12Q115 14 84-15.50Q53-45 53-94Q53-143 84-175.50Q115-208 164-210Z"/><path id="s98:roboto-italic:92" d="M496-688L790-1082L1012-1082L578-538L842 0L645 0L466-404L161 0L-60 0L387-556L131-1082L329-1082L496-688Z"/><path id="s98:roboto-italic:71" d="M488-130Q585-128 663-186.50Q741-245 765-340L936-341Q921-239 854.50-155Q788-71 687-24Q586 23 480 20Q345 18 251.50-50.50Q158-119 114-241.50Q70-364 84-517L89-567Q108-723 180-846Q252-969 368-1037.50Q484-1106 624-1102Q794-1098 896-988Q998-878 998-709L829-710Q827-816 770-881.50Q713-947 616-951Q475-954 381.50-846Q288-738 265-544L262-518Q256-454 260-386Q267-269 326-201Q385-133 488-130Z"/><path id="s98:roboto-italic:42" d="M951-643L359-643L247 0L59 0L312-1456L1188-1456L1160-1298L472-1298L386-800L979-800L951-643Z"/><path id="s98:roboto-italic:16" d="M-9 291L-113 216Q3 73 31-68L57-219L234-219L213-84Q177 144-9 291Z"/></defs><g id="line-0"><use x="0" y="1650" xlink:href="#s98:roboto-italic:56"/><use x="1195" y="1650" xlink:href="#s98:roboto-italic:76"/><use x="2299" y="1650" xlink:href="#s98:roboto-italic:73"/><use x="3361" y="1650" xlink:href="#s98:roboto-italic:4"/><use x="3863" y="1650" xlink:href="#s98:roboto-italic:41"/><use x="4985" y="1650" xlink:href="#s98:roboto-italic:89"/><use x="6090" y="1650" xlink:href="#s98:roboto-italic:86"/><use x="6752" y="1650" xlink:href="#s98:roboto-italic:83"/><use x="7895" y="1650" xlink:href="#s98:roboto-italic:84"/><use x="9020" y="1650" xlink:href="#s98:roboto-italic:73"/><use x="10082" y="1650" xlink:href="#s98:roboto-italic:69"/><use x="11173" y="1650" xlink:href="#s98:roboto-italic:82"/><use x="12279" y="1650" xlink:href="#s98:roboto-italic:4"/><use x="12781" y="1650" xlink:href="#s98:roboto-italic:80"/><use x="13273" y="1650" xlink:href="#s98:roboto-italic:69"/><use x="14364" y="1650" xlink:href="#s98:roboto-italic:82"/><use x="15470" y="1650" xlink:href="#s98:roboto-italic:75"/><use x="16595" y="1650" xlink:href="#s98:roboto-italic:89"/><use x="17700" y="1650" xlink:href="#s98:roboto-italic:69"/><use x="18791" y="1650" xlink:href="#s98:roboto-italic:75"/><use x="19916" y="1650" xlink:href="#s98:roboto-italic:73"/><use x="20978" y="1650" xlink:href="#s98:roboto-italic:87"/><use x="22012" y="1650" xlink:href="#s98:roboto-italic:4"/><use x="22514" y="1650" xlink:href="#s98:roboto-italic:69"/><use x="23605" y="1650" xlink:href="#s98:roboto-italic:86"/><use x="24268" y="1650" xlink:href="#s98:roboto-italic:73"/><use x="25330" y="1650" xlink:href="#s98:roboto-italic:4"/><use x="25832" y="1650" xlink:href="#s98:roboto-italic:81"/><use x="27583" y="1650" xlink:href="#s98:roboto-italic:73"/><use x="28645" y="1650" xlink:href="#s98:roboto-italic:81"/><use x="30396" y="1650" xlink:href="#s98:roboto-italic:70"/><use x="31521" y="1650" xlink:href="#s98:roboto-italic:73"/><use x="32583" y="1650" xlink:href="#s98:roboto-italic:86"/><use x="33265" y="1650" xlink:href="#s98:roboto-italic:87"/><use x="34299" y="1650" xlink:href="#s98:roboto-italic:4"/><use x="34801" y="1650" xlink:href="#s98:roboto-italic:83"/><use x="35944" y="1650" xlink:href="#s98:roboto-italic:74"/><use x="36644" y="1650" xlink:href="#s98:roboto-italic:4"/><use x="37146" y="1650" xlink:href="#s98:roboto-italic:88"/><use x="37805" y="1650" xlink:href="#s98:roboto-italic:76"/><use x="38909" y="1650" xlink:href="#s98:roboto-italic:73"/><use x="39971" y="1650" xlink:href="#s98:roboto-italic:4"/><use x="40473" y="1650" xlink:href="#s98:roboto-italic:87"/><use x="41507" y="1650" xlink:href="#s98:roboto-italic:69"/><use x="42598" y="1650" xlink:href="#s98:roboto-italic:81"/><use x="44349" y="1650" xlink:href="#s98:roboto-italic:73"/><use x="45411" y="1650" xlink:href="#s98:roboto-italic:4"/><use x="45913" y="1650" xlink:href="#s98:roboto-italic:74"/><use x="46613" y="1650" xlink:href="#s98:roboto-italic:69"/><use x="47704" y="1650" xlink:href="#s98:roboto-italic:81"/><use x="49455" y="1650" xlink:href="#s98:roboto-italic:77"/><use x="49947" y="1650" xlink:href="#s98:roboto-italic:80"/><use x="50439" y="1650" xlink:href="#s98:roboto-italic:93"/><use x="51282" y="1650" xlink:href="#s98:roboto-italic:18"/></g><g id="line-1"><use x="10434" y="4107.6" xlink:href="#s98:roboto-italic:56"/><use x="11629" y="4107.6" xlink:href="#s98:roboto-italic:76"/><use x="12733" y="4107.6" xlink:href="#s98:roboto-italic:73"/><use x="13795" y="4107.6" xlink:href="#s98:roboto-italic:77"/><use x="14287" y="4107.6" xlink:href="#s98:roboto-italic:86"/><use x="14969" y="4107.6" xlink:href="#s98:roboto-italic:4"/><use x="15471" y="4107.6" xlink:href="#s98:roboto-italic:87"/><use x="16505" y="4107.6" xlink:href="#s98:roboto-italic:73"/><use x="17567" y="4107.6" xlink:href="#s98:roboto-italic:84"/><use x="18692" y="4107.6" xlink:href="#s98:roboto-italic:69"/><use x="19783" y="4107.6" xlink:href="#s98:roboto-italic:86"/><use x="20425" y="4107.6" xlink:href="#s98:roboto-italic:69"/><use x="21516" y="4107.6" xlink:href="#s98:roboto-italic:88"/><use x="22175" y="4107.6" xlink:href="#s98:roboto-italic:73"/><use x="23237" y="4107.6" xlink:href="#s98:roboto-italic:4"/><use x="23739" y="4107.6" xlink:href="#s98:roboto-italic:73"/><use x="24801" y="4107.6" xlink:href="#s98:roboto-italic:92"/><use x="25796" y="4107.6" xlink:href="#s98:roboto-italic:77"/><use x="26288" y="4107.6" xlink:href="#s98:roboto-italic:87"/><use x="27322" y="4107.6" xlink:href="#s98:roboto-italic:88"/><use x="27981" y="4107.6" xlink:href="#s98:roboto-italic:73"/><use x="29043" y="4107.6" xlink:href="#s98:roboto-italic:82"/><use x="30149" y="4107.6" xlink:href="#s98:roboto-italic:71"/><use x="31199" y="4107.6" xlink:href="#s98:roboto-italic:73"/><use x="32261" y="4107.6" xlink:href="#s98:roboto-italic:4"/><use x="32763" y="4107.6" xlink:href="#s98:roboto-italic:77"/><use x="33255" y="4107.6" xlink:href="#s98:roboto-italic:87"/><use x="34289" y="4107.6" xlink:href="#s98:roboto-italic:4"/><use x="34791" y="4107.6" xlink:href="#s98:roboto-italic:69"/><use x="35882" y="4107.6" xlink:href="#s98:roboto-italic:4"/><use x="36384" y="4107.6" xlink:href="#s98:roboto-italic:81"/><use x="38135" y="4107.6" xlink:href="#s98:roboto-italic:93"/><use x="39085" y="4107.6" xlink:href="#s98:roboto-italic:88"/><use x="39744" y="4107.6" xlink:href="#s98:roboto-italic:76"/><use x="40848" y="4107.6" xlink:href="#s98:roboto-italic:18"/></g><g id="line-2"><use x="12751.5" y="6565.2" xlink:href="#s98:roboto-italic:42"/><use x="13838.5" y="6565.2" xlink:href="#s98:roboto-italic:83"/><use x="14981.5" y="6565.2" xlink:href="#s98:roboto-italic:86"/><use x="15663.5" y="6565.2" xlink:href="#s98:roboto-italic:4"/><use x="16165.5" y="6565.2" xlink:href="#s98:roboto-italic:87"/><use x="17199.5" y="6565.2" xlink:href="#s98:roboto-italic:71"/><use x="18249.5" y="6565.2" xlink:href="#s98:roboto-italic:77"/><use x="18741.5" y="6565.2" xlink:href="#s98:roboto-italic:73"/><use x="19803.5" y="6565.2" xlink:href="#s98:roboto-italic:82"/><use x="20909.5" y="6565.2" xlink:href="#s98:roboto-italic:71"/><use x="21959.5" y="6565.2" xlink:href="#s98:roboto-italic:73"/><use x="23021.5" y="6565.2" xlink:href="#s98:roboto-italic:16"/><use x="23421.5" y="6565.2" xlink:href="#s98:roboto-italic:4"/><use x="23923.5" y="6565.2" xlink:href="#s98:roboto-italic:81"/><use x="25674.5" y="6565.2" xlink:href="#s98:roboto-italic:89"/><use x="26779.5" y="6565.2" xlink:href="#s98:roboto-italic:87"/><use x="27813.5" y="6565.2" xlink:href="#s98:roboto-italic:77"/><use x="28305.5" y="6565.2" xlink:href="#s98:roboto-italic:71"/><use x="29355.5" y="6565.2" xlink:href="#s98:roboto-italic:16"/><use x="29755.5" y="6565.2" xlink:href="#s98:roboto-italic:4"/><use x="30257.5" y="6565.2" xlink:href="#s98:roboto-italic:87"/><use x="31291.5" y="6565.2" xlink:href="#s98:roboto-italic:84"/><use x="32416.5" y="6565.2" xlink:href="#s98:roboto-italic:83"/><use x="33559.5" y="6565.2" xlink:href="#s98:roboto-italic:86"/><use x="34241.5" y="6565.2" xlink:href="#s98:roboto-italic:88"/><use x="34900.5" y="6565.2" xlink:href="#s98:roboto-italic:16"/><use x="35300.5" y="6565.2" xlink:href="#s98:roboto-italic:4"/><use x="35802.5" y="6565.2" xlink:href="#s98:roboto-italic:73"/><use x="36864.5" y="6565.2" xlink:href="#s98:roboto-italic:88"/><use x="37523.5" y="6565.2" xlink:href="#s98:roboto-italic:71"/><use x="38573.5" y="6565.2" xlink:href="#s98:roboto-italic:16"/></g></svg>