<svg xmlns="http://www.w3.org/2000/svg" xmlns:xlink="http://www.w3.org/1999/xlink" width="628" height="83" viewBox="0 0 53571 7065.2"><defs><path id="s97:roboto-black:56" d="M1253-1185L816-1185L816 0L465 0L465-1185L36-1185L36-1456L1253-1456L1253-1185Z"/><path id="s97:roboto-black:76" d="M424-966Q532-1102 700-1102Q879-1102 970-996Q1061-890 1063-683L1063 0L725 0L725-675Q725-761 690-801.50Q655-842 571-842Q467-842 424-776L424 0L87 0L87-1536L424-1536L424-966Z"/><path id="s97:roboto-black:73" d="M618 20Q369 20 215-128.50Q61-277 61-515L61-543Q61-709 122.50-836Q184-963 302-1032.50Q420-1102 582-1102Q810-1102 942-960.50Q1074-819 1074-566L1074-435L404-435Q422-344 483-292Q544-240 641-240Q801-240 891-352L1045-170Q982-83 866.50-31.50Q751 20 618 20M580-842Q432-842 404-646L744-646L744-672Q746-753 703-797.50Q660-842 580-842Z"/><path id="s97:roboto-black:4" d=""/><path id="s97:roboto-black:41" d="M1013-617L461-617L461-270L1113-270L1113 0L110 0L110-1456L1115-1456L1115-1185L461-1185L461-878L1013-878L1013-617Z"/><path id="s97:roboto-black:89" d="M739-117Q632 20 450 20Q272 20 180.50-83.50Q89-187 89-381L89-1082L426-1082L426-379Q426-240 561-240Q677-240 726-323L726-1082L1065-1082L1065 0L749 0L739-117Z"/><path id="s97:roboto-black:86" d="M749-777L638-785Q479-785 434-685L434 0L97 0L97-1082L413-1082L424-943Q509-1102 661-1102Q715-1102 755-1090L749-777Z"/><path id="s97:roboto-black:83" d="M52-551Q52-713 115-839.50Q178-966 296-1034Q414-1102 573-1102Q816-1102 956-951.50Q1096-801 1096-542L1096-530Q1096-277 955.50-128.50Q815 20 575 20Q344 20 204-118.50Q64-257 53-494L52-551M389-530Q389-380 436-310Q483-240 575-240Q755-240 759-517L759-551Q759-842 573-842Q404-842 390-591L389-530Z"/><path id="s97:roboto-black:84" d="M1099-533Q1099-281 985.50-130.50Q872 20 679 20Q530 20 434-89L434 416L97 416L97-1082L412-1082L422-982Q519-1102 677-1102Q877-1102 988-954.50Q1099-807 1099-549L1099-533M762-554Q762-842 594-842Q474-842 434-756L434-330Q478-240 596-240Q757-240 762-518L762-554Z"/><path id="s97:roboto-black:69" d="M704 0Q686-33 672-97Q579 20 412 20Q259 20 152-72.50Q45-165 45-305Q45-481 175-571Q305-661 553-661L657-661L657-718Q657-867 528-867Q408-867 408-749L71-749Q71-906 204.50-1004Q338-1102 545-1102Q752-1102 872-1001Q992-900 995-724L995-245Q997-96 1041-17L1041 0L704 0M493-220Q556-220 597.50-247Q639-274 657-308L657-481L559-481Q383-481 383-323Q383-277 414-248.50Q445-220 493-220Z"/><path id="s97:roboto-black:82" d="M404-1082L415-955Q527-1102 724-1102Q893-1102 976.50-1001Q1060-900 1063-697L1063 0L725 0L725-683Q725-765 692-803.50Q659-842 572-842Q473-842 425-764L425 0L88 0L88-1082L404-1082Z"/><path id="s97:roboto-black:80" d="M450 0L112 0L112-1536L450-1536L450 0Z"/><path id="s97:roboto-black:75" d="M55-549Q55-713 109-839Q163-965 264-1033.50Q365-1102 499-1102Q668-1102 763-988L775-1082L1081-1082L1081-41Q1081 102 1014.50 207.50Q948 313 822 369.50Q696 426 530 426Q411 426 299.50 381Q188 336 129 264L270 66Q364 177 518 177Q742 177 742-53L742-87Q645 20 497 20Q299 20 177-131.50Q55-283 55-537L55-549M393-528Q393-395 443-317.50Q493-240 583-240Q692-240 742-313L742-768Q693-842 585-842Q495-842 444-761.50Q393-681 393-528Z"/><path id="s97:roboto-black:87" d="M661-304Q661-347 616-373Q571-399 445-427Q319-455 237-500.50Q155-546 112-611Q69-676 69-760Q69-909 192-1005.50Q315-1102 514-1102Q728-1102 858-1005Q988-908 988-750L650-750Q650-880 513-880Q460-880 424-850.50Q388-821 388-777Q388-732 432-704Q476-676 572.50-658Q669-640 742-615Q986-531 986-314Q986-166 854.50-73Q723 20 514 20Q375 20 266-30Q157-80 96-166Q35-252 35-347L350-347Q352-272 400-237.50Q448-203 523-203Q592-203 626.50-231Q661-259 661-304Z"/><path id="s97:roboto-black:81" d="M413-1082L424-955Q539-1102 733-1102Q938-1102 1010-939Q1120-1102 1328-1102Q1657-1102 1666-704L1666 0L1328 0L1328-683Q1328-766 1300-804Q1272-842 1198-842Q1098-842 1049-753L1050-739L1050 0L712 0L712-681Q712-766 685-804Q658-842 582-842Q485-842 434-753L434 0L97 0L97-1082L413-1082Z"/><path id="s97:roboto-black:70" d="M1099-532Q1099-266 989-123Q879 20 679 20Q514 20 413-111L399 0L97 0L97-1536L434-1536L434-995Q528-1102 677-1102Q879-1102 989-957Q1099-812 1099-549L1099-532M761-553Q761-709 719.50-775.50Q678-842 592-842Q478-842 434-755L434-325Q477-239 594-239Q713-239 745-355Q761-412 761-553Z"/><path id="s97:roboto-black:74" d="M169 0L169-848L12-848L12-1082L169-1082L169-1168Q169-1353 278-1455Q387-1557 584-1557Q656-1557 742-1536L743-1288Q712-1297 660-1297Q507-1297 507-1165L507-1082L718-1082L718-848L507-848L507 0L169 0Z"/><path id="s97:roboto-black:88" d="M487-1351L487-1082L665-1082L665-848L487-848L487-353Q487-292 509-268Q531-244 596-244Q646-244 680-250L680-9Q589 20 490 20Q316 20 233-62Q150-144 150-311L150-848L12-848L12-1082L150-1082L150-1351L487-1351Z"/><path id="s97:roboto-black:77" d="M450 0L112 0L112-1082L450-1082L450 0M92-1361Q92-1433 144-1479Q196-1525 279-1525Q362-1525 414-1479Q466-1433 466-1361Q466-1289 414-1243Q362-1197 279-1197Q196-1197 144-1243Q92-1289 92-1361Z"/><path id="s97:roboto-black:93" d="M527-472L707-1082L1068-1082L627 181L608 227Q514 437 276 437Q210 437 137 417L137 176L181 176Q252 176 289.50 155.50Q327 135 345 82L372 10L-4-1082L356-1082L527-472Z"/><path id="s97:roboto-black:18" d="M303-327Q383-327 436-279.50Q489-232 489-158Q489-84 436-36.50Q383 11 303 11Q222 11 169.50-37Q117-85 117-158Q117-231 169.50-279Q222-327 303-327Z"/><path id="s97:roboto-black:92" d="M533-784L690-1082L1040-1082L755-555L1054 0L702 0L532-320L365 0L11 0L311-555L27-1082L381-1082L533-784Z"/><path id="s97:roboto-black:71" d="M552-240Q623-240 662-278.50Q701-317 700-386L1016-386Q1016-208 888.50-94Q761 20 560 20Q324 20 188-128Q52-276 52-538L52-552Q52-716 112.50-841.50Q173-967 287-1034.50Q401-1102 557-1102Q768-1102 892-985Q1016-868 1016-668L700-668Q700-752 659-797Q618-842 549-842Q418-842 396-675Q389-622 389-529Q389-366 428-303Q467-240 552-240Z"/><path id="s97:roboto-black:42" d="M1027-580L461-580L461 0L110 0L110-1456L1084-1456L1084-1185L461-1185L461-850L1027-850L1027-580Z"/><path id="s97:roboto-black:16" d="M213 392L43 312L77 244Q147 114 150-4L150-254L420-254L419-37Q418 78 360 197Q302 316 213 392Z"/></defs><g id="line-0"><use x="0" y="1650" xlink:href="#s97:roboto-black:56"/><use x="1291" y="1650" xlink:href="#s97:roboto-black:76"/><use x="2447" y="1650" xlink:href="#s97:roboto-black:73"/><use x="3562" y="1650" xlink:href="#s97:roboto-black:4"/><use x="4072" y="1650" xlink:href="#s97:roboto-black:41"/><use x="5201" y="1650" xlink:href="#s97:roboto-black:89"/><use x="6356" y="1650" xlink:href="#s97:roboto-black:86"/><use x="7096" y="1650" xlink:href="#s97:roboto-black:83"/><use x="8246" y="1650" xlink:href="#s97:roboto-black:84"/><use x="9399" y="1650" xlink:href="#s97:roboto-black:73"/><use x="10514" y="1650" xlink:href="#s97:roboto-black:69"/><use x="11601" y="1650" xlink:href="#s97:roboto-black:82"/><use x="12756" y="1650" xlink:href="#s97:roboto-black:4"/><use x="13266" y="1650" xlink:href="#s97:roboto-black:80"/><use x="13829" y="1650" xlink:href="#s97:roboto-black:69"/><use x="14916" y="1650" xlink:href="#s97:roboto-black:82"/><use x="16071" y="1650" xlink:href="#s97:roboto-black:75"/><use x="17249" y="1650" xlink:href="#s97:roboto-black:89"/><use x="18404" y="1650" xlink:href="#s97:roboto-black:69"/><use x="19491" y="1650" xlink:href="#s97:roboto-black:75"/><use x="20669" y="1650" xlink:href="#s97:roboto-black:73"/><use x="21784" y="1650" xlink:href="#s97:roboto-black:87"/><use x="22833" y="1650" xlink:href="#s97:roboto-black:4"/><use x="23343" y="1650" xlink:href="#s97:roboto-black:69"/><use x="24430" y="1650" xlink:href="#s97:roboto-black:86"/><use x="25187" y="1650" xlink:href="#s97:roboto-black:73"/><use x="26302" y="1650" xlink:href="#s97:roboto-black:4"/><use x="26812" y="1650" xlink:href="#s97:roboto-black:81"/><use x="28576" y="1650" xlink:href="#s97:roboto-black:73"/><use x="29691" y="1650" xlink:href="#s97:roboto-black:81"/><use x="31455" y="1650" xlink:href="#s97:roboto-black:70"/><use x="32608" y="1650" xlink:href="#s97:roboto-black:73"/><use x="33723" y="1650" xlink:href="#s97:roboto-black:86"/><use x="34499" y="1650" xlink:href="#s97:roboto-black:87"/><use x="35548" y="1650" xlink:href="#s97:roboto-black:4"/><use x="36058" y="1650" xlink:href="#s97:roboto-black:83"/><use x="37208" y="1650" xlink:href="#s97:roboto-black:74"/><use x="37950" y="1650" xlink:href="#s97:roboto-black:4"/><use x="38460" y="1650" xlink:href="#s97:roboto-black:88"/><use x="39163" y="1650" xlink:href="#s97:roboto-black:76"/><use x="40319" y="1650" xlink:href="#s97:roboto-black:73"/><use x="41434" y="1650" xlink:href="#s97:roboto-black:4"/><use x="41944" y="1650" xlink:href="#s97:roboto-black:87"/><use x="42993" y="1650" xlink:href="#s97:roboto-black:69"/><use x="44080" y="1650" xlink:href="#s97:roboto-black:81"/><use x="45844" y="1650" xlink:href="#s97:roboto-black:73"/><use x="46959" y="1650" xlink:href="#s97:roboto-black:4"/><use x="47469" y="1650" xlink:href="#s97:roboto-black:74"/><use x="48211" y="1650" xlink:href="#s97:roboto-black:69"/><use x="49298" y="1650" xlink:href="#s97:roboto-black:81"/><use x="51062" y="1650" xlink:href="#s97:roboto-black:77"/><use x="51625" y="1650" xlink:href="#s97:roboto-black:80"/><use x="52188" y="1650" xlink:href="#s97:roboto-black:93"/><use x="53082" y="1650" xlink:href="#s97:roboto-black:18"/></g><g id="line-1"><use x="10630" y="4107.6" xlink:href="#s97:roboto-black:56"/><use x="11921" y="4107.6" xlink:href="#s97:roboto-black:76"/><use x="13077" y="4107.6" xlink:href="#s97:roboto-black:73"/><use x="14192" y="4107.6" xlink:href="#s97:roboto-black:77"/><use x="14755" y="4107.6" xlink:href="#s97:roboto-black:86"/><use x="15531" y="4107.6" xlink:href="#s97:roboto-black:4"/><use x="16041" y="4107.6" xlink:href="#s97:roboto-black:87"/><use x="17090" y="4107.6" xlink:href="#s97:roboto-black:73"/><use x="18205" y="4107.6" xlink:href="#s97:roboto-black:84"/><use x="19358" y="4107.6" xlink:href="#s97:roboto-black:69"/><use x="20445" y="4107.6" xlink:href="#s97:roboto-black:86"/><use x="21191" y="4107.6" xlink:href="#s97:roboto-black:69"/><use x="22278" y="4107.6" xlink:href="#s97:roboto-black:88"/><use x="22981" y="4107.6" xlink:href="#s97:roboto-black:73"/><use x="24096" y="4107.6" xlink:href="#s97:roboto-black:4"/><use x="24606" y="4107.6" xlink:href="#s97:roboto-black:73"/><use x="25721" y="4107.6" xlink:href="#s97:roboto-black:92"/><use x="26775" y="4107.6" xlink:href="#s97:roboto-black:77"/><use x="27338" y="4107.6" xlink:href="#s97:roboto-black:87"/><use x="28387" y="4107.6" xlink:href="#s97:roboto-black:88"/><use x="29090" y="4107.6" xlink:href="#s97:roboto-black:73"/><use x="30205" y="4107.6" xlink:href="#s97:roboto-black:82"/><use x="31360" y="4107.6" xlink:href="#s97:roboto-black:71"/><use x="32424" y="4107.6" xlink:href="#s97:roboto-black:73"/><use x="33539" y="4107.6" xlink:href="#s97:roboto-black:4"/><use x="34049" y="4107.6" xlink:href="#s97:roboto-black:77"/><use x="34612" y="4107.6" xlink:href="#s97:roboto-black:87"/><use x="35661" y="4107.6" xlink:href="#s97:roboto-black:4"/><use x="36171" y="4107.6" xlink:href="#s97:roboto-black:69"/><use x="37258" y="4107.6" xlink:href="#s97:roboto-black:4"/><use x="37768" y="4107.6" xlink:href="#s97:roboto-black:81"/><use x="39532" y="4107.6" xlink:href="#s97:roboto-black:93"/><use x="40593" y="4107.6" xlink:href="#s97:roboto-black:88"/><use x="41296" y="4107.6" xlink:href="#s97:roboto-black:76"/><use x="42452" y="4107.6" xlink:href="#s97:roboto-black:18"/></g><g id="line-2"><use x="12998.5" y="6565.2" xlink:href="#s97:roboto-black:42"/><use x="14097.5" y="6565.2" xlink:href="#s97:roboto-black:83"/><use x="15247.5" y="6565.2" xlink:href="#s97:roboto-black:86"/><use x="16023.5" y="6565.2" xlink:href="#s97:roboto-black:4"/><use x="16533.5" y="6565.2" xlink:href="#s97:roboto-black:87"/><use x="17582.5" y="6565.2" xlink:href="#s97:roboto-black:71"/><use x="18646.5" y="6565.2" xlink:href="#s97:roboto-black:77"/><use x="19209.5" y="6565.2" xlink:href="#s97:roboto-black:73"/><use x="20324.5" y="6565.2" xlink:href="#s97:roboto-black:82"/><use x="21479.5" y="6565.2" xlink:href="#s97:roboto-black:71"/><use x="22543.5" y="6565.2" xlink:href="#s97:roboto-black:73"/><use x="23658.5" y="6565.2" xlink:href="#s97:roboto-black:16"/><use x="24210.5" y="6565.2" xlink:href="#s97:roboto-black:4"/><use x="24720.5" y="6565.2" xlink:href="#s97:roboto-black:81"/><use x="26484.5" y="6565.2" xlink:href="#s97:roboto-black:89"/><use x="27639.5" y="6565.2" xlink:href="#s97:roboto-black:87"/><use x="28688.5" y="6565.2" xlink:href="#s97:roboto-black:77"/><use x="29251.5" y="6565.2" xlink:href="#s97:roboto-black:71"/><use x="30315.5" y="6565.2" xlink:href="#s97:roboto-black:16"/><use x="30867.5" y="6565.2" xlink:href="#s97:roboto-black:4"/><use x="31377.5" y="6565.2" xlink:href="#s97:roboto-black:87"/><use x="32426.5" y="6565.2" xlink:href="#s97:roboto-black:84"/><use x="33579.5" y="6565.2" xlink:href="#s97:roboto-black:83"/><use x="34729.5" y="6565.2" xlink:href="#s97:roboto-black:86"/><use x="35505.5" y="6565.2" xlink:href="#s97:roboto-black:88"/><use x="36208.5" y="6565.2" xlink:href="#s97:roboto-black:16"/><use x="36760.5" y="6565.2" xlink:href="#s97:roboto-black:4"/><use x="37270.5" y="6565.2" xlink:href="#s97:roboto-black:73"/><use x="38385.5" y="6565.2" xlink:href="#s97:roboto-black:88"/><use x="39088.5" y="6565.2" xlink:href="#s97:roboto-black:71"/><use x="40152.5" y="6565.2" xlink:href="#s97:roboto-black:16"/></g></svg>