<svg xmlns="http://www.w3.org/2000/svg" xmlns:xlink="http://www.w3.org/1999/xlink" width="773" height="86" viewBox="0 0 65945 7338.7"><defs><path id="s80:robotomono-bold:54" d="M1201-1227L752-1227L752 0L470 0L470-1227L27-1227L27-1456L1201-1456L1201-1227Z"/><path id="s80:robotomono-bold:74" d="M419-933Q473-1012 550.50-1057Q628-1102 724-1102Q809-1102 880-1076.50Q951-1051 1002-997Q1053-943 1081.50-858.50Q1110-774 1110-655L1110 0L832 0L832-657Q832-715 817.50-757Q803-799 776-825Q749-851 711-863.50Q673-876 625-876Q555-876 503.50-851Q452-826 419-781L419 0L141 0L141-1536L419-1536L419-933Z"/><path id="s80:robotomono-bold:71" d="M666 20Q541 20 439-21Q337-62 264-132.50Q191-203 151.50-298.50Q112-394 112-503L112-543Q112-667 151-769.50Q190-872 260-946Q330-1020 426-1061Q522-1102 635-1102Q752-1102 843.50-1063.50Q935-1025 998.50-955Q1062-885 1095-786.50Q1128-688 1128-569L1128-451L394-451Q402-396 426.50-350.50Q451-305 489-272Q527-239 576-221Q625-203 683-203Q724-203 764.50-211Q805-219 842-234.50Q879-250 911-273Q943-296 967-327L1106-177Q1080-140 1038.50-104.50Q997-69 940.50-41.50Q884-14 815 3Q746 20 666 20M633-877Q586-877 547-860.50Q508-844 478.50-813Q449-782 429-739Q409-696 399-643L855-643L855-665Q853-709 838-748Q823-787 795-815.50Q767-844 726.50-860.50Q686-877 633-877Z"/><path id="s80:robotomono-bold:3" d=""/><path id="s80:robotomono-bold:39" d="M1027-638L429-638L429-227L1128-227L1128 0L147 0L147-1456L1125-1456L1125-1227L429-1227L429-860L1027-860L1027-638Z"/><path id="s80:robotomono-bold:87" d="M831-152Q776-71 698.50-25Q621 21 529 21Q445 21 375-5Q305-31 255-87.50Q205-144 177.50-231.50Q150-319 150-442L150-1082L428-1082L428-440Q428-374 437.50-329Q447-284 468-256.50Q489-229 523-217Q557-205 606-205Q689-205 741-236.50Q793-268 820-323L820-1082L1099-1082L1099 0L847 0L831-152Z"/><path id="s80:robotomono-bold:84" d="M918-1102Q981-1102 1034.50-1093.50Q1088-1085 1121-1075L1080-798Q1025-811 967.50-817.50Q910-824 858-824Q741-824 670.50-779Q600-734 565-650L565 0L287 0L287-1082L546-1082L559-905Q625-997 717-1049.50Q809-1102 918-1102Z"/><path id="s80:robotomono-bold:81" d="M103-551Q103-669 137-769.50Q171-870 236.50-944Q302-1018 396.50-1060Q491-1102 613-1102Q735-1102 830-1060Q925-1018 990.50-944Q1056-870 1090-769.50Q1124-669 1124-551L1124-530Q1124-411 1090-310.50Q1056-210 991-136Q926-62 831-20.50Q736 21 615 21Q493 21 397.50-20.50Q302-62 236.50-136Q171-210 137-310.50Q103-411 103-530L103-551M381-530Q381-462 394-402.50Q407-343 435-298.50Q463-254 507.50-228Q552-202 615-202Q676-202 720-228Q764-254 791.50-298.50Q819-343 832-402.50Q845-462 845-530L845-551Q845-617 832-676Q819-735 791.50-780Q764-825 720-851Q676-877 613-877Q551-877 507-851Q463-825 435-780Q407-735 394-676Q381-617 381-551L381-530Z"/><path id="s80:robotomono-bold:82" d="M1113-531Q1113-413 1085.50-312Q1058-211 1004.50-137.50Q951-64 872-22Q793 20 691 20Q604 20 538-10Q472-40 423-94L423 416L145 416L145-1082L402-1082L412-976Q462-1036 530-1069Q598-1102 689-1102Q792-1102 871-1062.50Q950-1023 1004-950.50Q1058-878 1085.50-776.50Q1113-675 1113-552L1113-531M835-552Q835-620 822.50-679.50Q810-739 783.50-782.50Q757-826 715.50-851Q674-876 615-876Q542-876 495.50-847.50Q449-819 423-767L423-315Q449-264 495.50-233.50Q542-203 617-203Q676-203 717.50-229Q759-255 785-300Q811-345 823-404.50Q835-464 835-531L835-552Z"/><path id="s80:robotomono-bold:67" d="M817 0Q807-20 800-46Q793-72 788-101Q765-76 735-54Q705-32 668.50-15.50Q632 1 588 10.50Q544 20 493 20Q410 20 340.50-4Q271-28 221-71Q171-114 143-173.50Q115-233 115-303Q115-474 242.50-567.50Q370-661 623-661L778-661L778-725Q778-803 727-848.50Q676-894 580-894Q495-894 456-857.50Q417-821 417-760L139-760Q139-829 169.50-891Q200-953 258.50-1000Q317-1047 401.50-1074.50Q486-1102 595-1102Q693-1102 777.50-1078Q862-1054 924-1007Q986-960 1021-888.50Q1056-817 1056-723L1056-259Q1056-172 1067-115Q1078-58 1099-17L1099 0L817 0M552-195Q594-195 630-205Q666-215 695-231Q724-247 745-267.50Q766-288 778-309L778-495L636-495Q571-495 525-482.50Q479-470 450-447.50Q421-425 407-393.50Q393-362 393-325Q393-269 432.50-232Q472-195 552-195Z"/><path id="s80:robotomono-bold:80" d="M393-1082L410-932Q468-1013 551-1057.50Q634-1102 735-1102Q817-1102 885-1078Q953-1054 1002.50-1001.50Q1052-949 1079.50-866.50Q1107-784 1107-666L1107 0L829 0L829-662Q829-726 814.50-767.50Q800-809 773-833Q746-857 708-866.50Q670-876 622-876Q551-876 501-847.50Q451-819 420-769L420 0L141 0L141-1082L393-1082Z"/><path id="s80:robotomono-bold:78" d="M199-1536L804-1536L804-226L1114-226L1114 0L199 0L199-226L523-226L523-1309L199-1309L199-1536Z"/><path id="s80:robotomono-bold:73" d="M113-549Q113-672 143.50-774Q174-876 231-949Q288-1022 369-1062Q450-1102 552-1102Q647-1102 715-1070Q783-1038 831-979L842-1082L1095-1082L1095-35Q1095 75 1057.50 161Q1020 247 952.50 306Q885 365 790.50 395.50Q696 426 582 426Q533 426 477 416Q421 406 366 385Q311 364 262 331.50Q213 299 178 254L303 85Q356 145 423 176.50Q490 208 568 208Q685 208 750.50 145.50Q816 83 816-32L816-94Q767-40 701.50-10Q636 20 550 20Q449 20 368.50-21.50Q288-63 231-136Q174-209 143.50-309.50Q113-410 113-528L113-549M392-528Q392-460 405.50-401.50Q419-343 447-299.50Q475-256 518-231Q561-206 620-206Q693-206 740.50-234Q788-262 816-312L816-770Q788-821 740.50-848.50Q693-876 622-876Q563-876 520-850.50Q477-825 448.50-780.50Q420-736 406-676.50Q392-617 392-549L392-528Z"/><path id="s80:robotomono-bold:85" d="M839-297Q839-322 827.50-341Q816-360 786.50-376.50Q757-393 708-407Q659-421 584-435Q489-454 410.50-482.50Q332-511 276-551.50Q220-592 188.50-645Q157-698 157-767Q157-834 189-895Q221-956 281-1002Q341-1048 427-1075Q513-1102 621-1102Q734-1102 824-1075.50Q914-1049 976.50-1002.50Q1039-956 1072-892Q1105-828 1105-753L827-753Q827-816 776-858.50Q725-901 621-901Q524-901 474.50-866Q425-831 425-780Q425-756 435-735.50Q445-715 470.50-698.50Q496-682 540-668.50Q584-655 652-645Q750-629 834-604Q918-579 979-539.50Q1040-500 1074.50-443.50Q1109-387 1109-309Q1109-237 1074.50-176.50Q1040-116 976.50-72Q913-28 823-3.50Q733 21 622 21Q500 21 406.50-11Q313-43 250-94.50Q187-146 154.50-211.50Q122-277 122-343L387-343Q390-299 411-267.50Q432-236 465-216.50Q498-197 540.50-188Q583-179 628-179Q731-179 785-212Q839-245 839-297Z"/><path id="s80:robotomono-bold:79" d="M314-1082L322-951Q353-1021 407.50-1061.50Q462-1102 540-1102Q671-1102 711-987Q743-1041 792.50-1071.50Q842-1102 912-1102Q961-1102 1003.50-1084Q1046-1066 1077.50-1026.50Q1109-987 1126.50-924.50Q1144-862 1144-772L1144 0L891 0L891-773Q891-804 884.50-824Q878-844 867-855.50Q856-867 841.50-871.50Q827-876 812-876Q783-876 763-862.50Q743-849 732-826L732 0L487 0L487-774Q487-805 481-825Q475-845 464.50-856Q454-867 440-871.50Q426-876 410-876Q378-876 358.50-858Q339-840 328-810L328 0L75 0L75-1082L314-1082Z"/><path id="s80:robotomono-bold:68" d="M1116-530Q1116-409 1089.50-308Q1063-207 1010-134Q957-61 878-20.50Q799 20 694 20Q599 20 529.50-15.50Q460-51 410-115L397 0L147 0L147-1536L425-1536L425-984Q473-1040 538.50-1071Q604-1102 692-1102Q798-1102 877.50-1061Q957-1020 1010-947Q1063-874 1089.50-772.50Q1116-671 1116-551L1116-530M838-551Q838-617 828-676Q818-735 793.50-779.50Q769-824 727-850Q685-876 622-876Q546-876 498.50-844Q451-812 425-756L425-325Q451-269 498.50-237Q546-205 624-205Q687-205 728-229.50Q769-254 793.50-297.50Q818-341 828-400.50Q838-460 838-530L838-551Z"/><path id="s80:robotomono-bold:72" d="M410 0L410-877L126-877L126-1082L410-1082L410-1141Q410-1248 444-1330Q478-1412 541-1468Q604-1524 694-1552.50Q784-1581 895-1581Q930-1581 962.50-1578.50Q995-1576 1026-1572Q1057-1568 1088.50-1563Q1120-1558 1154-1552L1136-1334Q1098-1342 1050-1348Q1002-1354 937-1354Q807-1354 748-1299Q689-1244 689-1141L689-1082L1079-1082L1079-877L689-877L689 0L410 0Z"/><path id="s80:robotomono-bold:86" d="M651-1347L651-1082L1055-1082L1055-877L651-877L651-412Q651-353 664.50-313.50Q678-274 703-250.50Q728-227 763.50-217Q799-207 843-207Q875-207 908.50-210Q942-213 972.50-217.50Q1003-222 1029.50-227Q1056-232 1075-237L1102-46Q1073-29 1034-16.50Q995-4 951 4Q907 12 859.50 16.50Q812 21 766 21Q677 21 604.50-2.50Q532-26 480.50-75.50Q429-125 401-201.50Q373-278 373-385L373-877L126-877L126-1082L373-1082L373-1347L651-1347Z"/><path id="s80:robotomono-bold:75" d="M215-1082L804-1082L804-226L1097-226L1097 0L215 0L215-226L523-226L523-855L215-855L215-1082M503-1359Q503-1391 514.50-1418.50Q526-1446 547-1465.50Q568-1485 597.50-1496Q627-1507 663-1507Q737-1507 780.50-1465.50Q824-1424 824-1359Q824-1294 780.50-1252.50Q737-1211 663-1211Q627-1211 597.50-1222Q568-1233 547-1252.50Q526-1272 514.50-1299.50Q503-1327 503-1359Z"/><path id="s80:robotomono-bold:91" d="M602-454L634-338L922-1082L1229-1082L680 162Q662 203 633.50 251Q605 299 562 340Q519 381 457.50 409Q396 437 312 437Q292 437 275 435.50Q258 434 242 431.50Q226 429 210.50 425.50Q195 422 177 417L211 205Q228 205 254.50 206.50Q281 208 297 208Q330 208 355.50 188Q381 168 399 144Q417 120 428 100Q439 80 443 80L510-46L52-1082L356-1082L602-454Z"/><path id="s80:robotomono-bold:16" d="M422-161Q422-200 435-233.50Q448-267 473-291.50Q498-316 534-330.50Q570-345 615-345Q660-345 696-330.50Q732-316 756.50-291.50Q781-267 794.50-233.50Q808-200 808-161Q808-123 794.50-90Q781-57 756.50-32.50Q732-8 696 6Q660 20 615 20Q570 20 534 6Q498-8 473-32.50Q448-57 435-90Q422-123 422-161Z"/><path id="s80:robotomono-bold:90" d="M636-744L874-1082L1173-1082L810-551L1186 0L886 0L637-354L390 0L89 0L465-551L103-1082L402-1082L636-744Z"/><path id="s80:robotomono-bold:69" d="M620-202Q661-202 698-214Q735-226 763-248Q791-270 806.50-301Q822-332 820-370L1082-370Q1084-286 1047.50-214Q1011-142 948-90Q885-38 801.50-8.50Q718 21 625 21Q499 21 404-21.50Q309-64 245.50-138Q182-212 149.50-311.50Q117-411 117-525L117-555Q117-669 149-768.50Q181-868 245-942Q309-1016 403.50-1059Q498-1102 623-1102Q723-1102 808-1072Q893-1042 954.50-987.50Q1016-933 1050-855.50Q1084-778 1082-682L820-682Q822-722 808-758Q794-794 767-820Q740-846 702-861.50Q664-877 619-877Q553-877 510-850Q467-823 441.50-778Q416-733 405.50-675Q395-617 395-555L395-525Q395-462 405-403.50Q415-345 440.50-300.50Q466-256 509.50-229Q553-202 620-202Z"/><path id="s80:robotomono-bold:40" d="M1055-603L431-603L431 0L149 0L149-1456L1133-1456L1133-1227L431-1227L431-831L1055-831L1055-603Z"/><path id="s80:robotomono-bold:14" d="M710-22Q710 35 694.50 95Q679 155 652 211Q625 267 587.50 317Q550 367 507 406L360 330Q379 294 395.50 257Q412 220 424 179Q436 138 443 92Q450 46 450-9L450-243L711-243L710-22Z"/></defs><g id="line-0"><use x="0" y="1868.5" xlink:href="#s80:robotomono-bold:54"/><use x="1229" y="1868.5" xlink:href="#s80:robotomono-bold:74"/><use x="2458" y="1868.5" xlink:href="#s80:robotomono-bold:71"/><use x="3687" y="1868.5" xlink:href="#s80:robotomono-bold:3"/><use x="4916" y="1868.5" xlink:href="#s80:robotomono-bold:39"/><use x="6145" y="1868.5" xlink:href="#s80:robotomono-bold:87"/><use x="7374" y="1868.5" xlink:href="#s80:robotomono-bold:84"/><use x="8603" y="1868.5" xlink:href="#s80:robotomono-bold:81"/><use x="9832" y="1868.5" xlink:href="#s80:robotomono-bold:82"/><use x="11061" y="1868.5" xlink:href="#s80:robotomono-bold:71"/><use x="12290" y="1868.5" xlink:href="#s80:robotomono-bold:67"/><use x="13519" y="1868.5" xlink:href="#s80:robotomono-bold:80"/><use x="14748" y="1868.5" xlink:href="#s80:robotomono-bold:3"/><use x="15977" y="1868.5" xlink:href="#s80:robotomono-bold:78"/><use x="17206" y="1868.5" xlink:href="#s80:robotomono-bold:67"/><use x="18435" y="1868.5" xlink:href="#s80:robotomono-bold:80"/><use x="19664" y="1868.5" xlink:href="#s80:robotomono-bold:73"/><use x="20893" y="1868.5" xlink:href="#s80:robotomono-bold:87"/><use x="22122" y="1868.5" xlink:href="#s80:robotomono-bold:67"/><use x="23351" y="1868.5" xlink:href="#s80:robotomono-bold:73"/><use x="24580" y="1868.5" xlink:href="#s80:robotomono-bold:71"/><use x="25809" y="1868.5" xlink:href="#s80:robotomono-bold:85"/><use x="27038" y="1868.5" xlink:href="#s80:robotomono-bold:3"/><use x="28267" y="1868.5" xlink:href="#s80:robotomono-bold:67"/><use x="29496" y="1868.5" xlink:href="#s80:robotomono-bold:84"/><use x="30725" y="1868.5" xlink:href="#s80:robotomono-bold:71"/><use x="31954" y="1868.5" xlink:href="#s80:robotomono-bold:3"/><use x="33183" y="1868.5" xlink:href="#s80:robotomono-bold:79"/><use x="34412" y="1868.5" xlink:href="#s80:robotomono-bold:71"/><use x="35641" y="1868.5" xlink:href="#s80:robotomono-bold:79"/><use x="36870" y="1868.5" xlink:href="#s80:robotomono-bold:68"/><use x="38099" y="1868.5" xlink:href="#s80:robotomono-bold:71"/><use x="39328" y="1868.5" xlink:href="#s80:robotomono-bold:84"/><use x="40557" y="1868.5" xlink:href="#s80:robotomono-bold:85"/><use x="41786" y="1868.5" xlink:href="#s80:robotomono-bold:3"/><use x="43015" y="1868.5" xlink:href="#s80:robotomono-bold:81"/><use x="44244" y="1868.5" xlink:href="#s80:robotomono-bold:72"/><use x="45473" y="1868.5" xlink:href="#s80:robotomono-bold:3"/><use x="46702" y="1868.5" xlink:href="#s80:robotomono-bold:86"/><use x="47931" y="1868.5" xlink:href="#s80:robotomono-bold:74"/><use x="49160" y="1868.5" xlink:href="#s80:robotomono-bold:71"/><use x="50389" y="1868.5" xlink:href="#s80:robotomono-bold:3"/><use x="51618" y="1868.5" xlink:href="#s80:robotomono-bold:85"/><use x="52847" y="1868.5" xlink:href="#s80:robotomono-bold:67"/><use x="54076" y="1868.5" xlink:href="#s80:robotomono-bold:79"/><use x="55305" y="1868.5" xlink:href="#s80:robotomono-bold:71"/><use x="56534" y="1868.5" xlink:href="#s80:robotomono-bold:3"/><use x="57763" y="1868.5" xlink:href="#s80:robotomono-bold:72"/><use x="58992" y="1868.5" xlink:href="#s80:robotomono-bold:67"/><use x="60221" y="1868.5" xlink:href="#s80:robotomono-bold:79"/><use x="61450" y="1868.5" xlink:href="#s80:robotomono-bold:75"/><use x="62679" y="1868.5" xlink:href="#s80:robotomono-bold:78"/><use x="63908" y="1868.5" xlink:href="#s80:robotomono-bold:91"/><use x="65137" y="1868.5" xlink:href="#s80:robotomono-bold:16"/></g><g id="line-1"><use x="11675.5" y="4326.1" xlink:href="#s80:robotomono-bold:54"/><use x="12904.5" y="4326.1" xlink:href="#s80:robotomono-bold:74"/><use x="14133.5" y="4326.1" xlink:href="#s80:robotomono-bold:71"/><use x="15362.5" y="4326.1" xlink:href="#s80:robotomono-bold:75"/><use x="16591.5" y="4326.1" xlink:href="#s80:robotomono-bold:84"/><use x="17820.5" y="4326.1" xlink:href="#s80:robotomono-bold:3"/><use x="19049.5" y="4326.1" xlink:href="#s80:robotomono-bold:85"/><use x="20278.5" y="4326.1" xlink:href="#s80:robotomono-bold:71"/><use x="21507.5" y="4326.1" xlink:href="#s80:robotomono-bold:82"/><use x="22736.5" y="4326.1" xlink:href="#s80:robotomono-bold:67"/><use x="23965.5" y="4326.1" xlink:href="#s80:robotomono-bold:84"/><use x="25194.5" y="4326.1" xlink:href="#s80:robotomono-bold:67"/><use x="26423.5" y="4326.1" xlink:href="#s80:robotomono-bold:86"/><use x="27652.5" y="4326.1" xlink:href="#s80:robotomono-bold:71"/><use x="28881.5" y="4326.1" xlink:href="#s80:robotomono-bold:3"/><use x="30110.5" y="4326.1" xlink:href="#s80:robotomono-bold:71"/><use x="31339.5" y="4326.1" xlink:href="#s80:robotomono-bold:90"/><use x="32568.5" y="4326.1" xlink:href="#s80:robotomono-bold:75"/><use x="33797.5" y="4326.1" xlink:href="#s80:robotomono-bold:85"/><use x="35026.5" y="4326.1" xlink:href="#s80:robotomono-bold:86"/><use x="36255.5" y="4326.1" xlink:href="#s80:robotomono-bold:71"/><use x="37484.5" y="4326.1" xlink:href="#s80:robotomono-bold:80"/><use x="38713.5" y="4326.1" xlink:href="#s80:robotomono-bold:69"/><use x="39942.5" y="4326.1" xlink:href="#s80:robotomono-bold:71"/><use x="41171.5" y="4326.1" xlink:href="#s80:robotomono-bold:3"/><use x="42400.5" y="4326.1" xlink:href="#s80:robotomono-bold:75"/><use x="43629.5" y="4326.1" xlink:href="#s80:robotomono-bold:85"/><use x="44858.5" y="4326.1" xlink:href="#s80:robotomono-bold:3"/><use x="46087.5" y="4326.1" xlink:href="#s80:robotomono-bold:67"/><use x="47316.5" y="4326.1" xlink:href="#s80:robotomono-bold:3"/><use x="48545.5" y="4326.1" xlink:href="#s80:robotomono-bold:79"/><use x="49774.5" y="4326.1" xlink:href="#s80:robotomono-bold:91"/><use x="51003.5" y="4326.1" xlink:href="#s80:robotomono-bold:86"/><use x="52232.5" y="4326.1" xlink:href="#s80:robotomono-bold:74"/><use x="53461.5" y="4326.1" xlink:href="#s80:robotomono-bold:16"/></g><g id="line-2"><use x="14182" y="6783.7" xlink:href="#s80:robotomono-bold:40"/><use x="15411" y="6783.7" xlink:href="#s80:robotomono-bold:81"/><use x="16640" y="6783.7" xlink:href="#s80:robotomono-bold:84"/><use x="17869" y="6783.7" xlink:href="#s80:robotomono-bold:3"/><use x="19098" y="6783.7" xlink:href="#s80:robotomono-bold:85"/><use x="20327" y="6783.7" xlink:href="#s80:robotomono-bold:69"/><use x="21556" y="6783.7" xlink:href="#s80:robotomono-bold:75"/><use x="22785" y="6783.7" xlink:href="#s80:robotomono-bold:71"/><use x="24014" y="6783.7" xlink:href="#s80:robotomono-bold:80"/><use x="25243" y="6783.7" xlink:href="#s80:robotomono-bold:69"/><use x="26472" y="6783.7" xlink:href="#s80:robotomono-bold:71"/><use x="27701" y="6783.7" xlink:href="#s80:robotomono-bold:14"/><use x="28930" y="6783.7" xlink:href="#s80:robotomono-bold:3"/><use x="30159" y="6783.7" xlink:href="#s80:robotomono-bold:79"/><use x="31388" y="6783.7" xlink:href="#s80:robotomono-bold:87"/><use x="32617" y="6783.7" xlink:href="#s80:robotomono-bold:85"/><use x="33846" y="6783.7" xlink:href="#s80:robotomono-bold:75"/><use x="35075" y="6783.7" xlink:href="#s80:robotomono-bold:69"/><use x="36304" y="6783.7" xlink:href="#s80:robotomono-bold:14"/><use x="37533" y="6783.7" xlink:href="#s80:robotomono-bold:3"/><use x="38762" y="6783.7" xlink:href="#s80:robotomono-bold:85"/><use x="39991" y="6783.7" xlink:href="#s80:robotomono-bold:82"/><use x="41220" y="6783.7" xlink:href="#s80:robotomono-bold:81"/><use x="42449" y="6783.7" xlink:href="#s80:robotomono-bold:84"/><use x="43678" y="6783.7" xlink:href="#s80:robotomono-bold:86"/><use x="44907" y="6783.7" xlink:href="#s80:robotomono-bold:14"/><use x="46136" y="6783.7" xlink:href="#s80:robotomono-bold:3"/><use x="47365" y="6783.7" xlink:href="#s80:robotomono-bold:71"/><use x="48594" y="6783.7" xlink:href="#s80:robotomono-bold:86"/><use x="49823" y="6783.7" xlink:href="#s80:robotomono-bold:69"/><use x="51052" y="6783.7" xlink:href="#s80:robotomono-bold:14"/></g></svg>