<svg xmlns="http://www.w3.org/2000/svg" xmlns:xlink="http://www.w3.org/1999/xlink" width="772" height="86" viewBox="0 0 65886 7338.7"><defs><path id="s83:robotomono-light:54" d="M1139-1351L675-1351L675 0L558 0L559-1351L94-1351L94-1456L1139-1456L1139-1351Z"/><path id="s83:robotomono-light:74" d="M313-873Q370-977 465-1039Q560-1101 682-1102Q771-1102 839.50-1074.50Q908-1047 954.50-994.50Q1001-942 1025.50-865.50Q1050-789 1050-691L1050 0L930 0L930-691Q930-763 913-820Q896-877 861.50-916.50Q827-956 775-977Q723-998 653-998Q596-998 544-980Q492-962 448-930Q404-898 369.50-854.50Q335-811 313-759L313 0L193 0L193-1536L313-1536L313-873Z"/><path id="s83:robotomono-light:71" d="M655 20Q542 20 449-22Q356-64 289.50-136Q223-208 186.50-304.50Q150-401 149-510L149-553Q150-669 187.50-769Q225-869 290-943Q355-1017 443-1059.50Q531-1102 632-1102Q740-1102 823-1063Q906-1024 962.50-956.50Q1019-889 1048.50-799Q1078-709 1079-606L1079-533L269-533L269-510Q270-425 298-347.50Q326-270 377-211Q428-152 500-116.50Q572-81 660-81Q760-80 841-118Q922-156 979-228L1055-171Q1025-129 984-93.50Q943-58 892.50-33Q842-8 782 6Q722 20 655 20M632-1000Q559-1000 498-972.50Q437-945 391-896Q345-847 315-780.50Q285-714 274-635L959-635L959-648Q957-715 934.50-778.50Q912-842 870.50-891Q829-940 769-970Q709-1000 632-1000Z"/><path id="s83:robotomono-light:3" d=""/><path id="s83:robotomono-light:39" d="M962-698L320-698L320-104L1060-104L1060 0L201 0L201-1456L1056-1456L1056-1351L320-1351L320-802L962-802L962-698Z"/><path id="s83:robotomono-light:87" d="M919-169Q865-80 776.50-30Q688 20 567 20Q477 20 408.50-9Q340-38 293.50-94Q247-150 222.50-231Q198-312 198-416L198-1082L317-1082L317-414Q319-251 383-167Q447-83 581-83Q716-83 800-145Q884-207 917-313L916-1082L1037-1082L1037 0L925 0L919-169Z"/><path id="s83:robotomono-light:84" d="M909-1102Q954-1102 999-1096.50Q1044-1091 1074-1081L1059-966Q1017-975 975-980Q933-985 889-985Q737-985 631-913Q525-841 482-692L483 0L359 0L359-1082L474-1082L482-894L482-872Q548-979 657-1040.50Q766-1102 909-1102Z"/><path id="s83:robotomono-light:81" d="M131-557Q132-667 165-766Q198-865 259.50-939.50Q321-1014 410.50-1058Q500-1102 613-1102Q727-1102 816.50-1058Q906-1014 968-939.50Q1030-865 1063-766Q1096-667 1097-557L1097-524Q1096-414 1063.50-315Q1031-216 969-141.50Q907-67 818-23.50Q729 20 615 20Q501 20 411.50-23.50Q322-67 260-141.50Q198-216 165-315Q132-414 131-524L131-557M251-524Q251-438 275-358Q299-278 345-216.50Q391-155 458.50-118Q526-81 615-81Q703-81 770.50-118Q838-155 883.50-216.50Q929-278 953-358Q977-438 977-524L977-557Q977-642 953-722Q929-802 883-863.50Q837-925 769-962.50Q701-1000 613-1000Q525-1000 457.50-962.50Q390-925 344.50-863.50Q299-802 275-722Q251-642 251-557L251-524Z"/><path id="s83:robotomono-light:82" d="M1068-530Q1068-425 1042.50-325.50Q1017-226 964.50-149.50Q912-73 832-26.50Q752 20 642 20Q541 20 457-19Q373-58 316-132L316 416L196 416L196-1082L308-1082L313-934Q370-1014 453-1058Q536-1102 640-1102Q751-1102 832-1056.50Q913-1011 965-934.50Q1017-858 1042.50-758.50Q1068-659 1068-551L1068-530M948-551Q948-632 930-712Q912-792 872-855.50Q832-919 768.50-958.50Q705-998 613-998Q561-998 515.50-983.50Q470-969 432.50-942.50Q395-916 365.50-879.50Q336-843 316-799L316-263Q358-179 436-130Q514-81 615-81Q706-81 769.50-121Q833-161 872.50-224.50Q912-288 930-368.50Q948-449 948-530L948-551Z"/><path id="s83:robotomono-light:67" d="M937 0Q926-33 920-73.50Q914-114 912-156Q881-118 840-86Q799-54 750.50-30.50Q702-7 646 6.50Q590 20 529 20Q453 20 387.50-2Q322-24 273.50-64Q225-104 197.50-160.50Q170-217 170-287Q170-380 211-445Q252-510 322-550.50Q392-591 484-610Q576-629 677-629L911-629L911-752Q910-813 887-859.50Q864-906 824.50-937.50Q785-969 730.50-985Q676-1001 612-1001Q554-1001 501.50-986Q449-971 408.50-943Q368-915 343-874.50Q318-834 316-783L196-784Q199-853 232.50-911Q266-969 323-1011.50Q380-1054 455.50-1078Q531-1102 617-1102Q703-1102 778.50-1080Q854-1058 909.50-1014Q965-970 997.50-904Q1030-838 1031-750L1031-226Q1031-172 1040.50-117Q1050-62 1064-12L1065 0L937 0M542-86Q605-85 662.50-101Q720-117 768-145.50Q816-174 853-213.50Q890-253 911-300L911-537L693-537Q614-537 541-525Q468-513 412-485.50Q356-458 322.50-412Q289-366 289-297Q289-248 309-209Q329-170 363-142.50Q397-115 443-100.50Q489-86 542-86Z"/><path id="s83:robotomono-light:80" d="M303-1082L312-879Q369-980 464-1040.50Q559-1101 680-1102Q858-1102 952-995.50Q1046-889 1047-693L1047 0L927 0L927-691Q926-840 859-919.50Q792-999 651-998Q593-998 540.50-979Q488-960 444.50-927Q401-894 367.50-849Q334-804 313-751L313 0L193 0L193-1082L303-1082Z"/><path id="s83:robotomono-light:78" d="M221-1536L725-1536L725-106L1091-106L1091 0L221 0L221-106L605-106L605-1429L221-1429L221-1536Z"/><path id="s83:robotomono-light:73" d="M159-551Q159-659 185-758.50Q211-858 264.50-934.50Q318-1011 398.50-1056.50Q479-1102 589-1102Q693-1102 775.50-1057.50Q858-1013 913-932L918-1082L1030-1082L1030-19Q1029 80 999 163Q969 246 912.50 305.50Q856 365 776 398Q696 431 596 431Q548 431 496 420Q444 409 394 386Q344 363 298.50 328.50Q253 294 219 246L286 174Q415 330 588 330Q665 330 725 305Q785 280 825.50 234.50Q866 189 887.50 125.50Q909 62 910-14L910-137Q853-61 770.50-20.50Q688 20 587 20Q479 20 398.50-26.50Q318-73 265-149.50Q212-226 185.50-325.50Q159-425 159-530L159-551M279-530Q279-449 296.50-369Q314-289 353-225.50Q392-162 455-123Q518-84 609-84Q660-84 706-97.50Q752-111 790.50-136Q829-161 859.50-196.50Q890-232 910-276L910-791Q890-836 861-874Q832-912 794-939.50Q756-967 710-982.50Q664-998 611-998Q519-998 456-958.50Q393-919 353.50-855.50Q314-792 296.50-712Q279-632 279-551L279-530Z"/><path id="s83:robotomono-light:85" d="M948-275Q948-325 923-362Q898-399 854.50-425.50Q811-452 754-470Q697-488 633-501Q555-517 482-539.50Q409-562 352-597Q295-632 261-682.50Q227-733 227-807Q227-877 262-932Q297-987 354-1025Q411-1063 484-1082.50Q557-1102 634-1102Q722-1102 798.50-1080.50Q875-1059 932.50-1017.50Q990-976 1024-916Q1058-856 1061-779L941-779Q939-831 913-872.50Q887-914 844-942Q801-970 746.50-985Q692-1000 634-1000Q580-1000 528.50-988.50Q477-977 436.50-953.50Q396-930 371.50-894.50Q347-859 347-811Q346-760 370.50-725.50Q395-691 437-667.50Q479-644 535.50-628.50Q592-613 656-600Q738-583 812.50-558.50Q887-534 944-497.50Q1001-461 1034-408Q1067-355 1067-281Q1067-205 1030.50-148.50Q994-92 934.50-54.50Q875-17 798.50 1.50Q722 20 641 20Q550 20 469.50-2Q389-24 327.50-65.50Q266-107 229-167Q192-227 189-303L309-303Q315-239 347.50-196Q380-153 427.50-127.50Q475-102 531-91.50Q587-81 641-81Q696-81 750.50-92.50Q805-104 848.50-127.50Q892-151 919.50-187.50Q947-224 948-275Z"/><path id="s83:robotomono-light:79" d="M197-1082L200-961Q233-1024 290.50-1062.50Q348-1101 436-1102Q482-1102 517.50-1091.50Q553-1081 579-1062Q605-1043 623-1016.50Q641-990 652-959Q686-1020 745.50-1060.50Q805-1101 894-1102Q964-1102 1011-1078Q1058-1054 1087-1013Q1116-972 1128.50-918Q1141-864 1141-804L1140 0L1028 0L1027-804Q1027-839 1020-874Q1013-909 995.50-937Q978-965 946.50-982Q915-999 866-998Q816-997 781.50-982Q747-967 724.50-943Q702-919 689.50-889.50Q677-860 671-830L670 0L558 0L557-815Q557-849 550-882Q543-915 525.50-941Q508-967 477-983Q446-999 398-998Q350-997 316.50-983Q283-969 260.50-945.50Q238-922 224.50-891.50Q211-861 203-828L202 0L89 0L89-1082L197-1082Z"/><path id="s83:robotomono-light:68" d="M1072-530Q1072-425 1046.50-325.50Q1021-226 968.50-149.50Q916-73 836-26.50Q756 20 646 20Q542 20 457.50-22.50Q373-65 316-145L311 0L199 0L199-1536L319-1536L319-931Q374-1012 456.50-1057Q539-1102 644-1102Q755-1102 836-1056.50Q917-1011 969-934.50Q1021-858 1046.50-758.50Q1072-659 1072-551L1072-530M951-551Q951-632 934-712Q917-792 879-855.50Q841-919 777.50-958.50Q714-998 621-998Q567-998 520-982Q473-966 434.50-938Q396-910 367-870.50Q338-831 319-785L319-280Q339-236 369.50-199.50Q400-163 439.50-137.50Q479-112 525.50-98Q572-84 623-84Q714-84 776.50-123Q839-162 877.50-225.50Q916-289 933.50-369Q951-449 951-530L951-551Z"/><path id="s83:robotomono-light:72" d="M1028-984L597-984L599 0L475 0L476-984L181-984L181-1082L477-1082L477-1168Q478-1279 511.50-1355Q545-1431 602.50-1478.50Q660-1526 736.50-1546.50Q813-1567 900-1567Q957-1567 1011-1560Q1065-1553 1121-1540L1106-1438Q1064-1449 1015-1456Q966-1463 912-1463Q847-1463 790.50-1449Q734-1435 691-1401.50Q648-1368 623-1311Q598-1254 597-1168L597-1082L1028-1082L1028-984Z"/><path id="s83:robotomono-light:86" d="M592-1359L592-1082L993-1082L993-984L592-984L592-303Q593-240 611.50-198.50Q630-157 661.50-131.50Q693-106 735.50-95Q778-84 828-84Q878-84 930.50-91Q983-98 1020-105L1038-14Q995 3 933 11.50Q871 20 807 20Q735 20 674 2.50Q613-15 568-53.50Q523-92 497-153.50Q471-215 470-304L470-984L169-984L169-1082L470-1082L470-1359L592-1359Z"/><path id="s83:robotomono-light:75" d="M221-1082L723-1082L723-106L1091-106L1091 0L221 0L221-106L603-106L603-975L221-975L221-1082M568-1378Q568-1415 589-1442Q610-1469 659-1469Q707-1469 728.50-1442Q750-1415 750-1378Q750-1343 728.50-1316.50Q707-1290 659-1290Q610-1290 589-1316.50Q568-1343 568-1378Z"/><path id="s83:robotomono-light:91" d="M600-220L622-161L1013-1082L1149-1082L590 173Q568 222 538 269Q508 316 467 353.50Q426 391 372.50 414Q319 437 250 437Q226 437 197 432.50Q168 428 148 423L162 323Q179 325 204.50 327.50Q230 330 247 330Q293 330 331 312Q369 294 398.50 265.50Q428 237 450.50 201.50Q473 166 488 132L562-28L76-1082L211-1082L600-220Z"/><path id="s83:robotomono-light:16" d="M542-85Q542-127 569.50-156.50Q597-186 644-186Q692-186 719.50-156.50Q747-127 747-85Q747-43 719.50-15.50Q692 12 644 12Q597 12 569.50-15.50Q542-43 542-85Z"/><path id="s83:robotomono-light:90" d="M624-640L960-1082L1105-1082L693-551L1121 0L979 0L626-461L273 0L130 0L558-551L146-1082L289-1082L624-640Z"/><path id="s83:robotomono-light:69" d="M632-81Q692-81 746.50-98.50Q801-116 843-149Q885-182 911.50-228.50Q938-275 942-334L1057-334Q1053-257 1017-192Q981-127 923-80Q865-33 790-6.50Q715 20 632 20Q513 20 425-25Q337-70 278.50-145Q220-220 190.50-317.50Q161-415 161-520L161-562Q161-667 190.50-764.50Q220-862 278.50-937Q337-1012 425-1057Q513-1102 631-1102Q721-1102 797.50-1073.50Q874-1045 930.50-993.50Q987-942 1020-871.50Q1053-801 1057-717L942-717Q939-778 914-830Q889-882 848-920Q807-958 751.50-979Q696-1000 631-1000Q537-1000 470.50-962Q404-924 362-862Q320-800 300.50-721.50Q281-643 281-562L281-520Q281-438 300.50-359Q320-280 362-218.50Q404-157 470.50-119Q537-81 632-81Z"/><path id="s83:robotomono-light:40" d="M974-680L330-680L330 0L210 0L210-1456L1071-1456L1071-1351L330-1351L330-785L974-785L974-680Z"/><path id="s83:robotomono-light:14" d="M601-35Q601 9 591.50 53Q582 97 564.50 140Q547 183 521 222.50Q495 262 461 295L385 247Q473 122 473-32L473-188L601-188L601-35Z"/></defs><g id="line-0"><use x="0" y="1868.5" xlink:href="#s83:robotomono-light:54"/><use x="1229" y="1868.5" xlink:href="#s83:robotomono-light:74"/><use x="2458" y="1868.5" xlink:href="#s83:robotomono-light:71"/><use x="3687" y="1868.5" xlink:href="#s83:robotomono-light:3"/><use x="4916" y="1868.5" xlink:href="#s83:robotomono-light:39"/><use x="6145" y="1868.5" xlink:href="#s83:robotomono-light:87"/><use x="7374" y="1868.5" xlink:href="#s83:robotomono-light:84"/><use x="8603" y="1868.5" xlink:href="#s83:robotomono-light:81"/><use x="9832" y="1868.5" xlink:href="#s83:robotomono-light:82"/><use x="11061" y="1868.5" xlink:href="#s83:robotomono-light:71"/><use x="12290" y="1868.5" xlink:href="#s83:robotomono-light:67"/><use x="13519" y="1868.5" xlink:href="#s83:robotomono-light:80"/><use x="14748" y="1868.5" xlink:href="#s83:robotomono-light:3"/><use x="15977" y="1868.5" xlink:href="#s83:robotomono-light:78"/><use x="17206" y="1868.5" xlink:href="#s83:robotomono-light:67"/><use x="18435" y="1868.5" xlink:href="#s83:robotomono-light:80"/><use x="19664" y="1868.5" xlink:href="#s83:robotomono-light:73"/><use x="20893" y="1868.5" xlink:href="#s83:robotomono-light:87"/><use x="22122" y="1868.5" xlink:href="#s83:robotomono-light:67"/><use x="23351" y="1868.5" xlink:href="#s83:robotomono-light:73"/><use x="24580" y="1868.5" xlink:href="#s83:robotomono-light:71"/><use x="25809" y="1868.5" xlink:href="#s83:robotomono-light:85"/><use x="27038" y="1868.5" xlink:href="#s83:robotomono-light:3"/><use x="28267" y="1868.5" xlink:href="#s83:robotomono-light:67"/><use x="29496" y="1868.5" xlink:href="#s83:robotomono-light:84"/><use x="30725" y="1868.5" xlink:href="#s83:robotomono-light:71"/><use x="31954" y="1868.5" xlink:href="#s83:robotomono-light:3"/><use x="33183" y="1868.5" xlink:href="#s83:robotomono-light:79"/><use x="34412" y="1868.5" xlink:href="#s83:robotomono-light:71"/><use x="35641" y="1868.5" xlink:href="#s83:robotomono-light:79"/><use x="36870" y="1868.5" xlink:href="#s83:robotomono-light:68"/><use x="38099" y="1868.5" xlink:href="#s83:robotomono-light:71"/><use x="39328" y="1868.5" xlink:href="#s83:robotomono-light:84"/><use x="40557" y="1868.5" xlink:href="#s83:robotomono-light:85"/><use x="41786" y="1868.5" xlink:href="#s83:robotomono-light:3"/><use x="43015" y="1868.5" xlink:href="#s83:robotomono-light:81"/><use x="44244" y="1868.5" xlink:href="#s83:robotomono-light:72"/><use x="45474" y="1868.5" xlink:href="#s83:robotomono-light:3"/><use x="46703" y="1868.5" xlink:href="#s83:robotomono-light:86"/><use x="47932" y="1868.5" xlink:href="#s83:robotomono-light:74"/><use x="49161" y="1868.5" xlink:href="#s83:robotomono-light:71"/><use x="50390" y="1868.5" xlink:href="#s83:robotomono-light:3"/><use x="51619" y="1868.5" xlink:href="#s83:robotomono-light:85"/><use x="52848" y="1868.5" xlink:href="#s83:robotomono-light:67"/><use x="54077" y="1868.5" xlink:href="#s83:robotomono-light:79"/><use x="55306" y="1868.5" xlink:href="#s83:robotomono-light:71"/><use x="56535" y="1868.5" xlink:href="#s83:robotomono-light:3"/><use x="57764" y="1868.5" xlink:href="#s83:robotomono-light:72"/><use x="58994" y="1868.5" xlink:href="#s83:robotomono-light:67"/><use x="60223" y="1868.5" xlink:href="#s83:robotomono-light:79"/><use x="61452" y="1868.5" xlink:href="#s83:robotomono-light:75"/><use x="62681" y="1868.5" xlink:href="#s83:robotomono-light:78"/><use x="63910" y="1868.5" xlink:href="#s83:robotomono-light:91"/><use x="65139" y="1868.5" xlink:href="#s83:robotomono-light:16"/></g><g id="line-1"><use x="11676.5" y="4326.1" xlink:href="#s83:robotomono-light:54"/><use x="12905.5" y="4326.1" xlink:href="#s83:robotomono-light:74"/><use x="14134.5" y="4326.1" xlink:href="#s83:robotomono-light:71"/><use x="15363.5" y="4326.1" xlink:href="#s83:robotomono-light:75"/><use x="16592.5" y="4326.1" xlink:href="#s83:robotomono-light:84"/><use x="17821.5" y="4326.1" xlink:href="#s83:robotomono-light:3"/><use x="19050.5" y="4326.1" xlink:href="#s83:robotomono-light:85"/><use x="20279.5" y="4326.1" xlink:href="#s83:robotomono-light:71"/><use x="21508.5" y="4326.1" xlink:href="#s83:robotomono-light:82"/><use x="22737.5" y="4326.1" xlink:href="#s83:robotomono-light:67"/><use x="23966.5" y="4326.1" xlink:href="#s83:robotomono-light:84"/><use x="25195.5" y="4326.1" xlink:href="#s83:robotomono-light:67"/><use x="26424.5" y="4326.1" xlink:href="#s83:robotomono-light:86"/><use x="27653.5" y="4326.1" xlink:href="#s83:robotomono-light:71"/><use x="28882.5" y="4326.1" xlink:href="#s83:robotomono-light:3"/><use x="30111.5" y="4326.1" xlink:href="#s83:robotomono-light:71"/><use x="31340.5" y="4326.1" xlink:href="#s83:robotomono-light:90"/><use x="32569.5" y="4326.1" xlink:href="#s83:robotomono-light:75"/><use x="33798.5" y="4326.1" xlink:href="#s83:robotomono-light:85"/><use x="35027.5" y="4326.1" xlink:href="#s83:robotomono-light:86"/><use x="36256.5" y="4326.1" xlink:href="#s83:robotomono-light:71"/><use x="37485.5" y="4326.1" xlink:href="#s83:robotomono-light:80"/><use x="38714.5" y="4326.1" xlink:href="#s83:robotomono-light:69"/><use x="39943.5" y="4326.1" xlink:href="#s83:robotomono-light:71"/><use x="41172.5" y="4326.1" xlink:href="#s83:robotomono-light:3"/><use x="42401.5" y="4326.1" xlink:href="#s83:robotomono-light:75"/><use x="43630.5" y="4326.1" xlink:href="#s83:robotomono-light:85"/><use x="44859.5" y="4326.1" xlink:href="#s83:robotomono-light:3"/><use x="46088.5" y="4326.1" xlink:href="#s83:robotomono-light:67"/><use x="47317.5" y="4326.1" xlink:href="#s83:robotomono-light:3"/><use x="48546.5" y="4326.1" xlink:href="#s83:robotomono-light:79"/><use x="49775.5" y="4326.1" xlink:href="#s83:robotomono-light:91"/><use x="51004.5" y="4326.1" xlink:href="#s83:robotomono-light:86"/><use x="52233.5" y="4326.1" xlink:href="#s83:robotomono-light:74"/><use x="53462.5" y="4326.1" xlink:href="#s83:robotomono-light:16"/></g><g id="line-2"><use x="14207.5" y="6783.7" xlink:href="#s83:robotomono-light:40"/><use x="15436.5" y="6783.7" xlink:href="#s83:robotomono-light:81"/><use x="16665.5" y="6783.7" xlink:href="#s83:robotomono-light:84"/><use x="17894.5" y="6783.7" xlink:href="#s83:robotomono-light:3"/><use x="19123.5" y="6783.7" xlink:href="#s83:robotomono-light:85"/><use x="20352.5" y="6783.7" xlink:href="#s83:robotomono-light:69"/><use x="21581.5" y="6783.7" xlink:href="#s83:robotomono-light:75"/><use x="22810.5" y="6783.7" xlink:href="#s83:robotomono-light:71"/><use x="24039.5" y="6783.7" xlink:href="#s83:robotomono-light:80"/><use x="25268.5" y="6783.7" xlink:href="#s83:robotomono-light:69"/><use x="26497.5" y="6783.7" xlink:href="#s83:robotomono-light:71"/><use x="27726.5" y="6783.7" xlink:href="#s83:robotomono-light:14"/><use x="28955.5" y="6783.7" xlink:href="#s83:robotomono-light:3"/><use x="30184.5" y="6783.7" xlink:href="#s83:robotomono-light:79"/><use x="31413.5" y="6783.7" xlink:href="#s83:robotomono-light:87"/><use x="32642.5" y="6783.7" xlink:href="#s83:robotomono-light:85"/><use x="33871.5" y="6783.7" xlink:href="#s83:robotomono-light:75"/><use x="35100.5" y="6783.7" xlink:href="#s83:robotomono-light:69"/><use x="36329.5" y="6783.7" xlink:href="#s83:robotomono-light:14"/><use x="37558.5" y="6783.7" xlink:href="#s83:robotomono-light:3"/><use x="38787.5" y="6783.7" xlink:href="#s83:robotomono-light:85"/><use x="40016.5" y="6783.7" xlink:href="#s83:robotomono-light:82"/><use x="41245.5" y="6783.7" xlink:href="#s83:robotomono-light:81"/><use x="42474.5" y="6783.7" xlink:href="#s83:robotomono-light:84"/><use x="43703.5" y="6783.7" xlink:href="#s83:robotomono-light:86"/><use x="44932.5" y="6783.7" xlink:href="#s83:robotomono-light:14"/><use x="46161.5" y="6783.7" xlink:href="#s83:robotomono-light:3"/><use x="47390.5" y="6783.7" xlink:href="#s83:robotomono-light:71"/><use x="48619.5" y="6783.7" xlink:href="#s83:robotomono-light:86"/><use x="49848.5" y="6783.7" xlink:href="#s83:robotomono-light:69"/><use x="51077.5" y="6783.7" xlink:href="#s83:robotomono-light:14"/></g></svg>