<svg xmlns="http://www.w3.org/2000/svg" xmlns:xlink="http://www.w3.org/1999/xlink" width="542" height="83" viewBox="0 0 46277 7065.2"><defs><path id="s75:robotocondensed-bolditalic:56" d="M1135-1211L786-1211L576 0L288 0L498-1211L154-1211L197-1456L1178-1456L1135-1211Z"/><path id="s75:robotocondensed-bolditalic:76" d="M425-986Q528-1105 652-1103Q771-1101 834-1015Q897-929 897-776L892-681L778 0L501 0L614-684L619-743Q623-865 532-865Q466-867 404-795L265 0L-12 0L255-1536L531-1536L425-986Z"/><path id="s75:robotocondensed-bolditalic:73" d="M441 20Q310 19 218.50-44Q127-107 86.50-220.50Q46-334 62-479L71-553Q104-822 234.50-964.50Q365-1107 567-1102Q715-1098 799.50-1009.50Q884-921 898-762Q906-667 894-576L875-446L335-446Q330-403 332-363Q339-219 473-216Q598-212 715-311L808-139Q753-64 654.50-21Q556 22 441 20M540-869Q421-874 374-717L354-644L629-643Q639-701 640-737Q644-864 540-869Z"/><path id="s75:robotocondensed-bolditalic:4" d=""/><path id="s75:robotocondensed-bolditalic:41" d="M849-630L405-630L338-244L864-244L821 0L9 0L261-1456L1072-1456L1029-1211L506-1211L446-867L891-867L849-630Z"/><path id="s75:robotocondensed-bolditalic:89" d="M540-99Q438 23 302 21Q196 20 132-50.50Q68-121 58-243Q52-314 59-382L176-1082L452-1082L335-378L332-329Q328-279 346.50-248Q365-217 402-216Q484-213 552-299L688-1082L967-1082L779 0L522 0L540-99Z"/><path id="s75:robotocondensed-bolditalic:86" d="M663-810L575-820Q464-822 396-715L271 0L-6 0L182-1082L441-1083L419-964Q468-1042 515-1073.50Q562-1105 616-1105Q648-1105 701-1090L663-810Z"/><path id="s75:robotocondensed-bolditalic:83" d="M565-1102Q729-1098 821-991Q913-884 922-704L922-633Q909-319 771.50-146.50Q634 26 413 20Q284 17 200-49.50Q116-116 79.50-234Q43-352 59-505L65-559Q94-814 228-960.50Q362-1107 565-1102M331-392Q331-219 437-213Q581-205 624-433L635-505Q649-649 649-690Q649-862 540-869Q461-873 410-796Q359-719 345-573.50Q331-428 331-392Z"/><path id="s75:robotocondensed-bolditalic:84" d="M493 20Q366 16 295-89L199 416L-77 416L183-1082L435-1083L420-983Q519-1105 645-1103Q787-1101 857-995Q927-889 920-691Q912-458 860-295.50Q808-133 714.50-54Q621 25 493 20M646-694Q646-788 621.50-826Q597-864 545-866Q471-868 410-793L320-283Q352-218 432-214Q586-206 622-453L644-657L646-694Z"/><path id="s75:robotocondensed-bolditalic:69" d="M510 0Q502-34 502-84Q410 21 292 21Q167 19 91.50-71Q16-161 22-295Q31-467 156-564.50Q281-662 492-662L573-662L586-750L589-795Q589-882 519-882Q422-885 401-758L126-756Q135-910 254-1007.50Q373-1105 544-1103Q705-1099 790.50-1001.50Q876-904 860-744L772-194L768-141Q764-71 782-18L781 0L510 0M368-200Q441-198 504-264L553-493L493-493Q413-489 364-439Q315-389 305-313L304-275Q304-243 320.50-222Q337-201 368-200Z"/><path id="s75:robotocondensed-bolditalic:82" d="M434-1083L414-974Q528-1107 667-1103Q781-1101 840.50-1017.50Q900-934 899-780L893-688L778 0L501 0L615-690L620-749Q624-866 532-866Q489-866 459-842.50Q429-819 403-787L266 0L-12 0L176-1082L434-1083Z"/><path id="s75:robotocondensed-bolditalic:80" d="M285 0L8 0L274-1536L552-1536L285 0Z"/><path id="s75:robotocondensed-bolditalic:75" d="M488-1102Q632-1098 698-984L732-1083L984-1082L800 0Q771 211 638.50 322Q506 433 305 427Q217 425 131 391Q45 357-13 297L100 103Q183 197 307 201Q487 208 527 3L547-87Q450 21 333 21Q191 19 118.50-88.50Q46-196 48-386Q48-504 71.50-638.50Q95-773 139-866Q253-1108 488-1102M321-389Q321-219 430-216Q503-214 567-278L660-798Q622-863 550-867Q374-876 338-583Q321-443 321-389Z"/><path id="s75:robotocondensed-bolditalic:87" d="M516-297Q526-367 407-422Q288-477 228.50-525.50Q169-574 141.50-633Q114-692 117-767Q124-914 237.50-1009.50Q351-1105 515-1103Q677-1099 770.50-1006.50Q864-914 862-762L586-762Q589-833 567.50-862.50Q546-892 500-892Q452-892 418.50-859.50Q385-827 377-781Q365-716 478.50-665Q592-614 642-580Q791-481 781-309Q775-208 718.50-132.50Q662-57 567.50-17Q473 23 363 20Q205 16 105-83Q5-182 7-336L270-335Q267-257 295-223Q323-189 382-189Q434-189 470.50-216.50Q507-244 516-297Z"/><path id="s75:robotocondensed-bolditalic:81" d="M440-1083L422-981Q534-1106 677-1102Q832-1098 879-956Q1002-1106 1153-1103Q1267-1101 1327.50-1017.50Q1388-934 1387-780L1382-688L1268 0L991 0L1106-690L1111-746Q1119-866 1031-866Q960-866 901-769L895-721L770 0L494 0L608-688L614-744Q622-866 535-866Q493-866 463.50-842.50Q434-819 409-787L272 0L-4 0L184-1082L440-1083Z"/><path id="s75:robotocondensed-bolditalic:70" d="M495 21Q357 15 287-109L252 0L-5 0L262-1536L538-1536L433-993Q527-1105 646-1103Q788-1101 857.50-997Q927-893 920-695Q912-464 861.50-296.50Q811-129 718-51.50Q625 26 495 21M648-692Q651-785 626-824Q601-863 547-865Q470-868 408-785L322-289Q352-217 435-213Q590-205 620-432L629-506L648-692Z"/><path id="s75:robotocondensed-bolditalic:74" d="M58 0L209-869L82-869L119-1082L246-1083L258-1174Q282-1357 385-1459.50Q488-1562 651-1560Q700-1560 783-1540L760-1312Q723-1323 693-1323Q566-1323 537-1175L523-1082L687-1082L650-869L486-869L335 0L58 0Z"/><path id="s75:robotocondensed-bolditalic:88" d="M550-1348L504-1082L644-1082L607-869L467-869L375-324L372-292Q368-225 428-223Q445-222 496-228L471-6Q409 19 327 19Q206 17 145-68Q84-153 98-300L191-869L69-869L106-1082L227-1082L274-1348L550-1348Z"/><path id="s75:robotocondensed-bolditalic:77" d="M285 0L8 0L196-1082L473-1082L285 0M232-1357Q232-1426 275.50-1469.50Q319-1513 382-1513Q444-1515 487.50-1472.50Q531-1430 531-1367Q531-1297 487.50-1253.50Q444-1210 381-1210Q317-1208 274.50-1250.50Q232-1293 232-1357Z"/><path id="s75:robotocondensed-bolditalic:93" d="M411-476L656-1082L958-1082L400 163Q339 309 258 374.50Q177 440 71 440Q28 440-51 419L-27 198L3 200Q116 202 169 99L215-4L103-1082L392-1082L411-476Z"/><path id="s75:robotocondensed-bolditalic:18" d="M43-138Q43-208 89-254.50Q135-301 204-301Q273-301 318-257.50Q363-214 363-150Q363-78 315-33Q267 12 201 12Q131 12 88-31Q45-74 43-138Z"/><path id="s75:robotocondensed-bolditalic:92" d="M471-763L643-1082L946-1082L616-540L775 0L492 0L417-337L236 0L-69 0L274-566L122-1082L405-1082L471-763Z"/><path id="s75:robotocondensed-bolditalic:71" d="M419-213Q533-210 560-374L819-375Q802-195 686-85Q570 25 403 21Q252 17 162.50-69.50Q73-156 56-311Q41-437 70.50-615Q100-793 180-912Q311-1108 553-1102Q717-1097 803-983.50Q889-870 880-677L620-678L621-740Q617-864 523-869Q376-877 348-641L329-460Q317-379 321-325Q328-216 419-213Z"/><path id="s75:robotocondensed-bolditalic:42" d="M842-594L399-594L296 0L9 0L261-1456L1045-1456L1002-1211L506-1211L441-838L885-838L842-594Z"/><path id="s75:robotocondensed-bolditalic:16" d="M29 367L-117 287L-55 188Q20 65 37-33L74-246L314-246L282-54Q239 201 29 367Z"/></defs><g id="line-0"><use x="0" y="1650" xlink:href="#s75:robotocondensed-bolditalic:56"/><use x="1089" y="1650" xlink:href="#s75:robotocondensed-bolditalic:76"/><use x="2077" y="1650" xlink:href="#s75:robotocondensed-bolditalic:73"/><use x="3038" y="1650" xlink:href="#s75:robotocondensed-bolditalic:4"/><use x="3506" y="1650" xlink:href="#s75:robotocondensed-bolditalic:41"/><use x="4474" y="1650" xlink:href="#s75:robotocondensed-bolditalic:89"/><use x="5462" y="1650" xlink:href="#s75:robotocondensed-bolditalic:86"/><use x="6095" y="1650" xlink:href="#s75:robotocondensed-bolditalic:83"/><use x="7093" y="1650" xlink:href="#s75:robotocondensed-bolditalic:84"/><use x="8087" y="1650" xlink:href="#s75:robotocondensed-bolditalic:73"/><use x="9048" y="1650" xlink:href="#s75:robotocondensed-bolditalic:69"/><use x="9993" y="1650" xlink:href="#s75:robotocondensed-bolditalic:82"/><use x="10981" y="1650" xlink:href="#s75:robotocondensed-bolditalic:4"/><use x="11449" y="1650" xlink:href="#s75:robotocondensed-bolditalic:80"/><use x="11960" y="1650" xlink:href="#s75:robotocondensed-bolditalic:69"/><use x="12905" y="1650" xlink:href="#s75:robotocondensed-bolditalic:82"/><use x="13893" y="1650" xlink:href="#s75:robotocondensed-bolditalic:75"/><use x="14902" y="1650" xlink:href="#s75:robotocondensed-bolditalic:89"/><use x="15890" y="1650" xlink:href="#s75:robotocondensed-bolditalic:69"/><use x="16835" y="1650" xlink:href="#s75:robotocondensed-bolditalic:75"/><use x="17844" y="1650" xlink:href="#s75:robotocondensed-bolditalic:73"/><use x="18805" y="1650" xlink:href="#s75:robotocondensed-bolditalic:87"/><use x="19717" y="1650" xlink:href="#s75:robotocondensed-bolditalic:4"/><use x="20185" y="1650" xlink:href="#s75:robotocondensed-bolditalic:69"/><use x="21130" y="1650" xlink:href="#s75:robotocondensed-bolditalic:86"/><use x="21780" y="1650" xlink:href="#s75:robotocondensed-bolditalic:73"/><use x="22741" y="1650" xlink:href="#s75:robotocondensed-bolditalic:4"/><use x="23209" y="1650" xlink:href="#s75:robotocondensed-bolditalic:81"/><use x="24692" y="1650" xlink:href="#s75:robotocondensed-bolditalic:73"/><use x="25653" y="1650" xlink:href="#s75:robotocondensed-bolditalic:81"/><use x="27136" y="1650" xlink:href="#s75:robotocondensed-bolditalic:70"/><use x="28130" y="1650" xlink:href="#s75:robotocondensed-bolditalic:73"/><use x="29091" y="1650" xlink:href="#s75:robotocondensed-bolditalic:86"/><use x="29760" y="1650" xlink:href="#s75:robotocondensed-bolditalic:87"/><use x="30672" y="1650" xlink:href="#s75:robotocondensed-bolditalic:4"/><use x="31140" y="1650" xlink:href="#s75:robotocondensed-bolditalic:83"/><use x="32138" y="1650" xlink:href="#s75:robotocondensed-bolditalic:74"/><use x="32799" y="1650" xlink:href="#s75:robotocondensed-bolditalic:4"/><use x="33267" y="1650" xlink:href="#s75:robotocondensed-bolditalic:88"/><use x="33887" y="1650" xlink:href="#s75:robotocondensed-bolditalic:76"/><use x="34875" y="1650" xlink:href="#s75:robotocondensed-bolditalic:73"/><use x="35836" y="1650" xlink:href="#s75:robotocondensed-bolditalic:4"/><use x="36304" y="1650" xlink:href="#s75:robotocondensed-bolditalic:87"/><use x="37216" y="1650" xlink:href="#s75:robotocondensed-bolditalic:69"/><use x="38161" y="1650" xlink:href="#s75:robotocondensed-bolditalic:81"/><use x="39644" y="1650" xlink:href="#s75:robotocondensed-bolditalic:73"/><use x="40605" y="1650" xlink:href="#s75:robotocondensed-bolditalic:4"/><use x="41073" y="1650" xlink:href="#s75:robotocondensed-bolditalic:74"/><use x="41734" y="1650" xlink:href="#s75:robotocondensed-bolditalic:69"/><use x="42679" y="1650" xlink:href="#s75:robotocondensed-bolditalic:81"/><use x="44162" y="1650" xlink:href="#s75:robotocondensed-bolditalic:77"/><use x="44673" y="1650" xlink:href="#s75:robotocondensed-bolditalic:80"/><use x="45184" y="1650" xlink:href="#s75:robotocondensed-bolditalic:93"/><use x="45914" y="1650" xlink:href="#s75:robotocondensed-bolditalic:18"/></g><g id="line-1"><use x="9138" y="4107.6" xlink:href="#s75:robotocondensed-bolditalic:56"/><use x="10227" y="4107.6" xlink:href="#s75:robotocondensed-bolditalic:76"/><use x="11215" y="4107.6" xlink:href="#s75:robotocondensed-bolditalic:73"/><use x="12176" y="4107.6" xlink:href="#s75:robotocondensed-bolditalic:77"/><use x="12687" y="4107.6" xlink:href="#s75:robotocondensed-bolditalic:86"/><use x="13356" y="4107.6" xlink:href="#s75:robotocondensed-bolditalic:4"/><use x="13824" y="4107.6" xlink:href="#s75:robotocondensed-bolditalic:87"/><use x="14736" y="4107.6" xlink:href="#s75:robotocondensed-bolditalic:73"/><use x="15697" y="4107.6" xlink:href="#s75:robotocondensed-bolditalic:84"/><use x="16691" y="4107.6" xlink:href="#s75:robotocondensed-bolditalic:69"/><use x="17636" y="4107.6" xlink:href="#s75:robotocondensed-bolditalic:86"/><use x="18275" y="4107.6" xlink:href="#s75:robotocondensed-bolditalic:69"/><use x="19220" y="4107.6" xlink:href="#s75:robotocondensed-bolditalic:88"/><use x="19840" y="4107.6" xlink:href="#s75:robotocondensed-bolditalic:73"/><use x="20801" y="4107.6" xlink:href="#s75:robotocondensed-bolditalic:4"/><use x="21269" y="4107.6" xlink:href="#s75:robotocondensed-bolditalic:73"/><use x="22230" y="4107.6" xlink:href="#s75:robotocondensed-bolditalic:92"/><use x="23139" y="4107.6" xlink:href="#s75:robotocondensed-bolditalic:77"/><use x="23650" y="4107.6" xlink:href="#s75:robotocondensed-bolditalic:87"/><use x="24562" y="4107.6" xlink:href="#s75:robotocondensed-bolditalic:88"/><use x="25182" y="4107.6" xlink:href="#s75:robotocondensed-bolditalic:73"/><use x="26143" y="4107.6" xlink:href="#s75:robotocondensed-bolditalic:82"/><use x="27131" y="4107.6" xlink:href="#s75:robotocondensed-bolditalic:71"/><use x="28055" y="4107.6" xlink:href="#s75:robotocondensed-bolditalic:73"/><use x="29016" y="4107.6" xlink:href="#s75:robotocondensed-bolditalic:4"/><use x="29484" y="4107.6" xlink:href="#s75:robotocondensed-bolditalic:77"/><use x="29995" y="4107.6" xlink:href="#s75:robotocondensed-bolditalic:87"/><use x="30907" y="4107.6" xlink:href="#s75:robotocondensed-bolditalic:4"/><use x="31375" y="4107.6" xlink:href="#s75:robotocondensed-bolditalic:69"/><use x="32320" y="4107.6" xlink:href="#s75:robotocondensed-bolditalic:4"/><use x="32788" y="4107.6" xlink:href="#s75:robotocondensed-bolditalic:81"/><use x="34271" y="4107.6" xlink:href="#s75:robotocondensed-bolditalic:93"/><use x="35168" y="4107.6" xlink:href="#s75:robotocondensed-bolditalic:88"/><use x="35788" y="4107.6" xlink:href="#s75:robotocondensed-bolditalic:76"/><use x="36776" y="4107.6" xlink:href="#s75:robotocondensed-bolditalic:18"/></g><g id="line-2"><use x="11149.5" y="6565.2" xlink:href="#s75:robotocondensed-bolditalic:42"/><use x="12083.5" y="6565.2" xlink:href="#s75:robotocondensed-bolditalic:83"/><use x="13081.5" y="6565.2" xlink:href="#s75:robotocondensed-bolditalic:86"/><use x="13750.5" y="6565.2" xlink:href="#s75:robotocondensed-bolditalic:4"/><use x="14218.5" y="6565.2" xlink:href="#s75:robotocondensed-bolditalic:87"/><use x="15130.5" y="6565.2" xlink:href="#s75:robotocondensed-bolditalic:71"/><use x="16054.5" y="6565.2" xlink:href="#s75:robotocondensed-bolditalic:77"/><use x="16565.5" y="6565.2" xlink:href="#s75:robotocondensed-bolditalic:73"/><use x="17526.5" y="6565.2" xlink:href="#s75:robotocondensed-bolditalic:82"/><use x="18514.5" y="6565.2" xlink:href="#s75:robotocondensed-bolditalic:71"/><use x="19438.5" y="6565.2" xlink:href="#s75:robotocondensed-bolditalic:73"/><use x="20399.5" y="6565.2" xlink:href="#s75:robotocondensed-bolditalic:16"/><use x="20897.5" y="6565.2" xlink:href="#s75:robotocondensed-bolditalic:4"/><use x="21365.5" y="6565.2" xlink:href="#s75:robotocondensed-bolditalic:81"/><use x="22848.5" y="6565.2" xlink:href="#s75:robotocondensed-bolditalic:89"/><use x="23836.5" y="6565.2" xlink:href="#s75:robotocondensed-bolditalic:87"/><use x="24748.5" y="6565.2" xlink:href="#s75:robotocondensed-bolditalic:77"/><use x="25259.5" y="6565.2" xlink:href="#s75:robotocondensed-bolditalic:71"/><use x="26183.5" y="6565.2" xlink:href="#s75:robotocondensed-bolditalic:16"/><use x="26681.5" y="6565.2" xlink:href="#s75:robotocondensed-bolditalic:4"/><use x="27149.5" y="6565.2" xlink:href="#s75:robotocondensed-bolditalic:87"/><use x="28061.5" y="6565.2" xlink:href="#s75:robotocondensed-bolditalic:84"/><use x="29055.5" y="6565.2" xlink:href="#s75:robotocondensed-bolditalic:83"/><use x="30053.5" y="6565.2" xlink:href="#s75:robotocondensed-bolditalic:86"/><use x="30722.5" y="6565.2" xlink:href="#s75:robotocondensed-bolditalic:88"/><use x="31342.5" y="6565.2" xlink:href="#s75:robotocondensed-bolditalic:16"/><use x="31840.5" y="6565.2" xlink:href="#s75:robotocondensed-bolditalic:4"/><use x="32308.5" y="6565.2" xlink:href="#s75:robotocondensed-bolditalic:73"/><use x="33269.5" y="6565.2" xlink:href="#s75:robotocondensed-bolditalic:88"/><use x="33889.5" y="6565.2" xlink:href="#s75:robotocondensed-bolditalic:71"/><use x="34813.5" y="6565.2" xlink:href="#s75:robotocondensed-bolditalic:16"/></g></svg>