<svg xmlns="http://www.w3.org/2000/svg" xmlns:xlink="http://www.w3.org/1999/xlink" width="755" height="86" viewBox="0 0 64390 7338.7"><defs><path id="s82:robotomono-italic:54" d="M1243-1298L807-1298L582 0L406 0L631-1298L194-1298L222-1456L1271-1456L1243-1298Z"/><path id="s82:robotomono-italic:74" d="M396-920Q429-960 467.50-994Q506-1028 549.50-1052Q593-1076 641.50-1089.50Q690-1103 744-1102Q836-1100 898-1065Q960-1030 996-972Q1032-914 1044-838.50Q1056-763 1047-681L933 0L752 0L867-684Q873-737 867-783.50Q861-830 839-865.50Q817-901 778.50-921.50Q740-942 681-944Q635-945 593.50-933.50Q552-922 514.50-900.50Q477-879 443.50-850Q410-821 382-787L245 0L64 0L331-1536L512-1536L396-920Z"/><path id="s82:robotomono-italic:71" d="M540 20Q430 18 346.50-25Q263-68 209-139Q155-210 131.50-303Q108-396 117-500L122-543Q130-614 153-683.50Q176-753 212.50-816Q249-879 297.50-932Q346-985 405.50-1023.50Q465-1062 534.50-1083Q604-1104 681-1102Q793-1099 870-1053.50Q947-1008 992-934Q1037-860 1052-765.50Q1067-671 1054-571L1041-488L296-488Q288-422 300.50-359Q313-296 345-246Q377-196 430-165Q483-134 556-132Q650-129 729.50-169Q809-209 873-275L977-187Q940-135 890.50-95.50Q841-56 784-30Q727-4 665 8.50Q603 21 540 20M672-950Q602-953 546-926.50Q490-900 446.50-856Q403-812 371-755Q339-698 318-640L882-638L886-656Q895-711 885-763Q875-815 847-856Q819-897 775-922.50Q731-948 672-950Z"/><path id="s82:robotomono-italic:3" d=""/><path id="s82:robotomono-italic:39" d="M959-673L370-673L280-157L968-157L940 0L72 0L325-1456L1185-1456L1157-1298L478-1298L397-830L987-830L959-673Z"/><path id="s82:robotomono-italic:87" d="M780-149Q716-70 633-24Q550 22 445 20Q348 18 286.50-22.50Q225-63 191.50-128Q158-193 149.50-274.50Q141-356 150-439L258-1082L439-1082L332-436Q326-386 325-333.50Q324-281 338.50-238Q353-195 387-167Q421-139 484-137Q584-134 661-178.50Q738-223 791-305L926-1082L1108-1082L920 0L757 0L780-149Z"/><path id="s82:robotomono-italic:84" d="M931-1104Q979-1103 1027-1097.50Q1075-1092 1121-1075L1075-895Q1027-906 979-913Q931-920 882-921Q756-922 666-863Q576-804 516-695L396 0L215 0L402-1082L574-1082L544-910Q582-954 625-990Q668-1026 716-1051.50Q764-1077 817.50-1090.50Q871-1104 931-1104Z"/><path id="s82:robotomono-italic:81" d="M110-544Q119-617 141.50-687.50Q164-758 199-820.50Q234-883 281.50-935.50Q329-988 387.50-1025.50Q446-1063 515.50-1083.50Q585-1104 665-1102Q779-1099 859.50-1051.50Q940-1004 989-927.50Q1038-851 1056.50-753.50Q1075-656 1064-554L1062-531Q1048-422 1003.50-321Q959-220 888-143.50Q817-67 720.50-22Q624 23 506 20Q393 17 312.50-29.50Q232-76 183-152Q134-228 115-324Q96-420 107-522L110-544M288-522Q283-480 283.50-435Q284-390 291.50-347Q299-304 315-265Q331-226 358-196.50Q385-167 423.50-149Q462-131 514-129Q597-126 661-162Q725-198 770.50-256Q816-314 843-386.50Q870-459 881-531L883-553Q890-616 885.50-685Q881-754 856-812.50Q831-871 783-909.50Q735-948 657-951Q573-954 509-917.50Q445-881 400-822Q355-763 328-689.50Q301-616 291-544L288-522Z"/><path id="s82:robotomono-italic:82" d="M1043-536Q1031-436 995.50-335.50Q960-235 899.50-155Q839-75 752-26Q665 23 550 21Q468 19 395-10.50Q322-40 269-105L172 416L-9 416L251-1082L415-1083L396-964Q459-1033 537.50-1068.50Q616-1104 711-1102Q785-1100 840-1076Q895-1052 934.50-1011.50Q974-971 998.50-918Q1023-865 1035.50-805Q1048-745 1050-681.50Q1052-618 1045-557L1043-536M864-557Q871-618 867.50-685.50Q864-753 841-810Q818-867 772-905Q726-943 648-945Q563-947 498-905.50Q433-864 383-798L292-275Q352-135 505-130Q589-128 651.50-164Q714-200 757.50-259Q801-318 826.50-391Q852-464 862-536L864-557Z"/><path id="s82:robotomono-italic:67" d="M764 0Q756-30 756-59Q756-88 759-118Q688-55 604.50-17Q521 21 424 19Q356 18 295.50-4Q235-26 190.50-66Q146-106 121.50-163Q97-220 101-292Q105-362 129.50-416Q154-470 193-510.50Q232-551 283-579Q334-607 391.50-624.50Q449-642 510.50-649.50Q572-657 632-657L838-656L851-742Q857-793 843.50-832Q830-871 802-898Q774-925 733.50-939Q693-953 644-954Q601-955 559.50-945Q518-935 483.50-914Q449-893 424-860.50Q399-828 389-783L208-782Q217-864 261-924.50Q305-985 369.50-1025Q434-1065 511-1084.50Q588-1104 662-1103Q744-1101 815-1077Q886-1053 936.50-1006.50Q987-960 1013-893Q1039-826 1030-739L946-236Q937-181 936.50-126Q936-71 949-17L947 0L764 0M459-140Q555-138 638-183.50Q721-229 777-305L816-525L661-526Q606-526 543.50-519Q481-512 426-490Q371-468 332-427Q293-386 285-319Q280-276 291-243Q302-210 326-187.50Q350-165 384-153Q418-141 459-140Z"/><path id="s82:robotomono-italic:80" d="M413-1083L390-922Q423-962 462-996Q501-1030 545-1054Q589-1078 638-1090.50Q687-1103 741-1102Q832-1100 894-1066Q956-1032 992.50-975.50Q1029-919 1041.50-844Q1054-769 1045-687L930 0L749 0L864-684Q870-739 864.50-786Q859-833 837.50-868Q816-903 777-923.50Q738-944 678-945Q631-946 588.50-933.50Q546-921 509-898.50Q472-876 439.50-844.50Q407-813 380-777L245 0L64 0L252-1082L413-1083Z"/><path id="s82:robotomono-italic:78" d="M359-1536L897-1536L658-160L1001-160L972 0L92 0L121-160L477-160L688-1375L330-1375L359-1536Z"/><path id="s82:robotomono-italic:73" d="M127-543Q136-610 154.50-678.50Q173-747 203-810Q233-873 273.50-927Q314-981 367-1021Q420-1061 484.50-1083Q549-1105 627-1103Q712-1101 784.50-1067.50Q857-1034 905-963L940-1082L1106-1082L926-23Q912 78 869.50 162Q827 246 760.50 305.50Q694 365 606.50 397.50Q519 430 414 427Q360 426 307 413Q254 400 206 376Q158 352 117 317.50Q76 283 45 238L148 127Q195 194 259.50 234Q324 274 408 276Q477 278 533.50 257.50Q590 237 632.50 199Q675 161 703.50 107Q732 53 745-12L765-107Q702-44 627-11Q552 22 461 20Q390 18 335.50-6.50Q281-31 241.50-71.50Q202-112 176.50-165.50Q151-219 137.50-278.50Q124-338 121-400.50Q118-463 125-522L127-543M305-522Q300-482 300-438Q300-394 306-352Q312-310 326.50-271.50Q341-233 366-203.50Q391-174 427.50-156Q464-138 516-136Q606-134 672.50-178.50Q739-223 789-294L874-793Q846-864 792.50-904Q739-944 661-946Q577-949 515-913Q453-877 410.50-818.50Q368-760 343-687.50Q318-615 308-543L305-522Z"/><path id="s82:robotomono-italic:85" d="M818-294Q824-340 803-370Q782-400 747.50-419Q713-438 672-449.50Q631-461 598-469Q538-484 473-506Q408-528 354-563Q300-598 266.50-650.50Q233-703 236-778Q238-833 258.50-878.50Q279-924 312-960.50Q345-997 388.50-1024Q432-1051 480.50-1068.50Q529-1086 579.50-1094.50Q630-1103 679-1102Q755-1100 825.50-1078Q896-1056 949-1013.50Q1002-971 1033-908.50Q1064-846 1063-763L884-764Q884-809 867-843Q850-877 820.50-900.50Q791-924 752.50-936Q714-948 672-949Q632-950 589.50-941Q547-932 510-912.50Q473-893 447-861.50Q421-830 415-785Q409-740 429.50-711.50Q450-683 483-666Q516-649 555.50-639Q595-629 628-622Q669-612 713-599Q757-586 799-568Q841-550 878.50-526.50Q916-503 943-471.50Q970-440 985-399Q1000-358 998-307Q994-220 950-157Q906-94 840-54.50Q774-15 694 3.50Q614 22 538 20Q458 19 383.50-4Q309-27 251-71.50Q193-116 158.50-181.50Q124-247 126-334L306-333Q307-281 326-243Q345-205 377-180.50Q409-156 452-143.50Q495-131 544-131Q584-130 629-138Q674-146 714-164.50Q754-183 782.50-215Q811-247 818-294Z"/><path id="s82:robotomono-italic:79" d="M334-1083L314-980Q356-1037 410-1070Q464-1103 536-1102Q567-1102 595-1095.50Q623-1089 646.50-1075Q670-1061 687.50-1039Q705-1017 714-987Q756-1039 809-1070.50Q862-1102 932-1102Q995-1101 1037-1076Q1079-1051 1102.50-1009.50Q1126-968 1133.50-915.50Q1141-863 1136-808L1001 0L829 0L965-811Q968-839 965-863.50Q962-888 951.50-906.50Q941-925 920.50-935.50Q900-946 869-946Q815-946 775-916Q735-886 721-834L579 0L407 0L544-812Q547-839 544.50-862.50Q542-886 531.50-904Q521-922 502-933Q483-944 453-945Q403-946 368-924.50Q333-903 307-862L158 0L-14 0L173-1082L334-1083Z"/><path id="s82:robotomono-italic:68" d="M1047-535Q1038-468 1019.50-400.50Q1001-333 972-271Q943-209 903-155Q863-101 811-61Q759-21 695 1Q631 23 554 21Q466 19 392-15.50Q318-50 269-124L233 0L65 0L332-1536L513-1536L405-965Q467-1034 544-1069Q621-1104 715-1102Q788-1100 843.50-1076Q899-1052 938.50-1011.50Q978-971 1002.50-918Q1027-865 1039.50-804.50Q1052-744 1054-680.50Q1056-617 1049-556L1047-535M869-557Q876-618 873.50-685.50Q871-753 850-810Q829-867 784-905Q739-943 661-945Q614-946 574-934Q534-922 499.50-899.50Q465-877 435.50-846Q406-815 381-779L299-303Q326-228 381-183Q436-138 519-136Q602-134 663-169.50Q724-205 766-263Q808-321 832-393Q856-465 866-536L869-557Z"/><path id="s82:robotomono-italic:72" d="M332 0L495-939L205-939L231-1082L519-1082L530-1158Q543-1254 581.50-1332.50Q620-1411 680.50-1466.50Q741-1522 822.50-1551.50Q904-1581 1004-1580Q1069-1579 1131.50-1567Q1194-1555 1257-1539L1220-1387Q1171-1404 1120.50-1414Q1070-1424 1018-1425Q953-1426 901-1408Q849-1390 810-1355.50Q771-1321 746.50-1271.50Q722-1222 712-1159L701-1082L1106-1082L1081-939L677-939L514 0L332 0Z"/><path id="s82:robotomono-italic:86" d="M724-1344L678-1082L1078-1082L1053-939L653-939L555-350Q550-306 555.50-268Q561-230 578-202Q595-174 626.50-157Q658-140 706-139Q761-137 815.50-147Q870-157 924-169L941-36Q878-1 801 10Q724 21 653 19Q572 18 516-12.50Q460-43 426-93.50Q392-144 379.50-210.50Q367-277 374-351L472-939L196-939L221-1082L496-1082L542-1344L724-1344Z"/><path id="s82:robotomono-italic:75" d="M280-1082L818-1082L658-160L1001-160L972 0L92 0L121-160L477-160L609-921L252-921L280-1082M663-1363Q664-1411 694-1442.50Q724-1474 772-1476Q796-1477 815.50-1469Q835-1461 849.50-1447Q864-1433 871.50-1413Q879-1393 879-1369Q879-1321 849-1291.50Q819-1262 771-1260Q724-1258 693.50-1286.50Q663-1315 663-1363Z"/><path id="s82:robotomono-italic:91" d="M516-375L537-255L1001-1082L1212-1082L464 168Q434 220 396 269Q358 318 311.50 356.50Q265 395 209.50 417.50Q154 440 89 440Q60 440 30.50 434.50Q1 429-28 424L13 271Q35 273 57 276Q79 279 100 279Q139 278 172 260Q205 242 232 215Q259 188 281 155.50Q303 123 322 94L425-62L154-1082L347-1082L516-375Z"/><path id="s82:robotomono-italic:16" d="M398-115Q398-146 408.50-173.50Q419-201 437.50-221Q456-241 482.50-252.50Q509-264 541-264Q572-265 598-255Q624-245 642.50-226Q661-207 671.50-181.50Q682-156 682-125Q682-93 671-67Q660-41 641-21.50Q622-2 595 9Q568 20 537 20Q507 20 481.50 10.50Q456 1 437.50-17Q419-35 408.50-60Q398-85 398-115Z"/><path id="s82:robotomono-italic:90" d="M609-682L952-1082L1176-1082L693-539L1005 0L809 0L583-411L229 0L6 0L501-555L198-1082L395-1082L609-682Z"/><path id="s82:robotomono-italic:69" d="M533-129Q582-128 630-142.50Q678-157 717.50-184.50Q757-212 785-251.50Q813-291 824-340L995-341Q986-258 941-190.50Q896-123 830-75.50Q764-28 684-2.50Q604 23 525 21Q411 18 331-28Q251-74 202-148.50Q153-223 135-319Q117-415 127-517L132-560Q141-633 164-702Q187-771 222.50-832Q258-893 305.50-943.50Q353-994 412-1030Q471-1066 540-1085Q609-1104 687-1102Q771-1100 842-1070Q913-1040 963.50-988.50Q1014-937 1041-865.50Q1068-794 1064-709L894-710Q896-760 882-803Q868-846 839.50-878.50Q811-911 770-930Q729-949 677-951Q594-954 530.50-920.50Q467-887 422-831Q377-775 349.50-704Q322-633 312-560L307-518Q302-475 302-430Q302-385 309.50-342.50Q317-300 333-261.50Q349-223 376-194.50Q403-166 441.50-148Q480-130 533-129Z"/><path id="s82:robotomono-italic:40" d="M963-643L375-643L263 0L81 0L333-1456L1202-1456L1174-1298L489-1298L402-800L990-800L963-643Z"/><path id="s82:robotomono-italic:14" d="M530-44Q511 69 452 166.50Q393 264 304 336L194 271Q247 201 281.50 124Q316 47 331-40L363-219L559-219L530-44Z"/></defs><g id="line-0"><use x="0" y="1868.5" xlink:href="#s82:robotomono-italic:54"/><use x="1202" y="1868.5" xlink:href="#s82:robotomono-italic:74"/><use x="2404" y="1868.5" xlink:href="#s82:robotomono-italic:71"/><use x="3606" y="1868.5" xlink:href="#s82:robotomono-italic:3"/><use x="4808" y="1868.5" xlink:href="#s82:robotomono-italic:39"/><use x="6010" y="1868.5" xlink:href="#s82:robotomono-italic:87"/><use x="7212" y="1868.5" xlink:href="#s82:robotomono-italic:84"/><use x="8414" y="1868.5" xlink:href="#s82:robotomono-italic:81"/><use x="9616" y="1868.5" xlink:href="#s82:robotomono-italic:82"/><use x="10818" y="1868.5" xlink:href="#s82:robotomono-italic:71"/><use x="12020" y="1868.5" xlink:href="#s82:robotomono-italic:67"/><use x="13222" y="1868.5" xlink:href="#s82:robotomono-italic:80"/><use x="14424" y="1868.5" xlink:href="#s82:robotomono-italic:3"/><use x="15626" y="1868.5" xlink:href="#s82:robotomono-italic:78"/><use x="16828" y="1868.5" xlink:href="#s82:robotomono-italic:67"/><use x="18030" y="1868.5" xlink:href="#s82:robotomono-italic:80"/><use x="19232" y="1868.5" xlink:href="#s82:robotomono-italic:73"/><use x="20434" y="1868.5" xlink:href="#s82:robotomono-italic:87"/><use x="21636" y="1868.5" xlink:href="#s82:robotomono-italic:67"/><use x="22838" y="1868.5" xlink:href="#s82:robotomono-italic:73"/><use x="24040" y="1868.5" xlink:href="#s82:robotomono-italic:71"/><use x="25242" y="1868.5" xlink:href="#s82:robotomono-italic:85"/><use x="26444" y="1868.5" xlink:href="#s82:robotomono-italic:3"/><use x="27646" y="1868.5" xlink:href="#s82:robotomono-italic:67"/><use x="28848" y="1868.5" xlink:href="#s82:robotomono-italic:84"/><use x="30050" y="1868.5" xlink:href="#s82:robotomono-italic:71"/><use x="31252" y="1868.5" xlink:href="#s82:robotomono-italic:3"/><use x="32454" y="1868.5" xlink:href="#s82:robotomono-italic:79"/><use x="33656" y="1868.5" xlink:href="#s82:robotomono-italic:71"/><use x="34858" y="1868.5" xlink:href="#s82:robotomono-italic:79"/><use x="36060" y="1868.5" xlink:href="#s82:robotomono-italic:68"/><use x="37262" y="1868.5" xlink:href="#s82:robotomono-italic:71"/><use x="38464" y="1868.5" xlink:href="#s82:robotomono-italic:84"/><use x="39666" y="1868.5" xlink:href="#s82:robotomono-italic:85"/><use x="40868" y="1868.5" xlink:href="#s82:robotomono-italic:3"/><use x="42070" y="1868.5" xlink:href="#s82:robotomono-italic:81"/><use x="43272" y="1868.5" xlink:href="#s82:robotomono-italic:72"/><use x="44475" y="1868.5" xlink:href="#s82:robotomono-italic:3"/><use x="45677" y="1868.5" xlink:href="#s82:robotomono-italic:86"/><use x="46879" y="1868.5" xlink:href="#s82:robotomono-italic:74"/><use x="48081" y="1868.5" xlink:href="#s82:robotomono-italic:71"/><use x="49283" y="1868.5" xlink:href="#s82:robotomono-italic:3"/><use x="50485" y="1868.5" xlink:href="#s82:robotomono-italic:85"/><use x="51687" y="1868.5" xlink:href="#s82:robotomono-italic:67"/><use x="52889" y="1868.5" xlink:href="#s82:robotomono-italic:79"/><use x="54091" y="1868.5" xlink:href="#s82:robotomono-italic:71"/><use x="55293" y="1868.5" xlink:href="#s82:robotomono-italic:3"/><use x="56495" y="1868.5" xlink:href="#s82:robotomono-italic:72"/><use x="57698" y="1868.5" xlink:href="#s82:robotomono-italic:67"/><use x="58900" y="1868.5" xlink:href="#s82:robotomono-italic:79"/><use x="60102" y="1868.5" xlink:href="#s82:robotomono-italic:75"/><use x="61304" y="1868.5" xlink:href="#s82:robotomono-italic:78"/><use x="62506" y="1868.5" xlink:href="#s82:robotomono-italic:91"/><use x="63708" y="1868.5" xlink:href="#s82:robotomono-italic:16"/></g><g id="line-1"><use x="11420" y="4326.1" xlink:href="#s82:robotomono-italic:54"/><use x="12622" y="4326.1" xlink:href="#s82:robotomono-italic:74"/><use x="13824" y="4326.1" xlink:href="#s82:robotomono-italic:71"/><use x="15026" y="4326.1" xlink:href="#s82:robotomono-italic:75"/><use x="16228" y="4326.1" xlink:href="#s82:robotomono-italic:84"/><use x="17430" y="4326.1" xlink:href="#s82:robotomono-italic:3"/><use x="18632" y="4326.1" xlink:href="#s82:robotomono-italic:85"/><use x="19834" y="4326.1" xlink:href="#s82:robotomono-italic:71"/><use x="21036" y="4326.1" xlink:href="#s82:robotomono-italic:82"/><use x="22238" y="4326.1" xlink:href="#s82:robotomono-italic:67"/><use x="23440" y="4326.1" xlink:href="#s82:robotomono-italic:84"/><use x="24642" y="4326.1" xlink:href="#s82:robotomono-italic:67"/><use x="25844" y="4326.1" xlink:href="#s82:robotomono-italic:86"/><use x="27046" y="4326.1" xlink:href="#s82:robotomono-italic:71"/><use x="28248" y="4326.1" xlink:href="#s82:robotomono-italic:3"/><use x="29450" y="4326.1" xlink:href="#s82:robotomono-italic:71"/><use x="30652" y="4326.1" xlink:href="#s82:robotomono-italic:90"/><use x="31854" y="4326.1" xlink:href="#s82:robotomono-italic:75"/><use x="33056" y="4326.1" xlink:href="#s82:robotomono-italic:85"/><use x="34258" y="4326.1" xlink:href="#s82:robotomono-italic:86"/><use x="35460" y="4326.1" xlink:href="#s82:robotomono-italic:71"/><use x="36662" y="4326.1" xlink:href="#s82:robotomono-italic:80"/><use x="37864" y="4326.1" xlink:href="#s82:robotomono-italic:69"/><use x="39066" y="4326.1" xlink:href="#s82:robotomono-italic:71"/><use x="40268" y="4326.1" xlink:href="#s82:robotomono-italic:3"/><use x="41470" y="4326.1" xlink:href="#s82:robotomono-italic:75"/><use x="42672" y="4326.1" xlink:href="#s82:robotomono-italic:85"/><use x="43874" y="4326.1" xlink:href="#s82:robotomono-italic:3"/><use x="45076" y="4326.1" xlink:href="#s82:robotomono-italic:67"/><use x="46278" y="4326.1" xlink:href="#s82:robotomono-italic:3"/><use x="47480" y="4326.1" xlink:href="#s82:robotomono-italic:79"/><use x="48682" y="4326.1" xlink:href="#s82:robotomono-italic:91"/><use x="49884" y="4326.1" xlink:href="#s82:robotomono-italic:86"/><use x="51086" y="4326.1" xlink:href="#s82:robotomono-italic:74"/><use x="52288" y="4326.1" xlink:href="#s82:robotomono-italic:16"/></g><g id="line-2"><use x="13885.5" y="6783.7" xlink:href="#s82:robotomono-italic:40"/><use x="15087.5" y="6783.7" xlink:href="#s82:robotomono-italic:81"/><use x="16289.5" y="6783.7" xlink:href="#s82:robotomono-italic:84"/><use x="17491.5" y="6783.7" xlink:href="#s82:robotomono-italic:3"/><use x="18693.5" y="6783.7" xlink:href="#s82:robotomono-italic:85"/><use x="19895.5" y="6783.7" xlink:href="#s82:robotomono-italic:69"/><use x="21097.5" y="6783.7" xlink:href="#s82:robotomono-italic:75"/><use x="22299.5" y="6783.7" xlink:href="#s82:robotomono-italic:71"/><use x="23501.5" y="6783.7" xlink:href="#s82:robotomono-italic:80"/><use x="24703.5" y="6783.7" xlink:href="#s82:robotomono-italic:69"/><use x="25905.5" y="6783.7" xlink:href="#s82:robotomono-italic:71"/><use x="27107.5" y="6783.7" xlink:href="#s82:robotomono-italic:14"/><use x="28309.5" y="6783.7" xlink:href="#s82:robotomono-italic:3"/><use x="29511.5" y="6783.7" xlink:href="#s82:robotomono-italic:79"/><use x="30713.5" y="6783.7" xlink:href="#s82:robotomono-italic:87"/><use x="31915.5" y="6783.7" xlink:href="#s82:robotomono-italic:85"/><use x="33117.5" y="6783.7" xlink:href="#s82:robotomono-italic:75"/><use x="34319.5" y="6783.7" xlink:href="#s82:robotomono-italic:69"/><use x="35521.5" y="6783.7" xlink:href="#s82:robotomono-italic:14"/><use x="36723.5" y="6783.7" xlink:href="#s82:robotomono-italic:3"/><use x="37925.5" y="6783.7" xlink:href="#s82:robotomono-italic:85"/><use x="39127.5" y="6783.7" xlink:href="#s82:robotomono-italic:82"/><use x="40329.5" y="6783.7" xlink:href="#s82:robotomono-italic:81"/><use x="41531.5" y="6783.7" xlink:href="#s82:robotomono-italic:84"/><use x="42733.5" y="6783.7" xlink:href="#s82:robotomono-italic:86"/><use x="43935.5" y="6783.7" xlink:href="#s82:robotomono-italic:14"/><use x="45137.5" y="6783.7" xlink:href="#s82:robotomono-italic:3"/><use x="46339.5" y="6783.7" xlink:href="#s82:robotomono-italic:71"/><use x="47541.5" y="6783.7" xlink:href="#s82:robotomono-italic:86"/><use x="48743.5" y="6783.7" xlink:href="#s82:robotomono-italic:69"/><use x="49945.5" y="6783.7" xlink:href="#s82:robotomono-italic:14"/></g></svg>