<svg xmlns="http://www.w3.org/2000/svg" xmlns:xlink="http://www.w3.org/1999/xlink" width="772" height="86" viewBox="0 0 65846 7338.7"><defs><path id="s88:robotomono-thin:54" d="M1123-1402L644-1402L644 0L590 0L592-1402L112-1402L112-1456L1123-1456L1123-1402Z"/><path id="s88:robotomono-thin:74" d="M268-821Q294-881 334-932.50Q374-984 425.50-1021.50Q477-1059 539-1080.50Q601-1102 672-1102Q765-1102 833-1072Q901-1042 945-988.50Q989-935 1010.50-861Q1032-787 1033-700L1033 0L978 0L978-700Q977-776 959.50-840.50Q942-905 904.50-951.50Q867-998 809-1024Q751-1050 669-1049Q596-1048 530-1020Q464-992 410.50-945Q357-898 320-835Q283-772 268-702L268 0L213 0L213-1536L268-1536L268-821Z"/><path id="s88:robotomono-thin:71" d="M658 20Q547 20 456.50-24.50Q366-69 301.50-144Q237-219 201-316Q165-413 164-518L164-562Q165-663 198-760Q231-857 292-933Q353-1009 440-1055.50Q527-1102 637-1102Q735-1102 814-1065Q893-1028 948.50-964.50Q1004-901 1034-817Q1064-733 1065-640L1065-577L218-577L218-562L218-518Q219-425 251-337.50Q283-250 340.50-182.50Q398-115 478.50-74.50Q559-34 658-33Q759-32 843.50-68Q928-104 993-182L1032-155Q963-65 866.50-22.50Q770 20 658 20M637-1048Q547-1048 475-1013.50Q403-979 350.50-921Q298-863 265.50-787.50Q233-712 223-631L1011-631L1011-644Q1011-724 983.50-797Q956-870 907-926Q858-982 789-1015Q720-1048 637-1048Z"/><path id="s88:robotomono-thin:3" d=""/><path id="s88:robotomono-thin:39" d="M950-722L273-722L273-54L1045-54L1045 0L220 0L220-1456L1045-1456L1045-1402L273-1402L273-776L950-776L950-722Z"/><path id="s88:robotomono-thin:87" d="M964 0L965-193Q913-93 816.50-36.50Q720 20 581 20Q487 20 418.50-12Q350-44 305.50-99.50Q261-155 239-231Q217-307 216-395L216-1082L270-1082L270-393Q271-318 289-253Q307-188 344.50-139Q382-90 440-62Q498-34 579-34Q657-34 722-54.50Q787-75 836.50-113.50Q886-152 918.50-207.50Q951-263 965-333L964-1082L1020-1082L1020 0L964 0Z"/><path id="s88:robotomono-thin:84" d="M935-1102Q971-1102 1007-1097.50Q1043-1093 1076-1086L1070-1035Q1041-1040 1005.50-1044.50Q970-1049 935-1049Q852-1049 773.50-1030.50Q695-1012 630.50-969.50Q566-927 518.50-858.50Q471-790 449-691L452 0L390 0L390-1082L443-1082L449-894L449-825Q509-958 634-1030.50Q759-1103 935-1102Z"/><path id="s88:robotomono-thin:81" d="M141-562Q142-666 174-763.50Q206-861 266-936Q326-1011 413.50-1056.50Q501-1102 614-1102Q727-1102 814.50-1057Q902-1012 962.50-937Q1023-862 1055-764.50Q1087-667 1088-562L1088-520Q1087-416 1055.50-318.50Q1024-221 964-146Q904-71 816.50-25.50Q729 20 616 20Q503 20 415-25Q327-70 266.50-145Q206-220 174-317.50Q142-415 141-520L141-562M195-520Q196-428 224.50-340.50Q253-253 306.50-185Q360-117 438-75.50Q516-34 616-34Q716-34 793-75.50Q870-117 923.50-185.50Q977-254 1005-341Q1033-428 1034-520L1034-562Q1033-653 1004.50-740.50Q976-828 922.50-896Q869-964 791-1006Q713-1048 614-1048Q515-1048 437.50-1006Q360-964 306.50-896Q253-828 224.50-740.50Q196-653 195-562L195-520Z"/><path id="s88:robotomono-thin:82" d="M1049-531Q1049-468 1038.50-402.50Q1028-337 1007-276Q986-215 952.50-161Q919-107 872-67Q825-27 763-3.50Q701 20 623 20Q574 20 524 8Q474-4 428-26.50Q382-49 342-82Q302-115 274-158L274 416L220 416L220-1082L274-1082L274-902Q301-948 339.50-985Q378-1022 423-1048Q468-1074 518.50-1088Q569-1102 621-1102Q700-1102 762.50-1079Q825-1056 872-1016.50Q919-977 952.50-923Q986-869 1007.50-808Q1029-747 1038.50-681.50Q1048-616 1049-552L1049-531M994-552Q994-608 985.50-666.50Q977-725 959.50-780Q942-835 913.50-883.50Q885-932 844-968.50Q803-1005 748-1026.50Q693-1048 622-1048Q563-1048 508.50-1029.50Q454-1011 408-977Q362-943 327.50-895.50Q293-848 274-790L274-256Q294-202 331.50-160.50Q369-119 416-91Q463-63 517-48.50Q571-34 624-34Q694-34 749-55.50Q804-77 845-114Q886-151 914-200Q942-249 959.50-304Q977-359 985-417Q993-475 994-531L994-552Z"/><path id="s88:robotomono-thin:67" d="M989 0Q977-51 973-101Q969-151 968-202Q933-147 884.50-105Q836-63 779-35.50Q722-8 658 6Q594 20 527 20Q462 20 400 0.50Q338-19 290-56Q242-93 213-148Q184-203 184-274Q184-371 231-434.50Q278-498 352.50-535.50Q427-573 519-588Q611-603 701-604L968-604L968-762Q966-835 938-889Q910-943 863.50-978Q817-1013 755.50-1030.50Q694-1048 626-1048Q566-1048 503.50-1032Q441-1016 390-983.50Q339-951 305-901.50Q271-852 268-784L214-786Q218-865 256.50-924Q295-983 353.50-1022.50Q412-1062 483.50-1082Q555-1102 626-1102Q706-1102 777.50-1080.50Q849-1059 903-1016.50Q957-974 988.50-909.50Q1020-845 1022-760L1022-218Q1023-163 1032-113Q1041-63 1051-9L1052 0L989 0M527-33Q598-32 664.50-48.50Q731-65 788.50-98Q846-131 892-180Q938-229 968-293L968-549L704-549Q653-548 598.50-543Q544-538 492-526Q440-514 393.50-494Q347-474 312.50-443Q278-412 257.50-369.50Q237-327 238-270Q238-213 264-168.50Q290-124 331.50-94Q373-64 424.50-48.50Q476-33 527-33Z"/><path id="s88:robotomono-thin:80" d="M267-822Q293-882 332.50-933.50Q372-985 423.50-1022Q475-1059 537-1080.50Q599-1102 670-1102Q763-1102 830.50-1072Q898-1042 942-988.50Q986-935 1007-861Q1028-787 1029-700L1030 0L975 0L975-700Q974-776 956.50-840.50Q939-905 902-951.50Q865-998 807-1024Q749-1050 667-1049Q594-1048 528-1020Q462-992 409-945Q356-898 319-835Q282-772 267-702L267 0L212 0L212-1082L267-1082L267-822L267-822Z"/><path id="s88:robotomono-thin:78" d="M239-1536L694-1536L694-54L1074-54L1074 0L239 0L239-54L640-54L640-1482L239-1482L239-1536Z"/><path id="s88:robotomono-thin:73" d="M178-552Q178-616 188-681.50Q198-747 219.50-808Q241-869 274.50-923Q308-977 355-1016.50Q402-1056 464.50-1079Q527-1102 606-1102Q658-1102 708.50-1087.50Q759-1073 804-1046Q849-1019 887-981Q925-943 952-897L952-1082L1007-1082L1007-15Q1006 78 979 160Q952 242 900 303.50Q848 365 772.50 400.50Q697 436 598 436Q489 436 399.50 387.50Q310 339 244 254L282 218Q343 292 420 337.50Q497 383 596 383Q684 383 750.50 352Q817 321 861.50 267Q906 213 928.50 140.50Q951 68 952-15L952-160Q924-117 884.50-83.50Q845-50 799-27Q753-4 703 8Q653 20 604 20Q526 20 464.50-3.50Q403-27 355.50-67Q308-107 274.50-161Q241-215 220-276Q199-337 188.50-402.50Q178-468 178-531L178-552M233-531Q234-476 242-417.50Q250-359 267.50-304Q285-249 313-200Q341-151 382-114Q423-77 477.50-55.50Q532-34 603-34Q657-34 711-49Q765-64 812.50-93Q860-122 896.50-164.50Q933-207 952-262L952-783Q934-842 900-890.50Q866-939 820.50-974Q775-1009 720-1028.50Q665-1048 605-1048Q534-1048 479-1026.50Q424-1005 383-968.50Q342-932 313.50-883.50Q285-835 267.50-780Q250-725 241.50-666.50Q233-608 233-552L233-531Z"/><path id="s88:robotomono-thin:85" d="M1003-265Q1003-309 986-344.50Q969-380 940-407Q911-434 873.50-454.50Q836-475 795-489.50Q754-504 714-514.50Q674-525 640-532Q599-541 553-551.50Q507-562 463-577.50Q419-593 378.50-614Q338-635 308-665Q278-695 260-735.50Q242-776 243-829Q243-879 261-918.50Q279-958 308.50-988.50Q338-1019 377.50-1040.50Q417-1062 460.50-1075.50Q504-1089 549-1095.50Q594-1102 635-1102Q711-1102 784-1085Q857-1068 915.50-1031Q974-994 1012-935.50Q1050-877 1056-793L1000-793Q998-862 963-910.50Q928-959 874.50-989.50Q821-1020 757.50-1034Q694-1048 635-1048Q585-1048 526.50-1037.50Q468-1027 417-1002Q366-977 332-935.50Q298-894 297-831Q296-785 313-751Q330-717 358.50-691.50Q387-666 424.50-648Q462-630 502-617Q542-604 582.50-595Q623-586 657-579Q721-565 791.50-544Q862-523 921.50-488Q981-453 1019-399Q1057-345 1057-264Q1057-211 1038-169.50Q1019-128 988-96.50Q957-65 915.50-42.50Q874-20 828.50-6.50Q783 7 735.50 13.50Q688 20 644 20Q596 20 546 13.50Q496 7 448.50-7.50Q401-22 358.50-45Q316-68 283-100.50Q250-133 229-176.50Q208-220 204-275L259-275Q267-204 305.50-157.50Q344-111 398.50-83.50Q453-56 518-45Q583-34 644-34Q678-34 718-39Q758-44 797.50-55.50Q837-67 874-84.50Q911-102 939.50-128Q968-154 985-187.50Q1002-221 1003-265Z"/><path id="s88:robotomono-thin:79" d="M135-1082L137-940Q168-1010 229.50-1055Q291-1100 393-1102Q447-1102 486.50-1088.50Q526-1075 554-1052Q582-1029 599-998.50Q616-968 625-935Q641-968 666-998Q691-1028 725.50-1051Q760-1074 803-1088Q846-1102 898-1102Q951-1102 990.50-1088.50Q1030-1075 1057-1052Q1084-1029 1101-998.50Q1118-968 1128-934.50Q1138-901 1141.50-866Q1145-831 1145-800L1143 0L1094 0L1092-800Q1092-835 1086.50-879Q1081-923 1061-961.50Q1041-1000 1002-1025.50Q963-1051 896-1049Q830-1047 785.50-1027Q741-1007 712-976Q683-945 666.50-908Q650-871 639-836Q639-831 639.50-827.50Q640-824 640-820L638 0L589 0L587-820Q586-855 580-895.50Q574-936 553.50-970.50Q533-1005 494.50-1027.50Q456-1050 391-1049Q321-1047 276.50-1023Q232-999 204-961.50Q176-924 161.50-878Q147-832 137-788L135 0L86 0L86-1082L135-1082Z"/><path id="s88:robotomono-thin:68" d="M1053-531Q1052-468 1042-402.50Q1032-337 1011-276Q990-215 956.50-161Q923-107 875.50-67Q828-27 766.50-3.50Q705 20 627 20Q578 20 528 8Q478-4 431.50-27Q385-50 345.50-83.50Q306-117 278-160L278 0L224 0L224-1536L278-1536L278-898Q305-944 343-982Q381-1020 426-1046.50Q471-1073 521.50-1087.50Q572-1102 625-1102Q704-1102 766.50-1079Q829-1056 876-1016.50Q923-977 956.50-923Q990-869 1011.50-808Q1033-747 1042.50-681.50Q1052-616 1053-552L1053-531M997-552Q996-607 988-665.50Q980-724 962.50-779Q945-834 917-883Q889-932 847.50-968.50Q806-1005 751.50-1026.50Q697-1048 626-1048Q566-1048 511-1029Q456-1010 410.50-975Q365-940 330.50-891.50Q296-843 278-785L278-261Q297-206 334.50-163.50Q372-121 419-92Q466-63 520-48.50Q574-34 628-34Q698-34 753-55.50Q808-77 848.50-114Q889-151 917.50-200Q946-249 963.50-304Q981-359 988.50-417Q996-475 997-531L997-552Z"/><path id="s88:robotomono-thin:72" d="M1004-1027L559-1027L563 0L500 0L503-1027L210-1027L210-1082L503-1082L504-1177Q506-1295 543-1369Q580-1443 639-1484.50Q698-1526 773-1541.50Q848-1557 926-1557Q974-1557 1020-1553.50Q1066-1550 1112-1540L1104-1488Q1060-1497 1016.50-1500Q973-1503 928-1503Q885-1503 841-1498.50Q797-1494 756.50-1481.50Q716-1469 680.50-1446.50Q645-1424 618.50-1387.50Q592-1351 576-1299.50Q560-1248 559-1177L559-1082L1004-1082L1004-1027Z"/><path id="s88:robotomono-thin:86" d="M573-1374L572-1082L962-1082L962-1027L572-1027L572-259Q574-196 594.50-153.50Q615-111 651-84.50Q687-58 735.50-46Q784-34 842-34Q923-34 1001-43L1012 8Q971 16 930 18Q889 20 847 20Q775 20 715 5.50Q655-9 611-42Q567-75 542-128Q517-181 515-259L515-1027L197-1027L197-1082L515-1082L515-1374L573-1374Z"/><path id="s88:robotomono-thin:75" d="M239-1082L690-1082L690-54L1074-54L1074 0L239 0L239-54L636-54L636-1028L239-1028L239-1082M590-1390Q590-1404 593-1417.50Q596-1431 604-1441.50Q612-1452 625.50-1458Q639-1464 660-1464Q680-1464 693.50-1458Q707-1452 715.50-1441.50Q724-1431 727.50-1417.50Q731-1404 731-1390Q731-1363 715.50-1341Q700-1319 660-1319Q619-1319 604.50-1341Q590-1363 590-1390Z"/><path id="s88:robotomono-thin:91" d="M623-74L636-104L1076-1082L1141-1082L572 180Q547 236 516.50 282.50Q486 329 446.50 363.50Q407 398 356 417.50Q305 437 239 437Q195 437 149 426L147 375Q167 378 188 381Q209 384 230 384Q284 384 328 368.50Q372 353 407 324.50Q442 296 469 256.50Q496 217 517 170L592-2L84-1082L147-1082L623-74Z"/><path id="s88:robotomono-thin:16" d="M589-52Q589-77 607-94.50Q625-112 647-112Q670-112 688.50-94.50Q707-77 707-52Q707-28 688.50-11Q670 6 647 6Q625 6 607-11Q589-28 589-52Z"/><path id="s88:robotomono-thin:90" d="M628-602L1011-1082L1083-1082L662-555L1105 0L1035 0L627-508L221 0L150 0L593-555L172-1082L244-1082L628-602Z"/><path id="s88:robotomono-thin:69" d="M630-34Q699-34 760.50-53Q822-72 869.50-109.50Q917-147 947-202Q977-257 985-328L1039-328Q1031-247 996-182.50Q961-118 906.50-73Q852-28 780.50-4Q709 20 630 20Q516 20 431.50-26Q347-72 291-147.50Q235-223 207.50-320Q180-417 179-520L179-562Q180-664 207.50-761.50Q235-859 290.50-934.50Q346-1010 430-1056Q514-1102 628-1102Q713-1102 785.50-1075Q858-1048 912-998.50Q966-949 999-879.50Q1032-810 1039-725L985-725Q979-798 950-857.50Q921-917 873.50-959.50Q826-1002 763.50-1025Q701-1048 628-1048Q525-1048 451-1006.50Q377-965 328.50-896.50Q280-828 257-740.50Q234-653 233-562L233-520Q234-427 257-340Q280-253 328.50-185Q377-117 451.50-75.50Q526-34 630-34Z"/><path id="s88:robotomono-thin:40" d="M964-716L282-716L282 0L230 0L230-1456L1057-1456L1057-1402L282-1402L282-772L964-772L964-716Z"/><path id="s88:robotomono-thin:14" d="M559-27Q557 54 532 124.50Q507 195 453 255L416 223Q458 166 481 106.50Q504 47 505-25L505-159L559-159L559-27Z"/></defs><g id="line-0"><use x="0" y="1868.5" xlink:href="#s88:robotomono-thin:54"/><use x="1229" y="1868.5" xlink:href="#s88:robotomono-thin:74"/><use x="2458" y="1868.5" xlink:href="#s88:robotomono-thin:71"/><use x="3687" y="1868.5" xlink:href="#s88:robotomono-thin:3"/><use x="4916" y="1868.5" xlink:href="#s88:robotomono-thin:39"/><use x="6145" y="1868.5" xlink:href="#s88:robotomono-thin:87"/><use x="7374" y="1868.5" xlink:href="#s88:robotomono-thin:84"/><use x="8603" y="1868.5" xlink:href="#s88:robotomono-thin:81"/><use x="9832" y="1868.5" xlink:href="#s88:robotomono-thin:82"/><use x="11061" y="1868.5" xlink:href="#s88:robotomono-thin:71"/><use x="12290" y="1868.5" xlink:href="#s88:robotomono-thin:67"/><use x="13519" y="1868.5" xlink:href="#s88:robotomono-thin:80"/><use x="14748" y="1868.5" xlink:href="#s88:robotomono-thin:3"/><use x="15977" y="1868.5" xlink:href="#s88:robotomono-thin:78"/><use x="17206" y="1868.5" xlink:href="#s88:robotomono-thin:67"/><use x="18435" y="1868.5" xlink:href="#s88:robotomono-thin:80"/><use x="19664" y="1868.5" xlink:href="#s88:robotomono-thin:73"/><use x="20893" y="1868.5" xlink:href="#s88:robotomono-thin:87"/><use x="22122" y="1868.5" xlink:href="#s88:robotomono-thin:67"/><use x="23351" y="1868.5" xlink:href="#s88:robotomono-thin:73"/><use x="24580" y="1868.5" xlink:href="#s88:robotomono-thin:71"/><use x="25809" y="1868.5" xlink:href="#s88:robotomono-thin:85"/><use x="27038" y="1868.5" xlink:href="#s88:robotomono-thin:3"/><use x="28267" y="1868.5" xlink:href="#s88:robotomono-thin:67"/><use x="29496" y="1868.5" xlink:href="#s88:robotomono-thin:84"/><use x="30725" y="1868.5" xlink:href="#s88:robotomono-thin:71"/><use x="31954" y="1868.5" xlink:href="#s88:robotomono-thin:3"/><use x="33183" y="1868.5" xlink:href="#s88:robotomono-thin:79"/><use x="34412" y="1868.5" xlink:href="#s88:robotomono-thin:71"/><use x="35641" y="1868.5" xlink:href="#s88:robotomono-thin:79"/><use x="36870" y="1868.5" xlink:href="#s88:robotomono-thin:68"/><use x="38099" y="1868.5" xlink:href="#s88:robotomono-thin:71"/><use x="39328" y="1868.5" xlink:href="#s88:robotomono-thin:84"/><use x="40557" y="1868.5" xlink:href="#s88:robotomono-thin:85"/><use x="41786" y="1868.5" xlink:href="#s88:robotomono-thin:3"/><use x="43015" y="1868.5" xlink:href="#s88:robotomono-thin:81"/><use x="44244" y="1868.5" xlink:href="#s88:robotomono-thin:72"/><use x="45474" y="1868.5" xlink:href="#s88:robotomono-thin:3"/><use x="46703" y="1868.5" xlink:href="#s88:robotomono-thin:86"/><use x="47932" y="1868.5" xlink:href="#s88:robotomono-thin:74"/><use x="49161" y="1868.5" xlink:href="#s88:robotomono-thin:71"/><use x="50390" y="1868.5" xlink:href="#s88:robotomono-thin:3"/><use x="51619" y="1868.5" xlink:href="#s88:robotomono-thin:85"/><use x="52848" y="1868.5" xlink:href="#s88:robotomono-thin:67"/><use x="54077" y="1868.5" xlink:href="#s88:robotomono-thin:79"/><use x="55306" y="1868.5" xlink:href="#s88:robotomono-thin:71"/><use x="56535" y="1868.5" xlink:href="#s88:robotomono-thin:3"/><use x="57764" y="1868.5" xlink:href="#s88:robotomono-thin:72"/><use x="58994" y="1868.5" xlink:href="#s88:robotomono-thin:67"/><use x="60223" y="1868.5" xlink:href="#s88:robotomono-thin:79"/><use x="61452" y="1868.5" xlink:href="#s88:robotomono-thin:75"/><use x="62681" y="1868.5" xlink:href="#s88:robotomono-thin:78"/><use x="63910" y="1868.5" xlink:href="#s88:robotomono-thin:91"/><use x="65139" y="1868.5" xlink:href="#s88:robotomono-thin:16"/></g><g id="line-1"><use x="11676.5" y="4326.1" xlink:href="#s88:robotomono-thin:54"/><use x="12905.5" y="4326.1" xlink:href="#s88:robotomono-thin:74"/><use x="14134.5" y="4326.1" xlink:href="#s88:robotomono-thin:71"/><use x="15363.5" y="4326.1" xlink:href="#s88:robotomono-thin:75"/><use x="16592.5" y="4326.1" xlink:href="#s88:robotomono-thin:84"/><use x="17821.5" y="4326.1" xlink:href="#s88:robotomono-thin:3"/><use x="19050.5" y="4326.1" xlink:href="#s88:robotomono-thin:85"/><use x="20279.5" y="4326.1" xlink:href="#s88:robotomono-thin:71"/><use x="21508.5" y="4326.1" xlink:href="#s88:robotomono-thin:82"/><use x="22737.5" y="4326.1" xlink:href="#s88:robotomono-thin:67"/><use x="23966.5" y="4326.1" xlink:href="#s88:robotomono-thin:84"/><use x="25195.5" y="4326.1" xlink:href="#s88:robotomono-thin:67"/><use x="26424.5" y="4326.1" xlink:href="#s88:robotomono-thin:86"/><use x="27653.5" y="4326.1" xlink:href="#s88:robotomono-thin:71"/><use x="28882.5" y="4326.1" xlink:href="#s88:robotomono-thin:3"/><use x="30111.5" y="4326.1" xlink:href="#s88:robotomono-thin:71"/><use x="31340.5" y="4326.1" xlink:href="#s88:robotomono-thin:90"/><use x="32569.5" y="4326.1" xlink:href="#s88:robotomono-thin:75"/><use x="33798.5" y="4326.1" xlink:href="#s88:robotomono-thin:85"/><use x="35027.5" y="4326.1" xlink:href="#s88:robotomono-thin:86"/><use x="36256.5" y="4326.1" xlink:href="#s88:robotomono-thin:71"/><use x="37485.5" y="4326.1" xlink:href="#s88:robotomono-thin:80"/><use x="38714.5" y="4326.1" xlink:href="#s88:robotomono-thin:69"/><use x="39943.5" y="4326.1" xlink:href="#s88:robotomono-thin:71"/><use x="41172.5" y="4326.1" xlink:href="#s88:robotomono-thin:3"/><use x="42401.5" y="4326.1" xlink:href="#s88:robotomono-thin:75"/><use x="43630.5" y="4326.1" xlink:href="#s88:robotomono-thin:85"/><use x="44859.5" y="4326.1" xlink:href="#s88:robotomono-thin:3"/><use x="46088.5" y="4326.1" xlink:href="#s88:robotomono-thin:67"/><use x="47317.5" y="4326.1" xlink:href="#s88:robotomono-thin:3"/><use x="48546.5" y="4326.1" xlink:href="#s88:robotomono-thin:79"/><use x="49775.5" y="4326.1" xlink:href="#s88:robotomono-thin:91"/><use x="51004.5" y="4326.1" xlink:href="#s88:robotomono-thin:86"/><use x="52233.5" y="4326.1" xlink:href="#s88:robotomono-thin:74"/><use x="53462.5" y="4326.1" xlink:href="#s88:robotomono-thin:16"/></g><g id="line-2"><use x="14208.5" y="6783.7" xlink:href="#s88:robotomono-thin:40"/><use x="15437.5" y="6783.7" xlink:href="#s88:robotomono-thin:81"/><use x="16666.5" y="6783.7" xlink:href="#s88:robotomono-thin:84"/><use x="17895.5" y="6783.7" xlink:href="#s88:robotomono-thin:3"/><use x="19124.5" y="6783.7" xlink:href="#s88:robotomono-thin:85"/><use x="20353.5" y="6783.7" xlink:href="#s88:robotomono-thin:69"/><use x="21582.5" y="6783.7" xlink:href="#s88:robotomono-thin:75"/><use x="22811.5" y="6783.7" xlink:href="#s88:robotomono-thin:71"/><use x="24040.5" y="6783.7" xlink:href="#s88:robotomono-thin:80"/><use x="25269.5" y="6783.7" xlink:href="#s88:robotomono-thin:69"/><use x="26498.5" y="6783.7" xlink:href="#s88:robotomono-thin:71"/><use x="27727.5" y="6783.7" xlink:href="#s88:robotomono-thin:14"/><use x="28956.5" y="6783.7" xlink:href="#s88:robotomono-thin:3"/><use x="30185.5" y="6783.7" xlink:href="#s88:robotomono-thin:79"/><use x="31414.5" y="6783.7" xlink:href="#s88:robotomono-thin:87"/><use x="32643.5" y="6783.7" xlink:href="#s88:robotomono-thin:85"/><use x="33872.5" y="6783.7" xlink:href="#s88:robotomono-thin:75"/><use x="35101.5" y="6783.7" xlink:href="#s88:robotomono-thin:69"/><use x="36330.5" y="6783.7" xlink:href="#s88:robotomono-thin:14"/><use x="37559.5" y="6783.7" xlink:href="#s88:robotomono-thin:3"/><use x="38788.5" y="6783.7" xlink:href="#s88:robotomono-thin:85"/><use x="40017.5" y="6783.7" xlink:href="#s88:robotomono-thin:82"/><use x="41246.5" y="6783.7" xlink:href="#s88:robotomono-thin:81"/><use x="42475.5" y="6783.7" xlink:href="#s88:robotomono-thin:84"/><use x="43704.5" y="6783.7" xlink:href="#s88:robotomono-thin:86"/><use x="44933.5" y="6783.7" xlink:href="#s88:robotomono-thin:14"/><use x="46162.5" y="6783.7" xlink:href="#s88:robotomono-thin:3"/><use x="47391.5" y="6783.7" xlink:href="#s88:robotomono-thin:71"/><use x="48620.5" y="6783.7" xlink:href="#s88:robotomono-thin:86"/><use x="49849.5" y="6783.7" xlink:href="#s88:robotomono-thin:69"/><use x="51078.5" y="6783.7" xlink:href="#s88:robotomono-thin:14"/></g></svg>