<svg xmlns="http://www.w3.org/2000/svg" xmlns:xlink="http://www.w3.org/1999/xlink" width="622" height="83" viewBox="0 0 53046 7065.2" ><defs><path id="rJpHei5Eal:roboto-medium:56" d="M1200-1252L746-1252L746 0L495 0L495-1252L45-1252L45-1456L1200-1456L1200-1252Z"/><path id="rJpHei5Eal:roboto-medium:76" d="M364-964Q483-1102 665-1102Q1011-1102 1016-707L1016 0L773 0L773-698Q773-810 724.50-856.50Q676-903 582-903Q436-903 364-773L364 0L121 0L121-1536L364-1536L364-964Z"/><path id="rJpHei5Eal:roboto-medium:73" d="M601 20Q370 20 226.50-125.50Q83-271 83-513L83-543Q83-705 145.50-832.50Q208-960 321-1031Q434-1102 573-1102Q794-1102 914.50-961Q1035-820 1035-562L1035-464L328-464Q339-330 417.50-252Q496-174 615-174Q782-174 887-309L1018-184Q953-87 844.50-33.50Q736 20 601 20M572-907Q472-907 410.50-837Q349-767 332-642L795-642L795-660Q787-782 730-844.50Q673-907 572-907Z"/><path id="rJpHei5Eal:roboto-medium:4" d=""/><path id="rJpHei5Eal:roboto-medium:41" d="M999-650L401-650L401-202L1100-202L1100 0L148 0L148-1456L1093-1456L1093-1252L401-1252L401-850L999-850L999-650Z"/><path id="rJpHei5Eal:roboto-medium:89" d="M780-106Q673 20 476 20Q300 20 209.50-83Q119-186 119-381L119-1082L362-1082L362-384Q362-178 533-178Q710-178 772-305L772-1082L1015-1082L1015 0L786 0L780-106Z"/><path id="rJpHei5Eal:roboto-medium:86" d="M691-860Q643-868 592-868Q425-868 367-740L367 0L124 0L124-1082L356-1082L362-961Q450-1102 606-1102Q658-1102 692-1088L691-860Z"/><path id="rJpHei5Eal:roboto-medium:83" d="M79-551Q79-710 142-837.50Q205-965 319-1033.50Q433-1102 581-1102Q800-1102 936.50-961Q1073-820 1084-587L1085-530Q1085-370 1023.50-244Q962-118 847.50-49Q733 20 583 20Q354 20 216.50-132.50Q79-285 79-539L79-551M322-530Q322-363 391-268.50Q460-174 583-174Q706-174 774.50-270Q843-366 843-551Q843-715 772.50-811Q702-907 581-907Q462-907 392-812.50Q322-718 322-530Z"/><path id="rJpHei5Eal:roboto-medium:84" d="M1072-530Q1072-279 958-129.50Q844 20 652 20Q474 20 367-97L367 416L124 416L124-1082L348-1082L358-972Q465-1102 649-1102Q847-1102 959.50-954.50Q1072-807 1072-545L1072-530M830-551Q830-713 765.50-808Q701-903 581-903Q432-903 367-780L367-300Q433-174 583-174Q699-174 764.50-267.50Q830-361 830-551Z"/><path id="rJpHei5Eal:roboto-medium:69" d="M771 0Q755-31 743-101Q627 20 459 20Q296 20 193-73Q90-166 90-303Q90-476 218.50-568.50Q347-661 586-661L735-661L735-732Q735-816 688-866.50Q641-917 545-917Q462-917 409-875.50Q356-834 356-770L113-770Q113-859 172-936.50Q231-1014 332.50-1058Q434-1102 559-1102Q749-1102 862-1006.50Q975-911 978-738L978-250Q978-104 1019-17L1019 0L771 0M504-175Q576-175 639.50-210Q703-245 735-304L735-508L604-508Q469-508 401-461Q333-414 333-328Q333-258 379.50-216.50Q426-175 504-175Z"/><path id="rJpHei5Eal:roboto-medium:82" d="M350-1082L357-957Q477-1102 672-1102Q1010-1102 1016-715L1016 0L773 0L773-701Q773-804 728.50-853.50Q684-903 583-903Q436-903 364-770L364 0L121 0L121-1082L350-1082Z"/><path id="rJpHei5Eal:roboto-medium:80" d="M383 0L140 0L140-1536L383-1536L383 0Z"/><path id="rJpHei5Eal:roboto-medium:75" d="M82-549Q82-801 200.50-951.50Q319-1102 515-1102Q700-1102 806-973L817-1082L1036-1082L1036-33Q1036 180 903.50 303Q771 426 546 426Q427 426 313.50 376.50Q200 327 141 247L256 101Q368 234 532 234Q653 234 723 168.50Q793 103 793-24L793-97Q688 20 513 20Q323 20 202.50-131Q82-282 82-549M324-528Q324-365 390.50-271.50Q457-178 575-178Q722-178 793-304L793-780Q724-903 577-903Q457-903 390.50-808Q324-713 324-528Z"/><path id="rJpHei5Eal:roboto-medium:87" d="M731-294Q731-359 677.50-393Q624-427 500-453Q376-479 293-519Q111-607 111-774Q111-914 229-1008Q347-1102 529-1102Q723-1102 842.50-1006Q962-910 962-757L719-757Q719-827 667-873.50Q615-920 529-920Q449-920 398.50-883Q348-846 348-784Q348-728 395-697Q442-666 585-634.50Q728-603 809.50-559.50Q891-516 930.50-455Q970-394 970-307Q970-161 849-70.50Q728 20 532 20Q399 20 295-28Q191-76 133-160Q75-244 75-341L311-341Q316-255 376-208.50Q436-162 535-162Q631-162 681-198.50Q731-235 731-294Z"/><path id="rJpHei5Eal:roboto-medium:81" d="M353-1082L360-969Q474-1102 672-1102Q889-1102 969-936Q1087-1102 1301-1102Q1480-1102 1567.50-1003Q1655-904 1657-711L1657 0L1414 0L1414-704Q1414-807 1369-855Q1324-903 1220-903Q1137-903 1084.50-858.50Q1032-814 1011-742L1012 0L769 0L769-712Q764-903 574-903Q428-903 367-784L367 0L124 0L124-1082L353-1082Z"/><path id="rJpHei5Eal:roboto-medium:70" d="M1074-530Q1074-278 961.50-129Q849 20 652 20Q462 20 356-117L344 0L124 0L124-1536L367-1536L367-978Q472-1102 650-1102Q848-1102 961-955Q1074-808 1074-544L1074-530M831-551Q831-727 769-815Q707-903 589-903Q431-903 367-765L367-319Q432-178 591-178Q705-178 767-263Q829-348 831-520L831-551Z"/><path id="rJpHei5Eal:roboto-medium:74" d="M210 0L210-902L45-902L45-1082L210-1082L210-1181Q210-1361 310-1459Q410-1557 590-1557Q654-1557 726-1539L720-1349Q680-1357 627-1357Q453-1357 453-1178L453-1082L673-1082L673-902L453-902L453 0L210 0Z"/><path id="rJpHei5Eal:roboto-medium:88" d="M429-1345L429-1082L620-1082L620-902L429-902L429-298Q429-236 453.50-208.50Q478-181 541-181Q583-181 626-191L626-3Q543 20 466 20Q186 20 186-289L186-902L8-902L8-1082L186-1082L186-1345L429-1345Z"/><path id="rJpHei5Eal:roboto-medium:77" d="M383 0L140 0L140-1082L383-1082L383 0M125-1363Q125-1419 160.50-1456Q196-1493 262-1493Q328-1493 364-1456Q400-1419 400-1363Q400-1308 364-1271.50Q328-1235 262-1235Q196-1235 160.50-1271.50Q125-1308 125-1363Z"/><path id="rJpHei5Eal:roboto-medium:93" d="M503-348L723-1082L982-1082L552 164Q453 437 216 437Q163 437 99 419L99 231L145 234Q237 234 283.50 200.50Q330 167 357 88L392-5L12-1082L274-1082L503-348Z"/><path id="rJpHei5Eal:roboto-medium:18" d="M276-256Q344-256 381-217.50Q418-179 418-121Q418-64 381-26.50Q344 11 276 11Q211 11 173-26Q135-63 135-121Q135-179 172-217.50Q209-256 276-256Z"/><path id="rJpHei5Eal:roboto-medium:92" d="M513-726L719-1082L989-1082L658-549L1000 0L732 0L516-370L301 0L31 0L373-549L43-1082L311-1082L513-726Z"/><path id="rJpHei5Eal:roboto-medium:71" d="M569-174Q660-174 720-227Q780-280 784-358L1013-358Q1009-257 950-169.50Q891-82 790-31Q689 20 572 20Q345 20 212-127Q79-274 79-533L79-558Q79-805 211-953.50Q343-1102 571-1102Q764-1102 885.50-989.50Q1007-877 1013-694L784-694Q780-787 720.50-847Q661-907 569-907Q451-907 387-821.50Q323-736 322-562L322-523Q322-347 385.50-260.50Q449-174 569-174Z"/><path id="rJpHei5Eal:roboto-medium:42" d="M987-617L401-617L401 0L148 0L148-1456L1073-1456L1073-1252L401-1252L401-819L987-819L987-617Z"/><path id="rJpHei5Eal:roboto-medium:16" d="M159 328L28 250Q86 159 107.50 91.50Q129 24 130-46L130-235L349-235L348-60Q347 46 294.50 152.50Q242 259 159 328Z"/></defs><g id="line-0"><use x="0" y="1650" xlink:href="#rJpHei5Eal:roboto-medium:56" /><use x="1243" y="1650" xlink:href="#rJpHei5Eal:roboto-medium:76" /><use x="2380" y="1650" xlink:href="#rJpHei5Eal:roboto-medium:73" /><use x="3479" y="1650" xlink:href="#rJpHei5Eal:roboto-medium:4" /><use x="3989" y="1650" xlink:href="#rJpHei5Eal:roboto-medium:41" /><use x="5130" y="1650" xlink:href="#rJpHei5Eal:roboto-medium:89" /><use x="6268" y="1650" xlink:href="#rJpHei5Eal:roboto-medium:86" /><use x="6952" y="1650" xlink:href="#rJpHei5Eal:roboto-medium:83" /><use x="8118" y="1650" xlink:href="#rJpHei5Eal:roboto-medium:84" /><use x="9271" y="1650" xlink:href="#rJpHei5Eal:roboto-medium:73" /><use x="10370" y="1650" xlink:href="#rJpHei5Eal:roboto-medium:69" /><use x="11478" y="1650" xlink:href="#rJpHei5Eal:roboto-medium:82" /><use x="12617" y="1650" xlink:href="#rJpHei5Eal:roboto-medium:4" /><use x="13127" y="1650" xlink:href="#rJpHei5Eal:roboto-medium:80" /><use x="13650" y="1650" xlink:href="#rJpHei5Eal:roboto-medium:69" /><use x="14758" y="1650" xlink:href="#rJpHei5Eal:roboto-medium:82" /><use x="15897" y="1650" xlink:href="#rJpHei5Eal:roboto-medium:75" /><use x="17058" y="1650" xlink:href="#rJpHei5Eal:roboto-medium:89" /><use x="18196" y="1650" xlink:href="#rJpHei5Eal:roboto-medium:69" /><use x="19304" y="1650" xlink:href="#rJpHei5Eal:roboto-medium:75" /><use x="20465" y="1650" xlink:href="#rJpHei5Eal:roboto-medium:73" /><use x="21564" y="1650" xlink:href="#rJpHei5Eal:roboto-medium:87" /><use x="22621" y="1650" xlink:href="#rJpHei5Eal:roboto-medium:4" /><use x="23131" y="1650" xlink:href="#rJpHei5Eal:roboto-medium:69" /><use x="24239" y="1650" xlink:href="#rJpHei5Eal:roboto-medium:86" /><use x="24940" y="1650" xlink:href="#rJpHei5Eal:roboto-medium:73" /><use x="26039" y="1650" xlink:href="#rJpHei5Eal:roboto-medium:4" /><use x="26549" y="1650" xlink:href="#rJpHei5Eal:roboto-medium:81" /><use x="28331" y="1650" xlink:href="#rJpHei5Eal:roboto-medium:73" /><use x="29430" y="1650" xlink:href="#rJpHei5Eal:roboto-medium:81" /><use x="31212" y="1650" xlink:href="#rJpHei5Eal:roboto-medium:70" /><use x="32365" y="1650" xlink:href="#rJpHei5Eal:roboto-medium:73" /><use x="33464" y="1650" xlink:href="#rJpHei5Eal:roboto-medium:86" /><use x="34184" y="1650" xlink:href="#rJpHei5Eal:roboto-medium:87" /><use x="35241" y="1650" xlink:href="#rJpHei5Eal:roboto-medium:4" /><use x="35751" y="1650" xlink:href="#rJpHei5Eal:roboto-medium:83" /><use x="36917" y="1650" xlink:href="#rJpHei5Eal:roboto-medium:74" /><use x="37643" y="1650" xlink:href="#rJpHei5Eal:roboto-medium:4" /><use x="38153" y="1650" xlink:href="#rJpHei5Eal:roboto-medium:88" /><use x="38834" y="1650" xlink:href="#rJpHei5Eal:roboto-medium:76" /><use x="39971" y="1650" xlink:href="#rJpHei5Eal:roboto-medium:73" /><use x="41070" y="1650" xlink:href="#rJpHei5Eal:roboto-medium:4" /><use x="41580" y="1650" xlink:href="#rJpHei5Eal:roboto-medium:87" /><use x="42637" y="1650" xlink:href="#rJpHei5Eal:roboto-medium:69" /><use x="43745" y="1650" xlink:href="#rJpHei5Eal:roboto-medium:81" /><use x="45527" y="1650" xlink:href="#rJpHei5Eal:roboto-medium:73" /><use x="46626" y="1650" xlink:href="#rJpHei5Eal:roboto-medium:4" /><use x="47136" y="1650" xlink:href="#rJpHei5Eal:roboto-medium:74" /><use x="47862" y="1650" xlink:href="#rJpHei5Eal:roboto-medium:69" /><use x="48970" y="1650" xlink:href="#rJpHei5Eal:roboto-medium:81" /><use x="50752" y="1650" xlink:href="#rJpHei5Eal:roboto-medium:77" /><use x="51275" y="1650" xlink:href="#rJpHei5Eal:roboto-medium:80" /><use x="51798" y="1650" xlink:href="#rJpHei5Eal:roboto-medium:93" /><use x="52628" y="1650" xlink:href="#rJpHei5Eal:roboto-medium:18" /></g><g id="line-1"><use x="10638.5" y="4107.6" xlink:href="#rJpHei5Eal:roboto-medium:56" /><use x="11881.5" y="4107.6" xlink:href="#rJpHei5Eal:roboto-medium:76" /><use x="13018.5" y="4107.6" xlink:href="#rJpHei5Eal:roboto-medium:73" /><use x="14117.5" y="4107.6" xlink:href="#rJpHei5Eal:roboto-medium:77" /><use x="14640.5" y="4107.6" xlink:href="#rJpHei5Eal:roboto-medium:86" /><use x="15360.5" y="4107.6" xlink:href="#rJpHei5Eal:roboto-medium:4" /><use x="15870.5" y="4107.6" xlink:href="#rJpHei5Eal:roboto-medium:87" /><use x="16927.5" y="4107.6" xlink:href="#rJpHei5Eal:roboto-medium:73" /><use x="18026.5" y="4107.6" xlink:href="#rJpHei5Eal:roboto-medium:84" /><use x="19179.5" y="4107.6" xlink:href="#rJpHei5Eal:roboto-medium:69" /><use x="20287.5" y="4107.6" xlink:href="#rJpHei5Eal:roboto-medium:86" /><use x="20977.5" y="4107.6" xlink:href="#rJpHei5Eal:roboto-medium:69" /><use x="22085.5" y="4107.6" xlink:href="#rJpHei5Eal:roboto-medium:88" /><use x="22766.5" y="4107.6" xlink:href="#rJpHei5Eal:roboto-medium:73" /><use x="23865.5" y="4107.6" xlink:href="#rJpHei5Eal:roboto-medium:4" /><use x="24375.5" y="4107.6" xlink:href="#rJpHei5Eal:roboto-medium:73" /><use x="25474.5" y="4107.6" xlink:href="#rJpHei5Eal:roboto-medium:92" /><use x="26504.5" y="4107.6" xlink:href="#rJpHei5Eal:roboto-medium:77" /><use x="27027.5" y="4107.6" xlink:href="#rJpHei5Eal:roboto-medium:87" /><use x="28084.5" y="4107.6" xlink:href="#rJpHei5Eal:roboto-medium:88" /><use x="28765.5" y="4107.6" xlink:href="#rJpHei5Eal:roboto-medium:73" /><use x="29864.5" y="4107.6" xlink:href="#rJpHei5Eal:roboto-medium:82" /><use x="31003.5" y="4107.6" xlink:href="#rJpHei5Eal:roboto-medium:71" /><use x="32075.5" y="4107.6" xlink:href="#rJpHei5Eal:roboto-medium:73" /><use x="33174.5" y="4107.6" xlink:href="#rJpHei5Eal:roboto-medium:4" /><use x="33684.5" y="4107.6" xlink:href="#rJpHei5Eal:roboto-medium:77" /><use x="34207.5" y="4107.6" xlink:href="#rJpHei5Eal:roboto-medium:87" /><use x="35264.5" y="4107.6" xlink:href="#rJpHei5Eal:roboto-medium:4" /><use x="35774.5" y="4107.6" xlink:href="#rJpHei5Eal:roboto-medium:69" /><use x="36882.5" y="4107.6" xlink:href="#rJpHei5Eal:roboto-medium:4" /><use x="37392.5" y="4107.6" xlink:href="#rJpHei5Eal:roboto-medium:81" /><use x="39174.5" y="4107.6" xlink:href="#rJpHei5Eal:roboto-medium:93" /><use x="40171.5" y="4107.6" xlink:href="#rJpHei5Eal:roboto-medium:88" /><use x="40852.5" y="4107.6" xlink:href="#rJpHei5Eal:roboto-medium:76" /><use x="41989.5" y="4107.6" xlink:href="#rJpHei5Eal:roboto-medium:18" /></g><g id="line-2"><use x="13027.5" y="6565.2" xlink:href="#rJpHei5Eal:roboto-medium:42" /><use x="14131.5" y="6565.2" xlink:href="#rJpHei5Eal:roboto-medium:83" /><use x="15297.5" y="6565.2" xlink:href="#rJpHei5Eal:roboto-medium:86" /><use x="16017.5" y="6565.2" xlink:href="#rJpHei5Eal:roboto-medium:4" /><use x="16527.5" y="6565.2" xlink:href="#rJpHei5Eal:roboto-medium:87" /><use x="17584.5" y="6565.2" xlink:href="#rJpHei5Eal:roboto-medium:71" /><use x="18656.5" y="6565.2" xlink:href="#rJpHei5Eal:roboto-medium:77" /><use x="19179.5" y="6565.2" xlink:href="#rJpHei5Eal:roboto-medium:73" /><use x="20278.5" y="6565.2" xlink:href="#rJpHei5Eal:roboto-medium:82" /><use x="21417.5" y="6565.2" xlink:href="#rJpHei5Eal:roboto-medium:71" /><use x="22489.5" y="6565.2" xlink:href="#rJpHei5Eal:roboto-medium:73" /><use x="23588.5" y="6565.2" xlink:href="#rJpHei5Eal:roboto-medium:16" /><use x="24038.5" y="6565.2" xlink:href="#rJpHei5Eal:roboto-medium:4" /><use x="24548.5" y="6565.2" xlink:href="#rJpHei5Eal:roboto-medium:81" /><use x="26330.5" y="6565.2" xlink:href="#rJpHei5Eal:roboto-medium:89" /><use x="27468.5" y="6565.2" xlink:href="#rJpHei5Eal:roboto-medium:87" /><use x="28525.5" y="6565.2" xlink:href="#rJpHei5Eal:roboto-medium:77" /><use x="29048.5" y="6565.2" xlink:href="#rJpHei5Eal:roboto-medium:71" /><use x="30120.5" y="6565.2" xlink:href="#rJpHei5Eal:roboto-medium:16" /><use x="30570.5" y="6565.2" xlink:href="#rJpHei5Eal:roboto-medium:4" /><use x="31080.5" y="6565.2" xlink:href="#rJpHei5Eal:roboto-medium:87" /><use x="32137.5" y="6565.2" xlink:href="#rJpHei5Eal:roboto-medium:84" /><use x="33290.5" y="6565.2" xlink:href="#rJpHei5Eal:roboto-medium:83" /><use x="34456.5" y="6565.2" xlink:href="#rJpHei5Eal:roboto-medium:86" /><use x="35176.5" y="6565.2" xlink:href="#rJpHei5Eal:roboto-medium:88" /><use x="35857.5" y="6565.2" xlink:href="#rJpHei5Eal:roboto-medium:16" /><use x="36307.5" y="6565.2" xlink:href="#rJpHei5Eal:roboto-medium:4" /><use x="36817.5" y="6565.2" xlink:href="#rJpHei5Eal:roboto-medium:73" /><use x="37916.5" y="6565.2" xlink:href="#rJpHei5Eal:roboto-medium:88" /><use x="38597.5" y="6565.2" xlink:href="#rJpHei5Eal:roboto-medium:71" /><use x="39669.5" y="6565.2" xlink:href="#rJpHei5Eal:roboto-medium:16" /></g></svg>