<svg xmlns="http://www.w3.org/2000/svg" xmlns:xlink="http://www.w3.org/1999/xlink" width="596" height="83" viewBox="0 0 50833 7065.2"><defs><path id="s103:roboto-lightitalic:56" d="M1268-1351L785-1351L550 0L428 0L663-1351L179-1351L198-1456L1287-1456L1268-1351Z"/><path id="s103:roboto-lightitalic:76" d="M313-899Q469-1106 681-1102Q837-1098 908-993Q979-888 958-704L840 0L722 0L840-706Q846-763 842-816Q825-994 648-999Q543-1001 452-936.50Q361-872 292-742L164 0L46 0L313-1536L431-1536L313-899Z"/><path id="s103:roboto-lightitalic:73" d="M475 20Q345 18 250-52.50Q155-123 110.50-244.50Q66-366 79-507L82-541Q96-691 171-826.50Q246-962 361-1033.50Q476-1105 607-1102Q728-1100 811.50-1036Q895-972 933-858Q971-744 957-606L949-533L200-533L197-509Q182-400 213-300.50Q244-201 314.50-142.50Q385-84 484-82Q580-79 657-119Q734-159 799-226L869-169Q796-75 695.50-26.50Q595 22 475 20M601-1000Q471-1005 368-908Q265-811 213-635L841-634L844-649Q862-791 794-893.50Q726-996 601-1000Z"/><path id="s103:roboto-lightitalic:4" d=""/><path id="s103:roboto-lightitalic:41" d="M977-698L317-698L213-104L973-104L955 0L73 0L326-1456L1203-1456L1184-1351L430-1351L334-802L995-802L977-698Z"/><path id="s103:roboto-lightitalic:89" d="M764-136Q635 26 408 20Q255 17 180-90.50Q105-198 126-389L242-1082L360-1082L245-386Q239-332 244-279Q251-187 299-137Q347-87 431-84Q551-79 653-139.50Q755-200 785-298L919-1082L1039-1082L851 0L735 0L764-136Z"/><path id="s103:roboto-lightitalic:86" d="M707-981Q668-989 628-990Q514-990 419-920.50Q324-851 292-744L164 0L46 0L234-1082L351-1082L315-910Q374-1006 457.50-1056Q541-1106 641-1104Q676-1104 723-1090L707-981Z"/><path id="s103:roboto-lightitalic:83" d="M75-551Q93-708 171-838.50Q249-969 365.50-1037Q482-1105 618-1102Q752-1100 846.50-1028.50Q941-957 984.50-833.50Q1028-710 1014-560L1012-541Q982-285 830.50-130Q679 25 467 20Q285 17 176-114Q67-245 69-460L72-517L75-551M191-517Q178-398 208.50-297.50Q239-197 306-140Q373-83 473-80Q581-78 670.50-135Q760-192 818-296Q876-400 893-526L896-559Q914-752 836.50-874.50Q759-997 612-1000Q452-1005 335.50-876.50Q219-748 193-535L191-517Z"/><path id="s103:roboto-lightitalic:84" d="M500 21Q407 19 324.50-18.50Q242-56 191-136L91 416L-27 416L233-1082L343-1082L315-929Q456-1108 668-1102Q820-1098 905-989Q990-880 993-680Q994-617 987-558L983-530Q958-355 889-228Q820-101 721-38.50Q622 24 500 21M868-558L874-653Q877-813 816-904Q755-995 635-999Q530-1001 444.50-947.50Q359-894 300-792L211-271Q243-179 312.50-131Q382-83 479-80Q624-75 724.50-188.50Q825-302 860-505L868-558Z"/><path id="s103:roboto-lightitalic:69" d="M719 0Q714-38 716-76L725-151Q650-70 553.50-24Q457 22 345 20Q208 18 122.50-66.50Q37-151 46-279Q54-386 119.50-464.50Q185-543 306-586.50Q427-630 577-630L798-629L816-753Q828-864 768-931Q708-998 591-1002Q473-1004 385.50-943.50Q298-883 276-784L159-784Q179-926 305-1015.50Q431-1105 603-1103Q770-1099 860.50-1002Q951-905 934-750L844-206L836-119Q833-65 844-12L842 0L719 0M365-85Q475-81 575.50-137.50Q676-194 742-298L783-537L592-538Q410-538 295-473.50Q180-409 168-289Q159-201 214.50-144Q270-87 365-85Z"/><path id="s103:roboto-lightitalic:82" d="M348-1082L312-897Q384-997 478.50-1050.50Q573-1104 681-1102Q837-1098 908-993Q979-888 958-704L840 0L722 0L840-706Q846-763 842-816Q825-994 648-999Q543-1001 452-936.50Q361-872 292-742L164 0L46 0L234-1082L348-1082Z"/><path id="s103:roboto-lightitalic:80" d="M179 0L59 0L326-1536L446-1536L179 0Z"/><path id="s103:roboto-lightitalic:75" d="M585-1103Q682-1100 762-1057Q842-1014 888-926L925-1082L1036-1082L854-19Q835 117 768 221Q701 325 596.50 380.50Q492 436 364 432Q262 430 169 381Q75 331 18 242L92 172Q195 327 361 331Q509 335 608.50 241.50Q708 148 734-13L760-139Q616 26 413 20Q261 16 176.50-96.50Q92-209 88-403Q82-582 148-757Q214-932 327.50-1019.50Q441-1107 585-1103M213-523L207-430Q204-266 264-176.50Q324-87 441-83Q541-79 628-130Q715-181 778-281L863-786Q836-883 769.50-939.50Q703-996 599-999Q446-1004 345.50-881Q245-758 213-523Z"/><path id="s103:roboto-lightitalic:87" d="M730-282Q746-420 562-482L390-533Q153-613 166-800Q173-935 290.50-1019.50Q408-1104 570-1102Q729-1100 828-1012.50Q927-925 920-779L802-779Q808-876 741.50-937Q675-998 565-1000Q451-1000 373-946.50Q295-893 285-805Q270-676 443-624L568-588L635-565Q861-480 848-288Q840-158 735.50-74.50Q631 9 466 19L425 20Q316 18 228-22.50Q140-63 93-136Q46-209 52-304L171-303Q171-201 240-142Q309-83 430-81Q550-81 634-135.50Q718-190 730-282Z"/><path id="s103:roboto-lightitalic:81" d="M343-1082L309-906Q455-1106 676-1102Q790-1100 865.50-1045Q941-990 959-892Q1033-993 1131.50-1048.50Q1230-1104 1346-1102Q1500-1099 1574.50-1000.50Q1649-902 1636-728L1634-705L1515 0L1396 0L1514-707Q1520-766 1515-819Q1495-996 1313-999Q1191-1001 1088.50-919.50Q986-838 960-716L836 0L717 0L837-716Q866-992 634-999Q519-1001 420-927Q321-853 287-743L159 0L40 0L228-1082L343-1082Z"/><path id="s103:roboto-lightitalic:70" d="M986-536Q951-278 821.50-126Q692 26 501 21Q395 19 314.50-26Q234-71 191-148L157 0L45 0L312-1536L430-1536L317-925Q456-1108 668-1102Q823-1098 907-987Q991-876 994-680Q995-616 988-557L986-536M869-559L876-654Q879-817 819-906Q759-995 640-999Q421-1003 297-777L215-287Q244-190 314.50-137.50Q385-85 486-82Q635-79 735.50-197.50Q836-316 869-559Z"/><path id="s103:roboto-lightitalic:74" d="M129 0L300-984L126-984L144-1082L317-1082L338-1229Q363-1388 459.50-1475Q556-1562 700-1560Q758-1558 831-1540L810-1441Q754-1456 703-1456Q603-1456 537.50-1391Q472-1326 455-1210L436-1082L687-1082L669-984L420-984L249 0L129 0Z"/><path id="s103:roboto-lightitalic:88" d="M465-1359L417-1082L634-1082L617-984L400-984L280-262L278-200Q278-91 378-88Q409-87 475-95L470 3Q411 20 350 18Q245 16 197-55.50Q149-127 162-263L281-984L87-984L105-1082L297-1082L346-1359L465-1359Z"/><path id="s103:roboto-lightitalic:77" d="M179 0L59 0L248-1082L367-1082L179 0M281-1395Q286-1460 367-1477Q406-1470 422.50-1452.50Q439-1435 444-1395Q434-1357 415-1339.50Q396-1322 358-1314Q277-1326 281-1395Z"/><path id="s103:roboto-lightitalic:93" d="M408-176L871-1082L1004-1082L344 174Q271 320 189.50 381Q108 442 8 440Q-30 438-88 424L-76 326L-16 333Q152 340 249 135L325-16L116-1082L241-1082L408-176Z"/><path id="s103:roboto-lightitalic:18" d="M48-72Q51-107 76.50-131.50Q102-156 137-157Q173-158 196-133Q219-108 216-72Q214-37 188.50-14.50Q163 8 128 9Q93 10 69.50-13Q46-36 48-72Z"/><path id="s103:roboto-lightitalic:92" d="M484-645L835-1082L983-1082L539-545L822 0L690 0L464-456L94 0L-52 0L410-557L139-1082L271-1082L484-645Z"/><path id="s103:roboto-lightitalic:71" d="M465-80Q583-76 673.50-145.50Q764-215 794-333L907-333Q877-172 749.50-73.50Q622 25 459 21Q328 18 239-51Q150-120 110.50-242Q71-364 85-517L89-560Q101-665 140.50-764Q180-863 246-939.50Q312-1016 403.50-1060.50Q495-1105 610-1102Q776-1098 874-990Q972-882 966-716L853-717Q855-842 788-919Q721-996 605-1000Q481-1004 386-928Q291-852 243-713Q195-574 198-418Q201-257 270-170.50Q339-84 465-80Z"/><path id="s103:roboto-lightitalic:42" d="M972-680L314-680L195 0L73 0L326-1456L1204-1456L1185-1351L430-1351L331-785L991-785L972-680Z"/><path id="s103:roboto-lightitalic:16" d="M-17 273L-84 218Q31 86 53-46L77-188L193-188L171-44Q138 144-17 273Z"/></defs><g id="line-0"><use x="0" y="1650" xlink:href="#s103:roboto-lightitalic:56"/><use x="1196" y="1650" xlink:href="#s103:roboto-lightitalic:76"/><use x="2296" y="1650" xlink:href="#s103:roboto-lightitalic:73"/><use x="3332" y="1650" xlink:href="#s103:roboto-lightitalic:4"/><use x="3825" y="1650" xlink:href="#s103:roboto-lightitalic:41"/><use x="4948" y="1650" xlink:href="#s103:roboto-lightitalic:89"/><use x="6049" y="1650" xlink:href="#s103:roboto-lightitalic:86"/><use x="6707" y="1650" xlink:href="#s103:roboto-lightitalic:83"/><use x="7830" y="1650" xlink:href="#s103:roboto-lightitalic:84"/><use x="8941" y="1650" xlink:href="#s103:roboto-lightitalic:73"/><use x="9977" y="1650" xlink:href="#s103:roboto-lightitalic:69"/><use x="11051" y="1650" xlink:href="#s103:roboto-lightitalic:82"/><use x="12152" y="1650" xlink:href="#s103:roboto-lightitalic:4"/><use x="12645" y="1650" xlink:href="#s103:roboto-lightitalic:80"/><use x="13100" y="1650" xlink:href="#s103:roboto-lightitalic:69"/><use x="14174" y="1650" xlink:href="#s103:roboto-lightitalic:82"/><use x="15275" y="1650" xlink:href="#s103:roboto-lightitalic:75"/><use x="16387" y="1650" xlink:href="#s103:roboto-lightitalic:89"/><use x="17488" y="1650" xlink:href="#s103:roboto-lightitalic:69"/><use x="18562" y="1650" xlink:href="#s103:roboto-lightitalic:75"/><use x="19674" y="1650" xlink:href="#s103:roboto-lightitalic:73"/><use x="20710" y="1650" xlink:href="#s103:roboto-lightitalic:87"/><use x="21726" y="1650" xlink:href="#s103:roboto-lightitalic:4"/><use x="22219" y="1650" xlink:href="#s103:roboto-lightitalic:69"/><use x="23293" y="1650" xlink:href="#s103:roboto-lightitalic:86"/><use x="23952" y="1650" xlink:href="#s103:roboto-lightitalic:73"/><use x="24988" y="1650" xlink:href="#s103:roboto-lightitalic:4"/><use x="25481" y="1650" xlink:href="#s103:roboto-lightitalic:81"/><use x="27252" y="1650" xlink:href="#s103:roboto-lightitalic:73"/><use x="28288" y="1650" xlink:href="#s103:roboto-lightitalic:81"/><use x="30059" y="1650" xlink:href="#s103:roboto-lightitalic:70"/><use x="31170" y="1650" xlink:href="#s103:roboto-lightitalic:73"/><use x="32206" y="1650" xlink:href="#s103:roboto-lightitalic:86"/><use x="32884" y="1650" xlink:href="#s103:roboto-lightitalic:87"/><use x="33900" y="1650" xlink:href="#s103:roboto-lightitalic:4"/><use x="34393" y="1650" xlink:href="#s103:roboto-lightitalic:83"/><use x="35516" y="1650" xlink:href="#s103:roboto-lightitalic:74"/><use x="36184" y="1650" xlink:href="#s103:roboto-lightitalic:4"/><use x="36677" y="1650" xlink:href="#s103:roboto-lightitalic:88"/><use x="37325" y="1650" xlink:href="#s103:roboto-lightitalic:76"/><use x="38425" y="1650" xlink:href="#s103:roboto-lightitalic:73"/><use x="39461" y="1650" xlink:href="#s103:roboto-lightitalic:4"/><use x="39954" y="1650" xlink:href="#s103:roboto-lightitalic:87"/><use x="40970" y="1650" xlink:href="#s103:roboto-lightitalic:69"/><use x="42044" y="1650" xlink:href="#s103:roboto-lightitalic:81"/><use x="43815" y="1650" xlink:href="#s103:roboto-lightitalic:73"/><use x="44851" y="1650" xlink:href="#s103:roboto-lightitalic:4"/><use x="45344" y="1650" xlink:href="#s103:roboto-lightitalic:74"/><use x="46012" y="1650" xlink:href="#s103:roboto-lightitalic:69"/><use x="47086" y="1650" xlink:href="#s103:roboto-lightitalic:81"/><use x="48857" y="1650" xlink:href="#s103:roboto-lightitalic:77"/><use x="49312" y="1650" xlink:href="#s103:roboto-lightitalic:80"/><use x="49767" y="1650" xlink:href="#s103:roboto-lightitalic:93"/><use x="50614" y="1650" xlink:href="#s103:roboto-lightitalic:18"/></g><g id="line-1"><use x="10348" y="4107.6" xlink:href="#s103:roboto-lightitalic:56"/><use x="11544" y="4107.6" xlink:href="#s103:roboto-lightitalic:76"/><use x="12644" y="4107.6" xlink:href="#s103:roboto-lightitalic:73"/><use x="13680" y="4107.6" xlink:href="#s103:roboto-lightitalic:77"/><use x="14135" y="4107.6" xlink:href="#s103:roboto-lightitalic:86"/><use x="14813" y="4107.6" xlink:href="#s103:roboto-lightitalic:4"/><use x="15306" y="4107.6" xlink:href="#s103:roboto-lightitalic:87"/><use x="16322" y="4107.6" xlink:href="#s103:roboto-lightitalic:73"/><use x="17358" y="4107.6" xlink:href="#s103:roboto-lightitalic:84"/><use x="18469" y="4107.6" xlink:href="#s103:roboto-lightitalic:69"/><use x="19543" y="4107.6" xlink:href="#s103:roboto-lightitalic:86"/><use x="20181" y="4107.6" xlink:href="#s103:roboto-lightitalic:69"/><use x="21255" y="4107.6" xlink:href="#s103:roboto-lightitalic:88"/><use x="21903" y="4107.6" xlink:href="#s103:roboto-lightitalic:73"/><use x="22939" y="4107.6" xlink:href="#s103:roboto-lightitalic:4"/><use x="23432" y="4107.6" xlink:href="#s103:roboto-lightitalic:73"/><use x="24468" y="4107.6" xlink:href="#s103:roboto-lightitalic:92"/><use x="25444" y="4107.6" xlink:href="#s103:roboto-lightitalic:77"/><use x="25899" y="4107.6" xlink:href="#s103:roboto-lightitalic:87"/><use x="26915" y="4107.6" xlink:href="#s103:roboto-lightitalic:88"/><use x="27563" y="4107.6" xlink:href="#s103:roboto-lightitalic:73"/><use x="28599" y="4107.6" xlink:href="#s103:roboto-lightitalic:82"/><use x="29700" y="4107.6" xlink:href="#s103:roboto-lightitalic:71"/><use x="30733" y="4107.6" xlink:href="#s103:roboto-lightitalic:73"/><use x="31769" y="4107.6" xlink:href="#s103:roboto-lightitalic:4"/><use x="32262" y="4107.6" xlink:href="#s103:roboto-lightitalic:77"/><use x="32717" y="4107.6" xlink:href="#s103:roboto-lightitalic:87"/><use x="33733" y="4107.6" xlink:href="#s103:roboto-lightitalic:4"/><use x="34226" y="4107.6" xlink:href="#s103:roboto-lightitalic:69"/><use x="35300" y="4107.6" xlink:href="#s103:roboto-lightitalic:4"/><use x="35793" y="4107.6" xlink:href="#s103:roboto-lightitalic:81"/><use x="37564" y="4107.6" xlink:href="#s103:roboto-lightitalic:93"/><use x="38518" y="4107.6" xlink:href="#s103:roboto-lightitalic:88"/><use x="39166" y="4107.6" xlink:href="#s103:roboto-lightitalic:76"/><use x="40266" y="4107.6" xlink:href="#s103:roboto-lightitalic:18"/></g><g id="line-2"><use x="12606" y="6565.2" xlink:href="#s103:roboto-lightitalic:42"/><use x="13712" y="6565.2" xlink:href="#s103:roboto-lightitalic:83"/><use x="14835" y="6565.2" xlink:href="#s103:roboto-lightitalic:86"/><use x="15513" y="6565.2" xlink:href="#s103:roboto-lightitalic:4"/><use x="16006" y="6565.2" xlink:href="#s103:roboto-lightitalic:87"/><use x="17022" y="6565.2" xlink:href="#s103:roboto-lightitalic:71"/><use x="18055" y="6565.2" xlink:href="#s103:roboto-lightitalic:77"/><use x="18510" y="6565.2" xlink:href="#s103:roboto-lightitalic:73"/><use x="19546" y="6565.2" xlink:href="#s103:roboto-lightitalic:82"/><use x="20647" y="6565.2" xlink:href="#s103:roboto-lightitalic:71"/><use x="21680" y="6565.2" xlink:href="#s103:roboto-lightitalic:73"/><use x="22716" y="6565.2" xlink:href="#s103:roboto-lightitalic:16"/><use x="23106" y="6565.2" xlink:href="#s103:roboto-lightitalic:4"/><use x="23599" y="6565.2" xlink:href="#s103:roboto-lightitalic:81"/><use x="25370" y="6565.2" xlink:href="#s103:roboto-lightitalic:89"/><use x="26471" y="6565.2" xlink:href="#s103:roboto-lightitalic:87"/><use x="27487" y="6565.2" xlink:href="#s103:roboto-lightitalic:77"/><use x="27942" y="6565.2" xlink:href="#s103:roboto-lightitalic:71"/><use x="28975" y="6565.2" xlink:href="#s103:roboto-lightitalic:16"/><use x="29365" y="6565.2" xlink:href="#s103:roboto-lightitalic:4"/><use x="29858" y="6565.2" xlink:href="#s103:roboto-lightitalic:87"/><use x="30874" y="6565.2" xlink:href="#s103:roboto-lightitalic:84"/><use x="31985" y="6565.2" xlink:href="#s103:roboto-lightitalic:83"/><use x="33108" y="6565.2" xlink:href="#s103:roboto-lightitalic:86"/><use x="33786" y="6565.2" xlink:href="#s103:roboto-lightitalic:88"/><use x="34434" y="6565.2" xlink:href="#s103:roboto-lightitalic:16"/><use x="34824" y="6565.2" xlink:href="#s103:roboto-lightitalic:4"/><use x="35317" y="6565.2" xlink:href="#s103:roboto-lightitalic:73"/><use x="36353" y="6565.2" xlink:href="#s103:roboto-lightitalic:88"/><use x="37001" y="6565.2" xlink:href="#s103:roboto-lightitalic:71"/><use x="38034" y="6565.2" xlink:href="#s103:roboto-lightitalic:16"/></g></svg>