<svg xmlns="http://www.w3.org/2000/svg" xmlns:xlink="http://www.w3.org/1999/xlink" width="773" height="86" viewBox="0 0 65927 7338.7"><defs><path id="s87:robotomono-regular:54" d="M1156-1298L706-1298L706 0L526 0L526-1298L76-1298L76-1456L1156-1456L1156-1298Z"/><path id="s87:robotomono-regular:74" d="M359-921Q417-1006 502-1053.50Q587-1101 693-1102Q778-1102 847.50-1077.50Q917-1053 966-1001Q1015-949 1041.50-869.50Q1068-790 1068-681L1068 0L883 0L883-683Q883-816 819.50-881Q756-946 638-945Q549-945 476.50-901.50Q404-858 359-786L359 0L174 0L174-1536L359-1536L359-921Z"/><path id="s87:robotomono-regular:71" d="M652 20Q538 20 442.50-19Q347-58 279-128Q211-198 173-294Q135-390 135-503L135-545Q135-676 177-779.50Q219-883 288.50-954.50Q358-1026 446.50-1064Q535-1102 628-1102Q745-1102 832.50-1061.50Q920-1021 978-949.50Q1036-878 1064.50-781Q1093-684 1093-571L1093-488L320-488Q323-414 348.50-349Q374-284 418.50-235.50Q463-187 525-159Q587-131 662-131Q761-131 838-171Q915-211 966-277L1079-189Q1052-148 1011.50-110.50Q971-73 918-44Q865-15 798 2.50Q731 20 652 20M628-950Q572-950 522-929.50Q472-909 432-869.50Q392-830 364.50-772.50Q337-715 326-640L908-640L908-654Q905-708 887.50-761Q870-814 836-856Q802-898 750.50-924Q699-950 628-950Z"/><path id="s87:robotomono-regular:3" d=""/><path id="s87:robotomono-regular:39" d="M975-673L367-673L367-157L1076-157L1076 0L182 0L182-1456L1067-1456L1067-1298L367-1298L367-830L975-830L975-673Z"/><path id="s87:robotomono-regular:87" d="M876-149Q822-69 741-24.50Q660 20 554 20Q469 20 400-6.50Q331-33 282-89Q233-145 206.50-231.50Q180-318 180-439L180-1082L365-1082L365-437Q365-349 379-291Q393-233 421-198.50Q449-164 489.50-150Q530-136 583-136Q696-136 765.50-182Q835-228 869-306L869-1082L1055-1082L1055 0L887 0L876-149Z"/><path id="s87:robotomono-regular:84" d="M883-1102Q909-1102 937-1100.50Q965-1099 990.50-1095.50Q1016-1092 1037.50-1087Q1059-1082 1073-1076L1048-895Q994-907 945.50-912.50Q897-918 844-918Q714-918 633.50-859Q553-800 515-694L515 0L329 0L329-1082L505-1082L514-910Q580-999 672.50-1050.50Q765-1102 883-1102Z"/><path id="s87:robotomono-regular:81" d="M122-551Q122-668 156-768.50Q190-869 253.50-943Q317-1017 408-1059.50Q499-1102 613-1102Q728-1102 819.50-1059.50Q911-1017 974.50-943Q1038-869 1072-768.50Q1106-668 1106-551L1106-529Q1106-412 1072-312Q1038-212 974.50-138Q911-64 820-22Q729 20 615 20Q500 20 408.50-22Q317-64 253.50-138Q190-212 156-312Q122-412 122-529L122-551M307-529Q307-449 326-376.50Q345-304 383.50-249Q422-194 480-162Q538-130 615-130Q691-130 748.50-162Q806-194 844.50-249Q883-304 902-376.50Q921-449 921-529L921-551Q921-630 901.50-702.50Q882-775 843.50-830Q805-885 747.50-917.50Q690-950 613-950Q536-950 479-917.50Q422-885 383.50-830Q345-775 326-702.50Q307-630 307-551L307-529Z"/><path id="s87:robotomono-regular:82" d="M1087-529Q1087-413 1059-312.50Q1031-212 977-138Q923-64 843.50-22Q764 20 662 20Q563 20 487.50-12Q412-44 358-104L358 416L173 416L173-1082L342-1082L351-964Q405-1031 481.50-1066.50Q558-1102 659-1102Q763-1102 843-1061Q923-1020 977-947Q1031-874 1059-772.50Q1087-671 1087-550L1087-529M902-550Q902-629 884.50-700.50Q867-772 830.50-826.50Q794-881 738-913Q682-945 604-945Q515-945 454.50-903.50Q394-862 358-797L358-276Q394-212 454-171.50Q514-131 606-131Q683-131 739-163.50Q795-196 831-251Q867-306 884.50-378Q902-450 902-529L902-550Z"/><path id="s87:robotomono-regular:67" d="M885 0Q874-21 867.50-52.50Q861-84 858-118Q830-90 795.50-65Q761-40 719.50-21Q678-2 631 9Q584 20 531 20Q445 20 375.50-5Q306-30 257.50-72.50Q209-115 182.50-173.50Q156-232 156-300Q156-389 191.50-456Q227-523 292-567.50Q357-612 448.50-634Q540-656 653-656L855-656L855-741Q855-790 837-829Q819-868 786-895.50Q753-923 705.50-938Q658-953 599-953Q544-953 500.50-939Q457-925 427-902Q397-879 380.50-847.50Q364-816 364-782L178-782Q179-841 208.50-898Q238-955 293.50-1000.50Q349-1046 428.50-1074Q508-1102 609-1102Q701-1102 780-1079.50Q859-1057 916.50-1011.50Q974-966 1007-898Q1040-830 1040-739L1040-236Q1040-182 1050-121.50Q1060-61 1078-16L1078 0L885 0M558-141Q612-141 659-155Q706-169 744.50-192Q783-215 811-244.50Q839-274 855-306L855-525L683-525Q521-525 431-477Q341-429 341-326Q341-286 354.50-252Q368-218 395-193.50Q422-169 463-155Q504-141 558-141Z"/><path id="s87:robotomono-regular:80" d="M340-1082L353-922Q412-1006 498-1053.50Q584-1101 690-1102Q775-1102 844.50-1078Q914-1054 963-1003Q1012-952 1038.50-873.50Q1065-795 1065-687L1065 0L880 0L880-683Q880-755 864-805Q848-855 816.50-886Q785-917 739.50-931Q694-945 635-945Q542-945 471.50-898.50Q401-852 359-776L359 0L174 0L174-1082L340-1082Z"/><path id="s87:robotomono-regular:78" d="M203-1536L756-1536L756-160L1109-160L1109 0L203 0L203-160L571-160L571-1375L203-1375L203-1536Z"/><path id="s87:robotomono-regular:73" d="M140-550Q140-671 169.50-772.50Q199-874 255-947Q311-1020 391-1061Q471-1102 572-1102Q672-1102 747.50-1066.50Q823-1031 876-964L885-1082L1053-1082L1053-23Q1053 84 1019.50 167Q986 250 925.50 308Q865 366 781 396Q697 426 595 426Q553 426 499 416.50Q445 407 389.50 385.50Q334 364 282.50 328Q231 292 194 239L290 128Q324 169 360 197.50Q396 226 433 243Q470 260 507 267.50Q544 275 581 275Q647 275 700 256Q753 237 790.50 200.50Q828 164 848 110Q868 56 868-14L868-107Q814-45 740.50-12.50Q667 20 570 20Q471 20 391-22Q311-64 255.50-138Q200-212 170-312.50Q140-413 140-529L140-550M325-529Q325-450 341.50-379Q358-308 393.50-254Q429-200 484-168.50Q539-137 616-137Q664-137 702.50-148.50Q741-160 771.50-181Q802-202 826-231Q850-260 868-295L868-791Q850-825 826-853Q802-881 771-901.50Q740-922 702-933.50Q664-945 618-945Q540-945 484.50-913Q429-881 393.50-826.50Q358-772 341.50-700.50Q325-629 325-550L325-529Z"/><path id="s87:robotomono-regular:85" d="M893-287Q893-320 880-346.50Q867-373 836-395Q805-417 754-435.50Q703-454 627-469Q534-488 457.50-515Q381-542 326.50-579.50Q272-617 242-667.50Q212-718 212-785Q212-851 243-908.50Q274-966 330-1009Q386-1052 463.50-1077Q541-1102 634-1102Q734-1102 814-1076Q894-1050 950-1004Q1006-958 1036.50-896.50Q1067-835 1067-764L882-764Q882-799 864-832.50Q846-866 814-892Q782-918 736.50-934Q691-950 634-950Q575-950 530.50-937Q486-924 456.50-902Q427-880 412-851Q397-822 397-791Q397-759 409-734Q421-709 450.50-689Q480-669 529.50-653Q579-637 655-622Q755-601 834-573.50Q913-546 967-507.50Q1021-469 1049.50-418Q1078-367 1078-300Q1078-228 1045.50-169Q1013-110 955-68Q897-26 816-3Q735 20 639 20Q529 20 443-9.50Q357-39 297.50-87.50Q238-136 206.50-200Q175-264 175-333L360-333Q364-276 390.50-237Q417-198 456.50-174Q496-150 544-140Q592-130 639-130Q756-130 824-173Q892-216 893-287Z"/><path id="s87:robotomono-regular:79" d="M259-1082L264-980Q297-1037 350.50-1069Q404-1101 480-1102Q629-1102 679-986Q711-1038 763.50-1069.50Q816-1101 891-1102Q1010-1102 1074-1029Q1138-956 1138-808L1138 0L962 0L962-810Q962-946 837-945Q804-945 780-936Q756-927 740-911.50Q724-896 715-875.50Q706-855 703-833L703 0L527 0L527-811Q527-876 498-911Q469-946 406-945Q348-945 316-922Q284-899 269-861L269 0L93 0L93-1082L259-1082Z"/><path id="s87:robotomono-regular:68" d="M1091-529Q1091-413 1063-312.50Q1035-212 981-138Q927-64 847.50-22Q768 20 665 20Q561 20 484.50-17Q408-54 354-123L345 0L175 0L175-1536L360-1536L360-966Q413-1032 488-1067Q563-1102 663-1102Q767-1102 847-1061Q927-1020 981-947Q1035-874 1063-772.50Q1091-671 1091-550L1091-529M906-550Q906-629 890.50-700.50Q875-772 841-826.50Q807-881 752-913Q697-945 617-945Q569-945 529-932.50Q489-920 457.50-897.50Q426-875 401.50-844.50Q377-814 360-778L360-305Q378-269 402.50-238.50Q427-208 459-185Q491-162 531-149.50Q571-137 619-137Q695-137 749.50-168.50Q804-200 838.50-254Q873-308 889.50-379Q906-450 906-529L906-550Z"/><path id="s87:robotomono-regular:72" d="M450 0L450-939L152-939L152-1082L450-1082L450-1158Q450-1262 480.50-1340.50Q511-1419 566.50-1472Q622-1525 700-1552Q778-1579 874-1579Q940-1579 1002.50-1568Q1065-1557 1131-1540L1109-1387Q1068-1401 1013.50-1411.50Q959-1422 897-1422Q767-1421 701.50-1356Q636-1291 636-1158L636-1082L1053-1082L1053-939L636-939L636 0L450 0Z"/><path id="s87:robotomono-regular:86" d="M612-1344L612-1082L1024-1082L1024-939L612-939L612-351Q612-288 628-247Q644-206 672-181.50Q700-157 736.50-147Q773-137 814-137Q844-137 876-140.50Q908-144 938.50-149Q969-154 995.50-159.50Q1022-165 1039-169L1065-38Q1042-24 1009-13.50Q976-3 937 4.50Q898 12 854.50 16Q811 20 768 20Q696 20 633.50-0.50Q571-21 525-65.50Q479-110 452.50-180.50Q426-251 426-351L426-939L142-939L142-1082L426-1082L426-1344L612-1344Z"/><path id="s87:robotomono-regular:75" d="M203-1082L756-1082L756-160L1109-160L1109 0L203 0L203-160L571-160L571-921L203-921L203-1082M547-1366Q547-1412 574.50-1443.50Q602-1475 658-1475Q713-1475 741-1443.50Q769-1412 769-1366Q769-1321 741-1291Q713-1261 658-1261Q602-1261 574.50-1291Q547-1321 547-1366Z"/><path id="s87:robotomono-regular:91" d="M572-384L620-253L950-1082L1157-1082L608 167Q589 209 559.50 256Q530 303 488 343Q446 383 390 410Q334 437 261 437Q248 437 232 435.50Q216 434 200 431.50Q184 429 170 426Q156 423 147 421L177 270Q184 270 196 271Q208 272 221 273Q234 274 246 274.50Q258 275 265 275Q303 275 334.50 254Q366 233 390.50 204Q415 175 432.50 144Q450 113 460 93L534-51L68-1082L275-1082L572-384Z"/><path id="s87:robotomono-regular:16" d="M496-120Q496-150 505.50-176Q515-202 533-221.50Q551-241 578-252Q605-263 641-263Q677-263 704.50-252Q732-241 750.50-221.50Q769-202 778.50-176Q788-150 788-120Q788-91 778.50-65.50Q769-40 750.50-21Q732-2 704.50 8.50Q677 19 641 19Q605 19 578 8.50Q551-2 533-21Q515-40 505.50-65.50Q496-91 496-120Z"/><path id="s87:robotomono-regular:90" d="M621-681L910-1082L1127-1082L724-547L1138 0L924 0L625-412L326 0L110 0L524-547L121-1082L335-1082L621-681Z"/><path id="s87:robotomono-regular:69" d="M635-130Q685-130 732.50-146Q780-162 817-190.50Q854-219 876.50-257.50Q899-296 900-341L1075-341Q1074-269 1037.50-203.50Q1001-138 940-88.50Q879-39 800-9.50Q721 20 635 20Q512 20 420-24Q328-68 266.50-142.50Q205-217 174-314.50Q143-412 143-520L143-562Q143-669 174-767Q205-865 266.50-939.50Q328-1014 420-1058Q512-1102 635-1102Q731-1102 811.50-1071.50Q892-1041 950.50-988.50Q1009-936 1042-864Q1075-792 1075-710L900-710Q899-759 878.50-802.50Q858-846 823-879Q788-912 739.50-931Q691-950 635-950Q549-950 490.50-915.50Q432-881 396-825.50Q360-770 344.50-701Q329-632 329-562L329-520Q329-449 344.50-379.50Q360-310 395.50-254.50Q431-199 489.50-164.50Q548-130 635-130Z"/><path id="s87:robotomono-regular:40" d="M984-643L378-643L378 0L191 0L191-1456L1085-1456L1085-1298L378-1298L378-800L984-800L984-643Z"/><path id="s87:robotomono-regular:14" d="M643-43Q643 4 631.50 55.50Q620 107 597.50 157.50Q575 208 543 254Q511 300 469 336L354 273Q402 203 422 124Q442 45 442-40L442-219L643-219L643-43Z"/></defs><g id="line-0"><use x="0" y="1868.5" xlink:href="#s87:robotomono-regular:54"/><use x="1229" y="1868.5" xlink:href="#s87:robotomono-regular:74"/><use x="2458" y="1868.5" xlink:href="#s87:robotomono-regular:71"/><use x="3687" y="1868.5" xlink:href="#s87:robotomono-regular:3"/><use x="4916" y="1868.5" xlink:href="#s87:robotomono-regular:39"/><use x="6145" y="1868.5" xlink:href="#s87:robotomono-regular:87"/><use x="7374" y="1868.5" xlink:href="#s87:robotomono-regular:84"/><use x="8603" y="1868.5" xlink:href="#s87:robotomono-regular:81"/><use x="9832" y="1868.5" xlink:href="#s87:robotomono-regular:82"/><use x="11061" y="1868.5" xlink:href="#s87:robotomono-regular:71"/><use x="12290" y="1868.5" xlink:href="#s87:robotomono-regular:67"/><use x="13519" y="1868.5" xlink:href="#s87:robotomono-regular:80"/><use x="14748" y="1868.5" xlink:href="#s87:robotomono-regular:3"/><use x="15977" y="1868.5" xlink:href="#s87:robotomono-regular:78"/><use x="17206" y="1868.5" xlink:href="#s87:robotomono-regular:67"/><use x="18435" y="1868.5" xlink:href="#s87:robotomono-regular:80"/><use x="19664" y="1868.5" xlink:href="#s87:robotomono-regular:73"/><use x="20893" y="1868.5" xlink:href="#s87:robotomono-regular:87"/><use x="22122" y="1868.5" xlink:href="#s87:robotomono-regular:67"/><use x="23351" y="1868.5" xlink:href="#s87:robotomono-regular:73"/><use x="24580" y="1868.5" xlink:href="#s87:robotomono-regular:71"/><use x="25809" y="1868.5" xlink:href="#s87:robotomono-regular:85"/><use x="27038" y="1868.5" xlink:href="#s87:robotomono-regular:3"/><use x="28267" y="1868.5" xlink:href="#s87:robotomono-regular:67"/><use x="29496" y="1868.5" xlink:href="#s87:robotomono-regular:84"/><use x="30725" y="1868.5" xlink:href="#s87:robotomono-regular:71"/><use x="31954" y="1868.5" xlink:href="#s87:robotomono-regular:3"/><use x="33183" y="1868.5" xlink:href="#s87:robotomono-regular:79"/><use x="34412" y="1868.5" xlink:href="#s87:robotomono-regular:71"/><use x="35641" y="1868.5" xlink:href="#s87:robotomono-regular:79"/><use x="36870" y="1868.5" xlink:href="#s87:robotomono-regular:68"/><use x="38099" y="1868.5" xlink:href="#s87:robotomono-regular:71"/><use x="39328" y="1868.5" xlink:href="#s87:robotomono-regular:84"/><use x="40557" y="1868.5" xlink:href="#s87:robotomono-regular:85"/><use x="41786" y="1868.5" xlink:href="#s87:robotomono-regular:3"/><use x="43015" y="1868.5" xlink:href="#s87:robotomono-regular:81"/><use x="44244" y="1868.5" xlink:href="#s87:robotomono-regular:72"/><use x="45474" y="1868.5" xlink:href="#s87:robotomono-regular:3"/><use x="46703" y="1868.5" xlink:href="#s87:robotomono-regular:86"/><use x="47932" y="1868.5" xlink:href="#s87:robotomono-regular:74"/><use x="49161" y="1868.5" xlink:href="#s87:robotomono-regular:71"/><use x="50390" y="1868.5" xlink:href="#s87:robotomono-regular:3"/><use x="51619" y="1868.5" xlink:href="#s87:robotomono-regular:85"/><use x="52848" y="1868.5" xlink:href="#s87:robotomono-regular:67"/><use x="54077" y="1868.5" xlink:href="#s87:robotomono-regular:79"/><use x="55306" y="1868.5" xlink:href="#s87:robotomono-regular:71"/><use x="56535" y="1868.5" xlink:href="#s87:robotomono-regular:3"/><use x="57764" y="1868.5" xlink:href="#s87:robotomono-regular:72"/><use x="58994" y="1868.5" xlink:href="#s87:robotomono-regular:67"/><use x="60223" y="1868.5" xlink:href="#s87:robotomono-regular:79"/><use x="61452" y="1868.5" xlink:href="#s87:robotomono-regular:75"/><use x="62681" y="1868.5" xlink:href="#s87:robotomono-regular:78"/><use x="63910" y="1868.5" xlink:href="#s87:robotomono-regular:91"/><use x="65139" y="1868.5" xlink:href="#s87:robotomono-regular:16"/></g><g id="line-1"><use x="11676.5" y="4326.1" xlink:href="#s87:robotomono-regular:54"/><use x="12905.5" y="4326.1" xlink:href="#s87:robotomono-regular:74"/><use x="14134.5" y="4326.1" xlink:href="#s87:robotomono-regular:71"/><use x="15363.5" y="4326.1" xlink:href="#s87:robotomono-regular:75"/><use x="16592.5" y="4326.1" xlink:href="#s87:robotomono-regular:84"/><use x="17821.5" y="4326.1" xlink:href="#s87:robotomono-regular:3"/><use x="19050.5" y="4326.1" xlink:href="#s87:robotomono-regular:85"/><use x="20279.5" y="4326.1" xlink:href="#s87:robotomono-regular:71"/><use x="21508.5" y="4326.1" xlink:href="#s87:robotomono-regular:82"/><use x="22737.5" y="4326.1" xlink:href="#s87:robotomono-regular:67"/><use x="23966.5" y="4326.1" xlink:href="#s87:robotomono-regular:84"/><use x="25195.5" y="4326.1" xlink:href="#s87:robotomono-regular:67"/><use x="26424.5" y="4326.1" xlink:href="#s87:robotomono-regular:86"/><use x="27653.5" y="4326.1" xlink:href="#s87:robotomono-regular:71"/><use x="28882.5" y="4326.1" xlink:href="#s87:robotomono-regular:3"/><use x="30111.5" y="4326.1" xlink:href="#s87:robotomono-regular:71"/><use x="31340.5" y="4326.1" xlink:href="#s87:robotomono-regular:90"/><use x="32569.5" y="4326.1" xlink:href="#s87:robotomono-regular:75"/><use x="33798.5" y="4326.1" xlink:href="#s87:robotomono-regular:85"/><use x="35027.5" y="4326.1" xlink:href="#s87:robotomono-regular:86"/><use x="36256.5" y="4326.1" xlink:href="#s87:robotomono-regular:71"/><use x="37485.5" y="4326.1" xlink:href="#s87:robotomono-regular:80"/><use x="38714.5" y="4326.1" xlink:href="#s87:robotomono-regular:69"/><use x="39943.5" y="4326.1" xlink:href="#s87:robotomono-regular:71"/><use x="41172.5" y="4326.1" xlink:href="#s87:robotomono-regular:3"/><use x="42401.5" y="4326.1" xlink:href="#s87:robotomono-regular:75"/><use x="43630.5" y="4326.1" xlink:href="#s87:robotomono-regular:85"/><use x="44859.5" y="4326.1" xlink:href="#s87:robotomono-regular:3"/><use x="46088.5" y="4326.1" xlink:href="#s87:robotomono-regular:67"/><use x="47317.5" y="4326.1" xlink:href="#s87:robotomono-regular:3"/><use x="48546.5" y="4326.1" xlink:href="#s87:robotomono-regular:79"/><use x="49775.5" y="4326.1" xlink:href="#s87:robotomono-regular:91"/><use x="51004.5" y="4326.1" xlink:href="#s87:robotomono-regular:86"/><use x="52233.5" y="4326.1" xlink:href="#s87:robotomono-regular:74"/><use x="53462.5" y="4326.1" xlink:href="#s87:robotomono-regular:16"/></g><g id="line-2"><use x="14207" y="6783.7" xlink:href="#s87:robotomono-regular:40"/><use x="15436" y="6783.7" xlink:href="#s87:robotomono-regular:81"/><use x="16665" y="6783.7" xlink:href="#s87:robotomono-regular:84"/><use x="17894" y="6783.7" xlink:href="#s87:robotomono-regular:3"/><use x="19123" y="6783.7" xlink:href="#s87:robotomono-regular:85"/><use x="20352" y="6783.7" xlink:href="#s87:robotomono-regular:69"/><use x="21581" y="6783.7" xlink:href="#s87:robotomono-regular:75"/><use x="22810" y="6783.7" xlink:href="#s87:robotomono-regular:71"/><use x="24039" y="6783.7" xlink:href="#s87:robotomono-regular:80"/><use x="25268" y="6783.7" xlink:href="#s87:robotomono-regular:69"/><use x="26497" y="6783.7" xlink:href="#s87:robotomono-regular:71"/><use x="27726" y="6783.7" xlink:href="#s87:robotomono-regular:14"/><use x="28955" y="6783.7" xlink:href="#s87:robotomono-regular:3"/><use x="30184" y="6783.7" xlink:href="#s87:robotomono-regular:79"/><use x="31413" y="6783.7" xlink:href="#s87:robotomono-regular:87"/><use x="32642" y="6783.7" xlink:href="#s87:robotomono-regular:85"/><use x="33871" y="6783.7" xlink:href="#s87:robotomono-regular:75"/><use x="35100" y="6783.7" xlink:href="#s87:robotomono-regular:69"/><use x="36329" y="6783.7" xlink:href="#s87:robotomono-regular:14"/><use x="37558" y="6783.7" xlink:href="#s87:robotomono-regular:3"/><use x="38787" y="6783.7" xlink:href="#s87:robotomono-regular:85"/><use x="40016" y="6783.7" xlink:href="#s87:robotomono-regular:82"/><use x="41245" y="6783.7" xlink:href="#s87:robotomono-regular:81"/><use x="42474" y="6783.7" xlink:href="#s87:robotomono-regular:84"/><use x="43703" y="6783.7" xlink:href="#s87:robotomono-regular:86"/><use x="44932" y="6783.7" xlink:href="#s87:robotomono-regular:14"/><use x="46161" y="6783.7" xlink:href="#s87:robotomono-regular:3"/><use x="47390" y="6783.7" xlink:href="#s87:robotomono-regular:71"/><use x="48619" y="6783.7" xlink:href="#s87:robotomono-regular:86"/><use x="49848" y="6783.7" xlink:href="#s87:robotomono-regular:69"/><use x="51077" y="6783.7" xlink:href="#s87:robotomono-regular:14"/></g></svg>