<svg xmlns="http://www.w3.org/2000/svg" xmlns:xlink="http://www.w3.org/1999/xlink" width="755" height="86" viewBox="0 0 64414 7338.7"><defs><path id="s81:robotomono-bolditalic:54" d="M1274-1227L839-1227L626 0L351 0L564-1227L134-1227L174-1456L1315-1456L1274-1227Z"/><path id="s81:robotomono-bolditalic:74" d="M455-931Q514-1007 592.50-1055Q671-1103 771-1102Q867-1101 931.50-1063Q996-1025 1032.50-962.50Q1069-900 1080.50-820Q1092-740 1083-655L974 0L702 0L813-658Q818-703 813.50-741.50Q809-780 791-809.50Q773-839 741-856Q709-873 660-875Q594-877 540.50-852Q487-827 441-782L303 0L32 0L299-1536L570-1536L455-931Z"/><path id="s81:robotomono-bolditalic:71" d="M556 20Q445 18 355.50-22.50Q266-63 204.50-132.50Q143-202 114-296Q85-390 95-500L99-541Q112-655 160-758Q208-861 284.50-938Q361-1015 463-1060Q565-1105 685-1102Q798-1099 880-1055Q962-1011 1012.50-937.50Q1063-864 1081.50-769Q1100-674 1087-569L1069-451L362-451Q360-399 375-354.50Q390-310 418.50-277Q447-244 489-224.50Q531-205 585-204Q670-201 745.50-233.50Q821-266 879-326L1002-175Q966-123 914.50-86Q863-49 803.50-25Q744-1 680 10Q616 21 556 20M665-878Q611-880 568-860Q525-840 491.50-806Q458-772 433-729Q408-686 389-642L830-642L835-667Q842-711 833-749Q824-787 801.50-815Q779-843 744.50-859.50Q710-876 665-878Z"/><path id="s81:robotomono-bolditalic:3" d=""/><path id="s81:robotomono-bolditalic:39" d="M1004-638L424-638L352-227L1031-227L991 0L38 0L291-1456L1241-1456L1201-1227L526-1227L462-860L1043-860L1004-638Z"/><path id="s81:robotomono-bolditalic:87" d="M739-153Q709-115 675-83Q641-51 602-27.50Q563-4 518.50 9Q474 22 425 21Q359 20 309.50 1Q260-18 224-51Q188-84 165.50-128Q143-172 131-223Q119-274 117.50-330Q116-386 122-442L229-1082L500-1082L393-439Q388-397 387.50-355.50Q387-314 398.50-281Q410-248 438-227Q466-206 518-205Q591-203 647.50-233.50Q704-264 746-322L879-1082L1151-1082L963 0L718 0L739-153Z"/><path id="s81:robotomono-bolditalic:84" d="M962-1104Q1014-1103 1064.50-1095.50Q1115-1088 1166-1075L1092-798Q1040-811 988-818.50Q936-826 882-827Q670-829 558-651L445 0L174 0L362-1082L614-1082L586-904Q622-948 663-985Q704-1022 751-1048.50Q798-1075 850.50-1089.50Q903-1104 962-1104Z"/><path id="s81:robotomono-bolditalic:81" d="M91-544Q105-658 150.50-760.50Q196-863 269-940Q342-1017 441.50-1061Q541-1105 663-1102Q780-1100 864-1054Q948-1008 1000.50-932.50Q1053-857 1073-759Q1093-661 1082-554L1079-532Q1065-418 1019.50-316.50Q974-215 901-139Q828-63 728.50-19.50Q629 24 508 21Q392 19 308-26.50Q224-72 171.50-146.50Q119-221 98.50-318.50Q78-416 89-523L91-544M360-523Q355-473 356-417.50Q357-362 373.50-314.50Q390-267 426.50-234.50Q463-202 528-200Q596-198 645.50-228.50Q695-259 728.50-307.50Q762-356 780.50-415.50Q799-475 807-532L809-553Q812-586 813.50-622.50Q815-659 810.50-694.50Q806-730 795.50-762.50Q785-795 765.50-820Q746-845 716-860.50Q686-876 643-878Q574-880 524.50-850Q475-820 441.50-771Q408-722 388.50-662Q369-602 362-544L360-523Z"/><path id="s81:robotomono-bolditalic:82" d="M1069-537Q1061-471 1043-403.50Q1025-336 996.50-273Q968-210 928.50-156Q889-102 837.50-62Q786-22 722.50 0.50Q659 23 582 21Q507 19 443.50-9.50Q380-38 332-96L235 416L-36 416L224-1082L472-1083L455-975Q512-1037 582-1070.50Q652-1104 737-1102Q811-1100 866-1076.50Q921-1053 960.50-1012.50Q1000-972 1024.50-919Q1049-866 1061.50-806.50Q1074-747 1075.50-683.50Q1077-620 1071-559L1069-537M799-559Q804-605 804-659.50Q804-714 789.50-761.50Q775-809 742-841.50Q709-874 647-876Q581-878 530.50-849Q480-820 441-768L361-314Q383-257 425.50-230.50Q468-204 528-202Q596-200 644-231Q692-262 724-311.50Q756-361 773-421.50Q790-482 797-538L799-559Z"/><path id="s81:robotomono-bolditalic:67" d="M700 0Q692-26 690.50-50.50Q689-75 690-101Q627-42 552.50-10.50Q478 21 390 20Q322 19 260.50-3.50Q199-26 153.50-66.50Q108-107 83-165Q58-223 61-295Q64-367 88.50-422Q113-477 153-518Q193-559 245-586.50Q297-614 356-631Q415-648 477.50-655Q540-662 601-662L757-660L770-727Q776-766 767.50-797Q759-828 738.50-849.50Q718-871 687-882.50Q656-894 617-895Q547-897 500-863.50Q453-830 439-761L168-759Q174-849 219-914.50Q264-980 332-1022.50Q400-1065 482.50-1084.50Q565-1104 646-1103Q731-1101 807-1076Q883-1051 938.50-1003.50Q994-956 1022.50-886Q1051-816 1042-723L967-258Q958-199 953.50-137.50Q949-76 970-18L969 0L700 0M461-194Q532-192 594.50-223Q657-254 702-308L736-495L613-496Q568-496 522-487Q476-478 437-457.50Q398-437 371-403Q344-369 337-317Q333-286 341-263Q349-240 366-225Q383-210 407.50-202Q432-194 461-194Z"/><path id="s81:robotomono-bolditalic:80" d="M464-1083L446-931Q510-1009 593.50-1056.50Q677-1104 782-1102Q876-1100 937.50-1063Q999-1026 1034-965Q1069-904 1080-826.50Q1091-749 1082-666L971 0L700 0L810-663Q815-710 810.50-748.50Q806-787 788.50-815Q771-843 738.50-859Q706-875 655-876Q588-877 535-848.50Q482-820 439-770L304 0L32 0L220-1082L464-1083Z"/><path id="s81:robotomono-bolditalic:78" d="M355-1536L943-1536L716-226L1017-226L977 0L88 0L128-226L442-226L630-1309L315-1309L355-1536Z"/><path id="s81:robotomono-bolditalic:73" d="M101-542Q109-610 128-679Q147-748 177-811Q207-874 248-928Q289-982 342.50-1021.50Q396-1061 461.50-1082.50Q527-1104 605-1102Q683-1100 750-1071Q817-1042 862-978L898-1083L1147-1082L969-35Q953 75 904 162Q855 249 780.50 308.50Q706 368 610 398.50Q514 429 404 426Q350 425 297 413.50Q244 402 195 380Q146 358 102.50 325.50Q59 293 26 250L165 84Q210 142 270 174.50Q330 207 405 209Q463 211 512 194.50Q561 178 599 146.50Q637 115 663 70.50Q689 26 701-30L715-94Q658-39 591.50-8.50Q525 22 444 20Q372 19 316.50-5Q261-29 220.50-69.50Q180-110 153.50-163Q127-216 112.50-275.50Q98-335 95-398Q92-461 98-521L101-542M371-521Q368-490 367-454.50Q366-419 370-384.50Q374-350 384-318.50Q394-287 413-262.50Q432-238 460.50-222.50Q489-207 530-206Q597-204 648-232Q699-260 740-311L822-772Q798-826 755-851Q712-876 654-878Q586-879 536-848.50Q486-818 452.50-769Q419-720 399.50-659.50Q380-599 373-542L371-521Z"/><path id="s81:robotomono-bolditalic:85" d="M767-303Q772-328 762-346.50Q752-365 734-378.50Q716-392 691.50-401.50Q667-411 642-417.50Q617-424 593.50-428Q570-432 554-436Q492-451 424.50-474.50Q357-498 301.50-535.50Q246-573 211-628Q176-683 179-760Q181-820 204-869.50Q227-919 263.50-957Q300-995 347.50-1023Q395-1051 448.50-1068.50Q502-1086 557-1094.50Q612-1103 664-1102Q746-1101 824-1080.50Q902-1060 963.50-1017Q1025-974 1062.50-908.50Q1100-843 1100-752L830-753Q831-792 817.50-820Q804-848 780-865.50Q756-883 723.50-891.50Q691-900 654-900Q623-900 588-894Q553-888 522-873.50Q491-859 468.50-834.50Q446-810 440-774Q433-736 452-713Q471-690 501-676.50Q531-663 566-656Q601-649 627-644Q694-631 767-609.50Q840-588 899.50-551Q959-514 996.50-457Q1034-400 1030-316Q1027-253 1003-203.50Q979-154 940.50-116Q902-78 851.50-51.50Q801-25 745.50-8.50Q690 8 632.50 15Q575 22 523 21Q440 20 360-3Q280-26 216.50-71.50Q153-117 113.50-184.50Q74-252 74-344L331-343Q333-299 350-268Q367-237 395.50-217.50Q424-198 460.50-189Q497-180 538-180Q569-180 606.50-185Q644-190 677.50-203.50Q711-217 735.50-241Q760-265 767-303Z"/><path id="s81:robotomono-bolditalic:79" d="M388-1083L363-950Q382-983 404.50-1011Q427-1039 454.50-1059.50Q482-1080 515.50-1091.50Q549-1103 589-1103Q649-1102 689.50-1074.50Q730-1047 743-987Q783-1038 832.50-1070.50Q882-1103 950-1102Q994-1101 1025.50-1086Q1057-1071 1078.50-1045.50Q1100-1020 1113-987Q1126-954 1132-917.50Q1138-881 1138-843.50Q1138-806 1135-772L1007 0L760 0L891-775Q893-791 893-808.50Q893-826 888-841Q883-856 871.50-866Q860-876 839-876Q810-876 790-861.50Q770-847 752-827L607 0L368 0L499-776Q500-792 500.50-810Q501-828 496.50-842.50Q492-857 480.50-866.50Q469-876 447-876Q414-876 393-856.50Q372-837 356-811L215 0L-32 0L156-1082L388-1083Z"/><path id="s81:robotomono-bolditalic:68" d="M1071-536Q1063-469 1045.50-400.50Q1028-332 1000-269.50Q972-207 933-153Q894-99 843-60Q792-21 727.50 0.50Q663 22 585 20Q504 18 436.50-15.50Q369-49 324-116L284 0L38 0L304-1536L576-1536L470-983Q525-1041 592-1072.50Q659-1104 740-1102Q814-1100 869.50-1076Q925-1052 964.50-1012Q1004-972 1028.50-918.50Q1053-865 1065-805Q1077-745 1078.50-681.50Q1080-618 1074-557L1071-536M802-557Q805-588 807-623.50Q809-659 806.50-694Q804-729 795.50-761.50Q787-794 769.50-819Q752-844 724-859.50Q696-875 654-876Q583-878 531-845.50Q479-813 441-757L366-323Q386-263 429-234.50Q472-206 535-204Q605-202 652.50-232Q700-262 730.50-310Q761-358 777-418Q793-478 800-536L802-557Z"/><path id="s81:robotomono-bolditalic:72" d="M293 0L445-877L169-877L206-1082L474-1081L485-1142Q503-1248 549-1330.50Q595-1413 664.50-1469Q734-1525 824.50-1554Q915-1583 1023-1582Q1088-1581 1152-1572Q1216-1563 1280-1552L1238-1334Q1191-1345 1143.50-1350.50Q1096-1356 1048-1356Q937-1357 859.50-1305.50Q782-1254 758-1142L745-1081L1132-1082L1095-877L718-877L565 0L293 0Z"/><path id="s81:robotomono-bolditalic:86" d="M762-1347L716-1082L1108-1082L1072-877L680-877L604-411Q599-368 602.50-332Q606-296 621.50-269Q637-242 666.50-226Q696-210 743-209Q801-207 858-216Q915-225 972-237L981-44Q945-24 904.50-11Q864 2 821.50 9Q779 16 736 18.50Q693 21 653 20Q562 19 496.50-12.50Q431-44 390.50-98Q350-152 334.50-225.50Q319-299 328-385L409-877L169-877L205-1082L445-1082L491-1347L762-1347Z"/><path id="s81:robotomono-bolditalic:75" d="M292-1082L865-1082L716-226L1001-226L961 0L104 0L143-226L442-226L551-855L252-855L292-1082M619-1354Q619-1388 631-1416Q643-1444 664.50-1464.50Q686-1485 714.50-1496.50Q743-1508 776-1508Q808-1509 836-1499Q864-1489 885-1470Q906-1451 918.50-1424Q931-1397 931-1364Q931-1330 919-1302Q907-1274 886-1253.50Q865-1233 836-1221.50Q807-1210 774-1210Q742-1209 714-1219Q686-1229 665-1248Q644-1267 631.50-1294Q619-1321 619-1354Z"/><path id="s81:robotomono-bolditalic:91" d="M557-442L566-343L972-1082L1283-1082L536 163Q503 220 463.50 271Q424 322 376 359.50Q328 397 269.50 418.50Q211 440 140 440Q104 439 69.50 432.50Q35 426 0 417L55 206Q75 207 97 210Q119 213 139 211Q168 209 191 196Q214 183 233.50 164Q253 145 270.50 122.50Q288 100 305 80L401-59L139-1082L425-1082L557-442Z"/><path id="s81:robotomono-bolditalic:16" d="M334-154Q334-196 348.50-231Q363-266 388.50-291.50Q414-317 449.50-331.50Q485-346 526-346Q565-346 598.50-333Q632-320 656-296.50Q680-273 694-240Q708-207 708-168Q708-127 693-92Q678-57 652.50-32Q627-7 591.50 7Q556 21 516 21Q477 21 444 8.50Q411-4 386.50-27Q362-50 348-82.50Q334-115 334-154Z"/><path id="s81:robotomono-bolditalic:90" d="M632-745L915-1082L1221-1082L777-540L1050 0L773 0L587-353L293 0L-15 0L445-562L182-1082L459-1082L632-745Z"/><path id="s81:robotomono-bolditalic:69" d="M531-201Q571-200 607.50-211Q644-222 673.50-243.50Q703-265 723.50-297Q744-329 750-369L1004-371Q999-279 955-205.50Q911-132 842.50-81Q774-30 689.50-3.50Q605 23 518 21Q401 19 317.50-26Q234-71 182.50-145.50Q131-220 111-317.50Q91-415 102-522L105-553Q119-666 164-767Q209-868 282-943.50Q355-1019 453.50-1062Q552-1105 672-1102Q765-1100 840-1069Q915-1038 967.50-982.50Q1020-927 1046.50-850.50Q1073-774 1068-681L813-682Q816-722 807-757.50Q798-793 777-819Q756-845 724-860.50Q692-876 649-878Q580-880 531.50-851Q483-822 451-774.50Q419-727 401-668.50Q383-610 376-553L372-523Q367-475 367-419Q367-363 382-315.50Q397-268 431.50-235.50Q466-203 531-201Z"/><path id="s81:robotomono-bolditalic:40" d="M1025-603L420-603L315 0L40 0L292-1456L1249-1456L1208-1227L528-1227L459-831L1065-831L1025-603Z"/><path id="s81:robotomono-bolditalic:14" d="M592-23Q581 41 558 101Q535 161 501 215.50Q467 270 424 318Q381 366 332 406L190 328Q240 247 278.50 166.50Q317 86 334-9L374-243L629-243L592-23Z"/></defs><g id="line-0"><use x="0" y="1868.5" xlink:href="#s81:robotomono-bolditalic:54"/><use x="1202" y="1868.5" xlink:href="#s81:robotomono-bolditalic:74"/><use x="2404" y="1868.5" xlink:href="#s81:robotomono-bolditalic:71"/><use x="3606" y="1868.5" xlink:href="#s81:robotomono-bolditalic:3"/><use x="4808" y="1868.5" xlink:href="#s81:robotomono-bolditalic:39"/><use x="6010" y="1868.5" xlink:href="#s81:robotomono-bolditalic:87"/><use x="7212" y="1868.5" xlink:href="#s81:robotomono-bolditalic:84"/><use x="8414" y="1868.5" xlink:href="#s81:robotomono-bolditalic:81"/><use x="9616" y="1868.5" xlink:href="#s81:robotomono-bolditalic:82"/><use x="10818" y="1868.5" xlink:href="#s81:robotomono-bolditalic:71"/><use x="12020" y="1868.5" xlink:href="#s81:robotomono-bolditalic:67"/><use x="13222" y="1868.5" xlink:href="#s81:robotomono-bolditalic:80"/><use x="14424" y="1868.5" xlink:href="#s81:robotomono-bolditalic:3"/><use x="15626" y="1868.5" xlink:href="#s81:robotomono-bolditalic:78"/><use x="16828" y="1868.5" xlink:href="#s81:robotomono-bolditalic:67"/><use x="18030" y="1868.5" xlink:href="#s81:robotomono-bolditalic:80"/><use x="19232" y="1868.5" xlink:href="#s81:robotomono-bolditalic:73"/><use x="20434" y="1868.5" xlink:href="#s81:robotomono-bolditalic:87"/><use x="21636" y="1868.5" xlink:href="#s81:robotomono-bolditalic:67"/><use x="22838" y="1868.5" xlink:href="#s81:robotomono-bolditalic:73"/><use x="24040" y="1868.5" xlink:href="#s81:robotomono-bolditalic:71"/><use x="25242" y="1868.5" xlink:href="#s81:robotomono-bolditalic:85"/><use x="26444" y="1868.5" xlink:href="#s81:robotomono-bolditalic:3"/><use x="27646" y="1868.5" xlink:href="#s81:robotomono-bolditalic:67"/><use x="28848" y="1868.5" xlink:href="#s81:robotomono-bolditalic:84"/><use x="30050" y="1868.5" xlink:href="#s81:robotomono-bolditalic:71"/><use x="31252" y="1868.5" xlink:href="#s81:robotomono-bolditalic:3"/><use x="32454" y="1868.5" xlink:href="#s81:robotomono-bolditalic:79"/><use x="33656" y="1868.5" xlink:href="#s81:robotomono-bolditalic:71"/><use x="34858" y="1868.5" xlink:href="#s81:robotomono-bolditalic:79"/><use x="36060" y="1868.5" xlink:href="#s81:robotomono-bolditalic:68"/><use x="37262" y="1868.5" xlink:href="#s81:robotomono-bolditalic:71"/><use x="38464" y="1868.5" xlink:href="#s81:robotomono-bolditalic:84"/><use x="39666" y="1868.5" xlink:href="#s81:robotomono-bolditalic:85"/><use x="40868" y="1868.5" xlink:href="#s81:robotomono-bolditalic:3"/><use x="42070" y="1868.5" xlink:href="#s81:robotomono-bolditalic:81"/><use x="43272" y="1868.5" xlink:href="#s81:robotomono-bolditalic:72"/><use x="44474" y="1868.5" xlink:href="#s81:robotomono-bolditalic:3"/><use x="45676" y="1868.5" xlink:href="#s81:robotomono-bolditalic:86"/><use x="46878" y="1868.5" xlink:href="#s81:robotomono-bolditalic:74"/><use x="48080" y="1868.5" xlink:href="#s81:robotomono-bolditalic:71"/><use x="49282" y="1868.5" xlink:href="#s81:robotomono-bolditalic:3"/><use x="50484" y="1868.5" xlink:href="#s81:robotomono-bolditalic:85"/><use x="51686" y="1868.5" xlink:href="#s81:robotomono-bolditalic:67"/><use x="52888" y="1868.5" xlink:href="#s81:robotomono-bolditalic:79"/><use x="54090" y="1868.5" xlink:href="#s81:robotomono-bolditalic:71"/><use x="55292" y="1868.5" xlink:href="#s81:robotomono-bolditalic:3"/><use x="56494" y="1868.5" xlink:href="#s81:robotomono-bolditalic:72"/><use x="57696" y="1868.5" xlink:href="#s81:robotomono-bolditalic:67"/><use x="58898" y="1868.5" xlink:href="#s81:robotomono-bolditalic:79"/><use x="60100" y="1868.5" xlink:href="#s81:robotomono-bolditalic:75"/><use x="61302" y="1868.5" xlink:href="#s81:robotomono-bolditalic:78"/><use x="62504" y="1868.5" xlink:href="#s81:robotomono-bolditalic:91"/><use x="63706" y="1868.5" xlink:href="#s81:robotomono-bolditalic:16"/></g><g id="line-1"><use x="11419" y="4326.1" xlink:href="#s81:robotomono-bolditalic:54"/><use x="12621" y="4326.1" xlink:href="#s81:robotomono-bolditalic:74"/><use x="13823" y="4326.1" xlink:href="#s81:robotomono-bolditalic:71"/><use x="15025" y="4326.1" xlink:href="#s81:robotomono-bolditalic:75"/><use x="16227" y="4326.1" xlink:href="#s81:robotomono-bolditalic:84"/><use x="17429" y="4326.1" xlink:href="#s81:robotomono-bolditalic:3"/><use x="18631" y="4326.1" xlink:href="#s81:robotomono-bolditalic:85"/><use x="19833" y="4326.1" xlink:href="#s81:robotomono-bolditalic:71"/><use x="21035" y="4326.1" xlink:href="#s81:robotomono-bolditalic:82"/><use x="22237" y="4326.1" xlink:href="#s81:robotomono-bolditalic:67"/><use x="23439" y="4326.1" xlink:href="#s81:robotomono-bolditalic:84"/><use x="24641" y="4326.1" xlink:href="#s81:robotomono-bolditalic:67"/><use x="25843" y="4326.1" xlink:href="#s81:robotomono-bolditalic:86"/><use x="27045" y="4326.1" xlink:href="#s81:robotomono-bolditalic:71"/><use x="28247" y="4326.1" xlink:href="#s81:robotomono-bolditalic:3"/><use x="29449" y="4326.1" xlink:href="#s81:robotomono-bolditalic:71"/><use x="30651" y="4326.1" xlink:href="#s81:robotomono-bolditalic:90"/><use x="31853" y="4326.1" xlink:href="#s81:robotomono-bolditalic:75"/><use x="33055" y="4326.1" xlink:href="#s81:robotomono-bolditalic:85"/><use x="34257" y="4326.1" xlink:href="#s81:robotomono-bolditalic:86"/><use x="35459" y="4326.1" xlink:href="#s81:robotomono-bolditalic:71"/><use x="36661" y="4326.1" xlink:href="#s81:robotomono-bolditalic:80"/><use x="37863" y="4326.1" xlink:href="#s81:robotomono-bolditalic:69"/><use x="39065" y="4326.1" xlink:href="#s81:robotomono-bolditalic:71"/><use x="40267" y="4326.1" xlink:href="#s81:robotomono-bolditalic:3"/><use x="41469" y="4326.1" xlink:href="#s81:robotomono-bolditalic:75"/><use x="42671" y="4326.1" xlink:href="#s81:robotomono-bolditalic:85"/><use x="43873" y="4326.1" xlink:href="#s81:robotomono-bolditalic:3"/><use x="45075" y="4326.1" xlink:href="#s81:robotomono-bolditalic:67"/><use x="46277" y="4326.1" xlink:href="#s81:robotomono-bolditalic:3"/><use x="47479" y="4326.1" xlink:href="#s81:robotomono-bolditalic:79"/><use x="48681" y="4326.1" xlink:href="#s81:robotomono-bolditalic:91"/><use x="49883" y="4326.1" xlink:href="#s81:robotomono-bolditalic:86"/><use x="51085" y="4326.1" xlink:href="#s81:robotomono-bolditalic:74"/><use x="52287" y="4326.1" xlink:href="#s81:robotomono-bolditalic:16"/></g><g id="line-2"><use x="13862.5" y="6783.7" xlink:href="#s81:robotomono-bolditalic:40"/><use x="15064.5" y="6783.7" xlink:href="#s81:robotomono-bolditalic:81"/><use x="16266.5" y="6783.7" xlink:href="#s81:robotomono-bolditalic:84"/><use x="17468.5" y="6783.7" xlink:href="#s81:robotomono-bolditalic:3"/><use x="18670.5" y="6783.7" xlink:href="#s81:robotomono-bolditalic:85"/><use x="19872.5" y="6783.7" xlink:href="#s81:robotomono-bolditalic:69"/><use x="21074.5" y="6783.7" xlink:href="#s81:robotomono-bolditalic:75"/><use x="22276.5" y="6783.7" xlink:href="#s81:robotomono-bolditalic:71"/><use x="23478.5" y="6783.7" xlink:href="#s81:robotomono-bolditalic:80"/><use x="24680.5" y="6783.7" xlink:href="#s81:robotomono-bolditalic:69"/><use x="25882.5" y="6783.7" xlink:href="#s81:robotomono-bolditalic:71"/><use x="27084.5" y="6783.7" xlink:href="#s81:robotomono-bolditalic:14"/><use x="28286.5" y="6783.7" xlink:href="#s81:robotomono-bolditalic:3"/><use x="29488.5" y="6783.7" xlink:href="#s81:robotomono-bolditalic:79"/><use x="30690.5" y="6783.7" xlink:href="#s81:robotomono-bolditalic:87"/><use x="31892.5" y="6783.7" xlink:href="#s81:robotomono-bolditalic:85"/><use x="33094.5" y="6783.7" xlink:href="#s81:robotomono-bolditalic:75"/><use x="34296.5" y="6783.7" xlink:href="#s81:robotomono-bolditalic:69"/><use x="35498.5" y="6783.7" xlink:href="#s81:robotomono-bolditalic:14"/><use x="36700.5" y="6783.7" xlink:href="#s81:robotomono-bolditalic:3"/><use x="37902.5" y="6783.7" xlink:href="#s81:robotomono-bolditalic:85"/><use x="39104.5" y="6783.7" xlink:href="#s81:robotomono-bolditalic:82"/><use x="40306.5" y="6783.7" xlink:href="#s81:robotomono-bolditalic:81"/><use x="41508.5" y="6783.7" xlink:href="#s81:robotomono-bolditalic:84"/><use x="42710.5" y="6783.7" xlink:href="#s81:robotomono-bolditalic:86"/><use x="43912.5" y="6783.7" xlink:href="#s81:robotomono-bolditalic:14"/><use x="45114.5" y="6783.7" xlink:href="#s81:robotomono-bolditalic:3"/><use x="46316.5" y="6783.7" xlink:href="#s81:robotomono-bolditalic:71"/><use x="47518.5" y="6783.7" xlink:href="#s81:robotomono-bolditalic:86"/><use x="48720.5" y="6783.7" xlink:href="#s81:robotomono-bolditalic:69"/><use x="49922.5" y="6783.7" xlink:href="#s81:robotomono-bolditalic:14"/></g></svg>