<svg xmlns="http://www.w3.org/2000/svg" xmlns:xlink="http://www.w3.org/1999/xlink" width="546" height="83" viewBox="0 0 46631 7065.2"><defs><path id="s79:robotocondensed-regular:56" d="M1008-1298L625-1298L625 0L442 0L442-1298L60-1298L60-1456L1008-1456L1008-1298Z"/><path id="s79:robotocondensed-regular:76" d="M309-971Q410-1102 567-1102Q854-1102 858-719L858 0L682 0L682-711Q682-838 639.50-891.50Q597-945 512-945Q446-945 393.50-901Q341-857 309-786L309 0L132 0L132-1536L309-1536L309-971Z"/><path id="s79:robotocondensed-regular:73" d="M519 20Q317 20 209-100.50Q101-221 99-454L99-585Q99-827 204.50-964.50Q310-1102 499-1102Q689-1102 783-981Q877-860 879-604L879-488L275-488L275-463Q275-289 340.50-210Q406-131 529-131Q607-131 666.50-160.50Q726-190 778-254L870-142Q755 20 519 20M499-950Q389-950 336-874.50Q283-799 276-640L702-640L702-664Q695-818 646.50-884Q598-950 499-950Z"/><path id="s79:robotocondensed-regular:4" d=""/><path id="s79:robotocondensed-regular:41" d="M855-673L340-673L340-157L940-157L940 0L157 0L157-1456L930-1456L930-1298L340-1298L340-830L855-830L855-673Z"/><path id="s79:robotocondensed-regular:89" d="M684-95Q596 20 427 20Q280 20 205-81.50Q130-183 129-377L129-1082L305-1082L305-390Q305-137 457-137Q618-137 679-281L679-1082L856-1082L856 0L688 0L684-95Z"/><path id="s79:robotocondensed-regular:86" d="M579-916Q542-923 499-923Q363-923 309-774L309 0L132 0L132-1082L304-1082L307-972Q378-1102 508-1102Q550-1102 578-1088L579-916Z"/><path id="s79:robotocondensed-regular:83" d="M95-591Q95-827 209.50-964.50Q324-1102 512-1102Q700-1102 814.50-968Q929-834 932-603L932-489Q932-254 818-117Q704 20 514 20Q326 20 212.50-113Q99-246 95-473L95-591M272-489Q272-322 337.50-226.50Q403-131 514-131Q748-131 755-469L755-591Q755-757 689-853.50Q623-950 512-950Q403-950 337.50-853.50Q272-757 272-592L272-489Z"/><path id="s79:robotocondensed-regular:84" d="M914-489Q914-232 821.50-106Q729 20 560 20Q397 20 309-103L309 416L133 416L133-1082L293-1082L302-962Q391-1102 557-1102Q735-1102 823-978Q911-854 914-607L914-489M738-590Q738-772 682-858.50Q626-945 502-945Q375-945 309-818L309-255Q374-131 504-131Q624-131 680.50-217.50Q737-304 738-482L738-590Z"/><path id="s79:robotocondensed-regular:69" d="M689 0Q673-35 666-118Q572 20 426 20Q279 20 196.50-62.50Q114-145 114-295Q114-460 226-557Q338-654 533-656L663-656L663-771Q663-868 620-909Q577-950 489-950Q409-950 359-902.50Q309-855 309-782L132-782Q132-865 181-940.50Q230-1016 313-1059Q396-1102 498-1102Q664-1102 750.50-1019.50Q837-937 839-779L839-233Q840-108 873-16L873 0L689 0M453-141Q518-141 577-177Q636-213 663-267L663-525L563-525Q437-523 364-468.50Q291-414 291-316Q291-224 328-182.50Q365-141 453-141Z"/><path id="s79:robotocondensed-regular:82" d="M299-1082L304-965Q407-1102 567-1102Q854-1102 858-719L858 0L682 0L682-711Q682-838 639.50-891.50Q597-945 512-945Q446-945 393.50-901Q341-857 309-786L309 0L132 0L132-1082L299-1082Z"/><path id="s79:robotocondensed-regular:80" d="M323 0L146 0L146-1536L323-1536L323 0Z"/><path id="s79:robotocondensed-regular:75" d="M97-590Q97-843 189-972.50Q281-1102 458-1102Q623-1102 709-961L718-1082L878-1082L878 10Q878 211 775 318.50Q672 426 488 426Q408 426 308.50 386.50Q209 347 159 289L231 167Q341 275 474 275Q695 275 701 34L701-107Q615 20 457 20Q289 20 195-106.50Q101-233 97-470L97-590M274-489Q274-307 327.50-221.50Q381-136 503-136Q635-136 701-271L701-812Q632-945 505-945Q383-945 329-859.50Q275-774 274-597L274-489Z"/><path id="s79:robotocondensed-regular:87" d="M658-277Q658-334 615-375Q572-416 449-471Q306-530 247.50-572Q189-614 160-667.50Q131-721 131-795Q131-927 227.50-1014.50Q324-1102 474-1102Q632-1102 728-1010Q824-918 824-774L648-774Q648-847 599-898.50Q550-950 474-950Q396-950 351.50-909.50Q307-869 307-801Q307-747 339.50-714Q372-681 496-627Q693-550 764-476.50Q835-403 835-290Q835-149 738-64.50Q641 20 478 20Q309 20 204-77Q99-174 99-323L277-323Q280-233 332-182Q384-131 478-131Q566-131 612-170.50Q658-210 658-277Z"/><path id="s79:robotocondensed-regular:81" d="M299-1082L303-982Q402-1102 564-1102Q745-1102 817-945Q919-1102 1101-1102Q1400-1102 1407-729L1407 0L1231 0L1231-712Q1231-830 1189-887.50Q1147-945 1047-945Q967-945 917-883Q867-821 859-725L859 0L681 0L681-720Q678-945 498-945Q364-945 309-811L309 0L133 0L133-1082L299-1082Z"/><path id="s79:robotocondensed-regular:70" d="M916-489Q916-236 825-108Q734 20 561 20Q389 20 303-128L294 0L133 0L133-1536L309-1536L309-963Q396-1102 559-1102Q737-1102 826-976Q915-850 916-596L916-489M740-590Q740-782 686.50-863.50Q633-945 513-945Q376-945 309-797L309-282Q375-136 515-136Q635-136 687-220Q739-304 740-481L740-590Z"/><path id="s79:robotocondensed-regular:74" d="M210 0L210-939L69-939L69-1082L210-1082L210-1207Q213-1372 293.50-1464.50Q374-1557 521-1557Q574-1557 628-1540L619-1390Q581-1399 538-1399Q387-1399 387-1184L387-1082L572-1082L572-939L387-939L387 0L210 0Z"/><path id="s79:robotocondensed-regular:88" d="M364-1344L364-1082L527-1082L527-939L364-939L364-268Q364-204 385-171Q406-138 457-138Q492-138 528-150L526 0Q466 20 403 20Q298 20 243-55Q188-130 188-267L188-939L23-939L23-1082L188-1082L188-1344L364-1344Z"/><path id="s79:robotocondensed-regular:77" d="M323 0L146 0L146-1082L323-1082L323 0M337-1369Q337-1324 312-1294Q287-1264 236-1264Q186-1264 161-1294Q136-1324 136-1369Q136-1414 161-1445Q186-1476 236-1476Q286-1476 311.50-1444.50Q337-1413 337-1369Z"/><path id="s79:robotocondensed-regular:93" d="M428-294L625-1082L813-1082L459 153Q419 292 346 364.50Q273 437 180 437Q144 437 88 421L88 271L127 275Q204 275 247.50 238.50Q291 202 318 112L353-9L35-1082L228-1082L428-294Z"/><path id="s79:robotocondensed-regular:18" d="M144-97Q144-145 172.50-177Q201-209 258-209Q315-209 344.50-177Q374-145 374-97Q374-51 344.50-20Q315 11 258 11Q201 11 172.50-20Q144-51 144-97Z"/><path id="s79:robotocondensed-regular:92" d="M445-687L630-1082L835-1082L541-547L842 0L639 0L448-405L256 0L52 0L353-547L60-1082L263-1082L445-687Z"/><path id="s79:robotocondensed-regular:71" d="M508-131Q596-131 649-185.50Q702-240 707-341L874-341Q868-185 763.50-82.50Q659 20 508 20Q307 20 201.50-106.50Q96-233 96-483L96-602Q96-847 201-974.50Q306-1102 507-1102Q673-1102 770.50-997Q868-892 874-710L707-710Q701-830 649.50-890Q598-950 507-950Q389-950 332-872.50Q275-795 273-618L273-480Q273-289 329.50-210Q386-131 508-131Z"/><path id="s79:robotocondensed-regular:42" d="M832-643L340-643L340 0L157 0L157-1456L915-1456L915-1298L340-1298L340-800L832-800L832-643Z"/><path id="s79:robotocondensed-regular:16" d="M134 290L29 218Q123 87 127-52L127-219L308-219L308-74Q308 27 258.50 128Q209 229 134 290Z"/></defs><g id="line-0"><use x="0" y="1650" xlink:href="#s79:robotocondensed-regular:56"/><use x="1066" y="1650" xlink:href="#s79:robotocondensed-regular:76"/><use x="2055" y="1650" xlink:href="#s79:robotocondensed-regular:73"/><use x="3014" y="1650" xlink:href="#s79:robotocondensed-regular:4"/><use x="3483" y="1650" xlink:href="#s79:robotocondensed-regular:41"/><use x="4483" y="1650" xlink:href="#s79:robotocondensed-regular:89"/><use x="5473" y="1650" xlink:href="#s79:robotocondensed-regular:86"/><use x="6076" y="1650" xlink:href="#s79:robotocondensed-regular:83"/><use x="7104" y="1650" xlink:href="#s79:robotocondensed-regular:84"/><use x="8114" y="1650" xlink:href="#s79:robotocondensed-regular:73"/><use x="9073" y="1650" xlink:href="#s79:robotocondensed-regular:69"/><use x="10054" y="1650" xlink:href="#s79:robotocondensed-regular:82"/><use x="11045" y="1650" xlink:href="#s79:robotocondensed-regular:4"/><use x="11514" y="1650" xlink:href="#s79:robotocondensed-regular:80"/><use x="11983" y="1650" xlink:href="#s79:robotocondensed-regular:69"/><use x="12964" y="1650" xlink:href="#s79:robotocondensed-regular:82"/><use x="13955" y="1650" xlink:href="#s79:robotocondensed-regular:75"/><use x="14964" y="1650" xlink:href="#s79:robotocondensed-regular:89"/><use x="15954" y="1650" xlink:href="#s79:robotocondensed-regular:69"/><use x="16935" y="1650" xlink:href="#s79:robotocondensed-regular:75"/><use x="17944" y="1650" xlink:href="#s79:robotocondensed-regular:73"/><use x="18903" y="1650" xlink:href="#s79:robotocondensed-regular:87"/><use x="19836" y="1650" xlink:href="#s79:robotocondensed-regular:4"/><use x="20305" y="1650" xlink:href="#s79:robotocondensed-regular:69"/><use x="21286" y="1650" xlink:href="#s79:robotocondensed-regular:86"/><use x="21890" y="1650" xlink:href="#s79:robotocondensed-regular:73"/><use x="22849" y="1650" xlink:href="#s79:robotocondensed-regular:4"/><use x="23318" y="1650" xlink:href="#s79:robotocondensed-regular:81"/><use x="24859" y="1650" xlink:href="#s79:robotocondensed-regular:73"/><use x="25818" y="1650" xlink:href="#s79:robotocondensed-regular:81"/><use x="27359" y="1650" xlink:href="#s79:robotocondensed-regular:70"/><use x="28369" y="1650" xlink:href="#s79:robotocondensed-regular:73"/><use x="29328" y="1650" xlink:href="#s79:robotocondensed-regular:86"/><use x="29951" y="1650" xlink:href="#s79:robotocondensed-regular:87"/><use x="30884" y="1650" xlink:href="#s79:robotocondensed-regular:4"/><use x="31353" y="1650" xlink:href="#s79:robotocondensed-regular:83"/><use x="32381" y="1650" xlink:href="#s79:robotocondensed-regular:74"/><use x="33029" y="1650" xlink:href="#s79:robotocondensed-regular:4"/><use x="33498" y="1650" xlink:href="#s79:robotocondensed-regular:88"/><use x="34103" y="1650" xlink:href="#s79:robotocondensed-regular:76"/><use x="35092" y="1650" xlink:href="#s79:robotocondensed-regular:73"/><use x="36051" y="1650" xlink:href="#s79:robotocondensed-regular:4"/><use x="36520" y="1650" xlink:href="#s79:robotocondensed-regular:87"/><use x="37453" y="1650" xlink:href="#s79:robotocondensed-regular:69"/><use x="38434" y="1650" xlink:href="#s79:robotocondensed-regular:81"/><use x="39975" y="1650" xlink:href="#s79:robotocondensed-regular:73"/><use x="40934" y="1650" xlink:href="#s79:robotocondensed-regular:4"/><use x="41403" y="1650" xlink:href="#s79:robotocondensed-regular:74"/><use x="42051" y="1650" xlink:href="#s79:robotocondensed-regular:69"/><use x="43032" y="1650" xlink:href="#s79:robotocondensed-regular:81"/><use x="44573" y="1650" xlink:href="#s79:robotocondensed-regular:77"/><use x="45042" y="1650" xlink:href="#s79:robotocondensed-regular:80"/><use x="45511" y="1650" xlink:href="#s79:robotocondensed-regular:93"/><use x="46257" y="1650" xlink:href="#s79:robotocondensed-regular:18"/></g><g id="line-1"><use x="9352" y="4107.6" xlink:href="#s79:robotocondensed-regular:56"/><use x="10418" y="4107.6" xlink:href="#s79:robotocondensed-regular:76"/><use x="11407" y="4107.6" xlink:href="#s79:robotocondensed-regular:73"/><use x="12366" y="4107.6" xlink:href="#s79:robotocondensed-regular:77"/><use x="12835" y="4107.6" xlink:href="#s79:robotocondensed-regular:86"/><use x="13458" y="4107.6" xlink:href="#s79:robotocondensed-regular:4"/><use x="13927" y="4107.6" xlink:href="#s79:robotocondensed-regular:87"/><use x="14860" y="4107.6" xlink:href="#s79:robotocondensed-regular:73"/><use x="15819" y="4107.6" xlink:href="#s79:robotocondensed-regular:84"/><use x="16829" y="4107.6" xlink:href="#s79:robotocondensed-regular:69"/><use x="17810" y="4107.6" xlink:href="#s79:robotocondensed-regular:86"/><use x="18393" y="4107.6" xlink:href="#s79:robotocondensed-regular:69"/><use x="19374" y="4107.6" xlink:href="#s79:robotocondensed-regular:88"/><use x="19979" y="4107.6" xlink:href="#s79:robotocondensed-regular:73"/><use x="20938" y="4107.6" xlink:href="#s79:robotocondensed-regular:4"/><use x="21407" y="4107.6" xlink:href="#s79:robotocondensed-regular:73"/><use x="22366" y="4107.6" xlink:href="#s79:robotocondensed-regular:92"/><use x="23265" y="4107.6" xlink:href="#s79:robotocondensed-regular:77"/><use x="23734" y="4107.6" xlink:href="#s79:robotocondensed-regular:87"/><use x="24667" y="4107.6" xlink:href="#s79:robotocondensed-regular:88"/><use x="25272" y="4107.6" xlink:href="#s79:robotocondensed-regular:73"/><use x="26231" y="4107.6" xlink:href="#s79:robotocondensed-regular:82"/><use x="27222" y="4107.6" xlink:href="#s79:robotocondensed-regular:71"/><use x="28168" y="4107.6" xlink:href="#s79:robotocondensed-regular:73"/><use x="29127" y="4107.6" xlink:href="#s79:robotocondensed-regular:4"/><use x="29596" y="4107.6" xlink:href="#s79:robotocondensed-regular:77"/><use x="30065" y="4107.6" xlink:href="#s79:robotocondensed-regular:87"/><use x="30998" y="4107.6" xlink:href="#s79:robotocondensed-regular:4"/><use x="31467" y="4107.6" xlink:href="#s79:robotocondensed-regular:69"/><use x="32448" y="4107.6" xlink:href="#s79:robotocondensed-regular:4"/><use x="32917" y="4107.6" xlink:href="#s79:robotocondensed-regular:81"/><use x="34458" y="4107.6" xlink:href="#s79:robotocondensed-regular:93"/><use x="35311" y="4107.6" xlink:href="#s79:robotocondensed-regular:88"/><use x="35916" y="4107.6" xlink:href="#s79:robotocondensed-regular:76"/><use x="36905" y="4107.6" xlink:href="#s79:robotocondensed-regular:18"/></g><g id="line-2"><use x="11418" y="6565.2" xlink:href="#s79:robotocondensed-regular:42"/><use x="12381" y="6565.2" xlink:href="#s79:robotocondensed-regular:83"/><use x="13409" y="6565.2" xlink:href="#s79:robotocondensed-regular:86"/><use x="14032" y="6565.2" xlink:href="#s79:robotocondensed-regular:4"/><use x="14501" y="6565.2" xlink:href="#s79:robotocondensed-regular:87"/><use x="15434" y="6565.2" xlink:href="#s79:robotocondensed-regular:71"/><use x="16380" y="6565.2" xlink:href="#s79:robotocondensed-regular:77"/><use x="16849" y="6565.2" xlink:href="#s79:robotocondensed-regular:73"/><use x="17808" y="6565.2" xlink:href="#s79:robotocondensed-regular:82"/><use x="18799" y="6565.2" xlink:href="#s79:robotocondensed-regular:71"/><use x="19745" y="6565.2" xlink:href="#s79:robotocondensed-regular:73"/><use x="20704" y="6565.2" xlink:href="#s79:robotocondensed-regular:16"/><use x="21106" y="6565.2" xlink:href="#s79:robotocondensed-regular:4"/><use x="21575" y="6565.2" xlink:href="#s79:robotocondensed-regular:81"/><use x="23116" y="6565.2" xlink:href="#s79:robotocondensed-regular:89"/><use x="24106" y="6565.2" xlink:href="#s79:robotocondensed-regular:87"/><use x="25039" y="6565.2" xlink:href="#s79:robotocondensed-regular:77"/><use x="25508" y="6565.2" xlink:href="#s79:robotocondensed-regular:71"/><use x="26454" y="6565.2" xlink:href="#s79:robotocondensed-regular:16"/><use x="26856" y="6565.2" xlink:href="#s79:robotocondensed-regular:4"/><use x="27325" y="6565.2" xlink:href="#s79:robotocondensed-regular:87"/><use x="28258" y="6565.2" xlink:href="#s79:robotocondensed-regular:84"/><use x="29268" y="6565.2" xlink:href="#s79:robotocondensed-regular:83"/><use x="30296" y="6565.2" xlink:href="#s79:robotocondensed-regular:86"/><use x="30919" y="6565.2" xlink:href="#s79:robotocondensed-regular:88"/><use x="31524" y="6565.2" xlink:href="#s79:robotocondensed-regular:16"/><use x="31926" y="6565.2" xlink:href="#s79:robotocondensed-regular:4"/><use x="32395" y="6565.2" xlink:href="#s79:robotocondensed-regular:73"/><use x="33354" y="6565.2" xlink:href="#s79:robotocondensed-regular:88"/><use x="33959" y="6565.2" xlink:href="#s79:robotocondensed-regular:71"/><use x="34905" y="6565.2" xlink:href="#s79:robotocondensed-regular:16"/></g></svg>