<svg xmlns="http://www.w3.org/2000/svg" xmlns:xlink="http://www.w3.org/1999/xlink" width="535" height="83" viewBox="0 0 45672 7065.2"><defs><path id="s76:robotocondensed-italic:56" d="M1099-1298L728-1298L503 0L324 0L549-1298L178-1298L206-1456L1127-1456L1099-1298Z"/><path id="s76:robotocondensed-italic:76" d="M356-970Q477-1105 619-1101Q723-1100 782.50-1032.50Q842-965 850-844Q854-775 847-709L729 0L557 0L676-712L680-791Q680-944 554-947Q451-950 362-830L332-787L196 0L23 0L290-1536L463-1536L356-970Z"/><path id="s76:robotocondensed-italic:73" d="M427 20Q245 18 155-111Q65-240 89-463L102-570Q133-822 255.50-964.50Q378-1107 567-1102Q721-1098 798.50-996.50Q876-895 872-711L863-591L848-488L268-489Q255-399 256-348Q258-247 306-189.50Q354-132 443-131Q507-129 569.50-156.50Q632-184 701-253L782-140Q718-56 624-17Q530 22 427 20M556-951Q379-959 308-737L281-640L696-639L701-665Q707-711 707-761Q703-943 556-951Z"/><path id="s76:robotocondensed-italic:4" d=""/><path id="s76:robotocondensed-italic:41" d="M843-673L344-673L254-157L836-157L808 0L48 0L300-1456L1052-1456L1024-1298L452-1298L370-830L870-830L843-673Z"/><path id="s76:robotocondensed-italic:89" d="M584-95Q479 25 325 21Q210 19 148.50-63Q87-145 87-292L92-383L209-1082L380-1082L264-380L260-307Q256-234 283.50-186.50Q311-139 366-137Q511-130 604-280L742-1082L915-1082L728 0L565 0L584-95Z"/><path id="s76:robotocondensed-italic:86" d="M623-917Q580-926 546-926Q415-926 330-775L196 0L23 0L211-1082L378-1083L354-972Q449-1107 568-1104Q592-1103 642-1089L623-917Z"/><path id="s76:robotocondensed-italic:83" d="M94-589Q127-822 253.50-964.50Q380-1107 573-1102Q693-1099 773-1032.50Q853-966 887.50-849Q922-732 906-591L894-489Q861-257 734-116Q607 25 415 20Q295 17 215-49Q135-115 100.50-232Q66-349 82-489L94-589M249-416Q246-282 290.50-208Q335-134 425-130Q541-125 617-212.50Q693-300 719-475L734-592L739-664Q742-799 696.50-873Q651-947 562-951Q444-956 365.50-853.50Q287-751 264-569L252-470L249-416Z"/><path id="s76:robotocondensed-italic:84" d="M453 21Q299 17 221-104L124 416L-48 416L212-1082L367-1083L347-962Q457-1105 610-1103Q754-1101 825-995.50Q896-890 890-703Q887-616 867-476Q847-336 808-241Q698 28 453 21M718-745Q703-943 548-946Q430-949 338-819L241-254Q289-136 407-130Q524-125 599-213Q674-301 698-487Q722-673 718-745Z"/><path id="s76:robotocondensed-italic:69" d="M578 0Q572-30 573-59L577-118Q462 21 329 21Q199 21 126.50-63.50Q54-148 62-287Q73-455 200.50-556Q328-657 535-657L655-657L672-772Q690-951 537-951Q458-951 405.50-904.50Q353-858 339-783L168-782Q181-919 292.50-1012Q404-1105 555-1103Q701-1101 779.50-1013.50Q858-926 843-769L755-236Q746-179 748-127L754-17L752 0L578 0M365-139Q495-139 589-266L634-525L555-526Q453-526 374-488.50Q295-451 262.50-384.50Q230-318 240-240Q253-139 365-139Z"/><path id="s76:robotocondensed-italic:82" d="M373-1083L350-965Q468-1104 618-1102Q721-1101 781.50-1032Q842-963 850-844Q854-775 847-709L729 0L557 0L676-712L680-791Q680-944 554-947Q451-950 362-830L332-787L196 0L23 0L211-1082L373-1083Z"/><path id="s76:robotocondensed-italic:80" d="M210 0L37 0L304-1536L477-1536L210 0Z"/><path id="s76:robotocondensed-italic:75" d="M514-1102Q673-1098 743-960L779-1082L936-1082L751 9Q734 137 675.50 234Q617 331 524 381Q431 431 312 427Q227 425 141 385.50Q55 346 2 285L84 166Q181 272 305 276Q414 280 484.50 215Q555 150 578 19L604-107Q497 24 354 20Q215 18 142.50-88Q70-194 72-379Q72-458 91-595Q126-846 232.50-976.50Q339-1107 514-1102M244-337Q249-138 408-135Q528-132 623-270L716-813Q664-941 550-946Q310-955 263-592Q240-417 244-337Z"/><path id="s76:robotocondensed-italic:87" d="M587-285Q600-380 481-443L347-513Q243-571 201.50-636Q160-701 165-787Q173-924 277-1014Q381-1104 531-1102Q676-1098 758-1006.50Q840-915 834-773L663-773Q665-854 627-900.50Q589-947 521-949Q444-949 394-905.50Q344-862 334-793Q322-712 413-660L582-574Q769-470 759-298Q749-151 641-63.50Q533 24 378 20Q229 18 136-77.50Q43-173 49-324L223-323Q221-229 264-180.50Q307-132 386-132Q469-132 523.50-174Q578-216 587-285Z"/><path id="s76:robotocondensed-italic:81" d="M373-1083L352-982Q467-1106 618-1102Q697-1100 756.50-1061Q816-1022 841-946Q970-1105 1136-1103Q1245-1100 1308-1034Q1371-968 1381-850Q1387-781 1380-711L1261 0L1090 0L1208-713L1211-797Q1209-868 1173.50-907.50Q1138-947 1072-947Q993-949 930-883Q867-817 853-726L853-721L730 0L556 0L675-712Q679-752 677-794Q670-941 541-946Q418-948 336-812L196 0L24 0L212-1082L373-1083Z"/><path id="s76:robotocondensed-italic:70" d="M455 20Q289 14 220-129L183 0L24 0L291-1536L463-1536L354-963Q461-1106 612-1102Q753-1100 824.50-998.50Q896-897 892-703Q888-596 868-464Q848-332 809-238Q700 27 455 20M722-744Q717-849 676-897Q635-945 557-947Q430-950 334-798L246-281Q293-140 420-135Q537-130 608-217.50Q679-305 701.50-494.50Q724-684 722-744Z"/><path id="s76:robotocondensed-italic:74" d="M99 0L262-939L125-939L150-1082L287-1082L301-1189Q325-1369 418.50-1465Q512-1561 657-1559Q709-1557 769-1540L744-1391Q704-1401 664-1403Q510-1403 475-1184L459-1082L639-1082L614-939L435-939L272 0L99 0Z"/><path id="s76:robotocondensed-italic:88" d="M483-1344L437-1082L596-1082L571-939L413-939L299-266L297-226Q293-141 358-141Q382-140 430-151L415 0Q359 20 302 18Q211 18 165-57Q119-132 131-269L241-939L80-939L106-1082L265-1082L311-1344L483-1344Z"/><path id="s76:robotocondensed-italic:77" d="M210 0L37 0L225-1082L398-1082L210 0M265-1368Q267-1411 293-1443Q319-1475 364-1477Q407-1479 435-1448Q463-1417 461-1371Q459-1327 432.50-1295.50Q406-1264 361-1263Q317-1261 290-1292Q263-1323 265-1368Z"/><path id="s76:robotocondensed-italic:93" d="M359-297L687-1082L876-1082L316 168Q259 304 180.50 373.50Q102 443 10 440Q-21 439-88 422L-71 272L-34 278Q97 284 170 144L243-20L121-1082L303-1082L359-297Z"/><path id="s76:robotocondensed-italic:18" d="M164-210Q213-211 245-180Q277-149 276-100Q275-51 243-20.50Q211 10 163 12Q115 14 84-15.50Q53-45 53-94Q53-143 84-175.50Q115-208 164-210Z"/><path id="s76:robotocondensed-italic:92" d="M441-689L682-1082L891-1082L515-538L719 0L530 0L409-404L160 0L-49 0L336-556L138-1082L327-1082L441-689Z"/><path id="s76:robotocondensed-italic:71" d="M414-129Q499-126 557-182Q615-238 638-340L801-341Q778-181 666-78Q554 25 404 21Q261 18 176-65Q91-148 74-298Q64-388 75-479L89-588Q122-841 243.50-974Q365-1107 560-1102Q710-1098 792.50-992Q875-886 868-709L705-710Q711-945 550-951Q315-960 266-616Q235-403 241-326Q251-132 414-129Z"/><path id="s76:robotocondensed-italic:42" d="M815-643L338-643L227 0L48 0L300-1456L1037-1456L1009-1298L452-1298L365-800L843-800L815-643Z"/><path id="s76:robotocondensed-italic:16" d="M-9 291L-113 216Q3 73 31-68L57-219L234-219L213-84Q177 144-9 291Z"/></defs><g id="line-0"><use x="0" y="1650" xlink:href="#s76:robotocondensed-italic:56"/><use x="1044" y="1650" xlink:href="#s76:robotocondensed-italic:76"/><use x="2013" y="1650" xlink:href="#s76:robotocondensed-italic:73"/><use x="2953" y="1650" xlink:href="#s76:robotocondensed-italic:4"/><use x="3418" y="1650" xlink:href="#s76:robotocondensed-italic:41"/><use x="4397" y="1650" xlink:href="#s76:robotocondensed-italic:89"/><use x="5367" y="1650" xlink:href="#s76:robotocondensed-italic:86"/><use x="5961" y="1650" xlink:href="#s76:robotocondensed-italic:83"/><use x="6968" y="1650" xlink:href="#s76:robotocondensed-italic:84"/><use x="7958" y="1650" xlink:href="#s76:robotocondensed-italic:73"/><use x="8898" y="1650" xlink:href="#s76:robotocondensed-italic:69"/><use x="9860" y="1650" xlink:href="#s76:robotocondensed-italic:82"/><use x="10831" y="1650" xlink:href="#s76:robotocondensed-italic:4"/><use x="11296" y="1650" xlink:href="#s76:robotocondensed-italic:80"/><use x="11761" y="1650" xlink:href="#s76:robotocondensed-italic:69"/><use x="12723" y="1650" xlink:href="#s76:robotocondensed-italic:82"/><use x="13694" y="1650" xlink:href="#s76:robotocondensed-italic:75"/><use x="14683" y="1650" xlink:href="#s76:robotocondensed-italic:89"/><use x="15653" y="1650" xlink:href="#s76:robotocondensed-italic:69"/><use x="16615" y="1650" xlink:href="#s76:robotocondensed-italic:75"/><use x="17604" y="1650" xlink:href="#s76:robotocondensed-italic:73"/><use x="18544" y="1650" xlink:href="#s76:robotocondensed-italic:87"/><use x="19459" y="1650" xlink:href="#s76:robotocondensed-italic:4"/><use x="19924" y="1650" xlink:href="#s76:robotocondensed-italic:69"/><use x="20886" y="1650" xlink:href="#s76:robotocondensed-italic:86"/><use x="21481" y="1650" xlink:href="#s76:robotocondensed-italic:73"/><use x="22421" y="1650" xlink:href="#s76:robotocondensed-italic:4"/><use x="22886" y="1650" xlink:href="#s76:robotocondensed-italic:81"/><use x="24391" y="1650" xlink:href="#s76:robotocondensed-italic:73"/><use x="25331" y="1650" xlink:href="#s76:robotocondensed-italic:81"/><use x="26836" y="1650" xlink:href="#s76:robotocondensed-italic:70"/><use x="27826" y="1650" xlink:href="#s76:robotocondensed-italic:73"/><use x="28766" y="1650" xlink:href="#s76:robotocondensed-italic:86"/><use x="29380" y="1650" xlink:href="#s76:robotocondensed-italic:87"/><use x="30295" y="1650" xlink:href="#s76:robotocondensed-italic:4"/><use x="30760" y="1650" xlink:href="#s76:robotocondensed-italic:83"/><use x="31767" y="1650" xlink:href="#s76:robotocondensed-italic:74"/><use x="32406" y="1650" xlink:href="#s76:robotocondensed-italic:4"/><use x="32871" y="1650" xlink:href="#s76:robotocondensed-italic:88"/><use x="33468" y="1650" xlink:href="#s76:robotocondensed-italic:76"/><use x="34437" y="1650" xlink:href="#s76:robotocondensed-italic:73"/><use x="35377" y="1650" xlink:href="#s76:robotocondensed-italic:4"/><use x="35842" y="1650" xlink:href="#s76:robotocondensed-italic:87"/><use x="36757" y="1650" xlink:href="#s76:robotocondensed-italic:69"/><use x="37719" y="1650" xlink:href="#s76:robotocondensed-italic:81"/><use x="39224" y="1650" xlink:href="#s76:robotocondensed-italic:73"/><use x="40164" y="1650" xlink:href="#s76:robotocondensed-italic:4"/><use x="40629" y="1650" xlink:href="#s76:robotocondensed-italic:74"/><use x="41268" y="1650" xlink:href="#s76:robotocondensed-italic:69"/><use x="42230" y="1650" xlink:href="#s76:robotocondensed-italic:81"/><use x="43735" y="1650" xlink:href="#s76:robotocondensed-italic:77"/><use x="44200" y="1650" xlink:href="#s76:robotocondensed-italic:80"/><use x="44665" y="1650" xlink:href="#s76:robotocondensed-italic:93"/><use x="45395" y="1650" xlink:href="#s76:robotocondensed-italic:18"/></g><g id="line-1"><use x="9165" y="4107.6" xlink:href="#s76:robotocondensed-italic:56"/><use x="10209" y="4107.6" xlink:href="#s76:robotocondensed-italic:76"/><use x="11178" y="4107.6" xlink:href="#s76:robotocondensed-italic:73"/><use x="12118" y="4107.6" xlink:href="#s76:robotocondensed-italic:77"/><use x="12583" y="4107.6" xlink:href="#s76:robotocondensed-italic:86"/><use x="13197" y="4107.6" xlink:href="#s76:robotocondensed-italic:4"/><use x="13662" y="4107.6" xlink:href="#s76:robotocondensed-italic:87"/><use x="14577" y="4107.6" xlink:href="#s76:robotocondensed-italic:73"/><use x="15517" y="4107.6" xlink:href="#s76:robotocondensed-italic:84"/><use x="16507" y="4107.6" xlink:href="#s76:robotocondensed-italic:69"/><use x="17469" y="4107.6" xlink:href="#s76:robotocondensed-italic:86"/><use x="18043" y="4107.6" xlink:href="#s76:robotocondensed-italic:69"/><use x="19005" y="4107.6" xlink:href="#s76:robotocondensed-italic:88"/><use x="19602" y="4107.6" xlink:href="#s76:robotocondensed-italic:73"/><use x="20542" y="4107.6" xlink:href="#s76:robotocondensed-italic:4"/><use x="21007" y="4107.6" xlink:href="#s76:robotocondensed-italic:73"/><use x="21947" y="4107.6" xlink:href="#s76:robotocondensed-italic:92"/><use x="22829" y="4107.6" xlink:href="#s76:robotocondensed-italic:77"/><use x="23294" y="4107.6" xlink:href="#s76:robotocondensed-italic:87"/><use x="24209" y="4107.6" xlink:href="#s76:robotocondensed-italic:88"/><use x="24806" y="4107.6" xlink:href="#s76:robotocondensed-italic:73"/><use x="25746" y="4107.6" xlink:href="#s76:robotocondensed-italic:82"/><use x="26717" y="4107.6" xlink:href="#s76:robotocondensed-italic:71"/><use x="27645" y="4107.6" xlink:href="#s76:robotocondensed-italic:73"/><use x="28585" y="4107.6" xlink:href="#s76:robotocondensed-italic:4"/><use x="29050" y="4107.6" xlink:href="#s76:robotocondensed-italic:77"/><use x="29515" y="4107.6" xlink:href="#s76:robotocondensed-italic:87"/><use x="30430" y="4107.6" xlink:href="#s76:robotocondensed-italic:4"/><use x="30895" y="4107.6" xlink:href="#s76:robotocondensed-italic:69"/><use x="31857" y="4107.6" xlink:href="#s76:robotocondensed-italic:4"/><use x="32322" y="4107.6" xlink:href="#s76:robotocondensed-italic:81"/><use x="33827" y="4107.6" xlink:href="#s76:robotocondensed-italic:93"/><use x="34664" y="4107.6" xlink:href="#s76:robotocondensed-italic:88"/><use x="35261" y="4107.6" xlink:href="#s76:robotocondensed-italic:76"/><use x="36230" y="4107.6" xlink:href="#s76:robotocondensed-italic:18"/></g><g id="line-2"><use x="11178" y="6565.2" xlink:href="#s76:robotocondensed-italic:42"/><use x="12121" y="6565.2" xlink:href="#s76:robotocondensed-italic:83"/><use x="13128" y="6565.2" xlink:href="#s76:robotocondensed-italic:86"/><use x="13742" y="6565.2" xlink:href="#s76:robotocondensed-italic:4"/><use x="14207" y="6565.2" xlink:href="#s76:robotocondensed-italic:87"/><use x="15122" y="6565.2" xlink:href="#s76:robotocondensed-italic:71"/><use x="16050" y="6565.2" xlink:href="#s76:robotocondensed-italic:77"/><use x="16515" y="6565.2" xlink:href="#s76:robotocondensed-italic:73"/><use x="17455" y="6565.2" xlink:href="#s76:robotocondensed-italic:82"/><use x="18426" y="6565.2" xlink:href="#s76:robotocondensed-italic:71"/><use x="19354" y="6565.2" xlink:href="#s76:robotocondensed-italic:73"/><use x="20294" y="6565.2" xlink:href="#s76:robotocondensed-italic:16"/><use x="20694" y="6565.2" xlink:href="#s76:robotocondensed-italic:4"/><use x="21159" y="6565.2" xlink:href="#s76:robotocondensed-italic:81"/><use x="22664" y="6565.2" xlink:href="#s76:robotocondensed-italic:89"/><use x="23634" y="6565.2" xlink:href="#s76:robotocondensed-italic:87"/><use x="24549" y="6565.2" xlink:href="#s76:robotocondensed-italic:77"/><use x="25014" y="6565.2" xlink:href="#s76:robotocondensed-italic:71"/><use x="25942" y="6565.2" xlink:href="#s76:robotocondensed-italic:16"/><use x="26342" y="6565.2" xlink:href="#s76:robotocondensed-italic:4"/><use x="26807" y="6565.2" xlink:href="#s76:robotocondensed-italic:87"/><use x="27722" y="6565.2" xlink:href="#s76:robotocondensed-italic:84"/><use x="28712" y="6565.2" xlink:href="#s76:robotocondensed-italic:83"/><use x="29719" y="6565.2" xlink:href="#s76:robotocondensed-italic:86"/><use x="30333" y="6565.2" xlink:href="#s76:robotocondensed-italic:88"/><use x="30930" y="6565.2" xlink:href="#s76:robotocondensed-italic:16"/><use x="31330" y="6565.2" xlink:href="#s76:robotocondensed-italic:4"/><use x="31795" y="6565.2" xlink:href="#s76:robotocondensed-italic:73"/><use x="32735" y="6565.2" xlink:href="#s76:robotocondensed-italic:88"/><use x="33332" y="6565.2" xlink:href="#s76:robotocondensed-italic:71"/><use x="34260" y="6565.2" xlink:href="#s76:robotocondensed-italic:16"/></g></svg>