<svg xmlns="http://www.w3.org/2000/svg" xmlns:xlink="http://www.w3.org/1999/xlink" width="754" height="86" viewBox="0 0 64346 7338.7"><defs><path id="s84:robotomono-lightitalic:54" d="M1236-1351L787-1351L552 0L436 0L671-1351L220-1351L239-1456L1255-1456L1236-1351Z"/><path id="s84:robotomono-lightitalic:74" d="M346-873Q380-923 421.50-965.50Q463-1008 512.50-1038.50Q562-1069 618-1086Q674-1103 737-1102Q826-1100 886.50-1065.50Q947-1031 982.50-974.50Q1018-918 1029.50-844.50Q1041-771 1032-691L916 0L797 0L913-692Q920-752 913-806.50Q906-861 881.50-903Q857-945 813-970Q769-995 702-997Q641-998 587-980Q533-962 486-929.50Q439-897 400.50-853Q362-809 332-760L201 0L82 0L349-1536L468-1536L346-873Z"/><path id="s84:robotomono-lightitalic:71" d="M539 20Q430 17 349-28Q268-73 216.50-146Q165-219 143-313Q121-407 131-507L136-551Q145-620 168.50-688Q192-756 228-818Q264-880 312-933Q360-986 418.50-1024Q477-1062 545-1083Q613-1104 688-1102Q791-1099 864-1056Q937-1013 981.50-944Q1026-875 1042.50-787Q1059-699 1049-606L1040-533L254-533L249-509Q238-433 251.50-358Q265-283 303-222.50Q341-162 402.50-123.50Q464-85 548-82Q647-78 729.50-118Q812-158 881-226L952-169Q874-75 767-26.50Q660 22 539 20M682-1000Q601-1003 535-972Q469-941 417.50-889.50Q366-838 329-771Q292-704 269-635L932-634L935-649Q944-713 932-775Q920-837 887.50-886.50Q855-936 803-967Q751-998 682-1000Z"/><path id="s84:robotomono-lightitalic:3" d=""/><path id="s84:robotomono-lightitalic:39" d="M952-698L329-698L226-104L944-104L926 0L90 0L342-1456L1175-1456L1156-1351L442-1351L347-802L970-802L952-698Z"/><path id="s84:robotomono-lightitalic:87" d="M823-169Q755-78 662.50-27.50Q570 23 455 20Q363 18 302-20Q241-58 207-119Q173-180 163.50-257.50Q154-335 163-416L275-1082L393-1082L281-413Q274-355 277.50-297Q281-239 302-192.50Q323-146 364.50-116Q406-86 476-84Q531-82 588.50-96.50Q646-111 696.50-140.50Q747-170 785.50-213.50Q824-257 841-314L971-1082L1092-1082L903 0L792 0L823-169Z"/><path id="s84:robotomono-lightitalic:84" d="M961-1103Q1046-1103 1125-1081L1096-967Q1056-975 1016-980.50Q976-986 935-987Q864-988 792.50-969Q721-950 659.50-912.50Q598-875 551-819.50Q504-764 483-691L366 0L243 0L431-1082L546-1082L515-896L509-872Q591-983 706-1044Q821-1105 961-1103Z"/><path id="s84:robotomono-lightitalic:81" d="M119-550Q128-621 151-690Q174-759 209-821Q244-883 291.50-935.50Q339-988 397-1025.50Q455-1063 523-1083.50Q591-1104 669-1102Q743-1100 802.50-1077.50Q862-1055 907.50-1017Q953-979 984.50-927Q1016-875 1034-815.50Q1052-756 1057.50-691Q1063-626 1056-560L1052-526Q1038-419 993.50-319.50Q949-220 878.50-143.50Q808-67 712.50-22Q617 23 502 20Q392 17 313.50-30Q235-77 187.50-152.50Q140-228 122-323.50Q104-419 115-517L119-550M234-516Q226-443 235-367Q244-291 276-228Q308-165 364.50-124Q421-83 508-80Q600-77 674-116Q748-155 802-219Q856-283 889-364Q922-445 934-527L938-559Q946-632 937-709Q928-786 896-850Q864-914 807-956Q750-998 663-1001Q570-1004 496.50-964Q423-924 369-859.50Q315-795 282-713Q249-631 238-550L234-516Z"/><path id="s84:robotomono-lightitalic:82" d="M1025-536Q1016-470 997-402Q978-334 948.50-271.50Q919-209 878.50-155Q838-101 785.50-61Q733-21 669 1Q605 23 528 21Q438 19 359.50-19Q281-57 231-132L132 416L13 416L273-1082L384-1083L356-935Q421-1013 506-1058.50Q591-1104 696-1102Q769-1100 824-1076Q879-1052 918.50-1011.50Q958-971 982.50-917.50Q1007-864 1019.50-804.50Q1032-745 1033.50-681.50Q1035-618 1028-558L1025-536M909-558Q915-604 915-654Q915-704 907-752.50Q899-801 882-844.50Q865-888 835.50-921.50Q806-955 763.50-975.50Q721-996 663-998Q610-1000 563.50-985.50Q517-971 476.50-944Q436-917 402.50-880Q369-843 342-800L251-261Q283-178 350-130Q417-82 507-80Q569-78 621-96.50Q673-115 714.50-148Q756-181 788.50-226Q821-271 844.50-322Q868-373 883-428Q898-483 906-536L909-558Z"/><path id="s84:robotomono-lightitalic:67" d="M810 0Q805-39 806.50-77.50Q808-116 814-156Q736-74 635-26Q534 22 418 20Q353 18 295.50-3Q238-24 195.50-62.50Q153-101 130-155.50Q107-210 111-279Q115-348 141-401Q167-454 208-493Q249-532 302.50-558.50Q356-585 415-600.50Q474-616 535-623Q596-630 654-630L887-629L905-753Q911-812 895-857.50Q879-903 846-934.50Q813-966 766-983Q719-1000 663-1002Q608-1003 556-990Q504-977 461-949.50Q418-922 386-880.50Q354-839 340-784L223-784Q236-864 280-924Q324-984 386-1024Q448-1064 523-1083.50Q598-1103 674-1102Q752-1100 819.50-1076Q887-1052 935-1007Q983-962 1007.50-897.50Q1032-833 1024-750L937-226Q928-171 930-119Q932-67 934-13L933 0L810 0M436-86Q497-84 554-98Q611-112 661.50-140Q712-168 755-208.50Q798-249 831-299L872-537L669-538Q626-538 578.50-534.50Q531-531 484-521Q437-511 393-493Q349-475 314.50-447.50Q280-420 257.50-381Q235-342 230-289Q225-241 240.50-204Q256-167 284.50-141Q313-115 352.50-101Q392-87 436-86Z"/><path id="s84:robotomono-lightitalic:80" d="M380-1082L346-879Q380-928 421.50-969.50Q463-1011 512-1041Q561-1071 616.50-1087Q672-1103 734-1102Q822-1100 883-1065.50Q944-1031 979-975Q1014-919 1026-846Q1038-773 1029-693L913 0L794 0L910-692Q917-752 910.50-806.50Q904-861 880-903Q856-945 811.50-970.50Q767-996 699-998Q637-999 582.50-979.50Q528-960 481.50-926.50Q435-893 397-848Q359-803 331-752L201 0L82 0L270-1082L380-1082Z"/><path id="s84:robotomono-lightitalic:78" d="M376-1536L867-1536L619-106L975-106L956 0L109 0L128-106L500-106L729-1429L357-1429L376-1536Z"/><path id="s84:robotomono-lightitalic:73" d="M145-545Q154-612 173.50-679.50Q193-747 223-809.50Q253-872 293.50-926.50Q334-981 387-1021Q440-1061 504.50-1083Q569-1105 646-1103Q740-1100 816-1056.50Q892-1013 938-932L973-1082L1085-1082L903-19Q888 77 847.50 160Q807 243 744 304.50Q681 366 597 400Q513 434 411 431Q359 430 309.50 416.50Q260 403 215.50 379Q171 355 133 320.50Q95 286 67 242L140 172Q188 242 255 285.50Q322 329 409 331Q488 333 551 307Q614 281 661.50 234Q709 187 739.50 123.50Q770 60 784-13L809-136Q743-62 659-20Q575 22 474 20Q403 18 348.50-6.50Q294-31 255-72Q216-113 191-166Q166-219 152.50-279Q139-339 137-401.50Q135-464 142-523L145-545M261-524Q255-478 255-428Q255-378 262.50-330Q270-282 286.50-238Q303-194 331.50-160.50Q360-127 402-106.50Q444-86 502-84Q554-82 601-96Q648-110 689-135.50Q730-161 764.50-197Q799-233 826-275L914-792Q900-837 877-874Q854-911 822-938.50Q790-966 749.50-981.50Q709-997 661-999Q598-1001 546.50-982.50Q495-964 453.50-931Q412-898 380-853.50Q348-809 325-758Q302-707 287-652.50Q272-598 264-545L261-524Z"/><path id="s84:robotomono-lightitalic:85" d="M868-282Q874-337 849.50-374Q825-411 784.50-436Q744-461 695.50-476Q647-491 606-501Q567-511 525-523Q483-535 442.50-552Q402-569 366.50-591Q331-613 304.50-643Q278-673 263.50-711.50Q249-750 252-800Q255-853 275.50-896Q296-939 328.50-973Q361-1007 403-1031.50Q445-1056 492-1072Q539-1088 587.50-1095.50Q636-1103 682-1102Q756-1101 824.50-1080.50Q893-1060 945-1020Q997-980 1027.50-919.50Q1058-859 1057-778L939-779Q941-834 919-875Q897-916 860.50-943.50Q824-971 776-985Q728-999 678-1000Q631-1001 579.50-990.50Q528-980 483.50-957Q439-934 408-896Q377-858 371-804Q365-750 389.50-715Q414-680 454-657.50Q494-635 541.50-622.50Q589-610 630-600Q670-590 713-577.50Q756-565 796.50-547Q837-529 873-505.50Q909-482 935-450.50Q961-419 975-379Q989-339 986-289Q983-233 961.50-188Q940-143 906.50-108.50Q873-74 828.50-49Q784-24 735.50-8.50Q687 7 635.50 14Q584 21 536 20Q462 19 390-0.50Q318-20 261.50-60Q205-100 170.50-160.50Q136-221 137-304L255-304Q257-244 281.50-202Q306-160 345.50-133.50Q385-107 435.50-94.50Q486-82 540-81Q588-81 643-90.50Q698-100 745.50-123.50Q793-147 827-186Q861-225 868-282Z"/><path id="s84:robotomono-lightitalic:79" d="M276-1083L250-962Q294-1028 354.50-1066Q415-1104 496-1103Q567-1102 619.50-1067Q672-1032 686-960Q732-1024 794.50-1063.50Q857-1103 939-1102Q1003-1101 1044.50-1075Q1086-1049 1109-1007Q1132-965 1139-912Q1146-859 1140-804L1003 0L892 0L1026-805Q1030-840 1027-875Q1024-910 1010.50-937.50Q997-965 971-982Q945-999 902-999Q864-999 829.50-986.50Q795-974 767-951.50Q739-929 719-898.50Q699-868 690-831L547 0L436 0L572-816Q575-851 571.50-884Q568-917 554-942.50Q540-968 514-983.50Q488-999 447-999Q409-999 374.50-986.50Q340-974 312.50-951Q285-928 265-897Q245-866 236-829L93 0L-19 0L169-1082L276-1083Z"/><path id="s84:robotomono-lightitalic:68" d="M1029-536Q1020-470 1001-402Q982-334 952-271.50Q922-209 881.50-155Q841-101 789-61Q737-21 672.50 1Q608 23 532 21Q439 19 360-23Q281-65 233-145L199 0L88 0L354-1536L474-1536L361-931Q425-1012 509.50-1058.50Q594-1105 699-1102Q772-1100 827.50-1075.50Q883-1051 922-1010.50Q961-970 986-917Q1011-864 1023.50-804Q1036-744 1037.50-680.50Q1039-617 1032-557L1029-536M912-557Q918-603 918.50-653.50Q919-704 912-752Q905-800 888.50-844Q872-888 843-921.50Q814-955 772-975.50Q730-996 671-998Q615-1000 566.50-984Q518-968 477-939Q436-910 402-870.50Q368-831 342-786L257-279Q286-191 354-138.50Q422-86 516-83Q578-81 629.50-99.50Q681-118 722-150.50Q763-183 794.50-227.50Q826-272 849-323Q872-374 886.50-428.50Q901-483 909-536L912-557Z"/><path id="s84:robotomono-lightitalic:72" d="M1065-984L648-984L478 0L355 0L527-984L241-984L258-1082L544-1082L556-1168Q570-1265 609.50-1340.50Q649-1416 710.50-1467Q772-1518 853-1543.50Q934-1569 1032-1568Q1088-1567 1142-1559Q1196-1551 1250-1539L1223-1438Q1133-1463 1038-1465Q964-1466 902.50-1447.50Q841-1429 794.50-1392Q748-1355 718-1299Q688-1243 676-1169L663-1082L1083-1082L1065-984Z"/><path id="s84:robotomono-lightitalic:86" d="M708-1359L659-1082L1049-1082L1031-984L643-984L529-302Q518-201 564.50-145Q611-89 713-86Q761-84 808-90.50Q855-97 902-105L911-13Q857 6 800.50 13.50Q744 21 687 19Q613 18 558-6Q503-30 467.50-72Q432-114 417-173Q402-232 408-304L521-984L229-984L247-1082L538-1082L587-1359L708-1359Z"/><path id="s84:robotomono-lightitalic:75" d="M297-1082L787-1082L617-106L975-106L956 0L109 0L128-106L498-106L649-975L278-975L297-1082M685-1376Q687-1416 712-1442.50Q737-1469 778-1470Q818-1471 842-1445Q866-1419 864-1380Q862-1341 836-1315.50Q810-1290 771-1289Q731-1288 707-1312.50Q683-1337 685-1376Z"/><path id="s84:robotomono-lightitalic:91" d="M514-220L523-161L1063-1082L1203-1082L445 174Q415 227 377.50 275.50Q340 324 294 360.50Q248 397 193 418.50Q138 440 72 439Q46 439 19.50 434.50Q-7 430-33 423L-7 325Q13 328 34 331Q55 334 76 334Q123 334 162.50 317Q202 300 235 271.50Q268 243 295 206.50Q322 170 344 133L447-35L160-1082L284-1083L514-220Z"/><path id="s84:robotomono-lightitalic:16" d="M436-83Q437-104 445.50-122.50Q454-141 468-155.50Q482-170 500.50-178.50Q519-187 540-187Q561-187 579.50-179.50Q598-172 611-158.50Q624-145 631-126.50Q638-108 637-87Q635-44 604.50-16Q574 12 532 13Q511 13 493 6Q475-1 462-13.50Q449-26 442-44Q435-62 436-83Z"/><path id="s84:robotomono-lightitalic:90" d="M608-642L1002-1082L1153-1082L665-546L991 0L859 0L590-459L176 0L27 0L534-556L220-1082L353-1082L608-642Z"/><path id="s84:robotomono-lightitalic:69" d="M524-81Q585-79 640-96.50Q695-114 740-147Q785-180 817.50-227Q850-274 866-333L979-333Q964-252 920.50-186Q877-120 815-73.50Q753-27 676-2.50Q599 22 518 20Q444 18 385-4Q326-26 282-64Q238-102 208.50-153Q179-204 162.50-263Q146-322 141.50-387Q137-452 144-517L149-560Q158-630 180-698Q202-766 236-827Q270-888 316-939.50Q362-991 418.50-1027.50Q475-1064 542-1084Q609-1104 686-1102Q769-1100 836.50-1070.50Q904-1041 951.50-989.50Q999-938 1024-868Q1049-798 1046-716L932-717Q935-776 918.50-827Q902-878 869.50-916Q837-954 789-976.50Q741-999 680-1001Q588-1004 516-965.50Q444-927 392-864Q340-801 308.50-721Q277-641 266-560L261-518Q252-445 259-368.50Q266-292 295-229Q324-166 379.50-125Q435-84 524-81Z"/><path id="s84:robotomono-lightitalic:40" d="M960-680L336-680L217 0L98 0L351-1456L1189-1456L1170-1351L452-1351L354-785L979-785L960-680Z"/><path id="s84:robotomono-lightitalic:14" d="M488-36Q471 63 422.50 146Q374 229 299 295L227 245Q278 183 312 115Q346 47 360-32L387-188L513-188L488-36Z"/></defs><g id="line-0"><use x="0" y="1868.5" xlink:href="#s84:robotomono-lightitalic:54"/><use x="1202" y="1868.5" xlink:href="#s84:robotomono-lightitalic:74"/><use x="2404" y="1868.5" xlink:href="#s84:robotomono-lightitalic:71"/><use x="3606" y="1868.5" xlink:href="#s84:robotomono-lightitalic:3"/><use x="4808" y="1868.5" xlink:href="#s84:robotomono-lightitalic:39"/><use x="6010" y="1868.5" xlink:href="#s84:robotomono-lightitalic:87"/><use x="7212" y="1868.5" xlink:href="#s84:robotomono-lightitalic:84"/><use x="8414" y="1868.5" xlink:href="#s84:robotomono-lightitalic:81"/><use x="9616" y="1868.5" xlink:href="#s84:robotomono-lightitalic:82"/><use x="10818" y="1868.5" xlink:href="#s84:robotomono-lightitalic:71"/><use x="12020" y="1868.5" xlink:href="#s84:robotomono-lightitalic:67"/><use x="13222" y="1868.5" xlink:href="#s84:robotomono-lightitalic:80"/><use x="14424" y="1868.5" xlink:href="#s84:robotomono-lightitalic:3"/><use x="15626" y="1868.5" xlink:href="#s84:robotomono-lightitalic:78"/><use x="16828" y="1868.5" xlink:href="#s84:robotomono-lightitalic:67"/><use x="18030" y="1868.5" xlink:href="#s84:robotomono-lightitalic:80"/><use x="19232" y="1868.5" xlink:href="#s84:robotomono-lightitalic:73"/><use x="20434" y="1868.5" xlink:href="#s84:robotomono-lightitalic:87"/><use x="21636" y="1868.5" xlink:href="#s84:robotomono-lightitalic:67"/><use x="22838" y="1868.5" xlink:href="#s84:robotomono-lightitalic:73"/><use x="24040" y="1868.5" xlink:href="#s84:robotomono-lightitalic:71"/><use x="25242" y="1868.5" xlink:href="#s84:robotomono-lightitalic:85"/><use x="26444" y="1868.5" xlink:href="#s84:robotomono-lightitalic:3"/><use x="27646" y="1868.5" xlink:href="#s84:robotomono-lightitalic:67"/><use x="28848" y="1868.5" xlink:href="#s84:robotomono-lightitalic:84"/><use x="30050" y="1868.5" xlink:href="#s84:robotomono-lightitalic:71"/><use x="31252" y="1868.5" xlink:href="#s84:robotomono-lightitalic:3"/><use x="32454" y="1868.5" xlink:href="#s84:robotomono-lightitalic:79"/><use x="33656" y="1868.5" xlink:href="#s84:robotomono-lightitalic:71"/><use x="34858" y="1868.5" xlink:href="#s84:robotomono-lightitalic:79"/><use x="36060" y="1868.5" xlink:href="#s84:robotomono-lightitalic:68"/><use x="37262" y="1868.5" xlink:href="#s84:robotomono-lightitalic:71"/><use x="38464" y="1868.5" xlink:href="#s84:robotomono-lightitalic:84"/><use x="39666" y="1868.5" xlink:href="#s84:robotomono-lightitalic:85"/><use x="40868" y="1868.5" xlink:href="#s84:robotomono-lightitalic:3"/><use x="42070" y="1868.5" xlink:href="#s84:robotomono-lightitalic:81"/><use x="43272" y="1868.5" xlink:href="#s84:robotomono-lightitalic:72"/><use x="44475" y="1868.5" xlink:href="#s84:robotomono-lightitalic:3"/><use x="45677" y="1868.5" xlink:href="#s84:robotomono-lightitalic:86"/><use x="46879" y="1868.5" xlink:href="#s84:robotomono-lightitalic:74"/><use x="48081" y="1868.5" xlink:href="#s84:robotomono-lightitalic:71"/><use x="49283" y="1868.5" xlink:href="#s84:robotomono-lightitalic:3"/><use x="50485" y="1868.5" xlink:href="#s84:robotomono-lightitalic:85"/><use x="51687" y="1868.5" xlink:href="#s84:robotomono-lightitalic:67"/><use x="52889" y="1868.5" xlink:href="#s84:robotomono-lightitalic:79"/><use x="54091" y="1868.5" xlink:href="#s84:robotomono-lightitalic:71"/><use x="55293" y="1868.5" xlink:href="#s84:robotomono-lightitalic:3"/><use x="56495" y="1868.5" xlink:href="#s84:robotomono-lightitalic:72"/><use x="57698" y="1868.5" xlink:href="#s84:robotomono-lightitalic:67"/><use x="58900" y="1868.5" xlink:href="#s84:robotomono-lightitalic:79"/><use x="60102" y="1868.5" xlink:href="#s84:robotomono-lightitalic:75"/><use x="61304" y="1868.5" xlink:href="#s84:robotomono-lightitalic:78"/><use x="62506" y="1868.5" xlink:href="#s84:robotomono-lightitalic:91"/><use x="63708" y="1868.5" xlink:href="#s84:robotomono-lightitalic:16"/></g><g id="line-1"><use x="11420" y="4326.1" xlink:href="#s84:robotomono-lightitalic:54"/><use x="12622" y="4326.1" xlink:href="#s84:robotomono-lightitalic:74"/><use x="13824" y="4326.1" xlink:href="#s84:robotomono-lightitalic:71"/><use x="15026" y="4326.1" xlink:href="#s84:robotomono-lightitalic:75"/><use x="16228" y="4326.1" xlink:href="#s84:robotomono-lightitalic:84"/><use x="17430" y="4326.1" xlink:href="#s84:robotomono-lightitalic:3"/><use x="18632" y="4326.1" xlink:href="#s84:robotomono-lightitalic:85"/><use x="19834" y="4326.1" xlink:href="#s84:robotomono-lightitalic:71"/><use x="21036" y="4326.1" xlink:href="#s84:robotomono-lightitalic:82"/><use x="22238" y="4326.1" xlink:href="#s84:robotomono-lightitalic:67"/><use x="23440" y="4326.1" xlink:href="#s84:robotomono-lightitalic:84"/><use x="24642" y="4326.1" xlink:href="#s84:robotomono-lightitalic:67"/><use x="25844" y="4326.1" xlink:href="#s84:robotomono-lightitalic:86"/><use x="27046" y="4326.1" xlink:href="#s84:robotomono-lightitalic:71"/><use x="28248" y="4326.1" xlink:href="#s84:robotomono-lightitalic:3"/><use x="29450" y="4326.1" xlink:href="#s84:robotomono-lightitalic:71"/><use x="30652" y="4326.1" xlink:href="#s84:robotomono-lightitalic:90"/><use x="31854" y="4326.1" xlink:href="#s84:robotomono-lightitalic:75"/><use x="33056" y="4326.1" xlink:href="#s84:robotomono-lightitalic:85"/><use x="34258" y="4326.1" xlink:href="#s84:robotomono-lightitalic:86"/><use x="35460" y="4326.1" xlink:href="#s84:robotomono-lightitalic:71"/><use x="36662" y="4326.1" xlink:href="#s84:robotomono-lightitalic:80"/><use x="37864" y="4326.1" xlink:href="#s84:robotomono-lightitalic:69"/><use x="39066" y="4326.1" xlink:href="#s84:robotomono-lightitalic:71"/><use x="40268" y="4326.1" xlink:href="#s84:robotomono-lightitalic:3"/><use x="41470" y="4326.1" xlink:href="#s84:robotomono-lightitalic:75"/><use x="42672" y="4326.1" xlink:href="#s84:robotomono-lightitalic:85"/><use x="43874" y="4326.1" xlink:href="#s84:robotomono-lightitalic:3"/><use x="45076" y="4326.1" xlink:href="#s84:robotomono-lightitalic:67"/><use x="46278" y="4326.1" xlink:href="#s84:robotomono-lightitalic:3"/><use x="47480" y="4326.1" xlink:href="#s84:robotomono-lightitalic:79"/><use x="48682" y="4326.1" xlink:href="#s84:robotomono-lightitalic:91"/><use x="49884" y="4326.1" xlink:href="#s84:robotomono-lightitalic:86"/><use x="51086" y="4326.1" xlink:href="#s84:robotomono-lightitalic:74"/><use x="52288" y="4326.1" xlink:href="#s84:robotomono-lightitalic:16"/></g><g id="line-2"><use x="13886.5" y="6783.7" xlink:href="#s84:robotomono-lightitalic:40"/><use x="15088.5" y="6783.7" xlink:href="#s84:robotomono-lightitalic:81"/><use x="16290.5" y="6783.7" xlink:href="#s84:robotomono-lightitalic:84"/><use x="17492.5" y="6783.7" xlink:href="#s84:robotomono-lightitalic:3"/><use x="18694.5" y="6783.7" xlink:href="#s84:robotomono-lightitalic:85"/><use x="19896.5" y="6783.7" xlink:href="#s84:robotomono-lightitalic:69"/><use x="21098.5" y="6783.7" xlink:href="#s84:robotomono-lightitalic:75"/><use x="22300.5" y="6783.7" xlink:href="#s84:robotomono-lightitalic:71"/><use x="23502.5" y="6783.7" xlink:href="#s84:robotomono-lightitalic:80"/><use x="24704.5" y="6783.7" xlink:href="#s84:robotomono-lightitalic:69"/><use x="25906.5" y="6783.7" xlink:href="#s84:robotomono-lightitalic:71"/><use x="27108.5" y="6783.7" xlink:href="#s84:robotomono-lightitalic:14"/><use x="28310.5" y="6783.7" xlink:href="#s84:robotomono-lightitalic:3"/><use x="29512.5" y="6783.7" xlink:href="#s84:robotomono-lightitalic:79"/><use x="30714.5" y="6783.7" xlink:href="#s84:robotomono-lightitalic:87"/><use x="31916.5" y="6783.7" xlink:href="#s84:robotomono-lightitalic:85"/><use x="33118.5" y="6783.7" xlink:href="#s84:robotomono-lightitalic:75"/><use x="34320.5" y="6783.7" xlink:href="#s84:robotomono-lightitalic:69"/><use x="35522.5" y="6783.7" xlink:href="#s84:robotomono-lightitalic:14"/><use x="36724.5" y="6783.7" xlink:href="#s84:robotomono-lightitalic:3"/><use x="37926.5" y="6783.7" xlink:href="#s84:robotomono-lightitalic:85"/><use x="39128.5" y="6783.7" xlink:href="#s84:robotomono-lightitalic:82"/><use x="40330.5" y="6783.7" xlink:href="#s84:robotomono-lightitalic:81"/><use x="41532.5" y="6783.7" xlink:href="#s84:robotomono-lightitalic:84"/><use x="42734.5" y="6783.7" xlink:href="#s84:robotomono-lightitalic:86"/><use x="43936.5" y="6783.7" xlink:href="#s84:robotomono-lightitalic:14"/><use x="45138.5" y="6783.7" xlink:href="#s84:robotomono-lightitalic:3"/><use x="46340.5" y="6783.7" xlink:href="#s84:robotomono-lightitalic:71"/><use x="47542.5" y="6783.7" xlink:href="#s84:robotomono-lightitalic:86"/><use x="48744.5" y="6783.7" xlink:href="#s84:robotomono-lightitalic:69"/><use x="49946.5" y="6783.7" xlink:href="#s84:robotomono-lightitalic:14"/></g></svg>