<svg xmlns="http://www.w3.org/2000/svg" xmlns:xlink="http://www.w3.org/1999/xlink" width="773" height="86" viewBox="0 0 65940 7338.7"><defs><path id="s85:robotomono-medium:54" d="M1180-1258L733-1258L733 0L494 0L494-1258L50-1258L50-1456L1180-1456L1180-1258Z"/><path id="s85:robotomono-medium:74" d="M394-932Q450-1012 530.50-1057Q611-1102 710-1102Q794-1102 864.50-1077Q935-1052 985-999.50Q1035-947 1063-864.50Q1091-782 1091-667L1091 0L852 0L852-669Q852-731 836.50-775.50Q821-820 792.50-849Q764-878 723-892Q682-906 630-906Q552-906 492-873.50Q432-841 394-786L394 0L155 0L155-1536L394-1536L394-932Z"/><path id="s85:robotomono-medium:71" d="M659 20Q539 20 440-20Q341-60 270.50-130Q200-200 161-295.50Q122-391 122-502L122-543Q122-672 163.50-775Q205-878 274.50-951Q344-1024 436.50-1063Q529-1102 631-1102Q749-1102 839-1062.50Q929-1023 989.50-951.50Q1050-880 1081-782Q1112-684 1112-567L1112-466L362-466Q368-403 393-349Q418-295 458.50-255.50Q499-216 553.50-193.50Q608-171 673-171Q764-171 840.50-207Q917-243 965-306L1095-184Q1069-145 1028-108.50Q987-72 932-43.50Q877-15 808.50 2.50Q740 20 659 20M630-909Q580-909 537-891Q494-873 460-838.50Q426-804 402.50-754.50Q379-705 369-642L876-642L876-660Q873-708 857.50-752.50Q842-797 812-832Q782-867 736.50-888Q691-909 630-909Z"/><path id="s85:robotomono-medium:3" d=""/><path id="s85:robotomono-medium:39" d="M1002-653L403-653L403-196L1104-196L1104 0L162 0L162-1456L1097-1456L1097-1258L403-1258L403-847L1002-847L1002-653Z"/><path id="s85:robotomono-medium:87" d="M849-148Q794-68 715.50-23.50Q637 21 540 21Q456 21 386.50-5Q317-31 267.50-87.50Q218-144 190.50-231.50Q163-319 163-442L163-1082L402-1082L402-440Q402-362 413.50-311Q425-260 449-230Q473-200 509-187.50Q545-175 595-175Q691-175 750-212.50Q809-250 839-314L839-1082L1079-1082L1079 0L863 0L849-148Z"/><path id="s85:robotomono-medium:84" d="M898-1102Q927-1102 956-1100Q985-1098 1011.50-1094Q1038-1090 1060-1085.50Q1082-1081 1097-1075L1063-840Q953-865 846-865Q726-865 652.50-815Q579-765 544-676L544 0L305 0L305-1082L529-1082L540-913Q606-1001 696.50-1051.50Q787-1102 898-1102Z"/><path id="s85:robotomono-medium:81" d="M111-551Q111-668 145.50-769Q180-870 244.50-944Q309-1018 402-1060Q495-1102 613-1102Q732-1102 825.50-1060Q919-1018 983.50-944Q1048-870 1082-769Q1116-668 1116-551L1116-530Q1116-412 1082-311Q1048-210 983.50-136.50Q919-63 826-21Q733 21 615 21Q496 21 402.50-21Q309-63 244.50-136.50Q180-210 145.50-311Q111-412 111-530L111-551M350-530Q350-456 365.50-391Q381-326 413.50-276.50Q446-227 496-198.50Q546-170 615-170Q682-170 731.50-198.50Q781-227 813.50-276.50Q846-326 861.50-391Q877-456 877-530L877-551Q877-623 861.50-688Q846-753 813.50-802Q781-851 731.50-880Q682-909 613-909Q545-909 495-880Q445-851 413-802Q381-753 365.50-688Q350-623 350-551L350-530Z"/><path id="s85:robotomono-medium:82" d="M1102-530Q1102-412 1074-311Q1046-210 992-136.50Q938-63 859.50-21.50Q781 20 679 20Q587 20 516.50-10Q446-40 395-96L395 416L156 416L156-1082L376-1082L386-973Q438-1035 509.50-1068.50Q581-1102 676-1102Q779-1102 858.50-1062Q938-1022 992-949.50Q1046-877 1074-775.50Q1102-674 1102-551L1102-530M863-551Q863-624 848-688.50Q833-753 802-801.50Q771-850 723-878Q675-906 609-906Q529-906 477-872Q425-838 395-781L395-297Q425-241 476.50-206Q528-171 611-171Q677-171 725-200Q773-229 803.50-278Q834-327 848.50-392Q863-457 863-530L863-551Z"/><path id="s85:robotomono-medium:67" d="M845 0Q835-20 828.50-47Q822-74 817-105Q792-79 760.50-56.50Q729-34 690.50-17Q652 0 607.50 10Q563 20 512 20Q426 20 356.50-4.50Q287-29 237.50-72.50Q188-116 161-175Q134-234 134-303Q134-477 263.50-569Q393-661 635-661L810-661L810-732Q810-818 752-868.50Q694-919 588-919Q540-919 504-907.50Q468-896 444-876Q420-856 408-829Q396-802 396-771L157-771Q157-834 186.50-893.50Q216-953 273-999.50Q330-1046 412.50-1074Q495-1102 601-1102Q697-1102 779-1078.50Q861-1055 921-1008.50Q981-962 1015-892.50Q1049-823 1049-730L1049-248Q1049-177 1059.50-118.50Q1070-60 1090-17L1090 0L845 0M557-173Q603-173 643.50-184.50Q684-196 716.50-214.50Q749-233 772.50-257Q796-281 810-306L810-509L658-509Q512-509 442.50-462Q373-415 373-328Q373-295 384-266.50Q395-238 417.50-217.50Q440-197 474.50-185Q509-173 557-173Z"/><path id="s85:robotomono-medium:80" d="M371-1082L386-932Q445-1013 528.50-1057.50Q612-1102 714-1102Q797-1102 865.50-1078Q934-1054 983.50-1003Q1033-952 1060.50-871Q1088-790 1088-676L1088 0L849 0L849-672Q849-739 833.50-784Q818-829 789.50-856Q761-883 720-894.50Q679-906 627-906Q548-906 489.50-871Q431-836 395-776L395 0L155 0L155-1082L371-1082Z"/><path id="s85:robotomono-medium:78" d="M199-1536L784-1536L784-198L1114-198L1114 0L199 0L199-198L543-198L543-1337L199-1337L199-1536Z"/><path id="s85:robotomono-medium:73" d="M124-549Q124-672 154.50-774Q185-876 242-949Q299-1022 379.50-1062Q460-1102 560-1102Q657-1102 728-1069Q799-1036 850-974L860-1082L1077-1082L1077-29Q1077 80 1041 164.50Q1005 249 940.50 307Q876 365 786 395.50Q696 426 588 426Q544 426 488.50 416.50Q433 407 377 385.50Q321 364 270 329.50Q219 295 183 246L297 103Q358 175 428.50 206Q499 237 574 237Q634 237 683 220Q732 203 766 170Q800 137 818.50 88.50Q837 40 837-23L837-96Q786-40 717.50-10Q649 20 558 20Q459 20 379-21.50Q299-63 242-136Q185-209 154.50-309.50Q124-410 124-528L124-549M364-528Q364-455 379-391Q394-327 425-279Q456-231 504.50-203.50Q553-176 619-176Q702-176 754-210.50Q806-245 837-303L837-781Q805-838 753-872Q701-906 621-906Q555-906 506.50-878Q458-850 426.50-801Q395-752 379.50-687Q364-622 364-549L364-528Z"/><path id="s85:robotomono-medium:85" d="M860-293Q860-320 849-342.50Q838-365 809.50-383.50Q781-402 731.50-418Q682-434 605-449Q509-469 431.50-497Q354-525 298.50-564Q243-603 213-654.50Q183-706 183-774Q183-840 214-899.50Q245-959 302.50-1004Q360-1049 442.50-1075.50Q525-1102 627-1102Q735-1102 820.50-1075Q906-1048 965-1001.50Q1024-955 1055.50-892Q1087-829 1087-757L848-757Q848-789 834-818.50Q820-848 792-871Q764-894 722.50-907.50Q681-921 627-921Q573-921 533.50-909.50Q494-898 468-879.50Q442-861 429.50-836Q417-811 417-784Q417-757 426.50-735Q436-713 462-695Q488-677 534-662.50Q580-648 653-635Q755-617 836.50-590Q918-563 975.50-524Q1033-485 1064-431.50Q1095-378 1095-306Q1095-234 1062-174Q1029-114 968-70.50Q907-27 821.50-3Q736 21 630 21Q512 21 422-10.50Q332-42 271-93Q210-144 178.50-209Q147-274 147-341L379-341Q382-291 405-256Q428-221 464-199.50Q500-178 544-168.50Q588-159 633-159Q744-159 802-196.50Q860-234 860-293Z"/><path id="s85:robotomono-medium:79" d="M293-1082L299-968Q331-1031 385-1066.50Q439-1102 515-1102Q584-1102 629.50-1074.50Q675-1047 698-989Q730-1041 780-1071.50Q830-1102 901-1102Q954-1102 998.50-1084.50Q1043-1067 1074.50-1029Q1106-991 1123.50-932Q1141-873 1141-790L1141 0L919 0L919-792Q919-857 891.50-881.50Q864-906 821-906Q780-906 756-886.50Q732-867 721-835L721 0L504 0L504-792Q504-855 478.50-880.50Q453-906 409-906Q367-906 343-888Q319-870 306-839L306 0L84 0L84-1082L293-1082Z"/><path id="s85:robotomono-medium:68" d="M1106-529Q1106-409 1078.50-308.50Q1051-208 997-135Q943-62 864-21Q785 20 682 20Q583 20 510.50-15Q438-50 386-116L375 0L158 0L158-1536L397-1536L397-979Q448-1038 517-1070Q586-1102 680-1102Q784-1102 863.50-1061.50Q943-1021 997-948Q1051-875 1078.50-773.50Q1106-672 1106-550L1106-529M867-550Q867-622 854.50-686.50Q842-751 813.50-800Q785-849 737-877.50Q689-906 619-906Q534-906 480-867Q426-828 397-765L397-318Q426-255 480.50-215Q535-175 621-175Q689-175 736-202.50Q783-230 812-278Q841-326 854-390.50Q867-455 867-529L867-550Z"/><path id="s85:robotomono-medium:72" d="M427 0L427-904L136-904L136-1082L427-1082L427-1149Q427-1254 458.50-1334.50Q490-1415 549.50-1469.50Q609-1524 693-1552.50Q777-1581 882-1581Q951-1581 1013.50-1570.50Q1076-1560 1144-1546L1123-1356Q1084-1367 1032-1375.50Q980-1384 915-1384Q786-1384 726.50-1323Q667-1262 667-1149L667-1082L1069-1082L1069-904L667-904L667 0L427 0Z"/><path id="s85:robotomono-medium:86" d="M634-1344L634-1082L1043-1082L1043-904L634-904L634-385Q634-324 648.50-284Q663-244 689-220Q715-196 750-186.50Q785-177 827-177Q858-177 891.50-180.50Q925-184 956.50-188.50Q988-193 1014.50-198.50Q1041-204 1059-209L1086-44Q1060-29 1023.50-16.50Q987-4 944 4Q901 12 854.50 16.50Q808 21 763 21Q682 21 614.50-1.50Q547-24 498.50-71.50Q450-119 422.50-193.50Q395-268 395-372L395-904L131-904L131-1082L395-1082L395-1344L634-1344Z"/><path id="s85:robotomono-medium:75" d="M207-1082L784-1082L784-198L1105-198L1105 0L207 0L207-198L543-198L543-883L207-883L207-1082M523-1362Q523-1418 559-1454.50Q595-1491 660-1491Q726-1491 762.50-1454.50Q799-1418 799-1362Q799-1306 762.50-1269.50Q726-1233 660-1233Q595-1233 559-1269.50Q523-1306 523-1362Z"/><path id="s85:robotomono-medium:91" d="M584-433L625-303L929-1082L1194-1082L646 164Q628 205 599 252.50Q570 300 527.50 341Q485 382 426 409.50Q367 437 288 437Q255 437 221.50 431.50Q188 426 162 419L196 233Q203 233 215 233.50Q227 234 240 235Q253 236 264.50 236.50Q276 237 283 237Q318 237 345.50 216.50Q373 196 394 169.50Q415 143 428.50 117.50Q442 92 448 83L519-51L59-1082L323-1082L584-433Z"/><path id="s85:robotomono-medium:16" d="M454-143Q454-178 465.50-209Q477-240 499-262.50Q521-285 553.50-298Q586-311 628-311Q670-311 702.50-298Q735-285 757.50-262.50Q780-240 791.50-209Q803-178 803-143Q803-108 791.50-78.50Q780-49 757.50-27Q735-5 702.50 7.50Q670 20 628 20Q586 20 553.50 7.50Q521-5 499-27Q477-49 465.50-78.50Q454-108 454-143Z"/><path id="s85:robotomono-medium:90" d="M628-716L886-1082L1152-1082L770-549L1164 0L899 0L631-379L364 0L97 0L491-549L109-1082L374-1082L628-716Z"/><path id="s85:robotomono-medium:69" d="M628-170Q672-170 713.50-184Q755-198 787-223Q819-248 837.50-282Q856-316 855-356L1081-356Q1082-278 1045.50-209.50Q1009-141 946.50-90Q884-39 802-9Q720 21 630 21Q505 21 411-22Q317-65 254-139.50Q191-214 159.50-312.50Q128-411 128-522L128-558Q128-669 159.50-768Q191-867 254-941Q317-1015 411-1058.50Q505-1102 629-1102Q727-1102 810.50-1072Q894-1042 954.50-988Q1015-934 1048.50-859Q1082-784 1081-695L855-695Q856-739 839.50-778Q823-817 792-846Q761-875 719-892Q677-909 627-909Q552-909 502-878.50Q452-848 422-798.50Q392-749 379.50-686Q367-623 367-558L367-522Q367-456 379.50-393Q392-330 422-280.50Q452-231 502-200.50Q552-170 628-170Z"/><path id="s85:robotomono-medium:40" d="M1021-620L410-620L410 0L168 0L168-1456L1111-1456L1111-1258L410-1258L410-817L1021-817L1021-620Z"/><path id="s85:robotomono-medium:14" d="M681-33Q681 20 667.50 76Q654 132 628.50 186Q603 240 567.50 288.50Q532 337 489 375L354 304Q397 232 420 152.50Q443 73 443-25L443-234L682-234L681-33Z"/></defs><g id="line-0"><use x="0" y="1868.5" xlink:href="#s85:robotomono-medium:54"/><use x="1229" y="1868.5" xlink:href="#s85:robotomono-medium:74"/><use x="2458" y="1868.5" xlink:href="#s85:robotomono-medium:71"/><use x="3687" y="1868.5" xlink:href="#s85:robotomono-medium:3"/><use x="4916" y="1868.5" xlink:href="#s85:robotomono-medium:39"/><use x="6145" y="1868.5" xlink:href="#s85:robotomono-medium:87"/><use x="7374" y="1868.5" xlink:href="#s85:robotomono-medium:84"/><use x="8603" y="1868.5" xlink:href="#s85:robotomono-medium:81"/><use x="9832" y="1868.5" xlink:href="#s85:robotomono-medium:82"/><use x="11061" y="1868.5" xlink:href="#s85:robotomono-medium:71"/><use x="12290" y="1868.5" xlink:href="#s85:robotomono-medium:67"/><use x="13519" y="1868.5" xlink:href="#s85:robotomono-medium:80"/><use x="14748" y="1868.5" xlink:href="#s85:robotomono-medium:3"/><use x="15977" y="1868.5" xlink:href="#s85:robotomono-medium:78"/><use x="17206" y="1868.5" xlink:href="#s85:robotomono-medium:67"/><use x="18435" y="1868.5" xlink:href="#s85:robotomono-medium:80"/><use x="19664" y="1868.5" xlink:href="#s85:robotomono-medium:73"/><use x="20893" y="1868.5" xlink:href="#s85:robotomono-medium:87"/><use x="22122" y="1868.5" xlink:href="#s85:robotomono-medium:67"/><use x="23351" y="1868.5" xlink:href="#s85:robotomono-medium:73"/><use x="24580" y="1868.5" xlink:href="#s85:robotomono-medium:71"/><use x="25809" y="1868.5" xlink:href="#s85:robotomono-medium:85"/><use x="27038" y="1868.5" xlink:href="#s85:robotomono-medium:3"/><use x="28267" y="1868.5" xlink:href="#s85:robotomono-medium:67"/><use x="29496" y="1868.5" xlink:href="#s85:robotomono-medium:84"/><use x="30725" y="1868.5" xlink:href="#s85:robotomono-medium:71"/><use x="31954" y="1868.5" xlink:href="#s85:robotomono-medium:3"/><use x="33183" y="1868.5" xlink:href="#s85:robotomono-medium:79"/><use x="34412" y="1868.5" xlink:href="#s85:robotomono-medium:71"/><use x="35641" y="1868.5" xlink:href="#s85:robotomono-medium:79"/><use x="36870" y="1868.5" xlink:href="#s85:robotomono-medium:68"/><use x="38099" y="1868.5" xlink:href="#s85:robotomono-medium:71"/><use x="39328" y="1868.5" xlink:href="#s85:robotomono-medium:84"/><use x="40557" y="1868.5" xlink:href="#s85:robotomono-medium:85"/><use x="41786" y="1868.5" xlink:href="#s85:robotomono-medium:3"/><use x="43015" y="1868.5" xlink:href="#s85:robotomono-medium:81"/><use x="44244" y="1868.5" xlink:href="#s85:robotomono-medium:72"/><use x="45473" y="1868.5" xlink:href="#s85:robotomono-medium:3"/><use x="46702" y="1868.5" xlink:href="#s85:robotomono-medium:86"/><use x="47931" y="1868.5" xlink:href="#s85:robotomono-medium:74"/><use x="49160" y="1868.5" xlink:href="#s85:robotomono-medium:71"/><use x="50389" y="1868.5" xlink:href="#s85:robotomono-medium:3"/><use x="51618" y="1868.5" xlink:href="#s85:robotomono-medium:85"/><use x="52847" y="1868.5" xlink:href="#s85:robotomono-medium:67"/><use x="54076" y="1868.5" xlink:href="#s85:robotomono-medium:79"/><use x="55305" y="1868.5" xlink:href="#s85:robotomono-medium:71"/><use x="56534" y="1868.5" xlink:href="#s85:robotomono-medium:3"/><use x="57763" y="1868.5" xlink:href="#s85:robotomono-medium:72"/><use x="58992" y="1868.5" xlink:href="#s85:robotomono-medium:67"/><use x="60221" y="1868.5" xlink:href="#s85:robotomono-medium:79"/><use x="61450" y="1868.5" xlink:href="#s85:robotomono-medium:75"/><use x="62679" y="1868.5" xlink:href="#s85:robotomono-medium:78"/><use x="63908" y="1868.5" xlink:href="#s85:robotomono-medium:91"/><use x="65137" y="1868.5" xlink:href="#s85:robotomono-medium:16"/></g><g id="line-1"><use x="11675.5" y="4326.1" xlink:href="#s85:robotomono-medium:54"/><use x="12904.5" y="4326.1" xlink:href="#s85:robotomono-medium:74"/><use x="14133.5" y="4326.1" xlink:href="#s85:robotomono-medium:71"/><use x="15362.5" y="4326.1" xlink:href="#s85:robotomono-medium:75"/><use x="16591.5" y="4326.1" xlink:href="#s85:robotomono-medium:84"/><use x="17820.5" y="4326.1" xlink:href="#s85:robotomono-medium:3"/><use x="19049.5" y="4326.1" xlink:href="#s85:robotomono-medium:85"/><use x="20278.5" y="4326.1" xlink:href="#s85:robotomono-medium:71"/><use x="21507.5" y="4326.1" xlink:href="#s85:robotomono-medium:82"/><use x="22736.5" y="4326.1" xlink:href="#s85:robotomono-medium:67"/><use x="23965.5" y="4326.1" xlink:href="#s85:robotomono-medium:84"/><use x="25194.5" y="4326.1" xlink:href="#s85:robotomono-medium:67"/><use x="26423.5" y="4326.1" xlink:href="#s85:robotomono-medium:86"/><use x="27652.5" y="4326.1" xlink:href="#s85:robotomono-medium:71"/><use x="28881.5" y="4326.1" xlink:href="#s85:robotomono-medium:3"/><use x="30110.5" y="4326.1" xlink:href="#s85:robotomono-medium:71"/><use x="31339.5" y="4326.1" xlink:href="#s85:robotomono-medium:90"/><use x="32568.5" y="4326.1" xlink:href="#s85:robotomono-medium:75"/><use x="33797.5" y="4326.1" xlink:href="#s85:robotomono-medium:85"/><use x="35026.5" y="4326.1" xlink:href="#s85:robotomono-medium:86"/><use x="36255.5" y="4326.1" xlink:href="#s85:robotomono-medium:71"/><use x="37484.5" y="4326.1" xlink:href="#s85:robotomono-medium:80"/><use x="38713.5" y="4326.1" xlink:href="#s85:robotomono-medium:69"/><use x="39942.5" y="4326.1" xlink:href="#s85:robotomono-medium:71"/><use x="41171.5" y="4326.1" xlink:href="#s85:robotomono-medium:3"/><use x="42400.5" y="4326.1" xlink:href="#s85:robotomono-medium:75"/><use x="43629.5" y="4326.1" xlink:href="#s85:robotomono-medium:85"/><use x="44858.5" y="4326.1" xlink:href="#s85:robotomono-medium:3"/><use x="46087.5" y="4326.1" xlink:href="#s85:robotomono-medium:67"/><use x="47316.5" y="4326.1" xlink:href="#s85:robotomono-medium:3"/><use x="48545.5" y="4326.1" xlink:href="#s85:robotomono-medium:79"/><use x="49774.5" y="4326.1" xlink:href="#s85:robotomono-medium:91"/><use x="51003.5" y="4326.1" xlink:href="#s85:robotomono-medium:86"/><use x="52232.5" y="4326.1" xlink:href="#s85:robotomono-medium:74"/><use x="53461.5" y="4326.1" xlink:href="#s85:robotomono-medium:16"/></g><g id="line-2"><use x="14194" y="6783.7" xlink:href="#s85:robotomono-medium:40"/><use x="15423" y="6783.7" xlink:href="#s85:robotomono-medium:81"/><use x="16652" y="6783.7" xlink:href="#s85:robotomono-medium:84"/><use x="17881" y="6783.7" xlink:href="#s85:robotomono-medium:3"/><use x="19110" y="6783.7" xlink:href="#s85:robotomono-medium:85"/><use x="20339" y="6783.7" xlink:href="#s85:robotomono-medium:69"/><use x="21568" y="6783.7" xlink:href="#s85:robotomono-medium:75"/><use x="22797" y="6783.7" xlink:href="#s85:robotomono-medium:71"/><use x="24026" y="6783.7" xlink:href="#s85:robotomono-medium:80"/><use x="25255" y="6783.7" xlink:href="#s85:robotomono-medium:69"/><use x="26484" y="6783.7" xlink:href="#s85:robotomono-medium:71"/><use x="27713" y="6783.7" xlink:href="#s85:robotomono-medium:14"/><use x="28942" y="6783.7" xlink:href="#s85:robotomono-medium:3"/><use x="30171" y="6783.7" xlink:href="#s85:robotomono-medium:79"/><use x="31400" y="6783.7" xlink:href="#s85:robotomono-medium:87"/><use x="32629" y="6783.7" xlink:href="#s85:robotomono-medium:85"/><use x="33858" y="6783.7" xlink:href="#s85:robotomono-medium:75"/><use x="35087" y="6783.7" xlink:href="#s85:robotomono-medium:69"/><use x="36316" y="6783.7" xlink:href="#s85:robotomono-medium:14"/><use x="37545" y="6783.7" xlink:href="#s85:robotomono-medium:3"/><use x="38774" y="6783.7" xlink:href="#s85:robotomono-medium:85"/><use x="40003" y="6783.7" xlink:href="#s85:robotomono-medium:82"/><use x="41232" y="6783.7" xlink:href="#s85:robotomono-medium:81"/><use x="42461" y="6783.7" xlink:href="#s85:robotomono-medium:84"/><use x="43690" y="6783.7" xlink:href="#s85:robotomono-medium:86"/><use x="44919" y="6783.7" xlink:href="#s85:robotomono-medium:14"/><use x="46148" y="6783.7" xlink:href="#s85:robotomono-medium:3"/><use x="47377" y="6783.7" xlink:href="#s85:robotomono-medium:71"/><use x="48606" y="6783.7" xlink:href="#s85:robotomono-medium:86"/><use x="49835" y="6783.7" xlink:href="#s85:robotomono-medium:69"/><use x="51064" y="6783.7" xlink:href="#s85:robotomono-medium:14"/></g></svg>