<svg xmlns="http://www.w3.org/2000/svg" xmlns:xlink="http://www.w3.org/1999/xlink" width="611" height="83" viewBox="0 0 52158 7065.2"><defs><path id="s100:roboto-bolditalic:56" d="M1296-1213L864-1213L654 0L361 0L571-1213L144-1213L187-1456L1339-1456L1296-1213Z"/><path id="s100:roboto-bolditalic:76" d="M433-962Q560-1104 726-1102Q887-1098 962.50-986.50Q1038-875 1019-682L905 0L623 0L738-685Q743-724 740-757Q730-865 614-868Q500-872 414-770L278 0L-4 0L262-1536L545-1536L433-962Z"/><path id="s100:roboto-bolditalic:73" d="M517 20Q375 19 265.50-49.50Q156-118 102-237.50Q48-357 60-501L63-541Q78-699 155-831Q232-963 353-1034.50Q474-1106 621-1102Q830-1098 937.50-948.50Q1045-799 1019-570L1003-447L340-447Q336-342 391-279Q446-216 541-214Q695-210 811-333L940-173Q879-81 764-29.50Q649 22 517 20M607-869Q529-871 468.50-820Q408-769 360-643L748-643L754-669Q760-709 755-745Q745-803 706-835.50Q667-868 607-869Z"/><path id="s100:roboto-bolditalic:4" d=""/><path id="s100:roboto-bolditalic:41" d="M982-631L424-631L356-241L1012-241L970 0L21 0L274-1456L1221-1456L1178-1213L525-1213L464-866L1024-866L982-631Z"/><path id="s100:roboto-bolditalic:89" d="M673-112Q553 23 375 20Q219 18 139-92Q59-202 77-382L194-1082L476-1082L357-379Q353-346 356-317Q366-217 467-214Q598-210 684-315L819-1082L1103-1082L915 0L652 0L673-112Z"/><path id="s100:roboto-bolditalic:86" d="M744-811Q686-821 649-821Q498-825 410-708L285 0L3 0L191-1082L456-1083L430-951Q532-1104 682-1104Q724-1104 780-1090L744-811Z"/><path id="s100:roboto-bolditalic:83" d="M622-1102Q765-1100 868.50-1028.50Q972-957 1020.50-831.50Q1069-706 1055-553Q1032-295 875.50-135.50Q719 24 489 20Q348 18 245-52.50Q142-123 93-248Q44-373 58-524Q84-792 240-950Q396-1108 622-1102M337-421Q339-325 382-269.50Q425-214 503-212Q633-208 707-331.50Q781-455 776-656Q772-752 729.50-809.50Q687-867 608-869Q482-873 406.50-750.50Q331-628 337-421Z"/><path id="s100:roboto-bolditalic:84" d="M1042-538Q1021-368 953-236Q885-104 784-40Q683 24 560 21Q403 17 312-96L213 416L-69 416L190-1082L450-1083L431-974Q548-1106 707-1102Q866-1098 954-986.50Q1042-875 1048-684Q1050-622 1042-538M762-559L768-655Q770-752 732.50-809Q695-866 623-868Q500-872 420-764L339-318Q376-217 498-213Q600-210 668-292Q736-374 762-559Z"/><path id="s100:roboto-bolditalic:69" d="M629 0Q616-41 618-98Q496 24 342 20Q200 18 106.50-72.50Q13-163 19-296Q26-473 167.50-567.50Q309-662 547-662L679-660L693-725Q699-758 696-788Q691-835 660.50-861.50Q630-888 580-889Q514-891 468-856.50Q422-822 409-757L126-756Q133-911 268.50-1007.50Q404-1104 603-1102Q787-1098 891-992.50Q995-887 978-721L895-203L890-139Q888-68 907-19L906 0L629 0M412-199Q534-195 625-305L660-492L562-493Q406-489 337-398Q312-365 306-317Q298-263 328.50-231.50Q359-200 412-199Z"/><path id="s100:roboto-bolditalic:82" d="M449-1083L425-955Q555-1106 740-1102Q893-1099 966-990Q1039-881 1019-688L905 0L623 0L739-691Q744-730 741-762Q728-864 613-867Q502-871 414-764L279 0L-3 0L185-1082L449-1083Z"/><path id="s100:roboto-bolditalic:80" d="M301 0L17 0L284-1536L567-1536L301 0Z"/><path id="s100:roboto-bolditalic:75" d="M57-542Q87-793 220.50-949.50Q354-1106 557-1103Q730-1099 815-978L852-1083L1111-1082L934-37Q905 179 750 305Q595 431 366 427Q254 425 152 378.50Q50 332-16 251L124 79Q218 198 360 202Q470 206 548 144.50Q626 83 654-29L670-94Q552 24 405 20Q247 18 154-97.50Q61-213 52-398Q49-459 57-542M334-424Q334-330 373.50-273.50Q413-217 488-214Q603-210 692-312L776-770Q733-864 617-868Q509-871 434-781Q359-691 340-542Q333-469 334-424Z"/><path id="s100:roboto-bolditalic:87" d="M630-305Q646-385 519-421L428-444Q105-533 114-758Q119-911 249.50-1007.50Q380-1104 564-1102Q747-1100 860-1005Q973-910 975-752L695-753Q697-892 557-894Q491-894 442.50-861Q394-828 383-772Q368-692 504-659L544-650Q682-617 755-574.50Q828-532 867.50-469Q907-406 904-318Q901-215 837.50-138Q774-61 663.50-19Q553 23 431 20Q251 18 131-83.50Q11-185 9-346L275-344Q279-189 441-187Q519-187 569.50-219Q620-251 630-305Z"/><path id="s100:roboto-bolditalic:81" d="M453-1083L430-960Q561-1106 747-1102Q847-1100 913-1056Q979-1012 1002-937Q1145-1106 1338-1102Q1487-1099 1562.50-1000Q1638-901 1626-714L1624-689L1509 0L1226 0L1341-691Q1345-728 1344-760Q1337-865 1224-868Q1108-868 1025-744L1022-721L896 0L614 0L729-689Q733-726 732-758Q725-864 613-867Q506-870 420-766L285 0L3 0L190-1082L453-1083Z"/><path id="s100:roboto-bolditalic:70" d="M1043-538Q1013-282 887-128Q761 26 561 21Q390 17 301-117L260 0L3 0L269-1536L552-1536L443-983Q557-1106 707-1102Q864-1100 953.50-989.50Q1043-879 1049-684Q1051-622 1043-538M763-559Q772-644 769-691Q758-865 625-868Q500-872 418-755L340-325Q378-217 502-213Q710-207 757-515L763-559Z"/><path id="s100:roboto-bolditalic:74" d="M79 0L230-870L74-870L111-1082L267-1083L281-1191Q307-1364 422-1462.50Q537-1561 715-1559Q776-1557 868-1538L843-1313Q795-1325 760-1325Q685-1326 631.50-1287Q578-1248 565-1170L550-1082L759-1082L722-870L514-870L363 0L79 0Z"/><path id="s100:roboto-bolditalic:88" d="M575-1348L528-1082L708-1082L671-870L491-870L399-328Q393-277 407-250Q421-223 475-221Q491-220 561-226L541-5Q466 20 379 18Q240 16 172-69Q104-154 116-299L209-870L56-870L93-1082L246-1082L292-1348L575-1348Z"/><path id="s100:roboto-bolditalic:77" d="M301 0L17 0L205-1082L489-1082L301 0M238-1357Q236-1424 282-1468Q328-1512 393-1512Q457-1514 504-1473Q551-1432 553-1367Q555-1305 511.50-1259Q468-1213 398-1211Q335-1209 287.50-1249Q240-1289 238-1357Z"/><path id="s100:roboto-bolditalic:93" d="M462-412L771-1082L1085-1082L452 163Q384 306 292.50 373Q201 440 81 440Q34 440-55 419L-34 199L5 201Q143 205 207 100L269-15L92-1082L384-1082L462-412Z"/><path id="s100:roboto-bolditalic:18" d="M200-298Q267-300 314.50-256.50Q362-213 362-147Q364-81 318-34.50Q272 12 205 12Q138 14 92-28Q46-70 44-137Q42-204 87-250Q132-296 200-298Z"/><path id="s100:roboto-bolditalic:92" d="M524-761L751-1082L1068-1082L676-538L895 0L609 0L476-338L237 0L-82 0L326-566L117-1082L403-1082L524-761Z"/><path id="s100:roboto-bolditalic:71" d="M477-212Q555-210 607-254.50Q659-299 675-373L940-374Q933-260 868.50-169Q804-78 696.50-27Q589 24 470 21Q273 18 158-115Q43-248 47-469L50-524L51-535Q78-799 229-953.50Q380-1108 602-1102Q785-1098 892.50-982.50Q1000-867 998-678L735-678Q735-765 697-815Q659-865 583-869Q381-875 338-574Q323-465 327-390Q337-215 477-212Z"/><path id="s100:roboto-bolditalic:42" d="M976-595L418-595L314 0L21 0L274-1456L1196-1456L1153-1213L525-1213L459-837L1019-837L976-595Z"/><path id="s100:roboto-bolditalic:16" d="M31 365L-118 284L-45 167Q19 60 37-34L74-246L312-246L283-62Q242 197 31 365Z"/></defs><g id="line-0"><use x="0" y="1650" xlink:href="#s100:roboto-bolditalic:56"/><use x="1239" y="1650" xlink:href="#s100:roboto-bolditalic:76"/><use x="2361" y="1650" xlink:href="#s100:roboto-bolditalic:73"/><use x="3445" y="1650" xlink:href="#s100:roboto-bolditalic:4"/><use x="3950" y="1650" xlink:href="#s100:roboto-bolditalic:41"/><use x="5060" y="1650" xlink:href="#s100:roboto-bolditalic:89"/><use x="6182" y="1650" xlink:href="#s100:roboto-bolditalic:86"/><use x="6881" y="1650" xlink:href="#s100:roboto-bolditalic:83"/><use x="8014" y="1650" xlink:href="#s100:roboto-bolditalic:84"/><use x="9142" y="1650" xlink:href="#s100:roboto-bolditalic:73"/><use x="10226" y="1650" xlink:href="#s100:roboto-bolditalic:69"/><use x="11301" y="1650" xlink:href="#s100:roboto-bolditalic:82"/><use x="12424" y="1650" xlink:href="#s100:roboto-bolditalic:4"/><use x="12929" y="1650" xlink:href="#s100:roboto-bolditalic:80"/><use x="13466" y="1650" xlink:href="#s100:roboto-bolditalic:69"/><use x="14541" y="1650" xlink:href="#s100:roboto-bolditalic:82"/><use x="15664" y="1650" xlink:href="#s100:roboto-bolditalic:75"/><use x="16808" y="1650" xlink:href="#s100:roboto-bolditalic:89"/><use x="17930" y="1650" xlink:href="#s100:roboto-bolditalic:69"/><use x="19005" y="1650" xlink:href="#s100:roboto-bolditalic:75"/><use x="20149" y="1650" xlink:href="#s100:roboto-bolditalic:73"/><use x="21233" y="1650" xlink:href="#s100:roboto-bolditalic:87"/><use x="22264" y="1650" xlink:href="#s100:roboto-bolditalic:4"/><use x="22769" y="1650" xlink:href="#s100:roboto-bolditalic:69"/><use x="23844" y="1650" xlink:href="#s100:roboto-bolditalic:86"/><use x="24560" y="1650" xlink:href="#s100:roboto-bolditalic:73"/><use x="25644" y="1650" xlink:href="#s100:roboto-bolditalic:4"/><use x="26149" y="1650" xlink:href="#s100:roboto-bolditalic:81"/><use x="27879" y="1650" xlink:href="#s100:roboto-bolditalic:73"/><use x="28963" y="1650" xlink:href="#s100:roboto-bolditalic:81"/><use x="30693" y="1650" xlink:href="#s100:roboto-bolditalic:70"/><use x="31821" y="1650" xlink:href="#s100:roboto-bolditalic:73"/><use x="32905" y="1650" xlink:href="#s100:roboto-bolditalic:86"/><use x="33640" y="1650" xlink:href="#s100:roboto-bolditalic:87"/><use x="34671" y="1650" xlink:href="#s100:roboto-bolditalic:4"/><use x="35176" y="1650" xlink:href="#s100:roboto-bolditalic:83"/><use x="36309" y="1650" xlink:href="#s100:roboto-bolditalic:74"/><use x="37031" y="1650" xlink:href="#s100:roboto-bolditalic:4"/><use x="37536" y="1650" xlink:href="#s100:roboto-bolditalic:88"/><use x="38217" y="1650" xlink:href="#s100:roboto-bolditalic:76"/><use x="39339" y="1650" xlink:href="#s100:roboto-bolditalic:73"/><use x="40423" y="1650" xlink:href="#s100:roboto-bolditalic:4"/><use x="40928" y="1650" xlink:href="#s100:roboto-bolditalic:87"/><use x="41959" y="1650" xlink:href="#s100:roboto-bolditalic:69"/><use x="43034" y="1650" xlink:href="#s100:roboto-bolditalic:81"/><use x="44764" y="1650" xlink:href="#s100:roboto-bolditalic:73"/><use x="45848" y="1650" xlink:href="#s100:roboto-bolditalic:4"/><use x="46353" y="1650" xlink:href="#s100:roboto-bolditalic:74"/><use x="47075" y="1650" xlink:href="#s100:roboto-bolditalic:69"/><use x="48150" y="1650" xlink:href="#s100:roboto-bolditalic:81"/><use x="49880" y="1650" xlink:href="#s100:roboto-bolditalic:77"/><use x="50417" y="1650" xlink:href="#s100:roboto-bolditalic:80"/><use x="50954" y="1650" xlink:href="#s100:roboto-bolditalic:93"/><use x="51794" y="1650" xlink:href="#s100:roboto-bolditalic:18"/></g><g id="line-1"><use x="10407.5" y="4107.6" xlink:href="#s100:roboto-bolditalic:56"/><use x="11646.5" y="4107.6" xlink:href="#s100:roboto-bolditalic:76"/><use x="12768.5" y="4107.6" xlink:href="#s100:roboto-bolditalic:73"/><use x="13852.5" y="4107.6" xlink:href="#s100:roboto-bolditalic:77"/><use x="14389.5" y="4107.6" xlink:href="#s100:roboto-bolditalic:86"/><use x="15124.5" y="4107.6" xlink:href="#s100:roboto-bolditalic:4"/><use x="15629.5" y="4107.6" xlink:href="#s100:roboto-bolditalic:87"/><use x="16660.5" y="4107.6" xlink:href="#s100:roboto-bolditalic:73"/><use x="17744.5" y="4107.6" xlink:href="#s100:roboto-bolditalic:84"/><use x="18872.5" y="4107.6" xlink:href="#s100:roboto-bolditalic:69"/><use x="19947.5" y="4107.6" xlink:href="#s100:roboto-bolditalic:86"/><use x="20652.5" y="4107.6" xlink:href="#s100:roboto-bolditalic:69"/><use x="21727.5" y="4107.6" xlink:href="#s100:roboto-bolditalic:88"/><use x="22408.5" y="4107.6" xlink:href="#s100:roboto-bolditalic:73"/><use x="23492.5" y="4107.6" xlink:href="#s100:roboto-bolditalic:4"/><use x="23997.5" y="4107.6" xlink:href="#s100:roboto-bolditalic:73"/><use x="25081.5" y="4107.6" xlink:href="#s100:roboto-bolditalic:92"/><use x="26102.5" y="4107.6" xlink:href="#s100:roboto-bolditalic:77"/><use x="26639.5" y="4107.6" xlink:href="#s100:roboto-bolditalic:87"/><use x="27670.5" y="4107.6" xlink:href="#s100:roboto-bolditalic:88"/><use x="28351.5" y="4107.6" xlink:href="#s100:roboto-bolditalic:73"/><use x="29435.5" y="4107.6" xlink:href="#s100:roboto-bolditalic:82"/><use x="30558.5" y="4107.6" xlink:href="#s100:roboto-bolditalic:71"/><use x="31604.5" y="4107.6" xlink:href="#s100:roboto-bolditalic:73"/><use x="32688.5" y="4107.6" xlink:href="#s100:roboto-bolditalic:4"/><use x="33193.5" y="4107.6" xlink:href="#s100:roboto-bolditalic:77"/><use x="33730.5" y="4107.6" xlink:href="#s100:roboto-bolditalic:87"/><use x="34761.5" y="4107.6" xlink:href="#s100:roboto-bolditalic:4"/><use x="35266.5" y="4107.6" xlink:href="#s100:roboto-bolditalic:69"/><use x="36341.5" y="4107.6" xlink:href="#s100:roboto-bolditalic:4"/><use x="36846.5" y="4107.6" xlink:href="#s100:roboto-bolditalic:81"/><use x="38576.5" y="4107.6" xlink:href="#s100:roboto-bolditalic:93"/><use x="39583.5" y="4107.6" xlink:href="#s100:roboto-bolditalic:88"/><use x="40264.5" y="4107.6" xlink:href="#s100:roboto-bolditalic:76"/><use x="41386.5" y="4107.6" xlink:href="#s100:roboto-bolditalic:18"/></g><g id="line-2"><use x="12730" y="6565.2" xlink:href="#s100:roboto-bolditalic:42"/><use x="13807" y="6565.2" xlink:href="#s100:roboto-bolditalic:83"/><use x="14940" y="6565.2" xlink:href="#s100:roboto-bolditalic:86"/><use x="15675" y="6565.2" xlink:href="#s100:roboto-bolditalic:4"/><use x="16180" y="6565.2" xlink:href="#s100:roboto-bolditalic:87"/><use x="17211" y="6565.2" xlink:href="#s100:roboto-bolditalic:71"/><use x="18257" y="6565.2" xlink:href="#s100:roboto-bolditalic:77"/><use x="18794" y="6565.2" xlink:href="#s100:roboto-bolditalic:73"/><use x="19878" y="6565.2" xlink:href="#s100:roboto-bolditalic:82"/><use x="21001" y="6565.2" xlink:href="#s100:roboto-bolditalic:71"/><use x="22047" y="6565.2" xlink:href="#s100:roboto-bolditalic:73"/><use x="23131" y="6565.2" xlink:href="#s100:roboto-bolditalic:16"/><use x="23626" y="6565.2" xlink:href="#s100:roboto-bolditalic:4"/><use x="24131" y="6565.2" xlink:href="#s100:roboto-bolditalic:81"/><use x="25861" y="6565.2" xlink:href="#s100:roboto-bolditalic:89"/><use x="26983" y="6565.2" xlink:href="#s100:roboto-bolditalic:87"/><use x="28014" y="6565.2" xlink:href="#s100:roboto-bolditalic:77"/><use x="28551" y="6565.2" xlink:href="#s100:roboto-bolditalic:71"/><use x="29597" y="6565.2" xlink:href="#s100:roboto-bolditalic:16"/><use x="30092" y="6565.2" xlink:href="#s100:roboto-bolditalic:4"/><use x="30597" y="6565.2" xlink:href="#s100:roboto-bolditalic:87"/><use x="31628" y="6565.2" xlink:href="#s100:roboto-bolditalic:84"/><use x="32756" y="6565.2" xlink:href="#s100:roboto-bolditalic:83"/><use x="33889" y="6565.2" xlink:href="#s100:roboto-bolditalic:86"/><use x="34624" y="6565.2" xlink:href="#s100:roboto-bolditalic:88"/><use x="35305" y="6565.2" xlink:href="#s100:roboto-bolditalic:16"/><use x="35800" y="6565.2" xlink:href="#s100:roboto-bolditalic:4"/><use x="36305" y="6565.2" xlink:href="#s100:roboto-bolditalic:73"/><use x="37389" y="6565.2" xlink:href="#s100:roboto-bolditalic:88"/><use x="38070" y="6565.2" xlink:href="#s100:roboto-bolditalic:71"/><use x="39116" y="6565.2" xlink:href="#s100:roboto-bolditalic:16"/></g></svg>