<svg xmlns="http://www.w3.org/2000/svg" xmlns:xlink="http://www.w3.org/1999/xlink" width="625" height="83" viewBox="0 0 53304 7065.2" ><defs><path id="s2:roboto-bold:56" d="M1226-1213L780-1213L780 0L480 0L480-1213L40-1213L40-1456L1226-1456L1226-1213Z"/><path id="s2:roboto-bold:76" d="M393-964Q508-1102 682-1102Q1034-1102 1039-693L1039 0L750 0L750-685Q750-778 710-822.50Q670-867 577-867Q450-867 393-769L393 0L104 0L104-1536L393-1536L393-964Z"/><path id="s2:roboto-bold:73" d="M609 20Q371 20 221.50-126Q72-272 72-515L72-543Q72-706 135-834.50Q198-963 313.50-1032.50Q429-1102 577-1102Q799-1102 926.50-962Q1054-822 1054-565L1054-447L365-447Q379-341 449.50-277Q520-213 628-213Q795-213 889-334L1031-175Q966-83 855-31.50Q744 20 609 20M576-868Q490-868 436.50-810Q383-752 368-644L770-644L770-667Q768-763 718-815.50Q668-868 576-868Z"/><path id="s2:roboto-bold:4" d=""/><path id="s2:roboto-bold:41" d="M1006-631L430-631L430-241L1106-241L1106 0L130 0L130-1456L1104-1456L1104-1213L430-1213L430-866L1006-866L1006-631Z"/><path id="s2:roboto-bold:89" d="M759-110Q652 20 463 20Q289 20 197.50-80Q106-180 104-373L104-1082L393-1082L393-383Q393-214 547-214Q694-214 749-316L749-1082L1039-1082L1039 0L767 0L759-110Z"/><path id="s2:roboto-bold:86" d="M719-811Q660-819 615-819Q451-819 400-708L400 0L111 0L111-1082L384-1082L392-953Q479-1102 633-1102Q681-1102 723-1089L719-811Z"/><path id="s2:roboto-bold:83" d="M66-551Q66-712 128-838Q190-964 306.50-1033Q423-1102 577-1102Q796-1102 934.50-968Q1073-834 1089-604L1091-530Q1091-281 952-130.50Q813 20 579 20Q345 20 205.50-130Q66-280 66-538L66-551M355-530Q355-376 413-294.50Q471-213 579-213Q684-213 743-293.50Q802-374 802-551Q802-702 743-785Q684-868 577-868Q471-868 413-785.50Q355-703 355-530Z"/><path id="s2:roboto-bold:84" d="M1085-531Q1085-281 971.50-130.50Q858 20 665 20Q501 20 400-94L400 416L111 416L111-1082L379-1082L389-976Q494-1102 663-1102Q863-1102 974-954Q1085-806 1085-546L1085-531M796-552Q796-703 742.50-785Q689-867 587-867Q451-867 400-763L400-320Q453-213 589-213Q796-213 796-552Z"/><path id="s2:roboto-bold:69" d="M738 0Q718-39 709-97Q604 20 436 20Q277 20 172.50-72Q68-164 68-304Q68-476 195.50-568Q323-660 564-661L697-661L697-723Q697-798 658.50-843Q620-888 537-888Q464-888 422.50-853Q381-818 381-757L92-757Q92-851 150-931Q208-1011 314-1056.50Q420-1102 552-1102Q752-1102 869.50-1001.50Q987-901 987-719L987-250Q988-96 1030-17L1030 0L738 0M499-201Q563-201 617-229.50Q671-258 697-306L697-492L589-492Q372-492 358-342L357-325Q357-271 395-236Q433-201 499-201Z"/><path id="s2:roboto-bold:82" d="M377-1082L386-957Q502-1102 697-1102Q869-1102 953-1001Q1037-900 1039-699L1039 0L750 0L750-692Q750-784 710-825.50Q670-867 577-867Q455-867 394-763L394 0L105 0L105-1082L377-1082Z"/><path id="s2:roboto-bold:80" d="M416 0L126 0L126-1536L416-1536L416 0Z"/><path id="s2:roboto-bold:75" d="M69-549Q69-798 187.50-950Q306-1102 507-1102Q685-1102 784-980L796-1082L1058-1082L1058-36Q1058 106 993.50 211Q929 316 812 371Q695 426 538 426Q419 426 306 378.50Q193 331 135 256L263 80Q371 201 525 201Q640 201 704 139.50Q768 78 768-35L768-93Q668 20 505 20Q310 20 189.50-132.50Q69-285 69-537L69-549M358-528Q358-381 417-297.50Q476-214 579-214Q711-214 768-313L768-768Q710-867 581-867Q477-867 417.50-782Q358-697 358-528Z"/><path id="s2:roboto-bold:87" d="M697-299Q697-352 644.50-382.50Q592-413 476-437Q90-518 90-765Q90-909 209.50-1005.50Q329-1102 522-1102Q728-1102 851.50-1005Q975-908 975-753L686-753Q686-815 646-855.50Q606-896 521-896Q448-896 408-863Q368-830 368-779Q368-731 413.50-701.50Q459-672 567-650.50Q675-629 749-602Q978-518 978-311Q978-163 851-71.50Q724 20 523 20Q387 20 281.50-28.50Q176-77 116-161.50Q56-246 56-344L330-344Q334-267 387-226Q440-185 529-185Q612-185 654.50-216.50Q697-248 697-299Z"/><path id="s2:roboto-bold:81" d="M382-1082L391-961Q506-1102 702-1102Q911-1102 989-937Q1103-1102 1314-1102Q1490-1102 1576-999.50Q1662-897 1662-691L1662 0L1372 0L1372-690Q1372-782 1336-824.50Q1300-867 1209-867Q1079-867 1029-743L1030 0L741 0L741-689Q741-783 704-825Q667-867 578-867Q455-867 400-765L400 0L111 0L111-1082L382-1082Z"/><path id="s2:roboto-bold:70" d="M1086-531Q1086-271 975-125.50Q864 20 665 20Q489 20 384-115L371 0L111 0L111-1536L400-1536L400-985Q500-1102 663-1102Q861-1102 973.50-956.50Q1086-811 1086-547L1086-531M797-552Q797-716 745-791.50Q693-867 590-867Q452-867 400-754L400-327Q453-213 592-213Q732-213 776-351Q797-417 797-552Z"/><path id="s2:roboto-bold:74" d="M190 0L190-870L29-870L29-1082L190-1082L190-1174Q190-1356 294.50-1456.50Q399-1557 587-1557Q647-1557 734-1537L731-1313Q695-1322 643-1322Q480-1322 480-1169L480-1082L695-1082L695-870L480-870L480 0L190 0Z"/><path id="s2:roboto-bold:88" d="M457-1348L457-1082L642-1082L642-870L457-870L457-330Q457-270 480-244Q503-218 568-218Q616-218 653-225L653-6Q568 20 478 20Q174 20 168-287L168-870L10-870L10-1082L168-1082L168-1348L457-1348Z"/><path id="s2:roboto-bold:77" d="M416 0L126 0L126-1082L416-1082L416 0M109-1362Q109-1427 152.50-1469Q196-1511 271-1511Q345-1511 389-1469Q433-1427 433-1362Q433-1296 388.50-1254Q344-1212 271-1212Q198-1212 153.50-1254Q109-1296 109-1362Z"/><path id="s2:roboto-bold:93" d="M515-409L715-1082L1025-1082L590 168L566 225Q469 437 246 437Q183 437 118 418L118 199L162 200Q244 200 284.50 175Q325 150 348 92L382 3L3-1082L314-1082L515-409Z"/><path id="s2:roboto-bold:18" d="M126-142Q126-211 172.50-254Q219-297 289-297Q360-297 406.50-254Q453-211 453-142Q453-74 407-31.50Q361 11 289 11Q218 11 172-31.50Q126-74 126-142Z"/><path id="s2:roboto-bold:92" d="M523-759L705-1082L1014-1082L706-552L1027 0L717 0L524-340L332 0L21 0L342-552L35-1082L345-1082L523-759Z"/><path id="s2:roboto-bold:71" d="M561-213Q641-213 691-257Q741-301 743-374L1014-374Q1013-264 954-172.50Q895-81 792.50-30.50Q690 20 566 20Q334 20 200-127.50Q66-275 66-535L66-554Q66-804 199-953Q332-1102 564-1102Q767-1102 889.50-986.50Q1012-871 1014-679L743-679Q741-763 691-815.50Q641-868 559-868Q458-868 406.50-794.50Q355-721 355-556L355-526Q355-359 406-286Q457-213 561-213Z"/><path id="s2:roboto-bold:42" d="M1006-595L430-595L430 0L130 0L130-1456L1078-1456L1078-1213L430-1213L430-837L1006-837L1006-595Z"/><path id="s2:roboto-bold:16" d="M186 365L35 286L71 221Q138 99 140-22L140-246L384-246L383-46Q382 65 327 178Q272 291 186 365Z"/></defs><g id="line-0"><use x="0" y="1650" xlink:href="#s2:roboto-bold:56" /><use x="1267" y="1650" xlink:href="#s2:roboto-bold:76" /><use x="2413" y="1650" xlink:href="#s2:roboto-bold:73" /><use x="3520" y="1650" xlink:href="#s2:roboto-bold:4" /><use x="4030" y="1650" xlink:href="#s2:roboto-bold:41" /><use x="5165" y="1650" xlink:href="#s2:roboto-bold:89" /><use x="6311" y="1650" xlink:href="#s2:roboto-bold:86" /><use x="7022" y="1650" xlink:href="#s2:roboto-bold:83" /><use x="8180" y="1650" xlink:href="#s2:roboto-bold:84" /><use x="9333" y="1650" xlink:href="#s2:roboto-bold:73" /><use x="10440" y="1650" xlink:href="#s2:roboto-bold:69" /><use x="11538" y="1650" xlink:href="#s2:roboto-bold:82" /><use x="12685" y="1650" xlink:href="#s2:roboto-bold:4" /><use x="13195" y="1650" xlink:href="#s2:roboto-bold:80" /><use x="13738" y="1650" xlink:href="#s2:roboto-bold:69" /><use x="14836" y="1650" xlink:href="#s2:roboto-bold:82" /><use x="15983" y="1650" xlink:href="#s2:roboto-bold:75" /><use x="17152" y="1650" xlink:href="#s2:roboto-bold:89" /><use x="18298" y="1650" xlink:href="#s2:roboto-bold:69" /><use x="19396" y="1650" xlink:href="#s2:roboto-bold:75" /><use x="20565" y="1650" xlink:href="#s2:roboto-bold:73" /><use x="21672" y="1650" xlink:href="#s2:roboto-bold:87" /><use x="22725" y="1650" xlink:href="#s2:roboto-bold:4" /><use x="23235" y="1650" xlink:href="#s2:roboto-bold:69" /><use x="24333" y="1650" xlink:href="#s2:roboto-bold:86" /><use x="25061" y="1650" xlink:href="#s2:roboto-bold:73" /><use x="26168" y="1650" xlink:href="#s2:roboto-bold:4" /><use x="26678" y="1650" xlink:href="#s2:roboto-bold:81" /><use x="28451" y="1650" xlink:href="#s2:roboto-bold:73" /><use x="29558" y="1650" xlink:href="#s2:roboto-bold:81" /><use x="31331" y="1650" xlink:href="#s2:roboto-bold:70" /><use x="32484" y="1650" xlink:href="#s2:roboto-bold:73" /><use x="33591" y="1650" xlink:href="#s2:roboto-bold:86" /><use x="34338" y="1650" xlink:href="#s2:roboto-bold:87" /><use x="35391" y="1650" xlink:href="#s2:roboto-bold:4" /><use x="35901" y="1650" xlink:href="#s2:roboto-bold:83" /><use x="37059" y="1650" xlink:href="#s2:roboto-bold:74" /><use x="37793" y="1650" xlink:href="#s2:roboto-bold:4" /><use x="38303" y="1650" xlink:href="#s2:roboto-bold:88" /><use x="38995" y="1650" xlink:href="#s2:roboto-bold:76" /><use x="40141" y="1650" xlink:href="#s2:roboto-bold:73" /><use x="41248" y="1650" xlink:href="#s2:roboto-bold:4" /><use x="41758" y="1650" xlink:href="#s2:roboto-bold:87" /><use x="42811" y="1650" xlink:href="#s2:roboto-bold:69" /><use x="43909" y="1650" xlink:href="#s2:roboto-bold:81" /><use x="45682" y="1650" xlink:href="#s2:roboto-bold:73" /><use x="46789" y="1650" xlink:href="#s2:roboto-bold:4" /><use x="47299" y="1650" xlink:href="#s2:roboto-bold:74" /><use x="48033" y="1650" xlink:href="#s2:roboto-bold:69" /><use x="49131" y="1650" xlink:href="#s2:roboto-bold:81" /><use x="50904" y="1650" xlink:href="#s2:roboto-bold:77" /><use x="51447" y="1650" xlink:href="#s2:roboto-bold:80" /><use x="51990" y="1650" xlink:href="#s2:roboto-bold:93" /><use x="52851" y="1650" xlink:href="#s2:roboto-bold:18" /></g><g id="line-1"><use x="10633.5" y="4107.6" xlink:href="#s2:roboto-bold:56" /><use x="11900.5" y="4107.6" xlink:href="#s2:roboto-bold:76" /><use x="13046.5" y="4107.6" xlink:href="#s2:roboto-bold:73" /><use x="14153.5" y="4107.6" xlink:href="#s2:roboto-bold:77" /><use x="14696.5" y="4107.6" xlink:href="#s2:roboto-bold:86" /><use x="15443.5" y="4107.6" xlink:href="#s2:roboto-bold:4" /><use x="15953.5" y="4107.6" xlink:href="#s2:roboto-bold:87" /><use x="17006.5" y="4107.6" xlink:href="#s2:roboto-bold:73" /><use x="18113.5" y="4107.6" xlink:href="#s2:roboto-bold:84" /><use x="19266.5" y="4107.6" xlink:href="#s2:roboto-bold:69" /><use x="20364.5" y="4107.6" xlink:href="#s2:roboto-bold:86" /><use x="21081.5" y="4107.6" xlink:href="#s2:roboto-bold:69" /><use x="22179.5" y="4107.6" xlink:href="#s2:roboto-bold:88" /><use x="22871.5" y="4107.6" xlink:href="#s2:roboto-bold:73" /><use x="23978.5" y="4107.6" xlink:href="#s2:roboto-bold:4" /><use x="24488.5" y="4107.6" xlink:href="#s2:roboto-bold:73" /><use x="25595.5" y="4107.6" xlink:href="#s2:roboto-bold:92" /><use x="26637.5" y="4107.6" xlink:href="#s2:roboto-bold:77" /><use x="27180.5" y="4107.6" xlink:href="#s2:roboto-bold:87" /><use x="28233.5" y="4107.6" xlink:href="#s2:roboto-bold:88" /><use x="28925.5" y="4107.6" xlink:href="#s2:roboto-bold:73" /><use x="30032.5" y="4107.6" xlink:href="#s2:roboto-bold:82" /><use x="31179.5" y="4107.6" xlink:href="#s2:roboto-bold:71" /><use x="32247.5" y="4107.6" xlink:href="#s2:roboto-bold:73" /><use x="33354.5" y="4107.6" xlink:href="#s2:roboto-bold:4" /><use x="33864.5" y="4107.6" xlink:href="#s2:roboto-bold:77" /><use x="34407.5" y="4107.6" xlink:href="#s2:roboto-bold:87" /><use x="35460.5" y="4107.6" xlink:href="#s2:roboto-bold:4" /><use x="35970.5" y="4107.6" xlink:href="#s2:roboto-bold:69" /><use x="37068.5" y="4107.6" xlink:href="#s2:roboto-bold:4" /><use x="37578.5" y="4107.6" xlink:href="#s2:roboto-bold:81" /><use x="39351.5" y="4107.6" xlink:href="#s2:roboto-bold:93" /><use x="40379.5" y="4107.6" xlink:href="#s2:roboto-bold:88" /><use x="41071.5" y="4107.6" xlink:href="#s2:roboto-bold:76" /><use x="42217.5" y="4107.6" xlink:href="#s2:roboto-bold:18" /></g><g id="line-2"><use x="13014" y="6565.2" xlink:href="#s2:roboto-bold:42" /><use x="14115" y="6565.2" xlink:href="#s2:roboto-bold:83" /><use x="15273" y="6565.2" xlink:href="#s2:roboto-bold:86" /><use x="16020" y="6565.2" xlink:href="#s2:roboto-bold:4" /><use x="16530" y="6565.2" xlink:href="#s2:roboto-bold:87" /><use x="17583" y="6565.2" xlink:href="#s2:roboto-bold:71" /><use x="18651" y="6565.2" xlink:href="#s2:roboto-bold:77" /><use x="19194" y="6565.2" xlink:href="#s2:roboto-bold:73" /><use x="20301" y="6565.2" xlink:href="#s2:roboto-bold:82" /><use x="21448" y="6565.2" xlink:href="#s2:roboto-bold:71" /><use x="22516" y="6565.2" xlink:href="#s2:roboto-bold:73" /><use x="23623" y="6565.2" xlink:href="#s2:roboto-bold:16" /><use x="24123" y="6565.2" xlink:href="#s2:roboto-bold:4" /><use x="24633" y="6565.2" xlink:href="#s2:roboto-bold:81" /><use x="26406" y="6565.2" xlink:href="#s2:roboto-bold:89" /><use x="27552" y="6565.2" xlink:href="#s2:roboto-bold:87" /><use x="28605" y="6565.2" xlink:href="#s2:roboto-bold:77" /><use x="29148" y="6565.2" xlink:href="#s2:roboto-bold:71" /><use x="30216" y="6565.2" xlink:href="#s2:roboto-bold:16" /><use x="30716" y="6565.2" xlink:href="#s2:roboto-bold:4" /><use x="31226" y="6565.2" xlink:href="#s2:roboto-bold:87" /><use x="32279" y="6565.2" xlink:href="#s2:roboto-bold:84" /><use x="33432" y="6565.2" xlink:href="#s2:roboto-bold:83" /><use x="34590" y="6565.2" xlink:href="#s2:roboto-bold:86" /><use x="35337" y="6565.2" xlink:href="#s2:roboto-bold:88" /><use x="36029" y="6565.2" xlink:href="#s2:roboto-bold:16" /><use x="36529" y="6565.2" xlink:href="#s2:roboto-bold:4" /><use x="37039" y="6565.2" xlink:href="#s2:roboto-bold:73" /><use x="38146" y="6565.2" xlink:href="#s2:roboto-bold:88" /><use x="38838" y="6565.2" xlink:href="#s2:roboto-bold:71" /><use x="39906" y="6565.2" xlink:href="#s2:roboto-bold:16" /></g></svg>