<svg xmlns="http://www.w3.org/2000/svg" xmlns:xlink="http://www.w3.org/1999/xlink" width="650" height="86" viewBox="0 0 55438 7338.7"><defs><path id="s91:robotoslab-light:54" d="M1218-1456L1218-1149L1112-1149L1103-1354L699-1354L699-101L862-88L862 0L416 0L416-88L579-101L579-1354L175-1354L167-1149L60-1149L60-1456L1218-1456Z"/><path id="s91:robotoslab-light:74" d="M62-1471L62-1560L344-1560L344-897Q398-994 488-1048Q578-1102 698-1102Q869-1102 960.50-996Q1052-890 1052-667L1052-101L1215-88L1215 0L769 0L769-88L932-101L932-669Q932-845 862.50-921.50Q793-998 671-998Q548-998 465.50-933.50Q383-869 344-762L344-101L507-88L507 0L62 0L62-88L225-101L225-1458L62-1471Z"/><path id="s91:robotoslab-light:71" d="M574 21Q370 21 236-128.50Q102-278 102-509L102-564Q102-796 235.50-949Q369-1102 558-1102Q757-1102 871-976Q985-850 985-640L985-538L221-538L221-509Q221-327 318.50-203.50Q416-80 574-80Q685-80 764-111Q843-142 899-200L950-118Q889-54 796-16.50Q703 21 574 21M558-1000Q426-1000 335.50-898.50Q245-797 230-644L232-639L866-639L866-669Q866-810 783-905Q700-1000 558-1000Z"/><path id="s91:robotoslab-light:3" d=""/><path id="s91:robotoslab-light:39" d="M950-705L353-705L353-101L1041-101L1050-319L1156-319L1156 0L71 0L71-88L234-101L234-1354L71-1367L71-1456L234-1456L1151-1456L1151-1136L1045-1136L1036-1354L353-1354L353-807L950-807L950-705Z"/><path id="s91:robotoslab-light:87" d="M892-178Q841-83 752.50-31Q664 21 544 21Q373 21 276.50-95Q180-211 180-455L180-980L46-993L46-1082L180-1082L299-1082L299-453Q299-255 366.50-169Q434-83 558-83Q694-83 774.50-143Q855-203 888-309L888-980L734-993L734-1082L888-1082L1008-1082L1008-101L1153-88L1153 0L903 0L892-178Z"/><path id="s91:robotoslab-light:84" d="M356-1082L371-902L371-889Q417-989 496.50-1045.50Q576-1102 685-1102Q708-1102 729.50-1098.50Q751-1095 765-1091L749-979L660-985Q547-985 474.50-921.50Q402-858 371-747L371-101L534-88L534 0L89 0L89-88L252-101L252-980L89-993L89-1082L252-1082L356-1082Z"/><path id="s91:robotoslab-light:81" d="M97-557Q97-796 228-949Q359-1102 575-1102Q792-1102 923-949Q1054-796 1054-557L1054-524Q1054-284 923.50-131.50Q793 21 577 21Q359 21 228-131.50Q97-284 97-524L97-557M217-524Q217-336 312-208Q407-80 577-80Q744-80 839-208Q934-336 934-524L934-557Q934-742 838.50-871Q743-1000 575-1000Q407-1000 312-871Q217-742 217-557L217-524Z"/><path id="s91:robotoslab-light:82" d="M65-993L65-1082L328-1082L343-914Q398-1004 483.50-1053Q569-1102 684-1102Q879-1102 989-946.50Q1099-791 1099-532L1099-511Q1099-268 989-123.50Q879 21 686 21Q572 21 486.50-22.50Q401-66 347-146L347 314L510 327L510 416L65 416L65 327L228 314L228-980L65-993M979-532Q979-738 897-868Q815-998 657-998Q536-998 460.50-940.50Q385-883 347-791L347-271Q388-182 465.50-131Q543-80 659-80Q816-80 897.50-198Q979-316 979-511L979-532Z"/><path id="s91:robotoslab-light:67" d="M844 0Q832-55 827-95Q822-135 822-176Q762-91 662-35Q562 21 437 21Q278 21 191-61Q104-143 104-283Q104-433 233-521Q362-609 583-609L822-609L822-752Q822-868 747.50-934Q673-1000 539-1000Q449-1000 374.50-975.50Q300-951 250-909L240-764L141-764L142-972Q217-1030 321.50-1066Q426-1102 544-1102Q723-1102 832-1011Q941-920 941-750L941-218Q941-185 942.50-154.50Q944-124 949-95L1057-88L1057 0L844 0M450-85Q580-85 679-145Q778-205 822-300L822-517L581-517Q418-517 320.50-449.50Q223-382 223-279Q223-192 283.50-138.50Q344-85 450-85Z"/><path id="s91:robotoslab-light:80" d="M75-88L238-101L238-980L75-993L75-1082L344-1082L355-893Q407-993 495.50-1047.50Q584-1102 705-1102Q881-1102 973-994.50Q1065-887 1065-659L1065-101L1228-88L1228 0L782 0L782-88L945-101L945-658Q945-844 875.50-921Q806-998 678-998Q552-998 472.50-931.50Q393-865 358-755L358-101L521-88L521 0L75 0L75-88Z"/><path id="s91:robotoslab-light:78" d="M73-1471L73-1560L355-1560L355-101L518-88L518 0L73 0L73-88L236-101L236-1458L73-1471Z"/><path id="s91:robotoslab-light:73" d="M102-532Q102-791 212.50-946.50Q323-1102 519-1102Q634-1102 718.50-1051.50Q803-1001 858-909L872-1082L973-1082L973-14Q973 195 860 316Q747 437 545 437Q467 437 378.50 418Q290 399 224 366L256 265Q321 296 392.50 313Q464 330 543 330Q697 330 775 239Q853 148 853-14L853-151Q798-68 714-23.50Q630 21 517 21Q322 21 212-124Q102-269 102-511L102-532M222-511Q222-316 301.50-199.50Q381-83 539-83Q656-83 733.50-136Q811-189 853-282L853-784Q813-879 738-938.50Q663-998 541-998Q383-998 302.50-868Q222-738 222-532L222-511Z"/><path id="s91:robotoslab-light:85" d="M882-748L784-748L770-901Q725-948 656.50-974Q588-1000 499-1000Q368-1000 302.50-943.50Q237-887 237-811Q237-736 293.50-687Q350-638 519-601Q712-558 808-483.50Q904-409 904-281Q904-146 794.50-62.50Q685 21 505 21Q385 21 286.50-12.50Q188-46 116-107L116-325L213-325L230-171Q278-123 351.50-101.50Q425-80 505-80Q635-80 710-137Q785-194 785-275Q785-351 722.50-408Q660-465 497-501Q304-543 210.50-612.50Q117-682 117-807Q117-931 222-1016.50Q327-1102 499-1102Q618-1102 716.50-1065.50Q815-1029 877-967L882-748Z"/><path id="s91:robotoslab-light:79" d="M71-993L71-1082L340-1082L351-903Q403-998 490-1050Q577-1102 697-1102Q821-1102 904-1041.50Q987-981 1023-857Q1072-971 1162.50-1036.50Q1253-1102 1383-1102Q1556-1102 1650.50-987Q1745-872 1745-631L1745-102L1908-88L1908 0L1461 0L1461-88L1624-102L1624-633Q1624-833 1553.50-915.50Q1483-998 1357-998Q1217-998 1141.50-909Q1066-820 1048-682Q1048-674 1048.50-667Q1049-660 1049-649L1049-101L1212-88L1212 0L766 0L766-88L929-101L929-633Q929-829 857.50-913.50Q786-998 661-998Q533-998 458.50-933.50Q384-869 354-760L354-101L517-88L517 0L71 0L71-88L234-101L234-980L71-993Z"/><path id="s91:robotoslab-light:68" d="M1027-511Q1027-268 917-123.50Q807 21 614 21Q495 21 409-26.50Q323-74 270-163L257 0L155 0L155-1458L-8-1471L-8-1560L274-1560L274-912Q328-1003 412-1052.50Q496-1102 612-1102Q807-1102 917-946.50Q1027-791 1027-532L1027-511M906-532Q906-739 826-868.50Q746-998 590-998Q464-998 387.50-936Q311-874 274-777L274-288Q314-194 393.50-138.50Q473-83 592-83Q748-83 827-199Q906-315 906-511L906-532Z"/><path id="s91:robotoslab-light:72" d="M80-984L80-1082L259-1082L259-1240Q259-1403 341-1492Q423-1581 570-1581Q602-1581 636-1576Q670-1571 705-1562L690-1463Q666-1469 641-1472.50Q616-1476 582-1476Q484-1476 431.50-1414Q379-1352 379-1240L379-1082L637-1082L637-984L379-984L379-101L542-88L542 0L96 0L96-88L259-101L259-984L80-984Z"/><path id="s91:robotoslab-light:86" d="M372-1359L372-1082L610-1082L610-984L372-984L372-279Q372-173 410.50-128.50Q449-84 513-84Q542-84 569.50-86.50Q597-89 633-95L651-6Q621 7 578 14Q535 21 492 21Q378 21 314.50-51Q251-123 251-279L251-984L65-984L65-1082L251-1082L251-1359L372-1359Z"/><path id="s91:robotoslab-light:75" d="M89-88L252-101L252-980L89-993L89-1082L371-1082L371-101L534-88L534 0L89 0L89-88M371-1392L252-1392L252-1560L371-1560L371-1392Z"/><path id="s91:robotoslab-light:91" d="M1135-993L1025-984L588 173Q546 283 479 360Q412 437 283 437Q262 437 232 432.50Q202 428 188 423L202 323Q214 325 240.50 327.50Q267 330 278 330Q357 330 403 275Q449 220 484 132L540-13L156-984L46-993L46-1082L418-1082L418-993L289-983L553-293L591-163L597-163L893-983L761-993L761-1082L1135-1082L1135-993Z"/><path id="s91:robotoslab-light:16" d="M282 0L145 0L145-164L282-164L282 0Z"/><path id="s91:robotoslab-light:90" d="M73-88L194-99L536-551L210-982L88-993L88-1082L455-1082L455-993L343-987L601-640L860-988L749-993L749-1082L1116-1082L1116-993L995-982L669-551L1010-99L1132-88L1132 0L766 0L766-88L877-93L602-461L328-93L439-88L439 0L73 0L73-88Z"/><path id="s91:robotoslab-light:69" d="M559-80Q678-80 769-148Q860-216 860-337L966-337L968-331Q973-181 848.50-80Q724 21 559 21Q339 21 218-130.50Q97-282 97-520L97-562Q97-798 218-950Q339-1102 558-1102Q683-1102 787-1055Q891-1008 956-927L961-691L859-691L840-883Q792-937 720.50-968.50Q649-1000 558-1000Q384-1000 300.50-875.50Q217-751 217-562L217-520Q217-328 300-204Q383-80 559-80Z"/><path id="s91:robotoslab-light:40" d="M71-88L234-101L234-1354L71-1367L71-1456L1163-1456L1163-1136L1057-1136L1048-1354L353-1354L353-785L961-785L961-682L353-682L353-101L516-88L516 0L71 0L71-88Z"/><path id="s91:robotoslab-light:14" d="M271-48Q271 44 233.50 132Q196 220 131 281L60 229Q107 163 129.50 98Q152 33 152-46L152-188L271-188L271-48Z"/></defs><g id="line-0"><use x="0" y="1868.5" xlink:href="#s91:robotoslab-light:54"/><use x="1280" y="1868.5" xlink:href="#s91:robotoslab-light:74"/><use x="2568" y="1868.5" xlink:href="#s91:robotoslab-light:71"/><use x="3670" y="1868.5" xlink:href="#s91:robotoslab-light:3"/><use x="4168" y="1868.5" xlink:href="#s91:robotoslab-light:39"/><use x="5437" y="1868.5" xlink:href="#s91:robotoslab-light:87"/><use x="6669" y="1868.5" xlink:href="#s91:robotoslab-light:84"/><use x="7472" y="1868.5" xlink:href="#s91:robotoslab-light:81"/><use x="8624" y="1868.5" xlink:href="#s91:robotoslab-light:82"/><use x="9821" y="1868.5" xlink:href="#s91:robotoslab-light:71"/><use x="10923" y="1868.5" xlink:href="#s91:robotoslab-light:67"/><use x="12053" y="1868.5" xlink:href="#s91:robotoslab-light:80"/><use x="13372" y="1868.5" xlink:href="#s91:robotoslab-light:3"/><use x="13870" y="1868.5" xlink:href="#s91:robotoslab-light:78"/><use x="14480" y="1868.5" xlink:href="#s91:robotoslab-light:67"/><use x="15610" y="1868.5" xlink:href="#s91:robotoslab-light:80"/><use x="16919" y="1868.5" xlink:href="#s91:robotoslab-light:73"/><use x="18067" y="1868.5" xlink:href="#s91:robotoslab-light:87"/><use x="19299" y="1868.5" xlink:href="#s91:robotoslab-light:67"/><use x="20429" y="1868.5" xlink:href="#s91:robotoslab-light:73"/><use x="21577" y="1868.5" xlink:href="#s91:robotoslab-light:71"/><use x="22679" y="1868.5" xlink:href="#s91:robotoslab-light:85"/><use x="23704" y="1868.5" xlink:href="#s91:robotoslab-light:3"/><use x="24202" y="1868.5" xlink:href="#s91:robotoslab-light:67"/><use x="25332" y="1868.5" xlink:href="#s91:robotoslab-light:84"/><use x="26136" y="1868.5" xlink:href="#s91:robotoslab-light:71"/><use x="27238" y="1868.5" xlink:href="#s91:robotoslab-light:3"/><use x="27736" y="1868.5" xlink:href="#s91:robotoslab-light:79"/><use x="29685" y="1868.5" xlink:href="#s91:robotoslab-light:71"/><use x="30787" y="1868.5" xlink:href="#s91:robotoslab-light:79"/><use x="32746" y="1868.5" xlink:href="#s91:robotoslab-light:68"/><use x="33879" y="1868.5" xlink:href="#s91:robotoslab-light:71"/><use x="34981" y="1868.5" xlink:href="#s91:robotoslab-light:84"/><use x="35804" y="1868.5" xlink:href="#s91:robotoslab-light:85"/><use x="36829" y="1868.5" xlink:href="#s91:robotoslab-light:3"/><use x="37327" y="1868.5" xlink:href="#s91:robotoslab-light:81"/><use x="38479" y="1868.5" xlink:href="#s91:robotoslab-light:72"/><use x="39204" y="1868.5" xlink:href="#s91:robotoslab-light:3"/><use x="39702" y="1868.5" xlink:href="#s91:robotoslab-light:86"/><use x="40435" y="1868.5" xlink:href="#s91:robotoslab-light:74"/><use x="41723" y="1868.5" xlink:href="#s91:robotoslab-light:71"/><use x="42825" y="1868.5" xlink:href="#s91:robotoslab-light:3"/><use x="43323" y="1868.5" xlink:href="#s91:robotoslab-light:85"/><use x="44348" y="1868.5" xlink:href="#s91:robotoslab-light:67"/><use x="45478" y="1868.5" xlink:href="#s91:robotoslab-light:79"/><use x="47427" y="1868.5" xlink:href="#s91:robotoslab-light:71"/><use x="48529" y="1868.5" xlink:href="#s91:robotoslab-light:3"/><use x="49027" y="1868.5" xlink:href="#s91:robotoslab-light:72"/><use x="49752" y="1868.5" xlink:href="#s91:robotoslab-light:67"/><use x="50882" y="1868.5" xlink:href="#s91:robotoslab-light:79"/><use x="52841" y="1868.5" xlink:href="#s91:robotoslab-light:75"/><use x="53479" y="1868.5" xlink:href="#s91:robotoslab-light:78"/><use x="54089" y="1868.5" xlink:href="#s91:robotoslab-light:91"/><use x="55156" y="1868.5" xlink:href="#s91:robotoslab-light:16"/></g><g id="line-1"><use x="11019.5" y="4326.1" xlink:href="#s91:robotoslab-light:54"/><use x="12299.5" y="4326.1" xlink:href="#s91:robotoslab-light:74"/><use x="13587.5" y="4326.1" xlink:href="#s91:robotoslab-light:71"/><use x="14689.5" y="4326.1" xlink:href="#s91:robotoslab-light:75"/><use x="15327.5" y="4326.1" xlink:href="#s91:robotoslab-light:84"/><use x="16150.5" y="4326.1" xlink:href="#s91:robotoslab-light:3"/><use x="16648.5" y="4326.1" xlink:href="#s91:robotoslab-light:85"/><use x="17673.5" y="4326.1" xlink:href="#s91:robotoslab-light:71"/><use x="18775.5" y="4326.1" xlink:href="#s91:robotoslab-light:82"/><use x="19972.5" y="4326.1" xlink:href="#s91:robotoslab-light:67"/><use x="21102.5" y="4326.1" xlink:href="#s91:robotoslab-light:84"/><use x="21925.5" y="4326.1" xlink:href="#s91:robotoslab-light:67"/><use x="23055.5" y="4326.1" xlink:href="#s91:robotoslab-light:86"/><use x="23788.5" y="4326.1" xlink:href="#s91:robotoslab-light:71"/><use x="24890.5" y="4326.1" xlink:href="#s91:robotoslab-light:3"/><use x="25388.5" y="4326.1" xlink:href="#s91:robotoslab-light:71"/><use x="26490.5" y="4326.1" xlink:href="#s91:robotoslab-light:90"/><use x="27682.5" y="4326.1" xlink:href="#s91:robotoslab-light:75"/><use x="28320.5" y="4326.1" xlink:href="#s91:robotoslab-light:85"/><use x="29345.5" y="4326.1" xlink:href="#s91:robotoslab-light:86"/><use x="30078.5" y="4326.1" xlink:href="#s91:robotoslab-light:71"/><use x="31180.5" y="4326.1" xlink:href="#s91:robotoslab-light:80"/><use x="32489.5" y="4326.1" xlink:href="#s91:robotoslab-light:69"/><use x="33583.5" y="4326.1" xlink:href="#s91:robotoslab-light:71"/><use x="34685.5" y="4326.1" xlink:href="#s91:robotoslab-light:3"/><use x="35183.5" y="4326.1" xlink:href="#s91:robotoslab-light:75"/><use x="35821.5" y="4326.1" xlink:href="#s91:robotoslab-light:85"/><use x="36846.5" y="4326.1" xlink:href="#s91:robotoslab-light:3"/><use x="37344.5" y="4326.1" xlink:href="#s91:robotoslab-light:67"/><use x="38474.5" y="4326.1" xlink:href="#s91:robotoslab-light:3"/><use x="38972.5" y="4326.1" xlink:href="#s91:robotoslab-light:79"/><use x="40931.5" y="4326.1" xlink:href="#s91:robotoslab-light:91"/><use x="42105.5" y="4326.1" xlink:href="#s91:robotoslab-light:86"/><use x="42838.5" y="4326.1" xlink:href="#s91:robotoslab-light:74"/><use x="44136.5" y="4326.1" xlink:href="#s91:robotoslab-light:16"/></g><g id="line-2"><use x="13808" y="6783.7" xlink:href="#s91:robotoslab-light:40"/><use x="15045" y="6783.7" xlink:href="#s91:robotoslab-light:81"/><use x="16197" y="6783.7" xlink:href="#s91:robotoslab-light:84"/><use x="17020" y="6783.7" xlink:href="#s91:robotoslab-light:3"/><use x="17518" y="6783.7" xlink:href="#s91:robotoslab-light:85"/><use x="18543" y="6783.7" xlink:href="#s91:robotoslab-light:69"/><use x="19637" y="6783.7" xlink:href="#s91:robotoslab-light:75"/><use x="20275" y="6783.7" xlink:href="#s91:robotoslab-light:71"/><use x="21377" y="6783.7" xlink:href="#s91:robotoslab-light:80"/><use x="22686" y="6783.7" xlink:href="#s91:robotoslab-light:69"/><use x="23780" y="6783.7" xlink:href="#s91:robotoslab-light:71"/><use x="24882" y="6783.7" xlink:href="#s91:robotoslab-light:14"/><use x="25274" y="6783.7" xlink:href="#s91:robotoslab-light:3"/><use x="25772" y="6783.7" xlink:href="#s91:robotoslab-light:79"/><use x="27731" y="6783.7" xlink:href="#s91:robotoslab-light:87"/><use x="28963" y="6783.7" xlink:href="#s91:robotoslab-light:85"/><use x="29988" y="6783.7" xlink:href="#s91:robotoslab-light:75"/><use x="30626" y="6783.7" xlink:href="#s91:robotoslab-light:69"/><use x="31720" y="6783.7" xlink:href="#s91:robotoslab-light:14"/><use x="32112" y="6783.7" xlink:href="#s91:robotoslab-light:3"/><use x="32610" y="6783.7" xlink:href="#s91:robotoslab-light:85"/><use x="33635" y="6783.7" xlink:href="#s91:robotoslab-light:82"/><use x="34832" y="6783.7" xlink:href="#s91:robotoslab-light:81"/><use x="35984" y="6783.7" xlink:href="#s91:robotoslab-light:84"/><use x="36807" y="6783.7" xlink:href="#s91:robotoslab-light:86"/><use x="37540" y="6783.7" xlink:href="#s91:robotoslab-light:14"/><use x="37932" y="6783.7" xlink:href="#s91:robotoslab-light:3"/><use x="38430" y="6783.7" xlink:href="#s91:robotoslab-light:71"/><use x="39532" y="6783.7" xlink:href="#s91:robotoslab-light:86"/><use x="40265" y="6783.7" xlink:href="#s91:robotoslab-light:69"/><use x="41359" y="6783.7" xlink:href="#s91:robotoslab-light:14"/></g></svg>