<svg xmlns="http://www.w3.org/2000/svg" xmlns:xlink="http://www.w3.org/1999/xlink" width="538" height="83" viewBox="0 0 45923 7065.2"><defs><path id="s77:robotocondensed-light:56" d="M1005-1348L591-1348L591 0L476 0L476-1348L63-1348L63-1456L1005-1456L1005-1348Z"/><path id="s77:robotocondensed-light:76" d="M259-912Q307-999 380.50-1050.50Q454-1102 549-1102Q832-1102 839-725L839 0L729 0L729-713Q728-858 678-927Q628-996 521-996Q434-996 364.50-930.50Q295-865 259-751L259 0L148 0L148-1536L259-1536L259-912Z"/><path id="s77:robotocondensed-light:73" d="M505 20Q314 20 206-105Q98-230 96-461L96-593Q96-831 200-966.50Q304-1102 486-1102Q662-1102 754.50-987Q847-872 849-635L849-531L206-531L206-470Q206-284 285.50-183Q365-82 510-82Q670-82 769-199L827-125Q721 20 505 20M486-998Q355-998 284.50-905.50Q214-813 207-635L738-635L738-664Q730-998 486-998Z"/><path id="s77:robotocondensed-light:4" d=""/><path id="s77:robotocondensed-light:41" d="M851-697L286-697L286-106L936-106L936 0L172 0L172-1456L931-1456L931-1348L286-1348L286-803L851-803L851-697Z"/><path id="s77:robotocondensed-light:89" d="M728-129Q636 20 443 20Q296 20 221-82Q146-184 145-382L145-1082L255-1082L255-385Q255-238 307-162Q359-86 457-86Q667-86 726-290L726-1082L838-1082L838 0L730 0L728-129Z"/><path id="s77:robotocondensed-light:86" d="M572-978Q532-985 502-985Q410-985 347.50-922Q285-859 259-747L259 0L148 0L148-1082L257-1082L259-920Q338-1102 507-1102Q551-1102 574-1089L572-978Z"/><path id="s77:robotocondensed-light:83" d="M106-596Q106-830 212-966Q318-1102 501-1102Q685-1102 790.50-968Q896-834 897-599L897-484Q897-246 790.50-113Q684 20 503 20Q322 20 216-110Q110-240 106-468L106-596M218-484Q218-297 293.50-190Q369-83 503-83Q640-83 712.50-186Q785-289 786-481L786-596Q786-783 710-890.50Q634-998 501-998Q372-998 296-893Q220-788 218-604L218-484Z"/><path id="s77:robotocondensed-light:84" d="M886-490Q886-240 799-110Q712 20 539 20Q351 20 258-130L258 416L148 416L148-1082L250-1082L255-934Q351-1102 536-1102Q711-1102 798-978Q885-854 886-599L886-490M775-591Q775-799 710.50-897Q646-995 509-995Q333-995 258-816L258-246Q333-83 511-83Q645-83 709.50-181Q774-279 775-483L775-591Z"/><path id="s77:robotocondensed-light:69" d="M720 0Q705-52 700-150Q650-69 571.50-24.50Q493 20 401 20Q261 20 183-59Q105-138 105-284Q105-443 213.50-536Q322-629 513-630L699-630L699-781Q699-897 641.50-947.50Q584-998 473-998Q370-998 304-938Q238-878 238-783L127-784Q127-917 227-1009.50Q327-1102 478-1102Q641-1102 725-1020Q809-938 809-781L809-250Q809-91 838-12L838 0L720 0M415-87Q513-87 588.50-138Q664-189 699-274L699-537L523-537Q371-535 294-469.50Q217-404 217-293Q217-87 415-87Z"/><path id="s77:robotocondensed-light:82" d="M254-1082L257-910Q305-998 379.50-1050Q454-1102 549-1102Q832-1102 839-725L839 0L729 0L729-713Q728-858 678-927Q628-996 521-996Q434-996 364.50-930.50Q295-865 259-751L259 0L148 0L148-1082L254-1082Z"/><path id="s77:robotocondensed-light:80" d="M272 0L160 0L160-1536L272-1536L272 0Z"/><path id="s77:robotocondensed-light:75" d="M109-591Q109-847 197-974.50Q285-1102 461-1102Q648-1102 739-931L745-1082L848-1082L848 31Q847 227 754.50 329Q662 431 485 431Q396 431 305.50 387.50Q215 344 168 281L220 201Q331 328 477 328Q612 328 673.50 256Q735 184 736 37L736-135Q645 20 460 20Q291 20 201.50-107Q112-234 109-474L109-591M221-490Q221-282 284-184Q347-86 482-86Q662-86 736-257L736-810Q661-995 484-995Q348-995 285-898Q222-801 221-598L221-490Z"/><path id="s77:robotocondensed-light:87" d="M689-266Q689-336 631-388.50Q573-441 434.50-503.50Q296-566 241-607.50Q186-649 160-698Q134-747 134-814Q134-939 224-1020.50Q314-1102 457-1102Q611-1102 703-1015Q795-928 795-785L684-785Q684-877 621-937.50Q558-998 457-998Q359-998 301.50-948Q244-898 244-818Q244-753 288-712Q332-671 478-601Q629-535 686-492Q743-449 772-396.50Q801-344 801-272Q801-138 708-59Q615 20 463 20Q302 20 202.50-68Q103-156 103-295L215-295Q220-194 282.50-138.50Q345-83 463-83Q565-83 627-133Q689-183 689-266Z"/><path id="s77:robotocondensed-light:81" d="M250-1082L253-920Q354-1102 543-1102Q752-1102 813-903Q864-1002 944.50-1052Q1025-1102 1120-1102Q1412-1102 1419-726L1419 0L1308 0L1308-719Q1306-859 1256-927.50Q1206-996 1092-996Q989-994 918-916Q847-838 837-720L837 0L725 0L725-716Q725-858 672.50-927Q620-996 509-996Q418-996 351.50-933Q285-870 255-753L255 0L144 0L144-1082L250-1082Z"/><path id="s77:robotocondensed-light:70" d="M887-490Q887-240 799.50-110Q712 20 539 20Q348 20 256-145L251 0L148 0L148-1536L258-1536L258-931Q349-1102 537-1102Q712-1102 798-978.50Q884-855 887-610L887-490M776-591Q776-797 715-896Q654-995 515-995Q330-995 258-800L258-264Q292-179 358-132.50Q424-86 517-86Q650-86 712.50-182.50Q775-279 776-483L776-591Z"/><path id="s77:robotocondensed-light:74" d="M221 0L221-982L72-982L72-1082L221-1082L221-1224Q223-1385 295.50-1471Q368-1557 496-1557Q554-1557 603-1540L595-1438Q551-1449 505-1449Q424-1449 378.50-1388.50Q333-1328 333-1215L333-1082L545-1082L545-982L333-982L333 0L221 0Z"/><path id="s77:robotocondensed-light:88" d="M315-1358L315-1082L500-1082L500-982L315-982L315-263Q315-174 341.50-130.50Q368-87 430-87Q457-87 510-97L513 3Q475 20 404 20Q209 20 204-248L204-982L37-982L37-1082L204-1082L204-1358L315-1358Z"/><path id="s77:robotocondensed-light:77" d="M272 0L160 0L160-1082L272-1082L272 0M144-1394Q144-1428 163-1452Q182-1476 217-1476Q252-1476 271.50-1452Q291-1428 291-1394Q291-1360 271.50-1336.50Q252-1313 217-1313Q182-1313 163-1336.50Q144-1360 144-1394Z"/><path id="s77:robotocondensed-light:93" d="M436-183L694-1082L813-1082L432 173L411 233Q334 437 175 437Q137 437 95 423L94 321Q117 328 145 328Q217 328 263 285Q309 242 339 146L385-7L45-1082L167-1082L436-183Z"/><path id="s77:robotocondensed-light:18" d="M145-73Q145-109 167.50-133.50Q190-158 230-158Q270-158 293-133.50Q316-109 316-73Q316-38 293-15Q270 8 230 8Q190 8 167.50-15Q145-38 145-73Z"/><path id="s77:robotocondensed-light:92" d="M438-645L675-1082L806-1082L499-551L818 0L688 0L439-455L189 0L59 0L377-551L71-1082L201-1082L438-645Z"/><path id="s77:robotocondensed-light:71" d="M490-83Q606-83 668-148Q730-213 735-335L842-335Q834-169 736-74.50Q638 20 490 20Q297 20 198.50-103.50Q100-227 98-470L98-602Q98-850 196.50-976Q295-1102 489-1102Q650-1102 743-1000.50Q836-899 842-717L735-717Q730-851 667-924.50Q604-998 489-998Q345-998 277.50-901Q210-804 210-603L210-480Q210-272 278-177.50Q346-83 490-83Z"/><path id="s77:robotocondensed-light:42" d="M846-678L286-678L286 0L172 0L172-1456L930-1456L930-1348L286-1348L286-786L846-786L846-678Z"/><path id="s77:robotocondensed-light:16" d="M131 273L60 220Q151 98 154-34L154-190L271-190L271-67Q271 146 131 273Z"/></defs><g id="line-0"><use x="0" y="1650" xlink:href="#s77:robotocondensed-light:56"/><use x="1067" y="1650" xlink:href="#s77:robotocondensed-light:76"/><use x="2052" y="1650" xlink:href="#s77:robotocondensed-light:73"/><use x="2989" y="1650" xlink:href="#s77:robotocondensed-light:4"/><use x="3449" y="1650" xlink:href="#s77:robotocondensed-light:41"/><use x="4450" y="1650" xlink:href="#s77:robotocondensed-light:89"/><use x="5436" y="1650" xlink:href="#s77:robotocondensed-light:86"/><use x="6035" y="1650" xlink:href="#s77:robotocondensed-light:83"/><use x="7040" y="1650" xlink:href="#s77:robotocondensed-light:84"/><use x="8036" y="1650" xlink:href="#s77:robotocondensed-light:73"/><use x="8973" y="1650" xlink:href="#s77:robotocondensed-light:69"/><use x="9937" y="1650" xlink:href="#s77:robotocondensed-light:82"/><use x="10923" y="1650" xlink:href="#s77:robotocondensed-light:4"/><use x="11383" y="1650" xlink:href="#s77:robotocondensed-light:80"/><use x="11814" y="1650" xlink:href="#s77:robotocondensed-light:69"/><use x="12778" y="1650" xlink:href="#s77:robotocondensed-light:82"/><use x="13764" y="1650" xlink:href="#s77:robotocondensed-light:75"/><use x="14760" y="1650" xlink:href="#s77:robotocondensed-light:89"/><use x="15746" y="1650" xlink:href="#s77:robotocondensed-light:69"/><use x="16710" y="1650" xlink:href="#s77:robotocondensed-light:75"/><use x="17706" y="1650" xlink:href="#s77:robotocondensed-light:73"/><use x="18643" y="1650" xlink:href="#s77:robotocondensed-light:87"/><use x="19557" y="1650" xlink:href="#s77:robotocondensed-light:4"/><use x="20017" y="1650" xlink:href="#s77:robotocondensed-light:69"/><use x="20981" y="1650" xlink:href="#s77:robotocondensed-light:86"/><use x="21581" y="1650" xlink:href="#s77:robotocondensed-light:73"/><use x="22518" y="1650" xlink:href="#s77:robotocondensed-light:4"/><use x="22978" y="1650" xlink:href="#s77:robotocondensed-light:81"/><use x="24539" y="1650" xlink:href="#s77:robotocondensed-light:73"/><use x="25476" y="1650" xlink:href="#s77:robotocondensed-light:81"/><use x="27037" y="1650" xlink:href="#s77:robotocondensed-light:70"/><use x="28033" y="1650" xlink:href="#s77:robotocondensed-light:73"/><use x="28970" y="1650" xlink:href="#s77:robotocondensed-light:86"/><use x="29589" y="1650" xlink:href="#s77:robotocondensed-light:87"/><use x="30503" y="1650" xlink:href="#s77:robotocondensed-light:4"/><use x="30963" y="1650" xlink:href="#s77:robotocondensed-light:83"/><use x="31968" y="1650" xlink:href="#s77:robotocondensed-light:74"/><use x="32583" y="1650" xlink:href="#s77:robotocondensed-light:4"/><use x="33043" y="1650" xlink:href="#s77:robotocondensed-light:88"/><use x="33637" y="1650" xlink:href="#s77:robotocondensed-light:76"/><use x="34622" y="1650" xlink:href="#s77:robotocondensed-light:73"/><use x="35559" y="1650" xlink:href="#s77:robotocondensed-light:4"/><use x="36019" y="1650" xlink:href="#s77:robotocondensed-light:87"/><use x="36933" y="1650" xlink:href="#s77:robotocondensed-light:69"/><use x="37897" y="1650" xlink:href="#s77:robotocondensed-light:81"/><use x="39458" y="1650" xlink:href="#s77:robotocondensed-light:73"/><use x="40395" y="1650" xlink:href="#s77:robotocondensed-light:4"/><use x="40855" y="1650" xlink:href="#s77:robotocondensed-light:74"/><use x="41470" y="1650" xlink:href="#s77:robotocondensed-light:69"/><use x="42434" y="1650" xlink:href="#s77:robotocondensed-light:81"/><use x="43995" y="1650" xlink:href="#s77:robotocondensed-light:77"/><use x="44426" y="1650" xlink:href="#s77:robotocondensed-light:80"/><use x="44857" y="1650" xlink:href="#s77:robotocondensed-light:93"/><use x="45607" y="1650" xlink:href="#s77:robotocondensed-light:18"/></g><g id="line-1"><use x="9266" y="4107.6" xlink:href="#s77:robotocondensed-light:56"/><use x="10333" y="4107.6" xlink:href="#s77:robotocondensed-light:76"/><use x="11318" y="4107.6" xlink:href="#s77:robotocondensed-light:73"/><use x="12255" y="4107.6" xlink:href="#s77:robotocondensed-light:77"/><use x="12686" y="4107.6" xlink:href="#s77:robotocondensed-light:86"/><use x="13305" y="4107.6" xlink:href="#s77:robotocondensed-light:4"/><use x="13765" y="4107.6" xlink:href="#s77:robotocondensed-light:87"/><use x="14679" y="4107.6" xlink:href="#s77:robotocondensed-light:73"/><use x="15616" y="4107.6" xlink:href="#s77:robotocondensed-light:84"/><use x="16612" y="4107.6" xlink:href="#s77:robotocondensed-light:69"/><use x="17576" y="4107.6" xlink:href="#s77:robotocondensed-light:86"/><use x="18155" y="4107.6" xlink:href="#s77:robotocondensed-light:69"/><use x="19119" y="4107.6" xlink:href="#s77:robotocondensed-light:88"/><use x="19713" y="4107.6" xlink:href="#s77:robotocondensed-light:73"/><use x="20650" y="4107.6" xlink:href="#s77:robotocondensed-light:4"/><use x="21110" y="4107.6" xlink:href="#s77:robotocondensed-light:73"/><use x="22047" y="4107.6" xlink:href="#s77:robotocondensed-light:92"/><use x="22927" y="4107.6" xlink:href="#s77:robotocondensed-light:77"/><use x="23358" y="4107.6" xlink:href="#s77:robotocondensed-light:87"/><use x="24272" y="4107.6" xlink:href="#s77:robotocondensed-light:88"/><use x="24866" y="4107.6" xlink:href="#s77:robotocondensed-light:73"/><use x="25803" y="4107.6" xlink:href="#s77:robotocondensed-light:82"/><use x="26789" y="4107.6" xlink:href="#s77:robotocondensed-light:71"/><use x="27718" y="4107.6" xlink:href="#s77:robotocondensed-light:73"/><use x="28655" y="4107.6" xlink:href="#s77:robotocondensed-light:4"/><use x="29115" y="4107.6" xlink:href="#s77:robotocondensed-light:77"/><use x="29546" y="4107.6" xlink:href="#s77:robotocondensed-light:87"/><use x="30460" y="4107.6" xlink:href="#s77:robotocondensed-light:4"/><use x="30920" y="4107.6" xlink:href="#s77:robotocondensed-light:69"/><use x="31884" y="4107.6" xlink:href="#s77:robotocondensed-light:4"/><use x="32344" y="4107.6" xlink:href="#s77:robotocondensed-light:81"/><use x="33905" y="4107.6" xlink:href="#s77:robotocondensed-light:93"/><use x="34762" y="4107.6" xlink:href="#s77:robotocondensed-light:88"/><use x="35356" y="4107.6" xlink:href="#s77:robotocondensed-light:76"/><use x="36341" y="4107.6" xlink:href="#s77:robotocondensed-light:18"/></g><g id="line-2"><use x="11278.5" y="6565.2" xlink:href="#s77:robotocondensed-light:42"/><use x="12261.5" y="6565.2" xlink:href="#s77:robotocondensed-light:83"/><use x="13266.5" y="6565.2" xlink:href="#s77:robotocondensed-light:86"/><use x="13885.5" y="6565.2" xlink:href="#s77:robotocondensed-light:4"/><use x="14345.5" y="6565.2" xlink:href="#s77:robotocondensed-light:87"/><use x="15259.5" y="6565.2" xlink:href="#s77:robotocondensed-light:71"/><use x="16188.5" y="6565.2" xlink:href="#s77:robotocondensed-light:77"/><use x="16619.5" y="6565.2" xlink:href="#s77:robotocondensed-light:73"/><use x="17556.5" y="6565.2" xlink:href="#s77:robotocondensed-light:82"/><use x="18542.5" y="6565.2" xlink:href="#s77:robotocondensed-light:71"/><use x="19471.5" y="6565.2" xlink:href="#s77:robotocondensed-light:73"/><use x="20408.5" y="6565.2" xlink:href="#s77:robotocondensed-light:16"/><use x="20800.5" y="6565.2" xlink:href="#s77:robotocondensed-light:4"/><use x="21260.5" y="6565.2" xlink:href="#s77:robotocondensed-light:81"/><use x="22821.5" y="6565.2" xlink:href="#s77:robotocondensed-light:89"/><use x="23807.5" y="6565.2" xlink:href="#s77:robotocondensed-light:87"/><use x="24721.5" y="6565.2" xlink:href="#s77:robotocondensed-light:77"/><use x="25152.5" y="6565.2" xlink:href="#s77:robotocondensed-light:71"/><use x="26081.5" y="6565.2" xlink:href="#s77:robotocondensed-light:16"/><use x="26473.5" y="6565.2" xlink:href="#s77:robotocondensed-light:4"/><use x="26933.5" y="6565.2" xlink:href="#s77:robotocondensed-light:87"/><use x="27847.5" y="6565.2" xlink:href="#s77:robotocondensed-light:84"/><use x="28843.5" y="6565.2" xlink:href="#s77:robotocondensed-light:83"/><use x="29848.5" y="6565.2" xlink:href="#s77:robotocondensed-light:86"/><use x="30467.5" y="6565.2" xlink:href="#s77:robotocondensed-light:88"/><use x="31061.5" y="6565.2" xlink:href="#s77:robotocondensed-light:16"/><use x="31453.5" y="6565.2" xlink:href="#s77:robotocondensed-light:4"/><use x="31913.5" y="6565.2" xlink:href="#s77:robotocondensed-light:73"/><use x="32850.5" y="6565.2" xlink:href="#s77:robotocondensed-light:88"/><use x="33444.5" y="6565.2" xlink:href="#s77:robotocondensed-light:71"/><use x="34373.5" y="6565.2" xlink:href="#s77:robotocondensed-light:16"/></g></svg>