<svg xmlns="http://www.w3.org/2000/svg" xmlns:xlink="http://www.w3.org/1999/xlink" test="true" test2="false" test3="10" test4="null" test5="undefined" width="588" height="83" viewBox="0 0 50143 7065.2" ><defs><path id="HkP7JYcE6e:roboto-thinitalic:56" d="M1275-1402L760-1402L518 0L464 0L706-1402L193-1402L200-1456L1282-1456L1275-1402Z"/><path id="HkP7JYcE6e:roboto-thinitalic:76" d="M256-830Q337-961 447-1031.50Q557-1102 674-1102Q798-1102 869-1038Q940-974 951-853Q957-777 943-694L823 0L769 0L889-694Q901-764 899-832Q894-938 836.50-994Q779-1050 672-1049Q535-1047 408.50-942.50Q282-838 237-693L117 0L63 0L328-1536L382-1536L256-830Z"/><path id="HkP7JYcE6e:roboto-thinitalic:73" d="M458 20Q328 20 234-53Q140-126 98.50-252.50Q57-379 77-518L85-568Q109-714 187.50-841Q266-968 374-1035Q482-1102 605-1102Q769-1102 862-981Q955-860 941-671L938-640L929-577L143-577L132-518Q118-434 131-348Q153-205 240.50-119.50Q328-34 457-33Q644-31 794-181L830-153Q682 20 458 20M605-1048Q451-1048 329.50-932.50Q208-817 149-631L879-631L882-644Q895-716 884-788Q866-906 790.50-977Q715-1048 605-1048Z"/><path id="HkP7JYcE6e:roboto-thinitalic:4" d=""/><path id="HkP7JYcE6e:roboto-thinitalic:41" d="M978-722L269-722L153-54L959-54L951 0L89 0L342-1456L1202-1456L1194-1402L387-1402L278-776L985-776L978-722Z"/><path id="HkP7JYcE6e:roboto-thinitalic:89" d="M766 0L800-175Q729-77 628-28.50Q527 20 406 20Q280 20 206.50-47Q133-114 121-238Q114-317 128-401L245-1082L299-1082L180-393Q169-325 173-261Q178-153 238-93.50Q298-34 404-34Q550-34 667-113.50Q784-193 821-321L952-1082L1007-1082L821 0L766 0Z"/><path id="HkP7JYcE6e:roboto-thinitalic:86" d="M708-1044L643-1049Q509-1049 394-950Q279-851 240-709L117 0L63 0L249-1082L303-1082L261-857Q329-973 427-1037.50Q525-1102 645-1102Q683-1102 721-1090L708-1044Z"/><path id="HkP7JYcE6e:roboto-thinitalic:83" d="M80-562Q105-713 181-837Q257-961 371-1031.50Q485-1102 620-1102Q730-1102 815-1053Q900-1004 950-907.50Q1000-811 1007-694Q1010-626 995-520Q970-369 893.50-244Q817-119 703.50-49.50Q590 20 456 20Q345 20 260.50-29.50Q176-79 125.50-174.50Q75-270 69-389Q65-456 80-562M127-348Q147-203 234-118.50Q321-34 455-34Q612-34 738.50-144Q865-254 921-441Q967-596 948-734Q926-879 839.50-963.50Q753-1048 621-1048Q464-1048 337-936.50Q210-825 154-641Q108-488 127-348Z"/><path id="HkP7JYcE6e:roboto-thinitalic:84" d="M473 20Q358 20 272-30Q186-80 146-168L43 416L-11 416L247-1082L301-1082L264-889Q335-985 434.50-1043.50Q534-1102 656-1102Q761-1102 835-1050Q909-998 943.50-897.50Q978-797 974-675Q971-611 962-552L949-486Q897-251 771-115.50Q645 20 473 20M907-552L919-659Q929-849 860-948.50Q791-1048 657-1048Q525-1048 407.50-969.50Q290-891 250-775L160-269Q183-156 267.50-95Q352-34 473-34Q635-34 747-166.50Q859-299 904-535L907-552Z"/><path id="HkP7JYcE6e:roboto-thinitalic:69" d="M750 0Q747-88 769-198Q685-95 569.50-37Q454 21 319 20Q183 20 102-64Q21-148 41-274Q66-427 210.50-513Q355-599 577-604L834-604L863-762Q884-895 810-971.50Q736-1048 597-1048Q461-1048 351-975.50Q241-903 213-785L159-787Q187-926 313-1014Q439-1102 597-1102Q762-1102 850-1008.50Q938-915 915-760L816-182L809-114Q804-61 813-9L812 0L750 0M318-33Q452-31 573-97.50Q694-164 779-292L825-549L583-549Q381-545 249.50-471.50Q118-398 94-270Q76-171 141.50-103Q207-35 318-33Z"/><path id="HkP7JYcE6e:roboto-thinitalic:82" d="M256-830Q337-961 447-1031.50Q557-1102 674-1102Q798-1102 869-1038Q940-974 951-853Q957-777 943-694L823 0L769 0L889-694Q901-764 899-832Q894-938 836.50-994Q779-1050 672-1049Q535-1047 408.50-942.50Q282-838 237-693L117 0L63 0L249-1082L303-1082L256-830Z"/><path id="HkP7JYcE6e:roboto-thinitalic:80" d="M130 0L76 0L340-1536L394-1536L130 0Z"/><path id="HkP7JYcE6e:roboto-thinitalic:75" d="M108-552Q136-715 206.50-844Q277-973 377-1037.50Q477-1102 595-1102Q712-1102 795.50-1043.50Q879-985 915-884L951-1082L1005-1082L826-38Q788 185 659.50 310.50Q531 436 351 436Q146 436 33 252L74 218Q177 383 348 383Q504 383 616.50 277.50Q729 172 767-20L797-171Q725-80 625.50-30Q526 20 409 20Q303 20 231-32.50Q159-85 124.50-186.50Q90-288 94-410Q96-467 108-552M148-425Q135-243 202.50-138.50Q270-34 407-34Q536-34 640-97.50Q744-161 810-276L898-767Q878-904 799.50-976Q721-1048 595-1048Q467-1048 367-962Q267-876 212-726Q157-576 148-425Z"/><path id="HkP7JYcE6e:roboto-thinitalic:87" d="M767-265Q803-453 493-532L382-564Q152-639 180-829Q198-952 310-1027Q422-1102 570-1102Q733-1102 825-1018Q917-934 903-793L849-793Q861-907 782-977.50Q703-1048 571-1048Q443-1048 348-989Q253-930 234-831Q204-672 418-605L567-562L617-545Q850-460 821-264Q802-135 687-57.50Q572 20 412 20Q245 20 145-61.50Q45-143 59-275L112-275Q107-163 186.50-98.50Q266-34 411-34Q549-37 649-100.50Q749-164 767-265Z"/><path id="HkP7JYcE6e:roboto-thinitalic:81" d="M815 0L762 0L886-720Q897-788 893-849Q885-946 825.50-998Q766-1050 661-1049Q521-1047 394.50-938.50Q268-830 226-684L107 0L53 0L239-1082L294-1082L246-826Q327-959 436-1030.50Q545-1102 663-1102Q797-1102 869.50-1035.50Q942-969 946-846Q1018-963 1132-1032.50Q1246-1102 1375-1102Q1500-1102 1572-1037Q1644-972 1655-853Q1661-777 1647-694L1527 0L1474 0L1594-700Q1606-769 1603-833Q1598-939 1539.50-994.50Q1481-1050 1373-1049Q1279-1046 1186.50-1002Q1094-958 1027.50-882.50Q961-807 940-720L815 0Z"/><path id="HkP7JYcE6e:roboto-thinitalic:70" d="M473 20Q361 20 274.50-29Q188-78 146-171L115 0L61 0L326-1536L380-1536L264-885Q339-990 439.50-1046Q540-1102 656-1102Q761-1102 835-1050Q909-998 943.50-897.50Q978-797 974-675Q971-611 962-552L949-486Q897-251 771-115.50Q645 20 473 20M906-552L918-659Q926-768 899.50-861Q873-954 810.50-1001Q748-1048 657-1048Q524-1048 406.50-968Q289-888 249-770L160-274Q184-158 267.50-96Q351-34 473-34Q634-34 746-166.50Q858-299 902-531L906-552Z"/><path id="HkP7JYcE6e:roboto-thinitalic:74" d="M143 0L319-1027L139-1027L146-1082L330-1082L355-1236Q382-1383 468-1469Q554-1555 683-1557Q746-1557 809-1539L794-1489Q731-1505 683-1503Q578-1501 505-1427.50Q432-1354 409-1226L383-1082L660-1082L652-1027L374-1027L197 0L143 0Z"/><path id="HkP7JYcE6e:roboto-thinitalic:88" d="M419-1374L369-1082L606-1082L599-1027L359-1027L222-235L218-180Q215-112 246-73.50Q277-35 340-34Q368-34 449-43L451 8Q405 20 342 20Q172 20 165-155Q163-206 172-259L304-1027L111-1027L119-1082L314-1082L364-1374L419-1374Z"/><path id="HkP7JYcE6e:roboto-thinitalic:77" d="M130 0L76 0L262-1082L316-1082L130 0M294-1422Q297-1442 315.50-1459Q334-1476 355-1476Q378-1476 392.50-1458Q407-1440 403-1418Q400-1398 381-1381.50Q362-1365 341-1365Q318-1366 304-1383Q290-1400 294-1422Z"/><path id="HkP7JYcE6e:roboto-thinitalic:93" d="M396-84L406-105L939-1081L1000-1081L316 182Q242 322 166 378.50Q90 435-3 437Q-41 437-83 426L-77 375Q-26 384-9 384Q124 384 221 236L261 170L358-11L124-1083L181-1083L396-84Z"/><path id="HkP7JYcE6e:roboto-thinitalic:18" d="M47-51Q50-71 68.50-88Q87-105 108-105Q131-105 145-87Q159-69 156-47Q153-27 134-10.50Q115 6 94 6Q71 5 57-12Q43-29 47-51Z"/><path id="HkP7JYcE6e:roboto-thinitalic:92" d="M472-603L882-1081L951-1080L499-551L802 0L738 0L462-507L28 0L-41 0L435-559L147-1083L212-1083L472-603Z"/><path id="HkP7JYcE6e:roboto-thinitalic:71" d="M430-34Q572-34 676.50-115Q781-196 816-327L870-327Q834-172 713-76Q592 20 431 20Q282 20 189.50-72.50Q97-165 78-329Q67-424 81-520L87-562Q113-721 186.50-847Q260-973 364.50-1037.50Q469-1102 595-1102Q758-1102 851.50-996Q945-890 933-725L879-725Q892-869 812.50-958.50Q733-1048 596-1048Q407-1048 282-893.50Q157-739 130-480L126-407Q126-231 205-132.50Q284-34 430-34Z"/><path id="HkP7JYcE6e:roboto-thinitalic:42" d="M992-716L268-716L144 0L90 0L342-1456L1217-1456L1210-1402L387-1402L277-772L1000-772L992-716Z"/><path id="HkP7JYcE6e:roboto-thinitalic:16" d="M-20 255L-54 221Q53 101 75-25L98-159L152-159L131-33Q102 139-20 255Z"/></defs><g id="line-0"><use x="0" y="1650" xlink:href="#HkP7JYcE6e:roboto-thinitalic:56" /><use x="1197" y="1650" xlink:href="#HkP7JYcE6e:roboto-thinitalic:76" /><use x="2294" y="1650" xlink:href="#HkP7JYcE6e:roboto-thinitalic:73" /><use x="3305" y="1650" xlink:href="#HkP7JYcE6e:roboto-thinitalic:4" /><use x="3790" y="1650" xlink:href="#HkP7JYcE6e:roboto-thinitalic:41" /><use x="4914" y="1650" xlink:href="#HkP7JYcE6e:roboto-thinitalic:89" /><use x="6011" y="1650" xlink:href="#HkP7JYcE6e:roboto-thinitalic:86" /><use x="6665" y="1650" xlink:href="#HkP7JYcE6e:roboto-thinitalic:83" /><use x="7768" y="1650" xlink:href="#HkP7JYcE6e:roboto-thinitalic:84" /><use x="8865" y="1650" xlink:href="#HkP7JYcE6e:roboto-thinitalic:73" /><use x="9876" y="1650" xlink:href="#HkP7JYcE6e:roboto-thinitalic:69" /><use x="10935" y="1650" xlink:href="#HkP7JYcE6e:roboto-thinitalic:82" /><use x="12032" y="1650" xlink:href="#HkP7JYcE6e:roboto-thinitalic:4" /><use x="12517" y="1650" xlink:href="#HkP7JYcE6e:roboto-thinitalic:80" /><use x="12936" y="1650" xlink:href="#HkP7JYcE6e:roboto-thinitalic:69" /><use x="13995" y="1650" xlink:href="#HkP7JYcE6e:roboto-thinitalic:82" /><use x="15092" y="1650" xlink:href="#HkP7JYcE6e:roboto-thinitalic:75" /><use x="16191" y="1650" xlink:href="#HkP7JYcE6e:roboto-thinitalic:89" /><use x="17288" y="1650" xlink:href="#HkP7JYcE6e:roboto-thinitalic:69" /><use x="18347" y="1650" xlink:href="#HkP7JYcE6e:roboto-thinitalic:75" /><use x="19446" y="1650" xlink:href="#HkP7JYcE6e:roboto-thinitalic:73" /><use x="20457" y="1650" xlink:href="#HkP7JYcE6e:roboto-thinitalic:87" /><use x="21455" y="1650" xlink:href="#HkP7JYcE6e:roboto-thinitalic:4" /><use x="21940" y="1650" xlink:href="#HkP7JYcE6e:roboto-thinitalic:69" /><use x="22999" y="1650" xlink:href="#HkP7JYcE6e:roboto-thinitalic:86" /><use x="23654" y="1650" xlink:href="#HkP7JYcE6e:roboto-thinitalic:73" /><use x="24665" y="1650" xlink:href="#HkP7JYcE6e:roboto-thinitalic:4" /><use x="25150" y="1650" xlink:href="#HkP7JYcE6e:roboto-thinitalic:81" /><use x="26941" y="1650" xlink:href="#HkP7JYcE6e:roboto-thinitalic:73" /><use x="27952" y="1650" xlink:href="#HkP7JYcE6e:roboto-thinitalic:81" /><use x="29743" y="1650" xlink:href="#HkP7JYcE6e:roboto-thinitalic:70" /><use x="30840" y="1650" xlink:href="#HkP7JYcE6e:roboto-thinitalic:73" /><use x="31851" y="1650" xlink:href="#HkP7JYcE6e:roboto-thinitalic:86" /><use x="32525" y="1650" xlink:href="#HkP7JYcE6e:roboto-thinitalic:87" /><use x="33523" y="1650" xlink:href="#HkP7JYcE6e:roboto-thinitalic:4" /><use x="34008" y="1650" xlink:href="#HkP7JYcE6e:roboto-thinitalic:83" /><use x="35111" y="1650" xlink:href="#HkP7JYcE6e:roboto-thinitalic:74" /><use x="35747" y="1650" xlink:href="#HkP7JYcE6e:roboto-thinitalic:4" /><use x="36232" y="1650" xlink:href="#HkP7JYcE6e:roboto-thinitalic:88" /><use x="36871" y="1650" xlink:href="#HkP7JYcE6e:roboto-thinitalic:76" /><use x="37968" y="1650" xlink:href="#HkP7JYcE6e:roboto-thinitalic:73" /><use x="38979" y="1650" xlink:href="#HkP7JYcE6e:roboto-thinitalic:4" /><use x="39464" y="1650" xlink:href="#HkP7JYcE6e:roboto-thinitalic:87" /><use x="40462" y="1650" xlink:href="#HkP7JYcE6e:roboto-thinitalic:69" /><use x="41521" y="1650" xlink:href="#HkP7JYcE6e:roboto-thinitalic:81" /><use x="43312" y="1650" xlink:href="#HkP7JYcE6e:roboto-thinitalic:73" /><use x="44323" y="1650" xlink:href="#HkP7JYcE6e:roboto-thinitalic:4" /><use x="44808" y="1650" xlink:href="#HkP7JYcE6e:roboto-thinitalic:74" /><use x="45444" y="1650" xlink:href="#HkP7JYcE6e:roboto-thinitalic:69" /><use x="46503" y="1650" xlink:href="#HkP7JYcE6e:roboto-thinitalic:81" /><use x="48294" y="1650" xlink:href="#HkP7JYcE6e:roboto-thinitalic:77" /><use x="48713" y="1650" xlink:href="#HkP7JYcE6e:roboto-thinitalic:80" /><use x="49132" y="1650" xlink:href="#HkP7JYcE6e:roboto-thinitalic:93" /><use x="49984" y="1650" xlink:href="#HkP7JYcE6e:roboto-thinitalic:18" /></g><g id="line-1"><use x="10264" y="4107.6" xlink:href="#HkP7JYcE6e:roboto-thinitalic:56" /><use x="11461" y="4107.6" xlink:href="#HkP7JYcE6e:roboto-thinitalic:76" /><use x="12558" y="4107.6" xlink:href="#HkP7JYcE6e:roboto-thinitalic:73" /><use x="13569" y="4107.6" xlink:href="#HkP7JYcE6e:roboto-thinitalic:77" /><use x="13988" y="4107.6" xlink:href="#HkP7JYcE6e:roboto-thinitalic:86" /><use x="14662" y="4107.6" xlink:href="#HkP7JYcE6e:roboto-thinitalic:4" /><use x="15147" y="4107.6" xlink:href="#HkP7JYcE6e:roboto-thinitalic:87" /><use x="16145" y="4107.6" xlink:href="#HkP7JYcE6e:roboto-thinitalic:73" /><use x="17156" y="4107.6" xlink:href="#HkP7JYcE6e:roboto-thinitalic:84" /><use x="18253" y="4107.6" xlink:href="#HkP7JYcE6e:roboto-thinitalic:69" /><use x="19312" y="4107.6" xlink:href="#HkP7JYcE6e:roboto-thinitalic:86" /><use x="19946" y="4107.6" xlink:href="#HkP7JYcE6e:roboto-thinitalic:69" /><use x="21005" y="4107.6" xlink:href="#HkP7JYcE6e:roboto-thinitalic:88" /><use x="21644" y="4107.6" xlink:href="#HkP7JYcE6e:roboto-thinitalic:73" /><use x="22655" y="4107.6" xlink:href="#HkP7JYcE6e:roboto-thinitalic:4" /><use x="23140" y="4107.6" xlink:href="#HkP7JYcE6e:roboto-thinitalic:73" /><use x="24151" y="4107.6" xlink:href="#HkP7JYcE6e:roboto-thinitalic:92" /><use x="25110" y="4107.6" xlink:href="#HkP7JYcE6e:roboto-thinitalic:77" /><use x="25529" y="4107.6" xlink:href="#HkP7JYcE6e:roboto-thinitalic:87" /><use x="26527" y="4107.6" xlink:href="#HkP7JYcE6e:roboto-thinitalic:88" /><use x="27166" y="4107.6" xlink:href="#HkP7JYcE6e:roboto-thinitalic:73" /><use x="28177" y="4107.6" xlink:href="#HkP7JYcE6e:roboto-thinitalic:82" /><use x="29274" y="4107.6" xlink:href="#HkP7JYcE6e:roboto-thinitalic:71" /><use x="30292" y="4107.6" xlink:href="#HkP7JYcE6e:roboto-thinitalic:73" /><use x="31303" y="4107.6" xlink:href="#HkP7JYcE6e:roboto-thinitalic:4" /><use x="31788" y="4107.6" xlink:href="#HkP7JYcE6e:roboto-thinitalic:77" /><use x="32207" y="4107.6" xlink:href="#HkP7JYcE6e:roboto-thinitalic:87" /><use x="33205" y="4107.6" xlink:href="#HkP7JYcE6e:roboto-thinitalic:4" /><use x="33690" y="4107.6" xlink:href="#HkP7JYcE6e:roboto-thinitalic:69" /><use x="34749" y="4107.6" xlink:href="#HkP7JYcE6e:roboto-thinitalic:4" /><use x="35234" y="4107.6" xlink:href="#HkP7JYcE6e:roboto-thinitalic:81" /><use x="37025" y="4107.6" xlink:href="#HkP7JYcE6e:roboto-thinitalic:93" /><use x="37984" y="4107.6" xlink:href="#HkP7JYcE6e:roboto-thinitalic:88" /><use x="38623" y="4107.6" xlink:href="#HkP7JYcE6e:roboto-thinitalic:76" /><use x="39720" y="4107.6" xlink:href="#HkP7JYcE6e:roboto-thinitalic:18" /></g><g id="line-2"><use x="12464" y="6565.2" xlink:href="#HkP7JYcE6e:roboto-thinitalic:42" /><use x="13590" y="6565.2" xlink:href="#HkP7JYcE6e:roboto-thinitalic:83" /><use x="14693" y="6565.2" xlink:href="#HkP7JYcE6e:roboto-thinitalic:86" /><use x="15367" y="6565.2" xlink:href="#HkP7JYcE6e:roboto-thinitalic:4" /><use x="15852" y="6565.2" xlink:href="#HkP7JYcE6e:roboto-thinitalic:87" /><use x="16850" y="6565.2" xlink:href="#HkP7JYcE6e:roboto-thinitalic:71" /><use x="17868" y="6565.2" xlink:href="#HkP7JYcE6e:roboto-thinitalic:77" /><use x="18287" y="6565.2" xlink:href="#HkP7JYcE6e:roboto-thinitalic:73" /><use x="19298" y="6565.2" xlink:href="#HkP7JYcE6e:roboto-thinitalic:82" /><use x="20395" y="6565.2" xlink:href="#HkP7JYcE6e:roboto-thinitalic:71" /><use x="21413" y="6565.2" xlink:href="#HkP7JYcE6e:roboto-thinitalic:73" /><use x="22424" y="6565.2" xlink:href="#HkP7JYcE6e:roboto-thinitalic:16" /><use x="22806" y="6565.2" xlink:href="#HkP7JYcE6e:roboto-thinitalic:4" /><use x="23291" y="6565.2" xlink:href="#HkP7JYcE6e:roboto-thinitalic:81" /><use x="25082" y="6565.2" xlink:href="#HkP7JYcE6e:roboto-thinitalic:89" /><use x="26179" y="6565.2" xlink:href="#HkP7JYcE6e:roboto-thinitalic:87" /><use x="27177" y="6565.2" xlink:href="#HkP7JYcE6e:roboto-thinitalic:77" /><use x="27596" y="6565.2" xlink:href="#HkP7JYcE6e:roboto-thinitalic:71" /><use x="28614" y="6565.2" xlink:href="#HkP7JYcE6e:roboto-thinitalic:16" /><use x="28996" y="6565.2" xlink:href="#HkP7JYcE6e:roboto-thinitalic:4" /><use x="29481" y="6565.2" xlink:href="#HkP7JYcE6e:roboto-thinitalic:87" /><use x="30479" y="6565.2" xlink:href="#HkP7JYcE6e:roboto-thinitalic:84" /><use x="31576" y="6565.2" xlink:href="#HkP7JYcE6e:roboto-thinitalic:83" /><use x="32679" y="6565.2" xlink:href="#HkP7JYcE6e:roboto-thinitalic:86" /><use x="33353" y="6565.2" xlink:href="#HkP7JYcE6e:roboto-thinitalic:88" /><use x="33992" y="6565.2" xlink:href="#HkP7JYcE6e:roboto-thinitalic:16" /><use x="34374" y="6565.2" xlink:href="#HkP7JYcE6e:roboto-thinitalic:4" /><use x="34859" y="6565.2" xlink:href="#HkP7JYcE6e:roboto-thinitalic:73" /><use x="35870" y="6565.2" xlink:href="#HkP7JYcE6e:roboto-thinitalic:88" /><use x="36509" y="6565.2" xlink:href="#HkP7JYcE6e:roboto-thinitalic:71" /><use x="37527" y="6565.2" xlink:href="#HkP7JYcE6e:roboto-thinitalic:16" /></g></svg>