<svg xmlns="http://www.w3.org/2000/svg" xmlns:xlink="http://www.w3.org/1999/xlink" width="608" height="83" viewBox="0 0 51897 7065.2" ><defs><path id="s105:roboto-mediumitalic:56" d="M1278-1252L838-1252L621 0L375 0L593-1252L156-1252L192-1456L1314-1456L1278-1252Z"/><path id="s105:roboto-mediumitalic:76" d="M407-963Q542-1105 714-1101Q868-1099 942.50-992Q1017-885 998-696L882 0L645 0L763-699Q768-742 765-779Q752-901 621-904Q489-906 385-774L250 0L13 0L279-1536L517-1536L407-963Z"/><path id="s105:roboto-mediumitalic:73" d="M506 20Q365 17 261.50-51Q158-119 108.50-237Q59-355 71-500L74-541Q92-706 170.50-837.50Q249-969 366-1037Q483-1105 620-1102Q823-1098 924.50-951Q1026-804 1001-568L987-464L306-464Q297-335 358-256Q419-177 526-175Q679-170 808-308L928-182Q860-85 749-31.50Q638 22 506 20M607-908Q419-914 325-642L774-641L778-662Q785-708 779-752Q768-823 723-864Q678-905 607-908Z"/><path id="s105:roboto-mediumitalic:4" d=""/><path id="s105:roboto-mediumitalic:41" d="M979-650L399-650L321-202L999-202L964 0L39 0L291-1456L1210-1456L1174-1252L503-1252L433-850L1014-850L979-650Z"/><path id="s105:roboto-mediumitalic:89" d="M685-107Q562 24 377 20Q272 18 202.50-32Q133-82 103.50-171.50Q74-261 86-382L203-1082L440-1082L322-379Q318-342 321-307Q331-183 446-178Q603-172 700-304L836-1082L1073-1082L886 0L664 0L685-107Z"/><path id="s105:roboto-mediumitalic:86" d="M724-860Q678-870 631-870Q475-874 383-741L253 0L16 0L203-1082L428-1083L404-960Q515-1107 660-1104Q693-1104 751-1089L724-860Z"/><path id="s105:roboto-mediumitalic:83" d="M73-545Q90-704 166.50-834Q243-964 363-1035Q483-1106 629-1102Q768-1100 869-1028Q970-956 1016.50-831Q1063-706 1049-553Q1033-381 955.50-249Q878-117 757.50-46.50Q637 24 490 20Q352 18 251.50-53.50Q151-125 104-249.50Q57-374 70-524L73-545M306-408Q311-303 361.50-239.50Q412-176 502-173Q624-170 706.50-267Q789-364 810-532L816-630Q816-758 765-831Q714-904 617-908Q465-912 377-759Q324-666 310-545Q302-461 306-408Z"/><path id="s105:roboto-mediumitalic:84" d="M1029-537Q1009-375 942.50-243Q876-111 773.50-43.50Q671 24 544 21Q375 17 278-99L181 416L-57 416L203-1082L420-1083L402-971Q526-1106 697-1102Q800-1101 876-1049.50Q952-998 992.50-900Q1033-802 1036-682Q1037-621 1029-537M795-558L800-631Q803-760 757.50-831Q712-902 621-904Q487-908 389-781L305-298Q350-177 488-173Q606-170 686.50-265Q767-360 795-558Z"/><path id="s105:roboto-mediumitalic:69" d="M659 0Q647-40 649-101Q515 24 360 20Q219 18 126.50-70.50Q34-159 40-295Q48-466 188-564Q328-662 564-662L718-660L732-734Q738-773 732-807Q712-915 589-918Q513-920 455.50-879.50Q398-839 385-771L148-769Q155-869 219-944.50Q283-1020 389-1062Q495-1104 613-1102Q790-1098 889-995.50Q988-893 971-730L888-223L880-133Q877-74 895-18L894 0L659 0M415-174Q490-172 554-208.50Q618-245 663-303L700-508L587-509Q453-509 373-458.50Q293-408 282-320Q274-253 311.50-214.50Q349-176 415-174Z"/><path id="s105:roboto-mediumitalic:82" d="M423-1083L399-956Q538-1106 720-1102Q872-1099 945-993.50Q1018-888 999-699L882 0L645 0L763-702Q768-745 764-782Q751-901 622-904Q487-906 385-771L250 0L13 0L200-1082L423-1083Z"/><path id="s105:roboto-mediumitalic:80" d="M268 0L31 0L298-1536L535-1536L268 0Z"/><path id="s105:roboto-mediumitalic:75" d="M70-542Q89-704 157.50-835Q226-966 330-1035.50Q434-1105 568-1103Q746-1099 837-972L874-1083L1090-1082L911-30Q881 182 732.50 307.50Q584 433 371 427Q257 425 155 375Q53 325-9 243L117 100Q212 231 365 235Q481 239 564.50 171.50Q648 104 676-21L693-97Q568 24 409 20Q257 18 165.50-95Q74-208 65-399Q62-459 70-542M305-521Q299-470 301-411Q303-305 349-243Q395-181 480-178Q615-173 716-303L801-781Q749-900 616-904Q496-907 414-811Q332-715 307-542L305-521Z"/><path id="s105:roboto-mediumitalic:87" d="M663-300Q680-399 534.50-437.50Q389-476 336-499Q130-587 137-767Q142-913 269.50-1008.50Q397-1104 575-1102Q747-1100 855.50-1005Q964-910 962-756L727-757Q729-832 686-874.50Q643-917 568-919Q489-919 432.50-880Q376-841 367-778Q353-687 495-651.50Q637-616 705-586Q903-499 896-314Q891-211 828.50-134.50Q766-58 661-17.50Q556 23 438 20Q261 18 144.50-83Q28-184 30-342L259-341Q261-254 311-209Q361-164 448-163Q536-163 594.50-199.50Q653-236 663-300Z"/><path id="s105:roboto-mediumitalic:81" d="M425-1083L404-968Q538-1106 724-1102Q826-1100 893.50-1055Q961-1010 985-936Q1135-1106 1329-1102Q1487-1098 1563.50-993.50Q1640-889 1621-701L1504 0L1267 0L1385-703Q1390-747 1386-784Q1370-901 1238-904Q1091-908 1006-743L1003-721L879 0L641 0L759-700Q764-743 760-780Q744-901 612-904Q479-906 390-785L253 0L16 0L203-1082L425-1083Z"/><path id="s105:roboto-mediumitalic:70" d="M1031-536Q1011-371 942.50-237.50Q874-104 772.50-40Q671 24 544 21Q363 17 271-118L233 0L16 0L282-1536L520-1536L412-977Q533-1106 699-1102Q856-1098 944.50-987Q1033-876 1038-683Q1039-623 1031-536M803-670Q803-779 758-840.50Q713-902 628-904Q485-908 386-766L308-318Q352-182 497-177Q617-174 694.50-269Q772-364 794-537Q802-622 803-670Z"/><path id="s105:roboto-mediumitalic:74" d="M99 0L256-902L95-902L127-1082L287-1082L303-1198Q329-1366 438.50-1464Q548-1562 721-1560Q782-1558 862-1540L836-1350Q792-1360 747-1360Q662-1361 608-1314Q554-1267 539-1184L524-1082L738-1082L706-902L493-902L336 0L99 0Z"/><path id="s105:roboto-mediumitalic:88" d="M547-1345L501-1082L686-1082L655-902L469-902L367-296Q364-271 366-251Q372-186 446-183Q483-183 530-192L514-2Q440 19 365 19Q241 17 179.50-65.50Q118-148 131-284L232-902L59-902L91-1082L263-1082L309-1345L547-1345Z"/><path id="s105:roboto-mediumitalic:77" d="M268 0L31 0L219-1082L456-1082L268 0M253-1359Q253-1414 289-1453Q325-1492 386-1494Q444-1496 482.50-1458.50Q521-1421 521-1367Q521-1310 483.50-1273Q446-1236 388-1234Q331-1232 292-1268.50Q253-1305 253-1359Z"/><path id="s105:roboto-mediumitalic:93" d="M440-350L780-1082L1042-1082L401 187Q267 443 48 440Q-6 438-75 420L-55 232L-12 236Q74 239 130 203.50Q186 168 224 93L281-19L100-1082L346-1082L440-350Z"/><path id="s105:roboto-mediumitalic:18" d="M48-117Q48-178 86.50-216.50Q125-255 185-257Q244-259 283.50-221.50Q323-184 323-125Q323-67 285-28.50Q247 10 186 12Q127 14 87.50-23Q48-60 48-117Z"/><path id="s105:roboto-mediumitalic:92" d="M511-728L766-1082L1043-1082L629-538L870 0L622 0L471-369L205 0L-71 0L356-560L123-1082L371-1082L511-728Z"/><path id="s105:roboto-mediumitalic:71" d="M488-173Q573-171 638.50-222.50Q704-274 722-357L946-358Q935-251 868.50-163Q802-75 698-26Q594 23 481 20Q342 18 244-52Q146-122 101-245.50Q56-369 71-521L74-556Q91-713 165.50-840.50Q240-968 358-1037Q476-1106 620-1102Q796-1098 901-985.50Q1006-873 1006-693L784-693Q784-786 738.50-845Q693-904 607-908Q468-912 388-790Q308-668 302-446Q295-177 488-173Z"/><path id="s105:roboto-mediumitalic:42" d="M961-617L393-617L286 0L39 0L291-1456L1191-1456L1155-1252L503-1252L428-819L997-819L961-617Z"/><path id="s105:roboto-mediumitalic:16" d="M8 328L-119 248Q-1 90 26-29L63-235L276-235L250-74Q210 173 8 328Z"/></defs><g id="line-0"><use x="0" y="1650" xlink:href="#s105:roboto-mediumitalic:56" /><use x="1216" y="1650" xlink:href="#s105:roboto-mediumitalic:76" /><use x="2329" y="1650" xlink:href="#s105:roboto-mediumitalic:73" /><use x="3405" y="1650" xlink:href="#s105:roboto-mediumitalic:4" /><use x="3910" y="1650" xlink:href="#s105:roboto-mediumitalic:41" /><use x="5026" y="1650" xlink:href="#s105:roboto-mediumitalic:89" /><use x="6140" y="1650" xlink:href="#s105:roboto-mediumitalic:86" /><use x="6812" y="1650" xlink:href="#s105:roboto-mediumitalic:83" /><use x="7953" y="1650" xlink:href="#s105:roboto-mediumitalic:84" /><use x="9081" y="1650" xlink:href="#s105:roboto-mediumitalic:73" /><use x="10157" y="1650" xlink:href="#s105:roboto-mediumitalic:69" /><use x="11242" y="1650" xlink:href="#s105:roboto-mediumitalic:82" /><use x="12357" y="1650" xlink:href="#s105:roboto-mediumitalic:4" /><use x="12862" y="1650" xlink:href="#s105:roboto-mediumitalic:80" /><use x="13379" y="1650" xlink:href="#s105:roboto-mediumitalic:69" /><use x="14464" y="1650" xlink:href="#s105:roboto-mediumitalic:82" /><use x="15579" y="1650" xlink:href="#s105:roboto-mediumitalic:75" /><use x="16715" y="1650" xlink:href="#s105:roboto-mediumitalic:89" /><use x="17829" y="1650" xlink:href="#s105:roboto-mediumitalic:69" /><use x="18914" y="1650" xlink:href="#s105:roboto-mediumitalic:75" /><use x="20050" y="1650" xlink:href="#s105:roboto-mediumitalic:73" /><use x="21126" y="1650" xlink:href="#s105:roboto-mediumitalic:87" /><use x="22161" y="1650" xlink:href="#s105:roboto-mediumitalic:4" /><use x="22666" y="1650" xlink:href="#s105:roboto-mediumitalic:69" /><use x="23751" y="1650" xlink:href="#s105:roboto-mediumitalic:86" /><use x="24440" y="1650" xlink:href="#s105:roboto-mediumitalic:73" /><use x="25516" y="1650" xlink:href="#s105:roboto-mediumitalic:4" /><use x="26021" y="1650" xlink:href="#s105:roboto-mediumitalic:81" /><use x="27760" y="1650" xlink:href="#s105:roboto-mediumitalic:73" /><use x="28836" y="1650" xlink:href="#s105:roboto-mediumitalic:81" /><use x="30575" y="1650" xlink:href="#s105:roboto-mediumitalic:70" /><use x="31703" y="1650" xlink:href="#s105:roboto-mediumitalic:73" /><use x="32779" y="1650" xlink:href="#s105:roboto-mediumitalic:86" /><use x="33487" y="1650" xlink:href="#s105:roboto-mediumitalic:87" /><use x="34522" y="1650" xlink:href="#s105:roboto-mediumitalic:4" /><use x="35027" y="1650" xlink:href="#s105:roboto-mediumitalic:83" /><use x="36168" y="1650" xlink:href="#s105:roboto-mediumitalic:74" /><use x="36882" y="1650" xlink:href="#s105:roboto-mediumitalic:4" /><use x="37387" y="1650" xlink:href="#s105:roboto-mediumitalic:88" /><use x="38058" y="1650" xlink:href="#s105:roboto-mediumitalic:76" /><use x="39171" y="1650" xlink:href="#s105:roboto-mediumitalic:73" /><use x="40247" y="1650" xlink:href="#s105:roboto-mediumitalic:4" /><use x="40752" y="1650" xlink:href="#s105:roboto-mediumitalic:87" /><use x="41787" y="1650" xlink:href="#s105:roboto-mediumitalic:69" /><use x="42872" y="1650" xlink:href="#s105:roboto-mediumitalic:81" /><use x="44611" y="1650" xlink:href="#s105:roboto-mediumitalic:73" /><use x="45687" y="1650" xlink:href="#s105:roboto-mediumitalic:4" /><use x="46192" y="1650" xlink:href="#s105:roboto-mediumitalic:74" /><use x="46906" y="1650" xlink:href="#s105:roboto-mediumitalic:69" /><use x="47991" y="1650" xlink:href="#s105:roboto-mediumitalic:81" /><use x="49730" y="1650" xlink:href="#s105:roboto-mediumitalic:77" /><use x="50247" y="1650" xlink:href="#s105:roboto-mediumitalic:80" /><use x="50764" y="1650" xlink:href="#s105:roboto-mediumitalic:93" /><use x="51574" y="1650" xlink:href="#s105:roboto-mediumitalic:18" /></g><g id="line-1"><use x="10411.5" y="4107.6" xlink:href="#s105:roboto-mediumitalic:56" /><use x="11627.5" y="4107.6" xlink:href="#s105:roboto-mediumitalic:76" /><use x="12740.5" y="4107.6" xlink:href="#s105:roboto-mediumitalic:73" /><use x="13816.5" y="4107.6" xlink:href="#s105:roboto-mediumitalic:77" /><use x="14333.5" y="4107.6" xlink:href="#s105:roboto-mediumitalic:86" /><use x="15041.5" y="4107.6" xlink:href="#s105:roboto-mediumitalic:4" /><use x="15546.5" y="4107.6" xlink:href="#s105:roboto-mediumitalic:87" /><use x="16581.5" y="4107.6" xlink:href="#s105:roboto-mediumitalic:73" /><use x="17657.5" y="4107.6" xlink:href="#s105:roboto-mediumitalic:84" /><use x="18785.5" y="4107.6" xlink:href="#s105:roboto-mediumitalic:69" /><use x="19870.5" y="4107.6" xlink:href="#s105:roboto-mediumitalic:86" /><use x="20548.5" y="4107.6" xlink:href="#s105:roboto-mediumitalic:69" /><use x="21633.5" y="4107.6" xlink:href="#s105:roboto-mediumitalic:88" /><use x="22304.5" y="4107.6" xlink:href="#s105:roboto-mediumitalic:73" /><use x="23380.5" y="4107.6" xlink:href="#s105:roboto-mediumitalic:4" /><use x="23885.5" y="4107.6" xlink:href="#s105:roboto-mediumitalic:73" /><use x="24961.5" y="4107.6" xlink:href="#s105:roboto-mediumitalic:92" /><use x="25970.5" y="4107.6" xlink:href="#s105:roboto-mediumitalic:77" /><use x="26487.5" y="4107.6" xlink:href="#s105:roboto-mediumitalic:87" /><use x="27522.5" y="4107.6" xlink:href="#s105:roboto-mediumitalic:88" /><use x="28193.5" y="4107.6" xlink:href="#s105:roboto-mediumitalic:73" /><use x="29269.5" y="4107.6" xlink:href="#s105:roboto-mediumitalic:82" /><use x="30384.5" y="4107.6" xlink:href="#s105:roboto-mediumitalic:71" /><use x="31434.5" y="4107.6" xlink:href="#s105:roboto-mediumitalic:73" /><use x="32510.5" y="4107.6" xlink:href="#s105:roboto-mediumitalic:4" /><use x="33015.5" y="4107.6" xlink:href="#s105:roboto-mediumitalic:77" /><use x="33532.5" y="4107.6" xlink:href="#s105:roboto-mediumitalic:87" /><use x="34567.5" y="4107.6" xlink:href="#s105:roboto-mediumitalic:4" /><use x="35072.5" y="4107.6" xlink:href="#s105:roboto-mediumitalic:69" /><use x="36157.5" y="4107.6" xlink:href="#s105:roboto-mediumitalic:4" /><use x="36662.5" y="4107.6" xlink:href="#s105:roboto-mediumitalic:81" /><use x="38401.5" y="4107.6" xlink:href="#s105:roboto-mediumitalic:93" /><use x="39378.5" y="4107.6" xlink:href="#s105:roboto-mediumitalic:88" /><use x="40049.5" y="4107.6" xlink:href="#s105:roboto-mediumitalic:76" /><use x="41162.5" y="4107.6" xlink:href="#s105:roboto-mediumitalic:18" /></g><g id="line-2"><use x="12738.5" y="6565.2" xlink:href="#s105:roboto-mediumitalic:42" /><use x="13818.5" y="6565.2" xlink:href="#s105:roboto-mediumitalic:83" /><use x="14959.5" y="6565.2" xlink:href="#s105:roboto-mediumitalic:86" /><use x="15667.5" y="6565.2" xlink:href="#s105:roboto-mediumitalic:4" /><use x="16172.5" y="6565.2" xlink:href="#s105:roboto-mediumitalic:87" /><use x="17207.5" y="6565.2" xlink:href="#s105:roboto-mediumitalic:71" /><use x="18257.5" y="6565.2" xlink:href="#s105:roboto-mediumitalic:77" /><use x="18774.5" y="6565.2" xlink:href="#s105:roboto-mediumitalic:73" /><use x="19850.5" y="6565.2" xlink:href="#s105:roboto-mediumitalic:82" /><use x="20965.5" y="6565.2" xlink:href="#s105:roboto-mediumitalic:71" /><use x="22015.5" y="6565.2" xlink:href="#s105:roboto-mediumitalic:73" /><use x="23091.5" y="6565.2" xlink:href="#s105:roboto-mediumitalic:16" /><use x="23538.5" y="6565.2" xlink:href="#s105:roboto-mediumitalic:4" /><use x="24043.5" y="6565.2" xlink:href="#s105:roboto-mediumitalic:81" /><use x="25782.5" y="6565.2" xlink:href="#s105:roboto-mediumitalic:89" /><use x="26896.5" y="6565.2" xlink:href="#s105:roboto-mediumitalic:87" /><use x="27931.5" y="6565.2" xlink:href="#s105:roboto-mediumitalic:77" /><use x="28448.5" y="6565.2" xlink:href="#s105:roboto-mediumitalic:71" /><use x="29498.5" y="6565.2" xlink:href="#s105:roboto-mediumitalic:16" /><use x="29945.5" y="6565.2" xlink:href="#s105:roboto-mediumitalic:4" /><use x="30450.5" y="6565.2" xlink:href="#s105:roboto-mediumitalic:87" /><use x="31485.5" y="6565.2" xlink:href="#s105:roboto-mediumitalic:84" /><use x="32613.5" y="6565.2" xlink:href="#s105:roboto-mediumitalic:83" /><use x="33754.5" y="6565.2" xlink:href="#s105:roboto-mediumitalic:86" /><use x="34462.5" y="6565.2" xlink:href="#s105:roboto-mediumitalic:88" /><use x="35133.5" y="6565.2" xlink:href="#s105:roboto-mediumitalic:16" /><use x="35580.5" y="6565.2" xlink:href="#s105:roboto-mediumitalic:4" /><use x="36085.5" y="6565.2" xlink:href="#s105:roboto-mediumitalic:73" /><use x="37161.5" y="6565.2" xlink:href="#s105:roboto-mediumitalic:88" /><use x="37832.5" y="6565.2" xlink:href="#s105:roboto-mediumitalic:71" /><use x="38882.5" y="6565.2" xlink:href="#s105:roboto-mediumitalic:16" /></g></svg>