<svg xmlns="http://www.w3.org/2000/svg" xmlns:xlink="http://www.w3.org/1999/xlink" width="618" height="83" viewBox="0 0 52701 7065.2" ><defs><path id="s106:roboto-regular:56" d="M1175-1298L707-1298L707 0L516 0L516-1298L49-1298L49-1456L1175-1456L1175-1298Z"/><path id="s106:roboto-regular:76" d="M325-951Q448-1102 645-1102Q988-1102 991-715L991 0L806 0L806-716Q805-833 752.50-889Q700-945 589-945Q499-945 431-897Q363-849 325-771L325 0L140 0L140-1536L325-1536L325-951Z"/><path id="s106:roboto-regular:73" d="M589 20Q369 20 231-124.50Q93-269 93-511L93-545Q93-706 154.50-832.50Q216-959 326.50-1030.50Q437-1102 566-1102Q777-1102 894-963Q1011-824 1011-565L1011-488L278-488Q282-328 371.50-229.50Q461-131 599-131Q697-131 765-171Q833-211 884-277L997-189Q861 20 589 20M566-950Q454-950 378-868.50Q302-787 284-640L826-640L826-654Q818-795 750-872.50Q682-950 566-950Z"/><path id="s106:roboto-regular:4" d=""/><path id="s106:roboto-regular:41" d="M992-673L361-673L361-157L1094-157L1094 0L169 0L169-1456L1084-1456L1084-1298L361-1298L361-830L992-830L992-673Z"/><path id="s106:roboto-regular:89" d="M808-107Q700 20 491 20Q318 20 227.50-80.50Q137-181 136-378L136-1082L321-1082L321-383Q321-137 521-137Q733-137 803-295L803-1082L988-1082L988 0L812 0L808-107Z"/><path id="s106:roboto-regular:86" d="M663-916Q621-923 572-923Q390-923 325-768L325 0L140 0L140-1082L320-1082L323-957Q414-1102 581-1102Q635-1102 663-1088L663-916Z"/><path id="s106:roboto-regular:83" d="M91-551Q91-710 153.50-837Q216-964 327.50-1033Q439-1102 582-1102Q803-1102 939.50-949Q1076-796 1076-542L1076-529Q1076-371 1015.50-245.50Q955-120 842.50-50Q730 20 584 20Q364 20 227.50-133Q91-286 91-538L91-551M277-529Q277-349 360.50-240Q444-131 584-131Q725-131 808-241.50Q891-352 891-551Q891-729 806.50-839.50Q722-950 582-950Q445-950 361-841Q277-732 277-529Z"/><path id="s106:roboto-regular:84" d="M1054-529Q1054-282 941-131Q828 20 635 20Q438 20 325-105L325 416L140 416L140-1082L309-1082L318-962Q431-1102 632-1102Q827-1102 940.50-955Q1054-808 1054-546L1054-529M869-550Q869-733 791-839Q713-945 577-945Q409-945 325-796L325-279Q408-131 579-131Q712-131 790.50-236.50Q869-342 869-550Z"/><path id="s106:roboto-regular:69" d="M808 0Q792-32 782-114Q653 20 474 20Q314 20 211.50-70.50Q109-161 109-300Q109-469 237.50-562.50Q366-656 599-656L779-656L779-741Q779-838 721-895.50Q663-953 550-953Q451-953 384-903Q317-853 317-782L131-782Q131-863 188.50-938.50Q246-1014 344.50-1058Q443-1102 561-1102Q748-1102 854-1008.50Q960-915 964-751L964-253Q964-104 1002-16L1002 0L808 0M501-141Q588-141 666-186Q744-231 779-303L779-525L634-525Q294-525 294-326Q294-239 352-190Q410-141 501-141Z"/><path id="s106:roboto-regular:82" d="M315-1082L321-946Q445-1102 645-1102Q988-1102 991-715L991 0L806 0L806-716Q805-833 752.50-889Q700-945 589-945Q499-945 431-897Q363-849 325-771L325 0L140 0L140-1082L315-1082Z"/><path id="s106:roboto-regular:80" d="M341 0L156 0L156-1536L341-1536L341 0Z"/><path id="s106:roboto-regular:75" d="M96-550Q96-803 213-952.50Q330-1102 523-1102Q721-1102 832-962L841-1082L1010-1082L1010-26Q1010 184 885.50 305Q761 426 551 426Q434 426 322 376Q210 326 151 239L247 128Q366 275 538 275Q673 275 748.50 199Q824 123 824-15L824-108Q713 20 521 20Q331 20 213.50-133Q96-286 96-550M282-529Q282-346 357-241.50Q432-137 567-137Q742-137 824-296L824-790Q739-945 569-945Q434-945 358-840Q282-735 282-529Z"/><path id="s106:roboto-regular:87" d="M770-287Q770-362 713.50-403.50Q657-445 516.50-475Q376-505 293.50-547Q211-589 171.50-647Q132-705 132-785Q132-918 244.50-1010Q357-1102 532-1102Q716-1102 830.50-1007Q945-912 945-764L759-764Q759-840 694.50-895Q630-950 532-950Q431-950 374-906Q317-862 317-791Q317-724 370-690Q423-656 561.50-625Q700-594 786-551Q872-508 913.50-447.50Q955-387 955-300Q955-155 839-67.50Q723 20 538 20Q408 20 308-26Q208-72 151.50-154.50Q95-237 95-333L280-333Q285-240 354.50-185.50Q424-131 538-131Q643-131 706.50-173.50Q770-216 770-287Z"/><path id="s106:roboto-regular:81" d="M314-1082L319-962Q438-1102 640-1102Q867-1102 949-928Q1003-1006 1089.50-1054Q1176-1102 1294-1102Q1650-1102 1656-725L1656 0L1471 0L1471-714Q1471-830 1418-887.50Q1365-945 1240-945Q1137-945 1069-883.50Q1001-822 990-718L990 0L804 0L804-709Q804-945 573-945Q391-945 324-790L324 0L139 0L139-1082L314-1082Z"/><path id="s106:roboto-regular:70" d="M1056-529Q1056-281 942-130.50Q828 20 636 20Q431 20 319-125L310 0L140 0L140-1536L325-1536L325-963Q437-1102 634-1102Q831-1102 943.50-953Q1056-804 1056-545L1056-529M871-550Q871-739 798-842Q725-945 588-945Q405-945 325-775L325-307Q410-137 590-137Q723-137 797-240Q871-343 871-550Z"/><path id="s106:roboto-regular:74" d="M231 0L231-939L60-939L60-1082L231-1082L231-1193Q231-1367 324-1462Q417-1557 587-1557Q651-1557 714-1540L704-1390Q657-1399 604-1399Q514-1399 465-1346.50Q416-1294 416-1196L416-1082L647-1082L647-939L416-939L416 0L231 0Z"/><path id="s106:roboto-regular:88" d="M391-1344L391-1082L593-1082L593-939L391-939L391-268Q391-203 418-170.50Q445-138 510-138Q542-138 598-150L598 0Q525 20 456 20Q332 20 269-55Q206-130 206-268L206-939L9-939L9-1082L206-1082L206-1344L391-1344Z"/><path id="s106:roboto-regular:77" d="M341 0L156 0L156-1082L341-1082L341 0M141-1369Q141-1414 168.50-1445Q196-1476 250-1476Q304-1476 332-1445Q360-1414 360-1369Q360-1324 332-1294Q304-1264 250-1264Q196-1264 168.50-1294Q141-1324 141-1369Z"/><path id="s106:roboto-regular:93" d="M494-271L746-1082L944-1082L509 167Q408 437 188 437L153 434L84 421L84 271L134 275Q228 275 280.50 237Q333 199 367 98L408-12L22-1082L224-1082L494-271Z"/><path id="s106:roboto-regular:18" d="M144-97Q144-145 172.50-177Q201-209 258-209Q315-209 344.50-177Q374-145 374-97Q374-51 344.50-20Q315 11 258 11Q201 11 172.50-20Q144-51 144-97Z"/><path id="s106:roboto-regular:92" d="M503-687L743-1082L959-1082L605-547L970 0L756 0L506-405L256 0L41 0L406-547L52-1082L266-1082L503-687Z"/><path id="s106:roboto-regular:71" d="M574-131Q673-131 747-191Q821-251 829-341L1004-341Q999-248 940-164Q881-80 782.50-30Q684 20 574 20Q353 20 222.50-127.50Q92-275 92-531L92-562Q92-720 150-843Q208-966 316.50-1034Q425-1102 573-1102Q755-1102 875.50-993Q996-884 1004-710L829-710Q821-815 749.50-882.50Q678-950 573-950Q432-950 354.50-848.50Q277-747 277-555L277-520Q277-333 354-232Q431-131 574-131Z"/><path id="s106:roboto-regular:42" d="M972-643L361-643L361 0L169 0L169-1456L1071-1456L1071-1298L361-1298L361-800L972-800L972-643Z"/><path id="s106:roboto-regular:16" d="M134 290L29 218Q123 87 127-52L127-219L308-219L308-74Q308 27 258.50 128Q209 229 134 290Z"/></defs><g id="line-0"><use x="0" y="1650" xlink:href="#s106:roboto-regular:56" /><use x="1222" y="1650" xlink:href="#s106:roboto-regular:76" /><use x="2350" y="1650" xlink:href="#s106:roboto-regular:73" /><use x="3435" y="1650" xlink:href="#s106:roboto-regular:4" /><use x="3942" y="1650" xlink:href="#s106:roboto-regular:41" /><use x="5089" y="1650" xlink:href="#s106:roboto-regular:89" /><use x="6218" y="1650" xlink:href="#s106:roboto-regular:86" /><use x="6891" y="1650" xlink:href="#s106:roboto-regular:83" /><use x="8059" y="1650" xlink:href="#s106:roboto-regular:84" /><use x="9208" y="1650" xlink:href="#s106:roboto-regular:73" /><use x="10293" y="1650" xlink:href="#s106:roboto-regular:69" /><use x="11407" y="1650" xlink:href="#s106:roboto-regular:82" /><use x="12537" y="1650" xlink:href="#s106:roboto-regular:4" /><use x="13044" y="1650" xlink:href="#s106:roboto-regular:80" /><use x="13541" y="1650" xlink:href="#s106:roboto-regular:69" /><use x="14655" y="1650" xlink:href="#s106:roboto-regular:82" /><use x="15785" y="1650" xlink:href="#s106:roboto-regular:75" /><use x="16934" y="1650" xlink:href="#s106:roboto-regular:89" /><use x="18063" y="1650" xlink:href="#s106:roboto-regular:69" /><use x="19177" y="1650" xlink:href="#s106:roboto-regular:75" /><use x="20326" y="1650" xlink:href="#s106:roboto-regular:73" /><use x="21411" y="1650" xlink:href="#s106:roboto-regular:87" /><use x="22467" y="1650" xlink:href="#s106:roboto-regular:4" /><use x="22974" y="1650" xlink:href="#s106:roboto-regular:69" /><use x="24088" y="1650" xlink:href="#s106:roboto-regular:86" /><use x="24762" y="1650" xlink:href="#s106:roboto-regular:73" /><use x="25847" y="1650" xlink:href="#s106:roboto-regular:4" /><use x="26354" y="1650" xlink:href="#s106:roboto-regular:81" /><use x="28149" y="1650" xlink:href="#s106:roboto-regular:73" /><use x="29234" y="1650" xlink:href="#s106:roboto-regular:81" /><use x="31029" y="1650" xlink:href="#s106:roboto-regular:70" /><use x="32178" y="1650" xlink:href="#s106:roboto-regular:73" /><use x="33263" y="1650" xlink:href="#s106:roboto-regular:86" /><use x="33956" y="1650" xlink:href="#s106:roboto-regular:87" /><use x="35012" y="1650" xlink:href="#s106:roboto-regular:4" /><use x="35519" y="1650" xlink:href="#s106:roboto-regular:83" /><use x="36687" y="1650" xlink:href="#s106:roboto-regular:74" /><use x="37398" y="1650" xlink:href="#s106:roboto-regular:4" /><use x="37905" y="1650" xlink:href="#s106:roboto-regular:88" /><use x="38574" y="1650" xlink:href="#s106:roboto-regular:76" /><use x="39702" y="1650" xlink:href="#s106:roboto-regular:73" /><use x="40787" y="1650" xlink:href="#s106:roboto-regular:4" /><use x="41294" y="1650" xlink:href="#s106:roboto-regular:87" /><use x="42350" y="1650" xlink:href="#s106:roboto-regular:69" /><use x="43464" y="1650" xlink:href="#s106:roboto-regular:81" /><use x="45259" y="1650" xlink:href="#s106:roboto-regular:73" /><use x="46344" y="1650" xlink:href="#s106:roboto-regular:4" /><use x="46851" y="1650" xlink:href="#s106:roboto-regular:74" /><use x="47562" y="1650" xlink:href="#s106:roboto-regular:69" /><use x="48676" y="1650" xlink:href="#s106:roboto-regular:81" /><use x="50471" y="1650" xlink:href="#s106:roboto-regular:77" /><use x="50968" y="1650" xlink:href="#s106:roboto-regular:80" /><use x="51465" y="1650" xlink:href="#s106:roboto-regular:93" /><use x="52327" y="1650" xlink:href="#s106:roboto-regular:18" /></g><g id="line-1"><use x="10660" y="4107.6" xlink:href="#s106:roboto-regular:56" /><use x="11882" y="4107.6" xlink:href="#s106:roboto-regular:76" /><use x="13010" y="4107.6" xlink:href="#s106:roboto-regular:73" /><use x="14095" y="4107.6" xlink:href="#s106:roboto-regular:77" /><use x="14592" y="4107.6" xlink:href="#s106:roboto-regular:86" /><use x="15285" y="4107.6" xlink:href="#s106:roboto-regular:4" /><use x="15792" y="4107.6" xlink:href="#s106:roboto-regular:87" /><use x="16848" y="4107.6" xlink:href="#s106:roboto-regular:73" /><use x="17933" y="4107.6" xlink:href="#s106:roboto-regular:84" /><use x="19082" y="4107.6" xlink:href="#s106:roboto-regular:69" /><use x="20196" y="4107.6" xlink:href="#s106:roboto-regular:86" /><use x="20849" y="4107.6" xlink:href="#s106:roboto-regular:69" /><use x="21963" y="4107.6" xlink:href="#s106:roboto-regular:88" /><use x="22632" y="4107.6" xlink:href="#s106:roboto-regular:73" /><use x="23717" y="4107.6" xlink:href="#s106:roboto-regular:4" /><use x="24224" y="4107.6" xlink:href="#s106:roboto-regular:73" /><use x="25309" y="4107.6" xlink:href="#s106:roboto-regular:92" /><use x="26324" y="4107.6" xlink:href="#s106:roboto-regular:77" /><use x="26821" y="4107.6" xlink:href="#s106:roboto-regular:87" /><use x="27877" y="4107.6" xlink:href="#s106:roboto-regular:88" /><use x="28546" y="4107.6" xlink:href="#s106:roboto-regular:73" /><use x="29631" y="4107.6" xlink:href="#s106:roboto-regular:82" /><use x="30761" y="4107.6" xlink:href="#s106:roboto-regular:71" /><use x="31833" y="4107.6" xlink:href="#s106:roboto-regular:73" /><use x="32918" y="4107.6" xlink:href="#s106:roboto-regular:4" /><use x="33425" y="4107.6" xlink:href="#s106:roboto-regular:77" /><use x="33922" y="4107.6" xlink:href="#s106:roboto-regular:87" /><use x="34978" y="4107.6" xlink:href="#s106:roboto-regular:4" /><use x="35485" y="4107.6" xlink:href="#s106:roboto-regular:69" /><use x="36599" y="4107.6" xlink:href="#s106:roboto-regular:4" /><use x="37106" y="4107.6" xlink:href="#s106:roboto-regular:81" /><use x="38901" y="4107.6" xlink:href="#s106:roboto-regular:93" /><use x="39870" y="4107.6" xlink:href="#s106:roboto-regular:88" /><use x="40539" y="4107.6" xlink:href="#s106:roboto-regular:76" /><use x="41667" y="4107.6" xlink:href="#s106:roboto-regular:18" /></g><g id="line-2"><use x="13040" y="6565.2" xlink:href="#s106:roboto-regular:42" /><use x="14151" y="6565.2" xlink:href="#s106:roboto-regular:83" /><use x="15319" y="6565.2" xlink:href="#s106:roboto-regular:86" /><use x="16012" y="6565.2" xlink:href="#s106:roboto-regular:4" /><use x="16519" y="6565.2" xlink:href="#s106:roboto-regular:87" /><use x="17575" y="6565.2" xlink:href="#s106:roboto-regular:71" /><use x="18647" y="6565.2" xlink:href="#s106:roboto-regular:77" /><use x="19144" y="6565.2" xlink:href="#s106:roboto-regular:73" /><use x="20229" y="6565.2" xlink:href="#s106:roboto-regular:82" /><use x="21359" y="6565.2" xlink:href="#s106:roboto-regular:71" /><use x="22431" y="6565.2" xlink:href="#s106:roboto-regular:73" /><use x="23516" y="6565.2" xlink:href="#s106:roboto-regular:16" /><use x="23918" y="6565.2" xlink:href="#s106:roboto-regular:4" /><use x="24425" y="6565.2" xlink:href="#s106:roboto-regular:81" /><use x="26220" y="6565.2" xlink:href="#s106:roboto-regular:89" /><use x="27349" y="6565.2" xlink:href="#s106:roboto-regular:87" /><use x="28405" y="6565.2" xlink:href="#s106:roboto-regular:77" /><use x="28902" y="6565.2" xlink:href="#s106:roboto-regular:71" /><use x="29974" y="6565.2" xlink:href="#s106:roboto-regular:16" /><use x="30376" y="6565.2" xlink:href="#s106:roboto-regular:4" /><use x="30883" y="6565.2" xlink:href="#s106:roboto-regular:87" /><use x="31939" y="6565.2" xlink:href="#s106:roboto-regular:84" /><use x="33088" y="6565.2" xlink:href="#s106:roboto-regular:83" /><use x="34256" y="6565.2" xlink:href="#s106:roboto-regular:86" /><use x="34949" y="6565.2" xlink:href="#s106:roboto-regular:88" /><use x="35618" y="6565.2" xlink:href="#s106:roboto-regular:16" /><use x="36020" y="6565.2" xlink:href="#s106:roboto-regular:4" /><use x="36527" y="6565.2" xlink:href="#s106:roboto-regular:73" /><use x="37612" y="6565.2" xlink:href="#s106:roboto-regular:88" /><use x="38281" y="6565.2" xlink:href="#s106:roboto-regular:71" /><use x="39353" y="6565.2" xlink:href="#s106:roboto-regular:16" /></g></svg>