<svg xmlns="http://www.w3.org/2000/svg" xmlns:xlink="http://www.w3.org/1999/xlink" width="755" height="86" viewBox="0 0 64406 7338.7"><defs><path id="s86:robotomono-mediumitalic:54" d="M1259-1258L826-1258L608 0L375 0L593-1258L162-1258L197-1456L1294-1456L1259-1258Z"/><path id="s86:robotomono-mediumitalic:74" d="M432-931Q463-969 499-1001Q535-1033 576-1055.50Q617-1078 662.50-1090.50Q708-1103 759-1102Q853-1100 916.50-1063.50Q980-1027 1016.50-967Q1053-907 1064.50-829Q1076-751 1067-667L955 0L722 0L834-670Q840-718 834-760Q828-802 808.50-834Q789-866 754.50-884.50Q720-903 667-905Q591-907 529.50-874Q468-841 417-787L279 0L46 0L312-1536L546-1536L432-931Z"/><path id="s86:robotomono-mediumitalic:71" d="M547 20Q437 18 350-23.50Q263-65 205.50-135Q148-205 121-298.50Q94-392 104-499L109-541Q117-614 141-685Q165-756 202.50-819Q240-882 290-934.50Q340-987 401.50-1025Q463-1063 533.50-1083.50Q604-1104 683-1102Q797-1099 876.50-1054Q956-1009 1003.50-935Q1051-861 1067.50-765.50Q1084-670 1071-567L1056-466L334-466Q329-408 342.50-355.50Q356-303 386.50-262.50Q417-222 463.50-197.50Q510-173 572-172Q660-169 737.50-205Q815-241 875-304L992-182Q955-129 904.50-90.50Q854-52 795-27Q736-2 672.50 9.50Q609 21 547 20M665-910Q605-912 557-889Q509-866 471.50-828Q434-790 406-741Q378-692 359-642L851-641L855-662Q862-711 853-755Q844-799 819-833Q794-867 755-887.50Q716-908 665-910Z"/><path id="s86:robotomono-mediumitalic:3" d=""/><path id="s86:robotomono-mediumitalic:39" d="M982-653L401-653L322-196L1002-196L968 0L53 0L305-1456L1214-1456L1179-1258L506-1258L434-847L1016-847L982-653Z"/><path id="s86:robotomono-mediumitalic:87" d="M754-148Q724-110 688.50-78.50Q653-47 613-24.50Q573-2 528 10Q483 22 433 21Q335 19 272.50-22Q210-63 176.50-128.50Q143-194 134.50-276Q126-358 135-442L241-1082L475-1082L368-439Q363-394 362-347.50Q361-301 373-263.50Q385-226 415-201.50Q445-177 502-176Q587-173 651.50-208.50Q716-244 763-313L897-1082L1131-1082L944 0L734 0L754-148Z"/><path id="s86:robotomono-mediumitalic:84" d="M945-1104Q995-1103 1045-1096.50Q1095-1090 1143-1074L1081-840Q1030-852 979.50-859.50Q929-867 876-868Q764-869 681.50-820.50Q599-772 542-677L424 0L191 0L379-1082L597-1083L570-912Q606-955 647.50-990.50Q689-1026 736-1051.50Q783-1077 835-1090.50Q887-1104 945-1104Z"/><path id="s86:robotomono-mediumitalic:81" d="M99-544Q113-656 157.50-758.50Q202-861 274.50-938Q347-1015 445.50-1060Q544-1105 665-1102Q780-1099 862.50-1052.50Q945-1006 995.50-930Q1046-854 1065.50-756.50Q1085-659 1074-554L1072-532Q1058-420 1013-318.50Q968-217 895.50-140.50Q823-64 724.50-20Q626 24 506 21Q392 18 309.50-28Q227-74 176-149Q125-224 105.50-321Q86-418 97-523L99-544M330-523Q326-486 325.50-446Q325-406 331-367Q337-328 350-293Q363-258 386-231Q409-204 442.50-187Q476-170 523-169Q598-166 653.50-199Q709-232 747-285Q785-338 807.50-404Q830-470 838-533L840-553Q846-608 843-670Q840-732 820.50-784.50Q801-837 759.50-872.50Q718-908 648-910Q573-912 517-879Q461-846 423-792.50Q385-739 362.50-673Q340-607 332-544L330-523Z"/><path id="s86:robotomono-mediumitalic:82" d="M1058-536Q1050-470 1032-402.50Q1014-335 985-272.50Q956-210 916-155.50Q876-101 824.50-61.50Q773-22 709 0.50Q645 23 568 21Q490 19 422.50-9Q355-37 304-97L208 416L-25 416L234-1082L447-1083L431-973Q491-1036 564-1070Q637-1104 726-1102Q800-1100 855.50-1076Q911-1052 950.50-1012Q990-972 1014.50-919Q1039-866 1051.50-806Q1064-746 1065.50-682.50Q1067-619 1060-558L1058-536M827-558Q831-593 831.50-632Q832-671 827.50-709Q823-747 811-782.50Q799-818 777.50-845Q756-872 724-888.50Q692-905 646-906Q571-908 515-874Q459-840 416-782L332-295Q356-234 403-203Q450-172 517-170Q567-168 607.50-183Q648-198 680.50-225Q713-252 737.50-288.50Q762-325 779.50-366Q797-407 807.50-451Q818-495 824-537L827-558Z"/><path id="s86:robotomono-mediumitalic:67" d="M726 0Q718-26 717-52Q716-78 717-105Q651-46 573.50-12.50Q496 21 406 19Q338 18 277-4Q216-26 171-66.50Q126-107 101-164.50Q76-222 80-295Q84-366 108.50-421Q133-476 172-516.50Q211-557 262.50-585Q314-613 372-630.50Q430-648 491.50-655Q553-662 614-662L791-661L803-734Q809-778 798.50-812.50Q788-847 764-870.50Q740-894 705-906.50Q670-919 627-920Q589-921 555-912.50Q521-904 493-885.50Q465-867 446-839Q427-811 419-772L186-771Q193-857 238-920Q283-983 350-1024Q417-1065 497-1084.50Q577-1104 654-1103Q738-1101 811.50-1076.50Q885-1052 938-1005Q991-958 1018.50-889Q1046-820 1037-730L958-247Q949-190 946-132Q943-74 961-18L959 0L726 0M464-172Q544-170 614-206Q684-242 733-305L770-509L635-510Q586-510 533-502Q480-494 434-473.50Q388-453 356-416Q324-379 317-321Q312-284 321.50-256.50Q331-229 351-210.50Q371-192 400-182.50Q429-173 464-172Z"/><path id="s86:robotomono-mediumitalic:80" d="M443-1083L423-931Q489-1009 573.50-1056.50Q658-1104 763-1102Q856-1100 918-1064.50Q980-1029 1015.50-970.50Q1051-912 1062.50-835.50Q1074-759 1065-676L952 0L719 0L831-673Q837-723 832-765Q827-807 808-838Q789-869 754-887Q719-905 664-906Q625-907 590-898Q555-889 524.50-871.50Q494-854 466.50-830Q439-806 415-777L280 0L46 0L234-1082L443-1083Z"/><path id="s86:robotomono-mediumitalic:78" d="M355-1536L924-1536L692-198L1012-198L977 0L88 0L123-198L456-198L654-1337L320-1337L355-1536Z"/><path id="s86:robotomono-mediumitalic:73" d="M111-542Q119-610 138.50-678.50Q158-747 188-810Q218-873 259-927Q300-981 353.50-1020.50Q407-1060 472-1082Q537-1104 615-1102Q696-1100 764.50-1069.50Q833-1039 881-973L916-1082L1129-1082L950-29Q935 77 888.50 162.50Q842 248 771 307.50Q700 367 607.50 398Q515 429 408 427Q354 426 301 414Q248 402 199.50 379.50Q151 357 108.50 324Q66 291 34 248L158 102Q204 165 266.50 200.50Q329 236 408 238Q470 240 522 222Q574 204 614 169.50Q654 135 681 86.50Q708 38 720-22L735-96Q675-39 604.50-9Q534 21 450 19Q379 18 324-6.50Q269-31 229-71Q189-111 163-164Q137-217 123-276.50Q109-336 106-398.50Q103-461 109-521L111-542M343-521Q337-468 339.50-408.50Q342-349 360.50-298Q379-247 418-212.50Q457-178 525-176Q601-174 658-208.50Q715-243 759-302L843-782Q791-904 658-907Q583-909 527.50-876.50Q472-844 434.50-790.50Q397-737 375.50-671.50Q354-606 346-542L343-521Z"/><path id="s86:robotomono-mediumitalic:85" d="M787-299Q793-341 771.50-367Q750-393 716-409Q682-425 642.50-434Q603-443 575-450Q534-460 490-473Q446-486 404.50-504Q363-522 325.50-546.50Q288-571 261-603Q234-635 218.50-675.50Q203-716 206-767Q209-825 230-872.50Q251-920 286-957.50Q321-995 367-1023Q413-1051 464-1068.50Q515-1086 568-1094.50Q621-1103 672-1102Q751-1101 825.50-1079.50Q900-1058 957.50-1015Q1015-972 1049-907.50Q1083-843 1082-756L850-757Q851-798 836-828.50Q821-859 795.50-879.50Q770-900 735.50-910Q701-920 662-920Q627-920 589-913Q551-906 518.50-889.50Q486-873 462.50-845.50Q439-818 433-778Q427-737 445.50-712Q464-687 495-672Q526-657 562.50-649Q599-641 628-635Q671-625 717-612.50Q763-600 807-582.50Q851-565 890-541Q929-517 958-484Q987-451 1002.50-409Q1018-367 1016-313Q1011-221 964-157Q917-93 846-53Q775-13 691 5Q607 23 529 21Q448 20 370-3.50Q292-27 231.50-72Q171-117 134.50-184.50Q98-252 99-342L325-341Q326-294 343.50-260Q361-226 390-204Q419-182 458-171Q497-160 541-160Q576-160 616.50-166Q657-172 693-187.50Q729-203 755-230Q781-257 787-299Z"/><path id="s86:robotomono-mediumitalic:79" d="M367-1083L345-967Q385-1028 439-1065.50Q493-1103 568-1102Q628-1102 671.50-1075.50Q715-1049 732-989Q773-1040 823-1071.50Q873-1103 941-1101Q1005-1100 1045.50-1071.50Q1086-1043 1107.50-998.50Q1129-954 1134.50-899Q1140-844 1135-790L1004 0L787 0L920-794Q922-815 921-835Q920-855 912.50-871Q905-887 889.50-896.50Q874-906 849-906Q811-906 786-886.50Q761-867 741-836L596 0L384 0L518-793Q520-814 519-834Q518-854 511-870Q504-886 489.50-896Q475-906 450-906Q412-907 386-888Q360-869 339-840L194 0L-23 0L165-1082L367-1083Z"/><path id="s86:robotomono-mediumitalic:68" d="M1061-535Q1053-468 1035-400.50Q1017-333 988-270.50Q959-208 919.50-154Q880-100 828-60.50Q776-21 712 1Q648 23 571 21Q487 19 417-14.50Q347-48 299-117L262 0L49 0L315-1536L549-1536L443-978Q502-1040 573-1072Q644-1104 730-1102Q804-1100 859.50-1076Q915-1052 954-1011.50Q993-971 1017.50-917.50Q1042-864 1054.50-804Q1067-744 1068.50-680.50Q1070-617 1064-556L1061-535M831-557Q835-592 836.50-631.50Q838-671 834-709Q830-747 819-782.50Q808-818 787-845Q766-872 734-888.50Q702-905 655-907Q575-909 516.50-869.50Q458-830 415-766L337-317Q360-250 408-213Q456-176 528-174Q603-172 656.50-204.50Q710-237 745.50-289.50Q781-342 800.50-407Q820-472 828-535L831-557Z"/><path id="s86:robotomono-mediumitalic:72" d="M310 0L467-904L184-904L215-1082L493-1082L504-1149Q520-1251 562.50-1332Q605-1413 670-1469Q735-1525 821.50-1554Q908-1583 1012-1582Q1078-1581 1142-1570Q1206-1559 1270-1546L1228-1356Q1180-1370 1130-1378Q1080-1386 1029-1387Q909-1388 835-1328Q761-1268 738-1150L725-1081L1122-1082L1090-904L701-904L544 0L310 0Z"/><path id="s86:robotomono-mediumitalic:86" d="M745-1344L699-1082L1097-1082L1065-904L669-904L583-384Q578-341 582-304.50Q586-268 602-240.50Q618-213 647.50-196.50Q677-180 724-179Q782-177 839-187Q896-197 953-209L963-42Q929-22 890-10Q851 2 810 9Q769 16 728 18.50Q687 21 648 20Q562 19 501-12.50Q440-44 403.50-97Q367-150 353.50-220.50Q340-291 348-372L435-904L179-904L210-1082L466-1082L512-1344L745-1344Z"/><path id="s86:robotomono-mediumitalic:75" d="M284-1082L845-1082L692-198L1004-198L969 0L96 0L131-198L456-198L575-883L249-883L284-1082M639-1358Q639-1387 649-1411Q659-1435 677-1453Q695-1471 719.50-1481Q744-1491 773-1492Q801-1493 825.50-1484Q850-1475 868.50-1458.50Q887-1442 897.50-1418.50Q908-1395 908-1366Q908-1337 897-1312.50Q886-1288 868-1270Q850-1252 825-1242Q800-1232 772-1232Q744-1231 719.50-1240Q695-1249 677-1265.50Q659-1282 649-1305.50Q639-1329 639-1358Z"/><path id="s86:robotomono-mediumitalic:91" d="M536-421L551-306L980-1082L1248-1082L502 164Q470 219 431 269Q392 319 344.50 357Q297 395 239.50 417Q182 439 114 439Q81 438 48.50 432.50Q16 427-16 419L36 234Q58 236 80 238.50Q102 241 123 240Q156 239 183.50 223.50Q211 208 233.50 185Q256 162 275 134.50Q294 107 311 83L410-63L145-1082L393-1082L536-421Z"/><path id="s86:robotomono-mediumitalic:16" d="M362-137Q362-174 375-206Q388-238 411-261.50Q434-285 465.50-298.50Q497-312 535-312Q571-312 601.50-300.50Q632-289 653.50-267Q675-245 687.50-215Q700-185 700-149Q700-111 686.50-80Q673-49 650-26.50Q627-4 595 8.50Q563 21 526 21Q491 21 461 10Q431-1 409-21.50Q387-42 374.50-71.50Q362-101 362-137Z"/><path id="s86:robotomono-mediumitalic:90" d="M621-717L928-1082L1200-1082L738-540L1030 0L785 0L584-378L266 0L-7 0L470-558L187-1082L432-1082L621-717Z"/><path id="s86:robotomono-mediumitalic:69" d="M534-169Q577-168 618.50-180.50Q660-193 693.50-217.50Q727-242 750.50-276.50Q774-311 782-355L1002-356Q995-268 950-197.50Q905-127 837-78Q769-29 686-3Q603 23 521 21Q405 19 323-26.50Q241-72 190.50-146.50Q140-221 121-317.50Q102-414 113-519L117-556Q130-668 175-768.50Q220-869 292.50-944Q365-1019 463-1062Q561-1105 680-1102Q769-1100 842.50-1069.50Q916-1039 967.50-985.50Q1019-932 1046-858Q1073-784 1068-694L849-695Q852-739 840-777.50Q828-816 804-845Q780-874 744-891Q708-908 662-910Q587-913 532-881.50Q477-850 439-799Q401-748 379-684Q357-620 348-556L344-520Q340-483 339.50-443Q339-403 344-364.50Q349-326 361.50-291Q374-256 396.50-229.50Q419-203 452.50-186.50Q486-170 534-169Z"/><path id="s86:robotomono-mediumitalic:40" d="M994-620L402-620L295 0L58 0L311-1456L1227-1456L1192-1258L513-1258L436-817L1029-817L994-620Z"/><path id="s86:robotomono-mediumitalic:14" d="M565-34Q545 87 480.50 192.50Q416 298 321 376L188 302Q241 226 277 146Q313 66 330-25L366-234L599-234L565-34Z"/></defs><g id="line-0"><use x="0" y="1868.5" xlink:href="#s86:robotomono-mediumitalic:54"/><use x="1202" y="1868.5" xlink:href="#s86:robotomono-mediumitalic:74"/><use x="2404" y="1868.5" xlink:href="#s86:robotomono-mediumitalic:71"/><use x="3606" y="1868.5" xlink:href="#s86:robotomono-mediumitalic:3"/><use x="4808" y="1868.5" xlink:href="#s86:robotomono-mediumitalic:39"/><use x="6010" y="1868.5" xlink:href="#s86:robotomono-mediumitalic:87"/><use x="7212" y="1868.5" xlink:href="#s86:robotomono-mediumitalic:84"/><use x="8414" y="1868.5" xlink:href="#s86:robotomono-mediumitalic:81"/><use x="9616" y="1868.5" xlink:href="#s86:robotomono-mediumitalic:82"/><use x="10818" y="1868.5" xlink:href="#s86:robotomono-mediumitalic:71"/><use x="12020" y="1868.5" xlink:href="#s86:robotomono-mediumitalic:67"/><use x="13222" y="1868.5" xlink:href="#s86:robotomono-mediumitalic:80"/><use x="14424" y="1868.5" xlink:href="#s86:robotomono-mediumitalic:3"/><use x="15626" y="1868.5" xlink:href="#s86:robotomono-mediumitalic:78"/><use x="16828" y="1868.5" xlink:href="#s86:robotomono-mediumitalic:67"/><use x="18030" y="1868.5" xlink:href="#s86:robotomono-mediumitalic:80"/><use x="19232" y="1868.5" xlink:href="#s86:robotomono-mediumitalic:73"/><use x="20434" y="1868.5" xlink:href="#s86:robotomono-mediumitalic:87"/><use x="21636" y="1868.5" xlink:href="#s86:robotomono-mediumitalic:67"/><use x="22838" y="1868.5" xlink:href="#s86:robotomono-mediumitalic:73"/><use x="24040" y="1868.5" xlink:href="#s86:robotomono-mediumitalic:71"/><use x="25242" y="1868.5" xlink:href="#s86:robotomono-mediumitalic:85"/><use x="26444" y="1868.5" xlink:href="#s86:robotomono-mediumitalic:3"/><use x="27646" y="1868.5" xlink:href="#s86:robotomono-mediumitalic:67"/><use x="28848" y="1868.5" xlink:href="#s86:robotomono-mediumitalic:84"/><use x="30050" y="1868.5" xlink:href="#s86:robotomono-mediumitalic:71"/><use x="31252" y="1868.5" xlink:href="#s86:robotomono-mediumitalic:3"/><use x="32454" y="1868.5" xlink:href="#s86:robotomono-mediumitalic:79"/><use x="33656" y="1868.5" xlink:href="#s86:robotomono-mediumitalic:71"/><use x="34858" y="1868.5" xlink:href="#s86:robotomono-mediumitalic:79"/><use x="36060" y="1868.5" xlink:href="#s86:robotomono-mediumitalic:68"/><use x="37262" y="1868.5" xlink:href="#s86:robotomono-mediumitalic:71"/><use x="38464" y="1868.5" xlink:href="#s86:robotomono-mediumitalic:84"/><use x="39666" y="1868.5" xlink:href="#s86:robotomono-mediumitalic:85"/><use x="40868" y="1868.5" xlink:href="#s86:robotomono-mediumitalic:3"/><use x="42070" y="1868.5" xlink:href="#s86:robotomono-mediumitalic:81"/><use x="43272" y="1868.5" xlink:href="#s86:robotomono-mediumitalic:72"/><use x="44474" y="1868.5" xlink:href="#s86:robotomono-mediumitalic:3"/><use x="45676" y="1868.5" xlink:href="#s86:robotomono-mediumitalic:86"/><use x="46878" y="1868.5" xlink:href="#s86:robotomono-mediumitalic:74"/><use x="48080" y="1868.5" xlink:href="#s86:robotomono-mediumitalic:71"/><use x="49282" y="1868.5" xlink:href="#s86:robotomono-mediumitalic:3"/><use x="50484" y="1868.5" xlink:href="#s86:robotomono-mediumitalic:85"/><use x="51686" y="1868.5" xlink:href="#s86:robotomono-mediumitalic:67"/><use x="52888" y="1868.5" xlink:href="#s86:robotomono-mediumitalic:79"/><use x="54090" y="1868.5" xlink:href="#s86:robotomono-mediumitalic:71"/><use x="55292" y="1868.5" xlink:href="#s86:robotomono-mediumitalic:3"/><use x="56494" y="1868.5" xlink:href="#s86:robotomono-mediumitalic:72"/><use x="57696" y="1868.5" xlink:href="#s86:robotomono-mediumitalic:67"/><use x="58898" y="1868.5" xlink:href="#s86:robotomono-mediumitalic:79"/><use x="60100" y="1868.5" xlink:href="#s86:robotomono-mediumitalic:75"/><use x="61302" y="1868.5" xlink:href="#s86:robotomono-mediumitalic:78"/><use x="62504" y="1868.5" xlink:href="#s86:robotomono-mediumitalic:91"/><use x="63706" y="1868.5" xlink:href="#s86:robotomono-mediumitalic:16"/></g><g id="line-1"><use x="11419" y="4326.1" xlink:href="#s86:robotomono-mediumitalic:54"/><use x="12621" y="4326.1" xlink:href="#s86:robotomono-mediumitalic:74"/><use x="13823" y="4326.1" xlink:href="#s86:robotomono-mediumitalic:71"/><use x="15025" y="4326.1" xlink:href="#s86:robotomono-mediumitalic:75"/><use x="16227" y="4326.1" xlink:href="#s86:robotomono-mediumitalic:84"/><use x="17429" y="4326.1" xlink:href="#s86:robotomono-mediumitalic:3"/><use x="18631" y="4326.1" xlink:href="#s86:robotomono-mediumitalic:85"/><use x="19833" y="4326.1" xlink:href="#s86:robotomono-mediumitalic:71"/><use x="21035" y="4326.1" xlink:href="#s86:robotomono-mediumitalic:82"/><use x="22237" y="4326.1" xlink:href="#s86:robotomono-mediumitalic:67"/><use x="23439" y="4326.1" xlink:href="#s86:robotomono-mediumitalic:84"/><use x="24641" y="4326.1" xlink:href="#s86:robotomono-mediumitalic:67"/><use x="25843" y="4326.1" xlink:href="#s86:robotomono-mediumitalic:86"/><use x="27045" y="4326.1" xlink:href="#s86:robotomono-mediumitalic:71"/><use x="28247" y="4326.1" xlink:href="#s86:robotomono-mediumitalic:3"/><use x="29449" y="4326.1" xlink:href="#s86:robotomono-mediumitalic:71"/><use x="30651" y="4326.1" xlink:href="#s86:robotomono-mediumitalic:90"/><use x="31853" y="4326.1" xlink:href="#s86:robotomono-mediumitalic:75"/><use x="33055" y="4326.1" xlink:href="#s86:robotomono-mediumitalic:85"/><use x="34257" y="4326.1" xlink:href="#s86:robotomono-mediumitalic:86"/><use x="35459" y="4326.1" xlink:href="#s86:robotomono-mediumitalic:71"/><use x="36661" y="4326.1" xlink:href="#s86:robotomono-mediumitalic:80"/><use x="37863" y="4326.1" xlink:href="#s86:robotomono-mediumitalic:69"/><use x="39065" y="4326.1" xlink:href="#s86:robotomono-mediumitalic:71"/><use x="40267" y="4326.1" xlink:href="#s86:robotomono-mediumitalic:3"/><use x="41469" y="4326.1" xlink:href="#s86:robotomono-mediumitalic:75"/><use x="42671" y="4326.1" xlink:href="#s86:robotomono-mediumitalic:85"/><use x="43873" y="4326.1" xlink:href="#s86:robotomono-mediumitalic:3"/><use x="45075" y="4326.1" xlink:href="#s86:robotomono-mediumitalic:67"/><use x="46277" y="4326.1" xlink:href="#s86:robotomono-mediumitalic:3"/><use x="47479" y="4326.1" xlink:href="#s86:robotomono-mediumitalic:79"/><use x="48681" y="4326.1" xlink:href="#s86:robotomono-mediumitalic:91"/><use x="49883" y="4326.1" xlink:href="#s86:robotomono-mediumitalic:86"/><use x="51085" y="4326.1" xlink:href="#s86:robotomono-mediumitalic:74"/><use x="52287" y="4326.1" xlink:href="#s86:robotomono-mediumitalic:16"/></g><g id="line-2"><use x="13873.5" y="6783.7" xlink:href="#s86:robotomono-mediumitalic:40"/><use x="15075.5" y="6783.7" xlink:href="#s86:robotomono-mediumitalic:81"/><use x="16277.5" y="6783.7" xlink:href="#s86:robotomono-mediumitalic:84"/><use x="17479.5" y="6783.7" xlink:href="#s86:robotomono-mediumitalic:3"/><use x="18681.5" y="6783.7" xlink:href="#s86:robotomono-mediumitalic:85"/><use x="19883.5" y="6783.7" xlink:href="#s86:robotomono-mediumitalic:69"/><use x="21085.5" y="6783.7" xlink:href="#s86:robotomono-mediumitalic:75"/><use x="22287.5" y="6783.7" xlink:href="#s86:robotomono-mediumitalic:71"/><use x="23489.5" y="6783.7" xlink:href="#s86:robotomono-mediumitalic:80"/><use x="24691.5" y="6783.7" xlink:href="#s86:robotomono-mediumitalic:69"/><use x="25893.5" y="6783.7" xlink:href="#s86:robotomono-mediumitalic:71"/><use x="27095.5" y="6783.7" xlink:href="#s86:robotomono-mediumitalic:14"/><use x="28297.5" y="6783.7" xlink:href="#s86:robotomono-mediumitalic:3"/><use x="29499.5" y="6783.7" xlink:href="#s86:robotomono-mediumitalic:79"/><use x="30701.5" y="6783.7" xlink:href="#s86:robotomono-mediumitalic:87"/><use x="31903.5" y="6783.7" xlink:href="#s86:robotomono-mediumitalic:85"/><use x="33105.5" y="6783.7" xlink:href="#s86:robotomono-mediumitalic:75"/><use x="34307.5" y="6783.7" xlink:href="#s86:robotomono-mediumitalic:69"/><use x="35509.5" y="6783.7" xlink:href="#s86:robotomono-mediumitalic:14"/><use x="36711.5" y="6783.7" xlink:href="#s86:robotomono-mediumitalic:3"/><use x="37913.5" y="6783.7" xlink:href="#s86:robotomono-mediumitalic:85"/><use x="39115.5" y="6783.7" xlink:href="#s86:robotomono-mediumitalic:82"/><use x="40317.5" y="6783.7" xlink:href="#s86:robotomono-mediumitalic:81"/><use x="41519.5" y="6783.7" xlink:href="#s86:robotomono-mediumitalic:84"/><use x="42721.5" y="6783.7" xlink:href="#s86:robotomono-mediumitalic:86"/><use x="43923.5" y="6783.7" xlink:href="#s86:robotomono-mediumitalic:14"/><use x="45125.5" y="6783.7" xlink:href="#s86:robotomono-mediumitalic:3"/><use x="46327.5" y="6783.7" xlink:href="#s86:robotomono-mediumitalic:71"/><use x="47529.5" y="6783.7" xlink:href="#s86:robotomono-mediumitalic:86"/><use x="48731.5" y="6783.7" xlink:href="#s86:robotomono-mediumitalic:69"/><use x="49933.5" y="6783.7" xlink:href="#s86:robotomono-mediumitalic:14"/></g></svg>