<svg xmlns="http://www.w3.org/2000/svg" xmlns:xlink="http://www.w3.org/1999/xlink" width="514" height="87" viewBox="0 0 21950 3712.6"><defs><path id="s109:satisfy-regular:74" d="M61-626Q49-622 43-625Q37-628 34-635Q31-642 31-650.50Q31-659 32-667Q33-674 35.50-683Q38-692 42-700Q46-708 51.50-713.50Q57-719 66-721Q112-729 155.50-733Q199-737 234-739Q274-742 311-742Q319-742 327-741.50Q335-741 343-741Q352-743 357.50-742.50Q363-742 367-741Q396-740 427-738Q453-736 485.50-733.50Q518-731 550-727Q553-719 551-707Q550-701 549-695Q548-689 544-684Q541-679 536.50-674.50Q532-670 526-667Q492-668 460.50-668.50Q429-669 405-669L351-669Q338-623 319-555.50Q300-488 280.50-413.50Q261-339 243.50-265.50Q226-192 216-133Q206-76 196-21Q192 2 187.50 27Q183 52 179.50 76Q176 100 173 122Q170 144 168 162Q152 170 138 174.50Q124 179 113 181Q100 184 89 184Q65 184 59.50 178.50Q54 173 58 157Q61 143 76 81Q82 55 91.50 15.50Q101-24 114-80.50Q127-137 145-212.50Q163-288 186-386L253-664Q223-660 194-655Q165-650 139.50-644.50Q114-639 93.50-634Q73-629 61-626Z"/><path id="s109:satisfy-regular:94" d="M516-220Q523-228 530.50-228.50Q538-229 542.50-224.50Q547-220 546.50-211Q546-202 538-191Q519-165 494-137.50Q469-110 440.50-84Q412-58 383-35Q354-12 327 3Q297 20 276.50 20Q256 20 236-6Q218-29 218.50-55.50Q219-82 230-122Q237-147 249.50-181.50Q262-216 269.50-248Q277-280 274-302.50Q271-325 248-325Q232-325 213.50-314Q195-303 176.50-285.50Q158-268 141-246Q124-224 111-203Q103-164 95-126Q88-94 80.50-56.50Q73-19 66 10Q60 15 53 17Q46 19 40 19Q33 19 26 18Q18 16 11 12Q5 8-1 1.50Q-7-5-10-16Q35-201 61-313Q87-425 101-484Q117-554 123-581Q126-600 128-618Q130-634 130-651Q130-668 127-682Q135-687 144.50-690Q154-693 163-695Q174-698 185-700Q196-702 205-702Q213-702 220-700.50Q227-699 229-694Q235-689 234.50-674Q234-659 232-643Q228-624 223-602Q202-521 176-444.50Q150-368 128-281Q141-301 159-322Q177-343 198.50-360.50Q220-378 244-389.50Q268-401 295-401Q309-401 321.50-396.50Q334-392 343.50-381.50Q353-371 358-353.50Q363-336 362-310Q362-294 358.50-277Q355-260 349-239.50Q343-219 333.50-194Q324-169 311-136Q302-113 297-97Q292-81 299-69Q308-53 334.50-61.50Q361-70 414-113Q426-123 441-138Q456-153 470-168.50Q484-184 496-198Q508-212 516-220Z"/><path id="s109:satisfy-regular:91" d="M453-208Q423-164 385-122.50Q347-81 304.50-48.50Q262-16 217.50 4Q173 24 131 24Q109 24 83.50 13.50Q58 3 37-19Q16-41 3.50-76Q-9-111-4-161Q0-202 21.50-247.50Q43-293 74.50-331Q106-369 145.50-394Q185-419 225-419Q263-419 280-400Q297-381 295-353Q292-322 277.50-296Q263-270 243-249Q223-228 200.50-211Q178-194 158-180Q136-165 116-151.50Q96-138 81-127Q82-102 90-85Q98-68 110-57.50Q122-47 137.50-42.50Q153-38 169-38Q203-38 240-59.50Q277-81 312.50-111.50Q348-142 378.50-175Q409-208 429-232Q436-240 443.50-241.50Q451-243 455.50-239.50Q460-236 460-227.50Q460-219 453-208M197-362Q185-362 168.50-350Q152-338 136-315.50Q120-293 106-260.50Q92-228 85-186Q97-195 111-204.50Q125-214 139-225Q182-258 199-283Q216-308 218-326Q220-345 214-353.50Q208-362 197-362Z"/><path id="s109:satisfy-regular:22" d=""/><path id="s109:satisfy-regular:59" d="M195 186Q148 186 107.50 171Q67 156 36.50 129Q6 102-12 65.50Q-30 29-31-14Q-32-70-13.50-114Q5-158 35.50-192Q66-226 105-249.50Q144-273 185-288Q163-300 143.50-317Q124-334 109-355Q94-376 85-399Q76-422 76-445Q74-515 104.50-572Q135-629 183-669.50Q231-710 290.50-732Q350-754 407-754Q445-754 472-741.50Q499-729 516-710.50Q533-692 541.50-670.50Q550-649 551-631Q552-598 542.50-564Q533-530 518.50-502.50Q504-475 486-457.50Q468-440 451-440Q438-440 424-444Q412-447 396-454Q380-461 364-475Q390-485 410-503.50Q430-522 443.50-545Q457-568 463.50-592.50Q470-617 470-639Q469-671 455-688.50Q441-706 410-706Q368-706 326-685.50Q284-665 251.50-628.50Q219-592 200.50-541.50Q182-491 188-432Q193-387 215.50-356Q238-325 258-308Q274-310 288-311.50Q302-313 314-313Q331-313 348-307Q365-301 365-290Q365-282 361.50-272Q358-262 350-253Q342-244 331-238Q320-232 305-232Q293-232 276-238Q259-244 242-253Q204-245 173-224.50Q142-204 120.50-176Q99-148 87-115Q75-82 76-51Q77-22 85 7.50Q93 37 110 60Q127 83 154.50 97.50Q182 112 221 112Q250 112 276.50 99.50Q303 87 326 68Q349 49 368 26Q387 3 401-19Q415-41 424.50-59Q434-77 438-85Q441-91 446.50-94Q452-97 457.50-95.50Q463-94 466-88Q469-82 466-70Q458-34 436 10.50Q414 55 379.50 94Q345 133 298.50 159.50Q252 186 195 186Z"/><path id="s109:satisfy-regular:107" d="M124 16Q86 16 62 4Q38-8 24.50-25.50Q11-43 5.50-63.50Q0-84 0-101Q0-131 5-164.50Q10-198 17-226.50Q24-255 29.50-275Q35-295 37-300Q46-329 60.50-350.50Q75-372 101-380Q111-382 122-384Q131-385 140.50-385Q150-385 158-382Q131-313 115.50-267Q100-221 92-192Q83-159 81-139Q76-94 89-71Q102-48 142-48Q168-48 192-67.50Q216-87 236-118Q233-134 233-151Q233-183 238.50-213.50Q244-244 251.50-270.50Q259-297 267.50-318Q276-339 282-351Q293-375 302-380.50Q311-386 331-387Q339-388 344.50-387.50Q350-387 354-386Q366-383 366-374Q366-358 364-326Q362-294 352-260Q345-232 338.50-212.50Q332-193 326-179.50Q320-166 314-157.50Q308-149 303-142Q305-112 308-94Q311-76 315.50-66.50Q320-57 326.50-53.50Q333-50 341-50Q355-50 374-63.50Q393-77 413.50-97.50Q434-118 454.50-142.50Q475-167 492-189Q509-211 521-227.50Q533-244 536-248Q543-257 549.50-259Q556-261 560-257.50Q564-254 564.50-246.50Q565-239 560-230Q540-192 510.50-149.50Q481-107 447.50-71Q414-35 380-11Q346 13 316 13Q289 13 273.50-5.50Q258-24 247-59Q224-23 193-3.50Q162 16 124 16Z"/><path id="s109:satisfy-regular:104" d="M-38-5Q-45 6-53.50 9.50Q-62 13-68.50 10.50Q-75 8-77 0Q-79-8-73-20Q-70-26-59.50-47Q-49-68-34.50-97.50Q-20-127-3-161.50Q14-196 29.50-227Q45-258 58-282.50Q71-307 77-318Q66-328 62-332.50Q58-337 56-352Q54-365 62-386Q70-407 83-426.50Q96-446 112-460Q128-474 143-474Q171-474 182.50-456Q194-438 196-419Q198-406 194-386Q190-366 179-350Q182-348 187-345.50Q192-343 203-343Q219-343 225.50-345Q232-347 246-347Q263-347 274-338.50Q285-330 292-317.50Q299-305 302.50-290.50Q306-276 307-264Q310-239 294-212Q278-185 255-153Q241-133 227-108Q213-83 215-63Q217-50 222-42Q227-34 250-34Q267-34 287.50-46.50Q308-59 329.50-78.50Q351-98 372-121.50Q393-145 411-167.50Q429-190 441.50-208Q454-226 460-234Q465-242 473-245Q481-248 487-245Q493-242 494.50-233Q496-224 487-209Q481-199 466.50-177Q452-155 431.50-128Q411-101 386-72.50Q361-44 333.50-20.50Q306 3 278.50 18Q251 33 226 33Q200 33 183 23Q166 13 155.50-1.50Q145-16 140.50-33.50Q136-51 137-66Q138-78 143.50-91.50Q149-105 156.50-119.50Q164-134 172.50-148.50Q181-163 188-177Q205-206 215.50-226.50Q226-247 226-261Q226-270 222-277Q218-284 209-284Q203-284 200.50-283.50Q198-283 195.50-283Q193-283 188.50-282.50Q184-282 175-282Q162-282 153-286Q144-290 136-292Q132-285 118-262Q104-239 85.50-208Q67-177 46.50-143Q26-109 8-79.50Q-10-50-22.50-29.50Q-35-9-38-5Z"/><path id="s109:satisfy-regular:101" d="M296-159Q286-121 269-88Q252-55 228.50-31Q205-7 175.50 6.50Q146 20 111 20Q70 20 46.50 2.50Q23-15 11.50-41Q0-67-2.50-98Q-5-129-5-156Q-5-175-0.50-198Q4-221 12-245Q20-269 32.50-293Q45-317 62-337Q68-354 80.50-367Q93-380 109.50-388.50Q126-397 145-401.50Q164-406 182-406Q185-406 187.50-405Q190-404 193-403Q206-402 225.50-393Q245-384 263.50-366Q282-348 295-320.50Q308-293 308-254Q308-246 307-234.50Q306-223 305-215Q328-224 353-237Q378-250 401.50-264.50Q425-279 445-294Q465-309 477-321Q487-330 494-331Q501-332 504-327Q507-322 505-313Q503-304 494-293Q489-287 468.50-269Q448-251 420-230Q392-209 359-189Q326-169 296-159M127-311Q124-302 124-292Q124-276 126-258.50Q128-241 136-227Q144-213 161.50-203.50Q179-194 210-194Q215-194 220-194.50Q225-195 230-196Q233-209 235.50-219.50Q238-230 238-238Q240-257 238-277Q236-297 230.50-313.50Q225-330 216.50-340.50Q208-351 196-351Q177-351 159.50-340.50Q142-330 127-311M63-135Q63-117 65-99.50Q67-82 73-68.50Q79-55 89-46.50Q99-38 115-38Q133-38 148-46.50Q163-55 175-68.50Q187-82 196.50-99.50Q206-117 213-136Q206-135 199.50-134.50Q193-134 185-134Q147-134 119.50-156.50Q92-179 77-214Q71-193 67-173Q63-153 63-135Z"/><path id="s109:satisfy-regular:102" d="M-72 427Q-79 424-86 418Q-92 413-98 405.50Q-104 398-108 387Q-80 280-60.50 201Q-41 122-27 69Q-12 7-1-35Q9-75 19-115Q27-150 36.50-190Q46-230 54-265Q64-304 66-327.50Q68-351 51-368Q63-378 75.50-383.50Q88-389 98-391Q109-394 120-393Q147-391 153.50-376Q160-361 155-328Q154-323 153.50-319.50Q153-316 153-312Q167-328 184-343Q201-358 218.50-370Q236-382 254.50-389.50Q273-397 290-397Q313-397 327.50-385.50Q342-374 350-355Q358-336 360-312.50Q362-289 361-266Q360-241 352.50-213Q345-185 332-156Q319-127 302-99Q285-71 266-47Q270-46 271-45.50Q272-45 272-44.50Q272-44 273.50-43.50Q275-43 280-43Q303-43 327-55Q351-67 374-85.50Q397-104 418.50-126Q440-148 457.50-168.50Q475-189 487-205.50Q499-222 505-229Q513-239 520-242.50Q527-246 531-243Q535-240 535-231.50Q535-223 529-210Q525-201 512-181Q499-161 480-136Q461-111 436.50-84Q412-57 385-35Q358-13 329.50 1.50Q301 16 274 16Q261 16 253 15Q245 14 239.50 11.50Q234 9 229 6.50Q224 4 217 1Q199 15 180 22.50Q161 30 143 30Q126 30 113.50 24.50Q101 19 93 9.50Q85 0 80-11.50Q75-23 72-34Q71-30 70.50-27Q70-24 69-19Q57 29 44 92Q33 146 17.50 223.50Q2 301-15 400Q-21 427-36.50 431Q-52 435-72 427M111-193Q106-176 100.50-153.50Q95-131 88-100Q96-106 106-109Q116-112 126-112Q137-112 154-100.50Q171-89 195-76Q210-94 226.50-116.50Q243-139 256.50-163Q270-187 279.50-212Q289-237 290-260Q292-290 283-307Q274-324 253-324Q222-324 185.50-287.50Q149-251 111-193Z"/><path id="s109:satisfy-regular:87" d="M513-199Q499-179 477-149.50Q455-120 431.50-90.50Q408-61 385.50-36.50Q363-12 348-2Q338 4 325 8Q312 12 298.50 13Q285 14 273 11.50Q261 9 252 3Q243-4 237-17Q232-28 227.50-46Q223-64 224-91Q200-51 171-29.50Q142-8 116 2Q86 13 56 15Q42 15 26 5.50Q10-4-1-24.50Q-12-45-15-77.50Q-18-110-7-155Q7-216 37.50-266Q68-316 104-351.50Q140-387 175-405Q210-423 233-421Q260-416 277-405Q291-395 295.50-375.50Q300-356 279-324Q293-327 302.50-328Q312-329 317-329Q323-329 325-328Q326-326 326-319.50Q326-313 323-296Q320-279 314-250Q308-221 298-175Q296-166 294.50-158.50Q293-151 291.50-143.50Q290-136 288-126Q286-116 283-101Q282-92 282.50-81.50Q283-71 286-62Q289-53 295.50-47.50Q302-42 314-42Q324-42 340-54.50Q356-67 374-86.50Q392-106 411.50-129.50Q431-153 448-175Q465-197 478.50-214Q492-231 498-239Q506-248 514-249.50Q522-251 526-245Q530-239 527.50-227Q525-215 513-199M220-155Q225-175 232-202Q239-229 244-254Q249-279 251.50-295.50Q254-312 250-311Q245-310 239-308Q234-306 226-305Q218-304 210-302Q218-318 219.50-328.50Q221-339 220-345Q219-352 216-356Q205-365 177.50-341.50Q150-318 114-255Q99-229 90-199.50Q81-170 77.50-144Q74-118 76-98.50Q78-79 84-73Q95-62 109-62.50Q123-63 137.50-70.50Q152-78 166.50-90Q181-102 192.50-115Q204-128 211.50-139Q219-150 220-155Z"/><path id="s109:satisfy-regular:100" d="M297 25Q274 25 257.50 16.50Q241 8 231-6Q221-20 218-38.50Q215-57 220-78Q223-92 230-115.50Q237-139 244.50-166.50Q252-194 258.50-221.50Q265-249 267-271.50Q269-294 265-308.50Q261-323 248-323Q232-323 215-312.50Q198-302 180.50-284Q163-266 145.50-242.50Q128-219 111-194Q102-160 96-134.50Q90-109 85.50-88.50Q81-68 77-52.50Q73-37 70-23Q67-13 52-3.50Q37 6 20 12Q3 18-9.50 18Q-22 18-20 9Q-19 3-13.50-18Q-8-39-0.50-67.50Q7-96 15-128Q23-160 30-189Q35-212 41-240Q46-264 53.50-296Q61-328 71-366Q78-372 85.50-375.50Q93-379 101-381Q109-384 118-385Q126-385 134-384Q141-383 148.50-380.50Q156-378 162-373Q159-366 155-353.50Q151-341 147-327Q143-311 137-294Q150-312 166.50-330.50Q183-349 202.50-364Q222-379 244-388.50Q266-398 289-398Q308-398 323-387Q338-376 346.50-356.50Q355-337 356.50-310Q358-283 349-251L338-207Q333-186 325.50-157.50Q318-129 307-95Q301-73 302.50-57Q304-41 322-41Q340-41 367.50-63Q395-85 423-116Q451-147 476-179.50Q501-212 514-232Q523-245 531-249Q539-253 543.50-250Q548-247 548-236.50Q548-226 540-210Q533-196 518.50-173Q504-150 484-124Q464-98 441-71.50Q418-45 393-23.50Q368-2 343.50 11.50Q319 25 297 25Z"/><path id="s109:satisfy-regular:98" d="M-15-16Q29-201 55.50-313Q82-425 96-484Q112-554 118-581Q121-600 123-618Q125-634 125-651Q125-668 122-682Q130-687 139.50-690Q149-693 158-695Q169-698 180-700Q191-702 200-702Q208-702 215-700.50Q222-699 224-694Q230-689 229.50-674Q229-659 227-643Q223-624 218-602Q206-559 185-478Q167-409 136.50-290Q106-171 60 10Q55 15 48 17Q41 19 35 19Q28 19 20 18Q13 16 6 12Q0 8-6 1.50Q-12-5-15-16Z"/><path id="s109:satisfy-regular:93" d="M264 143Q259 167 251.50 203Q244 239 234.50 279Q225 319 212.50 358.50Q200 398 185 429.50Q170 461 152 481Q134 501 112 501Q79 501 55.50 481.50Q32 462 16 432.50Q0 403-7.50 369Q-15 335-15 306Q-15 266-8 239.50Q-1 213 16.50 189Q34 165 64 138Q94 111 141 71Q164 51 185 33Q206 15 225 0Q230-20 234.50-37.50Q239-55 242-69Q216-34 179.50-10Q143 14 96 14Q53 14 26.50-24.50Q0-63 0-138Q0-175 14-223Q28-271 54-313Q80-355 118-384Q156-413 203-413Q225-413 241-402Q257-391 268-374.50Q279-358 285-339.50Q291-321 294-305Q296-311 297-317.50Q298-324 300-329Q310-363 322.50-375.50Q335-388 360-388Q374-388 383.50-383Q393-378 393-374Q388-363 385-357Q382-351 379-344.50Q376-338 373-328Q370-318 365-299Q363-292 357.50-266.50Q352-241 343.50-206Q335-171 325.50-129Q316-87 307-47Q335-63 365-86Q395-109 422-133Q449-157 470-178.50Q491-200 501-214Q509-226 519-231Q529-236 536.50-234.50Q544-233 545.50-225.50Q547-218 539-205Q516-168 483-133.50Q450-99 415.50-69.50Q381-40 348.50-17.50Q316 5 293 19Q283 64 276 92Q269 120 264 143M138-54Q159-54 177.50-65Q196-76 211-90.50Q226-105 236-120Q246-135 251-144Q255-153 260.50-168Q266-183 269-197Q272-211 271.50-222Q271-233 264-234Q258-235 254.50-242Q251-249 249-258Q247-267 246.50-276Q246-285 245-292Q240-327 228-343Q216-359 201-359Q176-359 153.50-339Q131-319 113.50-287.50Q96-256 86-218.50Q76-181 76-147Q76-105 88-79.50Q100-54 138-54M92 410Q112 410 124.50 380.50Q137 351 151 300Q154 288 159.50 265.50Q165 243 172.50 214Q180 185 188 151.50Q196 118 205 84Q197 91 188.50 98.50Q180 106 171 116Q149 137 128.50 156.50Q108 176 92 197.50Q76 219 66.50 244Q57 269 57 302Q57 335 59.50 356Q62 377 66.50 389Q71 401 77.50 405.50Q84 410 92 410Z"/><path id="s109:satisfy-regular:105" d="M141-34Q147-30 156.50-30Q166-30 175.50-34Q185-38 193.50-45Q202-52 206-63Q210-74 206-94.50Q202-115 193.50-138.50Q185-162 175-186Q165-210 158-230Q152-245 148-258Q144-269 140.50-279.50Q137-290 135-294Q130-286 117.50-268Q105-250 90.50-230.50Q76-211 63-194.50Q50-178 45-172Q37-163 29.50-161.50Q22-160 17-164.50Q12-169 11.50-177.50Q11-186 19-198Q25-206 37-223.50Q49-241 61-259.50Q73-278 83-292.50Q93-307 94-310Q96-318 88.50-331Q81-344 86-361Q90-375 104-393.50Q118-412 137-427Q156-442 176-449.50Q196-457 212-449Q225-441 233-431.50Q241-422 239-412Q237-407 233-399Q229-391 221-379.50Q213-368 198-350Q201-327 206.50-308Q212-289 217-275Q223-258 230-244Q239-226 249-207Q259-188 267-169.50Q275-151 280-135Q285-119 283-108Q280-91 265.50-67Q251-43 229.50-20.50Q208 2 180.50 18Q153 34 123 34Q102 34 82.50 21Q63 8 49.50-9.50Q36-27 29.50-44Q23-61 28-70Q34-82 39-89Q44-96 54-105Q58-108 64-112Q69-115 78-118Q87-121 99-125Q109-94 117-76.50Q125-59 130-49Q136-38 141-34Z"/><path id="s109:satisfy-regular:99" d="M466-46Q466-67 470.50-94Q475-121 482-149.50Q489-178 496-205Q503-232 508-253Q514-279 507-293Q500-307 483-307Q475-307 451.50-293Q428-279 400.50-244.50Q373-210 346.50-151.50Q320-93 305-3Q286 7 269 10Q260 12 253 13Q233 14 227 6.50Q221-1 229-30Q233-44 243.50-75Q254-106 264-142.50Q274-179 281.50-215.50Q289-252 289-279Q289-298 282.50-305Q276-312 264-312Q255-312 234-302Q213-292 187-263Q161-234 135.50-182.50Q110-131 92-49L92-51Q90-43 88-35Q86-28 85-20Q84-12 82-5L32 17Q27 19 19.50 20Q12 21 5.50 17.50Q-1 14-4 3Q-7-8-2-30L61-291Q64-304 66-316Q68-327 68.50-337.50Q69-348 67-355Q84-363 97-367Q110-371 118-373Q128-376 135-376Q167-376 156-321Q152-305 144-274Q163-298 184.50-319.50Q206-341 228-358Q250-375 272.50-385Q295-395 317-395Q334-395 345.50-385Q357-375 363.50-358.50Q370-342 371-319.50Q372-297 369-273Q385-294 404.50-315.50Q424-337 445.50-354Q467-371 490-382Q513-393 536-393Q563-393 577.50-377Q592-361 597.50-336Q603-311 600.50-282Q598-253 592-226L558-91Q547-41 579-41Q604-41 634-65Q664-89 692.50-122Q721-155 746-190Q771-225 788-246Q794-253 800.50-254Q807-255 811.50-251.50Q816-248 816.50-240Q817-232 811-220Q791-185 762-142.50Q733-100 698.50-63Q664-26 625-1Q586 24 544 24Q530 24 516.50 21Q503 18 491.50 10Q480 2 473-11.50Q466-25 466-46Z"/><path id="s109:satisfy-regular:88" d="M229-573Q214-513 195.50-458.50Q177-404 157.50-356.50Q138-309 118.50-270Q99-231 84-202Q74-130 84-86Q94-42 123-42Q147-42 170-64Q193-86 211-118Q229-150 241.50-186.50Q254-223 257-252Q238-257 225-269.50Q212-282 212-303Q212-317 220-329.50Q228-342 239-351Q250-360 263-365Q276-370 287-370Q304-370 316-348.50Q328-327 332-294Q372-295 416-306Q460-317 499-334Q510-339 517-337Q524-335 526.50-329Q529-323 526-315.50Q523-308 514-304Q491-291 466.50-280.50Q442-270 418-263Q394-256 372-252Q350-248 332-248Q328-208 307-161.50Q286-115 256-75.50Q226-36 189.50-10Q153 16 118 16Q107 16 89 13Q71 10 54-8Q37-26 25-65.50Q13-105 15-178Q16-227 26-282Q36-337 50-392Q64-447 81.50-498.50Q99-550 115-591.50Q131-633 144.50-661Q158-689 165-697Q174-708 186-713.50Q198-719 209.50-721.50Q221-724 231-723Q241-722 245-720Q251-716 248.50-676Q246-636 229-573Z"/><path id="s109:satisfy-regular:92" d="M20-104Q9-115 4.50-125.50Q0-136-2-146Q-4-157-2-168Q2-182 10-194Q17-205 29-216.50Q41-228 61-238Q74-270 84.50-305.50Q95-341 103-370Q112-404 119-438Q144-523 145-576.50Q146-630 143-647Q142-654 141-661Q139-667 137.50-674.50Q136-682 134-689Q145-695 153.50-699Q162-703 168-705Q175-708 181-709Q204-714 224.50-714.50Q245-715 247-707Q248-702 249.50-689Q251-676 251-657Q251-638 248-614.50Q245-591 237-565Q230-542 218-501Q207-466 189-407.50Q171-349 142-258Q172-268 208-277Q244-286 281.50-292Q319-298 356.50-301Q394-304 426-302Q432-302 434.50-296.50Q437-291 434.50-285Q432-279 423.50-273.50Q415-268 399-267Q379-265 355-262.50Q331-260 305.50-255.50Q280-251 255-244.50Q230-238 208-229Q191-223 174-217Q160-212 144.50-205.50Q129-199 119-194L96-121Q154-80 185.50-37Q217 6 231 42Q248 84 250 124Q250 168 237 212.50Q224 257 202.50 297.50Q181 338 152.50 373Q124 408 92.50 433Q61 458 28.50 471Q-4 484-33 481Q-54 479-68 467.50Q-82 456-89 438.50Q-96 421-97 399.50Q-98 378-93 357Q-89 336-76 279Q-65 231-42 139.50Q-19 48 20-104M79-57Q65-7 54.50 35Q44 77 37 109Q28 146 23 176Q14 214 4.50 251Q-5 288-10.50 317.50Q-16 347-15 365Q-14 383-2 383Q27 385 58.50 360.50Q90 336 116 298.50Q142 261 159 217.50Q176 174 176 137Q176 96 163 56Q154 35 142 15Q131-2 115.50-21.50Q100-41 79-57Z"/><path id="s109:satisfy-regular:106" d="M369-253Q373-259 379.50-260.50Q386-262 390-259Q394-256 394.50-249Q395-242 389-230Q369-192 336.50-148Q304-104 268-65.50Q232-27 198-2Q164 23 141 23Q108 23 86 10Q64-3 51.50-22Q39-41 34-63.50Q29-86 31-105Q32-121 38-162.50Q44-204 54-258.50Q64-313 76.50-375.50Q89-438 103-496Q86-494 69-492Q52-490 38-490Q6-490-22.50-497.50Q-51-505-65-512Q-73-516-72-523.50Q-71-531-66-538.50Q-61-546-53.50-551.50Q-46-557-40-557Q-21-555 1-553.50Q23-552 49-553Q68-554 85.50-556Q103-558 120-561Q133-609 145.50-644.50Q158-680 168-694Q171-699 181.50-702.50Q192-706 204-707.50Q216-709 227-707.50Q238-706 243-700Q248-692 247-659Q246-626 236-575Q278-575 310.50-570.50Q343-566 366-560.50Q389-555 403-549.50Q417-544 424-542Q431-540 431.50-532Q432-524 428.50-515.50Q425-507 417-501Q409-495 399-497Q389-498 376.50-501Q364-504 346.50-506Q329-508 305-510Q281-512 249-512Q243-512 235.50-511.50Q228-511 220-511Q216-495 212.50-479.50Q209-464 203-447Q190-407 173-360Q158-319 137-266Q116-213 90-153Q84-110 91.50-87.50Q99-65 110-55Q123-44 142-43Q157-41 178.50-53.50Q200-66 223-87Q246-108 269.50-133Q293-158 313-182Q333-206 348-225.50Q363-245 369-253Z"/><path id="s109:satisfy-regular:95" d="M220-589Q217-578 208.50-567.50Q200-557 189.50-550.50Q179-544 168-542Q157-540 150-546Q129-562 128-580.50Q127-599 137-615.50Q147-632 162-643.50Q177-655 188-657Q199-659 206.50-652.50Q214-646 218-635.50Q222-625 222.50-612Q223-599 220-589M82-376Q87-382 101-386Q115-390 130-392.50Q145-395 157.50-395.50Q170-396 172-395Q173-394 167-374Q161-354 152-327Q143-300 133-271.50Q123-243 118-225Q113-207 106-184.50Q99-162 93.50-140.50Q88-119 86-100Q84-81 89-71Q94-59 100-54.50Q106-50 113-50Q133-50 163.50-72Q194-94 225.50-124.50Q257-155 284-186.50Q311-218 324-237Q332-247 340.50-250Q349-253 354.50-249Q360-245 360.50-236Q361-227 354-215Q338-187 307-148.50Q276-110 241-74.50Q206-39 172.50-14Q139 11 118 12Q101 13 84.50 6.50Q68 0 54.50-11.50Q41-23 32-38.50Q23-54 22-71Q19-96 22-139.50Q25-183 33-228.50Q41-274 53.50-315Q66-356 82-376Z"/><path id="s109:satisfy-regular:111" d="M263-368Q276-378 288.50-383.50Q301-389 311-391Q322-394 333-393Q360-391 366.50-376Q373-361 368-328Q365-311 356-285Q347-259 335-221.50Q323-184 309.50-136Q296-88 284-28Q272 21 258 85Q246 141 229.50 220Q213 299 194 401Q189 426 172.50 430Q156 434 138 426Q131 422 125 417Q120 412 114 405.50Q108 399 104 388Q127 304 144.50 235Q162 166 176 115Q191 56 204 9Q209-12 213.50-32.50Q218-53 223-73Q210-52 195-33Q180-14 162 0Q144 14 123.50 21.50Q103 29 81 26Q27 19 4.50-14Q-18-47-15-100Q-14-121-9-146Q-4-171 2-194Q8-217 13.50-235.50Q19-254 22-262Q34-300 39.50-327Q45-354 31-372Q45-381 57.50-384.50Q70-388 80-390Q91-391 102-390Q129-386 133.50-370Q138-354 130-322Q126-305 117-278.50Q108-252 98-224Q88-196 80-172.50Q72-149 71-139Q62-94 70-69.50Q78-45 105-45Q118-45 134-56.50Q150-68 166.50-87Q183-106 199-130.50Q215-155 228.50-180Q242-205 252.50-229Q263-253 268-272Q275-309 277-330Q279-351 263-368Z"/><path id="s109:satisfy-regular:36" d="M51-76Q77-80 92.50-71.50Q108-63 106-40Q105-27 95.50-15.50Q86-4 72.50 5Q59 14 44 19Q29 24 18 24Q-2 24-17.50 15Q-33 6-31-14Q-30-27-22.50-37.50Q-15-48-3.50-56Q8-64 22.50-69Q37-74 51-76Z"/><path id="s109:satisfy-regular:110" d="M437-132Q395-79 362.50-48.50Q330-18 305-3Q280 12 261 16Q242 20 227 20Q208 20 195 11Q182 2 173-11Q164-24 159-38Q154-52 151-62Q147-73 142.50-87Q138-101 133-118Q113-97 91-73Q72-53 48-27.50Q24-2-1 24Q-10 26-17 24Q-24 22-29 20Q-35 17-39 13Q-42 10-45 6Q-47 3-49.50-1.50Q-52-6-51-11Q-22-44 6.50-76.50Q35-109 58-135Q84-165 108-193Q94-231 83-264Q72-297 67-311Q57-340 49.50-359Q42-378 24-386Q36-397 47.50-403.50Q59-410 68-413Q79-417 87-417Q110-417 127.50-376.50Q145-336 163-265Q163-262 165-258Q186-283 205.50-305Q225-327 239.50-344Q254-361 263-371Q272-381 274-383Q294-406 310-409Q326-412 339-402Q345-398 352-394Q365-386 383-379Q366-363 345.50-342.50Q325-322 307-303Q286-281 265-259Q250-244 229.50-222Q209-200 186-174Q193-149 201-127Q209-105 217.50-88Q226-71 235-61Q244-51 254-51Q270-51 290-59.50Q310-68 332-83Q354-98 376.50-118Q399-138 421-160Q429-168 436.50-169Q444-170 447-166Q450-162 448.50-153Q447-144 437-132Z"/><path id="s109:satisfy-regular:89" d="M170-34Q201-34 238.50-58.50Q276-83 311.50-116Q347-149 376.50-183.50Q406-218 421-239Q430-252 438-254.50Q446-257 450-252Q454-247 453-236.50Q452-226 444-213Q437-201 420.50-178.50Q404-156 381.50-129.50Q359-103 330.50-75.50Q302-48 271-25.50Q240-3 207 11.50Q174 26 142 26Q98 26 68.50 9.50Q39-7 21.50-33Q4-59-3-90.50Q-10-122-10-153Q-10-184 4-230Q18-276 45.50-318.50Q73-361 115-391.50Q157-422 214-422Q246-422 268.50-400Q291-378 290-340Q290-322 284-304.50Q278-287 268-273.50Q258-260 244.50-252Q231-244 215-244Q202-244 195.50-253.50Q189-263 187.50-275.50Q186-288 187.50-300Q189-312 191-316Q196-323 202-326Q208-329 216-333Q222-336 225.50-342Q229-348 229-355Q229-362 225-367Q221-372 212-372Q203-372 179.50-357.50Q156-343 131.50-314.50Q107-286 88-243Q69-200 68-143Q67-110 77-89Q87-68 102-56Q117-44 135-39Q153-34 170-34Z"/><path id="s109:satisfy-regular:60" d="M383-352Q404-394 425-435.50Q446-477 463-513Q480-549 492-577.50Q504-606 506-623Q508-641 503-654Q498-667 486.50-675Q475-683 459.50-687.50Q444-692 425-693Q392-695 346.50-691.50Q301-688 259-678.50Q217-669 186.50-652Q156-635 154-610Q153-596 159-585Q164-576 177.50-568Q191-560 218-562Q223-562 230-563Q236-564 245-565.50Q254-567 266-570L217-504Q203-484 187-480Q171-476 158-478Q151-479 130.50-485Q110-491 89.50-503Q69-515 54-535.50Q39-556 42-587Q46-623 73-653.50Q100-684 148.50-706Q197-728 264.50-740Q332-752 417-752Q481-752 519-738.50Q557-725 574.50-703.50Q592-682 591.50-653.50Q591-625 579-595Q573-581 561.50-556.50Q550-532 534-499.50Q518-467 500-428Q482-389 464-347Q491-345 513.50-342Q536-339 549-337Q564-333 559-324Q550-306 541.50-297Q533-288 523-284.50Q513-281 501-281.50Q489-282 474-283Q465-283 456-283.50Q447-284 437-285Q418-240 400.50-196Q383-152 368.50-112.50Q354-73 343-40Q332-7 328 15Q322 46 319 73Q317 96 317 121Q317 146 325 161Q304 167 288.50 171Q273 175 262 177Q250 180 242 182Q214 189 202.50 180.50Q191 172 196 140Q198 118 202.50 90.50Q207 63 216.50 28.50Q226-6 241.50-48.50Q257-91 281-143Q295-173 313-209.50Q331-246 351-288Q307-288 256-282Q228-278 201-273Q178-268 151.50-261.50Q125-255 102-247Q99-255 98.50-263Q98-271 99-278Q100-285 102-292Q104-299 108-306Q114-318 127-336Q174-342 217-345Q260-348 293-350Q332-352 366-352Q371-353 374.50-352.50Q378-352 383-352Z"/><path id="s109:satisfy-regular:34" d="M52-75Q78-72 86.50-52Q95-32 90-7Q88 6 82 22.50Q76 39 65 57Q54 75 38 91.50Q22 108-1 121Q-10 126-16 125Q-22 124-24 120Q-26 116-24.50 110Q-23 104-17 99Q-7 89 5.50 69.50Q18 50 23 27Q18 28 13.50 28.50Q9 29 4 28Q-11 26-22 14.50Q-33 3-31-18Q-27-44-2-61.50Q23-79 52-75Z"/></defs><g id="line-0"><use x="0" y="754" xlink:href="#s109:satisfy-regular:74"/><use x="434" y="754" xlink:href="#s109:satisfy-regular:94"/><use x="911" y="754" xlink:href="#s109:satisfy-regular:91"/><use x="1292" y="754" xlink:href="#s109:satisfy-regular:22"/><use x="1579" y="754" xlink:href="#s109:satisfy-regular:59"/><use x="2115" y="754" xlink:href="#s109:satisfy-regular:107"/><use x="2595" y="754" xlink:href="#s109:satisfy-regular:104"/><use x="3011" y="754" xlink:href="#s109:satisfy-regular:101"/><use x="3414" y="754" xlink:href="#s109:satisfy-regular:102"/><use x="3876" y="754" xlink:href="#s109:satisfy-regular:91"/><use x="4257" y="754" xlink:href="#s109:satisfy-regular:87"/><use x="4703" y="754" xlink:href="#s109:satisfy-regular:100"/><use x="5176" y="754" xlink:href="#s109:satisfy-regular:22"/><use x="5463" y="754" xlink:href="#s109:satisfy-regular:98"/><use x="5687" y="754" xlink:href="#s109:satisfy-regular:87"/><use x="6133" y="754" xlink:href="#s109:satisfy-regular:100"/><use x="6606" y="754" xlink:href="#s109:satisfy-regular:93"/><use x="7077" y="754" xlink:href="#s109:satisfy-regular:107"/><use x="7557" y="754" xlink:href="#s109:satisfy-regular:87"/><use x="8003" y="754" xlink:href="#s109:satisfy-regular:93"/><use x="8474" y="754" xlink:href="#s109:satisfy-regular:91"/><use x="8855" y="754" xlink:href="#s109:satisfy-regular:105"/><use x="9215" y="754" xlink:href="#s109:satisfy-regular:22"/><use x="9502" y="754" xlink:href="#s109:satisfy-regular:87"/><use x="9948" y="754" xlink:href="#s109:satisfy-regular:104"/><use x="10364" y="754" xlink:href="#s109:satisfy-regular:91"/><use x="10745" y="754" xlink:href="#s109:satisfy-regular:22"/><use x="11032" y="754" xlink:href="#s109:satisfy-regular:99"/><use x="11767" y="754" xlink:href="#s109:satisfy-regular:91"/><use x="12148" y="754" xlink:href="#s109:satisfy-regular:99"/><use x="12883" y="754" xlink:href="#s109:satisfy-regular:88"/><use x="13308" y="754" xlink:href="#s109:satisfy-regular:91"/><use x="13689" y="754" xlink:href="#s109:satisfy-regular:104"/><use x="14105" y="754" xlink:href="#s109:satisfy-regular:105"/><use x="14465" y="754" xlink:href="#s109:satisfy-regular:22"/><use x="14752" y="754" xlink:href="#s109:satisfy-regular:101"/><use x="15155" y="754" xlink:href="#s109:satisfy-regular:92"/><use x="15488" y="754" xlink:href="#s109:satisfy-regular:22"/><use x="15775" y="754" xlink:href="#s109:satisfy-regular:106"/><use x="16084" y="754" xlink:href="#s109:satisfy-regular:94"/><use x="16561" y="754" xlink:href="#s109:satisfy-regular:91"/><use x="16942" y="754" xlink:href="#s109:satisfy-regular:22"/><use x="17229" y="754" xlink:href="#s109:satisfy-regular:105"/><use x="17589" y="754" xlink:href="#s109:satisfy-regular:87"/><use x="18035" y="754" xlink:href="#s109:satisfy-regular:99"/><use x="18770" y="754" xlink:href="#s109:satisfy-regular:91"/><use x="19151" y="754" xlink:href="#s109:satisfy-regular:22"/><use x="19438" y="754" xlink:href="#s109:satisfy-regular:92"/><use x="19771" y="754" xlink:href="#s109:satisfy-regular:87"/><use x="20217" y="754" xlink:href="#s109:satisfy-regular:99"/><use x="20952" y="754" xlink:href="#s109:satisfy-regular:95"/><use x="21233" y="754" xlink:href="#s109:satisfy-regular:98"/><use x="21457" y="754" xlink:href="#s109:satisfy-regular:111"/><use x="21842" y="754" xlink:href="#s109:satisfy-regular:36"/></g><g id="line-1"><use x="4423" y="1982.8" xlink:href="#s109:satisfy-regular:74"/><use x="4857" y="1982.8" xlink:href="#s109:satisfy-regular:94"/><use x="5334" y="1982.8" xlink:href="#s109:satisfy-regular:91"/><use x="5715" y="1982.8" xlink:href="#s109:satisfy-regular:95"/><use x="5996" y="1982.8" xlink:href="#s109:satisfy-regular:104"/><use x="6412" y="1982.8" xlink:href="#s109:satisfy-regular:22"/><use x="6699" y="1982.8" xlink:href="#s109:satisfy-regular:105"/><use x="7059" y="1982.8" xlink:href="#s109:satisfy-regular:91"/><use x="7440" y="1982.8" xlink:href="#s109:satisfy-regular:102"/><use x="7902" y="1982.8" xlink:href="#s109:satisfy-regular:87"/><use x="8348" y="1982.8" xlink:href="#s109:satisfy-regular:104"/><use x="8764" y="1982.8" xlink:href="#s109:satisfy-regular:87"/><use x="9210" y="1982.8" xlink:href="#s109:satisfy-regular:106"/><use x="9519" y="1982.8" xlink:href="#s109:satisfy-regular:91"/><use x="9900" y="1982.8" xlink:href="#s109:satisfy-regular:22"/><use x="10187" y="1982.8" xlink:href="#s109:satisfy-regular:91"/><use x="10568" y="1982.8" xlink:href="#s109:satisfy-regular:110"/><use x="10977" y="1982.8" xlink:href="#s109:satisfy-regular:95"/><use x="11258" y="1982.8" xlink:href="#s109:satisfy-regular:105"/><use x="11618" y="1982.8" xlink:href="#s109:satisfy-regular:106"/><use x="11927" y="1982.8" xlink:href="#s109:satisfy-regular:91"/><use x="12308" y="1982.8" xlink:href="#s109:satisfy-regular:100"/><use x="12781" y="1982.8" xlink:href="#s109:satisfy-regular:89"/><use x="13153" y="1982.8" xlink:href="#s109:satisfy-regular:91"/><use x="13534" y="1982.8" xlink:href="#s109:satisfy-regular:22"/><use x="13821" y="1982.8" xlink:href="#s109:satisfy-regular:95"/><use x="14102" y="1982.8" xlink:href="#s109:satisfy-regular:105"/><use x="14462" y="1982.8" xlink:href="#s109:satisfy-regular:22"/><use x="14749" y="1982.8" xlink:href="#s109:satisfy-regular:87"/><use x="15195" y="1982.8" xlink:href="#s109:satisfy-regular:22"/><use x="15482" y="1982.8" xlink:href="#s109:satisfy-regular:99"/><use x="16217" y="1982.8" xlink:href="#s109:satisfy-regular:111"/><use x="16633" y="1982.8" xlink:href="#s109:satisfy-regular:106"/><use x="16942" y="1982.8" xlink:href="#s109:satisfy-regular:94"/><use x="17419" y="1982.8" xlink:href="#s109:satisfy-regular:36"/></g><g id="line-2"><use x="5406.5" y="3211.6" xlink:href="#s109:satisfy-regular:60"/><use x="6006.5" y="3211.6" xlink:href="#s109:satisfy-regular:101"/><use x="6409.5" y="3211.6" xlink:href="#s109:satisfy-regular:104"/><use x="6825.5" y="3211.6" xlink:href="#s109:satisfy-regular:22"/><use x="7112.5" y="3211.6" xlink:href="#s109:satisfy-regular:105"/><use x="7472.5" y="3211.6" xlink:href="#s109:satisfy-regular:89"/><use x="7844.5" y="3211.6" xlink:href="#s109:satisfy-regular:95"/><use x="8125.5" y="3211.6" xlink:href="#s109:satisfy-regular:91"/><use x="8506.5" y="3211.6" xlink:href="#s109:satisfy-regular:100"/><use x="8979.5" y="3211.6" xlink:href="#s109:satisfy-regular:89"/><use x="9351.5" y="3211.6" xlink:href="#s109:satisfy-regular:91"/><use x="9732.5" y="3211.6" xlink:href="#s109:satisfy-regular:34"/><use x="9937.5" y="3211.6" xlink:href="#s109:satisfy-regular:22"/><use x="10224.5" y="3211.6" xlink:href="#s109:satisfy-regular:99"/><use x="10959.5" y="3211.6" xlink:href="#s109:satisfy-regular:107"/><use x="11439.5" y="3211.6" xlink:href="#s109:satisfy-regular:105"/><use x="11799.5" y="3211.6" xlink:href="#s109:satisfy-regular:95"/><use x="12080.5" y="3211.6" xlink:href="#s109:satisfy-regular:89"/><use x="12452.5" y="3211.6" xlink:href="#s109:satisfy-regular:34"/><use x="12657.5" y="3211.6" xlink:href="#s109:satisfy-regular:22"/><use x="12944.5" y="3211.6" xlink:href="#s109:satisfy-regular:105"/><use x="13304.5" y="3211.6" xlink:href="#s109:satisfy-regular:102"/><use x="13766.5" y="3211.6" xlink:href="#s109:satisfy-regular:101"/><use x="14169.5" y="3211.6" xlink:href="#s109:satisfy-regular:104"/><use x="14585.5" y="3211.6" xlink:href="#s109:satisfy-regular:106"/><use x="14894.5" y="3211.6" xlink:href="#s109:satisfy-regular:34"/><use x="15099.5" y="3211.6" xlink:href="#s109:satisfy-regular:22"/><use x="15386.5" y="3211.6" xlink:href="#s109:satisfy-regular:91"/><use x="15767.5" y="3211.6" xlink:href="#s109:satisfy-regular:106"/><use x="16076.5" y="3211.6" xlink:href="#s109:satisfy-regular:89"/><use x="16448.5" y="3211.6" xlink:href="#s109:satisfy-regular:34"/></g></svg>