<svg xmlns="http://www.w3.org/2000/svg" xmlns:xlink="http://www.w3.org/1999/xlink" width="528" height="91" viewBox="0 0 22538 3881.6"><defs><path id="s26:shadowsintolight:55" d="M301-627Q269-627 236.50-621Q204-615 172-607.50Q140-600 108-594Q76-588 43-588Q33-588 22.50-590.50Q12-593 12-608Q12-618 20.50-628.50Q29-639 39-640L307-679Q308-683 310-691.50Q312-700 315.50-708.50Q319-717 325-723.50Q331-730 339-730Q351-730 358-724Q365-718 370-710.50Q375-703 379-697Q383-691 389-691L397-691Q407-692 429-694.50Q451-697 479.50-700Q508-703 540-706.50Q572-710 601-712.50Q630-715 652-717.50Q674-720 684-722Q687-722 698.50-722.50Q710-723 715-723Q715-704 694.50-691.50Q674-679 642.50-670.50Q611-662 572.50-657.50Q534-653 497.50-650Q461-647 430.50-645Q400-643 384-640Q380-569 387.50-492Q395-415 406.50-337Q418-259 428-182Q438-105 438-35Q442-21 441.50-13Q441-5 436-2Q431 1 421 1Q411 1 397 0Q387-36 379.50-84.50Q372-133 366-188.50Q360-244 354.50-303Q349-362 344-420Q339-478 333-531Q327-584 319-627L301-627Z"/><path id="s26:shadowsintolight:75" d="M385-437Q348-451 314-426Q280-401 249-355.50Q218-310 190-252Q162-194 138-142Q114-90 94.50-53Q75-16 59-12Q47-12 40.50-16.50Q34-21 34-39L34-742Q34-751 41.50-753Q49-755 58-754Q67-753 75-749.50Q83-746 85-742L98-179Q109-197 118.50-229.50Q128-262 141-299.50Q154-337 171.50-374.50Q189-412 215-442Q241-472 278.50-488.50Q316-505 367-500Q401-500 422-478.50Q443-457 444-422L454-23Q454-19 452.50-11.50Q451-4 444.50 1.50Q438 7 426.50 8.50Q415 10 397 3L385-437Z"/><path id="s26:shadowsintolight:72" d="M55-216Q50-215 40-213Q30-211 19-212Q8-213-0.50-218Q-9-223-9-235Q-9-242-6-245Q-3-248 4-254Q26-272 41.50-300.50Q57-329 70-361.50Q83-394 97.50-426.50Q112-459 131-485Q150-511 178-527Q206-543 247-542Q264-542 285-534Q306-526 324-512.50Q342-499 354-480Q366-461 366-438Q371-430 356.50-415Q342-400 317-382.50Q292-365 260.50-346.50Q229-328 200-312Q171-296 149-284Q127-272 120-266Q115-256 112-243Q109-230 107.50-218.50Q106-207 105.50-197.50Q105-188 105-183Q105-164 103.50-141Q102-118 105.50-97.50Q109-77 122-63.50Q135-50 166-50Q199-50 228-66.50Q257-83 282-107Q307-131 327.50-159Q348-187 364.50-211.50Q381-236 394-252Q407-268 416-268Q426-268 437.50-264.50Q449-261 449-248Q449-230 434.50-205Q420-180 396.50-152Q373-124 342.50-96.50Q312-69 281-47.50Q250-26 220-12.50Q190 1 167 1Q122 1 99-21Q76-43 66.50-76Q57-109 56.50-146.50Q56-184 55-216M239-486Q222-486 203-469.50Q184-453 167.50-429.50Q151-406 140.50-381.50Q130-357 130-341Q145-341 173.50-352.50Q202-364 230-381Q258-398 279-417Q300-436 300-453Q300-462 293-468Q286-474 276.50-478Q267-482 257-484Q247-486 239-486Z"/><path id="s26:shadowsintolight:3" d=""/><path id="s26:shadowsintolight:40" d="M72-26Q72-107 73-185Q74-263 72-340Q70-417 64-494.50Q58-572 46-652Q46-654 43.50-660Q41-666 39-672.50Q37-679 35-684Q33-689 33-691Q33-696 36.50-703Q40-710 45.50-716.50Q51-723 58-727Q65-731 72-730Q84-727 91.50-715Q99-703 103-688.50Q107-674 108.50-660Q110-646 110-640Q140-656 177.50-674.50Q215-693 254.50-708.50Q294-724 333.50-734.50Q373-745 408-745Q408-736 404.50-729Q401-722 391-717L110-576L110-537Q111-526 112.50-499Q114-472 116-441.50Q118-411 119.50-383.50Q121-356 122-346L328-461L333-467Q338-473 346-478Q354-483 362.50-483.50Q371-484 379-473Q379-455 361-438Q343-421 316-404Q289-387 257.50-371Q226-355 199-340Q172-325 154-310Q136-295 136-282L136-89Q149-84 172.50-93.50Q196-103 225-120Q254-137 285-159.50Q316-182 345.50-202Q375-222 400.50-238Q426-254 443-257Q453-257 461-253Q469-249 469-237Q469-225 455-218Q420-197 374.50-165.50Q329-134 282-102.50Q235-71 189.50-45.50Q144-20 111-12Q98-12 90-14Q82-16 72-26Z"/><path id="s26:shadowsintolight:88" d="M280-116Q276-104 260.50-83.50Q245-63 224-42.50Q203-22 180.50-6.50Q158 9 141 9Q109 9 88.50-21Q68-51 57-98Q46-145 42-202.50Q38-260 37-315Q36-370 36-415Q36-460 33-483Q37-493 43.50-495Q50-497 59-497Q67-497 73.50-495Q80-493 85-483Q85-472 85.50-446Q86-420 88-387.50Q90-355 92-319.50Q94-284 95.50-252Q97-220 98.50-194.50Q100-169 101-157Q102-150 103.50-134Q105-118 108.50-100.50Q112-83 117.50-69Q123-55 132-54Q147-54 162.50-67Q178-80 193-100Q208-120 221-144Q234-168 244.50-190.50Q255-213 260.50-231Q266-249 267-257Q269-274 271-305.50Q273-337 274-373Q275-409 275.50-441Q276-473 276-490L331-487Q332-406 330-340.50Q328-275 329-217.50Q330-160 338-106Q346-52 367 6Q364 9 355 14.50Q346 20 342 20Q317 20 308.50 3.50Q300-13 297.50-35.50Q295-58 293.50-80.50Q292-103 280-116Z"/><path id="s26:shadowsintolight:85" d="M26-482L26-490Q26-500 33.50-504Q41-508 51-508Q59-508 66-506.50Q73-505 77-495Q80-480 83-453.50Q86-427 90-395Q94-363 98.50-327.50Q103-292 107.50-260.50Q112-229 117-204Q122-179 128-166Q125-262 134-332.50Q143-403 168.50-447.50Q194-492 238.50-509.50Q283-527 350-517Q381-517 381-484Q381-471 364-466.50Q347-462 326-460.50Q305-459 285-457Q265-455 256-447Q220-427 205.50-385Q191-343 185-286Q179-229 176.50-161.50Q174-94 163-23Q163-13 155-8Q147-3 135.50-3Q124-3 113.50-8Q103-13 97-23L26-482Z"/><path id="s26:shadowsintolight:82" d="M25-137Q18-183 18-226.50Q18-270 23.50-315Q29-360 39.50-408.50Q50-457 64-513Q64-524 70-533.50Q76-543 86-549.50Q96-556 107-560Q118-564 128-564Q150-564 168-550Q186-536 200.50-516Q215-496 225.50-473.50Q236-451 243-435Q251-400 254.50-355.50Q258-311 255-265Q252-219 241-174.50Q230-130 210-93Q190-56 158.50-31Q127-6 84 0Q61 0 49-15.50Q37-31 31.50-53.50Q26-76 25.50-99Q25-122 25-137M76-140Q76-130 76.50-121Q77-112 78.50-103.50Q80-95 82.50-85.50Q85-76 89-64L95-64Q119-64 136-80Q153-96 165-121.50Q177-147 185-178.50Q193-210 197.50-240.50Q202-271 203.50-297.50Q205-324 205-340L205-360Q205-373 204-389.50Q203-406 200.50-423.50Q198-441 193-455.50Q188-470 180-479Q172-488 159-488Q137-495 121.50-485Q106-475 96.50-451.50Q87-428 82-394Q77-360 76-319Q75-278 75.50-232Q76-186 76-140Z"/><path id="s26:shadowsintolight:83" d="M29 263Q40 158 41.50 63.50Q43-31 40.50-123Q38-215 33-309Q28-403 27-508Q30-522 34.50-529.50Q39-537 59-533Q80-528 84-509.50Q88-491 86-468Q84-445 80-422Q76-399 80-385Q112-408 148-433Q184-458 223-477.50Q262-497 304-506.50Q346-516 388-507Q440-495 460.50-471.50Q481-448 476.50-417.50Q472-387 448-350.50Q424-314 389-277Q354-240 311-204Q268-168 227-137.50Q186-107 150.50-84Q115-61 94-50Q93-38 91.50-12.50Q90 13 88.50 45Q87 77 85.50 112Q84 147 82.50 179Q81 211 79.50 236Q78 261 78 273Q76 274 71 275Q66 276 59 276.50Q52 277 46 277.50Q40 278 38 277Q35 277 32 271.50Q29 266 29 263M85-285Q82-271 83.50-250.50Q85-230 87.50-207.50Q90-185 93-164Q96-143 97-128Q135-157 185.50-187Q236-217 283.50-252Q331-287 368-330Q405-373 417-427Q421-448 413.50-455.50Q406-463 388-466Q350-474 301-460.50Q252-447 206.50-421Q161-395 127-359Q93-323 85-285Z"/><path id="s26:shadowsintolight:68" d="M310-26Q305-52 301.50-88.50Q298-125 294-162.50Q290-200 284.50-233Q279-266 268-287Q217-183 178-123.50Q139-64 109.50-38.50Q80-13 60-14Q40-15 27-32Q14-49 8.50-75.50Q3-102 1-125Q1-147 11-187Q21-227 38-274.50Q55-322 78.50-371Q102-420 129-460Q156-500 185-526Q214-552 243-552Q286-559 306.50-533.50Q327-508 314-448Q314-382 319.50-335Q325-288 331.50-245Q338-202 343.50-155Q349-108 349-42Q349-30 346.50-21.50Q344-13 322-13Q319-13 314.50-18Q310-23 310-26M256-473Q245-489 226-476Q207-463 186-433Q165-403 143-361Q121-319 102-276Q83-233 69-194.50Q55-156 50-131Q50-95 61-90.50Q72-86 88-102Q104-118 124.50-148Q145-178 164.50-212Q184-246 201.50-278Q219-310 229-330Q238-351 243-369Q248-387 251.50-403.50Q255-420 255.50-437Q256-454 256-473Z"/><path id="s26:shadowsintolight:81" d="M68-13Q57-148 48.50-283.50Q40-419 30-565Q30-589 56-589L64-589Q67-589 71-581Q75-573 79.50-551.50Q84-530 89.50-486.50Q95-443 103-373Q111-303 121-198Q142-266 154-330Q166-394 185-446.50Q204-499 238.50-539Q273-579 338-598Q374-592 396-554.50Q418-517 431-462Q444-407 449-342.50Q454-278 455-219Q456-160 456-113.50Q456-67 458-47Q455-39 449-33Q443-27 435.50-24.50Q428-22 421-23.50Q414-25 408-34Q408-45 406-79Q404-113 401-158.50Q398-204 394.50-255.50Q391-307 388.50-352.50Q386-398 384-432Q382-466 381-477Q360-514 339.50-519Q319-524 298.50-506Q278-488 259-451Q240-414 223-367.50Q206-321 191-270Q176-219 165-171.50Q154-124 146.50-85.50Q139-47 137-26Q134-19 124.50-12.50Q115-6 104.50-3Q94 0 83.50-1.50Q73-3 68-13Z"/><path id="s26:shadowsintolight:79" d="M47-51Q54-97 56.50-166Q59-235 58.50-313Q58-391 55-474Q52-557 47-631.50Q42-706 35.50-765Q29-824 22-858Q31-864 37.50-867.50Q44-871 53-871Q60-871 65-868.50Q70-866 73-858Q93-662 100.50-463Q108-264 112-67Q112-58 112-42.50Q112-27 111-26Q97-19 86-19.50Q75-20 66-25.50Q57-31 52-38Q47-45 47-51Z"/><path id="s26:shadowsintolight:74" d="M95 391Q183 386 233.50 345Q284 304 309 239Q334 174 339 90.50Q344 7 340-82Q336-171 328.50-260.50Q321-350 322-427Q279-301 241-223.50Q203-146 170.50-106.50Q138-67 111.50-58.50Q85-50 65-61.50Q45-73 32.50-98.50Q20-124 15-151Q17-197 33.50-252.50Q50-308 76.50-361.50Q103-415 138-461.50Q173-508 212-534.50Q251-561 293-562.50Q335-564 374-530Q375-529 377.50-503.50Q380-478 383.50-436.50Q387-395 391.50-343.50Q396-292 400-239.50Q404-187 407-139Q410-91 413-56Q417 1 408.50 65Q400 129 382 189.50Q364 250 336.50 303Q309 356 273.50 390Q238 424 194.50 433.50Q151 443 102 418Q99 418 93 417.50Q87 417 83.50 414Q80 411 82 406Q84 401 95 391M67-158Q77-127 93.50-126.50Q110-126 129-147.50Q148-169 170.50-208Q193-247 215-293Q237-339 258.50-387.50Q280-436 299-478Q299-489 294-498.50Q289-508 272-504Q244-498 217.50-477Q191-456 168.50-425.50Q146-395 127.50-358.50Q109-322 95.50-285.50Q82-249 74.50-216Q67-183 67-158Z"/><path id="s26:shadowsintolight:86" d="M105-15Q105-14 126.50-27Q148-40 177.50-61.50Q207-83 238-108.50Q269-134 289-157Q309-180 310.50-196.50Q312-213 283-218Q247-223 222.50-217Q198-211 178-203Q158-195 140.50-188Q123-181 102-183Q58-183 41.50-210.50Q25-238 25-285Q25-332 46-374.50Q67-417 100-448Q133-479 176-497.50Q219-516 264-516Q282-516 295-513Q308-510 308-490Q308-476 296-463.50Q284-451 269-451Q268-451 264-452.50Q260-454 256-457Q252-460 248-461.50Q244-463 243-463Q211-472 181-454Q151-436 127.50-405.50Q104-375 90-339.50Q76-304 76-276Q76-265 80.50-258.50Q85-252 92.50-249Q100-246 109.50-245.50Q119-245 129-245Q149-245 169.50-251Q190-257 209.50-265Q229-273 249.50-279Q270-285 292-285Q302-285 314-279.50Q326-274 336-263.50Q346-253 353-239.50Q360-226 361-210Q367-196 357.50-173Q348-150 329-124Q310-98 283-71.50Q256-45 229-23.50Q202-2 176 11.50Q150 25 132 24Q112 24 108.50 12Q105 0 105-15Z"/><path id="s26:shadowsintolight:80" d="M66-3Q63-31 61-79Q59-127 57-183.50Q55-240 52.50-301Q50-362 47-417Q44-472 39.50-517Q35-562 30-589Q30-609 39-612.50Q48-616 62-616Q64-616 71-616Q78-616 81-615Q90-585 92.50-537.50Q95-490 96.50-434Q98-378 99.50-318Q101-258 106-204Q120-283 129.50-335Q139-387 147.50-418.50Q156-450 163.50-465.50Q171-481 180.50-486Q190-491 201.50-490.50Q213-490 229-490Q247-490 258.50-476Q270-462 276.50-440Q283-418 286.50-392Q290-366 293-341.50Q296-317 299.50-297Q303-277 311-269Q336-343 354-390Q372-437 385-464.50Q398-492 408-504Q418-516 426-518.50Q434-521 440.50-519Q447-517 454-517Q481-517 495-489Q511-444 517-403.50Q523-363 524-325.50Q525-288 524.50-254Q524-220 526.50-188Q529-156 537.50-125Q546-94 567-64Q559-48 551-42.50Q543-37 529-37Q517-37 508-45.50Q499-54 493-66.50Q487-79 483.50-92Q480-105 477-115Q473-258 464.50-334.50Q456-411 439-415Q422-419 395.50-348.50Q369-278 330-128Q327-123 321-122Q315-121 308.50-121Q302-121 295.50-121.50Q289-122 283-121Q258-268 241.50-332.50Q225-397 208-382Q191-367 170-274.50Q149-182 116-15L66-3Z"/><path id="s26:shadowsintolight:69" d="M42-7Q37-86 38.50-175Q40-264 43-367Q46-470 48.50-590.50Q51-711 49-854Q60-854 72-855.50Q84-857 93.50-856Q103-855 109.50-850Q116-845 116-832Q116-795 113.50-746.50Q111-698 107-640.50Q103-583 100.50-517Q98-451 98-378Q133-424 163-453Q193-482 220-499.50Q247-517 273-521.50Q299-526 324-524Q353-524 371.50-508Q390-492 400-468Q410-444 414-414.50Q418-385 418-357Q418-337 415.50-314.50Q413-292 404-265Q395-238 376.50-209.50Q358-181 325-149Q292-117 241.50-83Q191-49 119-13Q95-6 80.50-4.50Q66-3 57.50-3.50Q49-4 45.50-5Q42-6 42-7M85-67Q90-70 112-80.50Q134-91 164-108Q194-125 229-149Q264-173 293.50-205Q323-237 344-277Q365-317 369-365Q369-379 365-395Q361-411 352.50-425Q344-439 331-448.50Q318-458 300-458Q263-458 230.50-438Q198-418 171-388Q144-358 123-323.50Q102-289 89-260L85-67Z"/><path id="s26:shadowsintolight:73" d="M105-369Q101-369 93-365.50Q85-362 76.50-357.50Q68-353 60-349Q52-345 46-345Q36-345 28.50-349Q21-353 21-365Q21-375 30.50-384Q40-393 53-402Q66-411 79-419Q92-427 98-435Q96-451 95-495Q94-539 95.50-595.50Q97-652 102.50-712Q108-772 119.50-819.50Q131-867 150-894Q169-921 199-911Q220-911 237-898.50Q254-886 266-867.50Q278-849 284.50-827Q291-805 291-787Q291-777 286.50-765.50Q282-754 270-754L267-754Q266-754 265-755Q241-816 224.50-832.50Q208-849 196.50-833Q185-817 177.50-776Q170-735 165-681.50Q160-628 156-568.50Q152-509 148-458Q168-463 181.50-468Q195-473 206-478.50Q217-484 226-489.50Q235-495 246-499Q267-509 292.50-518.50Q318-528 342-528Q342-499 331.50-480Q321-461 304.50-449Q288-437 267-431.50Q246-426 224.50-422Q203-418 184-414Q165-410 151-404Q154-339 159.50-290Q165-241 169.50-203Q174-165 176.50-133.50Q179-102 176-71Q176-64 176.50-51.50Q177-39 175.50-27Q174-15 168-6.50Q162 2 149 2Q137 2 131-3.50Q125-9 123-26Q117-107 113.50-163.50Q110-220 108-258.50Q106-297 106-319L106-365Q106-369 105-369Z"/><path id="s26:shadowsintolight:87" d="M53-427Q43-422 34.50-416.50Q26-411 18-406.50Q10-402 2-400Q-6-398-15-400Q-21-400-25-407.50Q-29-415-31.50-424.50Q-34-434-35-443.50Q-36-453-35-458L61-513L67-769Q69-782 83-779.50Q97-777 112-773Q114-773 118.50-771.50Q123-770 125-769Q123-742 120.50-710.50Q118-679 116-647.50Q114-616 113.50-586Q113-556 116-532L266-574Q270-575 272.50-568.50Q275-562 277.50-553Q280-544 281-535Q282-526 282-526L112-454Q112-445 113.50-411Q115-377 117-330.50Q119-284 121-230.50Q123-177 125-131Q127-85 128-50.50Q129-16 129-7Q127 23 111.50 23Q96 23 78 8L53-427Z"/><path id="s26:shadowsintolight:76" d="M42-20Q42-85 39.50-157Q37-229 34.50-302.50Q32-376 33-447Q34-518 42-580Q44-581 51.50-581.50Q59-582 62-582Q76-582 84.50-577.50Q93-573 93-558Q93-499 92.50-429.50Q92-360 91.50-288.50Q91-217 91-147Q91-77 93-20Q94-3 86.50 2.50Q79 8 68 8Q56 8 48 2.50Q40-3 42-20M20-736Q20-748 28-752Q36-756 46-756Q66-756 71-743Q76-730 76-713Q70-702 61-697.50Q52-693 42.50-695.50Q33-698 26.50-708Q20-718 20-736Z"/><path id="s26:shadowsintolight:92" d="M283-4L25-417Q24-418 23-424.50Q22-431 22-435Q22-448 26.50-457.50Q31-467 50-467Q54-467 64-462.50Q74-458 76-454Q98-419 121.50-376Q145-333 170.50-290Q196-247 224-207.50Q252-168 283-140L307-532Q308-532 312.50-532.50Q317-533 319-533Q328-533 337-530.50Q346-528 350-517Q351-481 350.50-428Q350-375 348.50-319Q347-263 345.50-211.50Q344-160 343-129Q342-109 339.50-69Q337-29 333.50 21.50Q330 72 325.50 128Q321 184 317 234Q313 284 310 324.50Q307 365 305 383L253 383L283-4Z"/><path id="s26:shadowsintolight:17" d="M26-39Q40-54 50-59.50Q60-65 76-65Q103-65 103-39Q103-33 99.50-25.50Q96-18 90.50-11Q85-4 78-0.50Q71 3 65 0Q58 5 50.50 2.50Q43 0 37-6Q31-12 27.50-20.50Q24-29 26-39Z"/><path id="s26:shadowsintolight:91" d="M172 62Q158 76 145.50 75Q133 74 125.50 65Q118 56 115.50 41Q113 26 121 11L185-258Q168-278 141.50-302Q115-326 89.50-351Q64-376 43-401.50Q22-427 17-450Q17-476 44-476Q61-479 71.50-473Q82-467 90-455.50Q98-444 106.50-427Q115-410 127.50-392Q140-374 159.50-355.50Q179-337 210-322Q216-339 221-376.50Q226-414 229.50-456.50Q233-499 235-541Q237-583 237-610Q240-614 249.50-616.50Q259-619 270-618.50Q281-618 290-614.50Q299-611 301-604Q306-561 299.50-519.50Q293-478 283.50-436.50Q274-395 266-354Q258-313 262-271L440-92Q441-91 443-84Q445-77 445-74Q445-68 444-62Q443-56 439.50-50.50Q436-45 430.50-42Q425-39 416-40Q403-54 383.50-74.50Q364-95 341-117.50Q318-140 294-161Q270-182 248-194L243-194L242-195Q237-195 233-189.50Q229-184 222.50-158.50Q216-133 204.50-81.50Q193-30 172 62Z"/><path id="s26:shadowsintolight:70" d="M26-230Q29-266 32-308.50Q35-351 41.50-393Q48-435 58.50-473Q69-511 86.50-540.50Q104-570 130-587.50Q156-605 193-604Q218-604 231.50-583Q245-562 250.50-532Q256-502 256.50-470.50Q257-439 257-419Q237-419 224-436.50Q211-454 204-477Q197-500 194-522L191-551Q190-551 187.50-551.50Q185-552 184-552Q167-552 152.50-533Q138-514 125.50-484.50Q113-455 104-418.50Q95-382 89-347Q83-312 79.50-282.50Q76-253 76-237Q74-211 76-180Q78-149 88-122Q98-95 116-75.50Q134-56 164-49Q201-49 224-59Q247-69 261.50-86Q276-103 284-124Q292-145 299.50-167.50Q307-190 315-212Q323-234 338-253Q350-256 355.50-252.50Q361-249 363-243Q365-237 365-229L365-218Q365-176 351-137Q337-98 310-67.50Q283-37 245.50-18.50Q208 0 160 0Q120 0 93.50-25.50Q67-51 52.50-87Q38-123 32-162.50Q26-202 26-230Z"/><path id="s26:shadowsintolight:41" d="M30-660Q30-670 36-674.50Q42-679 51-681Q60-683 70-683Q80-683 87-684L87-589Q153-608 195-627.50Q237-647 270-663.50Q303-680 335.50-693.50Q368-707 414-717Q421-717 424-710Q427-703 427-697Q427-686 414-679L93-525L106-243Q180-284 231-313Q282-342 315-361Q348-380 366.50-390Q385-400 394-404L405-409Q407-410 408-410Q410-410 411-406.50Q412-403 412-398L412-386Q412-381 414-377Q409-371 384.50-355Q360-339 326-318.50Q292-298 253.50-275.50Q215-253 182-233Q149-213 127.50-198.50Q106-184 106-179L106-26Q106-13 101.50-6Q97 1 87 1Q76 1 67.50-24Q59-49 53.50-90.50Q48-132 44-186Q40-240 37-298Q34-356 32.50-414Q31-472 30.50-521.50Q30-571 30-607L30-660Z"/><path id="s26:shadowsintolight:15" d="M35 114Q36 103 37 83Q38 63 38.50 41.50Q39 20 39.50 0Q40-20 41-31Q40-33 38-38.50Q36-44 33.50-50.50Q31-57 30-62Q29-67 29-70Q29-99 43.50-110Q58-121 85-121Q94-107 99.50-92.50Q105-78 105-54.50Q105-31 97.50 5.50Q90 42 74 102L35 114Z"/></defs><g id="line-0"><use x="0" y="982" xlink:href="#s26:shadowsintolight:55"/><use x="610" y="982" xlink:href="#s26:shadowsintolight:75"/><use x="1088" y="982" xlink:href="#s26:shadowsintolight:72"/><use x="1561" y="982" xlink:href="#s26:shadowsintolight:3"/><use x="2022" y="982" xlink:href="#s26:shadowsintolight:40"/><use x="2508" y="982" xlink:href="#s26:shadowsintolight:88"/><use x="2905" y="982" xlink:href="#s26:shadowsintolight:85"/><use x="3311" y="982" xlink:href="#s26:shadowsintolight:82"/><use x="3584" y="982" xlink:href="#s26:shadowsintolight:83"/><use x="4078" y="982" xlink:href="#s26:shadowsintolight:72"/><use x="4551" y="982" xlink:href="#s26:shadowsintolight:68"/><use x="4926" y="982" xlink:href="#s26:shadowsintolight:81"/><use x="5421" y="982" xlink:href="#s26:shadowsintolight:3"/><use x="5882" y="982" xlink:href="#s26:shadowsintolight:79"/><use x="6023" y="982" xlink:href="#s26:shadowsintolight:68"/><use x="6398" y="982" xlink:href="#s26:shadowsintolight:81"/><use x="6893" y="982" xlink:href="#s26:shadowsintolight:74"/><use x="7341" y="982" xlink:href="#s26:shadowsintolight:88"/><use x="7738" y="982" xlink:href="#s26:shadowsintolight:68"/><use x="8113" y="982" xlink:href="#s26:shadowsintolight:74"/><use x="8561" y="982" xlink:href="#s26:shadowsintolight:72"/><use x="9034" y="982" xlink:href="#s26:shadowsintolight:86"/><use x="9409" y="982" xlink:href="#s26:shadowsintolight:3"/><use x="9870" y="982" xlink:href="#s26:shadowsintolight:68"/><use x="10245" y="982" xlink:href="#s26:shadowsintolight:85"/><use x="10651" y="982" xlink:href="#s26:shadowsintolight:72"/><use x="11124" y="982" xlink:href="#s26:shadowsintolight:3"/><use x="11585" y="982" xlink:href="#s26:shadowsintolight:80"/><use x="12178" y="982" xlink:href="#s26:shadowsintolight:72"/><use x="12651" y="982" xlink:href="#s26:shadowsintolight:80"/><use x="13244" y="982" xlink:href="#s26:shadowsintolight:69"/><use x="13697" y="982" xlink:href="#s26:shadowsintolight:72"/><use x="14170" y="982" xlink:href="#s26:shadowsintolight:85"/><use x="14576" y="982" xlink:href="#s26:shadowsintolight:86"/><use x="14951" y="982" xlink:href="#s26:shadowsintolight:3"/><use x="15412" y="982" xlink:href="#s26:shadowsintolight:82"/><use x="15685" y="982" xlink:href="#s26:shadowsintolight:73"/><use x="16039" y="982" xlink:href="#s26:shadowsintolight:3"/><use x="16500" y="982" xlink:href="#s26:shadowsintolight:87"/><use x="16775" y="982" xlink:href="#s26:shadowsintolight:75"/><use x="17253" y="982" xlink:href="#s26:shadowsintolight:72"/><use x="17726" y="982" xlink:href="#s26:shadowsintolight:3"/><use x="18187" y="982" xlink:href="#s26:shadowsintolight:86"/><use x="18562" y="982" xlink:href="#s26:shadowsintolight:68"/><use x="18937" y="982" xlink:href="#s26:shadowsintolight:80"/><use x="19530" y="982" xlink:href="#s26:shadowsintolight:72"/><use x="20003" y="982" xlink:href="#s26:shadowsintolight:3"/><use x="20464" y="982" xlink:href="#s26:shadowsintolight:73"/><use x="20818" y="982" xlink:href="#s26:shadowsintolight:68"/><use x="21193" y="982" xlink:href="#s26:shadowsintolight:80"/><use x="21786" y="982" xlink:href="#s26:shadowsintolight:76"/><use x="21922" y="982" xlink:href="#s26:shadowsintolight:79"/><use x="22063" y="982" xlink:href="#s26:shadowsintolight:92"/><use x="22435" y="982" xlink:href="#s26:shadowsintolight:17"/></g><g id="line-1"><use x="4306" y="2210.8" xlink:href="#s26:shadowsintolight:55"/><use x="4916" y="2210.8" xlink:href="#s26:shadowsintolight:75"/><use x="5394" y="2210.8" xlink:href="#s26:shadowsintolight:72"/><use x="5867" y="2210.8" xlink:href="#s26:shadowsintolight:76"/><use x="6003" y="2210.8" xlink:href="#s26:shadowsintolight:85"/><use x="6409" y="2210.8" xlink:href="#s26:shadowsintolight:3"/><use x="6870" y="2210.8" xlink:href="#s26:shadowsintolight:86"/><use x="7245" y="2210.8" xlink:href="#s26:shadowsintolight:72"/><use x="7718" y="2210.8" xlink:href="#s26:shadowsintolight:83"/><use x="8212" y="2210.8" xlink:href="#s26:shadowsintolight:68"/><use x="8587" y="2210.8" xlink:href="#s26:shadowsintolight:85"/><use x="8993" y="2210.8" xlink:href="#s26:shadowsintolight:68"/><use x="9368" y="2210.8" xlink:href="#s26:shadowsintolight:87"/><use x="9643" y="2210.8" xlink:href="#s26:shadowsintolight:72"/><use x="10116" y="2210.8" xlink:href="#s26:shadowsintolight:3"/><use x="10577" y="2210.8" xlink:href="#s26:shadowsintolight:72"/><use x="11050" y="2210.8" xlink:href="#s26:shadowsintolight:91"/><use x="11515" y="2210.8" xlink:href="#s26:shadowsintolight:76"/><use x="11651" y="2210.8" xlink:href="#s26:shadowsintolight:86"/><use x="12026" y="2210.8" xlink:href="#s26:shadowsintolight:87"/><use x="12301" y="2210.8" xlink:href="#s26:shadowsintolight:72"/><use x="12774" y="2210.8" xlink:href="#s26:shadowsintolight:81"/><use x="13269" y="2210.8" xlink:href="#s26:shadowsintolight:70"/><use x="13669" y="2210.8" xlink:href="#s26:shadowsintolight:72"/><use x="14142" y="2210.8" xlink:href="#s26:shadowsintolight:3"/><use x="14603" y="2210.8" xlink:href="#s26:shadowsintolight:76"/><use x="14739" y="2210.8" xlink:href="#s26:shadowsintolight:86"/><use x="15114" y="2210.8" xlink:href="#s26:shadowsintolight:3"/><use x="15575" y="2210.8" xlink:href="#s26:shadowsintolight:68"/><use x="15950" y="2210.8" xlink:href="#s26:shadowsintolight:3"/><use x="16411" y="2210.8" xlink:href="#s26:shadowsintolight:80"/><use x="17004" y="2210.8" xlink:href="#s26:shadowsintolight:92"/><use x="17376" y="2210.8" xlink:href="#s26:shadowsintolight:87"/><use x="17651" y="2210.8" xlink:href="#s26:shadowsintolight:75"/><use x="18129" y="2210.8" xlink:href="#s26:shadowsintolight:17"/></g><g id="line-2"><use x="5751" y="3439.6" xlink:href="#s26:shadowsintolight:41"/><use x="6190" y="3439.6" xlink:href="#s26:shadowsintolight:82"/><use x="6463" y="3439.6" xlink:href="#s26:shadowsintolight:85"/><use x="6869" y="3439.6" xlink:href="#s26:shadowsintolight:3"/><use x="7330" y="3439.6" xlink:href="#s26:shadowsintolight:86"/><use x="7705" y="3439.6" xlink:href="#s26:shadowsintolight:70"/><use x="8105" y="3439.6" xlink:href="#s26:shadowsintolight:76"/><use x="8241" y="3439.6" xlink:href="#s26:shadowsintolight:72"/><use x="8714" y="3439.6" xlink:href="#s26:shadowsintolight:81"/><use x="9209" y="3439.6" xlink:href="#s26:shadowsintolight:70"/><use x="9609" y="3439.6" xlink:href="#s26:shadowsintolight:72"/><use x="10082" y="3439.6" xlink:href="#s26:shadowsintolight:15"/><use x="10197" y="3439.6" xlink:href="#s26:shadowsintolight:3"/><use x="10658" y="3439.6" xlink:href="#s26:shadowsintolight:80"/><use x="11251" y="3439.6" xlink:href="#s26:shadowsintolight:88"/><use x="11648" y="3439.6" xlink:href="#s26:shadowsintolight:86"/><use x="12023" y="3439.6" xlink:href="#s26:shadowsintolight:76"/><use x="12159" y="3439.6" xlink:href="#s26:shadowsintolight:70"/><use x="12559" y="3439.6" xlink:href="#s26:shadowsintolight:15"/><use x="12674" y="3439.6" xlink:href="#s26:shadowsintolight:3"/><use x="13135" y="3439.6" xlink:href="#s26:shadowsintolight:86"/><use x="13510" y="3439.6" xlink:href="#s26:shadowsintolight:83"/><use x="14004" y="3439.6" xlink:href="#s26:shadowsintolight:82"/><use x="14277" y="3439.6" xlink:href="#s26:shadowsintolight:85"/><use x="14683" y="3439.6" xlink:href="#s26:shadowsintolight:87"/><use x="14958" y="3439.6" xlink:href="#s26:shadowsintolight:15"/><use x="15073" y="3439.6" xlink:href="#s26:shadowsintolight:3"/><use x="15534" y="3439.6" xlink:href="#s26:shadowsintolight:72"/><use x="16007" y="3439.6" xlink:href="#s26:shadowsintolight:87"/><use x="16282" y="3439.6" xlink:href="#s26:shadowsintolight:70"/><use x="16682" y="3439.6" xlink:href="#s26:shadowsintolight:15"/></g></svg>