<svg xmlns="http://www.w3.org/2000/svg" xmlns:xlink="http://www.w3.org/1999/xlink" width="541" height="83" viewBox="0 0 18270 2814"><defs><path id="s107:slabo27px-regular:24" d="M110-50L180-50L180-490L70-490L70-410L17-410L17-540L403-540L403-410L350-410L350-490L240-490L240-50L310-50L310 0L110 0L110-50Z"/><path id="s107:slabo27px-regular:138" d="M70-550L20-550L20-600L130-600L130-344L131-344Q185-400 254-400Q304-400 327-371.50Q350-343 350-291L350-50L400-50L400 0L250 0L250-50L290-50L290-283Q290-323 276-336.50Q262-350 237-350Q179-350 130-293L130-50L170-50L170 0L20 0L20-50L70-50L70-550Z"/><path id="s107:slabo27px-regular:135" d="M320-75L320-21Q270 10 203 10Q124 10 79.50-43Q35-96 35-191Q35-289 82-344.50Q129-400 200-400Q258-400 294-354Q330-308 330-223L330-192L97-192Q99-122 124.50-83Q150-44 206-42Q268-42 320-75M270-240Q270-297 249-323.50Q228-350 190-350Q153-350 128-322.50Q103-295 98-240L270-240Z"/><path id="s107:slabo27px-regular:3" d=""/><path id="s107:slabo27px-regular:9" d="M337-50L337-120L390-120L390 0L30 0L30-50L90-50L90-490L30-490L30-540L380-540L380-420L327-420L327-490L150-490L150-300L250-300L250-350L300-350L300-190L250-190L250-250L150-250L150-50L337-50Z"/><path id="s107:slabo27px-regular:151" d="M290-340L240-340L240-390L350-390L350-50L400-50L400 0L295 0L292-43L290-43Q246 10 179 10Q126 10 98-18Q70-46 70-99L70-340L20-340L20-390L130-390L130-109Q130-69 147.50-54.50Q165-40 195-40Q253-40 290-87L290-340Z"/><path id="s107:slabo27px-regular:148" d="M30-50L80-50L80-340L30-340L30-390L137-390L140-334L142-334Q161-366 184-381Q207-396 239-396Q251-396 260-394L260-331Q245-334 229-334Q200-334 178.50-320.50Q157-307 140-277L140-50L200-50L200 0L30 0L30-50Z"/><path id="s107:slabo27px-regular:145" d="M35-193Q35-288 81.50-344Q128-400 199-400Q270-400 312.50-348Q355-296 355-202Q355-106 310-48Q265 10 192 10Q120 10 77.50-45.50Q35-101 35-193M98-202Q98-123 123.50-81.50Q149-40 197-40Q242-40 267-78.50Q292-117 292-196Q292-350 194-350Q147-350 122.50-314.50Q98-279 98-202Z"/><path id="s107:slabo27px-regular:146" d="M132-390L135-358L137-358Q182-400 238-400Q302-400 341-347.50Q380-295 380-209Q380-111 332.50-50.50Q285 10 212 10Q174 10 137-8L135-7L135 130L195 130L195 180L25 180L25 130L75 130L75-340L25-340L25-390L132-390M135-55Q165-40 205-40Q258-40 287.50-79Q317-118 317-199Q317-277 291-313.50Q265-350 221-350Q173-350 135-307L135-55Z"/><path id="s107:slabo27px-regular:131" d="M60-361Q129-400 201-400Q263-400 296.50-371.50Q330-343 330-281L330-50L380-50L380 0L276 0L273-45L271-46Q223 10 153 10Q101 10 70.50-20.50Q40-51 40-98Q40-161 94.50-192Q149-223 253-223L270-223L270-282Q270-319 252.50-334.50Q235-350 194-350Q145-350 112-334L112-280L60-280L60-361M246-180Q177-180 140-162.50Q103-145 103-101Q103-69 121-54.50Q139-40 167-40Q227-40 270-89L270-180L246-180Z"/><path id="s107:slabo27px-regular:144" d="M30-50L80-50L80-340L30-340L30-390L136-390L139-338L140-338Q194-400 264-400Q314-400 337-371.50Q360-343 360-291L360-50L410-50L410 0L260 0L260-50L300-50L300-283Q300-323 286-336.50Q272-350 247-350Q189-350 140-288L140-50L180-50L180 0L30 0L30-50Z"/><path id="s107:slabo27px-regular:142" d="M30-50L80-50L80-550L30-550L30-600L140-600L140-50L190-50L190 0L30 0L30-50Z"/><path id="s107:slabo27px-regular:137" d="M40-259Q40-321 79-360.50Q118-400 179-400Q201-400 219-395Q235-390 255-390L350-390L350-342L293-342L293-341Q312-308 312-268Q312-202 273.50-161Q235-120 174-120Q146-120 124-128Q105-106 105-86Q105-74 113-67Q121-60 138-60L208-60Q274-60 309.50-33Q345-6 345 47Q345 112 293 151Q241 190 162 190Q98 190 59 160Q20 130 20 83Q20 29 74-16Q50-36 50-68Q50-108 93-144Q40-185 40-259M111 0Q80 30 80 70Q80 104 102 123.50Q124 143 170 143Q224 143 254.50 120.50Q285 98 285 62Q285 31 264.50 15.50Q244 0 208 0L111 0M102-264Q102-219 121-193.50Q140-168 178-168Q214-168 232-191Q250-214 250-261Q250-307 231.50-328.50Q213-350 175-350Q139-350 120.50-329Q102-308 102-264Z"/><path id="s107:slabo27px-regular:149" d="M154 10Q92 10 40-14L40-100L92-100L92-48Q122-39 158-39Q203-39 221.50-54.50Q240-70 240-98Q240-124 218-139.50Q196-155 149-172Q83-196 59-223.50Q35-251 35-288Q35-337 74-368.50Q113-400 174-400Q230-400 280-376L280-290L228-290L228-343Q205-352 171-352Q133-352 114-336.50Q95-321 95-296Q95-271 115.50-256.50Q136-242 180-226Q243-204 271.50-177Q300-150 300-105Q300-53 260-21.50Q220 10 154 10Z"/><path id="s107:slabo27px-regular:143" d="M30-50L80-50L80-340L30-340L30-390L136-390L139-338L140-338Q193-400 261-400Q333-400 348-337L350-337Q404-400 474-400Q524-400 547-371.50Q570-343 570-291L570-50L620-50L620 0L470 0L470-50L510-50L510-283Q510-323 496-336.50Q482-350 457-350Q403-350 355-294L355-50L395-50L395 0L255 0L255-50L295-50L295-283Q295-323 281.50-336.50Q268-350 244-350Q187-350 140-288L140-50L180-50L180 0L30 0L30-50Z"/><path id="s107:slabo27px-regular:132" d="M135-46Q165-40 194-40Q254-40 285.50-77Q317-114 317-195Q317-267 292.50-308.50Q268-350 218-350Q174-350 135-317L135-46M135-365L137-364Q179-400 236-400Q301-400 340.50-345Q380-290 380-204Q380-104 329.50-47Q279 10 191 10Q134 10 75-9L75-550L25-550L25-600L135-600L135-365Z"/><path id="s107:slabo27px-regular:136" d="M292-500L240-500L240-554Q225-557 210-557Q173-557 156.50-537Q140-517 140-472L140-390L230-390L230-340L140-340L140-50L190-50L190 0L30 0L30-50L80-50L80-340L30-340L30-390L80-390L80-463Q80-535 114.50-570Q149-605 209-605Q248-605 292-590L292-500Z"/><path id="s107:slabo27px-regular:150" d="M163 10Q120 10 95-12.50Q70-35 70-79L70-340L20-340L20-390L70-390L70-480L130-491L130-390L220-390L220-340L130-340L130-89Q130-60 141.50-50Q153-40 172-40Q196-40 220-52L220-3Q193 10 163 10Z"/><path id="s107:slabo27px-regular:139" d="M30-50L80-50L80-340L30-340L30-390L140-390L140-50L190-50L190 0L30 0L30-50M63-496Q63-517 74.50-528.50Q86-540 106-540Q125-540 137-528.50Q149-517 149-498Q149-478 137-466.50Q125-455 105-455Q86-455 74.50-466.50Q63-478 63-496Z"/><path id="s107:slabo27px-regular:155" d="M340-340L211 25Q199 60 185.50 89Q172 118 154.50 139.50Q137 161 113 172Q89 183 56 183Q38 183 20 180L20 125Q39 128 57 128Q73 128 86.50 124.50Q100 121 112 110.50Q124 100 137 75.50Q150 51 166 5L161 5L45-340L0-340L0-390L150-390L150-340L106-340L193-72L195-72L286-340L240-340L240-390L390-390L390-340L340-340Z"/><path id="s107:slabo27px-regular:323" d="M50-39Q50-63 63.50-77.50Q77-92 100-92Q123-92 136.50-77.50Q150-63 150-43Q150-18 136-4Q122 10 98 10Q76 10 63-4Q50-18 50-39Z"/><path id="s107:slabo27px-regular:154" d="M254-338L254-340L220-340L220-390L355-390L355-340L308-340L209-203L313-50L360-50L360 0L210 0L210-50L245-50L245-52L173-158L99-52L99-50L140-50L140 0L0 0L0-50L45-50L149-196L51-340L5-340L5-390L150-390L150-340L118-340L118-338L185-240L254-338Z"/><path id="s107:slabo27px-regular:133" d="M320-15Q272 10 215 10Q134 10 87-42Q40-94 40-191Q40-289 89.50-344.50Q139-400 218-400Q273-400 320-377L320-280L267-280L267-341Q245-350 213-350Q157-350 130-314.50Q103-279 103-202Q103-120 132-81Q161-42 216-42Q270-42 320-69L320-15Z"/><path id="s107:slabo27px-regular:10" d="M150-240L150-50L220-50L220 0L30 0L30-50L90-50L90-490L30-490L30-540L380-540L380-420L327-420L327-490L150-490L150-290L260-290L260-340L310-340L310-180L260-180L260-240L150-240Z"/><path id="s107:slabo27px-regular:320" d="M109-118Q155-75 155-28Q155 37 79 104L48 75Q91 34 90-4Q90-34 52-69L109-118Z"/></defs><g id="line-0"><use x="0" y="630" xlink:href="#s107:slabo27px-regular:24"/><use x="420" y="630" xlink:href="#s107:slabo27px-regular:138"/><use x="840" y="630" xlink:href="#s107:slabo27px-regular:135"/><use x="1200" y="630" xlink:href="#s107:slabo27px-regular:3"/><use x="1350" y="630" xlink:href="#s107:slabo27px-regular:9"/><use x="1770" y="630" xlink:href="#s107:slabo27px-regular:151"/><use x="2190" y="630" xlink:href="#s107:slabo27px-regular:148"/><use x="2460" y="630" xlink:href="#s107:slabo27px-regular:145"/><use x="2850" y="630" xlink:href="#s107:slabo27px-regular:146"/><use x="3270" y="630" xlink:href="#s107:slabo27px-regular:135"/><use x="3630" y="630" xlink:href="#s107:slabo27px-regular:131"/><use x="4020" y="630" xlink:href="#s107:slabo27px-regular:144"/><use x="4440" y="630" xlink:href="#s107:slabo27px-regular:3"/><use x="4590" y="630" xlink:href="#s107:slabo27px-regular:142"/><use x="4800" y="630" xlink:href="#s107:slabo27px-regular:131"/><use x="5190" y="630" xlink:href="#s107:slabo27px-regular:144"/><use x="5610" y="630" xlink:href="#s107:slabo27px-regular:137"/><use x="5970" y="630" xlink:href="#s107:slabo27px-regular:151"/><use x="6390" y="630" xlink:href="#s107:slabo27px-regular:131"/><use x="6780" y="630" xlink:href="#s107:slabo27px-regular:137"/><use x="7140" y="630" xlink:href="#s107:slabo27px-regular:135"/><use x="7500" y="630" xlink:href="#s107:slabo27px-regular:149"/><use x="7830" y="630" xlink:href="#s107:slabo27px-regular:3"/><use x="7980" y="630" xlink:href="#s107:slabo27px-regular:131"/><use x="8370" y="630" xlink:href="#s107:slabo27px-regular:148"/><use x="8640" y="630" xlink:href="#s107:slabo27px-regular:135"/><use x="9000" y="630" xlink:href="#s107:slabo27px-regular:3"/><use x="9150" y="630" xlink:href="#s107:slabo27px-regular:143"/><use x="9780" y="630" xlink:href="#s107:slabo27px-regular:135"/><use x="10140" y="630" xlink:href="#s107:slabo27px-regular:143"/><use x="10770" y="630" xlink:href="#s107:slabo27px-regular:132"/><use x="11190" y="630" xlink:href="#s107:slabo27px-regular:135"/><use x="11550" y="630" xlink:href="#s107:slabo27px-regular:148"/><use x="11820" y="630" xlink:href="#s107:slabo27px-regular:149"/><use x="12150" y="630" xlink:href="#s107:slabo27px-regular:3"/><use x="12300" y="630" xlink:href="#s107:slabo27px-regular:145"/><use x="12690" y="630" xlink:href="#s107:slabo27px-regular:136"/><use x="12930" y="630" xlink:href="#s107:slabo27px-regular:3"/><use x="13080" y="630" xlink:href="#s107:slabo27px-regular:150"/><use x="13320" y="630" xlink:href="#s107:slabo27px-regular:138"/><use x="13740" y="630" xlink:href="#s107:slabo27px-regular:135"/><use x="14100" y="630" xlink:href="#s107:slabo27px-regular:3"/><use x="14250" y="630" xlink:href="#s107:slabo27px-regular:149"/><use x="14580" y="630" xlink:href="#s107:slabo27px-regular:131"/><use x="14970" y="630" xlink:href="#s107:slabo27px-regular:143"/><use x="15600" y="630" xlink:href="#s107:slabo27px-regular:135"/><use x="15960" y="630" xlink:href="#s107:slabo27px-regular:3"/><use x="16110" y="630" xlink:href="#s107:slabo27px-regular:136"/><use x="16350" y="630" xlink:href="#s107:slabo27px-regular:131"/><use x="16740" y="630" xlink:href="#s107:slabo27px-regular:143"/><use x="17370" y="630" xlink:href="#s107:slabo27px-regular:139"/><use x="17580" y="630" xlink:href="#s107:slabo27px-regular:142"/><use x="17790" y="630" xlink:href="#s107:slabo27px-regular:155"/><use x="18120" y="630" xlink:href="#s107:slabo27px-regular:323"/></g><g id="line-1"><use x="3660" y="1602" xlink:href="#s107:slabo27px-regular:24"/><use x="4080" y="1602" xlink:href="#s107:slabo27px-regular:138"/><use x="4500" y="1602" xlink:href="#s107:slabo27px-regular:135"/><use x="4860" y="1602" xlink:href="#s107:slabo27px-regular:139"/><use x="5070" y="1602" xlink:href="#s107:slabo27px-regular:148"/><use x="5340" y="1602" xlink:href="#s107:slabo27px-regular:3"/><use x="5490" y="1602" xlink:href="#s107:slabo27px-regular:149"/><use x="5820" y="1602" xlink:href="#s107:slabo27px-regular:135"/><use x="6180" y="1602" xlink:href="#s107:slabo27px-regular:146"/><use x="6600" y="1602" xlink:href="#s107:slabo27px-regular:131"/><use x="6990" y="1602" xlink:href="#s107:slabo27px-regular:148"/><use x="7260" y="1602" xlink:href="#s107:slabo27px-regular:131"/><use x="7650" y="1602" xlink:href="#s107:slabo27px-regular:150"/><use x="7890" y="1602" xlink:href="#s107:slabo27px-regular:135"/><use x="8250" y="1602" xlink:href="#s107:slabo27px-regular:3"/><use x="8400" y="1602" xlink:href="#s107:slabo27px-regular:135"/><use x="8760" y="1602" xlink:href="#s107:slabo27px-regular:154"/><use x="9120" y="1602" xlink:href="#s107:slabo27px-regular:139"/><use x="9330" y="1602" xlink:href="#s107:slabo27px-regular:149"/><use x="9660" y="1602" xlink:href="#s107:slabo27px-regular:150"/><use x="9900" y="1602" xlink:href="#s107:slabo27px-regular:135"/><use x="10260" y="1602" xlink:href="#s107:slabo27px-regular:144"/><use x="10680" y="1602" xlink:href="#s107:slabo27px-regular:133"/><use x="11040" y="1602" xlink:href="#s107:slabo27px-regular:135"/><use x="11400" y="1602" xlink:href="#s107:slabo27px-regular:3"/><use x="11550" y="1602" xlink:href="#s107:slabo27px-regular:139"/><use x="11760" y="1602" xlink:href="#s107:slabo27px-regular:149"/><use x="12090" y="1602" xlink:href="#s107:slabo27px-regular:3"/><use x="12240" y="1602" xlink:href="#s107:slabo27px-regular:131"/><use x="12630" y="1602" xlink:href="#s107:slabo27px-regular:3"/><use x="12780" y="1602" xlink:href="#s107:slabo27px-regular:143"/><use x="13410" y="1602" xlink:href="#s107:slabo27px-regular:155"/><use x="13800" y="1602" xlink:href="#s107:slabo27px-regular:150"/><use x="14040" y="1602" xlink:href="#s107:slabo27px-regular:138"/><use x="14460" y="1602" xlink:href="#s107:slabo27px-regular:323"/></g><g id="line-2"><use x="4452.5" y="2574" xlink:href="#s107:slabo27px-regular:10"/><use x="4812.5" y="2574" xlink:href="#s107:slabo27px-regular:145"/><use x="5202.5" y="2574" xlink:href="#s107:slabo27px-regular:148"/><use x="5472.5" y="2574" xlink:href="#s107:slabo27px-regular:3"/><use x="5622.5" y="2574" xlink:href="#s107:slabo27px-regular:149"/><use x="5952.5" y="2574" xlink:href="#s107:slabo27px-regular:133"/><use x="6312.5" y="2574" xlink:href="#s107:slabo27px-regular:139"/><use x="6522.5" y="2574" xlink:href="#s107:slabo27px-regular:135"/><use x="6882.5" y="2574" xlink:href="#s107:slabo27px-regular:144"/><use x="7302.5" y="2574" xlink:href="#s107:slabo27px-regular:133"/><use x="7662.5" y="2574" xlink:href="#s107:slabo27px-regular:135"/><use x="8022.5" y="2574" xlink:href="#s107:slabo27px-regular:320"/><use x="8232.5" y="2574" xlink:href="#s107:slabo27px-regular:3"/><use x="8382.5" y="2574" xlink:href="#s107:slabo27px-regular:143"/><use x="9012.5" y="2574" xlink:href="#s107:slabo27px-regular:151"/><use x="9432.5" y="2574" xlink:href="#s107:slabo27px-regular:149"/><use x="9762.5" y="2574" xlink:href="#s107:slabo27px-regular:139"/><use x="9972.5" y="2574" xlink:href="#s107:slabo27px-regular:133"/><use x="10332.5" y="2574" xlink:href="#s107:slabo27px-regular:320"/><use x="10542.5" y="2574" xlink:href="#s107:slabo27px-regular:3"/><use x="10692.5" y="2574" xlink:href="#s107:slabo27px-regular:149"/><use x="11022.5" y="2574" xlink:href="#s107:slabo27px-regular:146"/><use x="11442.5" y="2574" xlink:href="#s107:slabo27px-regular:145"/><use x="11832.5" y="2574" xlink:href="#s107:slabo27px-regular:148"/><use x="12102.5" y="2574" xlink:href="#s107:slabo27px-regular:150"/><use x="12342.5" y="2574" xlink:href="#s107:slabo27px-regular:320"/><use x="12552.5" y="2574" xlink:href="#s107:slabo27px-regular:3"/><use x="12702.5" y="2574" xlink:href="#s107:slabo27px-regular:135"/><use x="13062.5" y="2574" xlink:href="#s107:slabo27px-regular:150"/><use x="13302.5" y="2574" xlink:href="#s107:slabo27px-regular:133"/><use x="13662.5" y="2574" xlink:href="#s107:slabo27px-regular:320"/></g></svg>