<svg xmlns="http://www.w3.org/2000/svg" xmlns:xlink="http://www.w3.org/1999/xlink" width="773" height="84" viewBox="0 0 32190 3520.5"><defs><path id="s112:sourcecodepro-medium:23" d="M250-571L39-571L39-655L561-655L561-571L350-571L350 0L250 0L250-571Z"/><path id="s112:sourcecodepro-medium:37" d="M88-709L187-709L187-521L181-411Q218-449 261-475Q304-501 361-501Q447-501 487-450Q527-399 527-303L527 0L428 0L428-290Q428-354 405-384.50Q382-415 326-415Q287-415 256-395.50Q225-376 187-337L187 0L88 0L88-709Z"/><path id="s112:sourcecodepro-medium:34" d="M65-244Q65-304 86-351.50Q107-399 142-432.50Q177-466 222-483.50Q267-501 315-501Q369-501 410.50-484Q452-467 481-436.50Q510-406 525-363.50Q540-321 540-270Q540-255 538.50-241.50Q537-228 535-219L167-219Q172-147 220.50-106.50Q269-66 343-66Q383-66 417.50-77Q452-88 485-108L520-45Q482-21 434.50-4.50Q387 12 330 12Q275 12 226.50-5.50Q178-23 142-56Q106-89 85.50-136.50Q65-184 65-244M448-287Q448-353 414-388Q380-423 317-423Q262-423 219-388Q176-353 166-287L448-287Z"/><path id="s112:sourcecodepro-medium:3" d=""/><path id="s112:sourcecodepro-medium:8" d="M110-655L521-655L521-571L210-571L210-384L473-384L473-300L210-300L210-84L531-84L531 0L110 0L110-655Z"/><path id="s112:sourcecodepro-medium:50" d="M510 0L429 0L421-81L417-81Q381-39 338.50-13.50Q296 12 240 12Q153 12 113-38.50Q73-89 73-186L73-489L172-489L172-199Q172-134 195-103.50Q218-73 274-73Q312-73 343.50-91.50Q375-110 411-154L411-489L510-489L510 0Z"/><path id="s112:sourcecodepro-medium:47" d="M138-489L220-489L228-375L231-375Q269-435 323.50-468Q378-501 444-501Q473-501 495-496.50Q517-492 540-481L518-396Q493-404 475-408Q457-412 429-412Q376-412 327-382Q278-352 237-278L237 0L138 0L138-489Z"/><path id="s112:sourcecodepro-medium:44" d="M56-244Q56-305 76-353Q96-401 130-434Q164-467 208-484Q252-501 300-501Q348-501 392-484Q436-467 470-434Q504-401 524-353Q544-305 544-244Q544-183 524-135.50Q504-88 470-55Q436-22 392-5Q348 12 300 12Q252 12 208-5Q164-22 130-55Q96-88 76-135.50Q56-183 56-244M158-244Q158-165 196-117Q234-69 300-69Q366-69 404-117Q442-165 442-244Q442-323 404-371Q366-419 300-419Q234-419 196-371Q158-323 158-244Z"/><path id="s112:sourcecodepro-medium:45" d="M187 40L187 200L88 200L88-489L169-489L177-429L180-429Q213-461 256-481Q299-501 343-501Q391-501 428.50-483.50Q466-466 491.50-433.50Q517-401 530.50-355Q544-309 544-252Q544-189 526-140Q508-91 477.50-57.50Q447-24 407-6Q367 12 324 12Q290 12 253-3.50Q216-19 184-48L187 40M187-121Q218-93 250-81.50Q282-70 305-70Q364-70 403-116.50Q442-163 442-251Q442-328 412-373Q382-418 316-418Q286-418 253-402.50Q220-387 187-352L187-121Z"/><path id="s112:sourcecodepro-medium:30" d="M76-129Q76-170 95.50-201Q115-232 156.50-254Q198-276 263.50-290Q329-304 421-311Q419-356 391.50-388Q364-420 299-420Q254-420 211.50-403Q169-386 133-365L96-432Q116-444 141-456.50Q166-469 194.50-479Q223-489 253.50-495Q284-501 316-501Q418-501 469-446Q520-391 520-294L520 0L439 0L431-63L428-63Q389-33 340.50-10.50Q292 12 241 12Q206 12 175.50 2Q145-8 123-26.50Q101-45 88.50-71Q76-97 76-129M172-136Q172-99 200.50-83Q229-67 269-67Q308-67 345.50-84Q383-101 421-132L421-248Q349-242 301-232.50Q253-223 224.50-208.50Q196-194 184-176Q172-158 172-136Z"/><path id="s112:sourcecodepro-medium:43" d="M88-489L169-489L177-410L181-410Q218-448 261-474.50Q304-501 361-501Q447-501 487-450Q527-399 527-303L527 0L428 0L428-290Q428-354 405-384.50Q382-415 326-415Q287-415 256-395.50Q225-376 187-337L187 0L88 0L88-489Z"/><path id="s112:sourcecodepro-medium:41" d="M76-709L335-709L335-165Q335-114 360.50-91.50Q386-69 427-69Q447-69 468-74Q489-79 515-90L539-16Q522-10 506.50-5Q491 0 475 3.50Q459 7 441.50 9.50Q424 12 403 12Q321 12 278.50-35Q236-82 236-171L236-630L76-630L76-709Z"/><path id="s112:sourcecodepro-medium:36" d="M151 76Q151 111 189.50 132.50Q228 154 301 154Q340 154 371.50 146.50Q403 139 425.50 126.50Q448 114 460 98Q472 82 472 64Q472 32 445.50 21.50Q419 11 366 11L280 11Q257 11 239 9.50Q221 8 205 3Q175 20 163 38Q151 56 151 76M67 88Q67 59 87.50 31.50Q108 4 146-18L146-22Q126-33 111-52.50Q96-72 96-103Q96-127 111.50-151.50Q127-176 155-195L155-199Q129-218 111-249.50Q93-281 93-325Q93-366 109-398.50Q125-431 152-454Q179-477 214.50-489Q250-501 290-501Q331-501 364-489L565-489L565-414L443-414Q458-398 470-374.50Q482-351 482-322Q482-282 467-251Q452-220 426-198.50Q400-177 365-166Q330-155 290-155Q272-155 251.50-159Q231-163 211-171Q177-149 177-120Q177-93 202-81Q227-69 274-69L378-69Q474-69 520.50-41.50Q567-14 567 49Q567 84 547.50 115Q528 146 492 169.50Q456 193 405 206.50Q354 220 291 220Q187 220 127 186.50Q67 153 67 88M290-219Q332-219 362-247Q392-275 392-325Q392-373 362-402Q332-431 290-431Q248-431 218-402Q188-373 188-325Q188-275 218-247Q248-219 290-219Z"/><path id="s112:sourcecodepro-medium:48" d="M114-128Q156-99 202-81.50Q248-64 309-64Q372-64 401-83Q430-102 430-131Q430-158 395-178Q360-198 279-218Q243-227 209.50-240Q176-253 151-270.50Q126-288 111-309.50Q96-331 96-358Q96-389 109.50-415Q123-441 150-460Q177-479 216-490Q255-501 306-501Q364-501 416.50-481.50Q469-462 506-437L460-375Q427-397 389-411Q351-425 307-425Q245-425 220.50-407Q196-389 196-363Q196-335 236-317Q276-299 339-283Q431-260 480.50-227.50Q530-195 530-137Q530-106 515-79Q500-52 471.50-31.50Q443-11 401.50 0.50Q360 12 306 12Q236 12 174-10.50Q112-33 67-64L114-128Z"/><path id="s112:sourcecodepro-medium:42" d="M54-489L130-489L138-425L141-425Q158-458 182.50-479.50Q207-501 249-501Q322-501 340-418Q360-455 386-478Q412-501 453-501Q504-501 532-461.50Q560-422 560-348L560 0L466 0L466-340Q466-415 420-415Q397-415 380-398.50Q363-382 346-348L346 0L268 0L268-340Q268-415 220-415Q197-415 181-398.50Q165-382 148-348L148 0L54 0L54-489Z"/><path id="s112:sourcecodepro-medium:31" d="M88-709L187-709L187-521L184-431Q217-463 258.50-482Q300-501 342-501Q390-501 428-483.50Q466-466 491.50-433.50Q517-401 530.50-355Q544-309 544-252Q544-189 526-140Q508-91 477.50-57.50Q447-24 407.50-6Q368 12 325 12Q290 12 250.50-5Q211-22 178-54L175-54L166 0L88 0L88-709M187-121Q218-93 250-81.50Q282-70 306-70Q364-70 403-116.50Q442-163 442-251Q442-328 412-373Q382-418 316-418Q286-418 253-402.50Q220-387 187-352L187-121Z"/><path id="s112:sourcecodepro-medium:35" d="M558-620Q530-632 504.50-637Q479-642 448-642Q387-642 360-611.50Q333-581 333-525L333-489L528-489L528-409L333-409L333 0L235 0L235-409L98-409L98-484L235-489L235-523Q235-567 247-603.50Q259-640 284-666Q309-692 347-706.50Q385-721 437-721Q510-721 580-693L558-620Z"/><path id="s112:sourcecodepro-medium:49" d="M198-409L64-409L64-484L202-489L215-624L297-624L297-489L528-489L528-409L297-409L297-193Q297-130 322.50-99Q348-68 415-68Q447-68 474.50-73.50Q502-79 527-89L547-16Q514-5 474 3.50Q434 12 392 12Q338 12 300.50-3Q263-18 240.50-45Q218-72 208-109.50Q198-147 198-193L198-409Z"/><path id="s112:sourcecodepro-medium:38" d="M87-489L405-489L405 0L306 0L306-409L87-409L87-489M347-582Q315-582 294-601Q273-620 273-652Q273-684 294-703.50Q315-723 347-723Q379-723 400-703.50Q421-684 421-652Q421-620 400-601Q379-582 347-582Z"/><path id="s112:sourcecodepro-medium:54" d="M87 118Q96 121 107 123Q118 125 129 125Q178 125 208 98.50Q238 72 255 31L268-3L45-489L144-489L254-234Q268-201 282-164Q296-127 311-91L315-91Q327-126 340-163Q353-200 365-234L462-489L556-489L347 31Q332 70 313 102Q294 134 268.50 157Q243 180 210 192.50Q177 205 134 205Q116 205 98.50 202.50Q81 200 67 195L87 118L87 118Z"/><path id="s112:sourcecodepro-medium:483" d="M210-81Q210-122 236-148Q262-174 300-174Q338-174 364-148Q390-122 390-81Q390-39 364-13.50Q338 12 300 12Q262 12 236-13.50Q210-39 210-81Z"/><path id="s112:sourcecodepro-medium:53" d="M239-254L70-489L178-489L249-389Q262-369 276-347.50Q290-326 304-306L308-306Q321-326 334.50-348Q348-370 360-390L425-489L530-489L360-244L542 0L434 0L356-104Q342-125 326-148Q310-171 294-192L290-192Q276-170 262-148.50Q248-127 234-104L162 0L57 0L239-254Z"/><path id="s112:sourcecodepro-medium:32" d="M76-244Q76-305 98-353Q120-401 158-434Q196-467 245.50-484Q295-501 351-501Q411-501 456-480.50Q501-460 531-431L483-368Q454-392 423-405.50Q392-419 356-419Q317-419 284-406.50Q251-394 227.50-371Q204-348 191-315.50Q178-283 178-244Q178-205 190.50-172.50Q203-140 226.50-117Q250-94 282-81.50Q314-69 353-69Q398-69 434-86Q470-103 499-127L541-63Q499-27 449-7.50Q399 12 345 12Q288 12 238.50-5Q189-22 153-55Q117-88 96.50-135.50Q76-183 76-244Z"/><path id="s112:sourcecodepro-medium:9" d="M128-655L536-655L536-571L227-571L227-368L489-368L489-283L227-283L227 0L128 0L128-655Z"/><path id="s112:sourcecodepro-medium:484" d="M193 153Q317 101 320-6Q316-5 312-5Q308-5 304-5Q269-5 243.50-25.50Q218-46 218-87Q218-127 244-148.50Q270-170 306-170Q354-170 379-133Q404-96 404-31Q404 60 356 121.50Q308 183 220 214L193 153Z"/></defs><g id="line-0"><use x="0" y="847.5" xlink:href="#s112:sourcecodepro-medium:23"/><use x="600" y="847.5" xlink:href="#s112:sourcecodepro-medium:37"/><use x="1200" y="847.5" xlink:href="#s112:sourcecodepro-medium:34"/><use x="1800" y="847.5" xlink:href="#s112:sourcecodepro-medium:3"/><use x="2400" y="847.5" xlink:href="#s112:sourcecodepro-medium:8"/><use x="3000" y="847.5" xlink:href="#s112:sourcecodepro-medium:50"/><use x="3600" y="847.5" xlink:href="#s112:sourcecodepro-medium:47"/><use x="4200" y="847.5" xlink:href="#s112:sourcecodepro-medium:44"/><use x="4800" y="847.5" xlink:href="#s112:sourcecodepro-medium:45"/><use x="5400" y="847.5" xlink:href="#s112:sourcecodepro-medium:34"/><use x="6000" y="847.5" xlink:href="#s112:sourcecodepro-medium:30"/><use x="6600" y="847.5" xlink:href="#s112:sourcecodepro-medium:43"/><use x="7200" y="847.5" xlink:href="#s112:sourcecodepro-medium:3"/><use x="7800" y="847.5" xlink:href="#s112:sourcecodepro-medium:41"/><use x="8400" y="847.5" xlink:href="#s112:sourcecodepro-medium:30"/><use x="9000" y="847.5" xlink:href="#s112:sourcecodepro-medium:43"/><use x="9600" y="847.5" xlink:href="#s112:sourcecodepro-medium:36"/><use x="10200" y="847.5" xlink:href="#s112:sourcecodepro-medium:50"/><use x="10800" y="847.5" xlink:href="#s112:sourcecodepro-medium:30"/><use x="11400" y="847.5" xlink:href="#s112:sourcecodepro-medium:36"/><use x="12000" y="847.5" xlink:href="#s112:sourcecodepro-medium:34"/><use x="12600" y="847.5" xlink:href="#s112:sourcecodepro-medium:48"/><use x="13200" y="847.5" xlink:href="#s112:sourcecodepro-medium:3"/><use x="13800" y="847.5" xlink:href="#s112:sourcecodepro-medium:30"/><use x="14400" y="847.5" xlink:href="#s112:sourcecodepro-medium:47"/><use x="15000" y="847.5" xlink:href="#s112:sourcecodepro-medium:34"/><use x="15600" y="847.5" xlink:href="#s112:sourcecodepro-medium:3"/><use x="16200" y="847.5" xlink:href="#s112:sourcecodepro-medium:42"/><use x="16800" y="847.5" xlink:href="#s112:sourcecodepro-medium:34"/><use x="17400" y="847.5" xlink:href="#s112:sourcecodepro-medium:42"/><use x="18000" y="847.5" xlink:href="#s112:sourcecodepro-medium:31"/><use x="18600" y="847.5" xlink:href="#s112:sourcecodepro-medium:34"/><use x="19200" y="847.5" xlink:href="#s112:sourcecodepro-medium:47"/><use x="19800" y="847.5" xlink:href="#s112:sourcecodepro-medium:48"/><use x="20400" y="847.5" xlink:href="#s112:sourcecodepro-medium:3"/><use x="21000" y="847.5" xlink:href="#s112:sourcecodepro-medium:44"/><use x="21600" y="847.5" xlink:href="#s112:sourcecodepro-medium:35"/><use x="22200" y="847.5" xlink:href="#s112:sourcecodepro-medium:3"/><use x="22800" y="847.5" xlink:href="#s112:sourcecodepro-medium:49"/><use x="23400" y="847.5" xlink:href="#s112:sourcecodepro-medium:37"/><use x="24000" y="847.5" xlink:href="#s112:sourcecodepro-medium:34"/><use x="24600" y="847.5" xlink:href="#s112:sourcecodepro-medium:3"/><use x="25200" y="847.5" xlink:href="#s112:sourcecodepro-medium:48"/><use x="25800" y="847.5" xlink:href="#s112:sourcecodepro-medium:30"/><use x="26400" y="847.5" xlink:href="#s112:sourcecodepro-medium:42"/><use x="27000" y="847.5" xlink:href="#s112:sourcecodepro-medium:34"/><use x="27600" y="847.5" xlink:href="#s112:sourcecodepro-medium:3"/><use x="28200" y="847.5" xlink:href="#s112:sourcecodepro-medium:35"/><use x="28800" y="847.5" xlink:href="#s112:sourcecodepro-medium:30"/><use x="29400" y="847.5" xlink:href="#s112:sourcecodepro-medium:42"/><use x="30000" y="847.5" xlink:href="#s112:sourcecodepro-medium:38"/><use x="30600" y="847.5" xlink:href="#s112:sourcecodepro-medium:41"/><use x="31200" y="847.5" xlink:href="#s112:sourcecodepro-medium:54"/><use x="31800" y="847.5" xlink:href="#s112:sourcecodepro-medium:483"/></g><g id="line-1"><use x="5700" y="2047.5" xlink:href="#s112:sourcecodepro-medium:23"/><use x="6300" y="2047.5" xlink:href="#s112:sourcecodepro-medium:37"/><use x="6900" y="2047.5" xlink:href="#s112:sourcecodepro-medium:34"/><use x="7500" y="2047.5" xlink:href="#s112:sourcecodepro-medium:38"/><use x="8100" y="2047.5" xlink:href="#s112:sourcecodepro-medium:47"/><use x="8700" y="2047.5" xlink:href="#s112:sourcecodepro-medium:3"/><use x="9300" y="2047.5" xlink:href="#s112:sourcecodepro-medium:48"/><use x="9900" y="2047.5" xlink:href="#s112:sourcecodepro-medium:34"/><use x="10500" y="2047.5" xlink:href="#s112:sourcecodepro-medium:45"/><use x="11100" y="2047.5" xlink:href="#s112:sourcecodepro-medium:30"/><use x="11700" y="2047.5" xlink:href="#s112:sourcecodepro-medium:47"/><use x="12300" y="2047.5" xlink:href="#s112:sourcecodepro-medium:30"/><use x="12900" y="2047.5" xlink:href="#s112:sourcecodepro-medium:49"/><use x="13500" y="2047.5" xlink:href="#s112:sourcecodepro-medium:34"/><use x="14100" y="2047.5" xlink:href="#s112:sourcecodepro-medium:3"/><use x="14700" y="2047.5" xlink:href="#s112:sourcecodepro-medium:34"/><use x="15300" y="2047.5" xlink:href="#s112:sourcecodepro-medium:53"/><use x="15900" y="2047.5" xlink:href="#s112:sourcecodepro-medium:38"/><use x="16500" y="2047.5" xlink:href="#s112:sourcecodepro-medium:48"/><use x="17100" y="2047.5" xlink:href="#s112:sourcecodepro-medium:49"/><use x="17700" y="2047.5" xlink:href="#s112:sourcecodepro-medium:34"/><use x="18300" y="2047.5" xlink:href="#s112:sourcecodepro-medium:43"/><use x="18900" y="2047.5" xlink:href="#s112:sourcecodepro-medium:32"/><use x="19500" y="2047.5" xlink:href="#s112:sourcecodepro-medium:34"/><use x="20100" y="2047.5" xlink:href="#s112:sourcecodepro-medium:3"/><use x="20700" y="2047.5" xlink:href="#s112:sourcecodepro-medium:38"/><use x="21300" y="2047.5" xlink:href="#s112:sourcecodepro-medium:48"/><use x="21900" y="2047.5" xlink:href="#s112:sourcecodepro-medium:3"/><use x="22500" y="2047.5" xlink:href="#s112:sourcecodepro-medium:30"/><use x="23100" y="2047.5" xlink:href="#s112:sourcecodepro-medium:3"/><use x="23700" y="2047.5" xlink:href="#s112:sourcecodepro-medium:42"/><use x="24300" y="2047.5" xlink:href="#s112:sourcecodepro-medium:54"/><use x="24900" y="2047.5" xlink:href="#s112:sourcecodepro-medium:49"/><use x="25500" y="2047.5" xlink:href="#s112:sourcecodepro-medium:37"/><use x="26100" y="2047.5" xlink:href="#s112:sourcecodepro-medium:483"/></g><g id="line-2"><use x="6893" y="3247.5" xlink:href="#s112:sourcecodepro-medium:9"/><use x="7493" y="3247.5" xlink:href="#s112:sourcecodepro-medium:44"/><use x="8093" y="3247.5" xlink:href="#s112:sourcecodepro-medium:47"/><use x="8693" y="3247.5" xlink:href="#s112:sourcecodepro-medium:3"/><use x="9293" y="3247.5" xlink:href="#s112:sourcecodepro-medium:48"/><use x="9893" y="3247.5" xlink:href="#s112:sourcecodepro-medium:32"/><use x="10493" y="3247.5" xlink:href="#s112:sourcecodepro-medium:38"/><use x="11093" y="3247.5" xlink:href="#s112:sourcecodepro-medium:34"/><use x="11693" y="3247.5" xlink:href="#s112:sourcecodepro-medium:43"/><use x="12293" y="3247.5" xlink:href="#s112:sourcecodepro-medium:32"/><use x="12893" y="3247.5" xlink:href="#s112:sourcecodepro-medium:34"/><use x="13493" y="3247.5" xlink:href="#s112:sourcecodepro-medium:484"/><use x="14093" y="3247.5" xlink:href="#s112:sourcecodepro-medium:3"/><use x="14693" y="3247.5" xlink:href="#s112:sourcecodepro-medium:42"/><use x="15293" y="3247.5" xlink:href="#s112:sourcecodepro-medium:50"/><use x="15893" y="3247.5" xlink:href="#s112:sourcecodepro-medium:48"/><use x="16493" y="3247.5" xlink:href="#s112:sourcecodepro-medium:38"/><use x="17093" y="3247.5" xlink:href="#s112:sourcecodepro-medium:32"/><use x="17693" y="3247.5" xlink:href="#s112:sourcecodepro-medium:484"/><use x="18293" y="3247.5" xlink:href="#s112:sourcecodepro-medium:3"/><use x="18893" y="3247.5" xlink:href="#s112:sourcecodepro-medium:48"/><use x="19493" y="3247.5" xlink:href="#s112:sourcecodepro-medium:45"/><use x="20093" y="3247.5" xlink:href="#s112:sourcecodepro-medium:44"/><use x="20693" y="3247.5" xlink:href="#s112:sourcecodepro-medium:47"/><use x="21293" y="3247.5" xlink:href="#s112:sourcecodepro-medium:49"/><use x="21893" y="3247.5" xlink:href="#s112:sourcecodepro-medium:484"/><use x="22493" y="3247.5" xlink:href="#s112:sourcecodepro-medium:3"/><use x="23093" y="3247.5" xlink:href="#s112:sourcecodepro-medium:34"/><use x="23693" y="3247.5" xlink:href="#s112:sourcecodepro-medium:49"/><use x="24293" y="3247.5" xlink:href="#s112:sourcecodepro-medium:32"/><use x="24893" y="3247.5" xlink:href="#s112:sourcecodepro-medium:484"/></g></svg>