<svg xmlns="http://www.w3.org/2000/svg" xmlns:xlink="http://www.w3.org/1999/xlink" width="592" height="84" viewBox="0 0 24649 3520.5"><defs><path id="s118:sourcesanspro-bolditalic:23" d="M255-536L84-536L106-652L586-652L563-536L392-536L286 0L149 0L255-536Z"/><path id="s118:sourcesanspro-bolditalic:37" d="M155-701L292-701L254-518L232-438L236-438Q269-467 308-487.50Q347-508 392-508Q454-508 482-475.50Q510-443 510-381Q510-364 508.50-346.50Q507-329 502-310L440 0L303 0L362-293Q365-308 367.50-319Q370-330 370-340Q370-391 319-391Q296-391 271.50-375.50Q247-360 215-327L151 0L14 0L155-701Z"/><path id="s118:sourcesanspro-bolditalic:34" d="M29-200Q29-269 53.50-325.50Q78-382 117.50-422.50Q157-463 206-485.50Q255-508 305-508Q349-508 380-493.50Q411-479 430.50-453.50Q450-428 458.50-394.50Q467-361 467-322Q467-304 464-286.50Q461-269 457-253.50Q453-238 448.50-226.50Q444-215 441-209L159-209Q156-147 188.50-119Q221-91 270-91Q293-91 318-102Q343-113 362-126L410-40Q380-19 335-3.50Q290 12 232 12Q187 12 149.50-2.50Q112-17 85.50-44.50Q59-72 44-111Q29-150 29-200M350-293Q355-310 355-330Q355-360 340.50-381.50Q326-403 288-403Q253-403 220-375.50Q187-348 170-293L350-293Z"/><path id="s118:sourcesanspro-bolditalic:3" d=""/><path id="s118:sourcesanspro-bolditalic:8" d="M159-652L545-652L523-537L272-537L244-395L457-395L435-280L222-280L188-115L447-115L425 0L28 0L159-652Z"/><path id="s118:sourcesanspro-bolditalic:50" d="M431 0L320 0L322-67L318-67Q284-35 242.50-11.50Q201 12 156 12Q94 12 66.50-20.50Q39-53 39-116Q39-133 41-150Q43-167 47-186L109-496L245-496L187-203Q183-188 181-177Q179-166 179-156Q179-105 229-105Q271-105 328-169L392-496L529-496L431 0Z"/><path id="s118:sourcesanspro-bolditalic:47" d="M112-496L223-496L217-400L221-400Q250-447 290-477.50Q330-508 373-508Q392-508 404.50-505.50Q417-503 425-498L380-380Q370-385 356.50-386.50Q343-388 331-388Q298-388 267-364Q236-340 207-287L151 0L14 0L112-496Z"/><path id="s118:sourcesanspro-bolditalic:44" d="M222 12Q178 12 143-2.50Q108-17 82.50-44Q57-71 43.50-108.50Q30-146 30-192Q30-264 54-322.50Q78-381 117.50-422Q157-463 207-485.50Q257-508 308-508Q351-508 386.50-493.50Q422-479 447-452Q472-425 486-387.50Q500-350 500-304Q500-232 476-173.50Q452-115 412.50-74Q373-33 323-10.50Q273 12 222 12M292-398Q267-398 244.50-382.50Q222-367 205-340Q188-313 178-275.50Q168-238 168-195Q168-150 185-124Q202-98 237-98Q262-98 284.50-113.50Q307-129 324.50-156Q342-183 352-220Q362-257 362-301Q362-347 344.50-372.50Q327-398 292-398Z"/><path id="s118:sourcesanspro-bolditalic:45" d="M139 50L114 184L-23 184L114-496L225-496L226-439L229-439Q263-470 302.50-489Q342-508 380-508Q446-508 483-461Q520-414 520-326Q520-255 498-193.50Q476-132 439-86Q402-40 354.50-14Q307 12 256 12Q224 12 198-3.50Q172-19 155-47L153-47L139 50M321-396Q298-396 269.50-382.50Q241-369 219-334L181-146Q192-122 209.50-111Q227-100 246-100Q272-100 296-116Q320-132 338.50-160Q357-188 368-226Q379-264 379-309Q379-354 363-375Q347-396 321-396Z"/><path id="s118:sourcesanspro-bolditalic:30" d="M31-170Q31-241 53-302.50Q75-364 112-410Q149-456 197-482Q245-508 296-508Q330-508 360-490.50Q390-473 404-443L406-443L428-496L537-496L438 0L327 0L329-65L326-65Q292-30 251-9Q210 12 171 12Q105 12 68-35Q31-82 31-170M231-100Q256-100 284.50-115.50Q313-131 337-173L372-349Q360-374 341.50-385Q323-396 306-396Q280-396 256-380Q232-364 213.50-336Q195-308 184-270Q173-232 173-187Q173-142 188.50-121Q204-100 231-100Z"/><path id="s118:sourcesanspro-bolditalic:43" d="M112-496L223-496L221-430L225-430Q262-462 303-485Q344-508 392-508Q454-508 482-475.50Q510-443 510-381Q510-364 508-346.50Q506-329 502-310L440 0L303 0L362-293Q365-308 367.50-319Q370-330 370-340Q370-391 319-391Q296-391 271.50-375.50Q247-360 215-327L151 0L14 0L112-496Z"/><path id="s118:sourcesanspro-bolditalic:41" d="M155-701L292-701L179-140Q177-132 177-128.50Q177-125 177-121Q177-108 182.50-103Q188-98 196-98Q201-98 204-98Q207-98 214-100L210 1Q197 6 179 9Q161 12 137 12Q83 12 60-14Q37-40 37-85Q37-111 44-146L155-701Z"/><path id="s118:sourcesanspro-bolditalic:36" d="M531-496L434-8Q411 103 343.50 158Q276 213 171 213Q126 213 78 195.50Q30 178-12 143L47 52Q76 74 108 89Q140 104 175 104Q224 104 255.50 77.50Q287 51 302 0L326-84L324-84Q290-52 254-34Q218-16 176-16Q113-16 72-58.50Q31-101 31-189Q31-256 52.50-314Q74-372 109.50-415Q145-458 192-483Q239-508 290-508Q324-508 353-490.50Q382-473 396-443L399-443L420-496L531-496M229-127Q254-127 282-141Q310-155 334-192L365-349Q352-374 334.50-385Q317-396 300-396Q274-396 251-381.50Q228-367 211-341.50Q194-316 183.50-281.50Q173-247 173-207Q173-166 188-146.50Q203-127 229-127Z"/><path id="s118:sourcesanspro-bolditalic:48" d="M71-150Q123-88 178-88Q207-88 227.50-101.50Q248-115 248-135Q248-157 226-171Q204-185 162-209Q120-232 91-265.50Q62-299 62-346Q62-381 77-411Q92-441 118-462.50Q144-484 179-496Q214-508 254-508Q305-508 345.50-486Q386-464 417-432L342-361Q324-380 302-393Q280-406 254-406Q225-406 207.50-392.50Q190-379 190-359Q190-347 197-338Q204-329 216-321.50Q228-314 242.50-306.50Q257-299 272-290Q317-266 346.50-234Q376-202 376-151Q376-115 360.50-85Q345-55 318-33.50Q291-12 253 0Q215 12 170 12Q147 12 122 5.50Q97-1 73.50-13Q50-25 28.50-43Q7-61-8-84L71-150Z"/><path id="s118:sourcesanspro-bolditalic:42" d="M112-496L223-496L221-430L225-430Q261-462 302-485Q343-508 385-508Q441-508 465.50-484Q490-460 500-421Q542-459 584-483.50Q626-508 668-508Q730-508 757.50-475.50Q785-443 785-381Q785-364 783-346.50Q781-329 777-310L715 0L578 0L637-293Q640-308 642.50-319Q645-330 645-340Q645-391 595-391Q578-391 554-375.50Q530-360 498-327L432 0L295 0L354-293Q357-308 359.50-319Q362-330 362-340Q362-366 349.50-378.50Q337-391 314-391Q296-391 271.50-375.50Q247-360 215-327L151 0L14 0L112-496Z"/><path id="s118:sourcesanspro-bolditalic:31" d="M14 0L155-701L292-701L259-542L234-449L236-449Q269-476 306-492Q343-508 380-508Q446-508 483-461Q520-414 520-326Q520-255 498-193.50Q476-132 439-86Q402-40 354.50-14Q307 12 256 12Q222 12 193.50-5.50Q165-23 151-53L149-53L127 0L14 0M321-396Q298-396 269.50-382.50Q241-369 219-334L181-147Q192-122 209.50-111Q227-100 246-100Q272-100 296-116Q320-132 338.50-160Q357-188 368-226Q379-264 379-309Q379-354 363-375Q347-396 321-396Z"/><path id="s118:sourcesanspro-bolditalic:35" d="M72-490L137-496L143-529Q150-567 165-600.50Q180-634 203.50-659Q227-684 259.50-698.50Q292-713 335-713Q364-713 391-706Q418-699 441-686L397-589Q389-594 376-599Q363-604 349-604Q322-604 305-589.50Q288-575 280-534L273-496L359-496L338-389L250-389L173 0L36 0L115-389L51-389L72-490Z"/><path id="s118:sourcesanspro-bolditalic:49" d="M113-389L47-389L67-490L140-496L182-626L297-626L272-496L385-496L364-389L248-389L205-176Q203-167 203-159Q203-151 203-143Q203-95 254-95Q265-95 275-98Q285-101 295-106L319-10Q299-2 270 5Q241 12 203 12Q128 12 95-25Q62-62 62-119Q62-135 64.50-150.50Q67-166 70-182L113-389Z"/><path id="s118:sourcesanspro-bolditalic:38" d="M114-496L250-496L151 0L14 0L114-496M208-570Q180-570 157-586.50Q134-603 134-636Q134-652 140.50-667Q147-682 158.50-693Q170-704 185.50-710.50Q201-717 219-717Q248-717 270.50-700Q293-683 293-651Q293-616 268.50-593Q244-570 208-570Z"/><path id="s118:sourcesanspro-bolditalic:54" d="M7 76Q24 86 44 86Q71 86 96 66.50Q121 47 138 14L150-11L64-496L200-496L223-272Q227-240 229-199Q231-158 232-123L236-123Q252-158 269-198Q286-238 302-272L406-496L539-496L271 11Q245 56 219.50 90Q194 124 166 147Q138 170 106 182Q74 194 36 194Q22 194 1 188Q-20 182-35 174L7 76L7 76Z"/><path id="s118:sourcesanspro-bolditalic:509" d="M94 12Q62 12 43-8.50Q24-29 24-62Q24-80 31-98.50Q38-117 51-131Q64-145 82-154Q100-163 122-163Q154-163 173-141.50Q192-120 192-88Q192-69 185-51Q178-33 165-19Q152-5 134 3.50Q116 12 94 12Z"/><path id="s118:sourcesanspro-bolditalic:53" d="M170-265L84-496L222-496L252-411Q258-389 264-368Q270-347 276-326L280-326Q293-347 306-368.50Q319-390 331-411L382-496L528-496L334-234L426 0L286 0L255-87Q248-108 241-130Q234-152 227-174L223-174Q209-152 195-130.50Q181-109 167-87L107 0L-40 0L170-265Z"/><path id="s118:sourcesanspro-bolditalic:32" d="M29-192Q29-256 51.50-313.50Q74-371 113.50-414.50Q153-458 206.50-483Q260-508 321-508Q368-508 401.50-489Q435-470 454-447L378-366Q363-382 348-390Q333-398 312-398Q282-398 256-382Q230-366 210.50-338Q191-310 180-273.50Q169-237 169-195Q169-150 190-124Q211-98 253-98Q279-98 297.50-108Q316-118 332-130L389-46Q361-25 321.50-6.50Q282 12 223 12Q182 12 146.50-1.50Q111-15 85-41.50Q59-68 44-106Q29-144 29-192Z"/><path id="s118:sourcesanspro-bolditalic:9" d="M159-652L545-652L523-537L272-537L241-377L453-377L431-262L218-262L166 0L28 0L159-652Z"/><path id="s118:sourcesanspro-bolditalic:510" d="M-27 112Q30 95 61.50 65Q93 35 102 0Q69-1 47.50-20Q26-39 26-71Q26-107 51-135Q76-163 119-163Q159-163 180.50-137.50Q202-112 202-66Q202-19 187 22.50Q172 64 144.50 97Q117 130 77 153.50Q37 177-13 187L-27 112Z"/></defs><g id="line-0"><use x="0" y="847.5" xlink:href="#s118:sourcesanspro-bolditalic:23"/><use x="532" y="847.5" xlink:href="#s118:sourcesanspro-bolditalic:37"/><use x="1078" y="847.5" xlink:href="#s118:sourcesanspro-bolditalic:34"/><use x="1574" y="847.5" xlink:href="#s118:sourcesanspro-bolditalic:3"/><use x="1772" y="847.5" xlink:href="#s118:sourcesanspro-bolditalic:8"/><use x="2299" y="847.5" xlink:href="#s118:sourcesanspro-bolditalic:50"/><use x="2844" y="847.5" xlink:href="#s118:sourcesanspro-bolditalic:47"/><use x="3218" y="847.5" xlink:href="#s118:sourcesanspro-bolditalic:44"/><use x="3751" y="847.5" xlink:href="#s118:sourcesanspro-bolditalic:45"/><use x="4304" y="847.5" xlink:href="#s118:sourcesanspro-bolditalic:34"/><use x="4800" y="847.5" xlink:href="#s118:sourcesanspro-bolditalic:30"/><use x="5352" y="847.5" xlink:href="#s118:sourcesanspro-bolditalic:43"/><use x="5904" y="847.5" xlink:href="#s118:sourcesanspro-bolditalic:3"/><use x="6102" y="847.5" xlink:href="#s118:sourcesanspro-bolditalic:41"/><use x="6377" y="847.5" xlink:href="#s118:sourcesanspro-bolditalic:30"/><use x="6929" y="847.5" xlink:href="#s118:sourcesanspro-bolditalic:43"/><use x="7481" y="847.5" xlink:href="#s118:sourcesanspro-bolditalic:36"/><use x="8027" y="847.5" xlink:href="#s118:sourcesanspro-bolditalic:50"/><use x="8572" y="847.5" xlink:href="#s118:sourcesanspro-bolditalic:30"/><use x="9124" y="847.5" xlink:href="#s118:sourcesanspro-bolditalic:36"/><use x="9670" y="847.5" xlink:href="#s118:sourcesanspro-bolditalic:34"/><use x="10166" y="847.5" xlink:href="#s118:sourcesanspro-bolditalic:48"/><use x="10590" y="847.5" xlink:href="#s118:sourcesanspro-bolditalic:3"/><use x="10788" y="847.5" xlink:href="#s118:sourcesanspro-bolditalic:30"/><use x="11340" y="847.5" xlink:href="#s118:sourcesanspro-bolditalic:47"/><use x="11714" y="847.5" xlink:href="#s118:sourcesanspro-bolditalic:34"/><use x="12210" y="847.5" xlink:href="#s118:sourcesanspro-bolditalic:3"/><use x="12408" y="847.5" xlink:href="#s118:sourcesanspro-bolditalic:42"/><use x="13235" y="847.5" xlink:href="#s118:sourcesanspro-bolditalic:34"/><use x="13731" y="847.5" xlink:href="#s118:sourcesanspro-bolditalic:42"/><use x="14558" y="847.5" xlink:href="#s118:sourcesanspro-bolditalic:31"/><use x="15111" y="847.5" xlink:href="#s118:sourcesanspro-bolditalic:34"/><use x="15607" y="847.5" xlink:href="#s118:sourcesanspro-bolditalic:47"/><use x="15991" y="847.5" xlink:href="#s118:sourcesanspro-bolditalic:48"/><use x="16415" y="847.5" xlink:href="#s118:sourcesanspro-bolditalic:3"/><use x="16613" y="847.5" xlink:href="#s118:sourcesanspro-bolditalic:44"/><use x="17146" y="847.5" xlink:href="#s118:sourcesanspro-bolditalic:35"/><use x="17473" y="847.5" xlink:href="#s118:sourcesanspro-bolditalic:3"/><use x="17671" y="847.5" xlink:href="#s118:sourcesanspro-bolditalic:49"/><use x="18038" y="847.5" xlink:href="#s118:sourcesanspro-bolditalic:37"/><use x="18584" y="847.5" xlink:href="#s118:sourcesanspro-bolditalic:34"/><use x="19080" y="847.5" xlink:href="#s118:sourcesanspro-bolditalic:3"/><use x="19278" y="847.5" xlink:href="#s118:sourcesanspro-bolditalic:48"/><use x="19702" y="847.5" xlink:href="#s118:sourcesanspro-bolditalic:30"/><use x="20254" y="847.5" xlink:href="#s118:sourcesanspro-bolditalic:42"/><use x="21081" y="847.5" xlink:href="#s118:sourcesanspro-bolditalic:34"/><use x="21577" y="847.5" xlink:href="#s118:sourcesanspro-bolditalic:3"/><use x="21775" y="847.5" xlink:href="#s118:sourcesanspro-bolditalic:35"/><use x="22092" y="847.5" xlink:href="#s118:sourcesanspro-bolditalic:30"/><use x="22644" y="847.5" xlink:href="#s118:sourcesanspro-bolditalic:42"/><use x="23471" y="847.5" xlink:href="#s118:sourcesanspro-bolditalic:38"/><use x="23736" y="847.5" xlink:href="#s118:sourcesanspro-bolditalic:41"/><use x="24011" y="847.5" xlink:href="#s118:sourcesanspro-bolditalic:54"/><use x="24457" y="847.5" xlink:href="#s118:sourcesanspro-bolditalic:509"/></g><g id="line-1"><use x="4981" y="2047.5" xlink:href="#s118:sourcesanspro-bolditalic:23"/><use x="5513" y="2047.5" xlink:href="#s118:sourcesanspro-bolditalic:37"/><use x="6059" y="2047.5" xlink:href="#s118:sourcesanspro-bolditalic:34"/><use x="6555" y="2047.5" xlink:href="#s118:sourcesanspro-bolditalic:38"/><use x="6820" y="2047.5" xlink:href="#s118:sourcesanspro-bolditalic:47"/><use x="7204" y="2047.5" xlink:href="#s118:sourcesanspro-bolditalic:3"/><use x="7402" y="2047.5" xlink:href="#s118:sourcesanspro-bolditalic:48"/><use x="7826" y="2047.5" xlink:href="#s118:sourcesanspro-bolditalic:34"/><use x="8322" y="2047.5" xlink:href="#s118:sourcesanspro-bolditalic:45"/><use x="8875" y="2047.5" xlink:href="#s118:sourcesanspro-bolditalic:30"/><use x="9427" y="2047.5" xlink:href="#s118:sourcesanspro-bolditalic:47"/><use x="9801" y="2047.5" xlink:href="#s118:sourcesanspro-bolditalic:30"/><use x="10353" y="2047.5" xlink:href="#s118:sourcesanspro-bolditalic:49"/><use x="10707" y="2047.5" xlink:href="#s118:sourcesanspro-bolditalic:34"/><use x="11203" y="2047.5" xlink:href="#s118:sourcesanspro-bolditalic:3"/><use x="11401" y="2047.5" xlink:href="#s118:sourcesanspro-bolditalic:34"/><use x="11897" y="2047.5" xlink:href="#s118:sourcesanspro-bolditalic:53"/><use x="12387" y="2047.5" xlink:href="#s118:sourcesanspro-bolditalic:38"/><use x="12652" y="2047.5" xlink:href="#s118:sourcesanspro-bolditalic:48"/><use x="13076" y="2047.5" xlink:href="#s118:sourcesanspro-bolditalic:49"/><use x="13430" y="2047.5" xlink:href="#s118:sourcesanspro-bolditalic:34"/><use x="13926" y="2047.5" xlink:href="#s118:sourcesanspro-bolditalic:43"/><use x="14478" y="2047.5" xlink:href="#s118:sourcesanspro-bolditalic:32"/><use x="14906" y="2047.5" xlink:href="#s118:sourcesanspro-bolditalic:34"/><use x="15402" y="2047.5" xlink:href="#s118:sourcesanspro-bolditalic:3"/><use x="15600" y="2047.5" xlink:href="#s118:sourcesanspro-bolditalic:38"/><use x="15865" y="2047.5" xlink:href="#s118:sourcesanspro-bolditalic:48"/><use x="16289" y="2047.5" xlink:href="#s118:sourcesanspro-bolditalic:3"/><use x="16487" y="2047.5" xlink:href="#s118:sourcesanspro-bolditalic:30"/><use x="17039" y="2047.5" xlink:href="#s118:sourcesanspro-bolditalic:3"/><use x="17237" y="2047.5" xlink:href="#s118:sourcesanspro-bolditalic:42"/><use x="18064" y="2047.5" xlink:href="#s118:sourcesanspro-bolditalic:54"/><use x="18563" y="2047.5" xlink:href="#s118:sourcesanspro-bolditalic:49"/><use x="18930" y="2047.5" xlink:href="#s118:sourcesanspro-bolditalic:37"/><use x="19476" y="2047.5" xlink:href="#s118:sourcesanspro-bolditalic:509"/></g><g id="line-2"><use x="6112" y="3247.5" xlink:href="#s118:sourcesanspro-bolditalic:9"/><use x="6606" y="3247.5" xlink:href="#s118:sourcesanspro-bolditalic:44"/><use x="7139" y="3247.5" xlink:href="#s118:sourcesanspro-bolditalic:47"/><use x="7523" y="3247.5" xlink:href="#s118:sourcesanspro-bolditalic:3"/><use x="7721" y="3247.5" xlink:href="#s118:sourcesanspro-bolditalic:48"/><use x="8145" y="3247.5" xlink:href="#s118:sourcesanspro-bolditalic:32"/><use x="8588" y="3247.5" xlink:href="#s118:sourcesanspro-bolditalic:38"/><use x="8853" y="3247.5" xlink:href="#s118:sourcesanspro-bolditalic:34"/><use x="9349" y="3247.5" xlink:href="#s118:sourcesanspro-bolditalic:43"/><use x="9901" y="3247.5" xlink:href="#s118:sourcesanspro-bolditalic:32"/><use x="10329" y="3247.5" xlink:href="#s118:sourcesanspro-bolditalic:34"/><use x="10825" y="3247.5" xlink:href="#s118:sourcesanspro-bolditalic:510"/><use x="11116" y="3247.5" xlink:href="#s118:sourcesanspro-bolditalic:3"/><use x="11314" y="3247.5" xlink:href="#s118:sourcesanspro-bolditalic:42"/><use x="12141" y="3247.5" xlink:href="#s118:sourcesanspro-bolditalic:50"/><use x="12686" y="3247.5" xlink:href="#s118:sourcesanspro-bolditalic:48"/><use x="13110" y="3247.5" xlink:href="#s118:sourcesanspro-bolditalic:38"/><use x="13375" y="3247.5" xlink:href="#s118:sourcesanspro-bolditalic:32"/><use x="13818" y="3247.5" xlink:href="#s118:sourcesanspro-bolditalic:510"/><use x="14109" y="3247.5" xlink:href="#s118:sourcesanspro-bolditalic:3"/><use x="14307" y="3247.5" xlink:href="#s118:sourcesanspro-bolditalic:48"/><use x="14731" y="3247.5" xlink:href="#s118:sourcesanspro-bolditalic:45"/><use x="15284" y="3247.5" xlink:href="#s118:sourcesanspro-bolditalic:44"/><use x="15817" y="3247.5" xlink:href="#s118:sourcesanspro-bolditalic:47"/><use x="16201" y="3247.5" xlink:href="#s118:sourcesanspro-bolditalic:49"/><use x="16572" y="3247.5" xlink:href="#s118:sourcesanspro-bolditalic:510"/><use x="16863" y="3247.5" xlink:href="#s118:sourcesanspro-bolditalic:3"/><use x="17061" y="3247.5" xlink:href="#s118:sourcesanspro-bolditalic:34"/><use x="17538" y="3247.5" xlink:href="#s118:sourcesanspro-bolditalic:49"/><use x="17892" y="3247.5" xlink:href="#s118:sourcesanspro-bolditalic:32"/><use x="18335" y="3247.5" xlink:href="#s118:sourcesanspro-bolditalic:510"/></g></svg>