<svg xmlns="http://www.w3.org/2000/svg" xmlns:xlink="http://www.w3.org/1999/xlink" width="774" height="84" viewBox="0 0 32230 3520.5"><defs><path id="s108:sourcecodepro-black:23" d="M214-506L27-506L27-650L573-650L573-506L386-506L386 0L214 0L214-506Z"/><path id="s108:sourcecodepro-black:37" d="M64-696L236-696L236-534L227-446Q252-470 292-491Q332-512 388-512Q470-512 508-456.50Q546-401 546-308L546 0L374 0L374-286Q374-328 361.50-347Q349-366 316-366Q292-366 274-356Q256-346 236-328L236 0L64 0L64-696Z"/><path id="s108:sourcecodepro-black:34" d="M50-250Q50-311 72-360Q94-409 130.50-442.50Q167-476 214.50-494Q262-512 312-512Q371-512 415.50-493Q460-474 490-441Q520-408 535-364Q550-320 550-270Q550-247 547.50-227Q545-207 543-198L226-198Q230-175 242-159.50Q254-144 271.50-135Q289-126 310-122Q331-118 354-118Q384-118 412.50-125.50Q441-133 474-148L530-46Q485-17 431-2.50Q377 12 330 12Q271 12 219.50-5.50Q168-23 130.50-56.50Q93-90 71.50-139Q50-188 50-250M394-310Q394-340 377-361Q360-382 316-382Q284-382 258.50-365.50Q233-349 224-310L394-310Z"/><path id="s108:sourcecodepro-black:3" d=""/><path id="s108:sourcecodepro-black:8" d="M86-650L526-650L526-506L258-506L258-404L486-404L486-260L258-260L258-144L536-144L536 0L86 0L86-650Z"/><path id="s108:sourcecodepro-black:50" d="M532 0L392 0L380-66L376-66Q344-30 305.50-9Q267 12 214 12Q130 12 93-43.50Q56-99 56-192L56-500L228-500L228-214Q228-172 239.50-153Q251-134 285-134Q307-134 323.50-142.50Q340-151 360-178L360-500L532-500L532 0Z"/><path id="s108:sourcecodepro-black:47" d="M104-500L245-500L258-394L262-394Q298-456 349-484Q400-512 457-512Q492-512 511.50-506.50Q531-501 552-492L518-348Q495-355 476.50-358.50Q458-362 431-362Q388-362 346-336.50Q304-311 276-248L276 0L104 0L104-500Z"/><path id="s108:sourcecodepro-black:44" d="M42-250Q42-312 63.50-361Q85-410 121-443.50Q157-477 203.50-494.50Q250-512 300-512Q349-512 395.50-494.50Q442-477 478-443.50Q514-410 536-361Q558-312 558-250Q558-188 536-139Q514-90 478-56.50Q442-23 395.50-5.50Q349 12 300 12Q250 12 203.50-5.50Q157-23 121-56.50Q85-90 63.50-139Q42-188 42-250M218-250Q218-193 237-159.50Q256-126 300-126Q344-126 363-159.50Q382-193 382-250Q382-307 363-340.50Q344-374 300-374Q256-374 237-340.50Q218-307 218-250Z"/><path id="s108:sourcecodepro-black:45" d="M236 38L236 176L64 176L64-500L204-500L216-454L220-454Q249-480 285.50-496Q322-512 360-512Q405-512 442-494Q479-476 504.50-443Q530-410 544-363Q558-316 558-258Q558-193 540-143Q522-93 492.50-58.50Q463-24 424.50-6Q386 12 345 12Q313 12 284-1Q255-14 230-38L236 38M236-152Q252-138 269.50-133Q287-128 304-128Q320-128 334-134.50Q348-141 358.50-156Q369-171 375.50-195.50Q382-220 382-256Q382-318 363.50-345Q345-372 308-372Q288-372 271-364Q254-356 236-336L236-152Z"/><path id="s108:sourcecodepro-black:30" d="M54-142Q54-184 71.50-216Q89-248 126.50-270.50Q164-293 224-306Q284-319 370-324Q365-351 340.50-363.50Q316-376 274-376Q242-376 208.50-365.50Q175-355 130-334L70-446Q127-478 186-495Q245-512 308-512Q361-512 404.50-498.50Q448-485 478.50-456.50Q509-428 525.50-383.50Q542-339 542-278L542 0L402 0L390-52L386-52Q349-25 306-6.50Q263 12 216 12Q177 12 147-0.50Q117-13 96-34Q75-55 64.50-83Q54-111 54-142M218-156Q218-120 272-120Q302-120 326-131.50Q350-143 370-158L370-222Q324-220 294.50-214.50Q265-209 248-200Q231-191 224.50-180Q218-169 218-156Z"/><path id="s108:sourcecodepro-black:43" d="M64-500L204-500L216-440L220-440Q250-469 291-490.50Q332-512 387-512Q470-512 508-456.50Q546-401 546-308L546 0L374 0L374-286Q374-328 361.50-347Q349-366 316-366Q292-366 274-356Q256-346 236-328L236 0L64 0L64-500Z"/><path id="s108:sourcecodepro-black:41" d="M54-696L362-696L362-200Q362-178 369-164Q376-150 386.50-141.50Q397-133 410.50-129.50Q424-126 437-126Q468-126 509-140L546-14Q526-8 508.50-3Q491 2 473 5Q455 8 435 10Q415 12 391 12Q341 12 303.50-4Q266-20 240.50-48.50Q215-77 202.50-117Q190-157 190-206L190-562L54-562L54-696Z"/><path id="s108:sourcecodepro-black:36" d="M183 54Q183 78 214 89Q245 100 296 100Q347 100 379.50 87.50Q412 75 412 54Q412 34 392 29Q372 24 334 24L284 24Q255 24 238 22.50Q221 21 208 18Q195 27 189 35Q183 43 183 54M44 82Q44 22 120-14L120-18Q99-32 84.50-52Q70-72 70-104Q70-130 87-155Q104-180 130-198L130-202Q101-220 81.50-253Q62-286 62-330Q62-376 80-410.50Q98-445 129-467.50Q160-490 199.50-501Q239-512 283-512Q330-512 368-500L570-500L570-376L480-376Q485-367 489.50-353Q494-339 494-324Q494-280 478-248.50Q462-217 433.50-197Q405-177 366.50-167.50Q328-158 283-158Q254-158 220-165Q211-158 207.50-152.50Q204-147 204-136Q204-119 222-112.50Q240-106 282-106L367-106Q467-106 521-75.50Q575-45 575 24Q575 65 553.50 98.50Q532 132 492 156Q452 180 395.50 193Q339 206 269 206Q222 206 181.50 199.50Q141 193 110 178Q79 163 61.50 139.50Q44 116 44 82M283-260Q308-260 326-277Q344-294 344-330Q344-365 326-381.50Q308-398 283-398Q258-398 240.50-381.50Q223-365 223-330Q223-294 240.50-277Q258-260 283-260Z"/><path id="s108:sourcecodepro-black:48" d="M122-170Q166-144 208-129Q250-114 294-114Q339-114 357-121.50Q375-129 375-144Q375-154 365-161.50Q355-169 338-175.50Q321-182 298.50-188.50Q276-195 252-202Q221-211 190-223.50Q159-236 134-254Q109-272 93-295.50Q77-319 77-350Q77-387 94-417Q111-447 142.50-468Q174-489 218-500.50Q262-512 317-512Q388-512 443-489.50Q498-467 538-442L462-340Q427-360 392-373Q357-386 321-386Q282-386 265-379.50Q248-373 248-358Q248-348 257.50-341Q267-334 283.50-328Q300-322 321.50-316Q343-310 367-304Q399-295 431-283.50Q463-272 488.50-254.50Q514-237 530-212.50Q546-188 546-154Q546-119 529.50-88.50Q513-58 480.50-35.50Q448-13 400.50-0.50Q353 12 290 12Q225 12 159.50-10Q94-32 46-64L122-170Z"/><path id="s108:sourcecodepro-black:42" d="M26-500L155-500L167-439L171-439Q184-468 208-490Q232-512 277-512Q308-512 330.50-491.50Q353-471 361-432Q372-464 399-488Q426-512 468-512Q521-512 550.50-467.50Q580-423 580-348L580 0L418 0L418-336Q418-366 401-366Q381-366 368-328L368 0L238 0L238-336Q238-366 218-366Q201-366 188-328L188 0L26 0L26-500Z"/><path id="s108:sourcecodepro-black:31" d="M64-696L236-696L236-534L232-462Q259-486 292-499Q325-512 359-512Q404-512 441-494Q478-476 504-443Q530-410 544-363Q558-316 558-259Q558-194 540-143.50Q522-93 492.50-58.50Q463-24 424.50-6Q386 12 345 12Q311 12 278-4.50Q245-21 216-54L212-54L198 0L64 0L64-696M236-152Q252-138 269.50-133Q287-128 304-128Q320-128 334-134.50Q348-141 358.50-156Q369-171 375.50-195.50Q382-220 382-256Q382-318 363.50-345Q345-372 308-372Q288-372 271-364Q254-356 236-336L236-152Z"/><path id="s108:sourcecodepro-black:35" d="M556-556Q535-564 509-569Q483-574 456-574Q415-574 394.50-558Q374-542 374-502L374-500L532-500L532-366L374-366L374 0L202 0L202-366L74-366L74-494L202-500L202-502Q202-544 215-581.50Q228-619 256.50-647Q285-675 328.50-691.50Q372-708 434-708Q479-708 518.50-699.50Q558-691 588-682L556-556Z"/><path id="s108:sourcecodepro-black:49" d="M162-366L42-366L42-494L170-500L192-630L334-630L334-500L532-500L532-366L334-366L334-215Q334-161 358.50-141.50Q383-122 431-122Q457-122 479.50-126.50Q502-131 522-138L552-14Q519-5 478 3.50Q437 12 386 12Q324 12 281.50-4Q239-20 212.50-49.50Q186-79 174-120.50Q162-162 162-212L162-366Z"/><path id="s108:sourcecodepro-black:38" d="M74-500L436-500L436 0L264 0L264-366L74-366L74-500M344-562Q296-562 265-589.50Q234-617 234-662Q234-707 265-735.50Q296-764 344-764Q392-764 423-735.50Q454-707 454-662Q454-617 423-589.50Q392-562 344-562Z"/><path id="s108:sourcecodepro-black:54" d="M97 48Q116 54 133 54Q173 54 194.50 40.50Q216 27 226 4L234-18L24-500L194-500L264-308Q277-272 287.50-234.50Q298-197 309-156L313-156Q322-194 333.50-232Q345-270 356-308L416-500L578-500L390-8Q370 43 348 80Q326 117 297.50 141Q269 165 232.50 176.50Q196 188 147 188Q124 188 104 185.50Q84 183 67 178L97 48L97 48Z"/><path id="s108:sourcecodepro-black:483" d="M170-118Q170-145 179.50-168.50Q189-192 206-209.50Q223-227 247-237.50Q271-248 300-248Q329-248 353-237.50Q377-227 394-209.50Q411-192 420.50-168.50Q430-145 430-118Q430-91 420.50-67.50Q411-44 394-26Q377-8 353 2Q329 12 300 12Q271 12 247 2Q223-8 206-26Q189-44 179.50-67.50Q170-91 170-118Z"/><path id="s108:sourcecodepro-black:53" d="M194-260L37-500L221-500L262-430Q273-409 286.50-387Q300-365 311-344L315-344Q323-365 333-387Q343-409 351-430L384-500L563-500L405-240L572 0L388 0L342-70Q329-91 315-113Q301-135 288-156L284-156Q274-135 263.50-113.50Q253-92 243-70L206 0L27 0L194-260Z"/><path id="s108:sourcecodepro-black:32" d="M62-250Q62-312 86-361Q110-410 150.50-443.50Q191-477 244-494.50Q297-512 355-512Q414-512 463-494Q512-476 544-446L466-340Q438-359 413.50-366.50Q389-374 365-374Q308-374 273-340.50Q238-307 238-250Q238-193 272-159.50Q306-126 359-126Q396-126 426.50-139Q457-152 483-168L551-60Q504-22 448-5Q392 12 342 12Q283 12 231.50-5.50Q180-23 142.50-56.50Q105-90 83.50-139Q62-188 62-250Z"/><path id="s108:sourcecodepro-black:9" d="M98-650L539-650L539-506L270-506L270-382L500-382L500-238L270-238L270 0L98 0L98-650Z"/><path id="s108:sourcecodepro-black:484" d="M177 120Q244 98 276.50 64Q309 30 308-12L300-12Q277-12 255-19.50Q233-27 216.50-41.50Q200-56 190-77Q180-98 180-125Q180-176 216-207Q252-238 305-238Q373-238 407.50-188.50Q442-139 442-50Q442 49 386 117.50Q330 186 218 218L177 120Z"/></defs><g id="line-0"><use x="0" y="847.5" xlink:href="#s108:sourcecodepro-black:23"/><use x="600" y="847.5" xlink:href="#s108:sourcecodepro-black:37"/><use x="1200" y="847.5" xlink:href="#s108:sourcecodepro-black:34"/><use x="1800" y="847.5" xlink:href="#s108:sourcecodepro-black:3"/><use x="2400" y="847.5" xlink:href="#s108:sourcecodepro-black:8"/><use x="3000" y="847.5" xlink:href="#s108:sourcecodepro-black:50"/><use x="3600" y="847.5" xlink:href="#s108:sourcecodepro-black:47"/><use x="4200" y="847.5" xlink:href="#s108:sourcecodepro-black:44"/><use x="4800" y="847.5" xlink:href="#s108:sourcecodepro-black:45"/><use x="5400" y="847.5" xlink:href="#s108:sourcecodepro-black:34"/><use x="6000" y="847.5" xlink:href="#s108:sourcecodepro-black:30"/><use x="6600" y="847.5" xlink:href="#s108:sourcecodepro-black:43"/><use x="7200" y="847.5" xlink:href="#s108:sourcecodepro-black:3"/><use x="7800" y="847.5" xlink:href="#s108:sourcecodepro-black:41"/><use x="8400" y="847.5" xlink:href="#s108:sourcecodepro-black:30"/><use x="9000" y="847.5" xlink:href="#s108:sourcecodepro-black:43"/><use x="9600" y="847.5" xlink:href="#s108:sourcecodepro-black:36"/><use x="10200" y="847.5" xlink:href="#s108:sourcecodepro-black:50"/><use x="10800" y="847.5" xlink:href="#s108:sourcecodepro-black:30"/><use x="11400" y="847.5" xlink:href="#s108:sourcecodepro-black:36"/><use x="12000" y="847.5" xlink:href="#s108:sourcecodepro-black:34"/><use x="12600" y="847.5" xlink:href="#s108:sourcecodepro-black:48"/><use x="13200" y="847.5" xlink:href="#s108:sourcecodepro-black:3"/><use x="13800" y="847.5" xlink:href="#s108:sourcecodepro-black:30"/><use x="14400" y="847.5" xlink:href="#s108:sourcecodepro-black:47"/><use x="15000" y="847.5" xlink:href="#s108:sourcecodepro-black:34"/><use x="15600" y="847.5" xlink:href="#s108:sourcecodepro-black:3"/><use x="16200" y="847.5" xlink:href="#s108:sourcecodepro-black:42"/><use x="16800" y="847.5" xlink:href="#s108:sourcecodepro-black:34"/><use x="17400" y="847.5" xlink:href="#s108:sourcecodepro-black:42"/><use x="18000" y="847.5" xlink:href="#s108:sourcecodepro-black:31"/><use x="18600" y="847.5" xlink:href="#s108:sourcecodepro-black:34"/><use x="19200" y="847.5" xlink:href="#s108:sourcecodepro-black:47"/><use x="19800" y="847.5" xlink:href="#s108:sourcecodepro-black:48"/><use x="20400" y="847.5" xlink:href="#s108:sourcecodepro-black:3"/><use x="21000" y="847.5" xlink:href="#s108:sourcecodepro-black:44"/><use x="21600" y="847.5" xlink:href="#s108:sourcecodepro-black:35"/><use x="22200" y="847.5" xlink:href="#s108:sourcecodepro-black:3"/><use x="22800" y="847.5" xlink:href="#s108:sourcecodepro-black:49"/><use x="23400" y="847.5" xlink:href="#s108:sourcecodepro-black:37"/><use x="24000" y="847.5" xlink:href="#s108:sourcecodepro-black:34"/><use x="24600" y="847.5" xlink:href="#s108:sourcecodepro-black:3"/><use x="25200" y="847.5" xlink:href="#s108:sourcecodepro-black:48"/><use x="25800" y="847.5" xlink:href="#s108:sourcecodepro-black:30"/><use x="26400" y="847.5" xlink:href="#s108:sourcecodepro-black:42"/><use x="27000" y="847.5" xlink:href="#s108:sourcecodepro-black:34"/><use x="27600" y="847.5" xlink:href="#s108:sourcecodepro-black:3"/><use x="28200" y="847.5" xlink:href="#s108:sourcecodepro-black:35"/><use x="28800" y="847.5" xlink:href="#s108:sourcecodepro-black:30"/><use x="29400" y="847.5" xlink:href="#s108:sourcecodepro-black:42"/><use x="30000" y="847.5" xlink:href="#s108:sourcecodepro-black:38"/><use x="30600" y="847.5" xlink:href="#s108:sourcecodepro-black:41"/><use x="31200" y="847.5" xlink:href="#s108:sourcecodepro-black:54"/><use x="31800" y="847.5" xlink:href="#s108:sourcecodepro-black:483"/></g><g id="line-1"><use x="5700" y="2047.5" xlink:href="#s108:sourcecodepro-black:23"/><use x="6300" y="2047.5" xlink:href="#s108:sourcecodepro-black:37"/><use x="6900" y="2047.5" xlink:href="#s108:sourcecodepro-black:34"/><use x="7500" y="2047.5" xlink:href="#s108:sourcecodepro-black:38"/><use x="8100" y="2047.5" xlink:href="#s108:sourcecodepro-black:47"/><use x="8700" y="2047.5" xlink:href="#s108:sourcecodepro-black:3"/><use x="9300" y="2047.5" xlink:href="#s108:sourcecodepro-black:48"/><use x="9900" y="2047.5" xlink:href="#s108:sourcecodepro-black:34"/><use x="10500" y="2047.5" xlink:href="#s108:sourcecodepro-black:45"/><use x="11100" y="2047.5" xlink:href="#s108:sourcecodepro-black:30"/><use x="11700" y="2047.5" xlink:href="#s108:sourcecodepro-black:47"/><use x="12300" y="2047.5" xlink:href="#s108:sourcecodepro-black:30"/><use x="12900" y="2047.5" xlink:href="#s108:sourcecodepro-black:49"/><use x="13500" y="2047.5" xlink:href="#s108:sourcecodepro-black:34"/><use x="14100" y="2047.5" xlink:href="#s108:sourcecodepro-black:3"/><use x="14700" y="2047.5" xlink:href="#s108:sourcecodepro-black:34"/><use x="15300" y="2047.5" xlink:href="#s108:sourcecodepro-black:53"/><use x="15900" y="2047.5" xlink:href="#s108:sourcecodepro-black:38"/><use x="16500" y="2047.5" xlink:href="#s108:sourcecodepro-black:48"/><use x="17100" y="2047.5" xlink:href="#s108:sourcecodepro-black:49"/><use x="17700" y="2047.5" xlink:href="#s108:sourcecodepro-black:34"/><use x="18300" y="2047.5" xlink:href="#s108:sourcecodepro-black:43"/><use x="18900" y="2047.5" xlink:href="#s108:sourcecodepro-black:32"/><use x="19500" y="2047.5" xlink:href="#s108:sourcecodepro-black:34"/><use x="20100" y="2047.5" xlink:href="#s108:sourcecodepro-black:3"/><use x="20700" y="2047.5" xlink:href="#s108:sourcecodepro-black:38"/><use x="21300" y="2047.5" xlink:href="#s108:sourcecodepro-black:48"/><use x="21900" y="2047.5" xlink:href="#s108:sourcecodepro-black:3"/><use x="22500" y="2047.5" xlink:href="#s108:sourcecodepro-black:30"/><use x="23100" y="2047.5" xlink:href="#s108:sourcecodepro-black:3"/><use x="23700" y="2047.5" xlink:href="#s108:sourcecodepro-black:42"/><use x="24300" y="2047.5" xlink:href="#s108:sourcecodepro-black:54"/><use x="24900" y="2047.5" xlink:href="#s108:sourcecodepro-black:49"/><use x="25500" y="2047.5" xlink:href="#s108:sourcecodepro-black:37"/><use x="26100" y="2047.5" xlink:href="#s108:sourcecodepro-black:483"/></g><g id="line-2"><use x="6894" y="3247.5" xlink:href="#s108:sourcecodepro-black:9"/><use x="7494" y="3247.5" xlink:href="#s108:sourcecodepro-black:44"/><use x="8094" y="3247.5" xlink:href="#s108:sourcecodepro-black:47"/><use x="8694" y="3247.5" xlink:href="#s108:sourcecodepro-black:3"/><use x="9294" y="3247.5" xlink:href="#s108:sourcecodepro-black:48"/><use x="9894" y="3247.5" xlink:href="#s108:sourcecodepro-black:32"/><use x="10494" y="3247.5" xlink:href="#s108:sourcecodepro-black:38"/><use x="11094" y="3247.5" xlink:href="#s108:sourcecodepro-black:34"/><use x="11694" y="3247.5" xlink:href="#s108:sourcecodepro-black:43"/><use x="12294" y="3247.5" xlink:href="#s108:sourcecodepro-black:32"/><use x="12894" y="3247.5" xlink:href="#s108:sourcecodepro-black:34"/><use x="13494" y="3247.5" xlink:href="#s108:sourcecodepro-black:484"/><use x="14094" y="3247.5" xlink:href="#s108:sourcecodepro-black:3"/><use x="14694" y="3247.5" xlink:href="#s108:sourcecodepro-black:42"/><use x="15294" y="3247.5" xlink:href="#s108:sourcecodepro-black:50"/><use x="15894" y="3247.5" xlink:href="#s108:sourcecodepro-black:48"/><use x="16494" y="3247.5" xlink:href="#s108:sourcecodepro-black:38"/><use x="17094" y="3247.5" xlink:href="#s108:sourcecodepro-black:32"/><use x="17694" y="3247.5" xlink:href="#s108:sourcecodepro-black:484"/><use x="18294" y="3247.5" xlink:href="#s108:sourcecodepro-black:3"/><use x="18894" y="3247.5" xlink:href="#s108:sourcecodepro-black:48"/><use x="19494" y="3247.5" xlink:href="#s108:sourcecodepro-black:45"/><use x="20094" y="3247.5" xlink:href="#s108:sourcecodepro-black:44"/><use x="20694" y="3247.5" xlink:href="#s108:sourcecodepro-black:47"/><use x="21294" y="3247.5" xlink:href="#s108:sourcecodepro-black:49"/><use x="21894" y="3247.5" xlink:href="#s108:sourcecodepro-black:484"/><use x="22494" y="3247.5" xlink:href="#s108:sourcecodepro-black:3"/><use x="23094" y="3247.5" xlink:href="#s108:sourcecodepro-black:34"/><use x="23694" y="3247.5" xlink:href="#s108:sourcecodepro-black:49"/><use x="24294" y="3247.5" xlink:href="#s108:sourcecodepro-black:32"/><use x="24894" y="3247.5" xlink:href="#s108:sourcecodepro-black:484"/></g></svg>