<svg xmlns="http://www.w3.org/2000/svg" xmlns:xlink="http://www.w3.org/1999/xlink" width="608" height="84" viewBox="0 0 25342 3520.5"><defs><path id="s117:sourcesanspro-bold:23" d="M204-528L25-528L25-652L531-652L531-528L352-528L352 0L204 0L204-528Z"/><path id="s117:sourcesanspro-bold:37" d="M65-701L212-701L212-529L205-440Q233-465 270-486.50Q307-508 358-508Q439-508 475.50-455Q512-402 512-308L512 0L365 0L365-289Q365-343 350.50-363Q336-383 304-383Q276-383 256-370.50Q236-358 212-335L212 0L65 0L65-701Z"/><path id="s117:sourcesanspro-bold:34" d="M36-248Q36-308 56-356.50Q76-405 108.50-438.50Q141-472 183-490Q225-508 270-508Q323-508 362.50-490Q402-472 428.50-440Q455-408 468-364.50Q481-321 481-270Q481-250 479-233.50Q477-217 475-208L178-208Q188-151 222.50-125.50Q257-100 307-100Q360-100 414-133L463-44Q425-18 378.50-3Q332 12 287 12Q234 12 188-5.50Q142-23 108-56.50Q74-90 55-138Q36-186 36-248M356-299Q356-342 337-369Q318-396 273-396Q238-396 211.50-372.50Q185-349 177-299L356-299Z"/><path id="s117:sourcesanspro-bold:3" d=""/><path id="s117:sourcesanspro-bold:8" d="M77-652L485-652L485-528L224-528L224-397L446-397L446-274L224-274L224-124L495-124L495 0L77 0L77-652Z"/><path id="s117:sourcesanspro-bold:50" d="M60-496L207-496L207-207Q207-153 222-133Q237-113 269-113Q297-113 316-126Q335-139 357-168L357-496L504-496L504 0L384 0L373-69L370-69Q338-31 301.50-9.50Q265 12 214 12Q133 12 96.50-41Q60-94 60-188L60-496Z"/><path id="s117:sourcesanspro-bold:47" d="M65-496L185-496L195-409L199-409Q226-460 264-484Q302-508 340-508Q361-508 374.50-505.50Q388-503 399-498L375-371Q361-375 349-377Q337-379 321-379Q293-379 262.50-359Q232-339 212-288L212 0L65 0L65-496Z"/><path id="s117:sourcesanspro-bold:44" d="M36-248Q36-310 56-358.50Q76-407 109.50-440Q143-473 187-490.50Q231-508 278-508Q325-508 368.50-490.50Q412-473 445.50-440Q479-407 499-358.50Q519-310 519-248Q519-186 499-137.50Q479-89 445.50-56Q412-23 368.50-5.50Q325 12 278 12Q231 12 187-5.50Q143-23 109.50-56Q76-89 56-137.50Q36-186 36-248M187-248Q187-183 209.50-145Q232-107 278-107Q323-107 346-145Q369-183 369-248Q369-313 346-351Q323-389 278-389Q232-389 209.50-351Q187-313 187-248Z"/><path id="s117:sourcesanspro-bold:45" d="M212 39L212 184L65 184L65-496L185-496L195-447L199-447Q228-473 264.50-490.50Q301-508 340-508Q385-508 421-490Q457-472 482-439Q507-406 520.50-359.50Q534-313 534-256Q534-192 516.50-142.50Q499-93 469.50-58.50Q440-24 402.50-6Q365 12 325 12Q293 12 263-1.50Q233-15 207-40L212 39M212-140Q232-122 252-115Q272-108 291-108Q329-108 356-142.50Q383-177 383-254Q383-388 297-388Q254-388 212-343L212-140Z"/><path id="s117:sourcesanspro-bold:30" d="M47-138Q47-216 113-260Q179-304 326-319Q324-352 306-371.50Q288-391 248-391Q216-391 184-379Q152-367 116-346L64-443Q112-472 164.50-490Q217-508 276-508Q372-508 422.50-453.50Q473-399 473-284L473 0L353 0L342-51L339-51Q307-23 271.50-5.50Q236 12 194 12Q160 12 133 0.50Q106-11 87-31.50Q68-52 57.50-79Q47-106 47-138M187-149Q187-125 202.50-113.50Q218-102 244-102Q270-102 288-113Q306-124 326-144L326-231Q247-220 217-199Q187-178 187-149Z"/><path id="s117:sourcesanspro-bold:43" d="M65-496L185-496L195-433L199-433Q231-463 269-485.50Q307-508 358-508Q439-508 475.50-455Q512-402 512-308L512 0L365 0L365-289Q365-343 350.50-363Q336-383 304-383Q276-383 256-370.50Q236-358 212-335L212 0L65 0L65-496Z"/><path id="s117:sourcesanspro-bold:41" d="M65-701L212-701L212-148Q212-125 220.50-116Q229-107 238-107Q243-107 246.50-107Q250-107 256-109L274 0Q262 5 243.50 8.50Q225 12 200 12Q162 12 136 0Q110-12 94.50-33.50Q79-55 72-85.50Q65-116 65-154L65-701Z"/><path id="s117:sourcesanspro-bold:36" d="M155 62Q155 90 185 104.50Q215 119 265 119Q315 119 347 101.50Q379 84 379 58Q379 35 359.50 27Q340 19 303 19L252 19Q226 19 210 17.50Q194 16 182 13Q155 37 155 62M34 85Q34 25 105-15L105-19Q85-32 72-52Q59-72 59-103Q59-130 75-154.50Q91-179 115-196L115-200Q89-218 68.50-251.50Q48-285 48-329Q48-374 65-407.50Q82-441 110.50-463.50Q139-486 176-497Q213-508 253-508Q297-508 330-496L511-496L511-389L432-389Q439-378 443.50-361Q448-344 448-324Q448-281 433-249.50Q418-218 391.50-197.50Q365-177 329.50-167Q294-157 253-157Q224-157 193-167Q183-159 179-151Q175-143 175-130Q175-111 191.50-102Q208-93 250-93L330-93Q422-93 470.50-63.50Q519-34 519 33Q519 72 499.50 104.50Q480 137 444 160.50Q408 184 357 197.50Q306 211 242 211Q198 211 160.50 203.50Q123 196 94.50 181Q66 166 50 142Q34 118 34 85M253-246Q282-246 301.50-266.50Q321-287 321-329Q321-368 301.50-388.50Q282-409 253-409Q224-409 204.50-389Q185-369 185-329Q185-287 204.50-266.50Q224-246 253-246Z"/><path id="s117:sourcesanspro-bold:48" d="M87-149Q121-123 152-110Q183-97 215-97Q248-97 263-108Q278-119 278-139Q278-151 269.50-160.50Q261-170 246.50-178Q232-186 214-192.50Q196-199 177-207Q154-216 131-228Q108-240 89-257.50Q70-275 58-298.50Q46-322 46-353Q46-387 59.50-416Q73-445 98-465Q123-485 158-496.50Q193-508 236-508Q293-508 336-488.50Q379-469 411-445L345-357Q318-377 292-388Q266-399 240-399Q184-399 184-360Q184-348 192-339.50Q200-331 213.50-324Q227-317 244.50-310.50Q262-304 281-297Q305-288 328.50-276.50Q352-265 371.50-248Q391-231 403-206.50Q415-182 415-148Q415-114 402-85Q389-56 363-34.50Q337-13 299-0.50Q261 12 211 12Q162 12 110.50-7Q59-26 21-57L87-149Z"/><path id="s117:sourcesanspro-bold:42" d="M65-496L185-496L195-432L199-432Q230-463 265-485.50Q300-508 349-508Q402-508 434.50-486.50Q467-465 486-425Q519-459 555.50-483.50Q592-508 642-508Q722-508 759.50-454.50Q797-401 797-308L797 0L650 0L650-289Q650-343 635.50-363Q621-383 589-383Q552-383 504-335L504 0L357 0L357-289Q357-343 342.50-363Q328-383 296-383Q258-383 212-335L212 0L65 0L65-496Z"/><path id="s117:sourcesanspro-bold:31" d="M65-701L212-701L212-529L208-453Q237-479 270.50-493.50Q304-508 339-508Q384-508 420-490Q456-472 481.50-439.50Q507-407 520.50-360.50Q534-314 534-257Q534-193 516.50-143Q499-93 469.50-58.50Q440-24 402.50-6Q365 12 325 12Q292 12 258.50-4Q225-20 196-52L192-52L180 0L65 0L65-701M212-140Q232-122 252-115Q272-108 291-108Q329-108 356-142.50Q383-177 383-254Q383-388 297-388Q253-388 212-343L212-140Z"/><path id="s117:sourcesanspro-bold:35" d="M345-587Q317-597 294-597Q267-597 252-580.50Q237-564 237-526L237-496L326-496L326-381L237-381L237 0L90 0L90-381L24-381L24-490L90-495L90-522Q90-561 99.50-596Q109-631 131-657Q153-683 188-698Q223-713 273-713Q304-713 329.50-707Q355-701 372-695L345-587Z"/><path id="s117:sourcesanspro-bold:49" d="M85-381L17-381L17-490L93-496L110-628L232-628L232-496L351-496L351-381L232-381L232-182Q232-140 249.50-121.50Q267-103 296-103Q308-103 320.50-106Q333-109 343-113L366-6Q346 0 319 6Q292 12 256 12Q210 12 177.50-2Q145-16 124.50-41Q104-66 94.50-101.50Q85-137 85-180L85-381Z"/><path id="s117:sourcesanspro-bold:38" d="M138-569Q101-569 77-590.50Q53-612 53-646Q53-680 77-701Q101-722 138-722Q176-722 199.50-701Q223-680 223-646Q223-612 199.50-590.50Q176-569 138-569M65-496L212-496L212 0L65 0L65-496Z"/><path id="s117:sourcesanspro-bold:54" d="M76 72Q83 74 92 76Q101 78 109 78Q146 78 166 60Q186 42 196 13L203-13L12-496L160-496L231-283Q242-249 251-214Q260-179 270-142L274-142Q282-177 290.50-212.50Q299-248 308-283L368-496L509-496L337 5Q319 52 299.50 87.50Q280 123 254.50 146.50Q229 170 196.50 182Q164 194 120 194Q97 194 81 191.50Q65 189 50 184L76 72L76 72Z"/><path id="s117:sourcesanspro-bold:509" d="M61-80Q61-120 86.50-146.50Q112-173 150-173Q188-173 213.50-146.50Q239-120 239-80Q239-41 213.50-14.50Q188 12 150 12Q112 12 86.50-14.50Q61-41 61-80Z"/><path id="s117:sourcesanspro-bold:53" d="M166-258L23-496L181-496L225-416Q235-395 245.50-373.50Q256-352 267-331L271-331Q279-352 288-373.50Q297-395 305-416L339-496L491-496L347-241L500 0L342 0L294-82Q282-103 270.50-125Q259-147 247-168L243-168Q234-147 224-125.50Q214-104 205-82L166 0L14 0L166-258Z"/><path id="s117:sourcesanspro-bold:32" d="M36-248Q36-310 57-358.50Q78-407 113.50-440Q149-473 196-490.50Q243-508 294-508Q340-508 377-492.50Q414-477 439-451L372-360Q337-389 303-389Q249-389 218-351Q187-313 187-248Q187-183 218.50-145Q250-107 298-107Q325-107 347-118Q369-129 387-143L446-50Q410-18 366-3Q322 12 281 12Q229 12 184.50-5.50Q140-23 107-56Q74-89 55-137.50Q36-186 36-248Z"/><path id="s117:sourcesanspro-bold:9" d="M77-652L488-652L488-528L224-528L224-377L450-377L450-253L224-253L224 0L77 0L77-652Z"/><path id="s117:sourcesanspro-bold:510" d="M46 116Q101 96 130 64Q159 32 159-6L151-6Q116-6 89-27.50Q62-49 62-89Q62-127 89-150Q116-173 154-173Q204-173 230-136.50Q256-100 256-34Q256 49 210 108.50Q164 168 76 194L46 116Z"/></defs><g id="line-0"><use x="0" y="847.5" xlink:href="#s117:sourcesanspro-bold:23"/><use x="556" y="847.5" xlink:href="#s117:sourcesanspro-bold:37"/><use x="1127" y="847.5" xlink:href="#s117:sourcesanspro-bold:34"/><use x="1645" y="847.5" xlink:href="#s117:sourcesanspro-bold:3"/><use x="1853" y="847.5" xlink:href="#s117:sourcesanspro-bold:8"/><use x="2401" y="847.5" xlink:href="#s117:sourcesanspro-bold:50"/><use x="2969" y="847.5" xlink:href="#s117:sourcesanspro-bold:47"/><use x="3357" y="847.5" xlink:href="#s117:sourcesanspro-bold:44"/><use x="3912" y="847.5" xlink:href="#s117:sourcesanspro-bold:45"/><use x="4485" y="847.5" xlink:href="#s117:sourcesanspro-bold:34"/><use x="4992" y="847.5" xlink:href="#s117:sourcesanspro-bold:30"/><use x="5526" y="847.5" xlink:href="#s117:sourcesanspro-bold:43"/><use x="6098" y="847.5" xlink:href="#s117:sourcesanspro-bold:3"/><use x="6306" y="847.5" xlink:href="#s117:sourcesanspro-bold:41"/><use x="6592" y="847.5" xlink:href="#s117:sourcesanspro-bold:30"/><use x="7126" y="847.5" xlink:href="#s117:sourcesanspro-bold:43"/><use x="7698" y="847.5" xlink:href="#s117:sourcesanspro-bold:36"/><use x="8232" y="847.5" xlink:href="#s117:sourcesanspro-bold:50"/><use x="8800" y="847.5" xlink:href="#s117:sourcesanspro-bold:30"/><use x="9334" y="847.5" xlink:href="#s117:sourcesanspro-bold:36"/><use x="9850" y="847.5" xlink:href="#s117:sourcesanspro-bold:34"/><use x="10368" y="847.5" xlink:href="#s117:sourcesanspro-bold:48"/><use x="10811" y="847.5" xlink:href="#s117:sourcesanspro-bold:3"/><use x="11019" y="847.5" xlink:href="#s117:sourcesanspro-bold:30"/><use x="11553" y="847.5" xlink:href="#s117:sourcesanspro-bold:47"/><use x="11941" y="847.5" xlink:href="#s117:sourcesanspro-bold:34"/><use x="12459" y="847.5" xlink:href="#s117:sourcesanspro-bold:3"/><use x="12667" y="847.5" xlink:href="#s117:sourcesanspro-bold:42"/><use x="13524" y="847.5" xlink:href="#s117:sourcesanspro-bold:34"/><use x="14042" y="847.5" xlink:href="#s117:sourcesanspro-bold:42"/><use x="14899" y="847.5" xlink:href="#s117:sourcesanspro-bold:31"/><use x="15472" y="847.5" xlink:href="#s117:sourcesanspro-bold:34"/><use x="15990" y="847.5" xlink:href="#s117:sourcesanspro-bold:47"/><use x="16378" y="847.5" xlink:href="#s117:sourcesanspro-bold:48"/><use x="16821" y="847.5" xlink:href="#s117:sourcesanspro-bold:3"/><use x="17029" y="847.5" xlink:href="#s117:sourcesanspro-bold:44"/><use x="17579" y="847.5" xlink:href="#s117:sourcesanspro-bold:35"/><use x="17920" y="847.5" xlink:href="#s117:sourcesanspro-bold:3"/><use x="18128" y="847.5" xlink:href="#s117:sourcesanspro-bold:49"/><use x="18511" y="847.5" xlink:href="#s117:sourcesanspro-bold:37"/><use x="19082" y="847.5" xlink:href="#s117:sourcesanspro-bold:34"/><use x="19600" y="847.5" xlink:href="#s117:sourcesanspro-bold:3"/><use x="19808" y="847.5" xlink:href="#s117:sourcesanspro-bold:48"/><use x="20251" y="847.5" xlink:href="#s117:sourcesanspro-bold:30"/><use x="20785" y="847.5" xlink:href="#s117:sourcesanspro-bold:42"/><use x="21642" y="847.5" xlink:href="#s117:sourcesanspro-bold:34"/><use x="22160" y="847.5" xlink:href="#s117:sourcesanspro-bold:3"/><use x="22368" y="847.5" xlink:href="#s117:sourcesanspro-bold:35"/><use x="22689" y="847.5" xlink:href="#s117:sourcesanspro-bold:30"/><use x="23223" y="847.5" xlink:href="#s117:sourcesanspro-bold:42"/><use x="24080" y="847.5" xlink:href="#s117:sourcesanspro-bold:38"/><use x="24356" y="847.5" xlink:href="#s117:sourcesanspro-bold:41"/><use x="24642" y="847.5" xlink:href="#s117:sourcesanspro-bold:54"/><use x="25103" y="847.5" xlink:href="#s117:sourcesanspro-bold:509"/></g><g id="line-1"><use x="5076.5" y="2047.5" xlink:href="#s117:sourcesanspro-bold:23"/><use x="5632.5" y="2047.5" xlink:href="#s117:sourcesanspro-bold:37"/><use x="6203.5" y="2047.5" xlink:href="#s117:sourcesanspro-bold:34"/><use x="6721.5" y="2047.5" xlink:href="#s117:sourcesanspro-bold:38"/><use x="6997.5" y="2047.5" xlink:href="#s117:sourcesanspro-bold:47"/><use x="7395.5" y="2047.5" xlink:href="#s117:sourcesanspro-bold:3"/><use x="7603.5" y="2047.5" xlink:href="#s117:sourcesanspro-bold:48"/><use x="8046.5" y="2047.5" xlink:href="#s117:sourcesanspro-bold:34"/><use x="8564.5" y="2047.5" xlink:href="#s117:sourcesanspro-bold:45"/><use x="9126.5" y="2047.5" xlink:href="#s117:sourcesanspro-bold:30"/><use x="9660.5" y="2047.5" xlink:href="#s117:sourcesanspro-bold:47"/><use x="10029.5" y="2047.5" xlink:href="#s117:sourcesanspro-bold:30"/><use x="10563.5" y="2047.5" xlink:href="#s117:sourcesanspro-bold:49"/><use x="10936.5" y="2047.5" xlink:href="#s117:sourcesanspro-bold:34"/><use x="11454.5" y="2047.5" xlink:href="#s117:sourcesanspro-bold:3"/><use x="11662.5" y="2047.5" xlink:href="#s117:sourcesanspro-bold:34"/><use x="12164.5" y="2047.5" xlink:href="#s117:sourcesanspro-bold:53"/><use x="12678.5" y="2047.5" xlink:href="#s117:sourcesanspro-bold:38"/><use x="12954.5" y="2047.5" xlink:href="#s117:sourcesanspro-bold:48"/><use x="13397.5" y="2047.5" xlink:href="#s117:sourcesanspro-bold:49"/><use x="13770.5" y="2047.5" xlink:href="#s117:sourcesanspro-bold:34"/><use x="14288.5" y="2047.5" xlink:href="#s117:sourcesanspro-bold:43"/><use x="14860.5" y="2047.5" xlink:href="#s117:sourcesanspro-bold:32"/><use x="15299.5" y="2047.5" xlink:href="#s117:sourcesanspro-bold:34"/><use x="15817.5" y="2047.5" xlink:href="#s117:sourcesanspro-bold:3"/><use x="16025.5" y="2047.5" xlink:href="#s117:sourcesanspro-bold:38"/><use x="16301.5" y="2047.5" xlink:href="#s117:sourcesanspro-bold:48"/><use x="16744.5" y="2047.5" xlink:href="#s117:sourcesanspro-bold:3"/><use x="16952.5" y="2047.5" xlink:href="#s117:sourcesanspro-bold:30"/><use x="17486.5" y="2047.5" xlink:href="#s117:sourcesanspro-bold:3"/><use x="17694.5" y="2047.5" xlink:href="#s117:sourcesanspro-bold:42"/><use x="18551.5" y="2047.5" xlink:href="#s117:sourcesanspro-bold:54"/><use x="19072.5" y="2047.5" xlink:href="#s117:sourcesanspro-bold:49"/><use x="19455.5" y="2047.5" xlink:href="#s117:sourcesanspro-bold:37"/><use x="20026.5" y="2047.5" xlink:href="#s117:sourcesanspro-bold:509"/></g><g id="line-2"><use x="6177.5" y="3247.5" xlink:href="#s117:sourcesanspro-bold:9"/><use x="6683.5" y="3247.5" xlink:href="#s117:sourcesanspro-bold:44"/><use x="7238.5" y="3247.5" xlink:href="#s117:sourcesanspro-bold:47"/><use x="7636.5" y="3247.5" xlink:href="#s117:sourcesanspro-bold:3"/><use x="7844.5" y="3247.5" xlink:href="#s117:sourcesanspro-bold:48"/><use x="8287.5" y="3247.5" xlink:href="#s117:sourcesanspro-bold:32"/><use x="8754.5" y="3247.5" xlink:href="#s117:sourcesanspro-bold:38"/><use x="9030.5" y="3247.5" xlink:href="#s117:sourcesanspro-bold:34"/><use x="9548.5" y="3247.5" xlink:href="#s117:sourcesanspro-bold:43"/><use x="10120.5" y="3247.5" xlink:href="#s117:sourcesanspro-bold:32"/><use x="10559.5" y="3247.5" xlink:href="#s117:sourcesanspro-bold:34"/><use x="11077.5" y="3247.5" xlink:href="#s117:sourcesanspro-bold:510"/><use x="11377.5" y="3247.5" xlink:href="#s117:sourcesanspro-bold:3"/><use x="11585.5" y="3247.5" xlink:href="#s117:sourcesanspro-bold:42"/><use x="12442.5" y="3247.5" xlink:href="#s117:sourcesanspro-bold:50"/><use x="13010.5" y="3247.5" xlink:href="#s117:sourcesanspro-bold:48"/><use x="13453.5" y="3247.5" xlink:href="#s117:sourcesanspro-bold:38"/><use x="13729.5" y="3247.5" xlink:href="#s117:sourcesanspro-bold:32"/><use x="14196.5" y="3247.5" xlink:href="#s117:sourcesanspro-bold:510"/><use x="14496.5" y="3247.5" xlink:href="#s117:sourcesanspro-bold:3"/><use x="14704.5" y="3247.5" xlink:href="#s117:sourcesanspro-bold:48"/><use x="15147.5" y="3247.5" xlink:href="#s117:sourcesanspro-bold:45"/><use x="15720.5" y="3247.5" xlink:href="#s117:sourcesanspro-bold:44"/><use x="16275.5" y="3247.5" xlink:href="#s117:sourcesanspro-bold:47"/><use x="16673.5" y="3247.5" xlink:href="#s117:sourcesanspro-bold:49"/><use x="17060.5" y="3247.5" xlink:href="#s117:sourcesanspro-bold:510"/><use x="17360.5" y="3247.5" xlink:href="#s117:sourcesanspro-bold:3"/><use x="17568.5" y="3247.5" xlink:href="#s117:sourcesanspro-bold:34"/><use x="18068.5" y="3247.5" xlink:href="#s117:sourcesanspro-bold:49"/><use x="18441.5" y="3247.5" xlink:href="#s117:sourcesanspro-bold:32"/><use x="18908.5" y="3247.5" xlink:href="#s117:sourcesanspro-bold:510"/></g></svg>