<svg xmlns="http://www.w3.org/2000/svg" xmlns:xlink="http://www.w3.org/1999/xlink" width="577" height="84" viewBox="0 0 24021 3520.5"><defs><path id="s124:sourcesanspro-regular:23" d="M226-586L28-586L28-656L508-656L508-586L310-586L310 0L226 0L226-586Z"/><path id="s124:sourcesanspro-regular:37" d="M82-712L164-712L164-518L161-418Q196-451 234-474.50Q272-498 323-498Q400-498 435.50-450Q471-402 471-308L471 0L389 0L389-297Q389-366 367-396.50Q345-427 297-427Q259-427 230-408Q201-389 164-352L164 0L82 0L82-712Z"/><path id="s124:sourcesanspro-regular:34" d="M46-242Q46-302 64.50-349.50Q83-397 113.50-430Q144-463 183-480.50Q222-498 264-498Q310-498 346.50-482Q383-466 407.50-436Q432-406 445-364Q458-322 458-270Q458-243 455-225L127-225Q132-146 175.50-100Q219-54 289-54Q324-54 353.50-64.50Q383-75 410-92L439-38Q407-18 368-3Q329 12 279 12Q230 12 187.50-5.50Q145-23 113.50-55.50Q82-88 64-135Q46-182 46-242M386-279Q386-354 354.50-393.50Q323-433 266-433Q240-433 216.50-422.50Q193-412 174-392.50Q155-373 142.50-344.50Q130-316 126-279L386-279Z"/><path id="s124:sourcesanspro-regular:3" d=""/><path id="s124:sourcesanspro-regular:8" d="M90-656L468-656L468-586L173-586L173-380L422-380L422-309L173-309L173-71L478-71L478 0L90 0L90-656Z"/><path id="s124:sourcesanspro-regular:50" d="M75-486L158-486L158-189Q158-120 179.50-89.50Q201-59 249-59Q287-59 316-78.50Q345-98 380-141L380-486L462-486L462 0L394 0L387-76L384-76Q350-36 312.50-12Q275 12 224 12Q146 12 110.50-36Q75-84 75-178L75-486Z"/><path id="s124:sourcesanspro-regular:47" d="M82-486L150-486L157-398L160-398Q185-444 220.50-471Q256-498 298-498Q327-498 350-488L334-416Q322-420 312-422Q302-424 287-424Q256-424 222.50-399Q189-374 164-312L164 0L82 0L82-486Z"/><path id="s124:sourcesanspro-regular:44" d="M46-242Q46-303 64.50-350.50Q83-398 114-431Q145-464 185.50-481Q226-498 271-498Q316-498 356.50-481Q397-464 428-431Q459-398 477.50-350.50Q496-303 496-242Q496-182 477.50-134.50Q459-87 428-54.50Q397-22 356.50-5Q316 12 271 12Q226 12 185.50-5Q145-22 114-54.50Q83-87 64.50-134.50Q46-182 46-242M131-242Q131-200 141-166Q151-132 169.50-107.50Q188-83 214-69.50Q240-56 271-56Q302-56 328-69.50Q354-83 372.50-107.50Q391-132 401-166Q411-200 411-242Q411-284 401-318.50Q391-353 372.50-378Q354-403 328-416.50Q302-430 271-430Q240-430 214-416.50Q188-403 169.50-378Q151-353 141-318.50Q131-284 131-242Z"/><path id="s124:sourcesanspro-regular:45" d="M164 41L164 205L82 205L82-486L150-486L157-430L160-430Q193-458 232.50-478Q272-498 315-498Q362-498 398-480.50Q434-463 458-430.50Q482-398 494.50-352.50Q507-307 507-250Q507-188 490-139.50Q473-91 444-57Q415-23 377-5.50Q339 12 297 12Q263 12 229.50-3Q196-18 162-44L164 41M164-108Q197-80 228-68.50Q259-57 283-57Q313-57 338.50-70.50Q364-84 382.50-108.50Q401-133 411.50-169Q422-205 422-250Q422-290 415-323Q408-356 392.50-379.50Q377-403 352.50-416Q328-429 294-429Q263-429 231.50-412Q200-395 164-363L164-108Z"/><path id="s124:sourcesanspro-regular:30" d="M58-126Q58-206 129.50-248.50Q201-291 357-308Q357-331 352.50-353Q348-375 336.50-392Q325-409 306-419.50Q287-430 257-430Q214-430 177.50-414Q141-398 112-378L79-435Q113-457 162-477.50Q211-498 270-498Q359-498 399-443.50Q439-389 439-298L439 0L371 0L364-58L362-58Q327-29 286.50-8.50Q246 12 201 12Q139 12 98.50-24Q58-60 58-126M139-132Q139-90 163.50-72Q188-54 224-54Q259-54 290.50-70.50Q322-87 357-119L357-254Q296-246 254-235Q212-224 186.50-209Q161-194 150-174.50Q139-155 139-132Z"/><path id="s124:sourcesanspro-regular:43" d="M82-486L150-486L157-416L160-416Q195-451 233.50-474.50Q272-498 323-498Q400-498 435.50-450Q471-402 471-308L471 0L389 0L389-297Q389-366 367-396.50Q345-427 297-427Q259-427 230-408Q201-389 164-352L164 0L82 0L82-486Z"/><path id="s124:sourcesanspro-regular:41" d="M82-712L164-712L164-92Q164-72 171-64Q178-56 187-56Q191-56 194.50-56Q198-56 205-58L216 4Q208 8 197 10Q186 12 169 12Q122 12 102-16Q82-44 82-98L82-712Z"/><path id="s124:sourcesanspro-regular:36" d="M117 82Q117 121 154.50 144Q192 167 258 167Q293 167 321.50 158.50Q350 150 370 136.50Q390 123 401 105Q412 87 412 68Q412 34 387 21Q362 8 314 8L230 8Q216 8 199.50 6.50Q183 5 167 0Q141 19 129 40Q117 61 117 82M45 93Q45 62 64 34Q83 6 116-17L116-21Q98-32 85.50-51.50Q73-71 73-100Q73-131 90-154Q107-177 126-190L126-194Q102-214 82.50-247.50Q63-281 63-325Q63-365 77.50-397Q92-429 117-451.50Q142-474 175.50-486Q209-498 246-498Q266-498 283.50-494.50Q301-491 315-486L484-486L484-423L384-423Q401-406 412.50-380Q424-354 424-323Q424-284 410-252.50Q396-221 372-199.50Q348-178 315.50-166Q283-154 246-154Q228-154 209-158.50Q190-163 173-171Q160-160 151-146.50Q142-133 142-113Q142-90 160-75Q178-60 228-60L322-60Q407-60 449.50-32.50Q492-5 492 56Q492 90 475 120.50Q458 151 426 174Q394 197 348.50 210.50Q303 224 246 224Q201 224 164 215.50Q127 207 100.50 190Q74 173 59.50 149Q45 125 45 93M246-209Q267-209 285.50-217Q304-225 318.50-240Q333-255 341-276.50Q349-298 349-325Q349-379 319-408.50Q289-438 246-438Q203-438 173-408.50Q143-379 143-325Q143-298 151-276.50Q159-255 173.50-240Q188-225 206.50-217Q225-209 246-209Z"/><path id="s124:sourcesanspro-regular:48" d="M69-110Q101-84 134.50-68Q168-52 212-52Q260-52 284-74Q308-96 308-128Q308-147 298-161Q288-175 272.50-185.50Q257-196 237-204Q217-212 197-220Q171-229 145-240.50Q119-252 98.50-268.50Q78-285 65-307Q52-329 52-360Q52-389 63.50-414.50Q75-440 96.50-458.50Q118-477 149-487.50Q180-498 219-498Q265-498 303.50-482Q342-466 370-443L331-391Q306-410 279-422Q252-434 220-434Q174-434 152.50-413Q131-392 131-364Q131-347 140-334.50Q149-322 164-312.50Q179-303 198.50-295.50Q218-288 239-280Q265-270 291.50-259Q318-248 339-231.50Q360-215 373.50-191Q387-167 387-133Q387-103 375.50-77Q364-51 341.50-31Q319-11 285.50 0.50Q252 12 209 12Q157 12 110-7Q63-26 28-55L69-110Z"/><path id="s124:sourcesanspro-regular:42" d="M82-486L150-486L157-416L160-416Q192-451 229.50-474.50Q267-498 311-498Q367-498 398.50-473.50Q430-449 445-405Q483-447 521.50-472.50Q560-498 605-498Q680-498 716.50-450Q753-402 753-308L753 0L671 0L671-297Q671-366 649-396.50Q627-427 581-427Q526-427 459-352L459 0L377 0L377-297Q377-366 355-396.50Q333-427 286-427Q231-427 164-352L164 0L82 0L82-486Z"/><path id="s124:sourcesanspro-regular:31" d="M82-712L164-712L164-518L162-430Q195-459 234-478.50Q273-498 314-498Q361-498 397-480.50Q433-463 457.50-430.50Q482-398 494.50-352.50Q507-307 507-251Q507-189 490-140Q473-91 444-57Q415-23 377-5.50Q339 12 297 12Q263 12 226.50-3.50Q190-19 158-48L155-48L148 0L82 0L82-712M164-108Q196-80 227.50-68.50Q259-57 283-57Q313-57 338.50-70.50Q364-84 382.50-108.50Q401-133 411.50-169Q422-205 422-250Q422-290 415-323Q408-356 392.50-379.50Q377-403 352.50-416Q328-429 294-429Q235-429 164-363L164-108Z"/><path id="s124:sourcesanspro-regular:35" d="M301-645Q274-657 246-657Q178-657 178-563L178-486L281-486L281-419L178-419L178 0L96 0L96-419L30-419L30-481L96-486L96-563Q96-638 130.50-681Q165-724 238-724Q261-724 281.50-719.50Q302-715 319-708L301-645Z"/><path id="s124:sourcesanspro-regular:49" d="M96-419L24-419L24-481L100-486L110-622L179-622L179-486L310-486L310-419L179-419L179-149Q179-104 195.50-79.50Q212-55 254-55Q267-55 282-59Q297-63 309-68L325-6Q305 1 281.50 6.50Q258 12 235 12Q196 12 169.50 0Q143-12 126.50-33Q110-54 103-84Q96-114 96-150L96-419Z"/><path id="s124:sourcesanspro-regular:38" d="M124-586Q100-586 83.50-601Q67-616 67-639Q67-663 83.50-677.50Q100-692 124-692Q148-692 164.50-677.50Q181-663 181-639Q181-616 164.50-601Q148-586 124-586M82-486L164-486L164 0L82 0L82-486Z"/><path id="s124:sourcesanspro-regular:54" d="M49 134Q57 136 67 138.50Q77 141 86 141Q128 141 154.50 111.50Q181 82 196 37L207 1L12-486L97-486L196-217Q207-185 219.50-149.50Q232-114 243-80L247-80Q258-113 268-149Q278-185 288-217L375-486L455-486L272 40Q259 76 243 107Q227 138 205 160.50Q183 183 155 196Q127 209 90 209Q73 209 59 206.50Q45 204 33 199L49 134L49 134Z"/><path id="s124:sourcesanspro-regular:509" d="M65-50Q65-79 82.50-96.50Q100-114 125-114Q149-114 166.50-96.50Q184-79 184-50Q184-23 166.50-5.50Q149 12 125 12Q100 12 82.50-5.50Q65-23 65-50Z"/><path id="s124:sourcesanspro-regular:53" d="M173-254L26-486L115-486L180-379Q191-359 203-338.50Q215-318 228-298L232-298Q243-318 254-338.50Q265-359 276-379L335-486L421-486L274-245L432 0L343 0L272-113Q259-135 246-157Q233-179 219-200L215-200Q202-179 190-157.50Q178-136 166-113L100 0L14 0L173-254Z"/><path id="s124:sourcesanspro-regular:32" d="M46-242Q46-303 65-350.50Q84-398 116-431Q148-464 190.50-481Q233-498 280-498Q328-498 362.50-480.50Q397-463 422-440L381-387Q359-406 335.50-418Q312-430 283-430Q250-430 222-416.50Q194-403 174-378Q154-353 142.50-318.50Q131-284 131-242Q131-200 142-166Q153-132 172.50-107.50Q192-83 220-69.50Q248-56 281-56Q316-56 344.50-70.50Q373-85 395-105L432-51Q399-22 358.50-5Q318 12 274 12Q226 12 184-5Q142-22 111.50-54.50Q81-87 63.50-134.50Q46-182 46-242Z"/><path id="s124:sourcesanspro-regular:9" d="M90-656L468-656L468-586L173-586L173-364L423-364L423-294L173-294L173 0L90 0L90-656Z"/><path id="s124:sourcesanspro-regular:510" d="M47 122Q89 103 113 72Q137 41 137 0Q134 1 127 1Q103 1 85.50-13.50Q68-28 68-56Q68-83 86-98.50Q104-114 129-114Q161-114 179.50-88Q198-62 198-17Q198 48 163 96Q128 144 67 170L47 122Z"/></defs><g id="line-0"><use x="0" y="847.5" xlink:href="#s124:sourcesanspro-regular:23"/><use x="536" y="847.5" xlink:href="#s124:sourcesanspro-regular:37"/><use x="1080" y="847.5" xlink:href="#s124:sourcesanspro-regular:34"/><use x="1576" y="847.5" xlink:href="#s124:sourcesanspro-regular:3"/><use x="1778" y="847.5" xlink:href="#s124:sourcesanspro-regular:8"/><use x="2305" y="847.5" xlink:href="#s124:sourcesanspro-regular:50"/><use x="2849" y="847.5" xlink:href="#s124:sourcesanspro-regular:47"/><use x="3186" y="847.5" xlink:href="#s124:sourcesanspro-regular:44"/><use x="3728" y="847.5" xlink:href="#s124:sourcesanspro-regular:45"/><use x="4283" y="847.5" xlink:href="#s124:sourcesanspro-regular:34"/><use x="4765" y="847.5" xlink:href="#s124:sourcesanspro-regular:30"/><use x="5277" y="847.5" xlink:href="#s124:sourcesanspro-regular:43"/><use x="5824" y="847.5" xlink:href="#s124:sourcesanspro-regular:3"/><use x="6026" y="847.5" xlink:href="#s124:sourcesanspro-regular:41"/><use x="6281" y="847.5" xlink:href="#s124:sourcesanspro-regular:30"/><use x="6793" y="847.5" xlink:href="#s124:sourcesanspro-regular:43"/><use x="7340" y="847.5" xlink:href="#s124:sourcesanspro-regular:36"/><use x="7844" y="847.5" xlink:href="#s124:sourcesanspro-regular:50"/><use x="8388" y="847.5" xlink:href="#s124:sourcesanspro-regular:30"/><use x="8900" y="847.5" xlink:href="#s124:sourcesanspro-regular:36"/><use x="9390" y="847.5" xlink:href="#s124:sourcesanspro-regular:34"/><use x="9886" y="847.5" xlink:href="#s124:sourcesanspro-regular:48"/><use x="10305" y="847.5" xlink:href="#s124:sourcesanspro-regular:3"/><use x="10507" y="847.5" xlink:href="#s124:sourcesanspro-regular:30"/><use x="11019" y="847.5" xlink:href="#s124:sourcesanspro-regular:47"/><use x="11356" y="847.5" xlink:href="#s124:sourcesanspro-regular:34"/><use x="11852" y="847.5" xlink:href="#s124:sourcesanspro-regular:3"/><use x="12054" y="847.5" xlink:href="#s124:sourcesanspro-regular:42"/><use x="12883" y="847.5" xlink:href="#s124:sourcesanspro-regular:34"/><use x="13379" y="847.5" xlink:href="#s124:sourcesanspro-regular:42"/><use x="14208" y="847.5" xlink:href="#s124:sourcesanspro-regular:31"/><use x="14763" y="847.5" xlink:href="#s124:sourcesanspro-regular:34"/><use x="15259" y="847.5" xlink:href="#s124:sourcesanspro-regular:47"/><use x="15596" y="847.5" xlink:href="#s124:sourcesanspro-regular:48"/><use x="16015" y="847.5" xlink:href="#s124:sourcesanspro-regular:3"/><use x="16217" y="847.5" xlink:href="#s124:sourcesanspro-regular:44"/><use x="16759" y="847.5" xlink:href="#s124:sourcesanspro-regular:35"/><use x="17051" y="847.5" xlink:href="#s124:sourcesanspro-regular:3"/><use x="17253" y="847.5" xlink:href="#s124:sourcesanspro-regular:49"/><use x="17591" y="847.5" xlink:href="#s124:sourcesanspro-regular:37"/><use x="18135" y="847.5" xlink:href="#s124:sourcesanspro-regular:34"/><use x="18631" y="847.5" xlink:href="#s124:sourcesanspro-regular:3"/><use x="18833" y="847.5" xlink:href="#s124:sourcesanspro-regular:48"/><use x="19252" y="847.5" xlink:href="#s124:sourcesanspro-regular:30"/><use x="19764" y="847.5" xlink:href="#s124:sourcesanspro-regular:42"/><use x="20593" y="847.5" xlink:href="#s124:sourcesanspro-regular:34"/><use x="21089" y="847.5" xlink:href="#s124:sourcesanspro-regular:3"/><use x="21291" y="847.5" xlink:href="#s124:sourcesanspro-regular:35"/><use x="21563" y="847.5" xlink:href="#s124:sourcesanspro-regular:30"/><use x="22075" y="847.5" xlink:href="#s124:sourcesanspro-regular:42"/><use x="22904" y="847.5" xlink:href="#s124:sourcesanspro-regular:38"/><use x="23150" y="847.5" xlink:href="#s124:sourcesanspro-regular:41"/><use x="23405" y="847.5" xlink:href="#s124:sourcesanspro-regular:54"/><use x="23837" y="847.5" xlink:href="#s124:sourcesanspro-regular:509"/></g><g id="line-1"><use x="4887.5" y="2047.5" xlink:href="#s124:sourcesanspro-regular:23"/><use x="5423.5" y="2047.5" xlink:href="#s124:sourcesanspro-regular:37"/><use x="5967.5" y="2047.5" xlink:href="#s124:sourcesanspro-regular:34"/><use x="6463.5" y="2047.5" xlink:href="#s124:sourcesanspro-regular:38"/><use x="6709.5" y="2047.5" xlink:href="#s124:sourcesanspro-regular:47"/><use x="7056.5" y="2047.5" xlink:href="#s124:sourcesanspro-regular:3"/><use x="7258.5" y="2047.5" xlink:href="#s124:sourcesanspro-regular:48"/><use x="7677.5" y="2047.5" xlink:href="#s124:sourcesanspro-regular:34"/><use x="8173.5" y="2047.5" xlink:href="#s124:sourcesanspro-regular:45"/><use x="8714.5" y="2047.5" xlink:href="#s124:sourcesanspro-regular:30"/><use x="9226.5" y="2047.5" xlink:href="#s124:sourcesanspro-regular:47"/><use x="9548.5" y="2047.5" xlink:href="#s124:sourcesanspro-regular:30"/><use x="10060.5" y="2047.5" xlink:href="#s124:sourcesanspro-regular:49"/><use x="10388.5" y="2047.5" xlink:href="#s124:sourcesanspro-regular:34"/><use x="10884.5" y="2047.5" xlink:href="#s124:sourcesanspro-regular:3"/><use x="11086.5" y="2047.5" xlink:href="#s124:sourcesanspro-regular:34"/><use x="11575.5" y="2047.5" xlink:href="#s124:sourcesanspro-regular:53"/><use x="12021.5" y="2047.5" xlink:href="#s124:sourcesanspro-regular:38"/><use x="12267.5" y="2047.5" xlink:href="#s124:sourcesanspro-regular:48"/><use x="12686.5" y="2047.5" xlink:href="#s124:sourcesanspro-regular:49"/><use x="13014.5" y="2047.5" xlink:href="#s124:sourcesanspro-regular:34"/><use x="13510.5" y="2047.5" xlink:href="#s124:sourcesanspro-regular:43"/><use x="14057.5" y="2047.5" xlink:href="#s124:sourcesanspro-regular:32"/><use x="14492.5" y="2047.5" xlink:href="#s124:sourcesanspro-regular:34"/><use x="14988.5" y="2047.5" xlink:href="#s124:sourcesanspro-regular:3"/><use x="15190.5" y="2047.5" xlink:href="#s124:sourcesanspro-regular:38"/><use x="15436.5" y="2047.5" xlink:href="#s124:sourcesanspro-regular:48"/><use x="15855.5" y="2047.5" xlink:href="#s124:sourcesanspro-regular:3"/><use x="16057.5" y="2047.5" xlink:href="#s124:sourcesanspro-regular:30"/><use x="16569.5" y="2047.5" xlink:href="#s124:sourcesanspro-regular:3"/><use x="16771.5" y="2047.5" xlink:href="#s124:sourcesanspro-regular:42"/><use x="17600.5" y="2047.5" xlink:href="#s124:sourcesanspro-regular:54"/><use x="18067.5" y="2047.5" xlink:href="#s124:sourcesanspro-regular:49"/><use x="18405.5" y="2047.5" xlink:href="#s124:sourcesanspro-regular:37"/><use x="18949.5" y="2047.5" xlink:href="#s124:sourcesanspro-regular:509"/></g><g id="line-2"><use x="5914.5" y="3247.5" xlink:href="#s124:sourcesanspro-regular:9"/><use x="6394.5" y="3247.5" xlink:href="#s124:sourcesanspro-regular:44"/><use x="6936.5" y="3247.5" xlink:href="#s124:sourcesanspro-regular:47"/><use x="7283.5" y="3247.5" xlink:href="#s124:sourcesanspro-regular:3"/><use x="7485.5" y="3247.5" xlink:href="#s124:sourcesanspro-regular:48"/><use x="7904.5" y="3247.5" xlink:href="#s124:sourcesanspro-regular:32"/><use x="8360.5" y="3247.5" xlink:href="#s124:sourcesanspro-regular:38"/><use x="8606.5" y="3247.5" xlink:href="#s124:sourcesanspro-regular:34"/><use x="9102.5" y="3247.5" xlink:href="#s124:sourcesanspro-regular:43"/><use x="9649.5" y="3247.5" xlink:href="#s124:sourcesanspro-regular:32"/><use x="10084.5" y="3247.5" xlink:href="#s124:sourcesanspro-regular:34"/><use x="10580.5" y="3247.5" xlink:href="#s124:sourcesanspro-regular:510"/><use x="10829.5" y="3247.5" xlink:href="#s124:sourcesanspro-regular:3"/><use x="11031.5" y="3247.5" xlink:href="#s124:sourcesanspro-regular:42"/><use x="11860.5" y="3247.5" xlink:href="#s124:sourcesanspro-regular:50"/><use x="12404.5" y="3247.5" xlink:href="#s124:sourcesanspro-regular:48"/><use x="12823.5" y="3247.5" xlink:href="#s124:sourcesanspro-regular:38"/><use x="13069.5" y="3247.5" xlink:href="#s124:sourcesanspro-regular:32"/><use x="13525.5" y="3247.5" xlink:href="#s124:sourcesanspro-regular:510"/><use x="13774.5" y="3247.5" xlink:href="#s124:sourcesanspro-regular:3"/><use x="13976.5" y="3247.5" xlink:href="#s124:sourcesanspro-regular:48"/><use x="14395.5" y="3247.5" xlink:href="#s124:sourcesanspro-regular:45"/><use x="14950.5" y="3247.5" xlink:href="#s124:sourcesanspro-regular:44"/><use x="15492.5" y="3247.5" xlink:href="#s124:sourcesanspro-regular:47"/><use x="15839.5" y="3247.5" xlink:href="#s124:sourcesanspro-regular:49"/><use x="16191.5" y="3247.5" xlink:href="#s124:sourcesanspro-regular:510"/><use x="16440.5" y="3247.5" xlink:href="#s124:sourcesanspro-regular:3"/><use x="16642.5" y="3247.5" xlink:href="#s124:sourcesanspro-regular:34"/><use x="17124.5" y="3247.5" xlink:href="#s124:sourcesanspro-regular:49"/><use x="17452.5" y="3247.5" xlink:href="#s124:sourcesanspro-regular:32"/><use x="17908.5" y="3247.5" xlink:href="#s124:sourcesanspro-regular:510"/></g></svg>