<svg xmlns="http://www.w3.org/2000/svg" xmlns:xlink="http://www.w3.org/1999/xlink" width="541" height="84" viewBox="0 0 22544 3520.5"><defs><path id="s120:sourcesanspro-extralightitalic:23" d="M306-632L100-632L106-660L548-660L542-632L336-632L210 0L180 0L306-632Z"/><path id="s120:sourcesanspro-extralightitalic:37" d="M188-722L216-722L160-444L148-398L152-398Q200-439 242-464.50Q284-490 328-490Q390-490 416-457.50Q442-425 442-374Q442-356 440.50-343.50Q439-331 434-310L372 0L344 0L406-306Q411-329 412.50-342Q414-355 414-370Q414-417 393-440.50Q372-464 324-464Q291-464 246-439Q201-414 144-358L72 0L44 0L188-722Z"/><path id="s120:sourcesanspro-extralightitalic:34" d="M44-184Q44-252 65.50-308.50Q87-365 121.50-405.50Q156-446 200-468Q244-490 290-490Q328-490 355-477.50Q382-465 399-442.50Q416-420 424-389.50Q432-359 432-322Q432-298 428.50-277.50Q425-257 420-242L78-242Q67-182 75-139Q83-96 104-68Q125-40 156.50-27Q188-14 226-14Q259-14 291-28Q323-42 350-62L364-40Q335-19 299-3.50Q263 12 224 12Q141 12 92.50-37.50Q44-87 44-184M398-268Q401-283 402.50-297Q404-311 404-328Q404-353 398-377.50Q392-402 378.50-421.50Q365-441 342.50-452.50Q320-464 288-464Q254-464 221.50-449.50Q189-435 162-409Q135-383 114.50-347Q94-311 84-268L398-268Z"/><path id="s120:sourcesanspro-extralightitalic:3" d=""/><path id="s120:sourcesanspro-extralightitalic:8" d="M172-660L514-660L508-634L196-634L142-364L406-364L400-338L138-338L74-26L396-26L390 0L40 0L172-660Z"/><path id="s120:sourcesanspro-extralightitalic:50" d="M372 0L348 0L360-80L356-80Q311-41 269.50-14.50Q228 12 184 12Q122 12 96-20.50Q70-53 70-104Q70-122 71.50-134.50Q73-147 78-168L140-478L168-478L106-172Q101-149 99.50-136Q98-123 98-108Q98-61 119-37.50Q140-14 188-14Q221-14 266-39Q311-64 368-120L440-478L468-478L372 0Z"/><path id="s120:sourcesanspro-extralightitalic:47" d="M140-478L164-478L148-388L152-388Q182-430 218.50-460Q255-490 302-490Q311-490 321.50-488.50Q332-487 344-482L332-454Q326-457 318-459.50Q310-462 296-462Q257-462 213-425Q169-388 136-322L72 0L44 0L140-478Z"/><path id="s120:sourcesanspro-extralightitalic:44" d="M204 12Q132 12 89-36.50Q46-85 46-176Q46-243 67-300.50Q88-358 122.50-400Q157-442 202-466Q247-490 296-490Q368-490 411-441.50Q454-393 454-302Q454-235 433-177.50Q412-120 377.50-78Q343-36 298-12Q253 12 204 12M294-464Q253-464 214-441.50Q175-419 143.50-380Q112-341 93-290Q74-239 74-182Q74-99 108.50-56.50Q143-14 206-14Q246-14 285.50-36.50Q325-59 356.50-98Q388-137 407-188Q426-239 426-296Q426-379 391.50-421.50Q357-464 294-464Z"/><path id="s120:sourcesanspro-extralightitalic:45" d="M62 42L28 222L0 222L140-478L164-478L152-408L156-408Q195-440 240-465Q285-490 336-490Q399-490 437.50-446Q476-402 476-318Q476-249 454-189Q432-129 395.50-84Q359-39 312-13.50Q265 12 216 12Q172 12 139.50-10.50Q107-33 86-68L84-68L62 42M334-464Q313-464 289-457Q265-450 240.50-437.50Q216-425 192-407.50Q168-390 146-370L92-102Q121-54 151.50-34Q182-14 218-14Q263-14 304.50-39.50Q346-65 378-107Q410-149 429-202.50Q448-256 448-312Q448-388 417.50-426Q387-464 334-464Z"/><path id="s120:sourcesanspro-extralightitalic:30" d="M46-160Q46-229 68-289Q90-349 126.50-394Q163-439 209.50-464.50Q256-490 306-490Q350-490 381-468Q412-446 432-410L436-410L454-478L478-478L382 0L358 0L370-78L366-78Q328-39 282.50-13.50Q237 12 186 12Q123 12 84.50-31.50Q46-75 46-160M188-14Q238-14 285.50-42.50Q333-71 378-122L430-372Q401-422 370.50-443Q340-464 304-464Q259-464 217.50-438Q176-412 144-370Q112-328 93-274.50Q74-221 74-166Q74-89 104.50-51.50Q135-14 188-14Z"/><path id="s120:sourcesanspro-extralightitalic:43" d="M140-478L164-478L152-400L156-400Q201-439 242.50-464.50Q284-490 328-490Q390-490 416-457.50Q442-425 442-374Q442-356 440.50-343.50Q439-331 434-310L372 0L344 0L406-306Q411-329 412.50-342Q414-355 414-370Q414-417 393-440.50Q372-464 324-464Q291-464 246-439Q201-414 144-358L72 0L44 0L140-478Z"/><path id="s120:sourcesanspro-extralightitalic:41" d="M188-722L216-722L82-48Q80-40 80-35.50Q80-31 80-28Q80-14 94-14Q97-14 99.50-14.50Q102-15 110-18L114 6Q106 9 100.50 10.50Q95 12 86 12Q71 12 60.50 3Q50-6 50-24Q50-29 51-35.50Q52-42 54-50L188-722Z"/><path id="s120:sourcesanspro-extralightitalic:36" d="M472-478L366 48Q348 134 297.50 184Q247 234 166 234Q113 234 74.50 214Q36 194 6 168L24 146Q51 172 87 190Q123 208 168 208Q241 208 283 159Q325 110 342 30L366-82L362-82Q324-46 279.50-21Q235 4 184 4Q122 4 84-39.50Q46-83 46-166Q46-233 68-292Q90-351 126-395Q162-439 207.50-464.50Q253-490 300-490Q343-490 374.50-468Q406-446 426-410L430-410L448-478L472-478M186-22Q228-22 278-49.50Q328-77 372-124L424-372Q395-422 364.50-443Q334-464 298-464Q255-464 215-438.50Q175-413 143.50-371.50Q112-330 93-277.50Q74-225 74-172Q74-97 103.50-59.50Q133-22 186-22Z"/><path id="s120:sourcesanspro-extralightitalic:48" d="M22-92Q42-60 78-37Q114-14 162-14Q188-14 211.50-22.50Q235-31 253-46Q271-61 281.50-80.50Q292-100 292-122Q292-137 288.50-150Q285-163 275-175.50Q265-188 247-201.50Q229-215 200-230Q166-248 143-263.50Q120-279 106-294Q92-309 86-324.50Q80-340 80-358Q80-388 92-412.50Q104-437 124-454Q144-471 170.50-480.50Q197-490 226-490Q265-490 297.50-475Q330-460 354-434L334-414Q314-435 288-449.50Q262-464 224-464Q200-464 179-456Q158-448 142-434.50Q126-421 117-402.50Q108-384 108-364Q108-328 135-305.50Q162-283 198-264Q239-241 263.50-223Q288-205 300.50-188.50Q313-172 316.50-157.50Q320-143 320-128Q320-96 307.50-70Q295-44 273.50-26Q252-8 222 2Q192 12 158 12Q132 12 107.50 4Q83-4 62.50-16.50Q42-29 26-44.50Q10-60 0-76L22-92Z"/><path id="s120:sourcesanspro-extralightitalic:42" d="M140-478L164-478L152-400L156-400Q197-439 239-464.50Q281-490 316-490Q346-490 366.50-481.50Q387-473 400-459Q413-445 419-426.50Q425-408 426-388Q477-438 522-464Q567-490 602-490Q662-490 688-457.50Q714-425 714-374Q714-356 712.50-343.50Q711-331 706-310L644 0L616 0L678-306Q683-329 684.50-342Q686-355 686-370Q686-417 665.50-440.50Q645-464 598-464Q574-464 528.50-439Q483-414 430-358L358 0L330 0L392-306Q397-329 398.50-342Q400-355 400-370Q400-417 379.50-440.50Q359-464 312-464Q288-464 242.50-439Q197-414 144-358L72 0L44 0L140-478Z"/><path id="s120:sourcesanspro-extralightitalic:31" d="M44 0L188-722L216-722L172-506L152-408L154-408Q193-440 239-465Q285-490 336-490Q399-490 437.50-446.50Q476-403 476-318Q476-249 454-189Q432-129 395.50-84Q359-39 312-13.50Q265 12 216 12Q172 12 141-10Q110-32 90-68L86-68L68 0L44 0M334-464Q313-464 289-457Q265-450 240.50-437.50Q216-425 192-408Q168-391 146-372L92-106Q121-56 151.50-35Q182-14 218-14Q263-14 304.50-39.50Q346-65 378-107Q410-149 429-202.50Q448-256 448-312Q448-388 417.50-426Q387-464 334-464Z"/><path id="s120:sourcesanspro-extralightitalic:35" d="M80-474L144-478L168-598Q183-669 216.50-701.50Q250-734 292-734Q316-734 332-727.50Q348-721 362-712L348-690Q336-698 323-703Q310-708 290-708Q271-708 256-699Q241-690 229-675Q217-660 208.50-640Q200-620 196-598L172-478L280-478L274-452L166-452L76 0L48 0L138-452L76-452L80-474Z"/><path id="s120:sourcesanspro-extralightitalic:49" d="M146-452L70-452L74-474L152-478L184-616L208-616L180-478L312-478L306-452L174-452L106-122Q104-113 103-104Q102-95 102-84Q102-49 116.50-31.50Q131-14 172-14Q190-14 205-20Q220-26 232-32L242-10Q228-2 209.50 5Q191 12 170 12Q116 12 95-15Q74-42 74-78Q74-92 75-102Q76-112 78-124L146-452Z"/><path id="s120:sourcesanspro-extralightitalic:38" d="M140-478L168-478L72 0L44 0L140-478M180-600Q168-600 160-608Q152-616 152-628Q152-646 163-657Q174-668 188-668Q200-668 208-660Q216-652 216-638Q216-621 205-610.50Q194-600 180-600Z"/><path id="s120:sourcesanspro-extralightitalic:54" d="M-72 188Q-56 196-38 196Q7 196 45.50 157.50Q84 119 116 54L138 10L58-478L86-478L136-166Q142-131 147.50-94Q153-57 158-24L162-24Q180-59 199-94.50Q218-130 238-166L408-478L438-478L138 66Q124 94 106.50 121.50Q89 149 67 171.50Q45 194 18.50 208Q-8 222-40 222Q-48 222-59 220Q-70 218-84 212L-72 188L-72 188Z"/><path id="s120:sourcesanspro-extralightitalic:509" d="M50 12Q36 12 29 3Q22-6 22-18Q22-35 34.50-49.50Q47-64 64-64Q78-64 84-55Q90-46 90-32Q90-15 78.50-1.50Q67 12 50 12Z"/><path id="s120:sourcesanspro-extralightitalic:53" d="M178-252L82-478L112-478L164-352Q173-329 180-311Q187-293 196-272L200-272Q218-292 236-311.50Q254-331 272-352L384-478L416-478L212-246L316 0L286 0L232-136Q223-159 213-182Q203-205 192-228L188-228Q170-205 150.50-183.50Q131-162 108-138L-14 0L-48 0L178-252Z"/><path id="s120:sourcesanspro-extralightitalic:32" d="M44-176Q44-246 66-304Q88-362 124-403.50Q160-445 205.50-467.50Q251-490 298-490Q339-490 366.50-474.50Q394-459 418-432L398-412Q375-439 353-451.50Q331-464 296-464Q254-464 213.50-441.50Q173-419 141.50-380Q110-341 91-290Q72-239 72-182Q72-99 106.50-56.50Q141-14 212-14Q250-14 282.50-29.50Q315-45 342-66L358-44Q332-24 296-6Q260 12 210 12Q133 12 88.50-36.50Q44-85 44-176Z"/><path id="s120:sourcesanspro-extralightitalic:9" d="M172-660L514-660L508-634L196-634L140-352L404-352L398-326L136-326L70 0L40 0L172-660Z"/><path id="s120:sourcesanspro-extralightitalic:510" d="M-34 122Q4 104 30.50 74.50Q57 45 62 8L56 8Q42 8 34 0Q26-8 26-22Q26-37 37-50.50Q48-64 66-64Q82-64 90-52Q98-40 98-22Q98 6 88.50 31.50Q79 57 62.50 79Q46 101 23 118.50Q0 136-26 146L-34 122Z"/></defs><g id="line-0"><use x="0" y="847.5" xlink:href="#s120:sourcesanspro-extralightitalic:23"/><use x="492" y="847.5" xlink:href="#s120:sourcesanspro-extralightitalic:37"/><use x="990" y="847.5" xlink:href="#s120:sourcesanspro-extralightitalic:34"/><use x="1458" y="847.5" xlink:href="#s120:sourcesanspro-extralightitalic:3"/><use x="1646" y="847.5" xlink:href="#s120:sourcesanspro-extralightitalic:8"/><use x="2130" y="847.5" xlink:href="#s120:sourcesanspro-extralightitalic:50"/><use x="2644" y="847.5" xlink:href="#s120:sourcesanspro-extralightitalic:47"/><use x="2942" y="847.5" xlink:href="#s120:sourcesanspro-extralightitalic:44"/><use x="3442" y="847.5" xlink:href="#s120:sourcesanspro-extralightitalic:45"/><use x="3962" y="847.5" xlink:href="#s120:sourcesanspro-extralightitalic:34"/><use x="4430" y="847.5" xlink:href="#s120:sourcesanspro-extralightitalic:30"/><use x="4954" y="847.5" xlink:href="#s120:sourcesanspro-extralightitalic:43"/><use x="5458" y="847.5" xlink:href="#s120:sourcesanspro-extralightitalic:3"/><use x="5646" y="847.5" xlink:href="#s120:sourcesanspro-extralightitalic:41"/><use x="5872" y="847.5" xlink:href="#s120:sourcesanspro-extralightitalic:30"/><use x="6396" y="847.5" xlink:href="#s120:sourcesanspro-extralightitalic:43"/><use x="6900" y="847.5" xlink:href="#s120:sourcesanspro-extralightitalic:36"/><use x="7418" y="847.5" xlink:href="#s120:sourcesanspro-extralightitalic:50"/><use x="7932" y="847.5" xlink:href="#s120:sourcesanspro-extralightitalic:30"/><use x="8456" y="847.5" xlink:href="#s120:sourcesanspro-extralightitalic:36"/><use x="8974" y="847.5" xlink:href="#s120:sourcesanspro-extralightitalic:34"/><use x="9442" y="847.5" xlink:href="#s120:sourcesanspro-extralightitalic:48"/><use x="9826" y="847.5" xlink:href="#s120:sourcesanspro-extralightitalic:3"/><use x="10014" y="847.5" xlink:href="#s120:sourcesanspro-extralightitalic:30"/><use x="10538" y="847.5" xlink:href="#s120:sourcesanspro-extralightitalic:47"/><use x="10836" y="847.5" xlink:href="#s120:sourcesanspro-extralightitalic:34"/><use x="11304" y="847.5" xlink:href="#s120:sourcesanspro-extralightitalic:3"/><use x="11492" y="847.5" xlink:href="#s120:sourcesanspro-extralightitalic:42"/><use x="12268" y="847.5" xlink:href="#s120:sourcesanspro-extralightitalic:34"/><use x="12736" y="847.5" xlink:href="#s120:sourcesanspro-extralightitalic:42"/><use x="13512" y="847.5" xlink:href="#s120:sourcesanspro-extralightitalic:31"/><use x="14034" y="847.5" xlink:href="#s120:sourcesanspro-extralightitalic:34"/><use x="14502" y="847.5" xlink:href="#s120:sourcesanspro-extralightitalic:47"/><use x="14800" y="847.5" xlink:href="#s120:sourcesanspro-extralightitalic:48"/><use x="15184" y="847.5" xlink:href="#s120:sourcesanspro-extralightitalic:3"/><use x="15372" y="847.5" xlink:href="#s120:sourcesanspro-extralightitalic:44"/><use x="15872" y="847.5" xlink:href="#s120:sourcesanspro-extralightitalic:35"/><use x="16118" y="847.5" xlink:href="#s120:sourcesanspro-extralightitalic:3"/><use x="16306" y="847.5" xlink:href="#s120:sourcesanspro-extralightitalic:49"/><use x="16596" y="847.5" xlink:href="#s120:sourcesanspro-extralightitalic:37"/><use x="17094" y="847.5" xlink:href="#s120:sourcesanspro-extralightitalic:34"/><use x="17562" y="847.5" xlink:href="#s120:sourcesanspro-extralightitalic:3"/><use x="17750" y="847.5" xlink:href="#s120:sourcesanspro-extralightitalic:48"/><use x="18134" y="847.5" xlink:href="#s120:sourcesanspro-extralightitalic:30"/><use x="18658" y="847.5" xlink:href="#s120:sourcesanspro-extralightitalic:42"/><use x="19434" y="847.5" xlink:href="#s120:sourcesanspro-extralightitalic:34"/><use x="19902" y="847.5" xlink:href="#s120:sourcesanspro-extralightitalic:3"/><use x="20090" y="847.5" xlink:href="#s120:sourcesanspro-extralightitalic:35"/><use x="20326" y="847.5" xlink:href="#s120:sourcesanspro-extralightitalic:30"/><use x="20850" y="847.5" xlink:href="#s120:sourcesanspro-extralightitalic:42"/><use x="21626" y="847.5" xlink:href="#s120:sourcesanspro-extralightitalic:38"/><use x="21840" y="847.5" xlink:href="#s120:sourcesanspro-extralightitalic:41"/><use x="22066" y="847.5" xlink:href="#s120:sourcesanspro-extralightitalic:54"/><use x="22454" y="847.5" xlink:href="#s120:sourcesanspro-extralightitalic:509"/></g><g id="line-1"><use x="4697.5" y="2047.5" xlink:href="#s120:sourcesanspro-extralightitalic:23"/><use x="5189.5" y="2047.5" xlink:href="#s120:sourcesanspro-extralightitalic:37"/><use x="5687.5" y="2047.5" xlink:href="#s120:sourcesanspro-extralightitalic:34"/><use x="6155.5" y="2047.5" xlink:href="#s120:sourcesanspro-extralightitalic:38"/><use x="6369.5" y="2047.5" xlink:href="#s120:sourcesanspro-extralightitalic:47"/><use x="6677.5" y="2047.5" xlink:href="#s120:sourcesanspro-extralightitalic:3"/><use x="6865.5" y="2047.5" xlink:href="#s120:sourcesanspro-extralightitalic:48"/><use x="7249.5" y="2047.5" xlink:href="#s120:sourcesanspro-extralightitalic:34"/><use x="7717.5" y="2047.5" xlink:href="#s120:sourcesanspro-extralightitalic:45"/><use x="8237.5" y="2047.5" xlink:href="#s120:sourcesanspro-extralightitalic:30"/><use x="8761.5" y="2047.5" xlink:href="#s120:sourcesanspro-extralightitalic:47"/><use x="9059.5" y="2047.5" xlink:href="#s120:sourcesanspro-extralightitalic:30"/><use x="9583.5" y="2047.5" xlink:href="#s120:sourcesanspro-extralightitalic:49"/><use x="9863.5" y="2047.5" xlink:href="#s120:sourcesanspro-extralightitalic:34"/><use x="10331.5" y="2047.5" xlink:href="#s120:sourcesanspro-extralightitalic:3"/><use x="10519.5" y="2047.5" xlink:href="#s120:sourcesanspro-extralightitalic:34"/><use x="10987.5" y="2047.5" xlink:href="#s120:sourcesanspro-extralightitalic:53"/><use x="11367.5" y="2047.5" xlink:href="#s120:sourcesanspro-extralightitalic:38"/><use x="11581.5" y="2047.5" xlink:href="#s120:sourcesanspro-extralightitalic:48"/><use x="11965.5" y="2047.5" xlink:href="#s120:sourcesanspro-extralightitalic:49"/><use x="12245.5" y="2047.5" xlink:href="#s120:sourcesanspro-extralightitalic:34"/><use x="12713.5" y="2047.5" xlink:href="#s120:sourcesanspro-extralightitalic:43"/><use x="13217.5" y="2047.5" xlink:href="#s120:sourcesanspro-extralightitalic:32"/><use x="13630.5" y="2047.5" xlink:href="#s120:sourcesanspro-extralightitalic:34"/><use x="14098.5" y="2047.5" xlink:href="#s120:sourcesanspro-extralightitalic:3"/><use x="14286.5" y="2047.5" xlink:href="#s120:sourcesanspro-extralightitalic:38"/><use x="14500.5" y="2047.5" xlink:href="#s120:sourcesanspro-extralightitalic:48"/><use x="14884.5" y="2047.5" xlink:href="#s120:sourcesanspro-extralightitalic:3"/><use x="15072.5" y="2047.5" xlink:href="#s120:sourcesanspro-extralightitalic:30"/><use x="15596.5" y="2047.5" xlink:href="#s120:sourcesanspro-extralightitalic:3"/><use x="15784.5" y="2047.5" xlink:href="#s120:sourcesanspro-extralightitalic:42"/><use x="16560.5" y="2047.5" xlink:href="#s120:sourcesanspro-extralightitalic:54"/><use x="16968.5" y="2047.5" xlink:href="#s120:sourcesanspro-extralightitalic:49"/><use x="17258.5" y="2047.5" xlink:href="#s120:sourcesanspro-extralightitalic:37"/><use x="17756.5" y="2047.5" xlink:href="#s120:sourcesanspro-extralightitalic:509"/></g><g id="line-2"><use x="5732" y="3247.5" xlink:href="#s120:sourcesanspro-extralightitalic:9"/><use x="6170" y="3247.5" xlink:href="#s120:sourcesanspro-extralightitalic:44"/><use x="6670" y="3247.5" xlink:href="#s120:sourcesanspro-extralightitalic:47"/><use x="6978" y="3247.5" xlink:href="#s120:sourcesanspro-extralightitalic:3"/><use x="7166" y="3247.5" xlink:href="#s120:sourcesanspro-extralightitalic:48"/><use x="7550" y="3247.5" xlink:href="#s120:sourcesanspro-extralightitalic:32"/><use x="7978" y="3247.5" xlink:href="#s120:sourcesanspro-extralightitalic:38"/><use x="8192" y="3247.5" xlink:href="#s120:sourcesanspro-extralightitalic:34"/><use x="8660" y="3247.5" xlink:href="#s120:sourcesanspro-extralightitalic:43"/><use x="9164" y="3247.5" xlink:href="#s120:sourcesanspro-extralightitalic:32"/><use x="9577" y="3247.5" xlink:href="#s120:sourcesanspro-extralightitalic:34"/><use x="10045" y="3247.5" xlink:href="#s120:sourcesanspro-extralightitalic:510"/><use x="10247" y="3247.5" xlink:href="#s120:sourcesanspro-extralightitalic:3"/><use x="10435" y="3247.5" xlink:href="#s120:sourcesanspro-extralightitalic:42"/><use x="11211" y="3247.5" xlink:href="#s120:sourcesanspro-extralightitalic:50"/><use x="11725" y="3247.5" xlink:href="#s120:sourcesanspro-extralightitalic:48"/><use x="12109" y="3247.5" xlink:href="#s120:sourcesanspro-extralightitalic:38"/><use x="12323" y="3247.5" xlink:href="#s120:sourcesanspro-extralightitalic:32"/><use x="12751" y="3247.5" xlink:href="#s120:sourcesanspro-extralightitalic:510"/><use x="12953" y="3247.5" xlink:href="#s120:sourcesanspro-extralightitalic:3"/><use x="13141" y="3247.5" xlink:href="#s120:sourcesanspro-extralightitalic:48"/><use x="13525" y="3247.5" xlink:href="#s120:sourcesanspro-extralightitalic:45"/><use x="14045" y="3247.5" xlink:href="#s120:sourcesanspro-extralightitalic:44"/><use x="14545" y="3247.5" xlink:href="#s120:sourcesanspro-extralightitalic:47"/><use x="14853" y="3247.5" xlink:href="#s120:sourcesanspro-extralightitalic:49"/><use x="15163" y="3247.5" xlink:href="#s120:sourcesanspro-extralightitalic:510"/><use x="15365" y="3247.5" xlink:href="#s120:sourcesanspro-extralightitalic:3"/><use x="15553" y="3247.5" xlink:href="#s120:sourcesanspro-extralightitalic:34"/><use x="16006" y="3247.5" xlink:href="#s120:sourcesanspro-extralightitalic:49"/><use x="16286" y="3247.5" xlink:href="#s120:sourcesanspro-extralightitalic:32"/><use x="16714" y="3247.5" xlink:href="#s120:sourcesanspro-extralightitalic:510"/></g></svg>