<svg xmlns="http://www.w3.org/2000/svg" xmlns:xlink="http://www.w3.org/1999/xlink" width="773" height="84" viewBox="0 0 32199 3520.5"><defs><path id="s114:sourcecodepro-semibold:23" d="M242-556L36-556L36-654L564-654L564-556L358-556L358 0L242 0L242-556Z"/><path id="s114:sourcecodepro-semibold:37" d="M82-706L198-706L198-524L191-419Q225-453 267.50-478Q310-503 367-503Q452-503 492-451.50Q532-400 532-304L532 0L416 0L416-289Q416-349 395.50-376.50Q375-404 324-404Q288-404 260-387Q232-370 198-335L198 0L82 0L82-706Z"/><path id="s114:sourcecodepro-semibold:34" d="M62-245Q62-305 83.50-353Q105-401 140-434.50Q175-468 220.50-485.50Q266-503 314-503Q369-503 411.50-485.50Q454-468 483-437.50Q512-407 527-364Q542-321 542-270Q542-253 540.50-238Q539-223 537-214L180-214Q186-148 232-112.50Q278-77 345-77Q383-77 416-87.50Q449-98 483-117L522-45Q482-20 433-4Q384 12 330 12Q274 12 225-5.50Q176-23 140-56Q104-89 83-136.50Q62-184 62-245M436-292Q436-349 406-381.50Q376-414 317-414Q267-414 228-383Q189-352 179-292L436-292Z"/><path id="s114:sourcecodepro-semibold:3" d=""/><path id="s114:sourcecodepro-semibold:8" d="M104-654L522-654L522-556L220-556L220-389L476-389L476-291L220-291L220-98L532-98L532 0L104 0L104-654Z"/><path id="s114:sourcecodepro-semibold:50" d="M515 0L421 0L412-78L408-78Q373-37 331-12.50Q289 12 234 12Q148 12 109-39.50Q70-91 70-187L70-491L185-491L185-202Q185-142 205.50-114.50Q226-87 277-87Q312-87 339.50-103Q367-119 400-160L400-491L515-491L515 0Z"/><path id="s114:sourcecodepro-semibold:47" d="M130-491L225-491L235-380L238-380Q276-440 329.50-471.50Q383-503 447-503Q477-503 498.50-498.50Q520-494 542-483L518-386Q494-394 475.50-397.50Q457-401 429-401Q378-401 331-372Q284-343 246-271L246 0L130 0L130-491Z"/><path id="s114:sourcecodepro-semibold:44" d="M53-245Q53-306 73.50-354Q94-402 128-435Q162-468 207-485.50Q252-503 300-503Q348-503 393-485.50Q438-468 472-435Q506-402 526.50-354Q547-306 547-245Q547-184 526.50-136Q506-88 472-55Q438-22 393-5Q348 12 300 12Q252 12 207-5Q162-22 128-55Q94-88 73.50-136Q53-184 53-245M172-245Q172-171 206-126.50Q240-82 300-82Q360-82 394-126.50Q428-171 428-245Q428-320 394-364.50Q360-409 300-409Q240-409 206-364.50Q172-320 172-245Z"/><path id="s114:sourcecodepro-semibold:45" d="M198 40L198 194L82 194L82-491L177-491L186-435L189-435Q221-464 262.50-483.50Q304-503 346-503Q394-503 431.50-485.50Q469-468 494.50-435Q520-402 533.50-356Q547-310 547-253Q547-190 529-140.50Q511-91 480.50-57.50Q450-24 410.50-6Q371 12 329 12Q295 12 259.50-3Q224-18 194-46L198 40M198-128Q225-103 253.50-93Q282-83 305-83Q358-83 393-125.50Q428-168 428-252Q428-326 401-367Q374-408 314-408Q286-408 257-394Q228-380 198-349L198-128Z"/><path id="s114:sourcecodepro-semibold:30" d="M71-132Q71-173 90-204.50Q109-236 150-258Q191-280 255-294Q319-308 410-314Q407-356 380-383Q353-410 293-410Q251-410 210.50-394.50Q170-379 132-358L90-435Q135-461 193-482Q251-503 314-503Q417-503 471-448.50Q525-394 525-291L525 0L431 0L422-61L419-61Q380-31 332.50-9.50Q285 12 235 12Q199 12 169 1.50Q139-9 117-28Q95-47 83-73.50Q71-100 71-132M182-141Q182-108 207.50-93Q233-78 270-78Q307-78 341.50-94.50Q376-111 410-138L410-242Q344-237 300-228.50Q256-220 230-207Q204-194 193-177.50Q182-161 182-141Z"/><path id="s114:sourcecodepro-semibold:43" d="M82-491L177-491L186-417L190-417Q225-452 267.50-477.50Q310-503 367-503Q452-503 492-451.50Q532-400 532-304L532 0L416 0L416-289Q416-349 395.50-376.50Q375-404 324-404Q288-404 260-387Q232-370 198-335L198 0L82 0L82-491Z"/><path id="s114:sourcecodepro-semibold:41" d="M71-706L341-706L341-173Q341-123 366-102.50Q391-82 429-82Q465-82 513-101L540-16Q505-4 474.50 4Q444 12 401 12Q314 12 270-38Q226-88 226-179L226-615L71-615L71-706Z"/><path id="s114:sourcecodepro-semibold:36" d="M158 71Q158 104 194.50 123Q231 142 300 142Q336 142 365 135.50Q394 129 415 118Q436 107 447 92.50Q458 78 458 62Q458 33 433 23.50Q408 14 359 14L281 14Q257 14 238.50 12.50Q220 11 206 6Q180 22 169 38Q158 54 158 71M62 86Q62 57 82 30Q102 3 140-17L140-21Q120-32 105-52Q90-72 90-103Q90-128 106-152.50Q122-177 149-196L149-200Q123-218 104.50-250Q86-282 86-326Q86-368 102.50-401Q119-434 146.50-456.50Q174-479 210.50-491Q247-503 288-503Q332-503 365-491L566-491L566-406L451-406Q464-391 474-369.50Q484-348 484-322Q484-281 469-250Q454-219 427.50-198Q401-177 365-166.50Q329-156 288-156Q251-156 213-169Q183-150 183-124Q183-77 276-77L376-77Q472-77 520.50-49Q569-21 569 43Q569 79 549 111Q529 143 492.50 166.50Q456 190 403.50 203.50Q351 217 286 217Q235 217 194 209Q153 201 123.50 184.50Q94 168 78 143.50Q62 119 62 86M288-228Q326-228 354-253.50Q382-279 382-326Q382-371 354-397.50Q326-424 288-424Q250-424 222.50-397.50Q195-371 195-326Q195-279 222.50-253.50Q250-228 288-228Z"/><path id="s114:sourcecodepro-semibold:48" d="M116-137Q158-108 203.50-91.50Q249-75 306-75Q364-75 391-91.50Q418-108 418-134Q418-160 383-177.50Q348-195 273-215Q238-224 205-237Q172-250 147-267Q122-284 107-306Q92-328 92-356Q92-421 148-462Q204-503 309-503Q369-503 422-483Q475-463 513-438L460-367Q427-389 389.50-402.50Q352-416 310-416Q253-416 230-400.50Q207-385 207-362Q207-349 217.50-338.50Q228-328 246.50-319.50Q265-311 290-303Q315-295 345-288Q388-277 422.50-263.50Q457-250 481.50-233Q506-216 519.50-193Q533-170 533-140Q533-108 518-80.50Q503-53 474-32.50Q445-12 402 0Q359 12 303 12Q234 12 171-10Q108-32 62-64L116-137Z"/><path id="s114:sourcecodepro-semibold:42" d="M48-491L135-491L144-428L147-428Q164-460 188.50-481.50Q213-503 255-503Q327-503 345-421Q362-456 388.50-479.50Q415-503 456-503Q508-503 536.50-462.50Q565-422 565-348L565 0L456 0L456-339Q456-404 415-404Q395-404 380-389Q365-374 351-343L351 0L261 0L261-339Q261-404 219-404Q199-404 185-389Q171-374 157-343L157 0L48 0L48-491Z"/><path id="s114:sourcecodepro-semibold:31" d="M82-706L198-706L198-524L194-438Q226-468 266-485.50Q306-503 346-503Q394-503 431-485.50Q468-468 494-435.50Q520-403 533.50-357Q547-311 547-254Q547-191 529-141.50Q511-92 480.50-58Q450-24 410.50-6Q371 12 329 12Q294 12 256-5Q218-22 186-54L183-54L173 0L82 0L82-706M198-128Q225-103 254-93Q283-83 306-83Q358-83 393-125.50Q428-168 428-252Q428-326 401-367Q374-408 314-408Q286-408 257-394Q228-380 198-349L198-128Z"/><path id="s114:sourcecodepro-semibold:35" d="M558-606Q531-617 505.50-622Q480-627 450-627Q393-627 367.50-599.50Q342-572 342-520L342-491L529-491L529-400L342-400L342 0L228 0L228-400L92-400L92-486L228-491L228-518Q228-561 240-598Q252-635 277.50-661.50Q303-688 342.50-703Q382-718 436-718Q476-718 512.50-711Q549-704 582-691L558-606Z"/><path id="s114:sourcecodepro-semibold:49" d="M190-400L59-400L59-486L195-491L210-625L305-625L305-491L529-491L529-400L305-400L305-198Q305-137 330-108.50Q355-80 418-80Q450-80 476-85.50Q502-91 526-100L548-16Q515-5 475 3.50Q435 12 390 12Q334 12 296-3Q258-18 234.50-45.50Q211-73 200.50-112Q190-151 190-198L190-400Z"/><path id="s114:sourcecodepro-semibold:38" d="M84-491L412-491L412 0L297 0L297-400L84-400L84-491M346-577Q311-577 287.50-598Q264-619 264-654Q264-689 287.50-710.50Q311-732 346-732Q382-732 405-710.50Q428-689 428-654Q428-619 405-598Q382-577 346-577Z"/><path id="s114:sourcecodepro-semibold:54" d="M89 102Q99 105 109 107Q119 109 130 109Q177 109 205 85.50Q233 62 248 25L260-6L40-491L155-491L256-250Q270-217 283-180Q296-143 310-106L314-106Q325-141 338-178Q351-215 363-250L452-491L561-491L356 22Q340 64 320.50 97Q301 130 275 153.50Q249 177 215 189.50Q181 202 137 202Q117 202 99 199.50Q81 197 67 192L89 102L89 102Z"/><path id="s114:sourcecodepro-semibold:483" d="M201-89Q201-133 229-161.50Q257-190 300-190Q343-190 371-161.50Q399-133 399-89Q399-45 371-16.50Q343 12 300 12Q257 12 229-16.50Q201-45 201-89Z"/><path id="s114:sourcecodepro-semibold:53" d="M229-255L63-491L188-491L252-398Q264-378 278-356.50Q292-335 306-314L310-314Q321-335 334-357Q347-379 358-399L416-491L537-491L370-243L549 0L424 0L353-97Q339-117 323.50-140Q308-163 293-184L289-184Q275-162 262.50-140.50Q250-119 236-96L172 0L51 0L229-255Z"/><path id="s114:sourcecodepro-semibold:32" d="M73-245Q73-306 95.50-354Q118-402 156-435Q194-468 245-485.50Q296-503 352-503Q412-503 457.50-483Q503-463 534-434L479-362Q450-385 420.50-397Q391-409 358-409Q284-409 238-364.50Q192-320 192-245Q192-208 204-178Q216-148 237.50-126.50Q259-105 289-93.50Q319-82 355-82Q397-82 431.50-98Q466-114 495-136L543-62Q501-25 449-6.50Q397 12 344 12Q286 12 236.50-5Q187-22 150.50-55Q114-88 93.50-136Q73-184 73-245Z"/><path id="s114:sourcecodepro-semibold:9" d="M121-654L537-654L537-556L237-556L237-371L492-371L492-273L237-273L237 0L121 0L121-654Z"/><path id="s114:sourcecodepro-semibold:484" d="M189 146Q316 95 317-8Q312-7 303-7Q265-7 237-29.50Q209-52 209-96Q209-138 237.50-161.50Q266-185 305-185Q359-185 386-145Q413-105 413-35Q413 57 363 120.50Q313 184 219 215L189 146Z"/></defs><g id="line-0"><use x="0" y="847.5" xlink:href="#s114:sourcecodepro-semibold:23"/><use x="600" y="847.5" xlink:href="#s114:sourcecodepro-semibold:37"/><use x="1200" y="847.5" xlink:href="#s114:sourcecodepro-semibold:34"/><use x="1800" y="847.5" xlink:href="#s114:sourcecodepro-semibold:3"/><use x="2400" y="847.5" xlink:href="#s114:sourcecodepro-semibold:8"/><use x="3000" y="847.5" xlink:href="#s114:sourcecodepro-semibold:50"/><use x="3600" y="847.5" xlink:href="#s114:sourcecodepro-semibold:47"/><use x="4200" y="847.5" xlink:href="#s114:sourcecodepro-semibold:44"/><use x="4800" y="847.5" xlink:href="#s114:sourcecodepro-semibold:45"/><use x="5400" y="847.5" xlink:href="#s114:sourcecodepro-semibold:34"/><use x="6000" y="847.5" xlink:href="#s114:sourcecodepro-semibold:30"/><use x="6600" y="847.5" xlink:href="#s114:sourcecodepro-semibold:43"/><use x="7200" y="847.5" xlink:href="#s114:sourcecodepro-semibold:3"/><use x="7800" y="847.5" xlink:href="#s114:sourcecodepro-semibold:41"/><use x="8400" y="847.5" xlink:href="#s114:sourcecodepro-semibold:30"/><use x="9000" y="847.5" xlink:href="#s114:sourcecodepro-semibold:43"/><use x="9600" y="847.5" xlink:href="#s114:sourcecodepro-semibold:36"/><use x="10200" y="847.5" xlink:href="#s114:sourcecodepro-semibold:50"/><use x="10800" y="847.5" xlink:href="#s114:sourcecodepro-semibold:30"/><use x="11400" y="847.5" xlink:href="#s114:sourcecodepro-semibold:36"/><use x="12000" y="847.5" xlink:href="#s114:sourcecodepro-semibold:34"/><use x="12600" y="847.5" xlink:href="#s114:sourcecodepro-semibold:48"/><use x="13200" y="847.5" xlink:href="#s114:sourcecodepro-semibold:3"/><use x="13800" y="847.5" xlink:href="#s114:sourcecodepro-semibold:30"/><use x="14400" y="847.5" xlink:href="#s114:sourcecodepro-semibold:47"/><use x="15000" y="847.5" xlink:href="#s114:sourcecodepro-semibold:34"/><use x="15600" y="847.5" xlink:href="#s114:sourcecodepro-semibold:3"/><use x="16200" y="847.5" xlink:href="#s114:sourcecodepro-semibold:42"/><use x="16800" y="847.5" xlink:href="#s114:sourcecodepro-semibold:34"/><use x="17400" y="847.5" xlink:href="#s114:sourcecodepro-semibold:42"/><use x="18000" y="847.5" xlink:href="#s114:sourcecodepro-semibold:31"/><use x="18600" y="847.5" xlink:href="#s114:sourcecodepro-semibold:34"/><use x="19200" y="847.5" xlink:href="#s114:sourcecodepro-semibold:47"/><use x="19800" y="847.5" xlink:href="#s114:sourcecodepro-semibold:48"/><use x="20400" y="847.5" xlink:href="#s114:sourcecodepro-semibold:3"/><use x="21000" y="847.5" xlink:href="#s114:sourcecodepro-semibold:44"/><use x="21600" y="847.5" xlink:href="#s114:sourcecodepro-semibold:35"/><use x="22200" y="847.5" xlink:href="#s114:sourcecodepro-semibold:3"/><use x="22800" y="847.5" xlink:href="#s114:sourcecodepro-semibold:49"/><use x="23400" y="847.5" xlink:href="#s114:sourcecodepro-semibold:37"/><use x="24000" y="847.5" xlink:href="#s114:sourcecodepro-semibold:34"/><use x="24600" y="847.5" xlink:href="#s114:sourcecodepro-semibold:3"/><use x="25200" y="847.5" xlink:href="#s114:sourcecodepro-semibold:48"/><use x="25800" y="847.5" xlink:href="#s114:sourcecodepro-semibold:30"/><use x="26400" y="847.5" xlink:href="#s114:sourcecodepro-semibold:42"/><use x="27000" y="847.5" xlink:href="#s114:sourcecodepro-semibold:34"/><use x="27600" y="847.5" xlink:href="#s114:sourcecodepro-semibold:3"/><use x="28200" y="847.5" xlink:href="#s114:sourcecodepro-semibold:35"/><use x="28800" y="847.5" xlink:href="#s114:sourcecodepro-semibold:30"/><use x="29400" y="847.5" xlink:href="#s114:sourcecodepro-semibold:42"/><use x="30000" y="847.5" xlink:href="#s114:sourcecodepro-semibold:38"/><use x="30600" y="847.5" xlink:href="#s114:sourcecodepro-semibold:41"/><use x="31200" y="847.5" xlink:href="#s114:sourcecodepro-semibold:54"/><use x="31800" y="847.5" xlink:href="#s114:sourcecodepro-semibold:483"/></g><g id="line-1"><use x="5700" y="2047.5" xlink:href="#s114:sourcecodepro-semibold:23"/><use x="6300" y="2047.5" xlink:href="#s114:sourcecodepro-semibold:37"/><use x="6900" y="2047.5" xlink:href="#s114:sourcecodepro-semibold:34"/><use x="7500" y="2047.5" xlink:href="#s114:sourcecodepro-semibold:38"/><use x="8100" y="2047.5" xlink:href="#s114:sourcecodepro-semibold:47"/><use x="8700" y="2047.5" xlink:href="#s114:sourcecodepro-semibold:3"/><use x="9300" y="2047.5" xlink:href="#s114:sourcecodepro-semibold:48"/><use x="9900" y="2047.5" xlink:href="#s114:sourcecodepro-semibold:34"/><use x="10500" y="2047.5" xlink:href="#s114:sourcecodepro-semibold:45"/><use x="11100" y="2047.5" xlink:href="#s114:sourcecodepro-semibold:30"/><use x="11700" y="2047.5" xlink:href="#s114:sourcecodepro-semibold:47"/><use x="12300" y="2047.5" xlink:href="#s114:sourcecodepro-semibold:30"/><use x="12900" y="2047.5" xlink:href="#s114:sourcecodepro-semibold:49"/><use x="13500" y="2047.5" xlink:href="#s114:sourcecodepro-semibold:34"/><use x="14100" y="2047.5" xlink:href="#s114:sourcecodepro-semibold:3"/><use x="14700" y="2047.5" xlink:href="#s114:sourcecodepro-semibold:34"/><use x="15300" y="2047.5" xlink:href="#s114:sourcecodepro-semibold:53"/><use x="15900" y="2047.5" xlink:href="#s114:sourcecodepro-semibold:38"/><use x="16500" y="2047.5" xlink:href="#s114:sourcecodepro-semibold:48"/><use x="17100" y="2047.5" xlink:href="#s114:sourcecodepro-semibold:49"/><use x="17700" y="2047.5" xlink:href="#s114:sourcecodepro-semibold:34"/><use x="18300" y="2047.5" xlink:href="#s114:sourcecodepro-semibold:43"/><use x="18900" y="2047.5" xlink:href="#s114:sourcecodepro-semibold:32"/><use x="19500" y="2047.5" xlink:href="#s114:sourcecodepro-semibold:34"/><use x="20100" y="2047.5" xlink:href="#s114:sourcecodepro-semibold:3"/><use x="20700" y="2047.5" xlink:href="#s114:sourcecodepro-semibold:38"/><use x="21300" y="2047.5" xlink:href="#s114:sourcecodepro-semibold:48"/><use x="21900" y="2047.5" xlink:href="#s114:sourcecodepro-semibold:3"/><use x="22500" y="2047.5" xlink:href="#s114:sourcecodepro-semibold:30"/><use x="23100" y="2047.5" xlink:href="#s114:sourcecodepro-semibold:3"/><use x="23700" y="2047.5" xlink:href="#s114:sourcecodepro-semibold:42"/><use x="24300" y="2047.5" xlink:href="#s114:sourcecodepro-semibold:54"/><use x="24900" y="2047.5" xlink:href="#s114:sourcecodepro-semibold:49"/><use x="25500" y="2047.5" xlink:href="#s114:sourcecodepro-semibold:37"/><use x="26100" y="2047.5" xlink:href="#s114:sourcecodepro-semibold:483"/></g><g id="line-2"><use x="6893" y="3247.5" xlink:href="#s114:sourcecodepro-semibold:9"/><use x="7493" y="3247.5" xlink:href="#s114:sourcecodepro-semibold:44"/><use x="8093" y="3247.5" xlink:href="#s114:sourcecodepro-semibold:47"/><use x="8693" y="3247.5" xlink:href="#s114:sourcecodepro-semibold:3"/><use x="9293" y="3247.5" xlink:href="#s114:sourcecodepro-semibold:48"/><use x="9893" y="3247.5" xlink:href="#s114:sourcecodepro-semibold:32"/><use x="10493" y="3247.5" xlink:href="#s114:sourcecodepro-semibold:38"/><use x="11093" y="3247.5" xlink:href="#s114:sourcecodepro-semibold:34"/><use x="11693" y="3247.5" xlink:href="#s114:sourcecodepro-semibold:43"/><use x="12293" y="3247.5" xlink:href="#s114:sourcecodepro-semibold:32"/><use x="12893" y="3247.5" xlink:href="#s114:sourcecodepro-semibold:34"/><use x="13493" y="3247.5" xlink:href="#s114:sourcecodepro-semibold:484"/><use x="14093" y="3247.5" xlink:href="#s114:sourcecodepro-semibold:3"/><use x="14693" y="3247.5" xlink:href="#s114:sourcecodepro-semibold:42"/><use x="15293" y="3247.5" xlink:href="#s114:sourcecodepro-semibold:50"/><use x="15893" y="3247.5" xlink:href="#s114:sourcecodepro-semibold:48"/><use x="16493" y="3247.5" xlink:href="#s114:sourcecodepro-semibold:38"/><use x="17093" y="3247.5" xlink:href="#s114:sourcecodepro-semibold:32"/><use x="17693" y="3247.5" xlink:href="#s114:sourcecodepro-semibold:484"/><use x="18293" y="3247.5" xlink:href="#s114:sourcecodepro-semibold:3"/><use x="18893" y="3247.5" xlink:href="#s114:sourcecodepro-semibold:48"/><use x="19493" y="3247.5" xlink:href="#s114:sourcecodepro-semibold:45"/><use x="20093" y="3247.5" xlink:href="#s114:sourcecodepro-semibold:44"/><use x="20693" y="3247.5" xlink:href="#s114:sourcecodepro-semibold:47"/><use x="21293" y="3247.5" xlink:href="#s114:sourcecodepro-semibold:49"/><use x="21893" y="3247.5" xlink:href="#s114:sourcecodepro-semibold:484"/><use x="22493" y="3247.5" xlink:href="#s114:sourcecodepro-semibold:3"/><use x="23093" y="3247.5" xlink:href="#s114:sourcecodepro-semibold:34"/><use x="23693" y="3247.5" xlink:href="#s114:sourcecodepro-semibold:49"/><use x="24293" y="3247.5" xlink:href="#s114:sourcecodepro-semibold:32"/><use x="24893" y="3247.5" xlink:href="#s114:sourcecodepro-semibold:484"/></g></svg>