<svg xmlns="http://www.w3.org/2000/svg" xmlns:xlink="http://www.w3.org/1999/xlink" width="578" height="84" viewBox="0 0 24066 3520.5"><defs><path id="s126:sourcesanspro-semibolditalic:23" d="M269-562L88-562L106-654L576-654L558-562L377-562L265 0L157 0L269-562Z"/><path id="s126:sourcesanspro-semibolditalic:37" d="M164-706L271-706L228-498L209-427L213-427Q251-459 290.50-481Q330-503 375-503Q437-503 464-471Q491-439 491-379Q491-362 489.50-346Q488-330 483-310L421 0L314 0L374-296Q377-313 379.50-325Q382-337 382-348Q382-411 320-411Q294-411 264.50-393Q235-375 196-335L130 0L22 0L164-706Z"/><path id="s126:sourcesanspro-semibolditalic:34" d="M33-196Q33-265 56.50-321.50Q80-378 118.50-418.50Q157-459 205-481Q253-503 301-503Q344-503 373.50-489Q403-475 421.50-450.50Q440-426 448.50-393Q457-360 457-322Q457-290 449-260Q441-230 436-218L137-218Q133-179 141-151Q149-123 165.50-105Q182-87 206-78.50Q230-70 258-70Q284-70 311-82Q338-94 358-109L398-40Q368-19 325.50-3.50Q283 12 230 12Q186 12 150-2Q114-16 88-42.50Q62-69 47.50-107.50Q33-146 33-196M363-286Q365-296 366.50-306.50Q368-317 368-329Q368-365 350.50-392.50Q333-420 288-420Q243-420 203.50-384.50Q164-349 146-286L363-286Z"/><path id="s126:sourcesanspro-semibolditalic:3" d=""/><path id="s126:sourcesanspro-semibolditalic:8" d="M162-654L537-654L519-563L251-563L216-387L443-387L425-296L199-296L157-91L433-91L415 0L32 0L162-654Z"/><path id="s126:sourcesanspro-semibolditalic:50" d="M415 0L328 0L332-70L328-70Q291-37 250-12.50Q209 12 164 12Q102 12 74.50-20.50Q47-53 47-112Q47-129 49-145.50Q51-162 55-181L117-491L224-491L165-195Q161-178 159-166Q157-154 157-143Q157-80 218-80Q267-80 339-156L405-491L512-491L415 0Z"/><path id="s126:sourcesanspro-semibolditalic:47" d="M120-491L207-491L198-396L202-396Q231-442 270-472.50Q309-503 354-503Q383-503 403-494L367-400Q358-405 346-406.50Q334-408 321-408Q286-408 252-381Q218-354 188-297L130 0L22 0L120-491Z"/><path id="s126:sourcesanspro-semibolditalic:44" d="M217 12Q176 12 142-2Q108-16 84-42Q60-68 47-105Q34-142 34-188Q34-258 57.50-316.50Q81-375 119-416Q157-457 205.50-480Q254-503 304-503Q388-503 438-449.50Q488-396 488-303Q488-233 464.50-175Q441-117 403-75.50Q365-34 316.50-11Q268 12 217 12M293-416Q264-416 236.50-398.50Q209-381 188-351Q167-321 154.50-280Q142-239 142-192Q142-136 164-105.50Q186-75 229-75Q258-75 285-92.50Q312-110 333-140.50Q354-171 366.50-212Q379-253 379-300Q379-356 357-386Q335-416 293-416Z"/><path id="s126:sourcesanspro-semibolditalic:45" d="M118 48L90 194L-17 194L121-491L208-491L206-431L209-431Q244-462 285-482.50Q326-503 368-503Q434-503 471-457Q508-411 508-324Q508-253 486-192Q464-131 427-85.50Q390-40 343-14Q296 12 245 12Q210 12 182-5.50Q154-23 136-52L134-52L118 48M324-415Q295-415 261-397.50Q227-380 199-344L157-134Q173-103 194-89.50Q215-76 238-76Q269-76 298-94.50Q327-113 349-145Q371-177 384.50-219.50Q398-262 398-310Q398-364 378-389.50Q358-415 324-415Z"/><path id="s126:sourcesanspro-semibolditalic:30" d="M35-167Q35-237 57-298.50Q79-360 116-405.50Q153-451 200.50-477Q248-503 299-503Q335-503 365-484.50Q395-466 412-434L414-434L435-491L521-491L423 0L335 0L340-68L337-68Q302-32 259.50-10Q217 12 175 12Q110 12 72.50-34Q35-80 35-167M219-76Q251-76 284.50-95Q318-114 348-159L388-355Q371-387 349.50-401Q328-415 305-415Q274-415 245-396.50Q216-378 194-346Q172-314 159-271.50Q146-229 146-182Q146-128 165.50-102Q185-76 219-76Z"/><path id="s126:sourcesanspro-semibolditalic:43" d="M120-491L207-491L202-422L206-422Q245-455 286.50-479Q328-503 375-503Q437-503 464-471Q491-439 491-379Q491-362 489.50-346Q488-330 483-310L421 0L314 0L374-296Q377-313 379.50-325Q382-337 382-348Q382-411 320-411Q294-411 264.50-393Q235-375 196-335L130 0L22 0L120-491Z"/><path id="s126:sourcesanspro-semibolditalic:41" d="M164-706L271-706L153-115Q151-107 151-103Q151-99 151-96Q151-75 168-75Q173-75 176-75.50Q179-76 186-78L184 2Q173 7 158 9.50Q143 12 123 12Q80 12 60-9Q40-30 40-68Q40-91 47-120L164-706Z"/><path id="s126:sourcesanspro-semibolditalic:36" d="M515-491L415 7Q394 111 331 164.50Q268 218 170 218Q123 218 77.50 200Q32 182-7 150L41 78Q69 101 102 116.50Q135 132 173 132Q229 132 263 99.50Q297 67 313 8L337-83L334-83Q299-50 260.50-30Q222-10 178-10Q116-10 75.50-53.50Q35-97 35-183Q35-250 56.50-308Q78-366 114-409.50Q150-453 196.50-478Q243-503 293-503Q329-503 358.50-484.50Q388-466 404-434L407-434L428-491L515-491M217-99Q246-99 280.50-116.50Q315-134 344-173L381-355Q364-387 343-401Q322-415 299-415Q269-415 241.50-397.50Q214-380 192.50-350Q171-320 158.50-280.50Q146-241 146-197Q146-147 165.50-123Q185-99 217-99Z"/><path id="s126:sourcesanspro-semibolditalic:48" d="M58-134Q82-102 111.50-85Q141-68 174-68Q209-68 234.50-86.50Q260-105 260-132Q260-155 239-171.50Q218-188 172-214Q123-241 95-273Q67-305 67-350Q67-383 81-411.50Q95-440 119.50-460Q144-480 176.50-491.50Q209-503 246-503Q294-503 332.50-483Q371-463 400-433L340-376Q321-395 298-408.50Q275-422 246-422Q212-422 190-404Q168-386 168-360Q168-346 175-336Q182-326 194-317Q206-308 221-300Q236-292 252-283Q307-254 334-222Q361-190 361-145Q361-109 346.50-80Q332-51 306-30.50Q280-10 244 1Q208 12 166 12Q143 12 118.50 5Q94-2 71-14Q48-26 28-43.50Q8-61-6-82L58-134Z"/><path id="s126:sourcesanspro-semibolditalic:42" d="M120-491L207-491L202-422L206-422Q244-455 285-479Q326-503 366-503Q394-503 414-496Q434-489 447.50-477Q461-465 468.50-448.50Q476-432 480-412Q524-454 567-478.50Q610-503 650-503Q711-503 738.50-471Q766-439 766-379Q766-362 764-346Q762-330 758-310L696 0L588 0L648-296Q652-313 654-325Q656-337 656-348Q656-411 596-411Q577-411 547-393Q517-375 479-335L412 0L305 0L364-296Q368-313 370-325Q372-337 372-348Q372-411 313-411Q293-411 263-393Q233-375 196-335L130 0L22 0L120-491Z"/><path id="s126:sourcesanspro-semibolditalic:31" d="M22 0L164-706L271-706L236-532L212-438L214-438Q249-466 288-484.50Q327-503 368-503Q434-503 471-457.50Q508-412 508-324Q508-253 486-192Q464-131 427-85.50Q390-40 343-14Q296 12 245 12Q208 12 179.50-6.50Q151-25 134-57L132-57L111 0L22 0M324-415Q295-415 261-397.50Q227-380 199-344L157-136Q173-104 194-90Q215-76 238-76Q269-76 298-94.50Q327-113 349-145Q371-177 384.50-219.50Q398-262 398-310Q398-364 378-389.50Q358-415 324-415Z"/><path id="s126:sourcesanspro-semibolditalic:35" d="M74-486L139-491L150-548Q165-623 207-670.50Q249-718 323-718Q351-718 375-711Q399-704 420-693L384-617Q375-622 361.50-627Q348-632 333-632Q303-632 284-612.50Q265-593 257-551L245-491L338-491L321-406L227-406L147 0L40 0L121-406L58-406L74-486Z"/><path id="s126:sourcesanspro-semibolditalic:49" d="M122-406L53-406L69-486L144-491L183-623L273-623L247-491L365-491L348-406L228-406L178-162Q175-144 175-127Q175-100 188-86.50Q201-73 232-73Q245-73 256-77Q267-81 278-86L298-10Q280-2 254 5Q228 12 194 12Q125 12 95.50-22.50Q66-57 66-108Q66-123 68-137Q70-151 72-166L122-406Z"/><path id="s126:sourcesanspro-semibolditalic:38" d="M121-491L228-491L130 0L22 0L121-491M200-578Q177-578 158-592.50Q139-607 139-634Q139-663 160-683.50Q181-704 211-704Q234-704 253-689.50Q272-675 272-648Q272-618 251-598Q230-578 200-578Z"/><path id="s126:sourcesanspro-semibolditalic:54" d="M-14 106Q3 116 22 116Q54 116 83 91.50Q112 67 132 25L147-5L62-491L169-491L200-243Q204-210 207-170.50Q210-131 212-96L216-96Q233-131 250.50-169.50Q268-208 285-243L407-491L511-491L235 26Q212 66 188.50 98.50Q165 131 139 154Q113 177 82.50 189.50Q52 202 15 202Q3 202-15.50 197Q-34 192-48 184L-14 106L-14 106Z"/><path id="s126:sourcesanspro-semibolditalic:509" d="M82 12Q55 12 39-5.50Q23-23 23-50Q23-66 29-81.50Q35-97 46.50-109Q58-121 73-128.50Q88-136 106-136Q133-136 148.50-118Q164-100 164-73Q164-57 158-41.50Q152-26 141.50-14Q131-2 115.50 5Q100 12 82 12Z"/><path id="s126:sourcesanspro-semibolditalic:53" d="M172-262L83-491L192-491L228-395Q235-373 241-353Q247-333 254-312L258-312Q272-332 286.50-353Q301-374 315-395L383-491L498-491L301-238L396 0L286 0L249-100Q241-122 233-144.50Q225-167 217-188L213-188Q199-167 183.50-145.50Q168-124 151-101L74 0L-42 0L172-262Z"/><path id="s126:sourcesanspro-semibolditalic:32" d="M33-188Q33-254 55.50-311.50Q78-369 116.50-411.50Q155-454 206.50-478.50Q258-503 315-503Q360-503 392-485Q424-467 444-443L384-378Q367-398 350-407Q333-416 308-416Q275-416 245-398Q215-380 192.50-349.50Q170-319 156.50-278.50Q143-238 143-192Q143-136 167.50-105.50Q192-75 242-75Q271-75 293.50-86.50Q316-98 335-113L381-45Q353-25 314.50-6.50Q276 12 220 12Q179 12 145-1.50Q111-15 86-40.50Q61-66 47-103Q33-140 33-188Z"/><path id="s126:sourcesanspro-semibolditalic:9" d="M162-654L537-654L519-563L251-563L213-370L440-370L422-279L196-279L140 0L32 0L162-654Z"/><path id="s126:sourcesanspro-semibolditalic:510" d="M-29 115Q23 98 53 68Q83 38 92 2Q63 2 44.50-14Q26-30 26-58Q26-88 47-112Q68-136 104-136Q138-136 156-114Q174-92 174-54Q174-12 160.50 25.50Q147 63 122 93Q97 123 62 144.50Q27 166-16 176L-29 115Z"/></defs><g id="line-0"><use x="0" y="847.5" xlink:href="#s126:sourcesanspro-semibolditalic:23"/><use x="521" y="847.5" xlink:href="#s126:sourcesanspro-semibolditalic:37"/><use x="1054" y="847.5" xlink:href="#s126:sourcesanspro-semibolditalic:34"/><use x="1542" y="847.5" xlink:href="#s126:sourcesanspro-semibolditalic:3"/><use x="1737" y="847.5" xlink:href="#s126:sourcesanspro-semibolditalic:8"/><use x="2252" y="847.5" xlink:href="#s126:sourcesanspro-semibolditalic:50"/><use x="2789" y="847.5" xlink:href="#s126:sourcesanspro-semibolditalic:47"/><use x="3142" y="847.5" xlink:href="#s126:sourcesanspro-semibolditalic:44"/><use x="3666" y="847.5" xlink:href="#s126:sourcesanspro-semibolditalic:45"/><use x="4210" y="847.5" xlink:href="#s126:sourcesanspro-semibolditalic:34"/><use x="4698" y="847.5" xlink:href="#s126:sourcesanspro-semibolditalic:30"/><use x="5242" y="847.5" xlink:href="#s126:sourcesanspro-semibolditalic:43"/><use x="5781" y="847.5" xlink:href="#s126:sourcesanspro-semibolditalic:3"/><use x="5976" y="847.5" xlink:href="#s126:sourcesanspro-semibolditalic:41"/><use x="6238" y="847.5" xlink:href="#s126:sourcesanspro-semibolditalic:30"/><use x="6782" y="847.5" xlink:href="#s126:sourcesanspro-semibolditalic:43"/><use x="7321" y="847.5" xlink:href="#s126:sourcesanspro-semibolditalic:36"/><use x="7859" y="847.5" xlink:href="#s126:sourcesanspro-semibolditalic:50"/><use x="8396" y="847.5" xlink:href="#s126:sourcesanspro-semibolditalic:30"/><use x="8940" y="847.5" xlink:href="#s126:sourcesanspro-semibolditalic:36"/><use x="9478" y="847.5" xlink:href="#s126:sourcesanspro-semibolditalic:34"/><use x="9966" y="847.5" xlink:href="#s126:sourcesanspro-semibolditalic:48"/><use x="10379" y="847.5" xlink:href="#s126:sourcesanspro-semibolditalic:3"/><use x="10574" y="847.5" xlink:href="#s126:sourcesanspro-semibolditalic:30"/><use x="11118" y="847.5" xlink:href="#s126:sourcesanspro-semibolditalic:47"/><use x="11471" y="847.5" xlink:href="#s126:sourcesanspro-semibolditalic:34"/><use x="11959" y="847.5" xlink:href="#s126:sourcesanspro-semibolditalic:3"/><use x="12154" y="847.5" xlink:href="#s126:sourcesanspro-semibolditalic:42"/><use x="12967" y="847.5" xlink:href="#s126:sourcesanspro-semibolditalic:34"/><use x="13455" y="847.5" xlink:href="#s126:sourcesanspro-semibolditalic:42"/><use x="14268" y="847.5" xlink:href="#s126:sourcesanspro-semibolditalic:31"/><use x="14813" y="847.5" xlink:href="#s126:sourcesanspro-semibolditalic:34"/><use x="15301" y="847.5" xlink:href="#s126:sourcesanspro-semibolditalic:47"/><use x="15660" y="847.5" xlink:href="#s126:sourcesanspro-semibolditalic:48"/><use x="16073" y="847.5" xlink:href="#s126:sourcesanspro-semibolditalic:3"/><use x="16268" y="847.5" xlink:href="#s126:sourcesanspro-semibolditalic:44"/><use x="16792" y="847.5" xlink:href="#s126:sourcesanspro-semibolditalic:35"/><use x="17097" y="847.5" xlink:href="#s126:sourcesanspro-semibolditalic:3"/><use x="17292" y="847.5" xlink:href="#s126:sourcesanspro-semibolditalic:49"/><use x="17638" y="847.5" xlink:href="#s126:sourcesanspro-semibolditalic:37"/><use x="18171" y="847.5" xlink:href="#s126:sourcesanspro-semibolditalic:34"/><use x="18659" y="847.5" xlink:href="#s126:sourcesanspro-semibolditalic:3"/><use x="18854" y="847.5" xlink:href="#s126:sourcesanspro-semibolditalic:48"/><use x="19267" y="847.5" xlink:href="#s126:sourcesanspro-semibolditalic:30"/><use x="19811" y="847.5" xlink:href="#s126:sourcesanspro-semibolditalic:42"/><use x="20624" y="847.5" xlink:href="#s126:sourcesanspro-semibolditalic:34"/><use x="21112" y="847.5" xlink:href="#s126:sourcesanspro-semibolditalic:3"/><use x="21307" y="847.5" xlink:href="#s126:sourcesanspro-semibolditalic:35"/><use x="21602" y="847.5" xlink:href="#s126:sourcesanspro-semibolditalic:30"/><use x="22146" y="847.5" xlink:href="#s126:sourcesanspro-semibolditalic:42"/><use x="22959" y="847.5" xlink:href="#s126:sourcesanspro-semibolditalic:38"/><use x="23210" y="847.5" xlink:href="#s126:sourcesanspro-semibolditalic:41"/><use x="23472" y="847.5" xlink:href="#s126:sourcesanspro-semibolditalic:54"/><use x="23902" y="847.5" xlink:href="#s126:sourcesanspro-semibolditalic:509"/></g><g id="line-1"><use x="4902" y="2047.5" xlink:href="#s126:sourcesanspro-semibolditalic:23"/><use x="5423" y="2047.5" xlink:href="#s126:sourcesanspro-semibolditalic:37"/><use x="5956" y="2047.5" xlink:href="#s126:sourcesanspro-semibolditalic:34"/><use x="6444" y="2047.5" xlink:href="#s126:sourcesanspro-semibolditalic:38"/><use x="6695" y="2047.5" xlink:href="#s126:sourcesanspro-semibolditalic:47"/><use x="7058" y="2047.5" xlink:href="#s126:sourcesanspro-semibolditalic:3"/><use x="7253" y="2047.5" xlink:href="#s126:sourcesanspro-semibolditalic:48"/><use x="7666" y="2047.5" xlink:href="#s126:sourcesanspro-semibolditalic:34"/><use x="8154" y="2047.5" xlink:href="#s126:sourcesanspro-semibolditalic:45"/><use x="8698" y="2047.5" xlink:href="#s126:sourcesanspro-semibolditalic:30"/><use x="9242" y="2047.5" xlink:href="#s126:sourcesanspro-semibolditalic:47"/><use x="9595" y="2047.5" xlink:href="#s126:sourcesanspro-semibolditalic:30"/><use x="10139" y="2047.5" xlink:href="#s126:sourcesanspro-semibolditalic:49"/><use x="10473" y="2047.5" xlink:href="#s126:sourcesanspro-semibolditalic:34"/><use x="10961" y="2047.5" xlink:href="#s126:sourcesanspro-semibolditalic:3"/><use x="11156" y="2047.5" xlink:href="#s126:sourcesanspro-semibolditalic:34"/><use x="11644" y="2047.5" xlink:href="#s126:sourcesanspro-semibolditalic:53"/><use x="12104" y="2047.5" xlink:href="#s126:sourcesanspro-semibolditalic:38"/><use x="12355" y="2047.5" xlink:href="#s126:sourcesanspro-semibolditalic:48"/><use x="12768" y="2047.5" xlink:href="#s126:sourcesanspro-semibolditalic:49"/><use x="13102" y="2047.5" xlink:href="#s126:sourcesanspro-semibolditalic:34"/><use x="13590" y="2047.5" xlink:href="#s126:sourcesanspro-semibolditalic:43"/><use x="14129" y="2047.5" xlink:href="#s126:sourcesanspro-semibolditalic:32"/><use x="14553" y="2047.5" xlink:href="#s126:sourcesanspro-semibolditalic:34"/><use x="15041" y="2047.5" xlink:href="#s126:sourcesanspro-semibolditalic:3"/><use x="15236" y="2047.5" xlink:href="#s126:sourcesanspro-semibolditalic:38"/><use x="15487" y="2047.5" xlink:href="#s126:sourcesanspro-semibolditalic:48"/><use x="15900" y="2047.5" xlink:href="#s126:sourcesanspro-semibolditalic:3"/><use x="16095" y="2047.5" xlink:href="#s126:sourcesanspro-semibolditalic:30"/><use x="16639" y="2047.5" xlink:href="#s126:sourcesanspro-semibolditalic:3"/><use x="16834" y="2047.5" xlink:href="#s126:sourcesanspro-semibolditalic:42"/><use x="17647" y="2047.5" xlink:href="#s126:sourcesanspro-semibolditalic:54"/><use x="18121" y="2047.5" xlink:href="#s126:sourcesanspro-semibolditalic:49"/><use x="18467" y="2047.5" xlink:href="#s126:sourcesanspro-semibolditalic:37"/><use x="19000" y="2047.5" xlink:href="#s126:sourcesanspro-semibolditalic:509"/></g><g id="line-2"><use x="6004.5" y="3247.5" xlink:href="#s126:sourcesanspro-semibolditalic:9"/><use x="6483.5" y="3247.5" xlink:href="#s126:sourcesanspro-semibolditalic:44"/><use x="7007.5" y="3247.5" xlink:href="#s126:sourcesanspro-semibolditalic:47"/><use x="7370.5" y="3247.5" xlink:href="#s126:sourcesanspro-semibolditalic:3"/><use x="7565.5" y="3247.5" xlink:href="#s126:sourcesanspro-semibolditalic:48"/><use x="7978.5" y="3247.5" xlink:href="#s126:sourcesanspro-semibolditalic:32"/><use x="8417.5" y="3247.5" xlink:href="#s126:sourcesanspro-semibolditalic:38"/><use x="8668.5" y="3247.5" xlink:href="#s126:sourcesanspro-semibolditalic:34"/><use x="9156.5" y="3247.5" xlink:href="#s126:sourcesanspro-semibolditalic:43"/><use x="9695.5" y="3247.5" xlink:href="#s126:sourcesanspro-semibolditalic:32"/><use x="10119.5" y="3247.5" xlink:href="#s126:sourcesanspro-semibolditalic:34"/><use x="10607.5" y="3247.5" xlink:href="#s126:sourcesanspro-semibolditalic:510"/><use x="10874.5" y="3247.5" xlink:href="#s126:sourcesanspro-semibolditalic:3"/><use x="11069.5" y="3247.5" xlink:href="#s126:sourcesanspro-semibolditalic:42"/><use x="11882.5" y="3247.5" xlink:href="#s126:sourcesanspro-semibolditalic:50"/><use x="12419.5" y="3247.5" xlink:href="#s126:sourcesanspro-semibolditalic:48"/><use x="12832.5" y="3247.5" xlink:href="#s126:sourcesanspro-semibolditalic:38"/><use x="13083.5" y="3247.5" xlink:href="#s126:sourcesanspro-semibolditalic:32"/><use x="13522.5" y="3247.5" xlink:href="#s126:sourcesanspro-semibolditalic:510"/><use x="13789.5" y="3247.5" xlink:href="#s126:sourcesanspro-semibolditalic:3"/><use x="13984.5" y="3247.5" xlink:href="#s126:sourcesanspro-semibolditalic:48"/><use x="14397.5" y="3247.5" xlink:href="#s126:sourcesanspro-semibolditalic:45"/><use x="14941.5" y="3247.5" xlink:href="#s126:sourcesanspro-semibolditalic:44"/><use x="15465.5" y="3247.5" xlink:href="#s126:sourcesanspro-semibolditalic:47"/><use x="15828.5" y="3247.5" xlink:href="#s126:sourcesanspro-semibolditalic:49"/><use x="16182.5" y="3247.5" xlink:href="#s126:sourcesanspro-semibolditalic:510"/><use x="16449.5" y="3247.5" xlink:href="#s126:sourcesanspro-semibolditalic:3"/><use x="16644.5" y="3247.5" xlink:href="#s126:sourcesanspro-semibolditalic:34"/><use x="17114.5" y="3247.5" xlink:href="#s126:sourcesanspro-semibolditalic:49"/><use x="17448.5" y="3247.5" xlink:href="#s126:sourcesanspro-semibolditalic:32"/><use x="17887.5" y="3247.5" xlink:href="#s126:sourcesanspro-semibolditalic:510"/></g></svg>