<svg xmlns="http://www.w3.org/2000/svg" xmlns:xlink="http://www.w3.org/1999/xlink" width="558" height="84" viewBox="0 0 23246 3520.5"><defs><path id="s122:sourcesanspro-light:23" d="M239-619L29-619L29-659L495-659L495-619L285-619L285 0L239 0L239-619Z"/><path id="s122:sourcesanspro-light:37" d="M92-719L136-719L136-511L136-405Q174-443 213-467.50Q252-492 302-492Q377-492 412-447Q447-402 447-308L447 0L403 0L403-302Q403-379 377.50-415.50Q352-452 293-452Q250-452 215-429.50Q180-407 136-362L136 0L92 0L92-719Z"/><path id="s122:sourcesanspro-light:34" d="M52-239Q52-298 69.50-345Q87-392 116.50-424.50Q146-457 183.50-474.50Q221-492 261-492Q347-492 396-434Q445-376 445-270Q445-261 445-252Q445-243 443-234L97-234Q98-189 111-150.50Q124-112 147.50-84.50Q171-57 204-41.50Q237-26 278-26Q317-26 348.50-37.50Q380-49 407-69L425-35Q396-18 361.50-3Q327 12 274 12Q228 12 187.50-5Q147-22 117-54.50Q87-87 69.50-133.50Q52-180 52-239M403-268Q403-361 365-407.50Q327-454 262-454Q231-454 203-441Q175-428 152.50-404Q130-380 115.50-345.50Q101-311 97-268L403-268Z"/><path id="s122:sourcesanspro-light:3" d=""/><path id="s122:sourcesanspro-light:8" d="M97-659L458-659L458-619L143-619L143-370L407-370L407-330L143-330L143-40L468-40L468 0L97 0L97-659Z"/><path id="s122:sourcesanspro-light:50" d="M85-480L129-480L129-178Q129-101 154.50-64.50Q180-28 238-28Q281-28 316-51.50Q351-75 393-126L393-480L437-480L437 0L400 0L395-80L393-80Q358-38 319-13Q280 12 230 12Q155 12 120-33Q85-78 85-172L85-480Z"/><path id="s122:sourcesanspro-light:47" d="M92-480L130-480L134-391L137-391Q161-436 195.50-464Q230-492 273-492Q287-492 298-490Q309-488 321-482L311-442Q299-447 290-448.50Q281-450 267-450Q235-450 199.50-422.50Q164-395 136-327L136 0L92 0L92-480Z"/><path id="s122:sourcesanspro-light:44" d="M52-239Q52-299 69.50-346.50Q87-394 116.50-426Q146-458 185-475Q224-492 267-492Q310-492 349.50-475Q389-458 418.50-426Q448-394 465.50-346.50Q483-299 483-239Q483-179 465.50-132.50Q448-86 418.50-54Q389-22 349.50-5Q310 12 267 12Q224 12 185-5Q146-22 116.50-54Q87-86 69.50-132.50Q52-179 52-239M98-239Q98-192 111-153Q124-114 146.50-86Q169-58 200-42.50Q231-27 267-27Q303-27 334.50-42.50Q366-58 388.50-86Q411-114 424-153Q437-192 437-239Q437-287 424-326Q411-365 388.50-393.50Q366-422 334.50-437.50Q303-453 267-453Q231-453 200-437.50Q169-422 146.50-393.50Q124-365 111-326Q98-287 98-239Z"/><path id="s122:sourcesanspro-light:45" d="M136 42L136 217L92 217L92-480L130-480L134-420L137-420Q172-448 213.50-470Q255-492 300-492Q396-492 444-425.50Q492-359 492-247Q492-186 475-138Q458-90 428.50-56.50Q399-23 360.50-5.50Q322 12 280 12Q246 12 210-3.50Q174-19 136-47L136 42M136-89Q178-55 214-41Q250-27 278-27Q314-27 345-43Q376-59 398-88Q420-117 432.50-157.50Q445-198 445-247Q445-291 436.50-329Q428-367 410-394.50Q392-422 363-437.50Q334-453 293-453Q257-453 218.50-432.50Q180-412 136-374L136-89Z"/><path id="s122:sourcesanspro-light:30" d="M65-120Q65-199 140-241Q215-283 375-301Q376-328 371.50-355.50Q367-383 354.50-404.50Q342-426 319.50-439.50Q297-453 262-453Q213-453 173-434Q133-415 109-397L89-430Q102-439 120.50-450Q139-461 161.50-470Q184-479 211-485.50Q238-492 267-492Q310-492 339-477.50Q368-463 386-438Q404-413 411.50-379.50Q419-346 419-307L419 0L382 0L377-62L375-62Q338-33 295.50-10.50Q253 12 205 12Q176 12 151 4Q126-4 106.50-20Q87-36 76-61Q65-86 65-120M111-122Q111-70 141-48Q171-26 212-26Q254-26 292-46Q330-66 375-104L375-267Q301-258 250.50-245Q200-232 169-214Q138-196 124.50-173Q111-150 111-122Z"/><path id="s122:sourcesanspro-light:43" d="M92-480L130-480L134-406L137-406Q174-443 213-467.50Q252-492 302-492Q377-492 412-447Q447-402 447-308L447 0L403 0L403-302Q403-379 377.50-415.50Q352-452 293-452Q250-452 215-429.50Q180-407 136-362L136 0L92 0L92-480Z"/><path id="s122:sourcesanspro-light:41" d="M92-719L136-719L136-58Q136-42 142-34.50Q148-27 157-27Q160-27 163.50-27Q167-27 175-29L183 7Q176 9 169 10.50Q162 12 151 12Q92 12 92-64L92-719Z"/><path id="s122:sourcesanspro-light:36" d="M94 94Q94 139 135.50 167Q177 195 254 195Q294 195 327 184.50Q360 174 383 157Q406 140 418.50 118.50Q431 97 431 74Q431 34 402.50 17.50Q374 1 320 1L217 1Q209 1 192.50-0.50Q176-2 157-7Q124 16 109 42Q94 68 94 94M52 98Q52 66 71 36Q90 6 123-18L123-22Q105-33 93-52Q81-71 81-99Q81-131 99-153.50Q117-176 133-187L133-191Q110-211 91.50-245Q73-279 73-323Q73-360 86-391Q99-422 122-444.50Q145-467 176-479.50Q207-492 242-492Q262-492 278-488.50Q294-485 305-480L468-480L468-443L356-443Q379-423 394-391.50Q409-360 409-322Q409-285 396-254Q383-223 360.50-200.50Q338-178 307.50-165.50Q277-153 242-153Q222-153 200.50-158Q179-163 162-173Q146-160 134.50-144Q123-128 123-104Q123-78 142-59.50Q161-41 215-41L318-41Q399-41 437.50-14.50Q476 12 476 69Q476 100 460 129.50Q444 159 414.50 181.50Q385 204 343 217.50Q301 231 249 231Q158 231 105 195Q52 159 52 98M242-188Q267-188 289.50-197.50Q312-207 329-225Q346-243 356-268Q366-293 366-323Q366-353 356-378Q346-403 329.50-420Q313-437 290-446.50Q267-456 242-456Q216-456 193.50-446.50Q171-437 154-420Q137-403 127-378.50Q117-354 117-323Q117-293 127-268Q137-243 154.50-225Q172-207 194.50-197.50Q217-188 242-188Z"/><path id="s122:sourcesanspro-light:48" d="M58-87Q89-61 124-43.50Q159-26 211-26Q268-26 296.50-54.50Q325-83 325-121Q325-143 314.50-160Q304-177 287-189Q270-201 249.50-210Q229-219 208-227Q181-237 153.50-248Q126-259 104-274.50Q82-290 68.50-311.50Q55-333 55-364Q55-390 65-413.50Q75-437 95-454.50Q115-472 143.50-482Q172-492 210-492Q248-492 284.50-478Q321-464 347-442L323-411Q299-429 272-441.50Q245-454 208-454Q180-454 160-446.50Q140-439 126.50-427Q113-415 106.50-399Q100-383 100-367Q100-346 109.50-331.50Q119-317 135-306Q151-295 171.50-286.50Q192-278 213-270Q241-259 269-248Q297-237 319.50-221Q342-205 356-181.50Q370-158 370-123Q370-96 359.50-71.50Q349-47 328-28.50Q307-10 277 1Q247 12 208 12Q154 12 109-7.50Q64-27 32-54L58-87Z"/><path id="s122:sourcesanspro-light:42" d="M92-480L130-480L134-406L137-406Q169-443 208.50-467.50Q248-492 288-492Q346-492 377-465.50Q408-439 421-394Q463-439 502.50-465.50Q542-492 584-492Q728-492 728-308L728 0L683 0L683-302Q683-379 657-415.50Q631-452 576-452Q511-452 432-362L432 0L388 0L388-302Q388-379 362-415.50Q336-452 280-452Q215-452 136-362L136 0L92 0L92-480Z"/><path id="s122:sourcesanspro-light:31" d="M92-719L136-719L136-511L134-417Q171-448 213-470Q255-492 300-492Q396-492 444-425.50Q492-359 492-247Q492-186 475-138Q458-90 428.50-56.50Q399-23 360.50-5.50Q322 12 280 12Q245 12 207.50-3.50Q170-19 136-45L134-45L129 0L92 0L92-719M136-89Q176-55 213-41Q250-27 278-27Q314-27 345-43Q376-59 398-88Q420-117 432.50-157.50Q445-198 445-247Q445-291 436.50-329Q428-367 410-394.50Q392-422 363-437.50Q334-453 293-453Q257-453 218-432.50Q179-412 136-374L136-89Z"/><path id="s122:sourcesanspro-light:35" d="M276-679Q261-687 246.50-690Q232-693 218-693Q180-693 161.50-664.50Q143-636 143-584L143-480L254-480L254-442L143-442L143 0L99 0L99-442L33-442L33-476L99-480L99-587Q99-659 130-695Q161-731 218-731Q253-731 288-715L276-679Z"/><path id="s122:sourcesanspro-light:49" d="M103-442L28-442L28-476L104-480L110-619L148-619L148-480L287-480L287-442L148-442L148-129Q148-106 151.50-87.50Q155-69 164-55.50Q173-42 188.50-34.50Q204-27 229-27Q243-27 259.50-31.50Q276-36 289-42L301-6Q280 2 259 7Q238 12 223 12Q188 12 165 1.50Q142-9 128-28Q114-47 108.50-74Q103-101 103-133L103-442Z"/><path id="s122:sourcesanspro-light:38" d="M115-596Q98-596 86.50-607Q75-618 75-635Q75-654 86.50-664.50Q98-675 115-675Q132-675 143.50-664.50Q155-654 155-635Q155-618 143.50-607Q132-596 115-596M92-480L136-480L136 0L92 0L92-480Z"/><path id="s122:sourcesanspro-light:54" d="M34 170Q42 173 52 175.50Q62 178 73 178Q118 178 148 142Q178 106 196 51L209 9L12-480L60-480L176-178Q187-148 200.50-112Q214-76 228-44L232-44Q243-76 254.50-112Q266-148 276-178L379-480L424-480L234 60Q224 90 209.50 118.50Q195 147 175.50 169.50Q156 192 130.50 205.50Q105 219 73 219Q46 219 24 209L34 170L34 170Z"/><path id="s122:sourcesanspro-light:509" d="M67-33Q67-55 80-67Q93-79 110-79Q127-79 139.50-67Q152-55 152-33Q152-12 139.50 0Q127 12 110 12Q93 12 80 0Q67-12 67-33Z"/><path id="s122:sourcesanspro-light:53" d="M177-251L27-480L76-480L154-358Q166-338 178.50-318.50Q191-299 205-279L209-279Q222-299 233.50-318.50Q245-338 258-358L333-480L379-480L230-247L393 0L344 0L259-131Q245-154 231-176Q217-198 202-219L198-219Q184-198 170.50-176Q157-154 143-131L61 0L14 0L177-251Z"/><path id="s122:sourcesanspro-light:32" d="M52-239Q52-299 70-346.50Q88-394 118-426Q148-458 187.50-475Q227-492 271-492Q321-492 354.50-474Q388-456 412-433L386-402Q363-424 335-438.50Q307-453 272-453Q235-453 203.50-437.50Q172-422 148.50-393.50Q125-365 111.50-326Q98-287 98-239Q98-192 110.50-153Q123-114 145.50-86Q168-58 200.50-42.50Q233-27 272-27Q310-27 342.50-43Q375-59 400-82L423-52Q392-24 354-6Q316 12 270 12Q223 12 183.50-5Q144-22 114.50-54Q85-86 68.50-132.50Q52-179 52-239Z"/><path id="s122:sourcesanspro-light:9" d="M97-659L456-659L456-619L143-619L143-357L408-357L408-317L143-317L143 0L97 0L97-659Z"/><path id="s122:sourcesanspro-light:510" d="M48 125Q82 107 103 76.50Q124 46 125 4Q121 5 113 5Q96 5 83.50-6Q71-17 71-37Q71-57 84-68Q97-79 114-79Q137-79 151-60Q165-41 165-8Q165 47 136 89Q107 131 62 155L48 125Z"/></defs><g id="line-0"><use x="0" y="847.5" xlink:href="#s122:sourcesanspro-light:23"/><use x="524" y="847.5" xlink:href="#s122:sourcesanspro-light:37"/><use x="1052" y="847.5" xlink:href="#s122:sourcesanspro-light:34"/><use x="1535" y="847.5" xlink:href="#s122:sourcesanspro-light:3"/><use x="1734" y="847.5" xlink:href="#s122:sourcesanspro-light:8"/><use x="2249" y="847.5" xlink:href="#s122:sourcesanspro-light:50"/><use x="2778" y="847.5" xlink:href="#s122:sourcesanspro-light:47"/><use x="3085" y="847.5" xlink:href="#s122:sourcesanspro-light:44"/><use x="3620" y="847.5" xlink:href="#s122:sourcesanspro-light:45"/><use x="4164" y="847.5" xlink:href="#s122:sourcesanspro-light:34"/><use x="4632" y="847.5" xlink:href="#s122:sourcesanspro-light:30"/><use x="5131" y="847.5" xlink:href="#s122:sourcesanspro-light:43"/><use x="5663" y="847.5" xlink:href="#s122:sourcesanspro-light:3"/><use x="5862" y="847.5" xlink:href="#s122:sourcesanspro-light:41"/><use x="6099" y="847.5" xlink:href="#s122:sourcesanspro-light:30"/><use x="6598" y="847.5" xlink:href="#s122:sourcesanspro-light:43"/><use x="7130" y="847.5" xlink:href="#s122:sourcesanspro-light:36"/><use x="7617" y="847.5" xlink:href="#s122:sourcesanspro-light:50"/><use x="8146" y="847.5" xlink:href="#s122:sourcesanspro-light:30"/><use x="8645" y="847.5" xlink:href="#s122:sourcesanspro-light:36"/><use x="9121" y="847.5" xlink:href="#s122:sourcesanspro-light:34"/><use x="9604" y="847.5" xlink:href="#s122:sourcesanspro-light:48"/><use x="10009" y="847.5" xlink:href="#s122:sourcesanspro-light:3"/><use x="10208" y="847.5" xlink:href="#s122:sourcesanspro-light:30"/><use x="10707" y="847.5" xlink:href="#s122:sourcesanspro-light:47"/><use x="11014" y="847.5" xlink:href="#s122:sourcesanspro-light:34"/><use x="11497" y="847.5" xlink:href="#s122:sourcesanspro-light:3"/><use x="11696" y="847.5" xlink:href="#s122:sourcesanspro-light:42"/><use x="12508" y="847.5" xlink:href="#s122:sourcesanspro-light:34"/><use x="12991" y="847.5" xlink:href="#s122:sourcesanspro-light:42"/><use x="13803" y="847.5" xlink:href="#s122:sourcesanspro-light:31"/><use x="14347" y="847.5" xlink:href="#s122:sourcesanspro-light:34"/><use x="14830" y="847.5" xlink:href="#s122:sourcesanspro-light:47"/><use x="15137" y="847.5" xlink:href="#s122:sourcesanspro-light:48"/><use x="15542" y="847.5" xlink:href="#s122:sourcesanspro-light:3"/><use x="15741" y="847.5" xlink:href="#s122:sourcesanspro-light:44"/><use x="16276" y="847.5" xlink:href="#s122:sourcesanspro-light:35"/><use x="16539" y="847.5" xlink:href="#s122:sourcesanspro-light:3"/><use x="16738" y="847.5" xlink:href="#s122:sourcesanspro-light:49"/><use x="17050" y="847.5" xlink:href="#s122:sourcesanspro-light:37"/><use x="17578" y="847.5" xlink:href="#s122:sourcesanspro-light:34"/><use x="18061" y="847.5" xlink:href="#s122:sourcesanspro-light:3"/><use x="18260" y="847.5" xlink:href="#s122:sourcesanspro-light:48"/><use x="18665" y="847.5" xlink:href="#s122:sourcesanspro-light:30"/><use x="19164" y="847.5" xlink:href="#s122:sourcesanspro-light:42"/><use x="19976" y="847.5" xlink:href="#s122:sourcesanspro-light:34"/><use x="20459" y="847.5" xlink:href="#s122:sourcesanspro-light:3"/><use x="20658" y="847.5" xlink:href="#s122:sourcesanspro-light:35"/><use x="20901" y="847.5" xlink:href="#s122:sourcesanspro-light:30"/><use x="21400" y="847.5" xlink:href="#s122:sourcesanspro-light:42"/><use x="22212" y="847.5" xlink:href="#s122:sourcesanspro-light:38"/><use x="22441" y="847.5" xlink:href="#s122:sourcesanspro-light:41"/><use x="22678" y="847.5" xlink:href="#s122:sourcesanspro-light:54"/><use x="23094" y="847.5" xlink:href="#s122:sourcesanspro-light:509"/></g><g id="line-1"><use x="4773.5" y="2047.5" xlink:href="#s122:sourcesanspro-light:23"/><use x="5297.5" y="2047.5" xlink:href="#s122:sourcesanspro-light:37"/><use x="5825.5" y="2047.5" xlink:href="#s122:sourcesanspro-light:34"/><use x="6308.5" y="2047.5" xlink:href="#s122:sourcesanspro-light:38"/><use x="6537.5" y="2047.5" xlink:href="#s122:sourcesanspro-light:47"/><use x="6854.5" y="2047.5" xlink:href="#s122:sourcesanspro-light:3"/><use x="7053.5" y="2047.5" xlink:href="#s122:sourcesanspro-light:48"/><use x="7458.5" y="2047.5" xlink:href="#s122:sourcesanspro-light:34"/><use x="7941.5" y="2047.5" xlink:href="#s122:sourcesanspro-light:45"/><use x="8470.5" y="2047.5" xlink:href="#s122:sourcesanspro-light:30"/><use x="8969.5" y="2047.5" xlink:href="#s122:sourcesanspro-light:47"/><use x="9263.5" y="2047.5" xlink:href="#s122:sourcesanspro-light:30"/><use x="9762.5" y="2047.5" xlink:href="#s122:sourcesanspro-light:49"/><use x="10064.5" y="2047.5" xlink:href="#s122:sourcesanspro-light:34"/><use x="10547.5" y="2047.5" xlink:href="#s122:sourcesanspro-light:3"/><use x="10746.5" y="2047.5" xlink:href="#s122:sourcesanspro-light:34"/><use x="11229.5" y="2047.5" xlink:href="#s122:sourcesanspro-light:53"/><use x="11636.5" y="2047.5" xlink:href="#s122:sourcesanspro-light:38"/><use x="11865.5" y="2047.5" xlink:href="#s122:sourcesanspro-light:48"/><use x="12270.5" y="2047.5" xlink:href="#s122:sourcesanspro-light:49"/><use x="12572.5" y="2047.5" xlink:href="#s122:sourcesanspro-light:34"/><use x="13055.5" y="2047.5" xlink:href="#s122:sourcesanspro-light:43"/><use x="13587.5" y="2047.5" xlink:href="#s122:sourcesanspro-light:32"/><use x="14019.5" y="2047.5" xlink:href="#s122:sourcesanspro-light:34"/><use x="14502.5" y="2047.5" xlink:href="#s122:sourcesanspro-light:3"/><use x="14701.5" y="2047.5" xlink:href="#s122:sourcesanspro-light:38"/><use x="14930.5" y="2047.5" xlink:href="#s122:sourcesanspro-light:48"/><use x="15335.5" y="2047.5" xlink:href="#s122:sourcesanspro-light:3"/><use x="15534.5" y="2047.5" xlink:href="#s122:sourcesanspro-light:30"/><use x="16033.5" y="2047.5" xlink:href="#s122:sourcesanspro-light:3"/><use x="16232.5" y="2047.5" xlink:href="#s122:sourcesanspro-light:42"/><use x="17044.5" y="2047.5" xlink:href="#s122:sourcesanspro-light:54"/><use x="17480.5" y="2047.5" xlink:href="#s122:sourcesanspro-light:49"/><use x="17792.5" y="2047.5" xlink:href="#s122:sourcesanspro-light:37"/><use x="18320.5" y="2047.5" xlink:href="#s122:sourcesanspro-light:509"/></g><g id="line-2"><use x="5758.5" y="3247.5" xlink:href="#s122:sourcesanspro-light:9"/><use x="6224.5" y="3247.5" xlink:href="#s122:sourcesanspro-light:44"/><use x="6759.5" y="3247.5" xlink:href="#s122:sourcesanspro-light:47"/><use x="7076.5" y="3247.5" xlink:href="#s122:sourcesanspro-light:3"/><use x="7275.5" y="3247.5" xlink:href="#s122:sourcesanspro-light:48"/><use x="7680.5" y="3247.5" xlink:href="#s122:sourcesanspro-light:32"/><use x="8129.5" y="3247.5" xlink:href="#s122:sourcesanspro-light:38"/><use x="8358.5" y="3247.5" xlink:href="#s122:sourcesanspro-light:34"/><use x="8841.5" y="3247.5" xlink:href="#s122:sourcesanspro-light:43"/><use x="9373.5" y="3247.5" xlink:href="#s122:sourcesanspro-light:32"/><use x="9805.5" y="3247.5" xlink:href="#s122:sourcesanspro-light:34"/><use x="10288.5" y="3247.5" xlink:href="#s122:sourcesanspro-light:510"/><use x="10507.5" y="3247.5" xlink:href="#s122:sourcesanspro-light:3"/><use x="10706.5" y="3247.5" xlink:href="#s122:sourcesanspro-light:42"/><use x="11518.5" y="3247.5" xlink:href="#s122:sourcesanspro-light:50"/><use x="12047.5" y="3247.5" xlink:href="#s122:sourcesanspro-light:48"/><use x="12452.5" y="3247.5" xlink:href="#s122:sourcesanspro-light:38"/><use x="12681.5" y="3247.5" xlink:href="#s122:sourcesanspro-light:32"/><use x="13130.5" y="3247.5" xlink:href="#s122:sourcesanspro-light:510"/><use x="13349.5" y="3247.5" xlink:href="#s122:sourcesanspro-light:3"/><use x="13548.5" y="3247.5" xlink:href="#s122:sourcesanspro-light:48"/><use x="13953.5" y="3247.5" xlink:href="#s122:sourcesanspro-light:45"/><use x="14497.5" y="3247.5" xlink:href="#s122:sourcesanspro-light:44"/><use x="15032.5" y="3247.5" xlink:href="#s122:sourcesanspro-light:47"/><use x="15349.5" y="3247.5" xlink:href="#s122:sourcesanspro-light:49"/><use x="15681.5" y="3247.5" xlink:href="#s122:sourcesanspro-light:510"/><use x="15900.5" y="3247.5" xlink:href="#s122:sourcesanspro-light:3"/><use x="16099.5" y="3247.5" xlink:href="#s122:sourcesanspro-light:34"/><use x="16571.5" y="3247.5" xlink:href="#s122:sourcesanspro-light:49"/><use x="16873.5" y="3247.5" xlink:href="#s122:sourcesanspro-light:32"/><use x="17322.5" y="3247.5" xlink:href="#s122:sourcesanspro-light:510"/></g></svg>