<svg xmlns="http://www.w3.org/2000/svg" xmlns:xlink="http://www.w3.org/1999/xlink" width="564" height="84" viewBox="0 0 23489 3520.5"><defs><path id="s121:sourcesanspro-italic:23" d="M283-589L93-589L106-656L565-656L552-589L361-589L244 0L166 0L283-589Z"/><path id="s121:sourcesanspro-italic:37" d="M173-712L250-712L202-477L186-416L190-416Q232-451 272-474.50Q312-498 357-498Q419-498 445.50-466Q472-434 472-377Q472-360 470.50-345Q469-330 464-310L402 0L326 0L386-300Q390-320 392-332Q394-344 394-357Q394-394 377-413Q360-432 322-432Q293-432 257.50-411Q222-390 176-344L107 0L31 0L173-712Z"/><path id="s121:sourcesanspro-italic:34" d="M37-191Q37-260 60-316.50Q83-373 119.50-413.50Q156-454 202.50-476Q249-498 297-498Q338-498 366.50-484.50Q395-471 413-447.50Q431-424 439-391.50Q447-359 447-322Q447-293 441-267Q435-241 430-227L114-227Q107-180 115-146.50Q123-113 141.50-91Q160-69 187-59Q214-49 246-49Q275-49 303.50-61.50Q332-74 355-91L385-40Q356-19 316-3.50Q276 12 228 12Q141 12 89-40.50Q37-93 37-191M377-279Q379-291 380.50-303Q382-315 382-329Q382-350 377-369.50Q372-389 361-404Q350-419 332-428Q314-437 288-437Q261-437 235.50-426Q210-415 188-394Q166-373 148.50-344Q131-315 122-279L377-279Z"/><path id="s121:sourcesanspro-italic:3" d=""/><path id="s121:sourcesanspro-italic:8" d="M166-656L528-656L515-591L230-591L188-378L429-378L415-312L176-312L125-66L419-66L405 0L35 0L166-656Z"/><path id="s121:sourcesanspro-italic:50" d="M398 0L335 0L343-74L339-74Q299-39 257.50-13.50Q216 12 171 12Q109 12 82.50-20.50Q56-53 56-109Q56-126 57.50-141Q59-156 64-176L126-486L203-486L142-186Q138-166 136-154Q134-142 134-129Q134-92 151-73Q168-54 206-54Q235-54 270-75Q305-96 350-142L419-486L495-486L398 0Z"/><path id="s121:sourcesanspro-italic:47" d="M127-486L190-486L179-393L183-393Q212-438 250.50-468Q289-498 334-498Q359-498 380-489L353-421Q337-429 311-429Q275-429 237-398Q199-367 168-307L107 0L31 0L127-486Z"/><path id="s121:sourcesanspro-italic:44" d="M212 12Q133 12 86-40Q39-92 39-183Q39-252 61-310Q83-368 120-409.50Q157-451 204-474.50Q251-498 301-498Q380-498 427.50-446Q475-394 475-303Q475-234 452.50-176Q430-118 393.50-76.50Q357-35 309.50-11.50Q262 12 212 12M293-435Q260-435 228-415.50Q196-396 171-362.50Q146-329 131-284Q116-239 116-188Q116-122 142.50-87Q169-52 220-52Q254-52 285.50-71.50Q317-91 342-124Q367-157 382-202Q397-247 397-298Q397-364 370.50-399.50Q344-435 293-435Z"/><path id="s121:sourcesanspro-italic:45" d="M97 46L66 205L-10 205L128-486L191-486L185-422L188-422Q225-453 267.50-475.50Q310-498 356-498Q420-498 458-452.50Q496-407 496-322Q496-252 474-191Q452-130 415.50-85Q379-40 331.50-14Q284 12 234 12Q196 12 166-7.50Q136-27 117-58L115-58L97 46M328-434Q294-434 253.50-413Q213-392 178-354L132-122Q152-84 177-68Q202-52 231-52Q267-52 301-73.50Q335-95 360.50-131Q386-167 401.50-213.50Q417-260 417-311Q417-373 393.50-403.50Q370-434 328-434Z"/><path id="s121:sourcesanspro-italic:30" d="M39-164Q39-234 61-295Q83-356 120-401Q157-446 204-472Q251-498 302-498Q341-498 371.50-478Q402-458 419-425L423-425L442-486L504-486L407 0L344 0L352-72L348-72Q313-34 269-11Q225 12 179 12Q115 12 77-33Q39-78 39-164M207-52Q245-52 284.50-74.50Q324-97 360-145L404-362Q383-400 358-417Q333-434 305-434Q269-434 235-412.50Q201-391 175-355Q149-319 133.50-272.50Q118-226 118-176Q118-113 142-82.50Q166-52 207-52Z"/><path id="s121:sourcesanspro-italic:43" d="M127-486L190-486L183-413L187-413Q229-449 270-473.50Q311-498 357-498Q419-498 445.50-466Q472-434 472-377Q472-360 470.50-345Q469-330 464-310L402 0L326 0L386-300Q390-320 392-332Q394-344 394-357Q394-394 377-413Q360-432 322-432Q293-432 257.50-411Q222-390 176-344L107 0L31 0L127-486Z"/><path id="s121:sourcesanspro-italic:41" d="M173-712L250-712L125-89Q123-81 123-77Q123-73 123-70Q123-52 140-52Q143-52 146-52.50Q149-53 156-55L157 4Q147 8 136 10Q125 12 109 12Q77 12 60.50-4.50Q44-21 44-51Q44-67 50-93L173-712Z"/><path id="s121:sourcesanspro-italic:36" d="M498-486L396 23Q376 120 318 172Q260 224 168 224Q119 224 76 205Q33 186-2 157L34 104Q62 128 96 145Q130 162 171 162Q234 162 271 122.50Q308 83 324 17L348-83L345-83Q309-48 268-26.50Q227-5 180-5Q118-5 78.50-48Q39-91 39-176Q39-243 60.50-301.50Q82-360 118-403.50Q154-447 200.50-472.50Q247-498 296-498Q334-498 365-478Q396-458 413-425L416-425L435-486L498-486M205-69Q240-69 280-90.50Q320-112 355-154L398-362Q375-400 351-417Q327-434 299-434Q264-434 231-413.50Q198-393 173-358.50Q148-324 133-279.50Q118-235 118-187Q118-127 141-98Q164-69 205-69Z"/><path id="s121:sourcesanspro-italic:48" d="M44-118Q67-86 99-66.50Q131-47 169-47Q190-47 208.50-53.50Q227-60 241.50-71Q256-82 264-96.50Q272-111 272-128Q272-141 267.50-152Q263-163 253-173.50Q243-184 225.50-195Q208-206 183-220Q126-251 99-281Q72-311 72-353Q72-385 85.50-412Q99-439 121.50-458Q144-477 174.50-487.50Q205-498 239-498Q284-498 319.50-480Q355-462 382-433L338-390Q318-410 294-424Q270-438 237-438Q198-438 171.50-415.50Q145-393 145-362Q145-347 152-335Q159-323 171-313Q183-303 198.50-294Q214-285 231-276Q264-258 285.50-241.50Q307-225 320.50-208.50Q334-192 339.50-175Q345-158 345-138Q345-104 331.50-76Q318-48 293.50-28.50Q269-9 235.50 1.50Q202 12 163 12Q139 12 114.50 5Q90-2 67.50-14.50Q45-27 26.50-44Q8-61-4-80L44-118Z"/><path id="s121:sourcesanspro-italic:42" d="M127-486L190-486L183-413L187-413Q225-449 267-473.50Q309-498 347-498Q376-498 396-490.50Q416-483 429-470.50Q442-458 449-440.50Q456-423 459-403Q506-448 549.50-473Q593-498 631-498Q692-498 719-466Q746-434 746-377Q746-360 744-345Q742-330 738-310L676 0L599 0L660-300Q664-320 666-332Q668-344 668-357Q668-432 597-432Q576-432 540-411Q504-390 460-344L391 0L315 0L375-300Q379-320 381-332Q383-344 383-357Q383-432 313-432Q291-432 255-411Q219-390 176-344L107 0L31 0L127-486Z"/><path id="s121:sourcesanspro-italic:31" d="M31 0L173-712L250-712L211-522L189-426L191-426Q227-455 269-476.50Q311-498 356-498Q420-498 458-453Q496-408 496-322Q496-252 474-191Q452-130 415.50-85Q379-40 331.50-14Q284 12 234 12Q195 12 164.50-8Q134-28 117-61L114-61L94 0L31 0M328-434Q294-434 253.50-413Q213-392 178-355L132-124Q152-86 177-69Q202-52 231-52Q267-52 301-73.50Q335-95 360.50-131Q386-167 401.50-213.50Q417-260 417-311Q417-373 393.50-403.50Q370-434 328-434Z"/><path id="s121:sourcesanspro-italic:35" d="M76-481L141-486L157-567Q172-641 210.50-682.50Q249-724 311-724Q337-724 358-717.50Q379-711 397-700L370-645Q359-652 346-657Q333-662 316-662Q283-662 262.50-637Q242-612 234-569L217-486L315-486L303-424L204-424L119 0L43 0L128-424L65-424L76-481Z"/><path id="s121:sourcesanspro-italic:49" d="M131-424L60-424L71-481L147-486L183-620L248-620L221-486L344-486L332-424L207-424L150-146Q147-128 147-110Q147-80 160.50-65Q174-50 209-50Q223-50 236-55Q249-60 260-65L277-10Q260-2 237 5Q214 12 185 12Q153 12 131 3.50Q109-5 95-19.50Q81-34 75-53.50Q69-73 69-96Q69-111 70.50-123.50Q72-136 74-150L131-424Z"/><path id="s121:sourcesanspro-italic:38" d="M128-486L205-486L107 0L31 0L128-486M193-587Q173-587 158.50-598.50Q144-610 144-632Q144-657 161.50-673.50Q179-690 202-690Q222-690 236.50-678Q251-666 251-644Q251-619 233.50-603Q216-587 193-587Z"/><path id="s121:sourcesanspro-italic:54" d="M-37 138Q-19 147-1 147Q36 147 68.50 117Q101 87 126 36L144 1L61-486L137-486L175-213Q180-180 184-141.50Q188-103 191-68L195-68Q212-103 230.50-140.50Q249-178 267-213L407-486L483-486L197 41Q178 77 157 107.50Q136 138 111.50 160.50Q87 183 58 196Q29 209-6 209Q-17 209-32.50 206Q-48 203-62 195L-37 138L-37 138Z"/><path id="s121:sourcesanspro-italic:509" d="M70 12Q48 12 35.50-2Q23-16 23-38Q23-64 42-86Q61-108 90-108Q112-108 124-93.50Q136-79 136-57Q136-31 117.50-9.50Q99 12 70 12Z"/><path id="s121:sourcesanspro-italic:53" d="M174-258L83-486L161-486L203-378Q211-356 217.50-336.50Q224-317 232-296L236-296Q251-316 267-336.50Q283-357 298-378L383-486L466-486L266-241L365 0L286 0L242-114Q234-136 225.50-158.50Q217-181 207-204L203-204Q187-181 170-159.50Q153-138 134-115L40 0L-44 0L174-258Z"/><path id="s121:sourcesanspro-italic:32" d="M37-183Q37-251 59.50-308.50Q82-366 119.50-408Q157-450 206-474Q255-498 308-498Q352-498 382-481Q412-464 434-439L389-391Q370-414 351-424.50Q332-435 303-435Q267-435 233-415Q199-395 172.50-361.50Q146-328 130.50-283Q115-238 115-188Q115-122 143.50-87Q172-52 230-52Q262-52 288.50-65Q315-78 338-95L372-45Q346-25 308-6.50Q270 12 216 12Q136 12 86.50-38.50Q37-89 37-183Z"/><path id="s121:sourcesanspro-italic:9" d="M166-656L528-656L515-591L230-591L185-363L426-363L413-297L173-297L113 0L35 0L166-656Z"/><path id="s121:sourcesanspro-italic:510" d="M-31 118Q16 100 44 70.50Q72 41 80 4L78 4Q55 4 40.50-8.50Q26-21 26-44Q26-69 43.50-88.50Q61-108 90-108Q116-108 130-90Q144-72 144-42Q144 32 99 87.50Q54 143-20 164L-31 118Z"/></defs><g id="line-0"><use x="0" y="847.5" xlink:href="#s121:sourcesanspro-italic:23"/><use x="510" y="847.5" xlink:href="#s121:sourcesanspro-italic:37"/><use x="1029" y="847.5" xlink:href="#s121:sourcesanspro-italic:34"/><use x="1510" y="847.5" xlink:href="#s121:sourcesanspro-italic:3"/><use x="1702" y="847.5" xlink:href="#s121:sourcesanspro-italic:8"/><use x="2205" y="847.5" xlink:href="#s121:sourcesanspro-italic:50"/><use x="2733" y="847.5" xlink:href="#s121:sourcesanspro-italic:47"/><use x="3065" y="847.5" xlink:href="#s121:sourcesanspro-italic:44"/><use x="3580" y="847.5" xlink:href="#s121:sourcesanspro-italic:45"/><use x="4115" y="847.5" xlink:href="#s121:sourcesanspro-italic:34"/><use x="4596" y="847.5" xlink:href="#s121:sourcesanspro-italic:30"/><use x="5133" y="847.5" xlink:href="#s121:sourcesanspro-italic:43"/><use x="5658" y="847.5" xlink:href="#s121:sourcesanspro-italic:3"/><use x="5850" y="847.5" xlink:href="#s121:sourcesanspro-italic:41"/><use x="6098" y="847.5" xlink:href="#s121:sourcesanspro-italic:30"/><use x="6635" y="847.5" xlink:href="#s121:sourcesanspro-italic:43"/><use x="7160" y="847.5" xlink:href="#s121:sourcesanspro-italic:36"/><use x="7691" y="847.5" xlink:href="#s121:sourcesanspro-italic:50"/><use x="8219" y="847.5" xlink:href="#s121:sourcesanspro-italic:30"/><use x="8756" y="847.5" xlink:href="#s121:sourcesanspro-italic:36"/><use x="9287" y="847.5" xlink:href="#s121:sourcesanspro-italic:34"/><use x="9768" y="847.5" xlink:href="#s121:sourcesanspro-italic:48"/><use x="10170" y="847.5" xlink:href="#s121:sourcesanspro-italic:3"/><use x="10362" y="847.5" xlink:href="#s121:sourcesanspro-italic:30"/><use x="10899" y="847.5" xlink:href="#s121:sourcesanspro-italic:47"/><use x="11231" y="847.5" xlink:href="#s121:sourcesanspro-italic:34"/><use x="11712" y="847.5" xlink:href="#s121:sourcesanspro-italic:3"/><use x="11904" y="847.5" xlink:href="#s121:sourcesanspro-italic:42"/><use x="12703" y="847.5" xlink:href="#s121:sourcesanspro-italic:34"/><use x="13184" y="847.5" xlink:href="#s121:sourcesanspro-italic:42"/><use x="13983" y="847.5" xlink:href="#s121:sourcesanspro-italic:31"/><use x="14519" y="847.5" xlink:href="#s121:sourcesanspro-italic:34"/><use x="15000" y="847.5" xlink:href="#s121:sourcesanspro-italic:47"/><use x="15336" y="847.5" xlink:href="#s121:sourcesanspro-italic:48"/><use x="15738" y="847.5" xlink:href="#s121:sourcesanspro-italic:3"/><use x="15930" y="847.5" xlink:href="#s121:sourcesanspro-italic:44"/><use x="16445" y="847.5" xlink:href="#s121:sourcesanspro-italic:35"/><use x="16727" y="847.5" xlink:href="#s121:sourcesanspro-italic:3"/><use x="16919" y="847.5" xlink:href="#s121:sourcesanspro-italic:49"/><use x="17244" y="847.5" xlink:href="#s121:sourcesanspro-italic:37"/><use x="17763" y="847.5" xlink:href="#s121:sourcesanspro-italic:34"/><use x="18244" y="847.5" xlink:href="#s121:sourcesanspro-italic:3"/><use x="18436" y="847.5" xlink:href="#s121:sourcesanspro-italic:48"/><use x="18838" y="847.5" xlink:href="#s121:sourcesanspro-italic:30"/><use x="19375" y="847.5" xlink:href="#s121:sourcesanspro-italic:42"/><use x="20174" y="847.5" xlink:href="#s121:sourcesanspro-italic:34"/><use x="20655" y="847.5" xlink:href="#s121:sourcesanspro-italic:3"/><use x="20847" y="847.5" xlink:href="#s121:sourcesanspro-italic:35"/><use x="21119" y="847.5" xlink:href="#s121:sourcesanspro-italic:30"/><use x="21656" y="847.5" xlink:href="#s121:sourcesanspro-italic:42"/><use x="22455" y="847.5" xlink:href="#s121:sourcesanspro-italic:38"/><use x="22692" y="847.5" xlink:href="#s121:sourcesanspro-italic:41"/><use x="22940" y="847.5" xlink:href="#s121:sourcesanspro-italic:54"/><use x="23353" y="847.5" xlink:href="#s121:sourcesanspro-italic:509"/></g><g id="line-1"><use x="4824" y="2047.5" xlink:href="#s121:sourcesanspro-italic:23"/><use x="5334" y="2047.5" xlink:href="#s121:sourcesanspro-italic:37"/><use x="5853" y="2047.5" xlink:href="#s121:sourcesanspro-italic:34"/><use x="6334" y="2047.5" xlink:href="#s121:sourcesanspro-italic:38"/><use x="6571" y="2047.5" xlink:href="#s121:sourcesanspro-italic:47"/><use x="6913" y="2047.5" xlink:href="#s121:sourcesanspro-italic:3"/><use x="7105" y="2047.5" xlink:href="#s121:sourcesanspro-italic:48"/><use x="7507" y="2047.5" xlink:href="#s121:sourcesanspro-italic:34"/><use x="7988" y="2047.5" xlink:href="#s121:sourcesanspro-italic:45"/><use x="8523" y="2047.5" xlink:href="#s121:sourcesanspro-italic:30"/><use x="9060" y="2047.5" xlink:href="#s121:sourcesanspro-italic:47"/><use x="9392" y="2047.5" xlink:href="#s121:sourcesanspro-italic:30"/><use x="9929" y="2047.5" xlink:href="#s121:sourcesanspro-italic:49"/><use x="10243" y="2047.5" xlink:href="#s121:sourcesanspro-italic:34"/><use x="10724" y="2047.5" xlink:href="#s121:sourcesanspro-italic:3"/><use x="10916" y="2047.5" xlink:href="#s121:sourcesanspro-italic:34"/><use x="11397" y="2047.5" xlink:href="#s121:sourcesanspro-italic:53"/><use x="11826" y="2047.5" xlink:href="#s121:sourcesanspro-italic:38"/><use x="12063" y="2047.5" xlink:href="#s121:sourcesanspro-italic:48"/><use x="12465" y="2047.5" xlink:href="#s121:sourcesanspro-italic:49"/><use x="12779" y="2047.5" xlink:href="#s121:sourcesanspro-italic:34"/><use x="13260" y="2047.5" xlink:href="#s121:sourcesanspro-italic:43"/><use x="13785" y="2047.5" xlink:href="#s121:sourcesanspro-italic:32"/><use x="14205" y="2047.5" xlink:href="#s121:sourcesanspro-italic:34"/><use x="14686" y="2047.5" xlink:href="#s121:sourcesanspro-italic:3"/><use x="14878" y="2047.5" xlink:href="#s121:sourcesanspro-italic:38"/><use x="15115" y="2047.5" xlink:href="#s121:sourcesanspro-italic:48"/><use x="15517" y="2047.5" xlink:href="#s121:sourcesanspro-italic:3"/><use x="15709" y="2047.5" xlink:href="#s121:sourcesanspro-italic:30"/><use x="16246" y="2047.5" xlink:href="#s121:sourcesanspro-italic:3"/><use x="16438" y="2047.5" xlink:href="#s121:sourcesanspro-italic:42"/><use x="17237" y="2047.5" xlink:href="#s121:sourcesanspro-italic:54"/><use x="17685" y="2047.5" xlink:href="#s121:sourcesanspro-italic:49"/><use x="18010" y="2047.5" xlink:href="#s121:sourcesanspro-italic:37"/><use x="18529" y="2047.5" xlink:href="#s121:sourcesanspro-italic:509"/></g><g id="line-2"><use x="5902" y="3247.5" xlink:href="#s121:sourcesanspro-italic:9"/><use x="6365" y="3247.5" xlink:href="#s121:sourcesanspro-italic:44"/><use x="6880" y="3247.5" xlink:href="#s121:sourcesanspro-italic:47"/><use x="7222" y="3247.5" xlink:href="#s121:sourcesanspro-italic:3"/><use x="7414" y="3247.5" xlink:href="#s121:sourcesanspro-italic:48"/><use x="7816" y="3247.5" xlink:href="#s121:sourcesanspro-italic:32"/><use x="8251" y="3247.5" xlink:href="#s121:sourcesanspro-italic:38"/><use x="8488" y="3247.5" xlink:href="#s121:sourcesanspro-italic:34"/><use x="8969" y="3247.5" xlink:href="#s121:sourcesanspro-italic:43"/><use x="9494" y="3247.5" xlink:href="#s121:sourcesanspro-italic:32"/><use x="9914" y="3247.5" xlink:href="#s121:sourcesanspro-italic:34"/><use x="10395" y="3247.5" xlink:href="#s121:sourcesanspro-italic:510"/><use x="10637" y="3247.5" xlink:href="#s121:sourcesanspro-italic:3"/><use x="10829" y="3247.5" xlink:href="#s121:sourcesanspro-italic:42"/><use x="11628" y="3247.5" xlink:href="#s121:sourcesanspro-italic:50"/><use x="12156" y="3247.5" xlink:href="#s121:sourcesanspro-italic:48"/><use x="12558" y="3247.5" xlink:href="#s121:sourcesanspro-italic:38"/><use x="12795" y="3247.5" xlink:href="#s121:sourcesanspro-italic:32"/><use x="13230" y="3247.5" xlink:href="#s121:sourcesanspro-italic:510"/><use x="13472" y="3247.5" xlink:href="#s121:sourcesanspro-italic:3"/><use x="13664" y="3247.5" xlink:href="#s121:sourcesanspro-italic:48"/><use x="14066" y="3247.5" xlink:href="#s121:sourcesanspro-italic:45"/><use x="14601" y="3247.5" xlink:href="#s121:sourcesanspro-italic:44"/><use x="15116" y="3247.5" xlink:href="#s121:sourcesanspro-italic:47"/><use x="15458" y="3247.5" xlink:href="#s121:sourcesanspro-italic:49"/><use x="15796" y="3247.5" xlink:href="#s121:sourcesanspro-italic:510"/><use x="16038" y="3247.5" xlink:href="#s121:sourcesanspro-italic:3"/><use x="16230" y="3247.5" xlink:href="#s121:sourcesanspro-italic:34"/><use x="16694" y="3247.5" xlink:href="#s121:sourcesanspro-italic:49"/><use x="17008" y="3247.5" xlink:href="#s121:sourcesanspro-italic:32"/><use x="17443" y="3247.5" xlink:href="#s121:sourcesanspro-italic:510"/></g></svg>