<svg xmlns="http://www.w3.org/2000/svg" xmlns:xlink="http://www.w3.org/1999/xlink" width="620" height="84" viewBox="0 0 25848 3520.5"><defs><path id="s115:sourcesanspro-black:23" d="M196-506L24-506L24-650L540-650L540-506L368-506L368 0L196 0L196-506Z"/><path id="s115:sourcesanspro-black:37" d="M58-696L230-696L230-534L222-448Q248-471 284.50-491.50Q321-512 372-512Q454-512 491-456.50Q528-401 528-308L528 0L356 0L356-286Q356-334 344-350Q332-366 306-366Q282-366 266-356Q250-346 230-328L230 0L58 0L58-696Z"/><path id="s115:sourcesanspro-black:34" d="M32-250Q32-311 52.50-359.50Q73-408 106.50-442Q140-476 183-494Q226-512 272-512Q327-512 368-493Q409-474 436-441Q463-408 476.50-364Q490-320 490-270Q490-247 487.50-229Q485-211 483-202L198-202Q210-154 241-136Q272-118 314-118Q340-118 364.50-125.50Q389-133 416-148L472-46Q431-17 381.50-2.50Q332 12 290 12Q235 12 188-5.50Q141-23 106.50-56.50Q72-90 52-139Q32-188 32-250M344-306Q344-338 329.50-360Q315-382 276-382Q247-382 225.50-365Q204-348 196-306L344-306Z"/><path id="s115:sourcesanspro-black:3" d=""/><path id="s115:sourcesanspro-black:8" d="M72-650L492-650L492-506L244-506L244-404L456-404L456-260L244-260L244-144L502-144L502 0L72 0L72-650Z"/><path id="s115:sourcesanspro-black:50" d="M54-500L226-500L226-214Q226-166 238-150Q250-134 276-134Q300-134 315.50-144Q331-154 348-178L348-500L520-500L520 0L380 0L368-66L364-66Q334-30 297.50-9Q261 12 210 12Q169 12 139.50-2.50Q110-17 91-43.50Q72-70 63-107.50Q54-145 54-192L54-500Z"/><path id="s115:sourcesanspro-black:47" d="M58-500L198-500L210-414L214-414Q242-465 280.50-488.50Q319-512 356-512Q379-512 393-509.50Q407-507 418-502L390-354Q376-357 363.50-359.50Q351-362 334-362Q307-362 277.50-343.50Q248-325 230-278L230 0L58 0L58-500Z"/><path id="s115:sourcesanspro-black:44" d="M32-250Q32-312 52.50-361Q73-410 107.50-443.50Q142-477 187-494.50Q232-512 280-512Q328-512 372.50-494.50Q417-477 451.50-443.50Q486-410 507-361Q528-312 528-250Q528-188 507-139Q486-90 451.50-56.50Q417-23 372.50-5.50Q328 12 280 12Q232 12 187-5.50Q142-23 107.50-56.50Q73-90 52.50-139Q32-188 32-250M208-250Q208-193 224.50-159.50Q241-126 280-126Q319-126 335.50-159.50Q352-193 352-250Q352-307 335.50-340.50Q319-374 280-374Q241-374 224.50-340.50Q208-307 208-250Z"/><path id="s115:sourcesanspro-black:45" d="M230 38L230 176L58 176L58-500L198-500L210-454L214-454Q242-480 277-496Q312-512 350-512Q394-512 430-494Q466-476 491.50-443Q517-410 530.50-363Q544-316 544-258Q544-193 526.50-143Q509-93 480-58.50Q451-24 413.50-6Q376 12 336 12Q274 12 224-38L230 38M230-152Q245-138 261-133Q277-128 294-128Q324-128 346-156Q368-184 368-256Q368-318 350.50-345Q333-372 298-372Q278-372 262.50-364Q247-356 230-336L230-152Z"/><path id="s115:sourcesanspro-black:30" d="M42-142Q42-220 106-264.50Q170-309 314-324Q308-376 244-376Q217-376 187-365.50Q157-355 118-334L58-446Q111-478 165-495Q219-512 278-512Q375-512 430.50-456.50Q486-401 486-278L486 0L346 0L334-48L330-48Q300-21 266.50-4.50Q233 12 192 12Q157 12 129-0.50Q101-13 81.50-34Q62-55 52-83Q42-111 42-142M206-156Q206-120 252-120Q273-120 286.50-129.50Q300-139 314-154L314-222Q252-213 229-195Q206-177 206-156Z"/><path id="s115:sourcesanspro-black:43" d="M58-500L198-500L210-440L214-440Q244-469 282.50-490.50Q321-512 372-512Q454-512 491-456.50Q528-401 528-308L528 0L356 0L356-286Q356-334 344-350Q332-366 306-366Q282-366 266-356Q250-346 230-328L230 0L58 0L58-500Z"/><path id="s115:sourcesanspro-black:41" d="M58-696L230-696L230-170Q230-144 239.50-135Q249-126 258-126Q263-126 266.50-126Q270-126 276-128L296-2Q282 4 261.50 8Q241 12 212 12Q168 12 138.50-1.50Q109-15 91-40Q73-65 65.50-99.50Q58-134 58-176L58-696Z"/><path id="s115:sourcesanspro-black:36" d="M170 54Q170 78 197 89Q224 100 268 100Q310 100 338 87.50Q366 75 366 54Q366 34 348.50 29Q331 24 299 24L260 24Q230 24 214.50 22.50Q199 21 188 18Q179 27 174.50 35Q170 43 170 54M30 82Q30 23 100-14L100-18Q80-32 67-52Q54-72 54-104Q54-130 69-155Q84-180 110-198L110-202Q83-220 62.50-253Q42-286 42-330Q42-376 60-410.50Q78-445 108-467.50Q138-490 176.50-501Q215-512 256-512Q300-512 336-500L522-500L522-376L450-376Q453-367 455.50-353Q458-339 458-324Q458-280 442-248.50Q426-217 399-197Q372-177 335-167.50Q298-158 256-158Q231-158 200-165Q192-158 190-152.50Q188-147 188-136Q188-119 204-112.50Q220-106 258-106L333-106Q427-106 478.50-75.50Q530-45 530 24Q530 65 509.50 98.50Q489 132 451.50 156Q414 180 360.50 193Q307 206 240 206Q197 206 159 199.50Q121 193 92.50 178Q64 163 47 139.50Q30 116 30 82M256-260Q280-260 295-277Q310-294 310-330Q310-365 295-381.50Q280-398 256-398Q232-398 217-381.50Q202-365 202-330Q202-294 217-277Q232-260 256-260Z"/><path id="s115:sourcesanspro-black:48" d="M94-164Q162-114 216-114Q243-114 254.50-121.50Q266-129 266-144Q266-154 258-161.50Q250-169 236.50-175.50Q223-182 206-188Q189-194 170-202Q148-211 125.50-223.50Q103-236 85-254Q67-272 55.50-295.50Q44-319 44-350Q44-387 58.50-417Q73-447 99-468Q125-489 161.50-500.50Q198-512 242-512Q304-512 348.50-491.50Q393-471 426-446L350-344Q323-364 297-375Q271-386 248-386Q204-386 204-358Q204-348 211.50-341Q219-334 232-328Q245-322 262-316.50Q279-311 298-304Q320-296 343-284Q366-272 384.50-254.50Q403-237 414.50-212.50Q426-188 426-154Q426-119 412-88.50Q398-58 371-35.50Q344-13 304-0.50Q264 12 212 12Q164 12 110.50-7Q57-26 18-58L94-164Z"/><path id="s115:sourcesanspro-black:42" d="M58-500L198-500L210-439L214-439Q244-468 278.50-490Q313-512 364-512Q415-512 448.50-491.50Q482-471 502-432Q533-464 569-488Q605-512 656-512Q738-512 776-456.50Q814-401 814-308L814 0L642 0L642-286Q642-334 630-350Q618-366 592-366Q560-366 522-328L522 0L350 0L350-286Q350-334 338-350Q326-366 300-366Q268-366 230-328L230 0L58 0L58-500Z"/><path id="s115:sourcesanspro-black:31" d="M58-696L230-696L230-534L226-462Q252-486 284-499Q316-512 349-512Q393-512 429-494Q465-476 490.50-443Q516-410 530-363Q544-316 544-259Q544-194 526.50-143.50Q509-93 480-58.50Q451-24 413.50-6Q376 12 336 12Q303 12 271-4.50Q239-21 210-54L206-54L192 0L58 0L58-696M230-152Q245-138 261-133Q277-128 294-128Q324-128 346-156Q368-184 368-256Q368-318 350.50-345Q333-372 298-372Q278-372 262.50-364Q247-356 230-336L230-152Z"/><path id="s115:sourcesanspro-black:35" d="M362-564Q350-569 337-571.50Q324-574 312-574Q288-574 274-560.50Q260-547 260-512L260-500L344-500L344-366L260-366L260 0L88 0L88-366L22-366L22-494L88-499L88-506Q88-546 98-582.50Q108-619 131.50-647Q155-675 192.50-691.50Q230-708 286-708Q321-708 348-702Q375-696 392-690L362-564Z"/><path id="s115:sourcesanspro-black:49" d="M80-366L14-366L14-494L90-500L110-630L252-630L252-500L366-500L366-366L252-366L252-195Q252-153 270-137.50Q288-122 312-122Q324-122 335.50-124.50Q347-127 356-130L382-6Q362 0 334 6Q306 12 264 12Q215 12 180.50-2.50Q146-17 123.50-44Q101-71 90.50-108.50Q80-146 80-192L80-366Z"/><path id="s115:sourcesanspro-black:38" d="M144-562Q102-562 75-586Q48-610 48-648Q48-686 75-710Q102-734 144-734Q186-734 213-710Q240-686 240-648Q240-610 213-586Q186-562 144-562M58-500L230-500L230 0L58 0L58-500Z"/><path id="s115:sourcesanspro-black:54" d="M86 48Q93 50 101.50 52Q110 54 118 54Q153 54 170.50 40.50Q188 27 196 4L202-18L12-500L184-500L244-308Q255-273 263-238.50Q271-204 280-166L284-166Q292-202 299.50-237Q307-272 316-308L366-500L530-500L362-8Q342 43 321.50 80Q301 117 274 141Q247 165 212.50 176.50Q178 188 132 188Q106 188 89.50 185.50Q73 183 56 178L86 48L86 48Z"/><path id="s115:sourcesanspro-black:509" d="M60-92Q60-136 88-166Q116-196 160-196Q204-196 232-166Q260-136 260-92Q260-48 232-18Q204 12 160 12Q116 12 88-18Q60-48 60-92Z"/><path id="s115:sourcesanspro-black:53" d="M164-260L22-500L206-500L242-430Q252-409 262-387Q272-365 282-344L286-344Q293-365 301-387Q309-409 316-430L340-500L518-500L376-240L526 0L342 0L302-70Q291-91 280-113Q269-135 258-156L254-156Q246-135 237-113.50Q228-92 220-70L192 0L14 0L164-260Z"/><path id="s115:sourcesanspro-black:32" d="M32-250Q32-312 54-361Q76-410 113-443.50Q150-477 198.50-494.50Q247-512 300-512Q345-512 382.50-497Q420-482 446-456L368-350Q351-364 337.50-369Q324-374 310-374Q262-374 235-340.50Q208-307 208-250Q208-193 235.50-159.50Q263-126 304-126Q328-126 347.50-136Q367-146 384-158L452-50Q414-17 368.50-2.50Q323 12 284 12Q231 12 185-5.50Q139-23 105-56.50Q71-90 51.50-139Q32-188 32-250Z"/><path id="s115:sourcesanspro-black:9" d="M72-650L496-650L496-506L244-506L244-382L460-382L460-238L244-238L244 0L72 0L72-650Z"/><path id="s115:sourcesanspro-black:510" d="M46 114Q106 94 136.50 61.50Q167 29 167-8L160-8Q121-8 90.50-32.50Q60-57 60-102Q60-144 90-170Q120-196 164-196Q220-196 249-155Q278-114 278-40Q278 49 228 113Q178 177 80 204L46 114Z"/></defs><g id="line-0"><use x="0" y="847.5" xlink:href="#s115:sourcesanspro-black:23"/><use x="564" y="847.5" xlink:href="#s115:sourcesanspro-black:37"/><use x="1146" y="847.5" xlink:href="#s115:sourcesanspro-black:34"/><use x="1672" y="847.5" xlink:href="#s115:sourcesanspro-black:3"/><use x="1882" y="847.5" xlink:href="#s115:sourcesanspro-black:8"/><use x="2438" y="847.5" xlink:href="#s115:sourcesanspro-black:50"/><use x="3016" y="847.5" xlink:href="#s115:sourcesanspro-black:47"/><use x="3424" y="847.5" xlink:href="#s115:sourcesanspro-black:44"/><use x="3984" y="847.5" xlink:href="#s115:sourcesanspro-black:45"/><use x="4564" y="847.5" xlink:href="#s115:sourcesanspro-black:34"/><use x="5080" y="847.5" xlink:href="#s115:sourcesanspro-black:30"/><use x="5622" y="847.5" xlink:href="#s115:sourcesanspro-black:43"/><use x="6204" y="847.5" xlink:href="#s115:sourcesanspro-black:3"/><use x="6414" y="847.5" xlink:href="#s115:sourcesanspro-black:41"/><use x="6712" y="847.5" xlink:href="#s115:sourcesanspro-black:30"/><use x="7254" y="847.5" xlink:href="#s115:sourcesanspro-black:43"/><use x="7836" y="847.5" xlink:href="#s115:sourcesanspro-black:36"/><use x="8382" y="847.5" xlink:href="#s115:sourcesanspro-black:50"/><use x="8960" y="847.5" xlink:href="#s115:sourcesanspro-black:30"/><use x="9502" y="847.5" xlink:href="#s115:sourcesanspro-black:36"/><use x="10028" y="847.5" xlink:href="#s115:sourcesanspro-black:34"/><use x="10554" y="847.5" xlink:href="#s115:sourcesanspro-black:48"/><use x="11006" y="847.5" xlink:href="#s115:sourcesanspro-black:3"/><use x="11216" y="847.5" xlink:href="#s115:sourcesanspro-black:30"/><use x="11758" y="847.5" xlink:href="#s115:sourcesanspro-black:47"/><use x="12166" y="847.5" xlink:href="#s115:sourcesanspro-black:34"/><use x="12692" y="847.5" xlink:href="#s115:sourcesanspro-black:3"/><use x="12902" y="847.5" xlink:href="#s115:sourcesanspro-black:42"/><use x="13770" y="847.5" xlink:href="#s115:sourcesanspro-black:34"/><use x="14296" y="847.5" xlink:href="#s115:sourcesanspro-black:42"/><use x="15164" y="847.5" xlink:href="#s115:sourcesanspro-black:31"/><use x="15744" y="847.5" xlink:href="#s115:sourcesanspro-black:34"/><use x="16270" y="847.5" xlink:href="#s115:sourcesanspro-black:47"/><use x="16678" y="847.5" xlink:href="#s115:sourcesanspro-black:48"/><use x="17130" y="847.5" xlink:href="#s115:sourcesanspro-black:3"/><use x="17340" y="847.5" xlink:href="#s115:sourcesanspro-black:44"/><use x="17894" y="847.5" xlink:href="#s115:sourcesanspro-black:35"/><use x="18254" y="847.5" xlink:href="#s115:sourcesanspro-black:3"/><use x="18464" y="847.5" xlink:href="#s115:sourcesanspro-black:49"/><use x="18864" y="847.5" xlink:href="#s115:sourcesanspro-black:37"/><use x="19446" y="847.5" xlink:href="#s115:sourcesanspro-black:34"/><use x="19972" y="847.5" xlink:href="#s115:sourcesanspro-black:3"/><use x="20182" y="847.5" xlink:href="#s115:sourcesanspro-black:48"/><use x="20634" y="847.5" xlink:href="#s115:sourcesanspro-black:30"/><use x="21176" y="847.5" xlink:href="#s115:sourcesanspro-black:42"/><use x="22044" y="847.5" xlink:href="#s115:sourcesanspro-black:34"/><use x="22570" y="847.5" xlink:href="#s115:sourcesanspro-black:3"/><use x="22780" y="847.5" xlink:href="#s115:sourcesanspro-black:35"/><use x="23120" y="847.5" xlink:href="#s115:sourcesanspro-black:30"/><use x="23662" y="847.5" xlink:href="#s115:sourcesanspro-black:42"/><use x="24530" y="847.5" xlink:href="#s115:sourcesanspro-black:38"/><use x="24818" y="847.5" xlink:href="#s115:sourcesanspro-black:41"/><use x="25116" y="847.5" xlink:href="#s115:sourcesanspro-black:54"/><use x="25588" y="847.5" xlink:href="#s115:sourcesanspro-black:509"/></g><g id="line-1"><use x="5149" y="2047.5" xlink:href="#s115:sourcesanspro-black:23"/><use x="5713" y="2047.5" xlink:href="#s115:sourcesanspro-black:37"/><use x="6295" y="2047.5" xlink:href="#s115:sourcesanspro-black:34"/><use x="6821" y="2047.5" xlink:href="#s115:sourcesanspro-black:38"/><use x="7109" y="2047.5" xlink:href="#s115:sourcesanspro-black:47"/><use x="7527" y="2047.5" xlink:href="#s115:sourcesanspro-black:3"/><use x="7737" y="2047.5" xlink:href="#s115:sourcesanspro-black:48"/><use x="8189" y="2047.5" xlink:href="#s115:sourcesanspro-black:34"/><use x="8715" y="2047.5" xlink:href="#s115:sourcesanspro-black:45"/><use x="9285" y="2047.5" xlink:href="#s115:sourcesanspro-black:30"/><use x="9827" y="2047.5" xlink:href="#s115:sourcesanspro-black:47"/><use x="10215" y="2047.5" xlink:href="#s115:sourcesanspro-black:30"/><use x="10757" y="2047.5" xlink:href="#s115:sourcesanspro-black:49"/><use x="11147" y="2047.5" xlink:href="#s115:sourcesanspro-black:34"/><use x="11673" y="2047.5" xlink:href="#s115:sourcesanspro-black:3"/><use x="11883" y="2047.5" xlink:href="#s115:sourcesanspro-black:34"/><use x="12389" y="2047.5" xlink:href="#s115:sourcesanspro-black:53"/><use x="12929" y="2047.5" xlink:href="#s115:sourcesanspro-black:38"/><use x="13217" y="2047.5" xlink:href="#s115:sourcesanspro-black:48"/><use x="13669" y="2047.5" xlink:href="#s115:sourcesanspro-black:49"/><use x="14059" y="2047.5" xlink:href="#s115:sourcesanspro-black:34"/><use x="14585" y="2047.5" xlink:href="#s115:sourcesanspro-black:43"/><use x="15167" y="2047.5" xlink:href="#s115:sourcesanspro-black:32"/><use x="15609" y="2047.5" xlink:href="#s115:sourcesanspro-black:34"/><use x="16135" y="2047.5" xlink:href="#s115:sourcesanspro-black:3"/><use x="16345" y="2047.5" xlink:href="#s115:sourcesanspro-black:38"/><use x="16633" y="2047.5" xlink:href="#s115:sourcesanspro-black:48"/><use x="17085" y="2047.5" xlink:href="#s115:sourcesanspro-black:3"/><use x="17295" y="2047.5" xlink:href="#s115:sourcesanspro-black:30"/><use x="17837" y="2047.5" xlink:href="#s115:sourcesanspro-black:3"/><use x="18047" y="2047.5" xlink:href="#s115:sourcesanspro-black:42"/><use x="18915" y="2047.5" xlink:href="#s115:sourcesanspro-black:54"/><use x="19457" y="2047.5" xlink:href="#s115:sourcesanspro-black:49"/><use x="19857" y="2047.5" xlink:href="#s115:sourcesanspro-black:37"/><use x="20439" y="2047.5" xlink:href="#s115:sourcesanspro-black:509"/></g><g id="line-2"><use x="6276" y="3247.5" xlink:href="#s115:sourcesanspro-black:9"/><use x="6792" y="3247.5" xlink:href="#s115:sourcesanspro-black:44"/><use x="7352" y="3247.5" xlink:href="#s115:sourcesanspro-black:47"/><use x="7770" y="3247.5" xlink:href="#s115:sourcesanspro-black:3"/><use x="7980" y="3247.5" xlink:href="#s115:sourcesanspro-black:48"/><use x="8432" y="3247.5" xlink:href="#s115:sourcesanspro-black:32"/><use x="8904" y="3247.5" xlink:href="#s115:sourcesanspro-black:38"/><use x="9192" y="3247.5" xlink:href="#s115:sourcesanspro-black:34"/><use x="9718" y="3247.5" xlink:href="#s115:sourcesanspro-black:43"/><use x="10300" y="3247.5" xlink:href="#s115:sourcesanspro-black:32"/><use x="10742" y="3247.5" xlink:href="#s115:sourcesanspro-black:34"/><use x="11268" y="3247.5" xlink:href="#s115:sourcesanspro-black:510"/><use x="11588" y="3247.5" xlink:href="#s115:sourcesanspro-black:3"/><use x="11798" y="3247.5" xlink:href="#s115:sourcesanspro-black:42"/><use x="12666" y="3247.5" xlink:href="#s115:sourcesanspro-black:50"/><use x="13244" y="3247.5" xlink:href="#s115:sourcesanspro-black:48"/><use x="13696" y="3247.5" xlink:href="#s115:sourcesanspro-black:38"/><use x="13984" y="3247.5" xlink:href="#s115:sourcesanspro-black:32"/><use x="14456" y="3247.5" xlink:href="#s115:sourcesanspro-black:510"/><use x="14776" y="3247.5" xlink:href="#s115:sourcesanspro-black:3"/><use x="14986" y="3247.5" xlink:href="#s115:sourcesanspro-black:48"/><use x="15438" y="3247.5" xlink:href="#s115:sourcesanspro-black:45"/><use x="16018" y="3247.5" xlink:href="#s115:sourcesanspro-black:44"/><use x="16578" y="3247.5" xlink:href="#s115:sourcesanspro-black:47"/><use x="16996" y="3247.5" xlink:href="#s115:sourcesanspro-black:49"/><use x="17396" y="3247.5" xlink:href="#s115:sourcesanspro-black:510"/><use x="17716" y="3247.5" xlink:href="#s115:sourcesanspro-black:3"/><use x="17926" y="3247.5" xlink:href="#s115:sourcesanspro-black:34"/><use x="18432" y="3247.5" xlink:href="#s115:sourcesanspro-black:49"/><use x="18822" y="3247.5" xlink:href="#s115:sourcesanspro-black:32"/><use x="19294" y="3247.5" xlink:href="#s115:sourcesanspro-black:510"/></g></svg>