<svg xmlns="http://www.w3.org/2000/svg" xmlns:xlink="http://www.w3.org/1999/xlink" width="593" height="84" viewBox="0 0 24692 3520.5"><defs><path id="s125:sourcesanspro-semibold:23" d="M215-556L26-556L26-654L520-654L520-556L331-556L331 0L215 0L215-556Z"/><path id="s125:sourcesanspro-semibold:37" d="M73-706L188-706L188-524L184-429Q215-458 252.50-480.50Q290-503 341-503Q420-503 456-452.50Q492-402 492-308L492 0L377 0L377-293Q377-354 359-379Q341-404 300-404Q268-404 243.50-388.50Q219-373 188-343L188 0L73 0L73-706Z"/><path id="s125:sourcesanspro-semibold:34" d="M41-245Q41-305 60-353Q79-401 110.50-434Q142-467 183-485Q224-503 267-503Q317-503 355-486Q393-469 418.50-438Q444-407 457-364Q470-321 470-270Q470-236 465-216L153-216Q161-149 199.50-113Q238-77 298-77Q330-77 357.50-86.50Q385-96 412-113L451-41Q416-18 373-3Q330 12 283 12Q232 12 188-5.50Q144-23 111-56Q78-89 59.50-136.50Q41-184 41-245M370-289Q370-348 345.50-381Q321-414 270-414Q226-414 193-382.50Q160-351 152-289L370-289Z"/><path id="s125:sourcesanspro-semibold:3" d=""/><path id="s125:sourcesanspro-semibold:8" d="M83-654L477-654L477-556L199-556L199-389L434-389L434-291L199-291L199-98L487-98L487 0L83 0L83-654Z"/><path id="s125:sourcesanspro-semibold:50" d="M68-491L183-491L183-198Q183-137 201-112Q219-87 259-87Q291-87 315.50-103Q340-119 368-155L368-491L483-491L483 0L389 0L380-72L377-72Q345-34 307.50-11Q270 12 219 12Q140 12 104-38.50Q68-89 68-183L68-491Z"/><path id="s125:sourcesanspro-semibold:47" d="M73-491L168-491L176-404L180-404Q206-452 243-477.50Q280-503 319-503Q354-503 375-493L355-393Q342-397 331-399Q320-401 304-401Q275-401 243-378.50Q211-356 188-300L188 0L73 0L73-491Z"/><path id="s125:sourcesanspro-semibold:44" d="M41-245Q41-306 60-354Q79-402 111.50-435Q144-468 186-485.50Q228-503 274-503Q320-503 362.50-485.50Q405-468 437-435Q469-402 488.50-354Q508-306 508-245Q508-184 488.50-136Q469-88 437-55Q405-22 362.50-5Q320 12 274 12Q228 12 186-5Q144-22 111.50-55Q79-88 60-136Q41-184 41-245M159-245Q159-171 189.50-126.50Q220-82 274-82Q328-82 359-126.50Q390-171 390-245Q390-320 359-364.50Q328-409 274-409Q220-409 189.50-364.50Q159-320 159-245Z"/><path id="s125:sourcesanspro-semibold:45" d="M188 40L188 194L73 194L73-491L168-491L176-439L180-439Q211-465 249-484Q287-503 328-503Q374-503 409.50-485.50Q445-468 470-435Q495-402 508-356Q521-310 521-253Q521-190 503.50-140.50Q486-91 457-57.50Q428-24 390-6Q352 12 311 12Q279 12 247-2Q215-16 185-42L188 40M188-124Q215-101 240-92Q265-83 287-83Q336-83 369-125.50Q402-168 402-252Q402-326 377-367Q352-408 296-408Q244-408 188-353L188-124Z"/><path id="s125:sourcesanspro-semibold:30" d="M52-132Q52-211 121-254Q190-297 341-314Q341-333 336-350.50Q331-368 320.50-381.50Q310-395 293.50-402.50Q277-410 252-410Q215-410 180.50-396Q146-382 114-362L72-439Q113-465 163.50-484Q214-503 273-503Q366-503 411-448.50Q456-394 456-291L456 0L362 0L353-54L350-54Q317-26 279.50-7Q242 12 198 12Q133 12 92.50-27.50Q52-67 52-132M164-141Q164-108 183.50-93Q203-78 234-78Q264-78 289-92Q314-106 341-132L341-242Q291-236 257-226Q223-216 202.50-203.50Q182-191 173-175Q164-159 164-141Z"/><path id="s125:sourcesanspro-semibold:43" d="M73-491L168-491L176-425L180-425Q213-457 251.50-480Q290-503 341-503Q420-503 456-452.50Q492-402 492-308L492 0L377 0L377-293Q377-354 359-379Q341-404 300-404Q268-404 243.50-388.50Q219-373 188-343L188 0L73 0L73-491Z"/><path id="s125:sourcesanspro-semibold:41" d="M73-706L188-706L188-120Q188-99 196-90.50Q204-82 213-82Q217-82 220.50-82Q224-82 231-84L246 2Q223 12 185 12Q123 12 98-25Q73-62 73-126L73-706Z"/><path id="s125:sourcesanspro-semibold:36" d="M136 72Q136 105 169.50 123.50Q203 142 262 142Q322 142 358.50 118.50Q395 95 395 63Q395 34 372.50 24Q350 14 308 14L241 14Q201 14 174 7Q136 36 136 72M40 89Q40 58 58 31.50Q76 5 110-16L110-20Q91-32 78.50-52Q66-72 66-102Q66-131 82.50-154.50Q99-178 120-193L120-197Q95-216 75.50-249.50Q56-283 56-327Q56-369 72-402Q88-435 114.50-457.50Q141-480 176-491.50Q211-503 250-503Q270-503 288.50-499.50Q307-496 322-491L498-491L498-406L408-406Q420-392 428-370.50Q436-349 436-323Q436-282 421.50-251Q407-220 382-199Q357-178 323-167Q289-156 250-156Q234-156 217-159Q200-162 183-169Q172-159 165.50-149Q159-139 159-122Q159-101 176.50-89Q194-77 239-77L326-77Q415-77 460.50-48.50Q506-20 506 44Q506 80 487.50 112Q469 144 435 167Q401 190 352.50 203.50Q304 217 244 217Q200 217 162.50 209Q125 201 98 185Q71 169 55.50 145Q40 121 40 89M250-228Q285-228 310-253.50Q335-279 335-327Q335-373 310.50-398.50Q286-424 250-424Q214-424 189-399Q164-374 164-327Q164-279 189-253.50Q214-228 250-228Z"/><path id="s125:sourcesanspro-semibold:48" d="M78-130Q111-104 143.50-89.50Q176-75 214-75Q254-75 273-91.50Q292-108 292-134Q292-149 283-160.50Q274-172 259-181Q244-190 225-197.50Q206-205 187-213Q163-222 138-234Q113-246 93.50-263Q74-280 61.50-302.50Q49-325 49-356Q49-421 97-462Q145-503 228-503Q279-503 320-485Q361-467 391-444L338-374Q312-393 285.50-404.50Q259-416 230-416Q193-416 175.50-400.50Q158-385 158-362Q158-347 166.50-336.50Q175-326 189-318Q203-310 221.50-303Q240-296 260-289Q285-280 310-268.50Q335-257 355.50-240Q376-223 388.50-198.50Q401-174 401-140Q401-108 388.50-80.50Q376-53 352-32.50Q328-12 292 0Q256 12 210 12Q159 12 109.50-7.50Q60-27 24-56L78-130Z"/><path id="s125:sourcesanspro-semibold:42" d="M73-491L168-491L176-424L180-424Q211-457 247.50-480Q284-503 330-503Q384-503 416.50-480Q449-457 466-415Q501-453 539-478Q577-503 624-503Q702-503 739-452.50Q776-402 776-308L776 0L660 0L660-293Q660-354 641.50-379Q623-404 585-404Q539-404 482-343L482 0L367 0L367-293Q367-354 348.50-379Q330-404 291-404Q245-404 188-343L188 0L73 0L73-491Z"/><path id="s125:sourcesanspro-semibold:31" d="M73-706L188-706L188-524L185-442Q216-469 252.50-486Q289-503 327-503Q373-503 409-485.50Q445-468 470-435.50Q495-403 508-357Q521-311 521-254Q521-191 503.50-141.50Q486-92 457-58Q428-24 390-6Q352 12 311 12Q277 12 242.50-4Q208-20 177-50L174-50L164 0L73 0L73-706M188-124Q214-101 239.50-92Q265-83 287-83Q336-83 369-125.50Q402-168 402-252Q402-326 377-367Q352-408 296-408Q244-408 188-353L188-124Z"/><path id="s125:sourcesanspro-semibold:35" d="M324-615Q297-627 270-627Q208-627 208-544L208-491L304-491L304-400L208-400L208 0L93 0L93-400L27-400L27-486L93-491L93-542Q93-580 102-612.50Q111-645 131-668.50Q151-692 181.50-705Q212-718 256-718Q282-718 305.50-713Q329-708 346-701L324-615Z"/><path id="s125:sourcesanspro-semibold:49" d="M90-400L20-400L20-486L96-491L110-625L206-625L206-491L331-491L331-400L206-400L206-166Q206-80 275-80Q288-80 301.50-83Q315-86 326-91L346-6Q326 1 300.50 6.50Q275 12 246 12Q203 12 173.50-1Q144-14 125.50-37.50Q107-61 98.50-93.50Q90-126 90-166L90-400Z"/><path id="s125:sourcesanspro-semibold:38" d="M131-577Q100-577 80-595Q60-613 60-642Q60-671 80-689.50Q100-708 131-708Q162-708 182-689.50Q202-671 202-642Q202-613 182-595Q162-577 131-577M73-491L188-491L188 0L73 0L73-491Z"/><path id="s125:sourcesanspro-semibold:54" d="M63 102Q70 104 79.50 106.50Q89 109 98 109Q137 109 160.50 85.50Q184 62 196 25L205-6L12-491L129-491L214-250Q225-218 235.50-182.50Q246-147 257-112L261-112Q270-146 279.50-181.50Q289-217 298-250L372-491L483-491L305 22Q290 64 272 97Q254 130 230.50 153.50Q207 177 176.50 189.50Q146 202 106 202Q86 202 71 199.50Q56 197 42 192L63 102L63 102Z"/><path id="s125:sourcesanspro-semibold:509" d="M63-66Q63-100 84.50-122Q106-144 138-144Q170-144 191-122Q212-100 212-66Q212-32 191-10Q170 12 138 12Q106 12 84.50-10Q63-32 63-66Z"/><path id="s125:sourcesanspro-semibold:53" d="M170-256L24-491L148-491L203-398Q214-378 225.50-356.50Q237-335 248-315L252-315Q261-335 271-356.50Q281-378 290-398L337-491L456-491L311-243L467 0L343 0L283-97Q271-119 258.50-141Q246-163 233-184L229-184Q218-163 207.50-141.50Q197-120 186-97L134 0L14 0L170-256Z"/><path id="s125:sourcesanspro-semibold:32" d="M41-245Q41-306 61-354Q81-402 115-435Q149-468 193.50-485.50Q238-503 287-503Q335-503 370.50-486.50Q406-470 431-446L376-373Q356-390 336-399.50Q316-409 293-409Q233-409 196-364.50Q159-320 159-245Q159-171 195.50-126.50Q232-82 290-82Q320-82 345.50-94.50Q371-107 391-124L439-51Q404-20 362-4Q320 12 278 12Q228 12 184.50-5Q141-22 109-55Q77-88 59-136Q41-184 41-245Z"/><path id="s125:sourcesanspro-semibold:9" d="M83-654L478-654L478-556L199-556L199-371L437-371L437-273L199-273L199 0L83 0L83-654Z"/><path id="s125:sourcesanspro-semibold:510" d="M47 119Q95 100 121.50 68Q148 36 148-2L139-2Q110-2 87.50-20.50Q65-39 65-73Q65-105 87.50-124.50Q110-144 142-144Q183-144 205.50-113Q228-82 228-26Q228 48 187.50 102Q147 156 72 182L47 119Z"/></defs><g id="line-0"><use x="0" y="847.5" xlink:href="#s125:sourcesanspro-semibold:23"/><use x="546" y="847.5" xlink:href="#s125:sourcesanspro-semibold:37"/><use x="1104" y="847.5" xlink:href="#s125:sourcesanspro-semibold:34"/><use x="1611" y="847.5" xlink:href="#s125:sourcesanspro-semibold:3"/><use x="1816" y="847.5" xlink:href="#s125:sourcesanspro-semibold:8"/><use x="2354" y="847.5" xlink:href="#s125:sourcesanspro-semibold:50"/><use x="2910" y="847.5" xlink:href="#s125:sourcesanspro-semibold:47"/><use x="3273" y="847.5" xlink:href="#s125:sourcesanspro-semibold:44"/><use x="3822" y="847.5" xlink:href="#s125:sourcesanspro-semibold:45"/><use x="4386" y="847.5" xlink:href="#s125:sourcesanspro-semibold:34"/><use x="4881" y="847.5" xlink:href="#s125:sourcesanspro-semibold:30"/><use x="5404" y="847.5" xlink:href="#s125:sourcesanspro-semibold:43"/><use x="5964" y="847.5" xlink:href="#s125:sourcesanspro-semibold:3"/><use x="6169" y="847.5" xlink:href="#s125:sourcesanspro-semibold:41"/><use x="6440" y="847.5" xlink:href="#s125:sourcesanspro-semibold:30"/><use x="6963" y="847.5" xlink:href="#s125:sourcesanspro-semibold:43"/><use x="7523" y="847.5" xlink:href="#s125:sourcesanspro-semibold:36"/><use x="8043" y="847.5" xlink:href="#s125:sourcesanspro-semibold:50"/><use x="8599" y="847.5" xlink:href="#s125:sourcesanspro-semibold:30"/><use x="9122" y="847.5" xlink:href="#s125:sourcesanspro-semibold:36"/><use x="9626" y="847.5" xlink:href="#s125:sourcesanspro-semibold:34"/><use x="10133" y="847.5" xlink:href="#s125:sourcesanspro-semibold:48"/><use x="10564" y="847.5" xlink:href="#s125:sourcesanspro-semibold:3"/><use x="10769" y="847.5" xlink:href="#s125:sourcesanspro-semibold:30"/><use x="11292" y="847.5" xlink:href="#s125:sourcesanspro-semibold:47"/><use x="11655" y="847.5" xlink:href="#s125:sourcesanspro-semibold:34"/><use x="12162" y="847.5" xlink:href="#s125:sourcesanspro-semibold:3"/><use x="12367" y="847.5" xlink:href="#s125:sourcesanspro-semibold:42"/><use x="13210" y="847.5" xlink:href="#s125:sourcesanspro-semibold:34"/><use x="13717" y="847.5" xlink:href="#s125:sourcesanspro-semibold:42"/><use x="14560" y="847.5" xlink:href="#s125:sourcesanspro-semibold:31"/><use x="15124" y="847.5" xlink:href="#s125:sourcesanspro-semibold:34"/><use x="15631" y="847.5" xlink:href="#s125:sourcesanspro-semibold:47"/><use x="15994" y="847.5" xlink:href="#s125:sourcesanspro-semibold:48"/><use x="16425" y="847.5" xlink:href="#s125:sourcesanspro-semibold:3"/><use x="16630" y="847.5" xlink:href="#s125:sourcesanspro-semibold:44"/><use x="17175" y="847.5" xlink:href="#s125:sourcesanspro-semibold:35"/><use x="17492" y="847.5" xlink:href="#s125:sourcesanspro-semibold:3"/><use x="17697" y="847.5" xlink:href="#s125:sourcesanspro-semibold:49"/><use x="18058" y="847.5" xlink:href="#s125:sourcesanspro-semibold:37"/><use x="18616" y="847.5" xlink:href="#s125:sourcesanspro-semibold:34"/><use x="19123" y="847.5" xlink:href="#s125:sourcesanspro-semibold:3"/><use x="19328" y="847.5" xlink:href="#s125:sourcesanspro-semibold:48"/><use x="19759" y="847.5" xlink:href="#s125:sourcesanspro-semibold:30"/><use x="20282" y="847.5" xlink:href="#s125:sourcesanspro-semibold:42"/><use x="21125" y="847.5" xlink:href="#s125:sourcesanspro-semibold:34"/><use x="21632" y="847.5" xlink:href="#s125:sourcesanspro-semibold:3"/><use x="21837" y="847.5" xlink:href="#s125:sourcesanspro-semibold:35"/><use x="22134" y="847.5" xlink:href="#s125:sourcesanspro-semibold:30"/><use x="22657" y="847.5" xlink:href="#s125:sourcesanspro-semibold:42"/><use x="23500" y="847.5" xlink:href="#s125:sourcesanspro-semibold:38"/><use x="23762" y="847.5" xlink:href="#s125:sourcesanspro-semibold:41"/><use x="24033" y="847.5" xlink:href="#s125:sourcesanspro-semibold:54"/><use x="24480" y="847.5" xlink:href="#s125:sourcesanspro-semibold:509"/></g><g id="line-1"><use x="4982" y="2047.5" xlink:href="#s125:sourcesanspro-semibold:23"/><use x="5528" y="2047.5" xlink:href="#s125:sourcesanspro-semibold:37"/><use x="6086" y="2047.5" xlink:href="#s125:sourcesanspro-semibold:34"/><use x="6593" y="2047.5" xlink:href="#s125:sourcesanspro-semibold:38"/><use x="6855" y="2047.5" xlink:href="#s125:sourcesanspro-semibold:47"/><use x="7228" y="2047.5" xlink:href="#s125:sourcesanspro-semibold:3"/><use x="7433" y="2047.5" xlink:href="#s125:sourcesanspro-semibold:48"/><use x="7864" y="2047.5" xlink:href="#s125:sourcesanspro-semibold:34"/><use x="8371" y="2047.5" xlink:href="#s125:sourcesanspro-semibold:45"/><use x="8923" y="2047.5" xlink:href="#s125:sourcesanspro-semibold:30"/><use x="9446" y="2047.5" xlink:href="#s125:sourcesanspro-semibold:47"/><use x="9792" y="2047.5" xlink:href="#s125:sourcesanspro-semibold:30"/><use x="10315" y="2047.5" xlink:href="#s125:sourcesanspro-semibold:49"/><use x="10666" y="2047.5" xlink:href="#s125:sourcesanspro-semibold:34"/><use x="11173" y="2047.5" xlink:href="#s125:sourcesanspro-semibold:3"/><use x="11378" y="2047.5" xlink:href="#s125:sourcesanspro-semibold:34"/><use x="11873" y="2047.5" xlink:href="#s125:sourcesanspro-semibold:53"/><use x="12354" y="2047.5" xlink:href="#s125:sourcesanspro-semibold:38"/><use x="12616" y="2047.5" xlink:href="#s125:sourcesanspro-semibold:48"/><use x="13047" y="2047.5" xlink:href="#s125:sourcesanspro-semibold:49"/><use x="13398" y="2047.5" xlink:href="#s125:sourcesanspro-semibold:34"/><use x="13905" y="2047.5" xlink:href="#s125:sourcesanspro-semibold:43"/><use x="14465" y="2047.5" xlink:href="#s125:sourcesanspro-semibold:32"/><use x="14903" y="2047.5" xlink:href="#s125:sourcesanspro-semibold:34"/><use x="15410" y="2047.5" xlink:href="#s125:sourcesanspro-semibold:3"/><use x="15615" y="2047.5" xlink:href="#s125:sourcesanspro-semibold:38"/><use x="15877" y="2047.5" xlink:href="#s125:sourcesanspro-semibold:48"/><use x="16308" y="2047.5" xlink:href="#s125:sourcesanspro-semibold:3"/><use x="16513" y="2047.5" xlink:href="#s125:sourcesanspro-semibold:30"/><use x="17036" y="2047.5" xlink:href="#s125:sourcesanspro-semibold:3"/><use x="17241" y="2047.5" xlink:href="#s125:sourcesanspro-semibold:42"/><use x="18084" y="2047.5" xlink:href="#s125:sourcesanspro-semibold:54"/><use x="18579" y="2047.5" xlink:href="#s125:sourcesanspro-semibold:49"/><use x="18940" y="2047.5" xlink:href="#s125:sourcesanspro-semibold:37"/><use x="19498" y="2047.5" xlink:href="#s125:sourcesanspro-semibold:509"/></g><g id="line-2"><use x="6045.5" y="3247.5" xlink:href="#s125:sourcesanspro-semibold:9"/><use x="6539.5" y="3247.5" xlink:href="#s125:sourcesanspro-semibold:44"/><use x="7088.5" y="3247.5" xlink:href="#s125:sourcesanspro-semibold:47"/><use x="7461.5" y="3247.5" xlink:href="#s125:sourcesanspro-semibold:3"/><use x="7666.5" y="3247.5" xlink:href="#s125:sourcesanspro-semibold:48"/><use x="8097.5" y="3247.5" xlink:href="#s125:sourcesanspro-semibold:32"/><use x="8559.5" y="3247.5" xlink:href="#s125:sourcesanspro-semibold:38"/><use x="8821.5" y="3247.5" xlink:href="#s125:sourcesanspro-semibold:34"/><use x="9328.5" y="3247.5" xlink:href="#s125:sourcesanspro-semibold:43"/><use x="9888.5" y="3247.5" xlink:href="#s125:sourcesanspro-semibold:32"/><use x="10326.5" y="3247.5" xlink:href="#s125:sourcesanspro-semibold:34"/><use x="10833.5" y="3247.5" xlink:href="#s125:sourcesanspro-semibold:510"/><use x="11108.5" y="3247.5" xlink:href="#s125:sourcesanspro-semibold:3"/><use x="11313.5" y="3247.5" xlink:href="#s125:sourcesanspro-semibold:42"/><use x="12156.5" y="3247.5" xlink:href="#s125:sourcesanspro-semibold:50"/><use x="12712.5" y="3247.5" xlink:href="#s125:sourcesanspro-semibold:48"/><use x="13143.5" y="3247.5" xlink:href="#s125:sourcesanspro-semibold:38"/><use x="13405.5" y="3247.5" xlink:href="#s125:sourcesanspro-semibold:32"/><use x="13867.5" y="3247.5" xlink:href="#s125:sourcesanspro-semibold:510"/><use x="14142.5" y="3247.5" xlink:href="#s125:sourcesanspro-semibold:3"/><use x="14347.5" y="3247.5" xlink:href="#s125:sourcesanspro-semibold:48"/><use x="14778.5" y="3247.5" xlink:href="#s125:sourcesanspro-semibold:45"/><use x="15342.5" y="3247.5" xlink:href="#s125:sourcesanspro-semibold:44"/><use x="15891.5" y="3247.5" xlink:href="#s125:sourcesanspro-semibold:47"/><use x="16264.5" y="3247.5" xlink:href="#s125:sourcesanspro-semibold:49"/><use x="16634.5" y="3247.5" xlink:href="#s125:sourcesanspro-semibold:510"/><use x="16909.5" y="3247.5" xlink:href="#s125:sourcesanspro-semibold:3"/><use x="17114.5" y="3247.5" xlink:href="#s125:sourcesanspro-semibold:34"/><use x="17605.5" y="3247.5" xlink:href="#s125:sourcesanspro-semibold:49"/><use x="17956.5" y="3247.5" xlink:href="#s125:sourcesanspro-semibold:32"/><use x="18418.5" y="3247.5" xlink:href="#s125:sourcesanspro-semibold:510"/></g></svg>