<svg xmlns="http://www.w3.org/2000/svg" xmlns:xlink="http://www.w3.org/1999/xlink" width="602" height="84" viewBox="0 0 25094 3520.5"><defs><path id="s116:sourcesanspro-blackitalic:23" d="M244-516L80-516L106-650L594-650L568-516L404-516L302 0L142 0L244-516Z"/><path id="s116:sourcesanspro-blackitalic:37" d="M148-696L308-696L274-534L250-446L254-446Q284-473 322.50-492.50Q361-512 406-512Q468-512 496-479.50Q524-447 524-382Q524-365 522.50-346.50Q521-328 516-310L454 0L294 0L352-290Q355-304 357.50-314.50Q360-325 360-334Q360-355 349-365.50Q338-376 318-376Q297-376 277-362.50Q257-349 230-320L168 0L8 0L148-696Z"/><path id="s116:sourcesanspro-blackitalic:34" d="M26-204Q26-273 51-329.50Q76-386 116.50-426.50Q157-467 207.50-489.50Q258-512 308-512Q354-512 385.50-497Q417-482 436.50-456Q456-430 465-395.50Q474-361 474-322Q474-303 470.50-284Q467-265 462.50-248.50Q458-232 453.50-219.50Q449-207 446-202L176-202Q178-152 207-130Q236-108 280-108Q301-108 324-118Q347-128 364-140L420-40Q390-19 343-3.50Q296 12 234 12Q188 12 150-3Q112-18 84.50-46Q57-74 41.50-114Q26-154 26-204M340-298Q342-304 343-312.50Q344-321 344-330Q344-356 332-373Q320-390 288-390Q259-390 232-368Q205-346 188-298L340-298Z"/><path id="s116:sourcesanspro-blackitalic:3" d=""/><path id="s116:sourcesanspro-blackitalic:8" d="M156-650L552-650L526-516L288-516L266-402L468-402L442-268L240-268L212-134L458-134L432 0L26 0L156-650Z"/><path id="s116:sourcesanspro-blackitalic:50" d="M444 0L314 0L314-64L310-64Q278-34 236.50-11Q195 12 150 12Q88 12 60-20.50Q32-53 32-118Q32-152 40-190L102-500L262-500L204-210Q201-196 198.50-185.50Q196-175 196-166Q196-145 207-134.50Q218-124 238-124Q258-124 277-137.50Q296-151 320-180L382-500L542-500L444 0Z"/><path id="s116:sourcesanspro-blackitalic:47" d="M106-500L236-500L232-402L236-402Q265-450 305.50-481Q346-512 388-512Q409-512 421.50-509.50Q434-507 442-502L390-364Q379-370 364.50-371Q350-372 338-372Q306-372 278.50-351Q251-330 222-280L168 0L8 0L106-500Z"/><path id="s116:sourcesanspro-blackitalic:44" d="M226 12Q181 12 144-3Q107-18 81-45.50Q55-73 40.50-111Q26-149 26-196Q26-269 51-327.50Q76-386 116.50-427Q157-468 207.50-490Q258-512 310-512Q355-512 392-497Q429-482 455-454.50Q481-427 495.50-388.50Q510-350 510-304Q510-231 485-172.50Q460-114 419.50-73Q379-32 328.50-10Q278 12 226 12M292-384Q270-384 251-370Q232-356 218-331.50Q204-307 196-272.50Q188-238 188-198Q188-160 201.50-138Q215-116 244-116Q266-116 285-130Q304-144 318-168.50Q332-193 340-227Q348-261 348-302Q348-340 334.50-362Q321-384 292-384Z"/><path id="s116:sourcesanspro-blackitalic:45" d="M156 52L132 176L-28 176L108-500L238-500L242-446L244-446Q277-476 315.50-494Q354-512 390-512Q456-512 493-464.50Q530-417 530-328Q530-257 508-195Q486-133 449-87Q412-41 364-14.50Q316 12 264 12Q235 12 210-2Q185-16 170-42L168-42L156 52M318-382Q298-382 275-370.50Q252-359 234-326L200-156Q208-136 222.50-127Q237-118 252-118Q274-118 294-132Q314-146 329.50-171Q345-196 354.50-231Q364-266 364-308Q364-347 351.50-364.50Q339-382 318-382Z"/><path id="s116:sourcesanspro-blackitalic:30" d="M28-172Q28-243 50-305Q72-367 109-413Q146-459 194-485.50Q242-512 294-512Q326-512 355-495.50Q384-479 398-450L400-450L422-500L550-500L450 0L320 0L320-62L318-62Q285-27 244.50-7.50Q204 12 168 12Q102 12 65-35.50Q28-83 28-172M240-118Q260-118 284-130.50Q308-143 328-184L360-344Q351-364 335.50-373Q320-382 306-382Q284-382 264-368Q244-354 228.50-329Q213-304 203.50-269Q194-234 194-192Q194-153 206.50-135.50Q219-118 240-118Z"/><path id="s116:sourcesanspro-blackitalic:43" d="M106-500L236-500L236-436L240-436Q275-466 316.50-489Q358-512 406-512Q468-512 496-479.50Q524-447 524-382Q524-348 516-310L454 0L294 0L352-290Q355-304 357.50-314.50Q360-325 360-334Q360-355 349-365.50Q338-376 318-376Q297-376 277-362.50Q257-349 230-320L168 0L8 0L106-500Z"/><path id="s116:sourcesanspro-blackitalic:41" d="M148-696L308-696L200-160Q198-152 198-148.50Q198-145 198-141Q198-127 204-121.50Q210-116 218-116Q223-116 226.50-116Q230-116 236-118L230 0Q216 5 195.50 8.50Q175 12 148 12Q86 12 60-17.50Q34-47 34-98Q34-113 35.50-129Q37-145 42-166L148-696Z"/><path id="s116:sourcesanspro-blackitalic:36" d="M544-500L448-20Q425 96 353.50 152Q282 208 172 208Q130 208 79.50 191Q29 174-16 138L52 32Q81 53 112 67.50Q143 82 176 82Q264 82 294-6L318-84L316-84Q283-52 248-36Q213-20 174-20Q111-20 69.50-62.50Q28-105 28-194Q28-261 49-319Q70-377 106-420Q142-463 189-487.50Q236-512 288-512Q320-512 348-495.50Q376-479 390-450L392-450L414-500L544-500M238-150Q259-150 282.50-160.50Q306-171 326-206L352-344Q343-364 328.50-373Q314-382 300-382Q278-382 259-370Q240-358 225.50-335.50Q211-313 202.50-282Q194-251 194-214Q194-181 206-165.50Q218-150 238-150Z"/><path id="s116:sourcesanspro-blackitalic:48" d="M82-162Q109-130 134-117Q159-104 182-104Q205-104 221.50-113.50Q238-123 238-138Q238-148 232-155Q226-162 215.50-169.50Q205-177 189-185Q173-193 154-204Q136-214 118.50-228Q101-242 87.50-259.50Q74-277 66-298Q58-319 58-344Q58-380 74-410.50Q90-441 117-463.50Q144-486 181-499Q218-512 260-512Q314-512 356-488.50Q398-465 430-432L344-350Q326-368 305-381Q284-394 260-394Q236-394 222-383.50Q208-373 208-358Q208-347 215-339.50Q222-332 233.50-325Q245-318 259.50-311Q274-304 288-296Q306-286 324-273.50Q342-261 356-244Q370-227 379-205.50Q388-184 388-156Q388-118 372-87.50Q356-57 327.50-34.50Q299-12 259 0Q219 12 172 12Q150 12 125 6Q100 0 75.50-12Q51-24 28.50-42.50Q6-61-10-86L82-162Z"/><path id="s116:sourcesanspro-blackitalic:42" d="M106-500L236-500L236-436L240-436Q275-466 315.50-489Q356-512 400-512Q454-512 479-489.50Q504-467 516-428Q555-464 596.50-488Q638-512 682-512Q744-512 772-479.50Q800-447 800-382Q800-348 792-310L730 0L570 0L628-290Q631-304 633.50-314.50Q636-325 636-334Q636-355 625-365.50Q614-376 594-376Q565-376 512-320L448 0L288 0L346-290Q349-304 351.50-314.50Q354-325 354-334Q354-355 343-365.50Q332-376 314-376Q283-376 230-320L168 0L8 0L106-500Z"/><path id="s116:sourcesanspro-blackitalic:31" d="M8 0L148-696L308-696L278-550L252-458L254-458Q286-484 320.50-498Q355-512 390-512Q456-512 493-464.50Q530-417 530-328Q530-257 508-195Q486-133 449-87Q412-41 364-14.50Q316 12 264 12Q232 12 205-4.50Q178-21 164-50L162-50L140 0L8 0M318-382Q298-382 275-370.50Q252-359 234-326L200-156Q208-136 222.50-127Q237-118 252-118Q274-118 294-132Q314-146 329.50-171Q345-196 354.50-231Q364-266 364-308Q364-347 351.50-364.50Q339-382 318-382Z"/><path id="s116:sourcesanspro-blackitalic:35" d="M70-494L136-500L138-514Q145-553 160.50-588Q176-623 201-650Q226-677 261.50-692.50Q297-708 344-708Q405-708 458-680L408-568Q400-573 387-577.50Q374-582 362-582Q349-582 339-580Q329-578 321-571.50Q313-565 307.50-552.50Q302-540 298-520L294-500L376-500L352-376L268-376L194 0L34 0L110-376L46-376L70-494Z"/><path id="s116:sourcesanspro-blackitalic:49" d="M106-376L42-376L66-494L138-500L182-628L316-628L292-500L400-500L376-376L264-376L226-188Q224-179 224-171.50Q224-164 224-156Q224-112 272-112Q288-112 308-122L336-10Q315-2 283.50 5Q252 12 210 12Q170 12 141.50 1.50Q113-9 95-27.50Q77-46 68.50-71.50Q60-97 60-128Q60-145 62.50-161Q65-177 68-194L106-376Z"/><path id="s116:sourcesanspro-blackitalic:38" d="M108-500L268-500L168 0L8 0L108-500M214-564Q198-564 183-568.50Q168-573 156-582Q144-591 137-605Q130-619 130-638Q130-656 137.50-672.50Q145-689 158-701Q171-713 188.50-720.50Q206-728 226-728Q242-728 257-723Q272-718 284-709Q296-700 303-686Q310-672 310-654Q310-615 282.50-589.50Q255-564 214-564Z"/><path id="s116:sourcesanspro-blackitalic:54" d="M24 52Q41 62 62 62Q85 62 107 46.50Q129 31 143 5L153-15L65-500L224-500L242-295Q245-263 246.50-221.50Q248-180 248-144L252-144Q267-179 284-220Q301-261 316-295L406-500L560-500L299-1Q271 47 243.50 83Q216 119 187 142Q158 165 125 176.50Q92 188 52 188Q37 188 14 181.50Q-9 175-24 166L24 52L24 52Z"/><path id="s116:sourcesanspro-blackitalic:509" d="M104 12Q68 12 46-11Q24-34 24-72Q24-92 32-112Q40-132 54.50-148Q69-164 89-174Q109-184 134-184Q170-184 192-160Q214-136 214-100Q214-79 206-59Q198-39 183.50-23Q169-7 149 2.50Q129 12 104 12Z"/><path id="s116:sourcesanspro-blackitalic:53" d="M168-268L84-500L246-500L271-423Q276-402 282-380.50Q288-359 293-338L297-338Q308-359 320.50-380.50Q333-402 344-423L382-500L552-500L360-232L450 0L286 0L260-76Q253-97 247-119Q241-141 234-162L230-162Q218-141 205-119.50Q192-98 179-76L133 0L-38 0L168-268Z"/><path id="s116:sourcesanspro-blackitalic:32" d="M26-196Q26-259 48.50-316Q71-373 111.50-416.50Q152-460 206.50-486Q261-512 326-512Q374-512 409-492.50Q444-473 462-450L374-356Q360-370 347-377Q334-384 316-384Q289-384 266-369.50Q243-355 226-329.50Q209-304 199.50-270Q190-236 190-198Q190-160 208-138Q226-116 262-116Q285-116 300.50-124.50Q316-133 330-144L396-46Q367-25 326.50-6.50Q286 12 226 12Q184 12 147.50-2Q111-16 84-42.50Q57-69 41.50-107.50Q26-146 26-196Z"/><path id="s116:sourcesanspro-blackitalic:9" d="M156-650L552-650L526-516L288-516L262-382L464-382L438-248L236-248L186 0L26 0L156-650Z"/><path id="s116:sourcesanspro-blackitalic:510" d="M-26 110Q35 93 67.50 63Q100 33 111-2Q74-4 50-24.50Q26-45 26-82Q26-102 33-120.50Q40-139 53.50-153Q67-167 86.50-175.50Q106-184 130-184Q175-184 199.50-155.50Q224-127 224-76Q224-24 208 21Q192 66 162 101.50Q132 137 88.50 161.50Q45 186-10 196L-26 110Z"/></defs><g id="line-0"><use x="0" y="847.5" xlink:href="#s116:sourcesanspro-blackitalic:23"/><use x="540" y="847.5" xlink:href="#s116:sourcesanspro-blackitalic:37"/><use x="1096" y="847.5" xlink:href="#s116:sourcesanspro-blackitalic:34"/><use x="1598" y="847.5" xlink:href="#s116:sourcesanspro-blackitalic:3"/><use x="1798" y="847.5" xlink:href="#s116:sourcesanspro-blackitalic:8"/><use x="2334" y="847.5" xlink:href="#s116:sourcesanspro-blackitalic:50"/><use x="2886" y="847.5" xlink:href="#s116:sourcesanspro-blackitalic:47"/><use x="3276" y="847.5" xlink:href="#s116:sourcesanspro-blackitalic:44"/><use x="3816" y="847.5" xlink:href="#s116:sourcesanspro-blackitalic:45"/><use x="4376" y="847.5" xlink:href="#s116:sourcesanspro-blackitalic:34"/><use x="4878" y="847.5" xlink:href="#s116:sourcesanspro-blackitalic:30"/><use x="5436" y="847.5" xlink:href="#s116:sourcesanspro-blackitalic:43"/><use x="5998" y="847.5" xlink:href="#s116:sourcesanspro-blackitalic:3"/><use x="6198" y="847.5" xlink:href="#s116:sourcesanspro-blackitalic:41"/><use x="6484" y="847.5" xlink:href="#s116:sourcesanspro-blackitalic:30"/><use x="7042" y="847.5" xlink:href="#s116:sourcesanspro-blackitalic:43"/><use x="7604" y="847.5" xlink:href="#s116:sourcesanspro-blackitalic:36"/><use x="8156" y="847.5" xlink:href="#s116:sourcesanspro-blackitalic:50"/><use x="8708" y="847.5" xlink:href="#s116:sourcesanspro-blackitalic:30"/><use x="9266" y="847.5" xlink:href="#s116:sourcesanspro-blackitalic:36"/><use x="9818" y="847.5" xlink:href="#s116:sourcesanspro-blackitalic:34"/><use x="10320" y="847.5" xlink:href="#s116:sourcesanspro-blackitalic:48"/><use x="10752" y="847.5" xlink:href="#s116:sourcesanspro-blackitalic:3"/><use x="10952" y="847.5" xlink:href="#s116:sourcesanspro-blackitalic:30"/><use x="11510" y="847.5" xlink:href="#s116:sourcesanspro-blackitalic:47"/><use x="11900" y="847.5" xlink:href="#s116:sourcesanspro-blackitalic:34"/><use x="12402" y="847.5" xlink:href="#s116:sourcesanspro-blackitalic:3"/><use x="12602" y="847.5" xlink:href="#s116:sourcesanspro-blackitalic:42"/><use x="13440" y="847.5" xlink:href="#s116:sourcesanspro-blackitalic:34"/><use x="13942" y="847.5" xlink:href="#s116:sourcesanspro-blackitalic:42"/><use x="14780" y="847.5" xlink:href="#s116:sourcesanspro-blackitalic:31"/><use x="15340" y="847.5" xlink:href="#s116:sourcesanspro-blackitalic:34"/><use x="15842" y="847.5" xlink:href="#s116:sourcesanspro-blackitalic:47"/><use x="16242" y="847.5" xlink:href="#s116:sourcesanspro-blackitalic:48"/><use x="16674" y="847.5" xlink:href="#s116:sourcesanspro-blackitalic:3"/><use x="16874" y="847.5" xlink:href="#s116:sourcesanspro-blackitalic:44"/><use x="17414" y="847.5" xlink:href="#s116:sourcesanspro-blackitalic:35"/><use x="17758" y="847.5" xlink:href="#s116:sourcesanspro-blackitalic:3"/><use x="17958" y="847.5" xlink:href="#s116:sourcesanspro-blackitalic:49"/><use x="18342" y="847.5" xlink:href="#s116:sourcesanspro-blackitalic:37"/><use x="18898" y="847.5" xlink:href="#s116:sourcesanspro-blackitalic:34"/><use x="19400" y="847.5" xlink:href="#s116:sourcesanspro-blackitalic:3"/><use x="19600" y="847.5" xlink:href="#s116:sourcesanspro-blackitalic:48"/><use x="20032" y="847.5" xlink:href="#s116:sourcesanspro-blackitalic:30"/><use x="20590" y="847.5" xlink:href="#s116:sourcesanspro-blackitalic:42"/><use x="21428" y="847.5" xlink:href="#s116:sourcesanspro-blackitalic:34"/><use x="21930" y="847.5" xlink:href="#s116:sourcesanspro-blackitalic:3"/><use x="22130" y="847.5" xlink:href="#s116:sourcesanspro-blackitalic:35"/><use x="22464" y="847.5" xlink:href="#s116:sourcesanspro-blackitalic:30"/><use x="23022" y="847.5" xlink:href="#s116:sourcesanspro-blackitalic:42"/><use x="23860" y="847.5" xlink:href="#s116:sourcesanspro-blackitalic:38"/><use x="24136" y="847.5" xlink:href="#s116:sourcesanspro-blackitalic:41"/><use x="24422" y="847.5" xlink:href="#s116:sourcesanspro-blackitalic:54"/><use x="24880" y="847.5" xlink:href="#s116:sourcesanspro-blackitalic:509"/></g><g id="line-1"><use x="5040.5" y="2047.5" xlink:href="#s116:sourcesanspro-blackitalic:23"/><use x="5580.5" y="2047.5" xlink:href="#s116:sourcesanspro-blackitalic:37"/><use x="6136.5" y="2047.5" xlink:href="#s116:sourcesanspro-blackitalic:34"/><use x="6638.5" y="2047.5" xlink:href="#s116:sourcesanspro-blackitalic:38"/><use x="6914.5" y="2047.5" xlink:href="#s116:sourcesanspro-blackitalic:47"/><use x="7314.5" y="2047.5" xlink:href="#s116:sourcesanspro-blackitalic:3"/><use x="7514.5" y="2047.5" xlink:href="#s116:sourcesanspro-blackitalic:48"/><use x="7946.5" y="2047.5" xlink:href="#s116:sourcesanspro-blackitalic:34"/><use x="8448.5" y="2047.5" xlink:href="#s116:sourcesanspro-blackitalic:45"/><use x="9008.5" y="2047.5" xlink:href="#s116:sourcesanspro-blackitalic:30"/><use x="9566.5" y="2047.5" xlink:href="#s116:sourcesanspro-blackitalic:47"/><use x="9956.5" y="2047.5" xlink:href="#s116:sourcesanspro-blackitalic:30"/><use x="10514.5" y="2047.5" xlink:href="#s116:sourcesanspro-blackitalic:49"/><use x="10884.5" y="2047.5" xlink:href="#s116:sourcesanspro-blackitalic:34"/><use x="11386.5" y="2047.5" xlink:href="#s116:sourcesanspro-blackitalic:3"/><use x="11586.5" y="2047.5" xlink:href="#s116:sourcesanspro-blackitalic:34"/><use x="12088.5" y="2047.5" xlink:href="#s116:sourcesanspro-blackitalic:53"/><use x="12602.5" y="2047.5" xlink:href="#s116:sourcesanspro-blackitalic:38"/><use x="12878.5" y="2047.5" xlink:href="#s116:sourcesanspro-blackitalic:48"/><use x="13310.5" y="2047.5" xlink:href="#s116:sourcesanspro-blackitalic:49"/><use x="13680.5" y="2047.5" xlink:href="#s116:sourcesanspro-blackitalic:34"/><use x="14182.5" y="2047.5" xlink:href="#s116:sourcesanspro-blackitalic:43"/><use x="14744.5" y="2047.5" xlink:href="#s116:sourcesanspro-blackitalic:32"/><use x="15175.5" y="2047.5" xlink:href="#s116:sourcesanspro-blackitalic:34"/><use x="15677.5" y="2047.5" xlink:href="#s116:sourcesanspro-blackitalic:3"/><use x="15877.5" y="2047.5" xlink:href="#s116:sourcesanspro-blackitalic:38"/><use x="16153.5" y="2047.5" xlink:href="#s116:sourcesanspro-blackitalic:48"/><use x="16585.5" y="2047.5" xlink:href="#s116:sourcesanspro-blackitalic:3"/><use x="16785.5" y="2047.5" xlink:href="#s116:sourcesanspro-blackitalic:30"/><use x="17343.5" y="2047.5" xlink:href="#s116:sourcesanspro-blackitalic:3"/><use x="17543.5" y="2047.5" xlink:href="#s116:sourcesanspro-blackitalic:42"/><use x="18381.5" y="2047.5" xlink:href="#s116:sourcesanspro-blackitalic:54"/><use x="18899.5" y="2047.5" xlink:href="#s116:sourcesanspro-blackitalic:49"/><use x="19283.5" y="2047.5" xlink:href="#s116:sourcesanspro-blackitalic:37"/><use x="19839.5" y="2047.5" xlink:href="#s116:sourcesanspro-blackitalic:509"/></g><g id="line-2"><use x="6192.5" y="3247.5" xlink:href="#s116:sourcesanspro-blackitalic:9"/><use x="6698.5" y="3247.5" xlink:href="#s116:sourcesanspro-blackitalic:44"/><use x="7238.5" y="3247.5" xlink:href="#s116:sourcesanspro-blackitalic:47"/><use x="7638.5" y="3247.5" xlink:href="#s116:sourcesanspro-blackitalic:3"/><use x="7838.5" y="3247.5" xlink:href="#s116:sourcesanspro-blackitalic:48"/><use x="8270.5" y="3247.5" xlink:href="#s116:sourcesanspro-blackitalic:32"/><use x="8716.5" y="3247.5" xlink:href="#s116:sourcesanspro-blackitalic:38"/><use x="8992.5" y="3247.5" xlink:href="#s116:sourcesanspro-blackitalic:34"/><use x="9494.5" y="3247.5" xlink:href="#s116:sourcesanspro-blackitalic:43"/><use x="10056.5" y="3247.5" xlink:href="#s116:sourcesanspro-blackitalic:32"/><use x="10487.5" y="3247.5" xlink:href="#s116:sourcesanspro-blackitalic:34"/><use x="10989.5" y="3247.5" xlink:href="#s116:sourcesanspro-blackitalic:510"/><use x="11299.5" y="3247.5" xlink:href="#s116:sourcesanspro-blackitalic:3"/><use x="11499.5" y="3247.5" xlink:href="#s116:sourcesanspro-blackitalic:42"/><use x="12337.5" y="3247.5" xlink:href="#s116:sourcesanspro-blackitalic:50"/><use x="12889.5" y="3247.5" xlink:href="#s116:sourcesanspro-blackitalic:48"/><use x="13321.5" y="3247.5" xlink:href="#s116:sourcesanspro-blackitalic:38"/><use x="13597.5" y="3247.5" xlink:href="#s116:sourcesanspro-blackitalic:32"/><use x="14043.5" y="3247.5" xlink:href="#s116:sourcesanspro-blackitalic:510"/><use x="14353.5" y="3247.5" xlink:href="#s116:sourcesanspro-blackitalic:3"/><use x="14553.5" y="3247.5" xlink:href="#s116:sourcesanspro-blackitalic:48"/><use x="14985.5" y="3247.5" xlink:href="#s116:sourcesanspro-blackitalic:45"/><use x="15545.5" y="3247.5" xlink:href="#s116:sourcesanspro-blackitalic:44"/><use x="16085.5" y="3247.5" xlink:href="#s116:sourcesanspro-blackitalic:47"/><use x="16485.5" y="3247.5" xlink:href="#s116:sourcesanspro-blackitalic:49"/><use x="16869.5" y="3247.5" xlink:href="#s116:sourcesanspro-blackitalic:510"/><use x="17179.5" y="3247.5" xlink:href="#s116:sourcesanspro-blackitalic:3"/><use x="17379.5" y="3247.5" xlink:href="#s116:sourcesanspro-blackitalic:34"/><use x="17861.5" y="3247.5" xlink:href="#s116:sourcesanspro-blackitalic:49"/><use x="18231.5" y="3247.5" xlink:href="#s116:sourcesanspro-blackitalic:32"/><use x="18677.5" y="3247.5" xlink:href="#s116:sourcesanspro-blackitalic:510"/></g></svg>