<svg xmlns="http://www.w3.org/2000/svg" xmlns:xlink="http://www.w3.org/1999/xlink" width="773" height="84" viewBox="0 0 32216 3520.5"><defs><path id="s109:sourcecodepro-bold:23" d="M226-528L31-528L31-652L569-652L569-528L374-528L374 0L226 0L226-528Z"/><path id="s109:sourcecodepro-bold:37" d="M72-701L219-701L219-529L211-434Q226-448 243.50-461.50Q261-475 281.50-485.50Q302-496 326.50-502Q351-508 379-508Q463-508 501.50-454Q540-400 540-306L540 0L393 0L393-287Q393-337 377-360Q361-383 320-383Q290-383 267.50-370Q245-357 219-331L219 0L72 0L72-701Z"/><path id="s109:sourcecodepro-bold:34" d="M55-248Q55-309 76.50-357Q98-405 134-438.50Q170-472 216.50-490Q263-508 313-508Q370-508 414-490Q458-472 487-440Q516-408 531-364.50Q546-321 546-270Q546-250 544-232Q542-214 540-205L206-205Q214-149 254.50-124.50Q295-100 350-100Q384-100 414.50-108.50Q445-117 478-134L526-46Q484-19 432-3.50Q380 12 330 12Q272 12 222-5.50Q172-23 135-56.50Q98-90 76.50-138Q55-186 55-248M413-302Q413-344 390-370Q367-396 316-396Q276-396 245-373Q214-350 204-302L413-302Z"/><path id="s109:sourcecodepro-bold:3" d=""/><path id="s109:sourcecodepro-bold:8" d="M94-652L524-652L524-528L241-528L241-397L481-397L481-274L241-274L241-124L534-124L534 0L94 0L94-652Z"/><path id="s109:sourcecodepro-bold:50" d="M525 0L405 0L394-71L390-71Q357-33 317-10.50Q277 12 223 12Q138 12 100-42Q62-96 62-190L62-496L209-496L209-209Q209-159 224-136Q239-113 281-113Q309-113 330.50-125Q352-137 378-170L378-496L525-496L525 0Z"/><path id="s109:sourcecodepro-bold:47" d="M116-496L236-496L248-388L251-388Q288-449 340-478.50Q392-508 452-508Q485-508 505.50-503Q526-498 548-488L518-365Q495-372 476.50-375.50Q458-379 430-379Q384-379 339.50-352Q295-325 263-258L263 0L116 0L116-496Z"/><path id="s109:sourcecodepro-bold:44" d="M47-248Q47-310 68-358.50Q89-407 124.50-440Q160-473 205.50-490.50Q251-508 300-508Q349-508 394.50-490.50Q440-473 475.50-440Q511-407 532-358.50Q553-310 553-248Q553-186 532-137.50Q511-89 475.50-56Q440-23 394.50-5.50Q349 12 300 12Q251 12 205.50-5.50Q160-23 124.50-56Q89-89 68-137.50Q47-186 47-248M198-248Q198-183 223.50-145Q249-107 300-107Q351-107 376.50-145Q402-183 402-248Q402-313 376.50-351Q351-389 300-389Q249-389 223.50-351Q198-313 198-248Z"/><path id="s109:sourcecodepro-bold:45" d="M219 39L219 184L72 184L72-496L192-496L203-446L206-446Q236-473 275-490.50Q314-508 354-508Q400-508 437-490Q474-472 500-439Q526-406 539.50-359.50Q553-313 553-256Q553-192 535-142.50Q517-93 487-58.50Q457-24 418.50-6Q380 12 338 12Q270 12 214-42L219 39M219-141Q240-123 262.50-115.50Q285-108 304-108Q346-108 374-142.50Q402-177 402-254Q402-388 311-388Q264-388 219-342L219-141Z"/><path id="s109:sourcecodepro-bold:30" d="M61-138Q61-180 79-211.50Q97-243 136.50-265Q176-287 238-300.50Q300-314 388-319Q384-353 358.50-372Q333-391 282-391Q246-391 209.50-378.50Q173-366 131-345L79-441Q130-470 188.50-489Q247-508 311-508Q415-508 475-453Q535-398 535-284L535 0L415 0L404-56L400-56Q362-27 317-7.50Q272 12 224 12Q186 12 156 0.50Q126-11 105-31.50Q84-52 72.50-79Q61-106 61-138M202-149Q202-125 220.50-113.50Q239-102 271-102Q304-102 333-115.50Q362-129 388-149L388-231Q333-228 297-221Q261-214 240-203.50Q219-193 210.50-179Q202-165 202-149Z"/><path id="s109:sourcecodepro-bold:43" d="M72-496L192-496L203-430L207-430Q239-462 280.50-485Q322-508 378-508Q462-508 501-454Q540-400 540-306L540 0L393 0L393-287Q393-337 377-360Q361-383 320-383Q290-383 267.50-370Q245-357 219-331L219 0L72 0L72-496Z"/><path id="s109:sourcecodepro-bold:41" d="M62-701L353-701L353-188Q353-165 359.50-149.50Q366-134 377.50-124.50Q389-115 403.50-111Q418-107 433-107Q450-107 469-110.50Q488-114 511-123L544-15Q524-9 507-4Q490 1 473 4.50Q456 8 437 10Q418 12 395 12Q301 12 253.50-43.50Q206-99 206-194L206-585L62-585L62-701Z"/><path id="s109:sourcecodepro-bold:36" d="M172 62Q172 90 205.50 104.50Q239 119 298 119Q358 119 395 101.50Q432 84 432 58Q432 34 410 26.50Q388 19 345 19L283 19Q256 19 238.50 17.50Q221 16 207 13Q188 25 180 36.50Q172 48 172 62M52 84Q52 23 129-15L129-19Q109-32 94-52Q79-72 79-104Q79-129 95.50-154Q112-179 138-197L138-201Q111-219 92-251.50Q73-284 73-328Q73-373 90.50-406.50Q108-440 137-462.50Q166-485 204.50-496.50Q243-508 285-508Q331-508 367-496L568-496L568-389L467-389Q476-378 483-360.50Q490-343 490-323Q490-280 474-249Q458-218 430.50-197.50Q403-177 365.50-167Q328-157 285-157Q253-157 217-167Q206-159 200.50-151Q195-143 195-131Q195-111 215-102Q235-93 279-93L371-93Q469-93 520.50-64Q572-35 572 32Q572 71 551 104Q530 137 492 160.50Q454 184 399 197.50Q344 211 277 211Q229 211 187.50 203.50Q146 196 116 180.50Q86 165 69 141Q52 117 52 84M285-246Q316-246 338.50-266.50Q361-287 361-328Q361-368 338.50-388.50Q316-409 285-409Q254-409 232.50-388.50Q211-368 211-328Q211-287 232.50-266.50Q254-246 285-246Z"/><path id="s109:sourcecodepro-bold:48" d="M119-156Q162-129 205.50-113Q249-97 299-97Q350-97 372-108Q394-119 394-139Q394-162 357.50-176.50Q321-191 261-208Q228-217 196.50-229.50Q165-242 140-259.50Q115-277 99.50-300Q84-323 84-353Q84-387 100-416Q116-445 145.50-465Q175-485 217.50-496.50Q260-508 313-508Q379-508 433.50-486.50Q488-465 527-440L461-352Q427-372 391-385.50Q355-399 316-399Q269-399 249.50-389Q230-379 230-360Q230-349 240-340Q250-331 267-324Q284-317 307.50-310.50Q331-304 357-297Q394-287 427-274.50Q460-262 485-245Q510-228 525-204Q540-180 540-148Q540-114 524-85Q508-56 477.50-34.50Q447-13 401.50-0.50Q356 12 296 12Q229 12 165-10Q101-32 53-64L119-156Z"/><path id="s109:sourcecodepro-bold:42" d="M36-496L146-496L157-434L161-434Q175-465 199.50-486.50Q224-508 267-508Q300-508 322.50-487.50Q345-467 354-427Q368-461 394.50-484.50Q421-508 463-508Q515-508 544-465.50Q573-423 573-348L573 0L435 0L435-337Q435-383 407-383Q380-383 361-335L361 0L248 0L248-337Q248-383 219-383Q205-383 195-371Q185-359 174-335L174 0L36 0L36-496Z"/><path id="s109:sourcecodepro-bold:31" d="M72-701L219-701L219-529L215-451Q244-478 280.50-493Q317-508 353-508Q399-508 436.50-490Q474-472 499.50-439.50Q525-407 539-360.50Q553-314 553-257Q553-193 535-143Q517-93 487-58.50Q457-24 418.50-6Q380 12 338 12Q303 12 268.50-5Q234-22 203-54L199-54L187 0L72 0L72-701M219-141Q240-123 262.50-115.50Q285-108 305-108Q346-108 374-142.50Q402-177 402-254Q402-388 311-388Q264-388 219-342L219-141Z"/><path id="s109:sourcecodepro-bold:35" d="M557-578Q508-597 453-597Q405-597 382.50-576Q360-555 360-510L360-496L531-496L531-381L360-381L360 0L213 0L213-381L82-381L82-490L213-496L213-509Q213-552 226-589Q239-626 266-653.50Q293-681 335-697Q377-713 435-713Q478-713 515.50-705Q553-697 585-686L557-578Z"/><path id="s109:sourcecodepro-bold:49" d="M174-381L49-381L49-490L181-496L200-628L321-628L321-496L531-496L531-381L321-381L321-207Q321-150 346-126.50Q371-103 425-103Q454-103 478-108Q502-113 524-121L550-15Q517-5 476.50 3.50Q436 12 388 12Q329 12 288-4Q247-20 221.50-48.50Q196-77 185-117Q174-157 174-206L174-381Z"/><path id="s109:sourcecodepro-bold:38" d="M79-496L425-496L425 0L278 0L278-381L79-381L79-496M345-569Q302-569 274.50-593Q247-617 247-658Q247-699 274.50-724.50Q302-750 345-750Q388-750 415.50-724.50Q443-699 443-658Q443-617 415.50-593Q388-569 345-569Z"/><path id="s109:sourcecodepro-bold:54" d="M93 72Q112 78 132 78Q175 78 199.50 60Q224 42 236 13L246-13L31-496L177-496L260-283Q274-248 286-210.50Q298-173 310-134L314-134Q324-171 336-208.50Q348-246 359-283L432-496L571-496L375 5Q357 52 336 87.50Q315 123 288 146.50Q261 170 225.50 182Q190 194 143 194Q121 194 102 191.50Q83 189 67 184L93 72L93 72Z"/><path id="s109:sourcecodepro-bold:483" d="M184-105Q184-130 192.50-151.50Q201-173 216-189Q231-205 252.50-214Q274-223 300-223Q326-223 347.50-214Q369-205 384-189Q399-173 407.50-151.50Q416-130 416-105Q416-55 384-21.50Q352 12 300 12Q248 12 216-21.50Q184-55 184-105Z"/><path id="s109:sourcecodepro-bold:53" d="M209-258L48-496L206-496L257-416Q268-395 282-373.50Q296-352 309-331L313-331Q323-352 333.50-374Q344-396 354-416L398-496L552-496L390-241L562 0L404 0L347-82Q333-103 318.50-125Q304-147 290-168L286-168Q275-147 263-125.50Q251-104 240-82L191 0L37 0L209-258Z"/><path id="s109:sourcecodepro-bold:32" d="M67-248Q67-310 90.50-358.50Q114-407 153.50-440Q193-473 245-490.50Q297-508 354-508Q413-508 460.50-489Q508-470 540-441L472-350Q417-389 362-389Q298-389 258-351Q218-313 218-248Q218-183 256.50-145Q295-107 357-107Q396-107 429-121Q462-135 488-154L548-61Q503-23 448.50-5.50Q394 12 343 12Q284 12 234-5.50Q184-23 146.50-56Q109-89 88-137.50Q67-186 67-248Z"/><path id="s109:sourcecodepro-bold:9" d="M108-652L538-652L538-528L255-528L255-377L496-377L496-253L255-253L255 0L108 0L108-652Z"/><path id="s109:sourcecodepro-bold:484" d="M182 131Q312 86 312-11Q308-10 301-10Q280-10 260.50-16.50Q241-23 226-36Q211-49 202-68Q193-87 193-112Q193-159 225.50-187Q258-215 305-215Q367-215 398-169.50Q429-124 429-43Q429 53 376 119Q323 185 219 217L182 131Z"/></defs><g id="line-0"><use x="0" y="847.5" xlink:href="#s109:sourcecodepro-bold:23"/><use x="600" y="847.5" xlink:href="#s109:sourcecodepro-bold:37"/><use x="1200" y="847.5" xlink:href="#s109:sourcecodepro-bold:34"/><use x="1800" y="847.5" xlink:href="#s109:sourcecodepro-bold:3"/><use x="2400" y="847.5" xlink:href="#s109:sourcecodepro-bold:8"/><use x="3000" y="847.5" xlink:href="#s109:sourcecodepro-bold:50"/><use x="3600" y="847.5" xlink:href="#s109:sourcecodepro-bold:47"/><use x="4200" y="847.5" xlink:href="#s109:sourcecodepro-bold:44"/><use x="4800" y="847.5" xlink:href="#s109:sourcecodepro-bold:45"/><use x="5400" y="847.5" xlink:href="#s109:sourcecodepro-bold:34"/><use x="6000" y="847.5" xlink:href="#s109:sourcecodepro-bold:30"/><use x="6600" y="847.5" xlink:href="#s109:sourcecodepro-bold:43"/><use x="7200" y="847.5" xlink:href="#s109:sourcecodepro-bold:3"/><use x="7800" y="847.5" xlink:href="#s109:sourcecodepro-bold:41"/><use x="8400" y="847.5" xlink:href="#s109:sourcecodepro-bold:30"/><use x="9000" y="847.5" xlink:href="#s109:sourcecodepro-bold:43"/><use x="9600" y="847.5" xlink:href="#s109:sourcecodepro-bold:36"/><use x="10200" y="847.5" xlink:href="#s109:sourcecodepro-bold:50"/><use x="10800" y="847.5" xlink:href="#s109:sourcecodepro-bold:30"/><use x="11400" y="847.5" xlink:href="#s109:sourcecodepro-bold:36"/><use x="12000" y="847.5" xlink:href="#s109:sourcecodepro-bold:34"/><use x="12600" y="847.5" xlink:href="#s109:sourcecodepro-bold:48"/><use x="13200" y="847.5" xlink:href="#s109:sourcecodepro-bold:3"/><use x="13800" y="847.5" xlink:href="#s109:sourcecodepro-bold:30"/><use x="14400" y="847.5" xlink:href="#s109:sourcecodepro-bold:47"/><use x="15000" y="847.5" xlink:href="#s109:sourcecodepro-bold:34"/><use x="15600" y="847.5" xlink:href="#s109:sourcecodepro-bold:3"/><use x="16200" y="847.5" xlink:href="#s109:sourcecodepro-bold:42"/><use x="16800" y="847.5" xlink:href="#s109:sourcecodepro-bold:34"/><use x="17400" y="847.5" xlink:href="#s109:sourcecodepro-bold:42"/><use x="18000" y="847.5" xlink:href="#s109:sourcecodepro-bold:31"/><use x="18600" y="847.5" xlink:href="#s109:sourcecodepro-bold:34"/><use x="19200" y="847.5" xlink:href="#s109:sourcecodepro-bold:47"/><use x="19800" y="847.5" xlink:href="#s109:sourcecodepro-bold:48"/><use x="20400" y="847.5" xlink:href="#s109:sourcecodepro-bold:3"/><use x="21000" y="847.5" xlink:href="#s109:sourcecodepro-bold:44"/><use x="21600" y="847.5" xlink:href="#s109:sourcecodepro-bold:35"/><use x="22200" y="847.5" xlink:href="#s109:sourcecodepro-bold:3"/><use x="22800" y="847.5" xlink:href="#s109:sourcecodepro-bold:49"/><use x="23400" y="847.5" xlink:href="#s109:sourcecodepro-bold:37"/><use x="24000" y="847.5" xlink:href="#s109:sourcecodepro-bold:34"/><use x="24600" y="847.5" xlink:href="#s109:sourcecodepro-bold:3"/><use x="25200" y="847.5" xlink:href="#s109:sourcecodepro-bold:48"/><use x="25800" y="847.5" xlink:href="#s109:sourcecodepro-bold:30"/><use x="26400" y="847.5" xlink:href="#s109:sourcecodepro-bold:42"/><use x="27000" y="847.5" xlink:href="#s109:sourcecodepro-bold:34"/><use x="27600" y="847.5" xlink:href="#s109:sourcecodepro-bold:3"/><use x="28200" y="847.5" xlink:href="#s109:sourcecodepro-bold:35"/><use x="28800" y="847.5" xlink:href="#s109:sourcecodepro-bold:30"/><use x="29400" y="847.5" xlink:href="#s109:sourcecodepro-bold:42"/><use x="30000" y="847.5" xlink:href="#s109:sourcecodepro-bold:38"/><use x="30600" y="847.5" xlink:href="#s109:sourcecodepro-bold:41"/><use x="31200" y="847.5" xlink:href="#s109:sourcecodepro-bold:54"/><use x="31800" y="847.5" xlink:href="#s109:sourcecodepro-bold:483"/></g><g id="line-1"><use x="5700" y="2047.5" xlink:href="#s109:sourcecodepro-bold:23"/><use x="6300" y="2047.5" xlink:href="#s109:sourcecodepro-bold:37"/><use x="6900" y="2047.5" xlink:href="#s109:sourcecodepro-bold:34"/><use x="7500" y="2047.5" xlink:href="#s109:sourcecodepro-bold:38"/><use x="8100" y="2047.5" xlink:href="#s109:sourcecodepro-bold:47"/><use x="8700" y="2047.5" xlink:href="#s109:sourcecodepro-bold:3"/><use x="9300" y="2047.5" xlink:href="#s109:sourcecodepro-bold:48"/><use x="9900" y="2047.5" xlink:href="#s109:sourcecodepro-bold:34"/><use x="10500" y="2047.5" xlink:href="#s109:sourcecodepro-bold:45"/><use x="11100" y="2047.5" xlink:href="#s109:sourcecodepro-bold:30"/><use x="11700" y="2047.5" xlink:href="#s109:sourcecodepro-bold:47"/><use x="12300" y="2047.5" xlink:href="#s109:sourcecodepro-bold:30"/><use x="12900" y="2047.5" xlink:href="#s109:sourcecodepro-bold:49"/><use x="13500" y="2047.5" xlink:href="#s109:sourcecodepro-bold:34"/><use x="14100" y="2047.5" xlink:href="#s109:sourcecodepro-bold:3"/><use x="14700" y="2047.5" xlink:href="#s109:sourcecodepro-bold:34"/><use x="15300" y="2047.5" xlink:href="#s109:sourcecodepro-bold:53"/><use x="15900" y="2047.5" xlink:href="#s109:sourcecodepro-bold:38"/><use x="16500" y="2047.5" xlink:href="#s109:sourcecodepro-bold:48"/><use x="17100" y="2047.5" xlink:href="#s109:sourcecodepro-bold:49"/><use x="17700" y="2047.5" xlink:href="#s109:sourcecodepro-bold:34"/><use x="18300" y="2047.5" xlink:href="#s109:sourcecodepro-bold:43"/><use x="18900" y="2047.5" xlink:href="#s109:sourcecodepro-bold:32"/><use x="19500" y="2047.5" xlink:href="#s109:sourcecodepro-bold:34"/><use x="20100" y="2047.5" xlink:href="#s109:sourcecodepro-bold:3"/><use x="20700" y="2047.5" xlink:href="#s109:sourcecodepro-bold:38"/><use x="21300" y="2047.5" xlink:href="#s109:sourcecodepro-bold:48"/><use x="21900" y="2047.5" xlink:href="#s109:sourcecodepro-bold:3"/><use x="22500" y="2047.5" xlink:href="#s109:sourcecodepro-bold:30"/><use x="23100" y="2047.5" xlink:href="#s109:sourcecodepro-bold:3"/><use x="23700" y="2047.5" xlink:href="#s109:sourcecodepro-bold:42"/><use x="24300" y="2047.5" xlink:href="#s109:sourcecodepro-bold:54"/><use x="24900" y="2047.5" xlink:href="#s109:sourcecodepro-bold:49"/><use x="25500" y="2047.5" xlink:href="#s109:sourcecodepro-bold:37"/><use x="26100" y="2047.5" xlink:href="#s109:sourcecodepro-bold:483"/></g><g id="line-2"><use x="6893.5" y="3247.5" xlink:href="#s109:sourcecodepro-bold:9"/><use x="7493.5" y="3247.5" xlink:href="#s109:sourcecodepro-bold:44"/><use x="8093.5" y="3247.5" xlink:href="#s109:sourcecodepro-bold:47"/><use x="8693.5" y="3247.5" xlink:href="#s109:sourcecodepro-bold:3"/><use x="9293.5" y="3247.5" xlink:href="#s109:sourcecodepro-bold:48"/><use x="9893.5" y="3247.5" xlink:href="#s109:sourcecodepro-bold:32"/><use x="10493.5" y="3247.5" xlink:href="#s109:sourcecodepro-bold:38"/><use x="11093.5" y="3247.5" xlink:href="#s109:sourcecodepro-bold:34"/><use x="11693.5" y="3247.5" xlink:href="#s109:sourcecodepro-bold:43"/><use x="12293.5" y="3247.5" xlink:href="#s109:sourcecodepro-bold:32"/><use x="12893.5" y="3247.5" xlink:href="#s109:sourcecodepro-bold:34"/><use x="13493.5" y="3247.5" xlink:href="#s109:sourcecodepro-bold:484"/><use x="14093.5" y="3247.5" xlink:href="#s109:sourcecodepro-bold:3"/><use x="14693.5" y="3247.5" xlink:href="#s109:sourcecodepro-bold:42"/><use x="15293.5" y="3247.5" xlink:href="#s109:sourcecodepro-bold:50"/><use x="15893.5" y="3247.5" xlink:href="#s109:sourcecodepro-bold:48"/><use x="16493.5" y="3247.5" xlink:href="#s109:sourcecodepro-bold:38"/><use x="17093.5" y="3247.5" xlink:href="#s109:sourcecodepro-bold:32"/><use x="17693.5" y="3247.5" xlink:href="#s109:sourcecodepro-bold:484"/><use x="18293.5" y="3247.5" xlink:href="#s109:sourcecodepro-bold:3"/><use x="18893.5" y="3247.5" xlink:href="#s109:sourcecodepro-bold:48"/><use x="19493.5" y="3247.5" xlink:href="#s109:sourcecodepro-bold:45"/><use x="20093.5" y="3247.5" xlink:href="#s109:sourcecodepro-bold:44"/><use x="20693.5" y="3247.5" xlink:href="#s109:sourcecodepro-bold:47"/><use x="21293.5" y="3247.5" xlink:href="#s109:sourcecodepro-bold:49"/><use x="21893.5" y="3247.5" xlink:href="#s109:sourcecodepro-bold:484"/><use x="22493.5" y="3247.5" xlink:href="#s109:sourcecodepro-bold:3"/><use x="23093.5" y="3247.5" xlink:href="#s109:sourcecodepro-bold:34"/><use x="23693.5" y="3247.5" xlink:href="#s109:sourcecodepro-bold:49"/><use x="24293.5" y="3247.5" xlink:href="#s109:sourcecodepro-bold:32"/><use x="24893.5" y="3247.5" xlink:href="#s109:sourcecodepro-bold:484"/></g></svg>