<svg xmlns="http://www.w3.org/2000/svg" xmlns:xlink="http://www.w3.org/1999/xlink" width="772" height="84" viewBox="0 0 32152 3520.5"><defs><path id="s110:sourcecodepro-extralight:23" d="M284-632L50-632L50-660L550-660L550-632L316-632L316 0L284 0L284-632Z"/><path id="s110:sourcecodepro-extralight:37" d="M110-722L140-722L140-508L138-378Q186-428 231.50-459Q277-490 336-490Q424-490 467-443.50Q510-397 510-298L510 0L480 0L480-294Q480-379 446-420.50Q412-462 336-462Q309-462 285.50-455Q262-448 239-433.50Q216-419 192-397Q168-375 140-346L140 0L110 0L110-722Z"/><path id="s110:sourcecodepro-extralight:34" d="M80-238Q80-296 100-343Q120-390 153.50-422.50Q187-455 230-472.50Q273-490 318-490Q366-490 405-475Q444-460 472-431.50Q500-403 515-362.50Q530-322 530-270Q530-262 530-254.50Q530-247 528-238L112-238Q112-190 128-149.50Q144-109 172.50-79Q201-49 241.50-32.50Q282-16 332-16Q382-16 422-31Q462-46 496-70L510-44Q494-34 476.50-24Q459-14 437-6Q415 2 389 7Q363 12 330 12Q279 12 233.50-5Q188-22 154-54.50Q120-87 100-133Q80-179 80-238M500-266Q500-364 449.50-413Q399-462 318-462Q280-462 245-448Q210-434 182.50-408.50Q155-383 136-347Q117-311 112-266L500-266Z"/><path id="s110:sourcecodepro-extralight:3" d=""/><path id="s110:sourcecodepro-extralight:8" d="M132-660L516-660L516-632L164-632L164-366L460-366L460-338L164-338L164-28L526-28L526 0L132 0L132-660Z"/><path id="s110:sourcecodepro-extralight:50" d="M490 0L464 0L460-96L456-96Q416-49 369.50-18.50Q323 12 264 12Q176 12 133-34.50Q90-81 90-180L90-478L120-478L120-184Q120-99 154-57.50Q188-16 264-16Q291-16 315-23Q339-30 362.50-44.50Q386-59 410-80.50Q434-102 460-132L460-478L490-478L490 0Z"/><path id="s110:sourcecodepro-extralight:47" d="M170-478L196-478L200-358L202-358Q241-415 299-452.50Q357-490 431-490Q454-490 479.50-486Q505-482 528-470L518-442Q491-452 473-456Q455-460 427-460Q365-460 308.50-425Q252-390 200-306L200 0L170 0L170-478Z"/><path id="s110:sourcecodepro-extralight:44" d="M70-238Q70-298 88.50-345Q107-392 138.50-424Q170-456 211.50-473Q253-490 300-490Q347-490 388.50-473Q430-456 461.50-424Q493-392 511.50-345Q530-298 530-238Q530-179 511.50-132.50Q493-86 461.50-54Q430-22 388.50-5Q347 12 300 12Q253 12 211.50-5Q170-22 138.50-54Q107-86 88.50-132.50Q70-179 70-238M102-238Q102-188 117-147.50Q132-107 158.50-77.50Q185-48 221-32Q257-16 300-16Q343-16 379-32Q415-48 441.50-77.50Q468-107 483-147.50Q498-188 498-238Q498-287 483-328.50Q468-370 441.50-399.50Q415-429 379-445.50Q343-462 300-462Q257-462 221-445.50Q185-429 158.50-399.50Q132-370 117-328.50Q102-287 102-238Z"/><path id="s110:sourcecodepro-extralight:45" d="M140 42L140 222L110 222L110-478L136-478L140-406L142-406Q179-442 228.50-466Q278-490 326-490Q429-490 479.50-423.50Q530-357 530-246Q530-185 511.50-137Q493-89 462-56Q431-23 390-5.50Q349 12 304 12Q269 12 223.50-6.50Q178-25 140-58L140 42M140-92Q185-51 231-33.50Q277-16 306-16Q348-16 383-33Q418-50 443.50-80.50Q469-111 483.50-153.50Q498-196 498-246Q498-292 488.50-331.50Q479-371 458-400Q437-429 404-445.50Q371-462 324-462Q284-462 236-439Q188-416 140-368L140-92Z"/><path id="s110:sourcecodepro-extralight:30" d="M96-117Q96-157 117.50-187Q139-217 184-238.50Q229-260 300-274.50Q371-289 470-298Q470-329 463-359Q456-389 439.50-411.50Q423-434 394-448Q365-462 322-462Q293-462 266-455.50Q239-449 214.50-438.50Q190-428 170-416Q150-404 136-394L120-418Q133-428 154-440.50Q175-453 202-464Q229-475 260.50-482.50Q292-490 324-490Q372-490 405.50-475.50Q439-461 460-436Q481-411 490.50-378.50Q500-346 500-310L500 0L474 0L470-74L468-74Q447-57 422.50-41.50Q398-26 372-14Q346-2 318.50 5Q291 12 264 12Q232 12 202 4.50Q172-3 148.50-18.50Q125-34 110.50-58.50Q96-83 96-117M128-118Q128-90 140-70.50Q152-51 171.50-39Q191-27 215.50-21.50Q240-16 266-16Q361-16 470-108L470-272Q373-263 307.50-249.50Q242-236 202-217Q162-198 145-173.50Q128-149 128-118Z"/><path id="s110:sourcecodepro-extralight:43" d="M110-478L136-478L140-382L144-382Q165-405 187-425Q209-445 232-459.50Q255-474 281-482Q307-490 336-490Q424-490 467-443.50Q510-397 510-298L510 0L480 0L480-294Q480-379 446-420.50Q412-462 336-462Q309-462 285.50-455Q262-448 239-433.50Q216-419 192-397Q168-375 140-346L140 0L110 0L110-478Z"/><path id="s110:sourcecodepro-extralight:41" d="M97-722L310-722L310-132Q310-16 417-16Q441-16 465.50-22.50Q490-29 520-43L532-18Q503-7 476.50 2.50Q450 12 415 12Q350 12 315-22.50Q280-57 280-138L280-694L97-694L97-722Z"/><path id="s110:sourcecodepro-extralight:36" d="M120 97Q120 143 165.50 174.50Q211 206 306 206Q358 206 399.50 194.50Q441 183 469.50 164Q498 145 513 121.50Q528 98 528 74Q528 31 495.50 14.50Q463-2 397-2L276-2Q259-2 239.50-4Q220-6 203-11Q156 14 138 41.50Q120 69 120 97M88 93Q88 65 109.50 34Q131 3 170-22L170-26Q152-34 136-53Q120-72 120-102Q120-125 134.50-148.50Q149-172 178-192L178-196Q155-216 138.50-246Q122-276 122-320Q122-356 135.50-387Q149-418 173-441Q197-464 228.50-477Q260-490 296-490Q333-490 360-478L560-478L560-450L408-450Q432-427 451-394.50Q470-362 470-320Q470-284 456.50-253Q443-222 419-199.50Q395-177 363.50-164.50Q332-152 296-152Q273-152 249-158Q225-164 202-176Q179-162 165.50-143.50Q152-125 152-105Q152-68 183.50-51Q215-34 266-34L389-34Q480-34 520-9.50Q560 15 560 72Q560 102 542.50 131Q525 160 493 183Q461 206 415 220Q369 234 312 234Q198 234 143 194.50Q88 155 88 93M296-180Q325-180 351-190.50Q377-201 396.50-219.50Q416-238 427-263.50Q438-289 438-320Q438-351 427-377Q416-403 396.50-422Q377-441 351-451.50Q325-462 296-462Q267-462 241-451.50Q215-441 195.50-422Q176-403 165-377Q154-351 154-320Q154-289 165-263.50Q176-238 195.50-219.50Q215-201 241-190.50Q267-180 296-180Z"/><path id="s110:sourcecodepro-extralight:48" d="M106-88Q145-55 195.50-35.50Q246-16 324-16Q363-16 392.50-24.50Q422-33 442-47Q462-61 472-79.50Q482-98 482-118Q482-135 475.50-150.50Q469-166 449.50-180Q430-194 395-207.50Q360-221 304-234Q262-244 227.50-257Q193-270 167.50-286.50Q142-303 128-323Q114-343 114-366Q114-391 124.50-413.50Q135-436 157.50-453Q180-470 214-480Q248-490 296-490Q342-490 392-474Q442-458 476-432L458-408Q426-432 385.50-447Q345-462 294-462Q252-462 223.50-454Q195-446 177.50-433Q160-420 153-403Q146-386 146-368Q146-332 190.50-307Q235-282 312-263Q371-248 410-233.50Q449-219 472-202Q495-185 504.50-165Q514-145 514-120Q514-94 501-70Q488-46 463.50-28Q439-10 403.50 1Q368 12 322 12Q247 12 188-10.50Q129-33 87-64L106-88Z"/><path id="s110:sourcecodepro-extralight:42" d="M80-478L106-478L110-412L112-412Q134-448 158.50-469Q183-490 223-490Q264-490 287-469Q310-448 320-404Q348-446 373.50-468Q399-490 439-490Q489-490 515.50-455Q542-420 542-348L542 0L512 0L512-344Q512-462 437-462Q402-462 377-438Q352-414 326-366L326 0L296 0L296-344Q296-462 221-462Q186-462 161-438Q136-414 110-366L110 0L80 0L80-478Z"/><path id="s110:sourcecodepro-extralight:31" d="M110-722L140-722L140-508L138-402Q178-441 228-465.50Q278-490 326-490Q429-490 479.50-423.50Q530-357 530-246Q530-185 511.50-137Q493-89 462.50-56Q432-23 391.50-5.50Q351 12 306 12Q269 12 224-6Q179-24 142-54L140-54L136 0L110 0L110-722M140-92Q185-51 231-33.50Q277-16 308-16Q349-16 384-33Q419-50 444.50-80.50Q470-111 484-153.50Q498-196 498-246Q498-292 488.50-331.50Q479-371 458-400Q437-429 404-445.50Q371-462 324-462Q284-462 236-439Q188-416 140-368L140-92Z"/><path id="s110:sourcecodepro-extralight:35" d="M560-680Q543-688 528.50-693Q514-698 500-701Q486-704 471.50-705Q457-706 440-706Q400-706 372.50-694Q345-682 327.50-661Q310-640 302-610.50Q294-581 294-546L294-478L524-478L524-450L294-450L294 0L266 0L266-450L120-450L120-474L266-478L266-542Q266-634 309-684Q352-734 440-734Q471-734 502.50-728Q534-722 572-704L560-680Z"/><path id="s110:sourcecodepro-extralight:49" d="M232-450L84-450L84-474L232-478L236-618L262-618L262-478L524-478L524-450L262-450L262-172Q262-136 268-107Q274-78 289-58Q304-38 330.50-27Q357-16 399-16Q439-16 471-23Q503-30 532-42L542-18Q510-4 470 4Q430 12 397 12Q349 12 317.50-1.50Q286-15 267-40Q248-65 240-99.50Q232-134 232-176L232-450Z"/><path id="s110:sourcecodepro-extralight:38" d="M100-478L376-478L376 0L346 0L346-450L100-450L100-478M350-600Q333-600 321.50-611Q310-622 310-642Q310-662 321.50-673Q333-684 350-684Q367-684 378.50-673Q390-662 390-642Q390-622 378.50-611Q367-600 350-600Z"/><path id="s110:sourcecodepro-extralight:54" d="M77 184Q86 187 98.50 189.50Q111 192 125 192Q154 192 177.50 181.50Q201 171 220.50 153Q240 135 255 110Q270 85 282 56L300 12L64-478L96-478L244-164Q258-134 276-98Q294-62 312-30L316-30Q331-62 346-98Q361-134 374-164L506-478L536-478L306 68Q296 96 280 123.50Q264 151 241 173Q218 195 188.50 208.50Q159 222 122 222Q108 222 92.50 219.50Q77 217 67 212L77 184L77 184Z"/><path id="s110:sourcecodepro-extralight:483" d="M248-46Q248-75 264-89.50Q280-104 300-104Q320-104 336-89.50Q352-75 352-46Q352-17 336-2.50Q320 12 300 12Q280 12 264-2.50Q248-17 248-46Z"/><path id="s110:sourcecodepro-extralight:53" d="M281-248L102-478L138-478L236-350Q251-330 266-310Q281-290 298-270L302-270Q319-290 336-311Q353-332 368-352L464-478L498-478L317-248L514 0L478 0L370-137Q353-157 335.50-181Q318-205 300-226L296-226Q278-203 261-181.50Q244-160 226-136L120 0L86 0L281-248Z"/><path id="s110:sourcecodepro-extralight:32" d="M90-238Q90-298 110.50-345Q131-392 166-424Q201-456 248-473Q295-490 348-490Q378-490 403-484Q428-478 449-467.50Q470-457 487-443.50Q504-430 519-416L499-394Q468-424 431.50-443Q395-462 348-462Q298-462 256.50-445.50Q215-429 185-399.50Q155-370 138.50-328.50Q122-287 122-238Q122-188 138-147.50Q154-107 184-77.50Q214-48 255.50-32Q297-16 348-16Q399-16 440-36Q481-56 514-88L532-66Q496-31 450.50-9.50Q405 12 348 12Q292 12 245-5Q198-22 163.50-54Q129-86 109.50-132.50Q90-179 90-238Z"/><path id="s110:sourcecodepro-extralight:9" d="M156-660L534-660L534-632L187-632L187-354L479-354L479-326L187-326L187 0L156 0L156-660Z"/><path id="s110:sourcecodepro-extralight:484" d="M208 185Q268 154 298.50 110Q329 66 331-3Q320 1 307 1Q283 1 268-11.50Q253-24 253-52Q253-81 269.50-93.50Q286-106 306-106Q337-106 353-80.50Q369-55 369-13Q369 69 328 124.50Q287 180 221 210L208 185Z"/></defs><g id="line-0"><use x="0" y="847.5" xlink:href="#s110:sourcecodepro-extralight:23"/><use x="600" y="847.5" xlink:href="#s110:sourcecodepro-extralight:37"/><use x="1200" y="847.5" xlink:href="#s110:sourcecodepro-extralight:34"/><use x="1800" y="847.5" xlink:href="#s110:sourcecodepro-extralight:3"/><use x="2400" y="847.5" xlink:href="#s110:sourcecodepro-extralight:8"/><use x="3000" y="847.5" xlink:href="#s110:sourcecodepro-extralight:50"/><use x="3600" y="847.5" xlink:href="#s110:sourcecodepro-extralight:47"/><use x="4200" y="847.5" xlink:href="#s110:sourcecodepro-extralight:44"/><use x="4800" y="847.5" xlink:href="#s110:sourcecodepro-extralight:45"/><use x="5400" y="847.5" xlink:href="#s110:sourcecodepro-extralight:34"/><use x="6000" y="847.5" xlink:href="#s110:sourcecodepro-extralight:30"/><use x="6600" y="847.5" xlink:href="#s110:sourcecodepro-extralight:43"/><use x="7200" y="847.5" xlink:href="#s110:sourcecodepro-extralight:3"/><use x="7800" y="847.5" xlink:href="#s110:sourcecodepro-extralight:41"/><use x="8400" y="847.5" xlink:href="#s110:sourcecodepro-extralight:30"/><use x="9000" y="847.5" xlink:href="#s110:sourcecodepro-extralight:43"/><use x="9600" y="847.5" xlink:href="#s110:sourcecodepro-extralight:36"/><use x="10200" y="847.5" xlink:href="#s110:sourcecodepro-extralight:50"/><use x="10800" y="847.5" xlink:href="#s110:sourcecodepro-extralight:30"/><use x="11400" y="847.5" xlink:href="#s110:sourcecodepro-extralight:36"/><use x="12000" y="847.5" xlink:href="#s110:sourcecodepro-extralight:34"/><use x="12600" y="847.5" xlink:href="#s110:sourcecodepro-extralight:48"/><use x="13200" y="847.5" xlink:href="#s110:sourcecodepro-extralight:3"/><use x="13800" y="847.5" xlink:href="#s110:sourcecodepro-extralight:30"/><use x="14400" y="847.5" xlink:href="#s110:sourcecodepro-extralight:47"/><use x="15000" y="847.5" xlink:href="#s110:sourcecodepro-extralight:34"/><use x="15600" y="847.5" xlink:href="#s110:sourcecodepro-extralight:3"/><use x="16200" y="847.5" xlink:href="#s110:sourcecodepro-extralight:42"/><use x="16800" y="847.5" xlink:href="#s110:sourcecodepro-extralight:34"/><use x="17400" y="847.5" xlink:href="#s110:sourcecodepro-extralight:42"/><use x="18000" y="847.5" xlink:href="#s110:sourcecodepro-extralight:31"/><use x="18600" y="847.5" xlink:href="#s110:sourcecodepro-extralight:34"/><use x="19200" y="847.5" xlink:href="#s110:sourcecodepro-extralight:47"/><use x="19800" y="847.5" xlink:href="#s110:sourcecodepro-extralight:48"/><use x="20400" y="847.5" xlink:href="#s110:sourcecodepro-extralight:3"/><use x="21000" y="847.5" xlink:href="#s110:sourcecodepro-extralight:44"/><use x="21600" y="847.5" xlink:href="#s110:sourcecodepro-extralight:35"/><use x="22200" y="847.5" xlink:href="#s110:sourcecodepro-extralight:3"/><use x="22800" y="847.5" xlink:href="#s110:sourcecodepro-extralight:49"/><use x="23400" y="847.5" xlink:href="#s110:sourcecodepro-extralight:37"/><use x="24000" y="847.5" xlink:href="#s110:sourcecodepro-extralight:34"/><use x="24600" y="847.5" xlink:href="#s110:sourcecodepro-extralight:3"/><use x="25200" y="847.5" xlink:href="#s110:sourcecodepro-extralight:48"/><use x="25800" y="847.5" xlink:href="#s110:sourcecodepro-extralight:30"/><use x="26400" y="847.5" xlink:href="#s110:sourcecodepro-extralight:42"/><use x="27000" y="847.5" xlink:href="#s110:sourcecodepro-extralight:34"/><use x="27600" y="847.5" xlink:href="#s110:sourcecodepro-extralight:3"/><use x="28200" y="847.5" xlink:href="#s110:sourcecodepro-extralight:35"/><use x="28800" y="847.5" xlink:href="#s110:sourcecodepro-extralight:30"/><use x="29400" y="847.5" xlink:href="#s110:sourcecodepro-extralight:42"/><use x="30000" y="847.5" xlink:href="#s110:sourcecodepro-extralight:38"/><use x="30600" y="847.5" xlink:href="#s110:sourcecodepro-extralight:41"/><use x="31200" y="847.5" xlink:href="#s110:sourcecodepro-extralight:54"/><use x="31800" y="847.5" xlink:href="#s110:sourcecodepro-extralight:483"/></g><g id="line-1"><use x="5700" y="2047.5" xlink:href="#s110:sourcecodepro-extralight:23"/><use x="6300" y="2047.5" xlink:href="#s110:sourcecodepro-extralight:37"/><use x="6900" y="2047.5" xlink:href="#s110:sourcecodepro-extralight:34"/><use x="7500" y="2047.5" xlink:href="#s110:sourcecodepro-extralight:38"/><use x="8100" y="2047.5" xlink:href="#s110:sourcecodepro-extralight:47"/><use x="8700" y="2047.5" xlink:href="#s110:sourcecodepro-extralight:3"/><use x="9300" y="2047.5" xlink:href="#s110:sourcecodepro-extralight:48"/><use x="9900" y="2047.5" xlink:href="#s110:sourcecodepro-extralight:34"/><use x="10500" y="2047.5" xlink:href="#s110:sourcecodepro-extralight:45"/><use x="11100" y="2047.5" xlink:href="#s110:sourcecodepro-extralight:30"/><use x="11700" y="2047.5" xlink:href="#s110:sourcecodepro-extralight:47"/><use x="12300" y="2047.5" xlink:href="#s110:sourcecodepro-extralight:30"/><use x="12900" y="2047.5" xlink:href="#s110:sourcecodepro-extralight:49"/><use x="13500" y="2047.5" xlink:href="#s110:sourcecodepro-extralight:34"/><use x="14100" y="2047.5" xlink:href="#s110:sourcecodepro-extralight:3"/><use x="14700" y="2047.5" xlink:href="#s110:sourcecodepro-extralight:34"/><use x="15300" y="2047.5" xlink:href="#s110:sourcecodepro-extralight:53"/><use x="15900" y="2047.5" xlink:href="#s110:sourcecodepro-extralight:38"/><use x="16500" y="2047.5" xlink:href="#s110:sourcecodepro-extralight:48"/><use x="17100" y="2047.5" xlink:href="#s110:sourcecodepro-extralight:49"/><use x="17700" y="2047.5" xlink:href="#s110:sourcecodepro-extralight:34"/><use x="18300" y="2047.5" xlink:href="#s110:sourcecodepro-extralight:43"/><use x="18900" y="2047.5" xlink:href="#s110:sourcecodepro-extralight:32"/><use x="19500" y="2047.5" xlink:href="#s110:sourcecodepro-extralight:34"/><use x="20100" y="2047.5" xlink:href="#s110:sourcecodepro-extralight:3"/><use x="20700" y="2047.5" xlink:href="#s110:sourcecodepro-extralight:38"/><use x="21300" y="2047.5" xlink:href="#s110:sourcecodepro-extralight:48"/><use x="21900" y="2047.5" xlink:href="#s110:sourcecodepro-extralight:3"/><use x="22500" y="2047.5" xlink:href="#s110:sourcecodepro-extralight:30"/><use x="23100" y="2047.5" xlink:href="#s110:sourcecodepro-extralight:3"/><use x="23700" y="2047.5" xlink:href="#s110:sourcecodepro-extralight:42"/><use x="24300" y="2047.5" xlink:href="#s110:sourcecodepro-extralight:54"/><use x="24900" y="2047.5" xlink:href="#s110:sourcecodepro-extralight:49"/><use x="25500" y="2047.5" xlink:href="#s110:sourcecodepro-extralight:37"/><use x="26100" y="2047.5" xlink:href="#s110:sourcecodepro-extralight:483"/></g><g id="line-2"><use x="6891.5" y="3247.5" xlink:href="#s110:sourcecodepro-extralight:9"/><use x="7491.5" y="3247.5" xlink:href="#s110:sourcecodepro-extralight:44"/><use x="8091.5" y="3247.5" xlink:href="#s110:sourcecodepro-extralight:47"/><use x="8691.5" y="3247.5" xlink:href="#s110:sourcecodepro-extralight:3"/><use x="9291.5" y="3247.5" xlink:href="#s110:sourcecodepro-extralight:48"/><use x="9891.5" y="3247.5" xlink:href="#s110:sourcecodepro-extralight:32"/><use x="10491.5" y="3247.5" xlink:href="#s110:sourcecodepro-extralight:38"/><use x="11091.5" y="3247.5" xlink:href="#s110:sourcecodepro-extralight:34"/><use x="11691.5" y="3247.5" xlink:href="#s110:sourcecodepro-extralight:43"/><use x="12291.5" y="3247.5" xlink:href="#s110:sourcecodepro-extralight:32"/><use x="12891.5" y="3247.5" xlink:href="#s110:sourcecodepro-extralight:34"/><use x="13491.5" y="3247.5" xlink:href="#s110:sourcecodepro-extralight:484"/><use x="14091.5" y="3247.5" xlink:href="#s110:sourcecodepro-extralight:3"/><use x="14691.5" y="3247.5" xlink:href="#s110:sourcecodepro-extralight:42"/><use x="15291.5" y="3247.5" xlink:href="#s110:sourcecodepro-extralight:50"/><use x="15891.5" y="3247.5" xlink:href="#s110:sourcecodepro-extralight:48"/><use x="16491.5" y="3247.5" xlink:href="#s110:sourcecodepro-extralight:38"/><use x="17091.5" y="3247.5" xlink:href="#s110:sourcecodepro-extralight:32"/><use x="17691.5" y="3247.5" xlink:href="#s110:sourcecodepro-extralight:484"/><use x="18291.5" y="3247.5" xlink:href="#s110:sourcecodepro-extralight:3"/><use x="18891.5" y="3247.5" xlink:href="#s110:sourcecodepro-extralight:48"/><use x="19491.5" y="3247.5" xlink:href="#s110:sourcecodepro-extralight:45"/><use x="20091.5" y="3247.5" xlink:href="#s110:sourcecodepro-extralight:44"/><use x="20691.5" y="3247.5" xlink:href="#s110:sourcecodepro-extralight:47"/><use x="21291.5" y="3247.5" xlink:href="#s110:sourcecodepro-extralight:49"/><use x="21891.5" y="3247.5" xlink:href="#s110:sourcecodepro-extralight:484"/><use x="22491.5" y="3247.5" xlink:href="#s110:sourcecodepro-extralight:3"/><use x="23091.5" y="3247.5" xlink:href="#s110:sourcecodepro-extralight:34"/><use x="23691.5" y="3247.5" xlink:href="#s110:sourcecodepro-extralight:49"/><use x="24291.5" y="3247.5" xlink:href="#s110:sourcecodepro-extralight:32"/><use x="24891.5" y="3247.5" xlink:href="#s110:sourcecodepro-extralight:484"/></g></svg>