<svg xmlns="http://www.w3.org/2000/svg" xmlns:xlink="http://www.w3.org/1999/xlink" width="551" height="84" viewBox="0 0 22954 3520.5"><defs><path id="s119:sourcesanspro-extralight:23" d="M244-632L30-632L30-660L490-660L490-632L276-632L276 0L244 0L244-632Z"/><path id="s119:sourcesanspro-extralight:37" d="M96-722L126-722L126-508L126-400Q165-439 204.50-464.50Q244-490 294-490Q368-490 403-446Q438-402 438-308L438 0L408 0L408-304Q408-384 381-423Q354-462 292-462Q247-462 209.50-438Q172-414 126-366L126 0L96 0L96-722Z"/><path id="s119:sourcesanspro-extralight:34" d="M54-238Q54-296 71.50-343Q89-390 117.50-422.50Q146-455 183-472.50Q220-490 260-490Q343-490 391.50-433.50Q440-377 440-270Q440-262 440-254.50Q440-247 438-238L86-238Q86-190 99.50-149.50Q113-109 137.50-79Q162-49 196.50-32.50Q231-16 274-16Q315-16 347-28Q379-40 406-60L420-34Q393-17 359.50-2.50Q326 12 272 12Q227 12 187.50-5Q148-22 118-54.50Q88-87 71-133Q54-179 54-238M410-264Q410-364 369-413Q328-462 260-462Q228-462 198-448Q168-434 144.50-408.50Q121-383 105.50-346.50Q90-310 86-264L410-264Z"/><path id="s119:sourcesanspro-extralight:3" d=""/><path id="s119:sourcesanspro-extralight:8" d="M100-660L454-660L454-632L132-632L132-366L402-366L402-338L132-338L132-28L464-28L464 0L100 0L100-660Z"/><path id="s119:sourcesanspro-extralight:50" d="M88-478L118-478L118-174Q118-94 145-55Q172-16 234-16Q279-16 316-41Q353-66 398-120L398-478L428-478L428 0L402 0L398-82L396-82Q360-40 321-14Q282 12 232 12Q158 12 123-32Q88-76 88-170L88-478Z"/><path id="s119:sourcesanspro-extralight:47" d="M96-478L122-478L126-388L128-388Q152-432 186-461Q220-490 264-490Q276-490 287-488Q298-486 310-480L302-452Q290-457 282-458.50Q274-460 260-460Q227-460 191-431.50Q155-403 126-332L126 0L96 0L96-478Z"/><path id="s119:sourcesanspro-extralight:44" d="M54-238Q54-298 71-345Q88-392 117-424Q146-456 184.50-473Q223-490 266-490Q309-490 347.50-473Q386-456 415-424Q444-392 461-345Q478-298 478-238Q478-179 461-132.50Q444-86 415-54Q386-22 347.50-5Q309 12 266 12Q223 12 184.50-5Q146-22 117-54Q88-86 71-132.50Q54-179 54-238M86-238Q86-188 100-147.50Q114-107 138-77.50Q162-48 195-32Q228-16 266-16Q304-16 337-32Q370-48 394-77.50Q418-107 432-147.50Q446-188 446-238Q446-287 432-328.50Q418-370 394-399.50Q370-429 337-445.50Q304-462 266-462Q228-462 195-445.50Q162-429 138-399.50Q114-370 100-328.50Q86-287 86-238Z"/><path id="s119:sourcesanspro-extralight:45" d="M126 42L126 222L96 222L96-478L122-478L126-416L128-416Q164-445 206.50-467.50Q249-490 294-490Q391-490 438.50-423.50Q486-357 486-246Q486-185 469-137Q452-89 423-56Q394-23 355.50-5.50Q317 12 274 12Q239 12 202-3.50Q165-19 126-48L126 42M126-82Q170-46 208.50-31Q247-16 276-16Q315-16 347.50-33Q380-50 404-80.50Q428-111 441-153.50Q454-196 454-246Q454-292 445.50-331.50Q437-371 417.50-400Q398-429 367-445.50Q336-462 292-462Q254-462 213.50-440.50Q173-419 126-378L126-82Z"/><path id="s119:sourcesanspro-extralight:30" d="M68-117Q68-197 144-238.50Q220-280 382-298Q383-327 378.50-356.50Q374-386 361-409.50Q348-433 324.50-447.50Q301-462 264-462Q238-462 215-456.50Q192-451 172-442Q152-433 135.50-423Q119-413 108-404L92-428Q103-436 120.50-447Q138-458 160.50-467.50Q183-477 210-483.50Q237-490 266-490Q308-490 336-475.50Q364-461 381-436Q398-411 405-378.50Q412-346 412-310L412 0L386 0L382-64L380-64Q342-34 298-11Q254 12 206 12Q178 12 153 4.50Q128-3 109-18.50Q90-34 79-58.50Q68-83 68-117M100-118Q100-90 108.50-70.50Q117-51 132-39Q147-27 166.50-21.50Q186-16 208-16Q252-16 293-36.50Q334-57 382-98L382-272Q303-263 249-249.50Q195-236 162-217Q129-198 114.50-173.50Q100-149 100-118Z"/><path id="s119:sourcesanspro-extralight:43" d="M96-478L122-478L126-402L128-402Q166-440 205-465Q244-490 294-490Q368-490 403-446Q438-402 438-308L438 0L408 0L408-304Q408-384 381-423Q354-462 292-462Q247-462 209.50-438Q172-414 126-366L126 0L96 0L96-478Z"/><path id="s119:sourcesanspro-extralight:41" d="M96-722L126-722L126-46Q126-16 146-16Q149-16 152.50-16Q156-16 164-18L170 8Q164 10 158.50 11Q153 12 144 12Q121 12 108.50-2.50Q96-17 96-52L96-722Z"/><path id="s119:sourcesanspro-extralight:36" d="M86 98Q86 146 129 176Q172 206 252 206Q295 206 329.50 194.50Q364 183 388 165Q412 147 425 123.50Q438 100 438 76Q438 34 408.50 16Q379-2 322-2L212-2Q207-2 190.50-3.50Q174-5 154-10Q118 14 102 42.50Q86 71 86 98M54 100Q54 68 73.50 37Q93 6 126-18L126-22Q108-33 96-52Q84-71 84-98Q84-131 102.50-153Q121-175 136-186L136-190Q113-210 94.50-244Q76-278 76-322Q76-358 88.50-388.50Q101-419 123.50-441.50Q146-464 175.50-477Q205-490 240-490Q260-490 275.50-486.50Q291-483 302-478L462-478L462-450L346-450Q372-429 388-396Q404-363 404-322Q404-286 391.50-255Q379-224 356.50-201Q334-178 304-165Q274-152 240-152Q219-152 197-157.50Q175-163 158-174Q141-160 128.50-143Q116-126 116-100Q116-86 120.50-74Q125-62 135.50-53Q146-44 164-39Q182-34 210-34L316-34Q396-34 433-8Q470 18 470 74Q470 104 454.50 133Q439 162 410.50 184.50Q382 207 341 220.50Q300 234 250 234Q158 234 106 197Q54 160 54 100M240-180Q266-180 290-190.50Q314-201 332-219.50Q350-238 361-264Q372-290 372-322Q372-354 361.50-380Q351-406 333-424Q315-442 291-452Q267-462 240-462Q213-462 189-452Q165-442 147-424Q129-406 118.50-380Q108-354 108-322Q108-290 119-264Q130-238 148-219.50Q166-201 190-190.50Q214-180 240-180Z"/><path id="s119:sourcesanspro-extralight:48" d="M54-78Q84-52 120-34Q156-16 210-16Q240-16 263-24.50Q286-33 301-47Q316-61 324-79.50Q332-98 332-118Q332-142 321-159.50Q310-177 293-190.50Q276-204 254.50-213Q233-222 212-230Q184-240 156.50-251Q129-262 106.50-277Q84-292 70-313.50Q56-335 56-366Q56-391 65.50-413.50Q75-436 94-453Q113-470 141-480Q169-490 206-490Q242-490 277-476.50Q312-463 338-442L320-418Q296-436 269-449Q242-462 204-462Q174-462 152-454Q130-446 116-432.50Q102-419 95-402.50Q88-386 88-368Q88-346 98-330.50Q108-315 124.50-303.50Q141-292 161.50-283Q182-274 204-266Q232-255 261-244Q290-233 312.50-217.50Q335-202 349.50-178.50Q364-155 364-120Q364-94 353.50-70Q343-46 323.50-28Q304-10 274.50 1Q245 12 208 12Q154 12 110-7.50Q66-27 34-54L54-78Z"/><path id="s119:sourcesanspro-extralight:42" d="M96-478L122-478L126-402L128-402Q161-440 201-465Q241-490 280-490Q339-490 369.50-462.50Q400-435 412-390Q454-437 494.50-463.50Q535-490 576-490Q647-490 682.50-446Q718-402 718-308L718 0L688 0L688-304Q688-384 660.50-423Q633-462 574-462Q538-462 501-438Q464-414 422-366L422 0L392 0L392-304Q392-384 364.50-423Q337-462 278-462Q210-462 126-366L126 0L96 0L96-478Z"/><path id="s119:sourcesanspro-extralight:31" d="M96-722L126-722L126-508L124-412Q162-444 205.50-467Q249-490 294-490Q391-490 438.50-423.50Q486-357 486-246Q486-185 469-137Q452-89 423-56Q394-23 355.50-5.50Q317 12 274 12Q239 12 201-3Q163-18 128-44L126-44L122 0L96 0L96-722M126-82Q168-46 207.50-31Q247-16 276-16Q315-16 347.50-33Q380-50 404-80.50Q428-111 441-153.50Q454-196 454-246Q454-292 445.50-331.50Q437-371 417.50-400Q398-429 367-445.50Q336-462 292-462Q254-462 212.50-440.50Q171-419 126-378L126-82Z"/><path id="s119:sourcesanspro-extralight:35" d="M266-692Q251-700 236.50-703Q222-706 208-706Q167-706 148.50-676Q130-646 130-592L130-478L244-478L244-450L130-450L130 0L100 0L100-450L34-450L34-474L100-478L100-596Q100-667 129.50-700.50Q159-734 210-734Q241-734 276-718L266-692Z"/><path id="s119:sourcesanspro-extralight:49" d="M106-450L30-450L30-474L106-478L110-618L136-618L136-478L278-478L278-450L136-450L136-122Q136-99 139.50-79.50Q143-60 152-46Q161-32 177.50-24Q194-16 220-16Q234-16 251-21Q268-26 282-32L292-6Q271 2 250.50 7Q230 12 218 12Q185 12 163.50 2Q142-8 129-26Q116-44 111-69.50Q106-95 106-126L106-450Z"/><path id="s119:sourcesanspro-extralight:38" d="M112-600Q98-600 88-609.50Q78-619 78-634Q78-651 88-659.50Q98-668 112-668Q126-668 136-659.50Q146-651 146-634Q146-619 136-609.50Q126-600 112-600M96-478L126-478L126 0L96 0L96-478Z"/><path id="s119:sourcesanspro-extralight:54" d="M28 184Q36 187 46.50 189.50Q57 192 68 192Q113 192 144.50 153.50Q176 115 196 56L210 12L12-478L46-478L168-164Q180-134 194-98Q208-62 222-30L226-30Q238-62 249.50-98Q261-134 272-164L380-478L412-478L220 68Q211 96 197.50 123.50Q184 151 165 173Q146 195 121.50 208.50Q97 222 66 222Q40 222 20 212L28 184L28 184Z"/><path id="s119:sourcesanspro-extralight:509" d="M68-26Q68-46 79-56Q90-66 104-66Q118-66 129-56Q140-46 140-26Q140-8 129 2Q118 12 104 12Q90 12 79 2Q68-8 68-26Z"/><path id="s119:sourcesanspro-extralight:53" d="M178-250L28-478L62-478L144-350Q156-330 169-311Q182-292 196-272L200-272Q214-292 226-311Q238-330 252-350L332-478L364-478L214-248L378 0L344 0L254-138Q240-161 225.50-183Q211-205 196-226L192-226Q177-205 163-183Q149-161 134-138L46 0L14 0L178-250Z"/><path id="s119:sourcesanspro-extralight:32" d="M54-238Q54-298 71.50-345Q89-392 118.50-424Q148-456 186.50-473Q225-490 268-490Q318-490 351-471.50Q384-453 408-430L388-408Q364-431 335-446.50Q306-462 268-462Q230-462 196.50-445.50Q163-429 138.50-399.50Q114-370 100-328.50Q86-287 86-238Q86-188 99-147.50Q112-107 136-77.50Q160-48 193.50-32Q227-16 268-16Q309-16 342.50-33Q376-50 402-74L420-52Q390-25 352.50-6.50Q315 12 268 12Q222 12 183-5Q144-22 115.50-54Q87-86 70.50-132.50Q54-179 54-238Z"/><path id="s119:sourcesanspro-extralight:9" d="M100-660L452-660L452-632L132-632L132-354L402-354L402-326L132-326L132 0L100 0L100-660Z"/><path id="s119:sourcesanspro-extralight:510" d="M48 126Q79 108 99 77.50Q119 47 120 5Q116 6 108 6Q93 6 82.50-3Q72-12 72-30Q72-48 83-57Q94-66 108-66Q128-66 140-49.50Q152-33 152-4Q152 47 125.50 86.50Q99 126 60 150L48 126Z"/></defs><g id="line-0"><use x="0" y="847.5" xlink:href="#s119:sourcesanspro-extralight:23"/><use x="520" y="847.5" xlink:href="#s119:sourcesanspro-extralight:37"/><use x="1042" y="847.5" xlink:href="#s119:sourcesanspro-extralight:34"/><use x="1520" y="847.5" xlink:href="#s119:sourcesanspro-extralight:3"/><use x="1718" y="847.5" xlink:href="#s119:sourcesanspro-extralight:8"/><use x="2228" y="847.5" xlink:href="#s119:sourcesanspro-extralight:50"/><use x="2752" y="847.5" xlink:href="#s119:sourcesanspro-extralight:47"/><use x="3048" y="847.5" xlink:href="#s119:sourcesanspro-extralight:44"/><use x="3580" y="847.5" xlink:href="#s119:sourcesanspro-extralight:45"/><use x="4120" y="847.5" xlink:href="#s119:sourcesanspro-extralight:34"/><use x="4582" y="847.5" xlink:href="#s119:sourcesanspro-extralight:30"/><use x="5076" y="847.5" xlink:href="#s119:sourcesanspro-extralight:43"/><use x="5602" y="847.5" xlink:href="#s119:sourcesanspro-extralight:3"/><use x="5800" y="847.5" xlink:href="#s119:sourcesanspro-extralight:41"/><use x="6030" y="847.5" xlink:href="#s119:sourcesanspro-extralight:30"/><use x="6524" y="847.5" xlink:href="#s119:sourcesanspro-extralight:43"/><use x="7050" y="847.5" xlink:href="#s119:sourcesanspro-extralight:36"/><use x="7530" y="847.5" xlink:href="#s119:sourcesanspro-extralight:50"/><use x="8054" y="847.5" xlink:href="#s119:sourcesanspro-extralight:30"/><use x="8548" y="847.5" xlink:href="#s119:sourcesanspro-extralight:36"/><use x="9018" y="847.5" xlink:href="#s119:sourcesanspro-extralight:34"/><use x="9496" y="847.5" xlink:href="#s119:sourcesanspro-extralight:48"/><use x="9896" y="847.5" xlink:href="#s119:sourcesanspro-extralight:3"/><use x="10094" y="847.5" xlink:href="#s119:sourcesanspro-extralight:30"/><use x="10588" y="847.5" xlink:href="#s119:sourcesanspro-extralight:47"/><use x="10884" y="847.5" xlink:href="#s119:sourcesanspro-extralight:34"/><use x="11362" y="847.5" xlink:href="#s119:sourcesanspro-extralight:3"/><use x="11560" y="847.5" xlink:href="#s119:sourcesanspro-extralight:42"/><use x="12366" y="847.5" xlink:href="#s119:sourcesanspro-extralight:34"/><use x="12844" y="847.5" xlink:href="#s119:sourcesanspro-extralight:42"/><use x="13650" y="847.5" xlink:href="#s119:sourcesanspro-extralight:31"/><use x="14190" y="847.5" xlink:href="#s119:sourcesanspro-extralight:34"/><use x="14668" y="847.5" xlink:href="#s119:sourcesanspro-extralight:47"/><use x="14964" y="847.5" xlink:href="#s119:sourcesanspro-extralight:48"/><use x="15364" y="847.5" xlink:href="#s119:sourcesanspro-extralight:3"/><use x="15562" y="847.5" xlink:href="#s119:sourcesanspro-extralight:44"/><use x="16094" y="847.5" xlink:href="#s119:sourcesanspro-extralight:35"/><use x="16346" y="847.5" xlink:href="#s119:sourcesanspro-extralight:3"/><use x="16544" y="847.5" xlink:href="#s119:sourcesanspro-extralight:49"/><use x="16846" y="847.5" xlink:href="#s119:sourcesanspro-extralight:37"/><use x="17368" y="847.5" xlink:href="#s119:sourcesanspro-extralight:34"/><use x="17846" y="847.5" xlink:href="#s119:sourcesanspro-extralight:3"/><use x="18044" y="847.5" xlink:href="#s119:sourcesanspro-extralight:48"/><use x="18444" y="847.5" xlink:href="#s119:sourcesanspro-extralight:30"/><use x="18938" y="847.5" xlink:href="#s119:sourcesanspro-extralight:42"/><use x="19744" y="847.5" xlink:href="#s119:sourcesanspro-extralight:34"/><use x="20222" y="847.5" xlink:href="#s119:sourcesanspro-extralight:3"/><use x="20420" y="847.5" xlink:href="#s119:sourcesanspro-extralight:35"/><use x="20652" y="847.5" xlink:href="#s119:sourcesanspro-extralight:30"/><use x="21146" y="847.5" xlink:href="#s119:sourcesanspro-extralight:42"/><use x="21952" y="847.5" xlink:href="#s119:sourcesanspro-extralight:38"/><use x="22174" y="847.5" xlink:href="#s119:sourcesanspro-extralight:41"/><use x="22404" y="847.5" xlink:href="#s119:sourcesanspro-extralight:54"/><use x="22814" y="847.5" xlink:href="#s119:sourcesanspro-extralight:509"/></g><g id="line-1"><use x="4733" y="2047.5" xlink:href="#s119:sourcesanspro-extralight:23"/><use x="5253" y="2047.5" xlink:href="#s119:sourcesanspro-extralight:37"/><use x="5775" y="2047.5" xlink:href="#s119:sourcesanspro-extralight:34"/><use x="6253" y="2047.5" xlink:href="#s119:sourcesanspro-extralight:38"/><use x="6475" y="2047.5" xlink:href="#s119:sourcesanspro-extralight:47"/><use x="6781" y="2047.5" xlink:href="#s119:sourcesanspro-extralight:3"/><use x="6979" y="2047.5" xlink:href="#s119:sourcesanspro-extralight:48"/><use x="7379" y="2047.5" xlink:href="#s119:sourcesanspro-extralight:34"/><use x="7857" y="2047.5" xlink:href="#s119:sourcesanspro-extralight:45"/><use x="8381" y="2047.5" xlink:href="#s119:sourcesanspro-extralight:30"/><use x="8875" y="2047.5" xlink:href="#s119:sourcesanspro-extralight:47"/><use x="9159" y="2047.5" xlink:href="#s119:sourcesanspro-extralight:30"/><use x="9653" y="2047.5" xlink:href="#s119:sourcesanspro-extralight:49"/><use x="9945" y="2047.5" xlink:href="#s119:sourcesanspro-extralight:34"/><use x="10423" y="2047.5" xlink:href="#s119:sourcesanspro-extralight:3"/><use x="10621" y="2047.5" xlink:href="#s119:sourcesanspro-extralight:34"/><use x="11099" y="2047.5" xlink:href="#s119:sourcesanspro-extralight:53"/><use x="11491" y="2047.5" xlink:href="#s119:sourcesanspro-extralight:38"/><use x="11713" y="2047.5" xlink:href="#s119:sourcesanspro-extralight:48"/><use x="12113" y="2047.5" xlink:href="#s119:sourcesanspro-extralight:49"/><use x="12405" y="2047.5" xlink:href="#s119:sourcesanspro-extralight:34"/><use x="12883" y="2047.5" xlink:href="#s119:sourcesanspro-extralight:43"/><use x="13409" y="2047.5" xlink:href="#s119:sourcesanspro-extralight:32"/><use x="13839" y="2047.5" xlink:href="#s119:sourcesanspro-extralight:34"/><use x="14317" y="2047.5" xlink:href="#s119:sourcesanspro-extralight:3"/><use x="14515" y="2047.5" xlink:href="#s119:sourcesanspro-extralight:38"/><use x="14737" y="2047.5" xlink:href="#s119:sourcesanspro-extralight:48"/><use x="15137" y="2047.5" xlink:href="#s119:sourcesanspro-extralight:3"/><use x="15335" y="2047.5" xlink:href="#s119:sourcesanspro-extralight:30"/><use x="15829" y="2047.5" xlink:href="#s119:sourcesanspro-extralight:3"/><use x="16027" y="2047.5" xlink:href="#s119:sourcesanspro-extralight:42"/><use x="16833" y="2047.5" xlink:href="#s119:sourcesanspro-extralight:54"/><use x="17257" y="2047.5" xlink:href="#s119:sourcesanspro-extralight:49"/><use x="17559" y="2047.5" xlink:href="#s119:sourcesanspro-extralight:37"/><use x="18081" y="2047.5" xlink:href="#s119:sourcesanspro-extralight:509"/></g><g id="line-2"><use x="5701" y="3247.5" xlink:href="#s119:sourcesanspro-extralight:9"/><use x="6161" y="3247.5" xlink:href="#s119:sourcesanspro-extralight:44"/><use x="6693" y="3247.5" xlink:href="#s119:sourcesanspro-extralight:47"/><use x="6999" y="3247.5" xlink:href="#s119:sourcesanspro-extralight:3"/><use x="7197" y="3247.5" xlink:href="#s119:sourcesanspro-extralight:48"/><use x="7597" y="3247.5" xlink:href="#s119:sourcesanspro-extralight:32"/><use x="8043" y="3247.5" xlink:href="#s119:sourcesanspro-extralight:38"/><use x="8265" y="3247.5" xlink:href="#s119:sourcesanspro-extralight:34"/><use x="8743" y="3247.5" xlink:href="#s119:sourcesanspro-extralight:43"/><use x="9269" y="3247.5" xlink:href="#s119:sourcesanspro-extralight:32"/><use x="9699" y="3247.5" xlink:href="#s119:sourcesanspro-extralight:34"/><use x="10177" y="3247.5" xlink:href="#s119:sourcesanspro-extralight:510"/><use x="10385" y="3247.5" xlink:href="#s119:sourcesanspro-extralight:3"/><use x="10583" y="3247.5" xlink:href="#s119:sourcesanspro-extralight:42"/><use x="11389" y="3247.5" xlink:href="#s119:sourcesanspro-extralight:50"/><use x="11913" y="3247.5" xlink:href="#s119:sourcesanspro-extralight:48"/><use x="12313" y="3247.5" xlink:href="#s119:sourcesanspro-extralight:38"/><use x="12535" y="3247.5" xlink:href="#s119:sourcesanspro-extralight:32"/><use x="12981" y="3247.5" xlink:href="#s119:sourcesanspro-extralight:510"/><use x="13189" y="3247.5" xlink:href="#s119:sourcesanspro-extralight:3"/><use x="13387" y="3247.5" xlink:href="#s119:sourcesanspro-extralight:48"/><use x="13787" y="3247.5" xlink:href="#s119:sourcesanspro-extralight:45"/><use x="14327" y="3247.5" xlink:href="#s119:sourcesanspro-extralight:44"/><use x="14859" y="3247.5" xlink:href="#s119:sourcesanspro-extralight:47"/><use x="15165" y="3247.5" xlink:href="#s119:sourcesanspro-extralight:49"/><use x="15489" y="3247.5" xlink:href="#s119:sourcesanspro-extralight:510"/><use x="15697" y="3247.5" xlink:href="#s119:sourcesanspro-extralight:3"/><use x="15895" y="3247.5" xlink:href="#s119:sourcesanspro-extralight:34"/><use x="16363" y="3247.5" xlink:href="#s119:sourcesanspro-extralight:49"/><use x="16655" y="3247.5" xlink:href="#s119:sourcesanspro-extralight:32"/><use x="17101" y="3247.5" xlink:href="#s119:sourcesanspro-extralight:510"/></g></svg>