<svg xmlns="http://www.w3.org/2000/svg" xmlns:xlink="http://www.w3.org/1999/xlink" width="772" height="84" viewBox="0 0 32160 3520.5"><defs><path id="s111:sourcecodepro-light:23" d="M277-619L48-619L48-659L552-659L552-619L323-619L323 0L277 0L277-619Z"/><path id="s111:sourcecodepro-light:37" d="M105-719L150-719L150-511L147-385Q192-432 237.50-462Q283-492 341-492Q514-492 514-299L514 0L469 0L469-293Q469-374 437.50-413Q406-452 334-452Q308-452 286-445.50Q264-439 242.50-425.50Q221-412 198.50-391.50Q176-371 150-344L150 0L105 0L105-719Z"/><path id="s111:sourcecodepro-light:34" d="M77-239Q77-298 97.50-345Q118-392 151.50-424.50Q185-457 228-474.50Q271-492 317-492Q366-492 406-476.50Q446-461 474-432.50Q502-404 517-363Q532-322 532-270Q532-261 532-252Q532-243 530-234L123-234Q124-189 139.50-150.50Q155-112 182.50-84.50Q210-57 248.50-41.50Q287-26 334-26Q382-26 421-40.50Q460-55 494-78L512-44Q479-23 436-5.50Q393 12 330 12Q278 12 232-5Q186-22 151.50-54.50Q117-87 97-133.50Q77-180 77-239M489-270Q489-361 442.50-407.50Q396-454 318-454Q282-454 249-441.50Q216-429 190-405Q164-381 146-347Q128-313 123-270L489-270Z"/><path id="s111:sourcecodepro-light:3" d=""/><path id="s111:sourcecodepro-light:8" d="M127-659L517-659L517-619L173-619L173-370L463-370L463-330L173-330L173-40L527-40L527 0L127 0L127-659Z"/><path id="s111:sourcecodepro-light:50" d="M494 0L457 0L452-93L448-93Q409-47 363-17.50Q317 12 259 12Q171 12 129-35.50Q87-83 87-181L87-480L131-480L131-187Q131-106 162.50-67Q194-28 266-28Q291-28 314-34.50Q337-41 359-54.50Q381-68 403-88.50Q425-109 450-137L450-480L494-480L494 0Z"/><path id="s111:sourcecodepro-light:47" d="M163-480L201-480L206-362L208-362Q247-419 304.50-455.50Q362-492 434-492Q458-492 482.50-488Q507-484 530-472L518-433Q492-442 473.50-446Q455-450 427-450Q367-450 312.50-416Q258-382 208-300L208 0L163 0L163-480Z"/><path id="s111:sourcecodepro-light:44" d="M67-239Q67-299 85.50-346.50Q104-394 136-426Q168-458 210.50-475Q253-492 300-492Q347-492 389.50-475Q432-458 464-426Q496-394 514.50-346.50Q533-299 533-239Q533-179 514.50-132.50Q496-86 464-54Q432-22 389.50-5Q347 12 300 12Q253 12 210.50-5Q168-22 136-54Q104-86 85.50-132.50Q67-179 67-239M114-239Q114-192 128-153Q142-114 166.50-86Q191-58 225-42.50Q259-27 300-27Q340-27 374.50-42.50Q409-58 433.50-86Q458-114 472-153Q486-192 486-239Q486-287 472-326Q458-365 433.50-393.50Q409-422 374.50-437.50Q340-453 300-453Q259-453 225-437.50Q191-422 166.50-393.50Q142-365 128-326Q114-287 114-239Z"/><path id="s111:sourcecodepro-light:45" d="M150 42L150 217L105 217L105-480L143-480L148-411L150-411Q186-446 234-469Q282-492 329-492Q431-492 482-425.50Q533-359 533-247Q533-186 514.50-138Q496-90 465.50-56.50Q435-23 394-5.50Q353 12 308 12Q273 12 229.50-6Q186-24 149-56L150 42M150-98Q192-60 234.50-43.50Q277-27 306-27Q345-27 378-43Q411-59 435-88Q459-117 472.50-157.50Q486-198 486-247Q486-291 477-329Q468-367 448.50-394.50Q429-422 397.50-437.50Q366-453 322-453Q284-453 239.50-431.50Q195-410 150-365L150-98Z"/><path id="s111:sourcecodepro-light:30" d="M92-120Q92-160 113-190Q134-220 178.50-242Q223-264 292.50-278Q362-292 460-301Q460-331 453-358.50Q446-386 429.50-407Q413-428 385.50-440.50Q358-453 317-453Q290-453 264-447Q238-441 214-431Q190-421 170-409.50Q150-398 135-388L115-421Q129-431 151.50-443.50Q174-456 201-466.50Q228-477 259-484.50Q290-492 322-492Q370-492 404.50-477.50Q439-463 461-438Q483-413 493.50-379.50Q504-346 504-307L504 0L467 0L462-72L460-72Q418-39 365.50-13.50Q313 12 259 12Q227 12 196.50 4Q166-4 143-20Q120-36 106-61Q92-86 92-120M137-122Q137-96 148-78Q159-60 177.50-48.50Q196-37 219.50-31.50Q243-26 267-26Q356-26 460-113L460-267Q368-259 306.50-246Q245-233 207-215Q169-197 153-174Q137-151 137-122Z"/><path id="s111:sourcecodepro-light:43" d="M105-480L143-480L148-388L152-388Q194-433 238.50-462.50Q283-492 341-492Q514-492 514-299L514 0L469 0L469-293Q469-374 437.50-413Q406-452 334-452Q308-452 286-445.50Q264-439 242.50-425.50Q221-412 198.50-391.50Q176-371 150-344L150 0L105 0L105-480Z"/><path id="s111:sourcecodepro-light:41" d="M93-719L315-719L315-139Q315-27 419-27Q463-27 519-53L533-18Q504-6 476 3Q448 12 413 12Q344 12 307.50-25.50Q271-63 271-145L271-681L93-681L93-719Z"/><path id="s111:sourcecodepro-light:36" d="M126 93Q126 137 170 166Q214 195 305 195Q354 195 393.50 184Q433 173 460 156Q487 139 501.50 117Q516 95 516 72Q516 31 485 16Q454 1 391 1L277 1Q259 1 240-1Q221-3 204-8Q160 15 143 41Q126 67 126 93M84 92Q84 63 105 33Q126 3 165-21L165-25Q147-34 131-53Q115-72 115-102Q115-125 129.50-149Q144-173 173-193L173-197Q150-216 133-246.50Q116-277 116-321Q116-358 130-389.50Q144-421 168.50-443.50Q193-466 225.50-479Q258-492 295-492Q332-492 361-480L561-480L561-443L415-443Q438-421 455-390Q472-359 472-320Q472-283 458-252.50Q444-222 420-200Q396-178 364-165.50Q332-153 295-153Q273-153 249.50-158.50Q226-164 204-175Q183-162 170-145Q157-128 157-108Q157-73 187-57Q217-41 268-41L387-41Q479-41 520.50-16Q562 9 562 67Q562 98 544 127.50Q526 157 493 180Q460 203 413 217Q366 231 308 231Q195 231 139.50 193Q84 155 84 92M295-188Q322-188 346.50-197.50Q371-207 389.50-224.50Q408-242 418.50-266.50Q429-291 429-321Q429-350 418.50-375Q408-400 389.50-418Q371-436 346.50-446Q322-456 295-456Q267-456 242.50-446Q218-436 200-418Q182-400 171.50-375Q161-350 161-321Q161-291 171.50-266.50Q182-242 200-224.50Q218-207 242.50-197.50Q267-188 295-188Z"/><path id="s111:sourcecodepro-light:48" d="M108-96Q147-64 197-45Q247-26 321-26Q396-26 433.50-54.50Q471-83 471-121Q471-137 464-151.50Q457-166 438-179.50Q419-193 385.50-205.50Q352-218 299-231Q258-241 223.50-254Q189-267 164-283.50Q139-300 124.50-320Q110-340 110-364Q110-390 121-413.50Q132-437 155.50-454.50Q179-472 214.50-482Q250-492 298-492Q346-492 396.50-475Q447-458 482-433L458-401Q426-425 386-439.50Q346-454 297-454Q257-454 230-446.50Q203-439 186.50-427Q170-415 163-399.50Q156-384 156-367Q156-332 199.50-308.50Q243-285 318-267Q374-253 412-238.50Q450-224 473.50-207Q497-190 507-169.50Q517-149 517-123Q517-96 504-71.50Q491-47 465.50-28.50Q440-10 403 1Q366 12 319 12Q244 12 185-10.50Q126-33 83-64L108-96Z"/><path id="s111:sourcecodepro-light:42" d="M75-480L111-480L116-415L118-415Q139-450 163.50-471Q188-492 228-492Q305-492 324-407Q350-448 376-470Q402-492 442-492Q492-492 519-456Q546-420 546-348L546 0L503 0L503-343Q503-452 433-452Q401-452 377.50-429.50Q354-407 330-362L330 0L290 0L290-343Q290-452 221-452Q188-452 164.50-429.50Q141-407 118-362L118 0L75 0L75-480Z"/><path id="s111:sourcecodepro-light:31" d="M105-719L150-719L150-511L147-408Q186-446 234-469Q282-492 329-492Q431-492 482-425.50Q533-359 533-247Q533-186 514.50-138Q496-90 465.50-56.50Q435-23 394.50-5.50Q354 12 310 12Q273 12 229-6Q185-24 149-54L147-54L142 0L105 0L105-719M150-98Q192-60 235-43.50Q278-27 308-27Q347-27 379.50-43Q412-59 435.50-88Q459-117 472.50-157.50Q486-198 486-247Q486-291 477-329Q468-367 448.50-394.50Q429-422 397.50-437.50Q366-453 322-453Q284-453 239.50-431.50Q195-410 150-365L150-98Z"/><path id="s111:sourcecodepro-light:35" d="M560-668Q526-683 501-688Q476-693 442-693Q404-693 377.50-682Q351-671 334-651Q317-631 309.50-603Q302-575 302-542L302-480L525-480L525-442L302-442L302 0L260 0L260-442L115-442L115-476L260-480L260-538Q260-629 304-680Q348-731 439-731Q471-731 504-725Q537-719 574-702L560-668Z"/><path id="s111:sourcecodepro-light:49" d="M225-442L80-442L80-476L226-480L232-619L269-619L269-480L525-480L525-442L269-442L269-176Q269-141 275-113.50Q281-86 296-66.50Q311-47 336.50-37Q362-27 402-27Q440-27 471-33.50Q502-40 531-52L543-18Q511-4 471 4Q431 12 396 12Q347 12 314-2Q281-16 261.50-41Q242-66 233.50-101.50Q225-137 225-180L225-442Z"/><path id="s111:sourcecodepro-light:38" d="M97-480L382-480L382 0L338 0L338-442L97-442L97-480M349-596Q329-596 315.50-609Q302-622 302-644Q302-666 315.50-679Q329-692 349-692Q369-692 382.50-679Q396-666 396-644Q396-622 382.50-609Q369-596 349-596Z"/><path id="s111:sourcecodepro-light:54" d="M79 170Q88 173 100.50 175.50Q113 178 126 178Q182 178 218 142Q254 106 276 51L293 9L60-480L106-480L246-178Q260-148 277.50-111.50Q295-75 312-43L316-43Q330-75 344.50-111Q359-147 372-178L497-480L540-480L314 60Q303 90 286.50 118.50Q270 147 247 169.50Q224 192 193.50 205.50Q163 219 125 219Q110 219 94 216.50Q78 214 67 209L79 170L79 170Z"/><path id="s111:sourcecodepro-light:483" d="M240-53Q240-85 258.50-101.50Q277-118 300-118Q323-118 341.50-101.50Q360-85 360-53Q360-22 341.50-5Q323 12 300 12Q277 12 258.50-5Q240-22 240-53Z"/><path id="s111:sourcecodepro-light:53" d="M272-249L95-480L146-480L239-358Q253-338 268-317.50Q283-297 299-277L303-277Q319-297 335.50-318.50Q352-340 366-360L456-480L505-480L326-247L520 0L469 0L367-130Q351-150 333.50-174Q316-198 299-219L295-219Q278-196 261.50-174.50Q245-153 228-129L129 0L80 0L272-249Z"/><path id="s111:sourcecodepro-light:32" d="M87-239Q87-299 107.50-346.50Q128-394 164-426Q200-458 247.50-475Q295-492 349-492Q409-492 450.50-470Q492-448 522-419L496-389Q465-418 430-435.50Q395-453 350-453Q302-453 262-437.50Q222-422 193.50-393.50Q165-365 149.50-326Q134-287 134-239Q134-192 149.50-153Q165-114 193-86Q221-58 261-42.50Q301-27 349-27Q398-27 438.50-46.50Q479-66 511-96L534-65Q497-30 450.50-9Q404 12 347 12Q291 12 243.50-5Q196-22 161-54Q126-86 106.50-132.50Q87-179 87-239Z"/><path id="s111:sourcecodepro-light:9" d="M150-659L535-659L535-619L195-619L195-357L481-357L481-317L195-317L195 0L150 0L150-659Z"/><path id="s111:sourcecodepro-light:484" d="M205 178Q265 149 296 106Q327 63 329-3Q317 0 306 0Q280 0 263-14.50Q246-29 246-59Q246-90 264.50-104.50Q283-119 306-119Q341-119 358.50-91.50Q376-64 376-17Q376 67 333.50 124Q291 181 221 211L205 178Z"/></defs><g id="line-0"><use x="0" y="847.5" xlink:href="#s111:sourcecodepro-light:23"/><use x="600" y="847.5" xlink:href="#s111:sourcecodepro-light:37"/><use x="1200" y="847.5" xlink:href="#s111:sourcecodepro-light:34"/><use x="1800" y="847.5" xlink:href="#s111:sourcecodepro-light:3"/><use x="2400" y="847.5" xlink:href="#s111:sourcecodepro-light:8"/><use x="3000" y="847.5" xlink:href="#s111:sourcecodepro-light:50"/><use x="3600" y="847.5" xlink:href="#s111:sourcecodepro-light:47"/><use x="4200" y="847.5" xlink:href="#s111:sourcecodepro-light:44"/><use x="4800" y="847.5" xlink:href="#s111:sourcecodepro-light:45"/><use x="5400" y="847.5" xlink:href="#s111:sourcecodepro-light:34"/><use x="6000" y="847.5" xlink:href="#s111:sourcecodepro-light:30"/><use x="6600" y="847.5" xlink:href="#s111:sourcecodepro-light:43"/><use x="7200" y="847.5" xlink:href="#s111:sourcecodepro-light:3"/><use x="7800" y="847.5" xlink:href="#s111:sourcecodepro-light:41"/><use x="8400" y="847.5" xlink:href="#s111:sourcecodepro-light:30"/><use x="9000" y="847.5" xlink:href="#s111:sourcecodepro-light:43"/><use x="9600" y="847.5" xlink:href="#s111:sourcecodepro-light:36"/><use x="10200" y="847.5" xlink:href="#s111:sourcecodepro-light:50"/><use x="10800" y="847.5" xlink:href="#s111:sourcecodepro-light:30"/><use x="11400" y="847.5" xlink:href="#s111:sourcecodepro-light:36"/><use x="12000" y="847.5" xlink:href="#s111:sourcecodepro-light:34"/><use x="12600" y="847.5" xlink:href="#s111:sourcecodepro-light:48"/><use x="13200" y="847.5" xlink:href="#s111:sourcecodepro-light:3"/><use x="13800" y="847.5" xlink:href="#s111:sourcecodepro-light:30"/><use x="14400" y="847.5" xlink:href="#s111:sourcecodepro-light:47"/><use x="15000" y="847.5" xlink:href="#s111:sourcecodepro-light:34"/><use x="15600" y="847.5" xlink:href="#s111:sourcecodepro-light:3"/><use x="16200" y="847.5" xlink:href="#s111:sourcecodepro-light:42"/><use x="16800" y="847.5" xlink:href="#s111:sourcecodepro-light:34"/><use x="17400" y="847.5" xlink:href="#s111:sourcecodepro-light:42"/><use x="18000" y="847.5" xlink:href="#s111:sourcecodepro-light:31"/><use x="18600" y="847.5" xlink:href="#s111:sourcecodepro-light:34"/><use x="19200" y="847.5" xlink:href="#s111:sourcecodepro-light:47"/><use x="19800" y="847.5" xlink:href="#s111:sourcecodepro-light:48"/><use x="20400" y="847.5" xlink:href="#s111:sourcecodepro-light:3"/><use x="21000" y="847.5" xlink:href="#s111:sourcecodepro-light:44"/><use x="21600" y="847.5" xlink:href="#s111:sourcecodepro-light:35"/><use x="22200" y="847.5" xlink:href="#s111:sourcecodepro-light:3"/><use x="22800" y="847.5" xlink:href="#s111:sourcecodepro-light:49"/><use x="23400" y="847.5" xlink:href="#s111:sourcecodepro-light:37"/><use x="24000" y="847.5" xlink:href="#s111:sourcecodepro-light:34"/><use x="24600" y="847.5" xlink:href="#s111:sourcecodepro-light:3"/><use x="25200" y="847.5" xlink:href="#s111:sourcecodepro-light:48"/><use x="25800" y="847.5" xlink:href="#s111:sourcecodepro-light:30"/><use x="26400" y="847.5" xlink:href="#s111:sourcecodepro-light:42"/><use x="27000" y="847.5" xlink:href="#s111:sourcecodepro-light:34"/><use x="27600" y="847.5" xlink:href="#s111:sourcecodepro-light:3"/><use x="28200" y="847.5" xlink:href="#s111:sourcecodepro-light:35"/><use x="28800" y="847.5" xlink:href="#s111:sourcecodepro-light:30"/><use x="29400" y="847.5" xlink:href="#s111:sourcecodepro-light:42"/><use x="30000" y="847.5" xlink:href="#s111:sourcecodepro-light:38"/><use x="30600" y="847.5" xlink:href="#s111:sourcecodepro-light:41"/><use x="31200" y="847.5" xlink:href="#s111:sourcecodepro-light:54"/><use x="31800" y="847.5" xlink:href="#s111:sourcecodepro-light:483"/></g><g id="line-1"><use x="5700" y="2047.5" xlink:href="#s111:sourcecodepro-light:23"/><use x="6300" y="2047.5" xlink:href="#s111:sourcecodepro-light:37"/><use x="6900" y="2047.5" xlink:href="#s111:sourcecodepro-light:34"/><use x="7500" y="2047.5" xlink:href="#s111:sourcecodepro-light:38"/><use x="8100" y="2047.5" xlink:href="#s111:sourcecodepro-light:47"/><use x="8700" y="2047.5" xlink:href="#s111:sourcecodepro-light:3"/><use x="9300" y="2047.5" xlink:href="#s111:sourcecodepro-light:48"/><use x="9900" y="2047.5" xlink:href="#s111:sourcecodepro-light:34"/><use x="10500" y="2047.5" xlink:href="#s111:sourcecodepro-light:45"/><use x="11100" y="2047.5" xlink:href="#s111:sourcecodepro-light:30"/><use x="11700" y="2047.5" xlink:href="#s111:sourcecodepro-light:47"/><use x="12300" y="2047.5" xlink:href="#s111:sourcecodepro-light:30"/><use x="12900" y="2047.5" xlink:href="#s111:sourcecodepro-light:49"/><use x="13500" y="2047.5" xlink:href="#s111:sourcecodepro-light:34"/><use x="14100" y="2047.5" xlink:href="#s111:sourcecodepro-light:3"/><use x="14700" y="2047.5" xlink:href="#s111:sourcecodepro-light:34"/><use x="15300" y="2047.5" xlink:href="#s111:sourcecodepro-light:53"/><use x="15900" y="2047.5" xlink:href="#s111:sourcecodepro-light:38"/><use x="16500" y="2047.5" xlink:href="#s111:sourcecodepro-light:48"/><use x="17100" y="2047.5" xlink:href="#s111:sourcecodepro-light:49"/><use x="17700" y="2047.5" xlink:href="#s111:sourcecodepro-light:34"/><use x="18300" y="2047.5" xlink:href="#s111:sourcecodepro-light:43"/><use x="18900" y="2047.5" xlink:href="#s111:sourcecodepro-light:32"/><use x="19500" y="2047.5" xlink:href="#s111:sourcecodepro-light:34"/><use x="20100" y="2047.5" xlink:href="#s111:sourcecodepro-light:3"/><use x="20700" y="2047.5" xlink:href="#s111:sourcecodepro-light:38"/><use x="21300" y="2047.5" xlink:href="#s111:sourcecodepro-light:48"/><use x="21900" y="2047.5" xlink:href="#s111:sourcecodepro-light:3"/><use x="22500" y="2047.5" xlink:href="#s111:sourcecodepro-light:30"/><use x="23100" y="2047.5" xlink:href="#s111:sourcecodepro-light:3"/><use x="23700" y="2047.5" xlink:href="#s111:sourcecodepro-light:42"/><use x="24300" y="2047.5" xlink:href="#s111:sourcecodepro-light:54"/><use x="24900" y="2047.5" xlink:href="#s111:sourcecodepro-light:49"/><use x="25500" y="2047.5" xlink:href="#s111:sourcecodepro-light:37"/><use x="26100" y="2047.5" xlink:href="#s111:sourcecodepro-light:483"/></g><g id="line-2"><use x="6892" y="3247.5" xlink:href="#s111:sourcecodepro-light:9"/><use x="7492" y="3247.5" xlink:href="#s111:sourcecodepro-light:44"/><use x="8092" y="3247.5" xlink:href="#s111:sourcecodepro-light:47"/><use x="8692" y="3247.5" xlink:href="#s111:sourcecodepro-light:3"/><use x="9292" y="3247.5" xlink:href="#s111:sourcecodepro-light:48"/><use x="9892" y="3247.5" xlink:href="#s111:sourcecodepro-light:32"/><use x="10492" y="3247.5" xlink:href="#s111:sourcecodepro-light:38"/><use x="11092" y="3247.5" xlink:href="#s111:sourcecodepro-light:34"/><use x="11692" y="3247.5" xlink:href="#s111:sourcecodepro-light:43"/><use x="12292" y="3247.5" xlink:href="#s111:sourcecodepro-light:32"/><use x="12892" y="3247.5" xlink:href="#s111:sourcecodepro-light:34"/><use x="13492" y="3247.5" xlink:href="#s111:sourcecodepro-light:484"/><use x="14092" y="3247.5" xlink:href="#s111:sourcecodepro-light:3"/><use x="14692" y="3247.5" xlink:href="#s111:sourcecodepro-light:42"/><use x="15292" y="3247.5" xlink:href="#s111:sourcecodepro-light:50"/><use x="15892" y="3247.5" xlink:href="#s111:sourcecodepro-light:48"/><use x="16492" y="3247.5" xlink:href="#s111:sourcecodepro-light:38"/><use x="17092" y="3247.5" xlink:href="#s111:sourcecodepro-light:32"/><use x="17692" y="3247.5" xlink:href="#s111:sourcecodepro-light:484"/><use x="18292" y="3247.5" xlink:href="#s111:sourcecodepro-light:3"/><use x="18892" y="3247.5" xlink:href="#s111:sourcecodepro-light:48"/><use x="19492" y="3247.5" xlink:href="#s111:sourcecodepro-light:45"/><use x="20092" y="3247.5" xlink:href="#s111:sourcecodepro-light:44"/><use x="20692" y="3247.5" xlink:href="#s111:sourcecodepro-light:47"/><use x="21292" y="3247.5" xlink:href="#s111:sourcecodepro-light:49"/><use x="21892" y="3247.5" xlink:href="#s111:sourcecodepro-light:484"/><use x="22492" y="3247.5" xlink:href="#s111:sourcecodepro-light:3"/><use x="23092" y="3247.5" xlink:href="#s111:sourcecodepro-light:34"/><use x="23692" y="3247.5" xlink:href="#s111:sourcecodepro-light:49"/><use x="24292" y="3247.5" xlink:href="#s111:sourcecodepro-light:32"/><use x="24892" y="3247.5" xlink:href="#s111:sourcecodepro-light:484"/></g></svg>