<svg xmlns="http://www.w3.org/2000/svg" xmlns:xlink="http://www.w3.org/1999/xlink" width="772" height="84" viewBox="0 0 32181 3520.5"><defs><path id="s113:sourcecodepro-regular:23" d="M258-586L42-586L42-656L558-656L558-586L342-586L342 0L258 0L258-586Z"/><path id="s113:sourcecodepro-regular:37" d="M93-712L175-712L175-518L171-403Q210-444 254-471Q298-498 355-498Q442-498 482.50-448.50Q523-399 523-302L523 0L441 0L441-291Q441-360 415-393.50Q389-427 329-427Q307-427 288.50-421.50Q270-416 252-405Q234-394 215-377.50Q196-361 175-339L175 0L93 0L93-712Z"/><path id="s113:sourcecodepro-regular:34" d="M69-242Q69-302 90-349.50Q111-397 145.50-430Q180-463 224.50-480.50Q269-498 316-498Q368-498 409-481.50Q450-465 478.50-435Q507-405 522-363Q537-321 537-270Q537-257 536.50-244.50Q536-232 534-223L154-223Q155-184 169.50-153Q184-122 208.50-100Q233-78 266.50-66Q300-54 340-54Q383-54 418.50-66Q454-78 488-99L517-45Q481-22 435-5Q389 12 330 12Q276 12 228.50-5.50Q181-23 145.50-55.50Q110-88 89.50-135Q69-182 69-242M461-282Q461-355 423-394Q385-433 317-433Q287-433 259.50-423Q232-413 210-393.50Q188-374 173-346Q158-318 153-282L461-282Z"/><path id="s113:sourcecodepro-regular:3" d=""/><path id="s113:sourcecodepro-regular:8" d="M115-656L520-656L520-586L199-586L199-380L470-380L470-309L199-309L199-71L530-71L530 0L115 0L115-656Z"/><path id="s113:sourcecodepro-regular:50" d="M505 0L438 0L431-85L427-85Q390-42 346.50-15Q303 12 246 12Q158 12 117.50-37.50Q77-87 77-184L77-486L160-486L160-195Q160-126 185.50-92.50Q211-59 272-59Q314-59 348-80.50Q382-102 423-149L423-486L505-486L505 0Z"/><path id="s113:sourcecodepro-regular:47" d="M146-486L214-486L221-371L224-371Q262-430 317.50-464Q373-498 441-498Q468-498 491-493.50Q514-489 537-478L518-407Q492-416 474.50-420Q457-424 428-424Q373-424 322.50-392.50Q272-361 228-285L228 0L146 0L146-486Z"/><path id="s113:sourcecodepro-regular:44" d="M60-242Q60-303 79.50-350.50Q99-398 132-431Q165-464 208.50-481Q252-498 300-498Q348-498 391.50-481Q435-464 468-431Q501-398 520.50-350.50Q540-303 540-242Q540-182 520.50-134.50Q501-87 468-54.50Q435-22 391.50-5Q348 12 300 12Q252 12 208.50-5Q165-22 132-54.50Q99-87 79.50-134.50Q60-182 60-242M145-242Q145-200 156-166Q167-132 187.50-107.50Q208-83 236.50-69.50Q265-56 300-56Q335-56 363.50-69.50Q392-83 412.50-107.50Q433-132 444-166Q455-200 455-242Q455-284 444-318.50Q433-353 412.50-378Q392-403 363.50-416.50Q335-430 300-430Q265-430 236.50-416.50Q208-403 187.50-378Q167-353 156-318.50Q145-284 145-242Z"/><path id="s113:sourcecodepro-regular:45" d="M175 41L175 205L93 205L93-486L161-486L168-424L171-424Q205-456 249.50-477Q294-498 339-498Q388-498 425.50-480.50Q463-463 488.50-430.50Q514-398 527-352.50Q540-307 540-250Q540-188 522-139.50Q504-91 473.50-57Q443-23 403-5.50Q363 12 319 12Q285 12 245.50-4.50Q206-21 173-51L175 41M175-114Q210-83 245-70Q280-57 305-57Q371-57 413-108Q455-159 455-250Q455-290 447-323Q439-356 422.50-379.50Q406-403 380-416Q354-429 318-429Q286-429 249.50-411.50Q213-394 175-356L175-114Z"/><path id="s113:sourcecodepro-regular:30" d="M81-126Q81-167 100.50-197.50Q120-228 162.50-250Q205-272 272-286Q339-300 433-308Q432-333 425-355Q418-377 403-393.50Q388-410 363.50-420Q339-430 304-430Q256-430 212-411.50Q168-393 134-372L102-428Q120-440 144.50-452.50Q169-465 196.50-475Q224-485 255-491.50Q286-498 318-498Q418-498 466.50-443.50Q515-389 515-298L515 0L448 0L441-66L438-66Q397-34 347.50-11Q298 12 246 12Q212 12 182 2.50Q152-7 129.50-24.50Q107-42 94-67.50Q81-93 81-126M161-132Q161-111 170-96.50Q179-82 193.50-72.50Q208-63 227.50-58.50Q247-54 268-54Q310-54 350.50-72.50Q391-91 433-126L433-254Q355-248 302.50-237Q250-226 218.50-210.50Q187-195 174-175.50Q161-156 161-132Z"/><path id="s113:sourcecodepro-regular:43" d="M93-486L161-486L168-403L172-403Q210-444 254-471Q298-498 355-498Q442-498 482.50-448.50Q523-399 523-302L523 0L441 0L441-291Q441-360 415-393.50Q389-427 329-427Q307-427 288.50-421.50Q270-416 252-405Q234-394 215-377.50Q196-361 175-339L175 0L93 0L93-486Z"/><path id="s113:sourcecodepro-regular:41" d="M81-712L329-712L329-157Q329-103 354.50-79.50Q380-56 424-56Q464-56 516-79L537-17Q504-5 475 3.50Q446 12 406 12Q328 12 287.50-32Q247-76 247-163L247-645L81-645L81-712Z"/><path id="s113:sourcecodepro-regular:36" d="M143 81Q143 119 183.50 143Q224 167 302 167Q344 167 378 158.50Q412 150 436 136Q460 122 472.50 104Q485 86 485 67Q485 32 457.50 20Q430 8 374 8L279 8Q258 8 239.50 6.50Q221 5 205 0Q170 19 156.50 39.50Q143 60 143 81M72 89Q72 60 92.50 32Q113 4 152-19L152-23Q132-34 117-53Q102-72 102-103Q102-126 117-150.50Q132-175 160-194L160-198Q135-217 117.50-248.50Q100-280 100-324Q100-364 115.50-396Q131-428 157-450.50Q183-473 217.50-485.50Q252-498 291-498Q331-498 363-486L564-486L564-423L434-423Q451-405 465-379Q479-353 479-321Q479-282 464.50-251Q450-220 424.50-198.50Q399-177 364.50-165.50Q330-154 291-154Q272-154 250.50-158.50Q229-163 209-172Q171-148 171-116Q171-87 197.50-73.50Q224-60 272-60L381-60Q475-60 520.50-34Q566-8 566 54Q566 88 547 119Q528 150 493 173Q458 196 408 210Q358 224 296 224Q189 224 130.50 189Q72 154 72 89M291-209Q338-209 370.50-240Q403-271 403-324Q403-349 394-370Q385-391 370-406Q355-421 334.50-429.50Q314-438 291-438Q268-438 247.50-429.50Q227-421 212-406Q197-391 188-370Q179-349 179-324Q179-271 212-240Q245-209 291-209Z"/><path id="s113:sourcecodepro-regular:48" d="M112-118Q153-88 200-70Q247-52 313-52Q379-52 411-74Q443-96 443-128Q443-156 408.50-178Q374-200 285-222Q247-231 213.50-244Q180-257 155-274.50Q130-292 115-313Q100-334 100-360Q100-389 113-414.50Q126-440 151.50-458.50Q177-477 215.50-487.50Q254-498 304-498Q359-498 411-479.50Q463-461 499-436L459-383Q427-406 388-420Q349-434 304-434Q270-434 247-428.50Q224-423 210-413.50Q196-404 190-391Q184-378 184-364Q184-334 225-314.50Q266-295 332-278Q431-253 478.50-221Q526-189 526-133Q526-103 512-77Q498-51 470.50-31Q443-11 402.50 0.50Q362 12 310 12Q238 12 177.50-10.50Q117-33 72-64L112-118Z"/><path id="s113:sourcecodepro-regular:42" d="M60-486L124-486L131-422L134-422Q152-456 176.50-477Q201-498 243-498Q317-498 335-414Q357-452 383-475Q409-498 450-498Q501-498 528.50-459.50Q556-421 556-348L556 0L477 0L477-341Q477-427 424-427Q398-427 379-408.50Q360-390 341-352L341 0L275 0L275-341Q275-427 220-427Q194-427 176-408.50Q158-390 139-352L139 0L60 0L60-486Z"/><path id="s113:sourcecodepro-regular:31" d="M93-712L175-712L175-518L173-424Q208-458 251.50-478Q295-498 338-498Q387-498 425-480.50Q463-463 488.50-430.50Q514-398 527-352.50Q540-307 540-251Q540-189 522-140Q504-91 473.50-57Q443-23 403-5.50Q363 12 320 12Q285 12 244.50-5.50Q204-23 169-54L166-54L159 0L93 0L93-712M175-114Q210-83 245.50-70Q281-57 307-57Q339-57 366-70.50Q393-84 413-108.50Q433-133 444-169Q455-205 455-250Q455-290 447-323Q439-356 422.50-379.50Q406-403 380-416Q354-429 318-429Q286-429 249.50-411.50Q213-394 175-356L175-114Z"/><path id="s113:sourcecodepro-regular:35" d="M559-634Q529-648 503.50-652.50Q478-657 446-657Q380-657 351.50-623.50Q323-590 323-530L323-486L527-486L527-419L323-419L323 0L242 0L242-419L103-419L103-481L242-486L242-527Q242-616 289.50-670Q337-724 438-724Q510-724 578-696L559-634Z"/><path id="s113:sourcecodepro-regular:49" d="M206-419L69-419L69-481L209-486L220-622L288-622L288-486L527-486L527-419L288-419L288-188Q288-155 294-130.50Q300-106 314-89Q328-72 352-63.50Q376-55 411-55Q446-55 474-61Q502-67 528-77L546-17Q513-5 473 3.50Q433 12 393 12Q340 12 304-2.50Q268-17 246.50-43.50Q225-70 215.50-107Q206-144 206-189L206-419Z"/><path id="s113:sourcecodepro-regular:38" d="M90-486L398-486L398 0L316 0L316-419L90-419L90-486M348-586Q319-586 300.50-603Q282-620 282-649Q282-678 300.50-695.50Q319-713 348-713Q376-713 395-695.50Q414-678 414-649Q414-620 395-603Q376-586 348-586Z"/><path id="s113:sourcecodepro-regular:54" d="M84 134Q94 137 105.50 139Q117 141 128 141Q179 141 211 111.50Q243 82 261 37L276 1L49-486L132-486L251-217Q265-185 280.50-148Q296-111 311-76L315-76Q328-111 341.50-147.50Q355-184 367-217L473-486L551-486L337 40Q323 76 305 107Q287 138 262 160.50Q237 183 204.50 196Q172 209 131 209Q95 209 67 199L84 134L84 134Z"/><path id="s113:sourcecodepro-regular:483" d="M219-72Q219-110 242.50-133.50Q266-157 300-157Q334-157 357.50-133.50Q381-110 381-72Q381-34 357.50-11Q334 12 300 12Q266 12 242.50-11Q219-34 219-72Z"/><path id="s113:sourcecodepro-regular:53" d="M249-252L78-486L169-486L246-379Q259-359 273.50-338Q288-317 303-297L307-297Q321-317 335-339Q349-361 362-381L435-486L522-486L349-245L535 0L445 0L360-112Q345-133 328.50-156Q312-179 296-200L292-200Q277-178 262-156.50Q247-135 232-112L152 0L64 0L249-252Z"/><path id="s113:sourcecodepro-regular:32" d="M80-242Q80-303 101.50-350.50Q123-398 160-431Q197-464 246.50-481Q296-498 351-498Q411-498 454.50-477Q498-456 528-427L487-374Q457-400 424.50-415Q392-430 354-430Q312-430 277-416.50Q242-403 217.50-378Q193-353 179-318.50Q165-284 165-242Q165-200 178.50-166Q192-132 216.50-107.50Q241-83 275.50-69.50Q310-56 352-56Q397-56 434.50-73.50Q472-91 503-117L539-64Q499-28 449.50-8Q400 12 346 12Q289 12 240.50-5Q192-22 156-54.50Q120-87 100-134.50Q80-182 80-242Z"/><path id="s113:sourcecodepro-regular:9" d="M135-656L536-656L536-586L218-586L218-364L487-364L487-294L218-294L218 0L135 0L135-656Z"/><path id="s113:sourcecodepro-regular:484" d="M197 161Q259 133 290 93.50Q321 54 323-6Q318-5 313.50-4.50Q309-4 304-4Q272-4 249-22.50Q226-41 226-79Q226-116 250-135.50Q274-155 306-155Q351-155 373.50-120.50Q396-86 396-27Q396 61 349.50 121.50Q303 182 220 213L197 161Z"/></defs><g id="line-0"><use x="0" y="847.5" xlink:href="#s113:sourcecodepro-regular:23"/><use x="600" y="847.5" xlink:href="#s113:sourcecodepro-regular:37"/><use x="1200" y="847.5" xlink:href="#s113:sourcecodepro-regular:34"/><use x="1800" y="847.5" xlink:href="#s113:sourcecodepro-regular:3"/><use x="2400" y="847.5" xlink:href="#s113:sourcecodepro-regular:8"/><use x="3000" y="847.5" xlink:href="#s113:sourcecodepro-regular:50"/><use x="3600" y="847.5" xlink:href="#s113:sourcecodepro-regular:47"/><use x="4200" y="847.5" xlink:href="#s113:sourcecodepro-regular:44"/><use x="4800" y="847.5" xlink:href="#s113:sourcecodepro-regular:45"/><use x="5400" y="847.5" xlink:href="#s113:sourcecodepro-regular:34"/><use x="6000" y="847.5" xlink:href="#s113:sourcecodepro-regular:30"/><use x="6600" y="847.5" xlink:href="#s113:sourcecodepro-regular:43"/><use x="7200" y="847.5" xlink:href="#s113:sourcecodepro-regular:3"/><use x="7800" y="847.5" xlink:href="#s113:sourcecodepro-regular:41"/><use x="8400" y="847.5" xlink:href="#s113:sourcecodepro-regular:30"/><use x="9000" y="847.5" xlink:href="#s113:sourcecodepro-regular:43"/><use x="9600" y="847.5" xlink:href="#s113:sourcecodepro-regular:36"/><use x="10200" y="847.5" xlink:href="#s113:sourcecodepro-regular:50"/><use x="10800" y="847.5" xlink:href="#s113:sourcecodepro-regular:30"/><use x="11400" y="847.5" xlink:href="#s113:sourcecodepro-regular:36"/><use x="12000" y="847.5" xlink:href="#s113:sourcecodepro-regular:34"/><use x="12600" y="847.5" xlink:href="#s113:sourcecodepro-regular:48"/><use x="13200" y="847.5" xlink:href="#s113:sourcecodepro-regular:3"/><use x="13800" y="847.5" xlink:href="#s113:sourcecodepro-regular:30"/><use x="14400" y="847.5" xlink:href="#s113:sourcecodepro-regular:47"/><use x="15000" y="847.5" xlink:href="#s113:sourcecodepro-regular:34"/><use x="15600" y="847.5" xlink:href="#s113:sourcecodepro-regular:3"/><use x="16200" y="847.5" xlink:href="#s113:sourcecodepro-regular:42"/><use x="16800" y="847.5" xlink:href="#s113:sourcecodepro-regular:34"/><use x="17400" y="847.5" xlink:href="#s113:sourcecodepro-regular:42"/><use x="18000" y="847.5" xlink:href="#s113:sourcecodepro-regular:31"/><use x="18600" y="847.5" xlink:href="#s113:sourcecodepro-regular:34"/><use x="19200" y="847.5" xlink:href="#s113:sourcecodepro-regular:47"/><use x="19800" y="847.5" xlink:href="#s113:sourcecodepro-regular:48"/><use x="20400" y="847.5" xlink:href="#s113:sourcecodepro-regular:3"/><use x="21000" y="847.5" xlink:href="#s113:sourcecodepro-regular:44"/><use x="21600" y="847.5" xlink:href="#s113:sourcecodepro-regular:35"/><use x="22200" y="847.5" xlink:href="#s113:sourcecodepro-regular:3"/><use x="22800" y="847.5" xlink:href="#s113:sourcecodepro-regular:49"/><use x="23400" y="847.5" xlink:href="#s113:sourcecodepro-regular:37"/><use x="24000" y="847.5" xlink:href="#s113:sourcecodepro-regular:34"/><use x="24600" y="847.5" xlink:href="#s113:sourcecodepro-regular:3"/><use x="25200" y="847.5" xlink:href="#s113:sourcecodepro-regular:48"/><use x="25800" y="847.5" xlink:href="#s113:sourcecodepro-regular:30"/><use x="26400" y="847.5" xlink:href="#s113:sourcecodepro-regular:42"/><use x="27000" y="847.5" xlink:href="#s113:sourcecodepro-regular:34"/><use x="27600" y="847.5" xlink:href="#s113:sourcecodepro-regular:3"/><use x="28200" y="847.5" xlink:href="#s113:sourcecodepro-regular:35"/><use x="28800" y="847.5" xlink:href="#s113:sourcecodepro-regular:30"/><use x="29400" y="847.5" xlink:href="#s113:sourcecodepro-regular:42"/><use x="30000" y="847.5" xlink:href="#s113:sourcecodepro-regular:38"/><use x="30600" y="847.5" xlink:href="#s113:sourcecodepro-regular:41"/><use x="31200" y="847.5" xlink:href="#s113:sourcecodepro-regular:54"/><use x="31800" y="847.5" xlink:href="#s113:sourcecodepro-regular:483"/></g><g id="line-1"><use x="5700" y="2047.5" xlink:href="#s113:sourcecodepro-regular:23"/><use x="6300" y="2047.5" xlink:href="#s113:sourcecodepro-regular:37"/><use x="6900" y="2047.5" xlink:href="#s113:sourcecodepro-regular:34"/><use x="7500" y="2047.5" xlink:href="#s113:sourcecodepro-regular:38"/><use x="8100" y="2047.5" xlink:href="#s113:sourcecodepro-regular:47"/><use x="8700" y="2047.5" xlink:href="#s113:sourcecodepro-regular:3"/><use x="9300" y="2047.5" xlink:href="#s113:sourcecodepro-regular:48"/><use x="9900" y="2047.5" xlink:href="#s113:sourcecodepro-regular:34"/><use x="10500" y="2047.5" xlink:href="#s113:sourcecodepro-regular:45"/><use x="11100" y="2047.5" xlink:href="#s113:sourcecodepro-regular:30"/><use x="11700" y="2047.5" xlink:href="#s113:sourcecodepro-regular:47"/><use x="12300" y="2047.5" xlink:href="#s113:sourcecodepro-regular:30"/><use x="12900" y="2047.5" xlink:href="#s113:sourcecodepro-regular:49"/><use x="13500" y="2047.5" xlink:href="#s113:sourcecodepro-regular:34"/><use x="14100" y="2047.5" xlink:href="#s113:sourcecodepro-regular:3"/><use x="14700" y="2047.5" xlink:href="#s113:sourcecodepro-regular:34"/><use x="15300" y="2047.5" xlink:href="#s113:sourcecodepro-regular:53"/><use x="15900" y="2047.5" xlink:href="#s113:sourcecodepro-regular:38"/><use x="16500" y="2047.5" xlink:href="#s113:sourcecodepro-regular:48"/><use x="17100" y="2047.5" xlink:href="#s113:sourcecodepro-regular:49"/><use x="17700" y="2047.5" xlink:href="#s113:sourcecodepro-regular:34"/><use x="18300" y="2047.5" xlink:href="#s113:sourcecodepro-regular:43"/><use x="18900" y="2047.5" xlink:href="#s113:sourcecodepro-regular:32"/><use x="19500" y="2047.5" xlink:href="#s113:sourcecodepro-regular:34"/><use x="20100" y="2047.5" xlink:href="#s113:sourcecodepro-regular:3"/><use x="20700" y="2047.5" xlink:href="#s113:sourcecodepro-regular:38"/><use x="21300" y="2047.5" xlink:href="#s113:sourcecodepro-regular:48"/><use x="21900" y="2047.5" xlink:href="#s113:sourcecodepro-regular:3"/><use x="22500" y="2047.5" xlink:href="#s113:sourcecodepro-regular:30"/><use x="23100" y="2047.5" xlink:href="#s113:sourcecodepro-regular:3"/><use x="23700" y="2047.5" xlink:href="#s113:sourcecodepro-regular:42"/><use x="24300" y="2047.5" xlink:href="#s113:sourcecodepro-regular:54"/><use x="24900" y="2047.5" xlink:href="#s113:sourcecodepro-regular:49"/><use x="25500" y="2047.5" xlink:href="#s113:sourcecodepro-regular:37"/><use x="26100" y="2047.5" xlink:href="#s113:sourcecodepro-regular:483"/></g><g id="line-2"><use x="6892.5" y="3247.5" xlink:href="#s113:sourcecodepro-regular:9"/><use x="7492.5" y="3247.5" xlink:href="#s113:sourcecodepro-regular:44"/><use x="8092.5" y="3247.5" xlink:href="#s113:sourcecodepro-regular:47"/><use x="8692.5" y="3247.5" xlink:href="#s113:sourcecodepro-regular:3"/><use x="9292.5" y="3247.5" xlink:href="#s113:sourcecodepro-regular:48"/><use x="9892.5" y="3247.5" xlink:href="#s113:sourcecodepro-regular:32"/><use x="10492.5" y="3247.5" xlink:href="#s113:sourcecodepro-regular:38"/><use x="11092.5" y="3247.5" xlink:href="#s113:sourcecodepro-regular:34"/><use x="11692.5" y="3247.5" xlink:href="#s113:sourcecodepro-regular:43"/><use x="12292.5" y="3247.5" xlink:href="#s113:sourcecodepro-regular:32"/><use x="12892.5" y="3247.5" xlink:href="#s113:sourcecodepro-regular:34"/><use x="13492.5" y="3247.5" xlink:href="#s113:sourcecodepro-regular:484"/><use x="14092.5" y="3247.5" xlink:href="#s113:sourcecodepro-regular:3"/><use x="14692.5" y="3247.5" xlink:href="#s113:sourcecodepro-regular:42"/><use x="15292.5" y="3247.5" xlink:href="#s113:sourcecodepro-regular:50"/><use x="15892.5" y="3247.5" xlink:href="#s113:sourcecodepro-regular:48"/><use x="16492.5" y="3247.5" xlink:href="#s113:sourcecodepro-regular:38"/><use x="17092.5" y="3247.5" xlink:href="#s113:sourcecodepro-regular:32"/><use x="17692.5" y="3247.5" xlink:href="#s113:sourcecodepro-regular:484"/><use x="18292.5" y="3247.5" xlink:href="#s113:sourcecodepro-regular:3"/><use x="18892.5" y="3247.5" xlink:href="#s113:sourcecodepro-regular:48"/><use x="19492.5" y="3247.5" xlink:href="#s113:sourcecodepro-regular:45"/><use x="20092.5" y="3247.5" xlink:href="#s113:sourcecodepro-regular:44"/><use x="20692.5" y="3247.5" xlink:href="#s113:sourcecodepro-regular:47"/><use x="21292.5" y="3247.5" xlink:href="#s113:sourcecodepro-regular:49"/><use x="21892.5" y="3247.5" xlink:href="#s113:sourcecodepro-regular:484"/><use x="22492.5" y="3247.5" xlink:href="#s113:sourcecodepro-regular:3"/><use x="23092.5" y="3247.5" xlink:href="#s113:sourcecodepro-regular:34"/><use x="23692.5" y="3247.5" xlink:href="#s113:sourcecodepro-regular:49"/><use x="24292.5" y="3247.5" xlink:href="#s113:sourcecodepro-regular:32"/><use x="24892.5" y="3247.5" xlink:href="#s113:sourcecodepro-regular:484"/></g></svg>