<svg xmlns="http://www.w3.org/2000/svg" xmlns:xlink="http://www.w3.org/1999/xlink" width="641" height="80" viewBox="0 0 26697 3315"><defs><path id="s130:ubuntumono-regular:55" d="M461-619L461-549L291-549L291 0L209 0L209-549L39-549L39-619L461-619Z"/><path id="s130:ubuntumono-regular:75" d="M71 0L71-679L154-693L154-457Q174-465 199-469.50Q224-474 248-474Q301-474 336.50-458.50Q372-443 393-415Q414-387 423-348Q432-309 432-262L432 0L350 0L350-244Q350-330 326-365.50Q302-401 240-401Q214-401 189.50-395.50Q165-390 154-385L154 0L71 0Z"/><path id="s130:ubuntumono-regular:72" d="M259-475Q353-475 404-416.50Q455-358 455-239L455-210L123-210Q128-138 170.50-100.50Q213-63 290-63Q334-63 365-70Q396-77 412-85L423-15Q408-7 369 2Q330 11 281 11Q221 11 175.50-7.50Q130-26 100-58Q70-90 55-134.50Q40-179 40-231Q40-293 59-339Q78-385 109-415Q140-445 179-460Q218-475 259-475M371-277Q371-336 340-370.50Q309-405 258-405Q229-405 205.50-394Q182-383 165-365Q148-347 138-324Q128-301 125-277L371-277Z"/><path id="s130:ubuntumono-regular:3" d=""/><path id="s130:ubuntumono-regular:40" d="M91 0L91-619L438-619L438-549L173-549L173-359L405-359L405-289L173-289L173-70L460-70L460 0L91 0Z"/><path id="s130:ubuntumono-regular:88" d="M429-13Q402-6 357.50 2Q313 10 253 10Q200 10 165-5.50Q130-21 108-49.50Q86-78 77-117Q68-156 68-203L68-464L150-464L150-221Q150-135 175.50-99Q201-63 261-63Q274-63 287.50-64Q301-65 313-66.50Q325-68 334-69.50Q343-71 346-72L346-464L429-464L429-13Z"/><path id="s130:ubuntumono-regular:85" d="M107 0L107-439Q209-474 313-474Q345-474 374-471.50Q403-469 438-461L423-388Q391-397 366.50-399.50Q342-402 313-402Q252-402 189-385L189 0L107 0Z"/><path id="s130:ubuntumono-regular:82" d="M460-232Q460-177 444.50-132.50Q429-88 401-56Q373-24 334-6.50Q295 11 249 11Q204 11 165.50-6.50Q127-24 99-56Q71-88 55.50-132.50Q40-177 40-232Q40-287 55.50-332Q71-377 99-408.50Q127-440 165.50-457.50Q204-475 249-475Q295-475 334-457.50Q373-440 401-408.50Q429-377 444.50-332Q460-287 460-232M375-232Q375-311 341-356.50Q307-402 249-402Q192-402 158.50-356.50Q125-311 125-232Q125-154 158.50-108.50Q192-63 249-63Q307-63 341-108.50Q375-154 375-232Z"/><path id="s130:ubuntumono-regular:83" d="M375-231Q375-312 337-356.50Q299-401 238-401Q204-401 184.50-398Q165-395 154-391L154-98Q168-85 195-74Q222-63 251-63Q284-63 307.50-76Q331-89 346-111.50Q361-134 368-164.50Q375-195 375-231M460-231Q460-178 446.50-133.50Q433-89 407.50-57Q382-25 345-7Q308 11 261 11Q224 11 196 2Q168-7 154-18L154 165L71 165L71-450Q98-458 140.50-466Q183-474 238-474Q288-474 329-457Q370-440 399-408.50Q428-377 444-332Q460-287 460-231Z"/><path id="s130:ubuntumono-regular:68" d="M255-59Q286-59 310.50-61Q335-63 351-66L351-204Q335-209 312.50-212Q290-215 265-215Q242-215 220-211.50Q198-208 181-199Q164-190 153-175.50Q142-161 142-139Q142-94 172.50-76.50Q203-59 255-59M247-475Q299-475 334.50-462Q370-449 392-426Q414-403 423-370Q432-337 432-298L432-8Q403-3 355.50 4Q308 11 258 11Q220 11 184 4.50Q148-2 120-18.50Q92-35 75-64Q58-93 58-138Q58-178 75.50-205.50Q93-233 120.50-250Q148-267 183.50-274.50Q219-282 255-282Q304-282 351-271L351-294Q351-315 346.50-334.50Q342-354 329.50-370Q317-386 295.50-395.50Q274-405 240-405Q197-405 165-399Q133-393 116-387L106-455Q123-463 162.50-469Q202-475 247-475Z"/><path id="s130:ubuntumono-regular:81" d="M71-451Q116-462 160.50-468Q205-474 244-474Q337-474 384.50-426Q432-378 432-272L432 0L350 0L350-257Q350-302 342-330Q334-358 319.50-373.50Q305-389 284.50-395Q264-401 240-401Q220-401 197.50-398.50Q175-396 154-392L154 0L71 0L71-451Z"/><path id="s130:ubuntumono-regular:79" d="M338 11Q294 11 265-1Q236-13 219-37Q202-61 195-96.50Q188-132 188-179L188-618L54-618L54-688L270-688L270-179Q270-144 274.50-122Q279-100 288.50-86.50Q298-73 312-68Q326-63 345-63Q374-63 399-70Q424-77 438-85L450-15Q444-12 433-7.50Q422-3 407 1Q392 5 374.50 8Q357 11 338 11Z"/><path id="s130:ubuntumono-regular:74" d="M346-43Q332-35 303-26Q274-17 236-17Q195-17 159.50-30.50Q124-44 97.50-71.50Q71-99 55.50-141.50Q40-184 40-242Q40-293 54.50-335.50Q69-378 96.50-409Q124-440 164-457.50Q204-475 255-475Q315-475 357.50-466.50Q400-458 429-450L429-36Q429 72 374.50 120Q320 168 210 168Q165 168 128.50 161Q92 154 64 144L79 71Q105 82 138.50 89Q172 96 212 96Q284 96 315 67Q346 38 346-27L346-43M346-391Q334-395 313-398.50Q292-402 256-402Q192-402 158.50-358Q125-314 125-241Q125-201 134.50-172.50Q144-144 160.50-125.50Q177-107 198-98.50Q219-90 243-90Q274-90 301.50-99Q329-108 346-120L346-391Z"/><path id="s130:ubuntumono-regular:86" d="M351-116Q351-141 330.50-157Q310-173 279.50-185Q249-197 213-208.50Q177-220 146.50-237Q116-254 95.50-279Q75-304 75-344Q75-400 120.50-437.50Q166-475 263-475Q301-475 341.50-469.50Q382-464 411-455L396-381Q388-385 374-389.50Q360-394 342-397.50Q324-401 303.50-403Q283-405 264-405Q156-405 156-346Q156-325 176.50-310.50Q197-296 228-284Q259-272 295-259.50Q331-247 362-229Q393-211 413.50-185.50Q434-160 434-121Q434-58 385-23.50Q336 11 230 11Q182 11 142 3Q102-5 66-21L82-96Q117-80 155.50-69.50Q194-59 238-59Q351-59 351-116Z"/><path id="s130:ubuntumono-regular:80" d="M41-451Q101-474 154-474Q183-474 208.50-465.50Q234-457 252-439Q295-474 344-474Q368-474 389.50-465Q411-456 427.50-438Q444-420 454-393Q464-366 464-330L464 0L389 0L389-332Q389-368 373-387Q357-406 333-406Q321-406 308-400Q295-394 284-381Q290-358 290-330L290-179L215-179L215-331Q215-366 204-386Q193-406 161-406Q141-406 116-397L116 0L41 0L41-451Z"/><path id="s130:ubuntumono-regular:69" d="M154-447Q169-456 197.50-465.50Q226-475 261-475Q308-475 345-457Q382-439 407.50-407Q433-375 446.50-330.50Q460-286 460-232Q460-176 444-131Q428-86 399-54.50Q370-23 329-6Q288 11 238 11Q183 11 140 3Q97-5 71-13L71-679L154-693L154-447M154-72Q173-67 192-64.50Q211-62 228-62Q297-62 336-104.50Q375-147 375-232Q375-268 368-299.50Q361-331 346-353.50Q331-376 307.50-389Q284-402 251-402Q222-402 195-390.50Q168-379 154-366L154-72Z"/><path id="s130:ubuntumono-regular:73" d="M161 0L161-395L63-395L63-464L161-464L161-506Q161-560 176-595.50Q191-631 215.50-653Q240-675 272.50-684Q305-693 341-693Q377-693 413.50-685Q450-677 482-666L467-595Q445-606 412-614Q379-622 345-622Q324-622 305.50-616.50Q287-611 273-597.50Q259-584 251-561.50Q243-539 243-505L243-464L430-464L430-395L243-395L243 0L161 0Z"/><path id="s130:ubuntumono-regular:87" d="M243-464L439-464L439-395L243-395L243-179Q243-144 248-122Q253-100 264.50-86.50Q276-73 294-68Q312-63 338-63Q374-63 396-69Q418-75 438-85L450-15Q436-9 405.50 1Q375 11 330 11Q278 11 245-1Q212-13 193.50-37Q175-61 168-96.50Q161-132 161-179L161-395L63-395L63-464L161-464L161-594L243-608L243-464Z"/><path id="s130:ubuntumono-regular:76" d="M209-536Q183-536 164-554Q145-572 145-603Q145-634 164-652Q183-670 209-670Q236-670 254.50-652Q273-634 273-603Q273-572 254.50-554Q236-536 209-536M188-395L54-395L54-464L270-464L270-179Q270-110 289-86.50Q308-63 346-63Q375-63 399.50-70Q424-77 438-85L450-15Q444-12 433-7.50Q422-3 407.50 1Q393 5 375.50 8Q358 11 339 11Q295 11 266-1Q237-13 219.50-37Q202-61 195-96.50Q188-132 188-179L188-395Z"/><path id="s130:ubuntumono-regular:92" d="M51 87Q60 92 76.50 95Q93 98 107 98Q156 98 183.50 76.50Q211 55 234 6Q178-100 129-221.50Q80-343 48-464L138-464Q148-424 161.50-377.50Q175-331 192-282Q209-233 228.50-183.50Q248-134 270-89Q286-135 300-180Q314-225 326-270.50Q338-316 350-363.50Q362-411 375-464L461-464Q429-334 389.50-212Q350-90 305 14Q288 54 268.50 83Q249 112 226 131Q203 150 174 159Q145 168 108 168Q89 168 66.50 163Q44 158 36 154L51 87Z"/><path id="s130:ubuntumono-regular:17" d="M324-64Q324-34 304-11Q284 12 251 12Q217 12 197-11Q177-34 177-64Q177-95 197-118Q217-141 251-141Q284-141 304-118Q324-95 324-64Z"/><path id="s130:ubuntumono-regular:91" d="M380 0Q370-20 355.50-44Q341-68 324-93.50Q307-119 288.50-144Q270-169 252-191Q234-168 214-143Q194-118 175.50-92.50Q157-67 141-43Q125-19 114 0L29 0Q62-60 109.50-123.50Q157-187 203-244L36-464L129-464L254-302L369-464L457-464L304-249Q349-190 394.50-126Q440-62 472 0L380 0Z"/><path id="s130:ubuntumono-regular:70" d="M49-231Q49-294 69-340Q89-386 124-416Q159-446 205.50-460.50Q252-475 305-475Q339-475 372.50-470.50Q406-466 444-454L425-383Q392-395 364.50-398.50Q337-402 309-402Q273-402 241-392.50Q209-383 185.50-362.50Q162-342 148-309.50Q134-277 134-231Q134-187 147-155.50Q160-124 183.50-103.50Q207-83 240-73Q273-63 313-63Q345-63 374.50-66.50Q404-70 439-82L451-13Q416 0 380 5.50Q344 11 302 11Q246 11 199.50-4.50Q153-20 119.50-50Q86-80 67.50-125.50Q49-171 49-231Z"/><path id="s130:ubuntumono-regular:41" d="M91 0L91-619L442-619L442-549L173-549L173-356L410-356L410-287L173-287L173 0L91 0Z"/><path id="s130:ubuntumono-regular:15" d="M149 79Q167 75 184.50 71Q202 67 217 59.50Q232 52 244 40.50Q256 29 263 9Q231 6 216.50-15.50Q202-37 202-58Q202-98 224.50-118.50Q247-139 276-139Q313-139 332-112.50Q351-86 351-48Q351-19 339.50 12.50Q328 44 304.50 71.50Q281 99 246 118.50Q211 138 163 144L149 79Z"/></defs><g id="line-0"><use x="0" y="745" xlink:href="#s130:ubuntumono-regular:55"/><use x="500" y="745" xlink:href="#s130:ubuntumono-regular:75"/><use x="1000" y="745" xlink:href="#s130:ubuntumono-regular:72"/><use x="1500" y="745" xlink:href="#s130:ubuntumono-regular:3"/><use x="2000" y="745" xlink:href="#s130:ubuntumono-regular:40"/><use x="2500" y="745" xlink:href="#s130:ubuntumono-regular:88"/><use x="3000" y="745" xlink:href="#s130:ubuntumono-regular:85"/><use x="3500" y="745" xlink:href="#s130:ubuntumono-regular:82"/><use x="4000" y="745" xlink:href="#s130:ubuntumono-regular:83"/><use x="4500" y="745" xlink:href="#s130:ubuntumono-regular:72"/><use x="5000" y="745" xlink:href="#s130:ubuntumono-regular:68"/><use x="5500" y="745" xlink:href="#s130:ubuntumono-regular:81"/><use x="6000" y="745" xlink:href="#s130:ubuntumono-regular:3"/><use x="6500" y="745" xlink:href="#s130:ubuntumono-regular:79"/><use x="7000" y="745" xlink:href="#s130:ubuntumono-regular:68"/><use x="7500" y="745" xlink:href="#s130:ubuntumono-regular:81"/><use x="8000" y="745" xlink:href="#s130:ubuntumono-regular:74"/><use x="8500" y="745" xlink:href="#s130:ubuntumono-regular:88"/><use x="9000" y="745" xlink:href="#s130:ubuntumono-regular:68"/><use x="9500" y="745" xlink:href="#s130:ubuntumono-regular:74"/><use x="10000" y="745" xlink:href="#s130:ubuntumono-regular:72"/><use x="10500" y="745" xlink:href="#s130:ubuntumono-regular:86"/><use x="11000" y="745" xlink:href="#s130:ubuntumono-regular:3"/><use x="11500" y="745" xlink:href="#s130:ubuntumono-regular:68"/><use x="12000" y="745" xlink:href="#s130:ubuntumono-regular:85"/><use x="12500" y="745" xlink:href="#s130:ubuntumono-regular:72"/><use x="13000" y="745" xlink:href="#s130:ubuntumono-regular:3"/><use x="13500" y="745" xlink:href="#s130:ubuntumono-regular:80"/><use x="14000" y="745" xlink:href="#s130:ubuntumono-regular:72"/><use x="14500" y="745" xlink:href="#s130:ubuntumono-regular:80"/><use x="15000" y="745" xlink:href="#s130:ubuntumono-regular:69"/><use x="15500" y="745" xlink:href="#s130:ubuntumono-regular:72"/><use x="16000" y="745" xlink:href="#s130:ubuntumono-regular:85"/><use x="16500" y="745" xlink:href="#s130:ubuntumono-regular:86"/><use x="17000" y="745" xlink:href="#s130:ubuntumono-regular:3"/><use x="17500" y="745" xlink:href="#s130:ubuntumono-regular:82"/><use x="18000" y="745" xlink:href="#s130:ubuntumono-regular:73"/><use x="18500" y="745" xlink:href="#s130:ubuntumono-regular:3"/><use x="19000" y="745" xlink:href="#s130:ubuntumono-regular:87"/><use x="19500" y="745" xlink:href="#s130:ubuntumono-regular:75"/><use x="20000" y="745" xlink:href="#s130:ubuntumono-regular:72"/><use x="20500" y="745" xlink:href="#s130:ubuntumono-regular:3"/><use x="21000" y="745" xlink:href="#s130:ubuntumono-regular:86"/><use x="21500" y="745" xlink:href="#s130:ubuntumono-regular:68"/><use x="22000" y="745" xlink:href="#s130:ubuntumono-regular:80"/><use x="22500" y="745" xlink:href="#s130:ubuntumono-regular:72"/><use x="23000" y="745" xlink:href="#s130:ubuntumono-regular:3"/><use x="23500" y="745" xlink:href="#s130:ubuntumono-regular:73"/><use x="24000" y="745" xlink:href="#s130:ubuntumono-regular:68"/><use x="24500" y="745" xlink:href="#s130:ubuntumono-regular:80"/><use x="25000" y="745" xlink:href="#s130:ubuntumono-regular:76"/><use x="25500" y="745" xlink:href="#s130:ubuntumono-regular:79"/><use x="26000" y="745" xlink:href="#s130:ubuntumono-regular:92"/><use x="26500" y="745" xlink:href="#s130:ubuntumono-regular:17"/></g><g id="line-1"><use x="4750" y="1945" xlink:href="#s130:ubuntumono-regular:55"/><use x="5250" y="1945" xlink:href="#s130:ubuntumono-regular:75"/><use x="5750" y="1945" xlink:href="#s130:ubuntumono-regular:72"/><use x="6250" y="1945" xlink:href="#s130:ubuntumono-regular:76"/><use x="6750" y="1945" xlink:href="#s130:ubuntumono-regular:85"/><use x="7250" y="1945" xlink:href="#s130:ubuntumono-regular:3"/><use x="7750" y="1945" xlink:href="#s130:ubuntumono-regular:86"/><use x="8250" y="1945" xlink:href="#s130:ubuntumono-regular:72"/><use x="8750" y="1945" xlink:href="#s130:ubuntumono-regular:83"/><use x="9250" y="1945" xlink:href="#s130:ubuntumono-regular:68"/><use x="9750" y="1945" xlink:href="#s130:ubuntumono-regular:85"/><use x="10250" y="1945" xlink:href="#s130:ubuntumono-regular:68"/><use x="10750" y="1945" xlink:href="#s130:ubuntumono-regular:87"/><use x="11250" y="1945" xlink:href="#s130:ubuntumono-regular:72"/><use x="11750" y="1945" xlink:href="#s130:ubuntumono-regular:3"/><use x="12250" y="1945" xlink:href="#s130:ubuntumono-regular:72"/><use x="12750" y="1945" xlink:href="#s130:ubuntumono-regular:91"/><use x="13250" y="1945" xlink:href="#s130:ubuntumono-regular:76"/><use x="13750" y="1945" xlink:href="#s130:ubuntumono-regular:86"/><use x="14250" y="1945" xlink:href="#s130:ubuntumono-regular:87"/><use x="14750" y="1945" xlink:href="#s130:ubuntumono-regular:72"/><use x="15250" y="1945" xlink:href="#s130:ubuntumono-regular:81"/><use x="15750" y="1945" xlink:href="#s130:ubuntumono-regular:70"/><use x="16250" y="1945" xlink:href="#s130:ubuntumono-regular:72"/><use x="16750" y="1945" xlink:href="#s130:ubuntumono-regular:3"/><use x="17250" y="1945" xlink:href="#s130:ubuntumono-regular:76"/><use x="17750" y="1945" xlink:href="#s130:ubuntumono-regular:86"/><use x="18250" y="1945" xlink:href="#s130:ubuntumono-regular:3"/><use x="18750" y="1945" xlink:href="#s130:ubuntumono-regular:68"/><use x="19250" y="1945" xlink:href="#s130:ubuntumono-regular:3"/><use x="19750" y="1945" xlink:href="#s130:ubuntumono-regular:80"/><use x="20250" y="1945" xlink:href="#s130:ubuntumono-regular:92"/><use x="20750" y="1945" xlink:href="#s130:ubuntumono-regular:87"/><use x="21250" y="1945" xlink:href="#s130:ubuntumono-regular:75"/><use x="21750" y="1945" xlink:href="#s130:ubuntumono-regular:17"/></g><g id="line-2"><use x="5722.5" y="3145" xlink:href="#s130:ubuntumono-regular:41"/><use x="6222.5" y="3145" xlink:href="#s130:ubuntumono-regular:82"/><use x="6722.5" y="3145" xlink:href="#s130:ubuntumono-regular:85"/><use x="7222.5" y="3145" xlink:href="#s130:ubuntumono-regular:3"/><use x="7722.5" y="3145" xlink:href="#s130:ubuntumono-regular:86"/><use x="8222.5" y="3145" xlink:href="#s130:ubuntumono-regular:70"/><use x="8722.5" y="3145" xlink:href="#s130:ubuntumono-regular:76"/><use x="9222.5" y="3145" xlink:href="#s130:ubuntumono-regular:72"/><use x="9722.5" y="3145" xlink:href="#s130:ubuntumono-regular:81"/><use x="10222.5" y="3145" xlink:href="#s130:ubuntumono-regular:70"/><use x="10722.5" y="3145" xlink:href="#s130:ubuntumono-regular:72"/><use x="11222.5" y="3145" xlink:href="#s130:ubuntumono-regular:15"/><use x="11722.5" y="3145" xlink:href="#s130:ubuntumono-regular:3"/><use x="12222.5" y="3145" xlink:href="#s130:ubuntumono-regular:80"/><use x="12722.5" y="3145" xlink:href="#s130:ubuntumono-regular:88"/><use x="13222.5" y="3145" xlink:href="#s130:ubuntumono-regular:86"/><use x="13722.5" y="3145" xlink:href="#s130:ubuntumono-regular:76"/><use x="14222.5" y="3145" xlink:href="#s130:ubuntumono-regular:70"/><use x="14722.5" y="3145" xlink:href="#s130:ubuntumono-regular:15"/><use x="15222.5" y="3145" xlink:href="#s130:ubuntumono-regular:3"/><use x="15722.5" y="3145" xlink:href="#s130:ubuntumono-regular:86"/><use x="16222.5" y="3145" xlink:href="#s130:ubuntumono-regular:83"/><use x="16722.5" y="3145" xlink:href="#s130:ubuntumono-regular:82"/><use x="17222.5" y="3145" xlink:href="#s130:ubuntumono-regular:85"/><use x="17722.5" y="3145" xlink:href="#s130:ubuntumono-regular:87"/><use x="18222.5" y="3145" xlink:href="#s130:ubuntumono-regular:15"/><use x="18722.5" y="3145" xlink:href="#s130:ubuntumono-regular:3"/><use x="19222.5" y="3145" xlink:href="#s130:ubuntumono-regular:72"/><use x="19722.5" y="3145" xlink:href="#s130:ubuntumono-regular:87"/><use x="20222.5" y="3145" xlink:href="#s130:ubuntumono-regular:70"/><use x="20722.5" y="3145" xlink:href="#s130:ubuntumono-regular:15"/></g></svg>