<svg xmlns="http://www.w3.org/2000/svg" xmlns:xlink="http://www.w3.org/1999/xlink" width="641" height="80" viewBox="0 0 26697 3315"><defs><path id="s129:ubuntumono-italic:55" d="M589-619L572-549L403-549L271 0L188 0L321-549L152-549L169-619L589-619Z"/><path id="s129:ubuntumono-italic:75" d="M45 0L207-679L293-693L236-457Q256-465 279-469.50Q302-474 325-474Q365-474 394-463Q423-452 441-432.50Q459-413 467.50-386Q476-359 476-327Q476-306 472-283Q468-260 462-236L405 0L323 0L375-218Q381-243 387.50-269.50Q394-296 394-320Q394-355 374-378.50Q354-402 301-402Q256-402 221-388L126 0L45 0Z"/><path id="s129:ubuntumono-italic:72" d="M162-244Q222-245 270-249.50Q318-254 351.50-266Q385-278 403-299.50Q421-321 421-354Q421-362 417.50-371Q414-380 405.50-388Q397-396 382-401Q367-406 345-406Q311-406 281.50-392.50Q252-379 228-356.50Q204-334 187.50-305Q171-276 162-244M263 12Q214 12 178-2.50Q142-17 118-41Q94-65 82.50-96.50Q71-128 71-162Q71-225 90.50-282Q110-339 147-381.50Q184-424 236.50-449.50Q289-475 355-475Q394-475 422-465.50Q450-456 468-440.50Q486-425 494.50-404Q503-383 503-360Q503-297 471-262Q439-227 388-209.50Q337-192 274.50-187Q212-182 152-180Q146-117 185-88.50Q224-60 288-60Q309-60 331.50-63.50Q354-67 373.50-71.50Q393-76 408-81.50Q423-87 429-91L436-21Q417-11 374 0.50Q331 12 263 12Z"/><path id="s129:ubuntumono-italic:3" d=""/><path id="s129:ubuntumono-italic:40" d="M71 0L221-619L567-619L550-549L286-549L240-359L472-359L455-289L223-289L171-70L457-70L440 0L71 0Z"/><path id="s129:ubuntumono-italic:88" d="M222 10Q183 10 157-1.50Q131-13 114.50-32.50Q98-52 91-78.50Q84-105 84-135Q84-158 88-181Q92-204 97-227L154-464L237-464L184-245Q179-224 172.50-196.50Q166-169 166-141Q166-125 169-110.50Q172-96 180-84.50Q188-73 202-66.50Q216-60 238-60Q276-60 306-76.50Q336-93 355-115Q356-129 357.50-144.50Q359-160 364-178L433-464L515-464L445-171Q440-150 437-131Q434-112 434-91Q434-70 437.50-50Q441-30 450-5L377 5Q372-5 367.50-17.50Q363-30 361-44Q341-26 307-8Q273 10 222 10Z"/><path id="s129:ubuntumono-italic:85" d="M89 0L195-440Q301-474 408-474Q439-474 463-471.50Q487-469 522-462L491-389Q476-393 463.50-395.50Q451-398 440-399.50Q429-401 417.50-401.50Q406-402 391-402Q360-402 327.50-398Q295-394 263-386L171 0L89 0Z"/><path id="s129:ubuntumono-italic:82" d="M237 11Q163 11 121.50-32Q80-75 80-151Q80-203 94.50-260Q109-317 141.50-365Q174-413 225-444Q276-475 348-475Q422-475 463.50-432Q505-389 505-313Q505-261 490.50-204Q476-147 443.50-99Q411-51 360-20Q309 11 237 11M251-63Q291-63 323-85.50Q355-108 377-143Q399-178 410.50-221.50Q422-265 422-306Q422-351 402-376.50Q382-402 334-402Q294-402 262-379.50Q230-357 208-321.50Q186-286 174.50-242.50Q163-199 163-158Q163-113 183-88Q203-63 251-63Z"/><path id="s129:ubuntumono-italic:83" d="M337-475Q380-475 412-462.50Q444-450 464.50-428.50Q485-407 495-377Q505-347 505-312Q505-250 486.50-192Q468-134 429-89Q390-44 330.50-16.50Q271 11 190 11Q180 11 163.50 8.50Q147 6 138 4L100 165L18 165L164-445Q182-452 204.50-458Q227-464 250-467.50Q273-471 295.50-473Q318-475 337-475M156-68Q165-66 179.50-64.50Q194-63 204-63Q255-63 295.50-82.50Q336-102 364.50-135Q393-168 408-211.50Q423-255 423-302Q423-322 418.50-340.50Q414-359 402-373.50Q390-388 369-396.50Q348-405 316-405Q294-405 271-401Q248-397 235-394L156-68Z"/><path id="s129:ubuntumono-italic:68" d="M376 5Q371-5 367-16.50Q363-28 361-42Q341-24 305.50-6.50Q270 11 222 11Q144 11 107.50-36Q71-83 71-155Q71-215 91-272Q111-329 151.50-374Q192-419 253-446.50Q314-474 395-474Q407-474 422.50-473Q438-472 454-469Q470-466 485.50-461.50Q501-457 513-451L445-171Q440-150 436.50-131.50Q433-113 433-92Q433-71 437-50.50Q441-30 449-5L376 5M239-57Q277-57 306.50-73Q336-89 356-111Q357-126 359.50-145Q362-164 366-181L421-400Q416-402 402-403.50Q388-405 380-405Q329-405 287.50-385Q246-365 216-331.50Q186-298 170-254.50Q154-211 154-164Q154-141 158-121.50Q162-102 171.50-88Q181-74 197.50-65.50Q214-57 239-57Z"/><path id="s129:ubuntumono-italic:81" d="M145 0L63 0L170-447Q211-459 258-466.50Q305-474 343-474Q383-474 412-463Q441-452 459-432.50Q477-413 485.50-386Q494-359 494-327Q494-306 490-283.50Q486-261 480-238L423 0L341 0L394-220Q400-245 406-270.50Q412-296 412-320Q412-355 392-378.50Q372-402 319-402Q296-402 274.50-399.50Q253-397 239-392L145 0Z"/><path id="s129:ubuntumono-italic:79" d="M313-618L179-618L196-688L412-688L292-189Q287-169 284-150.50Q281-132 281-116Q281-87 295-73Q309-59 347-59Q373-59 398-68Q423-77 437-85L443-15Q429-7 397.50 2Q366 11 324 11Q258 11 228.50-17.50Q199-46 199-103Q199-144 212-196L313-618Z"/><path id="s129:ubuntumono-italic:74" d="M179 98Q253 98 293.50 65.50Q334 33 347-31L351-48Q333-38 300.50-28.50Q268-19 236-19Q163-19 124.50-55Q86-91 86-156Q86-216 105.50-273Q125-330 165-375Q205-420 265-447Q325-474 405-474Q417-474 434-473Q451-472 468.50-469.50Q486-467 502.50-462.50Q519-458 531-451L428-40Q416 8 399 46.50Q382 85 352.50 112Q323 139 277 153.50Q231 168 161 168Q123 168 85 158Q47 148 21 132L53 63Q73 78 107 88Q141 98 179 98M254-87Q272-87 289-91Q306-95 321.50-101Q337-107 349.50-113.50Q362-120 370-126L435-400Q426-402 412.50-403.50Q399-405 388-405Q340-405 299.50-385Q259-365 229.50-332Q200-299 184-257Q168-215 168-172Q168-124 189-105.50Q210-87 254-87Z"/><path id="s129:ubuntumono-italic:86" d="M242-58Q264-58 285.50-61.50Q307-65 324-73Q341-81 351.50-95Q362-109 362-129Q362-157 338.50-173Q315-189 273-209Q253-219 234-229Q215-239 200.50-252Q186-265 177-283.50Q168-302 168-328Q168-395 220-435Q272-475 367-475Q414-475 448.50-467Q483-459 500-450L469-380Q454-389 423.50-397Q393-405 355-405Q335-405 315.50-401.50Q296-398 281-390Q266-382 257-369Q248-356 248-336Q248-312 272.50-295.50Q297-279 334-263Q357-254 377-243Q397-232 411.50-217.50Q426-203 434-184Q442-165 442-139Q442-101 427-72.50Q412-44 385-25.50Q358-7 320.50 2.50Q283 12 238 12Q181 12 139.50-1Q98-14 79-25L112-95Q128-84 162-71Q196-58 242-58Z"/><path id="s129:ubuntumono-italic:80" d="M139-451Q202-474 254-474Q282-474 303.50-465.50Q325-457 338-440Q387-474 434-474Q457-474 475.50-465Q494-456 505.50-438Q517-420 520-393Q523-366 514-330L436 0L361 0L440-332Q449-368 439-387Q429-406 406-406Q381-406 355-381Q355-370 354-357Q353-344 349-330L313-179L238-179L275-331Q284-366 278-386Q272-406 243-406Q225-406 201-397L105 0L31 0L139-451Z"/><path id="s129:ubuntumono-italic:69" d="M248-446Q269-459 296-467Q323-475 353-475Q392-475 420.50-462.50Q449-450 467.50-428.50Q486-407 495.50-377Q505-347 505-312Q505-250 485.50-192Q466-134 426-89Q386-44 325.50-17Q265 10 184 10Q157 10 122 3.50Q87-3 63-18L221-679L307-693L248-446M332-405Q305-405 278-396Q251-387 228-370L155-67Q175-62 199-62Q250-62 291.50-82Q333-102 362-135.50Q391-169 407-212.50Q423-256 423-303Q423-323 419-341.50Q415-360 404.50-374Q394-388 376.50-396.50Q359-405 332-405Z"/><path id="s129:ubuntumono-italic:73" d="M344-395L263-18Q252 32 237.50 67.50Q223 103 201 125.50Q179 148 147.50 158Q116 168 73 168Q58 168 39 164Q20 160 9 152L28 83Q49 96 86 96Q126 96 148 65Q170 34 181-17L261-395L161-395L178-464L276-464L285-506Q304-596 352.50-644.50Q401-693 497-693Q528-693 556-687Q584-681 598-673L565-607Q557-611 540.50-616.50Q524-622 489-622Q460-622 439.50-613.50Q419-605 404.50-589.50Q390-574 381.50-552.50Q373-531 367-505L358-464L546-464L529-395L344-395Z"/><path id="s129:ubuntumono-italic:87" d="M439-13Q410-3 378.50 4Q347 11 312 11Q283 11 258.50 5Q234-1 215.50-14.50Q197-28 186.50-51Q176-74 176-109Q176-131 179.50-155Q183-179 189-204L236-395L138-395L154-464L253-464L284-594L370-608L335-464L513-464L497-395L318-395L271-196Q266-177 262-159Q258-141 258-124Q258-86 275.50-73.50Q293-61 325-61Q356-61 385.50-67.50Q415-74 441-84L439-13Z"/><path id="s129:ubuntumono-italic:76" d="M305-205Q300-185 296.50-167Q293-149 293-132Q293-104 307.50-85.50Q322-67 363-67Q380-67 396-69.50Q412-72 426-76L421-6Q414-4 395.50-0.50Q377 3 343 3Q306 3 280.50-7Q255-17 239.50-34Q224-51 217.50-74Q211-97 211-124Q211-145 214.50-167Q218-189 223-212L268-395L134-395L150-464L366-464L305-205M330-536Q304-536 287-551Q270-566 270-595Q270-630 292-650Q314-670 341-670Q367-670 384.50-654Q402-638 402-609Q402-592 395.50-579Q389-566 378.50-556Q368-546 355.50-541Q343-536 330-536Z"/><path id="s129:ubuntumono-italic:92" d="M283-75Q317-129 344.50-186.50Q372-244 393-296.50Q414-349 428.50-393Q443-437 449-464L536-464Q526-430 508-379.50Q490-329 464.50-270.50Q439-212 407-150.50Q375-89 338-34Q310 8 281.50 45Q253 82 220.50 109.50Q188 137 148.50 152.50Q109 168 60 168Q35 168 14 162Q-7 156-18 148L11 80Q19 88 34.50 92.50Q50 97 69 97Q121 97 156 76Q191 55 225 6Q192-103 167-222Q142-341 137-464L221-464Q222-424 227-376Q232-328 240.50-277Q249-226 260-174Q271-122 283-75Z"/><path id="s129:ubuntumono-italic:17" d="M240 12Q212 12 193-5Q174-22 174-55Q174-97 197.50-119Q221-141 253-141Q281-141 301-123.50Q321-106 321-71Q321-52 314-37Q307-22 295.50-11Q284 0 269.50 6Q255 12 240 12Z"/><path id="s129:ubuntumono-italic:91" d="M308-298Q329-321 350.50-345Q372-369 392-391.50Q412-414 428-432.50Q444-451 453-464L542-464Q536-456 521.50-438.50Q507-421 488-399Q469-377 447.50-352.50Q426-328 406-306Q386-284 369.50-265.50Q353-247 344-237Q373-180 400-123Q427-66 450 0L363 0Q345-49 327.50-90Q310-131 288-176L114 0L18 0L251-239L136-464L228-464L308-298Z"/><path id="s129:ubuntumono-italic:70" d="M71-166Q71-227 91.50-283Q112-339 151.50-382Q191-425 248.50-450.50Q306-476 381-476Q422-476 453-470.50Q484-465 511-454L480-384Q463-392 439.50-399Q416-406 374-406Q323-406 282-386.50Q241-367 212.50-334.50Q184-302 169-260.50Q154-219 154-174Q154-151 160-130.50Q166-110 182-94Q198-78 225.50-69Q253-60 295-60Q317-60 338-63Q359-66 377-71Q395-76 408.50-81Q422-86 429-91L436-21Q418-10 377.50 1Q337 12 280 12Q176 12 123.50-38Q71-88 71-166Z"/><path id="s129:ubuntumono-italic:41" d="M71 0L221-619L572-619L555-549L286-549L239-356L476-356L459-287L222-287L154 0L71 0Z"/><path id="s129:ubuntumono-italic:15" d="M230 8Q202 4 188-15.50Q174-35 174-59Q174-93 195.50-116Q217-139 255-139Q288-139 305.50-115.50Q323-92 323-57Q323-28 311 4Q299 36 273.50 65Q248 94 208 115.50Q168 137 113 144L105 79Q122 78 141.50 73Q161 68 178.50 59.50Q196 51 210 38.50Q224 26 230 8Z"/></defs><g id="line-0"><use x="0" y="745" xlink:href="#s129:ubuntumono-italic:55"/><use x="500" y="745" xlink:href="#s129:ubuntumono-italic:75"/><use x="1000" y="745" xlink:href="#s129:ubuntumono-italic:72"/><use x="1500" y="745" xlink:href="#s129:ubuntumono-italic:3"/><use x="2000" y="745" xlink:href="#s129:ubuntumono-italic:40"/><use x="2500" y="745" xlink:href="#s129:ubuntumono-italic:88"/><use x="3000" y="745" xlink:href="#s129:ubuntumono-italic:85"/><use x="3500" y="745" xlink:href="#s129:ubuntumono-italic:82"/><use x="4000" y="745" xlink:href="#s129:ubuntumono-italic:83"/><use x="4500" y="745" xlink:href="#s129:ubuntumono-italic:72"/><use x="5000" y="745" xlink:href="#s129:ubuntumono-italic:68"/><use x="5500" y="745" xlink:href="#s129:ubuntumono-italic:81"/><use x="6000" y="745" xlink:href="#s129:ubuntumono-italic:3"/><use x="6500" y="745" xlink:href="#s129:ubuntumono-italic:79"/><use x="7000" y="745" xlink:href="#s129:ubuntumono-italic:68"/><use x="7500" y="745" xlink:href="#s129:ubuntumono-italic:81"/><use x="8000" y="745" xlink:href="#s129:ubuntumono-italic:74"/><use x="8500" y="745" xlink:href="#s129:ubuntumono-italic:88"/><use x="9000" y="745" xlink:href="#s129:ubuntumono-italic:68"/><use x="9500" y="745" xlink:href="#s129:ubuntumono-italic:74"/><use x="10000" y="745" xlink:href="#s129:ubuntumono-italic:72"/><use x="10500" y="745" xlink:href="#s129:ubuntumono-italic:86"/><use x="11000" y="745" xlink:href="#s129:ubuntumono-italic:3"/><use x="11500" y="745" xlink:href="#s129:ubuntumono-italic:68"/><use x="12000" y="745" xlink:href="#s129:ubuntumono-italic:85"/><use x="12500" y="745" xlink:href="#s129:ubuntumono-italic:72"/><use x="13000" y="745" xlink:href="#s129:ubuntumono-italic:3"/><use x="13500" y="745" xlink:href="#s129:ubuntumono-italic:80"/><use x="14000" y="745" xlink:href="#s129:ubuntumono-italic:72"/><use x="14500" y="745" xlink:href="#s129:ubuntumono-italic:80"/><use x="15000" y="745" xlink:href="#s129:ubuntumono-italic:69"/><use x="15500" y="745" xlink:href="#s129:ubuntumono-italic:72"/><use x="16000" y="745" xlink:href="#s129:ubuntumono-italic:85"/><use x="16500" y="745" xlink:href="#s129:ubuntumono-italic:86"/><use x="17000" y="745" xlink:href="#s129:ubuntumono-italic:3"/><use x="17500" y="745" xlink:href="#s129:ubuntumono-italic:82"/><use x="18000" y="745" xlink:href="#s129:ubuntumono-italic:73"/><use x="18500" y="745" xlink:href="#s129:ubuntumono-italic:3"/><use x="19000" y="745" xlink:href="#s129:ubuntumono-italic:87"/><use x="19500" y="745" xlink:href="#s129:ubuntumono-italic:75"/><use x="20000" y="745" xlink:href="#s129:ubuntumono-italic:72"/><use x="20500" y="745" xlink:href="#s129:ubuntumono-italic:3"/><use x="21000" y="745" xlink:href="#s129:ubuntumono-italic:86"/><use x="21500" y="745" xlink:href="#s129:ubuntumono-italic:68"/><use x="22000" y="745" xlink:href="#s129:ubuntumono-italic:80"/><use x="22500" y="745" xlink:href="#s129:ubuntumono-italic:72"/><use x="23000" y="745" xlink:href="#s129:ubuntumono-italic:3"/><use x="23500" y="745" xlink:href="#s129:ubuntumono-italic:73"/><use x="24000" y="745" xlink:href="#s129:ubuntumono-italic:68"/><use x="24500" y="745" xlink:href="#s129:ubuntumono-italic:80"/><use x="25000" y="745" xlink:href="#s129:ubuntumono-italic:76"/><use x="25500" y="745" xlink:href="#s129:ubuntumono-italic:79"/><use x="26000" y="745" xlink:href="#s129:ubuntumono-italic:92"/><use x="26500" y="745" xlink:href="#s129:ubuntumono-italic:17"/></g><g id="line-1"><use x="4750" y="1945" xlink:href="#s129:ubuntumono-italic:55"/><use x="5250" y="1945" xlink:href="#s129:ubuntumono-italic:75"/><use x="5750" y="1945" xlink:href="#s129:ubuntumono-italic:72"/><use x="6250" y="1945" xlink:href="#s129:ubuntumono-italic:76"/><use x="6750" y="1945" xlink:href="#s129:ubuntumono-italic:85"/><use x="7250" y="1945" xlink:href="#s129:ubuntumono-italic:3"/><use x="7750" y="1945" xlink:href="#s129:ubuntumono-italic:86"/><use x="8250" y="1945" xlink:href="#s129:ubuntumono-italic:72"/><use x="8750" y="1945" xlink:href="#s129:ubuntumono-italic:83"/><use x="9250" y="1945" xlink:href="#s129:ubuntumono-italic:68"/><use x="9750" y="1945" xlink:href="#s129:ubuntumono-italic:85"/><use x="10250" y="1945" xlink:href="#s129:ubuntumono-italic:68"/><use x="10750" y="1945" xlink:href="#s129:ubuntumono-italic:87"/><use x="11250" y="1945" xlink:href="#s129:ubuntumono-italic:72"/><use x="11750" y="1945" xlink:href="#s129:ubuntumono-italic:3"/><use x="12250" y="1945" xlink:href="#s129:ubuntumono-italic:72"/><use x="12750" y="1945" xlink:href="#s129:ubuntumono-italic:91"/><use x="13250" y="1945" xlink:href="#s129:ubuntumono-italic:76"/><use x="13750" y="1945" xlink:href="#s129:ubuntumono-italic:86"/><use x="14250" y="1945" xlink:href="#s129:ubuntumono-italic:87"/><use x="14750" y="1945" xlink:href="#s129:ubuntumono-italic:72"/><use x="15250" y="1945" xlink:href="#s129:ubuntumono-italic:81"/><use x="15750" y="1945" xlink:href="#s129:ubuntumono-italic:70"/><use x="16250" y="1945" xlink:href="#s129:ubuntumono-italic:72"/><use x="16750" y="1945" xlink:href="#s129:ubuntumono-italic:3"/><use x="17250" y="1945" xlink:href="#s129:ubuntumono-italic:76"/><use x="17750" y="1945" xlink:href="#s129:ubuntumono-italic:86"/><use x="18250" y="1945" xlink:href="#s129:ubuntumono-italic:3"/><use x="18750" y="1945" xlink:href="#s129:ubuntumono-italic:68"/><use x="19250" y="1945" xlink:href="#s129:ubuntumono-italic:3"/><use x="19750" y="1945" xlink:href="#s129:ubuntumono-italic:80"/><use x="20250" y="1945" xlink:href="#s129:ubuntumono-italic:92"/><use x="20750" y="1945" xlink:href="#s129:ubuntumono-italic:87"/><use x="21250" y="1945" xlink:href="#s129:ubuntumono-italic:75"/><use x="21750" y="1945" xlink:href="#s129:ubuntumono-italic:17"/></g><g id="line-2"><use x="5714.5" y="3145" xlink:href="#s129:ubuntumono-italic:41"/><use x="6214.5" y="3145" xlink:href="#s129:ubuntumono-italic:82"/><use x="6714.5" y="3145" xlink:href="#s129:ubuntumono-italic:85"/><use x="7214.5" y="3145" xlink:href="#s129:ubuntumono-italic:3"/><use x="7714.5" y="3145" xlink:href="#s129:ubuntumono-italic:86"/><use x="8214.5" y="3145" xlink:href="#s129:ubuntumono-italic:70"/><use x="8714.5" y="3145" xlink:href="#s129:ubuntumono-italic:76"/><use x="9214.5" y="3145" xlink:href="#s129:ubuntumono-italic:72"/><use x="9714.5" y="3145" xlink:href="#s129:ubuntumono-italic:81"/><use x="10214.5" y="3145" xlink:href="#s129:ubuntumono-italic:70"/><use x="10714.5" y="3145" xlink:href="#s129:ubuntumono-italic:72"/><use x="11214.5" y="3145" xlink:href="#s129:ubuntumono-italic:15"/><use x="11714.5" y="3145" xlink:href="#s129:ubuntumono-italic:3"/><use x="12214.5" y="3145" xlink:href="#s129:ubuntumono-italic:80"/><use x="12714.5" y="3145" xlink:href="#s129:ubuntumono-italic:88"/><use x="13214.5" y="3145" xlink:href="#s129:ubuntumono-italic:86"/><use x="13714.5" y="3145" xlink:href="#s129:ubuntumono-italic:76"/><use x="14214.5" y="3145" xlink:href="#s129:ubuntumono-italic:70"/><use x="14714.5" y="3145" xlink:href="#s129:ubuntumono-italic:15"/><use x="15214.5" y="3145" xlink:href="#s129:ubuntumono-italic:3"/><use x="15714.5" y="3145" xlink:href="#s129:ubuntumono-italic:86"/><use x="16214.5" y="3145" xlink:href="#s129:ubuntumono-italic:83"/><use x="16714.5" y="3145" xlink:href="#s129:ubuntumono-italic:82"/><use x="17214.5" y="3145" xlink:href="#s129:ubuntumono-italic:85"/><use x="17714.5" y="3145" xlink:href="#s129:ubuntumono-italic:87"/><use x="18214.5" y="3145" xlink:href="#s129:ubuntumono-italic:15"/><use x="18714.5" y="3145" xlink:href="#s129:ubuntumono-italic:3"/><use x="19214.5" y="3145" xlink:href="#s129:ubuntumono-italic:72"/><use x="19714.5" y="3145" xlink:href="#s129:ubuntumono-italic:87"/><use x="20214.5" y="3145" xlink:href="#s129:ubuntumono-italic:70"/><use x="20714.5" y="3145" xlink:href="#s129:ubuntumono-italic:15"/></g></svg>