<svg xmlns="http://www.w3.org/2000/svg" xmlns:xlink="http://www.w3.org/1999/xlink" width="641" height="80" viewBox="0 0 26729 3315"><defs><path id="s127:ubuntumono-bold:55" d="M475-619L475-517L312-517L312 0L188 0L188-517L25-517L25-619L475-619Z"/><path id="s127:ubuntumono-bold:75" d="M63 0L63-673L186-694L186-466Q201-471 222-475.50Q243-480 259-480Q311-480 346-464.50Q381-449 402-420.50Q423-392 432-352.50Q441-313 441-265L441 0L318 0L318-249Q318-315 303-344Q288-373 246-373Q229-373 212.50-369Q196-365 186-362L186 0L63 0Z"/><path id="s127:ubuntumono-bold:72" d="M31-231Q31-293 50-340Q69-387 100-418.50Q131-450 171-466Q211-482 253-482Q357-482 411-420.50Q465-359 465-241Q465-229 464.50-216Q464-203 463-195L158-195Q158-149 196-122.50Q234-96 294-96Q331-96 364.50-104Q398-112 421-120L438-15Q406-4 370 3.50Q334 11 289 11Q229 11 181.50-4.50Q134-20 100.50-50.50Q67-81 49-126Q31-171 31-231M346-280Q346-299 341-316.50Q336-334 325-348Q314-362 297-370.50Q280-379 255-379Q231-379 213.50-371Q196-363 184.50-349Q173-335 166.50-317Q160-299 158-280L346-280Z"/><path id="s127:ubuntumono-bold:3" d=""/><path id="s127:ubuntumono-bold:40" d="M63 0L63-619L438-619L438-517L186-517L186-378L405-378L405-276L186-276L186-102L460-102L460 0L63 0Z"/><path id="s127:ubuntumono-bold:88" d="M438-16Q404-7 355.50 2Q307 11 250 11Q192 11 155-5Q118-21 96.50-50.50Q75-80 67-120Q59-160 59-208L59-470L182-470L182-224Q182-159 197.50-127.50Q213-96 258-96Q286-96 314-101L314-470L438-470L438-16Z"/><path id="s127:ubuntumono-bold:85" d="M437-345Q425-348 408.50-351Q392-354 375-356.50Q358-359 342-360Q326-361 315-361Q289-361 264-358.50Q239-356 213-349L213 0L89 0L89-439Q138-457 189.50-468Q241-479 310-479Q320-479 338.50-478Q357-477 378-474.50Q399-472 420.50-468.50Q442-465 459-459L437-345Z"/><path id="s127:ubuntumono-bold:82" d="M472-236Q472-180 456-134.50Q440-89 411-56Q382-23 341.50-5Q301 13 251 13Q201 13 160.50-5Q120-23 90.50-56Q61-89 45-134.50Q29-180 29-236Q29-291 45.50-336.50Q62-382 91.50-414.50Q121-447 162-464.50Q203-482 251-482Q300-482 340.50-464.50Q381-447 410.50-414.50Q440-382 456-336.50Q472-291 472-236M154-235Q154-172 176.50-133Q199-94 249-94Q297-94 321.50-133Q346-172 346-235Q346-298 323.50-336.50Q301-375 251-375Q203-375 178.50-336.50Q154-298 154-235Z"/><path id="s127:ubuntumono-bold:83" d="M344-231Q344-294 319-334.50Q294-375 243-375Q229-375 213-373.50Q197-372 186-371L186-113Q198-105 218-100Q238-95 258-95Q302-95 323-130.50Q344-166 344-231M469-235Q469-181 457-135.50Q445-90 422-57.50Q399-25 364-7Q329 11 283 11Q236 11 186-12L186 165L63 165L63-455Q97-466 146.50-473Q196-480 244-480Q353-480 411-414Q469-348 469-235Z"/><path id="s127:ubuntumono-bold:68" d="M251-88Q271-88 290-88.50Q309-89 323-91L323-199Q311-201 294-202.50Q277-204 263-204Q244-204 226-201.50Q208-199 194.50-193Q181-187 173-176Q165-165 165-147Q165-115 189-101.50Q213-88 251-88M240-482Q298-482 336.50-468.50Q375-455 398-430.50Q421-406 431-370.50Q441-335 441-291L441-11Q414-5 361 3Q308 11 242 11Q197 11 160.50 3Q124-5 98-23.50Q72-42 58-71.50Q44-101 44-144Q44-185 60-213Q76-241 103-258Q130-275 165-282.50Q200-290 238-290Q286-290 323-282L323-297Q323-332 301-355.50Q279-379 225-379Q190-379 157.50-374Q125-369 105-362L88-461Q111-469 153-475.50Q195-482 240-482Z"/><path id="s127:ubuntumono-bold:81" d="M63-455Q96-464 144.50-472Q193-480 250-480Q306-480 343-464.50Q380-449 401.50-420.50Q423-392 432-352.50Q441-313 441-265L441 0L318 0L318-249Q318-315 303-344Q288-373 242-373Q228-373 214.50-372Q201-371 186-369L186 0L63 0L63-455Z"/><path id="s127:ubuntumono-bold:79" d="M467-20Q464-18 453.50-13Q443-8 426-2.50Q409 3 384.50 7Q360 11 329 11Q244 11 205-39.50Q166-90 166-187L166-586L36-586L36-688L289-688L289-178Q289-130 308-113Q327-96 356-96Q393-96 418-106Q443-116 451-119L467-20Z"/><path id="s127:ubuntumono-bold:74" d="M158-250Q158-192 179-161.50Q200-131 245-131Q265-131 282.50-136Q300-141 314-149L314-375Q300-378 289-379Q278-380 266-380Q158-380 158-250M438-57Q438 58 382.50 113Q327 168 204 168Q160 168 119.50 159Q79 150 42 138L65 34Q94 45 126 54.50Q158 64 206 64Q238 64 259 56.50Q280 49 292 36Q304 23 309 5.50Q314-12 314-32L314-51Q288-41 266.50-36Q245-31 220-31Q128-31 80.50-89Q33-147 33-250Q33-366 97-423Q161-480 271-480Q348-480 438-455L438-57Z"/><path id="s127:ubuntumono-bold:86" d="M228-93Q273-93 297-99.50Q321-106 321-126Q321-139 313.50-148Q306-157 292.50-163.50Q279-170 261.50-176Q244-182 225-188Q198-196 170-206.50Q142-217 119-233Q96-249 81-273.50Q66-298 66-335Q66-365 77.50-391.50Q89-418 113.50-438.50Q138-459 176-470.50Q214-482 267-482Q313-482 352.50-475Q392-468 421-455L402-351Q385-356 349-367.50Q313-379 268-379Q221-379 204.50-367.50Q188-356 188-343Q188-332 195.50-323.50Q203-315 215.50-308Q228-301 244.50-294.50Q261-288 280-282Q307-273 336-262Q365-251 388.50-234.50Q412-218 427-192.50Q442-167 442-130Q442-101 431-75Q420-49 394.50-30Q369-11 328 0Q287 11 227 11Q166 11 123-3Q80-17 54-28L73-131Q108-117 147.50-105Q187-93 228-93Z"/><path id="s127:ubuntumono-bold:80" d="M343-475Q382-475 407-463Q432-451 446.50-427Q461-403 466-366.50Q471-330 471-281L471 0L371 0L371-287Q371-315 367.50-332Q364-349 358.50-358Q353-367 345.50-370Q338-373 330-373Q321-373 311-371.50Q301-370 293-366Q296-347 298-324Q300-301 300-273L300-179L200-179L200-287Q200-335 190.50-354Q181-373 160-373Q154-373 145.50-372Q137-371 129-369L129 0L29 0L29-452Q68-463 106-469Q144-475 173-475Q199-475 219.50-468.50Q240-462 255-447Q272-458 295-466.50Q318-475 343-475Z"/><path id="s127:ubuntumono-bold:69" d="M345-238Q345-304 323.50-339Q302-374 258-374Q238-374 218.50-368.50Q199-363 185-355L185-100Q199-97 214.50-96Q230-95 241-95Q289-95 317-127.50Q345-160 345-238M470-235Q470-179 455-133.50Q440-88 411-56Q382-24 340-6.50Q298 11 244 11Q196 11 146 4Q96-3 62-14L62-673L185-694L185-459Q211-471 235-475.50Q259-480 283-480Q329-480 364-462.50Q399-445 422.50-412.50Q446-380 458-335Q470-290 470-235Z"/><path id="s127:ubuntumono-bold:73" d="M139 0L139-368L36-368L36-470L139-470L139-497Q139-554 155.50-591.50Q172-629 200-651.50Q228-674 264-683.50Q300-693 338-693Q377-693 418-686Q459-679 492-663L471-563Q448-571 413.50-579.50Q379-588 348-588Q331-588 315.50-585Q300-582 288.50-572Q277-562 270-543.50Q263-525 263-495L263-470L456-470L456-368L263-368L263 0L139 0Z"/><path id="s127:ubuntumono-bold:87" d="M143-368L36-368L36-470L143-470L143-588L266-608L266-470L463-470L463-368L266-368L266-178Q266-152 271-136Q276-120 285-111Q294-102 307-99Q320-96 336-96Q353-96 367.50-97Q382-98 395.50-100.50Q409-103 423.50-108Q438-113 455-121L472-15Q438-1 398.50 5Q359 11 322 11Q279 11 246 4Q213-3 190-23Q167-43 155-79.50Q143-116 143-175L143-368Z"/><path id="s127:ubuntumono-bold:76" d="M284-605Q284-569 261-548Q238-527 206-527Q174-527 151.50-548Q129-569 129-605Q129-642 151.50-663Q174-684 206-684Q238-684 261-663Q284-642 284-605M467-20Q429-2 395.50 4.50Q362 11 334 11Q286 11 253.50-3Q221-17 201.50-43.50Q182-70 174-108Q166-146 166-195L166-368L36-368L36-470L289-470L289-179Q289-137 304.50-116.50Q320-96 356-96Q373-96 397-100.50Q421-105 451-119L467-20Z"/><path id="s127:ubuntumono-bold:92" d="M472-470Q453-404 435.50-340.50Q418-277 399-216.50Q380-156 358.50-98Q337-40 312 15Q293 55 274.50 84Q256 113 233.50 131.50Q211 150 183.50 159Q156 168 119 168Q88 168 62.50 163Q37 158 20 150L43 47Q63 56 78.50 59.50Q94 63 112 63Q148 63 170 39Q192 15 205-18Q161-106 117-219.50Q73-333 37-470L165-470Q174-433 185.50-391Q197-349 210-307Q223-265 237.50-224.50Q252-184 267-149Q277-184 288-224.50Q299-265 309-306.50Q319-348 328.50-390Q338-432 346-470L472-470Z"/><path id="s127:ubuntumono-bold:17" d="M340-79Q340-35 313-12Q286 11 251 11Q233 11 217 5Q201-1 188.50-12.50Q176-24 168.50-40.50Q161-57 161-79Q161-100 168.50-116.50Q176-133 188.50-144Q201-155 217-161Q233-167 251-167Q286-167 313-144Q340-121 340-79Z"/><path id="s127:ubuntumono-bold:91" d="M254-323L350-470L475-470L323-244Q347-215 370-182.50Q393-150 414-117Q435-84 452-54Q469-24 481 0L353 0Q326-51 299-91Q272-131 248-163Q218-123 194-85Q170-47 145 0L20 0Q35-28 54.50-58.50Q74-89 95.50-120.50Q117-152 140.50-183Q164-214 186-242L21-470L150-470L254-323Z"/><path id="s127:ubuntumono-bold:70" d="M44-235Q44-286 60-331Q76-376 109-409.50Q142-443 192.50-462.50Q243-482 313-482Q355-482 389-476Q423-470 458-456L431-357Q411-364 386.50-369.50Q362-375 324-375Q280-375 250.50-364.50Q221-354 203-335.50Q185-317 177-291Q169-265 169-235Q169-170 205.50-133Q242-96 330-96Q359-96 390.50-100Q422-104 448-113L466-12Q440-2 403 4.50Q366 11 316 11Q244 11 192.50-8Q141-27 108-60Q75-93 59.50-138Q44-183 44-235Z"/><path id="s127:ubuntumono-bold:41" d="M63 0L63-619L442-619L442-517L186-517L186-367L410-367L410-265L186-265L186 0L63 0Z"/><path id="s127:ubuntumono-bold:15" d="M126 73Q144 69 162.50 66Q181 63 197.50 57Q214 51 227 40Q240 29 248 10Q210 6 189-20Q168-46 168-78Q168-117 193.50-142Q219-167 258-167Q300-167 323.50-139Q347-111 347-63Q347-28 336 7Q325 42 300.50 72Q276 102 237 124Q198 146 142 153L126 73Z"/></defs><g id="line-0"><use x="0" y="745" xlink:href="#s127:ubuntumono-bold:55"/><use x="500" y="745" xlink:href="#s127:ubuntumono-bold:75"/><use x="1000" y="745" xlink:href="#s127:ubuntumono-bold:72"/><use x="1500" y="745" xlink:href="#s127:ubuntumono-bold:3"/><use x="2000" y="745" xlink:href="#s127:ubuntumono-bold:40"/><use x="2500" y="745" xlink:href="#s127:ubuntumono-bold:88"/><use x="3000" y="745" xlink:href="#s127:ubuntumono-bold:85"/><use x="3500" y="745" xlink:href="#s127:ubuntumono-bold:82"/><use x="4000" y="745" xlink:href="#s127:ubuntumono-bold:83"/><use x="4500" y="745" xlink:href="#s127:ubuntumono-bold:72"/><use x="5000" y="745" xlink:href="#s127:ubuntumono-bold:68"/><use x="5500" y="745" xlink:href="#s127:ubuntumono-bold:81"/><use x="6000" y="745" xlink:href="#s127:ubuntumono-bold:3"/><use x="6500" y="745" xlink:href="#s127:ubuntumono-bold:79"/><use x="7000" y="745" xlink:href="#s127:ubuntumono-bold:68"/><use x="7500" y="745" xlink:href="#s127:ubuntumono-bold:81"/><use x="8000" y="745" xlink:href="#s127:ubuntumono-bold:74"/><use x="8500" y="745" xlink:href="#s127:ubuntumono-bold:88"/><use x="9000" y="745" xlink:href="#s127:ubuntumono-bold:68"/><use x="9500" y="745" xlink:href="#s127:ubuntumono-bold:74"/><use x="10000" y="745" xlink:href="#s127:ubuntumono-bold:72"/><use x="10500" y="745" xlink:href="#s127:ubuntumono-bold:86"/><use x="11000" y="745" xlink:href="#s127:ubuntumono-bold:3"/><use x="11500" y="745" xlink:href="#s127:ubuntumono-bold:68"/><use x="12000" y="745" xlink:href="#s127:ubuntumono-bold:85"/><use x="12500" y="745" xlink:href="#s127:ubuntumono-bold:72"/><use x="13000" y="745" xlink:href="#s127:ubuntumono-bold:3"/><use x="13500" y="745" xlink:href="#s127:ubuntumono-bold:80"/><use x="14000" y="745" xlink:href="#s127:ubuntumono-bold:72"/><use x="14500" y="745" xlink:href="#s127:ubuntumono-bold:80"/><use x="15000" y="745" xlink:href="#s127:ubuntumono-bold:69"/><use x="15500" y="745" xlink:href="#s127:ubuntumono-bold:72"/><use x="16000" y="745" xlink:href="#s127:ubuntumono-bold:85"/><use x="16500" y="745" xlink:href="#s127:ubuntumono-bold:86"/><use x="17000" y="745" xlink:href="#s127:ubuntumono-bold:3"/><use x="17500" y="745" xlink:href="#s127:ubuntumono-bold:82"/><use x="18000" y="745" xlink:href="#s127:ubuntumono-bold:73"/><use x="18500" y="745" xlink:href="#s127:ubuntumono-bold:3"/><use x="19000" y="745" xlink:href="#s127:ubuntumono-bold:87"/><use x="19500" y="745" xlink:href="#s127:ubuntumono-bold:75"/><use x="20000" y="745" xlink:href="#s127:ubuntumono-bold:72"/><use x="20500" y="745" xlink:href="#s127:ubuntumono-bold:3"/><use x="21000" y="745" xlink:href="#s127:ubuntumono-bold:86"/><use x="21500" y="745" xlink:href="#s127:ubuntumono-bold:68"/><use x="22000" y="745" xlink:href="#s127:ubuntumono-bold:80"/><use x="22500" y="745" xlink:href="#s127:ubuntumono-bold:72"/><use x="23000" y="745" xlink:href="#s127:ubuntumono-bold:3"/><use x="23500" y="745" xlink:href="#s127:ubuntumono-bold:73"/><use x="24000" y="745" xlink:href="#s127:ubuntumono-bold:68"/><use x="24500" y="745" xlink:href="#s127:ubuntumono-bold:80"/><use x="25000" y="745" xlink:href="#s127:ubuntumono-bold:76"/><use x="25500" y="745" xlink:href="#s127:ubuntumono-bold:79"/><use x="26000" y="745" xlink:href="#s127:ubuntumono-bold:92"/><use x="26500" y="745" xlink:href="#s127:ubuntumono-bold:17"/></g><g id="line-1"><use x="4750" y="1945" xlink:href="#s127:ubuntumono-bold:55"/><use x="5250" y="1945" xlink:href="#s127:ubuntumono-bold:75"/><use x="5750" y="1945" xlink:href="#s127:ubuntumono-bold:72"/><use x="6250" y="1945" xlink:href="#s127:ubuntumono-bold:76"/><use x="6750" y="1945" xlink:href="#s127:ubuntumono-bold:85"/><use x="7250" y="1945" xlink:href="#s127:ubuntumono-bold:3"/><use x="7750" y="1945" xlink:href="#s127:ubuntumono-bold:86"/><use x="8250" y="1945" xlink:href="#s127:ubuntumono-bold:72"/><use x="8750" y="1945" xlink:href="#s127:ubuntumono-bold:83"/><use x="9250" y="1945" xlink:href="#s127:ubuntumono-bold:68"/><use x="9750" y="1945" xlink:href="#s127:ubuntumono-bold:85"/><use x="10250" y="1945" xlink:href="#s127:ubuntumono-bold:68"/><use x="10750" y="1945" xlink:href="#s127:ubuntumono-bold:87"/><use x="11250" y="1945" xlink:href="#s127:ubuntumono-bold:72"/><use x="11750" y="1945" xlink:href="#s127:ubuntumono-bold:3"/><use x="12250" y="1945" xlink:href="#s127:ubuntumono-bold:72"/><use x="12750" y="1945" xlink:href="#s127:ubuntumono-bold:91"/><use x="13250" y="1945" xlink:href="#s127:ubuntumono-bold:76"/><use x="13750" y="1945" xlink:href="#s127:ubuntumono-bold:86"/><use x="14250" y="1945" xlink:href="#s127:ubuntumono-bold:87"/><use x="14750" y="1945" xlink:href="#s127:ubuntumono-bold:72"/><use x="15250" y="1945" xlink:href="#s127:ubuntumono-bold:81"/><use x="15750" y="1945" xlink:href="#s127:ubuntumono-bold:70"/><use x="16250" y="1945" xlink:href="#s127:ubuntumono-bold:72"/><use x="16750" y="1945" xlink:href="#s127:ubuntumono-bold:3"/><use x="17250" y="1945" xlink:href="#s127:ubuntumono-bold:76"/><use x="17750" y="1945" xlink:href="#s127:ubuntumono-bold:86"/><use x="18250" y="1945" xlink:href="#s127:ubuntumono-bold:3"/><use x="18750" y="1945" xlink:href="#s127:ubuntumono-bold:68"/><use x="19250" y="1945" xlink:href="#s127:ubuntumono-bold:3"/><use x="19750" y="1945" xlink:href="#s127:ubuntumono-bold:80"/><use x="20250" y="1945" xlink:href="#s127:ubuntumono-bold:92"/><use x="20750" y="1945" xlink:href="#s127:ubuntumono-bold:87"/><use x="21250" y="1945" xlink:href="#s127:ubuntumono-bold:75"/><use x="21750" y="1945" xlink:href="#s127:ubuntumono-bold:17"/></g><g id="line-2"><use x="5729" y="3145" xlink:href="#s127:ubuntumono-bold:41"/><use x="6229" y="3145" xlink:href="#s127:ubuntumono-bold:82"/><use x="6729" y="3145" xlink:href="#s127:ubuntumono-bold:85"/><use x="7229" y="3145" xlink:href="#s127:ubuntumono-bold:3"/><use x="7729" y="3145" xlink:href="#s127:ubuntumono-bold:86"/><use x="8229" y="3145" xlink:href="#s127:ubuntumono-bold:70"/><use x="8729" y="3145" xlink:href="#s127:ubuntumono-bold:76"/><use x="9229" y="3145" xlink:href="#s127:ubuntumono-bold:72"/><use x="9729" y="3145" xlink:href="#s127:ubuntumono-bold:81"/><use x="10229" y="3145" xlink:href="#s127:ubuntumono-bold:70"/><use x="10729" y="3145" xlink:href="#s127:ubuntumono-bold:72"/><use x="11229" y="3145" xlink:href="#s127:ubuntumono-bold:15"/><use x="11729" y="3145" xlink:href="#s127:ubuntumono-bold:3"/><use x="12229" y="3145" xlink:href="#s127:ubuntumono-bold:80"/><use x="12729" y="3145" xlink:href="#s127:ubuntumono-bold:88"/><use x="13229" y="3145" xlink:href="#s127:ubuntumono-bold:86"/><use x="13729" y="3145" xlink:href="#s127:ubuntumono-bold:76"/><use x="14229" y="3145" xlink:href="#s127:ubuntumono-bold:70"/><use x="14729" y="3145" xlink:href="#s127:ubuntumono-bold:15"/><use x="15229" y="3145" xlink:href="#s127:ubuntumono-bold:3"/><use x="15729" y="3145" xlink:href="#s127:ubuntumono-bold:86"/><use x="16229" y="3145" xlink:href="#s127:ubuntumono-bold:83"/><use x="16729" y="3145" xlink:href="#s127:ubuntumono-bold:82"/><use x="17229" y="3145" xlink:href="#s127:ubuntumono-bold:85"/><use x="17729" y="3145" xlink:href="#s127:ubuntumono-bold:87"/><use x="18229" y="3145" xlink:href="#s127:ubuntumono-bold:15"/><use x="18729" y="3145" xlink:href="#s127:ubuntumono-bold:3"/><use x="19229" y="3145" xlink:href="#s127:ubuntumono-bold:72"/><use x="19729" y="3145" xlink:href="#s127:ubuntumono-bold:87"/><use x="20229" y="3145" xlink:href="#s127:ubuntumono-bold:70"/><use x="20729" y="3145" xlink:href="#s127:ubuntumono-bold:15"/></g></svg>