<svg xmlns="http://www.w3.org/2000/svg" xmlns:xlink="http://www.w3.org/1999/xlink" width="464" height="85" viewBox="0 0 39552 7213.7"><defs><path id="s111:yellowtail-regular:55" d="M533-318L528-297Q528-291 533.50-286Q539-281 547-281Q555-281 560-289Q709-487 807-637.50Q905-788 950.50-859Q996-930 1023-972Q1095-1082 1166-1169Q896-1101 743-1101Q590-1101 523-1120.50Q456-1140 435-1164.50Q414-1189 414-1214.50Q414-1240 416-1264Q420-1314 476.50-1346Q533-1378 570-1378Q607-1378 607-1367Q607-1356 590.50-1337.50Q574-1319 574-1312Q574-1280 805-1280Q1036-1280 1336-1341Q1508-1481 1633-1481Q1716-1481 1743-1434Q1761-1406 1761-1378Q1761-1350 1728.50-1322Q1696-1294 1641-1274Q1541-1238 1405-1217Q1348-1144 1243.50-990Q1139-836 1101-782Q1063-728 978.50-590Q894-452 832-351.50Q770-251 700-153Q557 49 445 49Q398 49 364 24Q330-1 330-57.50Q330-114 392.50-198.50Q455-283 484-307Q513-331 523-331Q533-331 533-318Z"/><path id="s111:yellowtail-regular:75" d="M942-295Q949-249 949-222.50Q949-196 939.50-176.50Q930-157 897.50-121.50Q865-86 820-50Q710 37 595 37Q430 37 430-109Q430-236 651-615Q659-629 662-635Q585-581 367.50-340.50Q150-100 78 0Q72 9 48 20Q24 31 10.50 31Q-3 31-18.50 22.50Q-34 14-38 14Q-51 14-51 5.50Q-51-3-15.50-86.50Q20-170 78-294Q237-636 551-1184Q661-1376 723-1456Q767-1513 871-1513Q893-1513 896-1500Q899-1487 899-1472Q899-1457 893-1442L786-1275Q468-779 307-453Q463-643 610-746Q701-811 746.50-811Q792-811 829-796.50Q866-782 866-727Q866-707 801-579Q606-195 606-152.50Q606-110 641-110Q692-110 798-209Q878-284 899-305Q911-314 921-314Q940-314 942-295Z"/><path id="s111:yellowtail-regular:72" d="M750-748Q750-682 696.50-632Q643-582 575-582Q553-582 546-592.50Q539-603 539-620Q539-637 543-653Q507-641 463-616Q419-591 355-542Q291-493 291-469Q291-461 314.50-461Q338-461 387-477.50Q436-494 455.50-494Q475-494 481-492Q494-485 509-461.50Q524-438 524-424.50Q524-411 498-389Q472-367 439-355.50Q406-344 395-338Q184-220 184-176Q184-98 317-98Q402-98 488-152Q561-198 619.50-245.50Q678-293 693.50-304Q709-315 717-315Q743-315 743-257Q743-199 736-180.50Q729-162 696-135Q482 39 291 39Q189 39 128 11Q16-40 16-145Q16-283 207-354Q169-371 158-397.50Q147-424 147-482.50Q147-541 201.50-606.50Q256-672 335-714Q511-809 649-809Q682-809 716-793Q750-777 750-748Z"/><path id="s111:yellowtail-regular:3" d=""/><path id="s111:yellowtail-regular:40" d="M577-978Q577-913 804-913Q860-913 887-925Q958-959 1061.50-959Q1165-959 1165-906Q1165-885 1147.50-844.50Q1130-804 1121.50-795Q1113-786 1057-770.50Q1001-755 984.50-753.50Q968-752 962.50-751Q957-750 949.50-749Q942-748 916-743.50Q890-739 878-744Q547-581 423-386Q367-298 367-235Q367-136 504-136Q611-136 776-220Q941-304 1068.50-423.50Q1196-543 1196-631Q1196-659 1238-659Q1335-659 1335-544Q1335-490 1288-415.50Q1241-341 1157-264.50Q1073-188 970-122Q867-56 741.50-14Q616 28 529 28Q442 28 388.50 11.50Q335-5 288-38Q186-109 186-253Q186-331 228-411.50Q270-492 338-558Q463-682 606-764Q400-811 400-976Q400-1162 686-1316Q845-1401 1031-1438Q1119-1456 1178-1456Q1298-1456 1359-1437Q1396-1419 1419-1386.50Q1442-1354 1442-1330.50Q1442-1307 1436-1288Q1430-1269 1416-1258Q1396-1243 1371-1235Q1346-1227 1342-1225Q1264-1192 1208-1192Q1108-1192 1099-1218Q1101-1244 1121-1278Q1026-1274 924-1239.50Q822-1205 747.50-1158.50Q673-1112 625-1062Q577-1012 577-978Z"/><path id="s111:yellowtail-regular:88" d="M909-314Q928-314 932-285Q936-256 936-225Q936-194 930-182Q901-126 803-45.50Q705 35 617 35Q563 35 517 2.50Q471-30 471-111Q471-192 514-270Q266 41 125 41Q69 41 34.50 1Q0-39 0-81.50Q0-124 12-169.50Q24-215 37.50-251Q51-287 77.50-340Q104-393 117-417Q130-441 158.50-489.50Q187-538 233.50-620Q280-702 310.50-741.50Q341-781 370-781.50Q399-782 421-758Q443-734 443-719Q443-704 376-584Q178-226 178-167Q178-152 189-152Q237-152 428-360Q619-568 649-626.50Q679-685 707.50-725Q736-765 750-774Q793-802 861-804Q872-804 878-803Q884-802 892-786Q900-770 900-761Q891-733 820.50-612Q750-491 742-475Q624-231 624-157Q624-115 656-115Q714-123 796-208Q826-239 855.50-271Q885-303 892-308.50Q899-314 909-314Z"/><path id="s111:yellowtail-regular:85" d="M389-545Q625-813 791-813Q832-813 858.50-788.50Q885-764 885-725Q885-686 829.50-594.50Q774-503 727-440Q702-408 670.50-408Q639-408 621.50-431Q604-454 604-485Q604-554 678-641L676-643Q643-640 512.50-513Q382-386 290.50-285.50Q199-185 92-41Q61 2 39.50 2Q18 2-17.50-11.50Q-53-25-60.50-31Q-68-37-68-51Q-68-65-60-83.50Q-52-102-30.50-136Q-9-170 34.50-246Q78-322 170-476Q262-630 280-662Q318-728 342-758Q387-815 494-815Q518-815 518-785Q518-738 431-608L389-545Z"/><path id="s111:yellowtail-regular:82" d="M741-762Q741-762 756-762Q771-762 802.50-735Q834-708 834-652.50Q834-597 795-508.50Q756-420 688-328.50Q620-237 538.50-156.50Q457-76 362.50-24.50Q268 27 191 27Q114 27 67.50-21.50Q21-70 21-156.50Q21-243 63.50-348Q106-453 173-533.50Q240-614 318-678Q481-809 604-809Q659-809 687-782Q697-773 697-766L697-760Q711-762 741-762M640-629L633-629Q598-629 598-680Q525-656 445-596Q365-536 302-454Q174-290 172-177Q172-121 213-121Q254-121 335-175Q416-229 495.50-329Q575-429 614.50-502.50Q654-576 654-602.50Q654-629 640-629Z"/><path id="s111:yellowtail-regular:83" d="M618-1064L636-1066Q651-1066 660-1040Q669-1014 669-1005Q669-996 649-971L364-537Q514-687 669-756Q729-782 777.50-782Q826-782 855.50-750.50Q885-719 885-672Q885-625 859-556Q833-487 788.50-409Q744-331 680.50-252Q617-173 547.50-109Q478-45 396-5Q314 35 252 35Q127 35 127-80Q10 99-143 344Q-296 589-307 603Q-318 617-325.50 617Q-333 617-348.50 608Q-364 599-381 578Q-398 557-398.50 517Q-399 477-375 436Q-240 211 145.50-410.50Q531-1032 563-1053Q581-1065 599-1065L618-1064M706-604Q706-625 686-625Q632-625 457.50-459Q283-293 180-156Q206-124 257-124Q308-124 389-179Q470-234 539-309.50Q608-385 657-468Q706-551 706-604Z"/><path id="s111:yellowtail-regular:68" d="M825-760Q901-760 901-708Q901-680 888-667Q875-654 832.50-580.50Q790-507 738.50-392.50Q687-278 672-197Q669-187 669-169Q669-114 699-114Q729-114 770-142.50Q811-171 843-203.50Q875-236 905.50-270Q936-304 942-309Q948-314 960-314Q979-314 983-285Q987-256 987-225Q987-194 981-182Q952-125 853.50-45Q755 35 674.50 35Q594 35 556-14Q518-63 518-122.50Q518-182 538-227Q455-119 347.50-44Q240 31 172 31Q104 31 61-10Q6-61 6-151.50Q6-242 46.50-333.50Q87-425 153-500.50Q219-576 298-638Q464-768 604-768Q658-768 692-750Q726-732 735-705Q759-741 775.50-750.50Q792-760 825-760M692-649Q521-649 338-459Q273-391 218.50-296Q164-201 164-166Q164-131 184-131Q212-131 340-241.50Q468-352 510-404Q556-462 692-649Z"/><path id="s111:yellowtail-regular:81" d="M584-154Q584-110 644-110Q676-110 724.50-142Q773-174 812-212Q916-315 930-315Q956-315 956-240Q956-165 909-137Q766-8 688 20Q644 35 591 34Q538 33 486-12Q434-57 434-121.50Q434-186 468-268Q502-350 537.50-408.50Q573-467 625-544.50Q677-622 680-641L678-643Q645-640 514.50-513Q384-386 299-292Q214-198 96-41Q63 2 42 2Q21 2-14.50-11.50Q-50-25-58-31Q-66-37-66-49Q-66-61-59-78.50Q-52-96-45.50-107.50Q-39-119-24-143Q-9-167 35.50-244.50Q80-322 172-476Q264-630 282-662Q320-728 344-758Q389-815 496-815Q520-815 520-785Q520-738 433-608L391-545Q564-737 683-788Q741-813 787.50-813Q834-813 861.50-788Q889-763 889-732.50Q889-702 868-659.50Q847-617 825.50-583.50Q804-550 769-499Q734-448 731-443.50Q728-439 715.50-419.50Q703-400 697-391Q691-382 677-359.50Q663-337 654.50-322Q646-307 633.50-285Q621-263 613.50-247Q606-231 598-212Q584-177 584-154Z"/><path id="s111:yellowtail-regular:79" d="M891-1501Q939-1501 975.50-1472.50Q1012-1444 1012-1388Q1012-1332 950-1212.50Q888-1093 801-968.50Q714-844 604-704Q430-482 270-305Q269-293 261.50-260.50Q254-228 254-195Q254-162 284.50-135.50Q315-109 360-109Q405-109 456.50-141Q508-173 546-212Q646-315 670-315Q694-315 694-242L694-222Q694-183 680-165Q596-62 491-11.50Q386 39 292 39Q198 39 149-18.50Q100-76 100-176Q100-371 204.50-634.50Q309-898 440-1083Q735-1501 891-1501M846-1335Q846-1350 836-1350Q801-1350 652-1150Q503-950 436.50-831Q370-712 311-532Q429-672 637.50-968.50Q846-1265 846-1335Z"/><path id="s111:yellowtail-regular:74" d="M373.50-664.50Q373.50-664.50 421.75-697.75Q470-731 563-767Q656-803 724-803Q792-803 811-764Q850-809 908-812Q925-813 950-813Q975-813 981-806.50Q987-800 992-782Q997-764 998-762Q999-760 999-755.50Q999-751 994-744.50Q989-738 982.50-732Q976-726 975-725Q754-408 523-2Q761-213 949-305Q961-311 972-311Q988-311 993-290.50Q998-270 998-232Q998-194 993.50-185Q989-176 947-149Q905-122 838-79Q771-36 696 16Q516 141 400 279Q250 460 185 571Q161 614 104 614Q-9 614-9 507Q-9 398 98 284Q178 199 245 145Q312 91 318 84Q392-27 519-231Q411-118 309.50-51Q208 16 158 16Q5 16 5-115Q5-219 58-325Q111-431 194-514.50Q277-598 373.50-664.50M754-690Q638-665 536-607.50Q434-550 368-484.50Q302-419 254-350Q164-221 164-150Q164-133 172.50-133Q181-133 210.50-151Q240-169 294-212.50Q348-256 414-316Q567-457 754-690Z"/><path id="s111:yellowtail-regular:86" d="M172-200L171-184Q171-159 190-141Q209-123 225-123Q345-123 437.50-159Q530-195 530-231Q530-248 496.50-260.50Q463-273 383.50-291.50Q304-310 268-320.50Q232-331 211-340Q190-349 168-365Q121-398 121-463.50Q121-529 169.50-593.50Q218-658 291-704Q364-750 448-785Q614-854 727-854Q838-854 864-806Q872-789 872-768L872-761Q872-708 849.50-678Q827-648 778.50-624Q730-600 701.50-600Q673-600 665.50-604Q658-608 653-614.50Q648-621 640.50-624Q633-627 633-639Q633-651 643-663.50Q653-676 657-690Q591-687 519-659.50Q447-632 395.50-598Q344-564 310-533Q276-502 276-487.50Q276-473 322-464Q529-423 594-393Q659-363 684-325Q709-287 709-256Q709-192 658-135Q607-78 532-42Q371 37 251.50 37Q132 37 86.50 0.50Q41-36 41-86Q41-136 66.50-178.50Q92-221 132-221Q172-221 172-200Z"/><path id="s111:yellowtail-regular:80" d="M62 6L13 4L-5 4Q-15 1-26.50-8Q-38-17-44-21Q-50-25-50-35.50Q-50-46-42-72Q153-501 335-758Q355-786 399.50-800.50Q444-815 486-815Q511-815 511-776Q511-765 503-746.50Q495-728 463-686Q431-644 387-590Q343-536 337-528Q474-670 584.50-739.50Q695-809 744.50-809Q794-809 820.50-780.50Q847-752 847-719.50Q847-687 842.50-665.50Q838-644 826-620.50Q814-597 805.50-580.50Q797-564 777-537.50Q757-511 749.50-501Q742-491 718.50-463Q695-435 693-432Q721-460 771-515Q821-570 855.50-607Q890-644 942-690.50Q994-737 1039-766Q1147-834 1258-834Q1296-834 1322-810Q1348-786 1348-752.50Q1348-719 1267-592.50Q1186-466 1105.50-338.50Q1025-211 1025-178Q1025-132 1042-123.50Q1059-115 1083-117Q1107-119 1150.50-148Q1194-177 1228-208Q1283-258 1330-305Q1340-314 1352-314Q1371-314 1375-285Q1379-256 1379-225Q1379-194 1373-182Q1344-126 1245-45Q1146 36 1055 36Q1044 36 1039 35Q936 25 896.50-21.50Q857-68 857-132Q857-196 900.50-287Q944-378 996-452Q1048-526 1091.50-585.50Q1135-645 1135-650Q1135-655 1127-655Q1096-655 989-555Q806-384 673-225Q638-183 507-12Q492 8 459.50 8Q427 8 392-4.50Q357-17 357-37Q357-47 516-317.50Q675-588 675-612.50Q675-637 645.50-637Q616-637 524-549Q271-307 132-68Q123-54 97-24Q71 6 62 6Z"/><path id="s111:yellowtail-regular:69" d="M885-1427Q674-1110 474-764Q520-788 577.50-798.50Q635-809 658.50-809Q682-809 699-807.50Q716-806 742.50-796.50Q769-787 788-770Q834-729 834-654Q834-579 793.50-489.50Q753-400 683.50-310Q614-220 531.50-142.50Q449-65 354-16Q259 33 177 33Q139 33 89.50-16Q40-65 40-145Q40-225 109-393Q178-561 276.50-734.50Q375-908 477.50-1073Q580-1238 652-1343Q724-1448 740-1464Q756-1480 798.50-1491Q841-1502 872-1501.50Q903-1501 903-1473Q903-1455 885-1427M615-467Q656-539 656-598Q656-657 618.50-657Q581-657 503.50-624.50Q426-592 415-592Q404-592 386-610Q191-259 191-162Q191-117 220-117Q289-117 419-232.50Q549-348 615-467Z"/><path id="s111:yellowtail-regular:73" d="M6-322L-2-350Q-2-358 6-363.50Q14-369 26.50-386Q39-403 44.50-408Q50-413 60.50-422.50Q71-432 78-438Q98-455 106-457.50Q114-460 134-466Q196-486 239-494Q494-920 648.50-1160.50Q803-1401 824.50-1426.50Q846-1452 901-1472Q956-1492 981.50-1491.50Q1007-1491 1007-1469Q1007-1460 1000.50-1445Q994-1430 891-1268Q510-671 403-494L428-485Q660-528 669.50-528Q679-528 717.50-514.50Q756-501 768-499Q791-495 791-461.50Q791-428 770-424Q753-421 688.50-404.50Q624-388 585-379Q638-316 638-245Q638-174 575-57.50Q512 59 414 173Q316 287 208.50 388Q101 489 2 551.50Q-97 614-144.50 614Q-192 614-229.50 588.50Q-267 563-267 513Q-267 463-246.50 396.50Q-226 330-202 274.50Q-178 219-120 115Q-58 3 104-268Q76-263 61-263Q46-263 33-270Q20-277 15-288Q6-308 6-322M287.50 109Q287.50 109 324.75 65.50Q362 22 413-73.50Q464-169 464-229.50Q464-290 405-336L294-311Q277-283 241.50-222.50Q206-162 183.50-124Q161-86 126-26Q91 34 67.50 75Q44 116 15.50 167.50Q-13 219-31.50 255.50Q-50 292-67 328Q-100 398-100 419Q-100 440-89 440Q-69 440-6.50 394.50Q56 349 134.50 272.50Q213 196 287.50 109Z"/><path id="s111:yellowtail-regular:87" d="M750-1288L791-1278Q800-1278 807-1269Q814-1260 814-1252Q814-1244 793-1209Q772-1174 743.50-1129.50Q715-1085 713-1081Q791-1087 823.50-1087Q856-1087 868-1082.50Q880-1078 895.50-1057.50Q911-1037 924-1026.50Q937-1016 937-995Q937-974 911.50-959.50Q886-945 857-942Q625-919 601-918Q520-794 374.50-531.50Q229-269 220-203Q216-173 216-154Q216-115 257-115Q298-115 348-146.50Q398-178 440-215Q552-315 560-315Q586-315 586-225Q586-176 541-137Q440-50 371-6Q302 38 233 38Q218 38 205 35Q125 20 87.50-23.50Q50-67 50.50-141Q51-215 94.50-320.50Q138-426 204-545Q312-739 420-909L382-904Q266-891 247-891L238-891Q209-891 182-902.50Q155-914 155-931Q155-948 169.50-964Q184-980 187-989Q194-1011 239.50-1038Q285-1065 308-1066.50Q331-1068 352.50-1069Q374-1070 400.50-1071Q427-1072 441-1073L531-1077Q615-1203 646.50-1239Q678-1275 683-1278.50Q688-1282 703-1282L750-1288Z"/><path id="s111:yellowtail-regular:76" d="M713-1098Q713-1041 660-983.50Q607-926 549.50-926Q492-926 492-986Q492-1046 542.50-1100.50Q593-1155 654-1155Q681-1155 697-1140Q713-1125 713-1098M551-225Q551-195 545-182Q496-82 389-20.50Q282 41 203 41Q124 41 67-12Q10-65 10-120Q10-175 65-280Q120-385 175-474Q230-563 230-570.50Q230-578 209.50-600Q189-622 189-632.50Q189-643 230.50-687.50Q272-732 331.50-775.50Q391-819 422.50-819Q454-819 479-791Q504-763 504-740Q504-717 266-307Q263-301 249.50-280.50Q236-260 228.50-246.50Q221-233 211-214Q191-174 191-147Q191-113 237-113Q283-113 332.50-144.50Q382-176 418-214Q512-315 525-315Q551-315 551-225Z"/><path id="s111:yellowtail-regular:92" d="M365 332Q360 337 334.50 382.50Q309 428 280 474.50Q251 521 208.50 563Q166 605 137.50 608.50Q109 612 101 612Q9 612 9 519Q9 410 122 264Q165 209 230 145.50Q295 82 301 73.50Q307 65 451-207Q355-102 273-36.50Q191 29 115 37L108 37Q69 37 31 11.50Q-7-14-7-78Q-7-173 44-262Q62-293 106.50-367Q151-441 189-510Q225-565 263-638Q301-711 321-742.50Q341-774 359-774Q377-774 405.50-751.50Q434-729 434-698Q434-667 303-429Q172-191 172-158Q172-150 180-150Q207-150 299.50-226.50Q392-303 504-423Q629-556 700-666Q709-680 714.50-687.50Q720-695 728.50-707.50Q737-720 742.50-727Q748-734 755.50-743.50Q763-753 769-758Q775-763 782-768Q793-778 806.50-778Q820-778 847.50-772Q875-766 880.50-759Q886-752 892-746Q902-735 902-725.50Q902-716 894-700.50Q886-685 801-542Q551-120 457 74Q609-54 885-305Q896-314 907-314Q938-314 938-219Q938-191 928-182Q629 48 365 332Z"/><path id="s111:yellowtail-regular:17" d="M150-10Q150-71 198-118.50Q246-166 292-166Q375-166 375-98Q375-42 328 10.50Q281 63 222 63Q150 63 150-10Z"/><path id="s111:yellowtail-regular:91" d="M791-901Q804-909 826-909Q848-909 882-883.50Q916-858 916-839.50Q916-821 903-810Q890-799 811.50-727.50Q733-656 632-563Q531-470 471-416Q463-320 463-217.50Q463-115 490-115Q548-123 630-208Q660-239 689.50-271Q719-303 725.50-308.50Q732-314 742-314Q760-314 764.50-293Q769-272 769-232.50Q769-193 764-182Q737-126 637.50-45.50Q538 35 449 35Q304 35 304-165Q304-206 310-264Q143-88 41 41Q33 52 8 52Q-17 52-48 27Q-79 2-79-18.50Q-79-39-75-51Q-64-91 53.50-218Q171-345 322-475Q318-561 318-607.50Q318-654 312.50-654Q307-654 275.50-625Q244-596 226-596Q208-596 193.50-628Q179-660 179-673Q179-718 255.50-788Q332-858 396-858Q414-858 443.50-839.50Q473-821 475-799Q482-694 482-625Q639-796 791-901Z"/><path id="s111:yellowtail-regular:70" d="M712.50-222Q712.50-222 738.25-238.50Q764-255 779-267.50Q794-280 814-297Q834-314 847-314Q867-314 867-268.50Q867-223 822.50-170.50Q778-118 712-81.50Q646-45 571-18Q422 37 317.50 37Q213 37 129-31.50Q45-100 45-210.50Q45-321 100-431.50Q155-542 241.50-625.50Q328-709 442.50-761Q557-813 669-813Q723-813 766-782Q809-751 809-697Q809-643 755.50-567.50Q702-492 647-492Q583-492 583-553Q583-569 613-610Q643-651 643-665.50Q643-680 632-680Q577-680 514-642Q451-604 399.50-562Q348-520 302-468Q202-355 202-233Q202-184 233.50-148.50Q265-113 339.50-113Q414-113 489-130.50Q564-148 612.50-168.50Q661-189 712.50-222Z"/><path id="s111:yellowtail-regular:41" d="M388-547Q360-547 360-582Q360-608 383.50-639Q407-670 412-680Q417-690 438.50-711Q460-732 476.50-736Q493-740 544-745Q700-760 884-762Q1084-1065 1210-1212Q1023-1178 751-1178Q382-1178 382-1343Q382-1390 429.50-1425Q477-1460 549.50-1460Q622-1460 622-1443Q622-1434 599.50-1434Q577-1434 557.50-1417.50Q538-1401 538-1386Q538-1363 636-1352Q734-1341 938.50-1341Q1143-1341 1382-1378Q1461-1443 1530.50-1476Q1600-1509 1672-1509Q1744-1509 1766-1477Q1788-1445 1788.50-1429Q1789-1413 1765-1387Q1741-1361 1698-1334Q1597-1272 1433-1260Q1258-1039 1072-760Q1149-757 1216-748.50Q1283-740 1283-696Q1283-678 1226-627Q1220-620 1211-606Q1195-582 1179.50-582Q1164-582 1144-586Q1066-589 1027-589L962-588Q610-40 598.50-18.50Q587 3 573.50 14Q560 25 540 25Q520 25 484 18.50Q448 12 430 2.50Q412-7 412-21.50Q412-36 421-63Q445-130 757-580Q554-570 435-559L388-547M1658-1450Q1642-1445 1619-1434L1658-1450Z"/><path id="s111:yellowtail-regular:15" d="M285-148Q285-148 311.50-148Q338-148 362.50-119Q387-90 387-43Q387 4 353.50 49Q320 94 253.50 143.50Q187 193 155 193Q123 193 110.50 181Q98 169 91 167Q84 165 84 149.50Q84 134 92 128Q100 122 132.50 75.50Q165 29 171 14Q155-1 155-34.50Q155-68 193.50-108Q232-148 285-148Z"/></defs><g id="line-0"><use x="0" y="1681.5" xlink:href="#s111:yellowtail-regular:55"/><use x="1161" y="1681.5" xlink:href="#s111:yellowtail-regular:75"/><use x="1966" y="1681.5" xlink:href="#s111:yellowtail-regular:72"/><use x="2616" y="1681.5" xlink:href="#s111:yellowtail-regular:3"/><use x="3041" y="1681.5" xlink:href="#s111:yellowtail-regular:40"/><use x="4273" y="1681.5" xlink:href="#s111:yellowtail-regular:88"/><use x="5083" y="1681.5" xlink:href="#s111:yellowtail-regular:85"/><use x="5798" y="1681.5" xlink:href="#s111:yellowtail-regular:82"/><use x="6548" y="1681.5" xlink:href="#s111:yellowtail-regular:83"/><use x="7349" y="1681.5" xlink:href="#s111:yellowtail-regular:72"/><use x="7999" y="1681.5" xlink:href="#s111:yellowtail-regular:68"/><use x="8833" y="1681.5" xlink:href="#s111:yellowtail-regular:81"/><use x="9633" y="1681.5" xlink:href="#s111:yellowtail-regular:3"/><use x="10058" y="1681.5" xlink:href="#s111:yellowtail-regular:79"/><use x="10586" y="1681.5" xlink:href="#s111:yellowtail-regular:68"/><use x="11420" y="1681.5" xlink:href="#s111:yellowtail-regular:81"/><use x="12220" y="1681.5" xlink:href="#s111:yellowtail-regular:74"/><use x="13077" y="1681.5" xlink:href="#s111:yellowtail-regular:88"/><use x="13887" y="1681.5" xlink:href="#s111:yellowtail-regular:68"/><use x="14721" y="1681.5" xlink:href="#s111:yellowtail-regular:74"/><use x="15578" y="1681.5" xlink:href="#s111:yellowtail-regular:72"/><use x="16228" y="1681.5" xlink:href="#s111:yellowtail-regular:86"/><use x="16981" y="1681.5" xlink:href="#s111:yellowtail-regular:3"/><use x="17406" y="1681.5" xlink:href="#s111:yellowtail-regular:68"/><use x="18240" y="1681.5" xlink:href="#s111:yellowtail-regular:85"/><use x="18955" y="1681.5" xlink:href="#s111:yellowtail-regular:72"/><use x="19605" y="1681.5" xlink:href="#s111:yellowtail-regular:3"/><use x="20030" y="1681.5" xlink:href="#s111:yellowtail-regular:80"/><use x="21276" y="1681.5" xlink:href="#s111:yellowtail-regular:72"/><use x="21926" y="1681.5" xlink:href="#s111:yellowtail-regular:80"/><use x="23172" y="1681.5" xlink:href="#s111:yellowtail-regular:69"/><use x="23935" y="1681.5" xlink:href="#s111:yellowtail-regular:72"/><use x="24585" y="1681.5" xlink:href="#s111:yellowtail-regular:85"/><use x="25300" y="1681.5" xlink:href="#s111:yellowtail-regular:86"/><use x="26053" y="1681.5" xlink:href="#s111:yellowtail-regular:3"/><use x="26478" y="1681.5" xlink:href="#s111:yellowtail-regular:82"/><use x="27228" y="1681.5" xlink:href="#s111:yellowtail-regular:73"/><use x="27965" y="1681.5" xlink:href="#s111:yellowtail-regular:3"/><use x="28390" y="1681.5" xlink:href="#s111:yellowtail-regular:87"/><use x="28830" y="1681.5" xlink:href="#s111:yellowtail-regular:75"/><use x="29635" y="1681.5" xlink:href="#s111:yellowtail-regular:72"/><use x="30285" y="1681.5" xlink:href="#s111:yellowtail-regular:3"/><use x="30710" y="1681.5" xlink:href="#s111:yellowtail-regular:86"/><use x="31463" y="1681.5" xlink:href="#s111:yellowtail-regular:68"/><use x="32297" y="1681.5" xlink:href="#s111:yellowtail-regular:80"/><use x="33543" y="1681.5" xlink:href="#s111:yellowtail-regular:72"/><use x="34193" y="1681.5" xlink:href="#s111:yellowtail-regular:3"/><use x="34618" y="1681.5" xlink:href="#s111:yellowtail-regular:73"/><use x="35355" y="1681.5" xlink:href="#s111:yellowtail-regular:68"/><use x="36189" y="1681.5" xlink:href="#s111:yellowtail-regular:80"/><use x="37435" y="1681.5" xlink:href="#s111:yellowtail-regular:76"/><use x="37850" y="1681.5" xlink:href="#s111:yellowtail-regular:79"/><use x="38378" y="1681.5" xlink:href="#s111:yellowtail-regular:92"/><use x="39177" y="1681.5" xlink:href="#s111:yellowtail-regular:17"/></g><g id="line-1"><use x="8236" y="4139.1" xlink:href="#s111:yellowtail-regular:55"/><use x="9397" y="4139.1" xlink:href="#s111:yellowtail-regular:75"/><use x="10202" y="4139.1" xlink:href="#s111:yellowtail-regular:72"/><use x="10852" y="4139.1" xlink:href="#s111:yellowtail-regular:76"/><use x="11267" y="4139.1" xlink:href="#s111:yellowtail-regular:85"/><use x="11982" y="4139.1" xlink:href="#s111:yellowtail-regular:3"/><use x="12407" y="4139.1" xlink:href="#s111:yellowtail-regular:86"/><use x="13160" y="4139.1" xlink:href="#s111:yellowtail-regular:72"/><use x="13810" y="4139.1" xlink:href="#s111:yellowtail-regular:83"/><use x="14611" y="4139.1" xlink:href="#s111:yellowtail-regular:68"/><use x="15445" y="4139.1" xlink:href="#s111:yellowtail-regular:85"/><use x="16160" y="4139.1" xlink:href="#s111:yellowtail-regular:68"/><use x="16994" y="4139.1" xlink:href="#s111:yellowtail-regular:87"/><use x="17434" y="4139.1" xlink:href="#s111:yellowtail-regular:72"/><use x="18084" y="4139.1" xlink:href="#s111:yellowtail-regular:3"/><use x="18509" y="4139.1" xlink:href="#s111:yellowtail-regular:72"/><use x="19159" y="4139.1" xlink:href="#s111:yellowtail-regular:91"/><use x="19919" y="4139.1" xlink:href="#s111:yellowtail-regular:76"/><use x="20334" y="4139.1" xlink:href="#s111:yellowtail-regular:86"/><use x="21087" y="4139.1" xlink:href="#s111:yellowtail-regular:87"/><use x="21527" y="4139.1" xlink:href="#s111:yellowtail-regular:72"/><use x="22177" y="4139.1" xlink:href="#s111:yellowtail-regular:81"/><use x="22977" y="4139.1" xlink:href="#s111:yellowtail-regular:70"/><use x="23724" y="4139.1" xlink:href="#s111:yellowtail-regular:72"/><use x="24374" y="4139.1" xlink:href="#s111:yellowtail-regular:3"/><use x="24799" y="4139.1" xlink:href="#s111:yellowtail-regular:76"/><use x="25214" y="4139.1" xlink:href="#s111:yellowtail-regular:86"/><use x="25967" y="4139.1" xlink:href="#s111:yellowtail-regular:3"/><use x="26392" y="4139.1" xlink:href="#s111:yellowtail-regular:68"/><use x="27226" y="4139.1" xlink:href="#s111:yellowtail-regular:3"/><use x="27651" y="4139.1" xlink:href="#s111:yellowtail-regular:80"/><use x="28897" y="4139.1" xlink:href="#s111:yellowtail-regular:92"/><use x="29696" y="4139.1" xlink:href="#s111:yellowtail-regular:87"/><use x="30136" y="4139.1" xlink:href="#s111:yellowtail-regular:75"/><use x="30941" y="4139.1" xlink:href="#s111:yellowtail-regular:17"/></g><g id="line-2"><use x="9660.5" y="6596.7" xlink:href="#s111:yellowtail-regular:41"/><use x="10849.5" y="6596.7" xlink:href="#s111:yellowtail-regular:82"/><use x="11599.5" y="6596.7" xlink:href="#s111:yellowtail-regular:85"/><use x="12314.5" y="6596.7" xlink:href="#s111:yellowtail-regular:3"/><use x="12739.5" y="6596.7" xlink:href="#s111:yellowtail-regular:86"/><use x="13492.5" y="6596.7" xlink:href="#s111:yellowtail-regular:70"/><use x="14239.5" y="6596.7" xlink:href="#s111:yellowtail-regular:76"/><use x="14654.5" y="6596.7" xlink:href="#s111:yellowtail-regular:72"/><use x="15304.5" y="6596.7" xlink:href="#s111:yellowtail-regular:81"/><use x="16104.5" y="6596.7" xlink:href="#s111:yellowtail-regular:70"/><use x="16851.5" y="6596.7" xlink:href="#s111:yellowtail-regular:72"/><use x="17501.5" y="6596.7" xlink:href="#s111:yellowtail-regular:15"/><use x="17988.5" y="6596.7" xlink:href="#s111:yellowtail-regular:3"/><use x="18413.5" y="6596.7" xlink:href="#s111:yellowtail-regular:80"/><use x="19659.5" y="6596.7" xlink:href="#s111:yellowtail-regular:88"/><use x="20469.5" y="6596.7" xlink:href="#s111:yellowtail-regular:86"/><use x="21222.5" y="6596.7" xlink:href="#s111:yellowtail-regular:76"/><use x="21637.5" y="6596.7" xlink:href="#s111:yellowtail-regular:70"/><use x="22384.5" y="6596.7" xlink:href="#s111:yellowtail-regular:15"/><use x="22871.5" y="6596.7" xlink:href="#s111:yellowtail-regular:3"/><use x="23296.5" y="6596.7" xlink:href="#s111:yellowtail-regular:86"/><use x="24049.5" y="6596.7" xlink:href="#s111:yellowtail-regular:83"/><use x="24850.5" y="6596.7" xlink:href="#s111:yellowtail-regular:82"/><use x="25600.5" y="6596.7" xlink:href="#s111:yellowtail-regular:85"/><use x="26315.5" y="6596.7" xlink:href="#s111:yellowtail-regular:87"/><use x="26755.5" y="6596.7" xlink:href="#s111:yellowtail-regular:15"/><use x="27242.5" y="6596.7" xlink:href="#s111:yellowtail-regular:3"/><use x="27667.5" y="6596.7" xlink:href="#s111:yellowtail-regular:72"/><use x="28317.5" y="6596.7" xlink:href="#s111:yellowtail-regular:87"/><use x="28757.5" y="6596.7" xlink:href="#s111:yellowtail-regular:70"/><use x="29504.5" y="6596.7" xlink:href="#s111:yellowtail-regular:15"/></g></svg>